%TF.GenerationSoftware,KiCad,Pcbnew,7.0.7*%
%TF.CreationDate,2024-03-20T00:35:15+00:00*%
%TF.ProjectId,TIMPS2Key,54494d50-5332-44b6-9579-2e6b69636164,rev?*%
%TF.SameCoordinates,Original*%
%TF.FileFunction,Copper,L1,Top*%
%TF.FilePolarity,Positive*%
%FSLAX46Y46*%
G04 Gerber Fmt 4.6, Leading zero omitted, Abs format (unit mm)*
G04 Created by KiCad (PCBNEW 7.0.7) date 2024-03-20 00:35:15*
%MOMM*%
%LPD*%
G01*
G04 APERTURE LIST*
%TA.AperFunction,ComponentPad*%
%ADD10R,1.905000X2.000000*%
%TD*%
%TA.AperFunction,ComponentPad*%
%ADD11O,1.905000X2.000000*%
%TD*%
%TA.AperFunction,ComponentPad*%
%ADD12R,1.600000X1.600000*%
%TD*%
%TA.AperFunction,ComponentPad*%
%ADD13O,1.600000X1.600000*%
%TD*%
%TA.AperFunction,ComponentPad*%
%ADD14C,1.400000*%
%TD*%
%TA.AperFunction,ComponentPad*%
%ADD15O,1.400000X1.400000*%
%TD*%
%TA.AperFunction,ComponentPad*%
%ADD16R,1.700000X1.700000*%
%TD*%
%TA.AperFunction,ComponentPad*%
%ADD17O,1.700000X1.700000*%
%TD*%
%TA.AperFunction,ComponentPad*%
%ADD18C,1.600000*%
%TD*%
%TA.AperFunction,ComponentPad*%
%ADD19O,3.500000X2.000000*%
%TD*%
%TA.AperFunction,ComponentPad*%
%ADD20O,2.000000X4.000000*%
%TD*%
%TA.AperFunction,ComponentPad*%
%ADD21R,2.100000X2.100000*%
%TD*%
%TA.AperFunction,ComponentPad*%
%ADD22C,2.100000*%
%TD*%
%TA.AperFunction,ComponentPad*%
%ADD23R,1.800000X1.800000*%
%TD*%
%TA.AperFunction,ComponentPad*%
%ADD24C,1.800000*%
%TD*%
%TA.AperFunction,ComponentPad*%
%ADD25R,1.200000X1.200000*%
%TD*%
%TA.AperFunction,ComponentPad*%
%ADD26C,1.200000*%
%TD*%
%TA.AperFunction,Conductor*%
%ADD27C,0.600000*%
%TD*%
%TA.AperFunction,Conductor*%
%ADD28C,0.400000*%
%TD*%
G04 APERTURE END LIST*
D10*
%TO.P,U3,1,VI*%
%TO.N,+12V*%
X90280000Y-76650000D03*
D11*
%TO.P,U3,2,GND*%
%TO.N,GND*%
X92820000Y-76650000D03*
%TO.P,U3,3,VO*%
%TO.N,+5V*%
X95360000Y-76650000D03*
%TD*%
D12*
%TO.P,U2,1,C1+*%
%TO.N,Net-(U2-C1+)*%
X128880000Y-49360000D03*
D13*
%TO.P,U2,2,VS+*%
%TO.N,Net-(U2-VS+)*%
X126340000Y-49360000D03*
%TO.P,U2,3,C1-*%
%TO.N,Net-(U2-C1-)*%
X123800000Y-49360000D03*
%TO.P,U2,4,C2+*%
%TO.N,Net-(U2-C2+)*%
X121260000Y-49360000D03*
%TO.P,U2,5,C2-*%
%TO.N,Net-(U2-C2-)*%
X118720000Y-49360000D03*
%TO.P,U2,6,VS-*%
%TO.N,Net-(U2-VS-)*%
X116180000Y-49360000D03*
%TO.P,U2,7,T2OUT*%
%TO.N,unconnected-(U2-T2OUT-Pad7)*%
X113640000Y-49360000D03*
%TO.P,U2,8,R2IN*%
%TO.N,GND*%
X111100000Y-49360000D03*
%TO.P,U2,9,R2OUT*%
%TO.N,unconnected-(U2-R2OUT-Pad9)*%
X111100000Y-56980000D03*
%TO.P,U2,10,T2IN*%
%TO.N,GND*%
X113640000Y-56980000D03*
%TO.P,U2,11,T1IN*%
%TO.N,Net-(U1-Pin_1)*%
X116180000Y-56980000D03*
%TO.P,U2,12,R1OUT*%
%TO.N,Net-(U1-Pin_2)*%
X118720000Y-56980000D03*
%TO.P,U2,13,R1IN*%
%TO.N,S_RX*%
X121260000Y-56980000D03*
%TO.P,U2,14,T1OUT*%
%TO.N,S_TX*%
X123800000Y-56980000D03*
%TO.P,U2,15,GND*%
%TO.N,GND*%
X126340000Y-56980000D03*
%TO.P,U2,16,VCC*%
%TO.N,+5V*%
X128880000Y-56980000D03*
%TD*%
D12*
%TO.P,U1,1,Pin_1*%
%TO.N,Net-(U1-Pin_1)*%
X146470000Y-61290000D03*
D13*
%TO.P,U1,2,Pin_2*%
%TO.N,Net-(U1-Pin_2)*%
X143930000Y-61290000D03*
%TO.P,U1,3,Pin_3*%
%TO.N,unconnected-(U1-Pin_3-Pad3)*%
X141390000Y-61290000D03*
%TO.P,U1,4,Pin_4*%
%TO.N,GND*%
X138850000Y-61290000D03*
%TO.P,U1,5,Pin_5*%
%TO.N,unconnected-(U1-Pin_5-Pad5)*%
X136310000Y-61290000D03*
%TO.P,U1,6,Pin_6*%
%TO.N,PS2-CLK*%
X133770000Y-61290000D03*
%TO.P,U1,7,Pin_7*%
%TO.N,unconnected-(U1-Pin_7-Pad7)*%
X131230000Y-61290000D03*
%TO.P,U1,8,Pin_8*%
%TO.N,unconnected-(U1-Pin_8-Pad8)*%
X128690000Y-61290000D03*
%TO.P,U1,9,Pin_9*%
%TO.N,unconnected-(U1-Pin_9-Pad9)*%
X126150000Y-61290000D03*
%TO.P,U1,10,Pin_10*%
%TO.N,unconnected-(U1-Pin_10-Pad10)*%
X123610000Y-61290000D03*
%TO.P,U1,11,Pin_11*%
%TO.N,unconnected-(U1-Pin_11-Pad11)*%
X121070000Y-61290000D03*
%TO.P,U1,12,Pin_12*%
%TO.N,unconnected-(U1-Pin_12-Pad12)*%
X118530000Y-61290000D03*
%TO.P,U1,13,Pin_13*%
%TO.N,unconnected-(U1-Pin_13-Pad13)*%
X115990000Y-61290000D03*
%TO.P,U1,14,Pin_14*%
%TO.N,unconnected-(U1-Pin_14-Pad14)*%
X113450000Y-61290000D03*
%TO.P,U1,15,Pin_15*%
%TO.N,PS2-DATA*%
X110910000Y-61290000D03*
%TO.P,U1,16,Pin_16*%
%TO.N,unconnected-(U1-Pin_16-Pad16)*%
X110910000Y-76530000D03*
%TO.P,U1,17,Pin_17*%
%TO.N,unconnected-(U1-Pin_17-Pad17)*%
X113450000Y-76530000D03*
%TO.P,U1,18,Pin_18*%
%TO.N,unconnected-(U1-Pin_18-Pad18)*%
X115990000Y-76530000D03*
%TO.P,U1,19,Pin_19*%
%TO.N,unconnected-(U1-Pin_19-Pad19)*%
X118530000Y-76530000D03*
%TO.P,U1,20,Pin_20*%
%TO.N,unconnected-(U1-Pin_20-Pad20)*%
X121070000Y-76530000D03*
%TO.P,U1,21,Pin_21*%
%TO.N,unconnected-(U1-Pin_21-Pad21)*%
X123610000Y-76530000D03*
%TO.P,U1,22,Pin_22*%
%TO.N,unconnected-(U1-Pin_22-Pad22)*%
X126150000Y-76530000D03*
%TO.P,U1,23,Pin_23*%
%TO.N,unconnected-(U1-Pin_23-Pad23)*%
X128690000Y-76530000D03*
%TO.P,U1,24,Pin_24*%
%TO.N,unconnected-(U1-Pin_24-Pad24)*%
X131230000Y-76530000D03*
%TO.P,U1,25,Pin_25*%
%TO.N,unconnected-(U1-Pin_25-Pad25)*%
X133770000Y-76530000D03*
%TO.P,U1,26,Pin_26*%
%TO.N,unconnected-(U1-Pin_26-Pad26)*%
X136310000Y-76530000D03*
%TO.P,U1,27,Pin_27*%
%TO.N,+5V*%
X138850000Y-76530000D03*
%TO.P,U1,28,Pin_28*%
%TO.N,unconnected-(U1-Pin_28-Pad28)*%
X141390000Y-76530000D03*
%TO.P,U1,29,Pin_29*%
%TO.N,GND*%
X143930000Y-76530000D03*
%TO.P,U1,30,Pin_30*%
%TO.N,unconnected-(U1-Pin_30-Pad30)*%
X146470000Y-76530000D03*
%TD*%
D14*
%TO.P,R1,1*%
%TO.N,+5V*%
X151510000Y-57700000D03*
D15*
%TO.P,R1,2*%
%TO.N,Net-(D1-A)*%
X151510000Y-50080000D03*
%TD*%
D16*
%TO.P,J3,1,Pin_1*%
%TO.N,+5V*%
X93000000Y-49930000D03*
D17*
%TO.P,J3,2,Pin_2*%
%TO.N,GND*%
X90460000Y-49930000D03*
%TD*%
D12*
%TO.P,J2,1*%
%TO.N,PS2-DATA*%
X159260000Y-61655000D03*
D18*
%TO.P,J2,2*%
%TO.N,unconnected-(J2-Pad2)*%
X159260000Y-64255000D03*
%TO.P,J2,3*%
%TO.N,GND*%
X159260000Y-59555000D03*
%TO.P,J2,4*%
%TO.N,+5V*%
X159260000Y-66355000D03*
%TO.P,J2,5*%
%TO.N,PS2-CLK*%
X156460000Y-59555000D03*
%TO.P,J2,6*%
%TO.N,unconnected-(J2-Pad6)*%
X156460000Y-66355000D03*
D19*
%TO.P,J2,7*%
%TO.N,GND*%
X162110000Y-69805000D03*
X162110000Y-56105000D03*
D20*
X162910000Y-62955000D03*
%TD*%
D21*
%TO.P,J1,1*%
%TO.N,GND*%
X93200000Y-70480000D03*
D22*
%TO.P,J1,2*%
%TO.N,S_TX*%
X93200000Y-62975000D03*
%TO.P,J1,3*%
%TO.N,S_RX*%
X93200000Y-55470000D03*
%TO.P,J1,4*%
%TO.N,+12V*%
X95690000Y-67980000D03*
%TO.P,J1,5*%
X95690000Y-57970000D03*
%TO.P,J1,G*%
%TO.N,GND*%
X83193200Y-67980000D03*
X83193200Y-65475000D03*
X83193200Y-62924200D03*
X83193200Y-60475000D03*
X83193200Y-57970000D03*
%TD*%
D23*
%TO.P,D1,1,K*%
%TO.N,GND*%
X157760000Y-51880000D03*
D24*
%TO.P,D1,2,A*%
%TO.N,Net-(D1-A)*%
X157760000Y-49340000D03*
%TD*%
D25*
%TO.P,C8,1*%
%TO.N,Net-(U2-C2+)*%
X144190000Y-55027401D03*
D26*
%TO.P,C8,2*%
%TO.N,Net-(U2-C2-)*%
X144190000Y-57027401D03*
%TD*%
D25*
%TO.P,C7,1*%
%TO.N,Net-(U2-C1+)*%
X136260000Y-50137401D03*
D26*
%TO.P,C7,2*%
%TO.N,Net-(U2-C1-)*%
X136260000Y-52137401D03*
%TD*%
D25*
%TO.P,C6,1*%
%TO.N,GND*%
X144190000Y-50137401D03*
D26*
%TO.P,C6,2*%
%TO.N,Net-(U2-VS-)*%
X144190000Y-52137401D03*
%TD*%
D25*
%TO.P,C5,1*%
%TO.N,Net-(U2-VS+)*%
X136260000Y-55027401D03*
D26*
%TO.P,C5,2*%
%TO.N,+5V*%
X136260000Y-57027401D03*
%TD*%
D18*
%TO.P,C4,1*%
%TO.N,GND*%
X101610000Y-56570000D03*
%TO.P,C4,2*%
%TO.N,+5V*%
X106610000Y-56570000D03*
%TD*%
D12*
%TO.P,C3,1*%
%TO.N,+12V*%
X100490000Y-74170000D03*
D18*
%TO.P,C3,2*%
%TO.N,GND*%
X102490000Y-74170000D03*
%TD*%
%TO.P,C2,1*%
%TO.N,GND*%
X106610000Y-49220000D03*
%TO.P,C2,2*%
%TO.N,+5V*%
X106610000Y-54220000D03*
%TD*%
D12*
%TO.P,C1,1*%
%TO.N,+5V*%
X99370000Y-50260000D03*
D18*
%TO.P,C1,2*%
%TO.N,GND*%
X101370000Y-50260000D03*
%TD*%
D27*
%TO.N,+12V*%
X95780000Y-74170000D02*
X90650000Y-74170000D01*
X100490000Y-74170000D02*
X95780000Y-74170000D01*
X95690000Y-67980000D02*
X95690000Y-74080000D01*
X95690000Y-74080000D02*
X95780000Y-74170000D01*
X90280000Y-74540000D02*
X90280000Y-76650000D01*
X90650000Y-74170000D02*
X90280000Y-74540000D01*
%TO.N,+5V*%
X95360000Y-78420000D02*
X95570000Y-78630000D01*
X95360000Y-76650000D02*
X95360000Y-78420000D01*
X88230000Y-78630000D02*
X95570000Y-78630000D01*
X95570000Y-78630000D02*
X138890000Y-78630000D01*
X87990000Y-76800000D02*
X87990000Y-78390000D01*
X87990000Y-78390000D02*
X88230000Y-78630000D01*
X81010000Y-69820000D02*
X87990000Y-76800000D01*
X89802197Y-53127803D02*
X82302197Y-53127803D01*
X82302197Y-53127803D02*
X81010000Y-54420000D01*
X93000000Y-49930000D02*
X89802197Y-53127803D01*
X81010000Y-54420000D02*
X81010000Y-69820000D01*
D28*
%TO.N,PS2-DATA*%
X156945000Y-63970000D02*
X159260000Y-61655000D01*
X112260000Y-63970000D02*
X156945000Y-63970000D01*
X110910000Y-62620000D02*
X112260000Y-63970000D01*
X110910000Y-61290000D02*
X110910000Y-62620000D01*
%TO.N,PS2-CLK*%
X134050000Y-63290000D02*
X133800000Y-63040000D01*
X133800000Y-63040000D02*
X133800000Y-61320000D01*
X154570000Y-63290000D02*
X134050000Y-63290000D01*
X133800000Y-61320000D02*
X133770000Y-61290000D01*
X156460000Y-61400000D02*
X154570000Y-63290000D01*
X156460000Y-59555000D02*
X156460000Y-61400000D01*
D27*
%TO.N,+5V*%
X138850000Y-78590000D02*
X138890000Y-78630000D01*
X138890000Y-78630000D02*
X156330000Y-78630000D01*
X138850000Y-76530000D02*
X138850000Y-78590000D01*
D28*
%TO.N,Net-(D1-A)*%
X152250000Y-49340000D02*
X151510000Y-50080000D01*
X157760000Y-49340000D02*
X152250000Y-49340000D01*
D27*
%TO.N,+5V*%
X144410000Y-47050000D02*
X99440000Y-47050000D01*
X147030000Y-49670000D02*
X144410000Y-47050000D01*
X147030000Y-53220000D02*
X147030000Y-49670000D01*
X151510000Y-57700000D02*
X147030000Y-53220000D01*
D28*
%TO.N,S_TX*%
X97530000Y-56520000D02*
X99560000Y-58550000D01*
X122230000Y-58550000D02*
X123800000Y-56980000D01*
X94640000Y-56520000D02*
X97530000Y-56520000D01*
X93200000Y-57960000D02*
X94640000Y-56520000D01*
X93200000Y-62975000D02*
X93200000Y-57960000D01*
X99560000Y-58550000D02*
X122230000Y-58550000D01*
%TO.N,S_RX*%
X119290000Y-55010000D02*
X121260000Y-56980000D01*
X108020000Y-57770000D02*
X108020000Y-57700000D01*
X108020000Y-57700000D02*
X110710000Y-55010000D01*
X100470000Y-57770000D02*
X108020000Y-57770000D01*
X110710000Y-55010000D02*
X119290000Y-55010000D01*
X98170000Y-55470000D02*
X100470000Y-57770000D01*
X93200000Y-55470000D02*
X98170000Y-55470000D01*
%TO.N,Net-(U2-C2-)*%
X141190000Y-54027401D02*
X144190000Y-57027401D01*
X123387401Y-54027401D02*
X141190000Y-54027401D01*
X118720000Y-49360000D02*
X123387401Y-54027401D01*
%TO.N,Net-(U2-C2+)*%
X125037401Y-53137401D02*
X142300000Y-53137401D01*
X121260000Y-49360000D02*
X125037401Y-53137401D01*
X142300000Y-53137401D02*
X144190000Y-55027401D01*
%TO.N,Net-(U2-C1-)*%
X126577401Y-52137401D02*
X136260000Y-52137401D01*
X123800000Y-49360000D02*
X126577401Y-52137401D01*
D27*
%TO.N,+5V*%
X136260000Y-57027401D02*
X137360000Y-58127401D01*
X137360000Y-58127401D02*
X151082599Y-58127401D01*
X151082599Y-58127401D02*
X151510000Y-57700000D01*
X128880000Y-56980000D02*
X136212599Y-56980000D01*
X136212599Y-56980000D02*
X136260000Y-57027401D01*
X106610000Y-54220000D02*
X106610000Y-56570000D01*
X103330000Y-54220000D02*
X106610000Y-54220000D01*
X99370000Y-50260000D02*
X103330000Y-54220000D01*
X99370000Y-47120000D02*
X99440000Y-47050000D01*
X99370000Y-50260000D02*
X99370000Y-47120000D01*
X99440000Y-47050000D02*
X93260000Y-47050000D01*
X93000000Y-47310000D02*
X93000000Y-49930000D01*
X93260000Y-47050000D02*
X93000000Y-47310000D01*
X159990000Y-57700000D02*
X151510000Y-57700000D01*
X160560000Y-65055000D02*
X160560000Y-58270000D01*
X160560000Y-58270000D02*
X159990000Y-57700000D01*
X159260000Y-66355000D02*
X160560000Y-65055000D01*
X156330000Y-78630000D02*
X159260000Y-75700000D01*
X159260000Y-75700000D02*
X159260000Y-66355000D01*
%TO.N,+12V*%
X95690000Y-57970000D02*
X95690000Y-67980000D01*
%TD*%
%TA.AperFunction,Conductor*%
%TO.N,+5V*%
G36*
X167842539Y-46770185D02*
G01*
X167888294Y-46822989D01*
X167899500Y-46874500D01*
X167899500Y-78805500D01*
X167879815Y-78872539D01*
X167827011Y-78918294D01*
X167775500Y-78929500D01*
X80834500Y-78929500D01*
X80767461Y-78909815D01*
X80721706Y-78857011D01*
X80710500Y-78805500D01*
X80710500Y-77697870D01*
X88827000Y-77697870D01*
X88827001Y-77697876D01*
X88833408Y-77757483D01*
X88883702Y-77892328D01*
X88883706Y-77892335D01*
X88969952Y-78007544D01*
X88969955Y-78007547D01*
X89085164Y-78093793D01*
X89085171Y-78093797D01*
X89220017Y-78144091D01*
X89220016Y-78144091D01*
X89226944Y-78144835D01*
X89279627Y-78150500D01*
X91280372Y-78150499D01*
X91339983Y-78144091D01*
X91474831Y-78093796D01*
X91590046Y-78007546D01*
X91676296Y-77892331D01*
X91687725Y-77861687D01*
X91729594Y-77805755D01*
X91795058Y-77781336D01*
X91863331Y-77796186D01*
X91880069Y-77807167D01*
X92022552Y-77918066D01*
X92022558Y-77918070D01*
X92022561Y-77918072D01*
X92187891Y-78007544D01*
X92233478Y-78032215D01*
X92234336Y-78032679D01*
X92352598Y-78073278D01*
X92462083Y-78110865D01*
X92462085Y-78110865D01*
X92462087Y-78110866D01*
X92699601Y-78150500D01*
X92699602Y-78150500D01*
X92940398Y-78150500D01*
X92940399Y-78150500D01*
X93177913Y-78110866D01*
X93405664Y-78032679D01*
X93617439Y-77918072D01*
X93807463Y-77770171D01*
X93970551Y-77593010D01*
X93986489Y-77568613D01*
X94039631Y-77523258D01*
X94108862Y-77513831D01*
X94172199Y-77543330D01*
X94194106Y-77568611D01*
X94209847Y-77592704D01*
X94209851Y-77592710D01*
X94372873Y-77769797D01*
X94372883Y-77769806D01*
X94562831Y-77917649D01*
X94562840Y-77917655D01*
X94774531Y-78032215D01*
X94774545Y-78032221D01*
X95002207Y-78110379D01*
X95110000Y-78128366D01*
X95110000Y-77314652D01*
X95129685Y-77247613D01*
X95182489Y-77201858D01*
X95251647Y-77191914D01*
X95267447Y-77195248D01*
X95284404Y-77200000D01*
X95284406Y-77200000D01*
X95397622Y-77200000D01*
X95469116Y-77190173D01*
X95538210Y-77200545D01*
X95590729Y-77246627D01*
X95610000Y-77313018D01*
X95610000Y-78128365D01*
X95717792Y-78110379D01*
X95945454Y-78032221D01*
X95945468Y-78032215D01*
X96157159Y-77917655D01*
X96157168Y-77917649D01*
X96347116Y-77769806D01*
X96347126Y-77769797D01*
X96510148Y-77592710D01*
X96510156Y-77592699D01*
X96641813Y-77391184D01*
X96738508Y-77170740D01*
X96797599Y-76937395D01*
X96797599Y-76937394D01*
X96800697Y-76900000D01*
X96026956Y-76900000D01*
X95959917Y-76880315D01*
X95914162Y-76827511D01*
X95903245Y-76767537D01*
X95903987Y-76756692D01*
X95912265Y-76635683D01*
X107229500Y-76635683D01*
X107268338Y-76843450D01*
X107268339Y-76843452D01*
X107344690Y-77040539D01*
X107344691Y-77040540D01*
X107344692Y-77040542D01*
X107443424Y-77200000D01*
X107455963Y-77220250D01*
X107598355Y-77376448D01*
X107598358Y-77376450D01*
X107767032Y-77503827D01*
X107846365Y-77543330D01*
X107956237Y-77598040D01*
X107956243Y-77598043D01*
X108130011Y-77647483D01*
X108159536Y-77655884D01*
X108317271Y-77670500D01*
X108317275Y-77670500D01*
X108422725Y-77670500D01*
X108422729Y-77670500D01*
X108580464Y-77655884D01*
X108667350Y-77631162D01*
X108783756Y-77598043D01*
X108783758Y-77598041D01*
X108783761Y-77598041D01*
X108972968Y-77503827D01*
X109141642Y-77376450D01*
X109284038Y-77220249D01*
X109395308Y-77040542D01*
X109438529Y-76928974D01*
X109481102Y-76873574D01*
X109546869Y-76849983D01*
X109614949Y-76865694D01*
X109663728Y-76915718D01*
X109673931Y-76941676D01*
X109683258Y-76976488D01*
X109683261Y-76976497D01*
X109779431Y-77182732D01*
X109779432Y-77182734D01*
X109909954Y-77369141D01*
X110070858Y-77530045D01*
X110070861Y-77530047D01*
X110257266Y-77660568D01*
X110463504Y-77756739D01*
X110463509Y-77756740D01*
X110463511Y-77756741D01*
X110512237Y-77769797D01*
X110683308Y-77815635D01*
X110845230Y-77829801D01*
X110909998Y-77835468D01*
X110910000Y-77835468D01*
X110910002Y-77835468D01*
X110966672Y-77830509D01*
X111136692Y-77815635D01*
X111356496Y-77756739D01*
X111562734Y-77660568D01*
X111749139Y-77530047D01*
X111910047Y-77369139D01*
X112040568Y-77182734D01*
X112067618Y-77124724D01*
X112113790Y-77072285D01*
X112180983Y-77053133D01*
X112247865Y-77073348D01*
X112292382Y-77124725D01*
X112319429Y-77182728D01*
X112319432Y-77182734D01*
X112449954Y-77369141D01*
X112610858Y-77530045D01*
X112610861Y-77530047D01*
X112797266Y-77660568D01*
X113003504Y-77756739D01*
X113003509Y-77756740D01*
X113003511Y-77756741D01*
X113052237Y-77769797D01*
X113223308Y-77815635D01*
X113385230Y-77829801D01*
X113449998Y-77835468D01*
X113450000Y-77835468D01*
X113450002Y-77835468D01*
X113506673Y-77830509D01*
X113676692Y-77815635D01*
X113896496Y-77756739D01*
X114102734Y-77660568D01*
X114289139Y-77530047D01*
X114450047Y-77369139D01*
X114580568Y-77182734D01*
X114607618Y-77124724D01*
X114653790Y-77072285D01*
X114720983Y-77053133D01*
X114787865Y-77073348D01*
X114832382Y-77124725D01*
X114859429Y-77182728D01*
X114859432Y-77182734D01*
X114989954Y-77369141D01*
X115150858Y-77530045D01*
X115150861Y-77530047D01*
X115337266Y-77660568D01*
X115543504Y-77756739D01*
X115543509Y-77756740D01*
X115543511Y-77756741D01*
X115592237Y-77769797D01*
X115763308Y-77815635D01*
X115925230Y-77829801D01*
X115989998Y-77835468D01*
X115990000Y-77835468D01*
X115990002Y-77835468D01*
X116046672Y-77830509D01*
X116216692Y-77815635D01*
X116436496Y-77756739D01*
X116642734Y-77660568D01*
X116829139Y-77530047D01*
X116990047Y-77369139D01*
X117120568Y-77182734D01*
X117147619Y-77124721D01*
X117193788Y-77072286D01*
X117260981Y-77053133D01*
X117327862Y-77073348D01*
X117372380Y-77124722D01*
X117399432Y-77182734D01*
X117412823Y-77201858D01*
X117529954Y-77369141D01*
X117690858Y-77530045D01*
X117690861Y-77530047D01*
X117877266Y-77660568D01*
X118083504Y-77756739D01*
X118083509Y-77756740D01*
X118083511Y-77756741D01*
X118132237Y-77769797D01*
X118303308Y-77815635D01*
X118465230Y-77829801D01*
X118529998Y-77835468D01*
X118530000Y-77835468D01*
X118530002Y-77835468D01*
X118586673Y-77830509D01*
X118756692Y-77815635D01*
X118976496Y-77756739D01*
X119182734Y-77660568D01*
X119369139Y-77530047D01*
X119530047Y-77369139D01*
X119660568Y-77182734D01*
X119687619Y-77124721D01*
X119733788Y-77072286D01*
X119800981Y-77053133D01*
X119867862Y-77073348D01*
X119912380Y-77124722D01*
X119939432Y-77182734D01*
X119952823Y-77201858D01*
X120069954Y-77369141D01*
X120230858Y-77530045D01*
X120230861Y-77530047D01*
X120417266Y-77660568D01*
X120623504Y-77756739D01*
X120623509Y-77756740D01*
X120623511Y-77756741D01*
X120672237Y-77769797D01*
X120843308Y-77815635D01*
X121005230Y-77829801D01*
X121069998Y-77835468D01*
X121070000Y-77835468D01*
X121070002Y-77835468D01*
X121126672Y-77830509D01*
X121296692Y-77815635D01*
X121516496Y-77756739D01*
X121722734Y-77660568D01*
X121909139Y-77530047D01*
X122070047Y-77369139D01*
X122200568Y-77182734D01*
X122227618Y-77124724D01*
X122273790Y-77072285D01*
X122340983Y-77053133D01*
X122407865Y-77073348D01*
X122452382Y-77124725D01*
X122479429Y-77182728D01*
X122479432Y-77182734D01*
X122609954Y-77369141D01*
X122770858Y-77530045D01*
X122770861Y-77530047D01*
X122957266Y-77660568D01*
X123163504Y-77756739D01*
X123163509Y-77756740D01*
X123163511Y-77756741D01*
X123212237Y-77769797D01*
X123383308Y-77815635D01*
X123545230Y-77829801D01*
X123609998Y-77835468D01*
X123610000Y-77835468D01*
X123610002Y-77835468D01*
X123666672Y-77830509D01*
X123836692Y-77815635D01*
X124056496Y-77756739D01*
X124262734Y-77660568D01*
X124449139Y-77530047D01*
X124610047Y-77369139D01*
X124740568Y-77182734D01*
X124767618Y-77124724D01*
X124813790Y-77072285D01*
X124880983Y-77053133D01*
X124947865Y-77073348D01*
X124992382Y-77124725D01*
X125019429Y-77182728D01*
X125019432Y-77182734D01*
X125149954Y-77369141D01*
X125310858Y-77530045D01*
X125310861Y-77530047D01*
X125497266Y-77660568D01*
X125703504Y-77756739D01*
X125703509Y-77756740D01*
X125703511Y-77756741D01*
X125752237Y-77769797D01*
X125923308Y-77815635D01*
X126085230Y-77829801D01*
X126149998Y-77835468D01*
X126150000Y-77835468D01*
X126150002Y-77835468D01*
X126206672Y-77830509D01*
X126376692Y-77815635D01*
X126596496Y-77756739D01*
X126802734Y-77660568D01*
X126989139Y-77530047D01*
X127150047Y-77369139D01*
X127280568Y-77182734D01*
X127307618Y-77124724D01*
X127353790Y-77072285D01*
X127420983Y-77053133D01*
X127487865Y-77073348D01*
X127532382Y-77124725D01*
X127559429Y-77182728D01*
X127559432Y-77182734D01*
X127689954Y-77369141D01*
X127850858Y-77530045D01*
X127850861Y-77530047D01*
X128037266Y-77660568D01*
X128243504Y-77756739D01*
X128243509Y-77756740D01*
X128243511Y-77756741D01*
X128292237Y-77769797D01*
X128463308Y-77815635D01*
X128625230Y-77829801D01*
X128689998Y-77835468D01*
X128690000Y-77835468D01*
X128690002Y-77835468D01*
X128746673Y-77830509D01*
X128916692Y-77815635D01*
X129136496Y-77756739D01*
X129342734Y-77660568D01*
X129529139Y-77530047D01*
X129690047Y-77369139D01*
X129820568Y-77182734D01*
X129847618Y-77124724D01*
X129893790Y-77072285D01*
X129960983Y-77053133D01*
X130027865Y-77073348D01*
X130072382Y-77124725D01*
X130099429Y-77182728D01*
X130099432Y-77182734D01*
X130229954Y-77369141D01*
X130390858Y-77530045D01*
X130390861Y-77530047D01*
X130577266Y-77660568D01*
X130783504Y-77756739D01*
X130783509Y-77756740D01*
X130783511Y-77756741D01*
X130832237Y-77769797D01*
X131003308Y-77815635D01*
X131165230Y-77829801D01*
X131229998Y-77835468D01*
X131230000Y-77835468D01*
X131230002Y-77835468D01*
X131286672Y-77830509D01*
X131456692Y-77815635D01*
X131676496Y-77756739D01*
X131882734Y-77660568D01*
X132069139Y-77530047D01*
X132230047Y-77369139D01*
X132360568Y-77182734D01*
X132387618Y-77124724D01*
X132433790Y-77072285D01*
X132500983Y-77053133D01*
X132567865Y-77073348D01*
X132612382Y-77124725D01*
X132639429Y-77182728D01*
X132639432Y-77182734D01*
X132769954Y-77369141D01*
X132930858Y-77530045D01*
X132930861Y-77530047D01*
X133117266Y-77660568D01*
X133323504Y-77756739D01*
X133323509Y-77756740D01*
X133323511Y-77756741D01*
X133372237Y-77769797D01*
X133543308Y-77815635D01*
X133705230Y-77829801D01*
X133769998Y-77835468D01*
X133770000Y-77835468D01*
X133770002Y-77835468D01*
X133826673Y-77830509D01*
X133996692Y-77815635D01*
X134216496Y-77756739D01*
X134422734Y-77660568D01*
X134609139Y-77530047D01*
X134770047Y-77369139D01*
X134900568Y-77182734D01*
X134927618Y-77124724D01*
X134973790Y-77072285D01*
X135040983Y-77053133D01*
X135107865Y-77073348D01*
X135152382Y-77124725D01*
X135179429Y-77182728D01*
X135179432Y-77182734D01*
X135309954Y-77369141D01*
X135470858Y-77530045D01*
X135470861Y-77530047D01*
X135657266Y-77660568D01*
X135863504Y-77756739D01*
X135863509Y-77756740D01*
X135863511Y-77756741D01*
X135912237Y-77769797D01*
X136083308Y-77815635D01*
X136245230Y-77829801D01*
X136309998Y-77835468D01*
X136310000Y-77835468D01*
X136310002Y-77835468D01*
X136366673Y-77830509D01*
X136536692Y-77815635D01*
X136756496Y-77756739D01*
X136962734Y-77660568D01*
X137149139Y-77530047D01*
X137310047Y-77369139D01*
X137440568Y-77182734D01*
X137467895Y-77124129D01*
X137514064Y-77071695D01*
X137581257Y-77052542D01*
X137648139Y-77072757D01*
X137692657Y-77124133D01*
X137719865Y-77182482D01*
X137850342Y-77368820D01*
X138011179Y-77529657D01*
X138197517Y-77660134D01*
X138403673Y-77756265D01*
X138403682Y-77756269D01*
X138599999Y-77808872D01*
X138600000Y-77808871D01*
X138600000Y-77142301D01*
X138619685Y-77075262D01*
X138672489Y-77029507D01*
X138741647Y-77019563D01*
X138814237Y-77030000D01*
X138814238Y-77030000D01*
X138885762Y-77030000D01*
X138885763Y-77030000D01*
X138958353Y-77019563D01*
X139027512Y-77029507D01*
X139080315Y-77075262D01*
X139100000Y-77142301D01*
X139100000Y-77808872D01*
X139296317Y-77756269D01*
X139296326Y-77756265D01*
X139502482Y-77660134D01*
X139688820Y-77529657D01*
X139849657Y-77368820D01*
X139980132Y-77182484D01*
X140007341Y-77124134D01*
X140053513Y-77071695D01*
X140120707Y-77052542D01*
X140187588Y-77072757D01*
X140232105Y-77124132D01*
X140239769Y-77140567D01*
X140259431Y-77182732D01*
X140259432Y-77182734D01*
X140389954Y-77369141D01*
X140550858Y-77530045D01*
X140550861Y-77530047D01*
X140737266Y-77660568D01*
X140943504Y-77756739D01*
X140943509Y-77756740D01*
X140943511Y-77756741D01*
X140992237Y-77769797D01*
X141163308Y-77815635D01*
X141325230Y-77829801D01*
X141389998Y-77835468D01*
X141390000Y-77835468D01*
X141390002Y-77835468D01*
X141446672Y-77830509D01*
X141616692Y-77815635D01*
X141836496Y-77756739D01*
X142042734Y-77660568D01*
X142229139Y-77530047D01*
X142390047Y-77369139D01*
X142520568Y-77182734D01*
X142547618Y-77124724D01*
X142593790Y-77072285D01*
X142660983Y-77053133D01*
X142727865Y-77073348D01*
X142772382Y-77124725D01*
X142799429Y-77182728D01*
X142799432Y-77182734D01*
X142929954Y-77369141D01*
X143090858Y-77530045D01*
X143090861Y-77530047D01*
X143277266Y-77660568D01*
X143483504Y-77756739D01*
X143483509Y-77756740D01*
X143483511Y-77756741D01*
X143532237Y-77769797D01*
X143703308Y-77815635D01*
X143865230Y-77829801D01*
X143929998Y-77835468D01*
X143930000Y-77835468D01*
X143930002Y-77835468D01*
X143986673Y-77830509D01*
X144156692Y-77815635D01*
X144376496Y-77756739D01*
X144582734Y-77660568D01*
X144769139Y-77530047D01*
X144930047Y-77369139D01*
X145060568Y-77182734D01*
X145087618Y-77124724D01*
X145133790Y-77072285D01*
X145200983Y-77053133D01*
X145267865Y-77073348D01*
X145312382Y-77124725D01*
X145339429Y-77182728D01*
X145339432Y-77182734D01*
X145469954Y-77369141D01*
X145630858Y-77530045D01*
X145630861Y-77530047D01*
X145817266Y-77660568D01*
X146023504Y-77756739D01*
X146023509Y-77756740D01*
X146023511Y-77756741D01*
X146072237Y-77769797D01*
X146243308Y-77815635D01*
X146405230Y-77829801D01*
X146469998Y-77835468D01*
X146470000Y-77835468D01*
X146470002Y-77835468D01*
X146526672Y-77830509D01*
X146696692Y-77815635D01*
X146916496Y-77756739D01*
X147122734Y-77660568D01*
X147309139Y-77530047D01*
X147470047Y-77369139D01*
X147600568Y-77182734D01*
X147696739Y-76976496D01*
X147706069Y-76941675D01*
X147742430Y-76882018D01*
X147805276Y-76851487D01*
X147874652Y-76859779D01*
X147928531Y-76904263D01*
X147941469Y-76928974D01*
X147984688Y-77040533D01*
X147984691Y-77040539D01*
X147984692Y-77040542D01*
X148083424Y-77200000D01*
X148095963Y-77220250D01*
X148238355Y-77376448D01*
X148238358Y-77376450D01*
X148407032Y-77503827D01*
X148486365Y-77543330D01*
X148596237Y-77598040D01*
X148596243Y-77598043D01*
X148770011Y-77647483D01*
X148799536Y-77655884D01*
X148957271Y-77670500D01*
X148957275Y-77670500D01*
X149062725Y-77670500D01*
X149062729Y-77670500D01*
X149220464Y-77655884D01*
X149307350Y-77631162D01*
X149423756Y-77598043D01*
X149423758Y-77598041D01*
X149423761Y-77598041D01*
X149612968Y-77503827D01*
X149781642Y-77376450D01*
X149924038Y-77220249D01*
X150035308Y-77040542D01*
X150111662Y-76843450D01*
X150150500Y-76635683D01*
X150150500Y-76424317D01*
X150111662Y-76216550D01*
X150035308Y-76019458D01*
X150029452Y-76010001D01*
X163604532Y-76010001D01*
X163624364Y-76236686D01*
X163624366Y-76236697D01*
X163683258Y-76456488D01*
X163683261Y-76456497D01*
X163779431Y-76662732D01*
X163779432Y-76662734D01*
X163909954Y-76849141D01*
X164070858Y-77010045D01*
X164070861Y-77010047D01*
X164257266Y-77140568D01*
X164463504Y-77236739D01*
X164463509Y-77236740D01*
X164463511Y-77236741D01*
X164516415Y-77250916D01*
X164683308Y-77295635D01*
X164853216Y-77310500D01*
X164966784Y-77310500D01*
X165136692Y-77295635D01*
X165356496Y-77236739D01*
X165562734Y-77140568D01*
X165749139Y-77010047D01*
X165910047Y-76849139D01*
X166040568Y-76662734D01*
X166136739Y-76456496D01*
X166195635Y-76236692D01*
X166214640Y-76019460D01*
X166215468Y-76010001D01*
X166215468Y-76009998D01*
X166195635Y-75783313D01*
X166195635Y-75783308D01*
X166136739Y-75563504D01*
X166040568Y-75357266D01*
X165910047Y-75170861D01*
X165910045Y-75170858D01*
X165749141Y-75009954D01*
X165562734Y-74879432D01*
X165562732Y-74879431D01*
X165356497Y-74783261D01*
X165356488Y-74783258D01*
X165136697Y-74724366D01*
X165136687Y-74724364D01*
X164966784Y-74709500D01*
X164853216Y-74709500D01*
X164683312Y-74724364D01*
X164683302Y-74724366D01*
X164463511Y-74783258D01*
X164463502Y-74783261D01*
X164257267Y-74879431D01*
X164257265Y-74879432D01*
X164070858Y-75009954D01*
X163909954Y-75170858D01*
X163779432Y-75357265D01*
X163779431Y-75357267D01*
X163683261Y-75563502D01*
X163683258Y-75563511D01*
X163624366Y-75783302D01*
X163624364Y-75783313D01*
X163604532Y-76009998D01*
X163604532Y-76010001D01*
X150029452Y-76010001D01*
X149924038Y-75839751D01*
X149872588Y-75783313D01*
X149781644Y-75683551D01*
X149612968Y-75556173D01*
X149423762Y-75461959D01*
X149423756Y-75461956D01*
X149220466Y-75404116D01*
X149220463Y-75404115D01*
X149108472Y-75393738D01*
X149062729Y-75389500D01*
X148957271Y-75389500D01*
X148914619Y-75393452D01*
X148799536Y-75404115D01*
X148799533Y-75404116D01*
X148596243Y-75461956D01*
X148596237Y-75461959D01*
X148407031Y-75556173D01*
X148238355Y-75683551D01*
X148095963Y-75839749D01*
X147984691Y-76019459D01*
X147984687Y-76019466D01*
X147941469Y-76131025D01*
X147898896Y-76186426D01*
X147833129Y-76210016D01*
X147765049Y-76194304D01*
X147716270Y-76144280D01*
X147706069Y-76118326D01*
X147696739Y-76083504D01*
X147600568Y-75877266D01*
X147470047Y-75690861D01*
X147470045Y-75690858D01*
X147309141Y-75529954D01*
X147122734Y-75399432D01*
X147122732Y-75399431D01*
X146916497Y-75303261D01*
X146916488Y-75303258D01*
X146696697Y-75244366D01*
X146696693Y-75244365D01*
X146696692Y-75244365D01*
X146696691Y-75244364D01*
X146696686Y-75244364D01*
X146470002Y-75224532D01*
X146469998Y-75224532D01*
X146243313Y-75244364D01*
X146243302Y-75244366D01*
X146023511Y-75303258D01*
X146023502Y-75303261D01*
X145817267Y-75399431D01*
X145817265Y-75399432D01*
X145630858Y-75529954D01*
X145469954Y-75690858D01*
X145339432Y-75877265D01*
X145339431Y-75877267D01*
X145312382Y-75935275D01*
X145266209Y-75987714D01*
X145199016Y-76006866D01*
X145132135Y-75986650D01*
X145087618Y-75935275D01*
X145079422Y-75917698D01*
X145060568Y-75877266D01*
X144930047Y-75690861D01*
X144930045Y-75690858D01*
X144769141Y-75529954D01*
X144582734Y-75399432D01*
X144582732Y-75399431D01*
X144376497Y-75303261D01*
X144376488Y-75303258D01*
X144156697Y-75244366D01*
X144156693Y-75244365D01*
X144156692Y-75244365D01*
X144156691Y-75244364D01*
X144156686Y-75244364D01*
X143930002Y-75224532D01*
X143929998Y-75224532D01*
X143703313Y-75244364D01*
X143703302Y-75244366D01*
X143483511Y-75303258D01*
X143483502Y-75303261D01*
X143277267Y-75399431D01*
X143277265Y-75399432D01*
X143090858Y-75529954D01*
X142929954Y-75690858D01*
X142799432Y-75877265D01*
X142799431Y-75877267D01*
X142772382Y-75935275D01*
X142726209Y-75987714D01*
X142659016Y-76006866D01*
X142592135Y-75986650D01*
X142547618Y-75935275D01*
X142539422Y-75917698D01*
X142520568Y-75877266D01*
X142390047Y-75690861D01*
X142390045Y-75690858D01*
X142229141Y-75529954D01*
X142042734Y-75399432D01*
X142042732Y-75399431D01*
X141836497Y-75303261D01*
X141836488Y-75303258D01*
X141616697Y-75244366D01*
X141616693Y-75244365D01*
X141616692Y-75244365D01*
X141616691Y-75244364D01*
X141616686Y-75244364D01*
X141390002Y-75224532D01*
X141389998Y-75224532D01*
X141163313Y-75244364D01*
X141163302Y-75244366D01*
X140943511Y-75303258D01*
X140943502Y-75303261D01*
X140737267Y-75399431D01*
X140737265Y-75399432D01*
X140550858Y-75529954D01*
X140389954Y-75690858D01*
X140285701Y-75839749D01*
X140259432Y-75877266D01*
X140232383Y-75935274D01*
X140232106Y-75935867D01*
X140185933Y-75988306D01*
X140118739Y-76007457D01*
X140051858Y-75987241D01*
X140007342Y-75935865D01*
X139980135Y-75877520D01*
X139980134Y-75877518D01*
X139849657Y-75691179D01*
X139688820Y-75530342D01*
X139502482Y-75399865D01*
X139296328Y-75303734D01*
X139100000Y-75251127D01*
X139100000Y-75917698D01*
X139080315Y-75984737D01*
X139027511Y-76030492D01*
X138958355Y-76040436D01*
X138885766Y-76030000D01*
X138885763Y-76030000D01*
X138814237Y-76030000D01*
X138814233Y-76030000D01*
X138741645Y-76040436D01*
X138672487Y-76030492D01*
X138619684Y-75984736D01*
X138600000Y-75917698D01*
X138600000Y-75251127D01*
X138403671Y-75303734D01*
X138197517Y-75399865D01*
X138011179Y-75530342D01*
X137850342Y-75691179D01*
X137719867Y-75877515D01*
X137692657Y-75935867D01*
X137646484Y-75988306D01*
X137579290Y-76007457D01*
X137512409Y-75987241D01*
X137467893Y-75935865D01*
X137467617Y-75935274D01*
X137440568Y-75877266D01*
X137310047Y-75690861D01*
X137310045Y-75690858D01*
X137149141Y-75529954D01*
X136962734Y-75399432D01*
X136962732Y-75399431D01*
X136756497Y-75303261D01*
X136756488Y-75303258D01*
X136536697Y-75244366D01*
X136536693Y-75244365D01*
X136536692Y-75244365D01*
X136536691Y-75244364D01*
X136536686Y-75244364D01*
X136310002Y-75224532D01*
X136309998Y-75224532D01*
X136083313Y-75244364D01*
X136083302Y-75244366D01*
X135863511Y-75303258D01*
X135863502Y-75303261D01*
X135657267Y-75399431D01*
X135657265Y-75399432D01*
X135470858Y-75529954D01*
X135309954Y-75690858D01*
X135179432Y-75877265D01*
X135179431Y-75877267D01*
X135152382Y-75935275D01*
X135106209Y-75987714D01*
X135039016Y-76006866D01*
X134972135Y-75986650D01*
X134927618Y-75935275D01*
X134919422Y-75917698D01*
X134900568Y-75877266D01*
X134770047Y-75690861D01*
X134770045Y-75690858D01*
X134609141Y-75529954D01*
X134422734Y-75399432D01*
X134422732Y-75399431D01*
X134216497Y-75303261D01*
X134216488Y-75303258D01*
X133996697Y-75244366D01*
X133996693Y-75244365D01*
X133996692Y-75244365D01*
X133996691Y-75244364D01*
X133996686Y-75244364D01*
X133770002Y-75224532D01*
X133769998Y-75224532D01*
X133543313Y-75244364D01*
X133543302Y-75244366D01*
X133323511Y-75303258D01*
X133323502Y-75303261D01*
X133117267Y-75399431D01*
X133117265Y-75399432D01*
X132930858Y-75529954D01*
X132769954Y-75690858D01*
X132639432Y-75877265D01*
X132639431Y-75877267D01*
X132612382Y-75935275D01*
X132566209Y-75987714D01*
X132499016Y-76006866D01*
X132432135Y-75986650D01*
X132387618Y-75935275D01*
X132379422Y-75917698D01*
X132360568Y-75877266D01*
X132230047Y-75690861D01*
X132230045Y-75690858D01*
X132069141Y-75529954D01*
X131882734Y-75399432D01*
X131882732Y-75399431D01*
X131676497Y-75303261D01*
X131676488Y-75303258D01*
X131456697Y-75244366D01*
X131456693Y-75244365D01*
X131456692Y-75244365D01*
X131456691Y-75244364D01*
X131456686Y-75244364D01*
X131230002Y-75224532D01*
X131229998Y-75224532D01*
X131003313Y-75244364D01*
X131003302Y-75244366D01*
X130783511Y-75303258D01*
X130783502Y-75303261D01*
X130577267Y-75399431D01*
X130577265Y-75399432D01*
X130390858Y-75529954D01*
X130229954Y-75690858D01*
X130099432Y-75877265D01*
X130099431Y-75877267D01*
X130072382Y-75935275D01*
X130026209Y-75987714D01*
X129959016Y-76006866D01*
X129892135Y-75986650D01*
X129847618Y-75935275D01*
X129839422Y-75917698D01*
X129820568Y-75877266D01*
X129690047Y-75690861D01*
X129690045Y-75690858D01*
X129529141Y-75529954D01*
X129342734Y-75399432D01*
X129342732Y-75399431D01*
X129136497Y-75303261D01*
X129136488Y-75303258D01*
X128916697Y-75244366D01*
X128916693Y-75244365D01*
X128916692Y-75244365D01*
X128916691Y-75244364D01*
X128916686Y-75244364D01*
X128690002Y-75224532D01*
X128689998Y-75224532D01*
X128463313Y-75244364D01*
X128463302Y-75244366D01*
X128243511Y-75303258D01*
X128243502Y-75303261D01*
X128037267Y-75399431D01*
X128037265Y-75399432D01*
X127850858Y-75529954D01*
X127689954Y-75690858D01*
X127559432Y-75877265D01*
X127559431Y-75877267D01*
X127532382Y-75935275D01*
X127486209Y-75987714D01*
X127419016Y-76006866D01*
X127352135Y-75986650D01*
X127307618Y-75935275D01*
X127299422Y-75917698D01*
X127280568Y-75877266D01*
X127150047Y-75690861D01*
X127150045Y-75690858D01*
X126989141Y-75529954D01*
X126802734Y-75399432D01*
X126802732Y-75399431D01*
X126596497Y-75303261D01*
X126596488Y-75303258D01*
X126376697Y-75244366D01*
X126376693Y-75244365D01*
X126376692Y-75244365D01*
X126376691Y-75244364D01*
X126376686Y-75244364D01*
X126150002Y-75224532D01*
X126149998Y-75224532D01*
X125923313Y-75244364D01*
X125923302Y-75244366D01*
X125703511Y-75303258D01*
X125703502Y-75303261D01*
X125497267Y-75399431D01*
X125497265Y-75399432D01*
X125310858Y-75529954D01*
X125149954Y-75690858D01*
X125019432Y-75877265D01*
X125019431Y-75877267D01*
X124992382Y-75935275D01*
X124946209Y-75987714D01*
X124879016Y-76006866D01*
X124812135Y-75986650D01*
X124767618Y-75935275D01*
X124759422Y-75917698D01*
X124740568Y-75877266D01*
X124610047Y-75690861D01*
X124610045Y-75690858D01*
X124449141Y-75529954D01*
X124262734Y-75399432D01*
X124262732Y-75399431D01*
X124056497Y-75303261D01*
X124056488Y-75303258D01*
X123836697Y-75244366D01*
X123836693Y-75244365D01*
X123836692Y-75244365D01*
X123836691Y-75244364D01*
X123836686Y-75244364D01*
X123610002Y-75224532D01*
X123609998Y-75224532D01*
X123383313Y-75244364D01*
X123383302Y-75244366D01*
X123163511Y-75303258D01*
X123163502Y-75303261D01*
X122957267Y-75399431D01*
X122957265Y-75399432D01*
X122770858Y-75529954D01*
X122609954Y-75690858D01*
X122479432Y-75877265D01*
X122479431Y-75877267D01*
X122452382Y-75935275D01*
X122406209Y-75987714D01*
X122339016Y-76006866D01*
X122272135Y-75986650D01*
X122227618Y-75935275D01*
X122219422Y-75917698D01*
X122200568Y-75877266D01*
X122070047Y-75690861D01*
X122070045Y-75690858D01*
X121909141Y-75529954D01*
X121722734Y-75399432D01*
X121722732Y-75399431D01*
X121516497Y-75303261D01*
X121516488Y-75303258D01*
X121296697Y-75244366D01*
X121296693Y-75244365D01*
X121296692Y-75244365D01*
X121296691Y-75244364D01*
X121296686Y-75244364D01*
X121070002Y-75224532D01*
X121069998Y-75224532D01*
X120843313Y-75244364D01*
X120843302Y-75244366D01*
X120623511Y-75303258D01*
X120623502Y-75303261D01*
X120417267Y-75399431D01*
X120417265Y-75399432D01*
X120230858Y-75529954D01*
X120069954Y-75690858D01*
X119939432Y-75877265D01*
X119939430Y-75877268D01*
X119912380Y-75935277D01*
X119866207Y-75987715D01*
X119799013Y-76006866D01*
X119732132Y-75986649D01*
X119687619Y-75935277D01*
X119660568Y-75877266D01*
X119594779Y-75783308D01*
X119530045Y-75690858D01*
X119369141Y-75529954D01*
X119182734Y-75399432D01*
X119182732Y-75399431D01*
X118976497Y-75303261D01*
X118976488Y-75303258D01*
X118756697Y-75244366D01*
X118756693Y-75244365D01*
X118756692Y-75244365D01*
X118756691Y-75244364D01*
X118756686Y-75244364D01*
X118530002Y-75224532D01*
X118529998Y-75224532D01*
X118303313Y-75244364D01*
X118303302Y-75244366D01*
X118083511Y-75303258D01*
X118083502Y-75303261D01*
X117877267Y-75399431D01*
X117877265Y-75399432D01*
X117690858Y-75529954D01*
X117529954Y-75690858D01*
X117399432Y-75877265D01*
X117399430Y-75877268D01*
X117372380Y-75935277D01*
X117326207Y-75987715D01*
X117259013Y-76006866D01*
X117192132Y-75986649D01*
X117147619Y-75935277D01*
X117120568Y-75877266D01*
X117054779Y-75783308D01*
X116990045Y-75690858D01*
X116829141Y-75529954D01*
X116642734Y-75399432D01*
X116642732Y-75399431D01*
X116436497Y-75303261D01*
X116436488Y-75303258D01*
X116216697Y-75244366D01*
X116216693Y-75244365D01*
X116216692Y-75244365D01*
X116216691Y-75244364D01*
X116216686Y-75244364D01*
X115990002Y-75224532D01*
X115989998Y-75224532D01*
X115763313Y-75244364D01*
X115763302Y-75244366D01*
X115543511Y-75303258D01*
X115543502Y-75303261D01*
X115337267Y-75399431D01*
X115337265Y-75399432D01*
X115150858Y-75529954D01*
X114989954Y-75690858D01*
X114859432Y-75877265D01*
X114859430Y-75877268D01*
X114832380Y-75935277D01*
X114786207Y-75987715D01*
X114719013Y-76006866D01*
X114652132Y-75986649D01*
X114607619Y-75935277D01*
X114580568Y-75877266D01*
X114514779Y-75783308D01*
X114450045Y-75690858D01*
X114289141Y-75529954D01*
X114102734Y-75399432D01*
X114102732Y-75399431D01*
X113896497Y-75303261D01*
X113896488Y-75303258D01*
X113676697Y-75244366D01*
X113676693Y-75244365D01*
X113676692Y-75244365D01*
X113676691Y-75244364D01*
X113676686Y-75244364D01*
X113450002Y-75224532D01*
X113449998Y-75224532D01*
X113223313Y-75244364D01*
X113223302Y-75244366D01*
X113003511Y-75303258D01*
X113003502Y-75303261D01*
X112797267Y-75399431D01*
X112797265Y-75399432D01*
X112610858Y-75529954D01*
X112449954Y-75690858D01*
X112319432Y-75877265D01*
X112319430Y-75877268D01*
X112292380Y-75935277D01*
X112246207Y-75987715D01*
X112179013Y-76006866D01*
X112112132Y-75986649D01*
X112067619Y-75935277D01*
X112040568Y-75877266D01*
X111974779Y-75783308D01*
X111910045Y-75690858D01*
X111749141Y-75529954D01*
X111562734Y-75399432D01*
X111562732Y-75399431D01*
X111356497Y-75303261D01*
X111356488Y-75303258D01*
X111136697Y-75244366D01*
X111136693Y-75244365D01*
X111136692Y-75244365D01*
X111136691Y-75244364D01*
X111136686Y-75244364D01*
X110910002Y-75224532D01*
X110909998Y-75224532D01*
X110683313Y-75244364D01*
X110683302Y-75244366D01*
X110463511Y-75303258D01*
X110463502Y-75303261D01*
X110257267Y-75399431D01*
X110257265Y-75399432D01*
X110070858Y-75529954D01*
X109909954Y-75690858D01*
X109779432Y-75877265D01*
X109779431Y-75877267D01*
X109683261Y-76083502D01*
X109683258Y-76083511D01*
X109673931Y-76118323D01*
X109637566Y-76177984D01*
X109574719Y-76208513D01*
X109505344Y-76200218D01*
X109451466Y-76155733D01*
X109438529Y-76131024D01*
X109395309Y-76019460D01*
X109395308Y-76019459D01*
X109395308Y-76019458D01*
X109284038Y-75839751D01*
X109232588Y-75783313D01*
X109141644Y-75683551D01*
X108972968Y-75556173D01*
X108783762Y-75461959D01*
X108783756Y-75461956D01*
X108580466Y-75404116D01*
X108580463Y-75404115D01*
X108468472Y-75393738D01*
X108422729Y-75389500D01*
X108317271Y-75389500D01*
X108274619Y-75393452D01*
X108159536Y-75404115D01*
X108159533Y-75404116D01*
X107956243Y-75461956D01*
X107956237Y-75461959D01*
X107767031Y-75556173D01*
X107598355Y-75683551D01*
X107455963Y-75839749D01*
X107344691Y-76019459D01*
X107344690Y-76019460D01*
X107270869Y-76210016D01*
X107268338Y-76216550D01*
X107229500Y-76424317D01*
X107229500Y-76635683D01*
X95912265Y-76635683D01*
X95913877Y-76612114D01*
X95900809Y-76549227D01*
X95906443Y-76479586D01*
X95948834Y-76424045D01*
X96014523Y-76400239D01*
X96022216Y-76400000D01*
X96800697Y-76400000D01*
X96797599Y-76362605D01*
X96797599Y-76362604D01*
X96738508Y-76129259D01*
X96641813Y-75908815D01*
X96510156Y-75707300D01*
X96510148Y-75707289D01*
X96347126Y-75530202D01*
X96347116Y-75530193D01*
X96157168Y-75382350D01*
X96157159Y-75382344D01*
X95945468Y-75267784D01*
X95945454Y-75267778D01*
X95782343Y-75211781D01*
X95725327Y-75171395D01*
X95699197Y-75106596D01*
X95712249Y-75037956D01*
X95760338Y-74987268D01*
X95822606Y-74970500D01*
X99073023Y-74970500D01*
X99140062Y-74990185D01*
X99185817Y-75042989D01*
X99193266Y-75070134D01*
X99194124Y-75069932D01*
X99195907Y-75077479D01*
X99246202Y-75212328D01*
X99246206Y-75212335D01*
X99332452Y-75327544D01*
X99332455Y-75327547D01*
X99447664Y-75413793D01*
X99447671Y-75413797D01*
X99582517Y-75464091D01*
X99582516Y-75464091D01*
X99589444Y-75464835D01*
X99642127Y-75470500D01*
X101337872Y-75470499D01*
X101397483Y-75464091D01*
X101532331Y-75413796D01*
X101647546Y-75327546D01*
X101654051Y-75318856D01*
X101709982Y-75276984D01*
X101779673Y-75271997D01*
X101824442Y-75291589D01*
X101837264Y-75300567D01*
X101837266Y-75300568D01*
X102043504Y-75396739D01*
X102043510Y-75396740D01*
X102043511Y-75396741D01*
X102084303Y-75407671D01*
X102263308Y-75455635D01*
X102425230Y-75469801D01*
X102489998Y-75475468D01*
X102490000Y-75475468D01*
X102490002Y-75475468D01*
X102546807Y-75470498D01*
X102716692Y-75455635D01*
X102936496Y-75396739D01*
X103142734Y-75300568D01*
X103329139Y-75170047D01*
X103490047Y-75009139D01*
X103620568Y-74822734D01*
X103716739Y-74616496D01*
X103775635Y-74396692D01*
X103795468Y-74170000D01*
X103775635Y-73943308D01*
X103716739Y-73723504D01*
X103620568Y-73517266D01*
X103490047Y-73330861D01*
X103490045Y-73330858D01*
X103329141Y-73169954D01*
X103142734Y-73039432D01*
X103142732Y-73039431D01*
X102936497Y-72943261D01*
X102936488Y-72943258D01*
X102716697Y-72884366D01*
X102716693Y-72884365D01*
X102716692Y-72884365D01*
X102716691Y-72884364D01*
X102716686Y-72884364D01*
X102490002Y-72864532D01*
X102489998Y-72864532D01*
X102263313Y-72884364D01*
X102263302Y-72884366D01*
X102043511Y-72943258D01*
X102043502Y-72943261D01*
X101837267Y-73039431D01*
X101837262Y-73039434D01*
X101824435Y-73048415D01*
X101758227Y-73070738D01*
X101690461Y-73053722D01*
X101654052Y-73021145D01*
X101647546Y-73012454D01*
X101647545Y-73012453D01*
X101647544Y-73012452D01*
X101532335Y-72926206D01*
X101532328Y-72926202D01*
X101397482Y-72875908D01*
X101397483Y-72875908D01*
X101337883Y-72869501D01*
X101337881Y-72869500D01*
X101337873Y-72869500D01*
X101337864Y-72869500D01*
X99642129Y-72869500D01*
X99642123Y-72869501D01*
X99582516Y-72875908D01*
X99447671Y-72926202D01*
X99447664Y-72926206D01*
X99332455Y-73012452D01*
X99332452Y-73012455D01*
X99246206Y-73127664D01*
X99246202Y-73127671D01*
X99195908Y-73262517D01*
X99194126Y-73270062D01*
X99191853Y-73269525D01*
X99169571Y-73323312D01*
X99112177Y-73363157D01*
X99073024Y-73369500D01*
X96614500Y-73369500D01*
X96547461Y-73349815D01*
X96501706Y-73297011D01*
X96490500Y-73245500D01*
X96490500Y-69929334D01*
X159859500Y-69929334D01*
X159900429Y-70174616D01*
X159981169Y-70409802D01*
X159981172Y-70409811D01*
X160099524Y-70628506D01*
X160099526Y-70628509D01*
X160252262Y-70824744D01*
X160411744Y-70971557D01*
X160435217Y-70993166D01*
X160643393Y-71129173D01*
X160871118Y-71229063D01*
X161045928Y-71273331D01*
X161112179Y-71290108D01*
X161112181Y-71290108D01*
X161112186Y-71290109D01*
X161245376Y-71301145D01*
X161297933Y-71305500D01*
X161297935Y-71305500D01*
X162922065Y-71305500D01*
X162922067Y-71305500D01*
X162983284Y-71300427D01*
X163107813Y-71290109D01*
X163107816Y-71290108D01*
X163107821Y-71290108D01*
X163348881Y-71229063D01*
X163576607Y-71129173D01*
X163784785Y-70993164D01*
X163967738Y-70824744D01*
X164120474Y-70628509D01*
X164238828Y-70409810D01*
X164319571Y-70174614D01*
X164360500Y-69929335D01*
X164360500Y-69680665D01*
X164319571Y-69435386D01*
X164238828Y-69200190D01*
X164120474Y-68981491D01*
X163967738Y-68785256D01*
X163784785Y-68616836D01*
X163784782Y-68616833D01*
X163576606Y-68480826D01*
X163348881Y-68380936D01*
X163107824Y-68319892D01*
X163107813Y-68319890D01*
X162942548Y-68306197D01*
X162922067Y-68304500D01*
X161297933Y-68304500D01*
X161278521Y-68306108D01*
X161112186Y-68319890D01*
X161112175Y-68319892D01*
X160871118Y-68380936D01*
X160643393Y-68480826D01*
X160435217Y-68616833D01*
X160252261Y-68785257D01*
X160099524Y-68981493D01*
X159981172Y-69200188D01*
X159981169Y-69200197D01*
X159900429Y-69435383D01*
X159859500Y-69680665D01*
X159859500Y-69929334D01*
X96490500Y-69929334D01*
X96490500Y-69377364D01*
X96510185Y-69310325D01*
X96549712Y-69271636D01*
X96604179Y-69238259D01*
X96789759Y-69079759D01*
X96948259Y-68894179D01*
X97075777Y-68686089D01*
X97169172Y-68460612D01*
X97226146Y-68223302D01*
X97245294Y-67980000D01*
X97226146Y-67736698D01*
X97169172Y-67499388D01*
X97163448Y-67485568D01*
X97075777Y-67273910D01*
X96948262Y-67065826D01*
X96948261Y-67065823D01*
X96898429Y-67007478D01*
X96789759Y-66880241D01*
X96604179Y-66721741D01*
X96577629Y-66705471D01*
X96549709Y-66688361D01*
X96502834Y-66636548D01*
X96490500Y-66582634D01*
X96490500Y-61395683D01*
X107229500Y-61395683D01*
X107268338Y-61603450D01*
X107268339Y-61603452D01*
X107344690Y-61800539D01*
X107344691Y-61800540D01*
X107344692Y-61800542D01*
X107446422Y-61964842D01*
X107455963Y-61980250D01*
X107598355Y-62136448D01*
X107632729Y-62162406D01*
X107767032Y-62263827D01*
X107911836Y-62335931D01*
X107956237Y-62358040D01*
X107956243Y-62358043D01*
X108110749Y-62402003D01*
X108159536Y-62415884D01*
X108317271Y-62430500D01*
X108317275Y-62430500D01*
X108422725Y-62430500D01*
X108422729Y-62430500D01*
X108580464Y-62415884D01*
X108691481Y-62384297D01*
X108783756Y-62358043D01*
X108783758Y-62358041D01*
X108783761Y-62358041D01*
X108972968Y-62263827D01*
X109141642Y-62136450D01*
X109284038Y-61980249D01*
X109395308Y-61800542D01*
X109438529Y-61688974D01*
X109481102Y-61633574D01*
X109546869Y-61609983D01*
X109614949Y-61625694D01*
X109663728Y-61675718D01*
X109673931Y-61701676D01*
X109683258Y-61736488D01*
X109683261Y-61736497D01*
X109779431Y-61942732D01*
X109779432Y-61942734D01*
X109909954Y-62129141D01*
X110070857Y-62290044D01*
X110070860Y-62290046D01*
X110070861Y-62290047D01*
X110156623Y-62350097D01*
X110200248Y-62404673D01*
X110209500Y-62451672D01*
X110209500Y-62596951D01*
X110209387Y-62600696D01*
X110205642Y-62662603D01*
X110205642Y-62662605D01*
X110216821Y-62723612D01*
X110217384Y-62727313D01*
X110224859Y-62788870D01*
X110224860Y-62788874D01*
X110228451Y-62798343D01*
X110234474Y-62819946D01*
X110236304Y-62829930D01*
X110261759Y-62886490D01*
X110263189Y-62889941D01*
X110285182Y-62947930D01*
X110289826Y-62954657D01*
X110290936Y-62956266D01*
X110301961Y-62975813D01*
X110306120Y-62985055D01*
X110306124Y-62985060D01*
X110344371Y-63033878D01*
X110346591Y-63036896D01*
X110381812Y-63087924D01*
X110381816Y-63087928D01*
X110381817Y-63087929D01*
X110428250Y-63129064D01*
X110430941Y-63131598D01*
X111748399Y-64449056D01*
X111750935Y-64451750D01*
X111792071Y-64498183D01*
X111823431Y-64519829D01*
X111843110Y-64533413D01*
X111846127Y-64535633D01*
X111894938Y-64573874D01*
X111894943Y-64573877D01*
X111904174Y-64578031D01*
X111923727Y-64589059D01*
X111932070Y-64594818D01*
X111990044Y-64616804D01*
X111990057Y-64616809D01*
X111993508Y-64618238D01*
X112023093Y-64631553D01*
X112050063Y-64643692D01*
X112050064Y-64643692D01*
X112050068Y-64643694D01*
X112060030Y-64645519D01*
X112081651Y-64651546D01*
X112081667Y-64651552D01*
X112091128Y-64655140D01*
X112107871Y-64657173D01*
X112152689Y-64662615D01*
X112156386Y-64663177D01*
X112217394Y-64674357D01*
X112217395Y-64674356D01*
X112217396Y-64674357D01*
X112279293Y-64670613D01*
X112283037Y-64670500D01*
X156921952Y-64670500D01*
X156925697Y-64670613D01*
X156933042Y-64671057D01*
X156987606Y-64674358D01*
X157025314Y-64667447D01*
X157048621Y-64663177D01*
X157052325Y-64662613D01*
X157070170Y-64660446D01*
X157113872Y-64655140D01*
X157123335Y-64651550D01*
X157144961Y-64645522D01*
X157145893Y-64645351D01*
X157154932Y-64643695D01*
X157211512Y-64618229D01*
X157214942Y-64616809D01*
X157272930Y-64594818D01*
X157281266Y-64589062D01*
X157300821Y-64578034D01*
X157310057Y-64573878D01*
X157358896Y-64535613D01*
X157361876Y-64533421D01*
X157412929Y-64498183D01*
X157454065Y-64451748D01*
X157456599Y-64449056D01*
X157742853Y-64162802D01*
X157804174Y-64129319D01*
X157873866Y-64134303D01*
X157929799Y-64176175D01*
X157954216Y-64241639D01*
X157954532Y-64250485D01*
X157954532Y-64255001D01*
X157974364Y-64481686D01*
X157974366Y-64481697D01*
X158033258Y-64701488D01*
X158033261Y-64701497D01*
X158129431Y-64907732D01*
X158129432Y-64907734D01*
X158259954Y-65094141D01*
X158420858Y-65255045D01*
X158533372Y-65333827D01*
X158607266Y-65385568D01*
X158656513Y-65408532D01*
X158691784Y-65433230D01*
X159076133Y-65817580D01*
X159109618Y-65878903D01*
X159104634Y-65948595D01*
X159062762Y-66004528D01*
X159044748Y-66015745D01*
X159021956Y-66027358D01*
X159021949Y-66027363D01*
X158932363Y-66116949D01*
X158932358Y-66116956D01*
X158920745Y-66139748D01*
X158872770Y-66190544D01*
X158804949Y-66207338D01*
X158738814Y-66184800D01*
X158722580Y-66171133D01*
X158180973Y-65629526D01*
X158129868Y-65702513D01*
X158033734Y-65908673D01*
X158033731Y-65908680D01*
X157980033Y-66109084D01*
X157943668Y-66168744D01*
X157880821Y-66199273D01*
X157811445Y-66190978D01*
X157757567Y-66146493D01*
X157740484Y-66109086D01*
X157686739Y-65908504D01*
X157590568Y-65702266D01*
X157460047Y-65515861D01*
X157460045Y-65515858D01*
X157299141Y-65354954D01*
X157112734Y-65224432D01*
X157112732Y-65224431D01*
X156906497Y-65128261D01*
X156906488Y-65128258D01*
X156686697Y-65069366D01*
X156686693Y-65069365D01*
X156686692Y-65069365D01*
X156686691Y-65069364D01*
X156686686Y-65069364D01*
X156460002Y-65049532D01*
X156459998Y-65049532D01*
X156233313Y-65069364D01*
X156233302Y-65069366D01*
X156013511Y-65128258D01*
X156013502Y-65128261D01*
X155807267Y-65224431D01*
X155807265Y-65224432D01*
X155620858Y-65354954D01*
X155459954Y-65515858D01*
X155329432Y-65702265D01*
X155329431Y-65702267D01*
X155233261Y-65908502D01*
X155233258Y-65908511D01*
X155174366Y-66128302D01*
X155174364Y-66128313D01*
X155154532Y-66354998D01*
X155154532Y-66355001D01*
X155174364Y-66581686D01*
X155174366Y-66581697D01*
X155233258Y-66801488D01*
X155233261Y-66801497D01*
X155329431Y-67007732D01*
X155329432Y-67007734D01*
X155459954Y-67194141D01*
X155620858Y-67355045D01*
X155620861Y-67355047D01*
X155807266Y-67485568D01*
X156013504Y-67581739D01*
X156233308Y-67640635D01*
X156395230Y-67654801D01*
X156459998Y-67660468D01*
X156460000Y-67660468D01*
X156460002Y-67660468D01*
X156516673Y-67655509D01*
X156686692Y-67640635D01*
X156906496Y-67581739D01*
X157112734Y-67485568D01*
X157299139Y-67355047D01*
X157460047Y-67194139D01*
X157590568Y-67007734D01*
X157686739Y-66801496D01*
X157740484Y-66600913D01*
X157776847Y-66541256D01*
X157839694Y-66510726D01*
X157909070Y-66519020D01*
X157962948Y-66563505D01*
X157980033Y-66600915D01*
X158033731Y-66801320D01*
X158033734Y-66801326D01*
X158129865Y-67007481D01*
X158129866Y-67007483D01*
X158180973Y-67080471D01*
X158180973Y-67080472D01*
X158722580Y-66538865D01*
X158783903Y-66505380D01*
X158853594Y-66510364D01*
X158909528Y-66552235D01*
X158920742Y-66570246D01*
X158923042Y-66574759D01*
X158932358Y-66593044D01*
X158932363Y-66593050D01*
X159021949Y-66682636D01*
X159021951Y-66682637D01*
X159021955Y-66682641D01*
X159044747Y-66694254D01*
X159095542Y-66742228D01*
X159112337Y-66810049D01*
X159089799Y-66876184D01*
X159076132Y-66892419D01*
X158534526Y-67434025D01*
X158534526Y-67434026D01*
X158607512Y-67485131D01*
X158607516Y-67485133D01*
X158813673Y-67581265D01*
X158813682Y-67581269D01*
X159033389Y-67640139D01*
X159033400Y-67640141D01*
X159259998Y-67659966D01*
X159260002Y-67659966D01*
X159486599Y-67640141D01*
X159486610Y-67640139D01*
X159706317Y-67581269D01*
X159706331Y-67581264D01*
X159912478Y-67485136D01*
X159985472Y-67434025D01*
X159443866Y-66892419D01*
X159410381Y-66831096D01*
X159415365Y-66761404D01*
X159457237Y-66705471D01*
X159475245Y-66694258D01*
X159498045Y-66682641D01*
X159587641Y-66593045D01*
X159599254Y-66570252D01*
X159647225Y-66519458D01*
X159715046Y-66502661D01*
X159781181Y-66525197D01*
X159797419Y-66538866D01*
X160339025Y-67080472D01*
X160390136Y-67007478D01*
X160486264Y-66801331D01*
X160486269Y-66801317D01*
X160545139Y-66581610D01*
X160545141Y-66581599D01*
X160564966Y-66355002D01*
X160564966Y-66354997D01*
X160545141Y-66128400D01*
X160545139Y-66128389D01*
X160486269Y-65908682D01*
X160486265Y-65908673D01*
X160390133Y-65702516D01*
X160390131Y-65702512D01*
X160339026Y-65629526D01*
X160339025Y-65629526D01*
X159797419Y-66171132D01*
X159736096Y-66204617D01*
X159666404Y-66199633D01*
X159610471Y-66157761D01*
X159599256Y-66139751D01*
X159587641Y-66116955D01*
X159587637Y-66116951D01*
X159587636Y-66116949D01*
X159498050Y-66027363D01*
X159498046Y-66027360D01*
X159498045Y-66027359D01*
X159496853Y-66026752D01*
X159475250Y-66015744D01*
X159424454Y-65967769D01*
X159407660Y-65899948D01*
X159430198Y-65833813D01*
X159443865Y-65817579D01*
X159828212Y-65433232D01*
X159863488Y-65408531D01*
X159912734Y-65385568D01*
X160099139Y-65255047D01*
X160260047Y-65094139D01*
X160390568Y-64907734D01*
X160486739Y-64701496D01*
X160545635Y-64481692D01*
X160565468Y-64255000D01*
X160545635Y-64028308D01*
X160542623Y-64017067D01*
X161409500Y-64017067D01*
X161410432Y-64028313D01*
X161424890Y-64202813D01*
X161424892Y-64202824D01*
X161485936Y-64443881D01*
X161585826Y-64671606D01*
X161721833Y-64879782D01*
X161721836Y-64879785D01*
X161890256Y-65062738D01*
X162086491Y-65215474D01*
X162305190Y-65333828D01*
X162540386Y-65414571D01*
X162785665Y-65455500D01*
X163034335Y-65455500D01*
X163279614Y-65414571D01*
X163514810Y-65333828D01*
X163733509Y-65215474D01*
X163929744Y-65062738D01*
X164098164Y-64879785D01*
X164234173Y-64671607D01*
X164334063Y-64443881D01*
X164395108Y-64202821D01*
X164396796Y-64182459D01*
X164405427Y-64078284D01*
X164410500Y-64017067D01*
X164410500Y-61892933D01*
X164398287Y-61745544D01*
X164395109Y-61707186D01*
X164395107Y-61707175D01*
X164334063Y-61466118D01*
X164234173Y-61238393D01*
X164098166Y-61030217D01*
X164033727Y-60960218D01*
X163929744Y-60847262D01*
X163733509Y-60694526D01*
X163733507Y-60694525D01*
X163733506Y-60694524D01*
X163514811Y-60576172D01*
X163514802Y-60576169D01*
X163279616Y-60495429D01*
X163034335Y-60454500D01*
X162785665Y-60454500D01*
X162540383Y-60495429D01*
X162305197Y-60576169D01*
X162305188Y-60576172D01*
X162086493Y-60694524D01*
X161890257Y-60847261D01*
X161721833Y-61030217D01*
X161585826Y-61238393D01*
X161485936Y-61466118D01*
X161424892Y-61707175D01*
X161424890Y-61707186D01*
X161415175Y-61824440D01*
X161409500Y-61892933D01*
X161409500Y-64017067D01*
X160542623Y-64017067D01*
X160486739Y-63808504D01*
X160390568Y-63602266D01*
X160260047Y-63415861D01*
X160260045Y-63415858D01*
X160099141Y-63254954D01*
X159993628Y-63181074D01*
X159950003Y-63126498D01*
X159942809Y-63056999D01*
X159974331Y-62994644D01*
X160034561Y-62959230D01*
X160064751Y-62955499D01*
X160107871Y-62955499D01*
X160107872Y-62955499D01*
X160167483Y-62949091D01*
X160302331Y-62898796D01*
X160417546Y-62812546D01*
X160503796Y-62697331D01*
X160554091Y-62562483D01*
X160560500Y-62502873D01*
X160560499Y-60807128D01*
X160554091Y-60747517D01*
X160553767Y-60746649D01*
X160503797Y-60612671D01*
X160503793Y-60612664D01*
X160417547Y-60497455D01*
X160417544Y-60497452D01*
X160362913Y-60456555D01*
X160321042Y-60400621D01*
X160316058Y-60330930D01*
X160335647Y-60286169D01*
X160390568Y-60207734D01*
X160486739Y-60001496D01*
X160545635Y-59781692D01*
X160565468Y-59555000D01*
X160545635Y-59328308D01*
X160498897Y-59153877D01*
X160486741Y-59108511D01*
X160486738Y-59108502D01*
X160450298Y-59030357D01*
X160390568Y-58902266D01*
X160260047Y-58715861D01*
X160260045Y-58715858D01*
X160099141Y-58554954D01*
X159912734Y-58424432D01*
X159912732Y-58424431D01*
X159706497Y-58328261D01*
X159706488Y-58328258D01*
X159486697Y-58269366D01*
X159486693Y-58269365D01*
X159486692Y-58269365D01*
X159486691Y-58269364D01*
X159486686Y-58269364D01*
X159260002Y-58249532D01*
X159259998Y-58249532D01*
X159033313Y-58269364D01*
X159033302Y-58269366D01*
X158813511Y-58328258D01*
X158813502Y-58328261D01*
X158607267Y-58424431D01*
X158607265Y-58424432D01*
X158420858Y-58554954D01*
X158259954Y-58715858D01*
X158129432Y-58902265D01*
X158129431Y-58902267D01*
X158033261Y-59108502D01*
X158033258Y-59108511D01*
X157979775Y-59308117D01*
X157943410Y-59367778D01*
X157880563Y-59398307D01*
X157811188Y-59390012D01*
X157757310Y-59345527D01*
X157740225Y-59308117D01*
X157686741Y-59108511D01*
X157686738Y-59108502D01*
X157650298Y-59030357D01*
X157590568Y-58902266D01*
X157460047Y-58715861D01*
X157460045Y-58715858D01*
X157299141Y-58554954D01*
X157112734Y-58424432D01*
X157112732Y-58424431D01*
X156906497Y-58328261D01*
X156906488Y-58328258D01*
X156686697Y-58269366D01*
X156686693Y-58269365D01*
X156686692Y-58269365D01*
X156686691Y-58269364D01*
X156686686Y-58269364D01*
X156460002Y-58249532D01*
X156459998Y-58249532D01*
X156233313Y-58269364D01*
X156233302Y-58269366D01*
X156013511Y-58328258D01*
X156013502Y-58328261D01*
X155807267Y-58424431D01*
X155807265Y-58424432D01*
X155620858Y-58554954D01*
X155459954Y-58715858D01*
X155329432Y-58902265D01*
X155329431Y-58902267D01*
X155233261Y-59108502D01*
X155233258Y-59108511D01*
X155174366Y-59328302D01*
X155174364Y-59328313D01*
X155154532Y-59554998D01*
X155154532Y-59555001D01*
X155174364Y-59781686D01*
X155174366Y-59781697D01*
X155233258Y-60001488D01*
X155233261Y-60001497D01*
X155329429Y-60207728D01*
X155329432Y-60207734D01*
X155459954Y-60394141D01*
X155620857Y-60555044D01*
X155620860Y-60555046D01*
X155620861Y-60555047D01*
X155706623Y-60615097D01*
X155750248Y-60669673D01*
X155759500Y-60716672D01*
X155759500Y-61058480D01*
X155739815Y-61125519D01*
X155723181Y-61146161D01*
X154316162Y-62553181D01*
X154254839Y-62586666D01*
X154228481Y-62589500D01*
X149486145Y-62589500D01*
X149419106Y-62569815D01*
X149373351Y-62517011D01*
X149363407Y-62447853D01*
X149392432Y-62384297D01*
X149430873Y-62354500D01*
X149481902Y-62329090D01*
X149612968Y-62263827D01*
X149781642Y-62136450D01*
X149924038Y-61980249D01*
X150035308Y-61800542D01*
X150111662Y-61603450D01*
X150150500Y-61395683D01*
X150150500Y-61184317D01*
X150111662Y-60976550D01*
X150046028Y-60807129D01*
X150035309Y-60779460D01*
X150035308Y-60779459D01*
X150035308Y-60779458D01*
X149924038Y-60599751D01*
X149855426Y-60524487D01*
X149781644Y-60443551D01*
X149612968Y-60316173D01*
X149423762Y-60221959D01*
X149423756Y-60221956D01*
X149220466Y-60164116D01*
X149220463Y-60164115D01*
X149108472Y-60153738D01*
X149062729Y-60149500D01*
X148957271Y-60149500D01*
X148914619Y-60153452D01*
X148799536Y-60164115D01*
X148799533Y-60164116D01*
X148596243Y-60221956D01*
X148596237Y-60221959D01*
X148407031Y-60316173D01*
X148238355Y-60443551D01*
X148095963Y-60599749D01*
X147999926Y-60754854D01*
X147947898Y-60801489D01*
X147878916Y-60812593D01*
X147814882Y-60784640D01*
X147776125Y-60726504D01*
X147770499Y-60689576D01*
X147770499Y-60442129D01*
X147770498Y-60442123D01*
X147764091Y-60382516D01*
X147713797Y-60247671D01*
X147713793Y-60247664D01*
X147627547Y-60132455D01*
X147627544Y-60132452D01*
X147512335Y-60046206D01*
X147512328Y-60046202D01*
X147377482Y-59995908D01*
X147377483Y-59995908D01*
X147317883Y-59989501D01*
X147317881Y-59989500D01*
X147317873Y-59989500D01*
X147317864Y-59989500D01*
X145622129Y-59989500D01*
X145622123Y-59989501D01*
X145562516Y-59995908D01*
X145427671Y-60046202D01*
X145427664Y-60046206D01*
X145312455Y-60132452D01*
X145312452Y-60132455D01*
X145226206Y-60247664D01*
X145226202Y-60247671D01*
X145175908Y-60382516D01*
X145172137Y-60417596D01*
X145145398Y-60482146D01*
X145088006Y-60521994D01*
X145018180Y-60524487D01*
X144958092Y-60488834D01*
X144947273Y-60475462D01*
X144930045Y-60450858D01*
X144769141Y-60289954D01*
X144582734Y-60159432D01*
X144582732Y-60159431D01*
X144376497Y-60063261D01*
X144376488Y-60063258D01*
X144156697Y-60004366D01*
X144156693Y-60004365D01*
X144156692Y-60004365D01*
X144156691Y-60004364D01*
X144156686Y-60004364D01*
X143930002Y-59984532D01*
X143929998Y-59984532D01*
X143703313Y-60004364D01*
X143703302Y-60004366D01*
X143483511Y-60063258D01*
X143483502Y-60063261D01*
X143277267Y-60159431D01*
X143277265Y-60159432D01*
X143090858Y-60289954D01*
X142929954Y-60450858D01*
X142799432Y-60637265D01*
X142799431Y-60637267D01*
X142772382Y-60695275D01*
X142726209Y-60747714D01*
X142659016Y-60766866D01*
X142592135Y-60746650D01*
X142547618Y-60695275D01*
X142547268Y-60694524D01*
X142520568Y-60637266D01*
X142390047Y-60450861D01*
X142390045Y-60450858D01*
X142229141Y-60289954D01*
X142042734Y-60159432D01*
X142042732Y-60159431D01*
X141836497Y-60063261D01*
X141836488Y-60063258D01*
X141616697Y-60004366D01*
X141616693Y-60004365D01*
X141616692Y-60004365D01*
X141616691Y-60004364D01*
X141616686Y-60004364D01*
X141390002Y-59984532D01*
X141389998Y-59984532D01*
X141163313Y-60004364D01*
X141163302Y-60004366D01*
X140943511Y-60063258D01*
X140943502Y-60063261D01*
X140737267Y-60159431D01*
X140737265Y-60159432D01*
X140550858Y-60289954D01*
X140389954Y-60450858D01*
X140259432Y-60637265D01*
X140259431Y-60637267D01*
X140232382Y-60695275D01*
X140186209Y-60747714D01*
X140119016Y-60766866D01*
X140052135Y-60746650D01*
X140007618Y-60695275D01*
X140007268Y-60694524D01*
X139980568Y-60637266D01*
X139850047Y-60450861D01*
X139850045Y-60450858D01*
X139689141Y-60289954D01*
X139502734Y-60159432D01*
X139502732Y-60159431D01*
X139296497Y-60063261D01*
X139296488Y-60063258D01*
X139076697Y-60004366D01*
X139076693Y-60004365D01*
X139076692Y-60004365D01*
X139076691Y-60004364D01*
X139076686Y-60004364D01*
X138850002Y-59984532D01*
X138849998Y-59984532D01*
X138623313Y-60004364D01*
X138623302Y-60004366D01*
X138403511Y-60063258D01*
X138403502Y-60063261D01*
X138197267Y-60159431D01*
X138197265Y-60159432D01*
X138010858Y-60289954D01*
X137849954Y-60450858D01*
X137719432Y-60637265D01*
X137719431Y-60637267D01*
X137692382Y-60695275D01*
X137646209Y-60747714D01*
X137579016Y-60766866D01*
X137512135Y-60746650D01*
X137467618Y-60695275D01*
X137467268Y-60694524D01*
X137440568Y-60637266D01*
X137310047Y-60450861D01*
X137310045Y-60450858D01*
X137149141Y-60289954D01*
X136962734Y-60159432D01*
X136962732Y-60159431D01*
X136756497Y-60063261D01*
X136756488Y-60063258D01*
X136536697Y-60004366D01*
X136536693Y-60004365D01*
X136536692Y-60004365D01*
X136536691Y-60004364D01*
X136536686Y-60004364D01*
X136310002Y-59984532D01*
X136309998Y-59984532D01*
X136083313Y-60004364D01*
X136083302Y-60004366D01*
X135863511Y-60063258D01*
X135863502Y-60063261D01*
X135657267Y-60159431D01*
X135657265Y-60159432D01*
X135470858Y-60289954D01*
X135309954Y-60450858D01*
X135179432Y-60637265D01*
X135179431Y-60637267D01*
X135152382Y-60695275D01*
X135106209Y-60747714D01*
X135039016Y-60766866D01*
X134972135Y-60746650D01*
X134927618Y-60695275D01*
X134927268Y-60694524D01*
X134900568Y-60637266D01*
X134770047Y-60450861D01*
X134770045Y-60450858D01*
X134609141Y-60289954D01*
X134422734Y-60159432D01*
X134422732Y-60159431D01*
X134216497Y-60063261D01*
X134216488Y-60063258D01*
X133996697Y-60004366D01*
X133996693Y-60004365D01*
X133996692Y-60004365D01*
X133996691Y-60004364D01*
X133996686Y-60004364D01*
X133770002Y-59984532D01*
X133769998Y-59984532D01*
X133543313Y-60004364D01*
X133543302Y-60004366D01*
X133323511Y-60063258D01*
X133323502Y-60063261D01*
X133117267Y-60159431D01*
X133117265Y-60159432D01*
X132930858Y-60289954D01*
X132769954Y-60450858D01*
X132639432Y-60637265D01*
X132639431Y-60637267D01*
X132612382Y-60695275D01*
X132566209Y-60747714D01*
X132499016Y-60766866D01*
X132432135Y-60746650D01*
X132387618Y-60695275D01*
X132387268Y-60694524D01*
X132360568Y-60637266D01*
X132230047Y-60450861D01*
X132230045Y-60450858D01*
X132069141Y-60289954D01*
X131882734Y-60159432D01*
X131882732Y-60159431D01*
X131676497Y-60063261D01*
X131676488Y-60063258D01*
X131456697Y-60004366D01*
X131456693Y-60004365D01*
X131456692Y-60004365D01*
X131456691Y-60004364D01*
X131456686Y-60004364D01*
X131230002Y-59984532D01*
X131229998Y-59984532D01*
X131003313Y-60004364D01*
X131003302Y-60004366D01*
X130783511Y-60063258D01*
X130783502Y-60063261D01*
X130577267Y-60159431D01*
X130577265Y-60159432D01*
X130390858Y-60289954D01*
X130229954Y-60450858D01*
X130099432Y-60637265D01*
X130099431Y-60637267D01*
X130072382Y-60695275D01*
X130026209Y-60747714D01*
X129959016Y-60766866D01*
X129892135Y-60746650D01*
X129847618Y-60695275D01*
X129847268Y-60694524D01*
X129820568Y-60637266D01*
X129690047Y-60450861D01*
X129690045Y-60450858D01*
X129529141Y-60289954D01*
X129342734Y-60159432D01*
X129342732Y-60159431D01*
X129136497Y-60063261D01*
X129136488Y-60063258D01*
X128916697Y-60004366D01*
X128916693Y-60004365D01*
X128916692Y-60004365D01*
X128916691Y-60004364D01*
X128916686Y-60004364D01*
X128690002Y-59984532D01*
X128689998Y-59984532D01*
X128463313Y-60004364D01*
X128463302Y-60004366D01*
X128243511Y-60063258D01*
X128243502Y-60063261D01*
X128037267Y-60159431D01*
X128037265Y-60159432D01*
X127850858Y-60289954D01*
X127689954Y-60450858D01*
X127559432Y-60637265D01*
X127559431Y-60637267D01*
X127532382Y-60695275D01*
X127486209Y-60747714D01*
X127419016Y-60766866D01*
X127352135Y-60746650D01*
X127307618Y-60695275D01*
X127307268Y-60694524D01*
X127280568Y-60637266D01*
X127150047Y-60450861D01*
X127150045Y-60450858D01*
X126989141Y-60289954D01*
X126802734Y-60159432D01*
X126802732Y-60159431D01*
X126596497Y-60063261D01*
X126596488Y-60063258D01*
X126376697Y-60004366D01*
X126376693Y-60004365D01*
X126376692Y-60004365D01*
X126376691Y-60004364D01*
X126376686Y-60004364D01*
X126150002Y-59984532D01*
X126149998Y-59984532D01*
X125923313Y-60004364D01*
X125923302Y-60004366D01*
X125703511Y-60063258D01*
X125703502Y-60063261D01*
X125497267Y-60159431D01*
X125497265Y-60159432D01*
X125310858Y-60289954D01*
X125149954Y-60450858D01*
X125019432Y-60637265D01*
X125019431Y-60637267D01*
X124992382Y-60695275D01*
X124946209Y-60747714D01*
X124879016Y-60766866D01*
X124812135Y-60746650D01*
X124767618Y-60695275D01*
X124767268Y-60694524D01*
X124740568Y-60637266D01*
X124610047Y-60450861D01*
X124610045Y-60450858D01*
X124449141Y-60289954D01*
X124262734Y-60159432D01*
X124262732Y-60159431D01*
X124056497Y-60063261D01*
X124056488Y-60063258D01*
X123836697Y-60004366D01*
X123836693Y-60004365D01*
X123836692Y-60004365D01*
X123836691Y-60004364D01*
X123836686Y-60004364D01*
X123610002Y-59984532D01*
X123609998Y-59984532D01*
X123383313Y-60004364D01*
X123383302Y-60004366D01*
X123163511Y-60063258D01*
X123163502Y-60063261D01*
X122957267Y-60159431D01*
X122957265Y-60159432D01*
X122770858Y-60289954D01*
X122609954Y-60450858D01*
X122479432Y-60637265D01*
X122479431Y-60637267D01*
X122452382Y-60695275D01*
X122406209Y-60747714D01*
X122339016Y-60766866D01*
X122272135Y-60746650D01*
X122227618Y-60695275D01*
X122227268Y-60694524D01*
X122200568Y-60637266D01*
X122070047Y-60450861D01*
X122070045Y-60450858D01*
X121909141Y-60289954D01*
X121722734Y-60159432D01*
X121722732Y-60159431D01*
X121516497Y-60063261D01*
X121516488Y-60063258D01*
X121296697Y-60004366D01*
X121296693Y-60004365D01*
X121296692Y-60004365D01*
X121296691Y-60004364D01*
X121296686Y-60004364D01*
X121070002Y-59984532D01*
X121069998Y-59984532D01*
X120843313Y-60004364D01*
X120843302Y-60004366D01*
X120623511Y-60063258D01*
X120623502Y-60063261D01*
X120417267Y-60159431D01*
X120417265Y-60159432D01*
X120230858Y-60289954D01*
X120069954Y-60450858D01*
X119939432Y-60637265D01*
X119939430Y-60637268D01*
X119912380Y-60695277D01*
X119866207Y-60747715D01*
X119799013Y-60766866D01*
X119732132Y-60746649D01*
X119687619Y-60695277D01*
X119660568Y-60637266D01*
X119579855Y-60521994D01*
X119530045Y-60450858D01*
X119369141Y-60289954D01*
X119182734Y-60159432D01*
X119182732Y-60159431D01*
X118976497Y-60063261D01*
X118976488Y-60063258D01*
X118756697Y-60004366D01*
X118756693Y-60004365D01*
X118756692Y-60004365D01*
X118756691Y-60004364D01*
X118756686Y-60004364D01*
X118530002Y-59984532D01*
X118529998Y-59984532D01*
X118303313Y-60004364D01*
X118303302Y-60004366D01*
X118083511Y-60063258D01*
X118083502Y-60063261D01*
X117877267Y-60159431D01*
X117877265Y-60159432D01*
X117690858Y-60289954D01*
X117529954Y-60450858D01*
X117399432Y-60637265D01*
X117399431Y-60637267D01*
X117372382Y-60695275D01*
X117326209Y-60747714D01*
X117259016Y-60766866D01*
X117192135Y-60746650D01*
X117147618Y-60695275D01*
X117147268Y-60694524D01*
X117120568Y-60637266D01*
X116990047Y-60450861D01*
X116990045Y-60450858D01*
X116829141Y-60289954D01*
X116642734Y-60159432D01*
X116642732Y-60159431D01*
X116436497Y-60063261D01*
X116436488Y-60063258D01*
X116216697Y-60004366D01*
X116216693Y-60004365D01*
X116216692Y-60004365D01*
X116216691Y-60004364D01*
X116216686Y-60004364D01*
X115990002Y-59984532D01*
X115989998Y-59984532D01*
X115763313Y-60004364D01*
X115763302Y-60004366D01*
X115543511Y-60063258D01*
X115543502Y-60063261D01*
X115337267Y-60159431D01*
X115337265Y-60159432D01*
X115150858Y-60289954D01*
X114989954Y-60450858D01*
X114859432Y-60637265D01*
X114859431Y-60637267D01*
X114832382Y-60695275D01*
X114786209Y-60747714D01*
X114719016Y-60766866D01*
X114652135Y-60746650D01*
X114607618Y-60695275D01*
X114607268Y-60694524D01*
X114580568Y-60637266D01*
X114450047Y-60450861D01*
X114450045Y-60450858D01*
X114289141Y-60289954D01*
X114102734Y-60159432D01*
X114102732Y-60159431D01*
X113896497Y-60063261D01*
X113896488Y-60063258D01*
X113676697Y-60004366D01*
X113676693Y-60004365D01*
X113676692Y-60004365D01*
X113676691Y-60004364D01*
X113676686Y-60004364D01*
X113450002Y-59984532D01*
X113449998Y-59984532D01*
X113223313Y-60004364D01*
X113223302Y-60004366D01*
X113003511Y-60063258D01*
X113003502Y-60063261D01*
X112797267Y-60159431D01*
X112797265Y-60159432D01*
X112610858Y-60289954D01*
X112449954Y-60450858D01*
X112319432Y-60637265D01*
X112319431Y-60637267D01*
X112292382Y-60695275D01*
X112246209Y-60747714D01*
X112179016Y-60766866D01*
X112112135Y-60746650D01*
X112067618Y-60695275D01*
X112067268Y-60694524D01*
X112040568Y-60637266D01*
X111910047Y-60450861D01*
X111910045Y-60450858D01*
X111749141Y-60289954D01*
X111562734Y-60159432D01*
X111562732Y-60159431D01*
X111356497Y-60063261D01*
X111356488Y-60063258D01*
X111136697Y-60004366D01*
X111136693Y-60004365D01*
X111136692Y-60004365D01*
X111136691Y-60004364D01*
X111136686Y-60004364D01*
X110910002Y-59984532D01*
X110909998Y-59984532D01*
X110683313Y-60004364D01*
X110683302Y-60004366D01*
X110463511Y-60063258D01*
X110463502Y-60063261D01*
X110257267Y-60159431D01*
X110257265Y-60159432D01*
X110070858Y-60289954D01*
X109909954Y-60450858D01*
X109779432Y-60637265D01*
X109779431Y-60637267D01*
X109683261Y-60843502D01*
X109683258Y-60843511D01*
X109673931Y-60878323D01*
X109637566Y-60937984D01*
X109574719Y-60968513D01*
X109505344Y-60960218D01*
X109451466Y-60915733D01*
X109438529Y-60891024D01*
X109395309Y-60779460D01*
X109395308Y-60779459D01*
X109395308Y-60779458D01*
X109284038Y-60599751D01*
X109215426Y-60524487D01*
X109141644Y-60443551D01*
X108972968Y-60316173D01*
X108783762Y-60221959D01*
X108783756Y-60221956D01*
X108580466Y-60164116D01*
X108580463Y-60164115D01*
X108468472Y-60153738D01*
X108422729Y-60149500D01*
X108317271Y-60149500D01*
X108274619Y-60153452D01*
X108159536Y-60164115D01*
X108159533Y-60164116D01*
X107956243Y-60221956D01*
X107956237Y-60221959D01*
X107767031Y-60316173D01*
X107598355Y-60443551D01*
X107455963Y-60599749D01*
X107344691Y-60779459D01*
X107344690Y-60779460D01*
X107268339Y-60976547D01*
X107268338Y-60976550D01*
X107229500Y-61184317D01*
X107229500Y-61395683D01*
X96490500Y-61395683D01*
X96490500Y-59367364D01*
X96510185Y-59300325D01*
X96549712Y-59261636D01*
X96604179Y-59228259D01*
X96789759Y-59069759D01*
X96948259Y-58884179D01*
X97075777Y-58676089D01*
X97169172Y-58450612D01*
X97226146Y-58213302D01*
X97245294Y-57970000D01*
X97226146Y-57726698D01*
X97169172Y-57489388D01*
X97167630Y-57485665D01*
X97160160Y-57416196D01*
X97191433Y-57353716D01*
X97251521Y-57318062D01*
X97321346Y-57320554D01*
X97369871Y-57350528D01*
X99048392Y-59029048D01*
X99050928Y-59031742D01*
X99092071Y-59078183D01*
X99135996Y-59108502D01*
X99143115Y-59113416D01*
X99146120Y-59115626D01*
X99194944Y-59153878D01*
X99194946Y-59153879D01*
X99194949Y-59153881D01*
X99204177Y-59158034D01*
X99223731Y-59169062D01*
X99232066Y-59174816D01*
X99232068Y-59174816D01*
X99232070Y-59174818D01*
X99290079Y-59196817D01*
X99293476Y-59198224D01*
X99340770Y-59219509D01*
X99350064Y-59223693D01*
X99350065Y-59223693D01*
X99350069Y-59223695D01*
X99360034Y-59225521D01*
X99381656Y-59231548D01*
X99381667Y-59231552D01*
X99391128Y-59235140D01*
X99436251Y-59240618D01*
X99452674Y-59242613D01*
X99456371Y-59243175D01*
X99517394Y-59254358D01*
X99572752Y-59251009D01*
X99579303Y-59250613D01*
X99583048Y-59250500D01*
X122206952Y-59250500D01*
X122210697Y-59250613D01*
X122218042Y-59251057D01*
X122272606Y-59254358D01*
X122310314Y-59247447D01*
X122333621Y-59243177D01*
X122337325Y-59242613D01*
X122355170Y-59240446D01*
X122398872Y-59235140D01*
X122408335Y-59231550D01*
X122429961Y-59225522D01*
X122430893Y-59225351D01*
X122439932Y-59223695D01*
X122496512Y-59198229D01*
X122499942Y-59196809D01*
X122557930Y-59174818D01*
X122566266Y-59169062D01*
X122585821Y-59158034D01*
X122595057Y-59153878D01*
X122643896Y-59115613D01*
X122646876Y-59113421D01*
X122697929Y-59078183D01*
X122739065Y-59031748D01*
X122741599Y-59029056D01*
X123469630Y-58301025D01*
X123530951Y-58267542D01*
X123568117Y-58265180D01*
X123573303Y-58265633D01*
X123573308Y-58265635D01*
X123778263Y-58283566D01*
X123799999Y-58285468D01*
X123800000Y-58285468D01*
X123800002Y-58285468D01*
X123856672Y-58280509D01*
X124026692Y-58265635D01*
X124246496Y-58206739D01*
X124452734Y-58110568D01*
X124639139Y-57980047D01*
X124800047Y-57819139D01*
X124930568Y-57632734D01*
X124957618Y-57574724D01*
X125003790Y-57522285D01*
X125070983Y-57503133D01*
X125137865Y-57523348D01*
X125182382Y-57574725D01*
X125209429Y-57632728D01*
X125209432Y-57632734D01*
X125339954Y-57819141D01*
X125500858Y-57980045D01*
X125500861Y-57980047D01*
X125687266Y-58110568D01*
X125893504Y-58206739D01*
X125893509Y-58206740D01*
X125893511Y-58206741D01*
X125946415Y-58220916D01*
X126113308Y-58265635D01*
X126275230Y-58279801D01*
X126339998Y-58285468D01*
X126340000Y-58285468D01*
X126340002Y-58285468D01*
X126396673Y-58280509D01*
X126566692Y-58265635D01*
X126786496Y-58206739D01*
X126992734Y-58110568D01*
X127179139Y-57980047D01*
X127340047Y-57819139D01*
X127470568Y-57632734D01*
X127497895Y-57574129D01*
X127544064Y-57521695D01*
X127611257Y-57502542D01*
X127678139Y-57522757D01*
X127722657Y-57574133D01*
X127749865Y-57632482D01*
X127880342Y-57818820D01*
X128041179Y-57979657D01*
X128227517Y-58110134D01*
X128433673Y-58206265D01*
X128433682Y-58206269D01*
X128629999Y-58258872D01*
X128630000Y-58258871D01*
X128630000Y-57490575D01*
X128649685Y-57423536D01*
X128702489Y-57377781D01*
X128771647Y-57367837D01*
X128773331Y-57368091D01*
X128805699Y-57373218D01*
X128848515Y-57380000D01*
X128848519Y-57380000D01*
X128911485Y-57380000D01*
X128954300Y-57373218D01*
X128986602Y-57368102D01*
X129055894Y-57377056D01*
X129109347Y-57422052D01*
X129129987Y-57488803D01*
X129130000Y-57490575D01*
X129130000Y-58258872D01*
X129326317Y-58206269D01*
X129326326Y-58206265D01*
X129532482Y-58110134D01*
X129718820Y-57979657D01*
X129879657Y-57818820D01*
X130010134Y-57632482D01*
X130106265Y-57426326D01*
X130106269Y-57426317D01*
X130158872Y-57230000D01*
X129390576Y-57230000D01*
X129323537Y-57210315D01*
X129277782Y-57157511D01*
X129267838Y-57088353D01*
X129268103Y-57086603D01*
X129284986Y-56980003D01*
X129284986Y-56979996D01*
X129268103Y-56873397D01*
X129277058Y-56804104D01*
X129322054Y-56750652D01*
X129388806Y-56730013D01*
X129390576Y-56730000D01*
X130158872Y-56730000D01*
X130158872Y-56729999D01*
X130106269Y-56533682D01*
X130106265Y-56533673D01*
X130010134Y-56327517D01*
X129879657Y-56141179D01*
X129718820Y-55980342D01*
X129532482Y-55849865D01*
X129326328Y-55753734D01*
X129130000Y-55701127D01*
X129130000Y-56469424D01*
X129110315Y-56536463D01*
X129057511Y-56582218D01*
X128988353Y-56592162D01*
X128986602Y-56591897D01*
X128911486Y-56580000D01*
X128911481Y-56580000D01*
X128848519Y-56580000D01*
X128848514Y-56580000D01*
X128773398Y-56591897D01*
X128704104Y-56582942D01*
X128650652Y-56537946D01*
X128630013Y-56471194D01*
X128630000Y-56469424D01*
X128630000Y-55701127D01*
X128433671Y-55753734D01*
X128227517Y-55849865D01*
X128041179Y-55980342D01*
X127880342Y-56141179D01*
X127749867Y-56327515D01*
X127722657Y-56385867D01*
X127676484Y-56438306D01*
X127609290Y-56457457D01*
X127542409Y-56437241D01*
X127497893Y-56385865D01*
X127497105Y-56384176D01*
X127470568Y-56327266D01*
X127340047Y-56140861D01*
X127340045Y-56140858D01*
X127179141Y-55979954D01*
X126992734Y-55849432D01*
X126992732Y-55849431D01*
X126786497Y-55753261D01*
X126786488Y-55753258D01*
X126566697Y-55694366D01*
X126566693Y-55694365D01*
X126566692Y-55694365D01*
X126566691Y-55694364D01*
X126566686Y-55694364D01*
X126340002Y-55674532D01*
X126339998Y-55674532D01*
X126113313Y-55694364D01*
X126113302Y-55694366D01*
X125893511Y-55753258D01*
X125893502Y-55753261D01*
X125687267Y-55849431D01*
X125687265Y-55849432D01*
X125500858Y-55979954D01*
X125339954Y-56140858D01*
X125209432Y-56327265D01*
X125209431Y-56327267D01*
X125182382Y-56385275D01*
X125136209Y-56437714D01*
X125069016Y-56456866D01*
X125002135Y-56436650D01*
X124957618Y-56385275D01*
X124943382Y-56354746D01*
X124930568Y-56327266D01*
X124800047Y-56140861D01*
X124800045Y-56140858D01*
X124639141Y-55979954D01*
X124452734Y-55849432D01*
X124452732Y-55849431D01*
X124246497Y-55753261D01*
X124246488Y-55753258D01*
X124026697Y-55694366D01*
X124026693Y-55694365D01*
X124026692Y-55694365D01*
X124026691Y-55694364D01*
X124026686Y-55694364D01*
X123800002Y-55674532D01*
X123799998Y-55674532D01*
X123573313Y-55694364D01*
X123573302Y-55694366D01*
X123353511Y-55753258D01*
X123353502Y-55753261D01*
X123147267Y-55849431D01*
X123147265Y-55849432D01*
X122960858Y-55979954D01*
X122799954Y-56140858D01*
X122669432Y-56327265D01*
X122669431Y-56327267D01*
X122642382Y-56385275D01*
X122596209Y-56437714D01*
X122529016Y-56456866D01*
X122462135Y-56436650D01*
X122417618Y-56385275D01*
X122403382Y-56354746D01*
X122390568Y-56327266D01*
X122260047Y-56140861D01*
X122260045Y-56140858D01*
X122099141Y-55979954D01*
X121912734Y-55849432D01*
X121912732Y-55849431D01*
X121706497Y-55753261D01*
X121706488Y-55753258D01*
X121486697Y-55694366D01*
X121486693Y-55694365D01*
X121486692Y-55694365D01*
X121486691Y-55694364D01*
X121486686Y-55694364D01*
X121260002Y-55674532D01*
X121259998Y-55674532D01*
X121028117Y-55694819D01*
X120959617Y-55681052D01*
X120929629Y-55658972D01*
X120384589Y-55113932D01*
X119801598Y-54530941D01*
X119799063Y-54528248D01*
X119757929Y-54481817D01*
X119757928Y-54481816D01*
X119757924Y-54481812D01*
X119706896Y-54446591D01*
X119703887Y-54444377D01*
X119655060Y-54406124D01*
X119655055Y-54406120D01*
X119645813Y-54401961D01*
X119626266Y-54390936D01*
X119617931Y-54385183D01*
X119617932Y-54385183D01*
X119617930Y-54385182D01*
X119559941Y-54363189D01*
X119556490Y-54361759D01*
X119499930Y-54336304D01*
X119489946Y-54334474D01*
X119468343Y-54328451D01*
X119458874Y-54324860D01*
X119458870Y-54324859D01*
X119397313Y-54317384D01*
X119393612Y-54316821D01*
X119332608Y-54305642D01*
X119332603Y-54305642D01*
X119270697Y-54309387D01*
X119266952Y-54309500D01*
X110733036Y-54309500D01*
X110729292Y-54309387D01*
X110667397Y-54305643D01*
X110667390Y-54305643D01*
X110606402Y-54316819D01*
X110602701Y-54317382D01*
X110541125Y-54324860D01*
X110531642Y-54328456D01*
X110510038Y-54334478D01*
X110508535Y-54334754D01*
X110500065Y-54336306D01*
X110500063Y-54336307D01*
X110443527Y-54361752D01*
X110440069Y-54363184D01*
X110382069Y-54385182D01*
X110373724Y-54390942D01*
X110354183Y-54401964D01*
X110344941Y-54406123D01*
X110296129Y-54444364D01*
X110293114Y-54446583D01*
X110242072Y-54481816D01*
X110242065Y-54481822D01*
X110200935Y-54528248D01*
X110198368Y-54530974D01*
X108122658Y-56606683D01*
X108061335Y-56640168D01*
X107991643Y-56635184D01*
X107935710Y-56593312D01*
X107911449Y-56529809D01*
X107895141Y-56343400D01*
X107895139Y-56343389D01*
X107836269Y-56123682D01*
X107836265Y-56123673D01*
X107740133Y-55917516D01*
X107740131Y-55917512D01*
X107689026Y-55844526D01*
X107689025Y-55844526D01*
X107147419Y-56386132D01*
X107086096Y-56419617D01*
X107016404Y-56414633D01*
X106960471Y-56372761D01*
X106949256Y-56354751D01*
X106937641Y-56331955D01*
X106937637Y-56331951D01*
X106937636Y-56331949D01*
X106848050Y-56242363D01*
X106848044Y-56242358D01*
X106838109Y-56237296D01*
X106825250Y-56230744D01*
X106774456Y-56182773D01*
X106757660Y-56114952D01*
X106780197Y-56048817D01*
X106793865Y-56032580D01*
X107335472Y-55490973D01*
X107335039Y-55486025D01*
X107299846Y-55441998D01*
X107292652Y-55372499D01*
X107324174Y-55310144D01*
X107335346Y-55300463D01*
X107335472Y-55299025D01*
X106793866Y-54757419D01*
X106760381Y-54696096D01*
X106765365Y-54626404D01*
X106807237Y-54570471D01*
X106825245Y-54559258D01*
X106848045Y-54547641D01*
X106937641Y-54458045D01*
X106949254Y-54435252D01*
X106997225Y-54384458D01*
X107065046Y-54367661D01*
X107131181Y-54390197D01*
X107147419Y-54403866D01*
X107689025Y-54945472D01*
X107740136Y-54872478D01*
X107836264Y-54666331D01*
X107836269Y-54666317D01*
X107895139Y-54446610D01*
X107895141Y-54446599D01*
X107914966Y-54220002D01*
X107914966Y-54219997D01*
X107895141Y-53993400D01*
X107895139Y-53993389D01*
X107836269Y-53773682D01*
X107836265Y-53773673D01*
X107740133Y-53567516D01*
X107740131Y-53567512D01*
X107689026Y-53494526D01*
X107689025Y-53494526D01*
X107147419Y-54036132D01*
X107086096Y-54069617D01*
X107016404Y-54064633D01*
X106960471Y-54022761D01*
X106949256Y-54004751D01*
X106937641Y-53981955D01*
X106937637Y-53981951D01*
X106937636Y-53981949D01*
X106848050Y-53892363D01*
X106848044Y-53892358D01*
X106838109Y-53887296D01*
X106825250Y-53880744D01*
X106774456Y-53832773D01*
X106757660Y-53764952D01*
X106780197Y-53698817D01*
X106793865Y-53682580D01*
X107335472Y-53140973D01*
X107262483Y-53089866D01*
X107262481Y-53089865D01*
X107056326Y-52993734D01*
X107056317Y-52993730D01*
X106836610Y-52934860D01*
X106836599Y-52934858D01*
X106610002Y-52915034D01*
X106609998Y-52915034D01*
X106383400Y-52934858D01*
X106383389Y-52934860D01*
X106163682Y-52993730D01*
X106163673Y-52993734D01*
X105957513Y-53089868D01*
X105884526Y-53140973D01*
X106426133Y-53682580D01*
X106459618Y-53743903D01*
X106454634Y-53813595D01*
X106412762Y-53869528D01*
X106394748Y-53880745D01*
X106371956Y-53892358D01*
X106371949Y-53892363D01*
X106282363Y-53981949D01*
X106282358Y-53981956D01*
X106270745Y-54004748D01*
X106222770Y-54055544D01*
X106154949Y-54072338D01*
X106088814Y-54049800D01*
X106072580Y-54036133D01*
X105530973Y-53494526D01*
X105479868Y-53567513D01*
X105383734Y-53773673D01*
X105383730Y-53773682D01*
X105324860Y-53993389D01*
X105324858Y-53993400D01*
X105305034Y-54219997D01*
X105305034Y-54220002D01*
X105324858Y-54446599D01*
X105324860Y-54446610D01*
X105383730Y-54666317D01*
X105383734Y-54666326D01*
X105479865Y-54872481D01*
X105479866Y-54872483D01*
X105530973Y-54945471D01*
X105530973Y-54945472D01*
X106072580Y-54403865D01*
X106133903Y-54370380D01*
X106203594Y-54375364D01*
X106259528Y-54417235D01*
X106270742Y-54435246D01*
X106275388Y-54444364D01*
X106282358Y-54458044D01*
X106282363Y-54458050D01*
X106371949Y-54547636D01*
X106371951Y-54547637D01*
X106371955Y-54547641D01*
X106394747Y-54559254D01*
X106445542Y-54607228D01*
X106462337Y-54675049D01*
X106439799Y-54741184D01*
X106426132Y-54757419D01*
X105884526Y-55299025D01*
X105884959Y-55303974D01*
X105920151Y-55348000D01*
X105927345Y-55417498D01*
X105895823Y-55479853D01*
X105884653Y-55489532D01*
X105884526Y-55490973D01*
X106426133Y-56032580D01*
X106459618Y-56093903D01*
X106454634Y-56163595D01*
X106412762Y-56219528D01*
X106394748Y-56230745D01*
X106371956Y-56242358D01*
X106371949Y-56242363D01*
X106282363Y-56331949D01*
X106282358Y-56331956D01*
X106270745Y-56354748D01*
X106222770Y-56405544D01*
X106154949Y-56422338D01*
X106088814Y-56399800D01*
X106072580Y-56386133D01*
X105530973Y-55844526D01*
X105479868Y-55917513D01*
X105383734Y-56123673D01*
X105383730Y-56123682D01*
X105324860Y-56343389D01*
X105324858Y-56343400D01*
X105305034Y-56569997D01*
X105305034Y-56570002D01*
X105324858Y-56796599D01*
X105324860Y-56796609D01*
X105356156Y-56913407D01*
X105354493Y-56983256D01*
X105315331Y-57041119D01*
X105251102Y-57068623D01*
X105236381Y-57069500D01*
X102984137Y-57069500D01*
X102917098Y-57049815D01*
X102871343Y-56997011D01*
X102861399Y-56927853D01*
X102864362Y-56913407D01*
X102880051Y-56854852D01*
X102895635Y-56796692D01*
X102915468Y-56570000D01*
X102895635Y-56343308D01*
X102849198Y-56170000D01*
X102836741Y-56123511D01*
X102836738Y-56123502D01*
X102803693Y-56052637D01*
X102740568Y-55917266D01*
X102623200Y-55749646D01*
X102610045Y-55730858D01*
X102449141Y-55569954D01*
X102262734Y-55439432D01*
X102262732Y-55439431D01*
X102056497Y-55343261D01*
X102056488Y-55343258D01*
X101836697Y-55284366D01*
X101836693Y-55284365D01*
X101836692Y-55284365D01*
X101836691Y-55284364D01*
X101836686Y-55284364D01*
X101610002Y-55264532D01*
X101609998Y-55264532D01*
X101383313Y-55284364D01*
X101383302Y-55284366D01*
X101163511Y-55343258D01*
X101163502Y-55343261D01*
X100957267Y-55439431D01*
X100957265Y-55439432D01*
X100770858Y-55569954D01*
X100609954Y-55730858D01*
X100479432Y-55917265D01*
X100479431Y-55917267D01*
X100383261Y-56123502D01*
X100383258Y-56123511D01*
X100324366Y-56343302D01*
X100324363Y-56343318D01*
X100324177Y-56345450D01*
X100323832Y-56346329D01*
X100323426Y-56348637D01*
X100322962Y-56348555D01*
X100298718Y-56410517D01*
X100242123Y-56451490D01*
X100172361Y-56455361D01*
X100112969Y-56422312D01*
X99399452Y-55708795D01*
X98681598Y-54990941D01*
X98679064Y-54988250D01*
X98637929Y-54941817D01*
X98637928Y-54941816D01*
X98637924Y-54941812D01*
X98586896Y-54906591D01*
X98583887Y-54904377D01*
X98556506Y-54882926D01*
X98535060Y-54866124D01*
X98535055Y-54866120D01*
X98525813Y-54861961D01*
X98506266Y-54850936D01*
X98497931Y-54845183D01*
X98497932Y-54845183D01*
X98497930Y-54845182D01*
X98439941Y-54823189D01*
X98436490Y-54821759D01*
X98379930Y-54796304D01*
X98369946Y-54794474D01*
X98348343Y-54788451D01*
X98338874Y-54784860D01*
X98338870Y-54784859D01*
X98277313Y-54777384D01*
X98273612Y-54776821D01*
X98212608Y-54765642D01*
X98212603Y-54765642D01*
X98150697Y-54769387D01*
X98146952Y-54769500D01*
X94658645Y-54769500D01*
X94591606Y-54749815D01*
X94552918Y-54710290D01*
X94458262Y-54555825D01*
X94458261Y-54555823D01*
X94395049Y-54481812D01*
X94299759Y-54370241D01*
X94177063Y-54265449D01*
X94114176Y-54211738D01*
X94114173Y-54211737D01*
X93906089Y-54084222D01*
X93680618Y-53990830D01*
X93680621Y-53990830D01*
X93574992Y-53965470D01*
X93443302Y-53933854D01*
X93443300Y-53933853D01*
X93443297Y-53933853D01*
X93200000Y-53914706D01*
X92956702Y-53933853D01*
X92956697Y-53933854D01*
X92956698Y-53933854D01*
X92749474Y-53983605D01*
X92719380Y-53990830D01*
X92493910Y-54084222D01*
X92285826Y-54211737D01*
X92285823Y-54211738D01*
X92100241Y-54370241D01*
X91941738Y-54555823D01*
X91941737Y-54555826D01*
X91814222Y-54763910D01*
X91720830Y-54989380D01*
X91663853Y-55226702D01*
X91644706Y-55470000D01*
X91663853Y-55713297D01*
X91663853Y-55713300D01*
X91663854Y-55713302D01*
X91712882Y-55917516D01*
X91720830Y-55950619D01*
X91814222Y-56176089D01*
X91941737Y-56384173D01*
X91941738Y-56384176D01*
X91984167Y-56433854D01*
X92100241Y-56569759D01*
X92202609Y-56657189D01*
X92285823Y-56728261D01*
X92285825Y-56728261D01*
X92288662Y-56730000D01*
X92493910Y-56855777D01*
X92669503Y-56928509D01*
X92719388Y-56949172D01*
X92907920Y-56994435D01*
X92968510Y-57029225D01*
X93000674Y-57091251D01*
X92994198Y-57160820D01*
X92966652Y-57202689D01*
X92720966Y-57448375D01*
X92718240Y-57450942D01*
X92671818Y-57492068D01*
X92636586Y-57543109D01*
X92634368Y-57546124D01*
X92596124Y-57594939D01*
X92596119Y-57594948D01*
X92591960Y-57604188D01*
X92580942Y-57623723D01*
X92575187Y-57632061D01*
X92575183Y-57632067D01*
X92575182Y-57632070D01*
X92575180Y-57632074D01*
X92575179Y-57632077D01*
X92553189Y-57690055D01*
X92551757Y-57693513D01*
X92526305Y-57750068D01*
X92524477Y-57760042D01*
X92518453Y-57781653D01*
X92514860Y-57791127D01*
X92514859Y-57791128D01*
X92507384Y-57852685D01*
X92506821Y-57856386D01*
X92495642Y-57917390D01*
X92495642Y-57917395D01*
X92499387Y-57979302D01*
X92499500Y-57983047D01*
X92499500Y-61516354D01*
X92479815Y-61583393D01*
X92440290Y-61622081D01*
X92285826Y-61716737D01*
X92285823Y-61716738D01*
X92100241Y-61875241D01*
X91941738Y-62060823D01*
X91941737Y-62060826D01*
X91814222Y-62268910D01*
X91720830Y-62494380D01*
X91720828Y-62494387D01*
X91720828Y-62494388D01*
X91701322Y-62575635D01*
X91663853Y-62731702D01*
X91644706Y-62975000D01*
X91663853Y-63218297D01*
X91663853Y-63218300D01*
X91663854Y-63218302D01*
X91711284Y-63415861D01*
X91720830Y-63455619D01*
X91814222Y-63681089D01*
X91941737Y-63889173D01*
X91941738Y-63889176D01*
X91995449Y-63952063D01*
X92100241Y-64074759D01*
X92203329Y-64162804D01*
X92285823Y-64233261D01*
X92285826Y-64233262D01*
X92493910Y-64360777D01*
X92719381Y-64454169D01*
X92719378Y-64454169D01*
X92719384Y-64454170D01*
X92719388Y-64454172D01*
X92956698Y-64511146D01*
X93200000Y-64530294D01*
X93443302Y-64511146D01*
X93680612Y-64454172D01*
X93906089Y-64360777D01*
X94114179Y-64233259D01*
X94299759Y-64074759D01*
X94458259Y-63889179D01*
X94585777Y-63681089D01*
X94618426Y-63602267D01*
X94650939Y-63523774D01*
X94694780Y-63469371D01*
X94761074Y-63447306D01*
X94828773Y-63464585D01*
X94876384Y-63515722D01*
X94889500Y-63571227D01*
X94889500Y-66582634D01*
X94869815Y-66649673D01*
X94830291Y-66688361D01*
X94775822Y-66721740D01*
X94590241Y-66880241D01*
X94431738Y-67065823D01*
X94431737Y-67065826D01*
X94304222Y-67273910D01*
X94210830Y-67499380D01*
X94210828Y-67499387D01*
X94210828Y-67499388D01*
X94177036Y-67640139D01*
X94153853Y-67736702D01*
X94134706Y-67980000D01*
X94153853Y-68223297D01*
X94153853Y-68223300D01*
X94153854Y-68223302D01*
X94191699Y-68380937D01*
X94210830Y-68460619D01*
X94304221Y-68686087D01*
X94337695Y-68740711D01*
X94355939Y-68808156D01*
X94334822Y-68874759D01*
X94281050Y-68919372D01*
X94231967Y-68929500D01*
X92102129Y-68929500D01*
X92102123Y-68929501D01*
X92042516Y-68935908D01*
X91907671Y-68986202D01*
X91907664Y-68986206D01*
X91792455Y-69072452D01*
X91792452Y-69072455D01*
X91706206Y-69187664D01*
X91706202Y-69187671D01*
X91655908Y-69322517D01*
X91649501Y-69382116D01*
X91649500Y-69382135D01*
X91649500Y-71577870D01*
X91649501Y-71577876D01*
X91655908Y-71637483D01*
X91706202Y-71772328D01*
X91706206Y-71772335D01*
X91792452Y-71887544D01*
X91792455Y-71887547D01*
X91907664Y-71973793D01*
X91907671Y-71973797D01*
X92042517Y-72024091D01*
X92042516Y-72024091D01*
X92049444Y-72024835D01*
X92102127Y-72030500D01*
X94297872Y-72030499D01*
X94357483Y-72024091D01*
X94492331Y-71973796D01*
X94607546Y-71887546D01*
X94634258Y-71851863D01*
X94666234Y-71809150D01*
X94722168Y-71767279D01*
X94791859Y-71762295D01*
X94853182Y-71795781D01*
X94886666Y-71857104D01*
X94889500Y-71883461D01*
X94889500Y-73245500D01*
X94869815Y-73312539D01*
X94817011Y-73358294D01*
X94765500Y-73369500D01*
X90740194Y-73369500D01*
X90559806Y-73369500D01*
X90553888Y-73370850D01*
X90519089Y-73378791D01*
X90512235Y-73379955D01*
X90470744Y-73384632D01*
X90431341Y-73398419D01*
X90424659Y-73400344D01*
X90383939Y-73409639D01*
X90346320Y-73427755D01*
X90339895Y-73430416D01*
X90300483Y-73444208D01*
X90300476Y-73444212D01*
X90265120Y-73466427D01*
X90259033Y-73469791D01*
X90221410Y-73487910D01*
X90188769Y-73513941D01*
X90183096Y-73517966D01*
X90147739Y-73540183D01*
X90057164Y-73630755D01*
X90057160Y-73630761D01*
X89760296Y-73927625D01*
X89650183Y-74037739D01*
X89627966Y-74073096D01*
X89623941Y-74078769D01*
X89597910Y-74111410D01*
X89579791Y-74149033D01*
X89576427Y-74155120D01*
X89554212Y-74190476D01*
X89554208Y-74190483D01*
X89540416Y-74229895D01*
X89537755Y-74236320D01*
X89519639Y-74273939D01*
X89510344Y-74314659D01*
X89508419Y-74321341D01*
X89494632Y-74360744D01*
X89489955Y-74402235D01*
X89488791Y-74409089D01*
X89479500Y-74449806D01*
X89479500Y-75025500D01*
X89459815Y-75092539D01*
X89407011Y-75138294D01*
X89355502Y-75149500D01*
X89279630Y-75149500D01*
X89279623Y-75149501D01*
X89220016Y-75155908D01*
X89085171Y-75206202D01*
X89085164Y-75206206D01*
X88969955Y-75292452D01*
X88969952Y-75292455D01*
X88883706Y-75407664D01*
X88883702Y-75407671D01*
X88833408Y-75542517D01*
X88827001Y-75602116D01*
X88827000Y-75602135D01*
X88827000Y-77697870D01*
X80710500Y-77697870D01*
X80710500Y-76010001D01*
X82724532Y-76010001D01*
X82744364Y-76236686D01*
X82744366Y-76236697D01*
X82803258Y-76456488D01*
X82803261Y-76456497D01*
X82899431Y-76662732D01*
X82899432Y-76662734D01*
X83029954Y-76849141D01*
X83190858Y-77010045D01*
X83190861Y-77010047D01*
X83377266Y-77140568D01*
X83583504Y-77236739D01*
X83583509Y-77236740D01*
X83583511Y-77236741D01*
X83636415Y-77250916D01*
X83803308Y-77295635D01*
X83973216Y-77310500D01*
X84086784Y-77310500D01*
X84256692Y-77295635D01*
X84476496Y-77236739D01*
X84682734Y-77140568D01*
X84869139Y-77010047D01*
X85030047Y-76849139D01*
X85160568Y-76662734D01*
X85256739Y-76456496D01*
X85315635Y-76236692D01*
X85334640Y-76019460D01*
X85335468Y-76010001D01*
X85335468Y-76009998D01*
X85315635Y-75783313D01*
X85315635Y-75783308D01*
X85256739Y-75563504D01*
X85160568Y-75357266D01*
X85030047Y-75170861D01*
X85030045Y-75170858D01*
X84869141Y-75009954D01*
X84682734Y-74879432D01*
X84682732Y-74879431D01*
X84476497Y-74783261D01*
X84476488Y-74783258D01*
X84256697Y-74724366D01*
X84256687Y-74724364D01*
X84086784Y-74709500D01*
X83973216Y-74709500D01*
X83803312Y-74724364D01*
X83803302Y-74724366D01*
X83583511Y-74783258D01*
X83583502Y-74783261D01*
X83377267Y-74879431D01*
X83377265Y-74879432D01*
X83190858Y-75009954D01*
X83029954Y-75170858D01*
X82899432Y-75357265D01*
X82899431Y-75357267D01*
X82803261Y-75563502D01*
X82803258Y-75563511D01*
X82744366Y-75783302D01*
X82744364Y-75783313D01*
X82724532Y-76009998D01*
X82724532Y-76010001D01*
X80710500Y-76010001D01*
X80710500Y-70599778D01*
X86744500Y-70599778D01*
X86764214Y-70717921D01*
X86783930Y-70836067D01*
X86861711Y-71062637D01*
X86861713Y-71062642D01*
X86975730Y-71273325D01*
X86975734Y-71273331D01*
X87099918Y-71432882D01*
X87122866Y-71462366D01*
X87299113Y-71624612D01*
X87499660Y-71755636D01*
X87719038Y-71851864D01*
X87951263Y-71910672D01*
X88130213Y-71925500D01*
X88130215Y-71925500D01*
X88249785Y-71925500D01*
X88249787Y-71925500D01*
X88428737Y-71910672D01*
X88660962Y-71851864D01*
X88880340Y-71755636D01*
X89080887Y-71624612D01*
X89257134Y-71462366D01*
X89404271Y-71273323D01*
X89518287Y-71062641D01*
X89596070Y-70836065D01*
X89635500Y-70599778D01*
X89635500Y-70360222D01*
X89596070Y-70123935D01*
X89518287Y-69897359D01*
X89404271Y-69686677D01*
X89404269Y-69686674D01*
X89404265Y-69686668D01*
X89257139Y-69497641D01*
X89257134Y-69497634D01*
X89080887Y-69335388D01*
X89080884Y-69335386D01*
X89080883Y-69335385D01*
X88983307Y-69271636D01*
X88880340Y-69204364D01*
X88880337Y-69204362D01*
X88880336Y-69204362D01*
X88660963Y-69108136D01*
X88428737Y-69049328D01*
X88428740Y-69049328D01*
X88321366Y-69040431D01*
X88249787Y-69034500D01*
X88130213Y-69034500D01*
X88058633Y-69040431D01*
X87951260Y-69049328D01*
X87719036Y-69108136D01*
X87499663Y-69204362D01*
X87299116Y-69335385D01*
X87122869Y-69497631D01*
X87122860Y-69497641D01*
X86975734Y-69686668D01*
X86975730Y-69686674D01*
X86861713Y-69897357D01*
X86861711Y-69897362D01*
X86783930Y-70123932D01*
X86754357Y-70301150D01*
X86744500Y-70360222D01*
X86744500Y-70599778D01*
X80710500Y-70599778D01*
X80710500Y-67980000D01*
X81637906Y-67980000D01*
X81657053Y-68223297D01*
X81657053Y-68223300D01*
X81657054Y-68223302D01*
X81694899Y-68380937D01*
X81714030Y-68460619D01*
X81807422Y-68686089D01*
X81934937Y-68894173D01*
X81934938Y-68894176D01*
X81934941Y-68894179D01*
X82093441Y-69079759D01*
X82156589Y-69133692D01*
X82279023Y-69238261D01*
X82279026Y-69238262D01*
X82487110Y-69365777D01*
X82712581Y-69459169D01*
X82712578Y-69459169D01*
X82712584Y-69459170D01*
X82712588Y-69459172D01*
X82949898Y-69516146D01*
X83193200Y-69535294D01*
X83436502Y-69516146D01*
X83673812Y-69459172D01*
X83899289Y-69365777D01*
X84107379Y-69238259D01*
X84292959Y-69079759D01*
X84451459Y-68894179D01*
X84578977Y-68686089D01*
X84672372Y-68460612D01*
X84729346Y-68223302D01*
X84748494Y-67980000D01*
X84729346Y-67736698D01*
X84672372Y-67499388D01*
X84666648Y-67485568D01*
X84578977Y-67273910D01*
X84451462Y-67065826D01*
X84451461Y-67065823D01*
X84292959Y-66880241D01*
X84288209Y-66876184D01*
X84224519Y-66821788D01*
X84186328Y-66763284D01*
X84185828Y-66693416D01*
X84223182Y-66634370D01*
X84224431Y-66633286D01*
X84292959Y-66574759D01*
X84451459Y-66389179D01*
X84578977Y-66181089D01*
X84672372Y-65955612D01*
X84729346Y-65718302D01*
X84748494Y-65475000D01*
X84729346Y-65231698D01*
X84672372Y-64994388D01*
X84636479Y-64907734D01*
X84578977Y-64768910D01*
X84451462Y-64560826D01*
X84451461Y-64560823D01*
X84383881Y-64481697D01*
X84292959Y-64375241D01*
X84197708Y-64293889D01*
X84159516Y-64235383D01*
X84159018Y-64165515D01*
X84196371Y-64106469D01*
X84197709Y-64105310D01*
X84292959Y-64023959D01*
X84451459Y-63838379D01*
X84578977Y-63630289D01*
X84672372Y-63404812D01*
X84729346Y-63167502D01*
X84748494Y-62924200D01*
X84729346Y-62680898D01*
X84672372Y-62443588D01*
X84662837Y-62420568D01*
X84578977Y-62218110D01*
X84451462Y-62010026D01*
X84451461Y-62010023D01*
X84393991Y-61942735D01*
X84292959Y-61824441D01*
X84257186Y-61793888D01*
X84218995Y-61735385D01*
X84218495Y-61665517D01*
X84255848Y-61606470D01*
X84257097Y-61605387D01*
X84292959Y-61574759D01*
X84451459Y-61389179D01*
X84578977Y-61181089D01*
X84672372Y-60955612D01*
X84729346Y-60718302D01*
X84748494Y-60475000D01*
X84729346Y-60231698D01*
X84672372Y-59994388D01*
X84670348Y-59989501D01*
X84578977Y-59768910D01*
X84451462Y-59560826D01*
X84451461Y-59560823D01*
X84415653Y-59518897D01*
X84292959Y-59375241D01*
X84224519Y-59316788D01*
X84186327Y-59258282D01*
X84185828Y-59188414D01*
X84223182Y-59129368D01*
X84224335Y-59128368D01*
X84292959Y-59069759D01*
X84451459Y-58884179D01*
X84578977Y-58676089D01*
X84672372Y-58450612D01*
X84729346Y-58213302D01*
X84748494Y-57970000D01*
X84729346Y-57726698D01*
X84672372Y-57489388D01*
X84660063Y-57459671D01*
X84578977Y-57263910D01*
X84451462Y-57055826D01*
X84451461Y-57055823D01*
X84403135Y-56999241D01*
X84292959Y-56870241D01*
X84128758Y-56730000D01*
X84107376Y-56711738D01*
X84107373Y-56711737D01*
X83899289Y-56584222D01*
X83673818Y-56490830D01*
X83673821Y-56490830D01*
X83532352Y-56456866D01*
X83436502Y-56433854D01*
X83436500Y-56433853D01*
X83436497Y-56433853D01*
X83193200Y-56414706D01*
X82949902Y-56433853D01*
X82712580Y-56490830D01*
X82487110Y-56584222D01*
X82279026Y-56711737D01*
X82279023Y-56711738D01*
X82093441Y-56870241D01*
X81934938Y-57055823D01*
X81934937Y-57055826D01*
X81807422Y-57263910D01*
X81714030Y-57489380D01*
X81714030Y-57489382D01*
X81714028Y-57489388D01*
X81708144Y-57513896D01*
X81657053Y-57726702D01*
X81637906Y-57970000D01*
X81657053Y-58213297D01*
X81657053Y-58213300D01*
X81657054Y-58213302D01*
X81707742Y-58424431D01*
X81714030Y-58450619D01*
X81807422Y-58676089D01*
X81934937Y-58884173D01*
X81934938Y-58884176D01*
X82030040Y-58995527D01*
X82093439Y-59069757D01*
X82093443Y-59069761D01*
X82161878Y-59128210D01*
X82200072Y-59186716D01*
X82200571Y-59256584D01*
X82163217Y-59315631D01*
X82161878Y-59316790D01*
X82093443Y-59375238D01*
X81934938Y-59560823D01*
X81934937Y-59560826D01*
X81807422Y-59768910D01*
X81714030Y-59994380D01*
X81714028Y-59994387D01*
X81714028Y-59994388D01*
X81701588Y-60046202D01*
X81657053Y-60231702D01*
X81637906Y-60475000D01*
X81657053Y-60718297D01*
X81657053Y-60718300D01*
X81657054Y-60718302D01*
X81695472Y-60878323D01*
X81714030Y-60955619D01*
X81807422Y-61181089D01*
X81934937Y-61389173D01*
X81934938Y-61389176D01*
X81934941Y-61389179D01*
X82093441Y-61574759D01*
X82129210Y-61605309D01*
X82167404Y-61663814D01*
X82167904Y-61733682D01*
X82130551Y-61792729D01*
X82129213Y-61793888D01*
X82093442Y-61824440D01*
X81934938Y-62010023D01*
X81934937Y-62010026D01*
X81807422Y-62218110D01*
X81714030Y-62443580D01*
X81657053Y-62680902D01*
X81637906Y-62924200D01*
X81657053Y-63167497D01*
X81657053Y-63167500D01*
X81657054Y-63167502D01*
X81678049Y-63254953D01*
X81714030Y-63404819D01*
X81807422Y-63630289D01*
X81934937Y-63838373D01*
X81934938Y-63838376D01*
X81934941Y-63838379D01*
X82093441Y-64023959D01*
X82188691Y-64105310D01*
X82226884Y-64163817D01*
X82227382Y-64233685D01*
X82190029Y-64292731D01*
X82188691Y-64293890D01*
X82093441Y-64375241D01*
X81934938Y-64560823D01*
X81934937Y-64560826D01*
X81807422Y-64768910D01*
X81714030Y-64994380D01*
X81657053Y-65231702D01*
X81637906Y-65475000D01*
X81657053Y-65718297D01*
X81657053Y-65718300D01*
X81657054Y-65718302D01*
X81712343Y-65948595D01*
X81714030Y-65955619D01*
X81807422Y-66181089D01*
X81934937Y-66389173D01*
X81934938Y-66389176D01*
X81934941Y-66389179D01*
X82089594Y-66570255D01*
X82093443Y-66574761D01*
X82161878Y-66633210D01*
X82200072Y-66691716D01*
X82200571Y-66761584D01*
X82163217Y-66820631D01*
X82161878Y-66821790D01*
X82093443Y-66880238D01*
X81934938Y-67065823D01*
X81934937Y-67065826D01*
X81807422Y-67273910D01*
X81714030Y-67499380D01*
X81714028Y-67499387D01*
X81714028Y-67499388D01*
X81680236Y-67640139D01*
X81657053Y-67736702D01*
X81637906Y-67980000D01*
X80710500Y-67980000D01*
X80710500Y-55589776D01*
X86744500Y-55589776D01*
X86783930Y-55826067D01*
X86861711Y-56052637D01*
X86861713Y-56052642D01*
X86975730Y-56263325D01*
X86975734Y-56263331D01*
X87086423Y-56405544D01*
X87122866Y-56452366D01*
X87299113Y-56614612D01*
X87499660Y-56745636D01*
X87719038Y-56841864D01*
X87951263Y-56900672D01*
X88130213Y-56915500D01*
X88130215Y-56915500D01*
X88249785Y-56915500D01*
X88249787Y-56915500D01*
X88428737Y-56900672D01*
X88660962Y-56841864D01*
X88880340Y-56745636D01*
X89080887Y-56614612D01*
X89257134Y-56452366D01*
X89381323Y-56292806D01*
X89404265Y-56263331D01*
X89404269Y-56263325D01*
X89404271Y-56263323D01*
X89518287Y-56052641D01*
X89596070Y-55826065D01*
X89635500Y-55589778D01*
X89635500Y-55350222D01*
X89596070Y-55113935D01*
X89518287Y-54887359D01*
X89510236Y-54872483D01*
X89458650Y-54777160D01*
X89404271Y-54676677D01*
X89404269Y-54676674D01*
X89404265Y-54676668D01*
X89257139Y-54487641D01*
X89257134Y-54487634D01*
X89080887Y-54325388D01*
X89080884Y-54325386D01*
X89080883Y-54325385D01*
X89003338Y-54274722D01*
X88880340Y-54194364D01*
X88880337Y-54194362D01*
X88880336Y-54194362D01*
X88660963Y-54098136D01*
X88428737Y-54039328D01*
X88428740Y-54039328D01*
X88321366Y-54030431D01*
X88249787Y-54024500D01*
X88130213Y-54024500D01*
X88058633Y-54030431D01*
X87951260Y-54039328D01*
X87719036Y-54098136D01*
X87499663Y-54194362D01*
X87299116Y-54325385D01*
X87122869Y-54487631D01*
X87122860Y-54487641D01*
X86975734Y-54676668D01*
X86975730Y-54676674D01*
X86861713Y-54887357D01*
X86861711Y-54887362D01*
X86783930Y-55113932D01*
X86744500Y-55350223D01*
X86744500Y-55589776D01*
X80710500Y-55589776D01*
X80710500Y-49810001D01*
X82724532Y-49810001D01*
X82744364Y-50036686D01*
X82744366Y-50036697D01*
X82803258Y-50256488D01*
X82803261Y-50256497D01*
X82899431Y-50462732D01*
X82899432Y-50462734D01*
X83029954Y-50649141D01*
X83190858Y-50810045D01*
X83190861Y-50810047D01*
X83377266Y-50940568D01*
X83583504Y-51036739D01*
X83803308Y-51095635D01*
X83973216Y-51110500D01*
X84086784Y-51110500D01*
X84256692Y-51095635D01*
X84476496Y-51036739D01*
X84682734Y-50940568D01*
X84869139Y-50810047D01*
X85030047Y-50649139D01*
X85160568Y-50462734D01*
X85256739Y-50256496D01*
X85315635Y-50036692D01*
X85324969Y-49930000D01*
X89104341Y-49930000D01*
X89124936Y-50165403D01*
X89124938Y-50165413D01*
X89186094Y-50393655D01*
X89186096Y-50393659D01*
X89186097Y-50393663D01*
X89243864Y-50517544D01*
X89285965Y-50607830D01*
X89285967Y-50607834D01*
X89360790Y-50714691D01*
X89421505Y-50801401D01*
X89588599Y-50968495D01*
X89604653Y-50979736D01*
X89782165Y-51104032D01*
X89782167Y-51104033D01*
X89782170Y-51104035D01*
X89996337Y-51203903D01*
X90224592Y-51265063D01*
X90395319Y-51280000D01*
X90459999Y-51285659D01*
X90460000Y-51285659D01*
X90460001Y-51285659D01*
X90524681Y-51280000D01*
X90695408Y-51265063D01*
X90923663Y-51203903D01*
X91137830Y-51104035D01*
X91331401Y-50968495D01*
X91453717Y-50846178D01*
X91515036Y-50812696D01*
X91584728Y-50817680D01*
X91640662Y-50859551D01*
X91657577Y-50890528D01*
X91706646Y-51022088D01*
X91706649Y-51022093D01*
X91792809Y-51137187D01*
X91792812Y-51137190D01*
X91907906Y-51223350D01*
X91907913Y-51223354D01*
X92042620Y-51273596D01*
X92042627Y-51273598D01*
X92102155Y-51279999D01*
X92102172Y-51280000D01*
X92750000Y-51280000D01*
X92750000Y-50542301D01*
X92769685Y-50475262D01*
X92822489Y-50429507D01*
X92891647Y-50419563D01*
X92964237Y-50430000D01*
X92964238Y-50430000D01*
X93035762Y-50430000D01*
X93035763Y-50430000D01*
X93108353Y-50419563D01*
X93177512Y-50429507D01*
X93230315Y-50475262D01*
X93250000Y-50542301D01*
X93249999Y-51279999D01*
X93250000Y-51280000D01*
X93897828Y-51280000D01*
X93897844Y-51279999D01*
X93957372Y-51273598D01*
X93957379Y-51273596D01*
X94092086Y-51223354D01*
X94092093Y-51223350D01*
X94207187Y-51137190D01*
X94207190Y-51137187D01*
X94229156Y-51107844D01*
X98070000Y-51107844D01*
X98076401Y-51167372D01*
X98076403Y-51167379D01*
X98126645Y-51302086D01*
X98126649Y-51302093D01*
X98212809Y-51417187D01*
X98212812Y-51417190D01*
X98327906Y-51503350D01*
X98327913Y-51503354D01*
X98462620Y-51553596D01*
X98462627Y-51553598D01*
X98522155Y-51559999D01*
X98522172Y-51560000D01*
X99120000Y-51560000D01*
X99120000Y-50770575D01*
X99139685Y-50703536D01*
X99192489Y-50657781D01*
X99261647Y-50647837D01*
X99263331Y-50648091D01*
X99295699Y-50653218D01*
X99338515Y-50660000D01*
X99338519Y-50660000D01*
X99401485Y-50660000D01*
X99444300Y-50653218D01*
X99476602Y-50648102D01*
X99545894Y-50657056D01*
X99599347Y-50702052D01*
X99619987Y-50768803D01*
X99620000Y-50770575D01*
X99620000Y-51560000D01*
X100217828Y-51560000D01*
X100217844Y-51559999D01*
X100277372Y-51553598D01*
X100277379Y-51553596D01*
X100412086Y-51503354D01*
X100412088Y-51503352D01*
X100527186Y-51417190D01*
X100527188Y-51417188D01*
X100533642Y-51408568D01*
X100589575Y-51366696D01*
X100659266Y-51361710D01*
X100704029Y-51381300D01*
X100717266Y-51390568D01*
X100923504Y-51486739D01*
X101143308Y-51545635D01*
X101305230Y-51559801D01*
X101369998Y-51565468D01*
X101370000Y-51565468D01*
X101370002Y-51565468D01*
X101432511Y-51559999D01*
X101596692Y-51545635D01*
X101816496Y-51486739D01*
X102022734Y-51390568D01*
X102209139Y-51260047D01*
X102370047Y-51099139D01*
X102500568Y-50912734D01*
X102596739Y-50706496D01*
X102655635Y-50486692D01*
X102675468Y-50260000D01*
X102675161Y-50256496D01*
X102666747Y-50160315D01*
X102655635Y-50033308D01*
X102596739Y-49813504D01*
X102500568Y-49607266D01*
X102370047Y-49420861D01*
X102370045Y-49420858D01*
X102209141Y-49259954D01*
X102152082Y-49220001D01*
X105304532Y-49220001D01*
X105324364Y-49446686D01*
X105324366Y-49446697D01*
X105383258Y-49666488D01*
X105383261Y-49666497D01*
X105479431Y-49872732D01*
X105479432Y-49872734D01*
X105609954Y-50059141D01*
X105770858Y-50220045D01*
X105770861Y-50220047D01*
X105957266Y-50350568D01*
X106163504Y-50446739D01*
X106383308Y-50505635D01*
X106519463Y-50517547D01*
X106609998Y-50525468D01*
X106610000Y-50525468D01*
X106610002Y-50525468D01*
X106666672Y-50520509D01*
X106836692Y-50505635D01*
X107056496Y-50446739D01*
X107262734Y-50350568D01*
X107449139Y-50220047D01*
X107610047Y-50059139D01*
X107740568Y-49872734D01*
X107836739Y-49666496D01*
X107895635Y-49446692D01*
X107903219Y-49360001D01*
X109794532Y-49360001D01*
X109814364Y-49586686D01*
X109814366Y-49586697D01*
X109873258Y-49806488D01*
X109873261Y-49806497D01*
X109969431Y-50012732D01*
X109969432Y-50012734D01*
X110099954Y-50199141D01*
X110260858Y-50360045D01*
X110280664Y-50373913D01*
X110447266Y-50490568D01*
X110653504Y-50586739D01*
X110873308Y-50645635D01*
X111025465Y-50658947D01*
X111099998Y-50665468D01*
X111100000Y-50665468D01*
X111100002Y-50665468D01*
X111174535Y-50658947D01*
X111326692Y-50645635D01*
X111546496Y-50586739D01*
X111752734Y-50490568D01*
X111939139Y-50360047D01*
X112100047Y-50199139D01*
X112230568Y-50012734D01*
X112257618Y-49954724D01*
X112303790Y-49902285D01*
X112370983Y-49883133D01*
X112437865Y-49903348D01*
X112482382Y-49954725D01*
X112509429Y-50012728D01*
X112509432Y-50012734D01*
X112639954Y-50199141D01*
X112800858Y-50360045D01*
X112820664Y-50373913D01*
X112987266Y-50490568D01*
X113193504Y-50586739D01*
X113413308Y-50645635D01*
X113565465Y-50658947D01*
X113639998Y-50665468D01*
X113640000Y-50665468D01*
X113640002Y-50665468D01*
X113714535Y-50658947D01*
X113866692Y-50645635D01*
X114086496Y-50586739D01*
X114292734Y-50490568D01*
X114479139Y-50360047D01*
X114640047Y-50199139D01*
X114770568Y-50012734D01*
X114797618Y-49954724D01*
X114843790Y-49902285D01*
X114910983Y-49883133D01*
X114977865Y-49903348D01*
X115022382Y-49954725D01*
X115049429Y-50012728D01*
X115049432Y-50012734D01*
X115179954Y-50199141D01*
X115340858Y-50360045D01*
X115360664Y-50373913D01*
X115527266Y-50490568D01*
X115733504Y-50586739D01*
X115953308Y-50645635D01*
X116105465Y-50658947D01*
X116179998Y-50665468D01*
X116180000Y-50665468D01*
X116180002Y-50665468D01*
X116254535Y-50658947D01*
X116406692Y-50645635D01*
X116626496Y-50586739D01*
X116832734Y-50490568D01*
X117019139Y-50360047D01*
X117180047Y-50199139D01*
X117310568Y-50012734D01*
X117337618Y-49954724D01*
X117383790Y-49902285D01*
X117450983Y-49883133D01*
X117517865Y-49903348D01*
X117562382Y-49954725D01*
X117589429Y-50012728D01*
X117589432Y-50012734D01*
X117719954Y-50199141D01*
X117880858Y-50360045D01*
X117900664Y-50373913D01*
X118067266Y-50490568D01*
X118273504Y-50586739D01*
X118493308Y-50645635D01*
X118645465Y-50658947D01*
X118719998Y-50665468D01*
X118720000Y-50665468D01*
X118720001Y-50665468D01*
X118738304Y-50663866D01*
X118946692Y-50645635D01*
X118946697Y-50645633D01*
X118951881Y-50645180D01*
X119020381Y-50658946D01*
X119050370Y-50681026D01*
X122875800Y-54506457D01*
X122878336Y-54509151D01*
X122919472Y-54555584D01*
X122970531Y-54590828D01*
X122973513Y-54593022D01*
X123022345Y-54631279D01*
X123022348Y-54631281D01*
X123022347Y-54631281D01*
X123031578Y-54635435D01*
X123051132Y-54646463D01*
X123059467Y-54652217D01*
X123059469Y-54652217D01*
X123059471Y-54652219D01*
X123117480Y-54674218D01*
X123120877Y-54675625D01*
X123166361Y-54696096D01*
X123177465Y-54701094D01*
X123177466Y-54701094D01*
X123177470Y-54701096D01*
X123187435Y-54702922D01*
X123209057Y-54708949D01*
X123212178Y-54710132D01*
X123218529Y-54712541D01*
X123263652Y-54718019D01*
X123280075Y-54720014D01*
X123283772Y-54720576D01*
X123344795Y-54731759D01*
X123400153Y-54728410D01*
X123406704Y-54728014D01*
X123410449Y-54727901D01*
X135035500Y-54727901D01*
X135102539Y-54747586D01*
X135148294Y-54800390D01*
X135159500Y-54851901D01*
X135159500Y-55675271D01*
X135159501Y-55675277D01*
X135165908Y-55734884D01*
X135216202Y-55869729D01*
X135216206Y-55869736D01*
X135302452Y-55984945D01*
X135302455Y-55984948D01*
X135417664Y-56071194D01*
X135417671Y-56071198D01*
X135552516Y-56121492D01*
X135572802Y-56123673D01*
X135612127Y-56127901D01*
X135662691Y-56127900D01*
X135729728Y-56147583D01*
X135750371Y-56164219D01*
X136149737Y-56563584D01*
X136183222Y-56624907D01*
X136178238Y-56694598D01*
X136136367Y-56750532D01*
X136127335Y-56756691D01*
X136054390Y-56801857D01*
X135979874Y-56900533D01*
X135976484Y-56897973D01*
X135944007Y-56932889D01*
X135876315Y-56950199D01*
X135810011Y-56928164D01*
X135793004Y-56913957D01*
X135322533Y-56443486D01*
X135322532Y-56443486D01*
X135320756Y-56445840D01*
X135320754Y-56445843D01*
X135229886Y-56628331D01*
X135229883Y-56628337D01*
X135174097Y-56824408D01*
X135174096Y-56824411D01*
X135155287Y-57027400D01*
X135155287Y-57027401D01*
X135174096Y-57230390D01*
X135174097Y-57230393D01*
X135229883Y-57426464D01*
X135229886Y-57426470D01*
X135320754Y-57608957D01*
X135320755Y-57608958D01*
X135322533Y-57611313D01*
X135796879Y-57136967D01*
X135858202Y-57103482D01*
X135927893Y-57108466D01*
X135983827Y-57150337D01*
X135995560Y-57169375D01*
X136016448Y-57211323D01*
X136016449Y-57211324D01*
X136026514Y-57220500D01*
X136099334Y-57286885D01*
X136105488Y-57289269D01*
X136160890Y-57331842D01*
X136184481Y-57397608D01*
X136168770Y-57465689D01*
X136148376Y-57492577D01*
X135679310Y-57961641D01*
X135679311Y-57961642D01*
X135767581Y-58016296D01*
X135767588Y-58016300D01*
X135957678Y-58089940D01*
X136158072Y-58127401D01*
X136361928Y-58127401D01*
X136562321Y-58089940D01*
X136752414Y-58016298D01*
X136840688Y-57961641D01*
X136370263Y-57491216D01*
X136336778Y-57429893D01*
X136341762Y-57360201D01*
X136383634Y-57304268D01*
X136392653Y-57298117D01*
X136465610Y-57252944D01*
X136533201Y-57163439D01*
X136533200Y-57163439D01*
X136540126Y-57154269D01*
X136543540Y-57156847D01*
X136575721Y-57122074D01*
X136643368Y-57104591D01*
X136709728Y-57126457D01*
X136726995Y-57140844D01*
X137197465Y-57611313D01*
X137199247Y-57608953D01*
X137199249Y-57608951D01*
X137290113Y-57426470D01*
X137290116Y-57426464D01*
X137345902Y-57230393D01*
X137345903Y-57230390D01*
X137364713Y-57027401D01*
X137364713Y-57027400D01*
X137345903Y-56824411D01*
X137345902Y-56824408D01*
X137290116Y-56628337D01*
X137290113Y-56628331D01*
X137199244Y-56445842D01*
X137197466Y-56443487D01*
X137197465Y-56443486D01*
X136723119Y-56917833D01*
X136661796Y-56951318D01*
X136592104Y-56946334D01*
X136536171Y-56904462D01*
X136524440Y-56885429D01*
X136503552Y-56843479D01*
X136503550Y-56843477D01*
X136420666Y-56767916D01*
X136420663Y-56767915D01*
X136414507Y-56765530D01*
X136359106Y-56722956D01*
X136335518Y-56657189D01*
X136351231Y-56589109D01*
X136371623Y-56562224D01*
X136769628Y-56164219D01*
X136830951Y-56130734D01*
X136857308Y-56127900D01*
X136907872Y-56127900D01*
X136967483Y-56121492D01*
X137102331Y-56071197D01*
X137217546Y-55984947D01*
X137303796Y-55869732D01*
X137354091Y-55734884D01*
X137360500Y-55675274D01*
X137360499Y-54851900D01*
X137380183Y-54784862D01*
X137432987Y-54739107D01*
X137484499Y-54727901D01*
X140848481Y-54727901D01*
X140915520Y-54747586D01*
X140936162Y-54764220D01*
X143053338Y-56881396D01*
X143086823Y-56942719D01*
X143089128Y-56980515D01*
X143084785Y-57027396D01*
X143084785Y-57027401D01*
X143103602Y-57230483D01*
X143159417Y-57426648D01*
X143159422Y-57426661D01*
X143250327Y-57609222D01*
X143373237Y-57771982D01*
X143523958Y-57909381D01*
X143523960Y-57909383D01*
X143573935Y-57940326D01*
X143697363Y-58016749D01*
X143887544Y-58090425D01*
X144088024Y-58127901D01*
X144088026Y-58127901D01*
X144291974Y-58127901D01*
X144291976Y-58127901D01*
X144492456Y-58090425D01*
X144682637Y-58016749D01*
X144856041Y-57909382D01*
X145006764Y-57771980D01*
X145061121Y-57700000D01*
X150304859Y-57700000D01*
X150325378Y-57921439D01*
X150386240Y-58135350D01*
X150485369Y-58334428D01*
X150501137Y-58355308D01*
X150501138Y-58355308D01*
X151009447Y-57847000D01*
X151070770Y-57813515D01*
X151140462Y-57818499D01*
X151196395Y-57860371D01*
X151200937Y-57866859D01*
X151248935Y-57940326D01*
X151348600Y-58017898D01*
X151389413Y-58074609D01*
X151393088Y-58144382D01*
X151360119Y-58203433D01*
X150856672Y-58706879D01*
X150856672Y-58706880D01*
X150972821Y-58778797D01*
X150972822Y-58778798D01*
X151180195Y-58859134D01*
X151398807Y-58900000D01*
X151621193Y-58900000D01*
X151839809Y-58859133D01*
X152047168Y-58778801D01*
X152047181Y-58778795D01*
X152163326Y-58706879D01*
X151656406Y-58199958D01*
X151622921Y-58138635D01*
X151627905Y-58068943D01*
X151669777Y-58013010D01*
X151685062Y-58003227D01*
X151727947Y-57980019D01*
X151807060Y-57894079D01*
X151810555Y-57886110D01*
X151855510Y-57832624D01*
X151922246Y-57811934D01*
X151989574Y-57830608D01*
X152011792Y-57848239D01*
X152518861Y-58355308D01*
X152534631Y-58334425D01*
X152534633Y-58334422D01*
X152633759Y-58135350D01*
X152694621Y-57921439D01*
X152715140Y-57700000D01*
X152715140Y-57699999D01*
X152694621Y-57478560D01*
X152633759Y-57264649D01*
X152534635Y-57065580D01*
X152534630Y-57065572D01*
X152518860Y-57044690D01*
X152010552Y-57552999D01*
X151949229Y-57586484D01*
X151879537Y-57581500D01*
X151823604Y-57539628D01*
X151819062Y-57533139D01*
X151771065Y-57459674D01*
X151771062Y-57459671D01*
X151671399Y-57382100D01*
X151630586Y-57325390D01*
X151626911Y-57255617D01*
X151659880Y-57196566D01*
X152163327Y-56693119D01*
X152047178Y-56621202D01*
X152047177Y-56621201D01*
X151839804Y-56540865D01*
X151621193Y-56500000D01*
X151398807Y-56500000D01*
X151180195Y-56540865D01*
X150972824Y-56621200D01*
X150972823Y-56621201D01*
X150856671Y-56693119D01*
X151363594Y-57200041D01*
X151397079Y-57261364D01*
X151392095Y-57331055D01*
X151350224Y-57386989D01*
X151334931Y-57396776D01*
X151292056Y-57419979D01*
X151292052Y-57419981D01*
X151212939Y-57505922D01*
X151209441Y-57513896D01*
X151164481Y-57567379D01*
X151097744Y-57588065D01*
X151030417Y-57569386D01*
X151008207Y-57551760D01*
X150501138Y-57044691D01*
X150501137Y-57044691D01*
X150485368Y-57065574D01*
X150386240Y-57264649D01*
X150325378Y-57478560D01*
X150304859Y-57699999D01*
X150304859Y-57700000D01*
X145061121Y-57700000D01*
X145129673Y-57609222D01*
X145220582Y-57426651D01*
X145276397Y-57230484D01*
X145295215Y-57027401D01*
X145294641Y-57021211D01*
X145276397Y-56824318D01*
X145271767Y-56808045D01*
X145220582Y-56628151D01*
X145217121Y-56621201D01*
X145156771Y-56500000D01*
X145129673Y-56445580D01*
X145006764Y-56282822D01*
X145006762Y-56282820D01*
X144999551Y-56276246D01*
X144971047Y-56229335D01*
X159859500Y-56229335D01*
X159865172Y-56263325D01*
X159900429Y-56474616D01*
X159981169Y-56709802D01*
X159981172Y-56709811D01*
X160093748Y-56917833D01*
X160099526Y-56928509D01*
X160252262Y-57124744D01*
X160394428Y-57255617D01*
X160435217Y-57293166D01*
X160643393Y-57429173D01*
X160871118Y-57529063D01*
X161030350Y-57569386D01*
X161112179Y-57590108D01*
X161112181Y-57590108D01*
X161112186Y-57590109D01*
X161245376Y-57601145D01*
X161297933Y-57605500D01*
X161297935Y-57605500D01*
X162922065Y-57605500D01*
X162922067Y-57605500D01*
X162983284Y-57600427D01*
X163107813Y-57590109D01*
X163107816Y-57590108D01*
X163107821Y-57590108D01*
X163348881Y-57529063D01*
X163576607Y-57429173D01*
X163784785Y-57293164D01*
X163967738Y-57124744D01*
X164120474Y-56928509D01*
X164238828Y-56709810D01*
X164319571Y-56474614D01*
X164360500Y-56229335D01*
X164360500Y-55980665D01*
X164319571Y-55735386D01*
X164317785Y-55730185D01*
X164298938Y-55675284D01*
X164238828Y-55500190D01*
X164120474Y-55281491D01*
X163967738Y-55085256D01*
X163805868Y-54936244D01*
X163784782Y-54916833D01*
X163576606Y-54780826D01*
X163348881Y-54680936D01*
X163107824Y-54619892D01*
X163107813Y-54619890D01*
X162942548Y-54606197D01*
X162922067Y-54604500D01*
X161297933Y-54604500D01*
X161278521Y-54606108D01*
X161112186Y-54619890D01*
X161112175Y-54619892D01*
X160871118Y-54680936D01*
X160643393Y-54780826D01*
X160435217Y-54916833D01*
X160252261Y-55085257D01*
X160099524Y-55281493D01*
X159981172Y-55500188D01*
X159981169Y-55500197D01*
X159900429Y-55735383D01*
X159870340Y-55915703D01*
X159859500Y-55980665D01*
X159859500Y-56229335D01*
X144971047Y-56229335D01*
X144963269Y-56216535D01*
X144965030Y-56146688D01*
X145004273Y-56088880D01*
X145025277Y-56076787D01*
X145024546Y-56075448D01*
X145032326Y-56071198D01*
X145032331Y-56071197D01*
X145147546Y-55984947D01*
X145233796Y-55869732D01*
X145284091Y-55734884D01*
X145290500Y-55675274D01*
X145290499Y-54379529D01*
X145284091Y-54319918D01*
X145283145Y-54317382D01*
X145233797Y-54185072D01*
X145233793Y-54185065D01*
X145147547Y-54069856D01*
X145147544Y-54069853D01*
X145032335Y-53983607D01*
X145032328Y-53983603D01*
X144897482Y-53933309D01*
X144897483Y-53933309D01*
X144837883Y-53926902D01*
X144837881Y-53926901D01*
X144837873Y-53926901D01*
X144837865Y-53926901D01*
X144131519Y-53926901D01*
X144064480Y-53907216D01*
X144043838Y-53890582D01*
X143343873Y-53190617D01*
X143310388Y-53129294D01*
X143315372Y-53059602D01*
X143357244Y-53003669D01*
X143422708Y-52979252D01*
X143490981Y-52994104D01*
X143515092Y-53011299D01*
X143523958Y-53019381D01*
X143523960Y-53019383D01*
X143623141Y-53080793D01*
X143697363Y-53126749D01*
X143887544Y-53200425D01*
X144088024Y-53237901D01*
X144088026Y-53237901D01*
X144291974Y-53237901D01*
X144291976Y-53237901D01*
X144492456Y-53200425D01*
X144682637Y-53126749D01*
X144856041Y-53019382D01*
X144984542Y-52902238D01*
X145006762Y-52881982D01*
X145006764Y-52881980D01*
X145129673Y-52719222D01*
X145220582Y-52536651D01*
X145276397Y-52340484D01*
X145295215Y-52137401D01*
X145276397Y-51934318D01*
X145220582Y-51738151D01*
X145129673Y-51555580D01*
X145006764Y-51392822D01*
X145006762Y-51392820D01*
X144999551Y-51386246D01*
X144963269Y-51326535D01*
X144965030Y-51256688D01*
X145004273Y-51198880D01*
X145025277Y-51186787D01*
X145024546Y-51185448D01*
X145032326Y-51181198D01*
X145032331Y-51181197D01*
X145147546Y-51094947D01*
X145233796Y-50979732D01*
X145284091Y-50844884D01*
X145290500Y-50785274D01*
X145290499Y-50080000D01*
X150304356Y-50080000D01*
X150324884Y-50301535D01*
X150324885Y-50301537D01*
X150385769Y-50515523D01*
X150385775Y-50515538D01*
X150484938Y-50714683D01*
X150484943Y-50714691D01*
X150619020Y-50892238D01*
X150783437Y-51042123D01*
X150783439Y-51042125D01*
X150972595Y-51159245D01*
X150972596Y-51159245D01*
X150972599Y-51159247D01*
X151180060Y-51239618D01*
X151398757Y-51280500D01*
X151398759Y-51280500D01*
X151621241Y-51280500D01*
X151621243Y-51280500D01*
X151839940Y-51239618D01*
X152047401Y-51159247D01*
X152236562Y-51042124D01*
X152400981Y-50892236D01*
X152535058Y-50714689D01*
X152634229Y-50515528D01*
X152695115Y-50301536D01*
X152708873Y-50153058D01*
X152734659Y-50088122D01*
X152791459Y-50047434D01*
X152832344Y-50040500D01*
X156477649Y-50040500D01*
X156544688Y-50060185D01*
X156581458Y-50096679D01*
X156651016Y-50203147D01*
X156651019Y-50203151D01*
X156651021Y-50203153D01*
X156745803Y-50306114D01*
X156776724Y-50368767D01*
X156768864Y-50438193D01*
X156724716Y-50492348D01*
X156697906Y-50506277D01*
X156617669Y-50536203D01*
X156617664Y-50536206D01*
X156502455Y-50622452D01*
X156502452Y-50622455D01*
X156416206Y-50737664D01*
X156416202Y-50737671D01*
X156365908Y-50872517D01*
X156361585Y-50912732D01*
X156359501Y-50932123D01*
X156359500Y-50932135D01*
X156359500Y-52827870D01*
X156359501Y-52827876D01*
X156365908Y-52887483D01*
X156416202Y-53022328D01*
X156416206Y-53022335D01*
X156502452Y-53137544D01*
X156502455Y-53137547D01*
X156617664Y-53223793D01*
X156617671Y-53223797D01*
X156752517Y-53274091D01*
X156752516Y-53274091D01*
X156759444Y-53274835D01*
X156812127Y-53280500D01*
X158707872Y-53280499D01*
X158767483Y-53274091D01*
X158902331Y-53223796D01*
X159017546Y-53137546D01*
X159103796Y-53022331D01*
X159154091Y-52887483D01*
X159160500Y-52827873D01*
X159160499Y-50932128D01*
X159154091Y-50872517D01*
X159144268Y-50846181D01*
X159103797Y-50737671D01*
X159103793Y-50737664D01*
X159017547Y-50622455D01*
X159017544Y-50622452D01*
X158902335Y-50536206D01*
X158902328Y-50536202D01*
X158822094Y-50506277D01*
X158766160Y-50464406D01*
X158741743Y-50398941D01*
X158756595Y-50330668D01*
X158774190Y-50306121D01*
X158868979Y-50203153D01*
X158995924Y-50008849D01*
X159083147Y-49810001D01*
X163604532Y-49810001D01*
X163624364Y-50036686D01*
X163624366Y-50036697D01*
X163683258Y-50256488D01*
X163683261Y-50256497D01*
X163779431Y-50462732D01*
X163779432Y-50462734D01*
X163909954Y-50649141D01*
X164070858Y-50810045D01*
X164070861Y-50810047D01*
X164257266Y-50940568D01*
X164463504Y-51036739D01*
X164683308Y-51095635D01*
X164853216Y-51110500D01*
X164966784Y-51110500D01*
X165136692Y-51095635D01*
X165356496Y-51036739D01*
X165562734Y-50940568D01*
X165749139Y-50810047D01*
X165910047Y-50649139D01*
X166040568Y-50462734D01*
X166136739Y-50256496D01*
X166195635Y-50036692D01*
X166215161Y-49813511D01*
X166215468Y-49810001D01*
X166215468Y-49809998D01*
X166205371Y-49694592D01*
X166195635Y-49583308D01*
X166136739Y-49363504D01*
X166040568Y-49157266D01*
X165910047Y-48970861D01*
X165910045Y-48970858D01*
X165749141Y-48809954D01*
X165562734Y-48679432D01*
X165562732Y-48679431D01*
X165356497Y-48583261D01*
X165356488Y-48583258D01*
X165136697Y-48524366D01*
X165136687Y-48524364D01*
X164966784Y-48509500D01*
X164853216Y-48509500D01*
X164683312Y-48524364D01*
X164683302Y-48524366D01*
X164463511Y-48583258D01*
X164463502Y-48583261D01*
X164257267Y-48679431D01*
X164257265Y-48679432D01*
X164070858Y-48809954D01*
X163909954Y-48970858D01*
X163779432Y-49157265D01*
X163779431Y-49157267D01*
X163683261Y-49363502D01*
X163683258Y-49363511D01*
X163624366Y-49583302D01*
X163624364Y-49583313D01*
X163604532Y-49809998D01*
X163604532Y-49810001D01*
X159083147Y-49810001D01*
X159089157Y-49796300D01*
X159146134Y-49571305D01*
X159151624Y-49505048D01*
X159165300Y-49340006D01*
X159165300Y-49339993D01*
X159146135Y-49108702D01*
X159146133Y-49108691D01*
X159089157Y-48883699D01*
X158995924Y-48671151D01*
X158868983Y-48476852D01*
X158868980Y-48476849D01*
X158868979Y-48476847D01*
X158711784Y-48306087D01*
X158711779Y-48306083D01*
X158711777Y-48306081D01*
X158528634Y-48163535D01*
X158528628Y-48163531D01*
X158324504Y-48053064D01*
X158324495Y-48053061D01*
X158104984Y-47977702D01*
X157933282Y-47949050D01*
X157876049Y-47939500D01*
X157643951Y-47939500D01*
X157598164Y-47947140D01*
X157415015Y-47977702D01*
X157195504Y-48053061D01*
X157195495Y-48053064D01*
X156991371Y-48163531D01*
X156991365Y-48163535D01*
X156808222Y-48306081D01*
X156808219Y-48306084D01*
X156651016Y-48476852D01*
X156581458Y-48583321D01*
X156528312Y-48628678D01*
X156477649Y-48639500D01*
X152273048Y-48639500D01*
X152269303Y-48639387D01*
X152207396Y-48635642D01*
X152207390Y-48635642D01*
X152146386Y-48646821D01*
X152142685Y-48647384D01*
X152081128Y-48654859D01*
X152081127Y-48654860D01*
X152071653Y-48658453D01*
X152050042Y-48664477D01*
X152040068Y-48666305D01*
X151983513Y-48691757D01*
X151980055Y-48693189D01*
X151922077Y-48715179D01*
X151922074Y-48715180D01*
X151922070Y-48715182D01*
X151922067Y-48715183D01*
X151922061Y-48715187D01*
X151913723Y-48720942D01*
X151894188Y-48731960D01*
X151884948Y-48736119D01*
X151884939Y-48736124D01*
X151836124Y-48774368D01*
X151833109Y-48776586D01*
X151782070Y-48811817D01*
X151754345Y-48843112D01*
X151695154Y-48880237D01*
X151638748Y-48882772D01*
X151621244Y-48879500D01*
X151621243Y-48879500D01*
X151398757Y-48879500D01*
X151180060Y-48920382D01*
X151074880Y-48961129D01*
X150972601Y-49000752D01*
X150972595Y-49000754D01*
X150783439Y-49117874D01*
X150783437Y-49117876D01*
X150619020Y-49267761D01*
X150484943Y-49445308D01*
X150484938Y-49445316D01*
X150385775Y-49644461D01*
X150385769Y-49644476D01*
X150324885Y-49858462D01*
X150324884Y-49858464D01*
X150304356Y-50079999D01*
X150304356Y-50080000D01*
X145290499Y-50080000D01*
X145290499Y-49489529D01*
X145284091Y-49429918D01*
X145267239Y-49384736D01*
X145233797Y-49295072D01*
X145233793Y-49295065D01*
X145147547Y-49179856D01*
X145147544Y-49179853D01*
X145032335Y-49093607D01*
X145032328Y-49093603D01*
X144897482Y-49043309D01*
X144897483Y-49043309D01*
X144837883Y-49036902D01*
X144837881Y-49036901D01*
X144837873Y-49036901D01*
X144837864Y-49036901D01*
X143542129Y-49036901D01*
X143542123Y-49036902D01*
X143482516Y-49043309D01*
X143347671Y-49093603D01*
X143347664Y-49093607D01*
X143232455Y-49179853D01*
X143232452Y-49179856D01*
X143146206Y-49295065D01*
X143146202Y-49295072D01*
X143095908Y-49429918D01*
X143089501Y-49489517D01*
X143089501Y-49489524D01*
X143089500Y-49489536D01*
X143089500Y-50785271D01*
X143089501Y-50785277D01*
X143095908Y-50844884D01*
X143146202Y-50979729D01*
X143146206Y-50979736D01*
X143232452Y-51094945D01*
X143232455Y-51094948D01*
X143347664Y-51181194D01*
X143355454Y-51185448D01*
X143353755Y-51188558D01*
X143396124Y-51220228D01*
X143420588Y-51285675D01*
X143405784Y-51353959D01*
X143380452Y-51386243D01*
X143373236Y-51392820D01*
X143250327Y-51555579D01*
X143159422Y-51738140D01*
X143159417Y-51738153D01*
X143103602Y-51934318D01*
X143084785Y-52137400D01*
X143084785Y-52137401D01*
X143103602Y-52340483D01*
X143159417Y-52536648D01*
X143159422Y-52536661D01*
X143250327Y-52719222D01*
X143339175Y-52836876D01*
X143363867Y-52902238D01*
X143349302Y-52970572D01*
X143300104Y-53020185D01*
X143231894Y-53035323D01*
X143166328Y-53011181D01*
X143152540Y-52999284D01*
X142990132Y-52836876D01*
X142811598Y-52658342D01*
X142809064Y-52655651D01*
X142767929Y-52609218D01*
X142767928Y-52609217D01*
X142767924Y-52609213D01*
X142716896Y-52573992D01*
X142713887Y-52571778D01*
X142686506Y-52550327D01*
X142665060Y-52533525D01*
X142665055Y-52533521D01*
X142655813Y-52529362D01*
X142636266Y-52518337D01*
X142627931Y-52512584D01*
X142627932Y-52512584D01*
X142627930Y-52512583D01*
X142569941Y-52490590D01*
X142566490Y-52489160D01*
X142509930Y-52463705D01*
X142499946Y-52461875D01*
X142478343Y-52455852D01*
X142468874Y-52452261D01*
X142468870Y-52452260D01*
X142407313Y-52444785D01*
X142403612Y-52444222D01*
X142342608Y-52433043D01*
X142342603Y-52433043D01*
X142280697Y-52436788D01*
X142276952Y-52436901D01*
X137473484Y-52436901D01*
X137406445Y-52417216D01*
X137360690Y-52364412D01*
X137350013Y-52301460D01*
X137365215Y-52137401D01*
X137365215Y-52137400D01*
X137346397Y-51934318D01*
X137346396Y-51934318D01*
X137290582Y-51738151D01*
X137199673Y-51555580D01*
X137076764Y-51392822D01*
X137076762Y-51392820D01*
X137069551Y-51386246D01*
X137033269Y-51326535D01*
X137035030Y-51256688D01*
X137074273Y-51198880D01*
X137095277Y-51186787D01*
X137094546Y-51185448D01*
X137102326Y-51181198D01*
X137102331Y-51181197D01*
X137217546Y-51094947D01*
X137303796Y-50979732D01*
X137354091Y-50844884D01*
X137360500Y-50785274D01*
X137360499Y-49489529D01*
X137354091Y-49429918D01*
X137337239Y-49384736D01*
X137303797Y-49295072D01*
X137303793Y-49295065D01*
X137217547Y-49179856D01*
X137217544Y-49179853D01*
X137102335Y-49093607D01*
X137102328Y-49093603D01*
X136967482Y-49043309D01*
X136967483Y-49043309D01*
X136907883Y-49036902D01*
X136907881Y-49036901D01*
X136907873Y-49036901D01*
X136907864Y-49036901D01*
X135612129Y-49036901D01*
X135612123Y-49036902D01*
X135552516Y-49043309D01*
X135417671Y-49093603D01*
X135417664Y-49093607D01*
X135302455Y-49179853D01*
X135302452Y-49179856D01*
X135216206Y-49295065D01*
X135216202Y-49295072D01*
X135165908Y-49429918D01*
X135159501Y-49489517D01*
X135159501Y-49489524D01*
X135159500Y-49489536D01*
X135159500Y-50785271D01*
X135159501Y-50785277D01*
X135165908Y-50844884D01*
X135216202Y-50979729D01*
X135216206Y-50979736D01*
X135302452Y-51094945D01*
X135302455Y-51094948D01*
X135417664Y-51181194D01*
X135425454Y-51185448D01*
X135423755Y-51188558D01*
X135466124Y-51220228D01*
X135490588Y-51285675D01*
X135475784Y-51353959D01*
X135450452Y-51386243D01*
X135443232Y-51392824D01*
X135439937Y-51396440D01*
X135380226Y-51432721D01*
X135348301Y-51436901D01*
X126918920Y-51436901D01*
X126851881Y-51417216D01*
X126831239Y-51400582D01*
X126303777Y-50873120D01*
X126270292Y-50811797D01*
X126275276Y-50742105D01*
X126317148Y-50686172D01*
X126380649Y-50661911D01*
X126566692Y-50645635D01*
X126786496Y-50586739D01*
X126992734Y-50490568D01*
X127179139Y-50360047D01*
X127340047Y-50199139D01*
X127357271Y-50174539D01*
X127411848Y-50130913D01*
X127481346Y-50123718D01*
X127543701Y-50155239D01*
X127579116Y-50215468D01*
X127582138Y-50232406D01*
X127585908Y-50267483D01*
X127636202Y-50402328D01*
X127636206Y-50402335D01*
X127722452Y-50517544D01*
X127722455Y-50517547D01*
X127837664Y-50603793D01*
X127837671Y-50603797D01*
X127972517Y-50654091D01*
X127972516Y-50654091D01*
X127979444Y-50654835D01*
X128032127Y-50660500D01*
X129727872Y-50660499D01*
X129787483Y-50654091D01*
X129922331Y-50603796D01*
X130037546Y-50517546D01*
X130123796Y-50402331D01*
X130174091Y-50267483D01*
X130180500Y-50207873D01*
X130180499Y-48512128D01*
X130174091Y-48452517D01*
X130139567Y-48359954D01*
X130123797Y-48317671D01*
X130123793Y-48317664D01*
X130037547Y-48202455D01*
X130037544Y-48202452D01*
X129922335Y-48116206D01*
X129922328Y-48116202D01*
X129787482Y-48065908D01*
X129787483Y-48065908D01*
X129727883Y-48059501D01*
X129727881Y-48059500D01*
X129727873Y-48059500D01*
X129727864Y-48059500D01*
X128032129Y-48059500D01*
X128032123Y-48059501D01*
X127972516Y-48065908D01*
X127837671Y-48116202D01*
X127837664Y-48116206D01*
X127722455Y-48202452D01*
X127722452Y-48202455D01*
X127636206Y-48317664D01*
X127636202Y-48317671D01*
X127585908Y-48452516D01*
X127582137Y-48487596D01*
X127555398Y-48552146D01*
X127498006Y-48591994D01*
X127428180Y-48594487D01*
X127368092Y-48558834D01*
X127357273Y-48545462D01*
X127340045Y-48520858D01*
X127179141Y-48359954D01*
X126992734Y-48229432D01*
X126992732Y-48229431D01*
X126786497Y-48133261D01*
X126786488Y-48133258D01*
X126566697Y-48074366D01*
X126566693Y-48074365D01*
X126566692Y-48074365D01*
X126566691Y-48074364D01*
X126566686Y-48074364D01*
X126340002Y-48054532D01*
X126339998Y-48054532D01*
X126113313Y-48074364D01*
X126113302Y-48074366D01*
X125893511Y-48133258D01*
X125893502Y-48133261D01*
X125687267Y-48229431D01*
X125687265Y-48229432D01*
X125500858Y-48359954D01*
X125339954Y-48520858D01*
X125209432Y-48707265D01*
X125209431Y-48707267D01*
X125182382Y-48765275D01*
X125136209Y-48817714D01*
X125069016Y-48836866D01*
X125002135Y-48816650D01*
X124957618Y-48765275D01*
X124953276Y-48755964D01*
X124930568Y-48707266D01*
X124800047Y-48520861D01*
X124800045Y-48520858D01*
X124639141Y-48359954D01*
X124452734Y-48229432D01*
X124452732Y-48229431D01*
X124246497Y-48133261D01*
X124246488Y-48133258D01*
X124026697Y-48074366D01*
X124026693Y-48074365D01*
X124026692Y-48074365D01*
X124026691Y-48074364D01*
X124026686Y-48074364D01*
X123800002Y-48054532D01*
X123799998Y-48054532D01*
X123573313Y-48074364D01*
X123573302Y-48074366D01*
X123353511Y-48133258D01*
X123353502Y-48133261D01*
X123147267Y-48229431D01*
X123147265Y-48229432D01*
X122960858Y-48359954D01*
X122799954Y-48520858D01*
X122669432Y-48707265D01*
X122669431Y-48707267D01*
X122642382Y-48765275D01*
X122596209Y-48817714D01*
X122529016Y-48836866D01*
X122462135Y-48816650D01*
X122417618Y-48765275D01*
X122413276Y-48755964D01*
X122390568Y-48707266D01*
X122260047Y-48520861D01*
X122260045Y-48520858D01*
X122099141Y-48359954D01*
X121912734Y-48229432D01*
X121912732Y-48229431D01*
X121706497Y-48133261D01*
X121706488Y-48133258D01*
X121486697Y-48074366D01*
X121486693Y-48074365D01*
X121486692Y-48074365D01*
X121486691Y-48074364D01*
X121486686Y-48074364D01*
X121260002Y-48054532D01*
X121259998Y-48054532D01*
X121033313Y-48074364D01*
X121033302Y-48074366D01*
X120813511Y-48133258D01*
X120813502Y-48133261D01*
X120607267Y-48229431D01*
X120607265Y-48229432D01*
X120420858Y-48359954D01*
X120259954Y-48520858D01*
X120129432Y-48707265D01*
X120129431Y-48707267D01*
X120102382Y-48765275D01*
X120056209Y-48817714D01*
X119989016Y-48836866D01*
X119922135Y-48816650D01*
X119877618Y-48765275D01*
X119873276Y-48755964D01*
X119850568Y-48707266D01*
X119720047Y-48520861D01*
X119720045Y-48520858D01*
X119559141Y-48359954D01*
X119372734Y-48229432D01*
X119372732Y-48229431D01*
X119166497Y-48133261D01*
X119166488Y-48133258D01*
X118946697Y-48074366D01*
X118946693Y-48074365D01*
X118946692Y-48074365D01*
X118946691Y-48074364D01*
X118946686Y-48074364D01*
X118720002Y-48054532D01*
X118719998Y-48054532D01*
X118493313Y-48074364D01*
X118493302Y-48074366D01*
X118273511Y-48133258D01*
X118273502Y-48133261D01*
X118067267Y-48229431D01*
X118067265Y-48229432D01*
X117880858Y-48359954D01*
X117719954Y-48520858D01*
X117589432Y-48707265D01*
X117589431Y-48707267D01*
X117562382Y-48765275D01*
X117516209Y-48817714D01*
X117449016Y-48836866D01*
X117382135Y-48816650D01*
X117337618Y-48765275D01*
X117333276Y-48755964D01*
X117310568Y-48707266D01*
X117180047Y-48520861D01*
X117180045Y-48520858D01*
X117019141Y-48359954D01*
X116832734Y-48229432D01*
X116832732Y-48229431D01*
X116626497Y-48133261D01*
X116626488Y-48133258D01*
X116406697Y-48074366D01*
X116406693Y-48074365D01*
X116406692Y-48074365D01*
X116406691Y-48074364D01*
X116406686Y-48074364D01*
X116180002Y-48054532D01*
X116179998Y-48054532D01*
X115953313Y-48074364D01*
X115953302Y-48074366D01*
X115733511Y-48133258D01*
X115733502Y-48133261D01*
X115527267Y-48229431D01*
X115527265Y-48229432D01*
X115340858Y-48359954D01*
X115179954Y-48520858D01*
X115049432Y-48707265D01*
X115049431Y-48707267D01*
X115022382Y-48765275D01*
X114976209Y-48817714D01*
X114909016Y-48836866D01*
X114842135Y-48816650D01*
X114797618Y-48765275D01*
X114793276Y-48755964D01*
X114770568Y-48707266D01*
X114640047Y-48520861D01*
X114640045Y-48520858D01*
X114479141Y-48359954D01*
X114292734Y-48229432D01*
X114292732Y-48229431D01*
X114086497Y-48133261D01*
X114086488Y-48133258D01*
X113866697Y-48074366D01*
X113866693Y-48074365D01*
X113866692Y-48074365D01*
X113866691Y-48074364D01*
X113866686Y-48074364D01*
X113640002Y-48054532D01*
X113639998Y-48054532D01*
X113413313Y-48074364D01*
X113413302Y-48074366D01*
X113193511Y-48133258D01*
X113193502Y-48133261D01*
X112987267Y-48229431D01*
X112987265Y-48229432D01*
X112800858Y-48359954D01*
X112639954Y-48520858D01*
X112509432Y-48707265D01*
X112509431Y-48707267D01*
X112482382Y-48765275D01*
X112436209Y-48817714D01*
X112369016Y-48836866D01*
X112302135Y-48816650D01*
X112257618Y-48765275D01*
X112253276Y-48755964D01*
X112230568Y-48707266D01*
X112100047Y-48520861D01*
X112100045Y-48520858D01*
X111939141Y-48359954D01*
X111752734Y-48229432D01*
X111752732Y-48229431D01*
X111546497Y-48133261D01*
X111546488Y-48133258D01*
X111326697Y-48074366D01*
X111326693Y-48074365D01*
X111326692Y-48074365D01*
X111326691Y-48074364D01*
X111326686Y-48074364D01*
X111100002Y-48054532D01*
X111099998Y-48054532D01*
X110873313Y-48074364D01*
X110873302Y-48074366D01*
X110653511Y-48133258D01*
X110653502Y-48133261D01*
X110447267Y-48229431D01*
X110447265Y-48229432D01*
X110260858Y-48359954D01*
X110099954Y-48520858D01*
X109969432Y-48707265D01*
X109969431Y-48707267D01*
X109873261Y-48913502D01*
X109873258Y-48913511D01*
X109814366Y-49133302D01*
X109814364Y-49133313D01*
X109794532Y-49359998D01*
X109794532Y-49360001D01*
X107903219Y-49360001D01*
X107915468Y-49220000D01*
X107915285Y-49217913D01*
X107900579Y-49049821D01*
X107895635Y-48993308D01*
X107836739Y-48773504D01*
X107740568Y-48567266D01*
X107610047Y-48380861D01*
X107610045Y-48380858D01*
X107449141Y-48219954D01*
X107262734Y-48089432D01*
X107262732Y-48089431D01*
X107056497Y-47993261D01*
X107056488Y-47993258D01*
X106836697Y-47934366D01*
X106836693Y-47934365D01*
X106836692Y-47934365D01*
X106836691Y-47934364D01*
X106836686Y-47934364D01*
X106610002Y-47914532D01*
X106609998Y-47914532D01*
X106383313Y-47934364D01*
X106383302Y-47934366D01*
X106163511Y-47993258D01*
X106163502Y-47993261D01*
X105957267Y-48089431D01*
X105957265Y-48089432D01*
X105770858Y-48219954D01*
X105609954Y-48380858D01*
X105479432Y-48567265D01*
X105479431Y-48567267D01*
X105383261Y-48773502D01*
X105383258Y-48773511D01*
X105324366Y-48993302D01*
X105324364Y-48993313D01*
X105304532Y-49219998D01*
X105304532Y-49220001D01*
X102152082Y-49220001D01*
X102022734Y-49129432D01*
X102022732Y-49129431D01*
X101816497Y-49033261D01*
X101816488Y-49033258D01*
X101596697Y-48974366D01*
X101596693Y-48974365D01*
X101596692Y-48974365D01*
X101596691Y-48974364D01*
X101596686Y-48974364D01*
X101370002Y-48954532D01*
X101369998Y-48954532D01*
X101143313Y-48974364D01*
X101143302Y-48974366D01*
X100923511Y-49033258D01*
X100923502Y-49033261D01*
X100717261Y-49129434D01*
X100717260Y-49129434D01*
X100704029Y-49138699D01*
X100637822Y-49161025D01*
X100570055Y-49144012D01*
X100533640Y-49111430D01*
X100527186Y-49102808D01*
X100412093Y-49016649D01*
X100412086Y-49016645D01*
X100277379Y-48966403D01*
X100277372Y-48966401D01*
X100217844Y-48960000D01*
X99620000Y-48960000D01*
X99620000Y-49749424D01*
X99600315Y-49816463D01*
X99547511Y-49862218D01*
X99478353Y-49872162D01*
X99476602Y-49871897D01*
X99401486Y-49860000D01*
X99401481Y-49860000D01*
X99338519Y-49860000D01*
X99338514Y-49860000D01*
X99263398Y-49871897D01*
X99194104Y-49862942D01*
X99140652Y-49817946D01*
X99120013Y-49751194D01*
X99120000Y-49749424D01*
X99120000Y-48960000D01*
X98522155Y-48960000D01*
X98462627Y-48966401D01*
X98462620Y-48966403D01*
X98327913Y-49016645D01*
X98327906Y-49016649D01*
X98212812Y-49102809D01*
X98212809Y-49102812D01*
X98126649Y-49217906D01*
X98126645Y-49217913D01*
X98076403Y-49352620D01*
X98076401Y-49352627D01*
X98070000Y-49412155D01*
X98070000Y-50010000D01*
X98859424Y-50010000D01*
X98926463Y-50029685D01*
X98972218Y-50082489D01*
X98982162Y-50151647D01*
X98981897Y-50153397D01*
X98965014Y-50259996D01*
X98965014Y-50260003D01*
X98981897Y-50366603D01*
X98972942Y-50435896D01*
X98927946Y-50489348D01*
X98861194Y-50509987D01*
X98859424Y-50510000D01*
X98070000Y-50510000D01*
X98070000Y-51107844D01*
X94229156Y-51107844D01*
X94293350Y-51022093D01*
X94293354Y-51022086D01*
X94343596Y-50887379D01*
X94343598Y-50887372D01*
X94349999Y-50827844D01*
X94350000Y-50827827D01*
X94350000Y-50180000D01*
X93613347Y-50180000D01*
X93546308Y-50160315D01*
X93500553Y-50107511D01*
X93490609Y-50038353D01*
X93494369Y-50021067D01*
X93500000Y-50001888D01*
X93500000Y-49858111D01*
X93494369Y-49838933D01*
X93494370Y-49769064D01*
X93532145Y-49710286D01*
X93595701Y-49681262D01*
X93613347Y-49680000D01*
X94350000Y-49680000D01*
X94350000Y-49032172D01*
X94349999Y-49032155D01*
X94343598Y-48972627D01*
X94343596Y-48972620D01*
X94293354Y-48837913D01*
X94293350Y-48837906D01*
X94207190Y-48722812D01*
X94207187Y-48722809D01*
X94092093Y-48636649D01*
X94092086Y-48636645D01*
X93957379Y-48586403D01*
X93957372Y-48586401D01*
X93897844Y-48580000D01*
X93250000Y-48580000D01*
X93250000Y-49317698D01*
X93230315Y-49384737D01*
X93177511Y-49430492D01*
X93108355Y-49440436D01*
X93035766Y-49430000D01*
X93035763Y-49430000D01*
X92964237Y-49430000D01*
X92964233Y-49430000D01*
X92891645Y-49440436D01*
X92822487Y-49430492D01*
X92769684Y-49384736D01*
X92750000Y-49317698D01*
X92750000Y-48580000D01*
X92102155Y-48580000D01*
X92042627Y-48586401D01*
X92042620Y-48586403D01*
X91907913Y-48636645D01*
X91907906Y-48636649D01*
X91792812Y-48722809D01*
X91792809Y-48722812D01*
X91706649Y-48837906D01*
X91706645Y-48837913D01*
X91657578Y-48969470D01*
X91615707Y-49025404D01*
X91550242Y-49049821D01*
X91481969Y-49034969D01*
X91453715Y-49013819D01*
X91394428Y-48954532D01*
X91331401Y-48891505D01*
X91331397Y-48891502D01*
X91331396Y-48891501D01*
X91137834Y-48755967D01*
X91137830Y-48755965D01*
X91095281Y-48736124D01*
X90923663Y-48656097D01*
X90923659Y-48656096D01*
X90923655Y-48656094D01*
X90695413Y-48594938D01*
X90695403Y-48594936D01*
X90460001Y-48574341D01*
X90459999Y-48574341D01*
X90224596Y-48594936D01*
X90224586Y-48594938D01*
X89996344Y-48656094D01*
X89996335Y-48656098D01*
X89782171Y-48755964D01*
X89782169Y-48755965D01*
X89588597Y-48891505D01*
X89421505Y-49058597D01*
X89285965Y-49252169D01*
X89285964Y-49252171D01*
X89186098Y-49466335D01*
X89186094Y-49466344D01*
X89124938Y-49694586D01*
X89124936Y-49694596D01*
X89104341Y-49929999D01*
X89104341Y-49930000D01*
X85324969Y-49930000D01*
X85335161Y-49813511D01*
X85335468Y-49810001D01*
X85335468Y-49809998D01*
X85325371Y-49694592D01*
X85315635Y-49583308D01*
X85256739Y-49363504D01*
X85160568Y-49157266D01*
X85030047Y-48970861D01*
X85030045Y-48970858D01*
X84869141Y-48809954D01*
X84682734Y-48679432D01*
X84682732Y-48679431D01*
X84476497Y-48583261D01*
X84476488Y-48583258D01*
X84256697Y-48524366D01*
X84256687Y-48524364D01*
X84086784Y-48509500D01*
X83973216Y-48509500D01*
X83803312Y-48524364D01*
X83803302Y-48524366D01*
X83583511Y-48583258D01*
X83583502Y-48583261D01*
X83377267Y-48679431D01*
X83377265Y-48679432D01*
X83190858Y-48809954D01*
X83029954Y-48970858D01*
X82899432Y-49157265D01*
X82899431Y-49157267D01*
X82803261Y-49363502D01*
X82803258Y-49363511D01*
X82744366Y-49583302D01*
X82744364Y-49583313D01*
X82724532Y-49809998D01*
X82724532Y-49810001D01*
X80710500Y-49810001D01*
X80710500Y-46874500D01*
X80730185Y-46807461D01*
X80782989Y-46761706D01*
X80834500Y-46750500D01*
X167775500Y-46750500D01*
X167842539Y-46770185D01*
G37*
%TD.AperFunction*%
%TD*%
M02*
