%TF.GenerationSoftware,KiCad,Pcbnew,7.0.7*%
%TF.CreationDate,2024-03-20T00:35:15+00:00*%
%TF.ProjectId,TIMPS2Key,54494d50-5332-44b6-9579-2e6b69636164,rev?*%
%TF.SameCoordinates,Original*%
%TF.FileFunction,Legend,Top*%
%TF.FilePolarity,Positive*%
%FSLAX46Y46*%
G04 Gerber Fmt 4.6, Leading zero omitted, Abs format (unit mm)*
G04 Created by KiCad (PCBNEW 7.0.7) date 2024-03-20 00:35:15*
%MOMM*%
%LPD*%
G01*
G04 APERTURE LIST*
%ADD10C,0.100000*%
%ADD11C,0.150000*%
%ADD12C,0.120000*%
%ADD13C,0.127000*%
G04 APERTURE END LIST*
D10*
X151211979Y-72422895D02*
X151669122Y-72422895D01*
X151440550Y-73222895D02*
X151440550Y-72422895D01*
X151935789Y-73222895D02*
X151935789Y-72422895D01*
X152316741Y-73222895D02*
X152316741Y-72422895D01*
X152316741Y-72422895D02*
X152583407Y-72994323D01*
X152583407Y-72994323D02*
X152850074Y-72422895D01*
X152850074Y-72422895D02*
X152850074Y-73222895D01*
X153231027Y-72918133D02*
X153840551Y-72918133D01*
X154373884Y-72422895D02*
X154450074Y-72422895D01*
X154450074Y-72422895D02*
X154526265Y-72460990D01*
X154526265Y-72460990D02*
X154564360Y-72499085D01*
X154564360Y-72499085D02*
X154602455Y-72575276D01*
X154602455Y-72575276D02*
X154640550Y-72727657D01*
X154640550Y-72727657D02*
X154640550Y-72918133D01*
X154640550Y-72918133D02*
X154602455Y-73070514D01*
X154602455Y-73070514D02*
X154564360Y-73146704D01*
X154564360Y-73146704D02*
X154526265Y-73184800D01*
X154526265Y-73184800D02*
X154450074Y-73222895D01*
X154450074Y-73222895D02*
X154373884Y-73222895D01*
X154373884Y-73222895D02*
X154297693Y-73184800D01*
X154297693Y-73184800D02*
X154259598Y-73146704D01*
X154259598Y-73146704D02*
X154221503Y-73070514D01*
X154221503Y-73070514D02*
X154183407Y-72918133D01*
X154183407Y-72918133D02*
X154183407Y-72727657D01*
X154183407Y-72727657D02*
X154221503Y-72575276D01*
X154221503Y-72575276D02*
X154259598Y-72499085D01*
X154259598Y-72499085D02*
X154297693Y-72460990D01*
X154297693Y-72460990D02*
X154373884Y-72422895D01*
X155402455Y-73222895D02*
X154945312Y-73222895D01*
X155173884Y-73222895D02*
X155173884Y-72422895D01*
X155173884Y-72422895D02*
X155097693Y-72537180D01*
X155097693Y-72537180D02*
X155021503Y-72613371D01*
X155021503Y-72613371D02*
X154945312Y-72651466D01*
X156164360Y-73222895D02*
X155707217Y-73222895D01*
X155935789Y-73222895D02*
X155935789Y-72422895D01*
X155935789Y-72422895D02*
X155859598Y-72537180D01*
X155859598Y-72537180D02*
X155783408Y-72613371D01*
X155783408Y-72613371D02*
X155707217Y-72651466D01*
X157078646Y-73184800D02*
X157192932Y-73222895D01*
X157192932Y-73222895D02*
X157383408Y-73222895D01*
X157383408Y-73222895D02*
X157459599Y-73184800D01*
X157459599Y-73184800D02*
X157497694Y-73146704D01*
X157497694Y-73146704D02*
X157535789Y-73070514D01*
X157535789Y-73070514D02*
X157535789Y-72994323D01*
X157535789Y-72994323D02*
X157497694Y-72918133D01*
X157497694Y-72918133D02*
X157459599Y-72880038D01*
X157459599Y-72880038D02*
X157383408Y-72841942D01*
X157383408Y-72841942D02*
X157231027Y-72803847D01*
X157231027Y-72803847D02*
X157154837Y-72765752D01*
X157154837Y-72765752D02*
X157116742Y-72727657D01*
X157116742Y-72727657D02*
X157078646Y-72651466D01*
X157078646Y-72651466D02*
X157078646Y-72575276D01*
X157078646Y-72575276D02*
X157116742Y-72499085D01*
X157116742Y-72499085D02*
X157154837Y-72460990D01*
X157154837Y-72460990D02*
X157231027Y-72422895D01*
X157231027Y-72422895D02*
X157421504Y-72422895D01*
X157421504Y-72422895D02*
X157535789Y-72460990D01*
X158183409Y-73184800D02*
X158107218Y-73222895D01*
X158107218Y-73222895D02*
X157954837Y-73222895D01*
X157954837Y-73222895D02*
X157878647Y-73184800D01*
X157878647Y-73184800D02*
X157840551Y-73108609D01*
X157840551Y-73108609D02*
X157840551Y-72803847D01*
X157840551Y-72803847D02*
X157878647Y-72727657D01*
X157878647Y-72727657D02*
X157954837Y-72689561D01*
X157954837Y-72689561D02*
X158107218Y-72689561D01*
X158107218Y-72689561D02*
X158183409Y-72727657D01*
X158183409Y-72727657D02*
X158221504Y-72803847D01*
X158221504Y-72803847D02*
X158221504Y-72880038D01*
X158221504Y-72880038D02*
X157840551Y-72956228D01*
X158564361Y-73222895D02*
X158564361Y-72689561D01*
X158564361Y-72841942D02*
X158602456Y-72765752D01*
X158602456Y-72765752D02*
X158640551Y-72727657D01*
X158640551Y-72727657D02*
X158716742Y-72689561D01*
X158716742Y-72689561D02*
X158792932Y-72689561D01*
X159059599Y-73222895D02*
X159059599Y-72689561D01*
X159059599Y-72422895D02*
X159021503Y-72460990D01*
X159021503Y-72460990D02*
X159059599Y-72499085D01*
X159059599Y-72499085D02*
X159097694Y-72460990D01*
X159097694Y-72460990D02*
X159059599Y-72422895D01*
X159059599Y-72422895D02*
X159059599Y-72499085D01*
X159783408Y-73222895D02*
X159783408Y-72803847D01*
X159783408Y-72803847D02*
X159745313Y-72727657D01*
X159745313Y-72727657D02*
X159669122Y-72689561D01*
X159669122Y-72689561D02*
X159516741Y-72689561D01*
X159516741Y-72689561D02*
X159440551Y-72727657D01*
X159783408Y-73184800D02*
X159707217Y-73222895D01*
X159707217Y-73222895D02*
X159516741Y-73222895D01*
X159516741Y-73222895D02*
X159440551Y-73184800D01*
X159440551Y-73184800D02*
X159402455Y-73108609D01*
X159402455Y-73108609D02*
X159402455Y-73032419D01*
X159402455Y-73032419D02*
X159440551Y-72956228D01*
X159440551Y-72956228D02*
X159516741Y-72918133D01*
X159516741Y-72918133D02*
X159707217Y-72918133D01*
X159707217Y-72918133D02*
X159783408Y-72880038D01*
X160278646Y-73222895D02*
X160202456Y-73184800D01*
X160202456Y-73184800D02*
X160164361Y-73108609D01*
X160164361Y-73108609D02*
X160164361Y-72422895D01*
X151326265Y-74510895D02*
X151326265Y-73710895D01*
X151326265Y-73710895D02*
X151631027Y-73710895D01*
X151631027Y-73710895D02*
X151707217Y-73748990D01*
X151707217Y-73748990D02*
X151745312Y-73787085D01*
X151745312Y-73787085D02*
X151783408Y-73863276D01*
X151783408Y-73863276D02*
X151783408Y-73977561D01*
X151783408Y-73977561D02*
X151745312Y-74053752D01*
X151745312Y-74053752D02*
X151707217Y-74091847D01*
X151707217Y-74091847D02*
X151631027Y-74129942D01*
X151631027Y-74129942D02*
X151326265Y-74129942D01*
X152088169Y-74472800D02*
X152202455Y-74510895D01*
X152202455Y-74510895D02*
X152392931Y-74510895D01*
X152392931Y-74510895D02*
X152469122Y-74472800D01*
X152469122Y-74472800D02*
X152507217Y-74434704D01*
X152507217Y-74434704D02*
X152545312Y-74358514D01*
X152545312Y-74358514D02*
X152545312Y-74282323D01*
X152545312Y-74282323D02*
X152507217Y-74206133D01*
X152507217Y-74206133D02*
X152469122Y-74168038D01*
X152469122Y-74168038D02*
X152392931Y-74129942D01*
X152392931Y-74129942D02*
X152240550Y-74091847D01*
X152240550Y-74091847D02*
X152164360Y-74053752D01*
X152164360Y-74053752D02*
X152126265Y-74015657D01*
X152126265Y-74015657D02*
X152088169Y-73939466D01*
X152088169Y-73939466D02*
X152088169Y-73863276D01*
X152088169Y-73863276D02*
X152126265Y-73787085D01*
X152126265Y-73787085D02*
X152164360Y-73748990D01*
X152164360Y-73748990D02*
X152240550Y-73710895D01*
X152240550Y-73710895D02*
X152431027Y-73710895D01*
X152431027Y-73710895D02*
X152545312Y-73748990D01*
X153459598Y-73672800D02*
X152773884Y-74701371D01*
X153688169Y-73787085D02*
X153726265Y-73748990D01*
X153726265Y-73748990D02*
X153802455Y-73710895D01*
X153802455Y-73710895D02*
X153992931Y-73710895D01*
X153992931Y-73710895D02*
X154069122Y-73748990D01*
X154069122Y-73748990D02*
X154107217Y-73787085D01*
X154107217Y-73787085D02*
X154145312Y-73863276D01*
X154145312Y-73863276D02*
X154145312Y-73939466D01*
X154145312Y-73939466D02*
X154107217Y-74053752D01*
X154107217Y-74053752D02*
X153650074Y-74510895D01*
X153650074Y-74510895D02*
X154145312Y-74510895D01*
X155097694Y-74510895D02*
X155097694Y-73710895D01*
X155097694Y-73710895D02*
X155402456Y-73710895D01*
X155402456Y-73710895D02*
X155478646Y-73748990D01*
X155478646Y-73748990D02*
X155516741Y-73787085D01*
X155516741Y-73787085D02*
X155554837Y-73863276D01*
X155554837Y-73863276D02*
X155554837Y-73977561D01*
X155554837Y-73977561D02*
X155516741Y-74053752D01*
X155516741Y-74053752D02*
X155478646Y-74091847D01*
X155478646Y-74091847D02*
X155402456Y-74129942D01*
X155402456Y-74129942D02*
X155097694Y-74129942D01*
X155897694Y-74510895D02*
X155897694Y-73977561D01*
X155897694Y-74129942D02*
X155935789Y-74053752D01*
X155935789Y-74053752D02*
X155973884Y-74015657D01*
X155973884Y-74015657D02*
X156050075Y-73977561D01*
X156050075Y-73977561D02*
X156126265Y-73977561D01*
X156507217Y-74510895D02*
X156431027Y-74472800D01*
X156431027Y-74472800D02*
X156392932Y-74434704D01*
X156392932Y-74434704D02*
X156354836Y-74358514D01*
X156354836Y-74358514D02*
X156354836Y-74129942D01*
X156354836Y-74129942D02*
X156392932Y-74053752D01*
X156392932Y-74053752D02*
X156431027Y-74015657D01*
X156431027Y-74015657D02*
X156507217Y-73977561D01*
X156507217Y-73977561D02*
X156621503Y-73977561D01*
X156621503Y-73977561D02*
X156697694Y-74015657D01*
X156697694Y-74015657D02*
X156735789Y-74053752D01*
X156735789Y-74053752D02*
X156773884Y-74129942D01*
X156773884Y-74129942D02*
X156773884Y-74358514D01*
X156773884Y-74358514D02*
X156735789Y-74434704D01*
X156735789Y-74434704D02*
X156697694Y-74472800D01*
X156697694Y-74472800D02*
X156621503Y-74510895D01*
X156621503Y-74510895D02*
X156507217Y-74510895D01*
X157002456Y-73977561D02*
X157307218Y-73977561D01*
X157116742Y-73710895D02*
X157116742Y-74396609D01*
X157116742Y-74396609D02*
X157154837Y-74472800D01*
X157154837Y-74472800D02*
X157231027Y-74510895D01*
X157231027Y-74510895D02*
X157307218Y-74510895D01*
X157688170Y-74510895D02*
X157611980Y-74472800D01*
X157611980Y-74472800D02*
X157573885Y-74434704D01*
X157573885Y-74434704D02*
X157535789Y-74358514D01*
X157535789Y-74358514D02*
X157535789Y-74129942D01*
X157535789Y-74129942D02*
X157573885Y-74053752D01*
X157573885Y-74053752D02*
X157611980Y-74015657D01*
X157611980Y-74015657D02*
X157688170Y-73977561D01*
X157688170Y-73977561D02*
X157802456Y-73977561D01*
X157802456Y-73977561D02*
X157878647Y-74015657D01*
X157878647Y-74015657D02*
X157916742Y-74053752D01*
X157916742Y-74053752D02*
X157954837Y-74129942D01*
X157954837Y-74129942D02*
X157954837Y-74358514D01*
X157954837Y-74358514D02*
X157916742Y-74434704D01*
X157916742Y-74434704D02*
X157878647Y-74472800D01*
X157878647Y-74472800D02*
X157802456Y-74510895D01*
X157802456Y-74510895D02*
X157688170Y-74510895D01*
X158183409Y-73977561D02*
X158488171Y-73977561D01*
X158297695Y-73710895D02*
X158297695Y-74396609D01*
X158297695Y-74396609D02*
X158335790Y-74472800D01*
X158335790Y-74472800D02*
X158411980Y-74510895D01*
X158411980Y-74510895D02*
X158488171Y-74510895D01*
X158678647Y-73977561D02*
X158869123Y-74510895D01*
X159059600Y-73977561D02*
X158869123Y-74510895D01*
X158869123Y-74510895D02*
X158792933Y-74701371D01*
X158792933Y-74701371D02*
X158754838Y-74739466D01*
X158754838Y-74739466D02*
X158678647Y-74777561D01*
X159364362Y-73977561D02*
X159364362Y-74777561D01*
X159364362Y-74015657D02*
X159440552Y-73977561D01*
X159440552Y-73977561D02*
X159592933Y-73977561D01*
X159592933Y-73977561D02*
X159669124Y-74015657D01*
X159669124Y-74015657D02*
X159707219Y-74053752D01*
X159707219Y-74053752D02*
X159745314Y-74129942D01*
X159745314Y-74129942D02*
X159745314Y-74358514D01*
X159745314Y-74358514D02*
X159707219Y-74434704D01*
X159707219Y-74434704D02*
X159669124Y-74472800D01*
X159669124Y-74472800D02*
X159592933Y-74510895D01*
X159592933Y-74510895D02*
X159440552Y-74510895D01*
X159440552Y-74510895D02*
X159364362Y-74472800D01*
X160392934Y-74472800D02*
X160316743Y-74510895D01*
X160316743Y-74510895D02*
X160164362Y-74510895D01*
X160164362Y-74510895D02*
X160088172Y-74472800D01*
X160088172Y-74472800D02*
X160050076Y-74396609D01*
X160050076Y-74396609D02*
X160050076Y-74091847D01*
X160050076Y-74091847D02*
X160088172Y-74015657D01*
X160088172Y-74015657D02*
X160164362Y-73977561D01*
X160164362Y-73977561D02*
X160316743Y-73977561D01*
X160316743Y-73977561D02*
X160392934Y-74015657D01*
X160392934Y-74015657D02*
X160431029Y-74091847D01*
X160431029Y-74091847D02*
X160431029Y-74168038D01*
X160431029Y-74168038D02*
X160050076Y-74244228D01*
X161307219Y-73977561D02*
X161497695Y-74510895D01*
X161497695Y-74510895D02*
X161688172Y-73977561D01*
X162145315Y-73710895D02*
X162221505Y-73710895D01*
X162221505Y-73710895D02*
X162297696Y-73748990D01*
X162297696Y-73748990D02*
X162335791Y-73787085D01*
X162335791Y-73787085D02*
X162373886Y-73863276D01*
X162373886Y-73863276D02*
X162411981Y-74015657D01*
X162411981Y-74015657D02*
X162411981Y-74206133D01*
X162411981Y-74206133D02*
X162373886Y-74358514D01*
X162373886Y-74358514D02*
X162335791Y-74434704D01*
X162335791Y-74434704D02*
X162297696Y-74472800D01*
X162297696Y-74472800D02*
X162221505Y-74510895D01*
X162221505Y-74510895D02*
X162145315Y-74510895D01*
X162145315Y-74510895D02*
X162069124Y-74472800D01*
X162069124Y-74472800D02*
X162031029Y-74434704D01*
X162031029Y-74434704D02*
X161992934Y-74358514D01*
X161992934Y-74358514D02*
X161954838Y-74206133D01*
X161954838Y-74206133D02*
X161954838Y-74015657D01*
X161954838Y-74015657D02*
X161992934Y-73863276D01*
X161992934Y-73863276D02*
X162031029Y-73787085D01*
X162031029Y-73787085D02*
X162069124Y-73748990D01*
X162069124Y-73748990D02*
X162145315Y-73710895D01*
X151821503Y-75417942D02*
X151783408Y-75379847D01*
X151783408Y-75379847D02*
X151707217Y-75341752D01*
X151707217Y-75341752D02*
X151631027Y-75341752D01*
X151631027Y-75341752D02*
X151554836Y-75379847D01*
X151554836Y-75379847D02*
X151516741Y-75417942D01*
X151516741Y-75417942D02*
X151478646Y-75494133D01*
X151478646Y-75494133D02*
X151478646Y-75570323D01*
X151478646Y-75570323D02*
X151516741Y-75646514D01*
X151516741Y-75646514D02*
X151554836Y-75684609D01*
X151554836Y-75684609D02*
X151631027Y-75722704D01*
X151631027Y-75722704D02*
X151707217Y-75722704D01*
X151707217Y-75722704D02*
X151783408Y-75684609D01*
X151783408Y-75684609D02*
X151821503Y-75646514D01*
X151821503Y-75341752D02*
X151821503Y-75646514D01*
X151821503Y-75646514D02*
X151859598Y-75684609D01*
X151859598Y-75684609D02*
X151897693Y-75684609D01*
X151897693Y-75684609D02*
X151973884Y-75646514D01*
X151973884Y-75646514D02*
X152011979Y-75570323D01*
X152011979Y-75570323D02*
X152011979Y-75379847D01*
X152011979Y-75379847D02*
X151935789Y-75265561D01*
X151935789Y-75265561D02*
X151821503Y-75189371D01*
X151821503Y-75189371D02*
X151669122Y-75151276D01*
X151669122Y-75151276D02*
X151516741Y-75189371D01*
X151516741Y-75189371D02*
X151402455Y-75265561D01*
X151402455Y-75265561D02*
X151326265Y-75379847D01*
X151326265Y-75379847D02*
X151288169Y-75532228D01*
X151288169Y-75532228D02*
X151326265Y-75684609D01*
X151326265Y-75684609D02*
X151402455Y-75798895D01*
X151402455Y-75798895D02*
X151516741Y-75875085D01*
X151516741Y-75875085D02*
X151669122Y-75913180D01*
X151669122Y-75913180D02*
X151821503Y-75875085D01*
X151821503Y-75875085D02*
X151935789Y-75798895D01*
X152697693Y-75265561D02*
X152697693Y-75913180D01*
X152697693Y-75913180D02*
X152659598Y-75989371D01*
X152659598Y-75989371D02*
X152621502Y-76027466D01*
X152621502Y-76027466D02*
X152545312Y-76065561D01*
X152545312Y-76065561D02*
X152431026Y-76065561D01*
X152431026Y-76065561D02*
X152354836Y-76027466D01*
X152697693Y-75760800D02*
X152621502Y-75798895D01*
X152621502Y-75798895D02*
X152469121Y-75798895D01*
X152469121Y-75798895D02*
X152392931Y-75760800D01*
X152392931Y-75760800D02*
X152354836Y-75722704D01*
X152354836Y-75722704D02*
X152316740Y-75646514D01*
X152316740Y-75646514D02*
X152316740Y-75417942D01*
X152316740Y-75417942D02*
X152354836Y-75341752D01*
X152354836Y-75341752D02*
X152392931Y-75303657D01*
X152392931Y-75303657D02*
X152469121Y-75265561D01*
X152469121Y-75265561D02*
X152621502Y-75265561D01*
X152621502Y-75265561D02*
X152697693Y-75303657D01*
X153078646Y-75798895D02*
X153078646Y-75265561D01*
X153078646Y-75417942D02*
X153116741Y-75341752D01*
X153116741Y-75341752D02*
X153154836Y-75303657D01*
X153154836Y-75303657D02*
X153231027Y-75265561D01*
X153231027Y-75265561D02*
X153307217Y-75265561D01*
X153916741Y-75798895D02*
X153916741Y-75379847D01*
X153916741Y-75379847D02*
X153878646Y-75303657D01*
X153878646Y-75303657D02*
X153802455Y-75265561D01*
X153802455Y-75265561D02*
X153650074Y-75265561D01*
X153650074Y-75265561D02*
X153573884Y-75303657D01*
X153916741Y-75760800D02*
X153840550Y-75798895D01*
X153840550Y-75798895D02*
X153650074Y-75798895D01*
X153650074Y-75798895D02*
X153573884Y-75760800D01*
X153573884Y-75760800D02*
X153535788Y-75684609D01*
X153535788Y-75684609D02*
X153535788Y-75608419D01*
X153535788Y-75608419D02*
X153573884Y-75532228D01*
X153573884Y-75532228D02*
X153650074Y-75494133D01*
X153650074Y-75494133D02*
X153840550Y-75494133D01*
X153840550Y-75494133D02*
X153916741Y-75456038D01*
X154297694Y-75265561D02*
X154297694Y-75798895D01*
X154297694Y-75341752D02*
X154335789Y-75303657D01*
X154335789Y-75303657D02*
X154411979Y-75265561D01*
X154411979Y-75265561D02*
X154526265Y-75265561D01*
X154526265Y-75265561D02*
X154602456Y-75303657D01*
X154602456Y-75303657D02*
X154640551Y-75379847D01*
X154640551Y-75379847D02*
X154640551Y-75798895D01*
X155364361Y-75798895D02*
X155364361Y-74998895D01*
X155364361Y-75760800D02*
X155288170Y-75798895D01*
X155288170Y-75798895D02*
X155135789Y-75798895D01*
X155135789Y-75798895D02*
X155059599Y-75760800D01*
X155059599Y-75760800D02*
X155021504Y-75722704D01*
X155021504Y-75722704D02*
X154983408Y-75646514D01*
X154983408Y-75646514D02*
X154983408Y-75417942D01*
X154983408Y-75417942D02*
X155021504Y-75341752D01*
X155021504Y-75341752D02*
X155059599Y-75303657D01*
X155059599Y-75303657D02*
X155135789Y-75265561D01*
X155135789Y-75265561D02*
X155288170Y-75265561D01*
X155288170Y-75265561D02*
X155364361Y-75303657D01*
X155859599Y-75798895D02*
X155783409Y-75760800D01*
X155783409Y-75760800D02*
X155745314Y-75722704D01*
X155745314Y-75722704D02*
X155707218Y-75646514D01*
X155707218Y-75646514D02*
X155707218Y-75417942D01*
X155707218Y-75417942D02*
X155745314Y-75341752D01*
X155745314Y-75341752D02*
X155783409Y-75303657D01*
X155783409Y-75303657D02*
X155859599Y-75265561D01*
X155859599Y-75265561D02*
X155973885Y-75265561D01*
X155973885Y-75265561D02*
X156050076Y-75303657D01*
X156050076Y-75303657D02*
X156088171Y-75341752D01*
X156088171Y-75341752D02*
X156126266Y-75417942D01*
X156126266Y-75417942D02*
X156126266Y-75646514D01*
X156126266Y-75646514D02*
X156088171Y-75722704D01*
X156088171Y-75722704D02*
X156050076Y-75760800D01*
X156050076Y-75760800D02*
X155973885Y-75798895D01*
X155973885Y-75798895D02*
X155859599Y-75798895D01*
X156583409Y-75798895D02*
X156507219Y-75760800D01*
X156507219Y-75760800D02*
X156469124Y-75684609D01*
X156469124Y-75684609D02*
X156469124Y-74998895D01*
X157231029Y-75798895D02*
X157231029Y-74998895D01*
X157231029Y-75760800D02*
X157154838Y-75798895D01*
X157154838Y-75798895D02*
X157002457Y-75798895D01*
X157002457Y-75798895D02*
X156926267Y-75760800D01*
X156926267Y-75760800D02*
X156888172Y-75722704D01*
X156888172Y-75722704D02*
X156850076Y-75646514D01*
X156850076Y-75646514D02*
X156850076Y-75417942D01*
X156850076Y-75417942D02*
X156888172Y-75341752D01*
X156888172Y-75341752D02*
X156926267Y-75303657D01*
X156926267Y-75303657D02*
X157002457Y-75265561D01*
X157002457Y-75265561D02*
X157154838Y-75265561D01*
X157154838Y-75265561D02*
X157231029Y-75303657D01*
X157611982Y-75798895D02*
X157611982Y-75265561D01*
X157611982Y-74998895D02*
X157573886Y-75036990D01*
X157573886Y-75036990D02*
X157611982Y-75075085D01*
X157611982Y-75075085D02*
X157650077Y-75036990D01*
X157650077Y-75036990D02*
X157611982Y-74998895D01*
X157611982Y-74998895D02*
X157611982Y-75075085D01*
X158335791Y-75798895D02*
X158335791Y-75379847D01*
X158335791Y-75379847D02*
X158297696Y-75303657D01*
X158297696Y-75303657D02*
X158221505Y-75265561D01*
X158221505Y-75265561D02*
X158069124Y-75265561D01*
X158069124Y-75265561D02*
X157992934Y-75303657D01*
X158335791Y-75760800D02*
X158259600Y-75798895D01*
X158259600Y-75798895D02*
X158069124Y-75798895D01*
X158069124Y-75798895D02*
X157992934Y-75760800D01*
X157992934Y-75760800D02*
X157954838Y-75684609D01*
X157954838Y-75684609D02*
X157954838Y-75608419D01*
X157954838Y-75608419D02*
X157992934Y-75532228D01*
X157992934Y-75532228D02*
X158069124Y-75494133D01*
X158069124Y-75494133D02*
X158259600Y-75494133D01*
X158259600Y-75494133D02*
X158335791Y-75456038D01*
X158716744Y-75265561D02*
X158716744Y-75798895D01*
X158716744Y-75341752D02*
X158754839Y-75303657D01*
X158754839Y-75303657D02*
X158831029Y-75265561D01*
X158831029Y-75265561D02*
X158945315Y-75265561D01*
X158945315Y-75265561D02*
X159021506Y-75303657D01*
X159021506Y-75303657D02*
X159059601Y-75379847D01*
X159059601Y-75379847D02*
X159059601Y-75798895D01*
X151478646Y-76286895D02*
X151554836Y-76286895D01*
X151554836Y-76286895D02*
X151631027Y-76324990D01*
X151631027Y-76324990D02*
X151669122Y-76363085D01*
X151669122Y-76363085D02*
X151707217Y-76439276D01*
X151707217Y-76439276D02*
X151745312Y-76591657D01*
X151745312Y-76591657D02*
X151745312Y-76782133D01*
X151745312Y-76782133D02*
X151707217Y-76934514D01*
X151707217Y-76934514D02*
X151669122Y-77010704D01*
X151669122Y-77010704D02*
X151631027Y-77048800D01*
X151631027Y-77048800D02*
X151554836Y-77086895D01*
X151554836Y-77086895D02*
X151478646Y-77086895D01*
X151478646Y-77086895D02*
X151402455Y-77048800D01*
X151402455Y-77048800D02*
X151364360Y-77010704D01*
X151364360Y-77010704D02*
X151326265Y-76934514D01*
X151326265Y-76934514D02*
X151288169Y-76782133D01*
X151288169Y-76782133D02*
X151288169Y-76591657D01*
X151288169Y-76591657D02*
X151326265Y-76439276D01*
X151326265Y-76439276D02*
X151364360Y-76363085D01*
X151364360Y-76363085D02*
X151402455Y-76324990D01*
X151402455Y-76324990D02*
X151478646Y-76286895D01*
X152011979Y-76286895D02*
X152507217Y-76286895D01*
X152507217Y-76286895D02*
X152240551Y-76591657D01*
X152240551Y-76591657D02*
X152354836Y-76591657D01*
X152354836Y-76591657D02*
X152431027Y-76629752D01*
X152431027Y-76629752D02*
X152469122Y-76667847D01*
X152469122Y-76667847D02*
X152507217Y-76744038D01*
X152507217Y-76744038D02*
X152507217Y-76934514D01*
X152507217Y-76934514D02*
X152469122Y-77010704D01*
X152469122Y-77010704D02*
X152431027Y-77048800D01*
X152431027Y-77048800D02*
X152354836Y-77086895D01*
X152354836Y-77086895D02*
X152126265Y-77086895D01*
X152126265Y-77086895D02*
X152050074Y-77048800D01*
X152050074Y-77048800D02*
X152011979Y-77010704D01*
X153421503Y-76248800D02*
X152735789Y-77277371D01*
X153650074Y-76363085D02*
X153688170Y-76324990D01*
X153688170Y-76324990D02*
X153764360Y-76286895D01*
X153764360Y-76286895D02*
X153954836Y-76286895D01*
X153954836Y-76286895D02*
X154031027Y-76324990D01*
X154031027Y-76324990D02*
X154069122Y-76363085D01*
X154069122Y-76363085D02*
X154107217Y-76439276D01*
X154107217Y-76439276D02*
X154107217Y-76515466D01*
X154107217Y-76515466D02*
X154069122Y-76629752D01*
X154069122Y-76629752D02*
X153611979Y-77086895D01*
X153611979Y-77086895D02*
X154107217Y-77086895D01*
X154602456Y-76286895D02*
X154678646Y-76286895D01*
X154678646Y-76286895D02*
X154754837Y-76324990D01*
X154754837Y-76324990D02*
X154792932Y-76363085D01*
X154792932Y-76363085D02*
X154831027Y-76439276D01*
X154831027Y-76439276D02*
X154869122Y-76591657D01*
X154869122Y-76591657D02*
X154869122Y-76782133D01*
X154869122Y-76782133D02*
X154831027Y-76934514D01*
X154831027Y-76934514D02*
X154792932Y-77010704D01*
X154792932Y-77010704D02*
X154754837Y-77048800D01*
X154754837Y-77048800D02*
X154678646Y-77086895D01*
X154678646Y-77086895D02*
X154602456Y-77086895D01*
X154602456Y-77086895D02*
X154526265Y-77048800D01*
X154526265Y-77048800D02*
X154488170Y-77010704D01*
X154488170Y-77010704D02*
X154450075Y-76934514D01*
X154450075Y-76934514D02*
X154411979Y-76782133D01*
X154411979Y-76782133D02*
X154411979Y-76591657D01*
X154411979Y-76591657D02*
X154450075Y-76439276D01*
X154450075Y-76439276D02*
X154488170Y-76363085D01*
X154488170Y-76363085D02*
X154526265Y-76324990D01*
X154526265Y-76324990D02*
X154602456Y-76286895D01*
X155173884Y-76363085D02*
X155211980Y-76324990D01*
X155211980Y-76324990D02*
X155288170Y-76286895D01*
X155288170Y-76286895D02*
X155478646Y-76286895D01*
X155478646Y-76286895D02*
X155554837Y-76324990D01*
X155554837Y-76324990D02*
X155592932Y-76363085D01*
X155592932Y-76363085D02*
X155631027Y-76439276D01*
X155631027Y-76439276D02*
X155631027Y-76515466D01*
X155631027Y-76515466D02*
X155592932Y-76629752D01*
X155592932Y-76629752D02*
X155135789Y-77086895D01*
X155135789Y-77086895D02*
X155631027Y-77086895D01*
X156316742Y-76553561D02*
X156316742Y-77086895D01*
X156126266Y-76248800D02*
X155935789Y-76820228D01*
X155935789Y-76820228D02*
X156431028Y-76820228D01*
D11*
X130664819Y-53931904D02*
X131474342Y-53931904D01*
X131474342Y-53931904D02*
X131569580Y-53884285D01*
X131569580Y-53884285D02*
X131617200Y-53836666D01*
X131617200Y-53836666D02*
X131664819Y-53741428D01*
X131664819Y-53741428D02*
X131664819Y-53550952D01*
X131664819Y-53550952D02*
X131617200Y-53455714D01*
X131617200Y-53455714D02*
X131569580Y-53408095D01*
X131569580Y-53408095D02*
X131474342Y-53360476D01*
X131474342Y-53360476D02*
X130664819Y-53360476D01*
X130760057Y-52931904D02*
X130712438Y-52884285D01*
X130712438Y-52884285D02*
X130664819Y-52789047D01*
X130664819Y-52789047D02*
X130664819Y-52550952D01*
X130664819Y-52550952D02*
X130712438Y-52455714D01*
X130712438Y-52455714D02*
X130760057Y-52408095D01*
X130760057Y-52408095D02*
X130855295Y-52360476D01*
X130855295Y-52360476D02*
X130950533Y-52360476D01*
X130950533Y-52360476D02*
X131093390Y-52408095D01*
X131093390Y-52408095D02*
X131664819Y-52979523D01*
X131664819Y-52979523D02*
X131664819Y-52360476D01*
X110183333Y-55554819D02*
X110183333Y-54554819D01*
X110183333Y-54554819D02*
X110516666Y-55269104D01*
X110516666Y-55269104D02*
X110849999Y-54554819D01*
X110849999Y-54554819D02*
X110849999Y-55554819D01*
X111278571Y-55269104D02*
X111754761Y-55269104D01*
X111183333Y-55554819D02*
X111516666Y-54554819D01*
X111516666Y-54554819D02*
X111849999Y-55554819D01*
X112088095Y-54554819D02*
X112754761Y-55554819D01*
X112754761Y-54554819D02*
X112088095Y-55554819D01*
X113088095Y-54650057D02*
X113135714Y-54602438D01*
X113135714Y-54602438D02*
X113230952Y-54554819D01*
X113230952Y-54554819D02*
X113469047Y-54554819D01*
X113469047Y-54554819D02*
X113564285Y-54602438D01*
X113564285Y-54602438D02*
X113611904Y-54650057D01*
X113611904Y-54650057D02*
X113659523Y-54745295D01*
X113659523Y-54745295D02*
X113659523Y-54840533D01*
X113659523Y-54840533D02*
X113611904Y-54983390D01*
X113611904Y-54983390D02*
X113040476Y-55554819D01*
X113040476Y-55554819D02*
X113659523Y-55554819D01*
X113992857Y-54554819D02*
X114611904Y-54554819D01*
X114611904Y-54554819D02*
X114278571Y-54935771D01*
X114278571Y-54935771D02*
X114421428Y-54935771D01*
X114421428Y-54935771D02*
X114516666Y-54983390D01*
X114516666Y-54983390D02*
X114564285Y-55031009D01*
X114564285Y-55031009D02*
X114611904Y-55126247D01*
X114611904Y-55126247D02*
X114611904Y-55364342D01*
X114611904Y-55364342D02*
X114564285Y-55459580D01*
X114564285Y-55459580D02*
X114516666Y-55507200D01*
X114516666Y-55507200D02*
X114421428Y-55554819D01*
X114421428Y-55554819D02*
X114135714Y-55554819D01*
X114135714Y-55554819D02*
X114040476Y-55507200D01*
X114040476Y-55507200D02*
X113992857Y-55459580D01*
X114992857Y-54650057D02*
X115040476Y-54602438D01*
X115040476Y-54602438D02*
X115135714Y-54554819D01*
X115135714Y-54554819D02*
X115373809Y-54554819D01*
X115373809Y-54554819D02*
X115469047Y-54602438D01*
X115469047Y-54602438D02*
X115516666Y-54650057D01*
X115516666Y-54650057D02*
X115564285Y-54745295D01*
X115564285Y-54745295D02*
X115564285Y-54840533D01*
X115564285Y-54840533D02*
X115516666Y-54983390D01*
X115516666Y-54983390D02*
X114945238Y-55554819D01*
X114945238Y-55554819D02*
X115564285Y-55554819D01*
X150044819Y-54056666D02*
X149568628Y-54389999D01*
X150044819Y-54628094D02*
X149044819Y-54628094D01*
X149044819Y-54628094D02*
X149044819Y-54247142D01*
X149044819Y-54247142D02*
X149092438Y-54151904D01*
X149092438Y-54151904D02*
X149140057Y-54104285D01*
X149140057Y-54104285D02*
X149235295Y-54056666D01*
X149235295Y-54056666D02*
X149378152Y-54056666D01*
X149378152Y-54056666D02*
X149473390Y-54104285D01*
X149473390Y-54104285D02*
X149521009Y-54151904D01*
X149521009Y-54151904D02*
X149568628Y-54247142D01*
X149568628Y-54247142D02*
X149568628Y-54628094D01*
X150044819Y-53104285D02*
X150044819Y-53675713D01*
X150044819Y-53389999D02*
X149044819Y-53389999D01*
X149044819Y-53389999D02*
X149187676Y-53485237D01*
X149187676Y-53485237D02*
X149282914Y-53580475D01*
X149282914Y-53580475D02*
X149330533Y-53675713D01*
X94784819Y-50263333D02*
X95499104Y-50263333D01*
X95499104Y-50263333D02*
X95641961Y-50310952D01*
X95641961Y-50310952D02*
X95737200Y-50406190D01*
X95737200Y-50406190D02*
X95784819Y-50549047D01*
X95784819Y-50549047D02*
X95784819Y-50644285D01*
X94784819Y-49882380D02*
X94784819Y-49263333D01*
X94784819Y-49263333D02*
X95165771Y-49596666D01*
X95165771Y-49596666D02*
X95165771Y-49453809D01*
X95165771Y-49453809D02*
X95213390Y-49358571D01*
X95213390Y-49358571D02*
X95261009Y-49310952D01*
X95261009Y-49310952D02*
X95356247Y-49263333D01*
X95356247Y-49263333D02*
X95594342Y-49263333D01*
X95594342Y-49263333D02*
X95689580Y-49310952D01*
X95689580Y-49310952D02*
X95737200Y-49358571D01*
X95737200Y-49358571D02*
X95784819Y-49453809D01*
X95784819Y-49453809D02*
X95784819Y-49739523D01*
X95784819Y-49739523D02*
X95737200Y-49834761D01*
X95737200Y-49834761D02*
X95689580Y-49882380D01*
X87584819Y-51263333D02*
X87584819Y-51739523D01*
X87584819Y-51739523D02*
X88061009Y-51787142D01*
X88061009Y-51787142D02*
X88013390Y-51739523D01*
X88013390Y-51739523D02*
X87965771Y-51644285D01*
X87965771Y-51644285D02*
X87965771Y-51406190D01*
X87965771Y-51406190D02*
X88013390Y-51310952D01*
X88013390Y-51310952D02*
X88061009Y-51263333D01*
X88061009Y-51263333D02*
X88156247Y-51215714D01*
X88156247Y-51215714D02*
X88394342Y-51215714D01*
X88394342Y-51215714D02*
X88489580Y-51263333D01*
X88489580Y-51263333D02*
X88537200Y-51310952D01*
X88537200Y-51310952D02*
X88584819Y-51406190D01*
X88584819Y-51406190D02*
X88584819Y-51644285D01*
X88584819Y-51644285D02*
X88537200Y-51739523D01*
X88537200Y-51739523D02*
X88489580Y-51787142D01*
X87584819Y-50929999D02*
X88584819Y-50596666D01*
X88584819Y-50596666D02*
X87584819Y-50263333D01*
X88584819Y-49168094D02*
X87584819Y-49168094D01*
X88584819Y-48691904D02*
X87584819Y-48691904D01*
X87584819Y-48691904D02*
X88584819Y-48120476D01*
X88584819Y-48120476D02*
X87584819Y-48120476D01*
X152364819Y-63258333D02*
X153079104Y-63258333D01*
X153079104Y-63258333D02*
X153221961Y-63305952D01*
X153221961Y-63305952D02*
X153317200Y-63401190D01*
X153317200Y-63401190D02*
X153364819Y-63544047D01*
X153364819Y-63544047D02*
X153364819Y-63639285D01*
X152460057Y-62829761D02*
X152412438Y-62782142D01*
X152412438Y-62782142D02*
X152364819Y-62686904D01*
X152364819Y-62686904D02*
X152364819Y-62448809D01*
X152364819Y-62448809D02*
X152412438Y-62353571D01*
X152412438Y-62353571D02*
X152460057Y-62305952D01*
X152460057Y-62305952D02*
X152555295Y-62258333D01*
X152555295Y-62258333D02*
X152650533Y-62258333D01*
X152650533Y-62258333D02*
X152793390Y-62305952D01*
X152793390Y-62305952D02*
X153364819Y-62877380D01*
X153364819Y-62877380D02*
X153364819Y-62258333D01*
X164121905Y-54384819D02*
X164121905Y-53384819D01*
X164121905Y-53384819D02*
X164502857Y-53384819D01*
X164502857Y-53384819D02*
X164598095Y-53432438D01*
X164598095Y-53432438D02*
X164645714Y-53480057D01*
X164645714Y-53480057D02*
X164693333Y-53575295D01*
X164693333Y-53575295D02*
X164693333Y-53718152D01*
X164693333Y-53718152D02*
X164645714Y-53813390D01*
X164645714Y-53813390D02*
X164598095Y-53861009D01*
X164598095Y-53861009D02*
X164502857Y-53908628D01*
X164502857Y-53908628D02*
X164121905Y-53908628D01*
X165074286Y-54337200D02*
X165217143Y-54384819D01*
X165217143Y-54384819D02*
X165455238Y-54384819D01*
X165455238Y-54384819D02*
X165550476Y-54337200D01*
X165550476Y-54337200D02*
X165598095Y-54289580D01*
X165598095Y-54289580D02*
X165645714Y-54194342D01*
X165645714Y-54194342D02*
X165645714Y-54099104D01*
X165645714Y-54099104D02*
X165598095Y-54003866D01*
X165598095Y-54003866D02*
X165550476Y-53956247D01*
X165550476Y-53956247D02*
X165455238Y-53908628D01*
X165455238Y-53908628D02*
X165264762Y-53861009D01*
X165264762Y-53861009D02*
X165169524Y-53813390D01*
X165169524Y-53813390D02*
X165121905Y-53765771D01*
X165121905Y-53765771D02*
X165074286Y-53670533D01*
X165074286Y-53670533D02*
X165074286Y-53575295D01*
X165074286Y-53575295D02*
X165121905Y-53480057D01*
X165121905Y-53480057D02*
X165169524Y-53432438D01*
X165169524Y-53432438D02*
X165264762Y-53384819D01*
X165264762Y-53384819D02*
X165502857Y-53384819D01*
X165502857Y-53384819D02*
X165645714Y-53432438D01*
X166788571Y-53337200D02*
X165931429Y-54622914D01*
X167074286Y-53480057D02*
X167121905Y-53432438D01*
X167121905Y-53432438D02*
X167217143Y-53384819D01*
X167217143Y-53384819D02*
X167455238Y-53384819D01*
X167455238Y-53384819D02*
X167550476Y-53432438D01*
X167550476Y-53432438D02*
X167598095Y-53480057D01*
X167598095Y-53480057D02*
X167645714Y-53575295D01*
X167645714Y-53575295D02*
X167645714Y-53670533D01*
X167645714Y-53670533D02*
X167598095Y-53813390D01*
X167598095Y-53813390D02*
X167026667Y-54384819D01*
X167026667Y-54384819D02*
X167645714Y-54384819D01*
X97373019Y-71525933D02*
X98087304Y-71525933D01*
X98087304Y-71525933D02*
X98230161Y-71573552D01*
X98230161Y-71573552D02*
X98325400Y-71668790D01*
X98325400Y-71668790D02*
X98373019Y-71811647D01*
X98373019Y-71811647D02*
X98373019Y-71906885D01*
X98373019Y-70525933D02*
X98373019Y-71097361D01*
X98373019Y-70811647D02*
X97373019Y-70811647D01*
X97373019Y-70811647D02*
X97515876Y-70906885D01*
X97515876Y-70906885D02*
X97611114Y-71002123D01*
X97611114Y-71002123D02*
X97658733Y-71097361D01*
X98274819Y-66561428D02*
X97274819Y-66561428D01*
X97274819Y-66561428D02*
X97274819Y-66323333D01*
X97274819Y-66323333D02*
X97322438Y-66180476D01*
X97322438Y-66180476D02*
X97417676Y-66085238D01*
X97417676Y-66085238D02*
X97512914Y-66037619D01*
X97512914Y-66037619D02*
X97703390Y-65990000D01*
X97703390Y-65990000D02*
X97846247Y-65990000D01*
X97846247Y-65990000D02*
X98036723Y-66037619D01*
X98036723Y-66037619D02*
X98131961Y-66085238D01*
X98131961Y-66085238D02*
X98227200Y-66180476D01*
X98227200Y-66180476D02*
X98274819Y-66323333D01*
X98274819Y-66323333D02*
X98274819Y-66561428D01*
X98274819Y-65561428D02*
X97274819Y-65561428D01*
X98274819Y-65085238D02*
X97274819Y-65085238D01*
X97274819Y-65085238D02*
X98274819Y-64513810D01*
X98274819Y-64513810D02*
X97274819Y-64513810D01*
X98227200Y-63323333D02*
X98274819Y-63180476D01*
X98274819Y-63180476D02*
X98274819Y-62942381D01*
X98274819Y-62942381D02*
X98227200Y-62847143D01*
X98227200Y-62847143D02*
X98179580Y-62799524D01*
X98179580Y-62799524D02*
X98084342Y-62751905D01*
X98084342Y-62751905D02*
X97989104Y-62751905D01*
X97989104Y-62751905D02*
X97893866Y-62799524D01*
X97893866Y-62799524D02*
X97846247Y-62847143D01*
X97846247Y-62847143D02*
X97798628Y-62942381D01*
X97798628Y-62942381D02*
X97751009Y-63132857D01*
X97751009Y-63132857D02*
X97703390Y-63228095D01*
X97703390Y-63228095D02*
X97655771Y-63275714D01*
X97655771Y-63275714D02*
X97560533Y-63323333D01*
X97560533Y-63323333D02*
X97465295Y-63323333D01*
X97465295Y-63323333D02*
X97370057Y-63275714D01*
X97370057Y-63275714D02*
X97322438Y-63228095D01*
X97322438Y-63228095D02*
X97274819Y-63132857D01*
X97274819Y-63132857D02*
X97274819Y-62894762D01*
X97274819Y-62894762D02*
X97322438Y-62751905D01*
X98227200Y-61942381D02*
X98274819Y-62037619D01*
X98274819Y-62037619D02*
X98274819Y-62228095D01*
X98274819Y-62228095D02*
X98227200Y-62323333D01*
X98227200Y-62323333D02*
X98131961Y-62370952D01*
X98131961Y-62370952D02*
X97751009Y-62370952D01*
X97751009Y-62370952D02*
X97655771Y-62323333D01*
X97655771Y-62323333D02*
X97608152Y-62228095D01*
X97608152Y-62228095D02*
X97608152Y-62037619D01*
X97608152Y-62037619D02*
X97655771Y-61942381D01*
X97655771Y-61942381D02*
X97751009Y-61894762D01*
X97751009Y-61894762D02*
X97846247Y-61894762D01*
X97846247Y-61894762D02*
X97941485Y-62370952D01*
X98274819Y-61466190D02*
X97608152Y-61466190D01*
X97798628Y-61466190D02*
X97703390Y-61418571D01*
X97703390Y-61418571D02*
X97655771Y-61370952D01*
X97655771Y-61370952D02*
X97608152Y-61275714D01*
X97608152Y-61275714D02*
X97608152Y-61180476D01*
X98274819Y-60847142D02*
X97608152Y-60847142D01*
X97274819Y-60847142D02*
X97322438Y-60894761D01*
X97322438Y-60894761D02*
X97370057Y-60847142D01*
X97370057Y-60847142D02*
X97322438Y-60799523D01*
X97322438Y-60799523D02*
X97274819Y-60847142D01*
X97274819Y-60847142D02*
X97370057Y-60847142D01*
X98274819Y-59942381D02*
X97751009Y-59942381D01*
X97751009Y-59942381D02*
X97655771Y-59990000D01*
X97655771Y-59990000D02*
X97608152Y-60085238D01*
X97608152Y-60085238D02*
X97608152Y-60275714D01*
X97608152Y-60275714D02*
X97655771Y-60370952D01*
X98227200Y-59942381D02*
X98274819Y-60037619D01*
X98274819Y-60037619D02*
X98274819Y-60275714D01*
X98274819Y-60275714D02*
X98227200Y-60370952D01*
X98227200Y-60370952D02*
X98131961Y-60418571D01*
X98131961Y-60418571D02*
X98036723Y-60418571D01*
X98036723Y-60418571D02*
X97941485Y-60370952D01*
X97941485Y-60370952D02*
X97893866Y-60275714D01*
X97893866Y-60275714D02*
X97893866Y-60037619D01*
X97893866Y-60037619D02*
X97846247Y-59942381D01*
X98274819Y-59323333D02*
X98227200Y-59418571D01*
X98227200Y-59418571D02*
X98131961Y-59466190D01*
X98131961Y-59466190D02*
X97274819Y-59466190D01*
X155254819Y-51348094D02*
X154254819Y-51348094D01*
X154254819Y-51348094D02*
X154254819Y-51109999D01*
X154254819Y-51109999D02*
X154302438Y-50967142D01*
X154302438Y-50967142D02*
X154397676Y-50871904D01*
X154397676Y-50871904D02*
X154492914Y-50824285D01*
X154492914Y-50824285D02*
X154683390Y-50776666D01*
X154683390Y-50776666D02*
X154826247Y-50776666D01*
X154826247Y-50776666D02*
X155016723Y-50824285D01*
X155016723Y-50824285D02*
X155111961Y-50871904D01*
X155111961Y-50871904D02*
X155207200Y-50967142D01*
X155207200Y-50967142D02*
X155254819Y-51109999D01*
X155254819Y-51109999D02*
X155254819Y-51348094D01*
X155254819Y-49824285D02*
X155254819Y-50395713D01*
X155254819Y-50109999D02*
X154254819Y-50109999D01*
X154254819Y-50109999D02*
X154397676Y-50205237D01*
X154397676Y-50205237D02*
X154492914Y-50300475D01*
X154492914Y-50300475D02*
X154540533Y-50395713D01*
X161174819Y-52919523D02*
X160174819Y-52919523D01*
X160174819Y-52919523D02*
X160174819Y-52538571D01*
X160174819Y-52538571D02*
X160222438Y-52443333D01*
X160222438Y-52443333D02*
X160270057Y-52395714D01*
X160270057Y-52395714D02*
X160365295Y-52348095D01*
X160365295Y-52348095D02*
X160508152Y-52348095D01*
X160508152Y-52348095D02*
X160603390Y-52395714D01*
X160603390Y-52395714D02*
X160651009Y-52443333D01*
X160651009Y-52443333D02*
X160698628Y-52538571D01*
X160698628Y-52538571D02*
X160698628Y-52919523D01*
X160174819Y-51729047D02*
X160174819Y-51538571D01*
X160174819Y-51538571D02*
X160222438Y-51443333D01*
X160222438Y-51443333D02*
X160317676Y-51348095D01*
X160317676Y-51348095D02*
X160508152Y-51300476D01*
X160508152Y-51300476D02*
X160841485Y-51300476D01*
X160841485Y-51300476D02*
X161031961Y-51348095D01*
X161031961Y-51348095D02*
X161127200Y-51443333D01*
X161127200Y-51443333D02*
X161174819Y-51538571D01*
X161174819Y-51538571D02*
X161174819Y-51729047D01*
X161174819Y-51729047D02*
X161127200Y-51824285D01*
X161127200Y-51824285D02*
X161031961Y-51919523D01*
X161031961Y-51919523D02*
X160841485Y-51967142D01*
X160841485Y-51967142D02*
X160508152Y-51967142D01*
X160508152Y-51967142D02*
X160317676Y-51919523D01*
X160317676Y-51919523D02*
X160222438Y-51824285D01*
X160222438Y-51824285D02*
X160174819Y-51729047D01*
X160174819Y-50967142D02*
X161174819Y-50729047D01*
X161174819Y-50729047D02*
X160460533Y-50538571D01*
X160460533Y-50538571D02*
X161174819Y-50348095D01*
X161174819Y-50348095D02*
X160174819Y-50110000D01*
X160651009Y-49729047D02*
X160651009Y-49395714D01*
X161174819Y-49252857D02*
X161174819Y-49729047D01*
X161174819Y-49729047D02*
X160174819Y-49729047D01*
X160174819Y-49729047D02*
X160174819Y-49252857D01*
X161174819Y-48252857D02*
X160698628Y-48586190D01*
X161174819Y-48824285D02*
X160174819Y-48824285D01*
X160174819Y-48824285D02*
X160174819Y-48443333D01*
X160174819Y-48443333D02*
X160222438Y-48348095D01*
X160222438Y-48348095D02*
X160270057Y-48300476D01*
X160270057Y-48300476D02*
X160365295Y-48252857D01*
X160365295Y-48252857D02*
X160508152Y-48252857D01*
X160508152Y-48252857D02*
X160603390Y-48300476D01*
X160603390Y-48300476D02*
X160651009Y-48348095D01*
X160651009Y-48348095D02*
X160698628Y-48443333D01*
X160698628Y-48443333D02*
X160698628Y-48824285D01*
X147799580Y-56194067D02*
X147847200Y-56241686D01*
X147847200Y-56241686D02*
X147894819Y-56384543D01*
X147894819Y-56384543D02*
X147894819Y-56479781D01*
X147894819Y-56479781D02*
X147847200Y-56622638D01*
X147847200Y-56622638D02*
X147751961Y-56717876D01*
X147751961Y-56717876D02*
X147656723Y-56765495D01*
X147656723Y-56765495D02*
X147466247Y-56813114D01*
X147466247Y-56813114D02*
X147323390Y-56813114D01*
X147323390Y-56813114D02*
X147132914Y-56765495D01*
X147132914Y-56765495D02*
X147037676Y-56717876D01*
X147037676Y-56717876D02*
X146942438Y-56622638D01*
X146942438Y-56622638D02*
X146894819Y-56479781D01*
X146894819Y-56479781D02*
X146894819Y-56384543D01*
X146894819Y-56384543D02*
X146942438Y-56241686D01*
X146942438Y-56241686D02*
X146990057Y-56194067D01*
X147323390Y-55622638D02*
X147275771Y-55717876D01*
X147275771Y-55717876D02*
X147228152Y-55765495D01*
X147228152Y-55765495D02*
X147132914Y-55813114D01*
X147132914Y-55813114D02*
X147085295Y-55813114D01*
X147085295Y-55813114D02*
X146990057Y-55765495D01*
X146990057Y-55765495D02*
X146942438Y-55717876D01*
X146942438Y-55717876D02*
X146894819Y-55622638D01*
X146894819Y-55622638D02*
X146894819Y-55432162D01*
X146894819Y-55432162D02*
X146942438Y-55336924D01*
X146942438Y-55336924D02*
X146990057Y-55289305D01*
X146990057Y-55289305D02*
X147085295Y-55241686D01*
X147085295Y-55241686D02*
X147132914Y-55241686D01*
X147132914Y-55241686D02*
X147228152Y-55289305D01*
X147228152Y-55289305D02*
X147275771Y-55336924D01*
X147275771Y-55336924D02*
X147323390Y-55432162D01*
X147323390Y-55432162D02*
X147323390Y-55622638D01*
X147323390Y-55622638D02*
X147371009Y-55717876D01*
X147371009Y-55717876D02*
X147418628Y-55765495D01*
X147418628Y-55765495D02*
X147513866Y-55813114D01*
X147513866Y-55813114D02*
X147704342Y-55813114D01*
X147704342Y-55813114D02*
X147799580Y-55765495D01*
X147799580Y-55765495D02*
X147847200Y-55717876D01*
X147847200Y-55717876D02*
X147894819Y-55622638D01*
X147894819Y-55622638D02*
X147894819Y-55432162D01*
X147894819Y-55432162D02*
X147847200Y-55336924D01*
X147847200Y-55336924D02*
X147799580Y-55289305D01*
X147799580Y-55289305D02*
X147704342Y-55241686D01*
X147704342Y-55241686D02*
X147513866Y-55241686D01*
X147513866Y-55241686D02*
X147418628Y-55289305D01*
X147418628Y-55289305D02*
X147371009Y-55336924D01*
X147371009Y-55336924D02*
X147323390Y-55432162D01*
X141394819Y-56622639D02*
X141394819Y-57194067D01*
X141394819Y-56908353D02*
X140394819Y-56908353D01*
X140394819Y-56908353D02*
X140537676Y-57003591D01*
X140537676Y-57003591D02*
X140632914Y-57098829D01*
X140632914Y-57098829D02*
X140680533Y-57194067D01*
X140728152Y-55765496D02*
X141394819Y-55765496D01*
X140728152Y-56194067D02*
X141251961Y-56194067D01*
X141251961Y-56194067D02*
X141347200Y-56146448D01*
X141347200Y-56146448D02*
X141394819Y-56051210D01*
X141394819Y-56051210D02*
X141394819Y-55908353D01*
X141394819Y-55908353D02*
X141347200Y-55813115D01*
X141347200Y-55813115D02*
X141299580Y-55765496D01*
X140871009Y-54955972D02*
X140871009Y-55289305D01*
X141394819Y-55289305D02*
X140394819Y-55289305D01*
X140394819Y-55289305D02*
X140394819Y-54813115D01*
X139709580Y-51244067D02*
X139757200Y-51291686D01*
X139757200Y-51291686D02*
X139804819Y-51434543D01*
X139804819Y-51434543D02*
X139804819Y-51529781D01*
X139804819Y-51529781D02*
X139757200Y-51672638D01*
X139757200Y-51672638D02*
X139661961Y-51767876D01*
X139661961Y-51767876D02*
X139566723Y-51815495D01*
X139566723Y-51815495D02*
X139376247Y-51863114D01*
X139376247Y-51863114D02*
X139233390Y-51863114D01*
X139233390Y-51863114D02*
X139042914Y-51815495D01*
X139042914Y-51815495D02*
X138947676Y-51767876D01*
X138947676Y-51767876D02*
X138852438Y-51672638D01*
X138852438Y-51672638D02*
X138804819Y-51529781D01*
X138804819Y-51529781D02*
X138804819Y-51434543D01*
X138804819Y-51434543D02*
X138852438Y-51291686D01*
X138852438Y-51291686D02*
X138900057Y-51244067D01*
X138804819Y-50910733D02*
X138804819Y-50244067D01*
X138804819Y-50244067D02*
X139804819Y-50672638D01*
X133464819Y-51732639D02*
X133464819Y-52304067D01*
X133464819Y-52018353D02*
X132464819Y-52018353D01*
X132464819Y-52018353D02*
X132607676Y-52113591D01*
X132607676Y-52113591D02*
X132702914Y-52208829D01*
X132702914Y-52208829D02*
X132750533Y-52304067D01*
X132798152Y-50875496D02*
X133464819Y-50875496D01*
X132798152Y-51304067D02*
X133321961Y-51304067D01*
X133321961Y-51304067D02*
X133417200Y-51256448D01*
X133417200Y-51256448D02*
X133464819Y-51161210D01*
X133464819Y-51161210D02*
X133464819Y-51018353D01*
X133464819Y-51018353D02*
X133417200Y-50923115D01*
X133417200Y-50923115D02*
X133369580Y-50875496D01*
X132941009Y-50065972D02*
X132941009Y-50399305D01*
X133464819Y-50399305D02*
X132464819Y-50399305D01*
X132464819Y-50399305D02*
X132464819Y-49923115D01*
X147799580Y-51304067D02*
X147847200Y-51351686D01*
X147847200Y-51351686D02*
X147894819Y-51494543D01*
X147894819Y-51494543D02*
X147894819Y-51589781D01*
X147894819Y-51589781D02*
X147847200Y-51732638D01*
X147847200Y-51732638D02*
X147751961Y-51827876D01*
X147751961Y-51827876D02*
X147656723Y-51875495D01*
X147656723Y-51875495D02*
X147466247Y-51923114D01*
X147466247Y-51923114D02*
X147323390Y-51923114D01*
X147323390Y-51923114D02*
X147132914Y-51875495D01*
X147132914Y-51875495D02*
X147037676Y-51827876D01*
X147037676Y-51827876D02*
X146942438Y-51732638D01*
X146942438Y-51732638D02*
X146894819Y-51589781D01*
X146894819Y-51589781D02*
X146894819Y-51494543D01*
X146894819Y-51494543D02*
X146942438Y-51351686D01*
X146942438Y-51351686D02*
X146990057Y-51304067D01*
X146894819Y-50446924D02*
X146894819Y-50637400D01*
X146894819Y-50637400D02*
X146942438Y-50732638D01*
X146942438Y-50732638D02*
X146990057Y-50780257D01*
X146990057Y-50780257D02*
X147132914Y-50875495D01*
X147132914Y-50875495D02*
X147323390Y-50923114D01*
X147323390Y-50923114D02*
X147704342Y-50923114D01*
X147704342Y-50923114D02*
X147799580Y-50875495D01*
X147799580Y-50875495D02*
X147847200Y-50827876D01*
X147847200Y-50827876D02*
X147894819Y-50732638D01*
X147894819Y-50732638D02*
X147894819Y-50542162D01*
X147894819Y-50542162D02*
X147847200Y-50446924D01*
X147847200Y-50446924D02*
X147799580Y-50399305D01*
X147799580Y-50399305D02*
X147704342Y-50351686D01*
X147704342Y-50351686D02*
X147466247Y-50351686D01*
X147466247Y-50351686D02*
X147371009Y-50399305D01*
X147371009Y-50399305D02*
X147323390Y-50446924D01*
X147323390Y-50446924D02*
X147275771Y-50542162D01*
X147275771Y-50542162D02*
X147275771Y-50732638D01*
X147275771Y-50732638D02*
X147323390Y-50827876D01*
X147323390Y-50827876D02*
X147371009Y-50875495D01*
X147371009Y-50875495D02*
X147466247Y-50923114D01*
X141394819Y-51732639D02*
X141394819Y-52304067D01*
X141394819Y-52018353D02*
X140394819Y-52018353D01*
X140394819Y-52018353D02*
X140537676Y-52113591D01*
X140537676Y-52113591D02*
X140632914Y-52208829D01*
X140632914Y-52208829D02*
X140680533Y-52304067D01*
X140728152Y-50875496D02*
X141394819Y-50875496D01*
X140728152Y-51304067D02*
X141251961Y-51304067D01*
X141251961Y-51304067D02*
X141347200Y-51256448D01*
X141347200Y-51256448D02*
X141394819Y-51161210D01*
X141394819Y-51161210D02*
X141394819Y-51018353D01*
X141394819Y-51018353D02*
X141347200Y-50923115D01*
X141347200Y-50923115D02*
X141299580Y-50875496D01*
X140871009Y-50065972D02*
X140871009Y-50399305D01*
X141394819Y-50399305D02*
X140394819Y-50399305D01*
X140394819Y-50399305D02*
X140394819Y-49923115D01*
X139869580Y-56194067D02*
X139917200Y-56241686D01*
X139917200Y-56241686D02*
X139964819Y-56384543D01*
X139964819Y-56384543D02*
X139964819Y-56479781D01*
X139964819Y-56479781D02*
X139917200Y-56622638D01*
X139917200Y-56622638D02*
X139821961Y-56717876D01*
X139821961Y-56717876D02*
X139726723Y-56765495D01*
X139726723Y-56765495D02*
X139536247Y-56813114D01*
X139536247Y-56813114D02*
X139393390Y-56813114D01*
X139393390Y-56813114D02*
X139202914Y-56765495D01*
X139202914Y-56765495D02*
X139107676Y-56717876D01*
X139107676Y-56717876D02*
X139012438Y-56622638D01*
X139012438Y-56622638D02*
X138964819Y-56479781D01*
X138964819Y-56479781D02*
X138964819Y-56384543D01*
X138964819Y-56384543D02*
X139012438Y-56241686D01*
X139012438Y-56241686D02*
X139060057Y-56194067D01*
X138964819Y-55289305D02*
X138964819Y-55765495D01*
X138964819Y-55765495D02*
X139441009Y-55813114D01*
X139441009Y-55813114D02*
X139393390Y-55765495D01*
X139393390Y-55765495D02*
X139345771Y-55670257D01*
X139345771Y-55670257D02*
X139345771Y-55432162D01*
X139345771Y-55432162D02*
X139393390Y-55336924D01*
X139393390Y-55336924D02*
X139441009Y-55289305D01*
X139441009Y-55289305D02*
X139536247Y-55241686D01*
X139536247Y-55241686D02*
X139774342Y-55241686D01*
X139774342Y-55241686D02*
X139869580Y-55289305D01*
X139869580Y-55289305D02*
X139917200Y-55336924D01*
X139917200Y-55336924D02*
X139964819Y-55432162D01*
X139964819Y-55432162D02*
X139964819Y-55670257D01*
X139964819Y-55670257D02*
X139917200Y-55765495D01*
X139917200Y-55765495D02*
X139869580Y-55813114D01*
X133464819Y-56622639D02*
X133464819Y-57194067D01*
X133464819Y-56908353D02*
X132464819Y-56908353D01*
X132464819Y-56908353D02*
X132607676Y-57003591D01*
X132607676Y-57003591D02*
X132702914Y-57098829D01*
X132702914Y-57098829D02*
X132750533Y-57194067D01*
X132798152Y-55765496D02*
X133464819Y-55765496D01*
X132798152Y-56194067D02*
X133321961Y-56194067D01*
X133321961Y-56194067D02*
X133417200Y-56146448D01*
X133417200Y-56146448D02*
X133464819Y-56051210D01*
X133464819Y-56051210D02*
X133464819Y-55908353D01*
X133464819Y-55908353D02*
X133417200Y-55813115D01*
X133417200Y-55813115D02*
X133369580Y-55765496D01*
X132941009Y-54955972D02*
X132941009Y-55289305D01*
X133464819Y-55289305D02*
X132464819Y-55289305D01*
X132464819Y-55289305D02*
X132464819Y-54813115D01*
X103943333Y-54729580D02*
X103895714Y-54777200D01*
X103895714Y-54777200D02*
X103752857Y-54824819D01*
X103752857Y-54824819D02*
X103657619Y-54824819D01*
X103657619Y-54824819D02*
X103514762Y-54777200D01*
X103514762Y-54777200D02*
X103419524Y-54681961D01*
X103419524Y-54681961D02*
X103371905Y-54586723D01*
X103371905Y-54586723D02*
X103324286Y-54396247D01*
X103324286Y-54396247D02*
X103324286Y-54253390D01*
X103324286Y-54253390D02*
X103371905Y-54062914D01*
X103371905Y-54062914D02*
X103419524Y-53967676D01*
X103419524Y-53967676D02*
X103514762Y-53872438D01*
X103514762Y-53872438D02*
X103657619Y-53824819D01*
X103657619Y-53824819D02*
X103752857Y-53824819D01*
X103752857Y-53824819D02*
X103895714Y-53872438D01*
X103895714Y-53872438D02*
X103943333Y-53920057D01*
X104800476Y-54158152D02*
X104800476Y-54824819D01*
X104562381Y-53777200D02*
X104324286Y-54491485D01*
X104324286Y-54491485D02*
X104943333Y-54491485D01*
X101990952Y-58320057D02*
X102038571Y-58272438D01*
X102038571Y-58272438D02*
X102133809Y-58224819D01*
X102133809Y-58224819D02*
X102371904Y-58224819D01*
X102371904Y-58224819D02*
X102467142Y-58272438D01*
X102467142Y-58272438D02*
X102514761Y-58320057D01*
X102514761Y-58320057D02*
X102562380Y-58415295D01*
X102562380Y-58415295D02*
X102562380Y-58510533D01*
X102562380Y-58510533D02*
X102514761Y-58653390D01*
X102514761Y-58653390D02*
X101943333Y-59224819D01*
X101943333Y-59224819D02*
X102562380Y-59224819D01*
X102943333Y-58320057D02*
X102990952Y-58272438D01*
X102990952Y-58272438D02*
X103086190Y-58224819D01*
X103086190Y-58224819D02*
X103324285Y-58224819D01*
X103324285Y-58224819D02*
X103419523Y-58272438D01*
X103419523Y-58272438D02*
X103467142Y-58320057D01*
X103467142Y-58320057D02*
X103514761Y-58415295D01*
X103514761Y-58415295D02*
X103514761Y-58510533D01*
X103514761Y-58510533D02*
X103467142Y-58653390D01*
X103467142Y-58653390D02*
X102895714Y-59224819D01*
X102895714Y-59224819D02*
X103514761Y-59224819D01*
X104133809Y-58224819D02*
X104229047Y-58224819D01*
X104229047Y-58224819D02*
X104324285Y-58272438D01*
X104324285Y-58272438D02*
X104371904Y-58320057D01*
X104371904Y-58320057D02*
X104419523Y-58415295D01*
X104419523Y-58415295D02*
X104467142Y-58605771D01*
X104467142Y-58605771D02*
X104467142Y-58843866D01*
X104467142Y-58843866D02*
X104419523Y-59034342D01*
X104419523Y-59034342D02*
X104371904Y-59129580D01*
X104371904Y-59129580D02*
X104324285Y-59177200D01*
X104324285Y-59177200D02*
X104229047Y-59224819D01*
X104229047Y-59224819D02*
X104133809Y-59224819D01*
X104133809Y-59224819D02*
X104038571Y-59177200D01*
X104038571Y-59177200D02*
X103990952Y-59129580D01*
X103990952Y-59129580D02*
X103943333Y-59034342D01*
X103943333Y-59034342D02*
X103895714Y-58843866D01*
X103895714Y-58843866D02*
X103895714Y-58605771D01*
X103895714Y-58605771D02*
X103943333Y-58415295D01*
X103943333Y-58415295D02*
X103990952Y-58320057D01*
X103990952Y-58320057D02*
X104038571Y-58272438D01*
X104038571Y-58272438D02*
X104133809Y-58224819D01*
X104895714Y-58558152D02*
X104895714Y-59224819D01*
X104895714Y-58653390D02*
X104943333Y-58605771D01*
X104943333Y-58605771D02*
X105038571Y-58558152D01*
X105038571Y-58558152D02*
X105181428Y-58558152D01*
X105181428Y-58558152D02*
X105276666Y-58605771D01*
X105276666Y-58605771D02*
X105324285Y-58701009D01*
X105324285Y-58701009D02*
X105324285Y-59224819D01*
X106133809Y-58701009D02*
X105800476Y-58701009D01*
X105800476Y-59224819D02*
X105800476Y-58224819D01*
X105800476Y-58224819D02*
X106276666Y-58224819D01*
X101323333Y-70779580D02*
X101275714Y-70827200D01*
X101275714Y-70827200D02*
X101132857Y-70874819D01*
X101132857Y-70874819D02*
X101037619Y-70874819D01*
X101037619Y-70874819D02*
X100894762Y-70827200D01*
X100894762Y-70827200D02*
X100799524Y-70731961D01*
X100799524Y-70731961D02*
X100751905Y-70636723D01*
X100751905Y-70636723D02*
X100704286Y-70446247D01*
X100704286Y-70446247D02*
X100704286Y-70303390D01*
X100704286Y-70303390D02*
X100751905Y-70112914D01*
X100751905Y-70112914D02*
X100799524Y-70017676D01*
X100799524Y-70017676D02*
X100894762Y-69922438D01*
X100894762Y-69922438D02*
X101037619Y-69874819D01*
X101037619Y-69874819D02*
X101132857Y-69874819D01*
X101132857Y-69874819D02*
X101275714Y-69922438D01*
X101275714Y-69922438D02*
X101323333Y-69970057D01*
X101656667Y-69874819D02*
X102275714Y-69874819D01*
X102275714Y-69874819D02*
X101942381Y-70255771D01*
X101942381Y-70255771D02*
X102085238Y-70255771D01*
X102085238Y-70255771D02*
X102180476Y-70303390D01*
X102180476Y-70303390D02*
X102228095Y-70351009D01*
X102228095Y-70351009D02*
X102275714Y-70446247D01*
X102275714Y-70446247D02*
X102275714Y-70684342D01*
X102275714Y-70684342D02*
X102228095Y-70779580D01*
X102228095Y-70779580D02*
X102180476Y-70827200D01*
X102180476Y-70827200D02*
X102085238Y-70874819D01*
X102085238Y-70874819D02*
X101799524Y-70874819D01*
X101799524Y-70874819D02*
X101704286Y-70827200D01*
X101704286Y-70827200D02*
X101656667Y-70779580D01*
X100323333Y-77708152D02*
X100323333Y-78374819D01*
X100085238Y-77327200D02*
X99847143Y-78041485D01*
X99847143Y-78041485D02*
X100466190Y-78041485D01*
X100751905Y-77374819D02*
X101418571Y-77374819D01*
X101418571Y-77374819D02*
X100990000Y-78374819D01*
X102228095Y-77708152D02*
X102228095Y-78374819D01*
X101799524Y-77708152D02*
X101799524Y-78231961D01*
X101799524Y-78231961D02*
X101847143Y-78327200D01*
X101847143Y-78327200D02*
X101942381Y-78374819D01*
X101942381Y-78374819D02*
X102085238Y-78374819D01*
X102085238Y-78374819D02*
X102180476Y-78327200D01*
X102180476Y-78327200D02*
X102228095Y-78279580D01*
X103037619Y-77851009D02*
X102704286Y-77851009D01*
X102704286Y-78374819D02*
X102704286Y-77374819D01*
X102704286Y-77374819D02*
X103180476Y-77374819D01*
X109169580Y-51886666D02*
X109217200Y-51934285D01*
X109217200Y-51934285D02*
X109264819Y-52077142D01*
X109264819Y-52077142D02*
X109264819Y-52172380D01*
X109264819Y-52172380D02*
X109217200Y-52315237D01*
X109217200Y-52315237D02*
X109121961Y-52410475D01*
X109121961Y-52410475D02*
X109026723Y-52458094D01*
X109026723Y-52458094D02*
X108836247Y-52505713D01*
X108836247Y-52505713D02*
X108693390Y-52505713D01*
X108693390Y-52505713D02*
X108502914Y-52458094D01*
X108502914Y-52458094D02*
X108407676Y-52410475D01*
X108407676Y-52410475D02*
X108312438Y-52315237D01*
X108312438Y-52315237D02*
X108264819Y-52172380D01*
X108264819Y-52172380D02*
X108264819Y-52077142D01*
X108264819Y-52077142D02*
X108312438Y-51934285D01*
X108312438Y-51934285D02*
X108360057Y-51886666D01*
X108360057Y-51505713D02*
X108312438Y-51458094D01*
X108312438Y-51458094D02*
X108264819Y-51362856D01*
X108264819Y-51362856D02*
X108264819Y-51124761D01*
X108264819Y-51124761D02*
X108312438Y-51029523D01*
X108312438Y-51029523D02*
X108360057Y-50981904D01*
X108360057Y-50981904D02*
X108455295Y-50934285D01*
X108455295Y-50934285D02*
X108550533Y-50934285D01*
X108550533Y-50934285D02*
X108693390Y-50981904D01*
X108693390Y-50981904D02*
X109264819Y-51553332D01*
X109264819Y-51553332D02*
X109264819Y-50934285D01*
X104198152Y-52886666D02*
X104864819Y-52886666D01*
X103817200Y-53124761D02*
X104531485Y-53362856D01*
X104531485Y-53362856D02*
X104531485Y-52743809D01*
X103864819Y-52458094D02*
X103864819Y-51791428D01*
X103864819Y-51791428D02*
X104864819Y-52219999D01*
X104198152Y-51410475D02*
X104864819Y-51410475D01*
X104293390Y-51410475D02*
X104245771Y-51362856D01*
X104245771Y-51362856D02*
X104198152Y-51267618D01*
X104198152Y-51267618D02*
X104198152Y-51124761D01*
X104198152Y-51124761D02*
X104245771Y-51029523D01*
X104245771Y-51029523D02*
X104341009Y-50981904D01*
X104341009Y-50981904D02*
X104864819Y-50981904D01*
X104341009Y-50172380D02*
X104341009Y-50505713D01*
X104864819Y-50505713D02*
X103864819Y-50505713D01*
X103864819Y-50505713D02*
X103864819Y-50029523D01*
X96203333Y-48459580D02*
X96155714Y-48507200D01*
X96155714Y-48507200D02*
X96012857Y-48554819D01*
X96012857Y-48554819D02*
X95917619Y-48554819D01*
X95917619Y-48554819D02*
X95774762Y-48507200D01*
X95774762Y-48507200D02*
X95679524Y-48411961D01*
X95679524Y-48411961D02*
X95631905Y-48316723D01*
X95631905Y-48316723D02*
X95584286Y-48126247D01*
X95584286Y-48126247D02*
X95584286Y-47983390D01*
X95584286Y-47983390D02*
X95631905Y-47792914D01*
X95631905Y-47792914D02*
X95679524Y-47697676D01*
X95679524Y-47697676D02*
X95774762Y-47602438D01*
X95774762Y-47602438D02*
X95917619Y-47554819D01*
X95917619Y-47554819D02*
X96012857Y-47554819D01*
X96012857Y-47554819D02*
X96155714Y-47602438D01*
X96155714Y-47602438D02*
X96203333Y-47650057D01*
X97155714Y-48554819D02*
X96584286Y-48554819D01*
X96870000Y-48554819D02*
X96870000Y-47554819D01*
X96870000Y-47554819D02*
X96774762Y-47697676D01*
X96774762Y-47697676D02*
X96679524Y-47792914D01*
X96679524Y-47792914D02*
X96584286Y-47840533D01*
X98822380Y-54464819D02*
X98250952Y-54464819D01*
X98536666Y-54464819D02*
X98536666Y-53464819D01*
X98536666Y-53464819D02*
X98441428Y-53607676D01*
X98441428Y-53607676D02*
X98346190Y-53702914D01*
X98346190Y-53702914D02*
X98250952Y-53750533D01*
X99441428Y-53464819D02*
X99536666Y-53464819D01*
X99536666Y-53464819D02*
X99631904Y-53512438D01*
X99631904Y-53512438D02*
X99679523Y-53560057D01*
X99679523Y-53560057D02*
X99727142Y-53655295D01*
X99727142Y-53655295D02*
X99774761Y-53845771D01*
X99774761Y-53845771D02*
X99774761Y-54083866D01*
X99774761Y-54083866D02*
X99727142Y-54274342D01*
X99727142Y-54274342D02*
X99679523Y-54369580D01*
X99679523Y-54369580D02*
X99631904Y-54417200D01*
X99631904Y-54417200D02*
X99536666Y-54464819D01*
X99536666Y-54464819D02*
X99441428Y-54464819D01*
X99441428Y-54464819D02*
X99346190Y-54417200D01*
X99346190Y-54417200D02*
X99298571Y-54369580D01*
X99298571Y-54369580D02*
X99250952Y-54274342D01*
X99250952Y-54274342D02*
X99203333Y-54083866D01*
X99203333Y-54083866D02*
X99203333Y-53845771D01*
X99203333Y-53845771D02*
X99250952Y-53655295D01*
X99250952Y-53655295D02*
X99298571Y-53560057D01*
X99298571Y-53560057D02*
X99346190Y-53512438D01*
X99346190Y-53512438D02*
X99441428Y-53464819D01*
X100393809Y-53464819D02*
X100489047Y-53464819D01*
X100489047Y-53464819D02*
X100584285Y-53512438D01*
X100584285Y-53512438D02*
X100631904Y-53560057D01*
X100631904Y-53560057D02*
X100679523Y-53655295D01*
X100679523Y-53655295D02*
X100727142Y-53845771D01*
X100727142Y-53845771D02*
X100727142Y-54083866D01*
X100727142Y-54083866D02*
X100679523Y-54274342D01*
X100679523Y-54274342D02*
X100631904Y-54369580D01*
X100631904Y-54369580D02*
X100584285Y-54417200D01*
X100584285Y-54417200D02*
X100489047Y-54464819D01*
X100489047Y-54464819D02*
X100393809Y-54464819D01*
X100393809Y-54464819D02*
X100298571Y-54417200D01*
X100298571Y-54417200D02*
X100250952Y-54369580D01*
X100250952Y-54369580D02*
X100203333Y-54274342D01*
X100203333Y-54274342D02*
X100155714Y-54083866D01*
X100155714Y-54083866D02*
X100155714Y-53845771D01*
X100155714Y-53845771D02*
X100203333Y-53655295D01*
X100203333Y-53655295D02*
X100250952Y-53560057D01*
X100250952Y-53560057D02*
X100298571Y-53512438D01*
X100298571Y-53512438D02*
X100393809Y-53464819D01*
X101584285Y-53798152D02*
X101584285Y-54464819D01*
X101155714Y-53798152D02*
X101155714Y-54321961D01*
X101155714Y-54321961D02*
X101203333Y-54417200D01*
X101203333Y-54417200D02*
X101298571Y-54464819D01*
X101298571Y-54464819D02*
X101441428Y-54464819D01*
X101441428Y-54464819D02*
X101536666Y-54417200D01*
X101536666Y-54417200D02*
X101584285Y-54369580D01*
X102393809Y-53941009D02*
X102060476Y-53941009D01*
X102060476Y-54464819D02*
X102060476Y-53464819D01*
X102060476Y-53464819D02*
X102536666Y-53464819D01*
%TO.C,G1*%
G36*
X101805981Y-61596438D02*
G01*
X101829268Y-61601352D01*
X101836865Y-61604015D01*
X101866266Y-61620311D01*
X101891790Y-61643441D01*
X101913067Y-61672918D01*
X101929726Y-61708254D01*
X101939004Y-61738462D01*
X101940724Y-61748416D01*
X101942319Y-61763923D01*
X101943790Y-61785158D01*
X101945141Y-61812293D01*
X101946374Y-61845503D01*
X101947493Y-61884962D01*
X101948498Y-61930843D01*
X101949394Y-61983320D01*
X101950184Y-62042567D01*
X101950869Y-62108757D01*
X101951452Y-62182065D01*
X101951936Y-62262664D01*
X101952325Y-62350729D01*
X101952620Y-62446432D01*
X101952824Y-62549947D01*
X101952920Y-62633931D01*
X101952995Y-62695371D01*
X101953115Y-62755893D01*
X101953276Y-62814836D01*
X101953476Y-62871541D01*
X101953709Y-62925346D01*
X101953973Y-62975591D01*
X101954264Y-63021616D01*
X101954577Y-63062759D01*
X101954909Y-63098360D01*
X101955256Y-63127759D01*
X101955615Y-63150295D01*
X101955945Y-63164176D01*
X101958604Y-63249550D01*
X102115278Y-63197318D01*
X102149463Y-63185906D01*
X102181372Y-63175222D01*
X102210154Y-63165554D01*
X102234957Y-63157190D01*
X102254931Y-63150416D01*
X102269224Y-63145520D01*
X102276986Y-63142789D01*
X102278042Y-63142380D01*
X102285181Y-63139483D01*
X102287176Y-63138816D01*
X102292250Y-63136943D01*
X102297672Y-63135087D01*
X102298340Y-63134914D01*
X102305072Y-63133029D01*
X102305444Y-63132911D01*
X102311533Y-63132403D01*
X102314428Y-63129755D01*
X102314577Y-63128390D01*
X102317530Y-63125676D01*
X102320667Y-63126233D01*
X102325883Y-63126114D01*
X102326756Y-63124203D01*
X102329692Y-63121543D01*
X102332583Y-63122073D01*
X102338400Y-63122338D01*
X102339687Y-63121090D01*
X102343661Y-63119268D01*
X102354679Y-63115119D01*
X102372080Y-63108872D01*
X102395201Y-63100756D01*
X102423382Y-63091000D01*
X102455959Y-63079833D01*
X102492272Y-63067484D01*
X102531659Y-63054182D01*
X102573457Y-63040155D01*
X102578442Y-63038488D01*
X102649821Y-63014622D01*
X102719464Y-62991324D01*
X102786965Y-62968732D01*
X102851917Y-62946980D01*
X102913916Y-62926207D01*
X102972555Y-62906547D01*
X103027428Y-62888138D01*
X103078128Y-62871116D01*
X103124250Y-62855616D01*
X103165388Y-62841777D01*
X103201136Y-62829733D01*
X103231087Y-62819622D01*
X103254836Y-62811579D01*
X103271976Y-62805741D01*
X103282102Y-62802245D01*
X103284787Y-62801268D01*
X103291291Y-62798591D01*
X103292906Y-62797979D01*
X103298055Y-62796067D01*
X103301025Y-62794930D01*
X103308418Y-62792275D01*
X103319974Y-62788312D01*
X103325381Y-62786498D01*
X103338496Y-62782031D01*
X103355636Y-62776064D01*
X103373190Y-62769854D01*
X103373933Y-62769589D01*
X103418952Y-62755636D01*
X103464732Y-62745400D01*
X103508653Y-62739390D01*
X103536968Y-62737969D01*
X103557039Y-62738017D01*
X103571366Y-62738769D01*
X103582321Y-62740614D01*
X103592272Y-62743946D01*
X103603038Y-62748884D01*
X103617561Y-62756671D01*
X103630885Y-62764947D01*
X103637713Y-62769978D01*
X103651128Y-62785055D01*
X103664188Y-62806916D01*
X103676197Y-62834234D01*
X103684661Y-62859402D01*
X103687241Y-62868316D01*
X103689386Y-62876575D01*
X103691155Y-62885047D01*
X103692607Y-62894598D01*
X103693800Y-62906095D01*
X103694793Y-62920405D01*
X103695644Y-62938394D01*
X103696413Y-62960930D01*
X103697158Y-62988878D01*
X103697938Y-63023107D01*
X103698811Y-63064482D01*
X103698925Y-63069962D01*
X103699229Y-63088110D01*
X103699554Y-63114014D01*
X103699898Y-63147309D01*
X103700258Y-63187634D01*
X103700633Y-63234624D01*
X103701020Y-63287916D01*
X103701419Y-63347147D01*
X103701826Y-63411954D01*
X103702240Y-63481973D01*
X103702659Y-63556841D01*
X103703080Y-63636195D01*
X103703503Y-63719671D01*
X103703925Y-63806906D01*
X103704343Y-63897537D01*
X103704757Y-63991200D01*
X103705164Y-64087532D01*
X103705562Y-64186170D01*
X103705949Y-64286750D01*
X103706323Y-64388910D01*
X103706683Y-64492285D01*
X103706807Y-64529336D01*
X103707162Y-64635950D01*
X103707522Y-64742893D01*
X103707884Y-64849721D01*
X103708246Y-64955987D01*
X103708608Y-65061246D01*
X103708968Y-65165050D01*
X103709324Y-65266954D01*
X103709674Y-65366513D01*
X103710018Y-65463279D01*
X103710352Y-65556808D01*
X103710677Y-65646652D01*
X103710989Y-65732367D01*
X103711288Y-65813505D01*
X103711572Y-65889622D01*
X103711839Y-65960270D01*
X103712088Y-66025004D01*
X103712317Y-66083378D01*
X103712524Y-66134946D01*
X103712708Y-66179261D01*
X103712859Y-66214009D01*
X103713087Y-66273480D01*
X103713230Y-66330494D01*
X103713290Y-66384496D01*
X103713271Y-66434933D01*
X103713174Y-66481248D01*
X103713002Y-66522889D01*
X103712757Y-66559299D01*
X103712441Y-66589925D01*
X103712058Y-66614212D01*
X103711610Y-66631605D01*
X103711098Y-66641550D01*
X103710984Y-66642634D01*
X103702093Y-66688941D01*
X103687340Y-66737670D01*
X103667632Y-66786760D01*
X103643878Y-66834151D01*
X103616982Y-66877780D01*
X103594157Y-66908176D01*
X103556476Y-66950463D01*
X103517047Y-66987833D01*
X103473210Y-67022721D01*
X103454957Y-67035756D01*
X103435672Y-67048849D01*
X103417586Y-67060297D01*
X103399522Y-67070646D01*
X103380307Y-67080442D01*
X103358763Y-67090232D01*
X103333716Y-67100562D01*
X103303990Y-67111978D01*
X103268409Y-67125026D01*
X103244192Y-67133713D01*
X103209863Y-67145955D01*
X103171189Y-67159742D01*
X103130987Y-67174069D01*
X103092074Y-67187933D01*
X103057268Y-67200330D01*
X103049339Y-67203153D01*
X103022886Y-67212573D01*
X102998839Y-67221138D01*
X102978296Y-67228458D01*
X102962358Y-67234140D01*
X102952124Y-67237792D01*
X102948824Y-67238974D01*
X102943498Y-67240332D01*
X102942735Y-67240254D01*
X102938922Y-67241564D01*
X102931614Y-67245295D01*
X102923598Y-67249534D01*
X102919436Y-67251406D01*
X102914358Y-67253260D01*
X102911317Y-67254530D01*
X102909903Y-67255103D01*
X102907352Y-67256073D01*
X102903301Y-67257568D01*
X102897386Y-67259720D01*
X102889244Y-67262655D01*
X102878513Y-67266505D01*
X102864829Y-67271398D01*
X102847829Y-67277463D01*
X102827150Y-67284829D01*
X102802429Y-67293627D01*
X102773303Y-67303984D01*
X102739408Y-67316030D01*
X102700382Y-67329895D01*
X102655862Y-67345707D01*
X102605483Y-67363597D01*
X102548884Y-67383692D01*
X102485701Y-67406122D01*
X102415571Y-67431018D01*
X102342994Y-67456780D01*
X102296542Y-67473215D01*
X102251303Y-67489120D01*
X102208019Y-67504238D01*
X102167434Y-67518316D01*
X102130289Y-67531098D01*
X102097328Y-67542330D01*
X102069293Y-67551757D01*
X102046927Y-67559123D01*
X102030972Y-67564175D01*
X102024327Y-67566115D01*
X101996343Y-67573405D01*
X101979711Y-67577397D01*
X101970875Y-67579518D01*
X101949029Y-67584228D01*
X101931916Y-67587308D01*
X101920644Y-67588531D01*
X101916651Y-67588072D01*
X101911786Y-67588809D01*
X101910703Y-67590098D01*
X101905687Y-67591846D01*
X101893908Y-67593187D01*
X101876713Y-67594011D01*
X101860244Y-67594223D01*
X101818277Y-67592307D01*
X101777091Y-67586835D01*
X101738938Y-67578217D01*
X101706073Y-67566867D01*
X101702818Y-67565443D01*
X101688927Y-67559554D01*
X101677482Y-67555321D01*
X101670891Y-67553631D01*
X101670776Y-67553629D01*
X101665621Y-67551311D01*
X101665065Y-67549569D01*
X101661798Y-67545920D01*
X101659266Y-67545510D01*
X101651456Y-67542898D01*
X101648102Y-67540415D01*
X101642157Y-67535647D01*
X101631703Y-67528025D01*
X101618994Y-67519189D01*
X101618868Y-67519103D01*
X101595112Y-67499934D01*
X101570896Y-67474983D01*
X101547931Y-67446293D01*
X101527925Y-67415906D01*
X101519197Y-67399991D01*
X101513787Y-67390101D01*
X101509889Y-67384381D01*
X101508828Y-67383756D01*
X101507738Y-67388036D01*
X101505629Y-67398963D01*
X101502750Y-67415165D01*
X101499345Y-67435267D01*
X101496912Y-67450116D01*
X101492759Y-67474173D01*
X101488305Y-67497263D01*
X101483973Y-67517362D01*
X101480186Y-67532444D01*
X101478657Y-67537391D01*
X101472720Y-67555054D01*
X101466566Y-67574189D01*
X101464137Y-67582045D01*
X101452528Y-67612441D01*
X101435684Y-67645775D01*
X101414856Y-67680103D01*
X101391293Y-67713477D01*
X101366246Y-67743950D01*
X101347798Y-67763192D01*
X101327663Y-67780927D01*
X101303235Y-67799835D01*
X101276816Y-67818331D01*
X101250708Y-67834833D01*
X101227212Y-67847757D01*
X101219790Y-67851250D01*
X101209919Y-67855203D01*
X101193451Y-67861307D01*
X101171499Y-67869171D01*
X101145175Y-67878403D01*
X101115592Y-67888612D01*
X101083863Y-67899407D01*
X101061471Y-67906935D01*
X101030098Y-67917433D01*
X101001125Y-67927136D01*
X100975462Y-67935738D01*
X100954022Y-67942932D01*
X100937719Y-67948413D01*
X100927463Y-67951873D01*
X100924215Y-67952986D01*
X100917066Y-67954615D01*
X100916550Y-67954651D01*
X100911247Y-67957775D01*
X100910445Y-67958864D01*
X100906299Y-67960750D01*
X100895026Y-67965009D01*
X100877201Y-67971440D01*
X100853398Y-67979847D01*
X100824192Y-67990028D01*
X100790158Y-68001787D01*
X100751870Y-68014924D01*
X100709902Y-68029239D01*
X100664829Y-68044535D01*
X100617225Y-68060612D01*
X100591324Y-68069328D01*
X100540516Y-68086426D01*
X100490396Y-68103332D01*
X100441719Y-68119789D01*
X100395244Y-68135539D01*
X100351726Y-68150325D01*
X100311924Y-68163889D01*
X100298713Y-68168407D01*
X100276593Y-68175972D01*
X100246490Y-68186319D01*
X100222373Y-68194670D01*
X100204998Y-68200769D01*
X100201632Y-68201970D01*
X100176612Y-68210891D01*
X100146049Y-68221695D01*
X100112077Y-68233635D01*
X100076833Y-68245960D01*
X100042451Y-68257921D01*
X100023174Y-68264594D01*
X99995281Y-68274318D01*
X99969777Y-68283380D01*
X99947712Y-68291393D01*
X99930134Y-68297970D01*
X99918093Y-68302727D01*
X99912636Y-68305275D01*
X99912554Y-68305338D01*
X99908134Y-68307596D01*
X99907322Y-68306657D01*
X99904824Y-68306292D01*
X99901232Y-68308687D01*
X99896323Y-68311521D01*
X99895143Y-68310717D01*
X99892640Y-68310022D01*
X99890069Y-68311563D01*
X99884029Y-68314504D01*
X99871663Y-68319344D01*
X99854407Y-68325596D01*
X99833696Y-68332775D01*
X99810965Y-68340397D01*
X99787649Y-68347973D01*
X99765183Y-68355020D01*
X99745003Y-68361051D01*
X99737778Y-68363102D01*
X99714492Y-68368621D01*
X99685906Y-68373940D01*
X99654706Y-68378688D01*
X99623580Y-68382491D01*
X99595214Y-68384977D01*
X99574278Y-68385780D01*
X99555319Y-68384977D01*
X99530830Y-68382734D01*
X99503203Y-68379378D01*
X99474833Y-68375233D01*
X99448113Y-68370625D01*
X99425438Y-68365881D01*
X99422217Y-68365099D01*
X99369292Y-68348725D01*
X99315329Y-68326042D01*
X99262641Y-68298136D01*
X99218203Y-68269437D01*
X99170712Y-68230883D01*
X99127443Y-68185974D01*
X99088963Y-68135605D01*
X99055844Y-68080672D01*
X99028653Y-68022071D01*
X99007961Y-67960696D01*
X98999361Y-67925146D01*
X98989223Y-67876355D01*
X98978443Y-65395671D01*
X100288910Y-65395671D01*
X100288913Y-65651596D01*
X100288952Y-65726451D01*
X100289064Y-65801374D01*
X100289246Y-65875931D01*
X100289493Y-65949684D01*
X100289802Y-66022198D01*
X100290167Y-66093036D01*
X100290584Y-66161762D01*
X100291050Y-66227939D01*
X100291560Y-66291133D01*
X100292110Y-66350906D01*
X100292696Y-66406822D01*
X100293313Y-66458445D01*
X100293957Y-66505339D01*
X100294625Y-66547069D01*
X100295311Y-66583196D01*
X100296012Y-66613286D01*
X100296723Y-66636903D01*
X100297440Y-66653609D01*
X100298159Y-66662969D01*
X100298713Y-66664895D01*
X100304701Y-66661211D01*
X100306120Y-66660783D01*
X100306736Y-66660721D01*
X100307269Y-66660664D01*
X100308340Y-66660412D01*
X100310567Y-66659764D01*
X100314572Y-66658521D01*
X100320973Y-66656482D01*
X100330391Y-66653448D01*
X100343445Y-66649218D01*
X100360756Y-66643593D01*
X100382943Y-66636371D01*
X100410626Y-66627353D01*
X100444424Y-66616339D01*
X100484958Y-66603129D01*
X100512180Y-66594258D01*
X100551724Y-66581375D01*
X100590281Y-66568820D01*
X100626890Y-66556905D01*
X100660592Y-66545944D01*
X100690425Y-66536247D01*
X100715430Y-66528128D01*
X100734646Y-66521898D01*
X100747114Y-66517869D01*
X100747206Y-66517840D01*
X100789408Y-66504260D01*
X100786441Y-65873015D01*
X100786101Y-65802082D01*
X100785757Y-65733376D01*
X100785413Y-65667334D01*
X100785072Y-65604394D01*
X100784735Y-65544991D01*
X100784407Y-65489562D01*
X100784090Y-65438545D01*
X100783786Y-65392377D01*
X100783499Y-65351494D01*
X100783232Y-65316333D01*
X100782987Y-65287331D01*
X100782766Y-65264925D01*
X100782574Y-65249552D01*
X100782413Y-65241648D01*
X100782346Y-65240635D01*
X100778354Y-65241549D01*
X100767535Y-65244663D01*
X100750794Y-65249701D01*
X100729036Y-65256384D01*
X100703166Y-65264436D01*
X100674088Y-65273579D01*
X100651773Y-65280651D01*
X100613347Y-65292860D01*
X100570729Y-65306392D01*
X100526299Y-65320490D01*
X100482439Y-65334399D01*
X100441529Y-65347365D01*
X100405950Y-65358631D01*
X100405620Y-65358736D01*
X100288910Y-65395671D01*
X98978443Y-65395671D01*
X98977395Y-65154492D01*
X98976748Y-65005081D01*
X98976114Y-64857291D01*
X98975607Y-64738166D01*
X101973658Y-64738166D01*
X101976214Y-65373586D01*
X101976506Y-65444757D01*
X101976801Y-65513703D01*
X101977095Y-65579988D01*
X101977387Y-65643176D01*
X101977675Y-65702833D01*
X101977955Y-65758522D01*
X101978225Y-65809808D01*
X101978484Y-65856256D01*
X101978728Y-65897431D01*
X101978955Y-65932896D01*
X101979164Y-65962217D01*
X101979350Y-65984957D01*
X101979513Y-66000683D01*
X101979650Y-66008957D01*
X101979711Y-66010173D01*
X101983819Y-66009467D01*
X101994653Y-66006523D01*
X102011228Y-66001654D01*
X102032564Y-65995175D01*
X102057677Y-65987399D01*
X102085586Y-65978642D01*
X102115308Y-65969217D01*
X102145861Y-65959439D01*
X102176263Y-65949623D01*
X102205531Y-65940082D01*
X102232684Y-65931131D01*
X102256738Y-65923084D01*
X102276711Y-65916255D01*
X102291622Y-65910960D01*
X102300369Y-65907563D01*
X102307867Y-65904773D01*
X102321751Y-65900050D01*
X102340648Y-65893846D01*
X102363184Y-65886609D01*
X102387983Y-65878790D01*
X102393737Y-65876995D01*
X102474926Y-65851729D01*
X102473697Y-65355955D01*
X102473513Y-65290037D01*
X102473288Y-65224316D01*
X102473027Y-65159483D01*
X102472735Y-65096231D01*
X102472416Y-65035254D01*
X102472075Y-64977245D01*
X102471715Y-64922895D01*
X102471342Y-64872899D01*
X102470960Y-64827949D01*
X102470573Y-64788737D01*
X102470185Y-64755958D01*
X102469802Y-64730303D01*
X102469638Y-64721543D01*
X102466807Y-64582905D01*
X102220232Y-64660536D01*
X101973658Y-64738166D01*
X98975607Y-64738166D01*
X98975493Y-64711348D01*
X98974886Y-64567475D01*
X98974294Y-64425898D01*
X98973718Y-64286841D01*
X98973158Y-64150530D01*
X98972616Y-64017187D01*
X98972092Y-63887040D01*
X98971587Y-63760312D01*
X98971102Y-63637227D01*
X98970638Y-63518012D01*
X98970195Y-63402889D01*
X98969775Y-63292086D01*
X98969378Y-63185824D01*
X98969005Y-63084331D01*
X98968657Y-62987830D01*
X98968335Y-62896546D01*
X98968039Y-62810704D01*
X98967771Y-62730529D01*
X98967531Y-62656245D01*
X98967320Y-62588078D01*
X98967138Y-62526251D01*
X98966988Y-62470989D01*
X98966869Y-62422518D01*
X98966783Y-62381062D01*
X98966730Y-62346846D01*
X98966711Y-62320094D01*
X98966727Y-62301032D01*
X98966772Y-62290547D01*
X98967102Y-62252850D01*
X98967429Y-62222315D01*
X98967821Y-62197985D01*
X98968344Y-62178903D01*
X98969064Y-62164113D01*
X98970048Y-62152657D01*
X98971363Y-62143580D01*
X98973075Y-62135924D01*
X98975250Y-62128732D01*
X98977956Y-62121049D01*
X98978709Y-62118979D01*
X98990254Y-62090214D01*
X99002727Y-62066153D01*
X99017876Y-62043989D01*
X99037452Y-62020910D01*
X99044534Y-62013299D01*
X99082099Y-61976212D01*
X99118615Y-61945850D01*
X99155502Y-61921203D01*
X99194178Y-61901261D01*
X99213155Y-61893314D01*
X99228590Y-61887247D01*
X99242746Y-61881640D01*
X99251720Y-61878045D01*
X99260718Y-61874431D01*
X99265832Y-61872447D01*
X99265928Y-61872413D01*
X99271001Y-61870353D01*
X99274047Y-61869030D01*
X99278802Y-61867320D01*
X99290632Y-61863226D01*
X99308918Y-61856957D01*
X99333040Y-61848724D01*
X99362380Y-61838738D01*
X99396320Y-61827209D01*
X99434240Y-61814347D01*
X99475523Y-61800363D01*
X99519548Y-61785467D01*
X99562268Y-61771029D01*
X99610838Y-61754615D01*
X99659160Y-61738274D01*
X99706371Y-61722299D01*
X99751606Y-61706982D01*
X99794002Y-61692616D01*
X99832694Y-61679495D01*
X99866819Y-61667910D01*
X99895511Y-61658155D01*
X99917909Y-61650522D01*
X99928212Y-61646999D01*
X99969697Y-61633305D01*
X100004951Y-61622988D01*
X100035087Y-61615967D01*
X100061218Y-61612155D01*
X100084455Y-61611471D01*
X100105912Y-61613830D01*
X100126702Y-61619148D01*
X100147937Y-61627342D01*
X100153855Y-61630020D01*
X100172951Y-61641898D01*
X100193138Y-61659618D01*
X100212757Y-61681383D01*
X100230148Y-61705395D01*
X100241099Y-61724525D01*
X100246224Y-61734707D01*
X100250698Y-61743821D01*
X100254573Y-61752471D01*
X100257898Y-61761258D01*
X100260723Y-61770787D01*
X100263098Y-61781659D01*
X100265075Y-61794476D01*
X100266702Y-61809843D01*
X100268029Y-61828360D01*
X100269108Y-61850631D01*
X100269988Y-61877259D01*
X100270719Y-61908846D01*
X100271351Y-61945994D01*
X100271935Y-61989306D01*
X100272520Y-62039386D01*
X100273158Y-62096835D01*
X100273325Y-62111931D01*
X100273722Y-62150527D01*
X100274137Y-62196562D01*
X100274566Y-62249357D01*
X100275004Y-62308233D01*
X100275449Y-62372509D01*
X100275896Y-62441506D01*
X100276341Y-62514544D01*
X100276781Y-62590945D01*
X100277210Y-62670029D01*
X100277627Y-62751115D01*
X100278025Y-62833525D01*
X100278402Y-62916579D01*
X100278754Y-62999598D01*
X100279076Y-63081901D01*
X100279280Y-63138040D01*
X100279629Y-63233711D01*
X100279980Y-63321494D01*
X100280335Y-63401622D01*
X100280697Y-63474327D01*
X100281067Y-63539839D01*
X100281449Y-63598391D01*
X100281843Y-63650214D01*
X100282254Y-63695541D01*
X100282682Y-63734602D01*
X100283130Y-63767629D01*
X100283601Y-63794855D01*
X100284097Y-63816511D01*
X100284620Y-63832828D01*
X100285172Y-63844039D01*
X100285756Y-63850374D01*
X100286366Y-63852074D01*
X100290933Y-63850211D01*
X100302549Y-63846047D01*
X100320546Y-63839807D01*
X100344258Y-63831717D01*
X100373018Y-63822002D01*
X100406158Y-63810886D01*
X100443012Y-63798595D01*
X100482912Y-63785354D01*
X100525192Y-63771388D01*
X100534057Y-63768468D01*
X100777175Y-63688418D01*
X100775595Y-62914383D01*
X100775406Y-62821205D01*
X100775240Y-62735795D01*
X100775097Y-62657802D01*
X100774982Y-62586875D01*
X100774897Y-62522661D01*
X100774844Y-62464811D01*
X100774826Y-62412974D01*
X100774847Y-62366797D01*
X100774908Y-62325930D01*
X100775012Y-62290023D01*
X100775163Y-62258723D01*
X100775362Y-62231679D01*
X100775612Y-62208542D01*
X100775917Y-62188958D01*
X100776279Y-62172578D01*
X100776701Y-62159050D01*
X100777184Y-62148024D01*
X100777733Y-62139147D01*
X100778350Y-62132069D01*
X100779037Y-62126439D01*
X100779797Y-62121905D01*
X100780633Y-62118117D01*
X100781548Y-62114723D01*
X100781770Y-62113961D01*
X100795286Y-62077109D01*
X100813879Y-62042402D01*
X100838519Y-62008243D01*
X100862867Y-61980629D01*
X100882406Y-61962605D01*
X100907103Y-61944557D01*
X100937505Y-61926183D01*
X100974156Y-61907184D01*
X101017601Y-61887257D01*
X101068387Y-61866103D01*
X101076444Y-61862896D01*
X101100663Y-61853230D01*
X101123920Y-61843809D01*
X101144505Y-61835339D01*
X101160706Y-61828520D01*
X101169812Y-61824522D01*
X101183180Y-61818631D01*
X101201346Y-61810951D01*
X101221542Y-61802639D01*
X101234763Y-61797322D01*
X101252354Y-61790138D01*
X101267381Y-61783657D01*
X101278086Y-61778660D01*
X101282461Y-61776168D01*
X101286801Y-61773847D01*
X101287536Y-61774593D01*
X101290417Y-61774674D01*
X101296670Y-61771428D01*
X101302743Y-61768455D01*
X101315512Y-61762858D01*
X101334115Y-61754981D01*
X101357691Y-61745172D01*
X101385379Y-61733775D01*
X101416319Y-61721137D01*
X101449649Y-61707604D01*
X101484508Y-61693521D01*
X101520036Y-61679234D01*
X101555372Y-61665090D01*
X101589654Y-61651433D01*
X101622022Y-61638610D01*
X101651614Y-61626967D01*
X101677571Y-61616850D01*
X101699031Y-61608604D01*
X101715132Y-61602575D01*
X101725015Y-61599109D01*
X101727163Y-61598487D01*
X101751906Y-61594853D01*
X101779186Y-61594221D01*
X101805981Y-61596438D01*
G37*
D12*
%TO.C,U3*%
X87700000Y-73380000D02*
X97940000Y-73380000D01*
X90970000Y-73380000D02*
X90970000Y-74890000D01*
X94671000Y-73380000D02*
X94671000Y-74890000D01*
X87700000Y-73380000D02*
X87700000Y-78021000D01*
X87700000Y-78021000D02*
X97940000Y-78021000D01*
X97940000Y-73380000D02*
X97940000Y-78021000D01*
X87700000Y-74890000D02*
X97940000Y-74890000D01*
%TO.C,U2*%
X130210000Y-55820000D02*
X130210000Y-54170000D01*
X130210000Y-50520000D02*
X109770000Y-50520000D01*
X109770000Y-55820000D02*
X130210000Y-55820000D01*
X109770000Y-50520000D02*
X109770000Y-55820000D01*
X130210000Y-52170000D02*
X130210000Y-50520000D01*
X130210000Y-52170000D02*
G75*
G03*
X130210000Y-54170000I0J-1000000D01*
G01*
%TO.C,U1*%
X150410000Y-59890000D02*
X147740000Y-59890000D01*
X145200000Y-59890000D02*
X106970000Y-59890000D01*
X106970000Y-59890000D02*
X106970000Y-77930000D01*
X147740000Y-62560000D02*
X147740000Y-59890000D01*
X145200000Y-62560000D02*
X145200000Y-59890000D01*
X145200000Y-62560000D02*
X147740000Y-62560000D01*
X145200000Y-62560000D02*
X109640000Y-62560000D01*
X109640000Y-62560000D02*
X109640000Y-59890000D01*
D10*
X114720000Y-65100000D02*
X114720000Y-72720000D01*
X104560000Y-65100000D02*
X114720000Y-65100000D01*
X114720000Y-72720000D02*
X104560000Y-72720000D01*
X104560000Y-72720000D02*
X104560000Y-65100000D01*
D12*
X147740000Y-75260000D02*
X109640000Y-75260000D01*
X147740000Y-75260000D02*
X147740000Y-77930000D01*
X109640000Y-75260000D02*
X109640000Y-77930000D01*
X150410000Y-77930000D02*
X150410000Y-59890000D01*
X106970000Y-77930000D02*
X150410000Y-77930000D01*
%TO.C,R1*%
X152430000Y-51970000D02*
X150590000Y-51970000D01*
X150590000Y-51970000D02*
X150590000Y-55810000D01*
X152430000Y-55810000D02*
X152430000Y-51970000D01*
X151510000Y-51020000D02*
X151510000Y-51970000D01*
X150590000Y-55810000D02*
X152430000Y-55810000D01*
X151510000Y-56760000D02*
X151510000Y-55810000D01*
%TO.C,J3*%
X93000000Y-48600000D02*
X94330000Y-48600000D01*
X89130000Y-48600000D02*
X89130000Y-51260000D01*
X91730000Y-48600000D02*
X89130000Y-48600000D01*
X91730000Y-48600000D02*
X91730000Y-51260000D01*
X94330000Y-48600000D02*
X94330000Y-49930000D01*
X91730000Y-51260000D02*
X89130000Y-51260000D01*
%TO.C,J2*%
X154860000Y-71055000D02*
X154860000Y-54855000D01*
X154860000Y-71055000D02*
X167860000Y-71055000D01*
X167860000Y-71055000D02*
X167860000Y-54855000D01*
X154860000Y-54855000D02*
X167860000Y-54855000D01*
D13*
%TO.C,J1*%
X80700000Y-72975000D02*
X80700000Y-52975000D01*
X96200000Y-72975000D02*
X80700000Y-72975000D01*
X96200000Y-69425000D02*
X96200000Y-72975000D01*
X96200000Y-59475000D02*
X96200000Y-66475000D01*
X80700000Y-52975000D02*
X96200000Y-52975000D01*
X96200000Y-52975000D02*
X96200000Y-56525000D01*
D12*
%TO.C,D1*%
X156524000Y-52170000D02*
X156680000Y-52170000D01*
X158840000Y-52170000D02*
X158996000Y-52170000D01*
X156680164Y-49568871D02*
G75*
G03*
X156680001Y-51650960I1079836J-1041129D01*
G01*
X158995515Y-52169999D02*
G75*
G03*
X158838608Y-48937666I-1235515J1559999D01*
G01*
X158839999Y-51650960D02*
G75*
G03*
X158839836Y-49568871I-1079999J1040960D01*
G01*
X156681392Y-48937666D02*
G75*
G03*
X156524485Y-52169999I1078608J-1672334D01*
G01*
%TO.C,C8*%
X143350000Y-56347401D02*
X142134000Y-56347401D01*
X145541000Y-57628401D02*
X145030000Y-57628401D01*
X145706000Y-57468401D02*
X145030000Y-57468401D01*
X143350000Y-57788401D02*
X143048000Y-57788401D01*
X145586000Y-57588401D02*
X145030000Y-57588401D01*
X145668000Y-57508401D02*
X145030000Y-57508401D01*
X143350000Y-57468401D02*
X142674000Y-57468401D01*
X143350000Y-56307401D02*
X142128000Y-56307401D01*
X143350000Y-56948401D02*
X142320000Y-56948401D01*
X143350000Y-56627401D02*
X142196000Y-56627401D01*
X146224000Y-56467401D02*
X145030000Y-56467401D01*
X144727000Y-58068401D02*
X143653000Y-58068401D01*
X144560000Y-58108401D02*
X143820000Y-58108401D01*
X146269000Y-56107401D02*
X142111000Y-56107401D01*
X146261000Y-56227401D02*
X145030000Y-56227401D01*
X146130000Y-56788401D02*
X145030000Y-56788401D01*
X145130000Y-57908401D02*
X143250000Y-57908401D01*
X145628000Y-57548401D02*
X145030000Y-57548401D01*
X145870000Y-57268401D02*
X145030000Y-57268401D01*
X146158000Y-56707401D02*
X145030000Y-56707401D01*
X143350000Y-56788401D02*
X142250000Y-56788401D01*
X146144000Y-56748401D02*
X145030000Y-56748401D01*
X146267000Y-56147401D02*
X142113000Y-56147401D01*
X146270000Y-56067401D02*
X142110000Y-56067401D01*
X146257000Y-56267401D02*
X145030000Y-56267401D01*
X146041000Y-56988401D02*
X145030000Y-56988401D01*
X143350000Y-57508401D02*
X142712000Y-57508401D01*
X146060000Y-56948401D02*
X145030000Y-56948401D01*
X143350000Y-56507401D02*
X142165000Y-56507401D01*
X143350000Y-57108401D02*
X142405000Y-57108401D01*
X145444000Y-57708401D02*
X145030000Y-57708401D01*
X145925000Y-57188401D02*
X145030000Y-57188401D01*
X143350000Y-57228401D02*
X142482000Y-57228401D01*
X143350000Y-56387401D02*
X142140000Y-56387401D01*
X143350000Y-56587401D02*
X142185000Y-56587401D01*
X143350000Y-57068401D02*
X142382000Y-57068401D01*
X143350000Y-56547401D02*
X142174000Y-56547401D01*
X143350000Y-56667401D02*
X142208000Y-56667401D01*
X143350000Y-57548401D02*
X142752000Y-57548401D01*
X143350000Y-56748401D02*
X142236000Y-56748401D01*
X143350000Y-56868401D02*
X142283000Y-56868401D01*
X143350000Y-57748401D02*
X142990000Y-57748401D01*
X145494000Y-57668401D02*
X145030000Y-57668401D01*
X145742000Y-57428401D02*
X145030000Y-57428401D01*
X143350000Y-57388401D02*
X142603000Y-57388401D01*
X143350000Y-57708401D02*
X142936000Y-57708401D01*
X145203000Y-57868401D02*
X143177000Y-57868401D01*
X145809000Y-57348401D02*
X145030000Y-57348401D01*
X143350000Y-57148401D02*
X142430000Y-57148401D01*
X145950000Y-57148401D02*
X145030000Y-57148401D01*
X145390000Y-57748401D02*
X145030000Y-57748401D01*
X146020000Y-57028401D02*
X145030000Y-57028401D01*
X146079000Y-56908401D02*
X145030000Y-56908401D01*
X143350000Y-57188401D02*
X142455000Y-57188401D01*
X146114000Y-56828401D02*
X145030000Y-56828401D01*
X143350000Y-57668401D02*
X142886000Y-57668401D01*
X143350000Y-56467401D02*
X142156000Y-56467401D01*
X143350000Y-57268401D02*
X142510000Y-57268401D01*
X145385000Y-53757600D02*
X145385000Y-54157600D01*
X146246000Y-56347401D02*
X145030000Y-56347401D01*
X144958000Y-57988401D02*
X143422000Y-57988401D01*
X146172000Y-56667401D02*
X145030000Y-56667401D01*
X145585000Y-53957600D02*
X145185000Y-53957600D01*
X143350000Y-56988401D02*
X142339000Y-56988401D01*
X145998000Y-57068401D02*
X145030000Y-57068401D01*
X146232000Y-56427401D02*
X145030000Y-56427401D01*
X143350000Y-57588401D02*
X142794000Y-57588401D01*
X145975000Y-57108401D02*
X145030000Y-57108401D01*
X145777000Y-57388401D02*
X145030000Y-57388401D01*
X143350000Y-56828401D02*
X142266000Y-56828401D01*
X143350000Y-57348401D02*
X142571000Y-57348401D01*
X146184000Y-56627401D02*
X145030000Y-56627401D01*
X143350000Y-56427401D02*
X142148000Y-56427401D01*
X146097000Y-56868401D02*
X145030000Y-56868401D01*
X146264000Y-56187401D02*
X142116000Y-56187401D01*
X143350000Y-56707401D02*
X142222000Y-56707401D01*
X143350000Y-57028401D02*
X142360000Y-57028401D01*
X143350000Y-57308401D02*
X142540000Y-57308401D01*
X143350000Y-57828401D02*
X143110000Y-57828401D01*
X145270000Y-57828401D02*
X145030000Y-57828401D01*
X143350000Y-56908401D02*
X142301000Y-56908401D01*
X146270000Y-56027401D02*
X142110000Y-56027401D01*
X145898000Y-57228401D02*
X145030000Y-57228401D01*
X144854000Y-58028401D02*
X143526000Y-58028401D01*
X143350000Y-56267401D02*
X142123000Y-56267401D01*
X143350000Y-57428401D02*
X142638000Y-57428401D01*
X145049000Y-57948401D02*
X143331000Y-57948401D01*
X143350000Y-56227401D02*
X142119000Y-56227401D01*
X146206000Y-56547401D02*
X145030000Y-56547401D01*
X143350000Y-57628401D02*
X142839000Y-57628401D01*
X146240000Y-56387401D02*
X145030000Y-56387401D01*
X145332000Y-57788401D02*
X145030000Y-57788401D01*
X146215000Y-56507401D02*
X145030000Y-56507401D01*
X145840000Y-57308401D02*
X145030000Y-57308401D01*
X146195000Y-56587401D02*
X145030000Y-56587401D01*
X146252000Y-56307401D02*
X145030000Y-56307401D01*
X146310000Y-56027401D02*
G75*
G03*
X146310000Y-56027401I-2120000J0D01*
G01*
%TO.C,C7*%
X135420000Y-51457401D02*
X134204000Y-51457401D01*
X137611000Y-52738401D02*
X137100000Y-52738401D01*
X137776000Y-52578401D02*
X137100000Y-52578401D01*
X135420000Y-52898401D02*
X135118000Y-52898401D01*
X137656000Y-52698401D02*
X137100000Y-52698401D01*
X137738000Y-52618401D02*
X137100000Y-52618401D01*
X135420000Y-52578401D02*
X134744000Y-52578401D01*
X135420000Y-51417401D02*
X134198000Y-51417401D01*
X135420000Y-52058401D02*
X134390000Y-52058401D01*
X135420000Y-51737401D02*
X134266000Y-51737401D01*
X138294000Y-51577401D02*
X137100000Y-51577401D01*
X136797000Y-53178401D02*
X135723000Y-53178401D01*
X136630000Y-53218401D02*
X135890000Y-53218401D01*
X138339000Y-51217401D02*
X134181000Y-51217401D01*
X138331000Y-51337401D02*
X137100000Y-51337401D01*
X138200000Y-51898401D02*
X137100000Y-51898401D01*
X137200000Y-53018401D02*
X135320000Y-53018401D01*
X137698000Y-52658401D02*
X137100000Y-52658401D01*
X137940000Y-52378401D02*
X137100000Y-52378401D01*
X138228000Y-51817401D02*
X137100000Y-51817401D01*
X135420000Y-51898401D02*
X134320000Y-51898401D01*
X138214000Y-51858401D02*
X137100000Y-51858401D01*
X138337000Y-51257401D02*
X134183000Y-51257401D01*
X138340000Y-51177401D02*
X134180000Y-51177401D01*
X138327000Y-51377401D02*
X137100000Y-51377401D01*
X138111000Y-52098401D02*
X137100000Y-52098401D01*
X135420000Y-52618401D02*
X134782000Y-52618401D01*
X138130000Y-52058401D02*
X137100000Y-52058401D01*
X135420000Y-51617401D02*
X134235000Y-51617401D01*
X135420000Y-52218401D02*
X134475000Y-52218401D01*
X137514000Y-52818401D02*
X137100000Y-52818401D01*
X137995000Y-52298401D02*
X137100000Y-52298401D01*
X135420000Y-52338401D02*
X134552000Y-52338401D01*
X135420000Y-51497401D02*
X134210000Y-51497401D01*
X135420000Y-51697401D02*
X134255000Y-51697401D01*
X135420000Y-52178401D02*
X134452000Y-52178401D01*
X135420000Y-51657401D02*
X134244000Y-51657401D01*
X135420000Y-51777401D02*
X134278000Y-51777401D01*
X135420000Y-52658401D02*
X134822000Y-52658401D01*
X135420000Y-51858401D02*
X134306000Y-51858401D01*
X135420000Y-51978401D02*
X134353000Y-51978401D01*
X135420000Y-52858401D02*
X135060000Y-52858401D01*
X137564000Y-52778401D02*
X137100000Y-52778401D01*
X137812000Y-52538401D02*
X137100000Y-52538401D01*
X135420000Y-52498401D02*
X134673000Y-52498401D01*
X135420000Y-52818401D02*
X135006000Y-52818401D01*
X137273000Y-52978401D02*
X135247000Y-52978401D01*
X137879000Y-52458401D02*
X137100000Y-52458401D01*
X135420000Y-52258401D02*
X134500000Y-52258401D01*
X138020000Y-52258401D02*
X137100000Y-52258401D01*
X137460000Y-52858401D02*
X137100000Y-52858401D01*
X138090000Y-52138401D02*
X137100000Y-52138401D01*
X138149000Y-52018401D02*
X137100000Y-52018401D01*
X135420000Y-52298401D02*
X134525000Y-52298401D01*
X138184000Y-51938401D02*
X137100000Y-51938401D01*
X135420000Y-52778401D02*
X134956000Y-52778401D01*
X135420000Y-51577401D02*
X134226000Y-51577401D01*
X135420000Y-52378401D02*
X134580000Y-52378401D01*
X137455000Y-48867600D02*
X137455000Y-49267600D01*
X138316000Y-51457401D02*
X137100000Y-51457401D01*
X137028000Y-53098401D02*
X135492000Y-53098401D01*
X138242000Y-51777401D02*
X137100000Y-51777401D01*
X137655000Y-49067600D02*
X137255000Y-49067600D01*
X135420000Y-52098401D02*
X134409000Y-52098401D01*
X138068000Y-52178401D02*
X137100000Y-52178401D01*
X138302000Y-51537401D02*
X137100000Y-51537401D01*
X135420000Y-52698401D02*
X134864000Y-52698401D01*
X138045000Y-52218401D02*
X137100000Y-52218401D01*
X137847000Y-52498401D02*
X137100000Y-52498401D01*
X135420000Y-51938401D02*
X134336000Y-51938401D01*
X135420000Y-52458401D02*
X134641000Y-52458401D01*
X138254000Y-51737401D02*
X137100000Y-51737401D01*
X135420000Y-51537401D02*
X134218000Y-51537401D01*
X138167000Y-51978401D02*
X137100000Y-51978401D01*
X138334000Y-51297401D02*
X134186000Y-51297401D01*
X135420000Y-51817401D02*
X134292000Y-51817401D01*
X135420000Y-52138401D02*
X134430000Y-52138401D01*
X135420000Y-52418401D02*
X134610000Y-52418401D01*
X135420000Y-52938401D02*
X135180000Y-52938401D01*
X137340000Y-52938401D02*
X137100000Y-52938401D01*
X135420000Y-52018401D02*
X134371000Y-52018401D01*
X138340000Y-51137401D02*
X134180000Y-51137401D01*
X137968000Y-52338401D02*
X137100000Y-52338401D01*
X136924000Y-53138401D02*
X135596000Y-53138401D01*
X135420000Y-51377401D02*
X134193000Y-51377401D01*
X135420000Y-52538401D02*
X134708000Y-52538401D01*
X137119000Y-53058401D02*
X135401000Y-53058401D01*
X135420000Y-51337401D02*
X134189000Y-51337401D01*
X138276000Y-51657401D02*
X137100000Y-51657401D01*
X135420000Y-52738401D02*
X134909000Y-52738401D01*
X138310000Y-51497401D02*
X137100000Y-51497401D01*
X137402000Y-52898401D02*
X137100000Y-52898401D01*
X138285000Y-51617401D02*
X137100000Y-51617401D01*
X137910000Y-52418401D02*
X137100000Y-52418401D01*
X138265000Y-51697401D02*
X137100000Y-51697401D01*
X138322000Y-51417401D02*
X137100000Y-51417401D01*
X138380000Y-51137401D02*
G75*
G03*
X138380000Y-51137401I-2120000J0D01*
G01*
%TO.C,C6*%
X143350000Y-51457401D02*
X142134000Y-51457401D01*
X145541000Y-52738401D02*
X145030000Y-52738401D01*
X145706000Y-52578401D02*
X145030000Y-52578401D01*
X143350000Y-52898401D02*
X143048000Y-52898401D01*
X145586000Y-52698401D02*
X145030000Y-52698401D01*
X145668000Y-52618401D02*
X145030000Y-52618401D01*
X143350000Y-52578401D02*
X142674000Y-52578401D01*
X143350000Y-51417401D02*
X142128000Y-51417401D01*
X143350000Y-52058401D02*
X142320000Y-52058401D01*
X143350000Y-51737401D02*
X142196000Y-51737401D01*
X146224000Y-51577401D02*
X145030000Y-51577401D01*
X144727000Y-53178401D02*
X143653000Y-53178401D01*
X144560000Y-53218401D02*
X143820000Y-53218401D01*
X146269000Y-51217401D02*
X142111000Y-51217401D01*
X146261000Y-51337401D02*
X145030000Y-51337401D01*
X146130000Y-51898401D02*
X145030000Y-51898401D01*
X145130000Y-53018401D02*
X143250000Y-53018401D01*
X145628000Y-52658401D02*
X145030000Y-52658401D01*
X145870000Y-52378401D02*
X145030000Y-52378401D01*
X146158000Y-51817401D02*
X145030000Y-51817401D01*
X143350000Y-51898401D02*
X142250000Y-51898401D01*
X146144000Y-51858401D02*
X145030000Y-51858401D01*
X146267000Y-51257401D02*
X142113000Y-51257401D01*
X146270000Y-51177401D02*
X142110000Y-51177401D01*
X146257000Y-51377401D02*
X145030000Y-51377401D01*
X146041000Y-52098401D02*
X145030000Y-52098401D01*
X143350000Y-52618401D02*
X142712000Y-52618401D01*
X146060000Y-52058401D02*
X145030000Y-52058401D01*
X143350000Y-51617401D02*
X142165000Y-51617401D01*
X143350000Y-52218401D02*
X142405000Y-52218401D01*
X145444000Y-52818401D02*
X145030000Y-52818401D01*
X145925000Y-52298401D02*
X145030000Y-52298401D01*
X143350000Y-52338401D02*
X142482000Y-52338401D01*
X143350000Y-51497401D02*
X142140000Y-51497401D01*
X143350000Y-51697401D02*
X142185000Y-51697401D01*
X143350000Y-52178401D02*
X142382000Y-52178401D01*
X143350000Y-51657401D02*
X142174000Y-51657401D01*
X143350000Y-51777401D02*
X142208000Y-51777401D01*
X143350000Y-52658401D02*
X142752000Y-52658401D01*
X143350000Y-51858401D02*
X142236000Y-51858401D01*
X143350000Y-51978401D02*
X142283000Y-51978401D01*
X143350000Y-52858401D02*
X142990000Y-52858401D01*
X145494000Y-52778401D02*
X145030000Y-52778401D01*
X145742000Y-52538401D02*
X145030000Y-52538401D01*
X143350000Y-52498401D02*
X142603000Y-52498401D01*
X143350000Y-52818401D02*
X142936000Y-52818401D01*
X145203000Y-52978401D02*
X143177000Y-52978401D01*
X145809000Y-52458401D02*
X145030000Y-52458401D01*
X143350000Y-52258401D02*
X142430000Y-52258401D01*
X145950000Y-52258401D02*
X145030000Y-52258401D01*
X145390000Y-52858401D02*
X145030000Y-52858401D01*
X146020000Y-52138401D02*
X145030000Y-52138401D01*
X146079000Y-52018401D02*
X145030000Y-52018401D01*
X143350000Y-52298401D02*
X142455000Y-52298401D01*
X146114000Y-51938401D02*
X145030000Y-51938401D01*
X143350000Y-52778401D02*
X142886000Y-52778401D01*
X143350000Y-51577401D02*
X142156000Y-51577401D01*
X143350000Y-52378401D02*
X142510000Y-52378401D01*
X145385000Y-48867600D02*
X145385000Y-49267600D01*
X146246000Y-51457401D02*
X145030000Y-51457401D01*
X144958000Y-53098401D02*
X143422000Y-53098401D01*
X146172000Y-51777401D02*
X145030000Y-51777401D01*
X145585000Y-49067600D02*
X145185000Y-49067600D01*
X143350000Y-52098401D02*
X142339000Y-52098401D01*
X145998000Y-52178401D02*
X145030000Y-52178401D01*
X146232000Y-51537401D02*
X145030000Y-51537401D01*
X143350000Y-52698401D02*
X142794000Y-52698401D01*
X145975000Y-52218401D02*
X145030000Y-52218401D01*
X145777000Y-52498401D02*
X145030000Y-52498401D01*
X143350000Y-51938401D02*
X142266000Y-51938401D01*
X143350000Y-52458401D02*
X142571000Y-52458401D01*
X146184000Y-51737401D02*
X145030000Y-51737401D01*
X143350000Y-51537401D02*
X142148000Y-51537401D01*
X146097000Y-51978401D02*
X145030000Y-51978401D01*
X146264000Y-51297401D02*
X142116000Y-51297401D01*
X143350000Y-51817401D02*
X142222000Y-51817401D01*
X143350000Y-52138401D02*
X142360000Y-52138401D01*
X143350000Y-52418401D02*
X142540000Y-52418401D01*
X143350000Y-52938401D02*
X143110000Y-52938401D01*
X145270000Y-52938401D02*
X145030000Y-52938401D01*
X143350000Y-52018401D02*
X142301000Y-52018401D01*
X146270000Y-51137401D02*
X142110000Y-51137401D01*
X145898000Y-52338401D02*
X145030000Y-52338401D01*
X144854000Y-53138401D02*
X143526000Y-53138401D01*
X143350000Y-51377401D02*
X142123000Y-51377401D01*
X143350000Y-52538401D02*
X142638000Y-52538401D01*
X145049000Y-53058401D02*
X143331000Y-53058401D01*
X143350000Y-51337401D02*
X142119000Y-51337401D01*
X146206000Y-51657401D02*
X145030000Y-51657401D01*
X143350000Y-52738401D02*
X142839000Y-52738401D01*
X146240000Y-51497401D02*
X145030000Y-51497401D01*
X145332000Y-52898401D02*
X145030000Y-52898401D01*
X146215000Y-51617401D02*
X145030000Y-51617401D01*
X145840000Y-52418401D02*
X145030000Y-52418401D01*
X146195000Y-51697401D02*
X145030000Y-51697401D01*
X146252000Y-51417401D02*
X145030000Y-51417401D01*
X146310000Y-51137401D02*
G75*
G03*
X146310000Y-51137401I-2120000J0D01*
G01*
%TO.C,C5*%
X135420000Y-56347401D02*
X134204000Y-56347401D01*
X137611000Y-57628401D02*
X137100000Y-57628401D01*
X137776000Y-57468401D02*
X137100000Y-57468401D01*
X135420000Y-57788401D02*
X135118000Y-57788401D01*
X137656000Y-57588401D02*
X137100000Y-57588401D01*
X137738000Y-57508401D02*
X137100000Y-57508401D01*
X135420000Y-57468401D02*
X134744000Y-57468401D01*
X135420000Y-56307401D02*
X134198000Y-56307401D01*
X135420000Y-56948401D02*
X134390000Y-56948401D01*
X135420000Y-56627401D02*
X134266000Y-56627401D01*
X138294000Y-56467401D02*
X137100000Y-56467401D01*
X136797000Y-58068401D02*
X135723000Y-58068401D01*
X136630000Y-58108401D02*
X135890000Y-58108401D01*
X138339000Y-56107401D02*
X134181000Y-56107401D01*
X138331000Y-56227401D02*
X137100000Y-56227401D01*
X138200000Y-56788401D02*
X137100000Y-56788401D01*
X137200000Y-57908401D02*
X135320000Y-57908401D01*
X137698000Y-57548401D02*
X137100000Y-57548401D01*
X137940000Y-57268401D02*
X137100000Y-57268401D01*
X138228000Y-56707401D02*
X137100000Y-56707401D01*
X135420000Y-56788401D02*
X134320000Y-56788401D01*
X138214000Y-56748401D02*
X137100000Y-56748401D01*
X138337000Y-56147401D02*
X134183000Y-56147401D01*
X138340000Y-56067401D02*
X134180000Y-56067401D01*
X138327000Y-56267401D02*
X137100000Y-56267401D01*
X138111000Y-56988401D02*
X137100000Y-56988401D01*
X135420000Y-57508401D02*
X134782000Y-57508401D01*
X138130000Y-56948401D02*
X137100000Y-56948401D01*
X135420000Y-56507401D02*
X134235000Y-56507401D01*
X135420000Y-57108401D02*
X134475000Y-57108401D01*
X137514000Y-57708401D02*
X137100000Y-57708401D01*
X137995000Y-57188401D02*
X137100000Y-57188401D01*
X135420000Y-57228401D02*
X134552000Y-57228401D01*
X135420000Y-56387401D02*
X134210000Y-56387401D01*
X135420000Y-56587401D02*
X134255000Y-56587401D01*
X135420000Y-57068401D02*
X134452000Y-57068401D01*
X135420000Y-56547401D02*
X134244000Y-56547401D01*
X135420000Y-56667401D02*
X134278000Y-56667401D01*
X135420000Y-57548401D02*
X134822000Y-57548401D01*
X135420000Y-56748401D02*
X134306000Y-56748401D01*
X135420000Y-56868401D02*
X134353000Y-56868401D01*
X135420000Y-57748401D02*
X135060000Y-57748401D01*
X137564000Y-57668401D02*
X137100000Y-57668401D01*
X137812000Y-57428401D02*
X137100000Y-57428401D01*
X135420000Y-57388401D02*
X134673000Y-57388401D01*
X135420000Y-57708401D02*
X135006000Y-57708401D01*
X137273000Y-57868401D02*
X135247000Y-57868401D01*
X137879000Y-57348401D02*
X137100000Y-57348401D01*
X135420000Y-57148401D02*
X134500000Y-57148401D01*
X138020000Y-57148401D02*
X137100000Y-57148401D01*
X137460000Y-57748401D02*
X137100000Y-57748401D01*
X138090000Y-57028401D02*
X137100000Y-57028401D01*
X138149000Y-56908401D02*
X137100000Y-56908401D01*
X135420000Y-57188401D02*
X134525000Y-57188401D01*
X138184000Y-56828401D02*
X137100000Y-56828401D01*
X135420000Y-57668401D02*
X134956000Y-57668401D01*
X135420000Y-56467401D02*
X134226000Y-56467401D01*
X135420000Y-57268401D02*
X134580000Y-57268401D01*
X137455000Y-53757600D02*
X137455000Y-54157600D01*
X138316000Y-56347401D02*
X137100000Y-56347401D01*
X137028000Y-57988401D02*
X135492000Y-57988401D01*
X138242000Y-56667401D02*
X137100000Y-56667401D01*
X137655000Y-53957600D02*
X137255000Y-53957600D01*
X135420000Y-56988401D02*
X134409000Y-56988401D01*
X138068000Y-57068401D02*
X137100000Y-57068401D01*
X138302000Y-56427401D02*
X137100000Y-56427401D01*
X135420000Y-57588401D02*
X134864000Y-57588401D01*
X138045000Y-57108401D02*
X137100000Y-57108401D01*
X137847000Y-57388401D02*
X137100000Y-57388401D01*
X135420000Y-56828401D02*
X134336000Y-56828401D01*
X135420000Y-57348401D02*
X134641000Y-57348401D01*
X138254000Y-56627401D02*
X137100000Y-56627401D01*
X135420000Y-56427401D02*
X134218000Y-56427401D01*
X138167000Y-56868401D02*
X137100000Y-56868401D01*
X138334000Y-56187401D02*
X134186000Y-56187401D01*
X135420000Y-56707401D02*
X134292000Y-56707401D01*
X135420000Y-57028401D02*
X134430000Y-57028401D01*
X135420000Y-57308401D02*
X134610000Y-57308401D01*
X135420000Y-57828401D02*
X135180000Y-57828401D01*
X137340000Y-57828401D02*
X137100000Y-57828401D01*
X135420000Y-56908401D02*
X134371000Y-56908401D01*
X138340000Y-56027401D02*
X134180000Y-56027401D01*
X137968000Y-57228401D02*
X137100000Y-57228401D01*
X136924000Y-58028401D02*
X135596000Y-58028401D01*
X135420000Y-56267401D02*
X134193000Y-56267401D01*
X135420000Y-57428401D02*
X134708000Y-57428401D01*
X137119000Y-57948401D02*
X135401000Y-57948401D01*
X135420000Y-56227401D02*
X134189000Y-56227401D01*
X138276000Y-56547401D02*
X137100000Y-56547401D01*
X135420000Y-57628401D02*
X134909000Y-57628401D01*
X138310000Y-56387401D02*
X137100000Y-56387401D01*
X137402000Y-57788401D02*
X137100000Y-57788401D01*
X138285000Y-56507401D02*
X137100000Y-56507401D01*
X137910000Y-57308401D02*
X137100000Y-57308401D01*
X138265000Y-56587401D02*
X137100000Y-56587401D01*
X138322000Y-56307401D02*
X137100000Y-56307401D01*
X138380000Y-56027401D02*
G75*
G03*
X138380000Y-56027401I-2120000J0D01*
G01*
%TO.C,C4*%
X101840000Y-57625000D02*
X101840000Y-57640000D01*
X106380000Y-55500000D02*
X106380000Y-55515000D01*
X101840000Y-55500000D02*
X101840000Y-55515000D01*
X106380000Y-57625000D02*
X106380000Y-57640000D01*
X101840000Y-55500000D02*
X106380000Y-55500000D01*
X101840000Y-57640000D02*
X106380000Y-57640000D01*
%TO.C,C3*%
X103491000Y-75210000D02*
X103491000Y-75823000D01*
X102811000Y-75210000D02*
X102811000Y-76394000D01*
X101690000Y-75210000D02*
X101690000Y-76743000D01*
X102731000Y-71902000D02*
X102731000Y-73130000D01*
X102611000Y-71841000D02*
X102611000Y-73130000D01*
X102651000Y-71860000D02*
X102651000Y-73130000D01*
X103171000Y-72199000D02*
X103171000Y-73130000D01*
X103451000Y-75210000D02*
X103451000Y-75869000D01*
X103131000Y-75210000D02*
X103131000Y-76174000D01*
X101650000Y-71594000D02*
X101650000Y-73130000D01*
X103051000Y-72105000D02*
X103051000Y-73130000D01*
X101530000Y-75210000D02*
X101530000Y-76750000D01*
X102211000Y-75210000D02*
X102211000Y-76650000D01*
X102371000Y-71742000D02*
X102371000Y-73130000D01*
X102411000Y-71756000D02*
X102411000Y-73130000D01*
X103251000Y-72269000D02*
X103251000Y-73130000D01*
X102090000Y-71659000D02*
X102090000Y-73130000D01*
X101730000Y-75210000D02*
X101730000Y-76739000D01*
X102331000Y-75210000D02*
X102331000Y-76612000D01*
X102050000Y-75210000D02*
X102050000Y-76690000D01*
X102771000Y-75210000D02*
X102771000Y-76417000D01*
X102891000Y-75210000D02*
X102891000Y-76345000D01*
X101610000Y-75210000D02*
X101610000Y-76748000D01*
X102010000Y-71642000D02*
X102010000Y-73130000D01*
X102931000Y-72021000D02*
X102931000Y-73130000D01*
X103331000Y-72344000D02*
X103331000Y-73130000D01*
X103491000Y-72517000D02*
X103491000Y-73130000D01*
X102531000Y-75210000D02*
X102531000Y-76535000D01*
X101490000Y-71590000D02*
X101490000Y-73130000D01*
X101810000Y-71609000D02*
X101810000Y-73130000D01*
X102531000Y-71805000D02*
X102531000Y-73130000D01*
X101970000Y-71634000D02*
X101970000Y-73130000D01*
X103971000Y-73365000D02*
X103971000Y-74975000D01*
X103771000Y-72919000D02*
X103771000Y-75421000D01*
X103611000Y-72670000D02*
X103611000Y-75670000D01*
X101850000Y-75210000D02*
X101850000Y-76726000D01*
X102571000Y-75210000D02*
X102571000Y-76518000D01*
X104011000Y-73493000D02*
X104011000Y-74847000D01*
X103051000Y-75210000D02*
X103051000Y-76235000D01*
X103011000Y-75210000D02*
X103011000Y-76265000D01*
X102251000Y-71702000D02*
X102251000Y-73130000D01*
X102491000Y-75210000D02*
X102491000Y-76552000D01*
X102371000Y-75210000D02*
X102371000Y-76598000D01*
X102571000Y-71822000D02*
X102571000Y-73130000D01*
X102731000Y-75210000D02*
X102731000Y-76438000D01*
X103371000Y-72385000D02*
X103371000Y-73130000D01*
X103011000Y-72075000D02*
X103011000Y-73130000D01*
X101810000Y-75210000D02*
X101810000Y-76731000D01*
X102411000Y-75210000D02*
X102411000Y-76584000D01*
X102451000Y-75210000D02*
X102451000Y-76568000D01*
X101650000Y-75210000D02*
X101650000Y-76746000D01*
X102491000Y-71788000D02*
X102491000Y-73130000D01*
X102170000Y-71679000D02*
X102170000Y-73130000D01*
X103891000Y-73159000D02*
X103891000Y-75181000D01*
X103571000Y-72616000D02*
X103571000Y-75724000D01*
X103931000Y-73255000D02*
X103931000Y-75085000D01*
X98685225Y-72695000D02*
X99185225Y-72695000D01*
X101490000Y-75210000D02*
X101490000Y-76750000D01*
X102291000Y-71715000D02*
X102291000Y-73130000D01*
X102971000Y-72048000D02*
X102971000Y-73130000D01*
X102691000Y-75210000D02*
X102691000Y-76460000D01*
X102851000Y-71970000D02*
X102851000Y-73130000D01*
X103291000Y-72306000D02*
X103291000Y-73130000D01*
X103411000Y-75210000D02*
X103411000Y-75913000D01*
X103851000Y-73072000D02*
X103851000Y-75268000D01*
X101610000Y-71592000D02*
X101610000Y-73130000D01*
X101770000Y-71605000D02*
X101770000Y-73130000D01*
X101570000Y-71591000D02*
X101570000Y-73130000D01*
X101690000Y-71597000D02*
X101690000Y-73130000D01*
X103291000Y-75210000D02*
X103291000Y-76034000D01*
X102611000Y-75210000D02*
X102611000Y-76499000D01*
X104051000Y-73652000D02*
X104051000Y-74688000D01*
X104091000Y-73886000D02*
X104091000Y-74454000D01*
X102090000Y-75210000D02*
X102090000Y-76681000D01*
X103211000Y-75210000D02*
X103211000Y-76107000D01*
X102651000Y-75210000D02*
X102651000Y-76480000D01*
X101890000Y-75210000D02*
X101890000Y-76720000D01*
X103731000Y-72851000D02*
X103731000Y-75489000D01*
X103691000Y-72787000D02*
X103691000Y-75553000D01*
X102451000Y-71772000D02*
X102451000Y-73130000D01*
X102771000Y-71923000D02*
X102771000Y-73130000D01*
X103811000Y-72992000D02*
X103811000Y-75348000D01*
X102851000Y-75210000D02*
X102851000Y-76370000D01*
X103411000Y-72427000D02*
X103411000Y-73130000D01*
X103091000Y-72135000D02*
X103091000Y-73130000D01*
X103531000Y-72565000D02*
X103531000Y-75775000D01*
X102971000Y-75210000D02*
X102971000Y-76292000D01*
X102251000Y-75210000D02*
X102251000Y-76638000D01*
X102010000Y-75210000D02*
X102010000Y-76698000D01*
X102331000Y-71728000D02*
X102331000Y-73130000D01*
X101850000Y-71614000D02*
X101850000Y-73130000D01*
X101930000Y-75210000D02*
X101930000Y-76713000D01*
X103651000Y-72727000D02*
X103651000Y-75613000D01*
X103331000Y-75210000D02*
X103331000Y-75996000D01*
X102291000Y-75210000D02*
X102291000Y-76625000D01*
X101770000Y-75210000D02*
X101770000Y-76735000D01*
X101570000Y-75210000D02*
X101570000Y-76749000D01*
X102170000Y-75210000D02*
X102170000Y-76661000D01*
X103371000Y-75210000D02*
X103371000Y-75955000D01*
X102211000Y-71690000D02*
X102211000Y-73130000D01*
X103131000Y-72166000D02*
X103131000Y-73130000D01*
X102931000Y-75210000D02*
X102931000Y-76319000D01*
X102891000Y-71995000D02*
X102891000Y-73130000D01*
X102691000Y-71880000D02*
X102691000Y-73130000D01*
X101730000Y-71601000D02*
X101730000Y-73130000D01*
X103211000Y-72233000D02*
X103211000Y-73130000D01*
X101930000Y-71627000D02*
X101930000Y-73130000D01*
X102130000Y-75210000D02*
X102130000Y-76671000D01*
X102811000Y-71946000D02*
X102811000Y-73130000D01*
X98935225Y-72445000D02*
X98935225Y-72945000D01*
X101890000Y-71620000D02*
X101890000Y-73130000D01*
X103171000Y-75210000D02*
X103171000Y-76141000D01*
X101970000Y-75210000D02*
X101970000Y-76706000D01*
X102050000Y-71650000D02*
X102050000Y-73130000D01*
X103091000Y-75210000D02*
X103091000Y-76205000D01*
X103251000Y-75210000D02*
X103251000Y-76071000D01*
X101530000Y-71590000D02*
X101530000Y-73130000D01*
X102130000Y-71669000D02*
X102130000Y-73130000D01*
X103451000Y-72471000D02*
X103451000Y-73130000D01*
X104110000Y-74170000D02*
G75*
G03*
X104110000Y-74170000I-2620000J0D01*
G01*
%TO.C,C2*%
X105555000Y-49450000D02*
X105540000Y-49450000D01*
X107680000Y-53990000D02*
X107665000Y-53990000D01*
X107680000Y-49450000D02*
X107665000Y-49450000D01*
X105555000Y-53990000D02*
X105540000Y-53990000D01*
X107680000Y-49450000D02*
X107680000Y-53990000D01*
X105540000Y-49450000D02*
X105540000Y-53990000D01*
%TO.C,C1*%
X102371000Y-51300000D02*
X102371000Y-51913000D01*
X101691000Y-51300000D02*
X101691000Y-52484000D01*
X100570000Y-51300000D02*
X100570000Y-52833000D01*
X101611000Y-47992000D02*
X101611000Y-49220000D01*
X101491000Y-47931000D02*
X101491000Y-49220000D01*
X101531000Y-47950000D02*
X101531000Y-49220000D01*
X102051000Y-48289000D02*
X102051000Y-49220000D01*
X102331000Y-51300000D02*
X102331000Y-51959000D01*
X102011000Y-51300000D02*
X102011000Y-52264000D01*
X100530000Y-47684000D02*
X100530000Y-49220000D01*
X101931000Y-48195000D02*
X101931000Y-49220000D01*
X100410000Y-51300000D02*
X100410000Y-52840000D01*
X101091000Y-51300000D02*
X101091000Y-52740000D01*
X101251000Y-47832000D02*
X101251000Y-49220000D01*
X101291000Y-47846000D02*
X101291000Y-49220000D01*
X102131000Y-48359000D02*
X102131000Y-49220000D01*
X100970000Y-47749000D02*
X100970000Y-49220000D01*
X100610000Y-51300000D02*
X100610000Y-52829000D01*
X101211000Y-51300000D02*
X101211000Y-52702000D01*
X100930000Y-51300000D02*
X100930000Y-52780000D01*
X101651000Y-51300000D02*
X101651000Y-52507000D01*
X101771000Y-51300000D02*
X101771000Y-52435000D01*
X100490000Y-51300000D02*
X100490000Y-52838000D01*
X100890000Y-47732000D02*
X100890000Y-49220000D01*
X101811000Y-48111000D02*
X101811000Y-49220000D01*
X102211000Y-48434000D02*
X102211000Y-49220000D01*
X102371000Y-48607000D02*
X102371000Y-49220000D01*
X101411000Y-51300000D02*
X101411000Y-52625000D01*
X100370000Y-47680000D02*
X100370000Y-49220000D01*
X100690000Y-47699000D02*
X100690000Y-49220000D01*
X101411000Y-47895000D02*
X101411000Y-49220000D01*
X100850000Y-47724000D02*
X100850000Y-49220000D01*
X102851000Y-49455000D02*
X102851000Y-51065000D01*
X102651000Y-49009000D02*
X102651000Y-51511000D01*
X102491000Y-48760000D02*
X102491000Y-51760000D01*
X100730000Y-51300000D02*
X100730000Y-52816000D01*
X101451000Y-51300000D02*
X101451000Y-52608000D01*
X102891000Y-49583000D02*
X102891000Y-50937000D01*
X101931000Y-51300000D02*
X101931000Y-52325000D01*
X101891000Y-51300000D02*
X101891000Y-52355000D01*
X101131000Y-47792000D02*
X101131000Y-49220000D01*
X101371000Y-51300000D02*
X101371000Y-52642000D01*
X101251000Y-51300000D02*
X101251000Y-52688000D01*
X101451000Y-47912000D02*
X101451000Y-49220000D01*
X101611000Y-51300000D02*
X101611000Y-52528000D01*
X102251000Y-48475000D02*
X102251000Y-49220000D01*
X101891000Y-48165000D02*
X101891000Y-49220000D01*
X100690000Y-51300000D02*
X100690000Y-52821000D01*
X101291000Y-51300000D02*
X101291000Y-52674000D01*
X101331000Y-51300000D02*
X101331000Y-52658000D01*
X100530000Y-51300000D02*
X100530000Y-52836000D01*
X101371000Y-47878000D02*
X101371000Y-49220000D01*
X101050000Y-47769000D02*
X101050000Y-49220000D01*
X102771000Y-49249000D02*
X102771000Y-51271000D01*
X102451000Y-48706000D02*
X102451000Y-51814000D01*
X102811000Y-49345000D02*
X102811000Y-51175000D01*
X97565225Y-48785000D02*
X98065225Y-48785000D01*
X100370000Y-51300000D02*
X100370000Y-52840000D01*
X101171000Y-47805000D02*
X101171000Y-49220000D01*
X101851000Y-48138000D02*
X101851000Y-49220000D01*
X101571000Y-51300000D02*
X101571000Y-52550000D01*
X101731000Y-48060000D02*
X101731000Y-49220000D01*
X102171000Y-48396000D02*
X102171000Y-49220000D01*
X102291000Y-51300000D02*
X102291000Y-52003000D01*
X102731000Y-49162000D02*
X102731000Y-51358000D01*
X100490000Y-47682000D02*
X100490000Y-49220000D01*
X100650000Y-47695000D02*
X100650000Y-49220000D01*
X100450000Y-47681000D02*
X100450000Y-49220000D01*
X100570000Y-47687000D02*
X100570000Y-49220000D01*
X102171000Y-51300000D02*
X102171000Y-52124000D01*
X101491000Y-51300000D02*
X101491000Y-52589000D01*
X102931000Y-49742000D02*
X102931000Y-50778000D01*
X102971000Y-49976000D02*
X102971000Y-50544000D01*
X100970000Y-51300000D02*
X100970000Y-52771000D01*
X102091000Y-51300000D02*
X102091000Y-52197000D01*
X101531000Y-51300000D02*
X101531000Y-52570000D01*
X100770000Y-51300000D02*
X100770000Y-52810000D01*
X102611000Y-48941000D02*
X102611000Y-51579000D01*
X102571000Y-48877000D02*
X102571000Y-51643000D01*
X101331000Y-47862000D02*
X101331000Y-49220000D01*
X101651000Y-48013000D02*
X101651000Y-49220000D01*
X102691000Y-49082000D02*
X102691000Y-51438000D01*
X101731000Y-51300000D02*
X101731000Y-52460000D01*
X102291000Y-48517000D02*
X102291000Y-49220000D01*
X101971000Y-48225000D02*
X101971000Y-49220000D01*
X102411000Y-48655000D02*
X102411000Y-51865000D01*
X101851000Y-51300000D02*
X101851000Y-52382000D01*
X101131000Y-51300000D02*
X101131000Y-52728000D01*
X100890000Y-51300000D02*
X100890000Y-52788000D01*
X101211000Y-47818000D02*
X101211000Y-49220000D01*
X100730000Y-47704000D02*
X100730000Y-49220000D01*
X100810000Y-51300000D02*
X100810000Y-52803000D01*
X102531000Y-48817000D02*
X102531000Y-51703000D01*
X102211000Y-51300000D02*
X102211000Y-52086000D01*
X101171000Y-51300000D02*
X101171000Y-52715000D01*
X100650000Y-51300000D02*
X100650000Y-52825000D01*
X100450000Y-51300000D02*
X100450000Y-52839000D01*
X101050000Y-51300000D02*
X101050000Y-52751000D01*
X102251000Y-51300000D02*
X102251000Y-52045000D01*
X101091000Y-47780000D02*
X101091000Y-49220000D01*
X102011000Y-48256000D02*
X102011000Y-49220000D01*
X101811000Y-51300000D02*
X101811000Y-52409000D01*
X101771000Y-48085000D02*
X101771000Y-49220000D01*
X101571000Y-47970000D02*
X101571000Y-49220000D01*
X100610000Y-47691000D02*
X100610000Y-49220000D01*
X102091000Y-48323000D02*
X102091000Y-49220000D01*
X100810000Y-47717000D02*
X100810000Y-49220000D01*
X101010000Y-51300000D02*
X101010000Y-52761000D01*
X101691000Y-48036000D02*
X101691000Y-49220000D01*
X97815225Y-48535000D02*
X97815225Y-49035000D01*
X100770000Y-47710000D02*
X100770000Y-49220000D01*
X102051000Y-51300000D02*
X102051000Y-52231000D01*
X100850000Y-51300000D02*
X100850000Y-52796000D01*
X100930000Y-47740000D02*
X100930000Y-49220000D01*
X101971000Y-51300000D02*
X101971000Y-52295000D01*
X102131000Y-51300000D02*
X102131000Y-52161000D01*
X100410000Y-47680000D02*
X100410000Y-49220000D01*
X101010000Y-47759000D02*
X101010000Y-49220000D01*
X102331000Y-48561000D02*
X102331000Y-49220000D01*
X102990000Y-50260000D02*
G75*
G03*
X102990000Y-50260000I-2620000J0D01*
G01*
%TD*%
M02*
