%TF.GenerationSoftware,KiCad,Pcbnew,7.0.7*%
%TF.CreationDate,2024-03-20T00:35:15+00:00*%
%TF.ProjectId,TIMPS2Key,54494d50-5332-44b6-9579-2e6b69636164,rev?*%
%TF.SameCoordinates,Original*%
%TF.FileFunction,Copper,L2,Bot*%
%TF.FilePolarity,Positive*%
%FSLAX46Y46*%
G04 Gerber Fmt 4.6, Leading zero omitted, Abs format (unit mm)*
G04 Created by KiCad (PCBNEW 7.0.7) date 2024-03-20 00:35:15*
%MOMM*%
%LPD*%
G01*
G04 APERTURE LIST*
%TA.AperFunction,ComponentPad*%
%ADD10R,1.905000X2.000000*%
%TD*%
%TA.AperFunction,ComponentPad*%
%ADD11O,1.905000X2.000000*%
%TD*%
%TA.AperFunction,ComponentPad*%
%ADD12R,1.600000X1.600000*%
%TD*%
%TA.AperFunction,ComponentPad*%
%ADD13O,1.600000X1.600000*%
%TD*%
%TA.AperFunction,ComponentPad*%
%ADD14C,1.400000*%
%TD*%
%TA.AperFunction,ComponentPad*%
%ADD15O,1.400000X1.400000*%
%TD*%
%TA.AperFunction,ComponentPad*%
%ADD16R,1.700000X1.700000*%
%TD*%
%TA.AperFunction,ComponentPad*%
%ADD17O,1.700000X1.700000*%
%TD*%
%TA.AperFunction,ComponentPad*%
%ADD18C,1.600000*%
%TD*%
%TA.AperFunction,ComponentPad*%
%ADD19O,3.500000X2.000000*%
%TD*%
%TA.AperFunction,ComponentPad*%
%ADD20O,2.000000X4.000000*%
%TD*%
%TA.AperFunction,ComponentPad*%
%ADD21R,2.100000X2.100000*%
%TD*%
%TA.AperFunction,ComponentPad*%
%ADD22C,2.100000*%
%TD*%
%TA.AperFunction,ComponentPad*%
%ADD23R,1.800000X1.800000*%
%TD*%
%TA.AperFunction,ComponentPad*%
%ADD24C,1.800000*%
%TD*%
%TA.AperFunction,ComponentPad*%
%ADD25R,1.200000X1.200000*%
%TD*%
%TA.AperFunction,ComponentPad*%
%ADD26C,1.200000*%
%TD*%
%TA.AperFunction,Conductor*%
%ADD27C,0.600000*%
%TD*%
%TA.AperFunction,Conductor*%
%ADD28C,0.400000*%
%TD*%
G04 APERTURE END LIST*
D10*
%TO.P,U3,1,VI*%
%TO.N,+12V*%
X90280000Y-76650000D03*
D11*
%TO.P,U3,2,GND*%
%TO.N,GND*%
X92820000Y-76650000D03*
%TO.P,U3,3,VO*%
%TO.N,+5V*%
X95360000Y-76650000D03*
%TD*%
D12*
%TO.P,U2,1,C1+*%
%TO.N,Net-(U2-C1+)*%
X128880000Y-49360000D03*
D13*
%TO.P,U2,2,VS+*%
%TO.N,Net-(U2-VS+)*%
X126340000Y-49360000D03*
%TO.P,U2,3,C1-*%
%TO.N,Net-(U2-C1-)*%
X123800000Y-49360000D03*
%TO.P,U2,4,C2+*%
%TO.N,Net-(U2-C2+)*%
X121260000Y-49360000D03*
%TO.P,U2,5,C2-*%
%TO.N,Net-(U2-C2-)*%
X118720000Y-49360000D03*
%TO.P,U2,6,VS-*%
%TO.N,Net-(U2-VS-)*%
X116180000Y-49360000D03*
%TO.P,U2,7,T2OUT*%
%TO.N,unconnected-(U2-T2OUT-Pad7)*%
X113640000Y-49360000D03*
%TO.P,U2,8,R2IN*%
%TO.N,GND*%
X111100000Y-49360000D03*
%TO.P,U2,9,R2OUT*%
%TO.N,unconnected-(U2-R2OUT-Pad9)*%
X111100000Y-56980000D03*
%TO.P,U2,10,T2IN*%
%TO.N,GND*%
X113640000Y-56980000D03*
%TO.P,U2,11,T1IN*%
%TO.N,Net-(U1-Pin_1)*%
X116180000Y-56980000D03*
%TO.P,U2,12,R1OUT*%
%TO.N,Net-(U1-Pin_2)*%
X118720000Y-56980000D03*
%TO.P,U2,13,R1IN*%
%TO.N,S_RX*%
X121260000Y-56980000D03*
%TO.P,U2,14,T1OUT*%
%TO.N,S_TX*%
X123800000Y-56980000D03*
%TO.P,U2,15,GND*%
%TO.N,GND*%
X126340000Y-56980000D03*
%TO.P,U2,16,VCC*%
%TO.N,+5V*%
X128880000Y-56980000D03*
%TD*%
D12*
%TO.P,U1,1,Pin_1*%
%TO.N,Net-(U1-Pin_1)*%
X146470000Y-61290000D03*
D13*
%TO.P,U1,2,Pin_2*%
%TO.N,Net-(U1-Pin_2)*%
X143930000Y-61290000D03*
%TO.P,U1,3,Pin_3*%
%TO.N,unconnected-(U1-Pin_3-Pad3)*%
X141390000Y-61290000D03*
%TO.P,U1,4,Pin_4*%
%TO.N,GND*%
X138850000Y-61290000D03*
%TO.P,U1,5,Pin_5*%
%TO.N,unconnected-(U1-Pin_5-Pad5)*%
X136310000Y-61290000D03*
%TO.P,U1,6,Pin_6*%
%TO.N,PS2-CLK*%
X133770000Y-61290000D03*
%TO.P,U1,7,Pin_7*%
%TO.N,unconnected-(U1-Pin_7-Pad7)*%
X131230000Y-61290000D03*
%TO.P,U1,8,Pin_8*%
%TO.N,unconnected-(U1-Pin_8-Pad8)*%
X128690000Y-61290000D03*
%TO.P,U1,9,Pin_9*%
%TO.N,unconnected-(U1-Pin_9-Pad9)*%
X126150000Y-61290000D03*
%TO.P,U1,10,Pin_10*%
%TO.N,unconnected-(U1-Pin_10-Pad10)*%
X123610000Y-61290000D03*
%TO.P,U1,11,Pin_11*%
%TO.N,unconnected-(U1-Pin_11-Pad11)*%
X121070000Y-61290000D03*
%TO.P,U1,12,Pin_12*%
%TO.N,unconnected-(U1-Pin_12-Pad12)*%
X118530000Y-61290000D03*
%TO.P,U1,13,Pin_13*%
%TO.N,unconnected-(U1-Pin_13-Pad13)*%
X115990000Y-61290000D03*
%TO.P,U1,14,Pin_14*%
%TO.N,unconnected-(U1-Pin_14-Pad14)*%
X113450000Y-61290000D03*
%TO.P,U1,15,Pin_15*%
%TO.N,PS2-DATA*%
X110910000Y-61290000D03*
%TO.P,U1,16,Pin_16*%
%TO.N,unconnected-(U1-Pin_16-Pad16)*%
X110910000Y-76530000D03*
%TO.P,U1,17,Pin_17*%
%TO.N,unconnected-(U1-Pin_17-Pad17)*%
X113450000Y-76530000D03*
%TO.P,U1,18,Pin_18*%
%TO.N,unconnected-(U1-Pin_18-Pad18)*%
X115990000Y-76530000D03*
%TO.P,U1,19,Pin_19*%
%TO.N,unconnected-(U1-Pin_19-Pad19)*%
X118530000Y-76530000D03*
%TO.P,U1,20,Pin_20*%
%TO.N,unconnected-(U1-Pin_20-Pad20)*%
X121070000Y-76530000D03*
%TO.P,U1,21,Pin_21*%
%TO.N,unconnected-(U1-Pin_21-Pad21)*%
X123610000Y-76530000D03*
%TO.P,U1,22,Pin_22*%
%TO.N,unconnected-(U1-Pin_22-Pad22)*%
X126150000Y-76530000D03*
%TO.P,U1,23,Pin_23*%
%TO.N,unconnected-(U1-Pin_23-Pad23)*%
X128690000Y-76530000D03*
%TO.P,U1,24,Pin_24*%
%TO.N,unconnected-(U1-Pin_24-Pad24)*%
X131230000Y-76530000D03*
%TO.P,U1,25,Pin_25*%
%TO.N,unconnected-(U1-Pin_25-Pad25)*%
X133770000Y-76530000D03*
%TO.P,U1,26,Pin_26*%
%TO.N,unconnected-(U1-Pin_26-Pad26)*%
X136310000Y-76530000D03*
%TO.P,U1,27,Pin_27*%
%TO.N,+5V*%
X138850000Y-76530000D03*
%TO.P,U1,28,Pin_28*%
%TO.N,unconnected-(U1-Pin_28-Pad28)*%
X141390000Y-76530000D03*
%TO.P,U1,29,Pin_29*%
%TO.N,GND*%
X143930000Y-76530000D03*
%TO.P,U1,30,Pin_30*%
%TO.N,unconnected-(U1-Pin_30-Pad30)*%
X146470000Y-76530000D03*
%TD*%
D14*
%TO.P,R1,1*%
%TO.N,+5V*%
X151510000Y-57700000D03*
D15*
%TO.P,R1,2*%
%TO.N,Net-(D1-A)*%
X151510000Y-50080000D03*
%TD*%
D16*
%TO.P,J3,1,Pin_1*%
%TO.N,+5V*%
X93000000Y-49930000D03*
D17*
%TO.P,J3,2,Pin_2*%
%TO.N,GND*%
X90460000Y-49930000D03*
%TD*%
D12*
%TO.P,J2,1*%
%TO.N,PS2-DATA*%
X159260000Y-61655000D03*
D18*
%TO.P,J2,2*%
%TO.N,unconnected-(J2-Pad2)*%
X159260000Y-64255000D03*
%TO.P,J2,3*%
%TO.N,GND*%
X159260000Y-59555000D03*
%TO.P,J2,4*%
%TO.N,+5V*%
X159260000Y-66355000D03*
%TO.P,J2,5*%
%TO.N,PS2-CLK*%
X156460000Y-59555000D03*
%TO.P,J2,6*%
%TO.N,unconnected-(J2-Pad6)*%
X156460000Y-66355000D03*
D19*
%TO.P,J2,7*%
%TO.N,GND*%
X162110000Y-69805000D03*
X162110000Y-56105000D03*
D20*
X162910000Y-62955000D03*
%TD*%
D21*
%TO.P,J1,1*%
%TO.N,GND*%
X93200000Y-70480000D03*
D22*
%TO.P,J1,2*%
%TO.N,S_TX*%
X93200000Y-62975000D03*
%TO.P,J1,3*%
%TO.N,S_RX*%
X93200000Y-55470000D03*
%TO.P,J1,4*%
%TO.N,+12V*%
X95690000Y-67980000D03*
%TO.P,J1,5*%
X95690000Y-57970000D03*
%TO.P,J1,G*%
%TO.N,GND*%
X83193200Y-67980000D03*
X83193200Y-65475000D03*
X83193200Y-62924200D03*
X83193200Y-60475000D03*
X83193200Y-57970000D03*
%TD*%
D23*
%TO.P,D1,1,K*%
%TO.N,GND*%
X157760000Y-51880000D03*
D24*
%TO.P,D1,2,A*%
%TO.N,Net-(D1-A)*%
X157760000Y-49340000D03*
%TD*%
D25*
%TO.P,C8,1*%
%TO.N,Net-(U2-C2+)*%
X144190000Y-55027401D03*
D26*
%TO.P,C8,2*%
%TO.N,Net-(U2-C2-)*%
X144190000Y-57027401D03*
%TD*%
D25*
%TO.P,C7,1*%
%TO.N,Net-(U2-C1+)*%
X136260000Y-50137401D03*
D26*
%TO.P,C7,2*%
%TO.N,Net-(U2-C1-)*%
X136260000Y-52137401D03*
%TD*%
D25*
%TO.P,C6,1*%
%TO.N,GND*%
X144190000Y-50137401D03*
D26*
%TO.P,C6,2*%
%TO.N,Net-(U2-VS-)*%
X144190000Y-52137401D03*
%TD*%
D25*
%TO.P,C5,1*%
%TO.N,Net-(U2-VS+)*%
X136260000Y-55027401D03*
D26*
%TO.P,C5,2*%
%TO.N,+5V*%
X136260000Y-57027401D03*
%TD*%
D18*
%TO.P,C4,1*%
%TO.N,GND*%
X101610000Y-56570000D03*
%TO.P,C4,2*%
%TO.N,+5V*%
X106610000Y-56570000D03*
%TD*%
D12*
%TO.P,C3,1*%
%TO.N,+12V*%
X100490000Y-74170000D03*
D18*
%TO.P,C3,2*%
%TO.N,GND*%
X102490000Y-74170000D03*
%TD*%
%TO.P,C2,1*%
%TO.N,GND*%
X106610000Y-49220000D03*
%TO.P,C2,2*%
%TO.N,+5V*%
X106610000Y-54220000D03*
%TD*%
D12*
%TO.P,C1,1*%
%TO.N,+5V*%
X99370000Y-50260000D03*
D18*
%TO.P,C1,2*%
%TO.N,GND*%
X101370000Y-50260000D03*
%TD*%
D27*
%TO.N,GND*%
X93200000Y-76270000D02*
X92820000Y-76650000D01*
X93200000Y-70480000D02*
X93200000Y-76270000D01*
D28*
%TO.N,Net-(U1-Pin_2)*%
X143130000Y-63900000D02*
X143930000Y-63100000D01*
X143930000Y-63100000D02*
X143930000Y-61290000D01*
X120950000Y-63900000D02*
X143130000Y-63900000D01*
X119730000Y-62680000D02*
X120950000Y-63900000D01*
X119730000Y-59220000D02*
X119730000Y-62680000D01*
X118720000Y-58210000D02*
X119730000Y-59220000D01*
X118720000Y-56980000D02*
X118720000Y-58210000D01*
%TO.N,Net-(U1-Pin_1)*%
X146470000Y-63570000D02*
X146470000Y-61290000D01*
X118360000Y-64500000D02*
X145540000Y-64500000D01*
X117190000Y-63330000D02*
X118360000Y-64500000D01*
X117190000Y-59800000D02*
X117190000Y-63330000D01*
X116180000Y-58790000D02*
X117190000Y-59800000D01*
X116180000Y-56980000D02*
X116180000Y-58790000D01*
X145540000Y-64500000D02*
X146470000Y-63570000D01*
D27*
%TO.N,GND*%
X102270000Y-78630000D02*
X103050000Y-78630000D01*
X102490000Y-74170000D02*
X102490000Y-78410000D01*
X93190000Y-78630000D02*
X102270000Y-78630000D01*
X102490000Y-78410000D02*
X102270000Y-78630000D01*
X136890000Y-59330000D02*
X128690000Y-59330000D01*
X138850000Y-61290000D02*
X136890000Y-59330000D01*
X128690000Y-59330000D02*
X126340000Y-56980000D01*
X143930000Y-78590000D02*
X143970000Y-78630000D01*
X143930000Y-76530000D02*
X143930000Y-78590000D01*
X117100000Y-78630000D02*
X143970000Y-78630000D01*
X143970000Y-78630000D02*
X158820000Y-78630000D01*
D28*
%TO.N,Net-(U2-VS-)*%
X138100000Y-58560000D02*
X144190000Y-52470000D01*
X144190000Y-52470000D02*
X144190000Y-52137401D01*
X129370000Y-54150000D02*
X133780000Y-58560000D01*
X120970000Y-54150000D02*
X129370000Y-54150000D01*
X116180000Y-49360000D02*
X120970000Y-54150000D01*
X133780000Y-58560000D02*
X138100000Y-58560000D01*
%TO.N,Net-(U2-VS+)*%
X132007401Y-55027401D02*
X136260000Y-55027401D01*
X126340000Y-49360000D02*
X132007401Y-55027401D01*
%TO.N,Net-(U2-C1+)*%
X135482599Y-49360000D02*
X136260000Y-50137401D01*
X128880000Y-49360000D02*
X135482599Y-49360000D01*
D27*
%TO.N,GND*%
X159260000Y-58955000D02*
X162110000Y-56105000D01*
X159260000Y-59555000D02*
X159260000Y-58955000D01*
X125020000Y-55300000D02*
X111960000Y-55300000D01*
X126340000Y-56620000D02*
X125020000Y-55300000D01*
X126340000Y-56980000D02*
X126340000Y-56620000D01*
X111960000Y-55300000D02*
X113640000Y-56980000D01*
X111100000Y-54440000D02*
X111960000Y-55300000D01*
X93200000Y-70480000D02*
X88195000Y-65475000D01*
X88195000Y-65475000D02*
X83193200Y-65475000D01*
X93200000Y-78620000D02*
X93190000Y-78630000D01*
X87150000Y-78630000D02*
X93190000Y-78630000D01*
X103050000Y-78630000D02*
X117100000Y-78630000D01*
X111100000Y-49360000D02*
X111100000Y-54440000D01*
X144190000Y-47090000D02*
X144150000Y-47050000D01*
X144190000Y-50137401D02*
X144190000Y-47090000D01*
X144150000Y-47050000D02*
X111000000Y-47050000D01*
X152930000Y-47050000D02*
X144150000Y-47050000D01*
X111100000Y-47150000D02*
X111000000Y-47050000D01*
X111000000Y-47050000D02*
X106810000Y-47050000D01*
X111100000Y-49360000D02*
X111100000Y-47150000D01*
X106610000Y-47250000D02*
X106810000Y-47050000D01*
X106610000Y-49220000D02*
X106610000Y-47250000D01*
X106810000Y-47050000D02*
X101170000Y-47050000D01*
X101370000Y-47250000D02*
X101170000Y-47050000D01*
X101370000Y-50260000D02*
X101370000Y-47250000D01*
X101170000Y-47050000D02*
X91300000Y-47050000D01*
X101370000Y-56330000D02*
X101610000Y-56570000D01*
X101370000Y-50260000D02*
X101370000Y-56330000D01*
X83193200Y-57196800D02*
X83193200Y-57970000D01*
X90460000Y-49930000D02*
X83193200Y-57196800D01*
X90460000Y-47890000D02*
X90460000Y-49930000D01*
X91300000Y-47050000D02*
X90460000Y-47890000D01*
X157760000Y-51880000D02*
X152930000Y-47050000D01*
X162110000Y-56105000D02*
X161985000Y-56105000D01*
X161985000Y-56105000D02*
X157760000Y-51880000D01*
X162910000Y-56905000D02*
X162110000Y-56105000D01*
X162910000Y-62955000D02*
X162910000Y-56905000D01*
X162910000Y-69005000D02*
X162110000Y-69805000D01*
X162910000Y-62955000D02*
X162910000Y-69005000D01*
X85960000Y-77440000D02*
X87150000Y-78630000D01*
X158820000Y-78630000D02*
X162110000Y-75340000D01*
X85960000Y-70746800D02*
X85960000Y-77440000D01*
X162110000Y-75340000D02*
X162110000Y-69805000D01*
X83193200Y-67980000D02*
X85960000Y-70746800D01*
X83193200Y-57970000D02*
X83193200Y-67980000D01*
%TD*%
%TA.AperFunction,Conductor*%
%TO.N,GND*%
G36*
X139027512Y-61789507D02*
G01*
X139080315Y-61835262D01*
X139100000Y-61902301D01*
X139100000Y-62568872D01*
X139296317Y-62516269D01*
X139296326Y-62516265D01*
X139502482Y-62420134D01*
X139688820Y-62289657D01*
X139849657Y-62128820D01*
X139980132Y-61942484D01*
X140007341Y-61884134D01*
X140053513Y-61831695D01*
X140120707Y-61812542D01*
X140187588Y-61832757D01*
X140232105Y-61884132D01*
X140240578Y-61902301D01*
X140259431Y-61942732D01*
X140259432Y-61942734D01*
X140389954Y-62129141D01*
X140550858Y-62290045D01*
X140550861Y-62290047D01*
X140737266Y-62420568D01*
X140943504Y-62516739D01*
X140943509Y-62516740D01*
X140943511Y-62516741D01*
X140996415Y-62530916D01*
X141163308Y-62575635D01*
X141325230Y-62589801D01*
X141389998Y-62595468D01*
X141390000Y-62595468D01*
X141390002Y-62595468D01*
X141446807Y-62590498D01*
X141616692Y-62575635D01*
X141836496Y-62516739D01*
X142042734Y-62420568D01*
X142229139Y-62290047D01*
X142390047Y-62129139D01*
X142520568Y-61942734D01*
X142547618Y-61884724D01*
X142593790Y-61832285D01*
X142660983Y-61813133D01*
X142727865Y-61833348D01*
X142772381Y-61884724D01*
X142780578Y-61902301D01*
X142799429Y-61942728D01*
X142799432Y-61942734D01*
X142929954Y-62129141D01*
X143090857Y-62290044D01*
X143090860Y-62290046D01*
X143090861Y-62290047D01*
X143176623Y-62350097D01*
X143220248Y-62404673D01*
X143229500Y-62451672D01*
X143229500Y-62758481D01*
X143209815Y-62825520D01*
X143193181Y-62846162D01*
X142876162Y-63163181D01*
X142814839Y-63196666D01*
X142788481Y-63199500D01*
X121291518Y-63199500D01*
X121224479Y-63179815D01*
X121203837Y-63163181D01*
X120879861Y-62839205D01*
X120835426Y-62794769D01*
X120801942Y-62733448D01*
X120806926Y-62663756D01*
X120848798Y-62607823D01*
X120914262Y-62583406D01*
X120933913Y-62583561D01*
X121013193Y-62590498D01*
X121069999Y-62595468D01*
X121070000Y-62595468D01*
X121070002Y-62595468D01*
X121126807Y-62590498D01*
X121296692Y-62575635D01*
X121516496Y-62516739D01*
X121722734Y-62420568D01*
X121909139Y-62290047D01*
X122070047Y-62129139D01*
X122200568Y-61942734D01*
X122227618Y-61884724D01*
X122273790Y-61832285D01*
X122340983Y-61813133D01*
X122407865Y-61833348D01*
X122452381Y-61884724D01*
X122460578Y-61902301D01*
X122479429Y-61942728D01*
X122479432Y-61942734D01*
X122609954Y-62129141D01*
X122770858Y-62290045D01*
X122770861Y-62290047D01*
X122957266Y-62420568D01*
X123163504Y-62516739D01*
X123163509Y-62516740D01*
X123163511Y-62516741D01*
X123216415Y-62530916D01*
X123383308Y-62575635D01*
X123545230Y-62589801D01*
X123609998Y-62595468D01*
X123610000Y-62595468D01*
X123610002Y-62595468D01*
X123666807Y-62590498D01*
X123836692Y-62575635D01*
X124056496Y-62516739D01*
X124262734Y-62420568D01*
X124449139Y-62290047D01*
X124610047Y-62129139D01*
X124740568Y-61942734D01*
X124767618Y-61884724D01*
X124813790Y-61832285D01*
X124880983Y-61813133D01*
X124947865Y-61833348D01*
X124992381Y-61884724D01*
X125000578Y-61902301D01*
X125019429Y-61942728D01*
X125019432Y-61942734D01*
X125149954Y-62129141D01*
X125310858Y-62290045D01*
X125310861Y-62290047D01*
X125497266Y-62420568D01*
X125703504Y-62516739D01*
X125703509Y-62516740D01*
X125703511Y-62516741D01*
X125756415Y-62530916D01*
X125923308Y-62575635D01*
X126085230Y-62589801D01*
X126149998Y-62595468D01*
X126150000Y-62595468D01*
X126150002Y-62595468D01*
X126206807Y-62590498D01*
X126376692Y-62575635D01*
X126596496Y-62516739D01*
X126802734Y-62420568D01*
X126989139Y-62290047D01*
X127150047Y-62129139D01*
X127280568Y-61942734D01*
X127307618Y-61884724D01*
X127353790Y-61832285D01*
X127420983Y-61813133D01*
X127487865Y-61833348D01*
X127532381Y-61884724D01*
X127540578Y-61902301D01*
X127559429Y-61942728D01*
X127559432Y-61942734D01*
X127689954Y-62129141D01*
X127850858Y-62290045D01*
X127850861Y-62290047D01*
X128037266Y-62420568D01*
X128243504Y-62516739D01*
X128243509Y-62516740D01*
X128243511Y-62516741D01*
X128296415Y-62530916D01*
X128463308Y-62575635D01*
X128625230Y-62589801D01*
X128689998Y-62595468D01*
X128690000Y-62595468D01*
X128690002Y-62595468D01*
X128746807Y-62590498D01*
X128916692Y-62575635D01*
X129136496Y-62516739D01*
X129342734Y-62420568D01*
X129529139Y-62290047D01*
X129690047Y-62129139D01*
X129820568Y-61942734D01*
X129847618Y-61884724D01*
X129893790Y-61832285D01*
X129960983Y-61813133D01*
X130027865Y-61833348D01*
X130072381Y-61884724D01*
X130080578Y-61902301D01*
X130099429Y-61942728D01*
X130099432Y-61942734D01*
X130229954Y-62129141D01*
X130390858Y-62290045D01*
X130390861Y-62290047D01*
X130577266Y-62420568D01*
X130783504Y-62516739D01*
X130783509Y-62516740D01*
X130783511Y-62516741D01*
X130836415Y-62530916D01*
X131003308Y-62575635D01*
X131165230Y-62589801D01*
X131229998Y-62595468D01*
X131230000Y-62595468D01*
X131230002Y-62595468D01*
X131286807Y-62590498D01*
X131456692Y-62575635D01*
X131676496Y-62516739D01*
X131882734Y-62420568D01*
X132069139Y-62290047D01*
X132230047Y-62129139D01*
X132360568Y-61942734D01*
X132387618Y-61884724D01*
X132433790Y-61832285D01*
X132500983Y-61813133D01*
X132567865Y-61833348D01*
X132612381Y-61884724D01*
X132620578Y-61902301D01*
X132639429Y-61942728D01*
X132639432Y-61942734D01*
X132769954Y-62129141D01*
X132930858Y-62290045D01*
X132930861Y-62290047D01*
X133117266Y-62420568D01*
X133323504Y-62516739D01*
X133323509Y-62516740D01*
X133323511Y-62516741D01*
X133376415Y-62530916D01*
X133543308Y-62575635D01*
X133705230Y-62589801D01*
X133769998Y-62595468D01*
X133770000Y-62595468D01*
X133770002Y-62595468D01*
X133826807Y-62590498D01*
X133996692Y-62575635D01*
X134216496Y-62516739D01*
X134422734Y-62420568D01*
X134609139Y-62290047D01*
X134770047Y-62129139D01*
X134900568Y-61942734D01*
X134927618Y-61884724D01*
X134973790Y-61832285D01*
X135040983Y-61813133D01*
X135107865Y-61833348D01*
X135152381Y-61884724D01*
X135160578Y-61902301D01*
X135179429Y-61942728D01*
X135179432Y-61942734D01*
X135309954Y-62129141D01*
X135470858Y-62290045D01*
X135470861Y-62290047D01*
X135657266Y-62420568D01*
X135863504Y-62516739D01*
X135863509Y-62516740D01*
X135863511Y-62516741D01*
X135916415Y-62530916D01*
X136083308Y-62575635D01*
X136245230Y-62589801D01*
X136309998Y-62595468D01*
X136310000Y-62595468D01*
X136310002Y-62595468D01*
X136366807Y-62590498D01*
X136536692Y-62575635D01*
X136756496Y-62516739D01*
X136962734Y-62420568D01*
X137149139Y-62290047D01*
X137310047Y-62129139D01*
X137440568Y-61942734D01*
X137467895Y-61884129D01*
X137514064Y-61831695D01*
X137581257Y-61812542D01*
X137648139Y-61832757D01*
X137692657Y-61884133D01*
X137719865Y-61942482D01*
X137850342Y-62128820D01*
X138011179Y-62289657D01*
X138197517Y-62420134D01*
X138403673Y-62516265D01*
X138403682Y-62516269D01*
X138599999Y-62568872D01*
X138600000Y-62568871D01*
X138600000Y-61902301D01*
X138619685Y-61835262D01*
X138672489Y-61789507D01*
X138741647Y-61779563D01*
X138814237Y-61790000D01*
X138814238Y-61790000D01*
X138885762Y-61790000D01*
X138885763Y-61790000D01*
X138958353Y-61779563D01*
X139027512Y-61789507D01*
G37*
%TD.AperFunction*%
%TA.AperFunction,Conductor*%
G36*
X167842539Y-46770185D02*
G01*
X167888294Y-46822989D01*
X167899500Y-46874500D01*
X167899500Y-78805500D01*
X167879815Y-78872539D01*
X167827011Y-78918294D01*
X167775500Y-78929500D01*
X80844000Y-78929500D01*
X80776961Y-78909815D01*
X80731206Y-78857011D01*
X80720000Y-78805500D01*
X80720000Y-77697870D01*
X88827000Y-77697870D01*
X88827001Y-77697876D01*
X88833408Y-77757483D01*
X88883702Y-77892328D01*
X88883706Y-77892335D01*
X88969952Y-78007544D01*
X88969955Y-78007547D01*
X89085164Y-78093793D01*
X89085171Y-78093797D01*
X89220017Y-78144091D01*
X89220016Y-78144091D01*
X89226944Y-78144835D01*
X89279627Y-78150500D01*
X91280372Y-78150499D01*
X91339983Y-78144091D01*
X91474831Y-78093796D01*
X91590046Y-78007546D01*
X91676296Y-77892331D01*
X91676297Y-77892328D01*
X91676298Y-77892327D01*
X91687907Y-77861199D01*
X91729776Y-77805264D01*
X91795240Y-77780844D01*
X91863513Y-77795694D01*
X91880252Y-77806675D01*
X92022831Y-77917649D01*
X92022840Y-77917655D01*
X92234531Y-78032215D01*
X92234545Y-78032221D01*
X92462207Y-78110379D01*
X92570000Y-78128366D01*
X92570000Y-77314652D01*
X92589685Y-77247613D01*
X92642489Y-77201858D01*
X92711647Y-77191914D01*
X92727447Y-77195248D01*
X92744404Y-77200000D01*
X92744406Y-77200000D01*
X92857622Y-77200000D01*
X92929116Y-77190173D01*
X92998210Y-77200545D01*
X93050729Y-77246627D01*
X93070000Y-77313018D01*
X93070000Y-78128365D01*
X93177792Y-78110379D01*
X93405454Y-78032221D01*
X93405468Y-78032215D01*
X93617159Y-77917655D01*
X93617168Y-77917649D01*
X93807116Y-77769806D01*
X93807126Y-77769797D01*
X93970154Y-77592702D01*
X93970155Y-77592701D01*
X93985891Y-77568616D01*
X94039036Y-77523258D01*
X94108267Y-77513833D01*
X94171604Y-77543333D01*
X94193510Y-77568614D01*
X94209446Y-77593007D01*
X94209448Y-77593009D01*
X94209449Y-77593010D01*
X94372537Y-77770171D01*
X94528908Y-77891879D01*
X94562017Y-77917649D01*
X94562561Y-77918072D01*
X94727891Y-78007544D01*
X94773478Y-78032215D01*
X94774336Y-78032679D01*
X94892598Y-78073278D01*
X95002083Y-78110865D01*
X95002085Y-78110865D01*
X95002087Y-78110866D01*
X95239601Y-78150500D01*
X95239602Y-78150500D01*
X95480398Y-78150500D01*
X95480399Y-78150500D01*
X95717913Y-78110866D01*
X95945664Y-78032679D01*
X96157439Y-77918072D01*
X96347463Y-77770171D01*
X96510551Y-77593010D01*
X96642255Y-77391422D01*
X96738983Y-77170905D01*
X96798095Y-76937476D01*
X96813000Y-76757600D01*
X96813000Y-76635683D01*
X107229500Y-76635683D01*
X107268338Y-76843450D01*
X107268339Y-76843452D01*
X107344690Y-77040539D01*
X107344691Y-77040540D01*
X107344692Y-77040542D01*
X107443424Y-77200000D01*
X107455963Y-77220250D01*
X107598355Y-77376448D01*
X107598358Y-77376450D01*
X107767032Y-77503827D01*
X107846371Y-77543333D01*
X107956237Y-77598040D01*
X107956243Y-77598043D01*
X108130011Y-77647483D01*
X108159536Y-77655884D01*
X108317271Y-77670500D01*
X108317275Y-77670500D01*
X108422725Y-77670500D01*
X108422729Y-77670500D01*
X108580464Y-77655884D01*
X108667350Y-77631162D01*
X108783756Y-77598043D01*
X108783758Y-77598041D01*
X108783761Y-77598041D01*
X108972968Y-77503827D01*
X109141642Y-77376450D01*
X109284038Y-77220249D01*
X109395308Y-77040542D01*
X109438529Y-76928974D01*
X109481102Y-76873574D01*
X109546869Y-76849983D01*
X109614949Y-76865694D01*
X109663728Y-76915718D01*
X109673931Y-76941676D01*
X109683258Y-76976488D01*
X109683261Y-76976497D01*
X109779431Y-77182732D01*
X109779432Y-77182734D01*
X109909954Y-77369141D01*
X110070858Y-77530045D01*
X110117693Y-77562839D01*
X110257266Y-77660568D01*
X110463504Y-77756739D01*
X110463509Y-77756740D01*
X110463511Y-77756741D01*
X110512237Y-77769797D01*
X110683308Y-77815635D01*
X110845230Y-77829801D01*
X110909998Y-77835468D01*
X110910000Y-77835468D01*
X110910002Y-77835468D01*
X110966672Y-77830509D01*
X111136692Y-77815635D01*
X111356496Y-77756739D01*
X111562734Y-77660568D01*
X111749139Y-77530047D01*
X111910047Y-77369139D01*
X112040568Y-77182734D01*
X112067618Y-77124724D01*
X112113790Y-77072285D01*
X112180983Y-77053133D01*
X112247865Y-77073348D01*
X112292382Y-77124725D01*
X112319429Y-77182728D01*
X112319432Y-77182734D01*
X112449954Y-77369141D01*
X112610858Y-77530045D01*
X112657693Y-77562839D01*
X112797266Y-77660568D01*
X113003504Y-77756739D01*
X113003509Y-77756740D01*
X113003511Y-77756741D01*
X113052237Y-77769797D01*
X113223308Y-77815635D01*
X113385230Y-77829801D01*
X113449998Y-77835468D01*
X113450000Y-77835468D01*
X113450002Y-77835468D01*
X113506673Y-77830509D01*
X113676692Y-77815635D01*
X113896496Y-77756739D01*
X114102734Y-77660568D01*
X114289139Y-77530047D01*
X114450047Y-77369139D01*
X114580568Y-77182734D01*
X114607618Y-77124724D01*
X114653790Y-77072285D01*
X114720983Y-77053133D01*
X114787865Y-77073348D01*
X114832382Y-77124725D01*
X114859429Y-77182728D01*
X114859432Y-77182734D01*
X114989954Y-77369141D01*
X115150858Y-77530045D01*
X115197693Y-77562839D01*
X115337266Y-77660568D01*
X115543504Y-77756739D01*
X115543509Y-77756740D01*
X115543511Y-77756741D01*
X115592237Y-77769797D01*
X115763308Y-77815635D01*
X115925230Y-77829801D01*
X115989998Y-77835468D01*
X115990000Y-77835468D01*
X115990002Y-77835468D01*
X116046672Y-77830509D01*
X116216692Y-77815635D01*
X116436496Y-77756739D01*
X116642734Y-77660568D01*
X116829139Y-77530047D01*
X116990047Y-77369139D01*
X117120568Y-77182734D01*
X117147619Y-77124721D01*
X117193788Y-77072286D01*
X117260981Y-77053133D01*
X117327862Y-77073348D01*
X117372380Y-77124722D01*
X117399432Y-77182734D01*
X117412823Y-77201858D01*
X117529954Y-77369141D01*
X117690858Y-77530045D01*
X117737693Y-77562839D01*
X117877266Y-77660568D01*
X118083504Y-77756739D01*
X118083509Y-77756740D01*
X118083511Y-77756741D01*
X118132237Y-77769797D01*
X118303308Y-77815635D01*
X118465230Y-77829801D01*
X118529998Y-77835468D01*
X118530000Y-77835468D01*
X118530002Y-77835468D01*
X118586673Y-77830509D01*
X118756692Y-77815635D01*
X118976496Y-77756739D01*
X119182734Y-77660568D01*
X119369139Y-77530047D01*
X119530047Y-77369139D01*
X119660568Y-77182734D01*
X119687619Y-77124721D01*
X119733788Y-77072286D01*
X119800981Y-77053133D01*
X119867862Y-77073348D01*
X119912380Y-77124722D01*
X119939432Y-77182734D01*
X119952823Y-77201858D01*
X120069954Y-77369141D01*
X120230858Y-77530045D01*
X120277693Y-77562839D01*
X120417266Y-77660568D01*
X120623504Y-77756739D01*
X120623509Y-77756740D01*
X120623511Y-77756741D01*
X120672237Y-77769797D01*
X120843308Y-77815635D01*
X121005230Y-77829801D01*
X121069998Y-77835468D01*
X121070000Y-77835468D01*
X121070002Y-77835468D01*
X121126672Y-77830509D01*
X121296692Y-77815635D01*
X121516496Y-77756739D01*
X121722734Y-77660568D01*
X121909139Y-77530047D01*
X122070047Y-77369139D01*
X122200568Y-77182734D01*
X122227618Y-77124724D01*
X122273790Y-77072285D01*
X122340983Y-77053133D01*
X122407865Y-77073348D01*
X122452382Y-77124725D01*
X122479429Y-77182728D01*
X122479432Y-77182734D01*
X122609954Y-77369141D01*
X122770858Y-77530045D01*
X122817693Y-77562839D01*
X122957266Y-77660568D01*
X123163504Y-77756739D01*
X123163509Y-77756740D01*
X123163511Y-77756741D01*
X123212237Y-77769797D01*
X123383308Y-77815635D01*
X123545230Y-77829801D01*
X123609998Y-77835468D01*
X123610000Y-77835468D01*
X123610002Y-77835468D01*
X123666672Y-77830509D01*
X123836692Y-77815635D01*
X124056496Y-77756739D01*
X124262734Y-77660568D01*
X124449139Y-77530047D01*
X124610047Y-77369139D01*
X124740568Y-77182734D01*
X124767618Y-77124724D01*
X124813790Y-77072285D01*
X124880983Y-77053133D01*
X124947865Y-77073348D01*
X124992382Y-77124725D01*
X125019429Y-77182728D01*
X125019432Y-77182734D01*
X125149954Y-77369141D01*
X125310858Y-77530045D01*
X125357693Y-77562839D01*
X125497266Y-77660568D01*
X125703504Y-77756739D01*
X125703509Y-77756740D01*
X125703511Y-77756741D01*
X125752237Y-77769797D01*
X125923308Y-77815635D01*
X126085230Y-77829801D01*
X126149998Y-77835468D01*
X126150000Y-77835468D01*
X126150002Y-77835468D01*
X126206672Y-77830509D01*
X126376692Y-77815635D01*
X126596496Y-77756739D01*
X126802734Y-77660568D01*
X126989139Y-77530047D01*
X127150047Y-77369139D01*
X127280568Y-77182734D01*
X127307618Y-77124724D01*
X127353790Y-77072285D01*
X127420983Y-77053133D01*
X127487865Y-77073348D01*
X127532382Y-77124725D01*
X127559429Y-77182728D01*
X127559432Y-77182734D01*
X127689954Y-77369141D01*
X127850858Y-77530045D01*
X127897693Y-77562839D01*
X128037266Y-77660568D01*
X128243504Y-77756739D01*
X128243509Y-77756740D01*
X128243511Y-77756741D01*
X128292237Y-77769797D01*
X128463308Y-77815635D01*
X128625230Y-77829801D01*
X128689998Y-77835468D01*
X128690000Y-77835468D01*
X128690002Y-77835468D01*
X128746673Y-77830509D01*
X128916692Y-77815635D01*
X129136496Y-77756739D01*
X129342734Y-77660568D01*
X129529139Y-77530047D01*
X129690047Y-77369139D01*
X129820568Y-77182734D01*
X129847618Y-77124724D01*
X129893790Y-77072285D01*
X129960983Y-77053133D01*
X130027865Y-77073348D01*
X130072382Y-77124725D01*
X130099429Y-77182728D01*
X130099432Y-77182734D01*
X130229954Y-77369141D01*
X130390858Y-77530045D01*
X130437693Y-77562839D01*
X130577266Y-77660568D01*
X130783504Y-77756739D01*
X130783509Y-77756740D01*
X130783511Y-77756741D01*
X130832237Y-77769797D01*
X131003308Y-77815635D01*
X131165230Y-77829801D01*
X131229998Y-77835468D01*
X131230000Y-77835468D01*
X131230002Y-77835468D01*
X131286672Y-77830509D01*
X131456692Y-77815635D01*
X131676496Y-77756739D01*
X131882734Y-77660568D01*
X132069139Y-77530047D01*
X132230047Y-77369139D01*
X132360568Y-77182734D01*
X132387618Y-77124724D01*
X132433790Y-77072285D01*
X132500983Y-77053133D01*
X132567865Y-77073348D01*
X132612382Y-77124725D01*
X132639429Y-77182728D01*
X132639432Y-77182734D01*
X132769954Y-77369141D01*
X132930858Y-77530045D01*
X132977693Y-77562839D01*
X133117266Y-77660568D01*
X133323504Y-77756739D01*
X133323509Y-77756740D01*
X133323511Y-77756741D01*
X133372237Y-77769797D01*
X133543308Y-77815635D01*
X133705230Y-77829801D01*
X133769998Y-77835468D01*
X133770000Y-77835468D01*
X133770002Y-77835468D01*
X133826673Y-77830509D01*
X133996692Y-77815635D01*
X134216496Y-77756739D01*
X134422734Y-77660568D01*
X134609139Y-77530047D01*
X134770047Y-77369139D01*
X134900568Y-77182734D01*
X134927618Y-77124724D01*
X134973790Y-77072285D01*
X135040983Y-77053133D01*
X135107865Y-77073348D01*
X135152382Y-77124725D01*
X135179429Y-77182728D01*
X135179432Y-77182734D01*
X135309954Y-77369141D01*
X135470858Y-77530045D01*
X135517693Y-77562839D01*
X135657266Y-77660568D01*
X135863504Y-77756739D01*
X135863509Y-77756740D01*
X135863511Y-77756741D01*
X135912237Y-77769797D01*
X136083308Y-77815635D01*
X136245230Y-77829801D01*
X136309998Y-77835468D01*
X136310000Y-77835468D01*
X136310002Y-77835468D01*
X136366673Y-77830509D01*
X136536692Y-77815635D01*
X136756496Y-77756739D01*
X136962734Y-77660568D01*
X137149139Y-77530047D01*
X137310047Y-77369139D01*
X137440568Y-77182734D01*
X137467618Y-77124724D01*
X137513790Y-77072285D01*
X137580983Y-77053133D01*
X137647865Y-77073348D01*
X137692382Y-77124725D01*
X137719429Y-77182728D01*
X137719432Y-77182734D01*
X137849954Y-77369141D01*
X138010858Y-77530045D01*
X138057693Y-77562839D01*
X138197266Y-77660568D01*
X138403504Y-77756739D01*
X138403509Y-77756740D01*
X138403511Y-77756741D01*
X138452237Y-77769797D01*
X138623308Y-77815635D01*
X138785230Y-77829801D01*
X138849998Y-77835468D01*
X138850000Y-77835468D01*
X138850002Y-77835468D01*
X138906673Y-77830509D01*
X139076692Y-77815635D01*
X139296496Y-77756739D01*
X139502734Y-77660568D01*
X139689139Y-77530047D01*
X139850047Y-77369139D01*
X139980568Y-77182734D01*
X140007618Y-77124724D01*
X140053790Y-77072285D01*
X140120983Y-77053133D01*
X140187865Y-77073348D01*
X140232382Y-77124725D01*
X140259429Y-77182728D01*
X140259432Y-77182734D01*
X140389954Y-77369141D01*
X140550858Y-77530045D01*
X140597693Y-77562839D01*
X140737266Y-77660568D01*
X140943504Y-77756739D01*
X140943509Y-77756740D01*
X140943511Y-77756741D01*
X140992237Y-77769797D01*
X141163308Y-77815635D01*
X141325230Y-77829801D01*
X141389998Y-77835468D01*
X141390000Y-77835468D01*
X141390002Y-77835468D01*
X141446672Y-77830509D01*
X141616692Y-77815635D01*
X141836496Y-77756739D01*
X142042734Y-77660568D01*
X142229139Y-77530047D01*
X142390047Y-77369139D01*
X142520568Y-77182734D01*
X142547895Y-77124129D01*
X142594064Y-77071695D01*
X142661257Y-77052542D01*
X142728139Y-77072757D01*
X142772657Y-77124133D01*
X142799865Y-77182482D01*
X142930342Y-77368820D01*
X143091179Y-77529657D01*
X143277517Y-77660134D01*
X143483673Y-77756265D01*
X143483682Y-77756269D01*
X143679999Y-77808872D01*
X143680000Y-77808871D01*
X143680000Y-77142301D01*
X143699685Y-77075262D01*
X143752489Y-77029507D01*
X143821647Y-77019563D01*
X143894237Y-77030000D01*
X143894238Y-77030000D01*
X143965762Y-77030000D01*
X143965763Y-77030000D01*
X144038353Y-77019563D01*
X144107512Y-77029507D01*
X144160315Y-77075262D01*
X144180000Y-77142301D01*
X144180000Y-77808872D01*
X144376317Y-77756269D01*
X144376326Y-77756265D01*
X144582482Y-77660134D01*
X144768820Y-77529657D01*
X144929657Y-77368820D01*
X145060132Y-77182484D01*
X145087341Y-77124134D01*
X145133513Y-77071695D01*
X145200707Y-77052542D01*
X145267588Y-77072757D01*
X145312105Y-77124132D01*
X145319769Y-77140567D01*
X145339431Y-77182732D01*
X145339432Y-77182734D01*
X145469954Y-77369141D01*
X145630858Y-77530045D01*
X145677693Y-77562839D01*
X145817266Y-77660568D01*
X146023504Y-77756739D01*
X146023509Y-77756740D01*
X146023511Y-77756741D01*
X146072237Y-77769797D01*
X146243308Y-77815635D01*
X146405230Y-77829801D01*
X146469998Y-77835468D01*
X146470000Y-77835468D01*
X146470002Y-77835468D01*
X146526672Y-77830509D01*
X146696692Y-77815635D01*
X146916496Y-77756739D01*
X147122734Y-77660568D01*
X147309139Y-77530047D01*
X147470047Y-77369139D01*
X147600568Y-77182734D01*
X147696739Y-76976496D01*
X147706069Y-76941675D01*
X147742430Y-76882018D01*
X147805276Y-76851487D01*
X147874652Y-76859779D01*
X147928531Y-76904263D01*
X147941469Y-76928974D01*
X147984688Y-77040533D01*
X147984691Y-77040539D01*
X147984692Y-77040542D01*
X148083424Y-77200000D01*
X148095963Y-77220250D01*
X148238355Y-77376448D01*
X148238358Y-77376450D01*
X148407032Y-77503827D01*
X148486371Y-77543333D01*
X148596237Y-77598040D01*
X148596243Y-77598043D01*
X148770011Y-77647483D01*
X148799536Y-77655884D01*
X148957271Y-77670500D01*
X148957275Y-77670500D01*
X149062725Y-77670500D01*
X149062729Y-77670500D01*
X149220464Y-77655884D01*
X149307350Y-77631162D01*
X149423756Y-77598043D01*
X149423758Y-77598041D01*
X149423761Y-77598041D01*
X149612968Y-77503827D01*
X149781642Y-77376450D01*
X149924038Y-77220249D01*
X150035308Y-77040542D01*
X150111662Y-76843450D01*
X150150500Y-76635683D01*
X150150500Y-76424317D01*
X150111662Y-76216550D01*
X150035308Y-76019458D01*
X150029452Y-76010001D01*
X163604532Y-76010001D01*
X163624364Y-76236686D01*
X163624366Y-76236697D01*
X163683258Y-76456488D01*
X163683261Y-76456497D01*
X163779431Y-76662732D01*
X163779432Y-76662734D01*
X163909954Y-76849141D01*
X164070858Y-77010045D01*
X164070861Y-77010047D01*
X164257266Y-77140568D01*
X164463504Y-77236739D01*
X164463509Y-77236740D01*
X164463511Y-77236741D01*
X164516415Y-77250916D01*
X164683308Y-77295635D01*
X164853216Y-77310500D01*
X164966784Y-77310500D01*
X165136692Y-77295635D01*
X165356496Y-77236739D01*
X165562734Y-77140568D01*
X165749139Y-77010047D01*
X165910047Y-76849139D01*
X166040568Y-76662734D01*
X166136739Y-76456496D01*
X166195635Y-76236692D01*
X166214640Y-76019460D01*
X166215468Y-76010001D01*
X166215468Y-76009998D01*
X166195635Y-75783313D01*
X166195635Y-75783308D01*
X166136739Y-75563504D01*
X166040568Y-75357266D01*
X165910047Y-75170861D01*
X165910045Y-75170858D01*
X165749141Y-75009954D01*
X165562734Y-74879432D01*
X165562732Y-74879431D01*
X165356497Y-74783261D01*
X165356488Y-74783258D01*
X165136697Y-74724366D01*
X165136687Y-74724364D01*
X164966784Y-74709500D01*
X164853216Y-74709500D01*
X164683312Y-74724364D01*
X164683302Y-74724366D01*
X164463511Y-74783258D01*
X164463502Y-74783261D01*
X164257267Y-74879431D01*
X164257265Y-74879432D01*
X164070858Y-75009954D01*
X163909954Y-75170858D01*
X163779432Y-75357265D01*
X163779431Y-75357267D01*
X163683261Y-75563502D01*
X163683258Y-75563511D01*
X163624366Y-75783302D01*
X163624364Y-75783313D01*
X163604532Y-76009998D01*
X163604532Y-76010001D01*
X150029452Y-76010001D01*
X149924038Y-75839751D01*
X149872588Y-75783313D01*
X149781644Y-75683551D01*
X149612968Y-75556173D01*
X149423762Y-75461959D01*
X149423756Y-75461956D01*
X149220466Y-75404116D01*
X149220463Y-75404115D01*
X149108472Y-75393738D01*
X149062729Y-75389500D01*
X148957271Y-75389500D01*
X148914619Y-75393452D01*
X148799536Y-75404115D01*
X148799533Y-75404116D01*
X148596243Y-75461956D01*
X148596237Y-75461959D01*
X148407031Y-75556173D01*
X148238355Y-75683551D01*
X148095963Y-75839749D01*
X147984691Y-76019459D01*
X147984687Y-76019466D01*
X147941469Y-76131025D01*
X147898896Y-76186426D01*
X147833129Y-76210016D01*
X147765049Y-76194304D01*
X147716270Y-76144280D01*
X147706069Y-76118326D01*
X147696739Y-76083504D01*
X147600568Y-75877266D01*
X147470047Y-75690861D01*
X147470045Y-75690858D01*
X147309141Y-75529954D01*
X147122734Y-75399432D01*
X147122732Y-75399431D01*
X146916497Y-75303261D01*
X146916488Y-75303258D01*
X146696697Y-75244366D01*
X146696693Y-75244365D01*
X146696692Y-75244365D01*
X146696691Y-75244364D01*
X146696686Y-75244364D01*
X146470002Y-75224532D01*
X146469998Y-75224532D01*
X146243313Y-75244364D01*
X146243302Y-75244366D01*
X146023511Y-75303258D01*
X146023502Y-75303261D01*
X145817267Y-75399431D01*
X145817265Y-75399432D01*
X145630858Y-75529954D01*
X145469954Y-75690858D01*
X145365701Y-75839749D01*
X145339432Y-75877266D01*
X145312383Y-75935274D01*
X145312106Y-75935867D01*
X145265933Y-75988306D01*
X145198739Y-76007457D01*
X145131858Y-75987241D01*
X145087342Y-75935865D01*
X145060135Y-75877520D01*
X145060134Y-75877518D01*
X144929657Y-75691179D01*
X144768820Y-75530342D01*
X144582482Y-75399865D01*
X144376328Y-75303734D01*
X144180000Y-75251127D01*
X144180000Y-75917698D01*
X144160315Y-75984737D01*
X144107511Y-76030492D01*
X144038355Y-76040436D01*
X143965766Y-76030000D01*
X143965763Y-76030000D01*
X143894237Y-76030000D01*
X143894233Y-76030000D01*
X143821645Y-76040436D01*
X143752487Y-76030492D01*
X143699684Y-75984736D01*
X143680000Y-75917698D01*
X143680000Y-75251127D01*
X143483671Y-75303734D01*
X143277517Y-75399865D01*
X143091179Y-75530342D01*
X142930342Y-75691179D01*
X142799867Y-75877515D01*
X142772657Y-75935867D01*
X142726484Y-75988306D01*
X142659290Y-76007457D01*
X142592409Y-75987241D01*
X142547893Y-75935865D01*
X142547617Y-75935274D01*
X142520568Y-75877266D01*
X142390047Y-75690861D01*
X142390045Y-75690858D01*
X142229141Y-75529954D01*
X142042734Y-75399432D01*
X142042732Y-75399431D01*
X141836497Y-75303261D01*
X141836488Y-75303258D01*
X141616697Y-75244366D01*
X141616693Y-75244365D01*
X141616692Y-75244365D01*
X141616691Y-75244364D01*
X141616686Y-75244364D01*
X141390002Y-75224532D01*
X141389998Y-75224532D01*
X141163313Y-75244364D01*
X141163302Y-75244366D01*
X140943511Y-75303258D01*
X140943502Y-75303261D01*
X140737267Y-75399431D01*
X140737265Y-75399432D01*
X140550858Y-75529954D01*
X140389954Y-75690858D01*
X140259432Y-75877265D01*
X140259431Y-75877267D01*
X140232382Y-75935275D01*
X140186209Y-75987714D01*
X140119016Y-76006866D01*
X140052135Y-75986650D01*
X140007618Y-75935275D01*
X139999422Y-75917698D01*
X139980568Y-75877266D01*
X139850047Y-75690861D01*
X139850045Y-75690858D01*
X139689141Y-75529954D01*
X139502734Y-75399432D01*
X139502732Y-75399431D01*
X139296497Y-75303261D01*
X139296488Y-75303258D01*
X139076697Y-75244366D01*
X139076693Y-75244365D01*
X139076692Y-75244365D01*
X139076691Y-75244364D01*
X139076686Y-75244364D01*
X138850002Y-75224532D01*
X138849998Y-75224532D01*
X138623313Y-75244364D01*
X138623302Y-75244366D01*
X138403511Y-75303258D01*
X138403502Y-75303261D01*
X138197267Y-75399431D01*
X138197265Y-75399432D01*
X138010858Y-75529954D01*
X137849954Y-75690858D01*
X137719432Y-75877265D01*
X137719431Y-75877267D01*
X137692382Y-75935275D01*
X137646209Y-75987714D01*
X137579016Y-76006866D01*
X137512135Y-75986650D01*
X137467618Y-75935275D01*
X137459422Y-75917698D01*
X137440568Y-75877266D01*
X137310047Y-75690861D01*
X137310045Y-75690858D01*
X137149141Y-75529954D01*
X136962734Y-75399432D01*
X136962732Y-75399431D01*
X136756497Y-75303261D01*
X136756488Y-75303258D01*
X136536697Y-75244366D01*
X136536693Y-75244365D01*
X136536692Y-75244365D01*
X136536691Y-75244364D01*
X136536686Y-75244364D01*
X136310002Y-75224532D01*
X136309998Y-75224532D01*
X136083313Y-75244364D01*
X136083302Y-75244366D01*
X135863511Y-75303258D01*
X135863502Y-75303261D01*
X135657267Y-75399431D01*
X135657265Y-75399432D01*
X135470858Y-75529954D01*
X135309954Y-75690858D01*
X135179432Y-75877265D01*
X135179431Y-75877267D01*
X135152382Y-75935275D01*
X135106209Y-75987714D01*
X135039016Y-76006866D01*
X134972135Y-75986650D01*
X134927618Y-75935275D01*
X134919422Y-75917698D01*
X134900568Y-75877266D01*
X134770047Y-75690861D01*
X134770045Y-75690858D01*
X134609141Y-75529954D01*
X134422734Y-75399432D01*
X134422732Y-75399431D01*
X134216497Y-75303261D01*
X134216488Y-75303258D01*
X133996697Y-75244366D01*
X133996693Y-75244365D01*
X133996692Y-75244365D01*
X133996691Y-75244364D01*
X133996686Y-75244364D01*
X133770002Y-75224532D01*
X133769998Y-75224532D01*
X133543313Y-75244364D01*
X133543302Y-75244366D01*
X133323511Y-75303258D01*
X133323502Y-75303261D01*
X133117267Y-75399431D01*
X133117265Y-75399432D01*
X132930858Y-75529954D01*
X132769954Y-75690858D01*
X132639432Y-75877265D01*
X132639431Y-75877267D01*
X132612382Y-75935275D01*
X132566209Y-75987714D01*
X132499016Y-76006866D01*
X132432135Y-75986650D01*
X132387618Y-75935275D01*
X132379422Y-75917698D01*
X132360568Y-75877266D01*
X132230047Y-75690861D01*
X132230045Y-75690858D01*
X132069141Y-75529954D01*
X131882734Y-75399432D01*
X131882732Y-75399431D01*
X131676497Y-75303261D01*
X131676488Y-75303258D01*
X131456697Y-75244366D01*
X131456693Y-75244365D01*
X131456692Y-75244365D01*
X131456691Y-75244364D01*
X131456686Y-75244364D01*
X131230002Y-75224532D01*
X131229998Y-75224532D01*
X131003313Y-75244364D01*
X131003302Y-75244366D01*
X130783511Y-75303258D01*
X130783502Y-75303261D01*
X130577267Y-75399431D01*
X130577265Y-75399432D01*
X130390858Y-75529954D01*
X130229954Y-75690858D01*
X130099432Y-75877265D01*
X130099431Y-75877267D01*
X130072382Y-75935275D01*
X130026209Y-75987714D01*
X129959016Y-76006866D01*
X129892135Y-75986650D01*
X129847618Y-75935275D01*
X129839422Y-75917698D01*
X129820568Y-75877266D01*
X129690047Y-75690861D01*
X129690045Y-75690858D01*
X129529141Y-75529954D01*
X129342734Y-75399432D01*
X129342732Y-75399431D01*
X129136497Y-75303261D01*
X129136488Y-75303258D01*
X128916697Y-75244366D01*
X128916693Y-75244365D01*
X128916692Y-75244365D01*
X128916691Y-75244364D01*
X128916686Y-75244364D01*
X128690002Y-75224532D01*
X128689998Y-75224532D01*
X128463313Y-75244364D01*
X128463302Y-75244366D01*
X128243511Y-75303258D01*
X128243502Y-75303261D01*
X128037267Y-75399431D01*
X128037265Y-75399432D01*
X127850858Y-75529954D01*
X127689954Y-75690858D01*
X127559432Y-75877265D01*
X127559431Y-75877267D01*
X127532382Y-75935275D01*
X127486209Y-75987714D01*
X127419016Y-76006866D01*
X127352135Y-75986650D01*
X127307618Y-75935275D01*
X127299422Y-75917698D01*
X127280568Y-75877266D01*
X127150047Y-75690861D01*
X127150045Y-75690858D01*
X126989141Y-75529954D01*
X126802734Y-75399432D01*
X126802732Y-75399431D01*
X126596497Y-75303261D01*
X126596488Y-75303258D01*
X126376697Y-75244366D01*
X126376693Y-75244365D01*
X126376692Y-75244365D01*
X126376691Y-75244364D01*
X126376686Y-75244364D01*
X126150002Y-75224532D01*
X126149998Y-75224532D01*
X125923313Y-75244364D01*
X125923302Y-75244366D01*
X125703511Y-75303258D01*
X125703502Y-75303261D01*
X125497267Y-75399431D01*
X125497265Y-75399432D01*
X125310858Y-75529954D01*
X125149954Y-75690858D01*
X125019432Y-75877265D01*
X125019431Y-75877267D01*
X124992382Y-75935275D01*
X124946209Y-75987714D01*
X124879016Y-76006866D01*
X124812135Y-75986650D01*
X124767618Y-75935275D01*
X124759422Y-75917698D01*
X124740568Y-75877266D01*
X124610047Y-75690861D01*
X124610045Y-75690858D01*
X124449141Y-75529954D01*
X124262734Y-75399432D01*
X124262732Y-75399431D01*
X124056497Y-75303261D01*
X124056488Y-75303258D01*
X123836697Y-75244366D01*
X123836693Y-75244365D01*
X123836692Y-75244365D01*
X123836691Y-75244364D01*
X123836686Y-75244364D01*
X123610002Y-75224532D01*
X123609998Y-75224532D01*
X123383313Y-75244364D01*
X123383302Y-75244366D01*
X123163511Y-75303258D01*
X123163502Y-75303261D01*
X122957267Y-75399431D01*
X122957265Y-75399432D01*
X122770858Y-75529954D01*
X122609954Y-75690858D01*
X122479432Y-75877265D01*
X122479431Y-75877267D01*
X122452382Y-75935275D01*
X122406209Y-75987714D01*
X122339016Y-76006866D01*
X122272135Y-75986650D01*
X122227618Y-75935275D01*
X122219422Y-75917698D01*
X122200568Y-75877266D01*
X122070047Y-75690861D01*
X122070045Y-75690858D01*
X121909141Y-75529954D01*
X121722734Y-75399432D01*
X121722732Y-75399431D01*
X121516497Y-75303261D01*
X121516488Y-75303258D01*
X121296697Y-75244366D01*
X121296693Y-75244365D01*
X121296692Y-75244365D01*
X121296691Y-75244364D01*
X121296686Y-75244364D01*
X121070002Y-75224532D01*
X121069998Y-75224532D01*
X120843313Y-75244364D01*
X120843302Y-75244366D01*
X120623511Y-75303258D01*
X120623502Y-75303261D01*
X120417267Y-75399431D01*
X120417265Y-75399432D01*
X120230858Y-75529954D01*
X120069954Y-75690858D01*
X119939432Y-75877265D01*
X119939430Y-75877268D01*
X119912380Y-75935277D01*
X119866207Y-75987715D01*
X119799013Y-76006866D01*
X119732132Y-75986649D01*
X119687619Y-75935277D01*
X119660568Y-75877266D01*
X119594779Y-75783308D01*
X119530045Y-75690858D01*
X119369141Y-75529954D01*
X119182734Y-75399432D01*
X119182732Y-75399431D01*
X118976497Y-75303261D01*
X118976488Y-75303258D01*
X118756697Y-75244366D01*
X118756693Y-75244365D01*
X118756692Y-75244365D01*
X118756691Y-75244364D01*
X118756686Y-75244364D01*
X118530002Y-75224532D01*
X118529998Y-75224532D01*
X118303313Y-75244364D01*
X118303302Y-75244366D01*
X118083511Y-75303258D01*
X118083502Y-75303261D01*
X117877267Y-75399431D01*
X117877265Y-75399432D01*
X117690858Y-75529954D01*
X117529954Y-75690858D01*
X117399432Y-75877265D01*
X117399430Y-75877268D01*
X117372380Y-75935277D01*
X117326207Y-75987715D01*
X117259013Y-76006866D01*
X117192132Y-75986649D01*
X117147619Y-75935277D01*
X117120568Y-75877266D01*
X117054779Y-75783308D01*
X116990045Y-75690858D01*
X116829141Y-75529954D01*
X116642734Y-75399432D01*
X116642732Y-75399431D01*
X116436497Y-75303261D01*
X116436488Y-75303258D01*
X116216697Y-75244366D01*
X116216693Y-75244365D01*
X116216692Y-75244365D01*
X116216691Y-75244364D01*
X116216686Y-75244364D01*
X115990002Y-75224532D01*
X115989998Y-75224532D01*
X115763313Y-75244364D01*
X115763302Y-75244366D01*
X115543511Y-75303258D01*
X115543502Y-75303261D01*
X115337267Y-75399431D01*
X115337265Y-75399432D01*
X115150858Y-75529954D01*
X114989954Y-75690858D01*
X114859432Y-75877265D01*
X114859430Y-75877268D01*
X114832380Y-75935277D01*
X114786207Y-75987715D01*
X114719013Y-76006866D01*
X114652132Y-75986649D01*
X114607619Y-75935277D01*
X114580568Y-75877266D01*
X114514779Y-75783308D01*
X114450045Y-75690858D01*
X114289141Y-75529954D01*
X114102734Y-75399432D01*
X114102732Y-75399431D01*
X113896497Y-75303261D01*
X113896488Y-75303258D01*
X113676697Y-75244366D01*
X113676693Y-75244365D01*
X113676692Y-75244365D01*
X113676691Y-75244364D01*
X113676686Y-75244364D01*
X113450002Y-75224532D01*
X113449998Y-75224532D01*
X113223313Y-75244364D01*
X113223302Y-75244366D01*
X113003511Y-75303258D01*
X113003502Y-75303261D01*
X112797267Y-75399431D01*
X112797265Y-75399432D01*
X112610858Y-75529954D01*
X112449954Y-75690858D01*
X112319432Y-75877265D01*
X112319430Y-75877268D01*
X112292380Y-75935277D01*
X112246207Y-75987715D01*
X112179013Y-76006866D01*
X112112132Y-75986649D01*
X112067619Y-75935277D01*
X112040568Y-75877266D01*
X111974779Y-75783308D01*
X111910045Y-75690858D01*
X111749141Y-75529954D01*
X111562734Y-75399432D01*
X111562732Y-75399431D01*
X111356497Y-75303261D01*
X111356488Y-75303258D01*
X111136697Y-75244366D01*
X111136693Y-75244365D01*
X111136692Y-75244365D01*
X111136691Y-75244364D01*
X111136686Y-75244364D01*
X110910002Y-75224532D01*
X110909998Y-75224532D01*
X110683313Y-75244364D01*
X110683302Y-75244366D01*
X110463511Y-75303258D01*
X110463502Y-75303261D01*
X110257267Y-75399431D01*
X110257265Y-75399432D01*
X110070858Y-75529954D01*
X109909954Y-75690858D01*
X109779432Y-75877265D01*
X109779431Y-75877267D01*
X109683261Y-76083502D01*
X109683258Y-76083511D01*
X109673931Y-76118323D01*
X109637566Y-76177984D01*
X109574719Y-76208513D01*
X109505344Y-76200218D01*
X109451466Y-76155733D01*
X109438529Y-76131024D01*
X109395309Y-76019460D01*
X109395308Y-76019459D01*
X109395308Y-76019458D01*
X109284038Y-75839751D01*
X109232588Y-75783313D01*
X109141644Y-75683551D01*
X108972968Y-75556173D01*
X108783762Y-75461959D01*
X108783756Y-75461956D01*
X108580466Y-75404116D01*
X108580463Y-75404115D01*
X108468472Y-75393738D01*
X108422729Y-75389500D01*
X108317271Y-75389500D01*
X108274619Y-75393452D01*
X108159536Y-75404115D01*
X108159533Y-75404116D01*
X107956243Y-75461956D01*
X107956237Y-75461959D01*
X107767031Y-75556173D01*
X107598355Y-75683551D01*
X107455963Y-75839749D01*
X107344691Y-76019459D01*
X107344690Y-76019460D01*
X107270869Y-76210016D01*
X107268338Y-76216550D01*
X107229500Y-76424317D01*
X107229500Y-76635683D01*
X96813000Y-76635683D01*
X96813000Y-76542400D01*
X96798095Y-76362524D01*
X96738983Y-76129095D01*
X96642255Y-75908578D01*
X96510551Y-75706990D01*
X96347463Y-75529829D01*
X96213358Y-75425451D01*
X96157441Y-75381929D01*
X95945665Y-75267321D01*
X95945656Y-75267318D01*
X95717916Y-75189134D01*
X95518800Y-75155908D01*
X95480399Y-75149500D01*
X95239601Y-75149500D01*
X95201200Y-75155908D01*
X95002083Y-75189134D01*
X94774343Y-75267318D01*
X94774334Y-75267321D01*
X94562558Y-75381929D01*
X94448763Y-75470500D01*
X94372537Y-75529829D01*
X94372534Y-75529831D01*
X94372534Y-75529832D01*
X94209450Y-75706988D01*
X94209446Y-75706994D01*
X94193507Y-75731389D01*
X94140359Y-75776744D01*
X94071127Y-75786165D01*
X94007793Y-75756661D01*
X93985892Y-75731385D01*
X93970154Y-75707296D01*
X93807126Y-75530202D01*
X93807116Y-75530193D01*
X93617168Y-75382350D01*
X93617159Y-75382344D01*
X93405468Y-75267784D01*
X93405454Y-75267778D01*
X93177791Y-75189619D01*
X93070000Y-75171633D01*
X93070000Y-75985347D01*
X93050315Y-76052386D01*
X92997511Y-76098141D01*
X92928353Y-76108085D01*
X92912547Y-76104749D01*
X92895598Y-76100000D01*
X92895596Y-76100000D01*
X92782378Y-76100000D01*
X92782376Y-76100000D01*
X92710884Y-76109826D01*
X92641789Y-76099453D01*
X92589270Y-76053371D01*
X92570000Y-75986981D01*
X92570000Y-75171633D01*
X92569999Y-75171633D01*
X92462208Y-75189619D01*
X92234545Y-75267778D01*
X92234531Y-75267784D01*
X92022840Y-75382344D01*
X92022838Y-75382345D01*
X91880252Y-75493325D01*
X91815258Y-75518967D01*
X91746718Y-75505400D01*
X91696393Y-75456932D01*
X91687907Y-75438801D01*
X91676297Y-75407671D01*
X91676293Y-75407664D01*
X91590047Y-75292455D01*
X91590044Y-75292452D01*
X91474835Y-75206206D01*
X91474828Y-75206202D01*
X91339982Y-75155908D01*
X91339983Y-75155908D01*
X91280383Y-75149501D01*
X91280381Y-75149500D01*
X91280373Y-75149500D01*
X91280364Y-75149500D01*
X89279629Y-75149500D01*
X89279623Y-75149501D01*
X89220016Y-75155908D01*
X89085171Y-75206202D01*
X89085164Y-75206206D01*
X88969955Y-75292452D01*
X88969952Y-75292455D01*
X88883706Y-75407664D01*
X88883702Y-75407671D01*
X88833408Y-75542517D01*
X88827001Y-75602116D01*
X88827000Y-75602135D01*
X88827000Y-77697870D01*
X80720000Y-77697870D01*
X80720000Y-76010001D01*
X82724532Y-76010001D01*
X82744364Y-76236686D01*
X82744366Y-76236697D01*
X82803258Y-76456488D01*
X82803261Y-76456497D01*
X82899431Y-76662732D01*
X82899432Y-76662734D01*
X83029954Y-76849141D01*
X83190858Y-77010045D01*
X83190861Y-77010047D01*
X83377266Y-77140568D01*
X83583504Y-77236739D01*
X83583509Y-77236740D01*
X83583511Y-77236741D01*
X83636415Y-77250916D01*
X83803308Y-77295635D01*
X83973216Y-77310500D01*
X84086784Y-77310500D01*
X84256692Y-77295635D01*
X84476496Y-77236739D01*
X84682734Y-77140568D01*
X84869139Y-77010047D01*
X85030047Y-76849139D01*
X85160568Y-76662734D01*
X85256739Y-76456496D01*
X85315635Y-76236692D01*
X85334640Y-76019460D01*
X85335468Y-76010001D01*
X85335468Y-76009998D01*
X85315635Y-75783313D01*
X85315635Y-75783308D01*
X85256739Y-75563504D01*
X85160568Y-75357266D01*
X85030047Y-75170861D01*
X85030045Y-75170858D01*
X84877057Y-75017870D01*
X99189500Y-75017870D01*
X99189501Y-75017876D01*
X99195908Y-75077483D01*
X99246202Y-75212328D01*
X99246206Y-75212335D01*
X99332452Y-75327544D01*
X99332455Y-75327547D01*
X99447664Y-75413793D01*
X99447671Y-75413797D01*
X99582517Y-75464091D01*
X99582516Y-75464091D01*
X99589444Y-75464835D01*
X99642127Y-75470500D01*
X101337872Y-75470499D01*
X101397483Y-75464091D01*
X101532331Y-75413796D01*
X101647546Y-75327546D01*
X101654350Y-75318455D01*
X101710280Y-75276584D01*
X101779971Y-75271597D01*
X101824740Y-75291188D01*
X101837512Y-75300130D01*
X101837518Y-75300134D01*
X102043673Y-75396265D01*
X102043682Y-75396269D01*
X102263389Y-75455139D01*
X102263400Y-75455141D01*
X102489998Y-75474966D01*
X102490002Y-75474966D01*
X102716599Y-75455141D01*
X102716610Y-75455139D01*
X102936317Y-75396269D01*
X102936331Y-75396264D01*
X103142478Y-75300136D01*
X103215472Y-75249025D01*
X102673866Y-74707419D01*
X102640381Y-74646096D01*
X102645365Y-74576404D01*
X102687237Y-74520471D01*
X102705245Y-74509258D01*
X102728045Y-74497641D01*
X102817641Y-74408045D01*
X102829254Y-74385252D01*
X102877225Y-74334458D01*
X102945046Y-74317661D01*
X103011181Y-74340197D01*
X103027419Y-74353866D01*
X103569025Y-74895472D01*
X103620136Y-74822478D01*
X103716264Y-74616331D01*
X103716269Y-74616317D01*
X103775139Y-74396610D01*
X103775141Y-74396599D01*
X103794966Y-74170002D01*
X103794966Y-74169997D01*
X103775141Y-73943400D01*
X103775139Y-73943389D01*
X103716269Y-73723682D01*
X103716265Y-73723673D01*
X103620133Y-73517516D01*
X103620131Y-73517512D01*
X103569026Y-73444526D01*
X103569025Y-73444526D01*
X103027419Y-73986132D01*
X102966096Y-74019617D01*
X102896404Y-74014633D01*
X102840471Y-73972761D01*
X102829256Y-73954751D01*
X102817641Y-73931955D01*
X102817637Y-73931951D01*
X102817636Y-73931949D01*
X102728050Y-73842363D01*
X102728044Y-73842358D01*
X102718109Y-73837296D01*
X102705250Y-73830744D01*
X102654456Y-73782773D01*
X102637660Y-73714952D01*
X102660197Y-73648817D01*
X102673865Y-73632580D01*
X103215472Y-73090973D01*
X103142483Y-73039866D01*
X103142481Y-73039865D01*
X102936326Y-72943734D01*
X102936317Y-72943730D01*
X102716610Y-72884860D01*
X102716599Y-72884858D01*
X102490002Y-72865034D01*
X102489998Y-72865034D01*
X102263400Y-72884858D01*
X102263389Y-72884860D01*
X102043682Y-72943730D01*
X102043673Y-72943734D01*
X101837512Y-73039868D01*
X101837507Y-73039871D01*
X101824736Y-73048813D01*
X101758529Y-73071138D01*
X101690763Y-73054124D01*
X101654352Y-73021546D01*
X101647546Y-73012454D01*
X101647544Y-73012453D01*
X101647544Y-73012452D01*
X101532335Y-72926206D01*
X101532328Y-72926202D01*
X101397482Y-72875908D01*
X101397483Y-72875908D01*
X101337883Y-72869501D01*
X101337881Y-72869500D01*
X101337873Y-72869500D01*
X101337864Y-72869500D01*
X99642129Y-72869500D01*
X99642123Y-72869501D01*
X99582516Y-72875908D01*
X99447671Y-72926202D01*
X99447664Y-72926206D01*
X99332455Y-73012452D01*
X99332452Y-73012455D01*
X99246206Y-73127664D01*
X99246202Y-73127671D01*
X99195908Y-73262517D01*
X99189501Y-73322116D01*
X99189500Y-73322135D01*
X99189500Y-75017870D01*
X84877057Y-75017870D01*
X84869141Y-75009954D01*
X84682734Y-74879432D01*
X84682732Y-74879431D01*
X84476497Y-74783261D01*
X84476488Y-74783258D01*
X84256697Y-74724366D01*
X84256687Y-74724364D01*
X84086784Y-74709500D01*
X83973216Y-74709500D01*
X83803312Y-74724364D01*
X83803302Y-74724366D01*
X83583511Y-74783258D01*
X83583502Y-74783261D01*
X83377267Y-74879431D01*
X83377265Y-74879432D01*
X83190858Y-75009954D01*
X83029954Y-75170858D01*
X82899432Y-75357265D01*
X82899431Y-75357267D01*
X82803261Y-75563502D01*
X82803258Y-75563511D01*
X82744366Y-75783302D01*
X82744364Y-75783313D01*
X82724532Y-76009998D01*
X82724532Y-76010001D01*
X80720000Y-76010001D01*
X80720000Y-70599776D01*
X86744500Y-70599776D01*
X86783930Y-70836067D01*
X86861711Y-71062637D01*
X86861713Y-71062642D01*
X86975730Y-71273325D01*
X86975734Y-71273331D01*
X87099918Y-71432882D01*
X87122866Y-71462366D01*
X87299113Y-71624612D01*
X87499660Y-71755636D01*
X87719038Y-71851864D01*
X87951263Y-71910672D01*
X88130213Y-71925500D01*
X88130215Y-71925500D01*
X88249785Y-71925500D01*
X88249787Y-71925500D01*
X88428737Y-71910672D01*
X88660962Y-71851864D01*
X88880340Y-71755636D01*
X89080887Y-71624612D01*
X89131691Y-71577844D01*
X91650000Y-71577844D01*
X91656401Y-71637372D01*
X91656403Y-71637379D01*
X91706645Y-71772086D01*
X91706649Y-71772093D01*
X91792809Y-71887187D01*
X91792812Y-71887190D01*
X91907906Y-71973350D01*
X91907913Y-71973354D01*
X92042620Y-72023596D01*
X92042627Y-72023598D01*
X92102155Y-72029999D01*
X92102172Y-72030000D01*
X92950000Y-72030000D01*
X92950000Y-71294752D01*
X92969685Y-71227713D01*
X93022489Y-71181958D01*
X93088944Y-71171656D01*
X93149435Y-71179001D01*
X93157659Y-71180000D01*
X93157660Y-71180000D01*
X93242341Y-71180000D01*
X93250564Y-71179001D01*
X93311055Y-71171656D01*
X93379975Y-71183116D01*
X93431762Y-71230019D01*
X93450000Y-71294752D01*
X93449999Y-72030000D01*
X94297828Y-72030000D01*
X94297844Y-72029999D01*
X94357372Y-72023598D01*
X94357379Y-72023596D01*
X94492086Y-71973354D01*
X94492093Y-71973350D01*
X94607187Y-71887190D01*
X94607190Y-71887187D01*
X94693350Y-71772093D01*
X94693354Y-71772086D01*
X94743596Y-71637379D01*
X94743598Y-71637372D01*
X94749999Y-71577844D01*
X94750000Y-71577827D01*
X94750000Y-70730000D01*
X94017604Y-70730000D01*
X93950565Y-70710315D01*
X93904810Y-70657511D01*
X93894866Y-70588353D01*
X93897208Y-70576321D01*
X93900000Y-70564994D01*
X93900000Y-70395005D01*
X93897208Y-70383679D01*
X93900275Y-70313876D01*
X93940593Y-70256813D01*
X94005362Y-70230606D01*
X94017604Y-70230000D01*
X94750000Y-70230000D01*
X94750000Y-69554999D01*
X159880976Y-69554999D01*
X159880978Y-69555000D01*
X160746653Y-69555000D01*
X160813692Y-69574685D01*
X160859447Y-69627489D01*
X160869391Y-69696647D01*
X160865631Y-69713933D01*
X160860000Y-69733111D01*
X160860000Y-69876888D01*
X160865631Y-69896067D01*
X160865630Y-69965936D01*
X160827855Y-70024714D01*
X160764299Y-70053738D01*
X160746653Y-70055000D01*
X159880977Y-70055000D01*
X159900916Y-70174492D01*
X159981630Y-70409603D01*
X159981635Y-70409614D01*
X160099942Y-70628228D01*
X160099948Y-70628237D01*
X160252626Y-70824397D01*
X160252635Y-70824407D01*
X160435522Y-70992767D01*
X160435521Y-70992767D01*
X160643632Y-71128732D01*
X160871282Y-71228587D01*
X161112261Y-71289612D01*
X161112269Y-71289614D01*
X161297959Y-71305000D01*
X161860000Y-71305000D01*
X161860000Y-70429000D01*
X161879685Y-70361961D01*
X161932489Y-70316206D01*
X161984000Y-70305000D01*
X162236000Y-70305000D01*
X162303039Y-70324685D01*
X162348794Y-70377489D01*
X162360000Y-70429000D01*
X162360000Y-71305000D01*
X162922041Y-71305000D01*
X163107730Y-71289614D01*
X163107738Y-71289612D01*
X163348717Y-71228587D01*
X163576367Y-71128732D01*
X163784478Y-70992767D01*
X163967364Y-70824407D01*
X163967373Y-70824397D01*
X164120051Y-70628237D01*
X164120057Y-70628228D01*
X164238364Y-70409614D01*
X164238369Y-70409603D01*
X164319083Y-70174492D01*
X164339023Y-70055000D01*
X163473347Y-70055000D01*
X163406308Y-70035315D01*
X163360553Y-69982511D01*
X163350609Y-69913353D01*
X163354369Y-69896067D01*
X163360000Y-69876888D01*
X163360000Y-69733111D01*
X163354369Y-69713933D01*
X163354370Y-69644064D01*
X163392145Y-69585286D01*
X163455701Y-69556262D01*
X163473347Y-69555000D01*
X164339022Y-69555000D01*
X164339023Y-69554999D01*
X164319083Y-69435507D01*
X164238369Y-69200396D01*
X164238364Y-69200385D01*
X164120057Y-68981771D01*
X164120051Y-68981762D01*
X163967373Y-68785602D01*
X163967364Y-68785592D01*
X163784477Y-68617232D01*
X163784478Y-68617232D01*
X163576367Y-68481267D01*
X163348717Y-68381412D01*
X163107738Y-68320387D01*
X163107730Y-68320385D01*
X162922041Y-68305000D01*
X162360000Y-68305000D01*
X162360000Y-69181000D01*
X162340315Y-69248039D01*
X162287511Y-69293794D01*
X162236000Y-69305000D01*
X161984000Y-69305000D01*
X161916961Y-69285315D01*
X161871206Y-69232511D01*
X161860000Y-69181000D01*
X161860000Y-68305000D01*
X161297959Y-68305000D01*
X161112269Y-68320385D01*
X161112261Y-68320387D01*
X160871282Y-68381412D01*
X160643632Y-68481267D01*
X160435521Y-68617232D01*
X160252635Y-68785592D01*
X160252626Y-68785602D01*
X160099948Y-68981762D01*
X160099942Y-68981771D01*
X159981635Y-69200385D01*
X159981630Y-69200396D01*
X159900916Y-69435507D01*
X159880976Y-69554999D01*
X94750000Y-69554999D01*
X94750000Y-69443854D01*
X94769685Y-69376815D01*
X94822489Y-69331060D01*
X94891647Y-69321116D01*
X94938790Y-69338127D01*
X94983910Y-69365777D01*
X95209381Y-69459169D01*
X95209378Y-69459169D01*
X95209384Y-69459170D01*
X95209388Y-69459172D01*
X95446698Y-69516146D01*
X95690000Y-69535294D01*
X95933302Y-69516146D01*
X96170612Y-69459172D01*
X96396089Y-69365777D01*
X96604179Y-69238259D01*
X96789759Y-69079759D01*
X96948259Y-68894179D01*
X97075777Y-68686089D01*
X97169172Y-68460612D01*
X97226146Y-68223302D01*
X97245294Y-67980000D01*
X97226146Y-67736698D01*
X97169172Y-67499388D01*
X97163448Y-67485568D01*
X97075777Y-67273910D01*
X96948262Y-67065826D01*
X96948261Y-67065823D01*
X96898646Y-67007732D01*
X96789759Y-66880241D01*
X96610921Y-66727499D01*
X96604176Y-66721738D01*
X96604173Y-66721737D01*
X96396089Y-66594222D01*
X96170618Y-66500830D01*
X96170621Y-66500830D01*
X96064992Y-66475470D01*
X95933302Y-66443854D01*
X95933300Y-66443853D01*
X95933297Y-66443853D01*
X95690000Y-66424706D01*
X95446702Y-66443853D01*
X95209380Y-66500830D01*
X94983910Y-66594222D01*
X94775826Y-66721737D01*
X94775823Y-66721738D01*
X94590241Y-66880241D01*
X94431738Y-67065823D01*
X94431737Y-67065826D01*
X94304222Y-67273910D01*
X94210830Y-67499380D01*
X94210828Y-67499387D01*
X94210828Y-67499388D01*
X94185005Y-67606945D01*
X94153853Y-67736702D01*
X94134706Y-67980000D01*
X94153853Y-68223297D01*
X94153853Y-68223300D01*
X94153854Y-68223302D01*
X94191813Y-68381412D01*
X94210830Y-68460619D01*
X94304222Y-68686089D01*
X94338001Y-68741210D01*
X94356246Y-68808656D01*
X94335130Y-68875258D01*
X94281358Y-68919872D01*
X94232274Y-68930000D01*
X93450000Y-68930000D01*
X93450000Y-69665247D01*
X93430315Y-69732286D01*
X93377511Y-69778041D01*
X93311053Y-69788343D01*
X93242343Y-69780000D01*
X93242340Y-69780000D01*
X93157660Y-69780000D01*
X93157657Y-69780000D01*
X93088947Y-69788343D01*
X93020023Y-69776883D01*
X92968237Y-69729979D01*
X92950000Y-69665247D01*
X92950000Y-68930000D01*
X92102155Y-68930000D01*
X92042627Y-68936401D01*
X92042620Y-68936403D01*
X91907913Y-68986645D01*
X91907906Y-68986649D01*
X91792812Y-69072809D01*
X91792809Y-69072812D01*
X91706649Y-69187906D01*
X91706645Y-69187913D01*
X91656403Y-69322620D01*
X91656401Y-69322627D01*
X91650000Y-69382155D01*
X91650000Y-70230000D01*
X92382396Y-70230000D01*
X92449435Y-70249685D01*
X92495190Y-70302489D01*
X92505134Y-70371647D01*
X92502792Y-70383679D01*
X92500000Y-70395005D01*
X92500000Y-70564994D01*
X92502792Y-70576321D01*
X92499725Y-70646124D01*
X92459407Y-70703187D01*
X92394638Y-70729394D01*
X92382396Y-70730000D01*
X91650000Y-70730000D01*
X91650000Y-71577844D01*
X89131691Y-71577844D01*
X89257134Y-71462366D01*
X89404271Y-71273323D01*
X89518287Y-71062641D01*
X89596070Y-70836065D01*
X89635500Y-70599778D01*
X89635500Y-70360222D01*
X89596070Y-70123935D01*
X89518287Y-69897359D01*
X89404271Y-69686677D01*
X89404269Y-69686674D01*
X89404265Y-69686668D01*
X89257139Y-69497641D01*
X89257134Y-69497634D01*
X89080887Y-69335388D01*
X89080884Y-69335386D01*
X89080883Y-69335385D01*
X89003337Y-69284722D01*
X88880340Y-69204364D01*
X88880337Y-69204362D01*
X88880336Y-69204362D01*
X88660963Y-69108136D01*
X88428737Y-69049328D01*
X88428740Y-69049328D01*
X88321366Y-69040431D01*
X88249787Y-69034500D01*
X88130213Y-69034500D01*
X88058633Y-69040431D01*
X87951260Y-69049328D01*
X87719036Y-69108136D01*
X87499663Y-69204362D01*
X87299116Y-69335385D01*
X87122869Y-69497631D01*
X87122860Y-69497641D01*
X86975734Y-69686668D01*
X86975730Y-69686674D01*
X86861713Y-69897357D01*
X86861711Y-69897362D01*
X86783930Y-70123932D01*
X86744500Y-70360223D01*
X86744500Y-70599776D01*
X80720000Y-70599776D01*
X80720000Y-67980000D01*
X81638407Y-67980000D01*
X81657548Y-68223219D01*
X81714503Y-68460457D01*
X81807868Y-68685861D01*
X81931704Y-68887942D01*
X82438091Y-68381554D01*
X82499414Y-68348069D01*
X82569105Y-68353053D01*
X82618587Y-68387008D01*
X82725600Y-68507801D01*
X82725606Y-68507807D01*
X82771069Y-68539187D01*
X82776701Y-68543075D01*
X82776703Y-68543076D01*
X82820693Y-68597358D01*
X82828353Y-68666807D01*
X82797250Y-68729372D01*
X82793944Y-68732807D01*
X82285256Y-69241494D01*
X82487338Y-69365331D01*
X82712742Y-69458696D01*
X82949980Y-69515651D01*
X82949979Y-69515651D01*
X83193200Y-69534792D01*
X83436419Y-69515651D01*
X83673657Y-69458696D01*
X83899061Y-69365331D01*
X84101142Y-69241494D01*
X83592454Y-68732807D01*
X83558969Y-68671484D01*
X83563953Y-68601793D01*
X83605824Y-68545859D01*
X83609660Y-68543101D01*
X83660795Y-68507806D01*
X83767811Y-68387009D01*
X83827001Y-68349882D01*
X83896866Y-68350650D01*
X83948308Y-68381555D01*
X84454694Y-68887942D01*
X84578531Y-68685861D01*
X84671896Y-68460457D01*
X84728851Y-68223219D01*
X84747992Y-67980000D01*
X84728851Y-67736780D01*
X84671896Y-67499542D01*
X84578531Y-67274138D01*
X84454694Y-67072056D01*
X83948307Y-67578444D01*
X83886984Y-67611929D01*
X83817292Y-67606945D01*
X83767811Y-67572990D01*
X83660799Y-67452198D01*
X83660797Y-67452196D01*
X83660795Y-67452194D01*
X83609696Y-67416923D01*
X83609695Y-67416922D01*
X83565705Y-67362639D01*
X83558045Y-67293190D01*
X83589149Y-67230625D01*
X83592454Y-67227191D01*
X84092147Y-66727500D01*
X84092147Y-66727499D01*
X83592454Y-66227807D01*
X83558969Y-66166484D01*
X83563953Y-66096792D01*
X83605825Y-66040859D01*
X83609660Y-66038100D01*
X83660795Y-66002806D01*
X83767811Y-65882009D01*
X83827001Y-65844882D01*
X83896866Y-65845650D01*
X83948308Y-65876555D01*
X84454694Y-66382942D01*
X84471816Y-66355001D01*
X155154532Y-66355001D01*
X155174364Y-66581686D01*
X155174366Y-66581697D01*
X155233258Y-66801488D01*
X155233261Y-66801497D01*
X155329431Y-67007732D01*
X155329432Y-67007734D01*
X155459954Y-67194141D01*
X155620858Y-67355045D01*
X155667693Y-67387839D01*
X155807266Y-67485568D01*
X156013504Y-67581739D01*
X156233308Y-67640635D01*
X156395230Y-67654801D01*
X156459998Y-67660468D01*
X156460000Y-67660468D01*
X156460002Y-67660468D01*
X156516673Y-67655509D01*
X156686692Y-67640635D01*
X156906496Y-67581739D01*
X157112734Y-67485568D01*
X157299139Y-67355047D01*
X157460047Y-67194139D01*
X157590568Y-67007734D01*
X157686739Y-66801496D01*
X157740225Y-66601881D01*
X157776590Y-66542221D01*
X157839437Y-66511692D01*
X157908812Y-66519987D01*
X157962690Y-66564472D01*
X157979775Y-66601882D01*
X158033258Y-66801488D01*
X158033261Y-66801497D01*
X158129431Y-67007732D01*
X158129432Y-67007734D01*
X158259954Y-67194141D01*
X158420858Y-67355045D01*
X158467693Y-67387839D01*
X158607266Y-67485568D01*
X158813504Y-67581739D01*
X159033308Y-67640635D01*
X159195230Y-67654801D01*
X159259998Y-67660468D01*
X159260000Y-67660468D01*
X159260002Y-67660468D01*
X159316673Y-67655509D01*
X159486692Y-67640635D01*
X159706496Y-67581739D01*
X159912734Y-67485568D01*
X160099139Y-67355047D01*
X160260047Y-67194139D01*
X160390568Y-67007734D01*
X160486739Y-66801496D01*
X160545635Y-66581692D01*
X160565468Y-66355000D01*
X160545635Y-66128308D01*
X160486739Y-65908504D01*
X160390568Y-65702266D01*
X160260047Y-65515861D01*
X160260045Y-65515858D01*
X160136868Y-65392681D01*
X160103383Y-65331358D01*
X160108367Y-65261666D01*
X160136868Y-65217319D01*
X160260045Y-65094141D01*
X160260045Y-65094140D01*
X160260047Y-65094139D01*
X160390568Y-64907734D01*
X160486739Y-64701496D01*
X160545635Y-64481692D01*
X160565468Y-64255000D01*
X160545635Y-64028308D01*
X160542616Y-64017041D01*
X161410000Y-64017041D01*
X161425385Y-64202730D01*
X161425387Y-64202738D01*
X161486412Y-64443717D01*
X161586267Y-64671367D01*
X161722232Y-64879478D01*
X161890592Y-65062364D01*
X161890602Y-65062373D01*
X162086762Y-65215051D01*
X162086771Y-65215057D01*
X162305385Y-65333364D01*
X162305396Y-65333369D01*
X162540507Y-65414083D01*
X162659999Y-65434023D01*
X162660000Y-65434022D01*
X162660000Y-64568346D01*
X162679685Y-64501307D01*
X162732489Y-64455552D01*
X162801647Y-64445608D01*
X162818937Y-64449370D01*
X162838108Y-64454999D01*
X162838110Y-64455000D01*
X162838111Y-64455000D01*
X162981890Y-64455000D01*
X162981890Y-64454999D01*
X163001063Y-64449369D01*
X163070932Y-64449368D01*
X163129711Y-64487141D01*
X163158737Y-64550696D01*
X163160000Y-64568346D01*
X163160000Y-65434023D01*
X163279492Y-65414083D01*
X163514603Y-65333369D01*
X163514614Y-65333364D01*
X163733228Y-65215057D01*
X163733237Y-65215051D01*
X163929397Y-65062373D01*
X163929407Y-65062364D01*
X164097767Y-64879478D01*
X164233732Y-64671367D01*
X164333587Y-64443717D01*
X164394612Y-64202738D01*
X164394614Y-64202730D01*
X164410000Y-64017041D01*
X164410000Y-63205000D01*
X163534000Y-63205000D01*
X163466961Y-63185315D01*
X163421206Y-63132511D01*
X163410000Y-63081000D01*
X163410000Y-62829000D01*
X163429685Y-62761961D01*
X163482489Y-62716206D01*
X163534000Y-62705000D01*
X164410000Y-62705000D01*
X164410000Y-61892959D01*
X164394614Y-61707269D01*
X164394612Y-61707261D01*
X164333587Y-61466282D01*
X164233732Y-61238632D01*
X164097767Y-61030521D01*
X163929407Y-60847635D01*
X163929397Y-60847626D01*
X163733237Y-60694948D01*
X163733228Y-60694942D01*
X163514614Y-60576635D01*
X163514603Y-60576630D01*
X163279492Y-60495916D01*
X163160000Y-60475976D01*
X163160000Y-61341653D01*
X163140315Y-61408692D01*
X163087511Y-61454447D01*
X163018353Y-61464391D01*
X163001067Y-61460631D01*
X162981889Y-61455000D01*
X162838111Y-61455000D01*
X162818933Y-61460631D01*
X162749064Y-61460630D01*
X162690286Y-61422855D01*
X162661262Y-61359299D01*
X162660000Y-61341653D01*
X162660000Y-60475976D01*
X162659999Y-60475976D01*
X162540507Y-60495916D01*
X162305396Y-60576630D01*
X162305385Y-60576635D01*
X162086771Y-60694942D01*
X162086762Y-60694948D01*
X161890602Y-60847626D01*
X161890592Y-60847635D01*
X161722232Y-61030521D01*
X161586267Y-61238632D01*
X161486412Y-61466282D01*
X161425387Y-61707261D01*
X161425385Y-61707269D01*
X161410000Y-61892959D01*
X161410000Y-62705000D01*
X162286000Y-62705000D01*
X162353039Y-62724685D01*
X162398794Y-62777489D01*
X162410000Y-62829000D01*
X162410000Y-63081000D01*
X162390315Y-63148039D01*
X162337511Y-63193794D01*
X162286000Y-63205000D01*
X161410000Y-63205000D01*
X161410000Y-64017041D01*
X160542616Y-64017041D01*
X160486739Y-63808504D01*
X160390568Y-63602266D01*
X160260047Y-63415861D01*
X160260045Y-63415858D01*
X160099141Y-63254954D01*
X159993628Y-63181074D01*
X159950003Y-63126498D01*
X159942809Y-63056999D01*
X159974331Y-62994644D01*
X160034561Y-62959230D01*
X160064751Y-62955499D01*
X160107871Y-62955499D01*
X160107872Y-62955499D01*
X160167483Y-62949091D01*
X160302331Y-62898796D01*
X160417546Y-62812546D01*
X160503796Y-62697331D01*
X160554091Y-62562483D01*
X160560500Y-62502873D01*
X160560499Y-60807128D01*
X160554091Y-60747517D01*
X160532480Y-60689576D01*
X160503797Y-60612671D01*
X160503793Y-60612664D01*
X160417547Y-60497455D01*
X160362512Y-60456255D01*
X160320642Y-60400321D01*
X160315658Y-60330629D01*
X160335250Y-60285865D01*
X160390129Y-60207489D01*
X160390133Y-60207483D01*
X160486265Y-60001326D01*
X160486269Y-60001317D01*
X160545139Y-59781610D01*
X160545141Y-59781599D01*
X160564966Y-59555002D01*
X160564966Y-59554997D01*
X160545141Y-59328400D01*
X160545139Y-59328389D01*
X160486269Y-59108682D01*
X160486265Y-59108673D01*
X160390133Y-58902516D01*
X160390131Y-58902512D01*
X160339026Y-58829526D01*
X160339025Y-58829526D01*
X159797419Y-59371132D01*
X159736096Y-59404617D01*
X159666404Y-59399633D01*
X159610471Y-59357761D01*
X159599256Y-59339751D01*
X159587641Y-59316955D01*
X159587637Y-59316951D01*
X159587636Y-59316949D01*
X159498050Y-59227363D01*
X159498044Y-59227358D01*
X159488109Y-59222296D01*
X159475250Y-59215744D01*
X159424456Y-59167773D01*
X159407660Y-59099952D01*
X159430197Y-59033817D01*
X159443865Y-59017580D01*
X159985472Y-58475973D01*
X159912483Y-58424866D01*
X159912481Y-58424865D01*
X159706326Y-58328734D01*
X159706317Y-58328730D01*
X159486610Y-58269860D01*
X159486599Y-58269858D01*
X159260002Y-58250034D01*
X159259998Y-58250034D01*
X159033400Y-58269858D01*
X159033389Y-58269860D01*
X158813682Y-58328730D01*
X158813673Y-58328734D01*
X158607513Y-58424868D01*
X158534526Y-58475973D01*
X159076133Y-59017580D01*
X159109618Y-59078903D01*
X159104634Y-59148595D01*
X159062762Y-59204528D01*
X159044748Y-59215745D01*
X159021956Y-59227358D01*
X159021949Y-59227363D01*
X158932363Y-59316949D01*
X158932358Y-59316956D01*
X158920745Y-59339748D01*
X158872770Y-59390544D01*
X158804949Y-59407338D01*
X158738814Y-59384800D01*
X158722580Y-59371133D01*
X158180973Y-58829526D01*
X158129868Y-58902513D01*
X158033734Y-59108673D01*
X158033731Y-59108680D01*
X157980033Y-59309084D01*
X157943668Y-59368744D01*
X157880821Y-59399273D01*
X157811445Y-59390978D01*
X157757567Y-59346493D01*
X157740484Y-59309086D01*
X157691498Y-59126266D01*
X157686741Y-59108511D01*
X157686738Y-59108502D01*
X157654347Y-59039039D01*
X157590568Y-58902266D01*
X157460047Y-58715861D01*
X157460045Y-58715858D01*
X157299141Y-58554954D01*
X157112734Y-58424432D01*
X157112732Y-58424431D01*
X156906497Y-58328261D01*
X156906488Y-58328258D01*
X156686697Y-58269366D01*
X156686693Y-58269365D01*
X156686692Y-58269365D01*
X156686691Y-58269364D01*
X156686686Y-58269364D01*
X156460002Y-58249532D01*
X156459998Y-58249532D01*
X156233313Y-58269364D01*
X156233302Y-58269366D01*
X156013511Y-58328258D01*
X156013502Y-58328261D01*
X155807267Y-58424431D01*
X155807265Y-58424432D01*
X155620858Y-58554954D01*
X155459954Y-58715858D01*
X155329432Y-58902265D01*
X155329431Y-58902267D01*
X155233261Y-59108502D01*
X155233258Y-59108511D01*
X155174366Y-59328302D01*
X155174364Y-59328313D01*
X155154532Y-59554998D01*
X155154532Y-59555001D01*
X155174364Y-59781686D01*
X155174366Y-59781697D01*
X155233258Y-60001488D01*
X155233261Y-60001497D01*
X155329429Y-60207728D01*
X155329432Y-60207734D01*
X155459954Y-60394141D01*
X155620858Y-60555045D01*
X155651685Y-60576630D01*
X155807266Y-60685568D01*
X156013504Y-60781739D01*
X156013509Y-60781740D01*
X156013511Y-60781741D01*
X156046171Y-60790492D01*
X156233308Y-60840635D01*
X156395230Y-60854801D01*
X156459998Y-60860468D01*
X156460000Y-60860468D01*
X156460002Y-60860468D01*
X156516673Y-60855509D01*
X156686692Y-60840635D01*
X156906496Y-60781739D01*
X157112734Y-60685568D01*
X157299139Y-60555047D01*
X157460047Y-60394139D01*
X157590568Y-60207734D01*
X157686739Y-60001496D01*
X157740484Y-59800913D01*
X157776847Y-59741256D01*
X157839694Y-59710726D01*
X157909070Y-59719020D01*
X157962948Y-59763505D01*
X157980033Y-59800915D01*
X158033731Y-60001320D01*
X158033734Y-60001326D01*
X158129866Y-60207483D01*
X158129870Y-60207489D01*
X158184750Y-60285865D01*
X158207078Y-60352071D01*
X158190068Y-60419838D01*
X158157488Y-60456255D01*
X158102452Y-60497455D01*
X158016206Y-60612664D01*
X158016202Y-60612671D01*
X157965908Y-60747517D01*
X157960219Y-60800436D01*
X157959501Y-60807123D01*
X157959500Y-60807135D01*
X157959500Y-62502870D01*
X157959501Y-62502876D01*
X157965908Y-62562483D01*
X158016202Y-62697328D01*
X158016206Y-62697335D01*
X158102452Y-62812544D01*
X158102455Y-62812547D01*
X158217664Y-62898793D01*
X158217671Y-62898797D01*
X158352517Y-62949091D01*
X158352516Y-62949091D01*
X158359444Y-62949835D01*
X158412127Y-62955500D01*
X158455247Y-62955499D01*
X158522284Y-62975182D01*
X158568040Y-63027985D01*
X158577985Y-63097143D01*
X158548962Y-63160700D01*
X158526371Y-63181074D01*
X158420856Y-63254956D01*
X158259954Y-63415858D01*
X158129432Y-63602265D01*
X158129431Y-63602267D01*
X158033261Y-63808502D01*
X158033258Y-63808511D01*
X157974366Y-64028302D01*
X157974364Y-64028313D01*
X157954532Y-64254998D01*
X157954532Y-64255001D01*
X157974364Y-64481686D01*
X157974366Y-64481697D01*
X158033258Y-64701488D01*
X158033261Y-64701497D01*
X158129431Y-64907732D01*
X158129432Y-64907734D01*
X158259951Y-65094137D01*
X158259952Y-65094138D01*
X158259953Y-65094139D01*
X158383133Y-65217319D01*
X158416617Y-65278640D01*
X158411633Y-65348332D01*
X158383133Y-65392680D01*
X158259951Y-65515862D01*
X158129432Y-65702265D01*
X158129431Y-65702267D01*
X158033261Y-65908502D01*
X158033258Y-65908511D01*
X157979775Y-66108117D01*
X157943410Y-66167778D01*
X157880563Y-66198307D01*
X157811188Y-66190012D01*
X157757310Y-66145527D01*
X157740225Y-66108117D01*
X157686741Y-65908511D01*
X157686738Y-65908502D01*
X157658550Y-65848053D01*
X157590568Y-65702266D01*
X157460047Y-65515861D01*
X157460045Y-65515858D01*
X157299141Y-65354954D01*
X157112734Y-65224432D01*
X157112732Y-65224431D01*
X156906497Y-65128261D01*
X156906488Y-65128258D01*
X156686697Y-65069366D01*
X156686693Y-65069365D01*
X156686692Y-65069365D01*
X156686691Y-65069364D01*
X156686686Y-65069364D01*
X156460002Y-65049532D01*
X156459998Y-65049532D01*
X156233313Y-65069364D01*
X156233302Y-65069366D01*
X156013511Y-65128258D01*
X156013502Y-65128261D01*
X155807267Y-65224431D01*
X155807265Y-65224432D01*
X155620858Y-65354954D01*
X155459954Y-65515858D01*
X155329432Y-65702265D01*
X155329431Y-65702267D01*
X155233261Y-65908502D01*
X155233258Y-65908511D01*
X155174366Y-66128302D01*
X155174364Y-66128313D01*
X155154532Y-66354998D01*
X155154532Y-66355001D01*
X84471816Y-66355001D01*
X84578531Y-66180861D01*
X84671896Y-65955457D01*
X84728851Y-65718219D01*
X84747992Y-65474999D01*
X84728851Y-65231780D01*
X84671896Y-64994542D01*
X84578531Y-64769138D01*
X84454694Y-64567056D01*
X83948307Y-65073444D01*
X83886984Y-65106929D01*
X83817292Y-65101945D01*
X83767811Y-65067990D01*
X83763753Y-65063410D01*
X83690182Y-64980365D01*
X83660799Y-64947198D01*
X83660797Y-64947196D01*
X83660795Y-64947194D01*
X83609696Y-64911923D01*
X83609695Y-64911922D01*
X83565705Y-64857639D01*
X83558045Y-64788190D01*
X83589149Y-64725625D01*
X83592454Y-64722191D01*
X84101221Y-64213425D01*
X84101221Y-64185773D01*
X83592454Y-63677007D01*
X83558969Y-63615684D01*
X83563953Y-63545993D01*
X83605824Y-63490059D01*
X83609660Y-63487301D01*
X83660795Y-63452006D01*
X83767811Y-63331209D01*
X83827001Y-63294082D01*
X83896866Y-63294850D01*
X83948308Y-63325755D01*
X84454694Y-63832142D01*
X84578531Y-63630061D01*
X84671896Y-63404657D01*
X84728851Y-63167419D01*
X84743994Y-62975000D01*
X91644706Y-62975000D01*
X91663853Y-63218297D01*
X91663853Y-63218300D01*
X91663854Y-63218302D01*
X91719962Y-63452006D01*
X91720830Y-63455619D01*
X91814222Y-63681089D01*
X91941737Y-63889173D01*
X91941738Y-63889176D01*
X91980924Y-63935057D01*
X92100241Y-64074759D01*
X92230222Y-64185773D01*
X92285823Y-64233261D01*
X92285826Y-64233262D01*
X92493910Y-64360777D01*
X92719381Y-64454169D01*
X92719378Y-64454169D01*
X92719384Y-64454170D01*
X92719388Y-64454172D01*
X92956698Y-64511146D01*
X93200000Y-64530294D01*
X93443302Y-64511146D01*
X93680612Y-64454172D01*
X93906089Y-64360777D01*
X94114179Y-64233259D01*
X94299759Y-64074759D01*
X94458259Y-63889179D01*
X94585777Y-63681089D01*
X94679172Y-63455612D01*
X94736146Y-63218302D01*
X94755294Y-62975000D01*
X94736146Y-62731698D01*
X94679172Y-62494388D01*
X94648595Y-62420567D01*
X94585777Y-62268910D01*
X94458262Y-62060826D01*
X94458261Y-62060823D01*
X94357403Y-61942734D01*
X94299759Y-61875241D01*
X94173828Y-61767686D01*
X94114176Y-61716738D01*
X94114173Y-61716737D01*
X93906089Y-61589222D01*
X93680618Y-61495830D01*
X93680621Y-61495830D01*
X93557546Y-61466282D01*
X93443302Y-61438854D01*
X93443300Y-61438853D01*
X93443297Y-61438853D01*
X93200000Y-61419706D01*
X92956702Y-61438853D01*
X92719380Y-61495830D01*
X92493910Y-61589222D01*
X92285826Y-61716737D01*
X92285823Y-61716738D01*
X92100241Y-61875241D01*
X91941738Y-62060823D01*
X91941737Y-62060826D01*
X91814222Y-62268910D01*
X91720830Y-62494380D01*
X91720828Y-62494387D01*
X91720828Y-62494388D01*
X91701322Y-62575634D01*
X91663853Y-62731702D01*
X91644706Y-62975000D01*
X84743994Y-62975000D01*
X84747992Y-62924200D01*
X84728851Y-62680980D01*
X84671896Y-62443742D01*
X84578531Y-62218338D01*
X84454694Y-62016256D01*
X83948307Y-62522644D01*
X83886984Y-62556129D01*
X83817292Y-62551145D01*
X83767811Y-62517190D01*
X83767411Y-62516739D01*
X83702742Y-62443742D01*
X83660799Y-62396398D01*
X83660797Y-62396396D01*
X83660795Y-62396394D01*
X83609696Y-62361123D01*
X83609695Y-62361122D01*
X83565705Y-62306839D01*
X83558045Y-62237390D01*
X83589149Y-62174825D01*
X83592454Y-62171391D01*
X84064247Y-61699598D01*
X83760331Y-61395683D01*
X107229500Y-61395683D01*
X107268338Y-61603450D01*
X107268339Y-61603452D01*
X107344690Y-61800539D01*
X107344691Y-61800540D01*
X107344692Y-61800542D01*
X107432734Y-61942735D01*
X107455963Y-61980250D01*
X107598355Y-62136448D01*
X107679177Y-62197482D01*
X107767032Y-62263827D01*
X107940283Y-62350096D01*
X107956237Y-62358040D01*
X107956243Y-62358043D01*
X108120133Y-62404673D01*
X108159536Y-62415884D01*
X108317271Y-62430500D01*
X108317275Y-62430500D01*
X108422725Y-62430500D01*
X108422729Y-62430500D01*
X108580464Y-62415884D01*
X108690300Y-62384633D01*
X108783756Y-62358043D01*
X108783758Y-62358041D01*
X108783761Y-62358041D01*
X108972968Y-62263827D01*
X109141642Y-62136450D01*
X109284038Y-61980249D01*
X109395308Y-61800542D01*
X109438529Y-61688974D01*
X109481102Y-61633574D01*
X109546869Y-61609983D01*
X109614949Y-61625694D01*
X109663728Y-61675718D01*
X109673931Y-61701676D01*
X109683258Y-61736488D01*
X109683261Y-61736497D01*
X109779431Y-61942732D01*
X109779432Y-61942734D01*
X109909954Y-62129141D01*
X110070858Y-62290045D01*
X110070861Y-62290047D01*
X110257266Y-62420568D01*
X110463504Y-62516739D01*
X110463509Y-62516740D01*
X110463511Y-62516741D01*
X110516415Y-62530916D01*
X110683308Y-62575635D01*
X110845230Y-62589801D01*
X110909998Y-62595468D01*
X110910000Y-62595468D01*
X110910002Y-62595468D01*
X110966807Y-62590498D01*
X111136692Y-62575635D01*
X111356496Y-62516739D01*
X111562734Y-62420568D01*
X111749139Y-62290047D01*
X111910047Y-62129139D01*
X112040568Y-61942734D01*
X112067619Y-61884721D01*
X112113788Y-61832286D01*
X112180981Y-61813133D01*
X112247862Y-61833348D01*
X112292380Y-61884722D01*
X112319432Y-61942734D01*
X112345700Y-61980249D01*
X112449954Y-62129141D01*
X112610858Y-62290045D01*
X112610861Y-62290047D01*
X112797266Y-62420568D01*
X113003504Y-62516739D01*
X113003509Y-62516740D01*
X113003511Y-62516741D01*
X113056415Y-62530916D01*
X113223308Y-62575635D01*
X113385230Y-62589801D01*
X113449998Y-62595468D01*
X113450000Y-62595468D01*
X113450002Y-62595468D01*
X113506807Y-62590498D01*
X113676692Y-62575635D01*
X113896496Y-62516739D01*
X114102734Y-62420568D01*
X114289139Y-62290047D01*
X114450047Y-62129139D01*
X114580568Y-61942734D01*
X114607619Y-61884721D01*
X114653788Y-61832286D01*
X114720981Y-61813133D01*
X114787862Y-61833348D01*
X114832380Y-61884722D01*
X114859432Y-61942734D01*
X114885700Y-61980249D01*
X114989954Y-62129141D01*
X115150858Y-62290045D01*
X115150861Y-62290047D01*
X115337266Y-62420568D01*
X115543504Y-62516739D01*
X115543509Y-62516740D01*
X115543511Y-62516741D01*
X115596415Y-62530916D01*
X115763308Y-62575635D01*
X115925230Y-62589801D01*
X115989998Y-62595468D01*
X115990000Y-62595468D01*
X115990002Y-62595468D01*
X116046807Y-62590498D01*
X116216692Y-62575635D01*
X116333408Y-62544361D01*
X116403256Y-62546024D01*
X116461119Y-62585186D01*
X116488623Y-62649415D01*
X116489500Y-62664136D01*
X116489500Y-63306951D01*
X116489387Y-63310696D01*
X116485642Y-63372603D01*
X116485642Y-63372605D01*
X116496821Y-63433612D01*
X116497384Y-63437313D01*
X116504859Y-63498870D01*
X116504860Y-63498874D01*
X116508451Y-63508343D01*
X116514474Y-63529946D01*
X116516304Y-63539930D01*
X116541759Y-63596490D01*
X116543189Y-63599941D01*
X116565182Y-63657930D01*
X116565183Y-63657931D01*
X116570936Y-63666266D01*
X116581961Y-63685813D01*
X116586120Y-63695055D01*
X116586124Y-63695060D01*
X116624371Y-63743878D01*
X116626588Y-63746892D01*
X116629963Y-63751781D01*
X116661812Y-63797924D01*
X116661816Y-63797928D01*
X116661817Y-63797929D01*
X116708250Y-63839064D01*
X116710941Y-63841598D01*
X117848399Y-64979056D01*
X117850935Y-64981750D01*
X117892071Y-65028183D01*
X117943106Y-65063410D01*
X117946122Y-65065630D01*
X117957360Y-65074434D01*
X117994943Y-65103878D01*
X118001722Y-65106929D01*
X118004182Y-65108036D01*
X118023733Y-65119063D01*
X118032070Y-65124818D01*
X118090065Y-65146812D01*
X118093474Y-65148223D01*
X118140787Y-65169517D01*
X118150064Y-65173693D01*
X118150065Y-65173693D01*
X118150069Y-65173695D01*
X118160034Y-65175521D01*
X118181656Y-65181548D01*
X118181667Y-65181552D01*
X118191128Y-65185140D01*
X118236251Y-65190618D01*
X118252674Y-65192613D01*
X118256371Y-65193175D01*
X118317394Y-65204358D01*
X118372752Y-65201009D01*
X118379303Y-65200613D01*
X118383048Y-65200500D01*
X145516952Y-65200500D01*
X145520697Y-65200613D01*
X145528042Y-65201057D01*
X145582606Y-65204358D01*
X145620314Y-65197447D01*
X145643621Y-65193177D01*
X145647325Y-65192613D01*
X145665170Y-65190446D01*
X145708872Y-65185140D01*
X145718335Y-65181550D01*
X145739961Y-65175522D01*
X145740893Y-65175351D01*
X145749932Y-65173695D01*
X145806512Y-65148229D01*
X145809942Y-65146809D01*
X145867930Y-65124818D01*
X145876266Y-65119062D01*
X145895821Y-65108034D01*
X145905057Y-65103878D01*
X145953896Y-65065613D01*
X145956876Y-65063421D01*
X146007929Y-65028183D01*
X146049065Y-64981748D01*
X146051599Y-64979056D01*
X146949048Y-64081606D01*
X146951740Y-64079072D01*
X146998183Y-64037929D01*
X147033427Y-63986867D01*
X147035634Y-63983869D01*
X147073878Y-63935056D01*
X147078037Y-63925813D01*
X147089061Y-63906268D01*
X147094818Y-63897930D01*
X147116810Y-63839939D01*
X147118232Y-63836503D01*
X147143695Y-63779931D01*
X147145522Y-63769959D01*
X147151546Y-63748347D01*
X147155140Y-63738872D01*
X147162613Y-63677324D01*
X147163177Y-63673619D01*
X147172233Y-63624200D01*
X147174358Y-63612606D01*
X147170613Y-63550696D01*
X147170500Y-63546951D01*
X147170500Y-62714499D01*
X147190185Y-62647460D01*
X147242989Y-62601705D01*
X147294500Y-62590499D01*
X147317871Y-62590499D01*
X147317872Y-62590499D01*
X147377483Y-62584091D01*
X147512331Y-62533796D01*
X147627546Y-62447546D01*
X147713796Y-62332331D01*
X147764091Y-62197483D01*
X147770500Y-62137873D01*
X147770499Y-61890421D01*
X147790183Y-61823385D01*
X147842987Y-61777630D01*
X147912146Y-61767686D01*
X147975701Y-61796711D01*
X147999926Y-61825146D01*
X148006190Y-61835262D01*
X148072734Y-61942735D01*
X148095963Y-61980250D01*
X148238355Y-62136448D01*
X148319177Y-62197482D01*
X148407032Y-62263827D01*
X148580283Y-62350096D01*
X148596237Y-62358040D01*
X148596243Y-62358043D01*
X148760133Y-62404673D01*
X148799536Y-62415884D01*
X148957271Y-62430500D01*
X148957275Y-62430500D01*
X149062725Y-62430500D01*
X149062729Y-62430500D01*
X149220464Y-62415884D01*
X149330300Y-62384633D01*
X149423756Y-62358043D01*
X149423758Y-62358041D01*
X149423761Y-62358041D01*
X149612968Y-62263827D01*
X149781642Y-62136450D01*
X149924038Y-61980249D01*
X150035308Y-61800542D01*
X150111662Y-61603450D01*
X150150500Y-61395683D01*
X150150500Y-61184317D01*
X150111662Y-60976550D01*
X150046028Y-60807129D01*
X150035309Y-60779460D01*
X150035308Y-60779459D01*
X150035308Y-60779458D01*
X149924038Y-60599751D01*
X149855426Y-60524487D01*
X149781644Y-60443551D01*
X149612968Y-60316173D01*
X149423762Y-60221959D01*
X149423756Y-60221956D01*
X149220466Y-60164116D01*
X149220463Y-60164115D01*
X149108472Y-60153738D01*
X149062729Y-60149500D01*
X148957271Y-60149500D01*
X148916693Y-60153260D01*
X148799536Y-60164115D01*
X148799533Y-60164116D01*
X148596243Y-60221956D01*
X148596237Y-60221959D01*
X148407031Y-60316173D01*
X148238355Y-60443551D01*
X148095963Y-60599749D01*
X147999926Y-60754854D01*
X147947898Y-60801489D01*
X147878916Y-60812593D01*
X147814882Y-60784640D01*
X147776125Y-60726504D01*
X147770499Y-60689576D01*
X147770499Y-60442129D01*
X147770498Y-60442123D01*
X147764091Y-60382516D01*
X147713797Y-60247671D01*
X147713793Y-60247664D01*
X147627547Y-60132455D01*
X147627544Y-60132452D01*
X147512335Y-60046206D01*
X147512328Y-60046202D01*
X147377482Y-59995908D01*
X147377483Y-59995908D01*
X147317883Y-59989501D01*
X147317881Y-59989500D01*
X147317873Y-59989500D01*
X147317864Y-59989500D01*
X145622129Y-59989500D01*
X145622123Y-59989501D01*
X145562516Y-59995908D01*
X145427671Y-60046202D01*
X145427664Y-60046206D01*
X145312455Y-60132452D01*
X145312452Y-60132455D01*
X145226206Y-60247664D01*
X145226202Y-60247671D01*
X145175908Y-60382516D01*
X145172137Y-60417596D01*
X145145398Y-60482146D01*
X145088006Y-60521994D01*
X145018180Y-60524487D01*
X144958092Y-60488834D01*
X144947273Y-60475462D01*
X144930045Y-60450858D01*
X144769141Y-60289954D01*
X144582734Y-60159432D01*
X144582732Y-60159431D01*
X144376497Y-60063261D01*
X144376488Y-60063258D01*
X144156697Y-60004366D01*
X144156693Y-60004365D01*
X144156692Y-60004365D01*
X144156691Y-60004364D01*
X144156686Y-60004364D01*
X143930002Y-59984532D01*
X143929998Y-59984532D01*
X143703313Y-60004364D01*
X143703302Y-60004366D01*
X143483511Y-60063258D01*
X143483502Y-60063261D01*
X143277267Y-60159431D01*
X143277265Y-60159432D01*
X143090858Y-60289954D01*
X142929954Y-60450858D01*
X142799432Y-60637265D01*
X142799431Y-60637267D01*
X142772382Y-60695275D01*
X142726209Y-60747714D01*
X142659016Y-60766866D01*
X142592135Y-60746650D01*
X142547618Y-60695275D01*
X142547463Y-60694942D01*
X142520568Y-60637266D01*
X142406949Y-60475000D01*
X142390045Y-60450858D01*
X142229141Y-60289954D01*
X142042734Y-60159432D01*
X142042732Y-60159431D01*
X141836497Y-60063261D01*
X141836488Y-60063258D01*
X141616697Y-60004366D01*
X141616693Y-60004365D01*
X141616692Y-60004365D01*
X141616691Y-60004364D01*
X141616686Y-60004364D01*
X141390002Y-59984532D01*
X141389998Y-59984532D01*
X141163313Y-60004364D01*
X141163302Y-60004366D01*
X140943511Y-60063258D01*
X140943502Y-60063261D01*
X140737267Y-60159431D01*
X140737265Y-60159432D01*
X140550858Y-60289954D01*
X140389954Y-60450858D01*
X140276653Y-60612671D01*
X140259432Y-60637266D01*
X140232535Y-60694948D01*
X140232106Y-60695867D01*
X140185933Y-60748306D01*
X140118739Y-60767457D01*
X140051858Y-60747241D01*
X140007342Y-60695865D01*
X139980135Y-60637520D01*
X139980134Y-60637518D01*
X139849657Y-60451179D01*
X139688820Y-60290342D01*
X139502482Y-60159865D01*
X139296328Y-60063734D01*
X139100000Y-60011127D01*
X139100000Y-60677698D01*
X139080315Y-60744737D01*
X139027511Y-60790492D01*
X138958355Y-60800436D01*
X138885766Y-60790000D01*
X138885763Y-60790000D01*
X138814237Y-60790000D01*
X138814233Y-60790000D01*
X138741645Y-60800436D01*
X138672487Y-60790492D01*
X138619684Y-60744736D01*
X138600000Y-60677698D01*
X138600000Y-60011127D01*
X138403671Y-60063734D01*
X138197517Y-60159865D01*
X138011179Y-60290342D01*
X137850342Y-60451179D01*
X137719867Y-60637515D01*
X137692657Y-60695867D01*
X137646484Y-60748306D01*
X137579290Y-60767457D01*
X137512409Y-60747241D01*
X137467893Y-60695865D01*
X137467465Y-60694948D01*
X137440568Y-60637266D01*
X137326949Y-60475000D01*
X137310045Y-60450858D01*
X137149141Y-60289954D01*
X136962734Y-60159432D01*
X136962732Y-60159431D01*
X136756497Y-60063261D01*
X136756488Y-60063258D01*
X136536697Y-60004366D01*
X136536693Y-60004365D01*
X136536692Y-60004365D01*
X136536691Y-60004364D01*
X136536686Y-60004364D01*
X136310002Y-59984532D01*
X136309998Y-59984532D01*
X136083313Y-60004364D01*
X136083302Y-60004366D01*
X135863511Y-60063258D01*
X135863502Y-60063261D01*
X135657267Y-60159431D01*
X135657265Y-60159432D01*
X135470858Y-60289954D01*
X135309954Y-60450858D01*
X135179432Y-60637265D01*
X135179431Y-60637267D01*
X135152382Y-60695275D01*
X135106209Y-60747714D01*
X135039016Y-60766866D01*
X134972135Y-60746650D01*
X134927618Y-60695275D01*
X134927463Y-60694942D01*
X134900568Y-60637266D01*
X134786949Y-60475000D01*
X134770045Y-60450858D01*
X134609141Y-60289954D01*
X134422734Y-60159432D01*
X134422732Y-60159431D01*
X134216497Y-60063261D01*
X134216488Y-60063258D01*
X133996697Y-60004366D01*
X133996693Y-60004365D01*
X133996692Y-60004365D01*
X133996691Y-60004364D01*
X133996686Y-60004364D01*
X133770002Y-59984532D01*
X133769998Y-59984532D01*
X133543313Y-60004364D01*
X133543302Y-60004366D01*
X133323511Y-60063258D01*
X133323502Y-60063261D01*
X133117267Y-60159431D01*
X133117265Y-60159432D01*
X132930858Y-60289954D01*
X132769954Y-60450858D01*
X132639432Y-60637265D01*
X132639431Y-60637267D01*
X132612382Y-60695275D01*
X132566209Y-60747714D01*
X132499016Y-60766866D01*
X132432135Y-60746650D01*
X132387618Y-60695275D01*
X132387463Y-60694942D01*
X132360568Y-60637266D01*
X132246949Y-60475000D01*
X132230045Y-60450858D01*
X132069141Y-60289954D01*
X131882734Y-60159432D01*
X131882732Y-60159431D01*
X131676497Y-60063261D01*
X131676488Y-60063258D01*
X131456697Y-60004366D01*
X131456693Y-60004365D01*
X131456692Y-60004365D01*
X131456691Y-60004364D01*
X131456686Y-60004364D01*
X131230002Y-59984532D01*
X131229998Y-59984532D01*
X131003313Y-60004364D01*
X131003302Y-60004366D01*
X130783511Y-60063258D01*
X130783502Y-60063261D01*
X130577267Y-60159431D01*
X130577265Y-60159432D01*
X130390858Y-60289954D01*
X130229954Y-60450858D01*
X130099432Y-60637265D01*
X130099431Y-60637267D01*
X130072382Y-60695275D01*
X130026209Y-60747714D01*
X129959016Y-60766866D01*
X129892135Y-60746650D01*
X129847618Y-60695275D01*
X129847463Y-60694942D01*
X129820568Y-60637266D01*
X129706949Y-60475000D01*
X129690045Y-60450858D01*
X129529141Y-60289954D01*
X129342734Y-60159432D01*
X129342732Y-60159431D01*
X129136497Y-60063261D01*
X129136488Y-60063258D01*
X128916697Y-60004366D01*
X128916693Y-60004365D01*
X128916692Y-60004365D01*
X128916691Y-60004364D01*
X128916686Y-60004364D01*
X128690002Y-59984532D01*
X128689998Y-59984532D01*
X128463313Y-60004364D01*
X128463302Y-60004366D01*
X128243511Y-60063258D01*
X128243502Y-60063261D01*
X128037267Y-60159431D01*
X128037265Y-60159432D01*
X127850858Y-60289954D01*
X127689954Y-60450858D01*
X127559432Y-60637265D01*
X127559431Y-60637267D01*
X127532382Y-60695275D01*
X127486209Y-60747714D01*
X127419016Y-60766866D01*
X127352135Y-60746650D01*
X127307618Y-60695275D01*
X127307463Y-60694942D01*
X127280568Y-60637266D01*
X127166949Y-60475000D01*
X127150045Y-60450858D01*
X126989141Y-60289954D01*
X126802734Y-60159432D01*
X126802732Y-60159431D01*
X126596497Y-60063261D01*
X126596488Y-60063258D01*
X126376697Y-60004366D01*
X126376693Y-60004365D01*
X126376692Y-60004365D01*
X126376691Y-60004364D01*
X126376686Y-60004364D01*
X126150002Y-59984532D01*
X126149998Y-59984532D01*
X125923313Y-60004364D01*
X125923302Y-60004366D01*
X125703511Y-60063258D01*
X125703502Y-60063261D01*
X125497267Y-60159431D01*
X125497265Y-60159432D01*
X125310858Y-60289954D01*
X125149954Y-60450858D01*
X125019432Y-60637265D01*
X125019431Y-60637267D01*
X124992382Y-60695275D01*
X124946209Y-60747714D01*
X124879016Y-60766866D01*
X124812135Y-60746650D01*
X124767618Y-60695275D01*
X124767463Y-60694942D01*
X124740568Y-60637266D01*
X124626949Y-60475000D01*
X124610045Y-60450858D01*
X124449141Y-60289954D01*
X124262734Y-60159432D01*
X124262732Y-60159431D01*
X124056497Y-60063261D01*
X124056488Y-60063258D01*
X123836697Y-60004366D01*
X123836693Y-60004365D01*
X123836692Y-60004365D01*
X123836691Y-60004364D01*
X123836686Y-60004364D01*
X123610002Y-59984532D01*
X123609998Y-59984532D01*
X123383313Y-60004364D01*
X123383302Y-60004366D01*
X123163511Y-60063258D01*
X123163502Y-60063261D01*
X122957267Y-60159431D01*
X122957265Y-60159432D01*
X122770858Y-60289954D01*
X122609954Y-60450858D01*
X122479432Y-60637265D01*
X122479431Y-60637267D01*
X122452382Y-60695275D01*
X122406209Y-60747714D01*
X122339016Y-60766866D01*
X122272135Y-60746650D01*
X122227618Y-60695275D01*
X122227463Y-60694942D01*
X122200568Y-60637266D01*
X122086949Y-60475000D01*
X122070045Y-60450858D01*
X121909141Y-60289954D01*
X121722734Y-60159432D01*
X121722732Y-60159431D01*
X121516497Y-60063261D01*
X121516488Y-60063258D01*
X121296697Y-60004366D01*
X121296693Y-60004365D01*
X121296692Y-60004365D01*
X121296691Y-60004364D01*
X121296686Y-60004364D01*
X121070002Y-59984532D01*
X121069998Y-59984532D01*
X120843313Y-60004364D01*
X120843302Y-60004366D01*
X120623511Y-60063258D01*
X120623501Y-60063262D01*
X120606900Y-60071003D01*
X120537822Y-60081492D01*
X120474039Y-60052970D01*
X120435802Y-59994493D01*
X120430500Y-59958625D01*
X120430500Y-59243046D01*
X120430613Y-59239302D01*
X120434358Y-59177394D01*
X120423175Y-59116371D01*
X120422613Y-59112674D01*
X120417402Y-59069759D01*
X120415140Y-59051128D01*
X120411548Y-59041656D01*
X120405521Y-59020034D01*
X120403695Y-59010071D01*
X120403695Y-59010069D01*
X120378224Y-58953476D01*
X120376817Y-58950079D01*
X120354818Y-58892070D01*
X120354816Y-58892068D01*
X120354816Y-58892066D01*
X120349062Y-58883731D01*
X120338034Y-58864177D01*
X120333880Y-58854947D01*
X120333878Y-58854944D01*
X120295621Y-58806112D01*
X120293427Y-58803130D01*
X120258183Y-58752071D01*
X120211750Y-58710935D01*
X120209056Y-58708399D01*
X119759528Y-58258871D01*
X119607603Y-58106945D01*
X119574118Y-58045622D01*
X119579102Y-57975930D01*
X119607601Y-57931584D01*
X119720047Y-57819139D01*
X119850568Y-57632734D01*
X119877618Y-57574724D01*
X119923790Y-57522285D01*
X119990983Y-57503133D01*
X120057865Y-57523348D01*
X120102382Y-57574725D01*
X120129429Y-57632728D01*
X120129432Y-57632734D01*
X120259954Y-57819141D01*
X120420858Y-57980045D01*
X120420861Y-57980047D01*
X120607266Y-58110568D01*
X120813504Y-58206739D01*
X120813509Y-58206740D01*
X120813511Y-58206741D01*
X120863167Y-58220046D01*
X121033308Y-58265635D01*
X121195230Y-58279801D01*
X121259998Y-58285468D01*
X121260000Y-58285468D01*
X121260002Y-58285468D01*
X121316673Y-58280509D01*
X121486692Y-58265635D01*
X121706496Y-58206739D01*
X121912734Y-58110568D01*
X122099139Y-57980047D01*
X122260047Y-57819139D01*
X122390568Y-57632734D01*
X122417618Y-57574724D01*
X122463790Y-57522285D01*
X122530983Y-57503133D01*
X122597865Y-57523348D01*
X122642382Y-57574725D01*
X122669429Y-57632728D01*
X122669432Y-57632734D01*
X122799954Y-57819141D01*
X122960858Y-57980045D01*
X122960861Y-57980047D01*
X123147266Y-58110568D01*
X123353504Y-58206739D01*
X123353509Y-58206740D01*
X123353511Y-58206741D01*
X123403167Y-58220046D01*
X123573308Y-58265635D01*
X123735230Y-58279801D01*
X123799998Y-58285468D01*
X123800000Y-58285468D01*
X123800002Y-58285468D01*
X123856672Y-58280509D01*
X124026692Y-58265635D01*
X124246496Y-58206739D01*
X124452734Y-58110568D01*
X124639139Y-57980047D01*
X124800047Y-57819139D01*
X124930568Y-57632734D01*
X124957895Y-57574129D01*
X125004064Y-57521695D01*
X125071257Y-57502542D01*
X125138139Y-57522757D01*
X125182657Y-57574133D01*
X125209865Y-57632482D01*
X125340342Y-57818820D01*
X125501179Y-57979657D01*
X125687517Y-58110134D01*
X125893673Y-58206265D01*
X125893682Y-58206269D01*
X126089999Y-58258872D01*
X126090000Y-58258871D01*
X126090000Y-57490575D01*
X126109685Y-57423536D01*
X126162489Y-57377781D01*
X126231647Y-57367837D01*
X126233331Y-57368091D01*
X126265699Y-57373218D01*
X126308515Y-57380000D01*
X126308519Y-57380000D01*
X126371485Y-57380000D01*
X126414300Y-57373218D01*
X126446602Y-57368102D01*
X126515894Y-57377056D01*
X126569347Y-57422052D01*
X126589987Y-57488803D01*
X126590000Y-57490575D01*
X126590000Y-58258872D01*
X126786317Y-58206269D01*
X126786326Y-58206265D01*
X126992482Y-58110134D01*
X127178820Y-57979657D01*
X127339657Y-57818820D01*
X127470132Y-57632484D01*
X127497341Y-57574134D01*
X127543513Y-57521695D01*
X127610707Y-57502542D01*
X127677588Y-57522757D01*
X127722106Y-57574133D01*
X127749431Y-57632732D01*
X127749432Y-57632734D01*
X127879954Y-57819141D01*
X128040858Y-57980045D01*
X128040861Y-57980047D01*
X128227266Y-58110568D01*
X128433504Y-58206739D01*
X128433509Y-58206740D01*
X128433511Y-58206741D01*
X128483167Y-58220046D01*
X128653308Y-58265635D01*
X128815230Y-58279801D01*
X128879998Y-58285468D01*
X128880000Y-58285468D01*
X128880002Y-58285468D01*
X128936673Y-58280509D01*
X129106692Y-58265635D01*
X129326496Y-58206739D01*
X129532734Y-58110568D01*
X129719139Y-57980047D01*
X129880047Y-57819139D01*
X130010568Y-57632734D01*
X130106739Y-57426496D01*
X130165635Y-57206692D01*
X130185468Y-56980000D01*
X130185153Y-56976404D01*
X130178528Y-56900671D01*
X130165635Y-56753308D01*
X130116518Y-56570000D01*
X130106741Y-56533511D01*
X130106738Y-56533502D01*
X130105083Y-56529952D01*
X130010568Y-56327266D01*
X129880047Y-56140861D01*
X129880045Y-56140858D01*
X129719141Y-55979954D01*
X129532734Y-55849432D01*
X129532732Y-55849431D01*
X129326497Y-55753261D01*
X129326488Y-55753258D01*
X129106697Y-55694366D01*
X129106693Y-55694365D01*
X129106692Y-55694365D01*
X129106691Y-55694364D01*
X129106686Y-55694364D01*
X128880002Y-55674532D01*
X128879998Y-55674532D01*
X128653313Y-55694364D01*
X128653302Y-55694366D01*
X128433511Y-55753258D01*
X128433502Y-55753261D01*
X128227267Y-55849431D01*
X128227265Y-55849432D01*
X128040858Y-55979954D01*
X127879954Y-56140858D01*
X127751219Y-56324714D01*
X127749432Y-56327266D01*
X127722895Y-56384176D01*
X127722106Y-56385867D01*
X127675933Y-56438306D01*
X127608739Y-56457457D01*
X127541858Y-56437241D01*
X127497342Y-56385865D01*
X127470135Y-56327520D01*
X127470134Y-56327518D01*
X127339657Y-56141179D01*
X127178820Y-55980342D01*
X126992482Y-55849865D01*
X126786328Y-55753734D01*
X126590000Y-55701127D01*
X126590000Y-56469424D01*
X126570315Y-56536463D01*
X126517511Y-56582218D01*
X126448353Y-56592162D01*
X126446602Y-56591897D01*
X126371486Y-56580000D01*
X126371481Y-56580000D01*
X126308519Y-56580000D01*
X126308514Y-56580000D01*
X126233398Y-56591897D01*
X126164104Y-56582942D01*
X126110652Y-56537946D01*
X126090013Y-56471194D01*
X126090000Y-56469424D01*
X126090000Y-55701127D01*
X125893671Y-55753734D01*
X125687517Y-55849865D01*
X125501179Y-55980342D01*
X125340342Y-56141179D01*
X125209867Y-56327515D01*
X125182657Y-56385867D01*
X125136484Y-56438306D01*
X125069290Y-56457457D01*
X125002409Y-56437241D01*
X124957893Y-56385865D01*
X124957105Y-56384176D01*
X124930568Y-56327266D01*
X124800047Y-56140861D01*
X124800045Y-56140858D01*
X124639141Y-55979954D01*
X124452734Y-55849432D01*
X124452732Y-55849431D01*
X124246497Y-55753261D01*
X124246488Y-55753258D01*
X124026697Y-55694366D01*
X124026693Y-55694365D01*
X124026692Y-55694365D01*
X124026691Y-55694364D01*
X124026686Y-55694364D01*
X123800002Y-55674532D01*
X123799998Y-55674532D01*
X123573313Y-55694364D01*
X123573302Y-55694366D01*
X123353511Y-55753258D01*
X123353502Y-55753261D01*
X123147267Y-55849431D01*
X123147265Y-55849432D01*
X122960858Y-55979954D01*
X122799954Y-56140858D01*
X122669432Y-56327265D01*
X122669431Y-56327267D01*
X122642382Y-56385275D01*
X122596209Y-56437714D01*
X122529016Y-56456866D01*
X122462135Y-56436650D01*
X122417618Y-56385275D01*
X122411783Y-56372761D01*
X122390568Y-56327266D01*
X122260047Y-56140861D01*
X122260045Y-56140858D01*
X122099141Y-55979954D01*
X121912734Y-55849432D01*
X121912732Y-55849431D01*
X121706497Y-55753261D01*
X121706488Y-55753258D01*
X121486697Y-55694366D01*
X121486693Y-55694365D01*
X121486692Y-55694365D01*
X121486691Y-55694364D01*
X121486686Y-55694364D01*
X121260002Y-55674532D01*
X121259998Y-55674532D01*
X121033313Y-55694364D01*
X121033302Y-55694366D01*
X120813511Y-55753258D01*
X120813502Y-55753261D01*
X120607267Y-55849431D01*
X120607265Y-55849432D01*
X120420858Y-55979954D01*
X120259954Y-56140858D01*
X120129432Y-56327265D01*
X120129431Y-56327267D01*
X120102382Y-56385275D01*
X120056209Y-56437714D01*
X119989016Y-56456866D01*
X119922135Y-56436650D01*
X119877618Y-56385275D01*
X119871783Y-56372761D01*
X119850568Y-56327266D01*
X119720047Y-56140861D01*
X119720045Y-56140858D01*
X119559141Y-55979954D01*
X119372734Y-55849432D01*
X119372732Y-55849431D01*
X119166497Y-55753261D01*
X119166488Y-55753258D01*
X118946697Y-55694366D01*
X118946693Y-55694365D01*
X118946692Y-55694365D01*
X118946691Y-55694364D01*
X118946686Y-55694364D01*
X118720002Y-55674532D01*
X118719998Y-55674532D01*
X118493313Y-55694364D01*
X118493302Y-55694366D01*
X118273511Y-55753258D01*
X118273502Y-55753261D01*
X118067267Y-55849431D01*
X118067265Y-55849432D01*
X117880858Y-55979954D01*
X117719954Y-56140858D01*
X117589432Y-56327265D01*
X117589431Y-56327267D01*
X117562382Y-56385275D01*
X117516209Y-56437714D01*
X117449016Y-56456866D01*
X117382135Y-56436650D01*
X117337618Y-56385275D01*
X117331783Y-56372761D01*
X117310568Y-56327266D01*
X117180047Y-56140861D01*
X117180045Y-56140858D01*
X117019141Y-55979954D01*
X116832734Y-55849432D01*
X116832732Y-55849431D01*
X116626497Y-55753261D01*
X116626488Y-55753258D01*
X116406697Y-55694366D01*
X116406693Y-55694365D01*
X116406692Y-55694365D01*
X116406691Y-55694364D01*
X116406686Y-55694364D01*
X116180002Y-55674532D01*
X116179998Y-55674532D01*
X115953313Y-55694364D01*
X115953302Y-55694366D01*
X115733511Y-55753258D01*
X115733502Y-55753261D01*
X115527267Y-55849431D01*
X115527265Y-55849432D01*
X115340858Y-55979954D01*
X115179954Y-56140858D01*
X115051219Y-56324714D01*
X115049432Y-56327266D01*
X115022895Y-56384176D01*
X115022106Y-56385867D01*
X114975933Y-56438306D01*
X114908739Y-56457457D01*
X114841858Y-56437241D01*
X114797342Y-56385865D01*
X114770135Y-56327520D01*
X114770134Y-56327518D01*
X114639657Y-56141179D01*
X114478820Y-55980342D01*
X114292482Y-55849865D01*
X114086328Y-55753734D01*
X113890000Y-55701127D01*
X113890000Y-56469424D01*
X113870315Y-56536463D01*
X113817511Y-56582218D01*
X113748353Y-56592162D01*
X113746602Y-56591897D01*
X113671486Y-56580000D01*
X113671481Y-56580000D01*
X113608519Y-56580000D01*
X113608514Y-56580000D01*
X113533398Y-56591897D01*
X113464104Y-56582942D01*
X113410652Y-56537946D01*
X113390013Y-56471194D01*
X113390000Y-56469424D01*
X113390000Y-55701127D01*
X113193671Y-55753734D01*
X112987517Y-55849865D01*
X112801179Y-55980342D01*
X112640342Y-56141179D01*
X112509867Y-56327515D01*
X112482657Y-56385867D01*
X112436484Y-56438306D01*
X112369290Y-56457457D01*
X112302409Y-56437241D01*
X112257893Y-56385865D01*
X112257105Y-56384176D01*
X112230568Y-56327266D01*
X112100047Y-56140861D01*
X112100045Y-56140858D01*
X111939141Y-55979954D01*
X111752734Y-55849432D01*
X111752732Y-55849431D01*
X111546497Y-55753261D01*
X111546488Y-55753258D01*
X111326697Y-55694366D01*
X111326693Y-55694365D01*
X111326692Y-55694365D01*
X111326691Y-55694364D01*
X111326686Y-55694364D01*
X111100002Y-55674532D01*
X111099998Y-55674532D01*
X110873313Y-55694364D01*
X110873302Y-55694366D01*
X110653511Y-55753258D01*
X110653502Y-55753261D01*
X110447267Y-55849431D01*
X110447265Y-55849432D01*
X110260858Y-55979954D01*
X110099954Y-56140858D01*
X109969432Y-56327265D01*
X109969431Y-56327267D01*
X109873261Y-56533502D01*
X109873258Y-56533511D01*
X109814366Y-56753302D01*
X109814364Y-56753313D01*
X109794532Y-56979998D01*
X109794532Y-56980001D01*
X109814364Y-57206686D01*
X109814366Y-57206697D01*
X109873258Y-57426488D01*
X109873261Y-57426497D01*
X109969431Y-57632732D01*
X109969432Y-57632734D01*
X110099954Y-57819141D01*
X110260858Y-57980045D01*
X110260861Y-57980047D01*
X110447266Y-58110568D01*
X110653504Y-58206739D01*
X110653509Y-58206740D01*
X110653511Y-58206741D01*
X110703167Y-58220046D01*
X110873308Y-58265635D01*
X111035230Y-58279801D01*
X111099998Y-58285468D01*
X111100000Y-58285468D01*
X111100002Y-58285468D01*
X111156673Y-58280509D01*
X111326692Y-58265635D01*
X111546496Y-58206739D01*
X111752734Y-58110568D01*
X111939139Y-57980047D01*
X112100047Y-57819139D01*
X112230568Y-57632734D01*
X112257895Y-57574129D01*
X112304064Y-57521695D01*
X112371257Y-57502542D01*
X112438139Y-57522757D01*
X112482657Y-57574133D01*
X112509865Y-57632482D01*
X112640342Y-57818820D01*
X112801179Y-57979657D01*
X112987517Y-58110134D01*
X113193673Y-58206265D01*
X113193682Y-58206269D01*
X113389999Y-58258872D01*
X113390000Y-58258871D01*
X113390000Y-57490575D01*
X113409685Y-57423536D01*
X113462489Y-57377781D01*
X113531647Y-57367837D01*
X113533331Y-57368091D01*
X113565699Y-57373218D01*
X113608515Y-57380000D01*
X113608519Y-57380000D01*
X113671485Y-57380000D01*
X113714300Y-57373218D01*
X113746602Y-57368102D01*
X113815894Y-57377056D01*
X113869347Y-57422052D01*
X113889987Y-57488803D01*
X113890000Y-57490575D01*
X113890000Y-58258872D01*
X114086317Y-58206269D01*
X114086326Y-58206265D01*
X114292482Y-58110134D01*
X114478820Y-57979657D01*
X114639657Y-57818820D01*
X114770132Y-57632484D01*
X114797341Y-57574134D01*
X114843513Y-57521695D01*
X114910707Y-57502542D01*
X114977588Y-57522757D01*
X115022106Y-57574133D01*
X115049431Y-57632732D01*
X115049432Y-57632734D01*
X115179954Y-57819141D01*
X115340857Y-57980044D01*
X115340860Y-57980046D01*
X115340861Y-57980047D01*
X115426623Y-58040097D01*
X115470248Y-58094673D01*
X115479500Y-58141672D01*
X115479500Y-58766951D01*
X115479387Y-58770696D01*
X115475642Y-58832603D01*
X115475642Y-58832605D01*
X115486821Y-58893612D01*
X115487384Y-58897313D01*
X115494859Y-58958870D01*
X115494860Y-58958874D01*
X115498451Y-58968343D01*
X115504474Y-58989946D01*
X115506304Y-58999930D01*
X115531759Y-59056490D01*
X115533189Y-59059941D01*
X115555182Y-59117930D01*
X115559703Y-59124479D01*
X115560936Y-59126266D01*
X115571961Y-59145813D01*
X115576120Y-59155055D01*
X115576124Y-59155060D01*
X115614371Y-59203878D01*
X115616588Y-59206892D01*
X115617517Y-59208238D01*
X115651812Y-59257924D01*
X115651816Y-59257928D01*
X115651817Y-59257929D01*
X115698250Y-59299064D01*
X115700941Y-59301598D01*
X115954340Y-59554997D01*
X116180736Y-59781393D01*
X116214221Y-59842716D01*
X116209237Y-59912408D01*
X116167365Y-59968341D01*
X116101901Y-59992758D01*
X116082248Y-59992602D01*
X115990002Y-59984532D01*
X115989998Y-59984532D01*
X115763313Y-60004364D01*
X115763302Y-60004366D01*
X115543511Y-60063258D01*
X115543502Y-60063261D01*
X115337267Y-60159431D01*
X115337265Y-60159432D01*
X115150858Y-60289954D01*
X114989954Y-60450858D01*
X114859432Y-60637265D01*
X114859431Y-60637267D01*
X114832382Y-60695275D01*
X114786209Y-60747714D01*
X114719016Y-60766866D01*
X114652135Y-60746650D01*
X114607618Y-60695275D01*
X114607463Y-60694942D01*
X114580568Y-60637266D01*
X114466949Y-60475000D01*
X114450045Y-60450858D01*
X114289141Y-60289954D01*
X114102734Y-60159432D01*
X114102732Y-60159431D01*
X113896497Y-60063261D01*
X113896488Y-60063258D01*
X113676697Y-60004366D01*
X113676693Y-60004365D01*
X113676692Y-60004365D01*
X113676691Y-60004364D01*
X113676686Y-60004364D01*
X113450002Y-59984532D01*
X113449998Y-59984532D01*
X113223313Y-60004364D01*
X113223302Y-60004366D01*
X113003511Y-60063258D01*
X113003502Y-60063261D01*
X112797267Y-60159431D01*
X112797265Y-60159432D01*
X112610858Y-60289954D01*
X112449954Y-60450858D01*
X112319432Y-60637265D01*
X112319431Y-60637267D01*
X112292382Y-60695275D01*
X112246209Y-60747714D01*
X112179016Y-60766866D01*
X112112135Y-60746650D01*
X112067618Y-60695275D01*
X112067463Y-60694942D01*
X112040568Y-60637266D01*
X111926949Y-60475000D01*
X111910045Y-60450858D01*
X111749141Y-60289954D01*
X111562734Y-60159432D01*
X111562732Y-60159431D01*
X111356497Y-60063261D01*
X111356488Y-60063258D01*
X111136697Y-60004366D01*
X111136693Y-60004365D01*
X111136692Y-60004365D01*
X111136691Y-60004364D01*
X111136686Y-60004364D01*
X110910002Y-59984532D01*
X110909998Y-59984532D01*
X110683313Y-60004364D01*
X110683302Y-60004366D01*
X110463511Y-60063258D01*
X110463502Y-60063261D01*
X110257267Y-60159431D01*
X110257265Y-60159432D01*
X110070858Y-60289954D01*
X109909954Y-60450858D01*
X109779432Y-60637265D01*
X109779431Y-60637267D01*
X109683261Y-60843502D01*
X109683258Y-60843511D01*
X109673931Y-60878323D01*
X109637566Y-60937984D01*
X109574719Y-60968513D01*
X109505344Y-60960218D01*
X109451466Y-60915733D01*
X109438529Y-60891024D01*
X109395309Y-60779460D01*
X109395308Y-60779459D01*
X109395308Y-60779458D01*
X109284038Y-60599751D01*
X109215426Y-60524487D01*
X109141644Y-60443551D01*
X108972968Y-60316173D01*
X108783762Y-60221959D01*
X108783756Y-60221956D01*
X108580466Y-60164116D01*
X108580463Y-60164115D01*
X108468472Y-60153738D01*
X108422729Y-60149500D01*
X108317271Y-60149500D01*
X108276693Y-60153260D01*
X108159536Y-60164115D01*
X108159533Y-60164116D01*
X107956243Y-60221956D01*
X107956237Y-60221959D01*
X107767031Y-60316173D01*
X107598355Y-60443551D01*
X107455963Y-60599749D01*
X107344691Y-60779459D01*
X107344690Y-60779460D01*
X107268339Y-60976547D01*
X107268338Y-60976550D01*
X107229500Y-61184317D01*
X107229500Y-61395683D01*
X83760331Y-61395683D01*
X83592454Y-61227807D01*
X83558969Y-61166484D01*
X83563953Y-61096793D01*
X83605824Y-61040859D01*
X83609660Y-61038101D01*
X83660795Y-61002806D01*
X83767811Y-60882009D01*
X83827001Y-60844882D01*
X83896866Y-60845650D01*
X83948308Y-60876555D01*
X84454694Y-61382942D01*
X84578531Y-61180861D01*
X84671896Y-60955457D01*
X84728851Y-60718219D01*
X84747992Y-60475000D01*
X84728851Y-60231780D01*
X84671896Y-59994542D01*
X84578531Y-59769138D01*
X84454694Y-59567056D01*
X83948307Y-60073444D01*
X83886984Y-60106929D01*
X83817292Y-60101945D01*
X83767811Y-60067990D01*
X83763621Y-60063261D01*
X83711443Y-60004364D01*
X83660799Y-59947198D01*
X83660797Y-59947196D01*
X83660795Y-59947194D01*
X83615404Y-59915863D01*
X83609695Y-59911922D01*
X83565705Y-59857639D01*
X83558045Y-59788190D01*
X83589149Y-59725625D01*
X83592454Y-59722191D01*
X84092147Y-59222500D01*
X83592454Y-58722807D01*
X83558969Y-58661484D01*
X83563953Y-58591792D01*
X83605825Y-58535859D01*
X83609660Y-58533100D01*
X83660795Y-58497806D01*
X83767811Y-58377009D01*
X83827001Y-58339882D01*
X83896866Y-58340650D01*
X83948308Y-58371555D01*
X84454694Y-58877942D01*
X84578531Y-58675861D01*
X84671896Y-58450457D01*
X84728851Y-58213219D01*
X84747992Y-57970000D01*
X94134706Y-57970000D01*
X94153853Y-58213297D01*
X94153853Y-58213300D01*
X94153854Y-58213302D01*
X94204647Y-58424868D01*
X94210830Y-58450619D01*
X94304222Y-58676089D01*
X94431737Y-58884173D01*
X94431738Y-58884176D01*
X94447402Y-58902516D01*
X94590241Y-59069759D01*
X94716266Y-59177394D01*
X94775823Y-59228261D01*
X94775825Y-59228261D01*
X94795505Y-59240321D01*
X94983910Y-59355777D01*
X95209381Y-59449169D01*
X95209378Y-59449169D01*
X95209384Y-59449170D01*
X95209388Y-59449172D01*
X95446698Y-59506146D01*
X95690000Y-59525294D01*
X95933302Y-59506146D01*
X96170612Y-59449172D01*
X96396089Y-59355777D01*
X96604179Y-59228259D01*
X96789759Y-59069759D01*
X96948259Y-58884179D01*
X97075777Y-58676089D01*
X97169172Y-58450612D01*
X97226146Y-58213302D01*
X97245294Y-57970000D01*
X97226146Y-57726698D01*
X97169172Y-57489388D01*
X97164647Y-57478464D01*
X97075777Y-57263910D01*
X96948262Y-57055826D01*
X96948261Y-57055823D01*
X96905833Y-57006146D01*
X96789759Y-56870241D01*
X96634777Y-56737874D01*
X96604176Y-56711738D01*
X96604173Y-56711737D01*
X96396089Y-56584222D01*
X96361758Y-56570002D01*
X100305034Y-56570002D01*
X100324858Y-56796599D01*
X100324860Y-56796610D01*
X100383730Y-57016317D01*
X100383734Y-57016326D01*
X100479865Y-57222481D01*
X100479866Y-57222483D01*
X100530973Y-57295471D01*
X100530973Y-57295472D01*
X101072580Y-56753865D01*
X101133903Y-56720380D01*
X101203594Y-56725364D01*
X101259528Y-56767235D01*
X101270742Y-56785246D01*
X101276527Y-56796599D01*
X101282358Y-56808044D01*
X101282363Y-56808050D01*
X101371949Y-56897636D01*
X101371951Y-56897637D01*
X101371955Y-56897641D01*
X101394747Y-56909254D01*
X101445542Y-56957228D01*
X101462337Y-57025049D01*
X101439799Y-57091184D01*
X101426132Y-57107419D01*
X100884526Y-57649025D01*
X100884526Y-57649026D01*
X100957512Y-57700131D01*
X100957516Y-57700133D01*
X101163673Y-57796265D01*
X101163682Y-57796269D01*
X101383389Y-57855139D01*
X101383400Y-57855141D01*
X101609998Y-57874966D01*
X101610002Y-57874966D01*
X101836599Y-57855141D01*
X101836610Y-57855139D01*
X102056317Y-57796269D01*
X102056331Y-57796264D01*
X102262478Y-57700136D01*
X102335472Y-57649025D01*
X101793866Y-57107419D01*
X101760381Y-57046096D01*
X101765365Y-56976404D01*
X101807237Y-56920471D01*
X101825245Y-56909258D01*
X101848045Y-56897641D01*
X101937641Y-56808045D01*
X101949254Y-56785252D01*
X101997225Y-56734458D01*
X102065046Y-56717661D01*
X102131181Y-56740197D01*
X102147419Y-56753866D01*
X102689025Y-57295472D01*
X102740136Y-57222478D01*
X102836264Y-57016331D01*
X102836269Y-57016317D01*
X102895139Y-56796610D01*
X102895141Y-56796599D01*
X102914966Y-56570002D01*
X102914966Y-56570001D01*
X105304532Y-56570001D01*
X105324364Y-56796686D01*
X105324366Y-56796697D01*
X105383258Y-57016488D01*
X105383261Y-57016497D01*
X105479431Y-57222732D01*
X105479432Y-57222734D01*
X105609954Y-57409141D01*
X105770858Y-57570045D01*
X105770861Y-57570047D01*
X105957266Y-57700568D01*
X106163504Y-57796739D01*
X106383308Y-57855635D01*
X106545230Y-57869801D01*
X106609998Y-57875468D01*
X106610000Y-57875468D01*
X106610002Y-57875468D01*
X106666673Y-57870509D01*
X106836692Y-57855635D01*
X107056496Y-57796739D01*
X107262734Y-57700568D01*
X107449139Y-57570047D01*
X107610047Y-57409139D01*
X107740568Y-57222734D01*
X107836739Y-57016496D01*
X107895635Y-56796692D01*
X107915468Y-56570000D01*
X107895635Y-56343308D01*
X107836739Y-56123504D01*
X107740568Y-55917266D01*
X107625729Y-55753258D01*
X107610045Y-55730858D01*
X107449141Y-55569954D01*
X107349800Y-55500396D01*
X107344342Y-55496574D01*
X107300718Y-55441999D01*
X107293524Y-55372501D01*
X107325046Y-55310146D01*
X107344343Y-55293425D01*
X107344346Y-55293423D01*
X107449139Y-55220047D01*
X107610047Y-55059139D01*
X107740568Y-54872734D01*
X107836739Y-54666496D01*
X107895635Y-54446692D01*
X107915468Y-54220000D01*
X107914745Y-54211741D01*
X107895635Y-53993313D01*
X107895635Y-53993308D01*
X107836739Y-53773504D01*
X107740568Y-53567266D01*
X107610047Y-53380861D01*
X107610045Y-53380858D01*
X107449141Y-53219954D01*
X107262734Y-53089432D01*
X107262732Y-53089431D01*
X107056497Y-52993261D01*
X107056488Y-52993258D01*
X106836697Y-52934366D01*
X106836693Y-52934365D01*
X106836692Y-52934365D01*
X106836691Y-52934364D01*
X106836686Y-52934364D01*
X106610002Y-52914532D01*
X106609998Y-52914532D01*
X106383313Y-52934364D01*
X106383302Y-52934366D01*
X106163511Y-52993258D01*
X106163502Y-52993261D01*
X105957267Y-53089431D01*
X105957265Y-53089432D01*
X105770858Y-53219954D01*
X105609954Y-53380858D01*
X105479432Y-53567265D01*
X105479431Y-53567267D01*
X105383261Y-53773502D01*
X105383258Y-53773511D01*
X105324366Y-53993302D01*
X105324364Y-53993313D01*
X105304532Y-54219998D01*
X105304532Y-54220001D01*
X105324364Y-54446686D01*
X105324366Y-54446697D01*
X105383258Y-54666488D01*
X105383261Y-54666497D01*
X105479431Y-54872732D01*
X105479432Y-54872734D01*
X105609954Y-55059141D01*
X105770857Y-55220044D01*
X105770860Y-55220046D01*
X105770861Y-55220047D01*
X105875656Y-55293425D01*
X105919281Y-55348000D01*
X105926475Y-55417498D01*
X105894953Y-55479853D01*
X105875657Y-55496574D01*
X105770856Y-55569956D01*
X105609954Y-55730858D01*
X105479432Y-55917265D01*
X105479431Y-55917267D01*
X105383261Y-56123502D01*
X105383258Y-56123511D01*
X105324366Y-56343302D01*
X105324364Y-56343313D01*
X105304532Y-56569998D01*
X105304532Y-56570001D01*
X102914966Y-56570001D01*
X102914966Y-56569997D01*
X102895141Y-56343400D01*
X102895139Y-56343389D01*
X102836269Y-56123682D01*
X102836265Y-56123673D01*
X102740133Y-55917516D01*
X102740131Y-55917512D01*
X102689026Y-55844526D01*
X102689025Y-55844526D01*
X102147419Y-56386132D01*
X102086096Y-56419617D01*
X102016404Y-56414633D01*
X101960471Y-56372761D01*
X101949256Y-56354751D01*
X101937641Y-56331955D01*
X101937637Y-56331951D01*
X101937636Y-56331949D01*
X101848050Y-56242363D01*
X101848044Y-56242358D01*
X101838109Y-56237296D01*
X101825250Y-56230744D01*
X101774456Y-56182773D01*
X101757660Y-56114952D01*
X101780197Y-56048817D01*
X101793865Y-56032580D01*
X102335472Y-55490973D01*
X102262483Y-55439866D01*
X102262481Y-55439865D01*
X102056326Y-55343734D01*
X102056317Y-55343730D01*
X101836610Y-55284860D01*
X101836599Y-55284858D01*
X101610002Y-55265034D01*
X101609998Y-55265034D01*
X101383400Y-55284858D01*
X101383389Y-55284860D01*
X101163682Y-55343730D01*
X101163673Y-55343734D01*
X100957513Y-55439868D01*
X100884526Y-55490973D01*
X101426133Y-56032580D01*
X101459618Y-56093903D01*
X101454634Y-56163595D01*
X101412762Y-56219528D01*
X101394748Y-56230745D01*
X101371956Y-56242358D01*
X101371949Y-56242363D01*
X101282363Y-56331949D01*
X101282358Y-56331956D01*
X101270745Y-56354748D01*
X101222770Y-56405544D01*
X101154949Y-56422338D01*
X101088814Y-56399800D01*
X101072580Y-56386133D01*
X100530973Y-55844526D01*
X100479868Y-55917513D01*
X100383734Y-56123673D01*
X100383730Y-56123682D01*
X100324860Y-56343389D01*
X100324858Y-56343400D01*
X100305034Y-56569997D01*
X100305034Y-56570002D01*
X96361758Y-56570002D01*
X96170618Y-56490830D01*
X96170621Y-56490830D01*
X96010417Y-56452368D01*
X95933302Y-56433854D01*
X95933300Y-56433853D01*
X95933297Y-56433853D01*
X95690000Y-56414706D01*
X95446702Y-56433853D01*
X95209380Y-56490830D01*
X94983910Y-56584222D01*
X94775826Y-56711737D01*
X94775823Y-56711738D01*
X94590241Y-56870241D01*
X94431738Y-57055823D01*
X94431737Y-57055826D01*
X94304222Y-57263910D01*
X94210830Y-57489380D01*
X94210828Y-57489387D01*
X94210828Y-57489388D01*
X94185005Y-57596945D01*
X94153853Y-57726702D01*
X94134706Y-57970000D01*
X84747992Y-57970000D01*
X84728851Y-57726780D01*
X84671896Y-57489542D01*
X84578531Y-57264138D01*
X84454694Y-57062056D01*
X83948307Y-57568444D01*
X83886984Y-57601929D01*
X83817292Y-57596945D01*
X83767811Y-57562990D01*
X83660799Y-57442198D01*
X83660797Y-57442196D01*
X83660795Y-57442194D01*
X83641292Y-57428732D01*
X83609695Y-57406922D01*
X83565705Y-57352639D01*
X83558045Y-57283190D01*
X83589149Y-57220625D01*
X83592454Y-57217191D01*
X84101142Y-56708504D01*
X83899061Y-56584668D01*
X83673657Y-56491303D01*
X83436419Y-56434348D01*
X83436420Y-56434348D01*
X83193200Y-56415207D01*
X82949980Y-56434348D01*
X82712742Y-56491303D01*
X82487346Y-56584665D01*
X82487341Y-56584668D01*
X82285256Y-56708504D01*
X82793945Y-57217192D01*
X82827430Y-57278515D01*
X82822446Y-57348206D01*
X82780575Y-57404140D01*
X82776704Y-57406923D01*
X82725607Y-57442192D01*
X82725604Y-57442194D01*
X82618587Y-57562991D01*
X82559397Y-57600117D01*
X82489532Y-57599349D01*
X82438091Y-57568444D01*
X81931704Y-57062056D01*
X81807868Y-57264141D01*
X81807865Y-57264146D01*
X81714503Y-57489542D01*
X81657548Y-57726780D01*
X81638407Y-57970000D01*
X81657548Y-58213219D01*
X81714503Y-58450457D01*
X81807868Y-58675861D01*
X81931704Y-58877942D01*
X82438091Y-58371554D01*
X82499414Y-58338069D01*
X82569105Y-58343053D01*
X82618587Y-58377008D01*
X82725600Y-58497801D01*
X82725606Y-58497807D01*
X82771069Y-58529187D01*
X82776701Y-58533075D01*
X82776703Y-58533076D01*
X82820693Y-58587358D01*
X82828353Y-58656807D01*
X82797250Y-58719372D01*
X82793944Y-58722807D01*
X82294253Y-59222499D01*
X82294253Y-59222500D01*
X82793945Y-59722192D01*
X82827430Y-59783515D01*
X82822446Y-59853207D01*
X82780574Y-59909140D01*
X82776704Y-59911923D01*
X82725607Y-59947192D01*
X82725604Y-59947194D01*
X82618587Y-60067991D01*
X82559397Y-60105117D01*
X82489532Y-60104349D01*
X82438091Y-60073444D01*
X81931704Y-59567056D01*
X81807868Y-59769141D01*
X81807865Y-59769146D01*
X81714503Y-59994542D01*
X81657548Y-60231780D01*
X81638407Y-60474999D01*
X81657548Y-60718219D01*
X81714503Y-60955457D01*
X81807868Y-61180861D01*
X81931704Y-61382942D01*
X82438091Y-60876554D01*
X82499414Y-60843069D01*
X82569105Y-60848053D01*
X82618587Y-60882008D01*
X82725600Y-61002801D01*
X82725606Y-61002807D01*
X82771069Y-61034187D01*
X82776701Y-61038075D01*
X82776703Y-61038076D01*
X82820693Y-61092358D01*
X82828353Y-61161807D01*
X82797250Y-61224372D01*
X82793944Y-61227807D01*
X82322153Y-61699599D01*
X82322153Y-61699600D01*
X82793945Y-62171392D01*
X82827430Y-62232715D01*
X82822446Y-62302406D01*
X82780575Y-62358340D01*
X82776704Y-62361123D01*
X82725607Y-62396392D01*
X82725604Y-62396394D01*
X82618587Y-62517191D01*
X82559397Y-62554317D01*
X82489532Y-62553549D01*
X82438091Y-62522644D01*
X81931704Y-62016256D01*
X81807868Y-62218341D01*
X81807865Y-62218346D01*
X81714503Y-62443742D01*
X81657548Y-62680980D01*
X81638407Y-62924200D01*
X81657548Y-63167419D01*
X81714503Y-63404657D01*
X81807868Y-63630061D01*
X81931704Y-63832142D01*
X82438091Y-63325754D01*
X82499414Y-63292269D01*
X82569105Y-63297253D01*
X82618587Y-63331208D01*
X82725600Y-63452001D01*
X82725606Y-63452007D01*
X82730829Y-63455612D01*
X82776701Y-63487275D01*
X82776703Y-63487276D01*
X82820693Y-63541558D01*
X82828353Y-63611007D01*
X82797250Y-63673572D01*
X82793944Y-63677007D01*
X82285177Y-64185774D01*
X82285177Y-64213424D01*
X82793945Y-64722192D01*
X82827430Y-64783515D01*
X82822446Y-64853206D01*
X82780575Y-64909140D01*
X82776704Y-64911923D01*
X82725607Y-64947192D01*
X82725604Y-64947194D01*
X82618587Y-65067991D01*
X82559397Y-65105117D01*
X82489532Y-65104349D01*
X82438091Y-65073444D01*
X81931704Y-64567056D01*
X81807868Y-64769141D01*
X81807865Y-64769146D01*
X81714503Y-64994542D01*
X81657548Y-65231780D01*
X81638407Y-65474999D01*
X81657548Y-65718219D01*
X81714503Y-65955457D01*
X81807868Y-66180861D01*
X81931704Y-66382942D01*
X82438091Y-65876554D01*
X82499414Y-65843069D01*
X82569105Y-65848053D01*
X82618587Y-65882008D01*
X82725600Y-66002801D01*
X82725606Y-66002807D01*
X82771069Y-66034187D01*
X82776701Y-66038075D01*
X82776703Y-66038076D01*
X82820693Y-66092358D01*
X82828353Y-66161807D01*
X82797250Y-66224372D01*
X82793944Y-66227807D01*
X82294253Y-66727499D01*
X82294253Y-66727500D01*
X82793945Y-67227192D01*
X82827430Y-67288515D01*
X82822446Y-67358207D01*
X82780574Y-67414140D01*
X82776704Y-67416923D01*
X82725607Y-67452192D01*
X82725604Y-67452194D01*
X82618587Y-67572991D01*
X82559397Y-67610117D01*
X82489532Y-67609349D01*
X82438091Y-67578444D01*
X81931704Y-67072056D01*
X81807868Y-67274141D01*
X81807865Y-67274146D01*
X81714503Y-67499542D01*
X81657548Y-67736780D01*
X81638407Y-67980000D01*
X80720000Y-67980000D01*
X80720000Y-55589776D01*
X86744500Y-55589776D01*
X86783930Y-55826067D01*
X86861711Y-56052637D01*
X86861713Y-56052642D01*
X86975730Y-56263325D01*
X86975734Y-56263331D01*
X87086423Y-56405544D01*
X87122866Y-56452366D01*
X87299113Y-56614612D01*
X87499660Y-56745636D01*
X87719038Y-56841864D01*
X87951263Y-56900672D01*
X88130213Y-56915500D01*
X88130215Y-56915500D01*
X88249785Y-56915500D01*
X88249787Y-56915500D01*
X88428737Y-56900672D01*
X88660962Y-56841864D01*
X88880340Y-56745636D01*
X89080887Y-56614612D01*
X89257134Y-56452366D01*
X89381323Y-56292806D01*
X89404265Y-56263331D01*
X89404269Y-56263325D01*
X89404271Y-56263323D01*
X89518287Y-56052641D01*
X89596070Y-55826065D01*
X89635500Y-55589778D01*
X89635500Y-55470000D01*
X91644706Y-55470000D01*
X91663853Y-55713297D01*
X91663853Y-55713300D01*
X91663854Y-55713302D01*
X91712882Y-55917516D01*
X91720830Y-55950619D01*
X91814222Y-56176089D01*
X91941737Y-56384173D01*
X91941738Y-56384176D01*
X91984167Y-56433854D01*
X92100241Y-56569759D01*
X92208196Y-56661961D01*
X92285823Y-56728261D01*
X92285825Y-56728261D01*
X92305302Y-56740197D01*
X92493910Y-56855777D01*
X92719381Y-56949169D01*
X92719378Y-56949169D01*
X92719384Y-56949170D01*
X92719388Y-56949172D01*
X92956698Y-57006146D01*
X93200000Y-57025294D01*
X93443302Y-57006146D01*
X93680612Y-56949172D01*
X93906089Y-56855777D01*
X94114179Y-56728259D01*
X94299759Y-56569759D01*
X94458259Y-56384179D01*
X94585777Y-56176089D01*
X94679172Y-55950612D01*
X94736146Y-55713302D01*
X94755294Y-55470000D01*
X94736146Y-55226698D01*
X94679172Y-54989388D01*
X94679169Y-54989380D01*
X94585777Y-54763910D01*
X94458262Y-54555826D01*
X94458261Y-54555823D01*
X94365049Y-54446686D01*
X94299759Y-54370241D01*
X94154565Y-54246234D01*
X94114176Y-54211738D01*
X94114173Y-54211737D01*
X93906089Y-54084222D01*
X93680618Y-53990830D01*
X93680621Y-53990830D01*
X93574992Y-53965470D01*
X93443302Y-53933854D01*
X93443300Y-53933853D01*
X93443297Y-53933853D01*
X93200000Y-53914706D01*
X92956702Y-53933853D01*
X92956697Y-53933854D01*
X92956698Y-53933854D01*
X92749474Y-53983605D01*
X92719380Y-53990830D01*
X92493910Y-54084222D01*
X92285826Y-54211737D01*
X92285823Y-54211738D01*
X92100241Y-54370241D01*
X91941738Y-54555823D01*
X91941737Y-54555826D01*
X91814222Y-54763910D01*
X91720830Y-54989380D01*
X91663853Y-55226702D01*
X91644706Y-55470000D01*
X89635500Y-55470000D01*
X89635500Y-55350222D01*
X89596070Y-55113935D01*
X89518287Y-54887359D01*
X89404271Y-54676677D01*
X89404269Y-54676674D01*
X89404265Y-54676668D01*
X89257139Y-54487641D01*
X89257134Y-54487634D01*
X89080887Y-54325388D01*
X89080884Y-54325386D01*
X89080883Y-54325385D01*
X88919580Y-54220001D01*
X88880340Y-54194364D01*
X88880337Y-54194362D01*
X88880336Y-54194362D01*
X88660963Y-54098136D01*
X88428737Y-54039328D01*
X88428740Y-54039328D01*
X88321366Y-54030431D01*
X88249787Y-54024500D01*
X88130213Y-54024500D01*
X88058633Y-54030431D01*
X87951260Y-54039328D01*
X87719036Y-54098136D01*
X87499663Y-54194362D01*
X87299116Y-54325385D01*
X87122869Y-54487631D01*
X87122860Y-54487641D01*
X86975734Y-54676668D01*
X86975730Y-54676674D01*
X86861713Y-54887357D01*
X86861711Y-54887362D01*
X86783930Y-55113932D01*
X86744500Y-55350223D01*
X86744500Y-55589776D01*
X80720000Y-55589776D01*
X80720000Y-49810001D01*
X82724532Y-49810001D01*
X82744364Y-50036686D01*
X82744366Y-50036697D01*
X82803258Y-50256488D01*
X82803261Y-50256497D01*
X82899431Y-50462732D01*
X82899432Y-50462734D01*
X83029954Y-50649141D01*
X83190858Y-50810045D01*
X83216318Y-50827872D01*
X83377266Y-50940568D01*
X83583504Y-51036739D01*
X83583509Y-51036740D01*
X83583511Y-51036741D01*
X83603597Y-51042123D01*
X83803308Y-51095635D01*
X83973216Y-51110500D01*
X84086784Y-51110500D01*
X84256692Y-51095635D01*
X84476496Y-51036739D01*
X84682734Y-50940568D01*
X84869139Y-50810047D01*
X85030047Y-50649139D01*
X85160568Y-50462734D01*
X85256739Y-50256496D01*
X85277236Y-50180000D01*
X89129364Y-50180000D01*
X89186567Y-50393486D01*
X89186570Y-50393492D01*
X89286399Y-50607578D01*
X89421894Y-50801082D01*
X89588917Y-50968105D01*
X89782421Y-51103600D01*
X89996507Y-51203429D01*
X89996516Y-51203433D01*
X90210000Y-51260634D01*
X90210000Y-50542301D01*
X90229685Y-50475262D01*
X90282489Y-50429507D01*
X90351647Y-50419563D01*
X90424237Y-50430000D01*
X90424238Y-50430000D01*
X90495762Y-50430000D01*
X90495763Y-50430000D01*
X90568352Y-50419563D01*
X90637510Y-50429507D01*
X90690314Y-50475261D01*
X90709999Y-50542301D01*
X90709999Y-51260634D01*
X90923483Y-51203433D01*
X90923492Y-51203429D01*
X91137578Y-51103600D01*
X91331078Y-50968108D01*
X91453133Y-50846053D01*
X91514456Y-50812568D01*
X91584148Y-50817552D01*
X91640082Y-50859423D01*
X91656997Y-50890401D01*
X91706202Y-51022328D01*
X91706206Y-51022335D01*
X91792452Y-51137544D01*
X91792455Y-51137547D01*
X91907664Y-51223793D01*
X91907671Y-51223797D01*
X92042517Y-51274091D01*
X92042516Y-51274091D01*
X92049444Y-51274835D01*
X92102127Y-51280500D01*
X93897872Y-51280499D01*
X93957483Y-51274091D01*
X94092331Y-51223796D01*
X94207546Y-51137546D01*
X94229761Y-51107870D01*
X98069500Y-51107870D01*
X98069501Y-51107876D01*
X98075908Y-51167483D01*
X98126202Y-51302328D01*
X98126206Y-51302335D01*
X98212452Y-51417544D01*
X98212455Y-51417547D01*
X98327664Y-51503793D01*
X98327671Y-51503797D01*
X98462517Y-51554091D01*
X98462516Y-51554091D01*
X98469444Y-51554835D01*
X98522127Y-51560500D01*
X100217872Y-51560499D01*
X100277483Y-51554091D01*
X100412331Y-51503796D01*
X100527546Y-51417546D01*
X100534350Y-51408455D01*
X100590280Y-51366584D01*
X100659971Y-51361597D01*
X100704740Y-51381188D01*
X100717512Y-51390130D01*
X100717518Y-51390134D01*
X100923673Y-51486265D01*
X100923682Y-51486269D01*
X101143389Y-51545139D01*
X101143400Y-51545141D01*
X101369998Y-51564966D01*
X101370002Y-51564966D01*
X101596599Y-51545141D01*
X101596610Y-51545139D01*
X101816317Y-51486269D01*
X101816331Y-51486264D01*
X102022478Y-51390136D01*
X102095472Y-51339025D01*
X101553866Y-50797419D01*
X101520381Y-50736096D01*
X101525365Y-50666404D01*
X101567237Y-50610471D01*
X101585245Y-50599258D01*
X101608045Y-50587641D01*
X101697641Y-50498045D01*
X101709254Y-50475252D01*
X101757225Y-50424458D01*
X101825046Y-50407661D01*
X101891181Y-50430197D01*
X101907419Y-50443866D01*
X102449025Y-50985472D01*
X102500136Y-50912478D01*
X102596264Y-50706331D01*
X102596269Y-50706317D01*
X102655139Y-50486610D01*
X102655141Y-50486599D01*
X102674966Y-50260002D01*
X102674966Y-50259997D01*
X102655141Y-50033400D01*
X102655139Y-50033389D01*
X102596269Y-49813682D01*
X102596265Y-49813673D01*
X102500133Y-49607516D01*
X102500131Y-49607512D01*
X102449026Y-49534526D01*
X102449025Y-49534526D01*
X101907419Y-50076132D01*
X101846096Y-50109617D01*
X101776404Y-50104633D01*
X101720471Y-50062761D01*
X101709256Y-50044751D01*
X101697641Y-50021955D01*
X101697637Y-50021951D01*
X101697636Y-50021949D01*
X101608050Y-49932363D01*
X101608044Y-49932358D01*
X101598109Y-49927296D01*
X101585250Y-49920744D01*
X101534456Y-49872773D01*
X101517660Y-49804952D01*
X101540197Y-49738817D01*
X101553865Y-49722580D01*
X102056443Y-49220002D01*
X105305034Y-49220002D01*
X105324858Y-49446599D01*
X105324860Y-49446610D01*
X105383730Y-49666317D01*
X105383734Y-49666326D01*
X105479865Y-49872481D01*
X105479866Y-49872483D01*
X105530973Y-49945471D01*
X105530973Y-49945472D01*
X106072580Y-49403865D01*
X106133903Y-49370380D01*
X106203594Y-49375364D01*
X106259528Y-49417235D01*
X106270742Y-49435246D01*
X106273387Y-49440436D01*
X106282358Y-49458044D01*
X106282363Y-49458050D01*
X106371949Y-49547636D01*
X106371951Y-49547637D01*
X106371955Y-49547641D01*
X106394747Y-49559254D01*
X106445542Y-49607228D01*
X106462337Y-49675049D01*
X106439799Y-49741184D01*
X106426132Y-49757419D01*
X105884526Y-50299025D01*
X105884526Y-50299026D01*
X105957512Y-50350131D01*
X105957516Y-50350133D01*
X106163673Y-50446265D01*
X106163682Y-50446269D01*
X106383389Y-50505139D01*
X106383400Y-50505141D01*
X106609998Y-50524966D01*
X106610002Y-50524966D01*
X106836599Y-50505141D01*
X106836610Y-50505139D01*
X107056317Y-50446269D01*
X107056331Y-50446264D01*
X107262478Y-50350136D01*
X107335472Y-50299025D01*
X106793866Y-49757419D01*
X106760381Y-49696096D01*
X106765365Y-49626404D01*
X106807237Y-49570471D01*
X106825245Y-49559258D01*
X106848045Y-49547641D01*
X106937641Y-49458045D01*
X106949254Y-49435252D01*
X106997225Y-49384458D01*
X107065046Y-49367661D01*
X107131181Y-49390197D01*
X107147419Y-49403866D01*
X107689025Y-49945472D01*
X107740136Y-49872478D01*
X107836264Y-49666331D01*
X107836269Y-49666317D01*
X107895139Y-49446610D01*
X107895141Y-49446599D01*
X107914966Y-49220002D01*
X107914966Y-49219997D01*
X107905342Y-49109999D01*
X109821127Y-49109999D01*
X109821128Y-49110000D01*
X110589424Y-49110000D01*
X110656463Y-49129685D01*
X110702218Y-49182489D01*
X110712162Y-49251647D01*
X110711897Y-49253397D01*
X110695014Y-49359996D01*
X110695014Y-49360003D01*
X110711897Y-49466603D01*
X110702942Y-49535896D01*
X110657946Y-49589348D01*
X110591194Y-49609987D01*
X110589424Y-49610000D01*
X109821128Y-49610000D01*
X109873730Y-49806317D01*
X109873734Y-49806326D01*
X109969865Y-50012482D01*
X110100342Y-50198820D01*
X110261179Y-50359657D01*
X110447517Y-50490134D01*
X110653673Y-50586265D01*
X110653682Y-50586269D01*
X110849999Y-50638872D01*
X110850000Y-50638871D01*
X110850000Y-49870575D01*
X110869685Y-49803536D01*
X110922489Y-49757781D01*
X110991647Y-49747837D01*
X110993331Y-49748091D01*
X111025699Y-49753218D01*
X111068515Y-49760000D01*
X111068519Y-49760000D01*
X111131485Y-49760000D01*
X111174300Y-49753218D01*
X111206602Y-49748102D01*
X111275894Y-49757056D01*
X111329347Y-49802052D01*
X111349987Y-49868803D01*
X111350000Y-49870575D01*
X111350000Y-50638872D01*
X111546317Y-50586269D01*
X111546326Y-50586265D01*
X111752482Y-50490134D01*
X111938820Y-50359657D01*
X112099657Y-50198820D01*
X112230132Y-50012484D01*
X112257341Y-49954134D01*
X112303513Y-49901695D01*
X112370707Y-49882542D01*
X112437588Y-49902757D01*
X112482105Y-49954132D01*
X112492056Y-49975471D01*
X112509431Y-50012732D01*
X112509432Y-50012734D01*
X112639954Y-50199141D01*
X112800858Y-50360045D01*
X112820664Y-50373913D01*
X112987266Y-50490568D01*
X113193504Y-50586739D01*
X113193509Y-50586740D01*
X113193511Y-50586741D01*
X113196870Y-50587641D01*
X113413308Y-50645635D01*
X113575230Y-50659801D01*
X113639998Y-50665468D01*
X113640000Y-50665468D01*
X113640002Y-50665468D01*
X113702499Y-50660000D01*
X113866692Y-50645635D01*
X114086496Y-50586739D01*
X114292734Y-50490568D01*
X114479139Y-50360047D01*
X114640047Y-50199139D01*
X114770568Y-50012734D01*
X114797618Y-49954724D01*
X114843790Y-49902285D01*
X114910983Y-49883133D01*
X114977865Y-49903348D01*
X115022382Y-49954725D01*
X115049429Y-50012728D01*
X115049432Y-50012734D01*
X115179954Y-50199141D01*
X115340858Y-50360045D01*
X115360664Y-50373913D01*
X115527266Y-50490568D01*
X115733504Y-50586739D01*
X115733509Y-50586740D01*
X115733511Y-50586741D01*
X115736870Y-50587641D01*
X115953308Y-50645635D01*
X116115230Y-50659801D01*
X116179998Y-50665468D01*
X116180000Y-50665468D01*
X116180001Y-50665468D01*
X116198304Y-50663866D01*
X116406692Y-50645635D01*
X116406697Y-50645633D01*
X116411881Y-50645180D01*
X116480381Y-50658946D01*
X116510369Y-50681026D01*
X120458399Y-54629056D01*
X120460935Y-54631750D01*
X120491710Y-54666488D01*
X120502070Y-54678182D01*
X120553106Y-54713410D01*
X120556122Y-54715630D01*
X120582490Y-54736287D01*
X120604943Y-54753878D01*
X120611845Y-54756984D01*
X120614182Y-54758036D01*
X120633733Y-54769063D01*
X120642070Y-54774818D01*
X120700065Y-54796812D01*
X120703474Y-54798223D01*
X120750787Y-54819517D01*
X120760064Y-54823693D01*
X120760065Y-54823693D01*
X120760069Y-54823695D01*
X120770034Y-54825521D01*
X120791656Y-54831548D01*
X120794777Y-54832731D01*
X120801128Y-54835140D01*
X120846251Y-54840618D01*
X120862674Y-54842613D01*
X120866371Y-54843175D01*
X120927394Y-54854358D01*
X120982752Y-54851009D01*
X120989303Y-54850613D01*
X120993048Y-54850500D01*
X129028481Y-54850500D01*
X129095520Y-54870185D01*
X129116162Y-54886819D01*
X133268399Y-59039056D01*
X133270935Y-59041750D01*
X133312071Y-59088183D01*
X133363130Y-59123427D01*
X133366112Y-59125621D01*
X133414943Y-59163877D01*
X133414947Y-59163880D01*
X133414946Y-59163880D01*
X133424177Y-59168034D01*
X133443731Y-59179062D01*
X133452066Y-59184816D01*
X133452068Y-59184816D01*
X133452070Y-59184818D01*
X133510079Y-59206817D01*
X133513476Y-59208224D01*
X133557998Y-59228262D01*
X133570064Y-59233693D01*
X133570065Y-59233693D01*
X133570069Y-59233695D01*
X133580034Y-59235521D01*
X133601656Y-59241548D01*
X133601667Y-59241552D01*
X133611128Y-59245140D01*
X133656251Y-59250618D01*
X133672674Y-59252613D01*
X133676371Y-59253175D01*
X133737394Y-59264358D01*
X133792752Y-59261009D01*
X133799303Y-59260613D01*
X133803048Y-59260500D01*
X138076952Y-59260500D01*
X138080697Y-59260613D01*
X138088042Y-59261057D01*
X138142606Y-59264358D01*
X138180314Y-59257447D01*
X138203621Y-59253177D01*
X138207325Y-59252613D01*
X138225170Y-59250446D01*
X138268872Y-59245140D01*
X138278335Y-59241550D01*
X138299961Y-59235522D01*
X138300893Y-59235351D01*
X138309932Y-59233695D01*
X138366512Y-59208229D01*
X138369942Y-59206809D01*
X138427930Y-59184818D01*
X138436266Y-59179062D01*
X138455821Y-59168034D01*
X138465057Y-59163878D01*
X138513896Y-59125613D01*
X138516876Y-59123421D01*
X138567929Y-59088183D01*
X138609065Y-59041748D01*
X138611599Y-59039056D01*
X142877821Y-54772834D01*
X142939142Y-54739351D01*
X143008834Y-54744335D01*
X143064767Y-54786207D01*
X143089184Y-54851671D01*
X143089500Y-54860517D01*
X143089500Y-55675271D01*
X143089501Y-55675277D01*
X143095908Y-55734884D01*
X143146202Y-55869729D01*
X143146206Y-55869736D01*
X143232452Y-55984945D01*
X143232455Y-55984948D01*
X143347664Y-56071194D01*
X143355454Y-56075448D01*
X143353755Y-56078558D01*
X143396124Y-56110228D01*
X143420588Y-56175675D01*
X143405784Y-56243959D01*
X143380452Y-56276243D01*
X143373236Y-56282820D01*
X143250327Y-56445579D01*
X143159422Y-56628140D01*
X143159417Y-56628153D01*
X143103602Y-56824318D01*
X143084785Y-57027400D01*
X143084785Y-57027401D01*
X143103602Y-57230483D01*
X143159417Y-57426648D01*
X143159422Y-57426661D01*
X143250327Y-57609222D01*
X143373237Y-57771982D01*
X143523958Y-57909381D01*
X143523960Y-57909383D01*
X143543588Y-57921536D01*
X143697363Y-58016749D01*
X143887544Y-58090425D01*
X144088024Y-58127901D01*
X144088026Y-58127901D01*
X144291974Y-58127901D01*
X144291976Y-58127901D01*
X144492456Y-58090425D01*
X144682637Y-58016749D01*
X144856041Y-57909382D01*
X145006764Y-57771980D01*
X145061121Y-57700000D01*
X150304356Y-57700000D01*
X150324884Y-57921535D01*
X150324885Y-57921537D01*
X150385769Y-58135523D01*
X150385775Y-58135538D01*
X150484938Y-58334683D01*
X150484943Y-58334691D01*
X150619020Y-58512238D01*
X150783437Y-58662123D01*
X150783439Y-58662125D01*
X150972595Y-58779245D01*
X150972596Y-58779245D01*
X150972599Y-58779247D01*
X151180060Y-58859618D01*
X151398757Y-58900500D01*
X151398759Y-58900500D01*
X151621241Y-58900500D01*
X151621243Y-58900500D01*
X151839940Y-58859618D01*
X152047401Y-58779247D01*
X152236562Y-58662124D01*
X152400981Y-58512236D01*
X152535058Y-58334689D01*
X152634229Y-58135528D01*
X152695115Y-57921536D01*
X152715643Y-57700000D01*
X152706316Y-57599349D01*
X152695115Y-57478464D01*
X152695114Y-57478462D01*
X152684794Y-57442192D01*
X152634229Y-57264472D01*
X152634067Y-57264146D01*
X152535061Y-57065316D01*
X152535056Y-57065308D01*
X152400979Y-56887761D01*
X152236562Y-56737876D01*
X152236560Y-56737874D01*
X152047404Y-56620754D01*
X152047398Y-56620752D01*
X151839940Y-56540382D01*
X151621243Y-56499500D01*
X151398757Y-56499500D01*
X151180060Y-56540382D01*
X151048864Y-56591207D01*
X150972601Y-56620752D01*
X150972595Y-56620754D01*
X150783439Y-56737874D01*
X150783437Y-56737876D01*
X150619020Y-56887761D01*
X150484943Y-57065308D01*
X150484938Y-57065316D01*
X150385775Y-57264461D01*
X150385769Y-57264476D01*
X150324885Y-57478462D01*
X150324884Y-57478464D01*
X150304356Y-57699999D01*
X150304356Y-57700000D01*
X145061121Y-57700000D01*
X145129673Y-57609222D01*
X145220582Y-57426651D01*
X145276397Y-57230484D01*
X145295215Y-57027401D01*
X145293245Y-57006146D01*
X145276397Y-56824318D01*
X145256194Y-56753313D01*
X145220582Y-56628151D01*
X145218856Y-56624685D01*
X145152440Y-56491303D01*
X145129673Y-56445580D01*
X145006764Y-56282822D01*
X145006423Y-56282511D01*
X144999551Y-56276246D01*
X144963269Y-56216535D01*
X144965030Y-56146688D01*
X145004273Y-56088880D01*
X145025277Y-56076787D01*
X145024546Y-56075448D01*
X145032326Y-56071198D01*
X145032331Y-56071197D01*
X145147546Y-55984947D01*
X145233796Y-55869732D01*
X145239291Y-55854999D01*
X159880976Y-55854999D01*
X159880978Y-55855000D01*
X160746653Y-55855000D01*
X160813692Y-55874685D01*
X160859447Y-55927489D01*
X160869391Y-55996647D01*
X160865631Y-56013933D01*
X160860000Y-56033111D01*
X160860000Y-56176888D01*
X160865631Y-56196067D01*
X160865630Y-56265936D01*
X160827855Y-56324714D01*
X160764299Y-56353738D01*
X160746653Y-56355000D01*
X159880977Y-56355000D01*
X159900916Y-56474492D01*
X159981630Y-56709603D01*
X159981635Y-56709614D01*
X160099942Y-56928228D01*
X160099948Y-56928237D01*
X160252626Y-57124397D01*
X160252635Y-57124407D01*
X160435522Y-57292767D01*
X160435521Y-57292767D01*
X160643632Y-57428732D01*
X160871282Y-57528587D01*
X161112261Y-57589612D01*
X161112269Y-57589614D01*
X161297959Y-57605000D01*
X161860000Y-57605000D01*
X161860000Y-56729000D01*
X161879685Y-56661961D01*
X161932489Y-56616206D01*
X161984000Y-56605000D01*
X162236000Y-56605000D01*
X162303039Y-56624685D01*
X162348794Y-56677489D01*
X162360000Y-56729000D01*
X162360000Y-57605000D01*
X162922041Y-57605000D01*
X163107730Y-57589614D01*
X163107738Y-57589612D01*
X163348717Y-57528587D01*
X163576367Y-57428732D01*
X163784478Y-57292767D01*
X163967364Y-57124407D01*
X163967373Y-57124397D01*
X164120051Y-56928237D01*
X164120057Y-56928228D01*
X164238364Y-56709614D01*
X164238369Y-56709603D01*
X164319083Y-56474492D01*
X164339023Y-56355000D01*
X163473347Y-56355000D01*
X163406308Y-56335315D01*
X163360553Y-56282511D01*
X163350609Y-56213353D01*
X163354369Y-56196067D01*
X163360000Y-56176888D01*
X163360000Y-56033111D01*
X163354369Y-56013933D01*
X163354370Y-55944064D01*
X163392145Y-55885286D01*
X163455701Y-55856262D01*
X163473347Y-55855000D01*
X164339022Y-55855000D01*
X164339023Y-55854999D01*
X164319083Y-55735507D01*
X164238369Y-55500396D01*
X164238364Y-55500385D01*
X164120057Y-55281771D01*
X164120051Y-55281762D01*
X163967373Y-55085602D01*
X163967364Y-55085592D01*
X163784477Y-54917232D01*
X163784478Y-54917232D01*
X163576367Y-54781267D01*
X163348717Y-54681412D01*
X163107738Y-54620387D01*
X163107730Y-54620385D01*
X162922041Y-54605000D01*
X162360000Y-54605000D01*
X162360000Y-55481000D01*
X162340315Y-55548039D01*
X162287511Y-55593794D01*
X162236000Y-55605000D01*
X161984000Y-55605000D01*
X161916961Y-55585315D01*
X161871206Y-55532511D01*
X161860000Y-55481000D01*
X161860000Y-54605000D01*
X161297959Y-54605000D01*
X161112269Y-54620385D01*
X161112261Y-54620387D01*
X160871282Y-54681412D01*
X160643632Y-54781267D01*
X160435521Y-54917232D01*
X160252635Y-55085592D01*
X160252626Y-55085602D01*
X160099948Y-55281762D01*
X160099942Y-55281771D01*
X159981635Y-55500385D01*
X159981630Y-55500396D01*
X159900916Y-55735507D01*
X159880976Y-55854999D01*
X145239291Y-55854999D01*
X145284091Y-55734884D01*
X145290500Y-55675274D01*
X145290499Y-54379529D01*
X145284091Y-54319918D01*
X145279353Y-54307216D01*
X145233797Y-54185072D01*
X145233793Y-54185065D01*
X145147547Y-54069856D01*
X145147544Y-54069853D01*
X145032335Y-53983607D01*
X145032328Y-53983603D01*
X144897482Y-53933309D01*
X144897483Y-53933309D01*
X144837883Y-53926902D01*
X144837881Y-53926901D01*
X144837873Y-53926901D01*
X144837865Y-53926901D01*
X144023116Y-53926901D01*
X143956077Y-53907216D01*
X143910322Y-53854412D01*
X143900378Y-53785254D01*
X143929403Y-53721698D01*
X143935435Y-53715220D01*
X144083390Y-53567265D01*
X144413371Y-53237283D01*
X144474692Y-53203800D01*
X144478246Y-53203080D01*
X144492456Y-53200425D01*
X144682637Y-53126749D01*
X144856041Y-53019382D01*
X145006764Y-52881980D01*
X145129673Y-52719222D01*
X145220582Y-52536651D01*
X145276397Y-52340484D01*
X145295215Y-52137401D01*
X145276397Y-51934318D01*
X145220582Y-51738151D01*
X145207491Y-51711861D01*
X145166935Y-51630413D01*
X145129673Y-51555580D01*
X145046269Y-51445135D01*
X145006765Y-51392823D01*
X145006762Y-51392820D01*
X144999135Y-51385867D01*
X144962855Y-51326159D01*
X144964614Y-51256311D01*
X145003857Y-51198503D01*
X145025017Y-51186312D01*
X145024304Y-51185005D01*
X145032093Y-51180751D01*
X145147187Y-51094591D01*
X145147190Y-51094588D01*
X145233350Y-50979494D01*
X145233354Y-50979487D01*
X145283596Y-50844780D01*
X145283598Y-50844773D01*
X145289999Y-50785245D01*
X145290000Y-50785228D01*
X145290000Y-50387401D01*
X144594979Y-50387401D01*
X144527940Y-50367716D01*
X144482185Y-50314912D01*
X144472241Y-50245754D01*
X144475713Y-50229467D01*
X144493894Y-50165563D01*
X144493895Y-50165561D01*
X144485966Y-50080000D01*
X150304356Y-50080000D01*
X150324884Y-50301535D01*
X150324885Y-50301537D01*
X150385769Y-50515523D01*
X150385775Y-50515538D01*
X150484938Y-50714683D01*
X150484943Y-50714691D01*
X150619020Y-50892238D01*
X150783437Y-51042123D01*
X150783439Y-51042125D01*
X150972595Y-51159245D01*
X150972596Y-51159245D01*
X150972599Y-51159247D01*
X151180060Y-51239618D01*
X151398757Y-51280500D01*
X151398759Y-51280500D01*
X151621241Y-51280500D01*
X151621243Y-51280500D01*
X151839940Y-51239618D01*
X152047401Y-51159247D01*
X152236562Y-51042124D01*
X152400981Y-50892236D01*
X152535058Y-50714689D01*
X152634229Y-50515528D01*
X152695115Y-50301536D01*
X152715643Y-50080000D01*
X152714874Y-50071706D01*
X152695115Y-49858464D01*
X152695114Y-49858462D01*
X152695014Y-49858111D01*
X152634229Y-49644472D01*
X152634224Y-49644461D01*
X152535061Y-49445316D01*
X152535056Y-49445308D01*
X152455536Y-49340006D01*
X156354700Y-49340006D01*
X156373864Y-49571297D01*
X156373866Y-49571308D01*
X156430842Y-49796300D01*
X156524075Y-50008848D01*
X156651018Y-50203150D01*
X156746167Y-50306510D01*
X156777089Y-50369164D01*
X156769228Y-50438590D01*
X156725081Y-50492746D01*
X156698271Y-50506674D01*
X156617911Y-50536646D01*
X156617906Y-50536649D01*
X156502812Y-50622809D01*
X156502809Y-50622812D01*
X156416649Y-50737906D01*
X156416645Y-50737913D01*
X156366403Y-50872620D01*
X156366401Y-50872627D01*
X156360000Y-50932155D01*
X156360000Y-51630000D01*
X157199997Y-51630000D01*
X157267036Y-51649685D01*
X157312791Y-51702489D01*
X157322735Y-51771647D01*
X157320888Y-51781592D01*
X157306189Y-51845992D01*
X157306189Y-51845993D01*
X157317021Y-51990532D01*
X157314920Y-51990689D01*
X157311405Y-52048139D01*
X157270110Y-52104499D01*
X157204899Y-52129587D01*
X157194784Y-52130000D01*
X156360000Y-52130000D01*
X156360000Y-52827844D01*
X156366401Y-52887372D01*
X156366403Y-52887379D01*
X156416645Y-53022086D01*
X156416649Y-53022093D01*
X156502809Y-53137187D01*
X156502812Y-53137190D01*
X156617906Y-53223350D01*
X156617913Y-53223354D01*
X156752620Y-53273596D01*
X156752627Y-53273598D01*
X156812155Y-53279999D01*
X156812172Y-53280000D01*
X157510000Y-53280000D01*
X157510000Y-52441821D01*
X157529685Y-52374782D01*
X157582489Y-52329027D01*
X157651647Y-52319083D01*
X157670547Y-52323329D01*
X157692173Y-52330000D01*
X157793723Y-52330000D01*
X157793724Y-52330000D01*
X157867519Y-52318877D01*
X157936742Y-52328350D01*
X157989857Y-52373744D01*
X158009997Y-52440648D01*
X158010000Y-52441492D01*
X158010000Y-53280000D01*
X158707828Y-53280000D01*
X158707844Y-53279999D01*
X158767372Y-53273598D01*
X158767379Y-53273596D01*
X158902086Y-53223354D01*
X158902093Y-53223350D01*
X159017187Y-53137190D01*
X159017190Y-53137187D01*
X159103350Y-53022093D01*
X159103354Y-53022086D01*
X159153596Y-52887379D01*
X159153598Y-52887372D01*
X159159999Y-52827844D01*
X159160000Y-52827827D01*
X159160000Y-52130000D01*
X158320003Y-52130000D01*
X158252964Y-52110315D01*
X158207209Y-52057511D01*
X158197265Y-51988353D01*
X158199112Y-51978408D01*
X158213810Y-51914007D01*
X158213810Y-51914006D01*
X158202979Y-51769468D01*
X158205079Y-51769310D01*
X158208595Y-51711861D01*
X158249890Y-51655501D01*
X158315101Y-51630413D01*
X158325216Y-51630000D01*
X159160000Y-51630000D01*
X159160000Y-50932172D01*
X159159999Y-50932155D01*
X159153598Y-50872627D01*
X159153596Y-50872620D01*
X159103354Y-50737913D01*
X159103350Y-50737906D01*
X159017190Y-50622812D01*
X159017187Y-50622809D01*
X158902093Y-50536649D01*
X158902086Y-50536645D01*
X158821729Y-50506674D01*
X158765795Y-50464803D01*
X158741378Y-50399338D01*
X158756230Y-50331065D01*
X158773826Y-50306516D01*
X158868979Y-50203153D01*
X158995924Y-50008849D01*
X159083147Y-49810001D01*
X163604532Y-49810001D01*
X163624364Y-50036686D01*
X163624366Y-50036697D01*
X163683258Y-50256488D01*
X163683261Y-50256497D01*
X163779431Y-50462732D01*
X163779432Y-50462734D01*
X163909954Y-50649141D01*
X164070858Y-50810045D01*
X164096318Y-50827872D01*
X164257266Y-50940568D01*
X164463504Y-51036739D01*
X164463509Y-51036740D01*
X164463511Y-51036741D01*
X164483597Y-51042123D01*
X164683308Y-51095635D01*
X164853216Y-51110500D01*
X164966784Y-51110500D01*
X165136692Y-51095635D01*
X165356496Y-51036739D01*
X165562734Y-50940568D01*
X165749139Y-50810047D01*
X165910047Y-50649139D01*
X166040568Y-50462734D01*
X166136739Y-50256496D01*
X166195635Y-50036692D01*
X166215468Y-49810000D01*
X166215161Y-49806496D01*
X166203661Y-49675049D01*
X166195635Y-49583308D01*
X166139917Y-49375364D01*
X166136741Y-49363511D01*
X166136738Y-49363502D01*
X166125779Y-49340000D01*
X166040568Y-49157266D01*
X165910958Y-48972162D01*
X165910045Y-48970858D01*
X165749141Y-48809954D01*
X165562734Y-48679432D01*
X165562732Y-48679431D01*
X165356497Y-48583261D01*
X165356488Y-48583258D01*
X165136697Y-48524366D01*
X165136687Y-48524364D01*
X164966784Y-48509500D01*
X164853216Y-48509500D01*
X164683312Y-48524364D01*
X164683302Y-48524366D01*
X164463511Y-48583258D01*
X164463502Y-48583261D01*
X164257267Y-48679431D01*
X164257265Y-48679432D01*
X164070858Y-48809954D01*
X163909954Y-48970858D01*
X163779432Y-49157265D01*
X163779431Y-49157267D01*
X163683261Y-49363502D01*
X163683258Y-49363511D01*
X163624366Y-49583302D01*
X163624364Y-49583313D01*
X163604532Y-49809998D01*
X163604532Y-49810001D01*
X159083147Y-49810001D01*
X159089157Y-49796300D01*
X159146134Y-49571305D01*
X159148095Y-49547639D01*
X159165300Y-49340006D01*
X159165300Y-49339993D01*
X159146135Y-49108702D01*
X159146133Y-49108691D01*
X159089157Y-48883699D01*
X158995924Y-48671151D01*
X158868983Y-48476852D01*
X158868980Y-48476849D01*
X158868979Y-48476847D01*
X158711784Y-48306087D01*
X158711779Y-48306083D01*
X158711777Y-48306081D01*
X158528634Y-48163535D01*
X158528628Y-48163531D01*
X158324504Y-48053064D01*
X158324495Y-48053061D01*
X158104984Y-47977702D01*
X157933282Y-47949050D01*
X157876049Y-47939500D01*
X157643951Y-47939500D01*
X157598164Y-47947140D01*
X157415015Y-47977702D01*
X157195504Y-48053061D01*
X157195495Y-48053064D01*
X156991371Y-48163531D01*
X156991365Y-48163535D01*
X156808222Y-48306081D01*
X156808219Y-48306084D01*
X156651016Y-48476852D01*
X156524075Y-48671151D01*
X156430842Y-48883699D01*
X156373866Y-49108691D01*
X156373864Y-49108702D01*
X156354700Y-49339993D01*
X156354700Y-49340006D01*
X152455536Y-49340006D01*
X152400979Y-49267761D01*
X152236562Y-49117876D01*
X152236560Y-49117874D01*
X152047404Y-49000754D01*
X152047398Y-49000752D01*
X151839940Y-48920382D01*
X151621243Y-48879500D01*
X151398757Y-48879500D01*
X151180060Y-48920382D01*
X151074880Y-48961129D01*
X150972601Y-49000752D01*
X150972595Y-49000754D01*
X150783439Y-49117874D01*
X150783437Y-49117876D01*
X150619020Y-49267761D01*
X150484943Y-49445308D01*
X150484938Y-49445316D01*
X150385775Y-49644461D01*
X150385769Y-49644476D01*
X150324885Y-49858462D01*
X150324884Y-49858464D01*
X150304356Y-50079999D01*
X150304356Y-50080000D01*
X144485966Y-50080000D01*
X144483546Y-50053880D01*
X144483544Y-50053876D01*
X144481115Y-50045338D01*
X144481701Y-49975471D01*
X144519966Y-49917011D01*
X144583763Y-49888520D01*
X144600381Y-49887401D01*
X145290000Y-49887401D01*
X145290000Y-49489573D01*
X145289999Y-49489556D01*
X145283598Y-49430028D01*
X145283596Y-49430021D01*
X145233354Y-49295314D01*
X145233350Y-49295307D01*
X145147190Y-49180213D01*
X145147187Y-49180210D01*
X145032093Y-49094050D01*
X145032086Y-49094046D01*
X144897379Y-49043804D01*
X144897372Y-49043802D01*
X144837844Y-49037401D01*
X144440000Y-49037401D01*
X144440000Y-49731508D01*
X144420315Y-49798547D01*
X144367511Y-49844302D01*
X144298353Y-49854246D01*
X144271212Y-49847137D01*
X144246080Y-49837401D01*
X144162198Y-49837401D01*
X144110120Y-49847136D01*
X144086784Y-49851498D01*
X144017269Y-49844466D01*
X143962591Y-49800968D01*
X143940109Y-49734814D01*
X143940000Y-49729609D01*
X143940000Y-49037401D01*
X143542155Y-49037401D01*
X143482627Y-49043802D01*
X143482620Y-49043804D01*
X143347913Y-49094046D01*
X143347906Y-49094050D01*
X143232812Y-49180210D01*
X143232809Y-49180213D01*
X143146649Y-49295307D01*
X143146645Y-49295314D01*
X143096403Y-49430021D01*
X143096401Y-49430028D01*
X143090000Y-49489556D01*
X143090000Y-49887401D01*
X143785021Y-49887401D01*
X143852060Y-49907086D01*
X143897815Y-49959890D01*
X143907759Y-50029048D01*
X143904287Y-50045335D01*
X143886105Y-50109238D01*
X143886104Y-50109238D01*
X143896453Y-50220918D01*
X143898885Y-50229464D01*
X143898299Y-50299331D01*
X143860034Y-50357791D01*
X143796237Y-50386282D01*
X143779619Y-50387401D01*
X143090000Y-50387401D01*
X143090000Y-50785245D01*
X143096401Y-50844773D01*
X143096403Y-50844780D01*
X143146645Y-50979487D01*
X143146649Y-50979494D01*
X143232809Y-51094588D01*
X143232812Y-51094591D01*
X143347906Y-51180751D01*
X143355696Y-51185005D01*
X143354026Y-51188061D01*
X143396577Y-51219901D01*
X143421007Y-51285360D01*
X143406169Y-51353636D01*
X143380866Y-51385866D01*
X143373236Y-51392821D01*
X143250327Y-51555579D01*
X143159422Y-51738140D01*
X143159417Y-51738153D01*
X143103602Y-51934318D01*
X143084785Y-52137400D01*
X143084785Y-52137401D01*
X143103602Y-52340479D01*
X143103602Y-52340481D01*
X143103603Y-52340484D01*
X143113362Y-52374782D01*
X143133556Y-52445757D01*
X143132968Y-52515625D01*
X143101970Y-52567372D01*
X137846162Y-57823181D01*
X137784839Y-57856666D01*
X137758481Y-57859500D01*
X137259698Y-57859500D01*
X137192659Y-57839815D01*
X137146904Y-57787011D01*
X137136960Y-57717853D01*
X137160744Y-57660774D01*
X137199671Y-57609225D01*
X137199671Y-57609223D01*
X137199673Y-57609222D01*
X137290582Y-57426651D01*
X137346397Y-57230484D01*
X137365215Y-57027401D01*
X137363245Y-57006146D01*
X137346397Y-56824318D01*
X137326194Y-56753313D01*
X137290582Y-56628151D01*
X137288856Y-56624685D01*
X137222440Y-56491303D01*
X137199673Y-56445580D01*
X137076764Y-56282822D01*
X137076423Y-56282511D01*
X137069551Y-56276246D01*
X137033269Y-56216535D01*
X137035030Y-56146688D01*
X137074273Y-56088880D01*
X137095277Y-56076787D01*
X137094546Y-56075448D01*
X137102326Y-56071198D01*
X137102331Y-56071197D01*
X137217546Y-55984947D01*
X137303796Y-55869732D01*
X137354091Y-55734884D01*
X137360500Y-55675274D01*
X137360499Y-54379529D01*
X137354091Y-54319918D01*
X137349353Y-54307216D01*
X137303797Y-54185072D01*
X137303793Y-54185065D01*
X137217547Y-54069856D01*
X137217544Y-54069853D01*
X137102335Y-53983607D01*
X137102328Y-53983603D01*
X136967482Y-53933309D01*
X136967483Y-53933309D01*
X136907883Y-53926902D01*
X136907881Y-53926901D01*
X136907873Y-53926901D01*
X136907864Y-53926901D01*
X135612129Y-53926901D01*
X135612123Y-53926902D01*
X135552516Y-53933309D01*
X135417671Y-53983603D01*
X135417664Y-53983607D01*
X135302455Y-54069853D01*
X135302452Y-54069856D01*
X135216206Y-54185065D01*
X135216202Y-54185072D01*
X135193391Y-54246234D01*
X135151520Y-54302168D01*
X135086056Y-54326585D01*
X135077209Y-54326901D01*
X132348920Y-54326901D01*
X132281881Y-54307216D01*
X132261239Y-54290582D01*
X128842837Y-50872180D01*
X128809352Y-50810857D01*
X128814336Y-50741165D01*
X128856208Y-50685232D01*
X128921672Y-50660815D01*
X128930518Y-50660499D01*
X129727871Y-50660499D01*
X129727872Y-50660499D01*
X129787483Y-50654091D01*
X129922331Y-50603796D01*
X130037546Y-50517546D01*
X130123796Y-50402331D01*
X130174091Y-50267483D01*
X130180500Y-50207873D01*
X130180500Y-50184500D01*
X130200185Y-50117461D01*
X130252989Y-50071706D01*
X130304500Y-50060500D01*
X135035500Y-50060500D01*
X135102539Y-50080185D01*
X135148294Y-50132989D01*
X135159500Y-50184500D01*
X135159500Y-50785271D01*
X135159501Y-50785277D01*
X135165908Y-50844884D01*
X135216202Y-50979729D01*
X135216206Y-50979736D01*
X135302452Y-51094945D01*
X135302455Y-51094948D01*
X135417664Y-51181194D01*
X135425454Y-51185448D01*
X135423755Y-51188558D01*
X135466124Y-51220228D01*
X135490588Y-51285675D01*
X135475784Y-51353959D01*
X135450452Y-51386243D01*
X135443236Y-51392820D01*
X135320327Y-51555579D01*
X135229422Y-51738140D01*
X135229417Y-51738153D01*
X135173602Y-51934318D01*
X135154785Y-52137400D01*
X135154785Y-52137401D01*
X135173602Y-52340483D01*
X135229417Y-52536648D01*
X135229422Y-52536661D01*
X135320327Y-52719222D01*
X135443237Y-52881982D01*
X135593958Y-53019381D01*
X135593960Y-53019383D01*
X135598326Y-53022086D01*
X135767363Y-53126749D01*
X135957544Y-53200425D01*
X136158024Y-53237901D01*
X136158026Y-53237901D01*
X136361974Y-53237901D01*
X136361976Y-53237901D01*
X136562456Y-53200425D01*
X136752637Y-53126749D01*
X136926041Y-53019382D01*
X137076764Y-52881980D01*
X137199673Y-52719222D01*
X137290582Y-52536651D01*
X137346397Y-52340484D01*
X137365215Y-52137401D01*
X137346397Y-51934318D01*
X137290582Y-51738151D01*
X137277491Y-51711861D01*
X137236935Y-51630413D01*
X137199673Y-51555580D01*
X137076764Y-51392822D01*
X137073818Y-51390136D01*
X137069551Y-51386246D01*
X137033269Y-51326535D01*
X137035030Y-51256688D01*
X137074273Y-51198880D01*
X137095277Y-51186787D01*
X137094546Y-51185448D01*
X137102326Y-51181198D01*
X137102331Y-51181197D01*
X137217546Y-51094947D01*
X137303796Y-50979732D01*
X137354091Y-50844884D01*
X137360500Y-50785274D01*
X137360499Y-49489529D01*
X137354091Y-49429918D01*
X137347458Y-49412135D01*
X137303797Y-49295072D01*
X137303793Y-49295065D01*
X137217547Y-49179856D01*
X137217544Y-49179853D01*
X137102335Y-49093607D01*
X137102328Y-49093603D01*
X136967482Y-49043309D01*
X136967483Y-49043309D01*
X136907883Y-49036902D01*
X136907881Y-49036901D01*
X136907873Y-49036901D01*
X136907865Y-49036901D01*
X136201519Y-49036901D01*
X136134480Y-49017216D01*
X136113838Y-49000582D01*
X136068290Y-48955034D01*
X135994197Y-48880941D01*
X135991663Y-48878250D01*
X135950528Y-48831817D01*
X135950527Y-48831816D01*
X135950523Y-48831812D01*
X135899495Y-48796591D01*
X135896486Y-48794377D01*
X135847659Y-48756124D01*
X135847654Y-48756120D01*
X135838412Y-48751961D01*
X135818865Y-48740936D01*
X135810530Y-48735183D01*
X135810531Y-48735183D01*
X135810529Y-48735182D01*
X135752540Y-48713189D01*
X135749089Y-48711759D01*
X135692529Y-48686304D01*
X135682545Y-48684474D01*
X135660942Y-48678451D01*
X135651473Y-48674860D01*
X135651469Y-48674859D01*
X135589912Y-48667384D01*
X135586211Y-48666821D01*
X135525207Y-48655642D01*
X135525202Y-48655642D01*
X135463296Y-48659387D01*
X135459551Y-48659500D01*
X130304499Y-48659500D01*
X130237460Y-48639815D01*
X130191705Y-48587011D01*
X130180499Y-48535500D01*
X130180499Y-48512129D01*
X130180498Y-48512123D01*
X130174091Y-48452516D01*
X130123797Y-48317671D01*
X130123793Y-48317664D01*
X130037547Y-48202455D01*
X130037544Y-48202452D01*
X129922335Y-48116206D01*
X129922328Y-48116202D01*
X129787482Y-48065908D01*
X129787483Y-48065908D01*
X129727883Y-48059501D01*
X129727881Y-48059500D01*
X129727873Y-48059500D01*
X129727864Y-48059500D01*
X128032129Y-48059500D01*
X128032123Y-48059501D01*
X127972516Y-48065908D01*
X127837671Y-48116202D01*
X127837664Y-48116206D01*
X127722455Y-48202452D01*
X127722452Y-48202455D01*
X127636206Y-48317664D01*
X127636202Y-48317671D01*
X127585908Y-48452516D01*
X127582137Y-48487596D01*
X127555398Y-48552146D01*
X127498006Y-48591994D01*
X127428180Y-48594487D01*
X127368092Y-48558834D01*
X127357273Y-48545462D01*
X127340045Y-48520858D01*
X127179141Y-48359954D01*
X126992734Y-48229432D01*
X126992732Y-48229431D01*
X126786497Y-48133261D01*
X126786488Y-48133258D01*
X126566697Y-48074366D01*
X126566693Y-48074365D01*
X126566692Y-48074365D01*
X126566691Y-48074364D01*
X126566686Y-48074364D01*
X126340002Y-48054532D01*
X126339998Y-48054532D01*
X126113313Y-48074364D01*
X126113302Y-48074366D01*
X125893511Y-48133258D01*
X125893502Y-48133261D01*
X125687267Y-48229431D01*
X125687265Y-48229432D01*
X125500858Y-48359954D01*
X125339954Y-48520858D01*
X125209432Y-48707265D01*
X125209431Y-48707267D01*
X125202349Y-48722455D01*
X125182533Y-48764952D01*
X125182382Y-48765275D01*
X125136209Y-48817714D01*
X125069016Y-48836866D01*
X125002135Y-48816650D01*
X124957618Y-48765275D01*
X124930568Y-48707266D01*
X124800047Y-48520861D01*
X124800045Y-48520858D01*
X124639141Y-48359954D01*
X124452734Y-48229432D01*
X124452732Y-48229431D01*
X124246497Y-48133261D01*
X124246488Y-48133258D01*
X124026697Y-48074366D01*
X124026693Y-48074365D01*
X124026692Y-48074365D01*
X124026691Y-48074364D01*
X124026686Y-48074364D01*
X123800002Y-48054532D01*
X123799998Y-48054532D01*
X123573313Y-48074364D01*
X123573302Y-48074366D01*
X123353511Y-48133258D01*
X123353502Y-48133261D01*
X123147267Y-48229431D01*
X123147265Y-48229432D01*
X122960858Y-48359954D01*
X122799954Y-48520858D01*
X122669432Y-48707265D01*
X122669431Y-48707267D01*
X122662349Y-48722455D01*
X122642533Y-48764952D01*
X122642382Y-48765275D01*
X122596209Y-48817714D01*
X122529016Y-48836866D01*
X122462135Y-48816650D01*
X122417618Y-48765275D01*
X122390568Y-48707266D01*
X122260047Y-48520861D01*
X122260045Y-48520858D01*
X122099141Y-48359954D01*
X121912734Y-48229432D01*
X121912732Y-48229431D01*
X121706497Y-48133261D01*
X121706488Y-48133258D01*
X121486697Y-48074366D01*
X121486693Y-48074365D01*
X121486692Y-48074365D01*
X121486691Y-48074364D01*
X121486686Y-48074364D01*
X121260002Y-48054532D01*
X121259998Y-48054532D01*
X121033313Y-48074364D01*
X121033302Y-48074366D01*
X120813511Y-48133258D01*
X120813502Y-48133261D01*
X120607267Y-48229431D01*
X120607265Y-48229432D01*
X120420858Y-48359954D01*
X120259954Y-48520858D01*
X120129432Y-48707265D01*
X120129431Y-48707267D01*
X120122349Y-48722455D01*
X120102533Y-48764952D01*
X120102382Y-48765275D01*
X120056209Y-48817714D01*
X119989016Y-48836866D01*
X119922135Y-48816650D01*
X119877618Y-48765275D01*
X119850568Y-48707266D01*
X119720047Y-48520861D01*
X119720045Y-48520858D01*
X119559141Y-48359954D01*
X119372734Y-48229432D01*
X119372732Y-48229431D01*
X119166497Y-48133261D01*
X119166488Y-48133258D01*
X118946697Y-48074366D01*
X118946693Y-48074365D01*
X118946692Y-48074365D01*
X118946691Y-48074364D01*
X118946686Y-48074364D01*
X118720002Y-48054532D01*
X118719998Y-48054532D01*
X118493313Y-48074364D01*
X118493302Y-48074366D01*
X118273511Y-48133258D01*
X118273502Y-48133261D01*
X118067267Y-48229431D01*
X118067265Y-48229432D01*
X117880858Y-48359954D01*
X117719954Y-48520858D01*
X117589432Y-48707265D01*
X117589431Y-48707267D01*
X117582349Y-48722455D01*
X117562533Y-48764952D01*
X117562382Y-48765275D01*
X117516209Y-48817714D01*
X117449016Y-48836866D01*
X117382135Y-48816650D01*
X117337618Y-48765275D01*
X117310568Y-48707266D01*
X117180047Y-48520861D01*
X117180045Y-48520858D01*
X117019141Y-48359954D01*
X116832734Y-48229432D01*
X116832732Y-48229431D01*
X116626497Y-48133261D01*
X116626488Y-48133258D01*
X116406697Y-48074366D01*
X116406693Y-48074365D01*
X116406692Y-48074365D01*
X116406691Y-48074364D01*
X116406686Y-48074364D01*
X116180002Y-48054532D01*
X116179998Y-48054532D01*
X115953313Y-48074364D01*
X115953302Y-48074366D01*
X115733511Y-48133258D01*
X115733502Y-48133261D01*
X115527267Y-48229431D01*
X115527265Y-48229432D01*
X115340858Y-48359954D01*
X115179954Y-48520858D01*
X115049432Y-48707265D01*
X115049431Y-48707267D01*
X115042349Y-48722455D01*
X115022533Y-48764952D01*
X115022382Y-48765275D01*
X114976209Y-48817714D01*
X114909016Y-48836866D01*
X114842135Y-48816650D01*
X114797618Y-48765275D01*
X114770568Y-48707266D01*
X114640047Y-48520861D01*
X114640045Y-48520858D01*
X114479141Y-48359954D01*
X114292734Y-48229432D01*
X114292732Y-48229431D01*
X114086497Y-48133261D01*
X114086488Y-48133258D01*
X113866697Y-48074366D01*
X113866693Y-48074365D01*
X113866692Y-48074365D01*
X113866691Y-48074364D01*
X113866686Y-48074364D01*
X113640002Y-48054532D01*
X113639998Y-48054532D01*
X113413313Y-48074364D01*
X113413302Y-48074366D01*
X113193511Y-48133258D01*
X113193502Y-48133261D01*
X112987267Y-48229431D01*
X112987265Y-48229432D01*
X112800858Y-48359954D01*
X112639954Y-48520858D01*
X112515348Y-48698817D01*
X112509432Y-48707266D01*
X112482533Y-48764952D01*
X112482106Y-48765867D01*
X112435933Y-48818306D01*
X112368739Y-48837457D01*
X112301858Y-48817241D01*
X112257342Y-48765865D01*
X112230135Y-48707520D01*
X112230134Y-48707518D01*
X112099657Y-48521179D01*
X111938820Y-48360342D01*
X111752482Y-48229865D01*
X111546328Y-48133734D01*
X111350000Y-48081127D01*
X111350000Y-48849424D01*
X111330315Y-48916463D01*
X111277511Y-48962218D01*
X111208353Y-48972162D01*
X111206602Y-48971897D01*
X111131486Y-48960000D01*
X111131481Y-48960000D01*
X111068519Y-48960000D01*
X111068514Y-48960000D01*
X110993398Y-48971897D01*
X110924104Y-48962942D01*
X110870652Y-48917946D01*
X110850013Y-48851194D01*
X110850000Y-48849424D01*
X110850000Y-48081127D01*
X110653671Y-48133734D01*
X110447517Y-48229865D01*
X110261179Y-48360342D01*
X110100342Y-48521179D01*
X109969865Y-48707517D01*
X109873734Y-48913673D01*
X109873730Y-48913682D01*
X109821127Y-49109999D01*
X107905342Y-49109999D01*
X107895141Y-48993400D01*
X107895139Y-48993389D01*
X107836269Y-48773682D01*
X107836265Y-48773673D01*
X107740133Y-48567516D01*
X107740131Y-48567512D01*
X107689026Y-48494526D01*
X107689025Y-48494526D01*
X107147419Y-49036132D01*
X107086096Y-49069617D01*
X107016404Y-49064633D01*
X106960471Y-49022761D01*
X106949256Y-49004751D01*
X106937641Y-48981955D01*
X106937637Y-48981951D01*
X106937636Y-48981949D01*
X106848050Y-48892363D01*
X106848044Y-48892358D01*
X106838109Y-48887296D01*
X106825250Y-48880744D01*
X106774456Y-48832773D01*
X106757660Y-48764952D01*
X106780197Y-48698817D01*
X106793865Y-48682580D01*
X107335472Y-48140973D01*
X107262483Y-48089866D01*
X107262481Y-48089865D01*
X107056326Y-47993734D01*
X107056317Y-47993730D01*
X106836610Y-47934860D01*
X106836599Y-47934858D01*
X106610002Y-47915034D01*
X106609998Y-47915034D01*
X106383400Y-47934858D01*
X106383389Y-47934860D01*
X106163682Y-47993730D01*
X106163673Y-47993734D01*
X105957513Y-48089868D01*
X105884526Y-48140973D01*
X106426133Y-48682580D01*
X106459618Y-48743903D01*
X106454634Y-48813595D01*
X106412762Y-48869528D01*
X106394748Y-48880745D01*
X106371956Y-48892358D01*
X106371949Y-48892363D01*
X106282363Y-48981949D01*
X106282358Y-48981956D01*
X106270745Y-49004748D01*
X106222770Y-49055544D01*
X106154949Y-49072338D01*
X106088814Y-49049800D01*
X106072580Y-49036133D01*
X105530973Y-48494526D01*
X105479868Y-48567513D01*
X105383734Y-48773673D01*
X105383730Y-48773682D01*
X105324860Y-48993389D01*
X105324858Y-48993400D01*
X105305034Y-49219997D01*
X105305034Y-49220002D01*
X102056443Y-49220002D01*
X102095472Y-49180973D01*
X102022483Y-49129866D01*
X102022481Y-49129865D01*
X101816326Y-49033734D01*
X101816317Y-49033730D01*
X101596610Y-48974860D01*
X101596599Y-48974858D01*
X101370002Y-48955034D01*
X101369998Y-48955034D01*
X101143400Y-48974858D01*
X101143389Y-48974860D01*
X100923682Y-49033730D01*
X100923673Y-49033734D01*
X100717512Y-49129868D01*
X100717507Y-49129871D01*
X100704736Y-49138813D01*
X100638529Y-49161138D01*
X100570763Y-49144124D01*
X100534352Y-49111546D01*
X100527546Y-49102454D01*
X100527544Y-49102453D01*
X100527544Y-49102452D01*
X100412335Y-49016206D01*
X100412328Y-49016202D01*
X100277482Y-48965908D01*
X100277483Y-48965908D01*
X100217883Y-48959501D01*
X100217881Y-48959500D01*
X100217873Y-48959500D01*
X100217864Y-48959500D01*
X98522129Y-48959500D01*
X98522123Y-48959501D01*
X98462516Y-48965908D01*
X98327671Y-49016202D01*
X98327664Y-49016206D01*
X98212455Y-49102452D01*
X98212452Y-49102455D01*
X98126206Y-49217664D01*
X98126202Y-49217671D01*
X98075908Y-49352517D01*
X98069501Y-49412116D01*
X98069500Y-49412135D01*
X98069500Y-51107870D01*
X94229761Y-51107870D01*
X94293796Y-51022331D01*
X94344091Y-50887483D01*
X94350500Y-50827873D01*
X94350499Y-49032128D01*
X94344091Y-48972517D01*
X94343473Y-48970861D01*
X94293797Y-48837671D01*
X94293793Y-48837664D01*
X94207547Y-48722455D01*
X94207544Y-48722452D01*
X94092335Y-48636206D01*
X94092328Y-48636202D01*
X93957482Y-48585908D01*
X93957483Y-48585908D01*
X93897883Y-48579501D01*
X93897881Y-48579500D01*
X93897873Y-48579500D01*
X93897864Y-48579500D01*
X92102129Y-48579500D01*
X92102123Y-48579501D01*
X92042516Y-48585908D01*
X91907671Y-48636202D01*
X91907664Y-48636206D01*
X91792455Y-48722452D01*
X91792452Y-48722455D01*
X91706206Y-48837664D01*
X91706202Y-48837671D01*
X91656997Y-48969598D01*
X91615126Y-49025532D01*
X91549661Y-49049949D01*
X91481388Y-49035097D01*
X91453134Y-49013946D01*
X91331082Y-48891894D01*
X91137578Y-48756399D01*
X90923492Y-48656570D01*
X90923486Y-48656567D01*
X90710000Y-48599364D01*
X90709999Y-48599364D01*
X90709999Y-49317698D01*
X90690314Y-49384738D01*
X90637510Y-49430492D01*
X90568353Y-49440436D01*
X90495764Y-49430000D01*
X90495763Y-49430000D01*
X90424237Y-49430000D01*
X90424233Y-49430000D01*
X90351645Y-49440436D01*
X90282487Y-49430492D01*
X90229684Y-49384736D01*
X90210000Y-49317698D01*
X90210000Y-48599364D01*
X90209999Y-48599364D01*
X89996513Y-48656567D01*
X89996507Y-48656570D01*
X89782422Y-48756399D01*
X89782420Y-48756400D01*
X89588926Y-48891886D01*
X89588920Y-48891891D01*
X89421891Y-49058920D01*
X89421886Y-49058926D01*
X89286400Y-49252420D01*
X89286399Y-49252422D01*
X89186570Y-49466507D01*
X89186567Y-49466513D01*
X89129364Y-49679999D01*
X89129364Y-49680000D01*
X89846653Y-49680000D01*
X89913692Y-49699685D01*
X89959447Y-49752489D01*
X89969391Y-49821647D01*
X89965631Y-49838933D01*
X89960000Y-49858111D01*
X89960000Y-50001888D01*
X89965631Y-50021067D01*
X89965630Y-50090936D01*
X89927855Y-50149714D01*
X89864299Y-50178738D01*
X89846653Y-50180000D01*
X89129364Y-50180000D01*
X85277236Y-50180000D01*
X85315635Y-50036692D01*
X85335468Y-49810000D01*
X85335161Y-49806496D01*
X85323661Y-49675049D01*
X85315635Y-49583308D01*
X85259917Y-49375364D01*
X85256741Y-49363511D01*
X85256738Y-49363502D01*
X85245779Y-49340000D01*
X85160568Y-49157266D01*
X85030958Y-48972162D01*
X85030045Y-48970858D01*
X84869141Y-48809954D01*
X84682734Y-48679432D01*
X84682732Y-48679431D01*
X84476497Y-48583261D01*
X84476488Y-48583258D01*
X84256697Y-48524366D01*
X84256687Y-48524364D01*
X84086784Y-48509500D01*
X83973216Y-48509500D01*
X83803312Y-48524364D01*
X83803302Y-48524366D01*
X83583511Y-48583258D01*
X83583502Y-48583261D01*
X83377267Y-48679431D01*
X83377265Y-48679432D01*
X83190858Y-48809954D01*
X83029954Y-48970858D01*
X82899432Y-49157265D01*
X82899431Y-49157267D01*
X82803261Y-49363502D01*
X82803258Y-49363511D01*
X82744366Y-49583302D01*
X82744364Y-49583313D01*
X82724532Y-49809998D01*
X82724532Y-49810001D01*
X80720000Y-49810001D01*
X80720000Y-46874500D01*
X80739685Y-46807461D01*
X80792489Y-46761706D01*
X80844000Y-46750500D01*
X167775500Y-46750500D01*
X167842539Y-46770185D01*
G37*
%TD.AperFunction*%
%TD*%
M02*
