%TF.GenerationSoftware,KiCad,Pcbnew,7.0.7*%
%TF.CreationDate,2024-03-20T00:35:12+00:00*%
%TF.ProjectId,TIMPS2Key,54494d50-5332-44b6-9579-2e6b69636164,rev?*%
%TF.SameCoordinates,Original*%
%TF.FileFunction,Drillmap*%
%TF.FilePolarity,Positive*%
%FSLAX45Y45*%
G04 Gerber Fmt 4.5, Leading zero omitted, Abs format (unit mm)*
G04 Created by KiCad (PCBNEW 7.0.7) date 2024-03-20 00:35:12*
%MOMM*%
%LPD*%
G01*
G04 APERTURE LIST*
%ADD10C,0.100000*%
%ADD11C,0.200000*%
%ADD12C,0.060000*%
%ADD13C,0.070000*%
%ADD14C,0.080000*%
%ADD15C,0.090000*%
%ADD16C,0.110000*%
%ADD17C,0.140000*%
G04 APERTURE END LIST*
D10*
X8071000Y-4675000D02*
X16790000Y-4675000D01*
X16790000Y-7893000D01*
X8071000Y-7893000D01*
X8071000Y-4675000D01*
D11*
D12*
X13596000Y-4983740D02*
X13656000Y-5043740D01*
X13656000Y-4983740D02*
X13596000Y-5043740D01*
X13596000Y-5183740D02*
X13656000Y-5243740D01*
X13656000Y-5183740D02*
X13596000Y-5243740D01*
X13596000Y-5472740D02*
X13656000Y-5532740D01*
X13656000Y-5472740D02*
X13596000Y-5532740D01*
X13596000Y-5672740D02*
X13656000Y-5732740D01*
X13656000Y-5672740D02*
X13596000Y-5732740D01*
X14389000Y-4983740D02*
X14449000Y-5043740D01*
X14449000Y-4983740D02*
X14389000Y-5043740D01*
X14389000Y-5183740D02*
X14449000Y-5243740D01*
X14449000Y-5183740D02*
X14389000Y-5243740D01*
X14389000Y-5472740D02*
X14449000Y-5532740D01*
X14449000Y-5472740D02*
X14389000Y-5532740D01*
X14389000Y-5672740D02*
X14449000Y-5732740D01*
X14449000Y-5672740D02*
X14389000Y-5732740D01*
D13*
X15186000Y-5008000D02*
G75*
G03*
X15186000Y-5008000I-35000J0D01*
G01*
X15186000Y-5770000D02*
G75*
G03*
X15186000Y-5770000I-35000J0D01*
G01*
D14*
X9937000Y-4986000D02*
X9937000Y-5066000D01*
X9897000Y-5026000D02*
X9977000Y-5026000D01*
X10049000Y-7377000D02*
X10049000Y-7457000D01*
X10009000Y-7417000D02*
X10089000Y-7417000D01*
X10137000Y-4986000D02*
X10137000Y-5066000D01*
X10097000Y-5026000D02*
X10177000Y-5026000D01*
X10161000Y-5617000D02*
X10161000Y-5697000D01*
X10121000Y-5657000D02*
X10201000Y-5657000D01*
X10249000Y-7377000D02*
X10249000Y-7457000D01*
X10209000Y-7417000D02*
X10289000Y-7417000D01*
X10661000Y-4882000D02*
X10661000Y-4962000D01*
X10621000Y-4922000D02*
X10701000Y-4922000D01*
X10661000Y-5382000D02*
X10661000Y-5462000D01*
X10621000Y-5422000D02*
X10701000Y-5422000D01*
X10661000Y-5617000D02*
X10661000Y-5697000D01*
X10621000Y-5657000D02*
X10701000Y-5657000D01*
X11110000Y-4896000D02*
X11110000Y-4976000D01*
X11070000Y-4936000D02*
X11150000Y-4936000D01*
X11110000Y-5658000D02*
X11110000Y-5738000D01*
X11070000Y-5698000D02*
X11150000Y-5698000D01*
X11364000Y-4896000D02*
X11364000Y-4976000D01*
X11324000Y-4936000D02*
X11404000Y-4936000D01*
X11364000Y-5658000D02*
X11364000Y-5738000D01*
X11324000Y-5698000D02*
X11404000Y-5698000D01*
X11618000Y-4896000D02*
X11618000Y-4976000D01*
X11578000Y-4936000D02*
X11658000Y-4936000D01*
X11618000Y-5658000D02*
X11618000Y-5738000D01*
X11578000Y-5698000D02*
X11658000Y-5698000D01*
X11872000Y-4896000D02*
X11872000Y-4976000D01*
X11832000Y-4936000D02*
X11912000Y-4936000D01*
X11872000Y-5658000D02*
X11872000Y-5738000D01*
X11832000Y-5698000D02*
X11912000Y-5698000D01*
X12126000Y-4896000D02*
X12126000Y-4976000D01*
X12086000Y-4936000D02*
X12166000Y-4936000D01*
X12126000Y-5658000D02*
X12126000Y-5738000D01*
X12086000Y-5698000D02*
X12166000Y-5698000D01*
X12380000Y-4896000D02*
X12380000Y-4976000D01*
X12340000Y-4936000D02*
X12420000Y-4936000D01*
X12380000Y-5658000D02*
X12380000Y-5738000D01*
X12340000Y-5698000D02*
X12420000Y-5698000D01*
X12634000Y-4896000D02*
X12634000Y-4976000D01*
X12594000Y-4936000D02*
X12674000Y-4936000D01*
X12634000Y-5658000D02*
X12634000Y-5738000D01*
X12594000Y-5698000D02*
X12674000Y-5698000D01*
X12888000Y-4896000D02*
X12888000Y-4976000D01*
X12848000Y-4936000D02*
X12928000Y-4936000D01*
X12888000Y-5658000D02*
X12888000Y-5738000D01*
X12848000Y-5698000D02*
X12928000Y-5698000D01*
X15646000Y-5915500D02*
X15646000Y-5995500D01*
X15606000Y-5955500D02*
X15686000Y-5955500D01*
X15646000Y-6595500D02*
X15646000Y-6675500D01*
X15606000Y-6635500D02*
X15686000Y-6635500D01*
X15926000Y-5915500D02*
X15926000Y-5995500D01*
X15886000Y-5955500D02*
X15966000Y-5955500D01*
X15926000Y-6125500D02*
X15926000Y-6205500D01*
X15886000Y-6165500D02*
X15966000Y-6165500D01*
X15926000Y-6385500D02*
X15926000Y-6465500D01*
X15886000Y-6425500D02*
X15966000Y-6425500D01*
X15926000Y-6595500D02*
X15926000Y-6675500D01*
X15886000Y-6635500D02*
X15966000Y-6635500D01*
D15*
X15807820Y-4965820D02*
X15807820Y-4902180D01*
X15744180Y-4902180D01*
X15744180Y-4965820D01*
X15807820Y-4965820D01*
X15807820Y-5219820D02*
X15807820Y-5156180D01*
X15744180Y-5156180D01*
X15744180Y-5219820D01*
X15807820Y-5219820D01*
D10*
X9046000Y-5043000D02*
X9096000Y-4993000D01*
X9046000Y-4943000D01*
X8996000Y-4993000D01*
X9046000Y-5043000D01*
X9300000Y-5043000D02*
X9350000Y-4993000D01*
X9300000Y-4943000D01*
X9250000Y-4993000D01*
X9300000Y-5043000D01*
X11091000Y-6179000D02*
X11141000Y-6129000D01*
X11091000Y-6079000D01*
X11041000Y-6129000D01*
X11091000Y-6179000D01*
X11091000Y-7703000D02*
X11141000Y-7653000D01*
X11091000Y-7603000D01*
X11041000Y-7653000D01*
X11091000Y-7703000D01*
X11345000Y-6179000D02*
X11395000Y-6129000D01*
X11345000Y-6079000D01*
X11295000Y-6129000D01*
X11345000Y-6179000D01*
X11345000Y-7703000D02*
X11395000Y-7653000D01*
X11345000Y-7603000D01*
X11295000Y-7653000D01*
X11345000Y-7703000D01*
X11599000Y-6179000D02*
X11649000Y-6129000D01*
X11599000Y-6079000D01*
X11549000Y-6129000D01*
X11599000Y-6179000D01*
X11599000Y-7703000D02*
X11649000Y-7653000D01*
X11599000Y-7603000D01*
X11549000Y-7653000D01*
X11599000Y-7703000D01*
X11853000Y-6179000D02*
X11903000Y-6129000D01*
X11853000Y-6079000D01*
X11803000Y-6129000D01*
X11853000Y-6179000D01*
X11853000Y-7703000D02*
X11903000Y-7653000D01*
X11853000Y-7603000D01*
X11803000Y-7653000D01*
X11853000Y-7703000D01*
X12107000Y-6179000D02*
X12157000Y-6129000D01*
X12107000Y-6079000D01*
X12057000Y-6129000D01*
X12107000Y-6179000D01*
X12107000Y-7703000D02*
X12157000Y-7653000D01*
X12107000Y-7603000D01*
X12057000Y-7653000D01*
X12107000Y-7703000D01*
X12361000Y-6179000D02*
X12411000Y-6129000D01*
X12361000Y-6079000D01*
X12311000Y-6129000D01*
X12361000Y-6179000D01*
X12361000Y-7703000D02*
X12411000Y-7653000D01*
X12361000Y-7603000D01*
X12311000Y-7653000D01*
X12361000Y-7703000D01*
X12615000Y-6179000D02*
X12665000Y-6129000D01*
X12615000Y-6079000D01*
X12565000Y-6129000D01*
X12615000Y-6179000D01*
X12615000Y-7703000D02*
X12665000Y-7653000D01*
X12615000Y-7603000D01*
X12565000Y-7653000D01*
X12615000Y-7703000D01*
X12869000Y-6179000D02*
X12919000Y-6129000D01*
X12869000Y-6079000D01*
X12819000Y-6129000D01*
X12869000Y-6179000D01*
X12869000Y-7703000D02*
X12919000Y-7653000D01*
X12869000Y-7603000D01*
X12819000Y-7653000D01*
X12869000Y-7703000D01*
X13123000Y-6179000D02*
X13173000Y-6129000D01*
X13123000Y-6079000D01*
X13073000Y-6129000D01*
X13123000Y-6179000D01*
X13123000Y-7703000D02*
X13173000Y-7653000D01*
X13123000Y-7603000D01*
X13073000Y-7653000D01*
X13123000Y-7703000D01*
X13377000Y-6179000D02*
X13427000Y-6129000D01*
X13377000Y-6079000D01*
X13327000Y-6129000D01*
X13377000Y-6179000D01*
X13377000Y-7703000D02*
X13427000Y-7653000D01*
X13377000Y-7603000D01*
X13327000Y-7653000D01*
X13377000Y-7703000D01*
X13631000Y-6179000D02*
X13681000Y-6129000D01*
X13631000Y-6079000D01*
X13581000Y-6129000D01*
X13631000Y-6179000D01*
X13631000Y-7703000D02*
X13681000Y-7653000D01*
X13631000Y-7603000D01*
X13581000Y-7653000D01*
X13631000Y-7703000D01*
X13885000Y-6179000D02*
X13935000Y-6129000D01*
X13885000Y-6079000D01*
X13835000Y-6129000D01*
X13885000Y-6179000D01*
X13885000Y-7703000D02*
X13935000Y-7653000D01*
X13885000Y-7603000D01*
X13835000Y-7653000D01*
X13885000Y-7703000D01*
X14139000Y-6179000D02*
X14189000Y-6129000D01*
X14139000Y-6079000D01*
X14089000Y-6129000D01*
X14139000Y-6179000D01*
X14139000Y-7703000D02*
X14189000Y-7653000D01*
X14139000Y-7603000D01*
X14089000Y-7653000D01*
X14139000Y-7703000D01*
X14393000Y-6179000D02*
X14443000Y-6129000D01*
X14393000Y-6079000D01*
X14343000Y-6129000D01*
X14393000Y-6179000D01*
X14393000Y-7703000D02*
X14443000Y-7653000D01*
X14393000Y-7603000D01*
X14343000Y-7653000D01*
X14393000Y-7703000D01*
X14647000Y-6179000D02*
X14697000Y-6129000D01*
X14647000Y-6079000D01*
X14597000Y-6129000D01*
X14647000Y-6179000D01*
X14647000Y-7703000D02*
X14697000Y-7653000D01*
X14647000Y-7603000D01*
X14597000Y-7653000D01*
X14647000Y-7703000D01*
X16211000Y-5660500D02*
X16261000Y-5610500D01*
X16211000Y-5560500D01*
X16161000Y-5610500D01*
X16211000Y-5660500D01*
D11*
X16136000Y-5660500D02*
X16286000Y-5660500D01*
X16286000Y-5660500D02*
G75*
G03*
X16286000Y-5560500I0J50000D01*
G01*
X16286000Y-5560500D02*
X16136000Y-5560500D01*
X16136000Y-5560500D02*
G75*
G03*
X16136000Y-5660500I0J-50000D01*
G01*
D10*
X16211000Y-7030500D02*
X16261000Y-6980500D01*
X16211000Y-6930500D01*
X16161000Y-6980500D01*
X16211000Y-7030500D01*
D11*
X16136000Y-7030500D02*
X16286000Y-7030500D01*
X16286000Y-7030500D02*
G75*
G03*
X16286000Y-6930500I0J50000D01*
G01*
X16286000Y-6930500D02*
X16136000Y-6930500D01*
X16136000Y-6930500D02*
G75*
G03*
X16136000Y-7030500I0J-50000D01*
G01*
D10*
X16291000Y-6345500D02*
X16341000Y-6295500D01*
X16291000Y-6245500D01*
X16241000Y-6295500D01*
X16291000Y-6345500D01*
D11*
X16341000Y-6395500D02*
X16341000Y-6195500D01*
X16341000Y-6195500D02*
G75*
G03*
X16241000Y-6195500I-50000J0D01*
G01*
X16241000Y-6195500D02*
X16241000Y-6395500D01*
X16241000Y-6395500D02*
G75*
G03*
X16341000Y-6395500I50000J0D01*
G01*
D16*
X8973000Y-7610000D02*
X9083000Y-7720000D01*
X9083000Y-7610000D02*
X8973000Y-7720000D01*
X9083000Y-7665000D02*
G75*
G03*
X9083000Y-7665000I-55000J0D01*
G01*
X9227000Y-7610000D02*
X9337000Y-7720000D01*
X9337000Y-7610000D02*
X9227000Y-7720000D01*
X9337000Y-7665000D02*
G75*
G03*
X9337000Y-7665000I-55000J0D01*
G01*
X9481000Y-7610000D02*
X9591000Y-7720000D01*
X9591000Y-7610000D02*
X9481000Y-7720000D01*
X9591000Y-7665000D02*
G75*
G03*
X9591000Y-7665000I-55000J0D01*
G01*
D17*
X8249320Y-5727000D02*
X8389320Y-5867000D01*
X8389320Y-5727000D02*
X8249320Y-5867000D01*
X8319320Y-5727000D02*
X8319320Y-5867000D01*
X8249320Y-5797000D02*
X8389320Y-5797000D01*
X8249320Y-5977500D02*
X8389320Y-6117500D01*
X8389320Y-5977500D02*
X8249320Y-6117500D01*
X8319320Y-5977500D02*
X8319320Y-6117500D01*
X8249320Y-6047500D02*
X8389320Y-6047500D01*
X8249320Y-6222420D02*
X8389320Y-6362420D01*
X8389320Y-6222420D02*
X8249320Y-6362420D01*
X8319320Y-6222420D02*
X8319320Y-6362420D01*
X8249320Y-6292420D02*
X8389320Y-6292420D01*
X8249320Y-6477500D02*
X8389320Y-6617500D01*
X8389320Y-6477500D02*
X8249320Y-6617500D01*
X8319320Y-6477500D02*
X8319320Y-6617500D01*
X8249320Y-6547500D02*
X8389320Y-6547500D01*
X8249320Y-6728000D02*
X8389320Y-6868000D01*
X8389320Y-6728000D02*
X8249320Y-6868000D01*
X8319320Y-6728000D02*
X8319320Y-6868000D01*
X8249320Y-6798000D02*
X8389320Y-6798000D01*
X9250000Y-5477000D02*
X9390000Y-5617000D01*
X9390000Y-5477000D02*
X9250000Y-5617000D01*
X9320000Y-5477000D02*
X9320000Y-5617000D01*
X9250000Y-5547000D02*
X9390000Y-5547000D01*
X9250000Y-6227500D02*
X9390000Y-6367500D01*
X9390000Y-6227500D02*
X9250000Y-6367500D01*
X9320000Y-6227500D02*
X9320000Y-6367500D01*
X9250000Y-6297500D02*
X9390000Y-6297500D01*
X9250000Y-6978000D02*
X9390000Y-7118000D01*
X9390000Y-6978000D02*
X9250000Y-7118000D01*
X9320000Y-6978000D02*
X9320000Y-7118000D01*
X9250000Y-7048000D02*
X9390000Y-7048000D01*
X9499000Y-5727000D02*
X9639000Y-5867000D01*
X9639000Y-5727000D02*
X9499000Y-5867000D01*
X9569000Y-5727000D02*
X9569000Y-5867000D01*
X9499000Y-5797000D02*
X9639000Y-5797000D01*
X9499000Y-6728000D02*
X9639000Y-6868000D01*
X9639000Y-6728000D02*
X9499000Y-6868000D01*
X9569000Y-6728000D02*
X9569000Y-6868000D01*
X9499000Y-6798000D02*
X9639000Y-6798000D01*
D11*
X8326777Y-8209484D02*
X8326777Y-8009484D01*
X8326777Y-8009484D02*
X8374396Y-8009484D01*
X8374396Y-8009484D02*
X8402967Y-8019008D01*
X8402967Y-8019008D02*
X8422015Y-8038055D01*
X8422015Y-8038055D02*
X8431539Y-8057103D01*
X8431539Y-8057103D02*
X8441063Y-8095198D01*
X8441063Y-8095198D02*
X8441063Y-8123769D01*
X8441063Y-8123769D02*
X8431539Y-8161865D01*
X8431539Y-8161865D02*
X8422015Y-8180912D01*
X8422015Y-8180912D02*
X8402967Y-8199960D01*
X8402967Y-8199960D02*
X8374396Y-8209484D01*
X8374396Y-8209484D02*
X8326777Y-8209484D01*
X8526777Y-8209484D02*
X8526777Y-8076150D01*
X8526777Y-8114246D02*
X8536301Y-8095198D01*
X8536301Y-8095198D02*
X8545824Y-8085674D01*
X8545824Y-8085674D02*
X8564872Y-8076150D01*
X8564872Y-8076150D02*
X8583920Y-8076150D01*
X8650586Y-8209484D02*
X8650586Y-8076150D01*
X8650586Y-8009484D02*
X8641063Y-8019008D01*
X8641063Y-8019008D02*
X8650586Y-8028531D01*
X8650586Y-8028531D02*
X8660110Y-8019008D01*
X8660110Y-8019008D02*
X8650586Y-8009484D01*
X8650586Y-8009484D02*
X8650586Y-8028531D01*
X8774396Y-8209484D02*
X8755348Y-8199960D01*
X8755348Y-8199960D02*
X8745824Y-8180912D01*
X8745824Y-8180912D02*
X8745824Y-8009484D01*
X8879158Y-8209484D02*
X8860110Y-8199960D01*
X8860110Y-8199960D02*
X8850586Y-8180912D01*
X8850586Y-8180912D02*
X8850586Y-8009484D01*
X9107729Y-8209484D02*
X9107729Y-8009484D01*
X9107729Y-8009484D02*
X9174396Y-8152341D01*
X9174396Y-8152341D02*
X9241063Y-8009484D01*
X9241063Y-8009484D02*
X9241063Y-8209484D01*
X9422015Y-8209484D02*
X9422015Y-8104722D01*
X9422015Y-8104722D02*
X9412491Y-8085674D01*
X9412491Y-8085674D02*
X9393444Y-8076150D01*
X9393444Y-8076150D02*
X9355348Y-8076150D01*
X9355348Y-8076150D02*
X9336301Y-8085674D01*
X9422015Y-8199960D02*
X9402967Y-8209484D01*
X9402967Y-8209484D02*
X9355348Y-8209484D01*
X9355348Y-8209484D02*
X9336301Y-8199960D01*
X9336301Y-8199960D02*
X9326777Y-8180912D01*
X9326777Y-8180912D02*
X9326777Y-8161865D01*
X9326777Y-8161865D02*
X9336301Y-8142817D01*
X9336301Y-8142817D02*
X9355348Y-8133293D01*
X9355348Y-8133293D02*
X9402967Y-8133293D01*
X9402967Y-8133293D02*
X9422015Y-8123769D01*
X9517253Y-8076150D02*
X9517253Y-8276150D01*
X9517253Y-8085674D02*
X9536301Y-8076150D01*
X9536301Y-8076150D02*
X9574396Y-8076150D01*
X9574396Y-8076150D02*
X9593444Y-8085674D01*
X9593444Y-8085674D02*
X9602967Y-8095198D01*
X9602967Y-8095198D02*
X9612491Y-8114246D01*
X9612491Y-8114246D02*
X9612491Y-8171388D01*
X9612491Y-8171388D02*
X9602967Y-8190436D01*
X9602967Y-8190436D02*
X9593444Y-8199960D01*
X9593444Y-8199960D02*
X9574396Y-8209484D01*
X9574396Y-8209484D02*
X9536301Y-8209484D01*
X9536301Y-8209484D02*
X9517253Y-8199960D01*
X9698205Y-8190436D02*
X9707729Y-8199960D01*
X9707729Y-8199960D02*
X9698205Y-8209484D01*
X9698205Y-8209484D02*
X9688682Y-8199960D01*
X9688682Y-8199960D02*
X9698205Y-8190436D01*
X9698205Y-8190436D02*
X9698205Y-8209484D01*
X9698205Y-8085674D02*
X9707729Y-8095198D01*
X9707729Y-8095198D02*
X9698205Y-8104722D01*
X9698205Y-8104722D02*
X9688682Y-8095198D01*
X9688682Y-8095198D02*
X9698205Y-8085674D01*
X9698205Y-8085674D02*
X9698205Y-8104722D01*
D12*
X8006000Y-8508000D02*
X8066000Y-8568000D01*
X8066000Y-8508000D02*
X8006000Y-8568000D01*
D11*
X8364872Y-8429484D02*
X8383920Y-8429484D01*
X8383920Y-8429484D02*
X8402967Y-8439008D01*
X8402967Y-8439008D02*
X8412491Y-8448531D01*
X8412491Y-8448531D02*
X8422015Y-8467579D01*
X8422015Y-8467579D02*
X8431539Y-8505674D01*
X8431539Y-8505674D02*
X8431539Y-8553293D01*
X8431539Y-8553293D02*
X8422015Y-8591389D01*
X8422015Y-8591389D02*
X8412491Y-8610436D01*
X8412491Y-8610436D02*
X8402967Y-8619960D01*
X8402967Y-8619960D02*
X8383920Y-8629484D01*
X8383920Y-8629484D02*
X8364872Y-8629484D01*
X8364872Y-8629484D02*
X8345824Y-8619960D01*
X8345824Y-8619960D02*
X8336301Y-8610436D01*
X8336301Y-8610436D02*
X8326777Y-8591389D01*
X8326777Y-8591389D02*
X8317253Y-8553293D01*
X8317253Y-8553293D02*
X8317253Y-8505674D01*
X8317253Y-8505674D02*
X8326777Y-8467579D01*
X8326777Y-8467579D02*
X8336301Y-8448531D01*
X8336301Y-8448531D02*
X8345824Y-8439008D01*
X8345824Y-8439008D02*
X8364872Y-8429484D01*
X8517253Y-8610436D02*
X8526777Y-8619960D01*
X8526777Y-8619960D02*
X8517253Y-8629484D01*
X8517253Y-8629484D02*
X8507729Y-8619960D01*
X8507729Y-8619960D02*
X8517253Y-8610436D01*
X8517253Y-8610436D02*
X8517253Y-8629484D01*
X8698205Y-8429484D02*
X8660110Y-8429484D01*
X8660110Y-8429484D02*
X8641063Y-8439008D01*
X8641063Y-8439008D02*
X8631539Y-8448531D01*
X8631539Y-8448531D02*
X8612491Y-8477103D01*
X8612491Y-8477103D02*
X8602967Y-8515198D01*
X8602967Y-8515198D02*
X8602967Y-8591389D01*
X8602967Y-8591389D02*
X8612491Y-8610436D01*
X8612491Y-8610436D02*
X8622015Y-8619960D01*
X8622015Y-8619960D02*
X8641063Y-8629484D01*
X8641063Y-8629484D02*
X8679158Y-8629484D01*
X8679158Y-8629484D02*
X8698205Y-8619960D01*
X8698205Y-8619960D02*
X8707729Y-8610436D01*
X8707729Y-8610436D02*
X8717253Y-8591389D01*
X8717253Y-8591389D02*
X8717253Y-8543770D01*
X8717253Y-8543770D02*
X8707729Y-8524722D01*
X8707729Y-8524722D02*
X8698205Y-8515198D01*
X8698205Y-8515198D02*
X8679158Y-8505674D01*
X8679158Y-8505674D02*
X8641063Y-8505674D01*
X8641063Y-8505674D02*
X8622015Y-8515198D01*
X8622015Y-8515198D02*
X8612491Y-8524722D01*
X8612491Y-8524722D02*
X8602967Y-8543770D01*
X8841063Y-8429484D02*
X8860110Y-8429484D01*
X8860110Y-8429484D02*
X8879158Y-8439008D01*
X8879158Y-8439008D02*
X8888682Y-8448531D01*
X8888682Y-8448531D02*
X8898205Y-8467579D01*
X8898205Y-8467579D02*
X8907729Y-8505674D01*
X8907729Y-8505674D02*
X8907729Y-8553293D01*
X8907729Y-8553293D02*
X8898205Y-8591389D01*
X8898205Y-8591389D02*
X8888682Y-8610436D01*
X8888682Y-8610436D02*
X8879158Y-8619960D01*
X8879158Y-8619960D02*
X8860110Y-8629484D01*
X8860110Y-8629484D02*
X8841063Y-8629484D01*
X8841063Y-8629484D02*
X8822015Y-8619960D01*
X8822015Y-8619960D02*
X8812491Y-8610436D01*
X8812491Y-8610436D02*
X8802967Y-8591389D01*
X8802967Y-8591389D02*
X8793444Y-8553293D01*
X8793444Y-8553293D02*
X8793444Y-8505674D01*
X8793444Y-8505674D02*
X8802967Y-8467579D01*
X8802967Y-8467579D02*
X8812491Y-8448531D01*
X8812491Y-8448531D02*
X8822015Y-8439008D01*
X8822015Y-8439008D02*
X8841063Y-8429484D01*
X9031539Y-8429484D02*
X9050586Y-8429484D01*
X9050586Y-8429484D02*
X9069634Y-8439008D01*
X9069634Y-8439008D02*
X9079158Y-8448531D01*
X9079158Y-8448531D02*
X9088682Y-8467579D01*
X9088682Y-8467579D02*
X9098205Y-8505674D01*
X9098205Y-8505674D02*
X9098205Y-8553293D01*
X9098205Y-8553293D02*
X9088682Y-8591389D01*
X9088682Y-8591389D02*
X9079158Y-8610436D01*
X9079158Y-8610436D02*
X9069634Y-8619960D01*
X9069634Y-8619960D02*
X9050586Y-8629484D01*
X9050586Y-8629484D02*
X9031539Y-8629484D01*
X9031539Y-8629484D02*
X9012491Y-8619960D01*
X9012491Y-8619960D02*
X9002967Y-8610436D01*
X9002967Y-8610436D02*
X8993444Y-8591389D01*
X8993444Y-8591389D02*
X8983920Y-8553293D01*
X8983920Y-8553293D02*
X8983920Y-8505674D01*
X8983920Y-8505674D02*
X8993444Y-8467579D01*
X8993444Y-8467579D02*
X9002967Y-8448531D01*
X9002967Y-8448531D02*
X9012491Y-8439008D01*
X9012491Y-8439008D02*
X9031539Y-8429484D01*
X9183920Y-8629484D02*
X9183920Y-8496150D01*
X9183920Y-8515198D02*
X9193444Y-8505674D01*
X9193444Y-8505674D02*
X9212491Y-8496150D01*
X9212491Y-8496150D02*
X9241063Y-8496150D01*
X9241063Y-8496150D02*
X9260110Y-8505674D01*
X9260110Y-8505674D02*
X9269634Y-8524722D01*
X9269634Y-8524722D02*
X9269634Y-8629484D01*
X9269634Y-8524722D02*
X9279158Y-8505674D01*
X9279158Y-8505674D02*
X9298205Y-8496150D01*
X9298205Y-8496150D02*
X9326777Y-8496150D01*
X9326777Y-8496150D02*
X9345825Y-8505674D01*
X9345825Y-8505674D02*
X9355348Y-8524722D01*
X9355348Y-8524722D02*
X9355348Y-8629484D01*
X9450586Y-8629484D02*
X9450586Y-8496150D01*
X9450586Y-8515198D02*
X9460110Y-8505674D01*
X9460110Y-8505674D02*
X9479158Y-8496150D01*
X9479158Y-8496150D02*
X9507729Y-8496150D01*
X9507729Y-8496150D02*
X9526777Y-8505674D01*
X9526777Y-8505674D02*
X9536301Y-8524722D01*
X9536301Y-8524722D02*
X9536301Y-8629484D01*
X9536301Y-8524722D02*
X9545825Y-8505674D01*
X9545825Y-8505674D02*
X9564872Y-8496150D01*
X9564872Y-8496150D02*
X9593444Y-8496150D01*
X9593444Y-8496150D02*
X9612491Y-8505674D01*
X9612491Y-8505674D02*
X9622015Y-8524722D01*
X9622015Y-8524722D02*
X9622015Y-8629484D01*
X10012491Y-8419960D02*
X9841063Y-8677103D01*
X10269634Y-8429484D02*
X10288682Y-8429484D01*
X10288682Y-8429484D02*
X10307729Y-8439008D01*
X10307729Y-8439008D02*
X10317253Y-8448531D01*
X10317253Y-8448531D02*
X10326777Y-8467579D01*
X10326777Y-8467579D02*
X10336301Y-8505674D01*
X10336301Y-8505674D02*
X10336301Y-8553293D01*
X10336301Y-8553293D02*
X10326777Y-8591389D01*
X10326777Y-8591389D02*
X10317253Y-8610436D01*
X10317253Y-8610436D02*
X10307729Y-8619960D01*
X10307729Y-8619960D02*
X10288682Y-8629484D01*
X10288682Y-8629484D02*
X10269634Y-8629484D01*
X10269634Y-8629484D02*
X10250587Y-8619960D01*
X10250587Y-8619960D02*
X10241063Y-8610436D01*
X10241063Y-8610436D02*
X10231539Y-8591389D01*
X10231539Y-8591389D02*
X10222015Y-8553293D01*
X10222015Y-8553293D02*
X10222015Y-8505674D01*
X10222015Y-8505674D02*
X10231539Y-8467579D01*
X10231539Y-8467579D02*
X10241063Y-8448531D01*
X10241063Y-8448531D02*
X10250587Y-8439008D01*
X10250587Y-8439008D02*
X10269634Y-8429484D01*
X10422015Y-8610436D02*
X10431539Y-8619960D01*
X10431539Y-8619960D02*
X10422015Y-8629484D01*
X10422015Y-8629484D02*
X10412491Y-8619960D01*
X10412491Y-8619960D02*
X10422015Y-8610436D01*
X10422015Y-8610436D02*
X10422015Y-8629484D01*
X10555348Y-8429484D02*
X10574396Y-8429484D01*
X10574396Y-8429484D02*
X10593444Y-8439008D01*
X10593444Y-8439008D02*
X10602968Y-8448531D01*
X10602968Y-8448531D02*
X10612491Y-8467579D01*
X10612491Y-8467579D02*
X10622015Y-8505674D01*
X10622015Y-8505674D02*
X10622015Y-8553293D01*
X10622015Y-8553293D02*
X10612491Y-8591389D01*
X10612491Y-8591389D02*
X10602968Y-8610436D01*
X10602968Y-8610436D02*
X10593444Y-8619960D01*
X10593444Y-8619960D02*
X10574396Y-8629484D01*
X10574396Y-8629484D02*
X10555348Y-8629484D01*
X10555348Y-8629484D02*
X10536301Y-8619960D01*
X10536301Y-8619960D02*
X10526777Y-8610436D01*
X10526777Y-8610436D02*
X10517253Y-8591389D01*
X10517253Y-8591389D02*
X10507729Y-8553293D01*
X10507729Y-8553293D02*
X10507729Y-8505674D01*
X10507729Y-8505674D02*
X10517253Y-8467579D01*
X10517253Y-8467579D02*
X10526777Y-8448531D01*
X10526777Y-8448531D02*
X10536301Y-8439008D01*
X10536301Y-8439008D02*
X10555348Y-8429484D01*
X10698206Y-8448531D02*
X10707729Y-8439008D01*
X10707729Y-8439008D02*
X10726777Y-8429484D01*
X10726777Y-8429484D02*
X10774396Y-8429484D01*
X10774396Y-8429484D02*
X10793444Y-8439008D01*
X10793444Y-8439008D02*
X10802968Y-8448531D01*
X10802968Y-8448531D02*
X10812491Y-8467579D01*
X10812491Y-8467579D02*
X10812491Y-8486627D01*
X10812491Y-8486627D02*
X10802968Y-8515198D01*
X10802968Y-8515198D02*
X10688682Y-8629484D01*
X10688682Y-8629484D02*
X10812491Y-8629484D01*
X10879158Y-8429484D02*
X11002968Y-8429484D01*
X11002968Y-8429484D02*
X10936301Y-8505674D01*
X10936301Y-8505674D02*
X10964872Y-8505674D01*
X10964872Y-8505674D02*
X10983920Y-8515198D01*
X10983920Y-8515198D02*
X10993444Y-8524722D01*
X10993444Y-8524722D02*
X11002968Y-8543770D01*
X11002968Y-8543770D02*
X11002968Y-8591389D01*
X11002968Y-8591389D02*
X10993444Y-8610436D01*
X10993444Y-8610436D02*
X10983920Y-8619960D01*
X10983920Y-8619960D02*
X10964872Y-8629484D01*
X10964872Y-8629484D02*
X10907729Y-8629484D01*
X10907729Y-8629484D02*
X10888682Y-8619960D01*
X10888682Y-8619960D02*
X10879158Y-8610436D01*
X11174396Y-8429484D02*
X11136301Y-8429484D01*
X11136301Y-8429484D02*
X11117253Y-8439008D01*
X11117253Y-8439008D02*
X11107729Y-8448531D01*
X11107729Y-8448531D02*
X11088682Y-8477103D01*
X11088682Y-8477103D02*
X11079158Y-8515198D01*
X11079158Y-8515198D02*
X11079158Y-8591389D01*
X11079158Y-8591389D02*
X11088682Y-8610436D01*
X11088682Y-8610436D02*
X11098206Y-8619960D01*
X11098206Y-8619960D02*
X11117253Y-8629484D01*
X11117253Y-8629484D02*
X11155349Y-8629484D01*
X11155349Y-8629484D02*
X11174396Y-8619960D01*
X11174396Y-8619960D02*
X11183920Y-8610436D01*
X11183920Y-8610436D02*
X11193444Y-8591389D01*
X11193444Y-8591389D02*
X11193444Y-8543770D01*
X11193444Y-8543770D02*
X11183920Y-8524722D01*
X11183920Y-8524722D02*
X11174396Y-8515198D01*
X11174396Y-8515198D02*
X11155349Y-8505674D01*
X11155349Y-8505674D02*
X11117253Y-8505674D01*
X11117253Y-8505674D02*
X11098206Y-8515198D01*
X11098206Y-8515198D02*
X11088682Y-8524722D01*
X11088682Y-8524722D02*
X11079158Y-8543770D01*
X11269634Y-8429484D02*
X11269634Y-8467579D01*
X11345825Y-8429484D02*
X11345825Y-8467579D01*
X11641063Y-8705674D02*
X11631539Y-8696150D01*
X11631539Y-8696150D02*
X11612491Y-8667579D01*
X11612491Y-8667579D02*
X11602968Y-8648531D01*
X11602968Y-8648531D02*
X11593444Y-8619960D01*
X11593444Y-8619960D02*
X11583920Y-8572341D01*
X11583920Y-8572341D02*
X11583920Y-8534246D01*
X11583920Y-8534246D02*
X11593444Y-8486627D01*
X11593444Y-8486627D02*
X11602968Y-8458055D01*
X11602968Y-8458055D02*
X11612491Y-8439008D01*
X11612491Y-8439008D02*
X11631539Y-8410436D01*
X11631539Y-8410436D02*
X11641063Y-8400912D01*
X11745825Y-8515198D02*
X11726777Y-8505674D01*
X11726777Y-8505674D02*
X11717253Y-8496150D01*
X11717253Y-8496150D02*
X11707729Y-8477103D01*
X11707729Y-8477103D02*
X11707729Y-8467579D01*
X11707729Y-8467579D02*
X11717253Y-8448531D01*
X11717253Y-8448531D02*
X11726777Y-8439008D01*
X11726777Y-8439008D02*
X11745825Y-8429484D01*
X11745825Y-8429484D02*
X11783920Y-8429484D01*
X11783920Y-8429484D02*
X11802968Y-8439008D01*
X11802968Y-8439008D02*
X11812491Y-8448531D01*
X11812491Y-8448531D02*
X11822015Y-8467579D01*
X11822015Y-8467579D02*
X11822015Y-8477103D01*
X11822015Y-8477103D02*
X11812491Y-8496150D01*
X11812491Y-8496150D02*
X11802968Y-8505674D01*
X11802968Y-8505674D02*
X11783920Y-8515198D01*
X11783920Y-8515198D02*
X11745825Y-8515198D01*
X11745825Y-8515198D02*
X11726777Y-8524722D01*
X11726777Y-8524722D02*
X11717253Y-8534246D01*
X11717253Y-8534246D02*
X11707729Y-8553293D01*
X11707729Y-8553293D02*
X11707729Y-8591389D01*
X11707729Y-8591389D02*
X11717253Y-8610436D01*
X11717253Y-8610436D02*
X11726777Y-8619960D01*
X11726777Y-8619960D02*
X11745825Y-8629484D01*
X11745825Y-8629484D02*
X11783920Y-8629484D01*
X11783920Y-8629484D02*
X11802968Y-8619960D01*
X11802968Y-8619960D02*
X11812491Y-8610436D01*
X11812491Y-8610436D02*
X11822015Y-8591389D01*
X11822015Y-8591389D02*
X11822015Y-8553293D01*
X11822015Y-8553293D02*
X11812491Y-8534246D01*
X11812491Y-8534246D02*
X11802968Y-8524722D01*
X11802968Y-8524722D02*
X11783920Y-8515198D01*
X12060110Y-8629484D02*
X12060110Y-8429484D01*
X12145825Y-8629484D02*
X12145825Y-8524722D01*
X12145825Y-8524722D02*
X12136301Y-8505674D01*
X12136301Y-8505674D02*
X12117253Y-8496150D01*
X12117253Y-8496150D02*
X12088682Y-8496150D01*
X12088682Y-8496150D02*
X12069634Y-8505674D01*
X12069634Y-8505674D02*
X12060110Y-8515198D01*
X12269634Y-8629484D02*
X12250587Y-8619960D01*
X12250587Y-8619960D02*
X12241063Y-8610436D01*
X12241063Y-8610436D02*
X12231539Y-8591389D01*
X12231539Y-8591389D02*
X12231539Y-8534246D01*
X12231539Y-8534246D02*
X12241063Y-8515198D01*
X12241063Y-8515198D02*
X12250587Y-8505674D01*
X12250587Y-8505674D02*
X12269634Y-8496150D01*
X12269634Y-8496150D02*
X12298206Y-8496150D01*
X12298206Y-8496150D02*
X12317253Y-8505674D01*
X12317253Y-8505674D02*
X12326777Y-8515198D01*
X12326777Y-8515198D02*
X12336301Y-8534246D01*
X12336301Y-8534246D02*
X12336301Y-8591389D01*
X12336301Y-8591389D02*
X12326777Y-8610436D01*
X12326777Y-8610436D02*
X12317253Y-8619960D01*
X12317253Y-8619960D02*
X12298206Y-8629484D01*
X12298206Y-8629484D02*
X12269634Y-8629484D01*
X12450587Y-8629484D02*
X12431539Y-8619960D01*
X12431539Y-8619960D02*
X12422015Y-8600912D01*
X12422015Y-8600912D02*
X12422015Y-8429484D01*
X12602968Y-8619960D02*
X12583920Y-8629484D01*
X12583920Y-8629484D02*
X12545825Y-8629484D01*
X12545825Y-8629484D02*
X12526777Y-8619960D01*
X12526777Y-8619960D02*
X12517253Y-8600912D01*
X12517253Y-8600912D02*
X12517253Y-8524722D01*
X12517253Y-8524722D02*
X12526777Y-8505674D01*
X12526777Y-8505674D02*
X12545825Y-8496150D01*
X12545825Y-8496150D02*
X12583920Y-8496150D01*
X12583920Y-8496150D02*
X12602968Y-8505674D01*
X12602968Y-8505674D02*
X12612491Y-8524722D01*
X12612491Y-8524722D02*
X12612491Y-8543770D01*
X12612491Y-8543770D02*
X12517253Y-8562817D01*
X12688682Y-8619960D02*
X12707730Y-8629484D01*
X12707730Y-8629484D02*
X12745825Y-8629484D01*
X12745825Y-8629484D02*
X12764872Y-8619960D01*
X12764872Y-8619960D02*
X12774396Y-8600912D01*
X12774396Y-8600912D02*
X12774396Y-8591389D01*
X12774396Y-8591389D02*
X12764872Y-8572341D01*
X12764872Y-8572341D02*
X12745825Y-8562817D01*
X12745825Y-8562817D02*
X12717253Y-8562817D01*
X12717253Y-8562817D02*
X12698206Y-8553293D01*
X12698206Y-8553293D02*
X12688682Y-8534246D01*
X12688682Y-8534246D02*
X12688682Y-8524722D01*
X12688682Y-8524722D02*
X12698206Y-8505674D01*
X12698206Y-8505674D02*
X12717253Y-8496150D01*
X12717253Y-8496150D02*
X12745825Y-8496150D01*
X12745825Y-8496150D02*
X12764872Y-8505674D01*
X12841063Y-8705674D02*
X12850587Y-8696150D01*
X12850587Y-8696150D02*
X12869634Y-8667579D01*
X12869634Y-8667579D02*
X12879158Y-8648531D01*
X12879158Y-8648531D02*
X12888682Y-8619960D01*
X12888682Y-8619960D02*
X12898206Y-8572341D01*
X12898206Y-8572341D02*
X12898206Y-8534246D01*
X12898206Y-8534246D02*
X12888682Y-8486627D01*
X12888682Y-8486627D02*
X12879158Y-8458055D01*
X12879158Y-8458055D02*
X12869634Y-8439008D01*
X12869634Y-8439008D02*
X12850587Y-8410436D01*
X12850587Y-8410436D02*
X12841063Y-8400912D01*
D13*
X8066000Y-8802000D02*
G75*
G03*
X8066000Y-8802000I-35000J0D01*
G01*
D11*
X8364872Y-8693484D02*
X8383920Y-8693484D01*
X8383920Y-8693484D02*
X8402967Y-8703008D01*
X8402967Y-8703008D02*
X8412491Y-8712531D01*
X8412491Y-8712531D02*
X8422015Y-8731579D01*
X8422015Y-8731579D02*
X8431539Y-8769674D01*
X8431539Y-8769674D02*
X8431539Y-8817293D01*
X8431539Y-8817293D02*
X8422015Y-8855389D01*
X8422015Y-8855389D02*
X8412491Y-8874436D01*
X8412491Y-8874436D02*
X8402967Y-8883960D01*
X8402967Y-8883960D02*
X8383920Y-8893484D01*
X8383920Y-8893484D02*
X8364872Y-8893484D01*
X8364872Y-8893484D02*
X8345824Y-8883960D01*
X8345824Y-8883960D02*
X8336301Y-8874436D01*
X8336301Y-8874436D02*
X8326777Y-8855389D01*
X8326777Y-8855389D02*
X8317253Y-8817293D01*
X8317253Y-8817293D02*
X8317253Y-8769674D01*
X8317253Y-8769674D02*
X8326777Y-8731579D01*
X8326777Y-8731579D02*
X8336301Y-8712531D01*
X8336301Y-8712531D02*
X8345824Y-8703008D01*
X8345824Y-8703008D02*
X8364872Y-8693484D01*
X8517253Y-8874436D02*
X8526777Y-8883960D01*
X8526777Y-8883960D02*
X8517253Y-8893484D01*
X8517253Y-8893484D02*
X8507729Y-8883960D01*
X8507729Y-8883960D02*
X8517253Y-8874436D01*
X8517253Y-8874436D02*
X8517253Y-8893484D01*
X8593444Y-8693484D02*
X8726777Y-8693484D01*
X8726777Y-8693484D02*
X8641063Y-8893484D01*
X8841063Y-8693484D02*
X8860110Y-8693484D01*
X8860110Y-8693484D02*
X8879158Y-8703008D01*
X8879158Y-8703008D02*
X8888682Y-8712531D01*
X8888682Y-8712531D02*
X8898205Y-8731579D01*
X8898205Y-8731579D02*
X8907729Y-8769674D01*
X8907729Y-8769674D02*
X8907729Y-8817293D01*
X8907729Y-8817293D02*
X8898205Y-8855389D01*
X8898205Y-8855389D02*
X8888682Y-8874436D01*
X8888682Y-8874436D02*
X8879158Y-8883960D01*
X8879158Y-8883960D02*
X8860110Y-8893484D01*
X8860110Y-8893484D02*
X8841063Y-8893484D01*
X8841063Y-8893484D02*
X8822015Y-8883960D01*
X8822015Y-8883960D02*
X8812491Y-8874436D01*
X8812491Y-8874436D02*
X8802967Y-8855389D01*
X8802967Y-8855389D02*
X8793444Y-8817293D01*
X8793444Y-8817293D02*
X8793444Y-8769674D01*
X8793444Y-8769674D02*
X8802967Y-8731579D01*
X8802967Y-8731579D02*
X8812491Y-8712531D01*
X8812491Y-8712531D02*
X8822015Y-8703008D01*
X8822015Y-8703008D02*
X8841063Y-8693484D01*
X9031539Y-8693484D02*
X9050586Y-8693484D01*
X9050586Y-8693484D02*
X9069634Y-8703008D01*
X9069634Y-8703008D02*
X9079158Y-8712531D01*
X9079158Y-8712531D02*
X9088682Y-8731579D01*
X9088682Y-8731579D02*
X9098205Y-8769674D01*
X9098205Y-8769674D02*
X9098205Y-8817293D01*
X9098205Y-8817293D02*
X9088682Y-8855389D01*
X9088682Y-8855389D02*
X9079158Y-8874436D01*
X9079158Y-8874436D02*
X9069634Y-8883960D01*
X9069634Y-8883960D02*
X9050586Y-8893484D01*
X9050586Y-8893484D02*
X9031539Y-8893484D01*
X9031539Y-8893484D02*
X9012491Y-8883960D01*
X9012491Y-8883960D02*
X9002967Y-8874436D01*
X9002967Y-8874436D02*
X8993444Y-8855389D01*
X8993444Y-8855389D02*
X8983920Y-8817293D01*
X8983920Y-8817293D02*
X8983920Y-8769674D01*
X8983920Y-8769674D02*
X8993444Y-8731579D01*
X8993444Y-8731579D02*
X9002967Y-8712531D01*
X9002967Y-8712531D02*
X9012491Y-8703008D01*
X9012491Y-8703008D02*
X9031539Y-8693484D01*
X9183920Y-8893484D02*
X9183920Y-8760150D01*
X9183920Y-8779198D02*
X9193444Y-8769674D01*
X9193444Y-8769674D02*
X9212491Y-8760150D01*
X9212491Y-8760150D02*
X9241063Y-8760150D01*
X9241063Y-8760150D02*
X9260110Y-8769674D01*
X9260110Y-8769674D02*
X9269634Y-8788722D01*
X9269634Y-8788722D02*
X9269634Y-8893484D01*
X9269634Y-8788722D02*
X9279158Y-8769674D01*
X9279158Y-8769674D02*
X9298205Y-8760150D01*
X9298205Y-8760150D02*
X9326777Y-8760150D01*
X9326777Y-8760150D02*
X9345825Y-8769674D01*
X9345825Y-8769674D02*
X9355348Y-8788722D01*
X9355348Y-8788722D02*
X9355348Y-8893484D01*
X9450586Y-8893484D02*
X9450586Y-8760150D01*
X9450586Y-8779198D02*
X9460110Y-8769674D01*
X9460110Y-8769674D02*
X9479158Y-8760150D01*
X9479158Y-8760150D02*
X9507729Y-8760150D01*
X9507729Y-8760150D02*
X9526777Y-8769674D01*
X9526777Y-8769674D02*
X9536301Y-8788722D01*
X9536301Y-8788722D02*
X9536301Y-8893484D01*
X9536301Y-8788722D02*
X9545825Y-8769674D01*
X9545825Y-8769674D02*
X9564872Y-8760150D01*
X9564872Y-8760150D02*
X9593444Y-8760150D01*
X9593444Y-8760150D02*
X9612491Y-8769674D01*
X9612491Y-8769674D02*
X9622015Y-8788722D01*
X9622015Y-8788722D02*
X9622015Y-8893484D01*
X10012491Y-8683960D02*
X9841063Y-8941103D01*
X10269634Y-8693484D02*
X10288682Y-8693484D01*
X10288682Y-8693484D02*
X10307729Y-8703008D01*
X10307729Y-8703008D02*
X10317253Y-8712531D01*
X10317253Y-8712531D02*
X10326777Y-8731579D01*
X10326777Y-8731579D02*
X10336301Y-8769674D01*
X10336301Y-8769674D02*
X10336301Y-8817293D01*
X10336301Y-8817293D02*
X10326777Y-8855389D01*
X10326777Y-8855389D02*
X10317253Y-8874436D01*
X10317253Y-8874436D02*
X10307729Y-8883960D01*
X10307729Y-8883960D02*
X10288682Y-8893484D01*
X10288682Y-8893484D02*
X10269634Y-8893484D01*
X10269634Y-8893484D02*
X10250587Y-8883960D01*
X10250587Y-8883960D02*
X10241063Y-8874436D01*
X10241063Y-8874436D02*
X10231539Y-8855389D01*
X10231539Y-8855389D02*
X10222015Y-8817293D01*
X10222015Y-8817293D02*
X10222015Y-8769674D01*
X10222015Y-8769674D02*
X10231539Y-8731579D01*
X10231539Y-8731579D02*
X10241063Y-8712531D01*
X10241063Y-8712531D02*
X10250587Y-8703008D01*
X10250587Y-8703008D02*
X10269634Y-8693484D01*
X10422015Y-8874436D02*
X10431539Y-8883960D01*
X10431539Y-8883960D02*
X10422015Y-8893484D01*
X10422015Y-8893484D02*
X10412491Y-8883960D01*
X10412491Y-8883960D02*
X10422015Y-8874436D01*
X10422015Y-8874436D02*
X10422015Y-8893484D01*
X10555348Y-8693484D02*
X10574396Y-8693484D01*
X10574396Y-8693484D02*
X10593444Y-8703008D01*
X10593444Y-8703008D02*
X10602968Y-8712531D01*
X10602968Y-8712531D02*
X10612491Y-8731579D01*
X10612491Y-8731579D02*
X10622015Y-8769674D01*
X10622015Y-8769674D02*
X10622015Y-8817293D01*
X10622015Y-8817293D02*
X10612491Y-8855389D01*
X10612491Y-8855389D02*
X10602968Y-8874436D01*
X10602968Y-8874436D02*
X10593444Y-8883960D01*
X10593444Y-8883960D02*
X10574396Y-8893484D01*
X10574396Y-8893484D02*
X10555348Y-8893484D01*
X10555348Y-8893484D02*
X10536301Y-8883960D01*
X10536301Y-8883960D02*
X10526777Y-8874436D01*
X10526777Y-8874436D02*
X10517253Y-8855389D01*
X10517253Y-8855389D02*
X10507729Y-8817293D01*
X10507729Y-8817293D02*
X10507729Y-8769674D01*
X10507729Y-8769674D02*
X10517253Y-8731579D01*
X10517253Y-8731579D02*
X10526777Y-8712531D01*
X10526777Y-8712531D02*
X10536301Y-8703008D01*
X10536301Y-8703008D02*
X10555348Y-8693484D01*
X10698206Y-8712531D02*
X10707729Y-8703008D01*
X10707729Y-8703008D02*
X10726777Y-8693484D01*
X10726777Y-8693484D02*
X10774396Y-8693484D01*
X10774396Y-8693484D02*
X10793444Y-8703008D01*
X10793444Y-8703008D02*
X10802968Y-8712531D01*
X10802968Y-8712531D02*
X10812491Y-8731579D01*
X10812491Y-8731579D02*
X10812491Y-8750627D01*
X10812491Y-8750627D02*
X10802968Y-8779198D01*
X10802968Y-8779198D02*
X10688682Y-8893484D01*
X10688682Y-8893484D02*
X10812491Y-8893484D01*
X10879158Y-8693484D02*
X11012491Y-8693484D01*
X11012491Y-8693484D02*
X10926777Y-8893484D01*
X11174396Y-8693484D02*
X11136301Y-8693484D01*
X11136301Y-8693484D02*
X11117253Y-8703008D01*
X11117253Y-8703008D02*
X11107729Y-8712531D01*
X11107729Y-8712531D02*
X11088682Y-8741103D01*
X11088682Y-8741103D02*
X11079158Y-8779198D01*
X11079158Y-8779198D02*
X11079158Y-8855389D01*
X11079158Y-8855389D02*
X11088682Y-8874436D01*
X11088682Y-8874436D02*
X11098206Y-8883960D01*
X11098206Y-8883960D02*
X11117253Y-8893484D01*
X11117253Y-8893484D02*
X11155349Y-8893484D01*
X11155349Y-8893484D02*
X11174396Y-8883960D01*
X11174396Y-8883960D02*
X11183920Y-8874436D01*
X11183920Y-8874436D02*
X11193444Y-8855389D01*
X11193444Y-8855389D02*
X11193444Y-8807770D01*
X11193444Y-8807770D02*
X11183920Y-8788722D01*
X11183920Y-8788722D02*
X11174396Y-8779198D01*
X11174396Y-8779198D02*
X11155349Y-8769674D01*
X11155349Y-8769674D02*
X11117253Y-8769674D01*
X11117253Y-8769674D02*
X11098206Y-8779198D01*
X11098206Y-8779198D02*
X11088682Y-8788722D01*
X11088682Y-8788722D02*
X11079158Y-8807770D01*
X11269634Y-8693484D02*
X11269634Y-8731579D01*
X11345825Y-8693484D02*
X11345825Y-8731579D01*
X11641063Y-8969674D02*
X11631539Y-8960150D01*
X11631539Y-8960150D02*
X11612491Y-8931579D01*
X11612491Y-8931579D02*
X11602968Y-8912531D01*
X11602968Y-8912531D02*
X11593444Y-8883960D01*
X11593444Y-8883960D02*
X11583920Y-8836341D01*
X11583920Y-8836341D02*
X11583920Y-8798246D01*
X11583920Y-8798246D02*
X11593444Y-8750627D01*
X11593444Y-8750627D02*
X11602968Y-8722055D01*
X11602968Y-8722055D02*
X11612491Y-8703008D01*
X11612491Y-8703008D02*
X11631539Y-8674436D01*
X11631539Y-8674436D02*
X11641063Y-8664912D01*
X11707729Y-8712531D02*
X11717253Y-8703008D01*
X11717253Y-8703008D02*
X11736301Y-8693484D01*
X11736301Y-8693484D02*
X11783920Y-8693484D01*
X11783920Y-8693484D02*
X11802968Y-8703008D01*
X11802968Y-8703008D02*
X11812491Y-8712531D01*
X11812491Y-8712531D02*
X11822015Y-8731579D01*
X11822015Y-8731579D02*
X11822015Y-8750627D01*
X11822015Y-8750627D02*
X11812491Y-8779198D01*
X11812491Y-8779198D02*
X11698206Y-8893484D01*
X11698206Y-8893484D02*
X11822015Y-8893484D01*
X12060110Y-8893484D02*
X12060110Y-8693484D01*
X12145825Y-8893484D02*
X12145825Y-8788722D01*
X12145825Y-8788722D02*
X12136301Y-8769674D01*
X12136301Y-8769674D02*
X12117253Y-8760150D01*
X12117253Y-8760150D02*
X12088682Y-8760150D01*
X12088682Y-8760150D02*
X12069634Y-8769674D01*
X12069634Y-8769674D02*
X12060110Y-8779198D01*
X12269634Y-8893484D02*
X12250587Y-8883960D01*
X12250587Y-8883960D02*
X12241063Y-8874436D01*
X12241063Y-8874436D02*
X12231539Y-8855389D01*
X12231539Y-8855389D02*
X12231539Y-8798246D01*
X12231539Y-8798246D02*
X12241063Y-8779198D01*
X12241063Y-8779198D02*
X12250587Y-8769674D01*
X12250587Y-8769674D02*
X12269634Y-8760150D01*
X12269634Y-8760150D02*
X12298206Y-8760150D01*
X12298206Y-8760150D02*
X12317253Y-8769674D01*
X12317253Y-8769674D02*
X12326777Y-8779198D01*
X12326777Y-8779198D02*
X12336301Y-8798246D01*
X12336301Y-8798246D02*
X12336301Y-8855389D01*
X12336301Y-8855389D02*
X12326777Y-8874436D01*
X12326777Y-8874436D02*
X12317253Y-8883960D01*
X12317253Y-8883960D02*
X12298206Y-8893484D01*
X12298206Y-8893484D02*
X12269634Y-8893484D01*
X12450587Y-8893484D02*
X12431539Y-8883960D01*
X12431539Y-8883960D02*
X12422015Y-8864912D01*
X12422015Y-8864912D02*
X12422015Y-8693484D01*
X12602968Y-8883960D02*
X12583920Y-8893484D01*
X12583920Y-8893484D02*
X12545825Y-8893484D01*
X12545825Y-8893484D02*
X12526777Y-8883960D01*
X12526777Y-8883960D02*
X12517253Y-8864912D01*
X12517253Y-8864912D02*
X12517253Y-8788722D01*
X12517253Y-8788722D02*
X12526777Y-8769674D01*
X12526777Y-8769674D02*
X12545825Y-8760150D01*
X12545825Y-8760150D02*
X12583920Y-8760150D01*
X12583920Y-8760150D02*
X12602968Y-8769674D01*
X12602968Y-8769674D02*
X12612491Y-8788722D01*
X12612491Y-8788722D02*
X12612491Y-8807770D01*
X12612491Y-8807770D02*
X12517253Y-8826817D01*
X12688682Y-8883960D02*
X12707730Y-8893484D01*
X12707730Y-8893484D02*
X12745825Y-8893484D01*
X12745825Y-8893484D02*
X12764872Y-8883960D01*
X12764872Y-8883960D02*
X12774396Y-8864912D01*
X12774396Y-8864912D02*
X12774396Y-8855389D01*
X12774396Y-8855389D02*
X12764872Y-8836341D01*
X12764872Y-8836341D02*
X12745825Y-8826817D01*
X12745825Y-8826817D02*
X12717253Y-8826817D01*
X12717253Y-8826817D02*
X12698206Y-8817293D01*
X12698206Y-8817293D02*
X12688682Y-8798246D01*
X12688682Y-8798246D02*
X12688682Y-8788722D01*
X12688682Y-8788722D02*
X12698206Y-8769674D01*
X12698206Y-8769674D02*
X12717253Y-8760150D01*
X12717253Y-8760150D02*
X12745825Y-8760150D01*
X12745825Y-8760150D02*
X12764872Y-8769674D01*
X12841063Y-8969674D02*
X12850587Y-8960150D01*
X12850587Y-8960150D02*
X12869634Y-8931579D01*
X12869634Y-8931579D02*
X12879158Y-8912531D01*
X12879158Y-8912531D02*
X12888682Y-8883960D01*
X12888682Y-8883960D02*
X12898206Y-8836341D01*
X12898206Y-8836341D02*
X12898206Y-8798246D01*
X12898206Y-8798246D02*
X12888682Y-8750627D01*
X12888682Y-8750627D02*
X12879158Y-8722055D01*
X12879158Y-8722055D02*
X12869634Y-8703008D01*
X12869634Y-8703008D02*
X12850587Y-8674436D01*
X12850587Y-8674436D02*
X12841063Y-8664912D01*
D14*
X8026000Y-9026000D02*
X8026000Y-9106000D01*
X7986000Y-9066000D02*
X8066000Y-9066000D01*
D11*
X8364872Y-8957484D02*
X8383920Y-8957484D01*
X8383920Y-8957484D02*
X8402967Y-8967008D01*
X8402967Y-8967008D02*
X8412491Y-8976531D01*
X8412491Y-8976531D02*
X8422015Y-8995579D01*
X8422015Y-8995579D02*
X8431539Y-9033674D01*
X8431539Y-9033674D02*
X8431539Y-9081293D01*
X8431539Y-9081293D02*
X8422015Y-9119389D01*
X8422015Y-9119389D02*
X8412491Y-9138436D01*
X8412491Y-9138436D02*
X8402967Y-9147960D01*
X8402967Y-9147960D02*
X8383920Y-9157484D01*
X8383920Y-9157484D02*
X8364872Y-9157484D01*
X8364872Y-9157484D02*
X8345824Y-9147960D01*
X8345824Y-9147960D02*
X8336301Y-9138436D01*
X8336301Y-9138436D02*
X8326777Y-9119389D01*
X8326777Y-9119389D02*
X8317253Y-9081293D01*
X8317253Y-9081293D02*
X8317253Y-9033674D01*
X8317253Y-9033674D02*
X8326777Y-8995579D01*
X8326777Y-8995579D02*
X8336301Y-8976531D01*
X8336301Y-8976531D02*
X8345824Y-8967008D01*
X8345824Y-8967008D02*
X8364872Y-8957484D01*
X8517253Y-9138436D02*
X8526777Y-9147960D01*
X8526777Y-9147960D02*
X8517253Y-9157484D01*
X8517253Y-9157484D02*
X8507729Y-9147960D01*
X8507729Y-9147960D02*
X8517253Y-9138436D01*
X8517253Y-9138436D02*
X8517253Y-9157484D01*
X8641063Y-9043198D02*
X8622015Y-9033674D01*
X8622015Y-9033674D02*
X8612491Y-9024150D01*
X8612491Y-9024150D02*
X8602967Y-9005103D01*
X8602967Y-9005103D02*
X8602967Y-8995579D01*
X8602967Y-8995579D02*
X8612491Y-8976531D01*
X8612491Y-8976531D02*
X8622015Y-8967008D01*
X8622015Y-8967008D02*
X8641063Y-8957484D01*
X8641063Y-8957484D02*
X8679158Y-8957484D01*
X8679158Y-8957484D02*
X8698205Y-8967008D01*
X8698205Y-8967008D02*
X8707729Y-8976531D01*
X8707729Y-8976531D02*
X8717253Y-8995579D01*
X8717253Y-8995579D02*
X8717253Y-9005103D01*
X8717253Y-9005103D02*
X8707729Y-9024150D01*
X8707729Y-9024150D02*
X8698205Y-9033674D01*
X8698205Y-9033674D02*
X8679158Y-9043198D01*
X8679158Y-9043198D02*
X8641063Y-9043198D01*
X8641063Y-9043198D02*
X8622015Y-9052722D01*
X8622015Y-9052722D02*
X8612491Y-9062246D01*
X8612491Y-9062246D02*
X8602967Y-9081293D01*
X8602967Y-9081293D02*
X8602967Y-9119389D01*
X8602967Y-9119389D02*
X8612491Y-9138436D01*
X8612491Y-9138436D02*
X8622015Y-9147960D01*
X8622015Y-9147960D02*
X8641063Y-9157484D01*
X8641063Y-9157484D02*
X8679158Y-9157484D01*
X8679158Y-9157484D02*
X8698205Y-9147960D01*
X8698205Y-9147960D02*
X8707729Y-9138436D01*
X8707729Y-9138436D02*
X8717253Y-9119389D01*
X8717253Y-9119389D02*
X8717253Y-9081293D01*
X8717253Y-9081293D02*
X8707729Y-9062246D01*
X8707729Y-9062246D02*
X8698205Y-9052722D01*
X8698205Y-9052722D02*
X8679158Y-9043198D01*
X8841063Y-8957484D02*
X8860110Y-8957484D01*
X8860110Y-8957484D02*
X8879158Y-8967008D01*
X8879158Y-8967008D02*
X8888682Y-8976531D01*
X8888682Y-8976531D02*
X8898205Y-8995579D01*
X8898205Y-8995579D02*
X8907729Y-9033674D01*
X8907729Y-9033674D02*
X8907729Y-9081293D01*
X8907729Y-9081293D02*
X8898205Y-9119389D01*
X8898205Y-9119389D02*
X8888682Y-9138436D01*
X8888682Y-9138436D02*
X8879158Y-9147960D01*
X8879158Y-9147960D02*
X8860110Y-9157484D01*
X8860110Y-9157484D02*
X8841063Y-9157484D01*
X8841063Y-9157484D02*
X8822015Y-9147960D01*
X8822015Y-9147960D02*
X8812491Y-9138436D01*
X8812491Y-9138436D02*
X8802967Y-9119389D01*
X8802967Y-9119389D02*
X8793444Y-9081293D01*
X8793444Y-9081293D02*
X8793444Y-9033674D01*
X8793444Y-9033674D02*
X8802967Y-8995579D01*
X8802967Y-8995579D02*
X8812491Y-8976531D01*
X8812491Y-8976531D02*
X8822015Y-8967008D01*
X8822015Y-8967008D02*
X8841063Y-8957484D01*
X9031539Y-8957484D02*
X9050586Y-8957484D01*
X9050586Y-8957484D02*
X9069634Y-8967008D01*
X9069634Y-8967008D02*
X9079158Y-8976531D01*
X9079158Y-8976531D02*
X9088682Y-8995579D01*
X9088682Y-8995579D02*
X9098205Y-9033674D01*
X9098205Y-9033674D02*
X9098205Y-9081293D01*
X9098205Y-9081293D02*
X9088682Y-9119389D01*
X9088682Y-9119389D02*
X9079158Y-9138436D01*
X9079158Y-9138436D02*
X9069634Y-9147960D01*
X9069634Y-9147960D02*
X9050586Y-9157484D01*
X9050586Y-9157484D02*
X9031539Y-9157484D01*
X9031539Y-9157484D02*
X9012491Y-9147960D01*
X9012491Y-9147960D02*
X9002967Y-9138436D01*
X9002967Y-9138436D02*
X8993444Y-9119389D01*
X8993444Y-9119389D02*
X8983920Y-9081293D01*
X8983920Y-9081293D02*
X8983920Y-9033674D01*
X8983920Y-9033674D02*
X8993444Y-8995579D01*
X8993444Y-8995579D02*
X9002967Y-8976531D01*
X9002967Y-8976531D02*
X9012491Y-8967008D01*
X9012491Y-8967008D02*
X9031539Y-8957484D01*
X9183920Y-9157484D02*
X9183920Y-9024150D01*
X9183920Y-9043198D02*
X9193444Y-9033674D01*
X9193444Y-9033674D02*
X9212491Y-9024150D01*
X9212491Y-9024150D02*
X9241063Y-9024150D01*
X9241063Y-9024150D02*
X9260110Y-9033674D01*
X9260110Y-9033674D02*
X9269634Y-9052722D01*
X9269634Y-9052722D02*
X9269634Y-9157484D01*
X9269634Y-9052722D02*
X9279158Y-9033674D01*
X9279158Y-9033674D02*
X9298205Y-9024150D01*
X9298205Y-9024150D02*
X9326777Y-9024150D01*
X9326777Y-9024150D02*
X9345825Y-9033674D01*
X9345825Y-9033674D02*
X9355348Y-9052722D01*
X9355348Y-9052722D02*
X9355348Y-9157484D01*
X9450586Y-9157484D02*
X9450586Y-9024150D01*
X9450586Y-9043198D02*
X9460110Y-9033674D01*
X9460110Y-9033674D02*
X9479158Y-9024150D01*
X9479158Y-9024150D02*
X9507729Y-9024150D01*
X9507729Y-9024150D02*
X9526777Y-9033674D01*
X9526777Y-9033674D02*
X9536301Y-9052722D01*
X9536301Y-9052722D02*
X9536301Y-9157484D01*
X9536301Y-9052722D02*
X9545825Y-9033674D01*
X9545825Y-9033674D02*
X9564872Y-9024150D01*
X9564872Y-9024150D02*
X9593444Y-9024150D01*
X9593444Y-9024150D02*
X9612491Y-9033674D01*
X9612491Y-9033674D02*
X9622015Y-9052722D01*
X9622015Y-9052722D02*
X9622015Y-9157484D01*
X10012491Y-8947960D02*
X9841063Y-9205103D01*
X10269634Y-8957484D02*
X10288682Y-8957484D01*
X10288682Y-8957484D02*
X10307729Y-8967008D01*
X10307729Y-8967008D02*
X10317253Y-8976531D01*
X10317253Y-8976531D02*
X10326777Y-8995579D01*
X10326777Y-8995579D02*
X10336301Y-9033674D01*
X10336301Y-9033674D02*
X10336301Y-9081293D01*
X10336301Y-9081293D02*
X10326777Y-9119389D01*
X10326777Y-9119389D02*
X10317253Y-9138436D01*
X10317253Y-9138436D02*
X10307729Y-9147960D01*
X10307729Y-9147960D02*
X10288682Y-9157484D01*
X10288682Y-9157484D02*
X10269634Y-9157484D01*
X10269634Y-9157484D02*
X10250587Y-9147960D01*
X10250587Y-9147960D02*
X10241063Y-9138436D01*
X10241063Y-9138436D02*
X10231539Y-9119389D01*
X10231539Y-9119389D02*
X10222015Y-9081293D01*
X10222015Y-9081293D02*
X10222015Y-9033674D01*
X10222015Y-9033674D02*
X10231539Y-8995579D01*
X10231539Y-8995579D02*
X10241063Y-8976531D01*
X10241063Y-8976531D02*
X10250587Y-8967008D01*
X10250587Y-8967008D02*
X10269634Y-8957484D01*
X10422015Y-9138436D02*
X10431539Y-9147960D01*
X10431539Y-9147960D02*
X10422015Y-9157484D01*
X10422015Y-9157484D02*
X10412491Y-9147960D01*
X10412491Y-9147960D02*
X10422015Y-9138436D01*
X10422015Y-9138436D02*
X10422015Y-9157484D01*
X10555348Y-8957484D02*
X10574396Y-8957484D01*
X10574396Y-8957484D02*
X10593444Y-8967008D01*
X10593444Y-8967008D02*
X10602968Y-8976531D01*
X10602968Y-8976531D02*
X10612491Y-8995579D01*
X10612491Y-8995579D02*
X10622015Y-9033674D01*
X10622015Y-9033674D02*
X10622015Y-9081293D01*
X10622015Y-9081293D02*
X10612491Y-9119389D01*
X10612491Y-9119389D02*
X10602968Y-9138436D01*
X10602968Y-9138436D02*
X10593444Y-9147960D01*
X10593444Y-9147960D02*
X10574396Y-9157484D01*
X10574396Y-9157484D02*
X10555348Y-9157484D01*
X10555348Y-9157484D02*
X10536301Y-9147960D01*
X10536301Y-9147960D02*
X10526777Y-9138436D01*
X10526777Y-9138436D02*
X10517253Y-9119389D01*
X10517253Y-9119389D02*
X10507729Y-9081293D01*
X10507729Y-9081293D02*
X10507729Y-9033674D01*
X10507729Y-9033674D02*
X10517253Y-8995579D01*
X10517253Y-8995579D02*
X10526777Y-8976531D01*
X10526777Y-8976531D02*
X10536301Y-8967008D01*
X10536301Y-8967008D02*
X10555348Y-8957484D01*
X10688682Y-8957484D02*
X10812491Y-8957484D01*
X10812491Y-8957484D02*
X10745825Y-9033674D01*
X10745825Y-9033674D02*
X10774396Y-9033674D01*
X10774396Y-9033674D02*
X10793444Y-9043198D01*
X10793444Y-9043198D02*
X10802968Y-9052722D01*
X10802968Y-9052722D02*
X10812491Y-9071770D01*
X10812491Y-9071770D02*
X10812491Y-9119389D01*
X10812491Y-9119389D02*
X10802968Y-9138436D01*
X10802968Y-9138436D02*
X10793444Y-9147960D01*
X10793444Y-9147960D02*
X10774396Y-9157484D01*
X10774396Y-9157484D02*
X10717253Y-9157484D01*
X10717253Y-9157484D02*
X10698206Y-9147960D01*
X10698206Y-9147960D02*
X10688682Y-9138436D01*
X11002968Y-9157484D02*
X10888682Y-9157484D01*
X10945825Y-9157484D02*
X10945825Y-8957484D01*
X10945825Y-8957484D02*
X10926777Y-8986055D01*
X10926777Y-8986055D02*
X10907729Y-9005103D01*
X10907729Y-9005103D02*
X10888682Y-9014627D01*
X11183920Y-8957484D02*
X11088682Y-8957484D01*
X11088682Y-8957484D02*
X11079158Y-9052722D01*
X11079158Y-9052722D02*
X11088682Y-9043198D01*
X11088682Y-9043198D02*
X11107729Y-9033674D01*
X11107729Y-9033674D02*
X11155349Y-9033674D01*
X11155349Y-9033674D02*
X11174396Y-9043198D01*
X11174396Y-9043198D02*
X11183920Y-9052722D01*
X11183920Y-9052722D02*
X11193444Y-9071770D01*
X11193444Y-9071770D02*
X11193444Y-9119389D01*
X11193444Y-9119389D02*
X11183920Y-9138436D01*
X11183920Y-9138436D02*
X11174396Y-9147960D01*
X11174396Y-9147960D02*
X11155349Y-9157484D01*
X11155349Y-9157484D02*
X11107729Y-9157484D01*
X11107729Y-9157484D02*
X11088682Y-9147960D01*
X11088682Y-9147960D02*
X11079158Y-9138436D01*
X11269634Y-8957484D02*
X11269634Y-8995579D01*
X11345825Y-8957484D02*
X11345825Y-8995579D01*
X11641063Y-9233674D02*
X11631539Y-9224150D01*
X11631539Y-9224150D02*
X11612491Y-9195579D01*
X11612491Y-9195579D02*
X11602968Y-9176531D01*
X11602968Y-9176531D02*
X11593444Y-9147960D01*
X11593444Y-9147960D02*
X11583920Y-9100341D01*
X11583920Y-9100341D02*
X11583920Y-9062246D01*
X11583920Y-9062246D02*
X11593444Y-9014627D01*
X11593444Y-9014627D02*
X11602968Y-8986055D01*
X11602968Y-8986055D02*
X11612491Y-8967008D01*
X11612491Y-8967008D02*
X11631539Y-8938436D01*
X11631539Y-8938436D02*
X11641063Y-8928912D01*
X11698206Y-8957484D02*
X11822015Y-8957484D01*
X11822015Y-8957484D02*
X11755348Y-9033674D01*
X11755348Y-9033674D02*
X11783920Y-9033674D01*
X11783920Y-9033674D02*
X11802968Y-9043198D01*
X11802968Y-9043198D02*
X11812491Y-9052722D01*
X11812491Y-9052722D02*
X11822015Y-9071770D01*
X11822015Y-9071770D02*
X11822015Y-9119389D01*
X11822015Y-9119389D02*
X11812491Y-9138436D01*
X11812491Y-9138436D02*
X11802968Y-9147960D01*
X11802968Y-9147960D02*
X11783920Y-9157484D01*
X11783920Y-9157484D02*
X11726777Y-9157484D01*
X11726777Y-9157484D02*
X11707729Y-9147960D01*
X11707729Y-9147960D02*
X11698206Y-9138436D01*
X11945825Y-8957484D02*
X11964872Y-8957484D01*
X11964872Y-8957484D02*
X11983920Y-8967008D01*
X11983920Y-8967008D02*
X11993444Y-8976531D01*
X11993444Y-8976531D02*
X12002968Y-8995579D01*
X12002968Y-8995579D02*
X12012491Y-9033674D01*
X12012491Y-9033674D02*
X12012491Y-9081293D01*
X12012491Y-9081293D02*
X12002968Y-9119389D01*
X12002968Y-9119389D02*
X11993444Y-9138436D01*
X11993444Y-9138436D02*
X11983920Y-9147960D01*
X11983920Y-9147960D02*
X11964872Y-9157484D01*
X11964872Y-9157484D02*
X11945825Y-9157484D01*
X11945825Y-9157484D02*
X11926777Y-9147960D01*
X11926777Y-9147960D02*
X11917253Y-9138436D01*
X11917253Y-9138436D02*
X11907729Y-9119389D01*
X11907729Y-9119389D02*
X11898206Y-9081293D01*
X11898206Y-9081293D02*
X11898206Y-9033674D01*
X11898206Y-9033674D02*
X11907729Y-8995579D01*
X11907729Y-8995579D02*
X11917253Y-8976531D01*
X11917253Y-8976531D02*
X11926777Y-8967008D01*
X11926777Y-8967008D02*
X11945825Y-8957484D01*
X12250587Y-9157484D02*
X12250587Y-8957484D01*
X12336301Y-9157484D02*
X12336301Y-9052722D01*
X12336301Y-9052722D02*
X12326777Y-9033674D01*
X12326777Y-9033674D02*
X12307730Y-9024150D01*
X12307730Y-9024150D02*
X12279158Y-9024150D01*
X12279158Y-9024150D02*
X12260110Y-9033674D01*
X12260110Y-9033674D02*
X12250587Y-9043198D01*
X12460110Y-9157484D02*
X12441063Y-9147960D01*
X12441063Y-9147960D02*
X12431539Y-9138436D01*
X12431539Y-9138436D02*
X12422015Y-9119389D01*
X12422015Y-9119389D02*
X12422015Y-9062246D01*
X12422015Y-9062246D02*
X12431539Y-9043198D01*
X12431539Y-9043198D02*
X12441063Y-9033674D01*
X12441063Y-9033674D02*
X12460110Y-9024150D01*
X12460110Y-9024150D02*
X12488682Y-9024150D01*
X12488682Y-9024150D02*
X12507730Y-9033674D01*
X12507730Y-9033674D02*
X12517253Y-9043198D01*
X12517253Y-9043198D02*
X12526777Y-9062246D01*
X12526777Y-9062246D02*
X12526777Y-9119389D01*
X12526777Y-9119389D02*
X12517253Y-9138436D01*
X12517253Y-9138436D02*
X12507730Y-9147960D01*
X12507730Y-9147960D02*
X12488682Y-9157484D01*
X12488682Y-9157484D02*
X12460110Y-9157484D01*
X12641063Y-9157484D02*
X12622015Y-9147960D01*
X12622015Y-9147960D02*
X12612491Y-9128912D01*
X12612491Y-9128912D02*
X12612491Y-8957484D01*
X12793444Y-9147960D02*
X12774396Y-9157484D01*
X12774396Y-9157484D02*
X12736301Y-9157484D01*
X12736301Y-9157484D02*
X12717253Y-9147960D01*
X12717253Y-9147960D02*
X12707730Y-9128912D01*
X12707730Y-9128912D02*
X12707730Y-9052722D01*
X12707730Y-9052722D02*
X12717253Y-9033674D01*
X12717253Y-9033674D02*
X12736301Y-9024150D01*
X12736301Y-9024150D02*
X12774396Y-9024150D01*
X12774396Y-9024150D02*
X12793444Y-9033674D01*
X12793444Y-9033674D02*
X12802968Y-9052722D01*
X12802968Y-9052722D02*
X12802968Y-9071770D01*
X12802968Y-9071770D02*
X12707730Y-9090817D01*
X12879158Y-9147960D02*
X12898206Y-9157484D01*
X12898206Y-9157484D02*
X12936301Y-9157484D01*
X12936301Y-9157484D02*
X12955349Y-9147960D01*
X12955349Y-9147960D02*
X12964872Y-9128912D01*
X12964872Y-9128912D02*
X12964872Y-9119389D01*
X12964872Y-9119389D02*
X12955349Y-9100341D01*
X12955349Y-9100341D02*
X12936301Y-9090817D01*
X12936301Y-9090817D02*
X12907730Y-9090817D01*
X12907730Y-9090817D02*
X12888682Y-9081293D01*
X12888682Y-9081293D02*
X12879158Y-9062246D01*
X12879158Y-9062246D02*
X12879158Y-9052722D01*
X12879158Y-9052722D02*
X12888682Y-9033674D01*
X12888682Y-9033674D02*
X12907730Y-9024150D01*
X12907730Y-9024150D02*
X12936301Y-9024150D01*
X12936301Y-9024150D02*
X12955349Y-9033674D01*
X13031539Y-9233674D02*
X13041063Y-9224150D01*
X13041063Y-9224150D02*
X13060111Y-9195579D01*
X13060111Y-9195579D02*
X13069634Y-9176531D01*
X13069634Y-9176531D02*
X13079158Y-9147960D01*
X13079158Y-9147960D02*
X13088682Y-9100341D01*
X13088682Y-9100341D02*
X13088682Y-9062246D01*
X13088682Y-9062246D02*
X13079158Y-9014627D01*
X13079158Y-9014627D02*
X13069634Y-8986055D01*
X13069634Y-8986055D02*
X13060111Y-8967008D01*
X13060111Y-8967008D02*
X13041063Y-8938436D01*
X13041063Y-8938436D02*
X13031539Y-8928912D01*
D15*
X8052820Y-9361820D02*
X8052820Y-9298180D01*
X7989180Y-9298180D01*
X7989180Y-9361820D01*
X8052820Y-9361820D01*
D11*
X8364872Y-9221484D02*
X8383920Y-9221484D01*
X8383920Y-9221484D02*
X8402967Y-9231008D01*
X8402967Y-9231008D02*
X8412491Y-9240531D01*
X8412491Y-9240531D02*
X8422015Y-9259579D01*
X8422015Y-9259579D02*
X8431539Y-9297674D01*
X8431539Y-9297674D02*
X8431539Y-9345293D01*
X8431539Y-9345293D02*
X8422015Y-9383389D01*
X8422015Y-9383389D02*
X8412491Y-9402436D01*
X8412491Y-9402436D02*
X8402967Y-9411960D01*
X8402967Y-9411960D02*
X8383920Y-9421484D01*
X8383920Y-9421484D02*
X8364872Y-9421484D01*
X8364872Y-9421484D02*
X8345824Y-9411960D01*
X8345824Y-9411960D02*
X8336301Y-9402436D01*
X8336301Y-9402436D02*
X8326777Y-9383389D01*
X8326777Y-9383389D02*
X8317253Y-9345293D01*
X8317253Y-9345293D02*
X8317253Y-9297674D01*
X8317253Y-9297674D02*
X8326777Y-9259579D01*
X8326777Y-9259579D02*
X8336301Y-9240531D01*
X8336301Y-9240531D02*
X8345824Y-9231008D01*
X8345824Y-9231008D02*
X8364872Y-9221484D01*
X8517253Y-9402436D02*
X8526777Y-9411960D01*
X8526777Y-9411960D02*
X8517253Y-9421484D01*
X8517253Y-9421484D02*
X8507729Y-9411960D01*
X8507729Y-9411960D02*
X8517253Y-9402436D01*
X8517253Y-9402436D02*
X8517253Y-9421484D01*
X8622015Y-9421484D02*
X8660110Y-9421484D01*
X8660110Y-9421484D02*
X8679158Y-9411960D01*
X8679158Y-9411960D02*
X8688682Y-9402436D01*
X8688682Y-9402436D02*
X8707729Y-9373865D01*
X8707729Y-9373865D02*
X8717253Y-9335770D01*
X8717253Y-9335770D02*
X8717253Y-9259579D01*
X8717253Y-9259579D02*
X8707729Y-9240531D01*
X8707729Y-9240531D02*
X8698205Y-9231008D01*
X8698205Y-9231008D02*
X8679158Y-9221484D01*
X8679158Y-9221484D02*
X8641063Y-9221484D01*
X8641063Y-9221484D02*
X8622015Y-9231008D01*
X8622015Y-9231008D02*
X8612491Y-9240531D01*
X8612491Y-9240531D02*
X8602967Y-9259579D01*
X8602967Y-9259579D02*
X8602967Y-9307198D01*
X8602967Y-9307198D02*
X8612491Y-9326246D01*
X8612491Y-9326246D02*
X8622015Y-9335770D01*
X8622015Y-9335770D02*
X8641063Y-9345293D01*
X8641063Y-9345293D02*
X8679158Y-9345293D01*
X8679158Y-9345293D02*
X8698205Y-9335770D01*
X8698205Y-9335770D02*
X8707729Y-9326246D01*
X8707729Y-9326246D02*
X8717253Y-9307198D01*
X8841063Y-9221484D02*
X8860110Y-9221484D01*
X8860110Y-9221484D02*
X8879158Y-9231008D01*
X8879158Y-9231008D02*
X8888682Y-9240531D01*
X8888682Y-9240531D02*
X8898205Y-9259579D01*
X8898205Y-9259579D02*
X8907729Y-9297674D01*
X8907729Y-9297674D02*
X8907729Y-9345293D01*
X8907729Y-9345293D02*
X8898205Y-9383389D01*
X8898205Y-9383389D02*
X8888682Y-9402436D01*
X8888682Y-9402436D02*
X8879158Y-9411960D01*
X8879158Y-9411960D02*
X8860110Y-9421484D01*
X8860110Y-9421484D02*
X8841063Y-9421484D01*
X8841063Y-9421484D02*
X8822015Y-9411960D01*
X8822015Y-9411960D02*
X8812491Y-9402436D01*
X8812491Y-9402436D02*
X8802967Y-9383389D01*
X8802967Y-9383389D02*
X8793444Y-9345293D01*
X8793444Y-9345293D02*
X8793444Y-9297674D01*
X8793444Y-9297674D02*
X8802967Y-9259579D01*
X8802967Y-9259579D02*
X8812491Y-9240531D01*
X8812491Y-9240531D02*
X8822015Y-9231008D01*
X8822015Y-9231008D02*
X8841063Y-9221484D01*
X9031539Y-9221484D02*
X9050586Y-9221484D01*
X9050586Y-9221484D02*
X9069634Y-9231008D01*
X9069634Y-9231008D02*
X9079158Y-9240531D01*
X9079158Y-9240531D02*
X9088682Y-9259579D01*
X9088682Y-9259579D02*
X9098205Y-9297674D01*
X9098205Y-9297674D02*
X9098205Y-9345293D01*
X9098205Y-9345293D02*
X9088682Y-9383389D01*
X9088682Y-9383389D02*
X9079158Y-9402436D01*
X9079158Y-9402436D02*
X9069634Y-9411960D01*
X9069634Y-9411960D02*
X9050586Y-9421484D01*
X9050586Y-9421484D02*
X9031539Y-9421484D01*
X9031539Y-9421484D02*
X9012491Y-9411960D01*
X9012491Y-9411960D02*
X9002967Y-9402436D01*
X9002967Y-9402436D02*
X8993444Y-9383389D01*
X8993444Y-9383389D02*
X8983920Y-9345293D01*
X8983920Y-9345293D02*
X8983920Y-9297674D01*
X8983920Y-9297674D02*
X8993444Y-9259579D01*
X8993444Y-9259579D02*
X9002967Y-9240531D01*
X9002967Y-9240531D02*
X9012491Y-9231008D01*
X9012491Y-9231008D02*
X9031539Y-9221484D01*
X9183920Y-9421484D02*
X9183920Y-9288150D01*
X9183920Y-9307198D02*
X9193444Y-9297674D01*
X9193444Y-9297674D02*
X9212491Y-9288150D01*
X9212491Y-9288150D02*
X9241063Y-9288150D01*
X9241063Y-9288150D02*
X9260110Y-9297674D01*
X9260110Y-9297674D02*
X9269634Y-9316722D01*
X9269634Y-9316722D02*
X9269634Y-9421484D01*
X9269634Y-9316722D02*
X9279158Y-9297674D01*
X9279158Y-9297674D02*
X9298205Y-9288150D01*
X9298205Y-9288150D02*
X9326777Y-9288150D01*
X9326777Y-9288150D02*
X9345825Y-9297674D01*
X9345825Y-9297674D02*
X9355348Y-9316722D01*
X9355348Y-9316722D02*
X9355348Y-9421484D01*
X9450586Y-9421484D02*
X9450586Y-9288150D01*
X9450586Y-9307198D02*
X9460110Y-9297674D01*
X9460110Y-9297674D02*
X9479158Y-9288150D01*
X9479158Y-9288150D02*
X9507729Y-9288150D01*
X9507729Y-9288150D02*
X9526777Y-9297674D01*
X9526777Y-9297674D02*
X9536301Y-9316722D01*
X9536301Y-9316722D02*
X9536301Y-9421484D01*
X9536301Y-9316722D02*
X9545825Y-9297674D01*
X9545825Y-9297674D02*
X9564872Y-9288150D01*
X9564872Y-9288150D02*
X9593444Y-9288150D01*
X9593444Y-9288150D02*
X9612491Y-9297674D01*
X9612491Y-9297674D02*
X9622015Y-9316722D01*
X9622015Y-9316722D02*
X9622015Y-9421484D01*
X10012491Y-9211960D02*
X9841063Y-9469103D01*
X10269634Y-9221484D02*
X10288682Y-9221484D01*
X10288682Y-9221484D02*
X10307729Y-9231008D01*
X10307729Y-9231008D02*
X10317253Y-9240531D01*
X10317253Y-9240531D02*
X10326777Y-9259579D01*
X10326777Y-9259579D02*
X10336301Y-9297674D01*
X10336301Y-9297674D02*
X10336301Y-9345293D01*
X10336301Y-9345293D02*
X10326777Y-9383389D01*
X10326777Y-9383389D02*
X10317253Y-9402436D01*
X10317253Y-9402436D02*
X10307729Y-9411960D01*
X10307729Y-9411960D02*
X10288682Y-9421484D01*
X10288682Y-9421484D02*
X10269634Y-9421484D01*
X10269634Y-9421484D02*
X10250587Y-9411960D01*
X10250587Y-9411960D02*
X10241063Y-9402436D01*
X10241063Y-9402436D02*
X10231539Y-9383389D01*
X10231539Y-9383389D02*
X10222015Y-9345293D01*
X10222015Y-9345293D02*
X10222015Y-9297674D01*
X10222015Y-9297674D02*
X10231539Y-9259579D01*
X10231539Y-9259579D02*
X10241063Y-9240531D01*
X10241063Y-9240531D02*
X10250587Y-9231008D01*
X10250587Y-9231008D02*
X10269634Y-9221484D01*
X10422015Y-9402436D02*
X10431539Y-9411960D01*
X10431539Y-9411960D02*
X10422015Y-9421484D01*
X10422015Y-9421484D02*
X10412491Y-9411960D01*
X10412491Y-9411960D02*
X10422015Y-9402436D01*
X10422015Y-9402436D02*
X10422015Y-9421484D01*
X10555348Y-9221484D02*
X10574396Y-9221484D01*
X10574396Y-9221484D02*
X10593444Y-9231008D01*
X10593444Y-9231008D02*
X10602968Y-9240531D01*
X10602968Y-9240531D02*
X10612491Y-9259579D01*
X10612491Y-9259579D02*
X10622015Y-9297674D01*
X10622015Y-9297674D02*
X10622015Y-9345293D01*
X10622015Y-9345293D02*
X10612491Y-9383389D01*
X10612491Y-9383389D02*
X10602968Y-9402436D01*
X10602968Y-9402436D02*
X10593444Y-9411960D01*
X10593444Y-9411960D02*
X10574396Y-9421484D01*
X10574396Y-9421484D02*
X10555348Y-9421484D01*
X10555348Y-9421484D02*
X10536301Y-9411960D01*
X10536301Y-9411960D02*
X10526777Y-9402436D01*
X10526777Y-9402436D02*
X10517253Y-9383389D01*
X10517253Y-9383389D02*
X10507729Y-9345293D01*
X10507729Y-9345293D02*
X10507729Y-9297674D01*
X10507729Y-9297674D02*
X10517253Y-9259579D01*
X10517253Y-9259579D02*
X10526777Y-9240531D01*
X10526777Y-9240531D02*
X10536301Y-9231008D01*
X10536301Y-9231008D02*
X10555348Y-9221484D01*
X10688682Y-9221484D02*
X10812491Y-9221484D01*
X10812491Y-9221484D02*
X10745825Y-9297674D01*
X10745825Y-9297674D02*
X10774396Y-9297674D01*
X10774396Y-9297674D02*
X10793444Y-9307198D01*
X10793444Y-9307198D02*
X10802968Y-9316722D01*
X10802968Y-9316722D02*
X10812491Y-9335770D01*
X10812491Y-9335770D02*
X10812491Y-9383389D01*
X10812491Y-9383389D02*
X10802968Y-9402436D01*
X10802968Y-9402436D02*
X10793444Y-9411960D01*
X10793444Y-9411960D02*
X10774396Y-9421484D01*
X10774396Y-9421484D02*
X10717253Y-9421484D01*
X10717253Y-9421484D02*
X10698206Y-9411960D01*
X10698206Y-9411960D02*
X10688682Y-9402436D01*
X10993444Y-9221484D02*
X10898206Y-9221484D01*
X10898206Y-9221484D02*
X10888682Y-9316722D01*
X10888682Y-9316722D02*
X10898206Y-9307198D01*
X10898206Y-9307198D02*
X10917253Y-9297674D01*
X10917253Y-9297674D02*
X10964872Y-9297674D01*
X10964872Y-9297674D02*
X10983920Y-9307198D01*
X10983920Y-9307198D02*
X10993444Y-9316722D01*
X10993444Y-9316722D02*
X11002968Y-9335770D01*
X11002968Y-9335770D02*
X11002968Y-9383389D01*
X11002968Y-9383389D02*
X10993444Y-9402436D01*
X10993444Y-9402436D02*
X10983920Y-9411960D01*
X10983920Y-9411960D02*
X10964872Y-9421484D01*
X10964872Y-9421484D02*
X10917253Y-9421484D01*
X10917253Y-9421484D02*
X10898206Y-9411960D01*
X10898206Y-9411960D02*
X10888682Y-9402436D01*
X11174396Y-9288150D02*
X11174396Y-9421484D01*
X11126777Y-9211960D02*
X11079158Y-9354817D01*
X11079158Y-9354817D02*
X11202967Y-9354817D01*
X11269634Y-9221484D02*
X11269634Y-9259579D01*
X11345825Y-9221484D02*
X11345825Y-9259579D01*
X11641063Y-9497674D02*
X11631539Y-9488150D01*
X11631539Y-9488150D02*
X11612491Y-9459579D01*
X11612491Y-9459579D02*
X11602968Y-9440531D01*
X11602968Y-9440531D02*
X11593444Y-9411960D01*
X11593444Y-9411960D02*
X11583920Y-9364341D01*
X11583920Y-9364341D02*
X11583920Y-9326246D01*
X11583920Y-9326246D02*
X11593444Y-9278627D01*
X11593444Y-9278627D02*
X11602968Y-9250055D01*
X11602968Y-9250055D02*
X11612491Y-9231008D01*
X11612491Y-9231008D02*
X11631539Y-9202436D01*
X11631539Y-9202436D02*
X11641063Y-9192912D01*
X11707729Y-9240531D02*
X11717253Y-9231008D01*
X11717253Y-9231008D02*
X11736301Y-9221484D01*
X11736301Y-9221484D02*
X11783920Y-9221484D01*
X11783920Y-9221484D02*
X11802968Y-9231008D01*
X11802968Y-9231008D02*
X11812491Y-9240531D01*
X11812491Y-9240531D02*
X11822015Y-9259579D01*
X11822015Y-9259579D02*
X11822015Y-9278627D01*
X11822015Y-9278627D02*
X11812491Y-9307198D01*
X11812491Y-9307198D02*
X11698206Y-9421484D01*
X11698206Y-9421484D02*
X11822015Y-9421484D01*
X12060110Y-9421484D02*
X12060110Y-9221484D01*
X12145825Y-9421484D02*
X12145825Y-9316722D01*
X12145825Y-9316722D02*
X12136301Y-9297674D01*
X12136301Y-9297674D02*
X12117253Y-9288150D01*
X12117253Y-9288150D02*
X12088682Y-9288150D01*
X12088682Y-9288150D02*
X12069634Y-9297674D01*
X12069634Y-9297674D02*
X12060110Y-9307198D01*
X12269634Y-9421484D02*
X12250587Y-9411960D01*
X12250587Y-9411960D02*
X12241063Y-9402436D01*
X12241063Y-9402436D02*
X12231539Y-9383389D01*
X12231539Y-9383389D02*
X12231539Y-9326246D01*
X12231539Y-9326246D02*
X12241063Y-9307198D01*
X12241063Y-9307198D02*
X12250587Y-9297674D01*
X12250587Y-9297674D02*
X12269634Y-9288150D01*
X12269634Y-9288150D02*
X12298206Y-9288150D01*
X12298206Y-9288150D02*
X12317253Y-9297674D01*
X12317253Y-9297674D02*
X12326777Y-9307198D01*
X12326777Y-9307198D02*
X12336301Y-9326246D01*
X12336301Y-9326246D02*
X12336301Y-9383389D01*
X12336301Y-9383389D02*
X12326777Y-9402436D01*
X12326777Y-9402436D02*
X12317253Y-9411960D01*
X12317253Y-9411960D02*
X12298206Y-9421484D01*
X12298206Y-9421484D02*
X12269634Y-9421484D01*
X12450587Y-9421484D02*
X12431539Y-9411960D01*
X12431539Y-9411960D02*
X12422015Y-9392912D01*
X12422015Y-9392912D02*
X12422015Y-9221484D01*
X12602968Y-9411960D02*
X12583920Y-9421484D01*
X12583920Y-9421484D02*
X12545825Y-9421484D01*
X12545825Y-9421484D02*
X12526777Y-9411960D01*
X12526777Y-9411960D02*
X12517253Y-9392912D01*
X12517253Y-9392912D02*
X12517253Y-9316722D01*
X12517253Y-9316722D02*
X12526777Y-9297674D01*
X12526777Y-9297674D02*
X12545825Y-9288150D01*
X12545825Y-9288150D02*
X12583920Y-9288150D01*
X12583920Y-9288150D02*
X12602968Y-9297674D01*
X12602968Y-9297674D02*
X12612491Y-9316722D01*
X12612491Y-9316722D02*
X12612491Y-9335770D01*
X12612491Y-9335770D02*
X12517253Y-9354817D01*
X12688682Y-9411960D02*
X12707730Y-9421484D01*
X12707730Y-9421484D02*
X12745825Y-9421484D01*
X12745825Y-9421484D02*
X12764872Y-9411960D01*
X12764872Y-9411960D02*
X12774396Y-9392912D01*
X12774396Y-9392912D02*
X12774396Y-9383389D01*
X12774396Y-9383389D02*
X12764872Y-9364341D01*
X12764872Y-9364341D02*
X12745825Y-9354817D01*
X12745825Y-9354817D02*
X12717253Y-9354817D01*
X12717253Y-9354817D02*
X12698206Y-9345293D01*
X12698206Y-9345293D02*
X12688682Y-9326246D01*
X12688682Y-9326246D02*
X12688682Y-9316722D01*
X12688682Y-9316722D02*
X12698206Y-9297674D01*
X12698206Y-9297674D02*
X12717253Y-9288150D01*
X12717253Y-9288150D02*
X12745825Y-9288150D01*
X12745825Y-9288150D02*
X12764872Y-9297674D01*
X12841063Y-9497674D02*
X12850587Y-9488150D01*
X12850587Y-9488150D02*
X12869634Y-9459579D01*
X12869634Y-9459579D02*
X12879158Y-9440531D01*
X12879158Y-9440531D02*
X12888682Y-9411960D01*
X12888682Y-9411960D02*
X12898206Y-9364341D01*
X12898206Y-9364341D02*
X12898206Y-9326246D01*
X12898206Y-9326246D02*
X12888682Y-9278627D01*
X12888682Y-9278627D02*
X12879158Y-9250055D01*
X12879158Y-9250055D02*
X12869634Y-9231008D01*
X12869634Y-9231008D02*
X12850587Y-9202436D01*
X12850587Y-9202436D02*
X12841063Y-9192912D01*
D10*
X8016000Y-9644000D02*
X8066000Y-9594000D01*
X8016000Y-9544000D01*
X7966000Y-9594000D01*
X8016000Y-9644000D01*
D11*
X8431539Y-9685484D02*
X8317253Y-9685484D01*
X8374396Y-9685484D02*
X8374396Y-9485484D01*
X8374396Y-9485484D02*
X8355348Y-9514055D01*
X8355348Y-9514055D02*
X8336301Y-9533103D01*
X8336301Y-9533103D02*
X8317253Y-9542627D01*
X8517253Y-9666436D02*
X8526777Y-9675960D01*
X8526777Y-9675960D02*
X8517253Y-9685484D01*
X8517253Y-9685484D02*
X8507729Y-9675960D01*
X8507729Y-9675960D02*
X8517253Y-9666436D01*
X8517253Y-9666436D02*
X8517253Y-9685484D01*
X8650586Y-9485484D02*
X8669634Y-9485484D01*
X8669634Y-9485484D02*
X8688682Y-9495008D01*
X8688682Y-9495008D02*
X8698205Y-9504531D01*
X8698205Y-9504531D02*
X8707729Y-9523579D01*
X8707729Y-9523579D02*
X8717253Y-9561674D01*
X8717253Y-9561674D02*
X8717253Y-9609293D01*
X8717253Y-9609293D02*
X8707729Y-9647389D01*
X8707729Y-9647389D02*
X8698205Y-9666436D01*
X8698205Y-9666436D02*
X8688682Y-9675960D01*
X8688682Y-9675960D02*
X8669634Y-9685484D01*
X8669634Y-9685484D02*
X8650586Y-9685484D01*
X8650586Y-9685484D02*
X8631539Y-9675960D01*
X8631539Y-9675960D02*
X8622015Y-9666436D01*
X8622015Y-9666436D02*
X8612491Y-9647389D01*
X8612491Y-9647389D02*
X8602967Y-9609293D01*
X8602967Y-9609293D02*
X8602967Y-9561674D01*
X8602967Y-9561674D02*
X8612491Y-9523579D01*
X8612491Y-9523579D02*
X8622015Y-9504531D01*
X8622015Y-9504531D02*
X8631539Y-9495008D01*
X8631539Y-9495008D02*
X8650586Y-9485484D01*
X8841063Y-9485484D02*
X8860110Y-9485484D01*
X8860110Y-9485484D02*
X8879158Y-9495008D01*
X8879158Y-9495008D02*
X8888682Y-9504531D01*
X8888682Y-9504531D02*
X8898205Y-9523579D01*
X8898205Y-9523579D02*
X8907729Y-9561674D01*
X8907729Y-9561674D02*
X8907729Y-9609293D01*
X8907729Y-9609293D02*
X8898205Y-9647389D01*
X8898205Y-9647389D02*
X8888682Y-9666436D01*
X8888682Y-9666436D02*
X8879158Y-9675960D01*
X8879158Y-9675960D02*
X8860110Y-9685484D01*
X8860110Y-9685484D02*
X8841063Y-9685484D01*
X8841063Y-9685484D02*
X8822015Y-9675960D01*
X8822015Y-9675960D02*
X8812491Y-9666436D01*
X8812491Y-9666436D02*
X8802967Y-9647389D01*
X8802967Y-9647389D02*
X8793444Y-9609293D01*
X8793444Y-9609293D02*
X8793444Y-9561674D01*
X8793444Y-9561674D02*
X8802967Y-9523579D01*
X8802967Y-9523579D02*
X8812491Y-9504531D01*
X8812491Y-9504531D02*
X8822015Y-9495008D01*
X8822015Y-9495008D02*
X8841063Y-9485484D01*
X9031539Y-9485484D02*
X9050586Y-9485484D01*
X9050586Y-9485484D02*
X9069634Y-9495008D01*
X9069634Y-9495008D02*
X9079158Y-9504531D01*
X9079158Y-9504531D02*
X9088682Y-9523579D01*
X9088682Y-9523579D02*
X9098205Y-9561674D01*
X9098205Y-9561674D02*
X9098205Y-9609293D01*
X9098205Y-9609293D02*
X9088682Y-9647389D01*
X9088682Y-9647389D02*
X9079158Y-9666436D01*
X9079158Y-9666436D02*
X9069634Y-9675960D01*
X9069634Y-9675960D02*
X9050586Y-9685484D01*
X9050586Y-9685484D02*
X9031539Y-9685484D01*
X9031539Y-9685484D02*
X9012491Y-9675960D01*
X9012491Y-9675960D02*
X9002967Y-9666436D01*
X9002967Y-9666436D02*
X8993444Y-9647389D01*
X8993444Y-9647389D02*
X8983920Y-9609293D01*
X8983920Y-9609293D02*
X8983920Y-9561674D01*
X8983920Y-9561674D02*
X8993444Y-9523579D01*
X8993444Y-9523579D02*
X9002967Y-9504531D01*
X9002967Y-9504531D02*
X9012491Y-9495008D01*
X9012491Y-9495008D02*
X9031539Y-9485484D01*
X9183920Y-9685484D02*
X9183920Y-9552150D01*
X9183920Y-9571198D02*
X9193444Y-9561674D01*
X9193444Y-9561674D02*
X9212491Y-9552150D01*
X9212491Y-9552150D02*
X9241063Y-9552150D01*
X9241063Y-9552150D02*
X9260110Y-9561674D01*
X9260110Y-9561674D02*
X9269634Y-9580722D01*
X9269634Y-9580722D02*
X9269634Y-9685484D01*
X9269634Y-9580722D02*
X9279158Y-9561674D01*
X9279158Y-9561674D02*
X9298205Y-9552150D01*
X9298205Y-9552150D02*
X9326777Y-9552150D01*
X9326777Y-9552150D02*
X9345825Y-9561674D01*
X9345825Y-9561674D02*
X9355348Y-9580722D01*
X9355348Y-9580722D02*
X9355348Y-9685484D01*
X9450586Y-9685484D02*
X9450586Y-9552150D01*
X9450586Y-9571198D02*
X9460110Y-9561674D01*
X9460110Y-9561674D02*
X9479158Y-9552150D01*
X9479158Y-9552150D02*
X9507729Y-9552150D01*
X9507729Y-9552150D02*
X9526777Y-9561674D01*
X9526777Y-9561674D02*
X9536301Y-9580722D01*
X9536301Y-9580722D02*
X9536301Y-9685484D01*
X9536301Y-9580722D02*
X9545825Y-9561674D01*
X9545825Y-9561674D02*
X9564872Y-9552150D01*
X9564872Y-9552150D02*
X9593444Y-9552150D01*
X9593444Y-9552150D02*
X9612491Y-9561674D01*
X9612491Y-9561674D02*
X9622015Y-9580722D01*
X9622015Y-9580722D02*
X9622015Y-9685484D01*
X10012491Y-9475960D02*
X9841063Y-9733103D01*
X10269634Y-9485484D02*
X10288682Y-9485484D01*
X10288682Y-9485484D02*
X10307729Y-9495008D01*
X10307729Y-9495008D02*
X10317253Y-9504531D01*
X10317253Y-9504531D02*
X10326777Y-9523579D01*
X10326777Y-9523579D02*
X10336301Y-9561674D01*
X10336301Y-9561674D02*
X10336301Y-9609293D01*
X10336301Y-9609293D02*
X10326777Y-9647389D01*
X10326777Y-9647389D02*
X10317253Y-9666436D01*
X10317253Y-9666436D02*
X10307729Y-9675960D01*
X10307729Y-9675960D02*
X10288682Y-9685484D01*
X10288682Y-9685484D02*
X10269634Y-9685484D01*
X10269634Y-9685484D02*
X10250587Y-9675960D01*
X10250587Y-9675960D02*
X10241063Y-9666436D01*
X10241063Y-9666436D02*
X10231539Y-9647389D01*
X10231539Y-9647389D02*
X10222015Y-9609293D01*
X10222015Y-9609293D02*
X10222015Y-9561674D01*
X10222015Y-9561674D02*
X10231539Y-9523579D01*
X10231539Y-9523579D02*
X10241063Y-9504531D01*
X10241063Y-9504531D02*
X10250587Y-9495008D01*
X10250587Y-9495008D02*
X10269634Y-9485484D01*
X10422015Y-9666436D02*
X10431539Y-9675960D01*
X10431539Y-9675960D02*
X10422015Y-9685484D01*
X10422015Y-9685484D02*
X10412491Y-9675960D01*
X10412491Y-9675960D02*
X10422015Y-9666436D01*
X10422015Y-9666436D02*
X10422015Y-9685484D01*
X10555348Y-9485484D02*
X10574396Y-9485484D01*
X10574396Y-9485484D02*
X10593444Y-9495008D01*
X10593444Y-9495008D02*
X10602968Y-9504531D01*
X10602968Y-9504531D02*
X10612491Y-9523579D01*
X10612491Y-9523579D02*
X10622015Y-9561674D01*
X10622015Y-9561674D02*
X10622015Y-9609293D01*
X10622015Y-9609293D02*
X10612491Y-9647389D01*
X10612491Y-9647389D02*
X10602968Y-9666436D01*
X10602968Y-9666436D02*
X10593444Y-9675960D01*
X10593444Y-9675960D02*
X10574396Y-9685484D01*
X10574396Y-9685484D02*
X10555348Y-9685484D01*
X10555348Y-9685484D02*
X10536301Y-9675960D01*
X10536301Y-9675960D02*
X10526777Y-9666436D01*
X10526777Y-9666436D02*
X10517253Y-9647389D01*
X10517253Y-9647389D02*
X10507729Y-9609293D01*
X10507729Y-9609293D02*
X10507729Y-9561674D01*
X10507729Y-9561674D02*
X10517253Y-9523579D01*
X10517253Y-9523579D02*
X10526777Y-9504531D01*
X10526777Y-9504531D02*
X10536301Y-9495008D01*
X10536301Y-9495008D02*
X10555348Y-9485484D01*
X10688682Y-9485484D02*
X10812491Y-9485484D01*
X10812491Y-9485484D02*
X10745825Y-9561674D01*
X10745825Y-9561674D02*
X10774396Y-9561674D01*
X10774396Y-9561674D02*
X10793444Y-9571198D01*
X10793444Y-9571198D02*
X10802968Y-9580722D01*
X10802968Y-9580722D02*
X10812491Y-9599770D01*
X10812491Y-9599770D02*
X10812491Y-9647389D01*
X10812491Y-9647389D02*
X10802968Y-9666436D01*
X10802968Y-9666436D02*
X10793444Y-9675960D01*
X10793444Y-9675960D02*
X10774396Y-9685484D01*
X10774396Y-9685484D02*
X10717253Y-9685484D01*
X10717253Y-9685484D02*
X10698206Y-9675960D01*
X10698206Y-9675960D02*
X10688682Y-9666436D01*
X10907729Y-9685484D02*
X10945825Y-9685484D01*
X10945825Y-9685484D02*
X10964872Y-9675960D01*
X10964872Y-9675960D02*
X10974396Y-9666436D01*
X10974396Y-9666436D02*
X10993444Y-9637865D01*
X10993444Y-9637865D02*
X11002968Y-9599770D01*
X11002968Y-9599770D02*
X11002968Y-9523579D01*
X11002968Y-9523579D02*
X10993444Y-9504531D01*
X10993444Y-9504531D02*
X10983920Y-9495008D01*
X10983920Y-9495008D02*
X10964872Y-9485484D01*
X10964872Y-9485484D02*
X10926777Y-9485484D01*
X10926777Y-9485484D02*
X10907729Y-9495008D01*
X10907729Y-9495008D02*
X10898206Y-9504531D01*
X10898206Y-9504531D02*
X10888682Y-9523579D01*
X10888682Y-9523579D02*
X10888682Y-9571198D01*
X10888682Y-9571198D02*
X10898206Y-9590246D01*
X10898206Y-9590246D02*
X10907729Y-9599770D01*
X10907729Y-9599770D02*
X10926777Y-9609293D01*
X10926777Y-9609293D02*
X10964872Y-9609293D01*
X10964872Y-9609293D02*
X10983920Y-9599770D01*
X10983920Y-9599770D02*
X10993444Y-9590246D01*
X10993444Y-9590246D02*
X11002968Y-9571198D01*
X11174396Y-9552150D02*
X11174396Y-9685484D01*
X11126777Y-9475960D02*
X11079158Y-9618817D01*
X11079158Y-9618817D02*
X11202967Y-9618817D01*
X11269634Y-9485484D02*
X11269634Y-9523579D01*
X11345825Y-9485484D02*
X11345825Y-9523579D01*
X11641063Y-9761674D02*
X11631539Y-9752150D01*
X11631539Y-9752150D02*
X11612491Y-9723579D01*
X11612491Y-9723579D02*
X11602968Y-9704531D01*
X11602968Y-9704531D02*
X11593444Y-9675960D01*
X11593444Y-9675960D02*
X11583920Y-9628341D01*
X11583920Y-9628341D02*
X11583920Y-9590246D01*
X11583920Y-9590246D02*
X11593444Y-9542627D01*
X11593444Y-9542627D02*
X11602968Y-9514055D01*
X11602968Y-9514055D02*
X11612491Y-9495008D01*
X11612491Y-9495008D02*
X11631539Y-9466436D01*
X11631539Y-9466436D02*
X11641063Y-9456912D01*
X11698206Y-9485484D02*
X11822015Y-9485484D01*
X11822015Y-9485484D02*
X11755348Y-9561674D01*
X11755348Y-9561674D02*
X11783920Y-9561674D01*
X11783920Y-9561674D02*
X11802968Y-9571198D01*
X11802968Y-9571198D02*
X11812491Y-9580722D01*
X11812491Y-9580722D02*
X11822015Y-9599770D01*
X11822015Y-9599770D02*
X11822015Y-9647389D01*
X11822015Y-9647389D02*
X11812491Y-9666436D01*
X11812491Y-9666436D02*
X11802968Y-9675960D01*
X11802968Y-9675960D02*
X11783920Y-9685484D01*
X11783920Y-9685484D02*
X11726777Y-9685484D01*
X11726777Y-9685484D02*
X11707729Y-9675960D01*
X11707729Y-9675960D02*
X11698206Y-9666436D01*
X11898206Y-9504531D02*
X11907729Y-9495008D01*
X11907729Y-9495008D02*
X11926777Y-9485484D01*
X11926777Y-9485484D02*
X11974396Y-9485484D01*
X11974396Y-9485484D02*
X11993444Y-9495008D01*
X11993444Y-9495008D02*
X12002968Y-9504531D01*
X12002968Y-9504531D02*
X12012491Y-9523579D01*
X12012491Y-9523579D02*
X12012491Y-9542627D01*
X12012491Y-9542627D02*
X12002968Y-9571198D01*
X12002968Y-9571198D02*
X11888682Y-9685484D01*
X11888682Y-9685484D02*
X12012491Y-9685484D01*
X12250587Y-9685484D02*
X12250587Y-9485484D01*
X12336301Y-9685484D02*
X12336301Y-9580722D01*
X12336301Y-9580722D02*
X12326777Y-9561674D01*
X12326777Y-9561674D02*
X12307730Y-9552150D01*
X12307730Y-9552150D02*
X12279158Y-9552150D01*
X12279158Y-9552150D02*
X12260110Y-9561674D01*
X12260110Y-9561674D02*
X12250587Y-9571198D01*
X12460110Y-9685484D02*
X12441063Y-9675960D01*
X12441063Y-9675960D02*
X12431539Y-9666436D01*
X12431539Y-9666436D02*
X12422015Y-9647389D01*
X12422015Y-9647389D02*
X12422015Y-9590246D01*
X12422015Y-9590246D02*
X12431539Y-9571198D01*
X12431539Y-9571198D02*
X12441063Y-9561674D01*
X12441063Y-9561674D02*
X12460110Y-9552150D01*
X12460110Y-9552150D02*
X12488682Y-9552150D01*
X12488682Y-9552150D02*
X12507730Y-9561674D01*
X12507730Y-9561674D02*
X12517253Y-9571198D01*
X12517253Y-9571198D02*
X12526777Y-9590246D01*
X12526777Y-9590246D02*
X12526777Y-9647389D01*
X12526777Y-9647389D02*
X12517253Y-9666436D01*
X12517253Y-9666436D02*
X12507730Y-9675960D01*
X12507730Y-9675960D02*
X12488682Y-9685484D01*
X12488682Y-9685484D02*
X12460110Y-9685484D01*
X12641063Y-9685484D02*
X12622015Y-9675960D01*
X12622015Y-9675960D02*
X12612491Y-9656912D01*
X12612491Y-9656912D02*
X12612491Y-9485484D01*
X12793444Y-9675960D02*
X12774396Y-9685484D01*
X12774396Y-9685484D02*
X12736301Y-9685484D01*
X12736301Y-9685484D02*
X12717253Y-9675960D01*
X12717253Y-9675960D02*
X12707730Y-9656912D01*
X12707730Y-9656912D02*
X12707730Y-9580722D01*
X12707730Y-9580722D02*
X12717253Y-9561674D01*
X12717253Y-9561674D02*
X12736301Y-9552150D01*
X12736301Y-9552150D02*
X12774396Y-9552150D01*
X12774396Y-9552150D02*
X12793444Y-9561674D01*
X12793444Y-9561674D02*
X12802968Y-9580722D01*
X12802968Y-9580722D02*
X12802968Y-9599770D01*
X12802968Y-9599770D02*
X12707730Y-9618817D01*
X12879158Y-9675960D02*
X12898206Y-9685484D01*
X12898206Y-9685484D02*
X12936301Y-9685484D01*
X12936301Y-9685484D02*
X12955349Y-9675960D01*
X12955349Y-9675960D02*
X12964872Y-9656912D01*
X12964872Y-9656912D02*
X12964872Y-9647389D01*
X12964872Y-9647389D02*
X12955349Y-9628341D01*
X12955349Y-9628341D02*
X12936301Y-9618817D01*
X12936301Y-9618817D02*
X12907730Y-9618817D01*
X12907730Y-9618817D02*
X12888682Y-9609293D01*
X12888682Y-9609293D02*
X12879158Y-9590246D01*
X12879158Y-9590246D02*
X12879158Y-9580722D01*
X12879158Y-9580722D02*
X12888682Y-9561674D01*
X12888682Y-9561674D02*
X12907730Y-9552150D01*
X12907730Y-9552150D02*
X12936301Y-9552150D01*
X12936301Y-9552150D02*
X12955349Y-9561674D01*
X13202968Y-9609293D02*
X13355349Y-9609293D01*
X13279158Y-9685484D02*
X13279158Y-9533103D01*
X13583920Y-9485484D02*
X13707730Y-9485484D01*
X13707730Y-9485484D02*
X13641063Y-9561674D01*
X13641063Y-9561674D02*
X13669634Y-9561674D01*
X13669634Y-9561674D02*
X13688682Y-9571198D01*
X13688682Y-9571198D02*
X13698206Y-9580722D01*
X13698206Y-9580722D02*
X13707730Y-9599770D01*
X13707730Y-9599770D02*
X13707730Y-9647389D01*
X13707730Y-9647389D02*
X13698206Y-9666436D01*
X13698206Y-9666436D02*
X13688682Y-9675960D01*
X13688682Y-9675960D02*
X13669634Y-9685484D01*
X13669634Y-9685484D02*
X13612492Y-9685484D01*
X13612492Y-9685484D02*
X13593444Y-9675960D01*
X13593444Y-9675960D02*
X13583920Y-9666436D01*
X13936301Y-9675960D02*
X13955349Y-9685484D01*
X13955349Y-9685484D02*
X13993444Y-9685484D01*
X13993444Y-9685484D02*
X14012492Y-9675960D01*
X14012492Y-9675960D02*
X14022015Y-9656912D01*
X14022015Y-9656912D02*
X14022015Y-9647389D01*
X14022015Y-9647389D02*
X14012492Y-9628341D01*
X14012492Y-9628341D02*
X13993444Y-9618817D01*
X13993444Y-9618817D02*
X13964873Y-9618817D01*
X13964873Y-9618817D02*
X13945825Y-9609293D01*
X13945825Y-9609293D02*
X13936301Y-9590246D01*
X13936301Y-9590246D02*
X13936301Y-9580722D01*
X13936301Y-9580722D02*
X13945825Y-9561674D01*
X13945825Y-9561674D02*
X13964873Y-9552150D01*
X13964873Y-9552150D02*
X13993444Y-9552150D01*
X13993444Y-9552150D02*
X14012492Y-9561674D01*
X14136301Y-9685484D02*
X14117254Y-9675960D01*
X14117254Y-9675960D02*
X14107730Y-9656912D01*
X14107730Y-9656912D02*
X14107730Y-9485484D01*
X14241063Y-9685484D02*
X14222015Y-9675960D01*
X14222015Y-9675960D02*
X14212492Y-9666436D01*
X14212492Y-9666436D02*
X14202968Y-9647389D01*
X14202968Y-9647389D02*
X14202968Y-9590246D01*
X14202968Y-9590246D02*
X14212492Y-9571198D01*
X14212492Y-9571198D02*
X14222015Y-9561674D01*
X14222015Y-9561674D02*
X14241063Y-9552150D01*
X14241063Y-9552150D02*
X14269635Y-9552150D01*
X14269635Y-9552150D02*
X14288682Y-9561674D01*
X14288682Y-9561674D02*
X14298206Y-9571198D01*
X14298206Y-9571198D02*
X14307730Y-9590246D01*
X14307730Y-9590246D02*
X14307730Y-9647389D01*
X14307730Y-9647389D02*
X14298206Y-9666436D01*
X14298206Y-9666436D02*
X14288682Y-9675960D01*
X14288682Y-9675960D02*
X14269635Y-9685484D01*
X14269635Y-9685484D02*
X14241063Y-9685484D01*
X14364873Y-9552150D02*
X14441063Y-9552150D01*
X14393444Y-9485484D02*
X14393444Y-9656912D01*
X14393444Y-9656912D02*
X14402968Y-9675960D01*
X14402968Y-9675960D02*
X14422015Y-9685484D01*
X14422015Y-9685484D02*
X14441063Y-9685484D01*
X14498206Y-9675960D02*
X14517254Y-9685484D01*
X14517254Y-9685484D02*
X14555349Y-9685484D01*
X14555349Y-9685484D02*
X14574396Y-9675960D01*
X14574396Y-9675960D02*
X14583920Y-9656912D01*
X14583920Y-9656912D02*
X14583920Y-9647389D01*
X14583920Y-9647389D02*
X14574396Y-9628341D01*
X14574396Y-9628341D02*
X14555349Y-9618817D01*
X14555349Y-9618817D02*
X14526777Y-9618817D01*
X14526777Y-9618817D02*
X14507730Y-9609293D01*
X14507730Y-9609293D02*
X14498206Y-9590246D01*
X14498206Y-9590246D02*
X14498206Y-9580722D01*
X14498206Y-9580722D02*
X14507730Y-9561674D01*
X14507730Y-9561674D02*
X14526777Y-9552150D01*
X14526777Y-9552150D02*
X14555349Y-9552150D01*
X14555349Y-9552150D02*
X14574396Y-9561674D01*
X14650587Y-9761674D02*
X14660111Y-9752150D01*
X14660111Y-9752150D02*
X14679158Y-9723579D01*
X14679158Y-9723579D02*
X14688682Y-9704531D01*
X14688682Y-9704531D02*
X14698206Y-9675960D01*
X14698206Y-9675960D02*
X14707730Y-9628341D01*
X14707730Y-9628341D02*
X14707730Y-9590246D01*
X14707730Y-9590246D02*
X14698206Y-9542627D01*
X14698206Y-9542627D02*
X14688682Y-9514055D01*
X14688682Y-9514055D02*
X14679158Y-9495008D01*
X14679158Y-9495008D02*
X14660111Y-9466436D01*
X14660111Y-9466436D02*
X14650587Y-9456912D01*
D16*
X7956000Y-9803000D02*
X8066000Y-9913000D01*
X8066000Y-9803000D02*
X7956000Y-9913000D01*
X8066000Y-9858000D02*
G75*
G03*
X8066000Y-9858000I-55000J0D01*
G01*
D11*
X8431539Y-9949484D02*
X8317253Y-9949484D01*
X8374396Y-9949484D02*
X8374396Y-9749484D01*
X8374396Y-9749484D02*
X8355348Y-9778055D01*
X8355348Y-9778055D02*
X8336301Y-9797103D01*
X8336301Y-9797103D02*
X8317253Y-9806627D01*
X8517253Y-9930436D02*
X8526777Y-9939960D01*
X8526777Y-9939960D02*
X8517253Y-9949484D01*
X8517253Y-9949484D02*
X8507729Y-9939960D01*
X8507729Y-9939960D02*
X8517253Y-9930436D01*
X8517253Y-9930436D02*
X8517253Y-9949484D01*
X8717253Y-9949484D02*
X8602967Y-9949484D01*
X8660110Y-9949484D02*
X8660110Y-9749484D01*
X8660110Y-9749484D02*
X8641063Y-9778055D01*
X8641063Y-9778055D02*
X8622015Y-9797103D01*
X8622015Y-9797103D02*
X8602967Y-9806627D01*
X8841063Y-9749484D02*
X8860110Y-9749484D01*
X8860110Y-9749484D02*
X8879158Y-9759008D01*
X8879158Y-9759008D02*
X8888682Y-9768531D01*
X8888682Y-9768531D02*
X8898205Y-9787579D01*
X8898205Y-9787579D02*
X8907729Y-9825674D01*
X8907729Y-9825674D02*
X8907729Y-9873293D01*
X8907729Y-9873293D02*
X8898205Y-9911389D01*
X8898205Y-9911389D02*
X8888682Y-9930436D01*
X8888682Y-9930436D02*
X8879158Y-9939960D01*
X8879158Y-9939960D02*
X8860110Y-9949484D01*
X8860110Y-9949484D02*
X8841063Y-9949484D01*
X8841063Y-9949484D02*
X8822015Y-9939960D01*
X8822015Y-9939960D02*
X8812491Y-9930436D01*
X8812491Y-9930436D02*
X8802967Y-9911389D01*
X8802967Y-9911389D02*
X8793444Y-9873293D01*
X8793444Y-9873293D02*
X8793444Y-9825674D01*
X8793444Y-9825674D02*
X8802967Y-9787579D01*
X8802967Y-9787579D02*
X8812491Y-9768531D01*
X8812491Y-9768531D02*
X8822015Y-9759008D01*
X8822015Y-9759008D02*
X8841063Y-9749484D01*
X9031539Y-9749484D02*
X9050586Y-9749484D01*
X9050586Y-9749484D02*
X9069634Y-9759008D01*
X9069634Y-9759008D02*
X9079158Y-9768531D01*
X9079158Y-9768531D02*
X9088682Y-9787579D01*
X9088682Y-9787579D02*
X9098205Y-9825674D01*
X9098205Y-9825674D02*
X9098205Y-9873293D01*
X9098205Y-9873293D02*
X9088682Y-9911389D01*
X9088682Y-9911389D02*
X9079158Y-9930436D01*
X9079158Y-9930436D02*
X9069634Y-9939960D01*
X9069634Y-9939960D02*
X9050586Y-9949484D01*
X9050586Y-9949484D02*
X9031539Y-9949484D01*
X9031539Y-9949484D02*
X9012491Y-9939960D01*
X9012491Y-9939960D02*
X9002967Y-9930436D01*
X9002967Y-9930436D02*
X8993444Y-9911389D01*
X8993444Y-9911389D02*
X8983920Y-9873293D01*
X8983920Y-9873293D02*
X8983920Y-9825674D01*
X8983920Y-9825674D02*
X8993444Y-9787579D01*
X8993444Y-9787579D02*
X9002967Y-9768531D01*
X9002967Y-9768531D02*
X9012491Y-9759008D01*
X9012491Y-9759008D02*
X9031539Y-9749484D01*
X9183920Y-9949484D02*
X9183920Y-9816150D01*
X9183920Y-9835198D02*
X9193444Y-9825674D01*
X9193444Y-9825674D02*
X9212491Y-9816150D01*
X9212491Y-9816150D02*
X9241063Y-9816150D01*
X9241063Y-9816150D02*
X9260110Y-9825674D01*
X9260110Y-9825674D02*
X9269634Y-9844722D01*
X9269634Y-9844722D02*
X9269634Y-9949484D01*
X9269634Y-9844722D02*
X9279158Y-9825674D01*
X9279158Y-9825674D02*
X9298205Y-9816150D01*
X9298205Y-9816150D02*
X9326777Y-9816150D01*
X9326777Y-9816150D02*
X9345825Y-9825674D01*
X9345825Y-9825674D02*
X9355348Y-9844722D01*
X9355348Y-9844722D02*
X9355348Y-9949484D01*
X9450586Y-9949484D02*
X9450586Y-9816150D01*
X9450586Y-9835198D02*
X9460110Y-9825674D01*
X9460110Y-9825674D02*
X9479158Y-9816150D01*
X9479158Y-9816150D02*
X9507729Y-9816150D01*
X9507729Y-9816150D02*
X9526777Y-9825674D01*
X9526777Y-9825674D02*
X9536301Y-9844722D01*
X9536301Y-9844722D02*
X9536301Y-9949484D01*
X9536301Y-9844722D02*
X9545825Y-9825674D01*
X9545825Y-9825674D02*
X9564872Y-9816150D01*
X9564872Y-9816150D02*
X9593444Y-9816150D01*
X9593444Y-9816150D02*
X9612491Y-9825674D01*
X9612491Y-9825674D02*
X9622015Y-9844722D01*
X9622015Y-9844722D02*
X9622015Y-9949484D01*
X10012491Y-9739960D02*
X9841063Y-9997103D01*
X10269634Y-9749484D02*
X10288682Y-9749484D01*
X10288682Y-9749484D02*
X10307729Y-9759008D01*
X10307729Y-9759008D02*
X10317253Y-9768531D01*
X10317253Y-9768531D02*
X10326777Y-9787579D01*
X10326777Y-9787579D02*
X10336301Y-9825674D01*
X10336301Y-9825674D02*
X10336301Y-9873293D01*
X10336301Y-9873293D02*
X10326777Y-9911389D01*
X10326777Y-9911389D02*
X10317253Y-9930436D01*
X10317253Y-9930436D02*
X10307729Y-9939960D01*
X10307729Y-9939960D02*
X10288682Y-9949484D01*
X10288682Y-9949484D02*
X10269634Y-9949484D01*
X10269634Y-9949484D02*
X10250587Y-9939960D01*
X10250587Y-9939960D02*
X10241063Y-9930436D01*
X10241063Y-9930436D02*
X10231539Y-9911389D01*
X10231539Y-9911389D02*
X10222015Y-9873293D01*
X10222015Y-9873293D02*
X10222015Y-9825674D01*
X10222015Y-9825674D02*
X10231539Y-9787579D01*
X10231539Y-9787579D02*
X10241063Y-9768531D01*
X10241063Y-9768531D02*
X10250587Y-9759008D01*
X10250587Y-9759008D02*
X10269634Y-9749484D01*
X10422015Y-9930436D02*
X10431539Y-9939960D01*
X10431539Y-9939960D02*
X10422015Y-9949484D01*
X10422015Y-9949484D02*
X10412491Y-9939960D01*
X10412491Y-9939960D02*
X10422015Y-9930436D01*
X10422015Y-9930436D02*
X10422015Y-9949484D01*
X10555348Y-9749484D02*
X10574396Y-9749484D01*
X10574396Y-9749484D02*
X10593444Y-9759008D01*
X10593444Y-9759008D02*
X10602968Y-9768531D01*
X10602968Y-9768531D02*
X10612491Y-9787579D01*
X10612491Y-9787579D02*
X10622015Y-9825674D01*
X10622015Y-9825674D02*
X10622015Y-9873293D01*
X10622015Y-9873293D02*
X10612491Y-9911389D01*
X10612491Y-9911389D02*
X10602968Y-9930436D01*
X10602968Y-9930436D02*
X10593444Y-9939960D01*
X10593444Y-9939960D02*
X10574396Y-9949484D01*
X10574396Y-9949484D02*
X10555348Y-9949484D01*
X10555348Y-9949484D02*
X10536301Y-9939960D01*
X10536301Y-9939960D02*
X10526777Y-9930436D01*
X10526777Y-9930436D02*
X10517253Y-9911389D01*
X10517253Y-9911389D02*
X10507729Y-9873293D01*
X10507729Y-9873293D02*
X10507729Y-9825674D01*
X10507729Y-9825674D02*
X10517253Y-9787579D01*
X10517253Y-9787579D02*
X10526777Y-9768531D01*
X10526777Y-9768531D02*
X10536301Y-9759008D01*
X10536301Y-9759008D02*
X10555348Y-9749484D01*
X10793444Y-9816150D02*
X10793444Y-9949484D01*
X10745825Y-9739960D02*
X10698206Y-9882817D01*
X10698206Y-9882817D02*
X10822015Y-9882817D01*
X10879158Y-9749484D02*
X11002968Y-9749484D01*
X11002968Y-9749484D02*
X10936301Y-9825674D01*
X10936301Y-9825674D02*
X10964872Y-9825674D01*
X10964872Y-9825674D02*
X10983920Y-9835198D01*
X10983920Y-9835198D02*
X10993444Y-9844722D01*
X10993444Y-9844722D02*
X11002968Y-9863770D01*
X11002968Y-9863770D02*
X11002968Y-9911389D01*
X11002968Y-9911389D02*
X10993444Y-9930436D01*
X10993444Y-9930436D02*
X10983920Y-9939960D01*
X10983920Y-9939960D02*
X10964872Y-9949484D01*
X10964872Y-9949484D02*
X10907729Y-9949484D01*
X10907729Y-9949484D02*
X10888682Y-9939960D01*
X10888682Y-9939960D02*
X10879158Y-9930436D01*
X11069634Y-9749484D02*
X11193444Y-9749484D01*
X11193444Y-9749484D02*
X11126777Y-9825674D01*
X11126777Y-9825674D02*
X11155349Y-9825674D01*
X11155349Y-9825674D02*
X11174396Y-9835198D01*
X11174396Y-9835198D02*
X11183920Y-9844722D01*
X11183920Y-9844722D02*
X11193444Y-9863770D01*
X11193444Y-9863770D02*
X11193444Y-9911389D01*
X11193444Y-9911389D02*
X11183920Y-9930436D01*
X11183920Y-9930436D02*
X11174396Y-9939960D01*
X11174396Y-9939960D02*
X11155349Y-9949484D01*
X11155349Y-9949484D02*
X11098206Y-9949484D01*
X11098206Y-9949484D02*
X11079158Y-9939960D01*
X11079158Y-9939960D02*
X11069634Y-9930436D01*
X11269634Y-9749484D02*
X11269634Y-9787579D01*
X11345825Y-9749484D02*
X11345825Y-9787579D01*
X11641063Y-10025674D02*
X11631539Y-10016150D01*
X11631539Y-10016150D02*
X11612491Y-9987579D01*
X11612491Y-9987579D02*
X11602968Y-9968531D01*
X11602968Y-9968531D02*
X11593444Y-9939960D01*
X11593444Y-9939960D02*
X11583920Y-9892341D01*
X11583920Y-9892341D02*
X11583920Y-9854246D01*
X11583920Y-9854246D02*
X11593444Y-9806627D01*
X11593444Y-9806627D02*
X11602968Y-9778055D01*
X11602968Y-9778055D02*
X11612491Y-9759008D01*
X11612491Y-9759008D02*
X11631539Y-9730436D01*
X11631539Y-9730436D02*
X11641063Y-9720912D01*
X11698206Y-9749484D02*
X11822015Y-9749484D01*
X11822015Y-9749484D02*
X11755348Y-9825674D01*
X11755348Y-9825674D02*
X11783920Y-9825674D01*
X11783920Y-9825674D02*
X11802968Y-9835198D01*
X11802968Y-9835198D02*
X11812491Y-9844722D01*
X11812491Y-9844722D02*
X11822015Y-9863770D01*
X11822015Y-9863770D02*
X11822015Y-9911389D01*
X11822015Y-9911389D02*
X11812491Y-9930436D01*
X11812491Y-9930436D02*
X11802968Y-9939960D01*
X11802968Y-9939960D02*
X11783920Y-9949484D01*
X11783920Y-9949484D02*
X11726777Y-9949484D01*
X11726777Y-9949484D02*
X11707729Y-9939960D01*
X11707729Y-9939960D02*
X11698206Y-9930436D01*
X12060110Y-9949484D02*
X12060110Y-9749484D01*
X12145825Y-9949484D02*
X12145825Y-9844722D01*
X12145825Y-9844722D02*
X12136301Y-9825674D01*
X12136301Y-9825674D02*
X12117253Y-9816150D01*
X12117253Y-9816150D02*
X12088682Y-9816150D01*
X12088682Y-9816150D02*
X12069634Y-9825674D01*
X12069634Y-9825674D02*
X12060110Y-9835198D01*
X12269634Y-9949484D02*
X12250587Y-9939960D01*
X12250587Y-9939960D02*
X12241063Y-9930436D01*
X12241063Y-9930436D02*
X12231539Y-9911389D01*
X12231539Y-9911389D02*
X12231539Y-9854246D01*
X12231539Y-9854246D02*
X12241063Y-9835198D01*
X12241063Y-9835198D02*
X12250587Y-9825674D01*
X12250587Y-9825674D02*
X12269634Y-9816150D01*
X12269634Y-9816150D02*
X12298206Y-9816150D01*
X12298206Y-9816150D02*
X12317253Y-9825674D01*
X12317253Y-9825674D02*
X12326777Y-9835198D01*
X12326777Y-9835198D02*
X12336301Y-9854246D01*
X12336301Y-9854246D02*
X12336301Y-9911389D01*
X12336301Y-9911389D02*
X12326777Y-9930436D01*
X12326777Y-9930436D02*
X12317253Y-9939960D01*
X12317253Y-9939960D02*
X12298206Y-9949484D01*
X12298206Y-9949484D02*
X12269634Y-9949484D01*
X12450587Y-9949484D02*
X12431539Y-9939960D01*
X12431539Y-9939960D02*
X12422015Y-9920912D01*
X12422015Y-9920912D02*
X12422015Y-9749484D01*
X12602968Y-9939960D02*
X12583920Y-9949484D01*
X12583920Y-9949484D02*
X12545825Y-9949484D01*
X12545825Y-9949484D02*
X12526777Y-9939960D01*
X12526777Y-9939960D02*
X12517253Y-9920912D01*
X12517253Y-9920912D02*
X12517253Y-9844722D01*
X12517253Y-9844722D02*
X12526777Y-9825674D01*
X12526777Y-9825674D02*
X12545825Y-9816150D01*
X12545825Y-9816150D02*
X12583920Y-9816150D01*
X12583920Y-9816150D02*
X12602968Y-9825674D01*
X12602968Y-9825674D02*
X12612491Y-9844722D01*
X12612491Y-9844722D02*
X12612491Y-9863770D01*
X12612491Y-9863770D02*
X12517253Y-9882817D01*
X12688682Y-9939960D02*
X12707730Y-9949484D01*
X12707730Y-9949484D02*
X12745825Y-9949484D01*
X12745825Y-9949484D02*
X12764872Y-9939960D01*
X12764872Y-9939960D02*
X12774396Y-9920912D01*
X12774396Y-9920912D02*
X12774396Y-9911389D01*
X12774396Y-9911389D02*
X12764872Y-9892341D01*
X12764872Y-9892341D02*
X12745825Y-9882817D01*
X12745825Y-9882817D02*
X12717253Y-9882817D01*
X12717253Y-9882817D02*
X12698206Y-9873293D01*
X12698206Y-9873293D02*
X12688682Y-9854246D01*
X12688682Y-9854246D02*
X12688682Y-9844722D01*
X12688682Y-9844722D02*
X12698206Y-9825674D01*
X12698206Y-9825674D02*
X12717253Y-9816150D01*
X12717253Y-9816150D02*
X12745825Y-9816150D01*
X12745825Y-9816150D02*
X12764872Y-9825674D01*
X12841063Y-10025674D02*
X12850587Y-10016150D01*
X12850587Y-10016150D02*
X12869634Y-9987579D01*
X12869634Y-9987579D02*
X12879158Y-9968531D01*
X12879158Y-9968531D02*
X12888682Y-9939960D01*
X12888682Y-9939960D02*
X12898206Y-9892341D01*
X12898206Y-9892341D02*
X12898206Y-9854246D01*
X12898206Y-9854246D02*
X12888682Y-9806627D01*
X12888682Y-9806627D02*
X12879158Y-9778055D01*
X12879158Y-9778055D02*
X12869634Y-9759008D01*
X12869634Y-9759008D02*
X12850587Y-9730436D01*
X12850587Y-9730436D02*
X12841063Y-9720912D01*
D17*
X7926000Y-10052000D02*
X8066000Y-10192000D01*
X8066000Y-10052000D02*
X7926000Y-10192000D01*
X7996000Y-10052000D02*
X7996000Y-10192000D01*
X7926000Y-10122000D02*
X8066000Y-10122000D01*
D11*
X8431539Y-10213484D02*
X8317253Y-10213484D01*
X8374396Y-10213484D02*
X8374396Y-10013484D01*
X8374396Y-10013484D02*
X8355348Y-10042055D01*
X8355348Y-10042055D02*
X8336301Y-10061103D01*
X8336301Y-10061103D02*
X8317253Y-10070627D01*
X8517253Y-10194436D02*
X8526777Y-10203960D01*
X8526777Y-10203960D02*
X8517253Y-10213484D01*
X8517253Y-10213484D02*
X8507729Y-10203960D01*
X8507729Y-10203960D02*
X8517253Y-10194436D01*
X8517253Y-10194436D02*
X8517253Y-10213484D01*
X8698205Y-10080150D02*
X8698205Y-10213484D01*
X8650586Y-10003960D02*
X8602967Y-10146817D01*
X8602967Y-10146817D02*
X8726777Y-10146817D01*
X8841063Y-10013484D02*
X8860110Y-10013484D01*
X8860110Y-10013484D02*
X8879158Y-10023008D01*
X8879158Y-10023008D02*
X8888682Y-10032531D01*
X8888682Y-10032531D02*
X8898205Y-10051579D01*
X8898205Y-10051579D02*
X8907729Y-10089674D01*
X8907729Y-10089674D02*
X8907729Y-10137293D01*
X8907729Y-10137293D02*
X8898205Y-10175389D01*
X8898205Y-10175389D02*
X8888682Y-10194436D01*
X8888682Y-10194436D02*
X8879158Y-10203960D01*
X8879158Y-10203960D02*
X8860110Y-10213484D01*
X8860110Y-10213484D02*
X8841063Y-10213484D01*
X8841063Y-10213484D02*
X8822015Y-10203960D01*
X8822015Y-10203960D02*
X8812491Y-10194436D01*
X8812491Y-10194436D02*
X8802967Y-10175389D01*
X8802967Y-10175389D02*
X8793444Y-10137293D01*
X8793444Y-10137293D02*
X8793444Y-10089674D01*
X8793444Y-10089674D02*
X8802967Y-10051579D01*
X8802967Y-10051579D02*
X8812491Y-10032531D01*
X8812491Y-10032531D02*
X8822015Y-10023008D01*
X8822015Y-10023008D02*
X8841063Y-10013484D01*
X9031539Y-10013484D02*
X9050586Y-10013484D01*
X9050586Y-10013484D02*
X9069634Y-10023008D01*
X9069634Y-10023008D02*
X9079158Y-10032531D01*
X9079158Y-10032531D02*
X9088682Y-10051579D01*
X9088682Y-10051579D02*
X9098205Y-10089674D01*
X9098205Y-10089674D02*
X9098205Y-10137293D01*
X9098205Y-10137293D02*
X9088682Y-10175389D01*
X9088682Y-10175389D02*
X9079158Y-10194436D01*
X9079158Y-10194436D02*
X9069634Y-10203960D01*
X9069634Y-10203960D02*
X9050586Y-10213484D01*
X9050586Y-10213484D02*
X9031539Y-10213484D01*
X9031539Y-10213484D02*
X9012491Y-10203960D01*
X9012491Y-10203960D02*
X9002967Y-10194436D01*
X9002967Y-10194436D02*
X8993444Y-10175389D01*
X8993444Y-10175389D02*
X8983920Y-10137293D01*
X8983920Y-10137293D02*
X8983920Y-10089674D01*
X8983920Y-10089674D02*
X8993444Y-10051579D01*
X8993444Y-10051579D02*
X9002967Y-10032531D01*
X9002967Y-10032531D02*
X9012491Y-10023008D01*
X9012491Y-10023008D02*
X9031539Y-10013484D01*
X9183920Y-10213484D02*
X9183920Y-10080150D01*
X9183920Y-10099198D02*
X9193444Y-10089674D01*
X9193444Y-10089674D02*
X9212491Y-10080150D01*
X9212491Y-10080150D02*
X9241063Y-10080150D01*
X9241063Y-10080150D02*
X9260110Y-10089674D01*
X9260110Y-10089674D02*
X9269634Y-10108722D01*
X9269634Y-10108722D02*
X9269634Y-10213484D01*
X9269634Y-10108722D02*
X9279158Y-10089674D01*
X9279158Y-10089674D02*
X9298205Y-10080150D01*
X9298205Y-10080150D02*
X9326777Y-10080150D01*
X9326777Y-10080150D02*
X9345825Y-10089674D01*
X9345825Y-10089674D02*
X9355348Y-10108722D01*
X9355348Y-10108722D02*
X9355348Y-10213484D01*
X9450586Y-10213484D02*
X9450586Y-10080150D01*
X9450586Y-10099198D02*
X9460110Y-10089674D01*
X9460110Y-10089674D02*
X9479158Y-10080150D01*
X9479158Y-10080150D02*
X9507729Y-10080150D01*
X9507729Y-10080150D02*
X9526777Y-10089674D01*
X9526777Y-10089674D02*
X9536301Y-10108722D01*
X9536301Y-10108722D02*
X9536301Y-10213484D01*
X9536301Y-10108722D02*
X9545825Y-10089674D01*
X9545825Y-10089674D02*
X9564872Y-10080150D01*
X9564872Y-10080150D02*
X9593444Y-10080150D01*
X9593444Y-10080150D02*
X9612491Y-10089674D01*
X9612491Y-10089674D02*
X9622015Y-10108722D01*
X9622015Y-10108722D02*
X9622015Y-10213484D01*
X10012491Y-10003960D02*
X9841063Y-10261103D01*
X10269634Y-10013484D02*
X10288682Y-10013484D01*
X10288682Y-10013484D02*
X10307729Y-10023008D01*
X10307729Y-10023008D02*
X10317253Y-10032531D01*
X10317253Y-10032531D02*
X10326777Y-10051579D01*
X10326777Y-10051579D02*
X10336301Y-10089674D01*
X10336301Y-10089674D02*
X10336301Y-10137293D01*
X10336301Y-10137293D02*
X10326777Y-10175389D01*
X10326777Y-10175389D02*
X10317253Y-10194436D01*
X10317253Y-10194436D02*
X10307729Y-10203960D01*
X10307729Y-10203960D02*
X10288682Y-10213484D01*
X10288682Y-10213484D02*
X10269634Y-10213484D01*
X10269634Y-10213484D02*
X10250587Y-10203960D01*
X10250587Y-10203960D02*
X10241063Y-10194436D01*
X10241063Y-10194436D02*
X10231539Y-10175389D01*
X10231539Y-10175389D02*
X10222015Y-10137293D01*
X10222015Y-10137293D02*
X10222015Y-10089674D01*
X10222015Y-10089674D02*
X10231539Y-10051579D01*
X10231539Y-10051579D02*
X10241063Y-10032531D01*
X10241063Y-10032531D02*
X10250587Y-10023008D01*
X10250587Y-10023008D02*
X10269634Y-10013484D01*
X10422015Y-10194436D02*
X10431539Y-10203960D01*
X10431539Y-10203960D02*
X10422015Y-10213484D01*
X10422015Y-10213484D02*
X10412491Y-10203960D01*
X10412491Y-10203960D02*
X10422015Y-10194436D01*
X10422015Y-10194436D02*
X10422015Y-10213484D01*
X10555348Y-10013484D02*
X10574396Y-10013484D01*
X10574396Y-10013484D02*
X10593444Y-10023008D01*
X10593444Y-10023008D02*
X10602968Y-10032531D01*
X10602968Y-10032531D02*
X10612491Y-10051579D01*
X10612491Y-10051579D02*
X10622015Y-10089674D01*
X10622015Y-10089674D02*
X10622015Y-10137293D01*
X10622015Y-10137293D02*
X10612491Y-10175389D01*
X10612491Y-10175389D02*
X10602968Y-10194436D01*
X10602968Y-10194436D02*
X10593444Y-10203960D01*
X10593444Y-10203960D02*
X10574396Y-10213484D01*
X10574396Y-10213484D02*
X10555348Y-10213484D01*
X10555348Y-10213484D02*
X10536301Y-10203960D01*
X10536301Y-10203960D02*
X10526777Y-10194436D01*
X10526777Y-10194436D02*
X10517253Y-10175389D01*
X10517253Y-10175389D02*
X10507729Y-10137293D01*
X10507729Y-10137293D02*
X10507729Y-10089674D01*
X10507729Y-10089674D02*
X10517253Y-10051579D01*
X10517253Y-10051579D02*
X10526777Y-10032531D01*
X10526777Y-10032531D02*
X10536301Y-10023008D01*
X10536301Y-10023008D02*
X10555348Y-10013484D01*
X10802968Y-10013484D02*
X10707729Y-10013484D01*
X10707729Y-10013484D02*
X10698206Y-10108722D01*
X10698206Y-10108722D02*
X10707729Y-10099198D01*
X10707729Y-10099198D02*
X10726777Y-10089674D01*
X10726777Y-10089674D02*
X10774396Y-10089674D01*
X10774396Y-10089674D02*
X10793444Y-10099198D01*
X10793444Y-10099198D02*
X10802968Y-10108722D01*
X10802968Y-10108722D02*
X10812491Y-10127770D01*
X10812491Y-10127770D02*
X10812491Y-10175389D01*
X10812491Y-10175389D02*
X10802968Y-10194436D01*
X10802968Y-10194436D02*
X10793444Y-10203960D01*
X10793444Y-10203960D02*
X10774396Y-10213484D01*
X10774396Y-10213484D02*
X10726777Y-10213484D01*
X10726777Y-10213484D02*
X10707729Y-10203960D01*
X10707729Y-10203960D02*
X10698206Y-10194436D01*
X10993444Y-10013484D02*
X10898206Y-10013484D01*
X10898206Y-10013484D02*
X10888682Y-10108722D01*
X10888682Y-10108722D02*
X10898206Y-10099198D01*
X10898206Y-10099198D02*
X10917253Y-10089674D01*
X10917253Y-10089674D02*
X10964872Y-10089674D01*
X10964872Y-10089674D02*
X10983920Y-10099198D01*
X10983920Y-10099198D02*
X10993444Y-10108722D01*
X10993444Y-10108722D02*
X11002968Y-10127770D01*
X11002968Y-10127770D02*
X11002968Y-10175389D01*
X11002968Y-10175389D02*
X10993444Y-10194436D01*
X10993444Y-10194436D02*
X10983920Y-10203960D01*
X10983920Y-10203960D02*
X10964872Y-10213484D01*
X10964872Y-10213484D02*
X10917253Y-10213484D01*
X10917253Y-10213484D02*
X10898206Y-10203960D01*
X10898206Y-10203960D02*
X10888682Y-10194436D01*
X11193444Y-10213484D02*
X11079158Y-10213484D01*
X11136301Y-10213484D02*
X11136301Y-10013484D01*
X11136301Y-10013484D02*
X11117253Y-10042055D01*
X11117253Y-10042055D02*
X11098206Y-10061103D01*
X11098206Y-10061103D02*
X11079158Y-10070627D01*
X11269634Y-10013484D02*
X11269634Y-10051579D01*
X11345825Y-10013484D02*
X11345825Y-10051579D01*
X11641063Y-10289674D02*
X11631539Y-10280150D01*
X11631539Y-10280150D02*
X11612491Y-10251579D01*
X11612491Y-10251579D02*
X11602968Y-10232531D01*
X11602968Y-10232531D02*
X11593444Y-10203960D01*
X11593444Y-10203960D02*
X11583920Y-10156341D01*
X11583920Y-10156341D02*
X11583920Y-10118246D01*
X11583920Y-10118246D02*
X11593444Y-10070627D01*
X11593444Y-10070627D02*
X11602968Y-10042055D01*
X11602968Y-10042055D02*
X11612491Y-10023008D01*
X11612491Y-10023008D02*
X11631539Y-9994436D01*
X11631539Y-9994436D02*
X11641063Y-9984912D01*
X11822015Y-10213484D02*
X11707729Y-10213484D01*
X11764872Y-10213484D02*
X11764872Y-10013484D01*
X11764872Y-10013484D02*
X11745825Y-10042055D01*
X11745825Y-10042055D02*
X11726777Y-10061103D01*
X11726777Y-10061103D02*
X11707729Y-10070627D01*
X11945825Y-10013484D02*
X11964872Y-10013484D01*
X11964872Y-10013484D02*
X11983920Y-10023008D01*
X11983920Y-10023008D02*
X11993444Y-10032531D01*
X11993444Y-10032531D02*
X12002968Y-10051579D01*
X12002968Y-10051579D02*
X12012491Y-10089674D01*
X12012491Y-10089674D02*
X12012491Y-10137293D01*
X12012491Y-10137293D02*
X12002968Y-10175389D01*
X12002968Y-10175389D02*
X11993444Y-10194436D01*
X11993444Y-10194436D02*
X11983920Y-10203960D01*
X11983920Y-10203960D02*
X11964872Y-10213484D01*
X11964872Y-10213484D02*
X11945825Y-10213484D01*
X11945825Y-10213484D02*
X11926777Y-10203960D01*
X11926777Y-10203960D02*
X11917253Y-10194436D01*
X11917253Y-10194436D02*
X11907729Y-10175389D01*
X11907729Y-10175389D02*
X11898206Y-10137293D01*
X11898206Y-10137293D02*
X11898206Y-10089674D01*
X11898206Y-10089674D02*
X11907729Y-10051579D01*
X11907729Y-10051579D02*
X11917253Y-10032531D01*
X11917253Y-10032531D02*
X11926777Y-10023008D01*
X11926777Y-10023008D02*
X11945825Y-10013484D01*
X12250587Y-10213484D02*
X12250587Y-10013484D01*
X12336301Y-10213484D02*
X12336301Y-10108722D01*
X12336301Y-10108722D02*
X12326777Y-10089674D01*
X12326777Y-10089674D02*
X12307730Y-10080150D01*
X12307730Y-10080150D02*
X12279158Y-10080150D01*
X12279158Y-10080150D02*
X12260110Y-10089674D01*
X12260110Y-10089674D02*
X12250587Y-10099198D01*
X12460110Y-10213484D02*
X12441063Y-10203960D01*
X12441063Y-10203960D02*
X12431539Y-10194436D01*
X12431539Y-10194436D02*
X12422015Y-10175389D01*
X12422015Y-10175389D02*
X12422015Y-10118246D01*
X12422015Y-10118246D02*
X12431539Y-10099198D01*
X12431539Y-10099198D02*
X12441063Y-10089674D01*
X12441063Y-10089674D02*
X12460110Y-10080150D01*
X12460110Y-10080150D02*
X12488682Y-10080150D01*
X12488682Y-10080150D02*
X12507730Y-10089674D01*
X12507730Y-10089674D02*
X12517253Y-10099198D01*
X12517253Y-10099198D02*
X12526777Y-10118246D01*
X12526777Y-10118246D02*
X12526777Y-10175389D01*
X12526777Y-10175389D02*
X12517253Y-10194436D01*
X12517253Y-10194436D02*
X12507730Y-10203960D01*
X12507730Y-10203960D02*
X12488682Y-10213484D01*
X12488682Y-10213484D02*
X12460110Y-10213484D01*
X12641063Y-10213484D02*
X12622015Y-10203960D01*
X12622015Y-10203960D02*
X12612491Y-10184912D01*
X12612491Y-10184912D02*
X12612491Y-10013484D01*
X12793444Y-10203960D02*
X12774396Y-10213484D01*
X12774396Y-10213484D02*
X12736301Y-10213484D01*
X12736301Y-10213484D02*
X12717253Y-10203960D01*
X12717253Y-10203960D02*
X12707730Y-10184912D01*
X12707730Y-10184912D02*
X12707730Y-10108722D01*
X12707730Y-10108722D02*
X12717253Y-10089674D01*
X12717253Y-10089674D02*
X12736301Y-10080150D01*
X12736301Y-10080150D02*
X12774396Y-10080150D01*
X12774396Y-10080150D02*
X12793444Y-10089674D01*
X12793444Y-10089674D02*
X12802968Y-10108722D01*
X12802968Y-10108722D02*
X12802968Y-10127770D01*
X12802968Y-10127770D02*
X12707730Y-10146817D01*
X12879158Y-10203960D02*
X12898206Y-10213484D01*
X12898206Y-10213484D02*
X12936301Y-10213484D01*
X12936301Y-10213484D02*
X12955349Y-10203960D01*
X12955349Y-10203960D02*
X12964872Y-10184912D01*
X12964872Y-10184912D02*
X12964872Y-10175389D01*
X12964872Y-10175389D02*
X12955349Y-10156341D01*
X12955349Y-10156341D02*
X12936301Y-10146817D01*
X12936301Y-10146817D02*
X12907730Y-10146817D01*
X12907730Y-10146817D02*
X12888682Y-10137293D01*
X12888682Y-10137293D02*
X12879158Y-10118246D01*
X12879158Y-10118246D02*
X12879158Y-10108722D01*
X12879158Y-10108722D02*
X12888682Y-10089674D01*
X12888682Y-10089674D02*
X12907730Y-10080150D01*
X12907730Y-10080150D02*
X12936301Y-10080150D01*
X12936301Y-10080150D02*
X12955349Y-10089674D01*
X13031539Y-10289674D02*
X13041063Y-10280150D01*
X13041063Y-10280150D02*
X13060111Y-10251579D01*
X13060111Y-10251579D02*
X13069634Y-10232531D01*
X13069634Y-10232531D02*
X13079158Y-10203960D01*
X13079158Y-10203960D02*
X13088682Y-10156341D01*
X13088682Y-10156341D02*
X13088682Y-10118246D01*
X13088682Y-10118246D02*
X13079158Y-10070627D01*
X13079158Y-10070627D02*
X13069634Y-10042055D01*
X13069634Y-10042055D02*
X13060111Y-10023008D01*
X13060111Y-10023008D02*
X13041063Y-9994436D01*
X13041063Y-9994436D02*
X13031539Y-9984912D01*
M02*
