M48
; DRILL file {KiCad 7.0.7} date Wed Mar 20 00:35:13 2024
; FORMAT={-:-/ absolute / inch / decimal}
; #@! TF.CreationDate,2024-03-20T00:35:13+00:00
; #@! TF.GenerationSoftware,Kicad,Pcbnew,7.0.7
; #@! TF.FileFunction,Plated,1,2,PTH
FMAT,2
INCH
; #@! TA.AperFunction,Plated,PTH,ComponentDrill
T1C0.0236
; #@! TA.AperFunction,Plated,PTH,ComponentDrill
T2C0.0276
; #@! TA.AperFunction,Plated,PTH,ComponentDrill
T3C0.0315
; #@! TA.AperFunction,Plated,PTH,ComponentDrill
T4C0.0354
; #@! TA.AperFunction,Plated,PTH,ComponentDrill
T5C0.0394
; #@! TA.AperFunction,Plated,PTH,ComponentDrill
T6C0.0433
; #@! TA.AperFunction,Plated,PTH,ComponentDrill
T7C0.0551
%
G90
G05
T1
X5.3646Y-1.9739
X5.3646Y-2.0527
X5.3646Y-2.1664
X5.3646Y-2.2452
X5.6768Y-1.9739
X5.6768Y-2.0527
X5.6768Y-2.1664
X5.6768Y-2.2452
T2
X5.965Y-1.9717
X5.965Y-2.2717
T3
X3.9122Y-1.9787
X3.9563Y-2.9201
X3.9909Y-1.9787
X4.0004Y-2.2272
X4.035Y-2.9201
X4.1972Y-1.9378
X4.1972Y-2.1346
X4.1972Y-2.2272
X4.374Y-1.9433
X4.374Y-2.2433
X4.474Y-1.9433
X4.474Y-2.2433
X4.574Y-1.9433
X4.574Y-2.2433
X4.674Y-1.9433
X4.674Y-2.2433
X4.774Y-1.9433
X4.774Y-2.2433
X4.874Y-1.9433
X4.874Y-2.2433
X4.974Y-1.9433
X4.974Y-2.2433
X5.074Y-1.9433
X5.074Y-2.2433
X6.1598Y-2.3447
X6.1598Y-2.6124
X6.2701Y-2.3447
X6.2701Y-2.4274
X6.2701Y-2.5297
X6.2701Y-2.6124
T4
X6.211Y-1.9425
X6.211Y-2.0425
T5
X3.5614Y-1.9657
X3.6614Y-1.9657
X4.3665Y-2.413
X4.3665Y-3.013
X4.4665Y-2.413
X4.4665Y-3.013
X4.5665Y-2.413
X4.5665Y-3.013
X4.6665Y-2.413
X4.6665Y-3.013
X4.7665Y-2.413
X4.7665Y-3.013
X4.8665Y-2.413
X4.8665Y-3.013
X4.9665Y-2.413
X4.9665Y-3.013
X5.0665Y-2.413
X5.0665Y-3.013
X5.1665Y-2.413
X5.1665Y-3.013
X5.2665Y-2.413
X5.2665Y-3.013
X5.3665Y-2.413
X5.3665Y-3.013
X5.4665Y-2.413
X5.4665Y-3.013
X5.5665Y-2.413
X5.5665Y-3.013
X5.6665Y-2.413
X5.6665Y-3.013
X5.7665Y-2.413
X5.7665Y-3.013
T6
X3.5543Y-3.0177
X3.6543Y-3.0177
X3.7543Y-3.0177
T7
X3.2753Y-2.2823
X3.2753Y-2.3809
X3.2753Y-2.4773
X3.2753Y-2.5778
X3.2753Y-2.6764
X3.6693Y-2.1839
X3.6693Y-2.4793
X3.6693Y-2.7748
X3.7673Y-2.2823
X3.7673Y-2.6764
T5
G00X6.3528Y-2.2089
M15
G01X6.4118Y-2.2089
M16
G05
G00X6.3528Y-2.7482
M15
G01X6.4118Y-2.7482
M16
G05
G00X6.4138Y-2.5179
M15
G01X6.4138Y-2.4392
M16
G05
T0
M30
