%TF.GenerationSoftware,KiCad,Pcbnew,8.0.1*%
%TF.CreationDate,2024-04-11T22:34:35+01:00*%
%TF.ProjectId,TIMAYSound,54494d41-5953-46f7-956e-642e6b696361,rev?*%
%TF.SameCoordinates,Original*%
%TF.FileFunction,Legend,Top*%
%TF.FilePolarity,Positive*%
%FSLAX46Y46*%
G04 Gerber Fmt 4.6, Leading zero omitted, Abs format (unit mm)*
G04 Created by KiCad (PCBNEW 8.0.1) date 2024-04-11 22:34:35*
%MOMM*%
%LPD*%
G01*
G04 APERTURE LIST*
%ADD10C,0.400000*%
%ADD11C,0.300000*%
%ADD12C,0.129000*%
%ADD13C,0.360000*%
%ADD14C,0.150000*%
%ADD15C,0.340000*%
%ADD16C,0.120000*%
%ADD17C,0.000000*%
G04 APERTURE END LIST*
D10*
X50740000Y-38370000D02*
X123730000Y-38370000D01*
X123730000Y-106450000D01*
X50740000Y-106450000D01*
X50740000Y-38370000D01*
D11*
X84340225Y-95745912D02*
X85197368Y-95745912D01*
X84768796Y-97245912D02*
X84768796Y-95745912D01*
X85697367Y-97245912D02*
X85697367Y-95745912D01*
X86411653Y-97245912D02*
X86411653Y-95745912D01*
X86411653Y-95745912D02*
X86911653Y-96817341D01*
X86911653Y-96817341D02*
X87411653Y-95745912D01*
X87411653Y-95745912D02*
X87411653Y-97245912D01*
X88125939Y-96674484D02*
X89268797Y-96674484D01*
X90268797Y-95745912D02*
X90411654Y-95745912D01*
X90411654Y-95745912D02*
X90554511Y-95817341D01*
X90554511Y-95817341D02*
X90625940Y-95888769D01*
X90625940Y-95888769D02*
X90697368Y-96031626D01*
X90697368Y-96031626D02*
X90768797Y-96317341D01*
X90768797Y-96317341D02*
X90768797Y-96674484D01*
X90768797Y-96674484D02*
X90697368Y-96960198D01*
X90697368Y-96960198D02*
X90625940Y-97103055D01*
X90625940Y-97103055D02*
X90554511Y-97174484D01*
X90554511Y-97174484D02*
X90411654Y-97245912D01*
X90411654Y-97245912D02*
X90268797Y-97245912D01*
X90268797Y-97245912D02*
X90125940Y-97174484D01*
X90125940Y-97174484D02*
X90054511Y-97103055D01*
X90054511Y-97103055D02*
X89983082Y-96960198D01*
X89983082Y-96960198D02*
X89911654Y-96674484D01*
X89911654Y-96674484D02*
X89911654Y-96317341D01*
X89911654Y-96317341D02*
X89983082Y-96031626D01*
X89983082Y-96031626D02*
X90054511Y-95888769D01*
X90054511Y-95888769D02*
X90125940Y-95817341D01*
X90125940Y-95817341D02*
X90268797Y-95745912D01*
X92197368Y-97245912D02*
X91340225Y-97245912D01*
X91768796Y-97245912D02*
X91768796Y-95745912D01*
X91768796Y-95745912D02*
X91625939Y-95960198D01*
X91625939Y-95960198D02*
X91483082Y-96103055D01*
X91483082Y-96103055D02*
X91340225Y-96174484D01*
X93625939Y-97245912D02*
X92768796Y-97245912D01*
X93197367Y-97245912D02*
X93197367Y-95745912D01*
X93197367Y-95745912D02*
X93054510Y-95960198D01*
X93054510Y-95960198D02*
X92911653Y-96103055D01*
X92911653Y-96103055D02*
X92768796Y-96174484D01*
X84483082Y-99232257D02*
X85197368Y-99232257D01*
X84340225Y-99660828D02*
X84840225Y-98160828D01*
X84840225Y-98160828D02*
X85340225Y-99660828D01*
X86125939Y-98946542D02*
X86125939Y-99660828D01*
X85625939Y-98160828D02*
X86125939Y-98946542D01*
X86125939Y-98946542D02*
X86625939Y-98160828D01*
X88197367Y-99589400D02*
X88411653Y-99660828D01*
X88411653Y-99660828D02*
X88768795Y-99660828D01*
X88768795Y-99660828D02*
X88911653Y-99589400D01*
X88911653Y-99589400D02*
X88983081Y-99517971D01*
X88983081Y-99517971D02*
X89054510Y-99375114D01*
X89054510Y-99375114D02*
X89054510Y-99232257D01*
X89054510Y-99232257D02*
X88983081Y-99089400D01*
X88983081Y-99089400D02*
X88911653Y-99017971D01*
X88911653Y-99017971D02*
X88768795Y-98946542D01*
X88768795Y-98946542D02*
X88483081Y-98875114D01*
X88483081Y-98875114D02*
X88340224Y-98803685D01*
X88340224Y-98803685D02*
X88268795Y-98732257D01*
X88268795Y-98732257D02*
X88197367Y-98589400D01*
X88197367Y-98589400D02*
X88197367Y-98446542D01*
X88197367Y-98446542D02*
X88268795Y-98303685D01*
X88268795Y-98303685D02*
X88340224Y-98232257D01*
X88340224Y-98232257D02*
X88483081Y-98160828D01*
X88483081Y-98160828D02*
X88840224Y-98160828D01*
X88840224Y-98160828D02*
X89054510Y-98232257D01*
X89911652Y-99660828D02*
X89768795Y-99589400D01*
X89768795Y-99589400D02*
X89697366Y-99517971D01*
X89697366Y-99517971D02*
X89625938Y-99375114D01*
X89625938Y-99375114D02*
X89625938Y-98946542D01*
X89625938Y-98946542D02*
X89697366Y-98803685D01*
X89697366Y-98803685D02*
X89768795Y-98732257D01*
X89768795Y-98732257D02*
X89911652Y-98660828D01*
X89911652Y-98660828D02*
X90125938Y-98660828D01*
X90125938Y-98660828D02*
X90268795Y-98732257D01*
X90268795Y-98732257D02*
X90340224Y-98803685D01*
X90340224Y-98803685D02*
X90411652Y-98946542D01*
X90411652Y-98946542D02*
X90411652Y-99375114D01*
X90411652Y-99375114D02*
X90340224Y-99517971D01*
X90340224Y-99517971D02*
X90268795Y-99589400D01*
X90268795Y-99589400D02*
X90125938Y-99660828D01*
X90125938Y-99660828D02*
X89911652Y-99660828D01*
X91697367Y-98660828D02*
X91697367Y-99660828D01*
X91054509Y-98660828D02*
X91054509Y-99446542D01*
X91054509Y-99446542D02*
X91125938Y-99589400D01*
X91125938Y-99589400D02*
X91268795Y-99660828D01*
X91268795Y-99660828D02*
X91483081Y-99660828D01*
X91483081Y-99660828D02*
X91625938Y-99589400D01*
X91625938Y-99589400D02*
X91697367Y-99517971D01*
X92411652Y-98660828D02*
X92411652Y-99660828D01*
X92411652Y-98803685D02*
X92483081Y-98732257D01*
X92483081Y-98732257D02*
X92625938Y-98660828D01*
X92625938Y-98660828D02*
X92840224Y-98660828D01*
X92840224Y-98660828D02*
X92983081Y-98732257D01*
X92983081Y-98732257D02*
X93054510Y-98875114D01*
X93054510Y-98875114D02*
X93054510Y-99660828D01*
X94411653Y-99660828D02*
X94411653Y-98160828D01*
X94411653Y-99589400D02*
X94268795Y-99660828D01*
X94268795Y-99660828D02*
X93983081Y-99660828D01*
X93983081Y-99660828D02*
X93840224Y-99589400D01*
X93840224Y-99589400D02*
X93768795Y-99517971D01*
X93768795Y-99517971D02*
X93697367Y-99375114D01*
X93697367Y-99375114D02*
X93697367Y-98946542D01*
X93697367Y-98946542D02*
X93768795Y-98803685D01*
X93768795Y-98803685D02*
X93840224Y-98732257D01*
X93840224Y-98732257D02*
X93983081Y-98660828D01*
X93983081Y-98660828D02*
X94268795Y-98660828D01*
X94268795Y-98660828D02*
X94411653Y-98732257D01*
X51851177Y-104185304D02*
X52594034Y-104185304D01*
X52222606Y-105485304D02*
X52222606Y-104185304D01*
X53027367Y-105485304D02*
X53027367Y-104185304D01*
X53584510Y-105485304D02*
X53584510Y-104804352D01*
X53584510Y-104804352D02*
X53522605Y-104680542D01*
X53522605Y-104680542D02*
X53398796Y-104618638D01*
X53398796Y-104618638D02*
X53213082Y-104618638D01*
X53213082Y-104618638D02*
X53089272Y-104680542D01*
X53089272Y-104680542D02*
X53027367Y-104742447D01*
X54698795Y-105423400D02*
X54574986Y-105485304D01*
X54574986Y-105485304D02*
X54327367Y-105485304D01*
X54327367Y-105485304D02*
X54203557Y-105423400D01*
X54203557Y-105423400D02*
X54141653Y-105299590D01*
X54141653Y-105299590D02*
X54141653Y-104804352D01*
X54141653Y-104804352D02*
X54203557Y-104680542D01*
X54203557Y-104680542D02*
X54327367Y-104618638D01*
X54327367Y-104618638D02*
X54574986Y-104618638D01*
X54574986Y-104618638D02*
X54698795Y-104680542D01*
X54698795Y-104680542D02*
X54760700Y-104804352D01*
X54760700Y-104804352D02*
X54760700Y-104928161D01*
X54760700Y-104928161D02*
X54141653Y-105051971D01*
X56741653Y-104804352D02*
X56927367Y-104866257D01*
X56927367Y-104866257D02*
X56989272Y-104928161D01*
X56989272Y-104928161D02*
X57051176Y-105051971D01*
X57051176Y-105051971D02*
X57051176Y-105237685D01*
X57051176Y-105237685D02*
X56989272Y-105361495D01*
X56989272Y-105361495D02*
X56927367Y-105423400D01*
X56927367Y-105423400D02*
X56803557Y-105485304D01*
X56803557Y-105485304D02*
X56308319Y-105485304D01*
X56308319Y-105485304D02*
X56308319Y-104185304D01*
X56308319Y-104185304D02*
X56741653Y-104185304D01*
X56741653Y-104185304D02*
X56865462Y-104247209D01*
X56865462Y-104247209D02*
X56927367Y-104309114D01*
X56927367Y-104309114D02*
X56989272Y-104432923D01*
X56989272Y-104432923D02*
X56989272Y-104556733D01*
X56989272Y-104556733D02*
X56927367Y-104680542D01*
X56927367Y-104680542D02*
X56865462Y-104742447D01*
X56865462Y-104742447D02*
X56741653Y-104804352D01*
X56741653Y-104804352D02*
X56308319Y-104804352D01*
X57794034Y-105485304D02*
X57670224Y-105423400D01*
X57670224Y-105423400D02*
X57608319Y-105361495D01*
X57608319Y-105361495D02*
X57546415Y-105237685D01*
X57546415Y-105237685D02*
X57546415Y-104866257D01*
X57546415Y-104866257D02*
X57608319Y-104742447D01*
X57608319Y-104742447D02*
X57670224Y-104680542D01*
X57670224Y-104680542D02*
X57794034Y-104618638D01*
X57794034Y-104618638D02*
X57979748Y-104618638D01*
X57979748Y-104618638D02*
X58103557Y-104680542D01*
X58103557Y-104680542D02*
X58165462Y-104742447D01*
X58165462Y-104742447D02*
X58227367Y-104866257D01*
X58227367Y-104866257D02*
X58227367Y-105237685D01*
X58227367Y-105237685D02*
X58165462Y-105361495D01*
X58165462Y-105361495D02*
X58103557Y-105423400D01*
X58103557Y-105423400D02*
X57979748Y-105485304D01*
X57979748Y-105485304D02*
X57794034Y-105485304D01*
X59341652Y-105485304D02*
X59341652Y-104804352D01*
X59341652Y-104804352D02*
X59279747Y-104680542D01*
X59279747Y-104680542D02*
X59155938Y-104618638D01*
X59155938Y-104618638D02*
X58908319Y-104618638D01*
X58908319Y-104618638D02*
X58784509Y-104680542D01*
X59341652Y-105423400D02*
X59217843Y-105485304D01*
X59217843Y-105485304D02*
X58908319Y-105485304D01*
X58908319Y-105485304D02*
X58784509Y-105423400D01*
X58784509Y-105423400D02*
X58722605Y-105299590D01*
X58722605Y-105299590D02*
X58722605Y-105175780D01*
X58722605Y-105175780D02*
X58784509Y-105051971D01*
X58784509Y-105051971D02*
X58908319Y-104990066D01*
X58908319Y-104990066D02*
X59217843Y-104990066D01*
X59217843Y-104990066D02*
X59341652Y-104928161D01*
X59960699Y-105485304D02*
X59960699Y-104618638D01*
X59960699Y-104866257D02*
X60022604Y-104742447D01*
X60022604Y-104742447D02*
X60084509Y-104680542D01*
X60084509Y-104680542D02*
X60208318Y-104618638D01*
X60208318Y-104618638D02*
X60332128Y-104618638D01*
X61322604Y-105485304D02*
X61322604Y-104185304D01*
X61322604Y-105423400D02*
X61198795Y-105485304D01*
X61198795Y-105485304D02*
X60951176Y-105485304D01*
X60951176Y-105485304D02*
X60827366Y-105423400D01*
X60827366Y-105423400D02*
X60765461Y-105361495D01*
X60765461Y-105361495D02*
X60703557Y-105237685D01*
X60703557Y-105237685D02*
X60703557Y-104866257D01*
X60703557Y-104866257D02*
X60765461Y-104742447D01*
X60765461Y-104742447D02*
X60827366Y-104680542D01*
X60827366Y-104680542D02*
X60951176Y-104618638D01*
X60951176Y-104618638D02*
X61198795Y-104618638D01*
X61198795Y-104618638D02*
X61322604Y-104680542D01*
X63365461Y-104804352D02*
X62932127Y-104804352D01*
X62932127Y-105485304D02*
X62932127Y-104185304D01*
X62932127Y-104185304D02*
X63551175Y-104185304D01*
X64232128Y-105485304D02*
X64108318Y-105423400D01*
X64108318Y-105423400D02*
X64046413Y-105361495D01*
X64046413Y-105361495D02*
X63984509Y-105237685D01*
X63984509Y-105237685D02*
X63984509Y-104866257D01*
X63984509Y-104866257D02*
X64046413Y-104742447D01*
X64046413Y-104742447D02*
X64108318Y-104680542D01*
X64108318Y-104680542D02*
X64232128Y-104618638D01*
X64232128Y-104618638D02*
X64417842Y-104618638D01*
X64417842Y-104618638D02*
X64541651Y-104680542D01*
X64541651Y-104680542D02*
X64603556Y-104742447D01*
X64603556Y-104742447D02*
X64665461Y-104866257D01*
X64665461Y-104866257D02*
X64665461Y-105237685D01*
X64665461Y-105237685D02*
X64603556Y-105361495D01*
X64603556Y-105361495D02*
X64541651Y-105423400D01*
X64541651Y-105423400D02*
X64417842Y-105485304D01*
X64417842Y-105485304D02*
X64232128Y-105485304D01*
X65408318Y-105485304D02*
X65284508Y-105423400D01*
X65284508Y-105423400D02*
X65222603Y-105299590D01*
X65222603Y-105299590D02*
X65222603Y-104185304D01*
X65903555Y-105485304D02*
X65903555Y-104185304D01*
X66027365Y-104990066D02*
X66398793Y-105485304D01*
X66398793Y-104618638D02*
X65903555Y-105113876D01*
X67760698Y-104185304D02*
X68503555Y-104185304D01*
X68132127Y-105485304D02*
X68132127Y-104185304D01*
X69432126Y-105423400D02*
X69308317Y-105485304D01*
X69308317Y-105485304D02*
X69060698Y-105485304D01*
X69060698Y-105485304D02*
X68936888Y-105423400D01*
X68936888Y-105423400D02*
X68874984Y-105299590D01*
X68874984Y-105299590D02*
X68874984Y-104804352D01*
X68874984Y-104804352D02*
X68936888Y-104680542D01*
X68936888Y-104680542D02*
X69060698Y-104618638D01*
X69060698Y-104618638D02*
X69308317Y-104618638D01*
X69308317Y-104618638D02*
X69432126Y-104680542D01*
X69432126Y-104680542D02*
X69494031Y-104804352D01*
X69494031Y-104804352D02*
X69494031Y-104928161D01*
X69494031Y-104928161D02*
X68874984Y-105051971D01*
X70608317Y-105485304D02*
X70608317Y-104804352D01*
X70608317Y-104804352D02*
X70546412Y-104680542D01*
X70546412Y-104680542D02*
X70422603Y-104618638D01*
X70422603Y-104618638D02*
X70174984Y-104618638D01*
X70174984Y-104618638D02*
X70051174Y-104680542D01*
X70608317Y-105423400D02*
X70484508Y-105485304D01*
X70484508Y-105485304D02*
X70174984Y-105485304D01*
X70174984Y-105485304D02*
X70051174Y-105423400D01*
X70051174Y-105423400D02*
X69989270Y-105299590D01*
X69989270Y-105299590D02*
X69989270Y-105175780D01*
X69989270Y-105175780D02*
X70051174Y-105051971D01*
X70051174Y-105051971D02*
X70174984Y-104990066D01*
X70174984Y-104990066D02*
X70484508Y-104990066D01*
X70484508Y-104990066D02*
X70608317Y-104928161D01*
X71227364Y-105485304D02*
X71227364Y-104618638D01*
X71227364Y-104742447D02*
X71289269Y-104680542D01*
X71289269Y-104680542D02*
X71413079Y-104618638D01*
X71413079Y-104618638D02*
X71598793Y-104618638D01*
X71598793Y-104618638D02*
X71722602Y-104680542D01*
X71722602Y-104680542D02*
X71784507Y-104804352D01*
X71784507Y-104804352D02*
X71784507Y-105485304D01*
X71784507Y-104804352D02*
X71846412Y-104680542D01*
X71846412Y-104680542D02*
X71970221Y-104618638D01*
X71970221Y-104618638D02*
X72155936Y-104618638D01*
X72155936Y-104618638D02*
X72279745Y-104680542D01*
X72279745Y-104680542D02*
X72341650Y-104804352D01*
X72341650Y-104804352D02*
X72341650Y-105485304D01*
X73889269Y-104309114D02*
X73951173Y-104247209D01*
X73951173Y-104247209D02*
X74074983Y-104185304D01*
X74074983Y-104185304D02*
X74384507Y-104185304D01*
X74384507Y-104185304D02*
X74508316Y-104247209D01*
X74508316Y-104247209D02*
X74570221Y-104309114D01*
X74570221Y-104309114D02*
X74632126Y-104432923D01*
X74632126Y-104432923D02*
X74632126Y-104556733D01*
X74632126Y-104556733D02*
X74570221Y-104742447D01*
X74570221Y-104742447D02*
X73827364Y-105485304D01*
X73827364Y-105485304D02*
X74632126Y-105485304D01*
X75436887Y-104185304D02*
X75560697Y-104185304D01*
X75560697Y-104185304D02*
X75684506Y-104247209D01*
X75684506Y-104247209D02*
X75746411Y-104309114D01*
X75746411Y-104309114D02*
X75808316Y-104432923D01*
X75808316Y-104432923D02*
X75870221Y-104680542D01*
X75870221Y-104680542D02*
X75870221Y-104990066D01*
X75870221Y-104990066D02*
X75808316Y-105237685D01*
X75808316Y-105237685D02*
X75746411Y-105361495D01*
X75746411Y-105361495D02*
X75684506Y-105423400D01*
X75684506Y-105423400D02*
X75560697Y-105485304D01*
X75560697Y-105485304D02*
X75436887Y-105485304D01*
X75436887Y-105485304D02*
X75313078Y-105423400D01*
X75313078Y-105423400D02*
X75251173Y-105361495D01*
X75251173Y-105361495D02*
X75189268Y-105237685D01*
X75189268Y-105237685D02*
X75127364Y-104990066D01*
X75127364Y-104990066D02*
X75127364Y-104680542D01*
X75127364Y-104680542D02*
X75189268Y-104432923D01*
X75189268Y-104432923D02*
X75251173Y-104309114D01*
X75251173Y-104309114D02*
X75313078Y-104247209D01*
X75313078Y-104247209D02*
X75436887Y-104185304D01*
X76365459Y-104309114D02*
X76427363Y-104247209D01*
X76427363Y-104247209D02*
X76551173Y-104185304D01*
X76551173Y-104185304D02*
X76860697Y-104185304D01*
X76860697Y-104185304D02*
X76984506Y-104247209D01*
X76984506Y-104247209D02*
X77046411Y-104309114D01*
X77046411Y-104309114D02*
X77108316Y-104432923D01*
X77108316Y-104432923D02*
X77108316Y-104556733D01*
X77108316Y-104556733D02*
X77046411Y-104742447D01*
X77046411Y-104742447D02*
X76303554Y-105485304D01*
X76303554Y-105485304D02*
X77108316Y-105485304D01*
X78222601Y-104618638D02*
X78222601Y-105485304D01*
X77913077Y-104123400D02*
X77603554Y-105051971D01*
X77603554Y-105051971D02*
X78408315Y-105051971D01*
X121099775Y-39658638D02*
X121409299Y-40525304D01*
X121409299Y-40525304D02*
X121718822Y-39658638D01*
X122895013Y-40525304D02*
X122152156Y-40525304D01*
X122523584Y-40525304D02*
X122523584Y-39225304D01*
X122523584Y-39225304D02*
X122399775Y-39411019D01*
X122399775Y-39411019D02*
X122275965Y-39534828D01*
X122275965Y-39534828D02*
X122152156Y-39596733D01*
D12*
X99267618Y-99239240D02*
X99226666Y-99280193D01*
X99226666Y-99280193D02*
X99103808Y-99321145D01*
X99103808Y-99321145D02*
X99021904Y-99321145D01*
X99021904Y-99321145D02*
X98899047Y-99280193D01*
X98899047Y-99280193D02*
X98817142Y-99198288D01*
X98817142Y-99198288D02*
X98776189Y-99116383D01*
X98776189Y-99116383D02*
X98735237Y-98952573D01*
X98735237Y-98952573D02*
X98735237Y-98829716D01*
X98735237Y-98829716D02*
X98776189Y-98665907D01*
X98776189Y-98665907D02*
X98817142Y-98584002D01*
X98817142Y-98584002D02*
X98899047Y-98502097D01*
X98899047Y-98502097D02*
X99021904Y-98461145D01*
X99021904Y-98461145D02*
X99103808Y-98461145D01*
X99103808Y-98461145D02*
X99226666Y-98502097D01*
X99226666Y-98502097D02*
X99267618Y-98543050D01*
X99595237Y-98543050D02*
X99636189Y-98502097D01*
X99636189Y-98502097D02*
X99718094Y-98461145D01*
X99718094Y-98461145D02*
X99922856Y-98461145D01*
X99922856Y-98461145D02*
X100004761Y-98502097D01*
X100004761Y-98502097D02*
X100045713Y-98543050D01*
X100045713Y-98543050D02*
X100086666Y-98624954D01*
X100086666Y-98624954D02*
X100086666Y-98706859D01*
X100086666Y-98706859D02*
X100045713Y-98829716D01*
X100045713Y-98829716D02*
X99554285Y-99321145D01*
X99554285Y-99321145D02*
X100086666Y-99321145D01*
X100619047Y-98461145D02*
X100700952Y-98461145D01*
X100700952Y-98461145D02*
X100782856Y-98502097D01*
X100782856Y-98502097D02*
X100823809Y-98543050D01*
X100823809Y-98543050D02*
X100864761Y-98624954D01*
X100864761Y-98624954D02*
X100905714Y-98788764D01*
X100905714Y-98788764D02*
X100905714Y-98993526D01*
X100905714Y-98993526D02*
X100864761Y-99157335D01*
X100864761Y-99157335D02*
X100823809Y-99239240D01*
X100823809Y-99239240D02*
X100782856Y-99280193D01*
X100782856Y-99280193D02*
X100700952Y-99321145D01*
X100700952Y-99321145D02*
X100619047Y-99321145D01*
X100619047Y-99321145D02*
X100537142Y-99280193D01*
X100537142Y-99280193D02*
X100496190Y-99239240D01*
X100496190Y-99239240D02*
X100455237Y-99157335D01*
X100455237Y-99157335D02*
X100414285Y-98993526D01*
X100414285Y-98993526D02*
X100414285Y-98788764D01*
X100414285Y-98788764D02*
X100455237Y-98624954D01*
X100455237Y-98624954D02*
X100496190Y-98543050D01*
X100496190Y-98543050D02*
X100537142Y-98502097D01*
X100537142Y-98502097D02*
X100619047Y-98461145D01*
X101233333Y-98543050D02*
X101274285Y-98502097D01*
X101274285Y-98502097D02*
X101356190Y-98461145D01*
X101356190Y-98461145D02*
X101560952Y-98461145D01*
X101560952Y-98461145D02*
X101642857Y-98502097D01*
X101642857Y-98502097D02*
X101683809Y-98543050D01*
X101683809Y-98543050D02*
X101724762Y-98624954D01*
X101724762Y-98624954D02*
X101724762Y-98706859D01*
X101724762Y-98706859D02*
X101683809Y-98829716D01*
X101683809Y-98829716D02*
X101192381Y-99321145D01*
X101192381Y-99321145D02*
X101724762Y-99321145D01*
D13*
X53712381Y-49573994D02*
X53712381Y-47773994D01*
X53712381Y-47773994D02*
X54588571Y-47773994D01*
X54588571Y-47773994D02*
X54807619Y-47859708D01*
X54807619Y-47859708D02*
X54917142Y-47945422D01*
X54917142Y-47945422D02*
X55026666Y-48116851D01*
X55026666Y-48116851D02*
X55026666Y-48373994D01*
X55026666Y-48373994D02*
X54917142Y-48545422D01*
X54917142Y-48545422D02*
X54807619Y-48631137D01*
X54807619Y-48631137D02*
X54588571Y-48716851D01*
X54588571Y-48716851D02*
X53712381Y-48716851D01*
X55902857Y-47945422D02*
X56012381Y-47859708D01*
X56012381Y-47859708D02*
X56231428Y-47773994D01*
X56231428Y-47773994D02*
X56779047Y-47773994D01*
X56779047Y-47773994D02*
X56998095Y-47859708D01*
X56998095Y-47859708D02*
X57107619Y-47945422D01*
X57107619Y-47945422D02*
X57217142Y-48116851D01*
X57217142Y-48116851D02*
X57217142Y-48288280D01*
X57217142Y-48288280D02*
X57107619Y-48545422D01*
X57107619Y-48545422D02*
X55793333Y-49573994D01*
X55793333Y-49573994D02*
X57217142Y-49573994D01*
D14*
X66524819Y-82499047D02*
X66048628Y-82832380D01*
X66524819Y-83070475D02*
X65524819Y-83070475D01*
X65524819Y-83070475D02*
X65524819Y-82689523D01*
X65524819Y-82689523D02*
X65572438Y-82594285D01*
X65572438Y-82594285D02*
X65620057Y-82546666D01*
X65620057Y-82546666D02*
X65715295Y-82499047D01*
X65715295Y-82499047D02*
X65858152Y-82499047D01*
X65858152Y-82499047D02*
X65953390Y-82546666D01*
X65953390Y-82546666D02*
X66001009Y-82594285D01*
X66001009Y-82594285D02*
X66048628Y-82689523D01*
X66048628Y-82689523D02*
X66048628Y-83070475D01*
X65620057Y-82118094D02*
X65572438Y-82070475D01*
X65572438Y-82070475D02*
X65524819Y-81975237D01*
X65524819Y-81975237D02*
X65524819Y-81737142D01*
X65524819Y-81737142D02*
X65572438Y-81641904D01*
X65572438Y-81641904D02*
X65620057Y-81594285D01*
X65620057Y-81594285D02*
X65715295Y-81546666D01*
X65715295Y-81546666D02*
X65810533Y-81546666D01*
X65810533Y-81546666D02*
X65953390Y-81594285D01*
X65953390Y-81594285D02*
X66524819Y-82165713D01*
X66524819Y-82165713D02*
X66524819Y-81546666D01*
X65524819Y-80927618D02*
X65524819Y-80832380D01*
X65524819Y-80832380D02*
X65572438Y-80737142D01*
X65572438Y-80737142D02*
X65620057Y-80689523D01*
X65620057Y-80689523D02*
X65715295Y-80641904D01*
X65715295Y-80641904D02*
X65905771Y-80594285D01*
X65905771Y-80594285D02*
X66143866Y-80594285D01*
X66143866Y-80594285D02*
X66334342Y-80641904D01*
X66334342Y-80641904D02*
X66429580Y-80689523D01*
X66429580Y-80689523D02*
X66477200Y-80737142D01*
X66477200Y-80737142D02*
X66524819Y-80832380D01*
X66524819Y-80832380D02*
X66524819Y-80927618D01*
X66524819Y-80927618D02*
X66477200Y-81022856D01*
X66477200Y-81022856D02*
X66429580Y-81070475D01*
X66429580Y-81070475D02*
X66334342Y-81118094D01*
X66334342Y-81118094D02*
X66143866Y-81165713D01*
X66143866Y-81165713D02*
X65905771Y-81165713D01*
X65905771Y-81165713D02*
X65715295Y-81118094D01*
X65715295Y-81118094D02*
X65620057Y-81070475D01*
X65620057Y-81070475D02*
X65572438Y-81022856D01*
X65572438Y-81022856D02*
X65524819Y-80927618D01*
X66524819Y-79641904D02*
X66524819Y-80213332D01*
X66524819Y-79927618D02*
X65524819Y-79927618D01*
X65524819Y-79927618D02*
X65667676Y-80022856D01*
X65667676Y-80022856D02*
X65762914Y-80118094D01*
X65762914Y-80118094D02*
X65810533Y-80213332D01*
D13*
X110477143Y-53123994D02*
X110477143Y-54581137D01*
X110477143Y-54581137D02*
X110586666Y-54752565D01*
X110586666Y-54752565D02*
X110696190Y-54838280D01*
X110696190Y-54838280D02*
X110915238Y-54923994D01*
X110915238Y-54923994D02*
X111353333Y-54923994D01*
X111353333Y-54923994D02*
X111572381Y-54838280D01*
X111572381Y-54838280D02*
X111681904Y-54752565D01*
X111681904Y-54752565D02*
X111791428Y-54581137D01*
X111791428Y-54581137D02*
X111791428Y-53123994D01*
X112777143Y-53295422D02*
X112886667Y-53209708D01*
X112886667Y-53209708D02*
X113105714Y-53123994D01*
X113105714Y-53123994D02*
X113653333Y-53123994D01*
X113653333Y-53123994D02*
X113872381Y-53209708D01*
X113872381Y-53209708D02*
X113981905Y-53295422D01*
X113981905Y-53295422D02*
X114091428Y-53466851D01*
X114091428Y-53466851D02*
X114091428Y-53638280D01*
X114091428Y-53638280D02*
X113981905Y-53895422D01*
X113981905Y-53895422D02*
X112667619Y-54923994D01*
X112667619Y-54923994D02*
X114091428Y-54923994D01*
X115515238Y-53123994D02*
X115734285Y-53123994D01*
X115734285Y-53123994D02*
X115953333Y-53209708D01*
X115953333Y-53209708D02*
X116062857Y-53295422D01*
X116062857Y-53295422D02*
X116172381Y-53466851D01*
X116172381Y-53466851D02*
X116281904Y-53809708D01*
X116281904Y-53809708D02*
X116281904Y-54238280D01*
X116281904Y-54238280D02*
X116172381Y-54581137D01*
X116172381Y-54581137D02*
X116062857Y-54752565D01*
X116062857Y-54752565D02*
X115953333Y-54838280D01*
X115953333Y-54838280D02*
X115734285Y-54923994D01*
X115734285Y-54923994D02*
X115515238Y-54923994D01*
X115515238Y-54923994D02*
X115296190Y-54838280D01*
X115296190Y-54838280D02*
X115186666Y-54752565D01*
X115186666Y-54752565D02*
X115077143Y-54581137D01*
X115077143Y-54581137D02*
X114967619Y-54238280D01*
X114967619Y-54238280D02*
X114967619Y-53809708D01*
X114967619Y-53809708D02*
X115077143Y-53466851D01*
X115077143Y-53466851D02*
X115186666Y-53295422D01*
X115186666Y-53295422D02*
X115296190Y-53209708D01*
X115296190Y-53209708D02*
X115515238Y-53123994D01*
X117158095Y-53295422D02*
X117267619Y-53209708D01*
X117267619Y-53209708D02*
X117486666Y-53123994D01*
X117486666Y-53123994D02*
X118034285Y-53123994D01*
X118034285Y-53123994D02*
X118253333Y-53209708D01*
X118253333Y-53209708D02*
X118362857Y-53295422D01*
X118362857Y-53295422D02*
X118472380Y-53466851D01*
X118472380Y-53466851D02*
X118472380Y-53638280D01*
X118472380Y-53638280D02*
X118362857Y-53895422D01*
X118362857Y-53895422D02*
X117048571Y-54923994D01*
X117048571Y-54923994D02*
X118472380Y-54923994D01*
D14*
X74340952Y-100374819D02*
X74007619Y-99898628D01*
X73769524Y-100374819D02*
X73769524Y-99374819D01*
X73769524Y-99374819D02*
X74150476Y-99374819D01*
X74150476Y-99374819D02*
X74245714Y-99422438D01*
X74245714Y-99422438D02*
X74293333Y-99470057D01*
X74293333Y-99470057D02*
X74340952Y-99565295D01*
X74340952Y-99565295D02*
X74340952Y-99708152D01*
X74340952Y-99708152D02*
X74293333Y-99803390D01*
X74293333Y-99803390D02*
X74245714Y-99851009D01*
X74245714Y-99851009D02*
X74150476Y-99898628D01*
X74150476Y-99898628D02*
X73769524Y-99898628D01*
X74721905Y-99470057D02*
X74769524Y-99422438D01*
X74769524Y-99422438D02*
X74864762Y-99374819D01*
X74864762Y-99374819D02*
X75102857Y-99374819D01*
X75102857Y-99374819D02*
X75198095Y-99422438D01*
X75198095Y-99422438D02*
X75245714Y-99470057D01*
X75245714Y-99470057D02*
X75293333Y-99565295D01*
X75293333Y-99565295D02*
X75293333Y-99660533D01*
X75293333Y-99660533D02*
X75245714Y-99803390D01*
X75245714Y-99803390D02*
X74674286Y-100374819D01*
X74674286Y-100374819D02*
X75293333Y-100374819D01*
X75912381Y-99374819D02*
X76007619Y-99374819D01*
X76007619Y-99374819D02*
X76102857Y-99422438D01*
X76102857Y-99422438D02*
X76150476Y-99470057D01*
X76150476Y-99470057D02*
X76198095Y-99565295D01*
X76198095Y-99565295D02*
X76245714Y-99755771D01*
X76245714Y-99755771D02*
X76245714Y-99993866D01*
X76245714Y-99993866D02*
X76198095Y-100184342D01*
X76198095Y-100184342D02*
X76150476Y-100279580D01*
X76150476Y-100279580D02*
X76102857Y-100327200D01*
X76102857Y-100327200D02*
X76007619Y-100374819D01*
X76007619Y-100374819D02*
X75912381Y-100374819D01*
X75912381Y-100374819D02*
X75817143Y-100327200D01*
X75817143Y-100327200D02*
X75769524Y-100279580D01*
X75769524Y-100279580D02*
X75721905Y-100184342D01*
X75721905Y-100184342D02*
X75674286Y-99993866D01*
X75674286Y-99993866D02*
X75674286Y-99755771D01*
X75674286Y-99755771D02*
X75721905Y-99565295D01*
X75721905Y-99565295D02*
X75769524Y-99470057D01*
X75769524Y-99470057D02*
X75817143Y-99422438D01*
X75817143Y-99422438D02*
X75912381Y-99374819D01*
X76579048Y-99374819D02*
X77245714Y-99374819D01*
X77245714Y-99374819D02*
X76817143Y-100374819D01*
X74340952Y-96644819D02*
X74007619Y-96168628D01*
X73769524Y-96644819D02*
X73769524Y-95644819D01*
X73769524Y-95644819D02*
X74150476Y-95644819D01*
X74150476Y-95644819D02*
X74245714Y-95692438D01*
X74245714Y-95692438D02*
X74293333Y-95740057D01*
X74293333Y-95740057D02*
X74340952Y-95835295D01*
X74340952Y-95835295D02*
X74340952Y-95978152D01*
X74340952Y-95978152D02*
X74293333Y-96073390D01*
X74293333Y-96073390D02*
X74245714Y-96121009D01*
X74245714Y-96121009D02*
X74150476Y-96168628D01*
X74150476Y-96168628D02*
X73769524Y-96168628D01*
X74721905Y-95740057D02*
X74769524Y-95692438D01*
X74769524Y-95692438D02*
X74864762Y-95644819D01*
X74864762Y-95644819D02*
X75102857Y-95644819D01*
X75102857Y-95644819D02*
X75198095Y-95692438D01*
X75198095Y-95692438D02*
X75245714Y-95740057D01*
X75245714Y-95740057D02*
X75293333Y-95835295D01*
X75293333Y-95835295D02*
X75293333Y-95930533D01*
X75293333Y-95930533D02*
X75245714Y-96073390D01*
X75245714Y-96073390D02*
X74674286Y-96644819D01*
X74674286Y-96644819D02*
X75293333Y-96644819D01*
X75912381Y-95644819D02*
X76007619Y-95644819D01*
X76007619Y-95644819D02*
X76102857Y-95692438D01*
X76102857Y-95692438D02*
X76150476Y-95740057D01*
X76150476Y-95740057D02*
X76198095Y-95835295D01*
X76198095Y-95835295D02*
X76245714Y-96025771D01*
X76245714Y-96025771D02*
X76245714Y-96263866D01*
X76245714Y-96263866D02*
X76198095Y-96454342D01*
X76198095Y-96454342D02*
X76150476Y-96549580D01*
X76150476Y-96549580D02*
X76102857Y-96597200D01*
X76102857Y-96597200D02*
X76007619Y-96644819D01*
X76007619Y-96644819D02*
X75912381Y-96644819D01*
X75912381Y-96644819D02*
X75817143Y-96597200D01*
X75817143Y-96597200D02*
X75769524Y-96549580D01*
X75769524Y-96549580D02*
X75721905Y-96454342D01*
X75721905Y-96454342D02*
X75674286Y-96263866D01*
X75674286Y-96263866D02*
X75674286Y-96025771D01*
X75674286Y-96025771D02*
X75721905Y-95835295D01*
X75721905Y-95835295D02*
X75769524Y-95740057D01*
X75769524Y-95740057D02*
X75817143Y-95692438D01*
X75817143Y-95692438D02*
X75912381Y-95644819D01*
X76721905Y-96644819D02*
X76912381Y-96644819D01*
X76912381Y-96644819D02*
X77007619Y-96597200D01*
X77007619Y-96597200D02*
X77055238Y-96549580D01*
X77055238Y-96549580D02*
X77150476Y-96406723D01*
X77150476Y-96406723D02*
X77198095Y-96216247D01*
X77198095Y-96216247D02*
X77198095Y-95835295D01*
X77198095Y-95835295D02*
X77150476Y-95740057D01*
X77150476Y-95740057D02*
X77102857Y-95692438D01*
X77102857Y-95692438D02*
X77007619Y-95644819D01*
X77007619Y-95644819D02*
X76817143Y-95644819D01*
X76817143Y-95644819D02*
X76721905Y-95692438D01*
X76721905Y-95692438D02*
X76674286Y-95740057D01*
X76674286Y-95740057D02*
X76626667Y-95835295D01*
X76626667Y-95835295D02*
X76626667Y-96073390D01*
X76626667Y-96073390D02*
X76674286Y-96168628D01*
X76674286Y-96168628D02*
X76721905Y-96216247D01*
X76721905Y-96216247D02*
X76817143Y-96263866D01*
X76817143Y-96263866D02*
X77007619Y-96263866D01*
X77007619Y-96263866D02*
X77102857Y-96216247D01*
X77102857Y-96216247D02*
X77150476Y-96168628D01*
X77150476Y-96168628D02*
X77198095Y-96073390D01*
X95330952Y-93654819D02*
X94997619Y-93178628D01*
X94759524Y-93654819D02*
X94759524Y-92654819D01*
X94759524Y-92654819D02*
X95140476Y-92654819D01*
X95140476Y-92654819D02*
X95235714Y-92702438D01*
X95235714Y-92702438D02*
X95283333Y-92750057D01*
X95283333Y-92750057D02*
X95330952Y-92845295D01*
X95330952Y-92845295D02*
X95330952Y-92988152D01*
X95330952Y-92988152D02*
X95283333Y-93083390D01*
X95283333Y-93083390D02*
X95235714Y-93131009D01*
X95235714Y-93131009D02*
X95140476Y-93178628D01*
X95140476Y-93178628D02*
X94759524Y-93178628D01*
X95711905Y-92750057D02*
X95759524Y-92702438D01*
X95759524Y-92702438D02*
X95854762Y-92654819D01*
X95854762Y-92654819D02*
X96092857Y-92654819D01*
X96092857Y-92654819D02*
X96188095Y-92702438D01*
X96188095Y-92702438D02*
X96235714Y-92750057D01*
X96235714Y-92750057D02*
X96283333Y-92845295D01*
X96283333Y-92845295D02*
X96283333Y-92940533D01*
X96283333Y-92940533D02*
X96235714Y-93083390D01*
X96235714Y-93083390D02*
X95664286Y-93654819D01*
X95664286Y-93654819D02*
X96283333Y-93654819D01*
X97235714Y-93654819D02*
X96664286Y-93654819D01*
X96950000Y-93654819D02*
X96950000Y-92654819D01*
X96950000Y-92654819D02*
X96854762Y-92797676D01*
X96854762Y-92797676D02*
X96759524Y-92892914D01*
X96759524Y-92892914D02*
X96664286Y-92940533D01*
X98188095Y-93654819D02*
X97616667Y-93654819D01*
X97902381Y-93654819D02*
X97902381Y-92654819D01*
X97902381Y-92654819D02*
X97807143Y-92797676D01*
X97807143Y-92797676D02*
X97711905Y-92892914D01*
X97711905Y-92892914D02*
X97616667Y-92940533D01*
D13*
X113594286Y-101576851D02*
X113594286Y-102433994D01*
X112827619Y-100633994D02*
X113594286Y-101576851D01*
X113594286Y-101576851D02*
X114360952Y-100633994D01*
X115018096Y-100805422D02*
X115127620Y-100719708D01*
X115127620Y-100719708D02*
X115346667Y-100633994D01*
X115346667Y-100633994D02*
X115894286Y-100633994D01*
X115894286Y-100633994D02*
X116113334Y-100719708D01*
X116113334Y-100719708D02*
X116222858Y-100805422D01*
X116222858Y-100805422D02*
X116332381Y-100976851D01*
X116332381Y-100976851D02*
X116332381Y-101148280D01*
X116332381Y-101148280D02*
X116222858Y-101405422D01*
X116222858Y-101405422D02*
X114908572Y-102433994D01*
X114908572Y-102433994D02*
X116332381Y-102433994D01*
X117756191Y-100633994D02*
X117975238Y-100633994D01*
X117975238Y-100633994D02*
X118194286Y-100719708D01*
X118194286Y-100719708D02*
X118303810Y-100805422D01*
X118303810Y-100805422D02*
X118413334Y-100976851D01*
X118413334Y-100976851D02*
X118522857Y-101319708D01*
X118522857Y-101319708D02*
X118522857Y-101748280D01*
X118522857Y-101748280D02*
X118413334Y-102091137D01*
X118413334Y-102091137D02*
X118303810Y-102262565D01*
X118303810Y-102262565D02*
X118194286Y-102348280D01*
X118194286Y-102348280D02*
X117975238Y-102433994D01*
X117975238Y-102433994D02*
X117756191Y-102433994D01*
X117756191Y-102433994D02*
X117537143Y-102348280D01*
X117537143Y-102348280D02*
X117427619Y-102262565D01*
X117427619Y-102262565D02*
X117318096Y-102091137D01*
X117318096Y-102091137D02*
X117208572Y-101748280D01*
X117208572Y-101748280D02*
X117208572Y-101319708D01*
X117208572Y-101319708D02*
X117318096Y-100976851D01*
X117318096Y-100976851D02*
X117427619Y-100805422D01*
X117427619Y-100805422D02*
X117537143Y-100719708D01*
X117537143Y-100719708D02*
X117756191Y-100633994D01*
X120713333Y-102433994D02*
X119399048Y-102433994D01*
X120056191Y-102433994D02*
X120056191Y-100633994D01*
X120056191Y-100633994D02*
X119837143Y-100891137D01*
X119837143Y-100891137D02*
X119618095Y-101062565D01*
X119618095Y-101062565D02*
X119399048Y-101148280D01*
X53672381Y-44373994D02*
X53672381Y-42573994D01*
X53672381Y-42573994D02*
X54548571Y-42573994D01*
X54548571Y-42573994D02*
X54767619Y-42659708D01*
X54767619Y-42659708D02*
X54877142Y-42745422D01*
X54877142Y-42745422D02*
X54986666Y-42916851D01*
X54986666Y-42916851D02*
X54986666Y-43173994D01*
X54986666Y-43173994D02*
X54877142Y-43345422D01*
X54877142Y-43345422D02*
X54767619Y-43431137D01*
X54767619Y-43431137D02*
X54548571Y-43516851D01*
X54548571Y-43516851D02*
X53672381Y-43516851D01*
X57177142Y-44373994D02*
X55862857Y-44373994D01*
X56520000Y-44373994D02*
X56520000Y-42573994D01*
X56520000Y-42573994D02*
X56300952Y-42831137D01*
X56300952Y-42831137D02*
X56081904Y-43002565D01*
X56081904Y-43002565D02*
X55862857Y-43088280D01*
D14*
X70314819Y-82499047D02*
X69838628Y-82832380D01*
X70314819Y-83070475D02*
X69314819Y-83070475D01*
X69314819Y-83070475D02*
X69314819Y-82689523D01*
X69314819Y-82689523D02*
X69362438Y-82594285D01*
X69362438Y-82594285D02*
X69410057Y-82546666D01*
X69410057Y-82546666D02*
X69505295Y-82499047D01*
X69505295Y-82499047D02*
X69648152Y-82499047D01*
X69648152Y-82499047D02*
X69743390Y-82546666D01*
X69743390Y-82546666D02*
X69791009Y-82594285D01*
X69791009Y-82594285D02*
X69838628Y-82689523D01*
X69838628Y-82689523D02*
X69838628Y-83070475D01*
X69410057Y-82118094D02*
X69362438Y-82070475D01*
X69362438Y-82070475D02*
X69314819Y-81975237D01*
X69314819Y-81975237D02*
X69314819Y-81737142D01*
X69314819Y-81737142D02*
X69362438Y-81641904D01*
X69362438Y-81641904D02*
X69410057Y-81594285D01*
X69410057Y-81594285D02*
X69505295Y-81546666D01*
X69505295Y-81546666D02*
X69600533Y-81546666D01*
X69600533Y-81546666D02*
X69743390Y-81594285D01*
X69743390Y-81594285D02*
X70314819Y-82165713D01*
X70314819Y-82165713D02*
X70314819Y-81546666D01*
X69314819Y-80927618D02*
X69314819Y-80832380D01*
X69314819Y-80832380D02*
X69362438Y-80737142D01*
X69362438Y-80737142D02*
X69410057Y-80689523D01*
X69410057Y-80689523D02*
X69505295Y-80641904D01*
X69505295Y-80641904D02*
X69695771Y-80594285D01*
X69695771Y-80594285D02*
X69933866Y-80594285D01*
X69933866Y-80594285D02*
X70124342Y-80641904D01*
X70124342Y-80641904D02*
X70219580Y-80689523D01*
X70219580Y-80689523D02*
X70267200Y-80737142D01*
X70267200Y-80737142D02*
X70314819Y-80832380D01*
X70314819Y-80832380D02*
X70314819Y-80927618D01*
X70314819Y-80927618D02*
X70267200Y-81022856D01*
X70267200Y-81022856D02*
X70219580Y-81070475D01*
X70219580Y-81070475D02*
X70124342Y-81118094D01*
X70124342Y-81118094D02*
X69933866Y-81165713D01*
X69933866Y-81165713D02*
X69695771Y-81165713D01*
X69695771Y-81165713D02*
X69505295Y-81118094D01*
X69505295Y-81118094D02*
X69410057Y-81070475D01*
X69410057Y-81070475D02*
X69362438Y-81022856D01*
X69362438Y-81022856D02*
X69314819Y-80927618D01*
X69410057Y-80213332D02*
X69362438Y-80165713D01*
X69362438Y-80165713D02*
X69314819Y-80070475D01*
X69314819Y-80070475D02*
X69314819Y-79832380D01*
X69314819Y-79832380D02*
X69362438Y-79737142D01*
X69362438Y-79737142D02*
X69410057Y-79689523D01*
X69410057Y-79689523D02*
X69505295Y-79641904D01*
X69505295Y-79641904D02*
X69600533Y-79641904D01*
X69600533Y-79641904D02*
X69743390Y-79689523D01*
X69743390Y-79689523D02*
X70314819Y-80260951D01*
X70314819Y-80260951D02*
X70314819Y-79641904D01*
X74024819Y-82499047D02*
X73548628Y-82832380D01*
X74024819Y-83070475D02*
X73024819Y-83070475D01*
X73024819Y-83070475D02*
X73024819Y-82689523D01*
X73024819Y-82689523D02*
X73072438Y-82594285D01*
X73072438Y-82594285D02*
X73120057Y-82546666D01*
X73120057Y-82546666D02*
X73215295Y-82499047D01*
X73215295Y-82499047D02*
X73358152Y-82499047D01*
X73358152Y-82499047D02*
X73453390Y-82546666D01*
X73453390Y-82546666D02*
X73501009Y-82594285D01*
X73501009Y-82594285D02*
X73548628Y-82689523D01*
X73548628Y-82689523D02*
X73548628Y-83070475D01*
X73120057Y-82118094D02*
X73072438Y-82070475D01*
X73072438Y-82070475D02*
X73024819Y-81975237D01*
X73024819Y-81975237D02*
X73024819Y-81737142D01*
X73024819Y-81737142D02*
X73072438Y-81641904D01*
X73072438Y-81641904D02*
X73120057Y-81594285D01*
X73120057Y-81594285D02*
X73215295Y-81546666D01*
X73215295Y-81546666D02*
X73310533Y-81546666D01*
X73310533Y-81546666D02*
X73453390Y-81594285D01*
X73453390Y-81594285D02*
X74024819Y-82165713D01*
X74024819Y-82165713D02*
X74024819Y-81546666D01*
X73024819Y-80927618D02*
X73024819Y-80832380D01*
X73024819Y-80832380D02*
X73072438Y-80737142D01*
X73072438Y-80737142D02*
X73120057Y-80689523D01*
X73120057Y-80689523D02*
X73215295Y-80641904D01*
X73215295Y-80641904D02*
X73405771Y-80594285D01*
X73405771Y-80594285D02*
X73643866Y-80594285D01*
X73643866Y-80594285D02*
X73834342Y-80641904D01*
X73834342Y-80641904D02*
X73929580Y-80689523D01*
X73929580Y-80689523D02*
X73977200Y-80737142D01*
X73977200Y-80737142D02*
X74024819Y-80832380D01*
X74024819Y-80832380D02*
X74024819Y-80927618D01*
X74024819Y-80927618D02*
X73977200Y-81022856D01*
X73977200Y-81022856D02*
X73929580Y-81070475D01*
X73929580Y-81070475D02*
X73834342Y-81118094D01*
X73834342Y-81118094D02*
X73643866Y-81165713D01*
X73643866Y-81165713D02*
X73405771Y-81165713D01*
X73405771Y-81165713D02*
X73215295Y-81118094D01*
X73215295Y-81118094D02*
X73120057Y-81070475D01*
X73120057Y-81070475D02*
X73072438Y-81022856D01*
X73072438Y-81022856D02*
X73024819Y-80927618D01*
X73024819Y-80260951D02*
X73024819Y-79641904D01*
X73024819Y-79641904D02*
X73405771Y-79975237D01*
X73405771Y-79975237D02*
X73405771Y-79832380D01*
X73405771Y-79832380D02*
X73453390Y-79737142D01*
X73453390Y-79737142D02*
X73501009Y-79689523D01*
X73501009Y-79689523D02*
X73596247Y-79641904D01*
X73596247Y-79641904D02*
X73834342Y-79641904D01*
X73834342Y-79641904D02*
X73929580Y-79689523D01*
X73929580Y-79689523D02*
X73977200Y-79737142D01*
X73977200Y-79737142D02*
X74024819Y-79832380D01*
X74024819Y-79832380D02*
X74024819Y-80118094D01*
X74024819Y-80118094D02*
X73977200Y-80213332D01*
X73977200Y-80213332D02*
X73929580Y-80260951D01*
D13*
X53627143Y-54373994D02*
X53627143Y-52573994D01*
X53627143Y-52573994D02*
X54941428Y-54373994D01*
X54941428Y-54373994D02*
X54941428Y-52573994D01*
X57350952Y-54373994D02*
X56584286Y-53516851D01*
X56036667Y-54373994D02*
X56036667Y-52573994D01*
X56036667Y-52573994D02*
X56912857Y-52573994D01*
X56912857Y-52573994D02*
X57131905Y-52659708D01*
X57131905Y-52659708D02*
X57241428Y-52745422D01*
X57241428Y-52745422D02*
X57350952Y-52916851D01*
X57350952Y-52916851D02*
X57350952Y-53173994D01*
X57350952Y-53173994D02*
X57241428Y-53345422D01*
X57241428Y-53345422D02*
X57131905Y-53431137D01*
X57131905Y-53431137D02*
X56912857Y-53516851D01*
X56912857Y-53516851D02*
X56036667Y-53516851D01*
X58227143Y-52745422D02*
X58336667Y-52659708D01*
X58336667Y-52659708D02*
X58555714Y-52573994D01*
X58555714Y-52573994D02*
X59103333Y-52573994D01*
X59103333Y-52573994D02*
X59322381Y-52659708D01*
X59322381Y-52659708D02*
X59431905Y-52745422D01*
X59431905Y-52745422D02*
X59541428Y-52916851D01*
X59541428Y-52916851D02*
X59541428Y-53088280D01*
X59541428Y-53088280D02*
X59431905Y-53345422D01*
X59431905Y-53345422D02*
X58117619Y-54373994D01*
X58117619Y-54373994D02*
X59541428Y-54373994D01*
X60965238Y-52573994D02*
X61184285Y-52573994D01*
X61184285Y-52573994D02*
X61403333Y-52659708D01*
X61403333Y-52659708D02*
X61512857Y-52745422D01*
X61512857Y-52745422D02*
X61622381Y-52916851D01*
X61622381Y-52916851D02*
X61731904Y-53259708D01*
X61731904Y-53259708D02*
X61731904Y-53688280D01*
X61731904Y-53688280D02*
X61622381Y-54031137D01*
X61622381Y-54031137D02*
X61512857Y-54202565D01*
X61512857Y-54202565D02*
X61403333Y-54288280D01*
X61403333Y-54288280D02*
X61184285Y-54373994D01*
X61184285Y-54373994D02*
X60965238Y-54373994D01*
X60965238Y-54373994D02*
X60746190Y-54288280D01*
X60746190Y-54288280D02*
X60636666Y-54202565D01*
X60636666Y-54202565D02*
X60527143Y-54031137D01*
X60527143Y-54031137D02*
X60417619Y-53688280D01*
X60417619Y-53688280D02*
X60417619Y-53259708D01*
X60417619Y-53259708D02*
X60527143Y-52916851D01*
X60527143Y-52916851D02*
X60636666Y-52745422D01*
X60636666Y-52745422D02*
X60746190Y-52659708D01*
X60746190Y-52659708D02*
X60965238Y-52573994D01*
X63922380Y-54373994D02*
X62608095Y-54373994D01*
X63265238Y-54373994D02*
X63265238Y-52573994D01*
X63265238Y-52573994D02*
X63046190Y-52831137D01*
X63046190Y-52831137D02*
X62827142Y-53002565D01*
X62827142Y-53002565D02*
X62608095Y-53088280D01*
D12*
X99267618Y-96789240D02*
X99226666Y-96830193D01*
X99226666Y-96830193D02*
X99103808Y-96871145D01*
X99103808Y-96871145D02*
X99021904Y-96871145D01*
X99021904Y-96871145D02*
X98899047Y-96830193D01*
X98899047Y-96830193D02*
X98817142Y-96748288D01*
X98817142Y-96748288D02*
X98776189Y-96666383D01*
X98776189Y-96666383D02*
X98735237Y-96502573D01*
X98735237Y-96502573D02*
X98735237Y-96379716D01*
X98735237Y-96379716D02*
X98776189Y-96215907D01*
X98776189Y-96215907D02*
X98817142Y-96134002D01*
X98817142Y-96134002D02*
X98899047Y-96052097D01*
X98899047Y-96052097D02*
X99021904Y-96011145D01*
X99021904Y-96011145D02*
X99103808Y-96011145D01*
X99103808Y-96011145D02*
X99226666Y-96052097D01*
X99226666Y-96052097D02*
X99267618Y-96093050D01*
X99595237Y-96093050D02*
X99636189Y-96052097D01*
X99636189Y-96052097D02*
X99718094Y-96011145D01*
X99718094Y-96011145D02*
X99922856Y-96011145D01*
X99922856Y-96011145D02*
X100004761Y-96052097D01*
X100004761Y-96052097D02*
X100045713Y-96093050D01*
X100045713Y-96093050D02*
X100086666Y-96174954D01*
X100086666Y-96174954D02*
X100086666Y-96256859D01*
X100086666Y-96256859D02*
X100045713Y-96379716D01*
X100045713Y-96379716D02*
X99554285Y-96871145D01*
X99554285Y-96871145D02*
X100086666Y-96871145D01*
X100619047Y-96011145D02*
X100700952Y-96011145D01*
X100700952Y-96011145D02*
X100782856Y-96052097D01*
X100782856Y-96052097D02*
X100823809Y-96093050D01*
X100823809Y-96093050D02*
X100864761Y-96174954D01*
X100864761Y-96174954D02*
X100905714Y-96338764D01*
X100905714Y-96338764D02*
X100905714Y-96543526D01*
X100905714Y-96543526D02*
X100864761Y-96707335D01*
X100864761Y-96707335D02*
X100823809Y-96789240D01*
X100823809Y-96789240D02*
X100782856Y-96830193D01*
X100782856Y-96830193D02*
X100700952Y-96871145D01*
X100700952Y-96871145D02*
X100619047Y-96871145D01*
X100619047Y-96871145D02*
X100537142Y-96830193D01*
X100537142Y-96830193D02*
X100496190Y-96789240D01*
X100496190Y-96789240D02*
X100455237Y-96707335D01*
X100455237Y-96707335D02*
X100414285Y-96543526D01*
X100414285Y-96543526D02*
X100414285Y-96338764D01*
X100414285Y-96338764D02*
X100455237Y-96174954D01*
X100455237Y-96174954D02*
X100496190Y-96093050D01*
X100496190Y-96093050D02*
X100537142Y-96052097D01*
X100537142Y-96052097D02*
X100619047Y-96011145D01*
X101724762Y-96871145D02*
X101233333Y-96871145D01*
X101479047Y-96871145D02*
X101479047Y-96011145D01*
X101479047Y-96011145D02*
X101397143Y-96134002D01*
X101397143Y-96134002D02*
X101315238Y-96215907D01*
X101315238Y-96215907D02*
X101233333Y-96256859D01*
D14*
X95330952Y-102734819D02*
X94997619Y-102258628D01*
X94759524Y-102734819D02*
X94759524Y-101734819D01*
X94759524Y-101734819D02*
X95140476Y-101734819D01*
X95140476Y-101734819D02*
X95235714Y-101782438D01*
X95235714Y-101782438D02*
X95283333Y-101830057D01*
X95283333Y-101830057D02*
X95330952Y-101925295D01*
X95330952Y-101925295D02*
X95330952Y-102068152D01*
X95330952Y-102068152D02*
X95283333Y-102163390D01*
X95283333Y-102163390D02*
X95235714Y-102211009D01*
X95235714Y-102211009D02*
X95140476Y-102258628D01*
X95140476Y-102258628D02*
X94759524Y-102258628D01*
X95711905Y-101830057D02*
X95759524Y-101782438D01*
X95759524Y-101782438D02*
X95854762Y-101734819D01*
X95854762Y-101734819D02*
X96092857Y-101734819D01*
X96092857Y-101734819D02*
X96188095Y-101782438D01*
X96188095Y-101782438D02*
X96235714Y-101830057D01*
X96235714Y-101830057D02*
X96283333Y-101925295D01*
X96283333Y-101925295D02*
X96283333Y-102020533D01*
X96283333Y-102020533D02*
X96235714Y-102163390D01*
X96235714Y-102163390D02*
X95664286Y-102734819D01*
X95664286Y-102734819D02*
X96283333Y-102734819D01*
X97235714Y-102734819D02*
X96664286Y-102734819D01*
X96950000Y-102734819D02*
X96950000Y-101734819D01*
X96950000Y-101734819D02*
X96854762Y-101877676D01*
X96854762Y-101877676D02*
X96759524Y-101972914D01*
X96759524Y-101972914D02*
X96664286Y-102020533D01*
X97616667Y-101830057D02*
X97664286Y-101782438D01*
X97664286Y-101782438D02*
X97759524Y-101734819D01*
X97759524Y-101734819D02*
X97997619Y-101734819D01*
X97997619Y-101734819D02*
X98092857Y-101782438D01*
X98092857Y-101782438D02*
X98140476Y-101830057D01*
X98140476Y-101830057D02*
X98188095Y-101925295D01*
X98188095Y-101925295D02*
X98188095Y-102020533D01*
X98188095Y-102020533D02*
X98140476Y-102163390D01*
X98140476Y-102163390D02*
X97569048Y-102734819D01*
X97569048Y-102734819D02*
X98188095Y-102734819D01*
X66544819Y-97379047D02*
X66068628Y-97712380D01*
X66544819Y-97950475D02*
X65544819Y-97950475D01*
X65544819Y-97950475D02*
X65544819Y-97569523D01*
X65544819Y-97569523D02*
X65592438Y-97474285D01*
X65592438Y-97474285D02*
X65640057Y-97426666D01*
X65640057Y-97426666D02*
X65735295Y-97379047D01*
X65735295Y-97379047D02*
X65878152Y-97379047D01*
X65878152Y-97379047D02*
X65973390Y-97426666D01*
X65973390Y-97426666D02*
X66021009Y-97474285D01*
X66021009Y-97474285D02*
X66068628Y-97569523D01*
X66068628Y-97569523D02*
X66068628Y-97950475D01*
X65640057Y-96998094D02*
X65592438Y-96950475D01*
X65592438Y-96950475D02*
X65544819Y-96855237D01*
X65544819Y-96855237D02*
X65544819Y-96617142D01*
X65544819Y-96617142D02*
X65592438Y-96521904D01*
X65592438Y-96521904D02*
X65640057Y-96474285D01*
X65640057Y-96474285D02*
X65735295Y-96426666D01*
X65735295Y-96426666D02*
X65830533Y-96426666D01*
X65830533Y-96426666D02*
X65973390Y-96474285D01*
X65973390Y-96474285D02*
X66544819Y-97045713D01*
X66544819Y-97045713D02*
X66544819Y-96426666D01*
X65544819Y-95807618D02*
X65544819Y-95712380D01*
X65544819Y-95712380D02*
X65592438Y-95617142D01*
X65592438Y-95617142D02*
X65640057Y-95569523D01*
X65640057Y-95569523D02*
X65735295Y-95521904D01*
X65735295Y-95521904D02*
X65925771Y-95474285D01*
X65925771Y-95474285D02*
X66163866Y-95474285D01*
X66163866Y-95474285D02*
X66354342Y-95521904D01*
X66354342Y-95521904D02*
X66449580Y-95569523D01*
X66449580Y-95569523D02*
X66497200Y-95617142D01*
X66497200Y-95617142D02*
X66544819Y-95712380D01*
X66544819Y-95712380D02*
X66544819Y-95807618D01*
X66544819Y-95807618D02*
X66497200Y-95902856D01*
X66497200Y-95902856D02*
X66449580Y-95950475D01*
X66449580Y-95950475D02*
X66354342Y-95998094D01*
X66354342Y-95998094D02*
X66163866Y-96045713D01*
X66163866Y-96045713D02*
X65925771Y-96045713D01*
X65925771Y-96045713D02*
X65735295Y-95998094D01*
X65735295Y-95998094D02*
X65640057Y-95950475D01*
X65640057Y-95950475D02*
X65592438Y-95902856D01*
X65592438Y-95902856D02*
X65544819Y-95807618D01*
X65544819Y-94569523D02*
X65544819Y-95045713D01*
X65544819Y-95045713D02*
X66021009Y-95093332D01*
X66021009Y-95093332D02*
X65973390Y-95045713D01*
X65973390Y-95045713D02*
X65925771Y-94950475D01*
X65925771Y-94950475D02*
X65925771Y-94712380D01*
X65925771Y-94712380D02*
X65973390Y-94617142D01*
X65973390Y-94617142D02*
X66021009Y-94569523D01*
X66021009Y-94569523D02*
X66116247Y-94521904D01*
X66116247Y-94521904D02*
X66354342Y-94521904D01*
X66354342Y-94521904D02*
X66449580Y-94569523D01*
X66449580Y-94569523D02*
X66497200Y-94617142D01*
X66497200Y-94617142D02*
X66544819Y-94712380D01*
X66544819Y-94712380D02*
X66544819Y-94950475D01*
X66544819Y-94950475D02*
X66497200Y-95045713D01*
X66497200Y-95045713D02*
X66449580Y-95093332D01*
D13*
X99559643Y-78353994D02*
X99559643Y-79811137D01*
X99559643Y-79811137D02*
X99669166Y-79982565D01*
X99669166Y-79982565D02*
X99778690Y-80068280D01*
X99778690Y-80068280D02*
X99997738Y-80153994D01*
X99997738Y-80153994D02*
X100435833Y-80153994D01*
X100435833Y-80153994D02*
X100654881Y-80068280D01*
X100654881Y-80068280D02*
X100764404Y-79982565D01*
X100764404Y-79982565D02*
X100873928Y-79811137D01*
X100873928Y-79811137D02*
X100873928Y-78353994D01*
X101859643Y-78525422D02*
X101969167Y-78439708D01*
X101969167Y-78439708D02*
X102188214Y-78353994D01*
X102188214Y-78353994D02*
X102735833Y-78353994D01*
X102735833Y-78353994D02*
X102954881Y-78439708D01*
X102954881Y-78439708D02*
X103064405Y-78525422D01*
X103064405Y-78525422D02*
X103173928Y-78696851D01*
X103173928Y-78696851D02*
X103173928Y-78868280D01*
X103173928Y-78868280D02*
X103064405Y-79125422D01*
X103064405Y-79125422D02*
X101750119Y-80153994D01*
X101750119Y-80153994D02*
X103173928Y-80153994D01*
X104597738Y-78353994D02*
X104816785Y-78353994D01*
X104816785Y-78353994D02*
X105035833Y-78439708D01*
X105035833Y-78439708D02*
X105145357Y-78525422D01*
X105145357Y-78525422D02*
X105254881Y-78696851D01*
X105254881Y-78696851D02*
X105364404Y-79039708D01*
X105364404Y-79039708D02*
X105364404Y-79468280D01*
X105364404Y-79468280D02*
X105254881Y-79811137D01*
X105254881Y-79811137D02*
X105145357Y-79982565D01*
X105145357Y-79982565D02*
X105035833Y-80068280D01*
X105035833Y-80068280D02*
X104816785Y-80153994D01*
X104816785Y-80153994D02*
X104597738Y-80153994D01*
X104597738Y-80153994D02*
X104378690Y-80068280D01*
X104378690Y-80068280D02*
X104269166Y-79982565D01*
X104269166Y-79982565D02*
X104159643Y-79811137D01*
X104159643Y-79811137D02*
X104050119Y-79468280D01*
X104050119Y-79468280D02*
X104050119Y-79039708D01*
X104050119Y-79039708D02*
X104159643Y-78696851D01*
X104159643Y-78696851D02*
X104269166Y-78525422D01*
X104269166Y-78525422D02*
X104378690Y-78439708D01*
X104378690Y-78439708D02*
X104597738Y-78353994D01*
X107335833Y-78953994D02*
X107335833Y-80153994D01*
X106788214Y-78268280D02*
X106240595Y-79553994D01*
X106240595Y-79553994D02*
X107664404Y-79553994D01*
X106267143Y-62463994D02*
X106267143Y-63921137D01*
X106267143Y-63921137D02*
X106376666Y-64092565D01*
X106376666Y-64092565D02*
X106486190Y-64178280D01*
X106486190Y-64178280D02*
X106705238Y-64263994D01*
X106705238Y-64263994D02*
X107143333Y-64263994D01*
X107143333Y-64263994D02*
X107362381Y-64178280D01*
X107362381Y-64178280D02*
X107471904Y-64092565D01*
X107471904Y-64092565D02*
X107581428Y-63921137D01*
X107581428Y-63921137D02*
X107581428Y-62463994D01*
X108567143Y-62635422D02*
X108676667Y-62549708D01*
X108676667Y-62549708D02*
X108895714Y-62463994D01*
X108895714Y-62463994D02*
X109443333Y-62463994D01*
X109443333Y-62463994D02*
X109662381Y-62549708D01*
X109662381Y-62549708D02*
X109771905Y-62635422D01*
X109771905Y-62635422D02*
X109881428Y-62806851D01*
X109881428Y-62806851D02*
X109881428Y-62978280D01*
X109881428Y-62978280D02*
X109771905Y-63235422D01*
X109771905Y-63235422D02*
X108457619Y-64263994D01*
X108457619Y-64263994D02*
X109881428Y-64263994D01*
X111305238Y-62463994D02*
X111524285Y-62463994D01*
X111524285Y-62463994D02*
X111743333Y-62549708D01*
X111743333Y-62549708D02*
X111852857Y-62635422D01*
X111852857Y-62635422D02*
X111962381Y-62806851D01*
X111962381Y-62806851D02*
X112071904Y-63149708D01*
X112071904Y-63149708D02*
X112071904Y-63578280D01*
X112071904Y-63578280D02*
X111962381Y-63921137D01*
X111962381Y-63921137D02*
X111852857Y-64092565D01*
X111852857Y-64092565D02*
X111743333Y-64178280D01*
X111743333Y-64178280D02*
X111524285Y-64263994D01*
X111524285Y-64263994D02*
X111305238Y-64263994D01*
X111305238Y-64263994D02*
X111086190Y-64178280D01*
X111086190Y-64178280D02*
X110976666Y-64092565D01*
X110976666Y-64092565D02*
X110867143Y-63921137D01*
X110867143Y-63921137D02*
X110757619Y-63578280D01*
X110757619Y-63578280D02*
X110757619Y-63149708D01*
X110757619Y-63149708D02*
X110867143Y-62806851D01*
X110867143Y-62806851D02*
X110976666Y-62635422D01*
X110976666Y-62635422D02*
X111086190Y-62549708D01*
X111086190Y-62549708D02*
X111305238Y-62463994D01*
X114262380Y-64263994D02*
X112948095Y-64263994D01*
X113605238Y-64263994D02*
X113605238Y-62463994D01*
X113605238Y-62463994D02*
X113386190Y-62721137D01*
X113386190Y-62721137D02*
X113167142Y-62892565D01*
X113167142Y-62892565D02*
X112948095Y-62978280D01*
D14*
X74340952Y-92924819D02*
X74007619Y-92448628D01*
X73769524Y-92924819D02*
X73769524Y-91924819D01*
X73769524Y-91924819D02*
X74150476Y-91924819D01*
X74150476Y-91924819D02*
X74245714Y-91972438D01*
X74245714Y-91972438D02*
X74293333Y-92020057D01*
X74293333Y-92020057D02*
X74340952Y-92115295D01*
X74340952Y-92115295D02*
X74340952Y-92258152D01*
X74340952Y-92258152D02*
X74293333Y-92353390D01*
X74293333Y-92353390D02*
X74245714Y-92401009D01*
X74245714Y-92401009D02*
X74150476Y-92448628D01*
X74150476Y-92448628D02*
X73769524Y-92448628D01*
X74721905Y-92020057D02*
X74769524Y-91972438D01*
X74769524Y-91972438D02*
X74864762Y-91924819D01*
X74864762Y-91924819D02*
X75102857Y-91924819D01*
X75102857Y-91924819D02*
X75198095Y-91972438D01*
X75198095Y-91972438D02*
X75245714Y-92020057D01*
X75245714Y-92020057D02*
X75293333Y-92115295D01*
X75293333Y-92115295D02*
X75293333Y-92210533D01*
X75293333Y-92210533D02*
X75245714Y-92353390D01*
X75245714Y-92353390D02*
X74674286Y-92924819D01*
X74674286Y-92924819D02*
X75293333Y-92924819D01*
X76245714Y-92924819D02*
X75674286Y-92924819D01*
X75960000Y-92924819D02*
X75960000Y-91924819D01*
X75960000Y-91924819D02*
X75864762Y-92067676D01*
X75864762Y-92067676D02*
X75769524Y-92162914D01*
X75769524Y-92162914D02*
X75674286Y-92210533D01*
X76864762Y-91924819D02*
X76960000Y-91924819D01*
X76960000Y-91924819D02*
X77055238Y-91972438D01*
X77055238Y-91972438D02*
X77102857Y-92020057D01*
X77102857Y-92020057D02*
X77150476Y-92115295D01*
X77150476Y-92115295D02*
X77198095Y-92305771D01*
X77198095Y-92305771D02*
X77198095Y-92543866D01*
X77198095Y-92543866D02*
X77150476Y-92734342D01*
X77150476Y-92734342D02*
X77102857Y-92829580D01*
X77102857Y-92829580D02*
X77055238Y-92877200D01*
X77055238Y-92877200D02*
X76960000Y-92924819D01*
X76960000Y-92924819D02*
X76864762Y-92924819D01*
X76864762Y-92924819D02*
X76769524Y-92877200D01*
X76769524Y-92877200D02*
X76721905Y-92829580D01*
X76721905Y-92829580D02*
X76674286Y-92734342D01*
X76674286Y-92734342D02*
X76626667Y-92543866D01*
X76626667Y-92543866D02*
X76626667Y-92305771D01*
X76626667Y-92305771D02*
X76674286Y-92115295D01*
X76674286Y-92115295D02*
X76721905Y-92020057D01*
X76721905Y-92020057D02*
X76769524Y-91972438D01*
X76769524Y-91972438D02*
X76864762Y-91924819D01*
D13*
X78179643Y-78353994D02*
X78179643Y-79811137D01*
X78179643Y-79811137D02*
X78289166Y-79982565D01*
X78289166Y-79982565D02*
X78398690Y-80068280D01*
X78398690Y-80068280D02*
X78617738Y-80153994D01*
X78617738Y-80153994D02*
X79055833Y-80153994D01*
X79055833Y-80153994D02*
X79274881Y-80068280D01*
X79274881Y-80068280D02*
X79384404Y-79982565D01*
X79384404Y-79982565D02*
X79493928Y-79811137D01*
X79493928Y-79811137D02*
X79493928Y-78353994D01*
X80479643Y-78525422D02*
X80589167Y-78439708D01*
X80589167Y-78439708D02*
X80808214Y-78353994D01*
X80808214Y-78353994D02*
X81355833Y-78353994D01*
X81355833Y-78353994D02*
X81574881Y-78439708D01*
X81574881Y-78439708D02*
X81684405Y-78525422D01*
X81684405Y-78525422D02*
X81793928Y-78696851D01*
X81793928Y-78696851D02*
X81793928Y-78868280D01*
X81793928Y-78868280D02*
X81684405Y-79125422D01*
X81684405Y-79125422D02*
X80370119Y-80153994D01*
X80370119Y-80153994D02*
X81793928Y-80153994D01*
X83217738Y-78353994D02*
X83436785Y-78353994D01*
X83436785Y-78353994D02*
X83655833Y-78439708D01*
X83655833Y-78439708D02*
X83765357Y-78525422D01*
X83765357Y-78525422D02*
X83874881Y-78696851D01*
X83874881Y-78696851D02*
X83984404Y-79039708D01*
X83984404Y-79039708D02*
X83984404Y-79468280D01*
X83984404Y-79468280D02*
X83874881Y-79811137D01*
X83874881Y-79811137D02*
X83765357Y-79982565D01*
X83765357Y-79982565D02*
X83655833Y-80068280D01*
X83655833Y-80068280D02*
X83436785Y-80153994D01*
X83436785Y-80153994D02*
X83217738Y-80153994D01*
X83217738Y-80153994D02*
X82998690Y-80068280D01*
X82998690Y-80068280D02*
X82889166Y-79982565D01*
X82889166Y-79982565D02*
X82779643Y-79811137D01*
X82779643Y-79811137D02*
X82670119Y-79468280D01*
X82670119Y-79468280D02*
X82670119Y-79039708D01*
X82670119Y-79039708D02*
X82779643Y-78696851D01*
X82779643Y-78696851D02*
X82889166Y-78525422D01*
X82889166Y-78525422D02*
X82998690Y-78439708D01*
X82998690Y-78439708D02*
X83217738Y-78353994D01*
X84751071Y-78353994D02*
X86174880Y-78353994D01*
X86174880Y-78353994D02*
X85408214Y-79039708D01*
X85408214Y-79039708D02*
X85736785Y-79039708D01*
X85736785Y-79039708D02*
X85955833Y-79125422D01*
X85955833Y-79125422D02*
X86065357Y-79211137D01*
X86065357Y-79211137D02*
X86174880Y-79382565D01*
X86174880Y-79382565D02*
X86174880Y-79811137D01*
X86174880Y-79811137D02*
X86065357Y-79982565D01*
X86065357Y-79982565D02*
X85955833Y-80068280D01*
X85955833Y-80068280D02*
X85736785Y-80153994D01*
X85736785Y-80153994D02*
X85079642Y-80153994D01*
X85079642Y-80153994D02*
X84860595Y-80068280D01*
X84860595Y-80068280D02*
X84751071Y-79982565D01*
%TO.C,C204*%
D10*
X75990000Y-88950000D02*
X78030000Y-88950000D01*
X78030000Y-81910000D01*
X75990000Y-81910000D01*
X75990000Y-88950000D01*
%TO.C,C203*%
X119660000Y-88950000D02*
X121700000Y-88950000D01*
X121700000Y-81910000D01*
X119660000Y-81910000D01*
X119660000Y-88950000D01*
%TO.C,J201*%
X51590000Y-89602500D02*
X51590000Y-91302500D01*
X51590000Y-91302500D02*
X50790000Y-91302500D01*
X51590000Y-100302500D02*
X50790000Y-100302500D01*
X51590000Y-100302500D02*
X51590000Y-102002500D01*
X62590000Y-89602500D02*
X51590000Y-89602500D01*
X62590000Y-89602500D02*
X62590000Y-102002500D01*
X62590000Y-102002500D02*
X51590000Y-102002500D01*
D15*
X55260000Y-89002500D02*
G75*
G02*
X54920000Y-89002500I-170000J0D01*
G01*
X54920000Y-89002500D02*
G75*
G02*
X55260000Y-89002500I170000J0D01*
G01*
%TO.C,C202*%
D10*
X96710000Y-97910000D02*
X103750000Y-97910000D01*
X103750000Y-99950000D01*
X96710000Y-99950000D01*
X96710000Y-97910000D01*
%TO.C,P2*%
X57316000Y-46681500D02*
X58606000Y-47971500D01*
X57316000Y-50536500D02*
X58606000Y-49246500D01*
X58086000Y-45911500D02*
X57316000Y-46681500D01*
X58086000Y-51306500D02*
X57316000Y-50536500D01*
X58606000Y-49246500D02*
X58606000Y-47971500D01*
X101136000Y-45911500D02*
X58086000Y-45911500D01*
X101136000Y-45911500D02*
X108416000Y-45911500D01*
X101136000Y-51306500D02*
X58086000Y-51306500D01*
X101136000Y-51306500D02*
X108416000Y-51306500D01*
X108416000Y-45911500D02*
X109283500Y-46779000D01*
X108416000Y-51306500D02*
X109283500Y-50439000D01*
X109283500Y-46779000D02*
X109283500Y-50439000D01*
%TO.C,R201*%
X64790000Y-83910000D02*
X64790000Y-78890000D01*
X66070000Y-75070000D02*
X66070000Y-77610000D01*
X66070000Y-77610000D02*
X64790000Y-78890000D01*
X66070000Y-77610000D02*
X67350000Y-78890000D01*
X66070000Y-85190000D02*
X64790000Y-83910000D01*
X66070000Y-85190000D02*
X67350000Y-83910000D01*
D16*
X66070000Y-86690000D02*
X66070000Y-86000000D01*
D10*
X66070000Y-87730000D02*
X66070000Y-85190000D01*
X67350000Y-83910000D02*
X67350000Y-78890000D01*
D11*
X66710000Y-78250000D02*
X65430000Y-78250000D01*
X66070000Y-77610000D01*
X66710000Y-78250000D01*
G36*
X66710000Y-78250000D02*
G01*
X65430000Y-78250000D01*
X66070000Y-77610000D01*
X66710000Y-78250000D01*
G37*
X66070000Y-85190000D02*
X65430000Y-84550000D01*
X66710000Y-84550000D01*
X66070000Y-85190000D01*
G36*
X66070000Y-85190000D02*
G01*
X65430000Y-84550000D01*
X66710000Y-84550000D01*
X66070000Y-85190000D01*
G37*
D10*
%TO.C,U202*%
X67230000Y-55700000D02*
X67230000Y-73600000D01*
X67230000Y-73600000D02*
X118270000Y-73600000D01*
D16*
X67290000Y-58190000D02*
X67290000Y-71110000D01*
D10*
X67290000Y-71110000D02*
X118210000Y-71110000D01*
X118000000Y-64220000D02*
X118000000Y-65080000D01*
X118210000Y-58190000D02*
X67290000Y-58190000D01*
X118210000Y-58190000D02*
X119200000Y-58190000D01*
X118210000Y-71110000D02*
X119200000Y-71110000D01*
X118270000Y-55700000D02*
X67230000Y-55700000D01*
X118270000Y-55700000D02*
X119200000Y-56630000D01*
X118270000Y-73600000D02*
X119200000Y-72670000D01*
X119200000Y-56630000D02*
X119200000Y-63020000D01*
X119200000Y-63020000D02*
X118000000Y-64220000D01*
X119200000Y-66280000D02*
X118000000Y-65080000D01*
X119200000Y-72670000D02*
X119200000Y-66280000D01*
%TO.C,R207*%
X69150000Y-99920000D02*
X71690000Y-99920000D01*
X71690000Y-99920000D02*
X72970000Y-98640000D01*
X71690000Y-99920000D02*
X72970000Y-101200000D01*
X77990000Y-98640000D02*
X72970000Y-98640000D01*
X77990000Y-101200000D02*
X72970000Y-101200000D01*
X79270000Y-99920000D02*
X77990000Y-98640000D01*
X79270000Y-99920000D02*
X77990000Y-101200000D01*
D16*
X80770000Y-99920000D02*
X80080000Y-99920000D01*
D10*
X81810000Y-99920000D02*
X79270000Y-99920000D01*
D11*
X72330000Y-100560000D02*
X71690000Y-99920000D01*
X72330000Y-99280000D01*
X72330000Y-100560000D01*
G36*
X72330000Y-100560000D02*
G01*
X71690000Y-99920000D01*
X72330000Y-99280000D01*
X72330000Y-100560000D01*
G37*
X79270000Y-99920000D02*
X78630000Y-100560000D01*
X78630000Y-99280000D01*
X79270000Y-99920000D01*
G36*
X79270000Y-99920000D02*
G01*
X78630000Y-100560000D01*
X78630000Y-99280000D01*
X79270000Y-99920000D01*
G37*
D10*
%TO.C,R209*%
X69150000Y-96190000D02*
X71690000Y-96190000D01*
X71690000Y-96190000D02*
X72970000Y-94910000D01*
X71690000Y-96190000D02*
X72970000Y-97470000D01*
X77990000Y-94910000D02*
X72970000Y-94910000D01*
X77990000Y-97470000D02*
X72970000Y-97470000D01*
X79270000Y-96190000D02*
X77990000Y-94910000D01*
X79270000Y-96190000D02*
X77990000Y-97470000D01*
D16*
X80770000Y-96190000D02*
X80080000Y-96190000D01*
D10*
X81810000Y-96190000D02*
X79270000Y-96190000D01*
D11*
X72330000Y-96830000D02*
X71690000Y-96190000D01*
X72330000Y-95550000D01*
X72330000Y-96830000D01*
G36*
X72330000Y-96830000D02*
G01*
X71690000Y-96190000D01*
X72330000Y-95550000D01*
X72330000Y-96830000D01*
G37*
X79270000Y-96190000D02*
X78630000Y-96830000D01*
X78630000Y-95550000D01*
X79270000Y-96190000D01*
G36*
X79270000Y-96190000D02*
G01*
X78630000Y-96830000D01*
X78630000Y-95550000D01*
X79270000Y-96190000D01*
G37*
D10*
%TO.C,R211*%
X90140000Y-93200000D02*
X92680000Y-93200000D01*
X92680000Y-93200000D02*
X93960000Y-91920000D01*
X92680000Y-93200000D02*
X93960000Y-94480000D01*
X98980000Y-91920000D02*
X93960000Y-91920000D01*
X98980000Y-94480000D02*
X93960000Y-94480000D01*
X100260000Y-93200000D02*
X98980000Y-91920000D01*
X100260000Y-93200000D02*
X98980000Y-94480000D01*
D16*
X101760000Y-93200000D02*
X101070000Y-93200000D01*
D10*
X102800000Y-93200000D02*
X100260000Y-93200000D01*
D11*
X93320000Y-93840000D02*
X92680000Y-93200000D01*
X93320000Y-92560000D01*
X93320000Y-93840000D01*
G36*
X93320000Y-93840000D02*
G01*
X92680000Y-93200000D01*
X93320000Y-92560000D01*
X93320000Y-93840000D01*
G37*
X100260000Y-93200000D02*
X99620000Y-93840000D01*
X99620000Y-92560000D01*
X100260000Y-93200000D01*
G36*
X100260000Y-93200000D02*
G01*
X99620000Y-93840000D01*
X99620000Y-92560000D01*
X100260000Y-93200000D01*
G37*
D10*
%TO.C,Y201*%
X105137500Y-95410000D02*
X107887500Y-95410000D01*
X105137500Y-100310000D02*
X107887500Y-100310000D01*
X107887500Y-92330000D02*
X108707500Y-91510000D01*
X107887500Y-95410000D02*
X107887500Y-92330000D01*
X107887500Y-95410000D02*
X107887500Y-100310000D01*
X107887500Y-100310000D02*
X107887500Y-103390000D01*
X107887500Y-103390000D02*
X108707500Y-104210000D01*
X108707500Y-91510000D02*
X109237500Y-92040000D01*
X108707500Y-104210000D02*
X109237500Y-103680000D01*
X109237500Y-92040000D02*
X109237500Y-92800000D01*
X109237500Y-92800000D02*
X109237500Y-102920000D01*
X109237500Y-92800000D02*
X121127500Y-92800000D01*
X109237500Y-102920000D02*
X121127500Y-102920000D01*
X109237500Y-103680000D02*
X109237500Y-102920000D01*
X121127500Y-92800000D02*
X121807500Y-93480000D01*
X121127500Y-102920000D02*
X121807500Y-102240000D01*
X121807500Y-93480000D02*
X121807500Y-102240000D01*
%TO.C,C205*%
X119750000Y-68175000D02*
X121790000Y-68175000D01*
X121790000Y-61135000D01*
X119750000Y-61135000D01*
X119750000Y-68175000D01*
D17*
%TO.C,G\u002A\u002A\u002A*%
G36*
X120353421Y-42661907D02*
G01*
X120369149Y-42661975D01*
X120425699Y-42662470D01*
X120471506Y-42662961D01*
X120508004Y-42663549D01*
X120536629Y-42664333D01*
X120558816Y-42665413D01*
X120576001Y-42666890D01*
X120589618Y-42668862D01*
X120601103Y-42671430D01*
X120611891Y-42674694D01*
X120623418Y-42678753D01*
X120626522Y-42679882D01*
X120669673Y-42697201D01*
X120705767Y-42715912D01*
X120739017Y-42738638D01*
X120773637Y-42768004D01*
X120785054Y-42778628D01*
X120840689Y-42834980D01*
X120886236Y-42889758D01*
X120923210Y-42945093D01*
X120953125Y-43003112D01*
X120965046Y-43031580D01*
X120974147Y-43054734D01*
X120982559Y-43075970D01*
X120987952Y-43089431D01*
X120993373Y-43102930D01*
X120996351Y-43110601D01*
X120996400Y-43110745D01*
X120999491Y-43118356D01*
X121001476Y-43122925D01*
X121004041Y-43130058D01*
X121010183Y-43147804D01*
X121019587Y-43175235D01*
X121031937Y-43211421D01*
X121046917Y-43255435D01*
X121064212Y-43306349D01*
X121083506Y-43363234D01*
X121104484Y-43425163D01*
X121126830Y-43491206D01*
X121148489Y-43555291D01*
X121173112Y-43628152D01*
X121197625Y-43700641D01*
X121221590Y-43771463D01*
X121244567Y-43839321D01*
X121266117Y-43902919D01*
X121285802Y-43960962D01*
X121303180Y-44012153D01*
X121317814Y-44055196D01*
X121329264Y-44088795D01*
X121334549Y-44104250D01*
X121355092Y-44166483D01*
X121370568Y-44219369D01*
X121381101Y-44264577D01*
X121386818Y-44303775D01*
X121387845Y-44338634D01*
X121384306Y-44370823D01*
X121376328Y-44402010D01*
X121364036Y-44433865D01*
X121360019Y-44442742D01*
X121342200Y-44471389D01*
X121315618Y-44501671D01*
X121282969Y-44531102D01*
X121246948Y-44557192D01*
X121218250Y-44573619D01*
X121202977Y-44581306D01*
X121189304Y-44588019D01*
X121176329Y-44593831D01*
X121163146Y-44598819D01*
X121148852Y-44603057D01*
X121132543Y-44606620D01*
X121113315Y-44609585D01*
X121090264Y-44612025D01*
X121062485Y-44614017D01*
X121029076Y-44615635D01*
X120989131Y-44616955D01*
X120941747Y-44618052D01*
X120886021Y-44619000D01*
X120821047Y-44619876D01*
X120745921Y-44620754D01*
X120659741Y-44621710D01*
X120637094Y-44621962D01*
X120579196Y-44622557D01*
X120510138Y-44623179D01*
X120430939Y-44623822D01*
X120342619Y-44624481D01*
X120246198Y-44625148D01*
X120142694Y-44625818D01*
X120033127Y-44626486D01*
X119918516Y-44627145D01*
X119799881Y-44627790D01*
X119678242Y-44628414D01*
X119554617Y-44629012D01*
X119430026Y-44629578D01*
X119305488Y-44630105D01*
X119182023Y-44630589D01*
X119097809Y-44630894D01*
X118954291Y-44631418D01*
X118822605Y-44631945D01*
X118702403Y-44632478D01*
X118593338Y-44633020D01*
X118495062Y-44633576D01*
X118407227Y-44634148D01*
X118329486Y-44634740D01*
X118261491Y-44635355D01*
X118202895Y-44635998D01*
X118153349Y-44636671D01*
X118112507Y-44637377D01*
X118080021Y-44638121D01*
X118055543Y-44638905D01*
X118038726Y-44639734D01*
X118029222Y-44640610D01*
X118026672Y-44641525D01*
X118029467Y-44648376D01*
X118035713Y-44665800D01*
X118045074Y-44692798D01*
X118057210Y-44728369D01*
X118071784Y-44771512D01*
X118088459Y-44821227D01*
X118106897Y-44876512D01*
X118126760Y-44936367D01*
X118147710Y-44999792D01*
X118152091Y-45013091D01*
X118272175Y-45377796D01*
X119433321Y-45375426D01*
X119573099Y-45375144D01*
X119701224Y-45374894D01*
X119818223Y-45374680D01*
X119924623Y-45374507D01*
X120020950Y-45374379D01*
X120107732Y-45374300D01*
X120185495Y-45374274D01*
X120254765Y-45374304D01*
X120316070Y-45374396D01*
X120369936Y-45374552D01*
X120416890Y-45374778D01*
X120457458Y-45375077D01*
X120492168Y-45375453D01*
X120521545Y-45375910D01*
X120546117Y-45376453D01*
X120566410Y-45377085D01*
X120582952Y-45377811D01*
X120596268Y-45378634D01*
X120606886Y-45379559D01*
X120615332Y-45380590D01*
X120622133Y-45381730D01*
X120627815Y-45382984D01*
X120632906Y-45384356D01*
X120634050Y-45384689D01*
X120689332Y-45404965D01*
X120741397Y-45432857D01*
X120792640Y-45469820D01*
X120834065Y-45506345D01*
X120861102Y-45535656D01*
X120888176Y-45572705D01*
X120915739Y-45618311D01*
X120944241Y-45673291D01*
X120974133Y-45738465D01*
X121005866Y-45814650D01*
X121010677Y-45826737D01*
X121025178Y-45863068D01*
X121039310Y-45897956D01*
X121052017Y-45928835D01*
X121062245Y-45953139D01*
X121068243Y-45966799D01*
X121077080Y-45986854D01*
X121088602Y-46014105D01*
X121101070Y-46044400D01*
X121109047Y-46064234D01*
X121119823Y-46090622D01*
X121129545Y-46113165D01*
X121137042Y-46129223D01*
X121140779Y-46135787D01*
X121144262Y-46142297D01*
X121143142Y-46143399D01*
X121143021Y-46147722D01*
X121147890Y-46157101D01*
X121152350Y-46166212D01*
X121160747Y-46185367D01*
X121172562Y-46213274D01*
X121187278Y-46248641D01*
X121204374Y-46290176D01*
X121223332Y-46336589D01*
X121243634Y-46386588D01*
X121264760Y-46438882D01*
X121286192Y-46492178D01*
X121307410Y-46545185D01*
X121327897Y-46596613D01*
X121347133Y-46645168D01*
X121364599Y-46689561D01*
X121379776Y-46728499D01*
X121392146Y-46760691D01*
X121401190Y-46784845D01*
X121406389Y-46799670D01*
X121407322Y-46802893D01*
X121412773Y-46840010D01*
X121413722Y-46880934D01*
X121410396Y-46921129D01*
X121403025Y-46956062D01*
X121399031Y-46967459D01*
X121374585Y-47011564D01*
X121339886Y-47049853D01*
X121295667Y-47081771D01*
X121242660Y-47106761D01*
X121197344Y-47120680D01*
X121182411Y-47123260D01*
X121159148Y-47125653D01*
X121127294Y-47127860D01*
X121086588Y-47129886D01*
X121036768Y-47131736D01*
X120977576Y-47133414D01*
X120908749Y-47134922D01*
X120830027Y-47136267D01*
X120741150Y-47137450D01*
X120641856Y-47138478D01*
X120531885Y-47139353D01*
X120410977Y-47140080D01*
X120278870Y-47140662D01*
X120135304Y-47141105D01*
X119980018Y-47141411D01*
X119854032Y-47141555D01*
X119761865Y-47141667D01*
X119671075Y-47141847D01*
X119582653Y-47142090D01*
X119497589Y-47142389D01*
X119416875Y-47142740D01*
X119341501Y-47143135D01*
X119272459Y-47143571D01*
X119210739Y-47144041D01*
X119157333Y-47144539D01*
X119113231Y-47145060D01*
X119079424Y-47145598D01*
X119058601Y-47146093D01*
X118930530Y-47150082D01*
X119008884Y-47385113D01*
X119026004Y-47436394D01*
X119042031Y-47484261D01*
X119056534Y-47527437D01*
X119069082Y-47564645D01*
X119079243Y-47594608D01*
X119086588Y-47616049D01*
X119090684Y-47627693D01*
X119091297Y-47629278D01*
X119095644Y-47639987D01*
X119096644Y-47642980D01*
X119099454Y-47650592D01*
X119102239Y-47658725D01*
X119102498Y-47659726D01*
X119105325Y-47669825D01*
X119105503Y-47670383D01*
X119106264Y-47679518D01*
X119110237Y-47683860D01*
X119112284Y-47684085D01*
X119116356Y-47688515D01*
X119115520Y-47693219D01*
X119115699Y-47701045D01*
X119118565Y-47702354D01*
X119122557Y-47706759D01*
X119121761Y-47711095D01*
X119121363Y-47719822D01*
X119123235Y-47721752D01*
X119125969Y-47727713D01*
X119132193Y-47744242D01*
X119141564Y-47770345D01*
X119153739Y-47805030D01*
X119168375Y-47847304D01*
X119185126Y-47896175D01*
X119203651Y-47950648D01*
X119223606Y-48009733D01*
X119244647Y-48072435D01*
X119247148Y-48079913D01*
X119282950Y-48186990D01*
X119317900Y-48291463D01*
X119351791Y-48392722D01*
X119384421Y-48490159D01*
X119415584Y-48583165D01*
X119445076Y-48671130D01*
X119472692Y-48753446D01*
X119498227Y-48829502D01*
X119521478Y-48898691D01*
X119542239Y-48960403D01*
X119560306Y-49014028D01*
X119575474Y-49058959D01*
X119587539Y-49094585D01*
X119596297Y-49120297D01*
X119601542Y-49135487D01*
X119603006Y-49139515D01*
X119607023Y-49149273D01*
X119607941Y-49151695D01*
X119610810Y-49159419D01*
X119612514Y-49163874D01*
X119616497Y-49174965D01*
X119622443Y-49192300D01*
X119625164Y-49200412D01*
X119631865Y-49220085D01*
X119640816Y-49245797D01*
X119650132Y-49272130D01*
X119650530Y-49273245D01*
X119671460Y-49340779D01*
X119686815Y-49409455D01*
X119695831Y-49475341D01*
X119697963Y-49517817D01*
X119697890Y-49547926D01*
X119696763Y-49569419D01*
X119693995Y-49585852D01*
X119688997Y-49600780D01*
X119681589Y-49616930D01*
X119669908Y-49638716D01*
X119657493Y-49658704D01*
X119649945Y-49668946D01*
X119627329Y-49689070D01*
X119594535Y-49708662D01*
X119553554Y-49726678D01*
X119515800Y-49739374D01*
X119502427Y-49743245D01*
X119490037Y-49746463D01*
X119477328Y-49749117D01*
X119463000Y-49751294D01*
X119445754Y-49753084D01*
X119424287Y-49754573D01*
X119397301Y-49755850D01*
X119363495Y-49757004D01*
X119321569Y-49758121D01*
X119270222Y-49759291D01*
X119208155Y-49760601D01*
X119199933Y-49760772D01*
X119172709Y-49761228D01*
X119133851Y-49761716D01*
X119083904Y-49762231D01*
X119023412Y-49762772D01*
X118952922Y-49763334D01*
X118872977Y-49763915D01*
X118784123Y-49764513D01*
X118686905Y-49765124D01*
X118581868Y-49765745D01*
X118469556Y-49766373D01*
X118350516Y-49767006D01*
X118225292Y-49767640D01*
X118094429Y-49768272D01*
X117958472Y-49768901D01*
X117817966Y-49769521D01*
X117673456Y-49770131D01*
X117525488Y-49770728D01*
X117374605Y-49771309D01*
X117221354Y-49771871D01*
X117066279Y-49772410D01*
X117010698Y-49772596D01*
X116850765Y-49773129D01*
X116690336Y-49773668D01*
X116530081Y-49774211D01*
X116370669Y-49774755D01*
X116212770Y-49775298D01*
X116057051Y-49775838D01*
X115904182Y-49776372D01*
X115754832Y-49776898D01*
X115609671Y-49777413D01*
X115469367Y-49777915D01*
X115334589Y-49778401D01*
X115206007Y-49778870D01*
X115084290Y-49779318D01*
X114970106Y-49779744D01*
X114864126Y-49780145D01*
X114767017Y-49780518D01*
X114679449Y-49780861D01*
X114602091Y-49781172D01*
X114535612Y-49781449D01*
X114483486Y-49781675D01*
X114394273Y-49782017D01*
X114308745Y-49782231D01*
X114227735Y-49782322D01*
X114152074Y-49782293D01*
X114082595Y-49782147D01*
X114020130Y-49781889D01*
X113965510Y-49781521D01*
X113919567Y-49781048D01*
X113883134Y-49780474D01*
X113857042Y-49779801D01*
X113842124Y-49779034D01*
X113840498Y-49778862D01*
X113771032Y-49765524D01*
X113697932Y-49743393D01*
X113624291Y-49713830D01*
X113553199Y-49678194D01*
X113487750Y-49637848D01*
X113442153Y-49603607D01*
X113378716Y-49547082D01*
X113322658Y-49487933D01*
X113270321Y-49422172D01*
X113250768Y-49394791D01*
X113231126Y-49365861D01*
X113213952Y-49338729D01*
X113198428Y-49311632D01*
X113183733Y-49282807D01*
X113169047Y-49250489D01*
X113153551Y-49212915D01*
X113136426Y-49168322D01*
X113116851Y-49114947D01*
X113103820Y-49078619D01*
X113085456Y-49027120D01*
X113064774Y-48969104D01*
X113043281Y-48908797D01*
X113022483Y-48850423D01*
X113003887Y-48798210D01*
X112999651Y-48786315D01*
X112985521Y-48746633D01*
X112972672Y-48710559D01*
X112961692Y-48679743D01*
X112953168Y-48655833D01*
X112947689Y-48640480D01*
X112945917Y-48635531D01*
X112943879Y-48627541D01*
X112943996Y-48626397D01*
X112942031Y-48620677D01*
X112936433Y-48609714D01*
X112930075Y-48597689D01*
X112927266Y-48591445D01*
X112924485Y-48583828D01*
X112922580Y-48579266D01*
X112921721Y-48577145D01*
X112920266Y-48573318D01*
X112918022Y-48567240D01*
X112914795Y-48558367D01*
X112910391Y-48546154D01*
X112904616Y-48530056D01*
X112897276Y-48509528D01*
X112888178Y-48484027D01*
X112877127Y-48453006D01*
X112863930Y-48415921D01*
X112848393Y-48372228D01*
X112830322Y-48321382D01*
X112809523Y-48262838D01*
X112785803Y-48196052D01*
X112758967Y-48120479D01*
X112728822Y-48035573D01*
X112695173Y-47940791D01*
X112657828Y-47835587D01*
X112619181Y-47726713D01*
X112594526Y-47657029D01*
X112570667Y-47589165D01*
X112547988Y-47524235D01*
X112526870Y-47463352D01*
X112507695Y-47407630D01*
X112490846Y-47358184D01*
X112476704Y-47316128D01*
X112465653Y-47282577D01*
X112458075Y-47258643D01*
X112455166Y-47248674D01*
X112444229Y-47206696D01*
X112438240Y-47181745D01*
X114789265Y-47181745D01*
X114790323Y-47187908D01*
X114794740Y-47204159D01*
X114802044Y-47229024D01*
X114811764Y-47261030D01*
X114823428Y-47298704D01*
X114836565Y-47340570D01*
X114850703Y-47385157D01*
X114865371Y-47430991D01*
X114880097Y-47476597D01*
X114894410Y-47520503D01*
X114907838Y-47561234D01*
X114919909Y-47597318D01*
X114930153Y-47627281D01*
X114938097Y-47649649D01*
X114943192Y-47662771D01*
X114947378Y-47674018D01*
X114954462Y-47694847D01*
X114963770Y-47723195D01*
X114974626Y-47757000D01*
X114986356Y-47794202D01*
X114989047Y-47802833D01*
X115026950Y-47924627D01*
X115770670Y-47922784D01*
X115869554Y-47922507D01*
X115968145Y-47922169D01*
X116065402Y-47921778D01*
X116160287Y-47921340D01*
X116251760Y-47920862D01*
X116338781Y-47920350D01*
X116420312Y-47919810D01*
X116495312Y-47919251D01*
X116562743Y-47918677D01*
X116621565Y-47918096D01*
X116670738Y-47917515D01*
X116709223Y-47916940D01*
X116722364Y-47916694D01*
X116930337Y-47912447D01*
X116813882Y-47542556D01*
X116697428Y-47172664D01*
X115744221Y-47176499D01*
X115637456Y-47176937D01*
X115534029Y-47177379D01*
X115434594Y-47177821D01*
X115339804Y-47178259D01*
X115250312Y-47178690D01*
X115166772Y-47179110D01*
X115089836Y-47179516D01*
X115020158Y-47179904D01*
X114958392Y-47180270D01*
X114905189Y-47180612D01*
X114861205Y-47180924D01*
X114827091Y-47181204D01*
X114803501Y-47181448D01*
X114791089Y-47181653D01*
X114789265Y-47181745D01*
X112438240Y-47181745D01*
X112435059Y-47168490D01*
X112427994Y-47135719D01*
X112423374Y-47110047D01*
X112421538Y-47093137D01*
X112422227Y-47087148D01*
X112421121Y-47079849D01*
X112419189Y-47078224D01*
X112416566Y-47070701D01*
X112414554Y-47053030D01*
X112413318Y-47027235D01*
X112413000Y-47002531D01*
X112415873Y-46939575D01*
X112424083Y-46877790D01*
X112437010Y-46820556D01*
X112454037Y-46771255D01*
X112456173Y-46766373D01*
X112465008Y-46745534D01*
X112471358Y-46728366D01*
X112473893Y-46718477D01*
X112473896Y-46718305D01*
X112477373Y-46710572D01*
X112479986Y-46709738D01*
X112485460Y-46704838D01*
X112486076Y-46701039D01*
X112489994Y-46689324D01*
X112493718Y-46684292D01*
X112500870Y-46675373D01*
X112512305Y-46659692D01*
X112525560Y-46640626D01*
X112525689Y-46640437D01*
X112554445Y-46604800D01*
X112591874Y-46568474D01*
X112634912Y-46534023D01*
X112680497Y-46504012D01*
X112704371Y-46490919D01*
X112719207Y-46482803D01*
X112727788Y-46476955D01*
X112728726Y-46475364D01*
X112722305Y-46473729D01*
X112705913Y-46470566D01*
X112681609Y-46466246D01*
X112651452Y-46461138D01*
X112629178Y-46457488D01*
X112593089Y-46451259D01*
X112558451Y-46444578D01*
X112528301Y-46438079D01*
X112505676Y-46432398D01*
X112498255Y-46430105D01*
X112471758Y-46421197D01*
X112443054Y-46411967D01*
X112431269Y-46408323D01*
X112385671Y-46390907D01*
X112335665Y-46365639D01*
X112284170Y-46334394D01*
X112234105Y-46299047D01*
X112188391Y-46261474D01*
X112159526Y-46233800D01*
X112132921Y-46203595D01*
X112104558Y-46166950D01*
X112076811Y-46127319D01*
X112052056Y-46088153D01*
X112032668Y-46052906D01*
X112027429Y-46041772D01*
X112021499Y-46026965D01*
X112012342Y-46002261D01*
X112000545Y-45969330D01*
X111986696Y-45929840D01*
X111971381Y-45885463D01*
X111955188Y-45837866D01*
X111943895Y-45804275D01*
X111928146Y-45757212D01*
X111913590Y-45713748D01*
X111900686Y-45675251D01*
X111889894Y-45643089D01*
X111881673Y-45618632D01*
X111876482Y-45603247D01*
X111874812Y-45598374D01*
X111872369Y-45587651D01*
X111872315Y-45586876D01*
X111867629Y-45578921D01*
X111865994Y-45577718D01*
X111863165Y-45571498D01*
X111856777Y-45554587D01*
X111847128Y-45527847D01*
X111834518Y-45492141D01*
X111819244Y-45448329D01*
X111801605Y-45397273D01*
X111781899Y-45339836D01*
X111760424Y-45276879D01*
X111737478Y-45209264D01*
X111713361Y-45137853D01*
X111700285Y-45098999D01*
X111674636Y-45022780D01*
X111649275Y-44947593D01*
X111624587Y-44874573D01*
X111600960Y-44804854D01*
X111578780Y-44739573D01*
X111558433Y-44679864D01*
X111551655Y-44660047D01*
X113807103Y-44660047D01*
X113812630Y-44669029D01*
X113813272Y-44671158D01*
X113813365Y-44672082D01*
X113813451Y-44672882D01*
X113813829Y-44674488D01*
X113814801Y-44677830D01*
X113816665Y-44683837D01*
X113819723Y-44693440D01*
X113824275Y-44707568D01*
X113830620Y-44727151D01*
X113839059Y-44753119D01*
X113849893Y-44786402D01*
X113863420Y-44827929D01*
X113879942Y-44878631D01*
X113899759Y-44939437D01*
X113913067Y-44980273D01*
X113932394Y-45039594D01*
X113951228Y-45097434D01*
X113969101Y-45152352D01*
X113985544Y-45202908D01*
X114000090Y-45247661D01*
X114012271Y-45285172D01*
X114021616Y-45313999D01*
X114027659Y-45332702D01*
X114027704Y-45332840D01*
X114048075Y-45396148D01*
X114995018Y-45391697D01*
X115101426Y-45391187D01*
X115204493Y-45390671D01*
X115303564Y-45390155D01*
X115397982Y-45389643D01*
X115487094Y-45389138D01*
X115570243Y-45388646D01*
X115646775Y-45388170D01*
X115716033Y-45387714D01*
X115777362Y-45387284D01*
X115830108Y-45386883D01*
X115873614Y-45386515D01*
X115907226Y-45386185D01*
X115930288Y-45385896D01*
X115942144Y-45385654D01*
X115943664Y-45385554D01*
X115942293Y-45379565D01*
X115937621Y-45363335D01*
X115930064Y-45338222D01*
X115920038Y-45305582D01*
X115907959Y-45266774D01*
X115894244Y-45223154D01*
X115883635Y-45189679D01*
X115865320Y-45132036D01*
X115845021Y-45068103D01*
X115823872Y-45001453D01*
X115803006Y-44935658D01*
X115783556Y-44874288D01*
X115766655Y-44820916D01*
X115766498Y-44820419D01*
X115711092Y-44645341D01*
X115327174Y-44645345D01*
X115214882Y-44645403D01*
X115102488Y-44645572D01*
X114990644Y-44645845D01*
X114880005Y-44646216D01*
X114771226Y-44646678D01*
X114664961Y-44647226D01*
X114561864Y-44647852D01*
X114462589Y-44648551D01*
X114367791Y-44649316D01*
X114278125Y-44650141D01*
X114194244Y-44651020D01*
X114116803Y-44651946D01*
X114046456Y-44652912D01*
X113983857Y-44653913D01*
X113929661Y-44654943D01*
X113884522Y-44655994D01*
X113849095Y-44657061D01*
X113824033Y-44658137D01*
X113809992Y-44659216D01*
X113807103Y-44660047D01*
X111551655Y-44660047D01*
X111540306Y-44626864D01*
X111524785Y-44581706D01*
X111512257Y-44545527D01*
X111503108Y-44519462D01*
X111501306Y-44514413D01*
X111487924Y-44476881D01*
X111471716Y-44431032D01*
X111453805Y-44380070D01*
X111435317Y-44327199D01*
X111417374Y-44275624D01*
X111407363Y-44246706D01*
X111392776Y-44204861D01*
X111379182Y-44166603D01*
X111367162Y-44133502D01*
X111357294Y-44107134D01*
X111350160Y-44089070D01*
X111346336Y-44080885D01*
X111346242Y-44080762D01*
X111342854Y-44074131D01*
X111344263Y-44072913D01*
X111344811Y-44069166D01*
X111341218Y-44063778D01*
X111336967Y-44056414D01*
X111338173Y-44054644D01*
X111339215Y-44050888D01*
X111336903Y-44047031D01*
X111332492Y-44037971D01*
X111325232Y-44019421D01*
X111315853Y-43993535D01*
X111305083Y-43962466D01*
X111293650Y-43928366D01*
X111282284Y-43893389D01*
X111271713Y-43859688D01*
X111262666Y-43829416D01*
X111259589Y-43818577D01*
X111251310Y-43783645D01*
X111243331Y-43740762D01*
X111236209Y-43693959D01*
X111230504Y-43647267D01*
X111226775Y-43604714D01*
X111225570Y-43573307D01*
X111226774Y-43544867D01*
X111230139Y-43508130D01*
X111235174Y-43466687D01*
X111241391Y-43424128D01*
X111248303Y-43384045D01*
X111255421Y-43350029D01*
X111256594Y-43345197D01*
X111281157Y-43265804D01*
X111315184Y-43184852D01*
X111357045Y-43105814D01*
X111400098Y-43039152D01*
X111457933Y-42967910D01*
X111525302Y-42903001D01*
X111600861Y-42845277D01*
X111683268Y-42795594D01*
X111771177Y-42754805D01*
X111863246Y-42723765D01*
X111916576Y-42710864D01*
X111989768Y-42695654D01*
X116072889Y-42677911D01*
X116297023Y-42676941D01*
X116518725Y-42675989D01*
X116737658Y-42675058D01*
X116953484Y-42674148D01*
X117165867Y-42673260D01*
X117374469Y-42672395D01*
X117578953Y-42671556D01*
X117778982Y-42670742D01*
X117974219Y-42669956D01*
X118164327Y-42669199D01*
X118348968Y-42668471D01*
X118527806Y-42667775D01*
X118700503Y-42667111D01*
X118866722Y-42666480D01*
X119026126Y-42665885D01*
X119178378Y-42665325D01*
X119323141Y-42664803D01*
X119460078Y-42664320D01*
X119588851Y-42663876D01*
X119709124Y-42663473D01*
X119820558Y-42663113D01*
X119922818Y-42662797D01*
X120015566Y-42662525D01*
X120098465Y-42662299D01*
X120171177Y-42662121D01*
X120233366Y-42661992D01*
X120284694Y-42661912D01*
X120324825Y-42661883D01*
X120353421Y-42661907D01*
G37*
D10*
%TO.C,P1*%
X57310000Y-41592500D02*
X58600000Y-42882500D01*
X57310000Y-45447500D02*
X58600000Y-44157500D01*
X58080000Y-40822500D02*
X57310000Y-41592500D01*
X58080000Y-46217500D02*
X57310000Y-45447500D01*
X58600000Y-44157500D02*
X58600000Y-42882500D01*
X101130000Y-40822500D02*
X58080000Y-40822500D01*
X101130000Y-40822500D02*
X108410000Y-40822500D01*
X101130000Y-46217500D02*
X58080000Y-46217500D01*
X101130000Y-46217500D02*
X108410000Y-46217500D01*
X108410000Y-40822500D02*
X109277500Y-41690000D01*
X108410000Y-46217500D02*
X109277500Y-45350000D01*
X109277500Y-41690000D02*
X109277500Y-45350000D01*
%TO.C,R202*%
X68580000Y-83910000D02*
X68580000Y-78890000D01*
X69860000Y-75070000D02*
X69860000Y-77610000D01*
X69860000Y-77610000D02*
X68580000Y-78890000D01*
X69860000Y-77610000D02*
X71140000Y-78890000D01*
X69860000Y-85190000D02*
X68580000Y-83910000D01*
X69860000Y-85190000D02*
X71140000Y-83910000D01*
D16*
X69860000Y-86690000D02*
X69860000Y-86000000D01*
D10*
X69860000Y-87730000D02*
X69860000Y-85190000D01*
X71140000Y-83910000D02*
X71140000Y-78890000D01*
D11*
X70500000Y-78250000D02*
X69220000Y-78250000D01*
X69860000Y-77610000D01*
X70500000Y-78250000D01*
G36*
X70500000Y-78250000D02*
G01*
X69220000Y-78250000D01*
X69860000Y-77610000D01*
X70500000Y-78250000D01*
G37*
X69860000Y-85190000D02*
X69220000Y-84550000D01*
X70500000Y-84550000D01*
X69860000Y-85190000D01*
G36*
X69860000Y-85190000D02*
G01*
X69220000Y-84550000D01*
X70500000Y-84550000D01*
X69860000Y-85190000D01*
G37*
D10*
%TO.C,R203*%
X72290000Y-83910000D02*
X72290000Y-78890000D01*
X73570000Y-75070000D02*
X73570000Y-77610000D01*
X73570000Y-77610000D02*
X72290000Y-78890000D01*
X73570000Y-77610000D02*
X74850000Y-78890000D01*
X73570000Y-85190000D02*
X72290000Y-83910000D01*
X73570000Y-85190000D02*
X74850000Y-83910000D01*
D16*
X73570000Y-86690000D02*
X73570000Y-86000000D01*
D10*
X73570000Y-87730000D02*
X73570000Y-85190000D01*
X74850000Y-83910000D02*
X74850000Y-78890000D01*
D11*
X74210000Y-78250000D02*
X72930000Y-78250000D01*
X73570000Y-77610000D01*
X74210000Y-78250000D01*
G36*
X74210000Y-78250000D02*
G01*
X72930000Y-78250000D01*
X73570000Y-77610000D01*
X74210000Y-78250000D01*
G37*
X73570000Y-85190000D02*
X72930000Y-84550000D01*
X74210000Y-84550000D01*
X73570000Y-85190000D01*
G36*
X73570000Y-85190000D02*
G01*
X72930000Y-84550000D01*
X74210000Y-84550000D01*
X73570000Y-85190000D01*
G37*
D10*
%TO.C,NR201*%
X64700000Y-52170000D02*
X64700000Y-54970000D01*
X64700000Y-54970000D02*
X87070000Y-54970000D01*
X85140000Y-54970000D02*
X85140000Y-52170000D01*
X87070000Y-52170000D02*
X64700000Y-52170000D01*
X87070000Y-52170000D02*
X87660000Y-52170000D01*
X87070000Y-54970000D02*
X87660000Y-54970000D01*
X89050000Y-53560000D02*
X89050000Y-53580000D01*
X87660000Y-54970000D01*
X87660000Y-52170000D01*
X89050000Y-53560000D01*
G36*
X89050000Y-53560000D02*
G01*
X89050000Y-53580000D01*
X87660000Y-54970000D01*
X87660000Y-52170000D01*
X89050000Y-53560000D01*
G37*
%TO.C,J202*%
X50780000Y-57010000D02*
X63120000Y-57010000D01*
X63120000Y-57010000D02*
X63120000Y-87980000D01*
X63120000Y-87980000D02*
X50780000Y-87980000D01*
D16*
X63581325Y-66955000D02*
X64014338Y-66705000D01*
X64014338Y-66705000D02*
X64014338Y-67205000D01*
X64014338Y-67205000D02*
X63581325Y-66955000D01*
%TO.C,C201*%
D10*
X96710000Y-95460000D02*
X103750000Y-95460000D01*
X103750000Y-97500000D01*
X96710000Y-97500000D01*
X96710000Y-95460000D01*
%TO.C,R212*%
X90100000Y-102280000D02*
X92640000Y-102280000D01*
D16*
X91140000Y-102280000D02*
X91830000Y-102280000D01*
D10*
X92640000Y-102280000D02*
X93920000Y-101000000D01*
X92640000Y-102280000D02*
X93920000Y-103560000D01*
X93920000Y-101000000D02*
X98940000Y-101000000D01*
X93920000Y-103560000D02*
X98940000Y-103560000D01*
X100220000Y-102280000D02*
X98940000Y-101000000D01*
X100220000Y-102280000D02*
X98940000Y-103560000D01*
X102760000Y-102280000D02*
X100220000Y-102280000D01*
D11*
X93280000Y-102920000D02*
X92640000Y-102280000D01*
X93280000Y-101640000D01*
X93280000Y-102920000D01*
G36*
X93280000Y-102920000D02*
G01*
X92640000Y-102280000D01*
X93280000Y-101640000D01*
X93280000Y-102920000D01*
G37*
X100220000Y-102280000D02*
X99580000Y-102920000D01*
X99580000Y-101640000D01*
X100220000Y-102280000D01*
G36*
X100220000Y-102280000D02*
G01*
X99580000Y-102920000D01*
X99580000Y-101640000D01*
X100220000Y-102280000D01*
G37*
D10*
%TO.C,R205*%
X64810000Y-98790000D02*
X64810000Y-93770000D01*
X66090000Y-89950000D02*
X66090000Y-92490000D01*
X66090000Y-92490000D02*
X64810000Y-93770000D01*
X66090000Y-92490000D02*
X67370000Y-93770000D01*
X66090000Y-100070000D02*
X64810000Y-98790000D01*
X66090000Y-100070000D02*
X67370000Y-98790000D01*
D16*
X66090000Y-101570000D02*
X66090000Y-100880000D01*
D10*
X66090000Y-102610000D02*
X66090000Y-100070000D01*
X67370000Y-98790000D02*
X67370000Y-93770000D01*
D11*
X66730000Y-93130000D02*
X65450000Y-93130000D01*
X66090000Y-92490000D01*
X66730000Y-93130000D01*
G36*
X66730000Y-93130000D02*
G01*
X65450000Y-93130000D01*
X66090000Y-92490000D01*
X66730000Y-93130000D01*
G37*
X66090000Y-100070000D02*
X65450000Y-99430000D01*
X66730000Y-99430000D01*
X66090000Y-100070000D01*
G36*
X66090000Y-100070000D02*
G01*
X65450000Y-99430000D01*
X66730000Y-99430000D01*
X66090000Y-100070000D01*
G37*
D10*
%TO.C,U204*%
X100290000Y-82790000D02*
X100290000Y-88090000D01*
X100290000Y-88090000D02*
X118190000Y-88090000D01*
X118190000Y-82790000D02*
X100290000Y-82790000D01*
X118190000Y-82790000D02*
X118960000Y-82790000D01*
X118190000Y-88090000D02*
X118960000Y-88090000D01*
X118460000Y-84790000D02*
X118460000Y-86090000D01*
X118960000Y-82790000D02*
X119710000Y-83540000D01*
X118960000Y-88090000D02*
X119710000Y-87340000D01*
X119710000Y-83540000D02*
X118460000Y-84790000D01*
X119710000Y-87340000D02*
X118460000Y-86090000D01*
%TO.C,U201*%
X77710000Y-59260000D02*
X77710000Y-77160000D01*
X77710000Y-77160000D02*
X113510000Y-77160000D01*
D16*
X77770000Y-61750000D02*
X77770000Y-74670000D01*
D10*
X77770000Y-74670000D02*
X113450000Y-74670000D01*
X113450000Y-61750000D02*
X77770000Y-61750000D01*
X113450000Y-61750000D02*
X114920000Y-61750000D01*
X113450000Y-74670000D02*
X114920000Y-74670000D01*
X113510000Y-59260000D02*
X77710000Y-59260000D01*
X113510000Y-59260000D02*
X114300000Y-59260000D01*
X113510000Y-77160000D02*
X114300000Y-77160000D01*
X113720000Y-67520000D02*
X113720000Y-68900000D01*
X114300000Y-59260000D02*
X114930000Y-59890000D01*
X114300000Y-77160000D02*
X114930000Y-76530000D01*
X114930000Y-59890000D02*
X114930000Y-66310000D01*
X114930000Y-66310000D02*
X113720000Y-67520000D01*
X114930000Y-70110000D02*
X113720000Y-68900000D01*
X114930000Y-76530000D02*
X114930000Y-70110000D01*
%TO.C,R210*%
X69150000Y-92470000D02*
X71690000Y-92470000D01*
X71690000Y-92470000D02*
X72970000Y-91190000D01*
X71690000Y-92470000D02*
X72970000Y-93750000D01*
X77990000Y-91190000D02*
X72970000Y-91190000D01*
X77990000Y-93750000D02*
X72970000Y-93750000D01*
X79270000Y-92470000D02*
X77990000Y-91190000D01*
X79270000Y-92470000D02*
X77990000Y-93750000D01*
D16*
X80770000Y-92470000D02*
X80080000Y-92470000D01*
D10*
X81810000Y-92470000D02*
X79270000Y-92470000D01*
D11*
X72330000Y-93110000D02*
X71690000Y-92470000D01*
X72330000Y-91830000D01*
X72330000Y-93110000D01*
G36*
X72330000Y-93110000D02*
G01*
X71690000Y-92470000D01*
X72330000Y-91830000D01*
X72330000Y-93110000D01*
G37*
X79270000Y-92470000D02*
X78630000Y-93110000D01*
X78630000Y-91830000D01*
X79270000Y-92470000D01*
G36*
X79270000Y-92470000D02*
G01*
X78630000Y-93110000D01*
X78630000Y-91830000D01*
X79270000Y-92470000D01*
G37*
D10*
%TO.C,U203*%
X78642500Y-82790000D02*
X78642500Y-88090000D01*
X78642500Y-88090000D02*
X96542500Y-88090000D01*
X96542500Y-82790000D02*
X78642500Y-82790000D01*
X96542500Y-82790000D02*
X97312500Y-82790000D01*
X96542500Y-88090000D02*
X97312500Y-88090000D01*
X96812500Y-84790000D02*
X96812500Y-86090000D01*
X97312500Y-82790000D02*
X98062500Y-83540000D01*
X97312500Y-88090000D02*
X98062500Y-87340000D01*
X98062500Y-83540000D02*
X96812500Y-84790000D01*
X98062500Y-87340000D02*
X96812500Y-86090000D01*
%TD*%
M02*
