%TF.GenerationSoftware,KiCad,Pcbnew,8.0.1*%
%TF.CreationDate,2024-04-11T22:34:35+01:00*%
%TF.ProjectId,TIMAYSound,54494d41-5953-46f7-956e-642e6b696361,rev?*%
%TF.SameCoordinates,Original*%
%TF.FileFunction,Legend,Bot*%
%TF.FilePolarity,Positive*%
%FSLAX46Y46*%
G04 Gerber Fmt 4.6, Leading zero omitted, Abs format (unit mm)*
G04 Created by KiCad (PCBNEW 8.0.1) date 2024-04-11 22:34:35*
%MOMM*%
%LPD*%
G01*
G04 APERTURE LIST*
%ADD10C,0.220000*%
G04 APERTURE END LIST*
D10*
X118117644Y-63698779D02*
X117931930Y-63760683D01*
X117931930Y-63760683D02*
X117622406Y-63760683D01*
X117622406Y-63760683D02*
X117498597Y-63698779D01*
X117498597Y-63698779D02*
X117436692Y-63636874D01*
X117436692Y-63636874D02*
X117374787Y-63513064D01*
X117374787Y-63513064D02*
X117374787Y-63389255D01*
X117374787Y-63389255D02*
X117436692Y-63265445D01*
X117436692Y-63265445D02*
X117498597Y-63203540D01*
X117498597Y-63203540D02*
X117622406Y-63141636D01*
X117622406Y-63141636D02*
X117870025Y-63079731D01*
X117870025Y-63079731D02*
X117993835Y-63017826D01*
X117993835Y-63017826D02*
X118055740Y-62955921D01*
X118055740Y-62955921D02*
X118117644Y-62832112D01*
X118117644Y-62832112D02*
X118117644Y-62708302D01*
X118117644Y-62708302D02*
X118055740Y-62584493D01*
X118055740Y-62584493D02*
X117993835Y-62522588D01*
X117993835Y-62522588D02*
X117870025Y-62460683D01*
X117870025Y-62460683D02*
X117560502Y-62460683D01*
X117560502Y-62460683D02*
X117374787Y-62522588D01*
X116260502Y-63698779D02*
X116384311Y-63760683D01*
X116384311Y-63760683D02*
X116631930Y-63760683D01*
X116631930Y-63760683D02*
X116755740Y-63698779D01*
X116755740Y-63698779D02*
X116817645Y-63636874D01*
X116817645Y-63636874D02*
X116879549Y-63513064D01*
X116879549Y-63513064D02*
X116879549Y-63141636D01*
X116879549Y-63141636D02*
X116817645Y-63017826D01*
X116817645Y-63017826D02*
X116755740Y-62955921D01*
X116755740Y-62955921D02*
X116631930Y-62894017D01*
X116631930Y-62894017D02*
X116384311Y-62894017D01*
X116384311Y-62894017D02*
X116260502Y-62955921D01*
X115703359Y-63760683D02*
X115703359Y-62460683D01*
X115146216Y-63760683D02*
X115146216Y-63079731D01*
X115146216Y-63079731D02*
X115208121Y-62955921D01*
X115208121Y-62955921D02*
X115331930Y-62894017D01*
X115331930Y-62894017D02*
X115517644Y-62894017D01*
X115517644Y-62894017D02*
X115641454Y-62955921D01*
X115641454Y-62955921D02*
X115703359Y-63017826D01*
X114031931Y-63698779D02*
X114155740Y-63760683D01*
X114155740Y-63760683D02*
X114403359Y-63760683D01*
X114403359Y-63760683D02*
X114527169Y-63698779D01*
X114527169Y-63698779D02*
X114589073Y-63574969D01*
X114589073Y-63574969D02*
X114589073Y-63079731D01*
X114589073Y-63079731D02*
X114527169Y-62955921D01*
X114527169Y-62955921D02*
X114403359Y-62894017D01*
X114403359Y-62894017D02*
X114155740Y-62894017D01*
X114155740Y-62894017D02*
X114031931Y-62955921D01*
X114031931Y-62955921D02*
X113970026Y-63079731D01*
X113970026Y-63079731D02*
X113970026Y-63203540D01*
X113970026Y-63203540D02*
X114589073Y-63327350D01*
X113412883Y-63760683D02*
X113412883Y-62894017D01*
X113412883Y-63017826D02*
X113350978Y-62955921D01*
X113350978Y-62955921D02*
X113227168Y-62894017D01*
X113227168Y-62894017D02*
X113041454Y-62894017D01*
X113041454Y-62894017D02*
X112917645Y-62955921D01*
X112917645Y-62955921D02*
X112855740Y-63079731D01*
X112855740Y-63079731D02*
X112855740Y-63760683D01*
X112855740Y-63079731D02*
X112793835Y-62955921D01*
X112793835Y-62955921D02*
X112670026Y-62894017D01*
X112670026Y-62894017D02*
X112484311Y-62894017D01*
X112484311Y-62894017D02*
X112360502Y-62955921D01*
X112360502Y-62955921D02*
X112298597Y-63079731D01*
X112298597Y-63079731D02*
X112298597Y-63760683D01*
X111122407Y-63760683D02*
X111122407Y-63079731D01*
X111122407Y-63079731D02*
X111184312Y-62955921D01*
X111184312Y-62955921D02*
X111308121Y-62894017D01*
X111308121Y-62894017D02*
X111555740Y-62894017D01*
X111555740Y-62894017D02*
X111679550Y-62955921D01*
X111122407Y-63698779D02*
X111246216Y-63760683D01*
X111246216Y-63760683D02*
X111555740Y-63760683D01*
X111555740Y-63760683D02*
X111679550Y-63698779D01*
X111679550Y-63698779D02*
X111741454Y-63574969D01*
X111741454Y-63574969D02*
X111741454Y-63451159D01*
X111741454Y-63451159D02*
X111679550Y-63327350D01*
X111679550Y-63327350D02*
X111555740Y-63265445D01*
X111555740Y-63265445D02*
X111246216Y-63265445D01*
X111246216Y-63265445D02*
X111122407Y-63203540D01*
X110689074Y-62894017D02*
X110193836Y-62894017D01*
X110503360Y-62460683D02*
X110503360Y-63574969D01*
X110503360Y-63574969D02*
X110441455Y-63698779D01*
X110441455Y-63698779D02*
X110317645Y-63760683D01*
X110317645Y-63760683D02*
X110193836Y-63760683D01*
X109760503Y-63760683D02*
X109760503Y-62894017D01*
X109760503Y-62460683D02*
X109822407Y-62522588D01*
X109822407Y-62522588D02*
X109760503Y-62584493D01*
X109760503Y-62584493D02*
X109698598Y-62522588D01*
X109698598Y-62522588D02*
X109760503Y-62460683D01*
X109760503Y-62460683D02*
X109760503Y-62584493D01*
X108584312Y-63698779D02*
X108708121Y-63760683D01*
X108708121Y-63760683D02*
X108955740Y-63760683D01*
X108955740Y-63760683D02*
X109079550Y-63698779D01*
X109079550Y-63698779D02*
X109141455Y-63636874D01*
X109141455Y-63636874D02*
X109203359Y-63513064D01*
X109203359Y-63513064D02*
X109203359Y-63141636D01*
X109203359Y-63141636D02*
X109141455Y-63017826D01*
X109141455Y-63017826D02*
X109079550Y-62955921D01*
X109079550Y-62955921D02*
X108955740Y-62894017D01*
X108955740Y-62894017D02*
X108708121Y-62894017D01*
X108708121Y-62894017D02*
X108584312Y-62955921D01*
X108089073Y-63698779D02*
X107965264Y-63760683D01*
X107965264Y-63760683D02*
X107717645Y-63760683D01*
X107717645Y-63760683D02*
X107593835Y-63698779D01*
X107593835Y-63698779D02*
X107531931Y-63574969D01*
X107531931Y-63574969D02*
X107531931Y-63513064D01*
X107531931Y-63513064D02*
X107593835Y-63389255D01*
X107593835Y-63389255D02*
X107717645Y-63327350D01*
X107717645Y-63327350D02*
X107903359Y-63327350D01*
X107903359Y-63327350D02*
X108027169Y-63265445D01*
X108027169Y-63265445D02*
X108089073Y-63141636D01*
X108089073Y-63141636D02*
X108089073Y-63079731D01*
X108089073Y-63079731D02*
X108027169Y-62955921D01*
X108027169Y-62955921D02*
X107903359Y-62894017D01*
X107903359Y-62894017D02*
X107717645Y-62894017D01*
X107717645Y-62894017D02*
X107593835Y-62955921D01*
X106974788Y-63636874D02*
X106912883Y-63698779D01*
X106912883Y-63698779D02*
X106974788Y-63760683D01*
X106974788Y-63760683D02*
X107036692Y-63698779D01*
X107036692Y-63698779D02*
X106974788Y-63636874D01*
X106974788Y-63636874D02*
X106974788Y-63760683D01*
X106974788Y-62955921D02*
X106912883Y-63017826D01*
X106912883Y-63017826D02*
X106974788Y-63079731D01*
X106974788Y-63079731D02*
X107036692Y-63017826D01*
X107036692Y-63017826D02*
X106974788Y-62955921D01*
X106974788Y-62955921D02*
X106974788Y-63079731D01*
X105365264Y-63760683D02*
X105365264Y-62460683D01*
X104189073Y-63760683D02*
X104189073Y-63079731D01*
X104189073Y-63079731D02*
X104250978Y-62955921D01*
X104250978Y-62955921D02*
X104374787Y-62894017D01*
X104374787Y-62894017D02*
X104622406Y-62894017D01*
X104622406Y-62894017D02*
X104746216Y-62955921D01*
X104189073Y-63698779D02*
X104312882Y-63760683D01*
X104312882Y-63760683D02*
X104622406Y-63760683D01*
X104622406Y-63760683D02*
X104746216Y-63698779D01*
X104746216Y-63698779D02*
X104808120Y-63574969D01*
X104808120Y-63574969D02*
X104808120Y-63451159D01*
X104808120Y-63451159D02*
X104746216Y-63327350D01*
X104746216Y-63327350D02*
X104622406Y-63265445D01*
X104622406Y-63265445D02*
X104312882Y-63265445D01*
X104312882Y-63265445D02*
X104189073Y-63203540D01*
X103570026Y-62894017D02*
X103570026Y-63760683D01*
X103570026Y-63017826D02*
X103508121Y-62955921D01*
X103508121Y-62955921D02*
X103384311Y-62894017D01*
X103384311Y-62894017D02*
X103198597Y-62894017D01*
X103198597Y-62894017D02*
X103074788Y-62955921D01*
X103074788Y-62955921D02*
X103012883Y-63079731D01*
X103012883Y-63079731D02*
X103012883Y-63760683D01*
X100660503Y-63636874D02*
X100722407Y-63698779D01*
X100722407Y-63698779D02*
X100908122Y-63760683D01*
X100908122Y-63760683D02*
X101031931Y-63760683D01*
X101031931Y-63760683D02*
X101217645Y-63698779D01*
X101217645Y-63698779D02*
X101341455Y-63574969D01*
X101341455Y-63574969D02*
X101403360Y-63451159D01*
X101403360Y-63451159D02*
X101465264Y-63203540D01*
X101465264Y-63203540D02*
X101465264Y-63017826D01*
X101465264Y-63017826D02*
X101403360Y-62770207D01*
X101403360Y-62770207D02*
X101341455Y-62646398D01*
X101341455Y-62646398D02*
X101217645Y-62522588D01*
X101217645Y-62522588D02*
X101031931Y-62460683D01*
X101031931Y-62460683D02*
X100908122Y-62460683D01*
X100908122Y-62460683D02*
X100722407Y-62522588D01*
X100722407Y-62522588D02*
X100660503Y-62584493D01*
X99546217Y-62894017D02*
X99546217Y-63760683D01*
X100103360Y-62894017D02*
X100103360Y-63574969D01*
X100103360Y-63574969D02*
X100041455Y-63698779D01*
X100041455Y-63698779D02*
X99917645Y-63760683D01*
X99917645Y-63760683D02*
X99731931Y-63760683D01*
X99731931Y-63760683D02*
X99608122Y-63698779D01*
X99608122Y-63698779D02*
X99546217Y-63636874D01*
X98370027Y-63760683D02*
X98370027Y-62460683D01*
X98370027Y-63698779D02*
X98493836Y-63760683D01*
X98493836Y-63760683D02*
X98741455Y-63760683D01*
X98741455Y-63760683D02*
X98865265Y-63698779D01*
X98865265Y-63698779D02*
X98927170Y-63636874D01*
X98927170Y-63636874D02*
X98989074Y-63513064D01*
X98989074Y-63513064D02*
X98989074Y-63141636D01*
X98989074Y-63141636D02*
X98927170Y-63017826D01*
X98927170Y-63017826D02*
X98865265Y-62955921D01*
X98865265Y-62955921D02*
X98741455Y-62894017D01*
X98741455Y-62894017D02*
X98493836Y-62894017D01*
X98493836Y-62894017D02*
X98370027Y-62955921D01*
X97565265Y-63760683D02*
X97689075Y-63698779D01*
X97689075Y-63698779D02*
X97750980Y-63574969D01*
X97750980Y-63574969D02*
X97750980Y-62460683D01*
X97070028Y-63760683D02*
X97070028Y-62894017D01*
X97070028Y-62460683D02*
X97131932Y-62522588D01*
X97131932Y-62522588D02*
X97070028Y-62584493D01*
X97070028Y-62584493D02*
X97008123Y-62522588D01*
X97008123Y-62522588D02*
X97070028Y-62460683D01*
X97070028Y-62460683D02*
X97070028Y-62584493D01*
X96450980Y-62894017D02*
X96450980Y-64194017D01*
X96450980Y-62955921D02*
X96327170Y-62894017D01*
X96327170Y-62894017D02*
X96079551Y-62894017D01*
X96079551Y-62894017D02*
X95955742Y-62955921D01*
X95955742Y-62955921D02*
X95893837Y-63017826D01*
X95893837Y-63017826D02*
X95831932Y-63141636D01*
X95831932Y-63141636D02*
X95831932Y-63513064D01*
X95831932Y-63513064D02*
X95893837Y-63636874D01*
X95893837Y-63636874D02*
X95955742Y-63698779D01*
X95955742Y-63698779D02*
X96079551Y-63760683D01*
X96079551Y-63760683D02*
X96327170Y-63760683D01*
X96327170Y-63760683D02*
X96450980Y-63698779D01*
X93912885Y-64255921D02*
X93974790Y-64194017D01*
X93974790Y-64194017D02*
X94098599Y-64008302D01*
X94098599Y-64008302D02*
X94160504Y-63884493D01*
X94160504Y-63884493D02*
X94222409Y-63698779D01*
X94222409Y-63698779D02*
X94284314Y-63389255D01*
X94284314Y-63389255D02*
X94284314Y-63141636D01*
X94284314Y-63141636D02*
X94222409Y-62832112D01*
X94222409Y-62832112D02*
X94160504Y-62646398D01*
X94160504Y-62646398D02*
X94098599Y-62522588D01*
X94098599Y-62522588D02*
X93974790Y-62336874D01*
X93974790Y-62336874D02*
X93912885Y-62274969D01*
X92612885Y-63141636D02*
X92674790Y-63079731D01*
X92674790Y-63079731D02*
X92798599Y-63017826D01*
X92798599Y-63017826D02*
X92922409Y-63017826D01*
X92922409Y-63017826D02*
X93046218Y-63079731D01*
X93046218Y-63079731D02*
X93108123Y-63141636D01*
X93108123Y-63141636D02*
X93170028Y-63265445D01*
X93170028Y-63265445D02*
X93170028Y-63389255D01*
X93170028Y-63389255D02*
X93108123Y-63513064D01*
X93108123Y-63513064D02*
X93046218Y-63574969D01*
X93046218Y-63574969D02*
X92922409Y-63636874D01*
X92922409Y-63636874D02*
X92798599Y-63636874D01*
X92798599Y-63636874D02*
X92674790Y-63574969D01*
X92674790Y-63574969D02*
X92612885Y-63513064D01*
X92612885Y-63017826D02*
X92612885Y-63513064D01*
X92612885Y-63513064D02*
X92550980Y-63574969D01*
X92550980Y-63574969D02*
X92489075Y-63574969D01*
X92489075Y-63574969D02*
X92365266Y-63513064D01*
X92365266Y-63513064D02*
X92303361Y-63389255D01*
X92303361Y-63389255D02*
X92303361Y-63079731D01*
X92303361Y-63079731D02*
X92427171Y-62894017D01*
X92427171Y-62894017D02*
X92612885Y-62770207D01*
X92612885Y-62770207D02*
X92860504Y-62708302D01*
X92860504Y-62708302D02*
X93108123Y-62770207D01*
X93108123Y-62770207D02*
X93293837Y-62894017D01*
X93293837Y-62894017D02*
X93417647Y-63079731D01*
X93417647Y-63079731D02*
X93479551Y-63327350D01*
X93479551Y-63327350D02*
X93417647Y-63574969D01*
X93417647Y-63574969D02*
X93293837Y-63760683D01*
X93293837Y-63760683D02*
X93108123Y-63884493D01*
X93108123Y-63884493D02*
X92860504Y-63946398D01*
X92860504Y-63946398D02*
X92612885Y-63884493D01*
X92612885Y-63884493D02*
X92427171Y-63760683D01*
X91189075Y-62894017D02*
X91189075Y-63946398D01*
X91189075Y-63946398D02*
X91250980Y-64070207D01*
X91250980Y-64070207D02*
X91312884Y-64132112D01*
X91312884Y-64132112D02*
X91436694Y-64194017D01*
X91436694Y-64194017D02*
X91622408Y-64194017D01*
X91622408Y-64194017D02*
X91746218Y-64132112D01*
X91189075Y-63698779D02*
X91312884Y-63760683D01*
X91312884Y-63760683D02*
X91560503Y-63760683D01*
X91560503Y-63760683D02*
X91684313Y-63698779D01*
X91684313Y-63698779D02*
X91746218Y-63636874D01*
X91746218Y-63636874D02*
X91808122Y-63513064D01*
X91808122Y-63513064D02*
X91808122Y-63141636D01*
X91808122Y-63141636D02*
X91746218Y-63017826D01*
X91746218Y-63017826D02*
X91684313Y-62955921D01*
X91684313Y-62955921D02*
X91560503Y-62894017D01*
X91560503Y-62894017D02*
X91312884Y-62894017D01*
X91312884Y-62894017D02*
X91189075Y-62955921D01*
X90570028Y-63760683D02*
X90570028Y-62894017D01*
X90570028Y-63141636D02*
X90508123Y-63017826D01*
X90508123Y-63017826D02*
X90446218Y-62955921D01*
X90446218Y-62955921D02*
X90322409Y-62894017D01*
X90322409Y-62894017D02*
X90198599Y-62894017D01*
X89208123Y-63760683D02*
X89208123Y-63079731D01*
X89208123Y-63079731D02*
X89270028Y-62955921D01*
X89270028Y-62955921D02*
X89393837Y-62894017D01*
X89393837Y-62894017D02*
X89641456Y-62894017D01*
X89641456Y-62894017D02*
X89765266Y-62955921D01*
X89208123Y-63698779D02*
X89331932Y-63760683D01*
X89331932Y-63760683D02*
X89641456Y-63760683D01*
X89641456Y-63760683D02*
X89765266Y-63698779D01*
X89765266Y-63698779D02*
X89827170Y-63574969D01*
X89827170Y-63574969D02*
X89827170Y-63451159D01*
X89827170Y-63451159D02*
X89765266Y-63327350D01*
X89765266Y-63327350D02*
X89641456Y-63265445D01*
X89641456Y-63265445D02*
X89331932Y-63265445D01*
X89331932Y-63265445D02*
X89208123Y-63203540D01*
X88589076Y-62894017D02*
X88589076Y-63760683D01*
X88589076Y-63017826D02*
X88527171Y-62955921D01*
X88527171Y-62955921D02*
X88403361Y-62894017D01*
X88403361Y-62894017D02*
X88217647Y-62894017D01*
X88217647Y-62894017D02*
X88093838Y-62955921D01*
X88093838Y-62955921D02*
X88031933Y-63079731D01*
X88031933Y-63079731D02*
X88031933Y-63760683D01*
X86855743Y-63760683D02*
X86855743Y-62460683D01*
X86855743Y-63698779D02*
X86979552Y-63760683D01*
X86979552Y-63760683D02*
X87227171Y-63760683D01*
X87227171Y-63760683D02*
X87350981Y-63698779D01*
X87350981Y-63698779D02*
X87412886Y-63636874D01*
X87412886Y-63636874D02*
X87474790Y-63513064D01*
X87474790Y-63513064D02*
X87474790Y-63141636D01*
X87474790Y-63141636D02*
X87412886Y-63017826D01*
X87412886Y-63017826D02*
X87350981Y-62955921D01*
X87350981Y-62955921D02*
X87227171Y-62894017D01*
X87227171Y-62894017D02*
X86979552Y-62894017D01*
X86979552Y-62894017D02*
X86855743Y-62955921D01*
X86050981Y-63760683D02*
X86174791Y-63698779D01*
X86174791Y-63698779D02*
X86236696Y-63636874D01*
X86236696Y-63636874D02*
X86298600Y-63513064D01*
X86298600Y-63513064D02*
X86298600Y-63141636D01*
X86298600Y-63141636D02*
X86236696Y-63017826D01*
X86236696Y-63017826D02*
X86174791Y-62955921D01*
X86174791Y-62955921D02*
X86050981Y-62894017D01*
X86050981Y-62894017D02*
X85865267Y-62894017D01*
X85865267Y-62894017D02*
X85741458Y-62955921D01*
X85741458Y-62955921D02*
X85679553Y-63017826D01*
X85679553Y-63017826D02*
X85617648Y-63141636D01*
X85617648Y-63141636D02*
X85617648Y-63513064D01*
X85617648Y-63513064D02*
X85679553Y-63636874D01*
X85679553Y-63636874D02*
X85741458Y-63698779D01*
X85741458Y-63698779D02*
X85865267Y-63760683D01*
X85865267Y-63760683D02*
X86050981Y-63760683D01*
X84874791Y-63760683D02*
X84998601Y-63698779D01*
X84998601Y-63698779D02*
X85060506Y-63574969D01*
X85060506Y-63574969D02*
X85060506Y-62460683D01*
X83822411Y-63760683D02*
X83822411Y-62460683D01*
X83822411Y-63698779D02*
X83946220Y-63760683D01*
X83946220Y-63760683D02*
X84193839Y-63760683D01*
X84193839Y-63760683D02*
X84317649Y-63698779D01*
X84317649Y-63698779D02*
X84379554Y-63636874D01*
X84379554Y-63636874D02*
X84441458Y-63513064D01*
X84441458Y-63513064D02*
X84441458Y-63141636D01*
X84441458Y-63141636D02*
X84379554Y-63017826D01*
X84379554Y-63017826D02*
X84317649Y-62955921D01*
X84317649Y-62955921D02*
X84193839Y-62894017D01*
X84193839Y-62894017D02*
X83946220Y-62894017D01*
X83946220Y-62894017D02*
X83822411Y-62955921D01*
X83203364Y-63760683D02*
X83203364Y-62894017D01*
X83203364Y-62460683D02*
X83265268Y-62522588D01*
X83265268Y-62522588D02*
X83203364Y-62584493D01*
X83203364Y-62584493D02*
X83141459Y-62522588D01*
X83141459Y-62522588D02*
X83203364Y-62460683D01*
X83203364Y-62460683D02*
X83203364Y-62584493D01*
X82027173Y-63760683D02*
X82027173Y-63079731D01*
X82027173Y-63079731D02*
X82089078Y-62955921D01*
X82089078Y-62955921D02*
X82212887Y-62894017D01*
X82212887Y-62894017D02*
X82460506Y-62894017D01*
X82460506Y-62894017D02*
X82584316Y-62955921D01*
X82027173Y-63698779D02*
X82150982Y-63760683D01*
X82150982Y-63760683D02*
X82460506Y-63760683D01*
X82460506Y-63760683D02*
X82584316Y-63698779D01*
X82584316Y-63698779D02*
X82646220Y-63574969D01*
X82646220Y-63574969D02*
X82646220Y-63451159D01*
X82646220Y-63451159D02*
X82584316Y-63327350D01*
X82584316Y-63327350D02*
X82460506Y-63265445D01*
X82460506Y-63265445D02*
X82150982Y-63265445D01*
X82150982Y-63265445D02*
X82027173Y-63203540D01*
X81408126Y-62894017D02*
X81408126Y-63760683D01*
X81408126Y-63017826D02*
X81346221Y-62955921D01*
X81346221Y-62955921D02*
X81222411Y-62894017D01*
X81222411Y-62894017D02*
X81036697Y-62894017D01*
X81036697Y-62894017D02*
X80912888Y-62955921D01*
X80912888Y-62955921D02*
X80850983Y-63079731D01*
X80850983Y-63079731D02*
X80850983Y-63760683D01*
X80355745Y-64255921D02*
X80293840Y-64194017D01*
X80293840Y-64194017D02*
X80170031Y-64008302D01*
X80170031Y-64008302D02*
X80108126Y-63884493D01*
X80108126Y-63884493D02*
X80046221Y-63698779D01*
X80046221Y-63698779D02*
X79984317Y-63389255D01*
X79984317Y-63389255D02*
X79984317Y-63141636D01*
X79984317Y-63141636D02*
X80046221Y-62832112D01*
X80046221Y-62832112D02*
X80108126Y-62646398D01*
X80108126Y-62646398D02*
X80170031Y-62522588D01*
X80170031Y-62522588D02*
X80293840Y-62336874D01*
X80293840Y-62336874D02*
X80355745Y-62274969D01*
X118055740Y-65853610D02*
X118055740Y-64553610D01*
X118055740Y-64553610D02*
X117560502Y-64553610D01*
X117560502Y-64553610D02*
X117436692Y-64615515D01*
X117436692Y-64615515D02*
X117374787Y-64677420D01*
X117374787Y-64677420D02*
X117312883Y-64801229D01*
X117312883Y-64801229D02*
X117312883Y-64986944D01*
X117312883Y-64986944D02*
X117374787Y-65110753D01*
X117374787Y-65110753D02*
X117436692Y-65172658D01*
X117436692Y-65172658D02*
X117560502Y-65234563D01*
X117560502Y-65234563D02*
X118055740Y-65234563D01*
X116012883Y-65729801D02*
X116074787Y-65791706D01*
X116074787Y-65791706D02*
X116260502Y-65853610D01*
X116260502Y-65853610D02*
X116384311Y-65853610D01*
X116384311Y-65853610D02*
X116570025Y-65791706D01*
X116570025Y-65791706D02*
X116693835Y-65667896D01*
X116693835Y-65667896D02*
X116755740Y-65544086D01*
X116755740Y-65544086D02*
X116817644Y-65296467D01*
X116817644Y-65296467D02*
X116817644Y-65110753D01*
X116817644Y-65110753D02*
X116755740Y-64863134D01*
X116755740Y-64863134D02*
X116693835Y-64739325D01*
X116693835Y-64739325D02*
X116570025Y-64615515D01*
X116570025Y-64615515D02*
X116384311Y-64553610D01*
X116384311Y-64553610D02*
X116260502Y-64553610D01*
X116260502Y-64553610D02*
X116074787Y-64615515D01*
X116074787Y-64615515D02*
X116012883Y-64677420D01*
X115022406Y-65172658D02*
X114836692Y-65234563D01*
X114836692Y-65234563D02*
X114774787Y-65296467D01*
X114774787Y-65296467D02*
X114712883Y-65420277D01*
X114712883Y-65420277D02*
X114712883Y-65605991D01*
X114712883Y-65605991D02*
X114774787Y-65729801D01*
X114774787Y-65729801D02*
X114836692Y-65791706D01*
X114836692Y-65791706D02*
X114960502Y-65853610D01*
X114960502Y-65853610D02*
X115455740Y-65853610D01*
X115455740Y-65853610D02*
X115455740Y-64553610D01*
X115455740Y-64553610D02*
X115022406Y-64553610D01*
X115022406Y-64553610D02*
X114898597Y-64615515D01*
X114898597Y-64615515D02*
X114836692Y-64677420D01*
X114836692Y-64677420D02*
X114774787Y-64801229D01*
X114774787Y-64801229D02*
X114774787Y-64925039D01*
X114774787Y-64925039D02*
X114836692Y-65048848D01*
X114836692Y-65048848D02*
X114898597Y-65110753D01*
X114898597Y-65110753D02*
X115022406Y-65172658D01*
X115022406Y-65172658D02*
X115455740Y-65172658D01*
X112546216Y-65853610D02*
X113165264Y-65853610D01*
X113165264Y-65853610D02*
X113165264Y-64553610D01*
X111555740Y-65853610D02*
X111555740Y-65172658D01*
X111555740Y-65172658D02*
X111617645Y-65048848D01*
X111617645Y-65048848D02*
X111741454Y-64986944D01*
X111741454Y-64986944D02*
X111989073Y-64986944D01*
X111989073Y-64986944D02*
X112112883Y-65048848D01*
X111555740Y-65791706D02*
X111679549Y-65853610D01*
X111679549Y-65853610D02*
X111989073Y-65853610D01*
X111989073Y-65853610D02*
X112112883Y-65791706D01*
X112112883Y-65791706D02*
X112174787Y-65667896D01*
X112174787Y-65667896D02*
X112174787Y-65544086D01*
X112174787Y-65544086D02*
X112112883Y-65420277D01*
X112112883Y-65420277D02*
X111989073Y-65358372D01*
X111989073Y-65358372D02*
X111679549Y-65358372D01*
X111679549Y-65358372D02*
X111555740Y-65296467D01*
X111060502Y-64986944D02*
X110750978Y-65853610D01*
X110441455Y-64986944D02*
X110750978Y-65853610D01*
X110750978Y-65853610D02*
X110874788Y-66163134D01*
X110874788Y-66163134D02*
X110936693Y-66225039D01*
X110936693Y-66225039D02*
X111060502Y-66286944D01*
X109760502Y-65853610D02*
X109884312Y-65791706D01*
X109884312Y-65791706D02*
X109946217Y-65729801D01*
X109946217Y-65729801D02*
X110008121Y-65605991D01*
X110008121Y-65605991D02*
X110008121Y-65234563D01*
X110008121Y-65234563D02*
X109946217Y-65110753D01*
X109946217Y-65110753D02*
X109884312Y-65048848D01*
X109884312Y-65048848D02*
X109760502Y-64986944D01*
X109760502Y-64986944D02*
X109574788Y-64986944D01*
X109574788Y-64986944D02*
X109450979Y-65048848D01*
X109450979Y-65048848D02*
X109389074Y-65110753D01*
X109389074Y-65110753D02*
X109327169Y-65234563D01*
X109327169Y-65234563D02*
X109327169Y-65605991D01*
X109327169Y-65605991D02*
X109389074Y-65729801D01*
X109389074Y-65729801D02*
X109450979Y-65791706D01*
X109450979Y-65791706D02*
X109574788Y-65853610D01*
X109574788Y-65853610D02*
X109760502Y-65853610D01*
X108212884Y-64986944D02*
X108212884Y-65853610D01*
X108770027Y-64986944D02*
X108770027Y-65667896D01*
X108770027Y-65667896D02*
X108708122Y-65791706D01*
X108708122Y-65791706D02*
X108584312Y-65853610D01*
X108584312Y-65853610D02*
X108398598Y-65853610D01*
X108398598Y-65853610D02*
X108274789Y-65791706D01*
X108274789Y-65791706D02*
X108212884Y-65729801D01*
X107779551Y-64986944D02*
X107284313Y-64986944D01*
X107593837Y-64553610D02*
X107593837Y-65667896D01*
X107593837Y-65667896D02*
X107531932Y-65791706D01*
X107531932Y-65791706D02*
X107408122Y-65853610D01*
X107408122Y-65853610D02*
X107284313Y-65853610D01*
X106850980Y-65729801D02*
X106789075Y-65791706D01*
X106789075Y-65791706D02*
X106850980Y-65853610D01*
X106850980Y-65853610D02*
X106912884Y-65791706D01*
X106912884Y-65791706D02*
X106850980Y-65729801D01*
X106850980Y-65729801D02*
X106850980Y-65853610D01*
X106850980Y-65048848D02*
X106789075Y-65110753D01*
X106789075Y-65110753D02*
X106850980Y-65172658D01*
X106850980Y-65172658D02*
X106912884Y-65110753D01*
X106912884Y-65110753D02*
X106850980Y-65048848D01*
X106850980Y-65048848D02*
X106850980Y-65172658D01*
X105241456Y-65853610D02*
X105241456Y-64553610D01*
X104065265Y-65853610D02*
X104065265Y-65172658D01*
X104065265Y-65172658D02*
X104127170Y-65048848D01*
X104127170Y-65048848D02*
X104250979Y-64986944D01*
X104250979Y-64986944D02*
X104498598Y-64986944D01*
X104498598Y-64986944D02*
X104622408Y-65048848D01*
X104065265Y-65791706D02*
X104189074Y-65853610D01*
X104189074Y-65853610D02*
X104498598Y-65853610D01*
X104498598Y-65853610D02*
X104622408Y-65791706D01*
X104622408Y-65791706D02*
X104684312Y-65667896D01*
X104684312Y-65667896D02*
X104684312Y-65544086D01*
X104684312Y-65544086D02*
X104622408Y-65420277D01*
X104622408Y-65420277D02*
X104498598Y-65358372D01*
X104498598Y-65358372D02*
X104189074Y-65358372D01*
X104189074Y-65358372D02*
X104065265Y-65296467D01*
X103446218Y-64986944D02*
X103446218Y-65853610D01*
X103446218Y-65110753D02*
X103384313Y-65048848D01*
X103384313Y-65048848D02*
X103260503Y-64986944D01*
X103260503Y-64986944D02*
X103074789Y-64986944D01*
X103074789Y-64986944D02*
X102950980Y-65048848D01*
X102950980Y-65048848D02*
X102889075Y-65172658D01*
X102889075Y-65172658D02*
X102889075Y-65853610D01*
X100536695Y-65729801D02*
X100598599Y-65791706D01*
X100598599Y-65791706D02*
X100784314Y-65853610D01*
X100784314Y-65853610D02*
X100908123Y-65853610D01*
X100908123Y-65853610D02*
X101093837Y-65791706D01*
X101093837Y-65791706D02*
X101217647Y-65667896D01*
X101217647Y-65667896D02*
X101279552Y-65544086D01*
X101279552Y-65544086D02*
X101341456Y-65296467D01*
X101341456Y-65296467D02*
X101341456Y-65110753D01*
X101341456Y-65110753D02*
X101279552Y-64863134D01*
X101279552Y-64863134D02*
X101217647Y-64739325D01*
X101217647Y-64739325D02*
X101093837Y-64615515D01*
X101093837Y-64615515D02*
X100908123Y-64553610D01*
X100908123Y-64553610D02*
X100784314Y-64553610D01*
X100784314Y-64553610D02*
X100598599Y-64615515D01*
X100598599Y-64615515D02*
X100536695Y-64677420D01*
X99422409Y-64986944D02*
X99422409Y-65853610D01*
X99979552Y-64986944D02*
X99979552Y-65667896D01*
X99979552Y-65667896D02*
X99917647Y-65791706D01*
X99917647Y-65791706D02*
X99793837Y-65853610D01*
X99793837Y-65853610D02*
X99608123Y-65853610D01*
X99608123Y-65853610D02*
X99484314Y-65791706D01*
X99484314Y-65791706D02*
X99422409Y-65729801D01*
X98246219Y-65853610D02*
X98246219Y-64553610D01*
X98246219Y-65791706D02*
X98370028Y-65853610D01*
X98370028Y-65853610D02*
X98617647Y-65853610D01*
X98617647Y-65853610D02*
X98741457Y-65791706D01*
X98741457Y-65791706D02*
X98803362Y-65729801D01*
X98803362Y-65729801D02*
X98865266Y-65605991D01*
X98865266Y-65605991D02*
X98865266Y-65234563D01*
X98865266Y-65234563D02*
X98803362Y-65110753D01*
X98803362Y-65110753D02*
X98741457Y-65048848D01*
X98741457Y-65048848D02*
X98617647Y-64986944D01*
X98617647Y-64986944D02*
X98370028Y-64986944D01*
X98370028Y-64986944D02*
X98246219Y-65048848D01*
X97441457Y-65853610D02*
X97565267Y-65791706D01*
X97565267Y-65791706D02*
X97627172Y-65667896D01*
X97627172Y-65667896D02*
X97627172Y-64553610D01*
X96946220Y-65853610D02*
X96946220Y-64986944D01*
X96946220Y-64553610D02*
X97008124Y-64615515D01*
X97008124Y-64615515D02*
X96946220Y-64677420D01*
X96946220Y-64677420D02*
X96884315Y-64615515D01*
X96884315Y-64615515D02*
X96946220Y-64553610D01*
X96946220Y-64553610D02*
X96946220Y-64677420D01*
X96327172Y-64986944D02*
X96327172Y-66286944D01*
X96327172Y-65048848D02*
X96203362Y-64986944D01*
X96203362Y-64986944D02*
X95955743Y-64986944D01*
X95955743Y-64986944D02*
X95831934Y-65048848D01*
X95831934Y-65048848D02*
X95770029Y-65110753D01*
X95770029Y-65110753D02*
X95708124Y-65234563D01*
X95708124Y-65234563D02*
X95708124Y-65605991D01*
X95708124Y-65605991D02*
X95770029Y-65729801D01*
X95770029Y-65729801D02*
X95831934Y-65791706D01*
X95831934Y-65791706D02*
X95955743Y-65853610D01*
X95955743Y-65853610D02*
X96203362Y-65853610D01*
X96203362Y-65853610D02*
X96327172Y-65791706D01*
X93789077Y-66348848D02*
X93850982Y-66286944D01*
X93850982Y-66286944D02*
X93974791Y-66101229D01*
X93974791Y-66101229D02*
X94036696Y-65977420D01*
X94036696Y-65977420D02*
X94098601Y-65791706D01*
X94098601Y-65791706D02*
X94160506Y-65482182D01*
X94160506Y-65482182D02*
X94160506Y-65234563D01*
X94160506Y-65234563D02*
X94098601Y-64925039D01*
X94098601Y-64925039D02*
X94036696Y-64739325D01*
X94036696Y-64739325D02*
X93974791Y-64615515D01*
X93974791Y-64615515D02*
X93850982Y-64429801D01*
X93850982Y-64429801D02*
X93789077Y-64367896D01*
X92489077Y-65234563D02*
X92550982Y-65172658D01*
X92550982Y-65172658D02*
X92674791Y-65110753D01*
X92674791Y-65110753D02*
X92798601Y-65110753D01*
X92798601Y-65110753D02*
X92922410Y-65172658D01*
X92922410Y-65172658D02*
X92984315Y-65234563D01*
X92984315Y-65234563D02*
X93046220Y-65358372D01*
X93046220Y-65358372D02*
X93046220Y-65482182D01*
X93046220Y-65482182D02*
X92984315Y-65605991D01*
X92984315Y-65605991D02*
X92922410Y-65667896D01*
X92922410Y-65667896D02*
X92798601Y-65729801D01*
X92798601Y-65729801D02*
X92674791Y-65729801D01*
X92674791Y-65729801D02*
X92550982Y-65667896D01*
X92550982Y-65667896D02*
X92489077Y-65605991D01*
X92489077Y-65110753D02*
X92489077Y-65605991D01*
X92489077Y-65605991D02*
X92427172Y-65667896D01*
X92427172Y-65667896D02*
X92365267Y-65667896D01*
X92365267Y-65667896D02*
X92241458Y-65605991D01*
X92241458Y-65605991D02*
X92179553Y-65482182D01*
X92179553Y-65482182D02*
X92179553Y-65172658D01*
X92179553Y-65172658D02*
X92303363Y-64986944D01*
X92303363Y-64986944D02*
X92489077Y-64863134D01*
X92489077Y-64863134D02*
X92736696Y-64801229D01*
X92736696Y-64801229D02*
X92984315Y-64863134D01*
X92984315Y-64863134D02*
X93170029Y-64986944D01*
X93170029Y-64986944D02*
X93293839Y-65172658D01*
X93293839Y-65172658D02*
X93355743Y-65420277D01*
X93355743Y-65420277D02*
X93293839Y-65667896D01*
X93293839Y-65667896D02*
X93170029Y-65853610D01*
X93170029Y-65853610D02*
X92984315Y-65977420D01*
X92984315Y-65977420D02*
X92736696Y-66039325D01*
X92736696Y-66039325D02*
X92489077Y-65977420D01*
X92489077Y-65977420D02*
X92303363Y-65853610D01*
X91065267Y-64986944D02*
X91065267Y-66039325D01*
X91065267Y-66039325D02*
X91127172Y-66163134D01*
X91127172Y-66163134D02*
X91189076Y-66225039D01*
X91189076Y-66225039D02*
X91312886Y-66286944D01*
X91312886Y-66286944D02*
X91498600Y-66286944D01*
X91498600Y-66286944D02*
X91622410Y-66225039D01*
X91065267Y-65791706D02*
X91189076Y-65853610D01*
X91189076Y-65853610D02*
X91436695Y-65853610D01*
X91436695Y-65853610D02*
X91560505Y-65791706D01*
X91560505Y-65791706D02*
X91622410Y-65729801D01*
X91622410Y-65729801D02*
X91684314Y-65605991D01*
X91684314Y-65605991D02*
X91684314Y-65234563D01*
X91684314Y-65234563D02*
X91622410Y-65110753D01*
X91622410Y-65110753D02*
X91560505Y-65048848D01*
X91560505Y-65048848D02*
X91436695Y-64986944D01*
X91436695Y-64986944D02*
X91189076Y-64986944D01*
X91189076Y-64986944D02*
X91065267Y-65048848D01*
X90446220Y-65853610D02*
X90446220Y-64986944D01*
X90446220Y-65234563D02*
X90384315Y-65110753D01*
X90384315Y-65110753D02*
X90322410Y-65048848D01*
X90322410Y-65048848D02*
X90198601Y-64986944D01*
X90198601Y-64986944D02*
X90074791Y-64986944D01*
X89084315Y-65853610D02*
X89084315Y-65172658D01*
X89084315Y-65172658D02*
X89146220Y-65048848D01*
X89146220Y-65048848D02*
X89270029Y-64986944D01*
X89270029Y-64986944D02*
X89517648Y-64986944D01*
X89517648Y-64986944D02*
X89641458Y-65048848D01*
X89084315Y-65791706D02*
X89208124Y-65853610D01*
X89208124Y-65853610D02*
X89517648Y-65853610D01*
X89517648Y-65853610D02*
X89641458Y-65791706D01*
X89641458Y-65791706D02*
X89703362Y-65667896D01*
X89703362Y-65667896D02*
X89703362Y-65544086D01*
X89703362Y-65544086D02*
X89641458Y-65420277D01*
X89641458Y-65420277D02*
X89517648Y-65358372D01*
X89517648Y-65358372D02*
X89208124Y-65358372D01*
X89208124Y-65358372D02*
X89084315Y-65296467D01*
X88465268Y-64986944D02*
X88465268Y-65853610D01*
X88465268Y-65110753D02*
X88403363Y-65048848D01*
X88403363Y-65048848D02*
X88279553Y-64986944D01*
X88279553Y-64986944D02*
X88093839Y-64986944D01*
X88093839Y-64986944D02*
X87970030Y-65048848D01*
X87970030Y-65048848D02*
X87908125Y-65172658D01*
X87908125Y-65172658D02*
X87908125Y-65853610D01*
X86731935Y-65853610D02*
X86731935Y-64553610D01*
X86731935Y-65791706D02*
X86855744Y-65853610D01*
X86855744Y-65853610D02*
X87103363Y-65853610D01*
X87103363Y-65853610D02*
X87227173Y-65791706D01*
X87227173Y-65791706D02*
X87289078Y-65729801D01*
X87289078Y-65729801D02*
X87350982Y-65605991D01*
X87350982Y-65605991D02*
X87350982Y-65234563D01*
X87350982Y-65234563D02*
X87289078Y-65110753D01*
X87289078Y-65110753D02*
X87227173Y-65048848D01*
X87227173Y-65048848D02*
X87103363Y-64986944D01*
X87103363Y-64986944D02*
X86855744Y-64986944D01*
X86855744Y-64986944D02*
X86731935Y-65048848D01*
X85927173Y-65853610D02*
X86050983Y-65791706D01*
X86050983Y-65791706D02*
X86112888Y-65729801D01*
X86112888Y-65729801D02*
X86174792Y-65605991D01*
X86174792Y-65605991D02*
X86174792Y-65234563D01*
X86174792Y-65234563D02*
X86112888Y-65110753D01*
X86112888Y-65110753D02*
X86050983Y-65048848D01*
X86050983Y-65048848D02*
X85927173Y-64986944D01*
X85927173Y-64986944D02*
X85741459Y-64986944D01*
X85741459Y-64986944D02*
X85617650Y-65048848D01*
X85617650Y-65048848D02*
X85555745Y-65110753D01*
X85555745Y-65110753D02*
X85493840Y-65234563D01*
X85493840Y-65234563D02*
X85493840Y-65605991D01*
X85493840Y-65605991D02*
X85555745Y-65729801D01*
X85555745Y-65729801D02*
X85617650Y-65791706D01*
X85617650Y-65791706D02*
X85741459Y-65853610D01*
X85741459Y-65853610D02*
X85927173Y-65853610D01*
X84750983Y-65853610D02*
X84874793Y-65791706D01*
X84874793Y-65791706D02*
X84936698Y-65667896D01*
X84936698Y-65667896D02*
X84936698Y-64553610D01*
X83698603Y-65853610D02*
X83698603Y-64553610D01*
X83698603Y-65791706D02*
X83822412Y-65853610D01*
X83822412Y-65853610D02*
X84070031Y-65853610D01*
X84070031Y-65853610D02*
X84193841Y-65791706D01*
X84193841Y-65791706D02*
X84255746Y-65729801D01*
X84255746Y-65729801D02*
X84317650Y-65605991D01*
X84317650Y-65605991D02*
X84317650Y-65234563D01*
X84317650Y-65234563D02*
X84255746Y-65110753D01*
X84255746Y-65110753D02*
X84193841Y-65048848D01*
X84193841Y-65048848D02*
X84070031Y-64986944D01*
X84070031Y-64986944D02*
X83822412Y-64986944D01*
X83822412Y-64986944D02*
X83698603Y-65048848D01*
X83079556Y-65853610D02*
X83079556Y-64986944D01*
X83079556Y-64553610D02*
X83141460Y-64615515D01*
X83141460Y-64615515D02*
X83079556Y-64677420D01*
X83079556Y-64677420D02*
X83017651Y-64615515D01*
X83017651Y-64615515D02*
X83079556Y-64553610D01*
X83079556Y-64553610D02*
X83079556Y-64677420D01*
X81903365Y-65853610D02*
X81903365Y-65172658D01*
X81903365Y-65172658D02*
X81965270Y-65048848D01*
X81965270Y-65048848D02*
X82089079Y-64986944D01*
X82089079Y-64986944D02*
X82336698Y-64986944D01*
X82336698Y-64986944D02*
X82460508Y-65048848D01*
X81903365Y-65791706D02*
X82027174Y-65853610D01*
X82027174Y-65853610D02*
X82336698Y-65853610D01*
X82336698Y-65853610D02*
X82460508Y-65791706D01*
X82460508Y-65791706D02*
X82522412Y-65667896D01*
X82522412Y-65667896D02*
X82522412Y-65544086D01*
X82522412Y-65544086D02*
X82460508Y-65420277D01*
X82460508Y-65420277D02*
X82336698Y-65358372D01*
X82336698Y-65358372D02*
X82027174Y-65358372D01*
X82027174Y-65358372D02*
X81903365Y-65296467D01*
X81284318Y-64986944D02*
X81284318Y-65853610D01*
X81284318Y-65110753D02*
X81222413Y-65048848D01*
X81222413Y-65048848D02*
X81098603Y-64986944D01*
X81098603Y-64986944D02*
X80912889Y-64986944D01*
X80912889Y-64986944D02*
X80789080Y-65048848D01*
X80789080Y-65048848D02*
X80727175Y-65172658D01*
X80727175Y-65172658D02*
X80727175Y-65853610D01*
X80231937Y-66348848D02*
X80170032Y-66286944D01*
X80170032Y-66286944D02*
X80046223Y-66101229D01*
X80046223Y-66101229D02*
X79984318Y-65977420D01*
X79984318Y-65977420D02*
X79922413Y-65791706D01*
X79922413Y-65791706D02*
X79860509Y-65482182D01*
X79860509Y-65482182D02*
X79860509Y-65234563D01*
X79860509Y-65234563D02*
X79922413Y-64925039D01*
X79922413Y-64925039D02*
X79984318Y-64739325D01*
X79984318Y-64739325D02*
X80046223Y-64615515D01*
X80046223Y-64615515D02*
X80170032Y-64429801D01*
X80170032Y-64429801D02*
X80231937Y-64367896D01*
X104436695Y-67946537D02*
X104870028Y-67327490D01*
X105179552Y-67946537D02*
X105179552Y-66646537D01*
X105179552Y-66646537D02*
X104684314Y-66646537D01*
X104684314Y-66646537D02*
X104560504Y-66708442D01*
X104560504Y-66708442D02*
X104498599Y-66770347D01*
X104498599Y-66770347D02*
X104436695Y-66894156D01*
X104436695Y-66894156D02*
X104436695Y-67079871D01*
X104436695Y-67079871D02*
X104498599Y-67203680D01*
X104498599Y-67203680D02*
X104560504Y-67265585D01*
X104560504Y-67265585D02*
X104684314Y-67327490D01*
X104684314Y-67327490D02*
X105179552Y-67327490D01*
X103693837Y-67946537D02*
X103817647Y-67884633D01*
X103817647Y-67884633D02*
X103879552Y-67822728D01*
X103879552Y-67822728D02*
X103941456Y-67698918D01*
X103941456Y-67698918D02*
X103941456Y-67327490D01*
X103941456Y-67327490D02*
X103879552Y-67203680D01*
X103879552Y-67203680D02*
X103817647Y-67141775D01*
X103817647Y-67141775D02*
X103693837Y-67079871D01*
X103693837Y-67079871D02*
X103508123Y-67079871D01*
X103508123Y-67079871D02*
X103384314Y-67141775D01*
X103384314Y-67141775D02*
X103322409Y-67203680D01*
X103322409Y-67203680D02*
X103260504Y-67327490D01*
X103260504Y-67327490D02*
X103260504Y-67698918D01*
X103260504Y-67698918D02*
X103322409Y-67822728D01*
X103322409Y-67822728D02*
X103384314Y-67884633D01*
X103384314Y-67884633D02*
X103508123Y-67946537D01*
X103508123Y-67946537D02*
X103693837Y-67946537D01*
X102703362Y-67946537D02*
X102703362Y-66646537D01*
X102703362Y-67141775D02*
X102579552Y-67079871D01*
X102579552Y-67079871D02*
X102331933Y-67079871D01*
X102331933Y-67079871D02*
X102208124Y-67141775D01*
X102208124Y-67141775D02*
X102146219Y-67203680D01*
X102146219Y-67203680D02*
X102084314Y-67327490D01*
X102084314Y-67327490D02*
X102084314Y-67698918D01*
X102084314Y-67698918D02*
X102146219Y-67822728D01*
X102146219Y-67822728D02*
X102208124Y-67884633D01*
X102208124Y-67884633D02*
X102331933Y-67946537D01*
X102331933Y-67946537D02*
X102579552Y-67946537D01*
X102579552Y-67946537D02*
X102703362Y-67884633D01*
X100722410Y-66646537D02*
X99979553Y-66646537D01*
X100350981Y-67946537D02*
X100350981Y-66646537D01*
X98989077Y-67946537D02*
X98989077Y-67265585D01*
X98989077Y-67265585D02*
X99050982Y-67141775D01*
X99050982Y-67141775D02*
X99174791Y-67079871D01*
X99174791Y-67079871D02*
X99422410Y-67079871D01*
X99422410Y-67079871D02*
X99546220Y-67141775D01*
X98989077Y-67884633D02*
X99112886Y-67946537D01*
X99112886Y-67946537D02*
X99422410Y-67946537D01*
X99422410Y-67946537D02*
X99546220Y-67884633D01*
X99546220Y-67884633D02*
X99608124Y-67760823D01*
X99608124Y-67760823D02*
X99608124Y-67637013D01*
X99608124Y-67637013D02*
X99546220Y-67513204D01*
X99546220Y-67513204D02*
X99422410Y-67451299D01*
X99422410Y-67451299D02*
X99112886Y-67451299D01*
X99112886Y-67451299D02*
X98989077Y-67389394D01*
X98493839Y-67079871D02*
X98184315Y-67946537D01*
X97874792Y-67079871D02*
X98184315Y-67946537D01*
X98184315Y-67946537D02*
X98308125Y-68256061D01*
X98308125Y-68256061D02*
X98370030Y-68317966D01*
X98370030Y-68317966D02*
X98493839Y-68379871D01*
X97193839Y-67946537D02*
X97317649Y-67884633D01*
X97317649Y-67884633D02*
X97379554Y-67760823D01*
X97379554Y-67760823D02*
X97379554Y-66646537D01*
X96512887Y-67946537D02*
X96636697Y-67884633D01*
X96636697Y-67884633D02*
X96698602Y-67822728D01*
X96698602Y-67822728D02*
X96760506Y-67698918D01*
X96760506Y-67698918D02*
X96760506Y-67327490D01*
X96760506Y-67327490D02*
X96698602Y-67203680D01*
X96698602Y-67203680D02*
X96636697Y-67141775D01*
X96636697Y-67141775D02*
X96512887Y-67079871D01*
X96512887Y-67079871D02*
X96327173Y-67079871D01*
X96327173Y-67079871D02*
X96203364Y-67141775D01*
X96203364Y-67141775D02*
X96141459Y-67203680D01*
X96141459Y-67203680D02*
X96079554Y-67327490D01*
X96079554Y-67327490D02*
X96079554Y-67698918D01*
X96079554Y-67698918D02*
X96141459Y-67822728D01*
X96141459Y-67822728D02*
X96203364Y-67884633D01*
X96203364Y-67884633D02*
X96327173Y-67946537D01*
X96327173Y-67946537D02*
X96512887Y-67946537D01*
X95522412Y-67946537D02*
X95522412Y-67079871D01*
X95522412Y-67327490D02*
X95460507Y-67203680D01*
X95460507Y-67203680D02*
X95398602Y-67141775D01*
X95398602Y-67141775D02*
X95274793Y-67079871D01*
X95274793Y-67079871D02*
X95150983Y-67079871D01*
X93355745Y-68441775D02*
X93417650Y-68379871D01*
X93417650Y-68379871D02*
X93541459Y-68194156D01*
X93541459Y-68194156D02*
X93603364Y-68070347D01*
X93603364Y-68070347D02*
X93665269Y-67884633D01*
X93665269Y-67884633D02*
X93727174Y-67575109D01*
X93727174Y-67575109D02*
X93727174Y-67327490D01*
X93727174Y-67327490D02*
X93665269Y-67017966D01*
X93665269Y-67017966D02*
X93603364Y-66832252D01*
X93603364Y-66832252D02*
X93541459Y-66708442D01*
X93541459Y-66708442D02*
X93417650Y-66522728D01*
X93417650Y-66522728D02*
X93355745Y-66460823D01*
X92055745Y-67327490D02*
X92117650Y-67265585D01*
X92117650Y-67265585D02*
X92241459Y-67203680D01*
X92241459Y-67203680D02*
X92365269Y-67203680D01*
X92365269Y-67203680D02*
X92489078Y-67265585D01*
X92489078Y-67265585D02*
X92550983Y-67327490D01*
X92550983Y-67327490D02*
X92612888Y-67451299D01*
X92612888Y-67451299D02*
X92612888Y-67575109D01*
X92612888Y-67575109D02*
X92550983Y-67698918D01*
X92550983Y-67698918D02*
X92489078Y-67760823D01*
X92489078Y-67760823D02*
X92365269Y-67822728D01*
X92365269Y-67822728D02*
X92241459Y-67822728D01*
X92241459Y-67822728D02*
X92117650Y-67760823D01*
X92117650Y-67760823D02*
X92055745Y-67698918D01*
X92055745Y-67203680D02*
X92055745Y-67698918D01*
X92055745Y-67698918D02*
X91993840Y-67760823D01*
X91993840Y-67760823D02*
X91931935Y-67760823D01*
X91931935Y-67760823D02*
X91808126Y-67698918D01*
X91808126Y-67698918D02*
X91746221Y-67575109D01*
X91746221Y-67575109D02*
X91746221Y-67265585D01*
X91746221Y-67265585D02*
X91870031Y-67079871D01*
X91870031Y-67079871D02*
X92055745Y-66956061D01*
X92055745Y-66956061D02*
X92303364Y-66894156D01*
X92303364Y-66894156D02*
X92550983Y-66956061D01*
X92550983Y-66956061D02*
X92736697Y-67079871D01*
X92736697Y-67079871D02*
X92860507Y-67265585D01*
X92860507Y-67265585D02*
X92922411Y-67513204D01*
X92922411Y-67513204D02*
X92860507Y-67760823D01*
X92860507Y-67760823D02*
X92736697Y-67946537D01*
X92736697Y-67946537D02*
X92550983Y-68070347D01*
X92550983Y-68070347D02*
X92303364Y-68132252D01*
X92303364Y-68132252D02*
X92055745Y-68070347D01*
X92055745Y-68070347D02*
X91870031Y-67946537D01*
X91189078Y-67079871D02*
X91189078Y-68379871D01*
X91189078Y-67141775D02*
X91065268Y-67079871D01*
X91065268Y-67079871D02*
X90817649Y-67079871D01*
X90817649Y-67079871D02*
X90693840Y-67141775D01*
X90693840Y-67141775D02*
X90631935Y-67203680D01*
X90631935Y-67203680D02*
X90570030Y-67327490D01*
X90570030Y-67327490D02*
X90570030Y-67698918D01*
X90570030Y-67698918D02*
X90631935Y-67822728D01*
X90631935Y-67822728D02*
X90693840Y-67884633D01*
X90693840Y-67884633D02*
X90817649Y-67946537D01*
X90817649Y-67946537D02*
X91065268Y-67946537D01*
X91065268Y-67946537D02*
X91189078Y-67884633D01*
X89517650Y-67884633D02*
X89641459Y-67946537D01*
X89641459Y-67946537D02*
X89889078Y-67946537D01*
X89889078Y-67946537D02*
X90012888Y-67884633D01*
X90012888Y-67884633D02*
X90074792Y-67760823D01*
X90074792Y-67760823D02*
X90074792Y-67265585D01*
X90074792Y-67265585D02*
X90012888Y-67141775D01*
X90012888Y-67141775D02*
X89889078Y-67079871D01*
X89889078Y-67079871D02*
X89641459Y-67079871D01*
X89641459Y-67079871D02*
X89517650Y-67141775D01*
X89517650Y-67141775D02*
X89455745Y-67265585D01*
X89455745Y-67265585D02*
X89455745Y-67389394D01*
X89455745Y-67389394D02*
X90074792Y-67513204D01*
X88403364Y-67884633D02*
X88527173Y-67946537D01*
X88527173Y-67946537D02*
X88774792Y-67946537D01*
X88774792Y-67946537D02*
X88898602Y-67884633D01*
X88898602Y-67884633D02*
X88960506Y-67760823D01*
X88960506Y-67760823D02*
X88960506Y-67265585D01*
X88960506Y-67265585D02*
X88898602Y-67141775D01*
X88898602Y-67141775D02*
X88774792Y-67079871D01*
X88774792Y-67079871D02*
X88527173Y-67079871D01*
X88527173Y-67079871D02*
X88403364Y-67141775D01*
X88403364Y-67141775D02*
X88341459Y-67265585D01*
X88341459Y-67265585D02*
X88341459Y-67389394D01*
X88341459Y-67389394D02*
X88960506Y-67513204D01*
X87784316Y-67079871D02*
X87784316Y-68379871D01*
X87784316Y-67141775D02*
X87660506Y-67079871D01*
X87660506Y-67079871D02*
X87412887Y-67079871D01*
X87412887Y-67079871D02*
X87289078Y-67141775D01*
X87289078Y-67141775D02*
X87227173Y-67203680D01*
X87227173Y-67203680D02*
X87165268Y-67327490D01*
X87165268Y-67327490D02*
X87165268Y-67698918D01*
X87165268Y-67698918D02*
X87227173Y-67822728D01*
X87227173Y-67822728D02*
X87289078Y-67884633D01*
X87289078Y-67884633D02*
X87412887Y-67946537D01*
X87412887Y-67946537D02*
X87660506Y-67946537D01*
X87660506Y-67946537D02*
X87784316Y-67884633D01*
X86422411Y-67946537D02*
X86546221Y-67884633D01*
X86546221Y-67884633D02*
X86608126Y-67822728D01*
X86608126Y-67822728D02*
X86670030Y-67698918D01*
X86670030Y-67698918D02*
X86670030Y-67327490D01*
X86670030Y-67327490D02*
X86608126Y-67203680D01*
X86608126Y-67203680D02*
X86546221Y-67141775D01*
X86546221Y-67141775D02*
X86422411Y-67079871D01*
X86422411Y-67079871D02*
X86236697Y-67079871D01*
X86236697Y-67079871D02*
X86112888Y-67141775D01*
X86112888Y-67141775D02*
X86050983Y-67203680D01*
X86050983Y-67203680D02*
X85989078Y-67327490D01*
X85989078Y-67327490D02*
X85989078Y-67698918D01*
X85989078Y-67698918D02*
X86050983Y-67822728D01*
X86050983Y-67822728D02*
X86112888Y-67884633D01*
X86112888Y-67884633D02*
X86236697Y-67946537D01*
X86236697Y-67946537D02*
X86422411Y-67946537D01*
X84874793Y-67079871D02*
X84874793Y-67946537D01*
X85431936Y-67079871D02*
X85431936Y-67760823D01*
X85431936Y-67760823D02*
X85370031Y-67884633D01*
X85370031Y-67884633D02*
X85246221Y-67946537D01*
X85246221Y-67946537D02*
X85060507Y-67946537D01*
X85060507Y-67946537D02*
X84936698Y-67884633D01*
X84936698Y-67884633D02*
X84874793Y-67822728D01*
X84255746Y-67946537D02*
X84255746Y-66646537D01*
X84131936Y-67451299D02*
X83760508Y-67946537D01*
X83760508Y-67079871D02*
X84255746Y-67575109D01*
X83327174Y-68441775D02*
X83265269Y-68379871D01*
X83265269Y-68379871D02*
X83141460Y-68194156D01*
X83141460Y-68194156D02*
X83079555Y-68070347D01*
X83079555Y-68070347D02*
X83017650Y-67884633D01*
X83017650Y-67884633D02*
X82955746Y-67575109D01*
X82955746Y-67575109D02*
X82955746Y-67327490D01*
X82955746Y-67327490D02*
X83017650Y-67017966D01*
X83017650Y-67017966D02*
X83079555Y-66832252D01*
X83079555Y-66832252D02*
X83141460Y-66708442D01*
X83141460Y-66708442D02*
X83265269Y-66522728D01*
X83265269Y-66522728D02*
X83327174Y-66460823D01*
X118117644Y-69977560D02*
X117931930Y-70039464D01*
X117931930Y-70039464D02*
X117622406Y-70039464D01*
X117622406Y-70039464D02*
X117498597Y-69977560D01*
X117498597Y-69977560D02*
X117436692Y-69915655D01*
X117436692Y-69915655D02*
X117374787Y-69791845D01*
X117374787Y-69791845D02*
X117374787Y-69668036D01*
X117374787Y-69668036D02*
X117436692Y-69544226D01*
X117436692Y-69544226D02*
X117498597Y-69482321D01*
X117498597Y-69482321D02*
X117622406Y-69420417D01*
X117622406Y-69420417D02*
X117870025Y-69358512D01*
X117870025Y-69358512D02*
X117993835Y-69296607D01*
X117993835Y-69296607D02*
X118055740Y-69234702D01*
X118055740Y-69234702D02*
X118117644Y-69110893D01*
X118117644Y-69110893D02*
X118117644Y-68987083D01*
X118117644Y-68987083D02*
X118055740Y-68863274D01*
X118055740Y-68863274D02*
X117993835Y-68801369D01*
X117993835Y-68801369D02*
X117870025Y-68739464D01*
X117870025Y-68739464D02*
X117560502Y-68739464D01*
X117560502Y-68739464D02*
X117374787Y-68801369D01*
X116817645Y-69172798D02*
X116817645Y-70472798D01*
X116817645Y-69234702D02*
X116693835Y-69172798D01*
X116693835Y-69172798D02*
X116446216Y-69172798D01*
X116446216Y-69172798D02*
X116322407Y-69234702D01*
X116322407Y-69234702D02*
X116260502Y-69296607D01*
X116260502Y-69296607D02*
X116198597Y-69420417D01*
X116198597Y-69420417D02*
X116198597Y-69791845D01*
X116198597Y-69791845D02*
X116260502Y-69915655D01*
X116260502Y-69915655D02*
X116322407Y-69977560D01*
X116322407Y-69977560D02*
X116446216Y-70039464D01*
X116446216Y-70039464D02*
X116693835Y-70039464D01*
X116693835Y-70039464D02*
X116817645Y-69977560D01*
X115146217Y-69977560D02*
X115270026Y-70039464D01*
X115270026Y-70039464D02*
X115517645Y-70039464D01*
X115517645Y-70039464D02*
X115641455Y-69977560D01*
X115641455Y-69977560D02*
X115703359Y-69853750D01*
X115703359Y-69853750D02*
X115703359Y-69358512D01*
X115703359Y-69358512D02*
X115641455Y-69234702D01*
X115641455Y-69234702D02*
X115517645Y-69172798D01*
X115517645Y-69172798D02*
X115270026Y-69172798D01*
X115270026Y-69172798D02*
X115146217Y-69234702D01*
X115146217Y-69234702D02*
X115084312Y-69358512D01*
X115084312Y-69358512D02*
X115084312Y-69482321D01*
X115084312Y-69482321D02*
X115703359Y-69606131D01*
X113970026Y-69977560D02*
X114093835Y-70039464D01*
X114093835Y-70039464D02*
X114341454Y-70039464D01*
X114341454Y-70039464D02*
X114465264Y-69977560D01*
X114465264Y-69977560D02*
X114527169Y-69915655D01*
X114527169Y-69915655D02*
X114589073Y-69791845D01*
X114589073Y-69791845D02*
X114589073Y-69420417D01*
X114589073Y-69420417D02*
X114527169Y-69296607D01*
X114527169Y-69296607D02*
X114465264Y-69234702D01*
X114465264Y-69234702D02*
X114341454Y-69172798D01*
X114341454Y-69172798D02*
X114093835Y-69172798D01*
X114093835Y-69172798D02*
X113970026Y-69234702D01*
X113412883Y-70039464D02*
X113412883Y-69172798D01*
X113412883Y-68739464D02*
X113474787Y-68801369D01*
X113474787Y-68801369D02*
X113412883Y-68863274D01*
X113412883Y-68863274D02*
X113350978Y-68801369D01*
X113350978Y-68801369D02*
X113412883Y-68739464D01*
X113412883Y-68739464D02*
X113412883Y-68863274D01*
X112236692Y-70039464D02*
X112236692Y-69358512D01*
X112236692Y-69358512D02*
X112298597Y-69234702D01*
X112298597Y-69234702D02*
X112422406Y-69172798D01*
X112422406Y-69172798D02*
X112670025Y-69172798D01*
X112670025Y-69172798D02*
X112793835Y-69234702D01*
X112236692Y-69977560D02*
X112360501Y-70039464D01*
X112360501Y-70039464D02*
X112670025Y-70039464D01*
X112670025Y-70039464D02*
X112793835Y-69977560D01*
X112793835Y-69977560D02*
X112855739Y-69853750D01*
X112855739Y-69853750D02*
X112855739Y-69729940D01*
X112855739Y-69729940D02*
X112793835Y-69606131D01*
X112793835Y-69606131D02*
X112670025Y-69544226D01*
X112670025Y-69544226D02*
X112360501Y-69544226D01*
X112360501Y-69544226D02*
X112236692Y-69482321D01*
X111431930Y-70039464D02*
X111555740Y-69977560D01*
X111555740Y-69977560D02*
X111617645Y-69853750D01*
X111617645Y-69853750D02*
X111617645Y-68739464D01*
X110131931Y-68739464D02*
X109389074Y-68739464D01*
X109760502Y-70039464D02*
X109760502Y-68739464D01*
X108955741Y-70039464D02*
X108955741Y-68739464D01*
X108398598Y-70039464D02*
X108398598Y-69358512D01*
X108398598Y-69358512D02*
X108460503Y-69234702D01*
X108460503Y-69234702D02*
X108584312Y-69172798D01*
X108584312Y-69172798D02*
X108770026Y-69172798D01*
X108770026Y-69172798D02*
X108893836Y-69234702D01*
X108893836Y-69234702D02*
X108955741Y-69296607D01*
X107222408Y-70039464D02*
X107222408Y-69358512D01*
X107222408Y-69358512D02*
X107284313Y-69234702D01*
X107284313Y-69234702D02*
X107408122Y-69172798D01*
X107408122Y-69172798D02*
X107655741Y-69172798D01*
X107655741Y-69172798D02*
X107779551Y-69234702D01*
X107222408Y-69977560D02*
X107346217Y-70039464D01*
X107346217Y-70039464D02*
X107655741Y-70039464D01*
X107655741Y-70039464D02*
X107779551Y-69977560D01*
X107779551Y-69977560D02*
X107841455Y-69853750D01*
X107841455Y-69853750D02*
X107841455Y-69729940D01*
X107841455Y-69729940D02*
X107779551Y-69606131D01*
X107779551Y-69606131D02*
X107655741Y-69544226D01*
X107655741Y-69544226D02*
X107346217Y-69544226D01*
X107346217Y-69544226D02*
X107222408Y-69482321D01*
X106603361Y-69172798D02*
X106603361Y-70039464D01*
X106603361Y-69296607D02*
X106541456Y-69234702D01*
X106541456Y-69234702D02*
X106417646Y-69172798D01*
X106417646Y-69172798D02*
X106231932Y-69172798D01*
X106231932Y-69172798D02*
X106108123Y-69234702D01*
X106108123Y-69234702D02*
X106046218Y-69358512D01*
X106046218Y-69358512D02*
X106046218Y-70039464D01*
X105427171Y-70039464D02*
X105427171Y-68739464D01*
X105303361Y-69544226D02*
X104931933Y-70039464D01*
X104931933Y-69172798D02*
X105427171Y-69668036D01*
X104436694Y-69977560D02*
X104312885Y-70039464D01*
X104312885Y-70039464D02*
X104065266Y-70039464D01*
X104065266Y-70039464D02*
X103941456Y-69977560D01*
X103941456Y-69977560D02*
X103879552Y-69853750D01*
X103879552Y-69853750D02*
X103879552Y-69791845D01*
X103879552Y-69791845D02*
X103941456Y-69668036D01*
X103941456Y-69668036D02*
X104065266Y-69606131D01*
X104065266Y-69606131D02*
X104250980Y-69606131D01*
X104250980Y-69606131D02*
X104374790Y-69544226D01*
X104374790Y-69544226D02*
X104436694Y-69420417D01*
X104436694Y-69420417D02*
X104436694Y-69358512D01*
X104436694Y-69358512D02*
X104374790Y-69234702D01*
X104374790Y-69234702D02*
X104250980Y-69172798D01*
X104250980Y-69172798D02*
X104065266Y-69172798D01*
X104065266Y-69172798D02*
X103941456Y-69234702D01*
X103322409Y-69915655D02*
X103260504Y-69977560D01*
X103260504Y-69977560D02*
X103322409Y-70039464D01*
X103322409Y-70039464D02*
X103384313Y-69977560D01*
X103384313Y-69977560D02*
X103322409Y-69915655D01*
X103322409Y-69915655D02*
X103322409Y-70039464D01*
X103322409Y-69234702D02*
X103260504Y-69296607D01*
X103260504Y-69296607D02*
X103322409Y-69358512D01*
X103322409Y-69358512D02*
X103384313Y-69296607D01*
X103384313Y-69296607D02*
X103322409Y-69234702D01*
X103322409Y-69234702D02*
X103322409Y-69358512D01*
X101836694Y-68739464D02*
X100970028Y-68739464D01*
X100970028Y-68739464D02*
X101836694Y-70039464D01*
X101836694Y-70039464D02*
X100970028Y-70039464D01*
X100289075Y-70039464D02*
X100412885Y-69977560D01*
X100412885Y-69977560D02*
X100474790Y-69915655D01*
X100474790Y-69915655D02*
X100536694Y-69791845D01*
X100536694Y-69791845D02*
X100536694Y-69420417D01*
X100536694Y-69420417D02*
X100474790Y-69296607D01*
X100474790Y-69296607D02*
X100412885Y-69234702D01*
X100412885Y-69234702D02*
X100289075Y-69172798D01*
X100289075Y-69172798D02*
X100103361Y-69172798D01*
X100103361Y-69172798D02*
X99979552Y-69234702D01*
X99979552Y-69234702D02*
X99917647Y-69296607D01*
X99917647Y-69296607D02*
X99855742Y-69420417D01*
X99855742Y-69420417D02*
X99855742Y-69791845D01*
X99855742Y-69791845D02*
X99917647Y-69915655D01*
X99917647Y-69915655D02*
X99979552Y-69977560D01*
X99979552Y-69977560D02*
X100103361Y-70039464D01*
X100103361Y-70039464D02*
X100289075Y-70039464D01*
X99112885Y-70039464D02*
X99236695Y-69977560D01*
X99236695Y-69977560D02*
X99298600Y-69853750D01*
X99298600Y-69853750D02*
X99298600Y-68739464D01*
X98803362Y-69172798D02*
X98308124Y-69172798D01*
X98617648Y-68739464D02*
X98617648Y-69853750D01*
X98617648Y-69853750D02*
X98555743Y-69977560D01*
X98555743Y-69977560D02*
X98431933Y-70039464D01*
X98431933Y-70039464D02*
X98308124Y-70039464D01*
X97317648Y-70039464D02*
X97317648Y-69358512D01*
X97317648Y-69358512D02*
X97379553Y-69234702D01*
X97379553Y-69234702D02*
X97503362Y-69172798D01*
X97503362Y-69172798D02*
X97750981Y-69172798D01*
X97750981Y-69172798D02*
X97874791Y-69234702D01*
X97317648Y-69977560D02*
X97441457Y-70039464D01*
X97441457Y-70039464D02*
X97750981Y-70039464D01*
X97750981Y-70039464D02*
X97874791Y-69977560D01*
X97874791Y-69977560D02*
X97936695Y-69853750D01*
X97936695Y-69853750D02*
X97936695Y-69729940D01*
X97936695Y-69729940D02*
X97874791Y-69606131D01*
X97874791Y-69606131D02*
X97750981Y-69544226D01*
X97750981Y-69544226D02*
X97441457Y-69544226D01*
X97441457Y-69544226D02*
X97317648Y-69482321D01*
X96698601Y-69172798D02*
X96698601Y-70039464D01*
X96698601Y-69296607D02*
X96636696Y-69234702D01*
X96636696Y-69234702D02*
X96512886Y-69172798D01*
X96512886Y-69172798D02*
X96327172Y-69172798D01*
X96327172Y-69172798D02*
X96203363Y-69234702D01*
X96203363Y-69234702D02*
X96141458Y-69358512D01*
X96141458Y-69358512D02*
X96141458Y-70039464D01*
X94531935Y-70039464D02*
X94531935Y-68739464D01*
X94531935Y-68739464D02*
X94036697Y-68739464D01*
X94036697Y-68739464D02*
X93912887Y-68801369D01*
X93912887Y-68801369D02*
X93850982Y-68863274D01*
X93850982Y-68863274D02*
X93789078Y-68987083D01*
X93789078Y-68987083D02*
X93789078Y-69172798D01*
X93789078Y-69172798D02*
X93850982Y-69296607D01*
X93850982Y-69296607D02*
X93912887Y-69358512D01*
X93912887Y-69358512D02*
X94036697Y-69420417D01*
X94036697Y-69420417D02*
X94531935Y-69420417D01*
X92736697Y-69977560D02*
X92860506Y-70039464D01*
X92860506Y-70039464D02*
X93108125Y-70039464D01*
X93108125Y-70039464D02*
X93231935Y-69977560D01*
X93231935Y-69977560D02*
X93293839Y-69853750D01*
X93293839Y-69853750D02*
X93293839Y-69358512D01*
X93293839Y-69358512D02*
X93231935Y-69234702D01*
X93231935Y-69234702D02*
X93108125Y-69172798D01*
X93108125Y-69172798D02*
X92860506Y-69172798D01*
X92860506Y-69172798D02*
X92736697Y-69234702D01*
X92736697Y-69234702D02*
X92674792Y-69358512D01*
X92674792Y-69358512D02*
X92674792Y-69482321D01*
X92674792Y-69482321D02*
X93293839Y-69606131D01*
X92117649Y-70039464D02*
X92117649Y-68739464D01*
X91993839Y-69544226D02*
X91622411Y-70039464D01*
X91622411Y-69172798D02*
X92117649Y-69668036D01*
X91065268Y-70039464D02*
X91065268Y-69172798D01*
X91065268Y-68739464D02*
X91127172Y-68801369D01*
X91127172Y-68801369D02*
X91065268Y-68863274D01*
X91065268Y-68863274D02*
X91003363Y-68801369D01*
X91003363Y-68801369D02*
X91065268Y-68739464D01*
X91065268Y-68739464D02*
X91065268Y-68863274D01*
X89889077Y-69977560D02*
X90012886Y-70039464D01*
X90012886Y-70039464D02*
X90260505Y-70039464D01*
X90260505Y-70039464D02*
X90384315Y-69977560D01*
X90384315Y-69977560D02*
X90446220Y-69915655D01*
X90446220Y-69915655D02*
X90508124Y-69791845D01*
X90508124Y-69791845D02*
X90508124Y-69420417D01*
X90508124Y-69420417D02*
X90446220Y-69296607D01*
X90446220Y-69296607D02*
X90384315Y-69234702D01*
X90384315Y-69234702D02*
X90260505Y-69172798D01*
X90260505Y-69172798D02*
X90012886Y-69172798D01*
X90012886Y-69172798D02*
X89889077Y-69234702D01*
X89270029Y-69977560D02*
X89270029Y-70039464D01*
X89270029Y-70039464D02*
X89331934Y-70163274D01*
X89331934Y-70163274D02*
X89393838Y-70225179D01*
X86917648Y-69420417D02*
X86979553Y-69358512D01*
X86979553Y-69358512D02*
X87103362Y-69296607D01*
X87103362Y-69296607D02*
X87227172Y-69296607D01*
X87227172Y-69296607D02*
X87350981Y-69358512D01*
X87350981Y-69358512D02*
X87412886Y-69420417D01*
X87412886Y-69420417D02*
X87474791Y-69544226D01*
X87474791Y-69544226D02*
X87474791Y-69668036D01*
X87474791Y-69668036D02*
X87412886Y-69791845D01*
X87412886Y-69791845D02*
X87350981Y-69853750D01*
X87350981Y-69853750D02*
X87227172Y-69915655D01*
X87227172Y-69915655D02*
X87103362Y-69915655D01*
X87103362Y-69915655D02*
X86979553Y-69853750D01*
X86979553Y-69853750D02*
X86917648Y-69791845D01*
X86917648Y-69296607D02*
X86917648Y-69791845D01*
X86917648Y-69791845D02*
X86855743Y-69853750D01*
X86855743Y-69853750D02*
X86793838Y-69853750D01*
X86793838Y-69853750D02*
X86670029Y-69791845D01*
X86670029Y-69791845D02*
X86608124Y-69668036D01*
X86608124Y-69668036D02*
X86608124Y-69358512D01*
X86608124Y-69358512D02*
X86731934Y-69172798D01*
X86731934Y-69172798D02*
X86917648Y-69048988D01*
X86917648Y-69048988D02*
X87165267Y-68987083D01*
X87165267Y-68987083D02*
X87412886Y-69048988D01*
X87412886Y-69048988D02*
X87598600Y-69172798D01*
X87598600Y-69172798D02*
X87722410Y-69358512D01*
X87722410Y-69358512D02*
X87784314Y-69606131D01*
X87784314Y-69606131D02*
X87722410Y-69853750D01*
X87722410Y-69853750D02*
X87598600Y-70039464D01*
X87598600Y-70039464D02*
X87412886Y-70163274D01*
X87412886Y-70163274D02*
X87165267Y-70225179D01*
X87165267Y-70225179D02*
X86917648Y-70163274D01*
X86917648Y-70163274D02*
X86731934Y-70039464D01*
X85493838Y-70039464D02*
X85493838Y-68739464D01*
X85493838Y-69977560D02*
X85617647Y-70039464D01*
X85617647Y-70039464D02*
X85865266Y-70039464D01*
X85865266Y-70039464D02*
X85989076Y-69977560D01*
X85989076Y-69977560D02*
X86050981Y-69915655D01*
X86050981Y-69915655D02*
X86112885Y-69791845D01*
X86112885Y-69791845D02*
X86112885Y-69420417D01*
X86112885Y-69420417D02*
X86050981Y-69296607D01*
X86050981Y-69296607D02*
X85989076Y-69234702D01*
X85989076Y-69234702D02*
X85865266Y-69172798D01*
X85865266Y-69172798D02*
X85617647Y-69172798D01*
X85617647Y-69172798D02*
X85493838Y-69234702D01*
X84379553Y-69977560D02*
X84503362Y-70039464D01*
X84503362Y-70039464D02*
X84750981Y-70039464D01*
X84750981Y-70039464D02*
X84874791Y-69977560D01*
X84874791Y-69977560D02*
X84936695Y-69853750D01*
X84936695Y-69853750D02*
X84936695Y-69358512D01*
X84936695Y-69358512D02*
X84874791Y-69234702D01*
X84874791Y-69234702D02*
X84750981Y-69172798D01*
X84750981Y-69172798D02*
X84503362Y-69172798D01*
X84503362Y-69172798D02*
X84379553Y-69234702D01*
X84379553Y-69234702D02*
X84317648Y-69358512D01*
X84317648Y-69358512D02*
X84317648Y-69482321D01*
X84317648Y-69482321D02*
X84936695Y-69606131D01*
X83760505Y-70039464D02*
X83760505Y-69172798D01*
X83760505Y-69296607D02*
X83698600Y-69234702D01*
X83698600Y-69234702D02*
X83574790Y-69172798D01*
X83574790Y-69172798D02*
X83389076Y-69172798D01*
X83389076Y-69172798D02*
X83265267Y-69234702D01*
X83265267Y-69234702D02*
X83203362Y-69358512D01*
X83203362Y-69358512D02*
X83203362Y-70039464D01*
X83203362Y-69358512D02*
X83141457Y-69234702D01*
X83141457Y-69234702D02*
X83017648Y-69172798D01*
X83017648Y-69172798D02*
X82831933Y-69172798D01*
X82831933Y-69172798D02*
X82708124Y-69234702D01*
X82708124Y-69234702D02*
X82646219Y-69358512D01*
X82646219Y-69358512D02*
X82646219Y-70039464D01*
X81531934Y-69977560D02*
X81655743Y-70039464D01*
X81655743Y-70039464D02*
X81903362Y-70039464D01*
X81903362Y-70039464D02*
X82027172Y-69977560D01*
X82027172Y-69977560D02*
X82089076Y-69853750D01*
X82089076Y-69853750D02*
X82089076Y-69358512D01*
X82089076Y-69358512D02*
X82027172Y-69234702D01*
X82027172Y-69234702D02*
X81903362Y-69172798D01*
X81903362Y-69172798D02*
X81655743Y-69172798D01*
X81655743Y-69172798D02*
X81531934Y-69234702D01*
X81531934Y-69234702D02*
X81470029Y-69358512D01*
X81470029Y-69358512D02*
X81470029Y-69482321D01*
X81470029Y-69482321D02*
X82089076Y-69606131D01*
X80912886Y-70039464D02*
X80912886Y-69172798D01*
X80912886Y-69420417D02*
X80850981Y-69296607D01*
X80850981Y-69296607D02*
X80789076Y-69234702D01*
X80789076Y-69234702D02*
X80665267Y-69172798D01*
X80665267Y-69172798D02*
X80541457Y-69172798D01*
X80231933Y-69172798D02*
X79550981Y-69172798D01*
X79550981Y-69172798D02*
X80231933Y-70039464D01*
X80231933Y-70039464D02*
X79550981Y-70039464D01*
X78560505Y-69977560D02*
X78684314Y-70039464D01*
X78684314Y-70039464D02*
X78931933Y-70039464D01*
X78931933Y-70039464D02*
X79055743Y-69977560D01*
X79055743Y-69977560D02*
X79117647Y-69853750D01*
X79117647Y-69853750D02*
X79117647Y-69358512D01*
X79117647Y-69358512D02*
X79055743Y-69234702D01*
X79055743Y-69234702D02*
X78931933Y-69172798D01*
X78931933Y-69172798D02*
X78684314Y-69172798D01*
X78684314Y-69172798D02*
X78560505Y-69234702D01*
X78560505Y-69234702D02*
X78498600Y-69358512D01*
X78498600Y-69358512D02*
X78498600Y-69482321D01*
X78498600Y-69482321D02*
X79117647Y-69606131D01*
X77755742Y-70039464D02*
X77879552Y-69977560D01*
X77879552Y-69977560D02*
X77941457Y-69853750D01*
X77941457Y-69853750D02*
X77941457Y-68739464D01*
X75712886Y-70039464D02*
X75712886Y-69358512D01*
X75712886Y-69358512D02*
X75774791Y-69234702D01*
X75774791Y-69234702D02*
X75898600Y-69172798D01*
X75898600Y-69172798D02*
X76146219Y-69172798D01*
X76146219Y-69172798D02*
X76270029Y-69234702D01*
X75712886Y-69977560D02*
X75836695Y-70039464D01*
X75836695Y-70039464D02*
X76146219Y-70039464D01*
X76146219Y-70039464D02*
X76270029Y-69977560D01*
X76270029Y-69977560D02*
X76331933Y-69853750D01*
X76331933Y-69853750D02*
X76331933Y-69729940D01*
X76331933Y-69729940D02*
X76270029Y-69606131D01*
X76270029Y-69606131D02*
X76146219Y-69544226D01*
X76146219Y-69544226D02*
X75836695Y-69544226D01*
X75836695Y-69544226D02*
X75712886Y-69482321D01*
X75093839Y-69172798D02*
X75093839Y-70039464D01*
X75093839Y-69296607D02*
X75031934Y-69234702D01*
X75031934Y-69234702D02*
X74908124Y-69172798D01*
X74908124Y-69172798D02*
X74722410Y-69172798D01*
X74722410Y-69172798D02*
X74598601Y-69234702D01*
X74598601Y-69234702D02*
X74536696Y-69358512D01*
X74536696Y-69358512D02*
X74536696Y-70039464D01*
X73360506Y-70039464D02*
X73360506Y-68739464D01*
X73360506Y-69977560D02*
X73484315Y-70039464D01*
X73484315Y-70039464D02*
X73731934Y-70039464D01*
X73731934Y-70039464D02*
X73855744Y-69977560D01*
X73855744Y-69977560D02*
X73917649Y-69915655D01*
X73917649Y-69915655D02*
X73979553Y-69791845D01*
X73979553Y-69791845D02*
X73979553Y-69420417D01*
X73979553Y-69420417D02*
X73917649Y-69296607D01*
X73917649Y-69296607D02*
X73855744Y-69234702D01*
X73855744Y-69234702D02*
X73731934Y-69172798D01*
X73731934Y-69172798D02*
X73484315Y-69172798D01*
X73484315Y-69172798D02*
X73360506Y-69234702D01*
X71812887Y-69668036D02*
X71193840Y-69668036D01*
X71936697Y-70039464D02*
X71503364Y-68739464D01*
X71503364Y-68739464D02*
X71070030Y-70039464D01*
X70636697Y-70039464D02*
X70636697Y-68739464D01*
X70636697Y-68739464D02*
X70203363Y-69668036D01*
X70203363Y-69668036D02*
X69770030Y-68739464D01*
X69770030Y-68739464D02*
X69770030Y-70039464D01*
X69212887Y-69977560D02*
X69027173Y-70039464D01*
X69027173Y-70039464D02*
X68717649Y-70039464D01*
X68717649Y-70039464D02*
X68593840Y-69977560D01*
X68593840Y-69977560D02*
X68531935Y-69915655D01*
X68531935Y-69915655D02*
X68470030Y-69791845D01*
X68470030Y-69791845D02*
X68470030Y-69668036D01*
X68470030Y-69668036D02*
X68531935Y-69544226D01*
X68531935Y-69544226D02*
X68593840Y-69482321D01*
X68593840Y-69482321D02*
X68717649Y-69420417D01*
X68717649Y-69420417D02*
X68965268Y-69358512D01*
X68965268Y-69358512D02*
X69089078Y-69296607D01*
X69089078Y-69296607D02*
X69150983Y-69234702D01*
X69150983Y-69234702D02*
X69212887Y-69110893D01*
X69212887Y-69110893D02*
X69212887Y-68987083D01*
X69212887Y-68987083D02*
X69150983Y-68863274D01*
X69150983Y-68863274D02*
X69089078Y-68801369D01*
X69089078Y-68801369D02*
X68965268Y-68739464D01*
X68965268Y-68739464D02*
X68655745Y-68739464D01*
X68655745Y-68739464D02*
X68470030Y-68801369D01*
X68098602Y-68739464D02*
X67355745Y-68739464D01*
X67727173Y-70039464D02*
X67727173Y-68739464D01*
X66179555Y-70039464D02*
X66612888Y-69420417D01*
X66922412Y-70039464D02*
X66922412Y-68739464D01*
X66922412Y-68739464D02*
X66427174Y-68739464D01*
X66427174Y-68739464D02*
X66303364Y-68801369D01*
X66303364Y-68801369D02*
X66241459Y-68863274D01*
X66241459Y-68863274D02*
X66179555Y-68987083D01*
X66179555Y-68987083D02*
X66179555Y-69172798D01*
X66179555Y-69172798D02*
X66241459Y-69296607D01*
X66241459Y-69296607D02*
X66303364Y-69358512D01*
X66303364Y-69358512D02*
X66427174Y-69420417D01*
X66427174Y-69420417D02*
X66922412Y-69420417D01*
X65684316Y-69668036D02*
X65065269Y-69668036D01*
X65808126Y-70039464D02*
X65374793Y-68739464D01*
X65374793Y-68739464D02*
X64941459Y-70039464D01*
X64508126Y-70039464D02*
X64508126Y-68739464D01*
X64508126Y-68739464D02*
X64198602Y-68739464D01*
X64198602Y-68739464D02*
X64012888Y-68801369D01*
X64012888Y-68801369D02*
X63889078Y-68925179D01*
X63889078Y-68925179D02*
X63827173Y-69048988D01*
X63827173Y-69048988D02*
X63765269Y-69296607D01*
X63765269Y-69296607D02*
X63765269Y-69482321D01*
X63765269Y-69482321D02*
X63827173Y-69729940D01*
X63827173Y-69729940D02*
X63889078Y-69853750D01*
X63889078Y-69853750D02*
X64012888Y-69977560D01*
X64012888Y-69977560D02*
X64198602Y-70039464D01*
X64198602Y-70039464D02*
X64508126Y-70039464D01*
M02*
