%TF.GenerationSoftware,KiCad,Pcbnew,8.0.1*%
%TF.CreationDate,2024-04-11T22:34:32+01:00*%
%TF.ProjectId,TIMAYSound,54494d41-5953-46f7-956e-642e6b696361,rev?*%
%TF.SameCoordinates,Original*%
%TF.FileFunction,Drillmap*%
%TF.FilePolarity,Positive*%
%FSLAX45Y45*%
G04 Gerber Fmt 4.5, Leading zero omitted, Abs format (unit mm)*
G04 Created by KiCad (PCBNEW 8.0.1) date 2024-04-11 22:34:32*
%MOMM*%
%LPD*%
G01*
G04 APERTURE LIST*
%ADD10C,0.050000*%
%ADD11C,0.200000*%
%ADD12C,0.120000*%
G04 APERTURE END LIST*
D10*
X5017000Y-3775000D02*
X12426500Y-3775000D01*
X12426500Y-10702000D01*
X5017000Y-10702000D01*
X5017000Y-3775000D01*
D11*
D12*
X5199000Y-9020250D02*
X5319000Y-9140250D01*
X5319000Y-9020250D02*
X5199000Y-9140250D01*
X5199000Y-10020250D02*
X5319000Y-10140250D01*
X5319000Y-10020250D02*
X5199000Y-10140250D01*
X5449000Y-9020250D02*
X5569000Y-9140250D01*
X5569000Y-9020250D02*
X5449000Y-9140250D01*
X5449000Y-10020250D02*
X5569000Y-10140250D01*
X5569000Y-10020250D02*
X5449000Y-10140250D01*
X5949000Y-9520250D02*
X6069000Y-9640250D01*
X6069000Y-9520250D02*
X5949000Y-9640250D01*
D11*
X5275277Y-11015984D02*
X5275277Y-10815984D01*
X5275277Y-10815984D02*
X5322896Y-10815984D01*
X5322896Y-10815984D02*
X5351467Y-10825508D01*
X5351467Y-10825508D02*
X5370515Y-10844555D01*
X5370515Y-10844555D02*
X5380039Y-10863603D01*
X5380039Y-10863603D02*
X5389563Y-10901698D01*
X5389563Y-10901698D02*
X5389563Y-10930270D01*
X5389563Y-10930270D02*
X5380039Y-10968365D01*
X5380039Y-10968365D02*
X5370515Y-10987412D01*
X5370515Y-10987412D02*
X5351467Y-11006460D01*
X5351467Y-11006460D02*
X5322896Y-11015984D01*
X5322896Y-11015984D02*
X5275277Y-11015984D01*
X5475277Y-11015984D02*
X5475277Y-10882650D01*
X5475277Y-10920746D02*
X5484801Y-10901698D01*
X5484801Y-10901698D02*
X5494324Y-10892174D01*
X5494324Y-10892174D02*
X5513372Y-10882650D01*
X5513372Y-10882650D02*
X5532420Y-10882650D01*
X5599086Y-11015984D02*
X5599086Y-10882650D01*
X5599086Y-10815984D02*
X5589563Y-10825508D01*
X5589563Y-10825508D02*
X5599086Y-10835031D01*
X5599086Y-10835031D02*
X5608610Y-10825508D01*
X5608610Y-10825508D02*
X5599086Y-10815984D01*
X5599086Y-10815984D02*
X5599086Y-10835031D01*
X5722896Y-11015984D02*
X5703848Y-11006460D01*
X5703848Y-11006460D02*
X5694324Y-10987412D01*
X5694324Y-10987412D02*
X5694324Y-10815984D01*
X5827658Y-11015984D02*
X5808610Y-11006460D01*
X5808610Y-11006460D02*
X5799086Y-10987412D01*
X5799086Y-10987412D02*
X5799086Y-10815984D01*
X6056229Y-11015984D02*
X6056229Y-10815984D01*
X6056229Y-10815984D02*
X6122896Y-10958841D01*
X6122896Y-10958841D02*
X6189562Y-10815984D01*
X6189562Y-10815984D02*
X6189562Y-11015984D01*
X6370515Y-11015984D02*
X6370515Y-10911222D01*
X6370515Y-10911222D02*
X6360991Y-10892174D01*
X6360991Y-10892174D02*
X6341943Y-10882650D01*
X6341943Y-10882650D02*
X6303848Y-10882650D01*
X6303848Y-10882650D02*
X6284801Y-10892174D01*
X6370515Y-11006460D02*
X6351467Y-11015984D01*
X6351467Y-11015984D02*
X6303848Y-11015984D01*
X6303848Y-11015984D02*
X6284801Y-11006460D01*
X6284801Y-11006460D02*
X6275277Y-10987412D01*
X6275277Y-10987412D02*
X6275277Y-10968365D01*
X6275277Y-10968365D02*
X6284801Y-10949317D01*
X6284801Y-10949317D02*
X6303848Y-10939793D01*
X6303848Y-10939793D02*
X6351467Y-10939793D01*
X6351467Y-10939793D02*
X6370515Y-10930270D01*
X6465753Y-10882650D02*
X6465753Y-11082650D01*
X6465753Y-10892174D02*
X6484801Y-10882650D01*
X6484801Y-10882650D02*
X6522896Y-10882650D01*
X6522896Y-10882650D02*
X6541943Y-10892174D01*
X6541943Y-10892174D02*
X6551467Y-10901698D01*
X6551467Y-10901698D02*
X6560991Y-10920746D01*
X6560991Y-10920746D02*
X6560991Y-10977889D01*
X6560991Y-10977889D02*
X6551467Y-10996936D01*
X6551467Y-10996936D02*
X6541943Y-11006460D01*
X6541943Y-11006460D02*
X6522896Y-11015984D01*
X6522896Y-11015984D02*
X6484801Y-11015984D01*
X6484801Y-11015984D02*
X6465753Y-11006460D01*
X6646705Y-10996936D02*
X6656229Y-11006460D01*
X6656229Y-11006460D02*
X6646705Y-11015984D01*
X6646705Y-11015984D02*
X6637182Y-11006460D01*
X6637182Y-11006460D02*
X6646705Y-10996936D01*
X6646705Y-10996936D02*
X6646705Y-11015984D01*
X6646705Y-10892174D02*
X6656229Y-10901698D01*
X6656229Y-10901698D02*
X6646705Y-10911222D01*
X6646705Y-10911222D02*
X6637182Y-10901698D01*
X6637182Y-10901698D02*
X6646705Y-10892174D01*
X6646705Y-10892174D02*
X6646705Y-10911222D01*
D12*
X4894500Y-11284500D02*
X5014500Y-11404500D01*
X5014500Y-11284500D02*
X4894500Y-11404500D01*
D11*
X5380039Y-11435984D02*
X5265753Y-11435984D01*
X5322896Y-11435984D02*
X5322896Y-11235984D01*
X5322896Y-11235984D02*
X5303848Y-11264555D01*
X5303848Y-11264555D02*
X5284801Y-11283603D01*
X5284801Y-11283603D02*
X5265753Y-11293127D01*
X5465753Y-11416936D02*
X5475277Y-11426460D01*
X5475277Y-11426460D02*
X5465753Y-11435984D01*
X5465753Y-11435984D02*
X5456229Y-11426460D01*
X5456229Y-11426460D02*
X5465753Y-11416936D01*
X5465753Y-11416936D02*
X5465753Y-11435984D01*
X5551467Y-11255031D02*
X5560991Y-11245508D01*
X5560991Y-11245508D02*
X5580039Y-11235984D01*
X5580039Y-11235984D02*
X5627658Y-11235984D01*
X5627658Y-11235984D02*
X5646705Y-11245508D01*
X5646705Y-11245508D02*
X5656229Y-11255031D01*
X5656229Y-11255031D02*
X5665753Y-11274079D01*
X5665753Y-11274079D02*
X5665753Y-11293127D01*
X5665753Y-11293127D02*
X5656229Y-11321698D01*
X5656229Y-11321698D02*
X5541944Y-11435984D01*
X5541944Y-11435984D02*
X5665753Y-11435984D01*
X5789562Y-11235984D02*
X5808610Y-11235984D01*
X5808610Y-11235984D02*
X5827658Y-11245508D01*
X5827658Y-11245508D02*
X5837182Y-11255031D01*
X5837182Y-11255031D02*
X5846705Y-11274079D01*
X5846705Y-11274079D02*
X5856229Y-11312174D01*
X5856229Y-11312174D02*
X5856229Y-11359793D01*
X5856229Y-11359793D02*
X5846705Y-11397888D01*
X5846705Y-11397888D02*
X5837182Y-11416936D01*
X5837182Y-11416936D02*
X5827658Y-11426460D01*
X5827658Y-11426460D02*
X5808610Y-11435984D01*
X5808610Y-11435984D02*
X5789562Y-11435984D01*
X5789562Y-11435984D02*
X5770515Y-11426460D01*
X5770515Y-11426460D02*
X5760991Y-11416936D01*
X5760991Y-11416936D02*
X5751467Y-11397888D01*
X5751467Y-11397888D02*
X5741943Y-11359793D01*
X5741943Y-11359793D02*
X5741943Y-11312174D01*
X5741943Y-11312174D02*
X5751467Y-11274079D01*
X5751467Y-11274079D02*
X5760991Y-11255031D01*
X5760991Y-11255031D02*
X5770515Y-11245508D01*
X5770515Y-11245508D02*
X5789562Y-11235984D01*
X5980039Y-11235984D02*
X5999086Y-11235984D01*
X5999086Y-11235984D02*
X6018134Y-11245508D01*
X6018134Y-11245508D02*
X6027658Y-11255031D01*
X6027658Y-11255031D02*
X6037182Y-11274079D01*
X6037182Y-11274079D02*
X6046705Y-11312174D01*
X6046705Y-11312174D02*
X6046705Y-11359793D01*
X6046705Y-11359793D02*
X6037182Y-11397888D01*
X6037182Y-11397888D02*
X6027658Y-11416936D01*
X6027658Y-11416936D02*
X6018134Y-11426460D01*
X6018134Y-11426460D02*
X5999086Y-11435984D01*
X5999086Y-11435984D02*
X5980039Y-11435984D01*
X5980039Y-11435984D02*
X5960991Y-11426460D01*
X5960991Y-11426460D02*
X5951467Y-11416936D01*
X5951467Y-11416936D02*
X5941943Y-11397888D01*
X5941943Y-11397888D02*
X5932420Y-11359793D01*
X5932420Y-11359793D02*
X5932420Y-11312174D01*
X5932420Y-11312174D02*
X5941943Y-11274079D01*
X5941943Y-11274079D02*
X5951467Y-11255031D01*
X5951467Y-11255031D02*
X5960991Y-11245508D01*
X5960991Y-11245508D02*
X5980039Y-11235984D01*
X6132420Y-11435984D02*
X6132420Y-11302650D01*
X6132420Y-11321698D02*
X6141943Y-11312174D01*
X6141943Y-11312174D02*
X6160991Y-11302650D01*
X6160991Y-11302650D02*
X6189563Y-11302650D01*
X6189563Y-11302650D02*
X6208610Y-11312174D01*
X6208610Y-11312174D02*
X6218134Y-11331222D01*
X6218134Y-11331222D02*
X6218134Y-11435984D01*
X6218134Y-11331222D02*
X6227658Y-11312174D01*
X6227658Y-11312174D02*
X6246705Y-11302650D01*
X6246705Y-11302650D02*
X6275277Y-11302650D01*
X6275277Y-11302650D02*
X6294324Y-11312174D01*
X6294324Y-11312174D02*
X6303848Y-11331222D01*
X6303848Y-11331222D02*
X6303848Y-11435984D01*
X6399086Y-11435984D02*
X6399086Y-11302650D01*
X6399086Y-11321698D02*
X6408610Y-11312174D01*
X6408610Y-11312174D02*
X6427658Y-11302650D01*
X6427658Y-11302650D02*
X6456229Y-11302650D01*
X6456229Y-11302650D02*
X6475277Y-11312174D01*
X6475277Y-11312174D02*
X6484801Y-11331222D01*
X6484801Y-11331222D02*
X6484801Y-11435984D01*
X6484801Y-11331222D02*
X6494324Y-11312174D01*
X6494324Y-11312174D02*
X6513372Y-11302650D01*
X6513372Y-11302650D02*
X6541943Y-11302650D01*
X6541943Y-11302650D02*
X6560991Y-11312174D01*
X6560991Y-11312174D02*
X6570515Y-11331222D01*
X6570515Y-11331222D02*
X6570515Y-11435984D01*
X6960991Y-11226460D02*
X6789563Y-11483603D01*
X7218134Y-11235984D02*
X7237182Y-11235984D01*
X7237182Y-11235984D02*
X7256229Y-11245508D01*
X7256229Y-11245508D02*
X7265753Y-11255031D01*
X7265753Y-11255031D02*
X7275277Y-11274079D01*
X7275277Y-11274079D02*
X7284801Y-11312174D01*
X7284801Y-11312174D02*
X7284801Y-11359793D01*
X7284801Y-11359793D02*
X7275277Y-11397888D01*
X7275277Y-11397888D02*
X7265753Y-11416936D01*
X7265753Y-11416936D02*
X7256229Y-11426460D01*
X7256229Y-11426460D02*
X7237182Y-11435984D01*
X7237182Y-11435984D02*
X7218134Y-11435984D01*
X7218134Y-11435984D02*
X7199086Y-11426460D01*
X7199086Y-11426460D02*
X7189563Y-11416936D01*
X7189563Y-11416936D02*
X7180039Y-11397888D01*
X7180039Y-11397888D02*
X7170515Y-11359793D01*
X7170515Y-11359793D02*
X7170515Y-11312174D01*
X7170515Y-11312174D02*
X7180039Y-11274079D01*
X7180039Y-11274079D02*
X7189563Y-11255031D01*
X7189563Y-11255031D02*
X7199086Y-11245508D01*
X7199086Y-11245508D02*
X7218134Y-11235984D01*
X7370515Y-11416936D02*
X7380039Y-11426460D01*
X7380039Y-11426460D02*
X7370515Y-11435984D01*
X7370515Y-11435984D02*
X7360991Y-11426460D01*
X7360991Y-11426460D02*
X7370515Y-11416936D01*
X7370515Y-11416936D02*
X7370515Y-11435984D01*
X7503848Y-11235984D02*
X7522896Y-11235984D01*
X7522896Y-11235984D02*
X7541944Y-11245508D01*
X7541944Y-11245508D02*
X7551467Y-11255031D01*
X7551467Y-11255031D02*
X7560991Y-11274079D01*
X7560991Y-11274079D02*
X7570515Y-11312174D01*
X7570515Y-11312174D02*
X7570515Y-11359793D01*
X7570515Y-11359793D02*
X7560991Y-11397888D01*
X7560991Y-11397888D02*
X7551467Y-11416936D01*
X7551467Y-11416936D02*
X7541944Y-11426460D01*
X7541944Y-11426460D02*
X7522896Y-11435984D01*
X7522896Y-11435984D02*
X7503848Y-11435984D01*
X7503848Y-11435984D02*
X7484801Y-11426460D01*
X7484801Y-11426460D02*
X7475277Y-11416936D01*
X7475277Y-11416936D02*
X7465753Y-11397888D01*
X7465753Y-11397888D02*
X7456229Y-11359793D01*
X7456229Y-11359793D02*
X7456229Y-11312174D01*
X7456229Y-11312174D02*
X7465753Y-11274079D01*
X7465753Y-11274079D02*
X7475277Y-11255031D01*
X7475277Y-11255031D02*
X7484801Y-11245508D01*
X7484801Y-11245508D02*
X7503848Y-11235984D01*
X7741944Y-11302650D02*
X7741944Y-11435984D01*
X7694325Y-11226460D02*
X7646706Y-11369317D01*
X7646706Y-11369317D02*
X7770515Y-11369317D01*
X7827658Y-11235984D02*
X7960991Y-11235984D01*
X7960991Y-11235984D02*
X7875277Y-11435984D01*
X8027658Y-11255031D02*
X8037182Y-11245508D01*
X8037182Y-11245508D02*
X8056229Y-11235984D01*
X8056229Y-11235984D02*
X8103848Y-11235984D01*
X8103848Y-11235984D02*
X8122896Y-11245508D01*
X8122896Y-11245508D02*
X8132420Y-11255031D01*
X8132420Y-11255031D02*
X8141944Y-11274079D01*
X8141944Y-11274079D02*
X8141944Y-11293127D01*
X8141944Y-11293127D02*
X8132420Y-11321698D01*
X8132420Y-11321698D02*
X8018134Y-11435984D01*
X8018134Y-11435984D02*
X8141944Y-11435984D01*
X8218134Y-11235984D02*
X8218134Y-11274079D01*
X8294325Y-11235984D02*
X8294325Y-11274079D01*
X8589563Y-11512174D02*
X8580039Y-11502650D01*
X8580039Y-11502650D02*
X8560991Y-11474079D01*
X8560991Y-11474079D02*
X8551468Y-11455031D01*
X8551468Y-11455031D02*
X8541944Y-11426460D01*
X8541944Y-11426460D02*
X8532420Y-11378841D01*
X8532420Y-11378841D02*
X8532420Y-11340746D01*
X8532420Y-11340746D02*
X8541944Y-11293127D01*
X8541944Y-11293127D02*
X8551468Y-11264555D01*
X8551468Y-11264555D02*
X8560991Y-11245508D01*
X8560991Y-11245508D02*
X8580039Y-11216936D01*
X8580039Y-11216936D02*
X8589563Y-11207412D01*
X8760991Y-11235984D02*
X8665753Y-11235984D01*
X8665753Y-11235984D02*
X8656230Y-11331222D01*
X8656230Y-11331222D02*
X8665753Y-11321698D01*
X8665753Y-11321698D02*
X8684801Y-11312174D01*
X8684801Y-11312174D02*
X8732420Y-11312174D01*
X8732420Y-11312174D02*
X8751468Y-11321698D01*
X8751468Y-11321698D02*
X8760991Y-11331222D01*
X8760991Y-11331222D02*
X8770515Y-11350269D01*
X8770515Y-11350269D02*
X8770515Y-11397888D01*
X8770515Y-11397888D02*
X8760991Y-11416936D01*
X8760991Y-11416936D02*
X8751468Y-11426460D01*
X8751468Y-11426460D02*
X8732420Y-11435984D01*
X8732420Y-11435984D02*
X8684801Y-11435984D01*
X8684801Y-11435984D02*
X8665753Y-11426460D01*
X8665753Y-11426460D02*
X8656230Y-11416936D01*
X9008611Y-11435984D02*
X9008611Y-11235984D01*
X9094325Y-11435984D02*
X9094325Y-11331222D01*
X9094325Y-11331222D02*
X9084801Y-11312174D01*
X9084801Y-11312174D02*
X9065753Y-11302650D01*
X9065753Y-11302650D02*
X9037182Y-11302650D01*
X9037182Y-11302650D02*
X9018134Y-11312174D01*
X9018134Y-11312174D02*
X9008611Y-11321698D01*
X9218134Y-11435984D02*
X9199087Y-11426460D01*
X9199087Y-11426460D02*
X9189563Y-11416936D01*
X9189563Y-11416936D02*
X9180039Y-11397888D01*
X9180039Y-11397888D02*
X9180039Y-11340746D01*
X9180039Y-11340746D02*
X9189563Y-11321698D01*
X9189563Y-11321698D02*
X9199087Y-11312174D01*
X9199087Y-11312174D02*
X9218134Y-11302650D01*
X9218134Y-11302650D02*
X9246706Y-11302650D01*
X9246706Y-11302650D02*
X9265753Y-11312174D01*
X9265753Y-11312174D02*
X9275277Y-11321698D01*
X9275277Y-11321698D02*
X9284801Y-11340746D01*
X9284801Y-11340746D02*
X9284801Y-11397888D01*
X9284801Y-11397888D02*
X9275277Y-11416936D01*
X9275277Y-11416936D02*
X9265753Y-11426460D01*
X9265753Y-11426460D02*
X9246706Y-11435984D01*
X9246706Y-11435984D02*
X9218134Y-11435984D01*
X9399087Y-11435984D02*
X9380039Y-11426460D01*
X9380039Y-11426460D02*
X9370515Y-11407412D01*
X9370515Y-11407412D02*
X9370515Y-11235984D01*
X9551468Y-11426460D02*
X9532420Y-11435984D01*
X9532420Y-11435984D02*
X9494325Y-11435984D01*
X9494325Y-11435984D02*
X9475277Y-11426460D01*
X9475277Y-11426460D02*
X9465753Y-11407412D01*
X9465753Y-11407412D02*
X9465753Y-11331222D01*
X9465753Y-11331222D02*
X9475277Y-11312174D01*
X9475277Y-11312174D02*
X9494325Y-11302650D01*
X9494325Y-11302650D02*
X9532420Y-11302650D01*
X9532420Y-11302650D02*
X9551468Y-11312174D01*
X9551468Y-11312174D02*
X9560992Y-11331222D01*
X9560992Y-11331222D02*
X9560992Y-11350269D01*
X9560992Y-11350269D02*
X9465753Y-11369317D01*
X9637182Y-11426460D02*
X9656230Y-11435984D01*
X9656230Y-11435984D02*
X9694325Y-11435984D01*
X9694325Y-11435984D02*
X9713373Y-11426460D01*
X9713373Y-11426460D02*
X9722896Y-11407412D01*
X9722896Y-11407412D02*
X9722896Y-11397888D01*
X9722896Y-11397888D02*
X9713373Y-11378841D01*
X9713373Y-11378841D02*
X9694325Y-11369317D01*
X9694325Y-11369317D02*
X9665753Y-11369317D01*
X9665753Y-11369317D02*
X9646706Y-11359793D01*
X9646706Y-11359793D02*
X9637182Y-11340746D01*
X9637182Y-11340746D02*
X9637182Y-11331222D01*
X9637182Y-11331222D02*
X9646706Y-11312174D01*
X9646706Y-11312174D02*
X9665753Y-11302650D01*
X9665753Y-11302650D02*
X9694325Y-11302650D01*
X9694325Y-11302650D02*
X9713373Y-11312174D01*
X9789563Y-11512174D02*
X9799087Y-11502650D01*
X9799087Y-11502650D02*
X9818134Y-11474079D01*
X9818134Y-11474079D02*
X9827658Y-11455031D01*
X9827658Y-11455031D02*
X9837182Y-11426460D01*
X9837182Y-11426460D02*
X9846706Y-11378841D01*
X9846706Y-11378841D02*
X9846706Y-11340746D01*
X9846706Y-11340746D02*
X9837182Y-11293127D01*
X9837182Y-11293127D02*
X9827658Y-11264555D01*
X9827658Y-11264555D02*
X9818134Y-11245508D01*
X9818134Y-11245508D02*
X9799087Y-11216936D01*
X9799087Y-11216936D02*
X9789563Y-11207412D01*
X10151468Y-11512174D02*
X10141944Y-11502650D01*
X10141944Y-11502650D02*
X10122896Y-11474079D01*
X10122896Y-11474079D02*
X10113373Y-11455031D01*
X10113373Y-11455031D02*
X10103849Y-11426460D01*
X10103849Y-11426460D02*
X10094325Y-11378841D01*
X10094325Y-11378841D02*
X10094325Y-11340746D01*
X10094325Y-11340746D02*
X10103849Y-11293127D01*
X10103849Y-11293127D02*
X10113373Y-11264555D01*
X10113373Y-11264555D02*
X10122896Y-11245508D01*
X10122896Y-11245508D02*
X10141944Y-11216936D01*
X10141944Y-11216936D02*
X10151468Y-11207412D01*
X10227658Y-11302650D02*
X10227658Y-11435984D01*
X10227658Y-11321698D02*
X10237182Y-11312174D01*
X10237182Y-11312174D02*
X10256230Y-11302650D01*
X10256230Y-11302650D02*
X10284801Y-11302650D01*
X10284801Y-11302650D02*
X10303849Y-11312174D01*
X10303849Y-11312174D02*
X10313373Y-11331222D01*
X10313373Y-11331222D02*
X10313373Y-11435984D01*
X10437182Y-11435984D02*
X10418134Y-11426460D01*
X10418134Y-11426460D02*
X10408611Y-11416936D01*
X10408611Y-11416936D02*
X10399087Y-11397888D01*
X10399087Y-11397888D02*
X10399087Y-11340746D01*
X10399087Y-11340746D02*
X10408611Y-11321698D01*
X10408611Y-11321698D02*
X10418134Y-11312174D01*
X10418134Y-11312174D02*
X10437182Y-11302650D01*
X10437182Y-11302650D02*
X10465754Y-11302650D01*
X10465754Y-11302650D02*
X10484801Y-11312174D01*
X10484801Y-11312174D02*
X10494325Y-11321698D01*
X10494325Y-11321698D02*
X10503849Y-11340746D01*
X10503849Y-11340746D02*
X10503849Y-11397888D01*
X10503849Y-11397888D02*
X10494325Y-11416936D01*
X10494325Y-11416936D02*
X10484801Y-11426460D01*
X10484801Y-11426460D02*
X10465754Y-11435984D01*
X10465754Y-11435984D02*
X10437182Y-11435984D01*
X10560992Y-11302650D02*
X10637182Y-11302650D01*
X10589563Y-11235984D02*
X10589563Y-11407412D01*
X10589563Y-11407412D02*
X10599087Y-11426460D01*
X10599087Y-11426460D02*
X10618134Y-11435984D01*
X10618134Y-11435984D02*
X10637182Y-11435984D01*
X10856230Y-11302650D02*
X10856230Y-11502650D01*
X10856230Y-11312174D02*
X10875277Y-11302650D01*
X10875277Y-11302650D02*
X10913373Y-11302650D01*
X10913373Y-11302650D02*
X10932420Y-11312174D01*
X10932420Y-11312174D02*
X10941944Y-11321698D01*
X10941944Y-11321698D02*
X10951468Y-11340746D01*
X10951468Y-11340746D02*
X10951468Y-11397888D01*
X10951468Y-11397888D02*
X10941944Y-11416936D01*
X10941944Y-11416936D02*
X10932420Y-11426460D01*
X10932420Y-11426460D02*
X10913373Y-11435984D01*
X10913373Y-11435984D02*
X10875277Y-11435984D01*
X10875277Y-11435984D02*
X10856230Y-11426460D01*
X11065754Y-11435984D02*
X11046706Y-11426460D01*
X11046706Y-11426460D02*
X11037182Y-11407412D01*
X11037182Y-11407412D02*
X11037182Y-11235984D01*
X11227658Y-11435984D02*
X11227658Y-11331222D01*
X11227658Y-11331222D02*
X11218134Y-11312174D01*
X11218134Y-11312174D02*
X11199087Y-11302650D01*
X11199087Y-11302650D02*
X11160992Y-11302650D01*
X11160992Y-11302650D02*
X11141944Y-11312174D01*
X11227658Y-11426460D02*
X11208611Y-11435984D01*
X11208611Y-11435984D02*
X11160992Y-11435984D01*
X11160992Y-11435984D02*
X11141944Y-11426460D01*
X11141944Y-11426460D02*
X11132420Y-11407412D01*
X11132420Y-11407412D02*
X11132420Y-11388365D01*
X11132420Y-11388365D02*
X11141944Y-11369317D01*
X11141944Y-11369317D02*
X11160992Y-11359793D01*
X11160992Y-11359793D02*
X11208611Y-11359793D01*
X11208611Y-11359793D02*
X11227658Y-11350269D01*
X11294325Y-11302650D02*
X11370515Y-11302650D01*
X11322896Y-11235984D02*
X11322896Y-11407412D01*
X11322896Y-11407412D02*
X11332420Y-11426460D01*
X11332420Y-11426460D02*
X11351468Y-11435984D01*
X11351468Y-11435984D02*
X11370515Y-11435984D01*
X11513373Y-11426460D02*
X11494325Y-11435984D01*
X11494325Y-11435984D02*
X11456230Y-11435984D01*
X11456230Y-11435984D02*
X11437182Y-11426460D01*
X11437182Y-11426460D02*
X11427658Y-11407412D01*
X11427658Y-11407412D02*
X11427658Y-11331222D01*
X11427658Y-11331222D02*
X11437182Y-11312174D01*
X11437182Y-11312174D02*
X11456230Y-11302650D01*
X11456230Y-11302650D02*
X11494325Y-11302650D01*
X11494325Y-11302650D02*
X11513373Y-11312174D01*
X11513373Y-11312174D02*
X11522896Y-11331222D01*
X11522896Y-11331222D02*
X11522896Y-11350269D01*
X11522896Y-11350269D02*
X11427658Y-11369317D01*
X11694325Y-11435984D02*
X11694325Y-11235984D01*
X11694325Y-11426460D02*
X11675277Y-11435984D01*
X11675277Y-11435984D02*
X11637182Y-11435984D01*
X11637182Y-11435984D02*
X11618134Y-11426460D01*
X11618134Y-11426460D02*
X11608611Y-11416936D01*
X11608611Y-11416936D02*
X11599087Y-11397888D01*
X11599087Y-11397888D02*
X11599087Y-11340746D01*
X11599087Y-11340746D02*
X11608611Y-11321698D01*
X11608611Y-11321698D02*
X11618134Y-11312174D01*
X11618134Y-11312174D02*
X11637182Y-11302650D01*
X11637182Y-11302650D02*
X11675277Y-11302650D01*
X11675277Y-11302650D02*
X11694325Y-11312174D01*
X11770515Y-11512174D02*
X11780039Y-11502650D01*
X11780039Y-11502650D02*
X11799087Y-11474079D01*
X11799087Y-11474079D02*
X11808611Y-11455031D01*
X11808611Y-11455031D02*
X11818134Y-11426460D01*
X11818134Y-11426460D02*
X11827658Y-11378841D01*
X11827658Y-11378841D02*
X11827658Y-11340746D01*
X11827658Y-11340746D02*
X11818134Y-11293127D01*
X11818134Y-11293127D02*
X11808611Y-11264555D01*
X11808611Y-11264555D02*
X11799087Y-11245508D01*
X11799087Y-11245508D02*
X11780039Y-11216936D01*
X11780039Y-11216936D02*
X11770515Y-11207412D01*
M02*
