M48
; DRILL file {KiCad 8.0.1} date 2024-04-12T12:19:01+0100
; FORMAT={-:-/ absolute / inch / decimal}
; #@! TF.CreationDate,2024-04-12T12:19:01+01:00
; #@! TF.GenerationSoftware,Kicad,Pcbnew,8.0.1
; #@! TF.FileFunction,Plated,1,2,PTH
FMAT,2
INCH
; #@! TA.AperFunction,Plated,PTH,ViaDrill
T1C0.0236
; #@! TA.AperFunction,Plated,PTH,ComponentDrill
T2C0.0315
; #@! TA.AperFunction,Plated,PTH,ComponentDrill
T3C0.0354
; #@! TA.AperFunction,Plated,PTH,ComponentDrill
T4C0.0390
; #@! TA.AperFunction,Plated,PTH,ComponentDrill
T5C0.0394
; #@! TA.AperFunction,Plated,PTH,ComponentDrill
T6C0.0472
; #@! TA.AperFunction,Plated,PTH,ComponentDrill
T7C0.0512
; #@! TA.AperFunction,Plated,PTH,ComponentDrill
T8C0.0551
; #@! TA.AperFunction,Plated,PTH,ComponentDrill
T9C0.0709
%
G90
G05
T1
X3.822Y-6.6709
X3.837Y-7.3642
X3.848Y-7.772
X3.8492Y-5.424
X3.8539Y-3.8287
X3.8634Y-2.4244
X3.8933Y-7.5161
X3.9012Y-8.715
X3.9094Y-3.2728
X3.9406Y-8.0181
X4.1063Y-3.5268
X4.1504Y-6.7713
X4.1551Y-4.3744
X4.2063Y-4.6236
X4.2516Y-6.3736
X4.3539Y-4.6799
X4.3886Y-7.9181
X4.4035Y-6.6732
X4.4516Y-5.9744
X4.4535Y-6.6213
X4.4579Y-3.3287
X4.4602Y-2.6815
X4.5024Y-8.3209
X4.5039Y-5.6264
X4.5146Y-2.7787
X4.5516Y-6.0724
X4.6378Y-7.5713
X4.7118Y-3.1795
X4.7634Y-2.5783
X4.8118Y-2.6783
X4.8504Y-6.478
X4.8508Y-5.8756
X4.8602Y-3.0772
X4.8965Y-6.4185
X4.9079Y-3.2287
X5.0083Y-3.3295
X5.0614Y-5.2626
X5.098Y-7.8685
X5.1508Y-8.1709
X5.1524Y-4.1756
X5.1594Y-3.2839
X5.161Y-2.7807
X5.1965Y-8.7236
X5.2004Y-8.1189
X5.202Y-3.9787
X5.4039Y-4.9819
X5.4488Y-6.0287
X5.4543Y-4.878
X5.4984Y-7.9732
X5.4996Y-6.4291
X5.4996Y-7.5713
X5.5996Y-7.5213
X5.7035Y-6.2315
X5.7059Y-4.7803
X5.7067Y-3.9846
X5.7496Y-8.3189
X5.7539Y-5.6795
X5.7591Y-4.0819
X5.8043Y-5.9787
X5.9378Y-7.7803
X5.9472Y-7.0765
X6.0504Y-7.0256
X6.0591Y-5.0823
X6.0594Y-4.2823
X6.1098Y-4.0823
X6.111Y-3.9819
X6.1555Y-4.7287
X6.2016Y-4.1807
X6.2016Y-6.9283
X6.2547Y-6.9795
X6.2571Y-5.1354
X6.3039Y-3.5803
X6.3043Y-5.0323
X6.31Y-6.325
X6.3528Y-4.1768
X6.3531Y-5.1335
X6.3579Y-3.4894
X6.3969Y-6.2965
X6.3969Y-7.08
X6.3984Y-8.1272
X6.4339Y-7.3276
X6.4531Y-5.7299
X6.4555Y-4.628
X6.4579Y-4.2835
X6.4827Y-8.1764
X6.487Y-7.2783
X6.5063Y-3.537
X6.5063Y-4.3823
X6.5409Y-7.2299
X6.7047Y-3.3835
X6.7059Y-4.2831
X6.7469Y-7.4843
X6.7492Y-7.0283
X6.7528Y-4.3846
X6.789Y-7.1283
X6.802Y-6.0811
X6.8063Y-5.0335
X6.8496Y-6.4311
X6.93Y-6.2965
X6.9579Y-3.585
X6.987Y-7.4815
X7.0059Y-2.3835
X7.025Y-6.2965
X7.0492Y-5.4228
X7.052Y-7.385
X7.0524Y-6.3843
X7.0563Y-4.0346
X7.0591Y-4.7315
X7.0602Y-2.4402
X7.1035Y-4.935
X7.1083Y-4.3315
X7.1421Y-6.7272
X7.1429Y-7.6823
X7.1539Y-4.1831
X7.25Y-4.3362
X7.285Y-5.83
X7.3047Y-5.585
X7.3055Y-5.0346
X7.3062Y-3.7255
X7.3083Y-2.589
X7.31Y-6.4319
X7.5035Y-4.887
X7.5362Y-8.478
X7.5524Y-4.9835
X7.5547Y-2.6874
X7.5969Y-7.2819
X7.6457Y-5.59
X7.6457Y-6.14
X7.6965Y-4.9374
X7.7553Y-2.9837
X7.7906Y-6.5323
X7.7976Y-6.8795
X7.8504Y-6.4858
X7.8571Y-3.0846
X7.8921Y-6.9791
X7.8941Y-6.4319
X7.9024Y-3.3854
X7.9957Y-7.5854
X8.1465Y-5.6854
X8.1846Y-7.6827
X8.1854Y-9.1354
X8.1906Y-6.3287
X8.2496Y-3.6441
X8.25Y-6.5354
X8.2957Y-3.7386
X8.2988Y-5.3362
X8.3012Y-6.6362
X8.3409Y-6.4839
X8.3496Y-5.7866
X8.3535Y-5.4358
X8.3539Y-2.9406
X8.3937Y-8.6823
X8.3996Y-3.7417
X8.4461Y-5.4335
X8.4555Y-2.9894
X8.5Y-3.537
X8.5461Y-4.985
X8.5535Y-3.0402
X8.5988Y-6.6343
X8.635Y-8.3335
X8.6496Y-6.3866
X8.6555Y-3.0909
X8.6949Y-8.2331
X8.6976Y-3.4402
X8.6984Y-6.3346
X8.7453Y-8.1339
X8.748Y-3.1358
X8.7854Y-7.8815
X8.7937Y-3.4898
X8.805Y-5.93
X8.8461Y-3.189
X8.8972Y-3.237
X8.9449Y-6.287
X8.9509Y-5.4893
X8.9531Y-3.2909
X8.9957Y-3.5925
X9.0417Y-5.3362
X9.0425Y-6.2386
X9.0445Y-5.0878
X9.0937Y-4.987
X9.1356Y-6.8373
X9.1413Y-4.889
X9.1941Y-4.685
X9.2441Y-3.3882
X9.2528Y-4.5921
X9.2941Y-8.1831
X9.3Y-4.4906
X9.3331Y-7.1815
X9.3362Y-6.9799
X9.3406Y-5.8878
X9.348Y-4.3925
X9.3917Y-5.5346
X9.3937Y-3.3406
X9.4043Y-4.2913
X9.4358Y-7.6807
X9.4465Y-6.9445
X9.4543Y-2.3882
X9.4906Y-5.485
X9.5925Y-3.3441
X9.6319Y-9.1402
X9.6449Y-3.5382
X9.6953Y-3.2921
X9.7311Y-7.5803
X9.7335Y-8.4362
X9.7453Y-3.2413
X9.7646Y-2.2327
X9.7886Y-7.0894
X9.789Y-7.5315
X9.7941Y-4.437
X9.802Y-3.1921
X9.8382Y-6.935
X9.8504Y-3.0909
X9.8945Y-3.1421
X9.948Y-3.0429
X9.9945Y-6.6386
X9.998Y-2.989
X10.039Y-5.1902
X10.0453Y-2.9394
X10.4343Y-6.6823
X10.4843Y-6.037
X10.4858Y-6.9815
X10.5004Y-4.7953
X10.5516Y-2.898
X10.5551Y-5.3465
X10.7425Y-2.7894
X10.7465Y-4.5945
X10.7866Y-6.1394
X10.8409Y-6.0366
X10.85Y-4.5929
X10.8528Y-2.9961
X10.8894Y-5.8878
X10.9465Y-4.4957
X10.9642Y-1.9031
X11.0Y-4.3941
X11.05Y-1.9098
X11.0941Y-6.3949
X11.0965Y-4.3429
X11.1386Y-5.9437
X11.1461Y-5.5921
X11.1484Y-3.0441
X11.1945Y-2.6921
X11.1945Y-5.9937
X11.2374Y-5.8382
X11.2421Y-3.0921
X11.2573Y-1.8519
X11.2898Y-5.5923
X11.2902Y-4.3425
X11.3433Y-4.3921
X11.3453Y-4.0929
X11.4028Y-4.1988
X11.4346Y-6.2409
X11.4409Y-5.7969
X11.4969Y-5.9906
X11.5488Y-5.8941
X11.5831Y-5.6894
X11.5976Y-1.9906
X11.6386Y-5.7402
X11.6465Y-6.0402
X11.7315Y-7.2736
X11.7504Y-6.3941
X11.7827Y-6.5886
X11.8012Y-2.6965
X11.8323Y-7.235
X11.8835Y-6.6378
X11.9031Y-2.5976
X11.9366Y-5.939
X11.9831Y-6.689
X12.1327Y-8.3287
X12.1492Y-4.1913
X12.15Y-3.3531
X12.1772Y-8.3815
X12.2398Y-7.8398
X12.2441Y-8.8354
X12.2917Y-2.4413
X12.2925Y-8.885
X12.3311Y-7.7827
X12.3424Y-8.932
X12.3827Y-7.6831
X12.3906Y-8.9785
X12.4291Y-7.7354
X12.4345Y-9.0289
X12.478Y-6.7358
X12.4783Y-9.0795
X12.5445Y-6.9441
X12.5551Y-5.3484
X12.5906Y-8.6413
X12.5945Y-6.4917
X12.5972Y-7.0843
X12.598Y-7.5433
X12.5988Y-8.0925
T2
X3.9913Y-7.8681
X3.9913Y-7.9681
X3.9913Y-8.0681
X3.9913Y-8.1681
X3.9913Y-8.2681
X3.9913Y-8.3681
X3.9913Y-8.4681
X3.9913Y-8.5681
X3.9913Y-8.6681
X3.9913Y-8.7681
X3.9937Y-7.665
X3.9953Y-6.7705
X3.9953Y-6.8705
X3.9953Y-6.9705
X3.9953Y-7.0705
X3.9953Y-7.1705
X3.9953Y-7.2705
X3.9953Y-7.3705
X3.9953Y-7.4705
X3.9992Y-6.5669
X4.0051Y-5.2248
X4.0098Y-5.4236
X4.0098Y-5.5236
X4.0098Y-5.6236
X4.0098Y-5.7236
X4.0098Y-5.8236
X4.0098Y-5.9236
X4.0098Y-6.0236
X4.0106Y-3.8283
X4.0106Y-3.9283
X4.0106Y-4.0283
X4.0106Y-4.1283
X4.0106Y-4.2283
X4.0106Y-4.3283
X4.0106Y-4.4283
X4.0118Y-3.6228
X4.0124Y-3.405
X4.0126Y-2.5291
X4.0126Y-2.6291
X4.0126Y-2.7291
X4.0126Y-2.8291
X4.0126Y-2.9291
X4.0126Y-3.0291
X4.0126Y-3.1291
X4.0169Y-2.3264
X4.289Y-7.665
X4.2913Y-7.8681
X4.2913Y-7.9681
X4.2913Y-8.0681
X4.2913Y-8.1681
X4.2913Y-8.2681
X4.2913Y-8.3681
X4.2913Y-8.4681
X4.2913Y-8.5681
X4.2913Y-8.6681
X4.2913Y-8.7681
X4.2945Y-6.5669
X4.2953Y-6.7705
X4.2953Y-6.8705
X4.2953Y-6.9705
X4.2953Y-7.0705
X4.2953Y-7.1705
X4.2953Y-7.2705
X4.2953Y-7.3705
X4.2953Y-7.4705
X4.3004Y-5.2248
X4.3071Y-3.6228
X4.3076Y-3.405
X4.3098Y-5.4236
X4.3098Y-5.5236
X4.3098Y-5.6236
X4.3098Y-5.7236
X4.3098Y-5.8236
X4.3098Y-5.9236
X4.3098Y-6.0236
X4.3106Y-3.8283
X4.3106Y-3.9283
X4.3106Y-4.0283
X4.3106Y-4.1283
X4.3106Y-4.2283
X4.3106Y-4.3283
X4.3106Y-4.4283
X4.3122Y-2.3264
X4.3126Y-2.5291
X4.3126Y-2.6291
X4.3126Y-2.7291
X4.3126Y-2.8291
X4.3126Y-2.9291
X4.3126Y-3.0291
X4.3126Y-3.1291
X4.5933Y-6.7728
X4.5933Y-7.0681
X4.6382Y-7.6685
X4.6382Y-7.8681
X4.6382Y-7.9681
X4.6382Y-8.0681
X4.6382Y-8.1681
X4.6382Y-8.2681
X4.6382Y-8.3681
X4.6382Y-8.4681
X4.6382Y-8.5681
X4.6382Y-8.6681
X4.6382Y-8.7681
X4.6496Y-5.4232
X4.6496Y-5.5232
X4.6496Y-5.6232
X4.6496Y-5.7232
X4.6496Y-5.8232
X4.6496Y-5.9232
X4.6496Y-6.0232
X4.6496Y-6.1232
X4.6539Y-3.828
X4.6539Y-3.928
X4.6539Y-4.028
X4.6539Y-4.128
X4.6539Y-4.228
X4.6539Y-4.328
X4.6539Y-4.428
X4.6539Y-4.528
X4.6543Y-5.228
X4.6579Y-2.5283
X4.6579Y-2.6283
X4.6579Y-2.7283
X4.6579Y-2.8283
X4.6579Y-2.9283
X4.6579Y-3.0283
X4.6579Y-3.1283
X4.6598Y-3.6311
X4.663Y-2.335
X4.7906Y-6.7724
X4.7906Y-7.3724
X4.8906Y-6.7724
X4.8906Y-7.3724
X4.9335Y-7.6685
X4.9382Y-7.8681
X4.9382Y-7.9681
X4.9382Y-8.0681
X4.9382Y-8.1681
X4.9382Y-8.2681
X4.9382Y-8.3681
X4.9382Y-8.4681
X4.9382Y-8.5681
X4.9382Y-8.6681
X4.9382Y-8.7681
X4.9496Y-5.228
X4.9496Y-5.4232
X4.9496Y-5.5232
X4.9496Y-5.6232
X4.9496Y-5.7232
X4.9496Y-5.8232
X4.9496Y-5.9232
X4.9496Y-6.0232
X4.9496Y-6.1232
X4.9539Y-3.828
X4.9539Y-3.928
X4.9539Y-4.028
X4.9539Y-4.128
X4.9539Y-4.228
X4.9539Y-4.328
X4.9539Y-4.428
X4.9539Y-4.528
X4.9551Y-3.6311
X4.9579Y-2.5283
X4.9579Y-2.6283
X4.9579Y-2.7283
X4.9579Y-2.8283
X4.9579Y-2.9283
X4.9579Y-3.0283
X4.9579Y-3.1283
X4.9583Y-2.335
X4.9906Y-6.7724
X4.9906Y-7.3724
X5.0906Y-6.7724
X5.0906Y-7.3724
X5.1906Y-6.7724
X5.1906Y-7.3724
X5.2862Y-7.8677
X5.2862Y-7.9677
X5.2862Y-8.0677
X5.2862Y-8.1677
X5.2862Y-8.2677
X5.2862Y-8.3677
X5.2862Y-8.4677
X5.2862Y-8.5677
X5.2862Y-8.6677
X5.2862Y-8.7677
X5.2906Y-6.7724
X5.2906Y-7.3724
X5.2925Y-7.6815
X5.2984Y-5.4232
X5.2984Y-5.5232
X5.2984Y-5.6232
X5.2984Y-5.7232
X5.2984Y-5.8232
X5.2984Y-5.9232
X5.2984Y-6.0232
X5.2984Y-6.1232
X5.302Y-3.828
X5.302Y-3.928
X5.302Y-4.028
X5.302Y-4.128
X5.302Y-4.228
X5.302Y-4.328
X5.302Y-4.428
X5.302Y-4.528
X5.3035Y-5.228
X5.3063Y-3.6272
X5.3075Y-2.5283
X5.3075Y-2.6283
X5.3075Y-2.7283
X5.3075Y-2.8283
X5.3075Y-2.9283
X5.3075Y-3.0283
X5.3075Y-3.1283
X5.3075Y-3.2283
X5.313Y-2.3272
X5.3906Y-6.7724
X5.3906Y-7.3724
X5.4906Y-6.7724
X5.4906Y-7.3724
X5.5862Y-7.8677
X5.5862Y-7.9677
X5.5862Y-8.0677
X5.5862Y-8.1677
X5.5862Y-8.2677
X5.5862Y-8.3677
X5.5862Y-8.4677
X5.5862Y-8.5677
X5.5862Y-8.6677
X5.5862Y-8.7677
X5.5878Y-7.6815
X5.5906Y-6.7724
X5.5906Y-7.3724
X5.5984Y-5.4232
X5.5984Y-5.5232
X5.5984Y-5.6232
X5.5984Y-5.7232
X5.5984Y-5.8232
X5.5984Y-5.9232
X5.5984Y-6.0232
X5.5984Y-6.1232
X5.5988Y-5.228
X5.6016Y-3.6272
X5.602Y-3.828
X5.602Y-3.928
X5.602Y-4.028
X5.602Y-4.128
X5.602Y-4.228
X5.602Y-4.328
X5.602Y-4.428
X5.602Y-4.528
X5.6075Y-2.5283
X5.6075Y-2.6283
X5.6075Y-2.7283
X5.6075Y-2.8283
X5.6075Y-2.9283
X5.6075Y-3.0283
X5.6075Y-3.1283
X5.6075Y-3.2283
X5.6083Y-2.3272
X5.6906Y-6.7724
X5.6906Y-7.3724
X5.75Y-2.5311
X5.75Y-2.8264
X5.7528Y-2.9378
X5.7528Y-3.4378
X5.7906Y-6.7724
X5.7906Y-7.3724
X5.8906Y-6.7724
X5.8906Y-7.3724
X5.948Y-5.4232
X5.948Y-5.5232
X5.948Y-5.6232
X5.948Y-5.7232
X5.948Y-5.8232
X5.948Y-5.9232
X5.948Y-6.0232
X5.948Y-6.1232
X5.9524Y-5.2319
X5.9528Y-3.828
X5.9528Y-3.928
X5.9528Y-4.028
X5.9528Y-4.128
X5.9528Y-4.228
X5.9528Y-4.328
X5.9528Y-4.428
X5.9528Y-4.528
X5.9551Y-2.5287
X5.9551Y-2.6287
X5.9551Y-2.7287
X5.9551Y-2.8287
X5.9551Y-2.9287
X5.9551Y-3.0287
X5.9551Y-3.1287
X5.9551Y-3.2287
X5.9551Y-3.3287
X5.9551Y-3.4287
X5.9559Y-3.6335
X5.9598Y-2.3311
X5.9906Y-6.7724
X5.9906Y-7.3724
X6.0346Y-7.9768
X6.0346Y-8.272
X6.0906Y-6.7724
X6.0906Y-7.3724
X6.2476Y-5.2319
X6.248Y-5.4232
X6.248Y-5.5232
X6.248Y-5.6232
X6.248Y-5.7232
X6.248Y-5.8232
X6.248Y-5.9232
X6.248Y-6.0232
X6.248Y-6.1232
X6.2512Y-3.6335
X6.2528Y-3.828
X6.2528Y-3.928
X6.2528Y-4.028
X6.2528Y-4.128
X6.2528Y-4.228
X6.2528Y-4.328
X6.2528Y-4.428
X6.2528Y-4.528
X6.2551Y-2.3311
X6.2551Y-2.5287
X6.2551Y-2.6287
X6.2551Y-2.7287
X6.2551Y-2.8287
X6.2551Y-2.9287
X6.2551Y-3.0287
X6.2551Y-3.1287
X6.2551Y-3.2287
X6.2551Y-3.3287
X6.2551Y-3.4287
X6.285Y-7.9728
X6.285Y-8.5728
X6.385Y-7.9728
X6.385Y-8.5728
X6.4094Y-2.3331
X6.4094Y-2.5831
X6.4094Y-3.8343
X6.4094Y-4.2343
X6.485Y-7.9728
X6.485Y-8.5728
X6.585Y-7.9728
X6.585Y-8.5728
X6.5902Y-6.7811
X6.5902Y-6.8811
X6.5902Y-6.9811
X6.5902Y-7.0811
X6.5902Y-7.1811
X6.5902Y-7.2811
X6.5902Y-7.3811
X6.5953Y-6.5819
X6.5996Y-5.2276
X6.6Y-5.4232
X6.6Y-5.5232
X6.6Y-5.6232
X6.6Y-5.7232
X6.6Y-5.8232
X6.6Y-5.9232
X6.6Y-6.0232
X6.6Y-6.1232
X6.602Y-2.5287
X6.602Y-2.6287
X6.602Y-2.7287
X6.602Y-2.8287
X6.602Y-2.9287
X6.602Y-3.0287
X6.602Y-3.1287
X6.602Y-3.2287
X6.602Y-3.3287
X6.602Y-3.4287
X6.6031Y-3.8276
X6.6031Y-3.9276
X6.6031Y-4.0276
X6.6031Y-4.1276
X6.6031Y-4.2276
X6.6031Y-4.3276
X6.6031Y-4.4276
X6.6031Y-4.5276
X6.6031Y-4.6276
X6.6031Y-4.7276
X6.6063Y-2.3335
X6.6079Y-3.6323
X6.685Y-7.9728
X6.685Y-8.5728
X6.785Y-7.9728
X6.785Y-8.5728
X6.885Y-7.9728
X6.885Y-8.5728
X6.8902Y-6.7811
X6.8902Y-6.8811
X6.8902Y-6.9811
X6.8902Y-7.0811
X6.8902Y-7.1811
X6.8902Y-7.2811
X6.8902Y-7.3811
X6.8906Y-6.5819
X6.8949Y-5.2276
X6.9Y-5.4232
X6.9Y-5.5232
X6.9Y-5.6232
X6.9Y-5.7232
X6.9Y-5.8232
X6.9Y-5.9232
X6.9Y-6.0232
X6.9Y-6.1232
X6.9016Y-2.3335
X6.902Y-2.5287
X6.902Y-2.6287
X6.902Y-2.7287
X6.902Y-2.8287
X6.902Y-2.9287
X6.902Y-3.0287
X6.902Y-3.1287
X6.902Y-3.2287
X6.902Y-3.3287
X6.902Y-3.4287
X6.9031Y-3.6323
X6.9031Y-3.8276
X6.9031Y-3.9276
X6.9031Y-4.0276
X6.9031Y-4.1276
X6.9031Y-4.2276
X6.9031Y-4.3276
X6.9031Y-4.4276
X6.9031Y-4.5276
X6.9031Y-4.6276
X6.9031Y-4.7276
X6.985Y-7.9728
X6.985Y-8.5728
X7.085Y-7.9728
X7.085Y-8.5728
X7.1358Y-3.4311
X7.1358Y-3.9311
X7.175Y-5.5323
X7.175Y-6.0323
X7.185Y-7.9728
X7.185Y-8.5728
X7.2094Y-2.5343
X7.2094Y-3.0343
X7.285Y-7.9728
X7.285Y-8.5728
X7.385Y-7.9728
X7.385Y-8.5728
X7.3925Y-6.778
X7.3925Y-6.878
X7.3925Y-6.978
X7.3925Y-7.078
X7.3925Y-7.178
X7.3925Y-7.278
X7.3925Y-7.378
X7.3925Y-7.478
X7.3949Y-6.5858
X7.4024Y-5.4327
X7.4024Y-5.5327
X7.4024Y-5.6327
X7.4024Y-5.7327
X7.4024Y-5.8327
X7.4024Y-5.9327
X7.4024Y-6.0327
X7.4031Y-2.5287
X7.4031Y-2.6287
X7.4031Y-2.7287
X7.4031Y-2.8287
X7.4031Y-2.9287
X7.4031Y-3.0287
X7.4031Y-3.1287
X7.4031Y-3.2287
X7.4031Y-3.3287
X7.4031Y-3.4287
X7.4035Y-3.8347
X7.4035Y-3.9347
X7.4035Y-4.0347
X7.4035Y-4.1347
X7.4035Y-4.2347
X7.4035Y-4.3347
X7.4035Y-4.4347
X7.4035Y-4.5886
X7.4059Y-3.6402
X7.4067Y-5.2362
X7.4083Y-2.3394
X7.485Y-7.9728
X7.485Y-8.5728
X7.5547Y-2.0839
X7.585Y-7.9728
X7.585Y-8.5728
X7.6547Y-2.0839
X7.685Y-7.9728
X7.685Y-8.5728
X7.6902Y-6.5858
X7.6925Y-6.778
X7.6925Y-6.878
X7.6925Y-6.978
X7.6925Y-7.078
X7.6925Y-7.178
X7.6925Y-7.278
X7.6925Y-7.378
X7.6925Y-7.478
X7.6988Y-4.5886
X7.7012Y-3.6402
X7.702Y-5.2362
X7.7024Y-5.4327
X7.7024Y-5.5327
X7.7024Y-5.6327
X7.7024Y-5.7327
X7.7024Y-5.8327
X7.7024Y-5.9327
X7.7024Y-6.0327
X7.7031Y-2.5287
X7.7031Y-2.6287
X7.7031Y-2.7287
X7.7031Y-2.8287
X7.7031Y-2.9287
X7.7031Y-3.0287
X7.7031Y-3.1287
X7.7031Y-3.2287
X7.7031Y-3.3287
X7.7031Y-3.4287
X7.7035Y-2.3394
X7.7035Y-3.8347
X7.7035Y-3.9347
X7.7035Y-4.0347
X7.7035Y-4.1347
X7.7035Y-4.2347
X7.7035Y-4.3347
X7.7035Y-4.4347
X7.7547Y-2.0839
X7.785Y-7.9728
X7.785Y-8.5728
X7.8406Y-5.5335
X7.8406Y-6.0335
X7.8547Y-2.0839
X7.885Y-7.9728
X7.885Y-8.5728
X7.8972Y-3.8394
X7.8972Y-4.3394
X7.9547Y-2.0839
X7.985Y-7.9728
X7.985Y-8.5728
X7.9996Y-5.5335
X7.9996Y-6.0335
X8.0508Y-3.8394
X8.0508Y-4.3394
X8.0547Y-2.0839
X8.085Y-7.9728
X8.085Y-8.5728
X8.1547Y-2.0839
X8.185Y-7.9728
X8.185Y-8.5728
X8.1894Y-6.7831
X8.1894Y-6.8831
X8.1894Y-6.9831
X8.1894Y-7.0831
X8.1894Y-7.1831
X8.1894Y-7.2831
X8.1894Y-7.3831
X8.1945Y-6.5819
X8.1957Y-6.2248
X8.1969Y-6.0846
X8.2547Y-2.0839
X8.2988Y-3.8366
X8.2988Y-3.9366
X8.2988Y-4.0366
X8.2988Y-4.1366
X8.2988Y-4.2366
X8.2988Y-4.3366
X8.2988Y-4.4366
X8.2988Y-4.5366
X8.2988Y-4.6366
X8.2988Y-4.7366
X8.2988Y-4.8366
X8.2988Y-4.9366
X8.2988Y-5.0366
X8.2988Y-5.1366
X8.3547Y-2.0839
X8.3898Y-6.0846
X8.4547Y-2.0839
X8.4894Y-6.7831
X8.4894Y-6.8831
X8.4894Y-6.9831
X8.4894Y-7.0831
X8.4894Y-7.1831
X8.4894Y-7.2831
X8.4894Y-7.3831
X8.4898Y-6.5819
X8.4909Y-6.2248
X8.5374Y-8.6217
X8.5874Y-8.4796
X8.5945Y-5.5335
X8.5945Y-6.0335
X8.6035Y-3.6354
X8.7409Y-5.5335
X8.7409Y-6.0335
X8.7803Y-8.4796
X8.8327Y-8.6217
X8.8874Y-6.7827
X8.8874Y-6.8827
X8.8874Y-6.9827
X8.8874Y-7.0827
X8.8874Y-7.1827
X8.8874Y-7.2827
X8.8874Y-7.3827
X8.8886Y-5.4366
X8.8886Y-5.5366
X8.8886Y-5.6366
X8.8886Y-5.7366
X8.8886Y-5.8366
X8.8886Y-5.9366
X8.8886Y-6.0366
X8.8988Y-3.6354
X8.8988Y-3.8366
X8.8988Y-3.9366
X8.8988Y-4.0366
X8.8988Y-4.1366
X8.8988Y-4.2366
X8.8988Y-4.3366
X8.8988Y-4.4366
X8.8988Y-4.5366
X8.8988Y-4.6366
X8.8988Y-4.7366
X8.8988Y-4.8366
X8.8988Y-4.9366
X8.8988Y-5.0366
X8.8988Y-5.1366
X9.0346Y-7.9323
X9.0346Y-8.4323
X9.1807Y-7.9319
X9.1807Y-8.4319
X9.1874Y-6.7827
X9.1874Y-6.8827
X9.1874Y-6.9827
X9.1874Y-7.0827
X9.1874Y-7.1827
X9.1874Y-7.2827
X9.1874Y-7.3827
X9.1886Y-5.4366
X9.1886Y-5.5366
X9.1886Y-5.6366
X9.1886Y-5.7366
X9.1886Y-5.8366
X9.1886Y-5.9366
X9.1886Y-6.0366
X9.3264Y-7.9319
X9.3264Y-8.4319
X9.3898Y-6.7846
X9.3898Y-7.0799
X9.4724Y-7.9319
X9.4724Y-8.4319
X9.6323Y-7.8315
X9.6323Y-7.9315
X9.6323Y-8.0315
X9.6323Y-8.1315
X9.6323Y-8.2315
X9.6323Y-8.3315
X9.6323Y-8.4315
X9.6323Y-8.5315
X9.6323Y-8.6315
X9.6323Y-8.7315
X9.6362Y-6.7862
X9.6362Y-6.8862
X9.6362Y-6.9862
X9.6362Y-7.0862
X9.6362Y-7.1862
X9.6362Y-7.2862
X9.6362Y-7.3862
X9.6362Y-7.4862
X9.637Y-5.4366
X9.637Y-5.5366
X9.637Y-5.6366
X9.637Y-5.7366
X9.637Y-5.8366
X9.637Y-5.9366
X9.637Y-6.0366
X9.6382Y-7.6799
X9.6429Y-5.239
X9.8898Y-4.987
X9.8909Y-3.9362
X9.8909Y-4.687
X9.9323Y-7.8315
X9.9323Y-7.9315
X9.9323Y-8.0315
X9.9323Y-8.1315
X9.9323Y-8.2315
X9.9323Y-8.3315
X9.9323Y-8.4315
X9.9323Y-8.5315
X9.9323Y-8.6315
X9.9323Y-8.7315
X9.9335Y-7.6799
X9.9362Y-6.7862
X9.9362Y-6.8862
X9.9362Y-6.9862
X9.9362Y-7.0862
X9.9362Y-7.1862
X9.9362Y-7.2862
X9.9362Y-7.3862
X9.9362Y-7.4862
X9.937Y-5.4366
X9.937Y-5.5366
X9.937Y-5.6366
X9.937Y-5.7366
X9.937Y-5.8366
X9.937Y-5.9366
X9.937Y-6.0366
X9.9382Y-5.239
X9.961Y-3.9362
X9.961Y-4.687
X9.9898Y-4.987
X10.0311Y-3.9362
X10.0311Y-4.687
X10.0898Y-4.987
X10.1012Y-3.9362
X10.1012Y-4.687
X10.1335Y-6.7815
X10.1335Y-6.8815
X10.1335Y-6.9815
X10.1335Y-7.0815
X10.1335Y-7.1815
X10.1335Y-7.2815
X10.1335Y-7.3815
X10.1335Y-7.4815
X10.1335Y-7.5815
X10.1335Y-7.6815
X10.1358Y-5.5382
X10.1358Y-6.0382
X10.1713Y-3.9362
X10.1713Y-4.687
X10.1898Y-4.987
X10.2413Y-3.9362
X10.2413Y-4.687
X10.2898Y-4.987
X10.3114Y-3.9362
X10.3114Y-4.687
X10.339Y-5.4366
X10.339Y-5.5366
X10.339Y-5.6366
X10.339Y-5.7366
X10.339Y-5.8366
X10.339Y-5.9366
X10.339Y-6.0366
X10.339Y-6.1366
X10.3402Y-2.5402
X10.3402Y-2.6402
X10.3402Y-2.7402
X10.3402Y-2.8402
X10.3402Y-2.9402
X10.3402Y-3.0402
X10.3402Y-3.1402
X10.3429Y-5.2409
X10.3465Y-2.3409
X10.3815Y-3.9362
X10.3815Y-4.687
X10.3846Y-6.7831
X10.3846Y-7.0831
X10.3846Y-7.3293
X10.3846Y-7.6293
X10.3846Y-7.8801
X10.3846Y-8.1801
X10.3846Y-8.4285
X10.3846Y-8.7285
X10.3898Y-4.987
X10.4516Y-3.9362
X10.4516Y-4.687
X10.4846Y-6.7831
X10.4846Y-7.0831
X10.4846Y-7.3293
X10.4846Y-7.6293
X10.4846Y-7.8801
X10.4846Y-8.1801
X10.4846Y-8.4285
X10.4846Y-8.7285
X10.4898Y-4.987
X10.5217Y-3.9362
X10.5217Y-4.687
X10.5846Y-6.7831
X10.5846Y-7.0831
X10.5846Y-7.3293
X10.5846Y-7.6293
X10.5846Y-7.8801
X10.5846Y-8.1801
X10.5846Y-8.4285
X10.5846Y-8.7285
X10.5898Y-4.987
X10.5917Y-3.9362
X10.5917Y-4.687
X10.6382Y-5.2409
X10.639Y-5.4366
X10.639Y-5.5366
X10.639Y-5.6366
X10.639Y-5.7366
X10.639Y-5.8366
X10.639Y-5.9366
X10.639Y-6.0366
X10.639Y-6.1366
X10.6402Y-2.5402
X10.6402Y-2.6402
X10.6402Y-2.7402
X10.6402Y-2.8402
X10.6402Y-2.9402
X10.6402Y-3.0402
X10.6402Y-3.1402
X10.6417Y-2.3409
X10.6618Y-3.9362
X10.6618Y-4.687
X10.6846Y-6.7831
X10.6846Y-7.0831
X10.6846Y-7.3293
X10.6846Y-7.6293
X10.6846Y-7.8801
X10.6846Y-8.1801
X10.6846Y-8.4285
X10.6846Y-8.7285
X10.6898Y-4.987
X10.7319Y-3.9362
X10.7319Y-4.687
X10.7846Y-6.7831
X10.7846Y-7.0831
X10.7846Y-7.3293
X10.7846Y-7.6293
X10.7846Y-7.8801
X10.7846Y-8.1801
X10.7846Y-8.4285
X10.7846Y-8.7285
X10.7898Y-4.987
X10.802Y-3.9362
X10.802Y-4.687
X10.8024Y-2.5504
X10.8024Y-3.0504
X10.872Y-3.9362
X10.872Y-4.687
X10.8846Y-6.7831
X10.8846Y-7.0831
X10.8846Y-7.3293
X10.8846Y-7.6293
X10.8846Y-7.8801
X10.8846Y-8.1801
X10.8846Y-8.4285
X10.8846Y-8.7285
X10.9421Y-3.9362
X10.9421Y-4.687
X10.9512Y-2.55
X10.9512Y-3.05
X10.9846Y-6.7831
X10.9846Y-7.0831
X10.9846Y-7.3293
X10.9846Y-7.6293
X10.9846Y-7.8801
X10.9846Y-8.1801
X10.9846Y-8.4285
X10.9846Y-8.7285
X11.0122Y-3.9362
X11.0122Y-4.687
X11.0425Y-5.2409
X11.0425Y-5.4366
X11.0425Y-5.5366
X11.0425Y-5.6366
X11.0425Y-5.7366
X11.0425Y-5.8366
X11.0425Y-5.9366
X11.0425Y-6.0366
X11.0425Y-6.1366
X11.048Y-2.5425
X11.048Y-2.6425
X11.048Y-2.7425
X11.048Y-2.8425
X11.048Y-2.9425
X11.048Y-3.0425
X11.048Y-3.1425
X11.0492Y-2.3445
X11.0823Y-3.9362
X11.0823Y-4.687
X11.0846Y-6.7831
X11.0846Y-7.0831
X11.0846Y-7.3293
X11.0846Y-7.6293
X11.0846Y-7.8801
X11.0846Y-8.1801
X11.0846Y-8.4285
X11.0846Y-8.7285
X11.1524Y-3.9362
X11.1524Y-4.687
X11.2224Y-3.9362
X11.2224Y-4.687
X11.2224Y-7.8862
X11.2224Y-8.1815
X11.2232Y-8.4335
X11.2232Y-8.7287
X11.2291Y-7.3323
X11.2291Y-7.6276
X11.2358Y-6.7913
X11.2358Y-7.0866
X11.2925Y-3.9362
X11.2925Y-4.687
X11.3378Y-5.2409
X11.3425Y-5.4366
X11.3425Y-5.5366
X11.3425Y-5.6366
X11.3425Y-5.7366
X11.3425Y-5.8366
X11.3425Y-5.9366
X11.3425Y-6.0366
X11.3425Y-6.1366
X11.3445Y-2.3445
X11.348Y-2.5425
X11.348Y-2.6425
X11.348Y-2.7425
X11.348Y-2.8425
X11.348Y-2.9425
X11.348Y-3.0425
X11.348Y-3.1425
X11.3626Y-3.9362
X11.3626Y-4.687
X11.3744Y-8.4276
X11.3744Y-8.7276
X11.3811Y-7.8801
X11.3811Y-8.1801
X11.3823Y-7.3283
X11.3823Y-7.6283
X11.3831Y-6.7831
X11.3831Y-7.0831
X11.4327Y-3.9362
X11.4327Y-4.687
X11.4744Y-8.4276
X11.4744Y-8.7276
X11.4811Y-7.8801
X11.4811Y-8.1801
X11.4823Y-7.3283
X11.4823Y-7.6283
X11.4831Y-6.7831
X11.4831Y-7.0831
X11.5028Y-3.9362
X11.5028Y-4.687
X11.5728Y-3.9362
X11.5728Y-4.687
X11.5744Y-8.4276
X11.5744Y-8.7276
X11.5811Y-7.8801
X11.5811Y-8.1801
X11.5823Y-7.3283
X11.5823Y-7.6283
X11.5831Y-6.7831
X11.5831Y-7.0831
X11.6429Y-3.9362
X11.6429Y-4.687
X11.6744Y-8.4276
X11.6744Y-8.7276
X11.6811Y-7.8801
X11.6811Y-8.1801
X11.6823Y-7.3283
X11.6823Y-7.6283
X11.6831Y-6.7831
X11.6831Y-7.0831
X11.713Y-3.9362
X11.713Y-4.687
X11.7421Y-5.4366
X11.7421Y-5.5366
X11.7421Y-5.6366
X11.7421Y-5.7366
X11.7421Y-5.8366
X11.7421Y-5.9366
X11.7421Y-6.0366
X11.7421Y-6.1366
X11.7433Y-5.2402
X11.7441Y-2.5425
X11.7441Y-2.6425
X11.7441Y-2.7425
X11.7441Y-2.8425
X11.7441Y-2.9425
X11.7441Y-3.0425
X11.7441Y-3.1425
X11.7469Y-2.1976
X11.7484Y-2.3469
X11.7744Y-8.4276
X11.7744Y-8.7276
X11.7811Y-7.8801
X11.7811Y-8.1801
X11.7823Y-7.3283
X11.7823Y-7.6283
X11.7831Y-3.9362
X11.7831Y-4.687
X11.7831Y-6.7831
X11.7831Y-7.0831
X11.8531Y-3.9362
X11.8531Y-4.687
X11.8744Y-8.4276
X11.8744Y-8.7276
X11.8811Y-7.8801
X11.8811Y-8.1801
X11.8823Y-7.3283
X11.8823Y-7.6283
X11.8831Y-6.7831
X11.8831Y-7.0831
X11.9232Y-3.9362
X11.9232Y-4.687
X11.9744Y-8.4276
X11.9744Y-8.7276
X11.9811Y-7.8801
X11.9811Y-8.1801
X11.9823Y-7.3283
X11.9823Y-7.6283
X11.9831Y-6.7831
X11.9831Y-7.0831
X11.9933Y-3.9362
X11.9933Y-4.687
X12.0386Y-5.2402
X12.0421Y-2.1976
X12.0421Y-5.4366
X12.0421Y-5.5366
X12.0421Y-5.6366
X12.0421Y-5.7366
X12.0421Y-5.8366
X12.0421Y-5.9366
X12.0421Y-6.0366
X12.0421Y-6.1366
X12.0437Y-2.3469
X12.0441Y-2.5425
X12.0441Y-2.6425
X12.0441Y-2.7425
X12.0441Y-2.8425
X12.0441Y-2.9425
X12.0441Y-3.0425
X12.0441Y-3.1425
X12.0634Y-3.9362
X12.0634Y-4.687
X12.0744Y-8.4276
X12.0744Y-8.7276
X12.0811Y-7.8801
X12.0811Y-8.1801
X12.0823Y-7.3283
X12.0823Y-7.6283
X12.0831Y-6.7831
X12.0831Y-7.0831
X12.2846Y-7.3339
X12.2846Y-7.6291
X12.285Y-6.7886
X12.285Y-7.0839
X12.285Y-8.4331
X12.285Y-8.7283
X12.2854Y-7.8937
X12.2854Y-8.189
T3
X7.0758Y-2.1161
X7.1758Y-2.1161
T4
X4.222Y-1.5949
X4.3992Y-1.5949
T5
X4.95Y-4.925
X4.9594Y-2.0291
X5.0594Y-2.0291
X5.1594Y-2.0291
X5.2594Y-2.0291
X5.3594Y-2.0291
X6.415Y-2.778
X6.415Y-2.965
X6.415Y-3.3681
X7.02Y-5.925
X7.02Y-6.025
X7.02Y-6.125
X8.1496Y-2.5366
X8.1496Y-2.6366
X8.2496Y-2.5366
X8.2496Y-2.6366
X8.3496Y-2.5366
X8.3496Y-2.6366
X8.4496Y-2.5366
X8.4496Y-2.6366
X8.5496Y-2.5366
X8.5496Y-2.6366
X8.6496Y-2.5366
X8.6496Y-2.6366
X8.7496Y-2.5366
X8.7496Y-2.6366
X8.8496Y-2.5366
X8.8496Y-2.6366
X8.9496Y-2.5366
X8.9496Y-2.6366
X9.0496Y-2.5366
X9.0496Y-2.6366
X9.1496Y-2.5366
X9.1496Y-2.6366
X9.1878Y-6.4276
X9.1878Y-6.5276
X9.2496Y-2.5366
X9.2496Y-2.6366
X9.2878Y-6.4276
X9.2878Y-6.5276
X9.3496Y-2.5366
X9.3496Y-2.6366
X9.3878Y-6.4276
X9.3878Y-6.5276
X9.4496Y-2.5366
X9.4496Y-2.6366
X9.4878Y-6.4276
X9.4878Y-6.5276
X9.5496Y-2.5366
X9.5496Y-2.6366
X9.5878Y-6.4276
X9.5878Y-6.5276
X9.6496Y-2.5366
X9.6496Y-2.6366
X9.6878Y-6.4276
X9.6878Y-6.5276
X9.7496Y-2.5366
X9.7496Y-2.6366
X9.7878Y-6.4276
X9.7878Y-6.5276
X9.8496Y-2.5366
X9.8496Y-2.6366
X9.8878Y-6.4276
X9.8878Y-6.5276
X9.9496Y-2.5366
X9.9496Y-2.6366
X9.9878Y-6.4276
X9.9878Y-6.5276
X10.0496Y-2.5366
X10.0496Y-2.6366
X10.0878Y-6.4276
X10.0878Y-6.5276
X10.1878Y-6.4276
X10.1878Y-6.5276
X10.2878Y-6.4276
X10.2878Y-6.5276
X10.3878Y-6.4276
X10.3878Y-6.5276
X10.4878Y-6.4276
X10.4878Y-6.5276
X10.5878Y-6.4276
X10.5878Y-6.5276
X10.6878Y-6.4276
X10.6878Y-6.5276
X10.7878Y-6.4276
X10.7878Y-6.5276
X11.0913Y-3.3437
X11.1913Y-3.3437
X11.2913Y-3.3437
X11.5339Y-6.3189
X11.5378Y-2.7417
X11.5378Y-2.8417
X11.5378Y-2.9417
X11.5378Y-3.0417
X11.5378Y-3.1417
X11.6339Y-6.3189
X11.8894Y-3.4953
X12.185Y-2.7537
X12.185Y-2.8537
X12.185Y-2.9537
X12.185Y-3.0537
X12.4213Y-2.7537
X12.4213Y-2.8537
X12.4213Y-2.9537
X12.4213Y-3.0537
T6
X5.763Y-1.6776
X6.8567Y-1.4972
X6.8567Y-1.6776
T7
X4.1728Y-1.6929
X4.4488Y-1.6929
X7.4797Y-1.8
X7.5335Y-1.689
X7.5888Y-1.8
X7.6425Y-1.689
X7.6978Y-1.8
X7.7516Y-1.689
X7.8069Y-1.8
X7.8606Y-1.689
X7.9159Y-1.8
X7.9697Y-1.689
X8.025Y-1.8
X8.0787Y-1.689
X8.1341Y-1.8
X8.1878Y-1.689
X8.2431Y-1.8
X8.2969Y-1.689
X8.3522Y-1.8
X8.4059Y-1.689
X8.4612Y-1.8
X8.515Y-1.689
X8.5703Y-1.8
X8.624Y-1.689
X8.6793Y-1.8
X8.7331Y-1.689
X8.7884Y-1.8
X9.874Y-1.8
X9.9278Y-1.689
X9.9831Y-1.8
X10.0368Y-1.689
X10.0921Y-1.8
X10.1459Y-1.689
X10.2012Y-1.8
X10.2549Y-1.689
X10.3102Y-1.8
X10.364Y-1.689
X10.4193Y-1.8
X10.473Y-1.689
X10.5283Y-1.8
X10.5821Y-1.689
X10.6374Y-1.8
X10.6911Y-1.689
X10.7465Y-1.8
X10.8002Y-1.689
X10.8555Y-1.8
X10.9093Y-1.689
X10.9646Y-1.8
X11.0183Y-1.689
X11.0736Y-1.8
X11.1274Y-1.689
X11.1827Y-1.8
T8
X11.8535Y-1.7994
X11.952Y-1.4054
X11.952Y-1.8974
X12.0506Y-1.4054
X12.149Y-1.7994
X12.151Y-1.4054
X12.2474Y-1.4054
X12.3461Y-1.4054
X12.3461Y-1.8974
X12.4445Y-1.7994
T9
X4.2124Y-1.9756
X4.4124Y-1.9756
X4.9732Y-1.705
X5.1291Y-1.705
X5.285Y-1.705
X5.4409Y-1.705
X5.9626Y-2.0323
X6.2626Y-2.0323
X6.463Y-2.0327
X6.663Y-2.0327
M30
