%TF.GenerationSoftware,KiCad,Pcbnew,8.0.1*%
%TF.CreationDate,2024-04-12T12:19:04+01:00*%
%TF.ProjectId,TIM-011B,54494d2d-3031-4314-922e-6b696361645f,rev?*%
%TF.SameCoordinates,Original*%
%TF.FileFunction,Profile,NP*%
%FSLAX46Y46*%
G04 Gerber Fmt 4.6, Leading zero omitted, Abs format (unit mm)*
G04 Created by KiCad (PCBNEW 8.0.1) date 2024-04-12 12:19:04*
%MOMM*%
%LPD*%
G01*
G04 APERTURE LIST*
%TA.AperFunction,Profile*%
%ADD10C,0.050000*%
%TD*%
G04 APERTURE END LIST*
D10*
X324420000Y-33890000D02*
X324420000Y-236830000D01*
X91629999Y-33889999D02*
G75*
G02*
X92269999Y-33249999I640001J-1D01*
G01*
X323780000Y-237470000D02*
X92272548Y-237467452D01*
X92269999Y-33249999D02*
X323780000Y-33250000D01*
X324420000Y-236830000D02*
G75*
G02*
X323780000Y-237470000I-640000J0D01*
G01*
X323780000Y-33250000D02*
G75*
G02*
X324420000Y-33890000I0J-640000D01*
G01*
X231425076Y-44190000D02*
G75*
G02*
X228225076Y-44190000I-1600000J0D01*
G01*
X228225076Y-44190000D02*
G75*
G02*
X231425076Y-44190000I1600000J0D01*
G01*
X292355076Y-44190000D02*
G75*
G02*
X289155076Y-44190000I-1600000J0D01*
G01*
X289155076Y-44190000D02*
G75*
G02*
X292355076Y-44190000I1600000J0D01*
G01*
X245405076Y-44190000D02*
G75*
G02*
X242205076Y-44190000I-1600000J0D01*
G01*
X242205076Y-44190000D02*
G75*
G02*
X245405076Y-44190000I1600000J0D01*
G01*
X92272548Y-237467452D02*
G75*
G02*
X91632548Y-236827452I-48J639952D01*
G01*
X91632548Y-236827452D02*
X91629999Y-33889999D01*
X184765076Y-44190000D02*
G75*
G02*
X181565076Y-44190000I-1600000J0D01*
G01*
X181565076Y-44190000D02*
G75*
G02*
X184765076Y-44190000I1600000J0D01*
G01*
%TO.C,T1*%
X103565000Y-42690000D02*
G75*
G02*
X100565000Y-42690000I-1500000J0D01*
G01*
X100565000Y-42690000D02*
G75*
G02*
X103565000Y-42690000I1500000J0D01*
G01*
X118635000Y-42690000D02*
G75*
G02*
X115635000Y-42690000I-1500000J0D01*
G01*
X115635000Y-42690000D02*
G75*
G02*
X118635000Y-42690000I1500000J0D01*
G01*
%TD*%
M02*
