%TF.GenerationSoftware,KiCad,Pcbnew,8.0.1*%
%TF.CreationDate,2024-05-13T00:47:24+01:00*%
%TF.ProjectId,TIMPS2Key,54494d50-5332-44b6-9579-2e6b69636164,rev?*%
%TF.SameCoordinates,Original*%
%TF.FileFunction,Legend,Top*%
%TF.FilePolarity,Positive*%
%FSLAX46Y46*%
G04 Gerber Fmt 4.6, Leading zero omitted, Abs format (unit mm)*
G04 Created by KiCad (PCBNEW 8.0.1) date 2024-05-13 00:47:24*
%MOMM*%
%LPD*%
G01*
G04 APERTURE LIST*
%ADD10C,0.100000*%
%ADD11C,0.150000*%
%ADD12C,0.120000*%
%ADD13C,0.000000*%
%ADD14C,0.127000*%
G04 APERTURE END LIST*
D10*
X155541979Y-72728030D02*
X155999122Y-72728030D01*
X155770550Y-73528030D02*
X155770550Y-72728030D01*
X156265789Y-73528030D02*
X156265789Y-72728030D01*
X156646741Y-73528030D02*
X156646741Y-72728030D01*
X156646741Y-72728030D02*
X156913407Y-73299458D01*
X156913407Y-73299458D02*
X157180074Y-72728030D01*
X157180074Y-72728030D02*
X157180074Y-73528030D01*
X157561027Y-73223268D02*
X158170551Y-73223268D01*
X158703884Y-72728030D02*
X158780074Y-72728030D01*
X158780074Y-72728030D02*
X158856265Y-72766125D01*
X158856265Y-72766125D02*
X158894360Y-72804220D01*
X158894360Y-72804220D02*
X158932455Y-72880411D01*
X158932455Y-72880411D02*
X158970550Y-73032792D01*
X158970550Y-73032792D02*
X158970550Y-73223268D01*
X158970550Y-73223268D02*
X158932455Y-73375649D01*
X158932455Y-73375649D02*
X158894360Y-73451839D01*
X158894360Y-73451839D02*
X158856265Y-73489935D01*
X158856265Y-73489935D02*
X158780074Y-73528030D01*
X158780074Y-73528030D02*
X158703884Y-73528030D01*
X158703884Y-73528030D02*
X158627693Y-73489935D01*
X158627693Y-73489935D02*
X158589598Y-73451839D01*
X158589598Y-73451839D02*
X158551503Y-73375649D01*
X158551503Y-73375649D02*
X158513407Y-73223268D01*
X158513407Y-73223268D02*
X158513407Y-73032792D01*
X158513407Y-73032792D02*
X158551503Y-72880411D01*
X158551503Y-72880411D02*
X158589598Y-72804220D01*
X158589598Y-72804220D02*
X158627693Y-72766125D01*
X158627693Y-72766125D02*
X158703884Y-72728030D01*
X159732455Y-73528030D02*
X159275312Y-73528030D01*
X159503884Y-73528030D02*
X159503884Y-72728030D01*
X159503884Y-72728030D02*
X159427693Y-72842315D01*
X159427693Y-72842315D02*
X159351503Y-72918506D01*
X159351503Y-72918506D02*
X159275312Y-72956601D01*
X160494360Y-73528030D02*
X160037217Y-73528030D01*
X160265789Y-73528030D02*
X160265789Y-72728030D01*
X160265789Y-72728030D02*
X160189598Y-72842315D01*
X160189598Y-72842315D02*
X160113408Y-72918506D01*
X160113408Y-72918506D02*
X160037217Y-72956601D01*
X161408646Y-73489935D02*
X161522932Y-73528030D01*
X161522932Y-73528030D02*
X161713408Y-73528030D01*
X161713408Y-73528030D02*
X161789599Y-73489935D01*
X161789599Y-73489935D02*
X161827694Y-73451839D01*
X161827694Y-73451839D02*
X161865789Y-73375649D01*
X161865789Y-73375649D02*
X161865789Y-73299458D01*
X161865789Y-73299458D02*
X161827694Y-73223268D01*
X161827694Y-73223268D02*
X161789599Y-73185173D01*
X161789599Y-73185173D02*
X161713408Y-73147077D01*
X161713408Y-73147077D02*
X161561027Y-73108982D01*
X161561027Y-73108982D02*
X161484837Y-73070887D01*
X161484837Y-73070887D02*
X161446742Y-73032792D01*
X161446742Y-73032792D02*
X161408646Y-72956601D01*
X161408646Y-72956601D02*
X161408646Y-72880411D01*
X161408646Y-72880411D02*
X161446742Y-72804220D01*
X161446742Y-72804220D02*
X161484837Y-72766125D01*
X161484837Y-72766125D02*
X161561027Y-72728030D01*
X161561027Y-72728030D02*
X161751504Y-72728030D01*
X161751504Y-72728030D02*
X161865789Y-72766125D01*
X162513409Y-73489935D02*
X162437218Y-73528030D01*
X162437218Y-73528030D02*
X162284837Y-73528030D01*
X162284837Y-73528030D02*
X162208647Y-73489935D01*
X162208647Y-73489935D02*
X162170551Y-73413744D01*
X162170551Y-73413744D02*
X162170551Y-73108982D01*
X162170551Y-73108982D02*
X162208647Y-73032792D01*
X162208647Y-73032792D02*
X162284837Y-72994696D01*
X162284837Y-72994696D02*
X162437218Y-72994696D01*
X162437218Y-72994696D02*
X162513409Y-73032792D01*
X162513409Y-73032792D02*
X162551504Y-73108982D01*
X162551504Y-73108982D02*
X162551504Y-73185173D01*
X162551504Y-73185173D02*
X162170551Y-73261363D01*
X162894361Y-73528030D02*
X162894361Y-72994696D01*
X162894361Y-73147077D02*
X162932456Y-73070887D01*
X162932456Y-73070887D02*
X162970551Y-73032792D01*
X162970551Y-73032792D02*
X163046742Y-72994696D01*
X163046742Y-72994696D02*
X163122932Y-72994696D01*
X163389599Y-73528030D02*
X163389599Y-72994696D01*
X163389599Y-72728030D02*
X163351503Y-72766125D01*
X163351503Y-72766125D02*
X163389599Y-72804220D01*
X163389599Y-72804220D02*
X163427694Y-72766125D01*
X163427694Y-72766125D02*
X163389599Y-72728030D01*
X163389599Y-72728030D02*
X163389599Y-72804220D01*
X164113408Y-73528030D02*
X164113408Y-73108982D01*
X164113408Y-73108982D02*
X164075313Y-73032792D01*
X164075313Y-73032792D02*
X163999122Y-72994696D01*
X163999122Y-72994696D02*
X163846741Y-72994696D01*
X163846741Y-72994696D02*
X163770551Y-73032792D01*
X164113408Y-73489935D02*
X164037217Y-73528030D01*
X164037217Y-73528030D02*
X163846741Y-73528030D01*
X163846741Y-73528030D02*
X163770551Y-73489935D01*
X163770551Y-73489935D02*
X163732455Y-73413744D01*
X163732455Y-73413744D02*
X163732455Y-73337554D01*
X163732455Y-73337554D02*
X163770551Y-73261363D01*
X163770551Y-73261363D02*
X163846741Y-73223268D01*
X163846741Y-73223268D02*
X164037217Y-73223268D01*
X164037217Y-73223268D02*
X164113408Y-73185173D01*
X164608646Y-73528030D02*
X164532456Y-73489935D01*
X164532456Y-73489935D02*
X164494361Y-73413744D01*
X164494361Y-73413744D02*
X164494361Y-72728030D01*
X155656265Y-74815985D02*
X155656265Y-74015985D01*
X155656265Y-74015985D02*
X155961027Y-74015985D01*
X155961027Y-74015985D02*
X156037217Y-74054080D01*
X156037217Y-74054080D02*
X156075312Y-74092175D01*
X156075312Y-74092175D02*
X156113408Y-74168366D01*
X156113408Y-74168366D02*
X156113408Y-74282651D01*
X156113408Y-74282651D02*
X156075312Y-74358842D01*
X156075312Y-74358842D02*
X156037217Y-74396937D01*
X156037217Y-74396937D02*
X155961027Y-74435032D01*
X155961027Y-74435032D02*
X155656265Y-74435032D01*
X156418169Y-74777890D02*
X156532455Y-74815985D01*
X156532455Y-74815985D02*
X156722931Y-74815985D01*
X156722931Y-74815985D02*
X156799122Y-74777890D01*
X156799122Y-74777890D02*
X156837217Y-74739794D01*
X156837217Y-74739794D02*
X156875312Y-74663604D01*
X156875312Y-74663604D02*
X156875312Y-74587413D01*
X156875312Y-74587413D02*
X156837217Y-74511223D01*
X156837217Y-74511223D02*
X156799122Y-74473128D01*
X156799122Y-74473128D02*
X156722931Y-74435032D01*
X156722931Y-74435032D02*
X156570550Y-74396937D01*
X156570550Y-74396937D02*
X156494360Y-74358842D01*
X156494360Y-74358842D02*
X156456265Y-74320747D01*
X156456265Y-74320747D02*
X156418169Y-74244556D01*
X156418169Y-74244556D02*
X156418169Y-74168366D01*
X156418169Y-74168366D02*
X156456265Y-74092175D01*
X156456265Y-74092175D02*
X156494360Y-74054080D01*
X156494360Y-74054080D02*
X156570550Y-74015985D01*
X156570550Y-74015985D02*
X156761027Y-74015985D01*
X156761027Y-74015985D02*
X156875312Y-74054080D01*
X157789598Y-73977890D02*
X157103884Y-75006461D01*
X158018169Y-74092175D02*
X158056265Y-74054080D01*
X158056265Y-74054080D02*
X158132455Y-74015985D01*
X158132455Y-74015985D02*
X158322931Y-74015985D01*
X158322931Y-74015985D02*
X158399122Y-74054080D01*
X158399122Y-74054080D02*
X158437217Y-74092175D01*
X158437217Y-74092175D02*
X158475312Y-74168366D01*
X158475312Y-74168366D02*
X158475312Y-74244556D01*
X158475312Y-74244556D02*
X158437217Y-74358842D01*
X158437217Y-74358842D02*
X157980074Y-74815985D01*
X157980074Y-74815985D02*
X158475312Y-74815985D01*
X159351503Y-74282651D02*
X159541979Y-74815985D01*
X159541979Y-74815985D02*
X159732456Y-74282651D01*
X159999122Y-74092175D02*
X160037218Y-74054080D01*
X160037218Y-74054080D02*
X160113408Y-74015985D01*
X160113408Y-74015985D02*
X160303884Y-74015985D01*
X160303884Y-74015985D02*
X160380075Y-74054080D01*
X160380075Y-74054080D02*
X160418170Y-74092175D01*
X160418170Y-74092175D02*
X160456265Y-74168366D01*
X160456265Y-74168366D02*
X160456265Y-74244556D01*
X160456265Y-74244556D02*
X160418170Y-74358842D01*
X160418170Y-74358842D02*
X159961027Y-74815985D01*
X159961027Y-74815985D02*
X160456265Y-74815985D01*
X156151503Y-75722987D02*
X156113408Y-75684892D01*
X156113408Y-75684892D02*
X156037217Y-75646797D01*
X156037217Y-75646797D02*
X155961027Y-75646797D01*
X155961027Y-75646797D02*
X155884836Y-75684892D01*
X155884836Y-75684892D02*
X155846741Y-75722987D01*
X155846741Y-75722987D02*
X155808646Y-75799178D01*
X155808646Y-75799178D02*
X155808646Y-75875368D01*
X155808646Y-75875368D02*
X155846741Y-75951559D01*
X155846741Y-75951559D02*
X155884836Y-75989654D01*
X155884836Y-75989654D02*
X155961027Y-76027749D01*
X155961027Y-76027749D02*
X156037217Y-76027749D01*
X156037217Y-76027749D02*
X156113408Y-75989654D01*
X156113408Y-75989654D02*
X156151503Y-75951559D01*
X156151503Y-75646797D02*
X156151503Y-75951559D01*
X156151503Y-75951559D02*
X156189598Y-75989654D01*
X156189598Y-75989654D02*
X156227693Y-75989654D01*
X156227693Y-75989654D02*
X156303884Y-75951559D01*
X156303884Y-75951559D02*
X156341979Y-75875368D01*
X156341979Y-75875368D02*
X156341979Y-75684892D01*
X156341979Y-75684892D02*
X156265789Y-75570606D01*
X156265789Y-75570606D02*
X156151503Y-75494416D01*
X156151503Y-75494416D02*
X155999122Y-75456321D01*
X155999122Y-75456321D02*
X155846741Y-75494416D01*
X155846741Y-75494416D02*
X155732455Y-75570606D01*
X155732455Y-75570606D02*
X155656265Y-75684892D01*
X155656265Y-75684892D02*
X155618169Y-75837273D01*
X155618169Y-75837273D02*
X155656265Y-75989654D01*
X155656265Y-75989654D02*
X155732455Y-76103940D01*
X155732455Y-76103940D02*
X155846741Y-76180130D01*
X155846741Y-76180130D02*
X155999122Y-76218225D01*
X155999122Y-76218225D02*
X156151503Y-76180130D01*
X156151503Y-76180130D02*
X156265789Y-76103940D01*
X157027693Y-75570606D02*
X157027693Y-76218225D01*
X157027693Y-76218225D02*
X156989598Y-76294416D01*
X156989598Y-76294416D02*
X156951502Y-76332511D01*
X156951502Y-76332511D02*
X156875312Y-76370606D01*
X156875312Y-76370606D02*
X156761026Y-76370606D01*
X156761026Y-76370606D02*
X156684836Y-76332511D01*
X157027693Y-76065845D02*
X156951502Y-76103940D01*
X156951502Y-76103940D02*
X156799121Y-76103940D01*
X156799121Y-76103940D02*
X156722931Y-76065845D01*
X156722931Y-76065845D02*
X156684836Y-76027749D01*
X156684836Y-76027749D02*
X156646740Y-75951559D01*
X156646740Y-75951559D02*
X156646740Y-75722987D01*
X156646740Y-75722987D02*
X156684836Y-75646797D01*
X156684836Y-75646797D02*
X156722931Y-75608702D01*
X156722931Y-75608702D02*
X156799121Y-75570606D01*
X156799121Y-75570606D02*
X156951502Y-75570606D01*
X156951502Y-75570606D02*
X157027693Y-75608702D01*
X157408646Y-76103940D02*
X157408646Y-75570606D01*
X157408646Y-75722987D02*
X157446741Y-75646797D01*
X157446741Y-75646797D02*
X157484836Y-75608702D01*
X157484836Y-75608702D02*
X157561027Y-75570606D01*
X157561027Y-75570606D02*
X157637217Y-75570606D01*
X158246741Y-76103940D02*
X158246741Y-75684892D01*
X158246741Y-75684892D02*
X158208646Y-75608702D01*
X158208646Y-75608702D02*
X158132455Y-75570606D01*
X158132455Y-75570606D02*
X157980074Y-75570606D01*
X157980074Y-75570606D02*
X157903884Y-75608702D01*
X158246741Y-76065845D02*
X158170550Y-76103940D01*
X158170550Y-76103940D02*
X157980074Y-76103940D01*
X157980074Y-76103940D02*
X157903884Y-76065845D01*
X157903884Y-76065845D02*
X157865788Y-75989654D01*
X157865788Y-75989654D02*
X157865788Y-75913464D01*
X157865788Y-75913464D02*
X157903884Y-75837273D01*
X157903884Y-75837273D02*
X157980074Y-75799178D01*
X157980074Y-75799178D02*
X158170550Y-75799178D01*
X158170550Y-75799178D02*
X158246741Y-75761083D01*
X158627694Y-75570606D02*
X158627694Y-76103940D01*
X158627694Y-75646797D02*
X158665789Y-75608702D01*
X158665789Y-75608702D02*
X158741979Y-75570606D01*
X158741979Y-75570606D02*
X158856265Y-75570606D01*
X158856265Y-75570606D02*
X158932456Y-75608702D01*
X158932456Y-75608702D02*
X158970551Y-75684892D01*
X158970551Y-75684892D02*
X158970551Y-76103940D01*
X159694361Y-76103940D02*
X159694361Y-75303940D01*
X159694361Y-76065845D02*
X159618170Y-76103940D01*
X159618170Y-76103940D02*
X159465789Y-76103940D01*
X159465789Y-76103940D02*
X159389599Y-76065845D01*
X159389599Y-76065845D02*
X159351504Y-76027749D01*
X159351504Y-76027749D02*
X159313408Y-75951559D01*
X159313408Y-75951559D02*
X159313408Y-75722987D01*
X159313408Y-75722987D02*
X159351504Y-75646797D01*
X159351504Y-75646797D02*
X159389599Y-75608702D01*
X159389599Y-75608702D02*
X159465789Y-75570606D01*
X159465789Y-75570606D02*
X159618170Y-75570606D01*
X159618170Y-75570606D02*
X159694361Y-75608702D01*
X160189599Y-76103940D02*
X160113409Y-76065845D01*
X160113409Y-76065845D02*
X160075314Y-76027749D01*
X160075314Y-76027749D02*
X160037218Y-75951559D01*
X160037218Y-75951559D02*
X160037218Y-75722987D01*
X160037218Y-75722987D02*
X160075314Y-75646797D01*
X160075314Y-75646797D02*
X160113409Y-75608702D01*
X160113409Y-75608702D02*
X160189599Y-75570606D01*
X160189599Y-75570606D02*
X160303885Y-75570606D01*
X160303885Y-75570606D02*
X160380076Y-75608702D01*
X160380076Y-75608702D02*
X160418171Y-75646797D01*
X160418171Y-75646797D02*
X160456266Y-75722987D01*
X160456266Y-75722987D02*
X160456266Y-75951559D01*
X160456266Y-75951559D02*
X160418171Y-76027749D01*
X160418171Y-76027749D02*
X160380076Y-76065845D01*
X160380076Y-76065845D02*
X160303885Y-76103940D01*
X160303885Y-76103940D02*
X160189599Y-76103940D01*
X160913409Y-76103940D02*
X160837219Y-76065845D01*
X160837219Y-76065845D02*
X160799124Y-75989654D01*
X160799124Y-75989654D02*
X160799124Y-75303940D01*
X161561029Y-76103940D02*
X161561029Y-75303940D01*
X161561029Y-76065845D02*
X161484838Y-76103940D01*
X161484838Y-76103940D02*
X161332457Y-76103940D01*
X161332457Y-76103940D02*
X161256267Y-76065845D01*
X161256267Y-76065845D02*
X161218172Y-76027749D01*
X161218172Y-76027749D02*
X161180076Y-75951559D01*
X161180076Y-75951559D02*
X161180076Y-75722987D01*
X161180076Y-75722987D02*
X161218172Y-75646797D01*
X161218172Y-75646797D02*
X161256267Y-75608702D01*
X161256267Y-75608702D02*
X161332457Y-75570606D01*
X161332457Y-75570606D02*
X161484838Y-75570606D01*
X161484838Y-75570606D02*
X161561029Y-75608702D01*
X161941982Y-76103940D02*
X161941982Y-75570606D01*
X161941982Y-75303940D02*
X161903886Y-75342035D01*
X161903886Y-75342035D02*
X161941982Y-75380130D01*
X161941982Y-75380130D02*
X161980077Y-75342035D01*
X161980077Y-75342035D02*
X161941982Y-75303940D01*
X161941982Y-75303940D02*
X161941982Y-75380130D01*
X162665791Y-76103940D02*
X162665791Y-75684892D01*
X162665791Y-75684892D02*
X162627696Y-75608702D01*
X162627696Y-75608702D02*
X162551505Y-75570606D01*
X162551505Y-75570606D02*
X162399124Y-75570606D01*
X162399124Y-75570606D02*
X162322934Y-75608702D01*
X162665791Y-76065845D02*
X162589600Y-76103940D01*
X162589600Y-76103940D02*
X162399124Y-76103940D01*
X162399124Y-76103940D02*
X162322934Y-76065845D01*
X162322934Y-76065845D02*
X162284838Y-75989654D01*
X162284838Y-75989654D02*
X162284838Y-75913464D01*
X162284838Y-75913464D02*
X162322934Y-75837273D01*
X162322934Y-75837273D02*
X162399124Y-75799178D01*
X162399124Y-75799178D02*
X162589600Y-75799178D01*
X162589600Y-75799178D02*
X162665791Y-75761083D01*
X163046744Y-75570606D02*
X163046744Y-76103940D01*
X163046744Y-75646797D02*
X163084839Y-75608702D01*
X163084839Y-75608702D02*
X163161029Y-75570606D01*
X163161029Y-75570606D02*
X163275315Y-75570606D01*
X163275315Y-75570606D02*
X163351506Y-75608702D01*
X163351506Y-75608702D02*
X163389601Y-75684892D01*
X163389601Y-75684892D02*
X163389601Y-76103940D01*
X155808646Y-76591895D02*
X155884836Y-76591895D01*
X155884836Y-76591895D02*
X155961027Y-76629990D01*
X155961027Y-76629990D02*
X155999122Y-76668085D01*
X155999122Y-76668085D02*
X156037217Y-76744276D01*
X156037217Y-76744276D02*
X156075312Y-76896657D01*
X156075312Y-76896657D02*
X156075312Y-77087133D01*
X156075312Y-77087133D02*
X156037217Y-77239514D01*
X156037217Y-77239514D02*
X155999122Y-77315704D01*
X155999122Y-77315704D02*
X155961027Y-77353800D01*
X155961027Y-77353800D02*
X155884836Y-77391895D01*
X155884836Y-77391895D02*
X155808646Y-77391895D01*
X155808646Y-77391895D02*
X155732455Y-77353800D01*
X155732455Y-77353800D02*
X155694360Y-77315704D01*
X155694360Y-77315704D02*
X155656265Y-77239514D01*
X155656265Y-77239514D02*
X155618169Y-77087133D01*
X155618169Y-77087133D02*
X155618169Y-76896657D01*
X155618169Y-76896657D02*
X155656265Y-76744276D01*
X155656265Y-76744276D02*
X155694360Y-76668085D01*
X155694360Y-76668085D02*
X155732455Y-76629990D01*
X155732455Y-76629990D02*
X155808646Y-76591895D01*
X156799122Y-76591895D02*
X156418170Y-76591895D01*
X156418170Y-76591895D02*
X156380074Y-76972847D01*
X156380074Y-76972847D02*
X156418170Y-76934752D01*
X156418170Y-76934752D02*
X156494360Y-76896657D01*
X156494360Y-76896657D02*
X156684836Y-76896657D01*
X156684836Y-76896657D02*
X156761027Y-76934752D01*
X156761027Y-76934752D02*
X156799122Y-76972847D01*
X156799122Y-76972847D02*
X156837217Y-77049038D01*
X156837217Y-77049038D02*
X156837217Y-77239514D01*
X156837217Y-77239514D02*
X156799122Y-77315704D01*
X156799122Y-77315704D02*
X156761027Y-77353800D01*
X156761027Y-77353800D02*
X156684836Y-77391895D01*
X156684836Y-77391895D02*
X156494360Y-77391895D01*
X156494360Y-77391895D02*
X156418170Y-77353800D01*
X156418170Y-77353800D02*
X156380074Y-77315704D01*
X157751503Y-76553800D02*
X157065789Y-77582371D01*
X157980074Y-76668085D02*
X158018170Y-76629990D01*
X158018170Y-76629990D02*
X158094360Y-76591895D01*
X158094360Y-76591895D02*
X158284836Y-76591895D01*
X158284836Y-76591895D02*
X158361027Y-76629990D01*
X158361027Y-76629990D02*
X158399122Y-76668085D01*
X158399122Y-76668085D02*
X158437217Y-76744276D01*
X158437217Y-76744276D02*
X158437217Y-76820466D01*
X158437217Y-76820466D02*
X158399122Y-76934752D01*
X158399122Y-76934752D02*
X157941979Y-77391895D01*
X157941979Y-77391895D02*
X158437217Y-77391895D01*
X158932456Y-76591895D02*
X159008646Y-76591895D01*
X159008646Y-76591895D02*
X159084837Y-76629990D01*
X159084837Y-76629990D02*
X159122932Y-76668085D01*
X159122932Y-76668085D02*
X159161027Y-76744276D01*
X159161027Y-76744276D02*
X159199122Y-76896657D01*
X159199122Y-76896657D02*
X159199122Y-77087133D01*
X159199122Y-77087133D02*
X159161027Y-77239514D01*
X159161027Y-77239514D02*
X159122932Y-77315704D01*
X159122932Y-77315704D02*
X159084837Y-77353800D01*
X159084837Y-77353800D02*
X159008646Y-77391895D01*
X159008646Y-77391895D02*
X158932456Y-77391895D01*
X158932456Y-77391895D02*
X158856265Y-77353800D01*
X158856265Y-77353800D02*
X158818170Y-77315704D01*
X158818170Y-77315704D02*
X158780075Y-77239514D01*
X158780075Y-77239514D02*
X158741979Y-77087133D01*
X158741979Y-77087133D02*
X158741979Y-76896657D01*
X158741979Y-76896657D02*
X158780075Y-76744276D01*
X158780075Y-76744276D02*
X158818170Y-76668085D01*
X158818170Y-76668085D02*
X158856265Y-76629990D01*
X158856265Y-76629990D02*
X158932456Y-76591895D01*
X159503884Y-76668085D02*
X159541980Y-76629990D01*
X159541980Y-76629990D02*
X159618170Y-76591895D01*
X159618170Y-76591895D02*
X159808646Y-76591895D01*
X159808646Y-76591895D02*
X159884837Y-76629990D01*
X159884837Y-76629990D02*
X159922932Y-76668085D01*
X159922932Y-76668085D02*
X159961027Y-76744276D01*
X159961027Y-76744276D02*
X159961027Y-76820466D01*
X159961027Y-76820466D02*
X159922932Y-76934752D01*
X159922932Y-76934752D02*
X159465789Y-77391895D01*
X159465789Y-77391895D02*
X159961027Y-77391895D01*
X160646742Y-76858561D02*
X160646742Y-77391895D01*
X160456266Y-76553800D02*
X160265789Y-77125228D01*
X160265789Y-77125228D02*
X160761028Y-77125228D01*
D11*
X154609580Y-54916666D02*
X154657200Y-54964285D01*
X154657200Y-54964285D02*
X154704819Y-55107142D01*
X154704819Y-55107142D02*
X154704819Y-55202380D01*
X154704819Y-55202380D02*
X154657200Y-55345237D01*
X154657200Y-55345237D02*
X154561961Y-55440475D01*
X154561961Y-55440475D02*
X154466723Y-55488094D01*
X154466723Y-55488094D02*
X154276247Y-55535713D01*
X154276247Y-55535713D02*
X154133390Y-55535713D01*
X154133390Y-55535713D02*
X153942914Y-55488094D01*
X153942914Y-55488094D02*
X153847676Y-55440475D01*
X153847676Y-55440475D02*
X153752438Y-55345237D01*
X153752438Y-55345237D02*
X153704819Y-55202380D01*
X153704819Y-55202380D02*
X153704819Y-55107142D01*
X153704819Y-55107142D02*
X153752438Y-54964285D01*
X153752438Y-54964285D02*
X153800057Y-54916666D01*
X154133390Y-54345237D02*
X154085771Y-54440475D01*
X154085771Y-54440475D02*
X154038152Y-54488094D01*
X154038152Y-54488094D02*
X153942914Y-54535713D01*
X153942914Y-54535713D02*
X153895295Y-54535713D01*
X153895295Y-54535713D02*
X153800057Y-54488094D01*
X153800057Y-54488094D02*
X153752438Y-54440475D01*
X153752438Y-54440475D02*
X153704819Y-54345237D01*
X153704819Y-54345237D02*
X153704819Y-54154761D01*
X153704819Y-54154761D02*
X153752438Y-54059523D01*
X153752438Y-54059523D02*
X153800057Y-54011904D01*
X153800057Y-54011904D02*
X153895295Y-53964285D01*
X153895295Y-53964285D02*
X153942914Y-53964285D01*
X153942914Y-53964285D02*
X154038152Y-54011904D01*
X154038152Y-54011904D02*
X154085771Y-54059523D01*
X154085771Y-54059523D02*
X154133390Y-54154761D01*
X154133390Y-54154761D02*
X154133390Y-54345237D01*
X154133390Y-54345237D02*
X154181009Y-54440475D01*
X154181009Y-54440475D02*
X154228628Y-54488094D01*
X154228628Y-54488094D02*
X154323866Y-54535713D01*
X154323866Y-54535713D02*
X154514342Y-54535713D01*
X154514342Y-54535713D02*
X154609580Y-54488094D01*
X154609580Y-54488094D02*
X154657200Y-54440475D01*
X154657200Y-54440475D02*
X154704819Y-54345237D01*
X154704819Y-54345237D02*
X154704819Y-54154761D01*
X154704819Y-54154761D02*
X154657200Y-54059523D01*
X154657200Y-54059523D02*
X154609580Y-54011904D01*
X154609580Y-54011904D02*
X154514342Y-53964285D01*
X154514342Y-53964285D02*
X154323866Y-53964285D01*
X154323866Y-53964285D02*
X154228628Y-54011904D01*
X154228628Y-54011904D02*
X154181009Y-54059523D01*
X154181009Y-54059523D02*
X154133390Y-54154761D01*
X148554819Y-54885238D02*
X148554819Y-55456666D01*
X148554819Y-55170952D02*
X147554819Y-55170952D01*
X147554819Y-55170952D02*
X147697676Y-55266190D01*
X147697676Y-55266190D02*
X147792914Y-55361428D01*
X147792914Y-55361428D02*
X147840533Y-55456666D01*
X147888152Y-54028095D02*
X148554819Y-54028095D01*
X147888152Y-54456666D02*
X148411961Y-54456666D01*
X148411961Y-54456666D02*
X148507200Y-54409047D01*
X148507200Y-54409047D02*
X148554819Y-54313809D01*
X148554819Y-54313809D02*
X148554819Y-54170952D01*
X148554819Y-54170952D02*
X148507200Y-54075714D01*
X148507200Y-54075714D02*
X148459580Y-54028095D01*
X148031009Y-53218571D02*
X148031009Y-53551904D01*
X148554819Y-53551904D02*
X147554819Y-53551904D01*
X147554819Y-53551904D02*
X147554819Y-53075714D01*
X95904819Y-66621428D02*
X94904819Y-66621428D01*
X94904819Y-66621428D02*
X94904819Y-66383333D01*
X94904819Y-66383333D02*
X94952438Y-66240476D01*
X94952438Y-66240476D02*
X95047676Y-66145238D01*
X95047676Y-66145238D02*
X95142914Y-66097619D01*
X95142914Y-66097619D02*
X95333390Y-66050000D01*
X95333390Y-66050000D02*
X95476247Y-66050000D01*
X95476247Y-66050000D02*
X95666723Y-66097619D01*
X95666723Y-66097619D02*
X95761961Y-66145238D01*
X95761961Y-66145238D02*
X95857200Y-66240476D01*
X95857200Y-66240476D02*
X95904819Y-66383333D01*
X95904819Y-66383333D02*
X95904819Y-66621428D01*
X95904819Y-65621428D02*
X94904819Y-65621428D01*
X95904819Y-65145238D02*
X94904819Y-65145238D01*
X94904819Y-65145238D02*
X95904819Y-64573810D01*
X95904819Y-64573810D02*
X94904819Y-64573810D01*
X95857200Y-63383333D02*
X95904819Y-63240476D01*
X95904819Y-63240476D02*
X95904819Y-63002381D01*
X95904819Y-63002381D02*
X95857200Y-62907143D01*
X95857200Y-62907143D02*
X95809580Y-62859524D01*
X95809580Y-62859524D02*
X95714342Y-62811905D01*
X95714342Y-62811905D02*
X95619104Y-62811905D01*
X95619104Y-62811905D02*
X95523866Y-62859524D01*
X95523866Y-62859524D02*
X95476247Y-62907143D01*
X95476247Y-62907143D02*
X95428628Y-63002381D01*
X95428628Y-63002381D02*
X95381009Y-63192857D01*
X95381009Y-63192857D02*
X95333390Y-63288095D01*
X95333390Y-63288095D02*
X95285771Y-63335714D01*
X95285771Y-63335714D02*
X95190533Y-63383333D01*
X95190533Y-63383333D02*
X95095295Y-63383333D01*
X95095295Y-63383333D02*
X95000057Y-63335714D01*
X95000057Y-63335714D02*
X94952438Y-63288095D01*
X94952438Y-63288095D02*
X94904819Y-63192857D01*
X94904819Y-63192857D02*
X94904819Y-62954762D01*
X94904819Y-62954762D02*
X94952438Y-62811905D01*
X95857200Y-62002381D02*
X95904819Y-62097619D01*
X95904819Y-62097619D02*
X95904819Y-62288095D01*
X95904819Y-62288095D02*
X95857200Y-62383333D01*
X95857200Y-62383333D02*
X95761961Y-62430952D01*
X95761961Y-62430952D02*
X95381009Y-62430952D01*
X95381009Y-62430952D02*
X95285771Y-62383333D01*
X95285771Y-62383333D02*
X95238152Y-62288095D01*
X95238152Y-62288095D02*
X95238152Y-62097619D01*
X95238152Y-62097619D02*
X95285771Y-62002381D01*
X95285771Y-62002381D02*
X95381009Y-61954762D01*
X95381009Y-61954762D02*
X95476247Y-61954762D01*
X95476247Y-61954762D02*
X95571485Y-62430952D01*
X95904819Y-61526190D02*
X95238152Y-61526190D01*
X95428628Y-61526190D02*
X95333390Y-61478571D01*
X95333390Y-61478571D02*
X95285771Y-61430952D01*
X95285771Y-61430952D02*
X95238152Y-61335714D01*
X95238152Y-61335714D02*
X95238152Y-61240476D01*
X95904819Y-60907142D02*
X95238152Y-60907142D01*
X94904819Y-60907142D02*
X94952438Y-60954761D01*
X94952438Y-60954761D02*
X95000057Y-60907142D01*
X95000057Y-60907142D02*
X94952438Y-60859523D01*
X94952438Y-60859523D02*
X94904819Y-60907142D01*
X94904819Y-60907142D02*
X95000057Y-60907142D01*
X95904819Y-60002381D02*
X95381009Y-60002381D01*
X95381009Y-60002381D02*
X95285771Y-60050000D01*
X95285771Y-60050000D02*
X95238152Y-60145238D01*
X95238152Y-60145238D02*
X95238152Y-60335714D01*
X95238152Y-60335714D02*
X95285771Y-60430952D01*
X95857200Y-60002381D02*
X95904819Y-60097619D01*
X95904819Y-60097619D02*
X95904819Y-60335714D01*
X95904819Y-60335714D02*
X95857200Y-60430952D01*
X95857200Y-60430952D02*
X95761961Y-60478571D01*
X95761961Y-60478571D02*
X95666723Y-60478571D01*
X95666723Y-60478571D02*
X95571485Y-60430952D01*
X95571485Y-60430952D02*
X95523866Y-60335714D01*
X95523866Y-60335714D02*
X95523866Y-60097619D01*
X95523866Y-60097619D02*
X95476247Y-60002381D01*
X95904819Y-59383333D02*
X95857200Y-59478571D01*
X95857200Y-59478571D02*
X95761961Y-59526190D01*
X95761961Y-59526190D02*
X94904819Y-59526190D01*
X167561905Y-54259819D02*
X167561905Y-53259819D01*
X167561905Y-53259819D02*
X167942857Y-53259819D01*
X167942857Y-53259819D02*
X168038095Y-53307438D01*
X168038095Y-53307438D02*
X168085714Y-53355057D01*
X168085714Y-53355057D02*
X168133333Y-53450295D01*
X168133333Y-53450295D02*
X168133333Y-53593152D01*
X168133333Y-53593152D02*
X168085714Y-53688390D01*
X168085714Y-53688390D02*
X168038095Y-53736009D01*
X168038095Y-53736009D02*
X167942857Y-53783628D01*
X167942857Y-53783628D02*
X167561905Y-53783628D01*
X168514286Y-54212200D02*
X168657143Y-54259819D01*
X168657143Y-54259819D02*
X168895238Y-54259819D01*
X168895238Y-54259819D02*
X168990476Y-54212200D01*
X168990476Y-54212200D02*
X169038095Y-54164580D01*
X169038095Y-54164580D02*
X169085714Y-54069342D01*
X169085714Y-54069342D02*
X169085714Y-53974104D01*
X169085714Y-53974104D02*
X169038095Y-53878866D01*
X169038095Y-53878866D02*
X168990476Y-53831247D01*
X168990476Y-53831247D02*
X168895238Y-53783628D01*
X168895238Y-53783628D02*
X168704762Y-53736009D01*
X168704762Y-53736009D02*
X168609524Y-53688390D01*
X168609524Y-53688390D02*
X168561905Y-53640771D01*
X168561905Y-53640771D02*
X168514286Y-53545533D01*
X168514286Y-53545533D02*
X168514286Y-53450295D01*
X168514286Y-53450295D02*
X168561905Y-53355057D01*
X168561905Y-53355057D02*
X168609524Y-53307438D01*
X168609524Y-53307438D02*
X168704762Y-53259819D01*
X168704762Y-53259819D02*
X168942857Y-53259819D01*
X168942857Y-53259819D02*
X169085714Y-53307438D01*
X170228571Y-53212200D02*
X169371429Y-54497914D01*
X170514286Y-53355057D02*
X170561905Y-53307438D01*
X170561905Y-53307438D02*
X170657143Y-53259819D01*
X170657143Y-53259819D02*
X170895238Y-53259819D01*
X170895238Y-53259819D02*
X170990476Y-53307438D01*
X170990476Y-53307438D02*
X171038095Y-53355057D01*
X171038095Y-53355057D02*
X171085714Y-53450295D01*
X171085714Y-53450295D02*
X171085714Y-53545533D01*
X171085714Y-53545533D02*
X171038095Y-53688390D01*
X171038095Y-53688390D02*
X170466667Y-54259819D01*
X170466667Y-54259819D02*
X171085714Y-54259819D01*
X102323333Y-55804819D02*
X101990000Y-55328628D01*
X101751905Y-55804819D02*
X101751905Y-54804819D01*
X101751905Y-54804819D02*
X102132857Y-54804819D01*
X102132857Y-54804819D02*
X102228095Y-54852438D01*
X102228095Y-54852438D02*
X102275714Y-54900057D01*
X102275714Y-54900057D02*
X102323333Y-54995295D01*
X102323333Y-54995295D02*
X102323333Y-55138152D01*
X102323333Y-55138152D02*
X102275714Y-55233390D01*
X102275714Y-55233390D02*
X102228095Y-55281009D01*
X102228095Y-55281009D02*
X102132857Y-55328628D01*
X102132857Y-55328628D02*
X101751905Y-55328628D01*
X102704286Y-54900057D02*
X102751905Y-54852438D01*
X102751905Y-54852438D02*
X102847143Y-54804819D01*
X102847143Y-54804819D02*
X103085238Y-54804819D01*
X103085238Y-54804819D02*
X103180476Y-54852438D01*
X103180476Y-54852438D02*
X103228095Y-54900057D01*
X103228095Y-54900057D02*
X103275714Y-54995295D01*
X103275714Y-54995295D02*
X103275714Y-55090533D01*
X103275714Y-55090533D02*
X103228095Y-55233390D01*
X103228095Y-55233390D02*
X102656667Y-55804819D01*
X102656667Y-55804819D02*
X103275714Y-55804819D01*
X101799523Y-57724819D02*
X101228095Y-57724819D01*
X101513809Y-57724819D02*
X101513809Y-56724819D01*
X101513809Y-56724819D02*
X101418571Y-56867676D01*
X101418571Y-56867676D02*
X101323333Y-56962914D01*
X101323333Y-56962914D02*
X101228095Y-57010533D01*
X102418571Y-56724819D02*
X102513809Y-56724819D01*
X102513809Y-56724819D02*
X102609047Y-56772438D01*
X102609047Y-56772438D02*
X102656666Y-56820057D01*
X102656666Y-56820057D02*
X102704285Y-56915295D01*
X102704285Y-56915295D02*
X102751904Y-57105771D01*
X102751904Y-57105771D02*
X102751904Y-57343866D01*
X102751904Y-57343866D02*
X102704285Y-57534342D01*
X102704285Y-57534342D02*
X102656666Y-57629580D01*
X102656666Y-57629580D02*
X102609047Y-57677200D01*
X102609047Y-57677200D02*
X102513809Y-57724819D01*
X102513809Y-57724819D02*
X102418571Y-57724819D01*
X102418571Y-57724819D02*
X102323333Y-57677200D01*
X102323333Y-57677200D02*
X102275714Y-57629580D01*
X102275714Y-57629580D02*
X102228095Y-57534342D01*
X102228095Y-57534342D02*
X102180476Y-57343866D01*
X102180476Y-57343866D02*
X102180476Y-57105771D01*
X102180476Y-57105771D02*
X102228095Y-56915295D01*
X102228095Y-56915295D02*
X102275714Y-56820057D01*
X102275714Y-56820057D02*
X102323333Y-56772438D01*
X102323333Y-56772438D02*
X102418571Y-56724819D01*
X103751904Y-57724819D02*
X103418571Y-57248628D01*
X103180476Y-57724819D02*
X103180476Y-56724819D01*
X103180476Y-56724819D02*
X103561428Y-56724819D01*
X103561428Y-56724819D02*
X103656666Y-56772438D01*
X103656666Y-56772438D02*
X103704285Y-56820057D01*
X103704285Y-56820057D02*
X103751904Y-56915295D01*
X103751904Y-56915295D02*
X103751904Y-57058152D01*
X103751904Y-57058152D02*
X103704285Y-57153390D01*
X103704285Y-57153390D02*
X103656666Y-57201009D01*
X103656666Y-57201009D02*
X103561428Y-57248628D01*
X103561428Y-57248628D02*
X103180476Y-57248628D01*
X151709580Y-73436666D02*
X151757200Y-73484285D01*
X151757200Y-73484285D02*
X151804819Y-73627142D01*
X151804819Y-73627142D02*
X151804819Y-73722380D01*
X151804819Y-73722380D02*
X151757200Y-73865237D01*
X151757200Y-73865237D02*
X151661961Y-73960475D01*
X151661961Y-73960475D02*
X151566723Y-74008094D01*
X151566723Y-74008094D02*
X151376247Y-74055713D01*
X151376247Y-74055713D02*
X151233390Y-74055713D01*
X151233390Y-74055713D02*
X151042914Y-74008094D01*
X151042914Y-74008094D02*
X150947676Y-73960475D01*
X150947676Y-73960475D02*
X150852438Y-73865237D01*
X150852438Y-73865237D02*
X150804819Y-73722380D01*
X150804819Y-73722380D02*
X150804819Y-73627142D01*
X150804819Y-73627142D02*
X150852438Y-73484285D01*
X150852438Y-73484285D02*
X150900057Y-73436666D01*
X150900057Y-73055713D02*
X150852438Y-73008094D01*
X150852438Y-73008094D02*
X150804819Y-72912856D01*
X150804819Y-72912856D02*
X150804819Y-72674761D01*
X150804819Y-72674761D02*
X150852438Y-72579523D01*
X150852438Y-72579523D02*
X150900057Y-72531904D01*
X150900057Y-72531904D02*
X150995295Y-72484285D01*
X150995295Y-72484285D02*
X151090533Y-72484285D01*
X151090533Y-72484285D02*
X151233390Y-72531904D01*
X151233390Y-72531904D02*
X151804819Y-73103332D01*
X151804819Y-73103332D02*
X151804819Y-72484285D01*
X153804819Y-74617619D02*
X153804819Y-75189047D01*
X153804819Y-74903333D02*
X152804819Y-74903333D01*
X152804819Y-74903333D02*
X152947676Y-74998571D01*
X152947676Y-74998571D02*
X153042914Y-75093809D01*
X153042914Y-75093809D02*
X153090533Y-75189047D01*
X152804819Y-73998571D02*
X152804819Y-73903333D01*
X152804819Y-73903333D02*
X152852438Y-73808095D01*
X152852438Y-73808095D02*
X152900057Y-73760476D01*
X152900057Y-73760476D02*
X152995295Y-73712857D01*
X152995295Y-73712857D02*
X153185771Y-73665238D01*
X153185771Y-73665238D02*
X153423866Y-73665238D01*
X153423866Y-73665238D02*
X153614342Y-73712857D01*
X153614342Y-73712857D02*
X153709580Y-73760476D01*
X153709580Y-73760476D02*
X153757200Y-73808095D01*
X153757200Y-73808095D02*
X153804819Y-73903333D01*
X153804819Y-73903333D02*
X153804819Y-73998571D01*
X153804819Y-73998571D02*
X153757200Y-74093809D01*
X153757200Y-74093809D02*
X153709580Y-74141428D01*
X153709580Y-74141428D02*
X153614342Y-74189047D01*
X153614342Y-74189047D02*
X153423866Y-74236666D01*
X153423866Y-74236666D02*
X153185771Y-74236666D01*
X153185771Y-74236666D02*
X152995295Y-74189047D01*
X152995295Y-74189047D02*
X152900057Y-74141428D01*
X152900057Y-74141428D02*
X152852438Y-74093809D01*
X152852438Y-74093809D02*
X152804819Y-73998571D01*
X152804819Y-73046190D02*
X152804819Y-72950952D01*
X152804819Y-72950952D02*
X152852438Y-72855714D01*
X152852438Y-72855714D02*
X152900057Y-72808095D01*
X152900057Y-72808095D02*
X152995295Y-72760476D01*
X152995295Y-72760476D02*
X153185771Y-72712857D01*
X153185771Y-72712857D02*
X153423866Y-72712857D01*
X153423866Y-72712857D02*
X153614342Y-72760476D01*
X153614342Y-72760476D02*
X153709580Y-72808095D01*
X153709580Y-72808095D02*
X153757200Y-72855714D01*
X153757200Y-72855714D02*
X153804819Y-72950952D01*
X153804819Y-72950952D02*
X153804819Y-73046190D01*
X153804819Y-73046190D02*
X153757200Y-73141428D01*
X153757200Y-73141428D02*
X153709580Y-73189047D01*
X153709580Y-73189047D02*
X153614342Y-73236666D01*
X153614342Y-73236666D02*
X153423866Y-73284285D01*
X153423866Y-73284285D02*
X153185771Y-73284285D01*
X153185771Y-73284285D02*
X152995295Y-73236666D01*
X152995295Y-73236666D02*
X152900057Y-73189047D01*
X152900057Y-73189047D02*
X152852438Y-73141428D01*
X152852438Y-73141428D02*
X152804819Y-73046190D01*
X153138152Y-72284285D02*
X153804819Y-72284285D01*
X153233390Y-72284285D02*
X153185771Y-72236666D01*
X153185771Y-72236666D02*
X153138152Y-72141428D01*
X153138152Y-72141428D02*
X153138152Y-71998571D01*
X153138152Y-71998571D02*
X153185771Y-71903333D01*
X153185771Y-71903333D02*
X153281009Y-71855714D01*
X153281009Y-71855714D02*
X153804819Y-71855714D01*
X153281009Y-71046190D02*
X153281009Y-71379523D01*
X153804819Y-71379523D02*
X152804819Y-71379523D01*
X152804819Y-71379523D02*
X152804819Y-70903333D01*
X119003333Y-67254819D02*
X118670000Y-66778628D01*
X118431905Y-67254819D02*
X118431905Y-66254819D01*
X118431905Y-66254819D02*
X118812857Y-66254819D01*
X118812857Y-66254819D02*
X118908095Y-66302438D01*
X118908095Y-66302438D02*
X118955714Y-66350057D01*
X118955714Y-66350057D02*
X119003333Y-66445295D01*
X119003333Y-66445295D02*
X119003333Y-66588152D01*
X119003333Y-66588152D02*
X118955714Y-66683390D01*
X118955714Y-66683390D02*
X118908095Y-66731009D01*
X118908095Y-66731009D02*
X118812857Y-66778628D01*
X118812857Y-66778628D02*
X118431905Y-66778628D01*
X119860476Y-66588152D02*
X119860476Y-67254819D01*
X119622381Y-66207200D02*
X119384286Y-66921485D01*
X119384286Y-66921485D02*
X120003333Y-66921485D01*
X112149523Y-67204819D02*
X111578095Y-67204819D01*
X111863809Y-67204819D02*
X111863809Y-66204819D01*
X111863809Y-66204819D02*
X111768571Y-66347676D01*
X111768571Y-66347676D02*
X111673333Y-66442914D01*
X111673333Y-66442914D02*
X111578095Y-66490533D01*
X112768571Y-66204819D02*
X112863809Y-66204819D01*
X112863809Y-66204819D02*
X112959047Y-66252438D01*
X112959047Y-66252438D02*
X113006666Y-66300057D01*
X113006666Y-66300057D02*
X113054285Y-66395295D01*
X113054285Y-66395295D02*
X113101904Y-66585771D01*
X113101904Y-66585771D02*
X113101904Y-66823866D01*
X113101904Y-66823866D02*
X113054285Y-67014342D01*
X113054285Y-67014342D02*
X113006666Y-67109580D01*
X113006666Y-67109580D02*
X112959047Y-67157200D01*
X112959047Y-67157200D02*
X112863809Y-67204819D01*
X112863809Y-67204819D02*
X112768571Y-67204819D01*
X112768571Y-67204819D02*
X112673333Y-67157200D01*
X112673333Y-67157200D02*
X112625714Y-67109580D01*
X112625714Y-67109580D02*
X112578095Y-67014342D01*
X112578095Y-67014342D02*
X112530476Y-66823866D01*
X112530476Y-66823866D02*
X112530476Y-66585771D01*
X112530476Y-66585771D02*
X112578095Y-66395295D01*
X112578095Y-66395295D02*
X112625714Y-66300057D01*
X112625714Y-66300057D02*
X112673333Y-66252438D01*
X112673333Y-66252438D02*
X112768571Y-66204819D01*
X113530476Y-67204819D02*
X113530476Y-66204819D01*
X114101904Y-67204819D02*
X113673333Y-66633390D01*
X114101904Y-66204819D02*
X113530476Y-66776247D01*
X146869580Y-49656666D02*
X146917200Y-49704285D01*
X146917200Y-49704285D02*
X146964819Y-49847142D01*
X146964819Y-49847142D02*
X146964819Y-49942380D01*
X146964819Y-49942380D02*
X146917200Y-50085237D01*
X146917200Y-50085237D02*
X146821961Y-50180475D01*
X146821961Y-50180475D02*
X146726723Y-50228094D01*
X146726723Y-50228094D02*
X146536247Y-50275713D01*
X146536247Y-50275713D02*
X146393390Y-50275713D01*
X146393390Y-50275713D02*
X146202914Y-50228094D01*
X146202914Y-50228094D02*
X146107676Y-50180475D01*
X146107676Y-50180475D02*
X146012438Y-50085237D01*
X146012438Y-50085237D02*
X145964819Y-49942380D01*
X145964819Y-49942380D02*
X145964819Y-49847142D01*
X145964819Y-49847142D02*
X146012438Y-49704285D01*
X146012438Y-49704285D02*
X146060057Y-49656666D01*
X145964819Y-49323332D02*
X145964819Y-48656666D01*
X145964819Y-48656666D02*
X146964819Y-49085237D01*
X140624819Y-50145238D02*
X140624819Y-50716666D01*
X140624819Y-50430952D02*
X139624819Y-50430952D01*
X139624819Y-50430952D02*
X139767676Y-50526190D01*
X139767676Y-50526190D02*
X139862914Y-50621428D01*
X139862914Y-50621428D02*
X139910533Y-50716666D01*
X139958152Y-49288095D02*
X140624819Y-49288095D01*
X139958152Y-49716666D02*
X140481961Y-49716666D01*
X140481961Y-49716666D02*
X140577200Y-49669047D01*
X140577200Y-49669047D02*
X140624819Y-49573809D01*
X140624819Y-49573809D02*
X140624819Y-49430952D01*
X140624819Y-49430952D02*
X140577200Y-49335714D01*
X140577200Y-49335714D02*
X140529580Y-49288095D01*
X140101009Y-48478571D02*
X140101009Y-48811904D01*
X140624819Y-48811904D02*
X139624819Y-48811904D01*
X139624819Y-48811904D02*
X139624819Y-48335714D01*
X132603809Y-63478628D02*
X132603809Y-63954819D01*
X132270476Y-62954819D02*
X132603809Y-63478628D01*
X132603809Y-63478628D02*
X132937142Y-62954819D01*
X133794285Y-63954819D02*
X133222857Y-63954819D01*
X133508571Y-63954819D02*
X133508571Y-62954819D01*
X133508571Y-62954819D02*
X133413333Y-63097676D01*
X133413333Y-63097676D02*
X133318095Y-63192914D01*
X133318095Y-63192914D02*
X133222857Y-63240533D01*
X131479523Y-67204819D02*
X130908095Y-67204819D01*
X131193809Y-67204819D02*
X131193809Y-66204819D01*
X131193809Y-66204819D02*
X131098571Y-66347676D01*
X131098571Y-66347676D02*
X131003333Y-66442914D01*
X131003333Y-66442914D02*
X130908095Y-66490533D01*
X132336666Y-66204819D02*
X132146190Y-66204819D01*
X132146190Y-66204819D02*
X132050952Y-66252438D01*
X132050952Y-66252438D02*
X132003333Y-66300057D01*
X132003333Y-66300057D02*
X131908095Y-66442914D01*
X131908095Y-66442914D02*
X131860476Y-66633390D01*
X131860476Y-66633390D02*
X131860476Y-67014342D01*
X131860476Y-67014342D02*
X131908095Y-67109580D01*
X131908095Y-67109580D02*
X131955714Y-67157200D01*
X131955714Y-67157200D02*
X132050952Y-67204819D01*
X132050952Y-67204819D02*
X132241428Y-67204819D01*
X132241428Y-67204819D02*
X132336666Y-67157200D01*
X132336666Y-67157200D02*
X132384285Y-67109580D01*
X132384285Y-67109580D02*
X132431904Y-67014342D01*
X132431904Y-67014342D02*
X132431904Y-66776247D01*
X132431904Y-66776247D02*
X132384285Y-66681009D01*
X132384285Y-66681009D02*
X132336666Y-66633390D01*
X132336666Y-66633390D02*
X132241428Y-66585771D01*
X132241428Y-66585771D02*
X132050952Y-66585771D01*
X132050952Y-66585771D02*
X131955714Y-66633390D01*
X131955714Y-66633390D02*
X131908095Y-66681009D01*
X131908095Y-66681009D02*
X131860476Y-66776247D01*
X132860476Y-67204819D02*
X132860476Y-66204819D01*
X132860476Y-66204819D02*
X133193809Y-66919104D01*
X133193809Y-66919104D02*
X133527142Y-66204819D01*
X133527142Y-66204819D02*
X133527142Y-67204819D01*
X134003333Y-67204819D02*
X134003333Y-66204819D01*
X134003333Y-66681009D02*
X134574761Y-66681009D01*
X134574761Y-67204819D02*
X134574761Y-66204819D01*
X134955714Y-66538152D02*
X135479523Y-66538152D01*
X135479523Y-66538152D02*
X134955714Y-67204819D01*
X134955714Y-67204819D02*
X135479523Y-67204819D01*
X119003333Y-65104819D02*
X118670000Y-64628628D01*
X118431905Y-65104819D02*
X118431905Y-64104819D01*
X118431905Y-64104819D02*
X118812857Y-64104819D01*
X118812857Y-64104819D02*
X118908095Y-64152438D01*
X118908095Y-64152438D02*
X118955714Y-64200057D01*
X118955714Y-64200057D02*
X119003333Y-64295295D01*
X119003333Y-64295295D02*
X119003333Y-64438152D01*
X119003333Y-64438152D02*
X118955714Y-64533390D01*
X118955714Y-64533390D02*
X118908095Y-64581009D01*
X118908095Y-64581009D02*
X118812857Y-64628628D01*
X118812857Y-64628628D02*
X118431905Y-64628628D01*
X119908095Y-64104819D02*
X119431905Y-64104819D01*
X119431905Y-64104819D02*
X119384286Y-64581009D01*
X119384286Y-64581009D02*
X119431905Y-64533390D01*
X119431905Y-64533390D02*
X119527143Y-64485771D01*
X119527143Y-64485771D02*
X119765238Y-64485771D01*
X119765238Y-64485771D02*
X119860476Y-64533390D01*
X119860476Y-64533390D02*
X119908095Y-64581009D01*
X119908095Y-64581009D02*
X119955714Y-64676247D01*
X119955714Y-64676247D02*
X119955714Y-64914342D01*
X119955714Y-64914342D02*
X119908095Y-65009580D01*
X119908095Y-65009580D02*
X119860476Y-65057200D01*
X119860476Y-65057200D02*
X119765238Y-65104819D01*
X119765238Y-65104819D02*
X119527143Y-65104819D01*
X119527143Y-65104819D02*
X119431905Y-65057200D01*
X119431905Y-65057200D02*
X119384286Y-65009580D01*
X112149523Y-65104819D02*
X111578095Y-65104819D01*
X111863809Y-65104819D02*
X111863809Y-64104819D01*
X111863809Y-64104819D02*
X111768571Y-64247676D01*
X111768571Y-64247676D02*
X111673333Y-64342914D01*
X111673333Y-64342914D02*
X111578095Y-64390533D01*
X112768571Y-64104819D02*
X112863809Y-64104819D01*
X112863809Y-64104819D02*
X112959047Y-64152438D01*
X112959047Y-64152438D02*
X113006666Y-64200057D01*
X113006666Y-64200057D02*
X113054285Y-64295295D01*
X113054285Y-64295295D02*
X113101904Y-64485771D01*
X113101904Y-64485771D02*
X113101904Y-64723866D01*
X113101904Y-64723866D02*
X113054285Y-64914342D01*
X113054285Y-64914342D02*
X113006666Y-65009580D01*
X113006666Y-65009580D02*
X112959047Y-65057200D01*
X112959047Y-65057200D02*
X112863809Y-65104819D01*
X112863809Y-65104819D02*
X112768571Y-65104819D01*
X112768571Y-65104819D02*
X112673333Y-65057200D01*
X112673333Y-65057200D02*
X112625714Y-65009580D01*
X112625714Y-65009580D02*
X112578095Y-64914342D01*
X112578095Y-64914342D02*
X112530476Y-64723866D01*
X112530476Y-64723866D02*
X112530476Y-64485771D01*
X112530476Y-64485771D02*
X112578095Y-64295295D01*
X112578095Y-64295295D02*
X112625714Y-64200057D01*
X112625714Y-64200057D02*
X112673333Y-64152438D01*
X112673333Y-64152438D02*
X112768571Y-64104819D01*
X113530476Y-65104819D02*
X113530476Y-64104819D01*
X114101904Y-65104819D02*
X113673333Y-64533390D01*
X114101904Y-64104819D02*
X113530476Y-64676247D01*
X112504819Y-73621904D02*
X113314342Y-73621904D01*
X113314342Y-73621904D02*
X113409580Y-73574285D01*
X113409580Y-73574285D02*
X113457200Y-73526666D01*
X113457200Y-73526666D02*
X113504819Y-73431428D01*
X113504819Y-73431428D02*
X113504819Y-73240952D01*
X113504819Y-73240952D02*
X113457200Y-73145714D01*
X113457200Y-73145714D02*
X113409580Y-73098095D01*
X113409580Y-73098095D02*
X113314342Y-73050476D01*
X113314342Y-73050476D02*
X112504819Y-73050476D01*
X112838152Y-72145714D02*
X113504819Y-72145714D01*
X112457200Y-72383809D02*
X113171485Y-72621904D01*
X113171485Y-72621904D02*
X113171485Y-72002857D01*
X141390000Y-74969104D02*
X141866190Y-74969104D01*
X141294762Y-75254819D02*
X141628095Y-74254819D01*
X141628095Y-74254819D02*
X141961428Y-75254819D01*
X142151905Y-74254819D02*
X142723333Y-74254819D01*
X142437619Y-75254819D02*
X142437619Y-74254819D01*
X143056667Y-75254819D02*
X143056667Y-74254819D01*
X143056667Y-74254819D02*
X143390000Y-74969104D01*
X143390000Y-74969104D02*
X143723333Y-74254819D01*
X143723333Y-74254819D02*
X143723333Y-75254819D01*
X144199524Y-74731009D02*
X144532857Y-74731009D01*
X144675714Y-75254819D02*
X144199524Y-75254819D01*
X144199524Y-75254819D02*
X144199524Y-74254819D01*
X144199524Y-74254819D02*
X144675714Y-74254819D01*
X145628095Y-74302438D02*
X145532857Y-74254819D01*
X145532857Y-74254819D02*
X145390000Y-74254819D01*
X145390000Y-74254819D02*
X145247143Y-74302438D01*
X145247143Y-74302438D02*
X145151905Y-74397676D01*
X145151905Y-74397676D02*
X145104286Y-74492914D01*
X145104286Y-74492914D02*
X145056667Y-74683390D01*
X145056667Y-74683390D02*
X145056667Y-74826247D01*
X145056667Y-74826247D02*
X145104286Y-75016723D01*
X145104286Y-75016723D02*
X145151905Y-75111961D01*
X145151905Y-75111961D02*
X145247143Y-75207200D01*
X145247143Y-75207200D02*
X145390000Y-75254819D01*
X145390000Y-75254819D02*
X145485238Y-75254819D01*
X145485238Y-75254819D02*
X145628095Y-75207200D01*
X145628095Y-75207200D02*
X145675714Y-75159580D01*
X145675714Y-75159580D02*
X145675714Y-74826247D01*
X145675714Y-74826247D02*
X145485238Y-74826247D01*
X146056667Y-74969104D02*
X146532857Y-74969104D01*
X145961429Y-75254819D02*
X146294762Y-74254819D01*
X146294762Y-74254819D02*
X146628095Y-75254819D01*
X146866191Y-74254819D02*
X147485238Y-74254819D01*
X147485238Y-74254819D02*
X147151905Y-74635771D01*
X147151905Y-74635771D02*
X147294762Y-74635771D01*
X147294762Y-74635771D02*
X147390000Y-74683390D01*
X147390000Y-74683390D02*
X147437619Y-74731009D01*
X147437619Y-74731009D02*
X147485238Y-74826247D01*
X147485238Y-74826247D02*
X147485238Y-75064342D01*
X147485238Y-75064342D02*
X147437619Y-75159580D01*
X147437619Y-75159580D02*
X147390000Y-75207200D01*
X147390000Y-75207200D02*
X147294762Y-75254819D01*
X147294762Y-75254819D02*
X147009048Y-75254819D01*
X147009048Y-75254819D02*
X146913810Y-75207200D01*
X146913810Y-75207200D02*
X146866191Y-75159580D01*
X147866191Y-74350057D02*
X147913810Y-74302438D01*
X147913810Y-74302438D02*
X148009048Y-74254819D01*
X148009048Y-74254819D02*
X148247143Y-74254819D01*
X148247143Y-74254819D02*
X148342381Y-74302438D01*
X148342381Y-74302438D02*
X148390000Y-74350057D01*
X148390000Y-74350057D02*
X148437619Y-74445295D01*
X148437619Y-74445295D02*
X148437619Y-74540533D01*
X148437619Y-74540533D02*
X148390000Y-74683390D01*
X148390000Y-74683390D02*
X147818572Y-75254819D01*
X147818572Y-75254819D02*
X148437619Y-75254819D01*
X149009048Y-74683390D02*
X148913810Y-74635771D01*
X148913810Y-74635771D02*
X148866191Y-74588152D01*
X148866191Y-74588152D02*
X148818572Y-74492914D01*
X148818572Y-74492914D02*
X148818572Y-74445295D01*
X148818572Y-74445295D02*
X148866191Y-74350057D01*
X148866191Y-74350057D02*
X148913810Y-74302438D01*
X148913810Y-74302438D02*
X149009048Y-74254819D01*
X149009048Y-74254819D02*
X149199524Y-74254819D01*
X149199524Y-74254819D02*
X149294762Y-74302438D01*
X149294762Y-74302438D02*
X149342381Y-74350057D01*
X149342381Y-74350057D02*
X149390000Y-74445295D01*
X149390000Y-74445295D02*
X149390000Y-74492914D01*
X149390000Y-74492914D02*
X149342381Y-74588152D01*
X149342381Y-74588152D02*
X149294762Y-74635771D01*
X149294762Y-74635771D02*
X149199524Y-74683390D01*
X149199524Y-74683390D02*
X149009048Y-74683390D01*
X149009048Y-74683390D02*
X148913810Y-74731009D01*
X148913810Y-74731009D02*
X148866191Y-74778628D01*
X148866191Y-74778628D02*
X148818572Y-74873866D01*
X148818572Y-74873866D02*
X148818572Y-75064342D01*
X148818572Y-75064342D02*
X148866191Y-75159580D01*
X148866191Y-75159580D02*
X148913810Y-75207200D01*
X148913810Y-75207200D02*
X149009048Y-75254819D01*
X149009048Y-75254819D02*
X149199524Y-75254819D01*
X149199524Y-75254819D02*
X149294762Y-75207200D01*
X149294762Y-75207200D02*
X149342381Y-75159580D01*
X149342381Y-75159580D02*
X149390000Y-75064342D01*
X149390000Y-75064342D02*
X149390000Y-74873866D01*
X149390000Y-74873866D02*
X149342381Y-74778628D01*
X149342381Y-74778628D02*
X149294762Y-74731009D01*
X149294762Y-74731009D02*
X149199524Y-74683390D01*
X128173333Y-61409580D02*
X128125714Y-61457200D01*
X128125714Y-61457200D02*
X127982857Y-61504819D01*
X127982857Y-61504819D02*
X127887619Y-61504819D01*
X127887619Y-61504819D02*
X127744762Y-61457200D01*
X127744762Y-61457200D02*
X127649524Y-61361961D01*
X127649524Y-61361961D02*
X127601905Y-61266723D01*
X127601905Y-61266723D02*
X127554286Y-61076247D01*
X127554286Y-61076247D02*
X127554286Y-60933390D01*
X127554286Y-60933390D02*
X127601905Y-60742914D01*
X127601905Y-60742914D02*
X127649524Y-60647676D01*
X127649524Y-60647676D02*
X127744762Y-60552438D01*
X127744762Y-60552438D02*
X127887619Y-60504819D01*
X127887619Y-60504819D02*
X127982857Y-60504819D01*
X127982857Y-60504819D02*
X128125714Y-60552438D01*
X128125714Y-60552438D02*
X128173333Y-60600057D01*
X128649524Y-61504819D02*
X128840000Y-61504819D01*
X128840000Y-61504819D02*
X128935238Y-61457200D01*
X128935238Y-61457200D02*
X128982857Y-61409580D01*
X128982857Y-61409580D02*
X129078095Y-61266723D01*
X129078095Y-61266723D02*
X129125714Y-61076247D01*
X129125714Y-61076247D02*
X129125714Y-60695295D01*
X129125714Y-60695295D02*
X129078095Y-60600057D01*
X129078095Y-60600057D02*
X129030476Y-60552438D01*
X129030476Y-60552438D02*
X128935238Y-60504819D01*
X128935238Y-60504819D02*
X128744762Y-60504819D01*
X128744762Y-60504819D02*
X128649524Y-60552438D01*
X128649524Y-60552438D02*
X128601905Y-60600057D01*
X128601905Y-60600057D02*
X128554286Y-60695295D01*
X128554286Y-60695295D02*
X128554286Y-60933390D01*
X128554286Y-60933390D02*
X128601905Y-61028628D01*
X128601905Y-61028628D02*
X128649524Y-61076247D01*
X128649524Y-61076247D02*
X128744762Y-61123866D01*
X128744762Y-61123866D02*
X128935238Y-61123866D01*
X128935238Y-61123866D02*
X129030476Y-61076247D01*
X129030476Y-61076247D02*
X129078095Y-61028628D01*
X129078095Y-61028628D02*
X129125714Y-60933390D01*
X126697143Y-58450057D02*
X126744762Y-58402438D01*
X126744762Y-58402438D02*
X126840000Y-58354819D01*
X126840000Y-58354819D02*
X127078095Y-58354819D01*
X127078095Y-58354819D02*
X127173333Y-58402438D01*
X127173333Y-58402438D02*
X127220952Y-58450057D01*
X127220952Y-58450057D02*
X127268571Y-58545295D01*
X127268571Y-58545295D02*
X127268571Y-58640533D01*
X127268571Y-58640533D02*
X127220952Y-58783390D01*
X127220952Y-58783390D02*
X126649524Y-59354819D01*
X126649524Y-59354819D02*
X127268571Y-59354819D01*
X127887619Y-58354819D02*
X127982857Y-58354819D01*
X127982857Y-58354819D02*
X128078095Y-58402438D01*
X128078095Y-58402438D02*
X128125714Y-58450057D01*
X128125714Y-58450057D02*
X128173333Y-58545295D01*
X128173333Y-58545295D02*
X128220952Y-58735771D01*
X128220952Y-58735771D02*
X128220952Y-58973866D01*
X128220952Y-58973866D02*
X128173333Y-59164342D01*
X128173333Y-59164342D02*
X128125714Y-59259580D01*
X128125714Y-59259580D02*
X128078095Y-59307200D01*
X128078095Y-59307200D02*
X127982857Y-59354819D01*
X127982857Y-59354819D02*
X127887619Y-59354819D01*
X127887619Y-59354819D02*
X127792381Y-59307200D01*
X127792381Y-59307200D02*
X127744762Y-59259580D01*
X127744762Y-59259580D02*
X127697143Y-59164342D01*
X127697143Y-59164342D02*
X127649524Y-58973866D01*
X127649524Y-58973866D02*
X127649524Y-58735771D01*
X127649524Y-58735771D02*
X127697143Y-58545295D01*
X127697143Y-58545295D02*
X127744762Y-58450057D01*
X127744762Y-58450057D02*
X127792381Y-58402438D01*
X127792381Y-58402438D02*
X127887619Y-58354819D01*
X128649524Y-58688152D02*
X128649524Y-59688152D01*
X128649524Y-58735771D02*
X128744762Y-58688152D01*
X128744762Y-58688152D02*
X128935238Y-58688152D01*
X128935238Y-58688152D02*
X129030476Y-58735771D01*
X129030476Y-58735771D02*
X129078095Y-58783390D01*
X129078095Y-58783390D02*
X129125714Y-58878628D01*
X129125714Y-58878628D02*
X129125714Y-59164342D01*
X129125714Y-59164342D02*
X129078095Y-59259580D01*
X129078095Y-59259580D02*
X129030476Y-59307200D01*
X129030476Y-59307200D02*
X128935238Y-59354819D01*
X128935238Y-59354819D02*
X128744762Y-59354819D01*
X128744762Y-59354819D02*
X128649524Y-59307200D01*
X129887619Y-58831009D02*
X129554286Y-58831009D01*
X129554286Y-59354819D02*
X129554286Y-58354819D01*
X129554286Y-58354819D02*
X130030476Y-58354819D01*
X138004819Y-59183333D02*
X138719104Y-59183333D01*
X138719104Y-59183333D02*
X138861961Y-59230952D01*
X138861961Y-59230952D02*
X138957200Y-59326190D01*
X138957200Y-59326190D02*
X139004819Y-59469047D01*
X139004819Y-59469047D02*
X139004819Y-59564285D01*
X138338152Y-58278571D02*
X139004819Y-58278571D01*
X137957200Y-58516666D02*
X138671485Y-58754761D01*
X138671485Y-58754761D02*
X138671485Y-58135714D01*
X151284819Y-59826189D02*
X150284819Y-59826189D01*
X150380057Y-59397618D02*
X150332438Y-59349999D01*
X150332438Y-59349999D02*
X150284819Y-59254761D01*
X150284819Y-59254761D02*
X150284819Y-59016666D01*
X150284819Y-59016666D02*
X150332438Y-58921428D01*
X150332438Y-58921428D02*
X150380057Y-58873809D01*
X150380057Y-58873809D02*
X150475295Y-58826190D01*
X150475295Y-58826190D02*
X150570533Y-58826190D01*
X150570533Y-58826190D02*
X150713390Y-58873809D01*
X150713390Y-58873809D02*
X151284819Y-59445237D01*
X151284819Y-59445237D02*
X151284819Y-58826190D01*
X151189580Y-57826190D02*
X151237200Y-57873809D01*
X151237200Y-57873809D02*
X151284819Y-58016666D01*
X151284819Y-58016666D02*
X151284819Y-58111904D01*
X151284819Y-58111904D02*
X151237200Y-58254761D01*
X151237200Y-58254761D02*
X151141961Y-58349999D01*
X151141961Y-58349999D02*
X151046723Y-58397618D01*
X151046723Y-58397618D02*
X150856247Y-58445237D01*
X150856247Y-58445237D02*
X150713390Y-58445237D01*
X150713390Y-58445237D02*
X150522914Y-58397618D01*
X150522914Y-58397618D02*
X150427676Y-58349999D01*
X150427676Y-58349999D02*
X150332438Y-58254761D01*
X150332438Y-58254761D02*
X150284819Y-58111904D01*
X150284819Y-58111904D02*
X150284819Y-58016666D01*
X150284819Y-58016666D02*
X150332438Y-57873809D01*
X150332438Y-57873809D02*
X150380057Y-57826190D01*
X154804819Y-65176666D02*
X154328628Y-65509999D01*
X154804819Y-65748094D02*
X153804819Y-65748094D01*
X153804819Y-65748094D02*
X153804819Y-65367142D01*
X153804819Y-65367142D02*
X153852438Y-65271904D01*
X153852438Y-65271904D02*
X153900057Y-65224285D01*
X153900057Y-65224285D02*
X153995295Y-65176666D01*
X153995295Y-65176666D02*
X154138152Y-65176666D01*
X154138152Y-65176666D02*
X154233390Y-65224285D01*
X154233390Y-65224285D02*
X154281009Y-65271904D01*
X154281009Y-65271904D02*
X154328628Y-65367142D01*
X154328628Y-65367142D02*
X154328628Y-65748094D01*
X153804819Y-64319523D02*
X153804819Y-64509999D01*
X153804819Y-64509999D02*
X153852438Y-64605237D01*
X153852438Y-64605237D02*
X153900057Y-64652856D01*
X153900057Y-64652856D02*
X154042914Y-64748094D01*
X154042914Y-64748094D02*
X154233390Y-64795713D01*
X154233390Y-64795713D02*
X154614342Y-64795713D01*
X154614342Y-64795713D02*
X154709580Y-64748094D01*
X154709580Y-64748094D02*
X154757200Y-64700475D01*
X154757200Y-64700475D02*
X154804819Y-64605237D01*
X154804819Y-64605237D02*
X154804819Y-64414761D01*
X154804819Y-64414761D02*
X154757200Y-64319523D01*
X154757200Y-64319523D02*
X154709580Y-64271904D01*
X154709580Y-64271904D02*
X154614342Y-64224285D01*
X154614342Y-64224285D02*
X154376247Y-64224285D01*
X154376247Y-64224285D02*
X154281009Y-64271904D01*
X154281009Y-64271904D02*
X154233390Y-64319523D01*
X154233390Y-64319523D02*
X154185771Y-64414761D01*
X154185771Y-64414761D02*
X154185771Y-64605237D01*
X154185771Y-64605237D02*
X154233390Y-64700475D01*
X154233390Y-64700475D02*
X154281009Y-64748094D01*
X154281009Y-64748094D02*
X154376247Y-64795713D01*
X154854819Y-59410476D02*
X154854819Y-59981904D01*
X154854819Y-59696190D02*
X153854819Y-59696190D01*
X153854819Y-59696190D02*
X153997676Y-59791428D01*
X153997676Y-59791428D02*
X154092914Y-59886666D01*
X154092914Y-59886666D02*
X154140533Y-59981904D01*
X153854819Y-58791428D02*
X153854819Y-58696190D01*
X153854819Y-58696190D02*
X153902438Y-58600952D01*
X153902438Y-58600952D02*
X153950057Y-58553333D01*
X153950057Y-58553333D02*
X154045295Y-58505714D01*
X154045295Y-58505714D02*
X154235771Y-58458095D01*
X154235771Y-58458095D02*
X154473866Y-58458095D01*
X154473866Y-58458095D02*
X154664342Y-58505714D01*
X154664342Y-58505714D02*
X154759580Y-58553333D01*
X154759580Y-58553333D02*
X154807200Y-58600952D01*
X154807200Y-58600952D02*
X154854819Y-58696190D01*
X154854819Y-58696190D02*
X154854819Y-58791428D01*
X154854819Y-58791428D02*
X154807200Y-58886666D01*
X154807200Y-58886666D02*
X154759580Y-58934285D01*
X154759580Y-58934285D02*
X154664342Y-58981904D01*
X154664342Y-58981904D02*
X154473866Y-59029523D01*
X154473866Y-59029523D02*
X154235771Y-59029523D01*
X154235771Y-59029523D02*
X154045295Y-58981904D01*
X154045295Y-58981904D02*
X153950057Y-58934285D01*
X153950057Y-58934285D02*
X153902438Y-58886666D01*
X153902438Y-58886666D02*
X153854819Y-58791428D01*
X154854819Y-58029523D02*
X153854819Y-58029523D01*
X154854819Y-57458095D02*
X154283390Y-57886666D01*
X153854819Y-57458095D02*
X154426247Y-58029523D01*
X158194819Y-50743094D02*
X157194819Y-50743094D01*
X157194819Y-50743094D02*
X157194819Y-50504999D01*
X157194819Y-50504999D02*
X157242438Y-50362142D01*
X157242438Y-50362142D02*
X157337676Y-50266904D01*
X157337676Y-50266904D02*
X157432914Y-50219285D01*
X157432914Y-50219285D02*
X157623390Y-50171666D01*
X157623390Y-50171666D02*
X157766247Y-50171666D01*
X157766247Y-50171666D02*
X157956723Y-50219285D01*
X157956723Y-50219285D02*
X158051961Y-50266904D01*
X158051961Y-50266904D02*
X158147200Y-50362142D01*
X158147200Y-50362142D02*
X158194819Y-50504999D01*
X158194819Y-50504999D02*
X158194819Y-50743094D01*
X158194819Y-49219285D02*
X158194819Y-49790713D01*
X158194819Y-49504999D02*
X157194819Y-49504999D01*
X157194819Y-49504999D02*
X157337676Y-49600237D01*
X157337676Y-49600237D02*
X157432914Y-49695475D01*
X157432914Y-49695475D02*
X157480533Y-49790713D01*
X164114819Y-52314523D02*
X163114819Y-52314523D01*
X163114819Y-52314523D02*
X163114819Y-51933571D01*
X163114819Y-51933571D02*
X163162438Y-51838333D01*
X163162438Y-51838333D02*
X163210057Y-51790714D01*
X163210057Y-51790714D02*
X163305295Y-51743095D01*
X163305295Y-51743095D02*
X163448152Y-51743095D01*
X163448152Y-51743095D02*
X163543390Y-51790714D01*
X163543390Y-51790714D02*
X163591009Y-51838333D01*
X163591009Y-51838333D02*
X163638628Y-51933571D01*
X163638628Y-51933571D02*
X163638628Y-52314523D01*
X163114819Y-51124047D02*
X163114819Y-50933571D01*
X163114819Y-50933571D02*
X163162438Y-50838333D01*
X163162438Y-50838333D02*
X163257676Y-50743095D01*
X163257676Y-50743095D02*
X163448152Y-50695476D01*
X163448152Y-50695476D02*
X163781485Y-50695476D01*
X163781485Y-50695476D02*
X163971961Y-50743095D01*
X163971961Y-50743095D02*
X164067200Y-50838333D01*
X164067200Y-50838333D02*
X164114819Y-50933571D01*
X164114819Y-50933571D02*
X164114819Y-51124047D01*
X164114819Y-51124047D02*
X164067200Y-51219285D01*
X164067200Y-51219285D02*
X163971961Y-51314523D01*
X163971961Y-51314523D02*
X163781485Y-51362142D01*
X163781485Y-51362142D02*
X163448152Y-51362142D01*
X163448152Y-51362142D02*
X163257676Y-51314523D01*
X163257676Y-51314523D02*
X163162438Y-51219285D01*
X163162438Y-51219285D02*
X163114819Y-51124047D01*
X163114819Y-50362142D02*
X164114819Y-50124047D01*
X164114819Y-50124047D02*
X163400533Y-49933571D01*
X163400533Y-49933571D02*
X164114819Y-49743095D01*
X164114819Y-49743095D02*
X163114819Y-49505000D01*
X163591009Y-49124047D02*
X163591009Y-48790714D01*
X164114819Y-48647857D02*
X164114819Y-49124047D01*
X164114819Y-49124047D02*
X163114819Y-49124047D01*
X163114819Y-49124047D02*
X163114819Y-48647857D01*
X164114819Y-47647857D02*
X163638628Y-47981190D01*
X164114819Y-48219285D02*
X163114819Y-48219285D01*
X163114819Y-48219285D02*
X163114819Y-47838333D01*
X163114819Y-47838333D02*
X163162438Y-47743095D01*
X163162438Y-47743095D02*
X163210057Y-47695476D01*
X163210057Y-47695476D02*
X163305295Y-47647857D01*
X163305295Y-47647857D02*
X163448152Y-47647857D01*
X163448152Y-47647857D02*
X163543390Y-47695476D01*
X163543390Y-47695476D02*
X163591009Y-47743095D01*
X163591009Y-47743095D02*
X163638628Y-47838333D01*
X163638628Y-47838333D02*
X163638628Y-48219285D01*
X116259580Y-53326666D02*
X116307200Y-53374285D01*
X116307200Y-53374285D02*
X116354819Y-53517142D01*
X116354819Y-53517142D02*
X116354819Y-53612380D01*
X116354819Y-53612380D02*
X116307200Y-53755237D01*
X116307200Y-53755237D02*
X116211961Y-53850475D01*
X116211961Y-53850475D02*
X116116723Y-53898094D01*
X116116723Y-53898094D02*
X115926247Y-53945713D01*
X115926247Y-53945713D02*
X115783390Y-53945713D01*
X115783390Y-53945713D02*
X115592914Y-53898094D01*
X115592914Y-53898094D02*
X115497676Y-53850475D01*
X115497676Y-53850475D02*
X115402438Y-53755237D01*
X115402438Y-53755237D02*
X115354819Y-53612380D01*
X115354819Y-53612380D02*
X115354819Y-53517142D01*
X115354819Y-53517142D02*
X115402438Y-53374285D01*
X115402438Y-53374285D02*
X115450057Y-53326666D01*
X115688152Y-52469523D02*
X116354819Y-52469523D01*
X115307200Y-52707618D02*
X116021485Y-52945713D01*
X116021485Y-52945713D02*
X116021485Y-52326666D01*
X113600057Y-55169047D02*
X113552438Y-55121428D01*
X113552438Y-55121428D02*
X113504819Y-55026190D01*
X113504819Y-55026190D02*
X113504819Y-54788095D01*
X113504819Y-54788095D02*
X113552438Y-54692857D01*
X113552438Y-54692857D02*
X113600057Y-54645238D01*
X113600057Y-54645238D02*
X113695295Y-54597619D01*
X113695295Y-54597619D02*
X113790533Y-54597619D01*
X113790533Y-54597619D02*
X113933390Y-54645238D01*
X113933390Y-54645238D02*
X114504819Y-55216666D01*
X114504819Y-55216666D02*
X114504819Y-54597619D01*
X113600057Y-54216666D02*
X113552438Y-54169047D01*
X113552438Y-54169047D02*
X113504819Y-54073809D01*
X113504819Y-54073809D02*
X113504819Y-53835714D01*
X113504819Y-53835714D02*
X113552438Y-53740476D01*
X113552438Y-53740476D02*
X113600057Y-53692857D01*
X113600057Y-53692857D02*
X113695295Y-53645238D01*
X113695295Y-53645238D02*
X113790533Y-53645238D01*
X113790533Y-53645238D02*
X113933390Y-53692857D01*
X113933390Y-53692857D02*
X114504819Y-54264285D01*
X114504819Y-54264285D02*
X114504819Y-53645238D01*
X113504819Y-53026190D02*
X113504819Y-52930952D01*
X113504819Y-52930952D02*
X113552438Y-52835714D01*
X113552438Y-52835714D02*
X113600057Y-52788095D01*
X113600057Y-52788095D02*
X113695295Y-52740476D01*
X113695295Y-52740476D02*
X113885771Y-52692857D01*
X113885771Y-52692857D02*
X114123866Y-52692857D01*
X114123866Y-52692857D02*
X114314342Y-52740476D01*
X114314342Y-52740476D02*
X114409580Y-52788095D01*
X114409580Y-52788095D02*
X114457200Y-52835714D01*
X114457200Y-52835714D02*
X114504819Y-52930952D01*
X114504819Y-52930952D02*
X114504819Y-53026190D01*
X114504819Y-53026190D02*
X114457200Y-53121428D01*
X114457200Y-53121428D02*
X114409580Y-53169047D01*
X114409580Y-53169047D02*
X114314342Y-53216666D01*
X114314342Y-53216666D02*
X114123866Y-53264285D01*
X114123866Y-53264285D02*
X113885771Y-53264285D01*
X113885771Y-53264285D02*
X113695295Y-53216666D01*
X113695295Y-53216666D02*
X113600057Y-53169047D01*
X113600057Y-53169047D02*
X113552438Y-53121428D01*
X113552438Y-53121428D02*
X113504819Y-53026190D01*
X113838152Y-52264285D02*
X114504819Y-52264285D01*
X113933390Y-52264285D02*
X113885771Y-52216666D01*
X113885771Y-52216666D02*
X113838152Y-52121428D01*
X113838152Y-52121428D02*
X113838152Y-51978571D01*
X113838152Y-51978571D02*
X113885771Y-51883333D01*
X113885771Y-51883333D02*
X113981009Y-51835714D01*
X113981009Y-51835714D02*
X114504819Y-51835714D01*
X113981009Y-51026190D02*
X113981009Y-51359523D01*
X114504819Y-51359523D02*
X113504819Y-51359523D01*
X113504819Y-51359523D02*
X113504819Y-50883333D01*
X109733333Y-58004819D02*
X109400000Y-57528628D01*
X109161905Y-58004819D02*
X109161905Y-57004819D01*
X109161905Y-57004819D02*
X109542857Y-57004819D01*
X109542857Y-57004819D02*
X109638095Y-57052438D01*
X109638095Y-57052438D02*
X109685714Y-57100057D01*
X109685714Y-57100057D02*
X109733333Y-57195295D01*
X109733333Y-57195295D02*
X109733333Y-57338152D01*
X109733333Y-57338152D02*
X109685714Y-57433390D01*
X109685714Y-57433390D02*
X109638095Y-57481009D01*
X109638095Y-57481009D02*
X109542857Y-57528628D01*
X109542857Y-57528628D02*
X109161905Y-57528628D01*
X110066667Y-57004819D02*
X110685714Y-57004819D01*
X110685714Y-57004819D02*
X110352381Y-57385771D01*
X110352381Y-57385771D02*
X110495238Y-57385771D01*
X110495238Y-57385771D02*
X110590476Y-57433390D01*
X110590476Y-57433390D02*
X110638095Y-57481009D01*
X110638095Y-57481009D02*
X110685714Y-57576247D01*
X110685714Y-57576247D02*
X110685714Y-57814342D01*
X110685714Y-57814342D02*
X110638095Y-57909580D01*
X110638095Y-57909580D02*
X110590476Y-57957200D01*
X110590476Y-57957200D02*
X110495238Y-58004819D01*
X110495238Y-58004819D02*
X110209524Y-58004819D01*
X110209524Y-58004819D02*
X110114286Y-57957200D01*
X110114286Y-57957200D02*
X110066667Y-57909580D01*
X108733333Y-59924819D02*
X108161905Y-59924819D01*
X108447619Y-59924819D02*
X108447619Y-58924819D01*
X108447619Y-58924819D02*
X108352381Y-59067676D01*
X108352381Y-59067676D02*
X108257143Y-59162914D01*
X108257143Y-59162914D02*
X108161905Y-59210533D01*
X109638095Y-58924819D02*
X109161905Y-58924819D01*
X109161905Y-58924819D02*
X109114286Y-59401009D01*
X109114286Y-59401009D02*
X109161905Y-59353390D01*
X109161905Y-59353390D02*
X109257143Y-59305771D01*
X109257143Y-59305771D02*
X109495238Y-59305771D01*
X109495238Y-59305771D02*
X109590476Y-59353390D01*
X109590476Y-59353390D02*
X109638095Y-59401009D01*
X109638095Y-59401009D02*
X109685714Y-59496247D01*
X109685714Y-59496247D02*
X109685714Y-59734342D01*
X109685714Y-59734342D02*
X109638095Y-59829580D01*
X109638095Y-59829580D02*
X109590476Y-59877200D01*
X109590476Y-59877200D02*
X109495238Y-59924819D01*
X109495238Y-59924819D02*
X109257143Y-59924819D01*
X109257143Y-59924819D02*
X109161905Y-59877200D01*
X109161905Y-59877200D02*
X109114286Y-59829580D01*
X110304762Y-58924819D02*
X110400000Y-58924819D01*
X110400000Y-58924819D02*
X110495238Y-58972438D01*
X110495238Y-58972438D02*
X110542857Y-59020057D01*
X110542857Y-59020057D02*
X110590476Y-59115295D01*
X110590476Y-59115295D02*
X110638095Y-59305771D01*
X110638095Y-59305771D02*
X110638095Y-59543866D01*
X110638095Y-59543866D02*
X110590476Y-59734342D01*
X110590476Y-59734342D02*
X110542857Y-59829580D01*
X110542857Y-59829580D02*
X110495238Y-59877200D01*
X110495238Y-59877200D02*
X110400000Y-59924819D01*
X110400000Y-59924819D02*
X110304762Y-59924819D01*
X110304762Y-59924819D02*
X110209524Y-59877200D01*
X110209524Y-59877200D02*
X110161905Y-59829580D01*
X110161905Y-59829580D02*
X110114286Y-59734342D01*
X110114286Y-59734342D02*
X110066667Y-59543866D01*
X110066667Y-59543866D02*
X110066667Y-59305771D01*
X110066667Y-59305771D02*
X110114286Y-59115295D01*
X110114286Y-59115295D02*
X110161905Y-59020057D01*
X110161905Y-59020057D02*
X110209524Y-58972438D01*
X110209524Y-58972438D02*
X110304762Y-58924819D01*
X111638095Y-59924819D02*
X111304762Y-59448628D01*
X111066667Y-59924819D02*
X111066667Y-58924819D01*
X111066667Y-58924819D02*
X111447619Y-58924819D01*
X111447619Y-58924819D02*
X111542857Y-58972438D01*
X111542857Y-58972438D02*
X111590476Y-59020057D01*
X111590476Y-59020057D02*
X111638095Y-59115295D01*
X111638095Y-59115295D02*
X111638095Y-59258152D01*
X111638095Y-59258152D02*
X111590476Y-59353390D01*
X111590476Y-59353390D02*
X111542857Y-59401009D01*
X111542857Y-59401009D02*
X111447619Y-59448628D01*
X111447619Y-59448628D02*
X111066667Y-59448628D01*
X139344819Y-64563333D02*
X140059104Y-64563333D01*
X140059104Y-64563333D02*
X140201961Y-64610952D01*
X140201961Y-64610952D02*
X140297200Y-64706190D01*
X140297200Y-64706190D02*
X140344819Y-64849047D01*
X140344819Y-64849047D02*
X140344819Y-64944285D01*
X139344819Y-63610952D02*
X139344819Y-64087142D01*
X139344819Y-64087142D02*
X139821009Y-64134761D01*
X139821009Y-64134761D02*
X139773390Y-64087142D01*
X139773390Y-64087142D02*
X139725771Y-63991904D01*
X139725771Y-63991904D02*
X139725771Y-63753809D01*
X139725771Y-63753809D02*
X139773390Y-63658571D01*
X139773390Y-63658571D02*
X139821009Y-63610952D01*
X139821009Y-63610952D02*
X139916247Y-63563333D01*
X139916247Y-63563333D02*
X140154342Y-63563333D01*
X140154342Y-63563333D02*
X140249580Y-63610952D01*
X140249580Y-63610952D02*
X140297200Y-63658571D01*
X140297200Y-63658571D02*
X140344819Y-63753809D01*
X140344819Y-63753809D02*
X140344819Y-63991904D01*
X140344819Y-63991904D02*
X140297200Y-64087142D01*
X140297200Y-64087142D02*
X140249580Y-64134761D01*
X150084819Y-65682380D02*
X149084819Y-65682380D01*
X150037200Y-65253809D02*
X150084819Y-65110952D01*
X150084819Y-65110952D02*
X150084819Y-64872857D01*
X150084819Y-64872857D02*
X150037200Y-64777619D01*
X150037200Y-64777619D02*
X149989580Y-64730000D01*
X149989580Y-64730000D02*
X149894342Y-64682381D01*
X149894342Y-64682381D02*
X149799104Y-64682381D01*
X149799104Y-64682381D02*
X149703866Y-64730000D01*
X149703866Y-64730000D02*
X149656247Y-64777619D01*
X149656247Y-64777619D02*
X149608628Y-64872857D01*
X149608628Y-64872857D02*
X149561009Y-65063333D01*
X149561009Y-65063333D02*
X149513390Y-65158571D01*
X149513390Y-65158571D02*
X149465771Y-65206190D01*
X149465771Y-65206190D02*
X149370533Y-65253809D01*
X149370533Y-65253809D02*
X149275295Y-65253809D01*
X149275295Y-65253809D02*
X149180057Y-65206190D01*
X149180057Y-65206190D02*
X149132438Y-65158571D01*
X149132438Y-65158571D02*
X149084819Y-65063333D01*
X149084819Y-65063333D02*
X149084819Y-64825238D01*
X149084819Y-64825238D02*
X149132438Y-64682381D01*
X150084819Y-64253809D02*
X149084819Y-64253809D01*
X149084819Y-64253809D02*
X149084819Y-63872857D01*
X149084819Y-63872857D02*
X149132438Y-63777619D01*
X149132438Y-63777619D02*
X149180057Y-63730000D01*
X149180057Y-63730000D02*
X149275295Y-63682381D01*
X149275295Y-63682381D02*
X149418152Y-63682381D01*
X149418152Y-63682381D02*
X149513390Y-63730000D01*
X149513390Y-63730000D02*
X149561009Y-63777619D01*
X149561009Y-63777619D02*
X149608628Y-63872857D01*
X149608628Y-63872857D02*
X149608628Y-64253809D01*
X149084819Y-62825238D02*
X149084819Y-63015714D01*
X149084819Y-63015714D02*
X149132438Y-63110952D01*
X149132438Y-63110952D02*
X149180057Y-63158571D01*
X149180057Y-63158571D02*
X149322914Y-63253809D01*
X149322914Y-63253809D02*
X149513390Y-63301428D01*
X149513390Y-63301428D02*
X149894342Y-63301428D01*
X149894342Y-63301428D02*
X149989580Y-63253809D01*
X149989580Y-63253809D02*
X150037200Y-63206190D01*
X150037200Y-63206190D02*
X150084819Y-63110952D01*
X150084819Y-63110952D02*
X150084819Y-62920476D01*
X150084819Y-62920476D02*
X150037200Y-62825238D01*
X150037200Y-62825238D02*
X149989580Y-62777619D01*
X149989580Y-62777619D02*
X149894342Y-62730000D01*
X149894342Y-62730000D02*
X149656247Y-62730000D01*
X149656247Y-62730000D02*
X149561009Y-62777619D01*
X149561009Y-62777619D02*
X149513390Y-62825238D01*
X149513390Y-62825238D02*
X149465771Y-62920476D01*
X149465771Y-62920476D02*
X149465771Y-63110952D01*
X149465771Y-63110952D02*
X149513390Y-63206190D01*
X149513390Y-63206190D02*
X149561009Y-63253809D01*
X149561009Y-63253809D02*
X149656247Y-63301428D01*
X109194761Y-48240057D02*
X109099523Y-48192438D01*
X109099523Y-48192438D02*
X109004285Y-48097200D01*
X109004285Y-48097200D02*
X108861428Y-47954342D01*
X108861428Y-47954342D02*
X108766190Y-47906723D01*
X108766190Y-47906723D02*
X108670952Y-47906723D01*
X108718571Y-48144819D02*
X108623333Y-48097200D01*
X108623333Y-48097200D02*
X108528095Y-48001961D01*
X108528095Y-48001961D02*
X108480476Y-47811485D01*
X108480476Y-47811485D02*
X108480476Y-47478152D01*
X108480476Y-47478152D02*
X108528095Y-47287676D01*
X108528095Y-47287676D02*
X108623333Y-47192438D01*
X108623333Y-47192438D02*
X108718571Y-47144819D01*
X108718571Y-47144819D02*
X108909047Y-47144819D01*
X108909047Y-47144819D02*
X109004285Y-47192438D01*
X109004285Y-47192438D02*
X109099523Y-47287676D01*
X109099523Y-47287676D02*
X109147142Y-47478152D01*
X109147142Y-47478152D02*
X109147142Y-47811485D01*
X109147142Y-47811485D02*
X109099523Y-48001961D01*
X109099523Y-48001961D02*
X109004285Y-48097200D01*
X109004285Y-48097200D02*
X108909047Y-48144819D01*
X108909047Y-48144819D02*
X108718571Y-48144819D01*
X110099523Y-48144819D02*
X109528095Y-48144819D01*
X109813809Y-48144819D02*
X109813809Y-47144819D01*
X109813809Y-47144819D02*
X109718571Y-47287676D01*
X109718571Y-47287676D02*
X109623333Y-47382914D01*
X109623333Y-47382914D02*
X109528095Y-47430533D01*
X107432857Y-53971009D02*
X107575714Y-54018628D01*
X107575714Y-54018628D02*
X107623333Y-54066247D01*
X107623333Y-54066247D02*
X107670952Y-54161485D01*
X107670952Y-54161485D02*
X107670952Y-54304342D01*
X107670952Y-54304342D02*
X107623333Y-54399580D01*
X107623333Y-54399580D02*
X107575714Y-54447200D01*
X107575714Y-54447200D02*
X107480476Y-54494819D01*
X107480476Y-54494819D02*
X107099524Y-54494819D01*
X107099524Y-54494819D02*
X107099524Y-53494819D01*
X107099524Y-53494819D02*
X107432857Y-53494819D01*
X107432857Y-53494819D02*
X107528095Y-53542438D01*
X107528095Y-53542438D02*
X107575714Y-53590057D01*
X107575714Y-53590057D02*
X107623333Y-53685295D01*
X107623333Y-53685295D02*
X107623333Y-53780533D01*
X107623333Y-53780533D02*
X107575714Y-53875771D01*
X107575714Y-53875771D02*
X107528095Y-53923390D01*
X107528095Y-53923390D02*
X107432857Y-53971009D01*
X107432857Y-53971009D02*
X107099524Y-53971009D01*
X108670952Y-54399580D02*
X108623333Y-54447200D01*
X108623333Y-54447200D02*
X108480476Y-54494819D01*
X108480476Y-54494819D02*
X108385238Y-54494819D01*
X108385238Y-54494819D02*
X108242381Y-54447200D01*
X108242381Y-54447200D02*
X108147143Y-54351961D01*
X108147143Y-54351961D02*
X108099524Y-54256723D01*
X108099524Y-54256723D02*
X108051905Y-54066247D01*
X108051905Y-54066247D02*
X108051905Y-53923390D01*
X108051905Y-53923390D02*
X108099524Y-53732914D01*
X108099524Y-53732914D02*
X108147143Y-53637676D01*
X108147143Y-53637676D02*
X108242381Y-53542438D01*
X108242381Y-53542438D02*
X108385238Y-53494819D01*
X108385238Y-53494819D02*
X108480476Y-53494819D01*
X108480476Y-53494819D02*
X108623333Y-53542438D01*
X108623333Y-53542438D02*
X108670952Y-53590057D01*
X109575714Y-53494819D02*
X109099524Y-53494819D01*
X109099524Y-53494819D02*
X109051905Y-53971009D01*
X109051905Y-53971009D02*
X109099524Y-53923390D01*
X109099524Y-53923390D02*
X109194762Y-53875771D01*
X109194762Y-53875771D02*
X109432857Y-53875771D01*
X109432857Y-53875771D02*
X109528095Y-53923390D01*
X109528095Y-53923390D02*
X109575714Y-53971009D01*
X109575714Y-53971009D02*
X109623333Y-54066247D01*
X109623333Y-54066247D02*
X109623333Y-54304342D01*
X109623333Y-54304342D02*
X109575714Y-54399580D01*
X109575714Y-54399580D02*
X109528095Y-54447200D01*
X109528095Y-54447200D02*
X109432857Y-54494819D01*
X109432857Y-54494819D02*
X109194762Y-54494819D01*
X109194762Y-54494819D02*
X109099524Y-54447200D01*
X109099524Y-54447200D02*
X109051905Y-54399580D01*
X110528095Y-53494819D02*
X110051905Y-53494819D01*
X110051905Y-53494819D02*
X110004286Y-53971009D01*
X110004286Y-53971009D02*
X110051905Y-53923390D01*
X110051905Y-53923390D02*
X110147143Y-53875771D01*
X110147143Y-53875771D02*
X110385238Y-53875771D01*
X110385238Y-53875771D02*
X110480476Y-53923390D01*
X110480476Y-53923390D02*
X110528095Y-53971009D01*
X110528095Y-53971009D02*
X110575714Y-54066247D01*
X110575714Y-54066247D02*
X110575714Y-54304342D01*
X110575714Y-54304342D02*
X110528095Y-54399580D01*
X110528095Y-54399580D02*
X110480476Y-54447200D01*
X110480476Y-54447200D02*
X110385238Y-54494819D01*
X110385238Y-54494819D02*
X110147143Y-54494819D01*
X110147143Y-54494819D02*
X110051905Y-54447200D01*
X110051905Y-54447200D02*
X110004286Y-54399580D01*
X111194762Y-53494819D02*
X111290000Y-53494819D01*
X111290000Y-53494819D02*
X111385238Y-53542438D01*
X111385238Y-53542438D02*
X111432857Y-53590057D01*
X111432857Y-53590057D02*
X111480476Y-53685295D01*
X111480476Y-53685295D02*
X111528095Y-53875771D01*
X111528095Y-53875771D02*
X111528095Y-54113866D01*
X111528095Y-54113866D02*
X111480476Y-54304342D01*
X111480476Y-54304342D02*
X111432857Y-54399580D01*
X111432857Y-54399580D02*
X111385238Y-54447200D01*
X111385238Y-54447200D02*
X111290000Y-54494819D01*
X111290000Y-54494819D02*
X111194762Y-54494819D01*
X111194762Y-54494819D02*
X111099524Y-54447200D01*
X111099524Y-54447200D02*
X111051905Y-54399580D01*
X111051905Y-54399580D02*
X111004286Y-54304342D01*
X111004286Y-54304342D02*
X110956667Y-54113866D01*
X110956667Y-54113866D02*
X110956667Y-53875771D01*
X110956667Y-53875771D02*
X111004286Y-53685295D01*
X111004286Y-53685295D02*
X111051905Y-53590057D01*
X111051905Y-53590057D02*
X111099524Y-53542438D01*
X111099524Y-53542438D02*
X111194762Y-53494819D01*
X94784819Y-50263333D02*
X95499104Y-50263333D01*
X95499104Y-50263333D02*
X95641961Y-50310952D01*
X95641961Y-50310952D02*
X95737200Y-50406190D01*
X95737200Y-50406190D02*
X95784819Y-50549047D01*
X95784819Y-50549047D02*
X95784819Y-50644285D01*
X94784819Y-49882380D02*
X94784819Y-49263333D01*
X94784819Y-49263333D02*
X95165771Y-49596666D01*
X95165771Y-49596666D02*
X95165771Y-49453809D01*
X95165771Y-49453809D02*
X95213390Y-49358571D01*
X95213390Y-49358571D02*
X95261009Y-49310952D01*
X95261009Y-49310952D02*
X95356247Y-49263333D01*
X95356247Y-49263333D02*
X95594342Y-49263333D01*
X95594342Y-49263333D02*
X95689580Y-49310952D01*
X95689580Y-49310952D02*
X95737200Y-49358571D01*
X95737200Y-49358571D02*
X95784819Y-49453809D01*
X95784819Y-49453809D02*
X95784819Y-49739523D01*
X95784819Y-49739523D02*
X95737200Y-49834761D01*
X95737200Y-49834761D02*
X95689580Y-49882380D01*
X87584819Y-51263333D02*
X87584819Y-51739523D01*
X87584819Y-51739523D02*
X88061009Y-51787142D01*
X88061009Y-51787142D02*
X88013390Y-51739523D01*
X88013390Y-51739523D02*
X87965771Y-51644285D01*
X87965771Y-51644285D02*
X87965771Y-51406190D01*
X87965771Y-51406190D02*
X88013390Y-51310952D01*
X88013390Y-51310952D02*
X88061009Y-51263333D01*
X88061009Y-51263333D02*
X88156247Y-51215714D01*
X88156247Y-51215714D02*
X88394342Y-51215714D01*
X88394342Y-51215714D02*
X88489580Y-51263333D01*
X88489580Y-51263333D02*
X88537200Y-51310952D01*
X88537200Y-51310952D02*
X88584819Y-51406190D01*
X88584819Y-51406190D02*
X88584819Y-51644285D01*
X88584819Y-51644285D02*
X88537200Y-51739523D01*
X88537200Y-51739523D02*
X88489580Y-51787142D01*
X87584819Y-50929999D02*
X88584819Y-50596666D01*
X88584819Y-50596666D02*
X87584819Y-50263333D01*
X88584819Y-49168094D02*
X87584819Y-49168094D01*
X88584819Y-48691904D02*
X87584819Y-48691904D01*
X87584819Y-48691904D02*
X88584819Y-48120476D01*
X88584819Y-48120476D02*
X87584819Y-48120476D01*
X102969047Y-60531009D02*
X103111904Y-60578628D01*
X103111904Y-60578628D02*
X103159523Y-60626247D01*
X103159523Y-60626247D02*
X103207142Y-60721485D01*
X103207142Y-60721485D02*
X103207142Y-60864342D01*
X103207142Y-60864342D02*
X103159523Y-60959580D01*
X103159523Y-60959580D02*
X103111904Y-61007200D01*
X103111904Y-61007200D02*
X103016666Y-61054819D01*
X103016666Y-61054819D02*
X102635714Y-61054819D01*
X102635714Y-61054819D02*
X102635714Y-60054819D01*
X102635714Y-60054819D02*
X102969047Y-60054819D01*
X102969047Y-60054819D02*
X103064285Y-60102438D01*
X103064285Y-60102438D02*
X103111904Y-60150057D01*
X103111904Y-60150057D02*
X103159523Y-60245295D01*
X103159523Y-60245295D02*
X103159523Y-60340533D01*
X103159523Y-60340533D02*
X103111904Y-60435771D01*
X103111904Y-60435771D02*
X103064285Y-60483390D01*
X103064285Y-60483390D02*
X102969047Y-60531009D01*
X102969047Y-60531009D02*
X102635714Y-60531009D01*
X103540476Y-60054819D02*
X104207142Y-60054819D01*
X104207142Y-60054819D02*
X103540476Y-61054819D01*
X103540476Y-61054819D02*
X104207142Y-61054819D01*
X105111904Y-61054819D02*
X104540476Y-61054819D01*
X104826190Y-61054819D02*
X104826190Y-60054819D01*
X104826190Y-60054819D02*
X104730952Y-60197676D01*
X104730952Y-60197676D02*
X104635714Y-60292914D01*
X104635714Y-60292914D02*
X104540476Y-60340533D01*
X101921428Y-68931009D02*
X102064285Y-68978628D01*
X102064285Y-68978628D02*
X102111904Y-69026247D01*
X102111904Y-69026247D02*
X102159523Y-69121485D01*
X102159523Y-69121485D02*
X102159523Y-69264342D01*
X102159523Y-69264342D02*
X102111904Y-69359580D01*
X102111904Y-69359580D02*
X102064285Y-69407200D01*
X102064285Y-69407200D02*
X101969047Y-69454819D01*
X101969047Y-69454819D02*
X101588095Y-69454819D01*
X101588095Y-69454819D02*
X101588095Y-68454819D01*
X101588095Y-68454819D02*
X101921428Y-68454819D01*
X101921428Y-68454819D02*
X102016666Y-68502438D01*
X102016666Y-68502438D02*
X102064285Y-68550057D01*
X102064285Y-68550057D02*
X102111904Y-68645295D01*
X102111904Y-68645295D02*
X102111904Y-68740533D01*
X102111904Y-68740533D02*
X102064285Y-68835771D01*
X102064285Y-68835771D02*
X102016666Y-68883390D01*
X102016666Y-68883390D02*
X101921428Y-68931009D01*
X101921428Y-68931009D02*
X101588095Y-68931009D01*
X103016666Y-68788152D02*
X103016666Y-69454819D01*
X102588095Y-68788152D02*
X102588095Y-69311961D01*
X102588095Y-69311961D02*
X102635714Y-69407200D01*
X102635714Y-69407200D02*
X102730952Y-69454819D01*
X102730952Y-69454819D02*
X102873809Y-69454819D01*
X102873809Y-69454819D02*
X102969047Y-69407200D01*
X102969047Y-69407200D02*
X103016666Y-69359580D01*
X103397619Y-68788152D02*
X103921428Y-68788152D01*
X103921428Y-68788152D02*
X103397619Y-69454819D01*
X103397619Y-69454819D02*
X103921428Y-69454819D01*
X104207143Y-68788152D02*
X104730952Y-68788152D01*
X104730952Y-68788152D02*
X104207143Y-69454819D01*
X104207143Y-69454819D02*
X104730952Y-69454819D01*
X105492857Y-69407200D02*
X105397619Y-69454819D01*
X105397619Y-69454819D02*
X105207143Y-69454819D01*
X105207143Y-69454819D02*
X105111905Y-69407200D01*
X105111905Y-69407200D02*
X105064286Y-69311961D01*
X105064286Y-69311961D02*
X105064286Y-68931009D01*
X105064286Y-68931009D02*
X105111905Y-68835771D01*
X105111905Y-68835771D02*
X105207143Y-68788152D01*
X105207143Y-68788152D02*
X105397619Y-68788152D01*
X105397619Y-68788152D02*
X105492857Y-68835771D01*
X105492857Y-68835771D02*
X105540476Y-68931009D01*
X105540476Y-68931009D02*
X105540476Y-69026247D01*
X105540476Y-69026247D02*
X105064286Y-69121485D01*
X105969048Y-69454819D02*
X105969048Y-68788152D01*
X105969048Y-68978628D02*
X106016667Y-68883390D01*
X106016667Y-68883390D02*
X106064286Y-68835771D01*
X106064286Y-68835771D02*
X106159524Y-68788152D01*
X106159524Y-68788152D02*
X106254762Y-68788152D01*
X100219048Y-63123866D02*
X100980953Y-63123866D01*
X100600000Y-63504819D02*
X100600000Y-62742914D01*
X96203333Y-48459580D02*
X96155714Y-48507200D01*
X96155714Y-48507200D02*
X96012857Y-48554819D01*
X96012857Y-48554819D02*
X95917619Y-48554819D01*
X95917619Y-48554819D02*
X95774762Y-48507200D01*
X95774762Y-48507200D02*
X95679524Y-48411961D01*
X95679524Y-48411961D02*
X95631905Y-48316723D01*
X95631905Y-48316723D02*
X95584286Y-48126247D01*
X95584286Y-48126247D02*
X95584286Y-47983390D01*
X95584286Y-47983390D02*
X95631905Y-47792914D01*
X95631905Y-47792914D02*
X95679524Y-47697676D01*
X95679524Y-47697676D02*
X95774762Y-47602438D01*
X95774762Y-47602438D02*
X95917619Y-47554819D01*
X95917619Y-47554819D02*
X96012857Y-47554819D01*
X96012857Y-47554819D02*
X96155714Y-47602438D01*
X96155714Y-47602438D02*
X96203333Y-47650057D01*
X97155714Y-48554819D02*
X96584286Y-48554819D01*
X96870000Y-48554819D02*
X96870000Y-47554819D01*
X96870000Y-47554819D02*
X96774762Y-47697676D01*
X96774762Y-47697676D02*
X96679524Y-47792914D01*
X96679524Y-47792914D02*
X96584286Y-47840533D01*
X104454819Y-51747619D02*
X104454819Y-52319047D01*
X104454819Y-52033333D02*
X103454819Y-52033333D01*
X103454819Y-52033333D02*
X103597676Y-52128571D01*
X103597676Y-52128571D02*
X103692914Y-52223809D01*
X103692914Y-52223809D02*
X103740533Y-52319047D01*
X103454819Y-51128571D02*
X103454819Y-51033333D01*
X103454819Y-51033333D02*
X103502438Y-50938095D01*
X103502438Y-50938095D02*
X103550057Y-50890476D01*
X103550057Y-50890476D02*
X103645295Y-50842857D01*
X103645295Y-50842857D02*
X103835771Y-50795238D01*
X103835771Y-50795238D02*
X104073866Y-50795238D01*
X104073866Y-50795238D02*
X104264342Y-50842857D01*
X104264342Y-50842857D02*
X104359580Y-50890476D01*
X104359580Y-50890476D02*
X104407200Y-50938095D01*
X104407200Y-50938095D02*
X104454819Y-51033333D01*
X104454819Y-51033333D02*
X104454819Y-51128571D01*
X104454819Y-51128571D02*
X104407200Y-51223809D01*
X104407200Y-51223809D02*
X104359580Y-51271428D01*
X104359580Y-51271428D02*
X104264342Y-51319047D01*
X104264342Y-51319047D02*
X104073866Y-51366666D01*
X104073866Y-51366666D02*
X103835771Y-51366666D01*
X103835771Y-51366666D02*
X103645295Y-51319047D01*
X103645295Y-51319047D02*
X103550057Y-51271428D01*
X103550057Y-51271428D02*
X103502438Y-51223809D01*
X103502438Y-51223809D02*
X103454819Y-51128571D01*
X103454819Y-50176190D02*
X103454819Y-50080952D01*
X103454819Y-50080952D02*
X103502438Y-49985714D01*
X103502438Y-49985714D02*
X103550057Y-49938095D01*
X103550057Y-49938095D02*
X103645295Y-49890476D01*
X103645295Y-49890476D02*
X103835771Y-49842857D01*
X103835771Y-49842857D02*
X104073866Y-49842857D01*
X104073866Y-49842857D02*
X104264342Y-49890476D01*
X104264342Y-49890476D02*
X104359580Y-49938095D01*
X104359580Y-49938095D02*
X104407200Y-49985714D01*
X104407200Y-49985714D02*
X104454819Y-50080952D01*
X104454819Y-50080952D02*
X104454819Y-50176190D01*
X104454819Y-50176190D02*
X104407200Y-50271428D01*
X104407200Y-50271428D02*
X104359580Y-50319047D01*
X104359580Y-50319047D02*
X104264342Y-50366666D01*
X104264342Y-50366666D02*
X104073866Y-50414285D01*
X104073866Y-50414285D02*
X103835771Y-50414285D01*
X103835771Y-50414285D02*
X103645295Y-50366666D01*
X103645295Y-50366666D02*
X103550057Y-50319047D01*
X103550057Y-50319047D02*
X103502438Y-50271428D01*
X103502438Y-50271428D02*
X103454819Y-50176190D01*
X103788152Y-48985714D02*
X104454819Y-48985714D01*
X103788152Y-49414285D02*
X104311961Y-49414285D01*
X104311961Y-49414285D02*
X104407200Y-49366666D01*
X104407200Y-49366666D02*
X104454819Y-49271428D01*
X104454819Y-49271428D02*
X104454819Y-49128571D01*
X104454819Y-49128571D02*
X104407200Y-49033333D01*
X104407200Y-49033333D02*
X104359580Y-48985714D01*
X103931009Y-48176190D02*
X103931009Y-48509523D01*
X104454819Y-48509523D02*
X103454819Y-48509523D01*
X103454819Y-48509523D02*
X103454819Y-48033333D01*
X147029580Y-54456666D02*
X147077200Y-54504285D01*
X147077200Y-54504285D02*
X147124819Y-54647142D01*
X147124819Y-54647142D02*
X147124819Y-54742380D01*
X147124819Y-54742380D02*
X147077200Y-54885237D01*
X147077200Y-54885237D02*
X146981961Y-54980475D01*
X146981961Y-54980475D02*
X146886723Y-55028094D01*
X146886723Y-55028094D02*
X146696247Y-55075713D01*
X146696247Y-55075713D02*
X146553390Y-55075713D01*
X146553390Y-55075713D02*
X146362914Y-55028094D01*
X146362914Y-55028094D02*
X146267676Y-54980475D01*
X146267676Y-54980475D02*
X146172438Y-54885237D01*
X146172438Y-54885237D02*
X146124819Y-54742380D01*
X146124819Y-54742380D02*
X146124819Y-54647142D01*
X146124819Y-54647142D02*
X146172438Y-54504285D01*
X146172438Y-54504285D02*
X146220057Y-54456666D01*
X146124819Y-53551904D02*
X146124819Y-54028094D01*
X146124819Y-54028094D02*
X146601009Y-54075713D01*
X146601009Y-54075713D02*
X146553390Y-54028094D01*
X146553390Y-54028094D02*
X146505771Y-53932856D01*
X146505771Y-53932856D02*
X146505771Y-53694761D01*
X146505771Y-53694761D02*
X146553390Y-53599523D01*
X146553390Y-53599523D02*
X146601009Y-53551904D01*
X146601009Y-53551904D02*
X146696247Y-53504285D01*
X146696247Y-53504285D02*
X146934342Y-53504285D01*
X146934342Y-53504285D02*
X147029580Y-53551904D01*
X147029580Y-53551904D02*
X147077200Y-53599523D01*
X147077200Y-53599523D02*
X147124819Y-53694761D01*
X147124819Y-53694761D02*
X147124819Y-53932856D01*
X147124819Y-53932856D02*
X147077200Y-54028094D01*
X147077200Y-54028094D02*
X147029580Y-54075713D01*
X140624819Y-54885238D02*
X140624819Y-55456666D01*
X140624819Y-55170952D02*
X139624819Y-55170952D01*
X139624819Y-55170952D02*
X139767676Y-55266190D01*
X139767676Y-55266190D02*
X139862914Y-55361428D01*
X139862914Y-55361428D02*
X139910533Y-55456666D01*
X139958152Y-54028095D02*
X140624819Y-54028095D01*
X139958152Y-54456666D02*
X140481961Y-54456666D01*
X140481961Y-54456666D02*
X140577200Y-54409047D01*
X140577200Y-54409047D02*
X140624819Y-54313809D01*
X140624819Y-54313809D02*
X140624819Y-54170952D01*
X140624819Y-54170952D02*
X140577200Y-54075714D01*
X140577200Y-54075714D02*
X140529580Y-54028095D01*
X140101009Y-53218571D02*
X140101009Y-53551904D01*
X140624819Y-53551904D02*
X139624819Y-53551904D01*
X139624819Y-53551904D02*
X139624819Y-53075714D01*
X99843333Y-71489580D02*
X99795714Y-71537200D01*
X99795714Y-71537200D02*
X99652857Y-71584819D01*
X99652857Y-71584819D02*
X99557619Y-71584819D01*
X99557619Y-71584819D02*
X99414762Y-71537200D01*
X99414762Y-71537200D02*
X99319524Y-71441961D01*
X99319524Y-71441961D02*
X99271905Y-71346723D01*
X99271905Y-71346723D02*
X99224286Y-71156247D01*
X99224286Y-71156247D02*
X99224286Y-71013390D01*
X99224286Y-71013390D02*
X99271905Y-70822914D01*
X99271905Y-70822914D02*
X99319524Y-70727676D01*
X99319524Y-70727676D02*
X99414762Y-70632438D01*
X99414762Y-70632438D02*
X99557619Y-70584819D01*
X99557619Y-70584819D02*
X99652857Y-70584819D01*
X99652857Y-70584819D02*
X99795714Y-70632438D01*
X99795714Y-70632438D02*
X99843333Y-70680057D01*
X100176667Y-70584819D02*
X100795714Y-70584819D01*
X100795714Y-70584819D02*
X100462381Y-70965771D01*
X100462381Y-70965771D02*
X100605238Y-70965771D01*
X100605238Y-70965771D02*
X100700476Y-71013390D01*
X100700476Y-71013390D02*
X100748095Y-71061009D01*
X100748095Y-71061009D02*
X100795714Y-71156247D01*
X100795714Y-71156247D02*
X100795714Y-71394342D01*
X100795714Y-71394342D02*
X100748095Y-71489580D01*
X100748095Y-71489580D02*
X100700476Y-71537200D01*
X100700476Y-71537200D02*
X100605238Y-71584819D01*
X100605238Y-71584819D02*
X100319524Y-71584819D01*
X100319524Y-71584819D02*
X100224286Y-71537200D01*
X100224286Y-71537200D02*
X100176667Y-71489580D01*
X100333333Y-77938152D02*
X100333333Y-78604819D01*
X100095238Y-77557200D02*
X99857143Y-78271485D01*
X99857143Y-78271485D02*
X100476190Y-78271485D01*
X100761905Y-77604819D02*
X101428571Y-77604819D01*
X101428571Y-77604819D02*
X101000000Y-78604819D01*
X102238095Y-77938152D02*
X102238095Y-78604819D01*
X101809524Y-77938152D02*
X101809524Y-78461961D01*
X101809524Y-78461961D02*
X101857143Y-78557200D01*
X101857143Y-78557200D02*
X101952381Y-78604819D01*
X101952381Y-78604819D02*
X102095238Y-78604819D01*
X102095238Y-78604819D02*
X102190476Y-78557200D01*
X102190476Y-78557200D02*
X102238095Y-78509580D01*
X103047619Y-78081009D02*
X102714286Y-78081009D01*
X102714286Y-78604819D02*
X102714286Y-77604819D01*
X102714286Y-77604819D02*
X103190476Y-77604819D01*
X119013333Y-60804819D02*
X118680000Y-60328628D01*
X118441905Y-60804819D02*
X118441905Y-59804819D01*
X118441905Y-59804819D02*
X118822857Y-59804819D01*
X118822857Y-59804819D02*
X118918095Y-59852438D01*
X118918095Y-59852438D02*
X118965714Y-59900057D01*
X118965714Y-59900057D02*
X119013333Y-59995295D01*
X119013333Y-59995295D02*
X119013333Y-60138152D01*
X119013333Y-60138152D02*
X118965714Y-60233390D01*
X118965714Y-60233390D02*
X118918095Y-60281009D01*
X118918095Y-60281009D02*
X118822857Y-60328628D01*
X118822857Y-60328628D02*
X118441905Y-60328628D01*
X119346667Y-59804819D02*
X120013333Y-59804819D01*
X120013333Y-59804819D02*
X119584762Y-60804819D01*
X113101904Y-60854819D02*
X112530476Y-60854819D01*
X112816190Y-60854819D02*
X112816190Y-59854819D01*
X112816190Y-59854819D02*
X112720952Y-59997676D01*
X112720952Y-59997676D02*
X112625714Y-60092914D01*
X112625714Y-60092914D02*
X112530476Y-60140533D01*
X113530476Y-60854819D02*
X113530476Y-59854819D01*
X114101904Y-60854819D02*
X113673333Y-60283390D01*
X114101904Y-59854819D02*
X113530476Y-60426247D01*
X138304819Y-53931904D02*
X139114342Y-53931904D01*
X139114342Y-53931904D02*
X139209580Y-53884285D01*
X139209580Y-53884285D02*
X139257200Y-53836666D01*
X139257200Y-53836666D02*
X139304819Y-53741428D01*
X139304819Y-53741428D02*
X139304819Y-53550952D01*
X139304819Y-53550952D02*
X139257200Y-53455714D01*
X139257200Y-53455714D02*
X139209580Y-53408095D01*
X139209580Y-53408095D02*
X139114342Y-53360476D01*
X139114342Y-53360476D02*
X138304819Y-53360476D01*
X138400057Y-52931904D02*
X138352438Y-52884285D01*
X138352438Y-52884285D02*
X138304819Y-52789047D01*
X138304819Y-52789047D02*
X138304819Y-52550952D01*
X138304819Y-52550952D02*
X138352438Y-52455714D01*
X138352438Y-52455714D02*
X138400057Y-52408095D01*
X138400057Y-52408095D02*
X138495295Y-52360476D01*
X138495295Y-52360476D02*
X138590533Y-52360476D01*
X138590533Y-52360476D02*
X138733390Y-52408095D01*
X138733390Y-52408095D02*
X139304819Y-52979523D01*
X139304819Y-52979523D02*
X139304819Y-52360476D01*
X117823333Y-55554819D02*
X117823333Y-54554819D01*
X117823333Y-54554819D02*
X118156666Y-55269104D01*
X118156666Y-55269104D02*
X118489999Y-54554819D01*
X118489999Y-54554819D02*
X118489999Y-55554819D01*
X118918571Y-55269104D02*
X119394761Y-55269104D01*
X118823333Y-55554819D02*
X119156666Y-54554819D01*
X119156666Y-54554819D02*
X119489999Y-55554819D01*
X119728095Y-54554819D02*
X120394761Y-55554819D01*
X120394761Y-54554819D02*
X119728095Y-55554819D01*
X120728095Y-54650057D02*
X120775714Y-54602438D01*
X120775714Y-54602438D02*
X120870952Y-54554819D01*
X120870952Y-54554819D02*
X121109047Y-54554819D01*
X121109047Y-54554819D02*
X121204285Y-54602438D01*
X121204285Y-54602438D02*
X121251904Y-54650057D01*
X121251904Y-54650057D02*
X121299523Y-54745295D01*
X121299523Y-54745295D02*
X121299523Y-54840533D01*
X121299523Y-54840533D02*
X121251904Y-54983390D01*
X121251904Y-54983390D02*
X120680476Y-55554819D01*
X120680476Y-55554819D02*
X121299523Y-55554819D01*
X121632857Y-54554819D02*
X122251904Y-54554819D01*
X122251904Y-54554819D02*
X121918571Y-54935771D01*
X121918571Y-54935771D02*
X122061428Y-54935771D01*
X122061428Y-54935771D02*
X122156666Y-54983390D01*
X122156666Y-54983390D02*
X122204285Y-55031009D01*
X122204285Y-55031009D02*
X122251904Y-55126247D01*
X122251904Y-55126247D02*
X122251904Y-55364342D01*
X122251904Y-55364342D02*
X122204285Y-55459580D01*
X122204285Y-55459580D02*
X122156666Y-55507200D01*
X122156666Y-55507200D02*
X122061428Y-55554819D01*
X122061428Y-55554819D02*
X121775714Y-55554819D01*
X121775714Y-55554819D02*
X121680476Y-55507200D01*
X121680476Y-55507200D02*
X121632857Y-55459580D01*
X122632857Y-54650057D02*
X122680476Y-54602438D01*
X122680476Y-54602438D02*
X122775714Y-54554819D01*
X122775714Y-54554819D02*
X123013809Y-54554819D01*
X123013809Y-54554819D02*
X123109047Y-54602438D01*
X123109047Y-54602438D02*
X123156666Y-54650057D01*
X123156666Y-54650057D02*
X123204285Y-54745295D01*
X123204285Y-54745295D02*
X123204285Y-54840533D01*
X123204285Y-54840533D02*
X123156666Y-54983390D01*
X123156666Y-54983390D02*
X122585238Y-55554819D01*
X122585238Y-55554819D02*
X123204285Y-55554819D01*
X154809580Y-49766666D02*
X154857200Y-49814285D01*
X154857200Y-49814285D02*
X154904819Y-49957142D01*
X154904819Y-49957142D02*
X154904819Y-50052380D01*
X154904819Y-50052380D02*
X154857200Y-50195237D01*
X154857200Y-50195237D02*
X154761961Y-50290475D01*
X154761961Y-50290475D02*
X154666723Y-50338094D01*
X154666723Y-50338094D02*
X154476247Y-50385713D01*
X154476247Y-50385713D02*
X154333390Y-50385713D01*
X154333390Y-50385713D02*
X154142914Y-50338094D01*
X154142914Y-50338094D02*
X154047676Y-50290475D01*
X154047676Y-50290475D02*
X153952438Y-50195237D01*
X153952438Y-50195237D02*
X153904819Y-50052380D01*
X153904819Y-50052380D02*
X153904819Y-49957142D01*
X153904819Y-49957142D02*
X153952438Y-49814285D01*
X153952438Y-49814285D02*
X154000057Y-49766666D01*
X153904819Y-48909523D02*
X153904819Y-49099999D01*
X153904819Y-49099999D02*
X153952438Y-49195237D01*
X153952438Y-49195237D02*
X154000057Y-49242856D01*
X154000057Y-49242856D02*
X154142914Y-49338094D01*
X154142914Y-49338094D02*
X154333390Y-49385713D01*
X154333390Y-49385713D02*
X154714342Y-49385713D01*
X154714342Y-49385713D02*
X154809580Y-49338094D01*
X154809580Y-49338094D02*
X154857200Y-49290475D01*
X154857200Y-49290475D02*
X154904819Y-49195237D01*
X154904819Y-49195237D02*
X154904819Y-49004761D01*
X154904819Y-49004761D02*
X154857200Y-48909523D01*
X154857200Y-48909523D02*
X154809580Y-48861904D01*
X154809580Y-48861904D02*
X154714342Y-48814285D01*
X154714342Y-48814285D02*
X154476247Y-48814285D01*
X154476247Y-48814285D02*
X154381009Y-48861904D01*
X154381009Y-48861904D02*
X154333390Y-48909523D01*
X154333390Y-48909523D02*
X154285771Y-49004761D01*
X154285771Y-49004761D02*
X154285771Y-49195237D01*
X154285771Y-49195237D02*
X154333390Y-49290475D01*
X154333390Y-49290475D02*
X154381009Y-49338094D01*
X154381009Y-49338094D02*
X154476247Y-49385713D01*
X148554819Y-50145238D02*
X148554819Y-50716666D01*
X148554819Y-50430952D02*
X147554819Y-50430952D01*
X147554819Y-50430952D02*
X147697676Y-50526190D01*
X147697676Y-50526190D02*
X147792914Y-50621428D01*
X147792914Y-50621428D02*
X147840533Y-50716666D01*
X147888152Y-49288095D02*
X148554819Y-49288095D01*
X147888152Y-49716666D02*
X148411961Y-49716666D01*
X148411961Y-49716666D02*
X148507200Y-49669047D01*
X148507200Y-49669047D02*
X148554819Y-49573809D01*
X148554819Y-49573809D02*
X148554819Y-49430952D01*
X148554819Y-49430952D02*
X148507200Y-49335714D01*
X148507200Y-49335714D02*
X148459580Y-49288095D01*
X148031009Y-48478571D02*
X148031009Y-48811904D01*
X148554819Y-48811904D02*
X147554819Y-48811904D01*
X147554819Y-48811904D02*
X147554819Y-48335714D01*
X134847142Y-61409580D02*
X134799523Y-61457200D01*
X134799523Y-61457200D02*
X134656666Y-61504819D01*
X134656666Y-61504819D02*
X134561428Y-61504819D01*
X134561428Y-61504819D02*
X134418571Y-61457200D01*
X134418571Y-61457200D02*
X134323333Y-61361961D01*
X134323333Y-61361961D02*
X134275714Y-61266723D01*
X134275714Y-61266723D02*
X134228095Y-61076247D01*
X134228095Y-61076247D02*
X134228095Y-60933390D01*
X134228095Y-60933390D02*
X134275714Y-60742914D01*
X134275714Y-60742914D02*
X134323333Y-60647676D01*
X134323333Y-60647676D02*
X134418571Y-60552438D01*
X134418571Y-60552438D02*
X134561428Y-60504819D01*
X134561428Y-60504819D02*
X134656666Y-60504819D01*
X134656666Y-60504819D02*
X134799523Y-60552438D01*
X134799523Y-60552438D02*
X134847142Y-60600057D01*
X135799523Y-61504819D02*
X135228095Y-61504819D01*
X135513809Y-61504819D02*
X135513809Y-60504819D01*
X135513809Y-60504819D02*
X135418571Y-60647676D01*
X135418571Y-60647676D02*
X135323333Y-60742914D01*
X135323333Y-60742914D02*
X135228095Y-60790533D01*
X136418571Y-60504819D02*
X136513809Y-60504819D01*
X136513809Y-60504819D02*
X136609047Y-60552438D01*
X136609047Y-60552438D02*
X136656666Y-60600057D01*
X136656666Y-60600057D02*
X136704285Y-60695295D01*
X136704285Y-60695295D02*
X136751904Y-60885771D01*
X136751904Y-60885771D02*
X136751904Y-61123866D01*
X136751904Y-61123866D02*
X136704285Y-61314342D01*
X136704285Y-61314342D02*
X136656666Y-61409580D01*
X136656666Y-61409580D02*
X136609047Y-61457200D01*
X136609047Y-61457200D02*
X136513809Y-61504819D01*
X136513809Y-61504819D02*
X136418571Y-61504819D01*
X136418571Y-61504819D02*
X136323333Y-61457200D01*
X136323333Y-61457200D02*
X136275714Y-61409580D01*
X136275714Y-61409580D02*
X136228095Y-61314342D01*
X136228095Y-61314342D02*
X136180476Y-61123866D01*
X136180476Y-61123866D02*
X136180476Y-60885771D01*
X136180476Y-60885771D02*
X136228095Y-60695295D01*
X136228095Y-60695295D02*
X136275714Y-60600057D01*
X136275714Y-60600057D02*
X136323333Y-60552438D01*
X136323333Y-60552438D02*
X136418571Y-60504819D01*
X133897143Y-58450057D02*
X133944762Y-58402438D01*
X133944762Y-58402438D02*
X134040000Y-58354819D01*
X134040000Y-58354819D02*
X134278095Y-58354819D01*
X134278095Y-58354819D02*
X134373333Y-58402438D01*
X134373333Y-58402438D02*
X134420952Y-58450057D01*
X134420952Y-58450057D02*
X134468571Y-58545295D01*
X134468571Y-58545295D02*
X134468571Y-58640533D01*
X134468571Y-58640533D02*
X134420952Y-58783390D01*
X134420952Y-58783390D02*
X133849524Y-59354819D01*
X133849524Y-59354819D02*
X134468571Y-59354819D01*
X135087619Y-58354819D02*
X135182857Y-58354819D01*
X135182857Y-58354819D02*
X135278095Y-58402438D01*
X135278095Y-58402438D02*
X135325714Y-58450057D01*
X135325714Y-58450057D02*
X135373333Y-58545295D01*
X135373333Y-58545295D02*
X135420952Y-58735771D01*
X135420952Y-58735771D02*
X135420952Y-58973866D01*
X135420952Y-58973866D02*
X135373333Y-59164342D01*
X135373333Y-59164342D02*
X135325714Y-59259580D01*
X135325714Y-59259580D02*
X135278095Y-59307200D01*
X135278095Y-59307200D02*
X135182857Y-59354819D01*
X135182857Y-59354819D02*
X135087619Y-59354819D01*
X135087619Y-59354819D02*
X134992381Y-59307200D01*
X134992381Y-59307200D02*
X134944762Y-59259580D01*
X134944762Y-59259580D02*
X134897143Y-59164342D01*
X134897143Y-59164342D02*
X134849524Y-58973866D01*
X134849524Y-58973866D02*
X134849524Y-58735771D01*
X134849524Y-58735771D02*
X134897143Y-58545295D01*
X134897143Y-58545295D02*
X134944762Y-58450057D01*
X134944762Y-58450057D02*
X134992381Y-58402438D01*
X134992381Y-58402438D02*
X135087619Y-58354819D01*
X135849524Y-58688152D02*
X135849524Y-59688152D01*
X135849524Y-58735771D02*
X135944762Y-58688152D01*
X135944762Y-58688152D02*
X136135238Y-58688152D01*
X136135238Y-58688152D02*
X136230476Y-58735771D01*
X136230476Y-58735771D02*
X136278095Y-58783390D01*
X136278095Y-58783390D02*
X136325714Y-58878628D01*
X136325714Y-58878628D02*
X136325714Y-59164342D01*
X136325714Y-59164342D02*
X136278095Y-59259580D01*
X136278095Y-59259580D02*
X136230476Y-59307200D01*
X136230476Y-59307200D02*
X136135238Y-59354819D01*
X136135238Y-59354819D02*
X135944762Y-59354819D01*
X135944762Y-59354819D02*
X135849524Y-59307200D01*
X137087619Y-58831009D02*
X136754286Y-58831009D01*
X136754286Y-59354819D02*
X136754286Y-58354819D01*
X136754286Y-58354819D02*
X137230476Y-58354819D01*
X156954819Y-65176666D02*
X156478628Y-65509999D01*
X156954819Y-65748094D02*
X155954819Y-65748094D01*
X155954819Y-65748094D02*
X155954819Y-65367142D01*
X155954819Y-65367142D02*
X156002438Y-65271904D01*
X156002438Y-65271904D02*
X156050057Y-65224285D01*
X156050057Y-65224285D02*
X156145295Y-65176666D01*
X156145295Y-65176666D02*
X156288152Y-65176666D01*
X156288152Y-65176666D02*
X156383390Y-65224285D01*
X156383390Y-65224285D02*
X156431009Y-65271904D01*
X156431009Y-65271904D02*
X156478628Y-65367142D01*
X156478628Y-65367142D02*
X156478628Y-65748094D01*
X156954819Y-64224285D02*
X156954819Y-64795713D01*
X156954819Y-64509999D02*
X155954819Y-64509999D01*
X155954819Y-64509999D02*
X156097676Y-64605237D01*
X156097676Y-64605237D02*
X156192914Y-64700475D01*
X156192914Y-64700475D02*
X156240533Y-64795713D01*
X156954819Y-59400476D02*
X156954819Y-59971904D01*
X156954819Y-59686190D02*
X155954819Y-59686190D01*
X155954819Y-59686190D02*
X156097676Y-59781428D01*
X156097676Y-59781428D02*
X156192914Y-59876666D01*
X156192914Y-59876666D02*
X156240533Y-59971904D01*
X156954819Y-58971904D02*
X155954819Y-58971904D01*
X156954819Y-58400476D02*
X156383390Y-58829047D01*
X155954819Y-58400476D02*
X156526247Y-58971904D01*
X119013333Y-62954819D02*
X118680000Y-62478628D01*
X118441905Y-62954819D02*
X118441905Y-61954819D01*
X118441905Y-61954819D02*
X118822857Y-61954819D01*
X118822857Y-61954819D02*
X118918095Y-62002438D01*
X118918095Y-62002438D02*
X118965714Y-62050057D01*
X118965714Y-62050057D02*
X119013333Y-62145295D01*
X119013333Y-62145295D02*
X119013333Y-62288152D01*
X119013333Y-62288152D02*
X118965714Y-62383390D01*
X118965714Y-62383390D02*
X118918095Y-62431009D01*
X118918095Y-62431009D02*
X118822857Y-62478628D01*
X118822857Y-62478628D02*
X118441905Y-62478628D01*
X119584762Y-62383390D02*
X119489524Y-62335771D01*
X119489524Y-62335771D02*
X119441905Y-62288152D01*
X119441905Y-62288152D02*
X119394286Y-62192914D01*
X119394286Y-62192914D02*
X119394286Y-62145295D01*
X119394286Y-62145295D02*
X119441905Y-62050057D01*
X119441905Y-62050057D02*
X119489524Y-62002438D01*
X119489524Y-62002438D02*
X119584762Y-61954819D01*
X119584762Y-61954819D02*
X119775238Y-61954819D01*
X119775238Y-61954819D02*
X119870476Y-62002438D01*
X119870476Y-62002438D02*
X119918095Y-62050057D01*
X119918095Y-62050057D02*
X119965714Y-62145295D01*
X119965714Y-62145295D02*
X119965714Y-62192914D01*
X119965714Y-62192914D02*
X119918095Y-62288152D01*
X119918095Y-62288152D02*
X119870476Y-62335771D01*
X119870476Y-62335771D02*
X119775238Y-62383390D01*
X119775238Y-62383390D02*
X119584762Y-62383390D01*
X119584762Y-62383390D02*
X119489524Y-62431009D01*
X119489524Y-62431009D02*
X119441905Y-62478628D01*
X119441905Y-62478628D02*
X119394286Y-62573866D01*
X119394286Y-62573866D02*
X119394286Y-62764342D01*
X119394286Y-62764342D02*
X119441905Y-62859580D01*
X119441905Y-62859580D02*
X119489524Y-62907200D01*
X119489524Y-62907200D02*
X119584762Y-62954819D01*
X119584762Y-62954819D02*
X119775238Y-62954819D01*
X119775238Y-62954819D02*
X119870476Y-62907200D01*
X119870476Y-62907200D02*
X119918095Y-62859580D01*
X119918095Y-62859580D02*
X119965714Y-62764342D01*
X119965714Y-62764342D02*
X119965714Y-62573866D01*
X119965714Y-62573866D02*
X119918095Y-62478628D01*
X119918095Y-62478628D02*
X119870476Y-62431009D01*
X119870476Y-62431009D02*
X119775238Y-62383390D01*
X113101904Y-63054819D02*
X112530476Y-63054819D01*
X112816190Y-63054819D02*
X112816190Y-62054819D01*
X112816190Y-62054819D02*
X112720952Y-62197676D01*
X112720952Y-62197676D02*
X112625714Y-62292914D01*
X112625714Y-62292914D02*
X112530476Y-62340533D01*
X113530476Y-63054819D02*
X113530476Y-62054819D01*
X114101904Y-63054819D02*
X113673333Y-62483390D01*
X114101904Y-62054819D02*
X113530476Y-62626247D01*
D12*
%TO.C,C8*%
X150510000Y-54490000D02*
X149279000Y-54490000D01*
X150510000Y-54530000D02*
X149283000Y-54530000D01*
X150510000Y-54570000D02*
X149288000Y-54570000D01*
X150510000Y-54610000D02*
X149294000Y-54610000D01*
X150510000Y-54650000D02*
X149300000Y-54650000D01*
X150510000Y-54690000D02*
X149308000Y-54690000D01*
X150510000Y-54730000D02*
X149316000Y-54730000D01*
X150510000Y-54770000D02*
X149325000Y-54770000D01*
X150510000Y-54810000D02*
X149334000Y-54810000D01*
X150510000Y-54850000D02*
X149345000Y-54850000D01*
X150510000Y-54890000D02*
X149356000Y-54890000D01*
X150510000Y-54930000D02*
X149368000Y-54930000D01*
X150510000Y-54970000D02*
X149382000Y-54970000D01*
X150510000Y-55011000D02*
X149396000Y-55011000D01*
X150510000Y-55051000D02*
X149410000Y-55051000D01*
X150510000Y-55091000D02*
X149426000Y-55091000D01*
X150510000Y-55131000D02*
X149443000Y-55131000D01*
X150510000Y-55171000D02*
X149461000Y-55171000D01*
X150510000Y-55211000D02*
X149480000Y-55211000D01*
X150510000Y-55251000D02*
X149499000Y-55251000D01*
X150510000Y-55291000D02*
X149520000Y-55291000D01*
X150510000Y-55331000D02*
X149542000Y-55331000D01*
X150510000Y-55371000D02*
X149565000Y-55371000D01*
X150510000Y-55411000D02*
X149590000Y-55411000D01*
X150510000Y-55451000D02*
X149615000Y-55451000D01*
X150510000Y-55491000D02*
X149642000Y-55491000D01*
X150510000Y-55531000D02*
X149670000Y-55531000D01*
X150510000Y-55571000D02*
X149700000Y-55571000D01*
X150510000Y-55611000D02*
X149731000Y-55611000D01*
X150510000Y-55651000D02*
X149763000Y-55651000D01*
X150510000Y-55691000D02*
X149798000Y-55691000D01*
X150510000Y-55731000D02*
X149834000Y-55731000D01*
X150510000Y-55771000D02*
X149872000Y-55771000D01*
X150510000Y-55811000D02*
X149912000Y-55811000D01*
X150510000Y-55851000D02*
X149954000Y-55851000D01*
X150510000Y-55891000D02*
X149999000Y-55891000D01*
X150510000Y-55931000D02*
X150046000Y-55931000D01*
X150510000Y-55971000D02*
X150096000Y-55971000D01*
X150510000Y-56011000D02*
X150150000Y-56011000D01*
X150510000Y-56051000D02*
X150208000Y-56051000D01*
X150510000Y-56091000D02*
X150270000Y-56091000D01*
X151720000Y-56371000D02*
X150980000Y-56371000D01*
X151887000Y-56331000D02*
X150813000Y-56331000D01*
X152014000Y-56291000D02*
X150686000Y-56291000D01*
X152118000Y-56251000D02*
X150582000Y-56251000D01*
X152209000Y-56211000D02*
X150491000Y-56211000D01*
X152290000Y-56171000D02*
X150410000Y-56171000D01*
X152363000Y-56131000D02*
X150337000Y-56131000D01*
X152430000Y-56091000D02*
X152190000Y-56091000D01*
X152492000Y-56051000D02*
X152190000Y-56051000D01*
X152545000Y-52020199D02*
X152545000Y-52420199D01*
X152550000Y-56011000D02*
X152190000Y-56011000D01*
X152604000Y-55971000D02*
X152190000Y-55971000D01*
X152654000Y-55931000D02*
X152190000Y-55931000D01*
X152701000Y-55891000D02*
X152190000Y-55891000D01*
X152745000Y-52220199D02*
X152345000Y-52220199D01*
X152746000Y-55851000D02*
X152190000Y-55851000D01*
X152788000Y-55811000D02*
X152190000Y-55811000D01*
X152828000Y-55771000D02*
X152190000Y-55771000D01*
X152866000Y-55731000D02*
X152190000Y-55731000D01*
X152902000Y-55691000D02*
X152190000Y-55691000D01*
X152937000Y-55651000D02*
X152190000Y-55651000D01*
X152969000Y-55611000D02*
X152190000Y-55611000D01*
X153000000Y-55571000D02*
X152190000Y-55571000D01*
X153030000Y-55531000D02*
X152190000Y-55531000D01*
X153058000Y-55491000D02*
X152190000Y-55491000D01*
X153085000Y-55451000D02*
X152190000Y-55451000D01*
X153110000Y-55411000D02*
X152190000Y-55411000D01*
X153135000Y-55371000D02*
X152190000Y-55371000D01*
X153158000Y-55331000D02*
X152190000Y-55331000D01*
X153180000Y-55291000D02*
X152190000Y-55291000D01*
X153201000Y-55251000D02*
X152190000Y-55251000D01*
X153220000Y-55211000D02*
X152190000Y-55211000D01*
X153239000Y-55171000D02*
X152190000Y-55171000D01*
X153257000Y-55131000D02*
X152190000Y-55131000D01*
X153274000Y-55091000D02*
X152190000Y-55091000D01*
X153290000Y-55051000D02*
X152190000Y-55051000D01*
X153304000Y-55011000D02*
X152190000Y-55011000D01*
X153318000Y-54970000D02*
X152190000Y-54970000D01*
X153332000Y-54930000D02*
X152190000Y-54930000D01*
X153344000Y-54890000D02*
X152190000Y-54890000D01*
X153355000Y-54850000D02*
X152190000Y-54850000D01*
X153366000Y-54810000D02*
X152190000Y-54810000D01*
X153375000Y-54770000D02*
X152190000Y-54770000D01*
X153384000Y-54730000D02*
X152190000Y-54730000D01*
X153392000Y-54690000D02*
X152190000Y-54690000D01*
X153400000Y-54650000D02*
X152190000Y-54650000D01*
X153406000Y-54610000D02*
X152190000Y-54610000D01*
X153412000Y-54570000D02*
X152190000Y-54570000D01*
X153417000Y-54530000D02*
X152190000Y-54530000D01*
X153421000Y-54490000D02*
X152190000Y-54490000D01*
X153424000Y-54450000D02*
X149276000Y-54450000D01*
X153427000Y-54410000D02*
X149273000Y-54410000D01*
X153429000Y-54370000D02*
X149271000Y-54370000D01*
X153430000Y-54290000D02*
X149270000Y-54290000D01*
X153430000Y-54330000D02*
X149270000Y-54330000D01*
X153470000Y-54290000D02*
G75*
G02*
X149230000Y-54290000I-2120000J0D01*
G01*
X149230000Y-54290000D02*
G75*
G02*
X153470000Y-54290000I2120000J0D01*
G01*
D13*
%TO.C,G1*%
G36*
X111288969Y-73226727D02*
G01*
X111299454Y-73226772D01*
X111337151Y-73227102D01*
X111367686Y-73227429D01*
X111392016Y-73227821D01*
X111411098Y-73228344D01*
X111425888Y-73229064D01*
X111437344Y-73230048D01*
X111446421Y-73231363D01*
X111454077Y-73233075D01*
X111461269Y-73235250D01*
X111468952Y-73237956D01*
X111471022Y-73238709D01*
X111499787Y-73250254D01*
X111523848Y-73262727D01*
X111546012Y-73277876D01*
X111569091Y-73297452D01*
X111576702Y-73304534D01*
X111613789Y-73342099D01*
X111644151Y-73378615D01*
X111668798Y-73415502D01*
X111688740Y-73454178D01*
X111696687Y-73473155D01*
X111702754Y-73488590D01*
X111708361Y-73502746D01*
X111711956Y-73511720D01*
X111715570Y-73520718D01*
X111717554Y-73525832D01*
X111717588Y-73525928D01*
X111719648Y-73531001D01*
X111720971Y-73534047D01*
X111722681Y-73538802D01*
X111726775Y-73550632D01*
X111733044Y-73568918D01*
X111741277Y-73593040D01*
X111751263Y-73622380D01*
X111762792Y-73656320D01*
X111775654Y-73694240D01*
X111789638Y-73735523D01*
X111804534Y-73779548D01*
X111818972Y-73822268D01*
X111835386Y-73870838D01*
X111851727Y-73919160D01*
X111867702Y-73966371D01*
X111883019Y-74011606D01*
X111897385Y-74054002D01*
X111910506Y-74092694D01*
X111922091Y-74126819D01*
X111931846Y-74155511D01*
X111939479Y-74177909D01*
X111943002Y-74188212D01*
X111956696Y-74229697D01*
X111967013Y-74264951D01*
X111974034Y-74295087D01*
X111977846Y-74321218D01*
X111978530Y-74344455D01*
X111976171Y-74365912D01*
X111970853Y-74386702D01*
X111962659Y-74407937D01*
X111959981Y-74413855D01*
X111948103Y-74432951D01*
X111930383Y-74453138D01*
X111908618Y-74472757D01*
X111884606Y-74490148D01*
X111865476Y-74501099D01*
X111855294Y-74506224D01*
X111846180Y-74510698D01*
X111837530Y-74514573D01*
X111828743Y-74517898D01*
X111819214Y-74520723D01*
X111808342Y-74523098D01*
X111795525Y-74525075D01*
X111780158Y-74526702D01*
X111761641Y-74528029D01*
X111739370Y-74529108D01*
X111712742Y-74529988D01*
X111681155Y-74530719D01*
X111644007Y-74531351D01*
X111600695Y-74531935D01*
X111550615Y-74532520D01*
X111493166Y-74533158D01*
X111478070Y-74533325D01*
X111439474Y-74533722D01*
X111393439Y-74534137D01*
X111340644Y-74534566D01*
X111281768Y-74535004D01*
X111217492Y-74535449D01*
X111148495Y-74535896D01*
X111075457Y-74536341D01*
X110999056Y-74536781D01*
X110919972Y-74537210D01*
X110838886Y-74537627D01*
X110756476Y-74538025D01*
X110673422Y-74538402D01*
X110590403Y-74538754D01*
X110508100Y-74539076D01*
X110451961Y-74539280D01*
X110356290Y-74539629D01*
X110268507Y-74539980D01*
X110188379Y-74540335D01*
X110115674Y-74540697D01*
X110050162Y-74541067D01*
X109991610Y-74541449D01*
X109939787Y-74541843D01*
X109894460Y-74542254D01*
X109855399Y-74542682D01*
X109822372Y-74543130D01*
X109795146Y-74543601D01*
X109773490Y-74544097D01*
X109757173Y-74544620D01*
X109745962Y-74545172D01*
X109739627Y-74545756D01*
X109737927Y-74546366D01*
X109739790Y-74550933D01*
X109743954Y-74562549D01*
X109750194Y-74580546D01*
X109758284Y-74604258D01*
X109767999Y-74633018D01*
X109779115Y-74666158D01*
X109791406Y-74703012D01*
X109804647Y-74742912D01*
X109818613Y-74785192D01*
X109821533Y-74794057D01*
X109901583Y-75037175D01*
X110675618Y-75035595D01*
X110768796Y-75035406D01*
X110854206Y-75035240D01*
X110932199Y-75035097D01*
X111003126Y-75034982D01*
X111067340Y-75034897D01*
X111125190Y-75034844D01*
X111177027Y-75034826D01*
X111223204Y-75034847D01*
X111264071Y-75034908D01*
X111299978Y-75035012D01*
X111331278Y-75035163D01*
X111358322Y-75035362D01*
X111381459Y-75035612D01*
X111401043Y-75035917D01*
X111417423Y-75036279D01*
X111430951Y-75036701D01*
X111441977Y-75037184D01*
X111450854Y-75037733D01*
X111457932Y-75038350D01*
X111463562Y-75039037D01*
X111468096Y-75039797D01*
X111471884Y-75040633D01*
X111475278Y-75041548D01*
X111476040Y-75041770D01*
X111512892Y-75055286D01*
X111547599Y-75073879D01*
X111581758Y-75098519D01*
X111609372Y-75122867D01*
X111627396Y-75142406D01*
X111645444Y-75167103D01*
X111663818Y-75197505D01*
X111682817Y-75234156D01*
X111702744Y-75277601D01*
X111723898Y-75328387D01*
X111727105Y-75336444D01*
X111736771Y-75360663D01*
X111746192Y-75383920D01*
X111754662Y-75404505D01*
X111761481Y-75420706D01*
X111765479Y-75429812D01*
X111771370Y-75443180D01*
X111779050Y-75461346D01*
X111787362Y-75481542D01*
X111792679Y-75494763D01*
X111799863Y-75512354D01*
X111806344Y-75527381D01*
X111811341Y-75538086D01*
X111813833Y-75542461D01*
X111816154Y-75546801D01*
X111815408Y-75547536D01*
X111815327Y-75550417D01*
X111818573Y-75556670D01*
X111821546Y-75562743D01*
X111827143Y-75575512D01*
X111835020Y-75594115D01*
X111844829Y-75617691D01*
X111856226Y-75645379D01*
X111868864Y-75676319D01*
X111882397Y-75709649D01*
X111896480Y-75744508D01*
X111910767Y-75780036D01*
X111924911Y-75815372D01*
X111938568Y-75849654D01*
X111951391Y-75882022D01*
X111963034Y-75911614D01*
X111973151Y-75937571D01*
X111981397Y-75959031D01*
X111987426Y-75975132D01*
X111990892Y-75985015D01*
X111991514Y-75987163D01*
X111995148Y-76011906D01*
X111995780Y-76039186D01*
X111993563Y-76065981D01*
X111988649Y-76089268D01*
X111985986Y-76096865D01*
X111969690Y-76126266D01*
X111946560Y-76151790D01*
X111917083Y-76173067D01*
X111881747Y-76189726D01*
X111851539Y-76199004D01*
X111841585Y-76200724D01*
X111826078Y-76202319D01*
X111804843Y-76203790D01*
X111777708Y-76205141D01*
X111744498Y-76206374D01*
X111705039Y-76207493D01*
X111659158Y-76208498D01*
X111606681Y-76209394D01*
X111547434Y-76210184D01*
X111481244Y-76210869D01*
X111407936Y-76211452D01*
X111327337Y-76211936D01*
X111239272Y-76212325D01*
X111143569Y-76212620D01*
X111040054Y-76212824D01*
X110956070Y-76212920D01*
X110894630Y-76212995D01*
X110834108Y-76213115D01*
X110775165Y-76213276D01*
X110718460Y-76213476D01*
X110664655Y-76213709D01*
X110614410Y-76213973D01*
X110568385Y-76214264D01*
X110527242Y-76214577D01*
X110491641Y-76214909D01*
X110462242Y-76215256D01*
X110439706Y-76215615D01*
X110425825Y-76215945D01*
X110340451Y-76218604D01*
X110392683Y-76375278D01*
X110404095Y-76409463D01*
X110414779Y-76441372D01*
X110424447Y-76470154D01*
X110432811Y-76494957D01*
X110439585Y-76514931D01*
X110444481Y-76529224D01*
X110447212Y-76536986D01*
X110447621Y-76538042D01*
X110450518Y-76545181D01*
X110451185Y-76547176D01*
X110453058Y-76552250D01*
X110454914Y-76557672D01*
X110455087Y-76558340D01*
X110456972Y-76565072D01*
X110457090Y-76565444D01*
X110457598Y-76571533D01*
X110460246Y-76574428D01*
X110461611Y-76574577D01*
X110464325Y-76577530D01*
X110463768Y-76580667D01*
X110463887Y-76585883D01*
X110465798Y-76586756D01*
X110468458Y-76589692D01*
X110467928Y-76592583D01*
X110467663Y-76598400D01*
X110468911Y-76599687D01*
X110470733Y-76603661D01*
X110474882Y-76614679D01*
X110481129Y-76632080D01*
X110489245Y-76655201D01*
X110499001Y-76683382D01*
X110510168Y-76715959D01*
X110522517Y-76752272D01*
X110535819Y-76791659D01*
X110549846Y-76833457D01*
X110551513Y-76838442D01*
X110575379Y-76909821D01*
X110598677Y-76979464D01*
X110621269Y-77046965D01*
X110643021Y-77111917D01*
X110663794Y-77173916D01*
X110683454Y-77232555D01*
X110701863Y-77287428D01*
X110718885Y-77338128D01*
X110734385Y-77384250D01*
X110748224Y-77425388D01*
X110760268Y-77461136D01*
X110770379Y-77491087D01*
X110778422Y-77514836D01*
X110784260Y-77531976D01*
X110787756Y-77542102D01*
X110788733Y-77544787D01*
X110791410Y-77551291D01*
X110792022Y-77552906D01*
X110793934Y-77558055D01*
X110795071Y-77561025D01*
X110797726Y-77568418D01*
X110801689Y-77579974D01*
X110803503Y-77585381D01*
X110807970Y-77598496D01*
X110813937Y-77615636D01*
X110820147Y-77633190D01*
X110820412Y-77633933D01*
X110834365Y-77678952D01*
X110844601Y-77724732D01*
X110850611Y-77768653D01*
X110852032Y-77796968D01*
X110851984Y-77817039D01*
X110851232Y-77831366D01*
X110849387Y-77842321D01*
X110846055Y-77852272D01*
X110841117Y-77863038D01*
X110833330Y-77877561D01*
X110825054Y-77890885D01*
X110820023Y-77897713D01*
X110804946Y-77911128D01*
X110783085Y-77924188D01*
X110755767Y-77936197D01*
X110730599Y-77944661D01*
X110721685Y-77947241D01*
X110713426Y-77949386D01*
X110704954Y-77951155D01*
X110695403Y-77952607D01*
X110683906Y-77953800D01*
X110669596Y-77954793D01*
X110651607Y-77955644D01*
X110629071Y-77956413D01*
X110601123Y-77957158D01*
X110566894Y-77957938D01*
X110525519Y-77958811D01*
X110520039Y-77958925D01*
X110501891Y-77959229D01*
X110475987Y-77959554D01*
X110442692Y-77959898D01*
X110402367Y-77960258D01*
X110355377Y-77960633D01*
X110302085Y-77961020D01*
X110242854Y-77961419D01*
X110178047Y-77961826D01*
X110108028Y-77962240D01*
X110033160Y-77962659D01*
X109953806Y-77963080D01*
X109870330Y-77963503D01*
X109783095Y-77963925D01*
X109692464Y-77964343D01*
X109598801Y-77964757D01*
X109502469Y-77965164D01*
X109403831Y-77965562D01*
X109303251Y-77965949D01*
X109201091Y-77966323D01*
X109097716Y-77966683D01*
X109060665Y-77966807D01*
X108954051Y-77967162D01*
X108847108Y-77967522D01*
X108740280Y-77967884D01*
X108634014Y-77968246D01*
X108528755Y-77968608D01*
X108424951Y-77968968D01*
X108323047Y-77969324D01*
X108223488Y-77969674D01*
X108126722Y-77970018D01*
X108033193Y-77970352D01*
X107943349Y-77970677D01*
X107857634Y-77970989D01*
X107776496Y-77971288D01*
X107700379Y-77971572D01*
X107629731Y-77971839D01*
X107564997Y-77972088D01*
X107506623Y-77972317D01*
X107455055Y-77972524D01*
X107410740Y-77972708D01*
X107375992Y-77972859D01*
X107316521Y-77973087D01*
X107259507Y-77973230D01*
X107205505Y-77973290D01*
X107155068Y-77973271D01*
X107108753Y-77973174D01*
X107067112Y-77973002D01*
X107030702Y-77972757D01*
X107000076Y-77972441D01*
X106975789Y-77972058D01*
X106958396Y-77971610D01*
X106948451Y-77971098D01*
X106947367Y-77970984D01*
X106901060Y-77962093D01*
X106852331Y-77947340D01*
X106803241Y-77927632D01*
X106755850Y-77903878D01*
X106712221Y-77876982D01*
X106681825Y-77854157D01*
X106639538Y-77816476D01*
X106602168Y-77777047D01*
X106567280Y-77733210D01*
X106554245Y-77714957D01*
X106541152Y-77695672D01*
X106529704Y-77677586D01*
X106519355Y-77659522D01*
X106509559Y-77640307D01*
X106499769Y-77618763D01*
X106489439Y-77593716D01*
X106478023Y-77563990D01*
X106464975Y-77528409D01*
X106456288Y-77504192D01*
X106444046Y-77469863D01*
X106430259Y-77431189D01*
X106415932Y-77390987D01*
X106402068Y-77352074D01*
X106389671Y-77317268D01*
X106386848Y-77309339D01*
X106377428Y-77282886D01*
X106368863Y-77258839D01*
X106361543Y-77238296D01*
X106355861Y-77222358D01*
X106352209Y-77212124D01*
X106351027Y-77208824D01*
X106349669Y-77203498D01*
X106349747Y-77202735D01*
X106348437Y-77198922D01*
X106344706Y-77191614D01*
X106340467Y-77183598D01*
X106338595Y-77179436D01*
X106336741Y-77174358D01*
X106335471Y-77171317D01*
X106334898Y-77169903D01*
X106333928Y-77167352D01*
X106332433Y-77163301D01*
X106330281Y-77157386D01*
X106327346Y-77149244D01*
X106323496Y-77138513D01*
X106318603Y-77124829D01*
X106312538Y-77107829D01*
X106305172Y-77087150D01*
X106296374Y-77062429D01*
X106286017Y-77033303D01*
X106273971Y-76999408D01*
X106260106Y-76960382D01*
X106244294Y-76915862D01*
X106226404Y-76865483D01*
X106206309Y-76808884D01*
X106183879Y-76745701D01*
X106158983Y-76675571D01*
X106133221Y-76602994D01*
X106116786Y-76556542D01*
X106100881Y-76511303D01*
X106085763Y-76468019D01*
X106071685Y-76427434D01*
X106058903Y-76390289D01*
X106047671Y-76357328D01*
X106038244Y-76329293D01*
X106030878Y-76306927D01*
X106025826Y-76290972D01*
X106023886Y-76284327D01*
X106016596Y-76256343D01*
X106012604Y-76239711D01*
X107579828Y-76239711D01*
X107580534Y-76243819D01*
X107583478Y-76254653D01*
X107588347Y-76271228D01*
X107594826Y-76292564D01*
X107602602Y-76317677D01*
X107611359Y-76345586D01*
X107620784Y-76375308D01*
X107630562Y-76405861D01*
X107640378Y-76436263D01*
X107649919Y-76465531D01*
X107658870Y-76492684D01*
X107666917Y-76516738D01*
X107673746Y-76536711D01*
X107679041Y-76551622D01*
X107682438Y-76560369D01*
X107685228Y-76567867D01*
X107689951Y-76581751D01*
X107696155Y-76600648D01*
X107703392Y-76623184D01*
X107711211Y-76647983D01*
X107713006Y-76653737D01*
X107738272Y-76734926D01*
X108234046Y-76733697D01*
X108299964Y-76733513D01*
X108365685Y-76733288D01*
X108430518Y-76733027D01*
X108493770Y-76732735D01*
X108554747Y-76732416D01*
X108612756Y-76732075D01*
X108667106Y-76731715D01*
X108717102Y-76731342D01*
X108762052Y-76730960D01*
X108801264Y-76730573D01*
X108834043Y-76730185D01*
X108859698Y-76729802D01*
X108868458Y-76729638D01*
X109007096Y-76726807D01*
X108929465Y-76480232D01*
X108851835Y-76233658D01*
X108216415Y-76236214D01*
X108145244Y-76236506D01*
X108076298Y-76236801D01*
X108010013Y-76237095D01*
X107946825Y-76237387D01*
X107887168Y-76237675D01*
X107831479Y-76237955D01*
X107780193Y-76238225D01*
X107733745Y-76238484D01*
X107692570Y-76238728D01*
X107657105Y-76238955D01*
X107627784Y-76239164D01*
X107605044Y-76239350D01*
X107589318Y-76239513D01*
X107581044Y-76239650D01*
X107579828Y-76239711D01*
X106012604Y-76239711D01*
X106010483Y-76230875D01*
X106005773Y-76209029D01*
X106002693Y-76191916D01*
X106001470Y-76180644D01*
X106001929Y-76176651D01*
X106001192Y-76171786D01*
X105999903Y-76170703D01*
X105998155Y-76165687D01*
X105996814Y-76153908D01*
X105995990Y-76136713D01*
X105995778Y-76120244D01*
X105997694Y-76078277D01*
X106003166Y-76037091D01*
X106011784Y-75998938D01*
X106023134Y-75966073D01*
X106024558Y-75962818D01*
X106030447Y-75948927D01*
X106034680Y-75937482D01*
X106036370Y-75930891D01*
X106036372Y-75930776D01*
X106038690Y-75925621D01*
X106040432Y-75925065D01*
X106044081Y-75921798D01*
X106044491Y-75919266D01*
X106047103Y-75911456D01*
X106049586Y-75908102D01*
X106054354Y-75902157D01*
X106061976Y-75891703D01*
X106070812Y-75878994D01*
X106070898Y-75878868D01*
X106090067Y-75855112D01*
X106115018Y-75830896D01*
X106143708Y-75807931D01*
X106174095Y-75787925D01*
X106190010Y-75779197D01*
X106199900Y-75773787D01*
X106205620Y-75769889D01*
X106206245Y-75768828D01*
X106201965Y-75767738D01*
X106191038Y-75765629D01*
X106174836Y-75762750D01*
X106154734Y-75759345D01*
X106139885Y-75756912D01*
X106115828Y-75752759D01*
X106092738Y-75748305D01*
X106072639Y-75743973D01*
X106057557Y-75740186D01*
X106052610Y-75738657D01*
X106034947Y-75732720D01*
X106015812Y-75726566D01*
X106007956Y-75724137D01*
X105977560Y-75712528D01*
X105944226Y-75695684D01*
X105909898Y-75674856D01*
X105876524Y-75651293D01*
X105846051Y-75626246D01*
X105826809Y-75607798D01*
X105809074Y-75587663D01*
X105790166Y-75563235D01*
X105771670Y-75536816D01*
X105755168Y-75510708D01*
X105742244Y-75487212D01*
X105738751Y-75479790D01*
X105734798Y-75469919D01*
X105728694Y-75453451D01*
X105720830Y-75431499D01*
X105711598Y-75405175D01*
X105701389Y-75375592D01*
X105690594Y-75343863D01*
X105683066Y-75321471D01*
X105672568Y-75290098D01*
X105662865Y-75261125D01*
X105654263Y-75235462D01*
X105647069Y-75214022D01*
X105641588Y-75197719D01*
X105638128Y-75187463D01*
X105637015Y-75184215D01*
X105635386Y-75177066D01*
X105635350Y-75176550D01*
X105632226Y-75171247D01*
X105631137Y-75170445D01*
X105629251Y-75166299D01*
X105624992Y-75155026D01*
X105618561Y-75137201D01*
X105610154Y-75113398D01*
X105599973Y-75084192D01*
X105588214Y-75050158D01*
X105575077Y-75011870D01*
X105560762Y-74969902D01*
X105545466Y-74924829D01*
X105529389Y-74877225D01*
X105520673Y-74851324D01*
X105503575Y-74800516D01*
X105486669Y-74750396D01*
X105470212Y-74701719D01*
X105454462Y-74655244D01*
X105439676Y-74611726D01*
X105426112Y-74571924D01*
X105421594Y-74558713D01*
X106925106Y-74558713D01*
X106928790Y-74564701D01*
X106929218Y-74566120D01*
X106929280Y-74566736D01*
X106929337Y-74567269D01*
X106929589Y-74568340D01*
X106930237Y-74570567D01*
X106931480Y-74574572D01*
X106933519Y-74580973D01*
X106936553Y-74590391D01*
X106940783Y-74603445D01*
X106946408Y-74620756D01*
X106953630Y-74642943D01*
X106962648Y-74670626D01*
X106973662Y-74704424D01*
X106986872Y-74744958D01*
X106995743Y-74772180D01*
X107008626Y-74811724D01*
X107021181Y-74850281D01*
X107033096Y-74886890D01*
X107044057Y-74920592D01*
X107053754Y-74950425D01*
X107061873Y-74975430D01*
X107068103Y-74994646D01*
X107072132Y-75007114D01*
X107072161Y-75007206D01*
X107085741Y-75049408D01*
X107716986Y-75046441D01*
X107787919Y-75046101D01*
X107856625Y-75045757D01*
X107922667Y-75045413D01*
X107985607Y-75045072D01*
X108045010Y-75044735D01*
X108100439Y-75044407D01*
X108151456Y-75044090D01*
X108197624Y-75043786D01*
X108238507Y-75043499D01*
X108273668Y-75043232D01*
X108302670Y-75042987D01*
X108325076Y-75042766D01*
X108340449Y-75042574D01*
X108348353Y-75042413D01*
X108349366Y-75042346D01*
X108348452Y-75038354D01*
X108345338Y-75027535D01*
X108340300Y-75010794D01*
X108333617Y-74989036D01*
X108325565Y-74963166D01*
X108316422Y-74934088D01*
X108309350Y-74911773D01*
X108297141Y-74873347D01*
X108283609Y-74830729D01*
X108269511Y-74786299D01*
X108255602Y-74742439D01*
X108242636Y-74701529D01*
X108231370Y-74665950D01*
X108231265Y-74665620D01*
X108194330Y-74548910D01*
X107938405Y-74548913D01*
X107863550Y-74548952D01*
X107788627Y-74549064D01*
X107714070Y-74549246D01*
X107640317Y-74549493D01*
X107567803Y-74549802D01*
X107496965Y-74550167D01*
X107428239Y-74550584D01*
X107362062Y-74551050D01*
X107298868Y-74551560D01*
X107239095Y-74552110D01*
X107183179Y-74552696D01*
X107131556Y-74553313D01*
X107084662Y-74553957D01*
X107042932Y-74554625D01*
X107006805Y-74555311D01*
X106976715Y-74556012D01*
X106953098Y-74556723D01*
X106936392Y-74557440D01*
X106927032Y-74558159D01*
X106925106Y-74558713D01*
X105421594Y-74558713D01*
X105414029Y-74536593D01*
X105403682Y-74506490D01*
X105395331Y-74482373D01*
X105389232Y-74464998D01*
X105388031Y-74461632D01*
X105379110Y-74436612D01*
X105368306Y-74406049D01*
X105356366Y-74372077D01*
X105344041Y-74336833D01*
X105332080Y-74302451D01*
X105325407Y-74283174D01*
X105315683Y-74255281D01*
X105306621Y-74229777D01*
X105298608Y-74207712D01*
X105292031Y-74190134D01*
X105287274Y-74178093D01*
X105284726Y-74172636D01*
X105284663Y-74172554D01*
X105282405Y-74168134D01*
X105283344Y-74167322D01*
X105283709Y-74164824D01*
X105281314Y-74161232D01*
X105278480Y-74156323D01*
X105279284Y-74155143D01*
X105279979Y-74152640D01*
X105278438Y-74150069D01*
X105275497Y-74144029D01*
X105270657Y-74131663D01*
X105264405Y-74114407D01*
X105257226Y-74093696D01*
X105249604Y-74070965D01*
X105242028Y-74047649D01*
X105234981Y-74025183D01*
X105228950Y-74005003D01*
X105226899Y-73997778D01*
X105221380Y-73974492D01*
X105216061Y-73945906D01*
X105211313Y-73914706D01*
X105207510Y-73883580D01*
X105205024Y-73855214D01*
X105204221Y-73834278D01*
X105205024Y-73815319D01*
X105207267Y-73790830D01*
X105210623Y-73763203D01*
X105214768Y-73734833D01*
X105219376Y-73708113D01*
X105224120Y-73685438D01*
X105224902Y-73682217D01*
X105241276Y-73629292D01*
X105263959Y-73575329D01*
X105291865Y-73522641D01*
X105320564Y-73478203D01*
X105359118Y-73430712D01*
X105404027Y-73387443D01*
X105454396Y-73348963D01*
X105509329Y-73315844D01*
X105567930Y-73288653D01*
X105629305Y-73267961D01*
X105664855Y-73259361D01*
X105713646Y-73249223D01*
X108435509Y-73237395D01*
X108584920Y-73236748D01*
X108732710Y-73236114D01*
X108878653Y-73235493D01*
X109022526Y-73234886D01*
X109164103Y-73234294D01*
X109303160Y-73233718D01*
X109439471Y-73233158D01*
X109572814Y-73232616D01*
X109702961Y-73232092D01*
X109829689Y-73231587D01*
X109952774Y-73231102D01*
X110071989Y-73230638D01*
X110187112Y-73230195D01*
X110297915Y-73229775D01*
X110404177Y-73229378D01*
X110505670Y-73229005D01*
X110602171Y-73228657D01*
X110693455Y-73228335D01*
X110779297Y-73228039D01*
X110859472Y-73227771D01*
X110933756Y-73227531D01*
X111001923Y-73227320D01*
X111063750Y-73227138D01*
X111119012Y-73226988D01*
X111167483Y-73226869D01*
X111208939Y-73226783D01*
X111243155Y-73226730D01*
X111269907Y-73226711D01*
X111288969Y-73226727D01*
G37*
D14*
%TO.C,J1*%
X80700000Y-52975000D02*
X96200000Y-52975000D01*
X80700000Y-72975000D02*
X80700000Y-52975000D01*
X96200000Y-52975000D02*
X96200000Y-56525000D01*
X96200000Y-59475000D02*
X96200000Y-66475000D01*
X96200000Y-69425000D02*
X96200000Y-72975000D01*
X96200000Y-72975000D02*
X80700000Y-72975000D01*
D12*
%TO.C,J2*%
X158300000Y-54730000D02*
X171300000Y-54730000D01*
X158300000Y-70930000D02*
X158300000Y-54730000D01*
X158300000Y-70930000D02*
X171300000Y-70930000D01*
X171300000Y-70930000D02*
X171300000Y-54730000D01*
%TO.C,R2*%
X99620000Y-55350000D02*
X100570000Y-55350000D01*
X100570000Y-54430000D02*
X100570000Y-56270000D01*
X100570000Y-56270000D02*
X104410000Y-56270000D01*
X104410000Y-54430000D02*
X100570000Y-54430000D01*
X104410000Y-56270000D02*
X104410000Y-54430000D01*
X105360000Y-55350000D02*
X104410000Y-55350000D01*
%TO.C,C2*%
X150280000Y-71000000D02*
X150295000Y-71000000D01*
X150280000Y-75540000D02*
X150280000Y-71000000D01*
X150280000Y-75540000D02*
X150295000Y-75540000D01*
X152405000Y-71000000D02*
X152420000Y-71000000D01*
X152405000Y-75540000D02*
X152420000Y-75540000D01*
X152420000Y-75540000D02*
X152420000Y-71000000D01*
%TO.C,R4*%
X116300000Y-66800000D02*
X117250000Y-66800000D01*
X117250000Y-65880000D02*
X117250000Y-67720000D01*
X117250000Y-67720000D02*
X121090000Y-67720000D01*
X121090000Y-65880000D02*
X117250000Y-65880000D01*
X121090000Y-67720000D02*
X121090000Y-65880000D01*
X122040000Y-66800000D02*
X121090000Y-66800000D01*
%TO.C,C7*%
X142580000Y-49750000D02*
X141349000Y-49750000D01*
X142580000Y-49790000D02*
X141353000Y-49790000D01*
X142580000Y-49830000D02*
X141358000Y-49830000D01*
X142580000Y-49870000D02*
X141364000Y-49870000D01*
X142580000Y-49910000D02*
X141370000Y-49910000D01*
X142580000Y-49950000D02*
X141378000Y-49950000D01*
X142580000Y-49990000D02*
X141386000Y-49990000D01*
X142580000Y-50030000D02*
X141395000Y-50030000D01*
X142580000Y-50070000D02*
X141404000Y-50070000D01*
X142580000Y-50110000D02*
X141415000Y-50110000D01*
X142580000Y-50150000D02*
X141426000Y-50150000D01*
X142580000Y-50190000D02*
X141438000Y-50190000D01*
X142580000Y-50230000D02*
X141452000Y-50230000D01*
X142580000Y-50271000D02*
X141466000Y-50271000D01*
X142580000Y-50311000D02*
X141480000Y-50311000D01*
X142580000Y-50351000D02*
X141496000Y-50351000D01*
X142580000Y-50391000D02*
X141513000Y-50391000D01*
X142580000Y-50431000D02*
X141531000Y-50431000D01*
X142580000Y-50471000D02*
X141550000Y-50471000D01*
X142580000Y-50511000D02*
X141569000Y-50511000D01*
X142580000Y-50551000D02*
X141590000Y-50551000D01*
X142580000Y-50591000D02*
X141612000Y-50591000D01*
X142580000Y-50631000D02*
X141635000Y-50631000D01*
X142580000Y-50671000D02*
X141660000Y-50671000D01*
X142580000Y-50711000D02*
X141685000Y-50711000D01*
X142580000Y-50751000D02*
X141712000Y-50751000D01*
X142580000Y-50791000D02*
X141740000Y-50791000D01*
X142580000Y-50831000D02*
X141770000Y-50831000D01*
X142580000Y-50871000D02*
X141801000Y-50871000D01*
X142580000Y-50911000D02*
X141833000Y-50911000D01*
X142580000Y-50951000D02*
X141868000Y-50951000D01*
X142580000Y-50991000D02*
X141904000Y-50991000D01*
X142580000Y-51031000D02*
X141942000Y-51031000D01*
X142580000Y-51071000D02*
X141982000Y-51071000D01*
X142580000Y-51111000D02*
X142024000Y-51111000D01*
X142580000Y-51151000D02*
X142069000Y-51151000D01*
X142580000Y-51191000D02*
X142116000Y-51191000D01*
X142580000Y-51231000D02*
X142166000Y-51231000D01*
X142580000Y-51271000D02*
X142220000Y-51271000D01*
X142580000Y-51311000D02*
X142278000Y-51311000D01*
X142580000Y-51351000D02*
X142340000Y-51351000D01*
X143790000Y-51631000D02*
X143050000Y-51631000D01*
X143957000Y-51591000D02*
X142883000Y-51591000D01*
X144084000Y-51551000D02*
X142756000Y-51551000D01*
X144188000Y-51511000D02*
X142652000Y-51511000D01*
X144279000Y-51471000D02*
X142561000Y-51471000D01*
X144360000Y-51431000D02*
X142480000Y-51431000D01*
X144433000Y-51391000D02*
X142407000Y-51391000D01*
X144500000Y-51351000D02*
X144260000Y-51351000D01*
X144562000Y-51311000D02*
X144260000Y-51311000D01*
X144615000Y-47280199D02*
X144615000Y-47680199D01*
X144620000Y-51271000D02*
X144260000Y-51271000D01*
X144674000Y-51231000D02*
X144260000Y-51231000D01*
X144724000Y-51191000D02*
X144260000Y-51191000D01*
X144771000Y-51151000D02*
X144260000Y-51151000D01*
X144815000Y-47480199D02*
X144415000Y-47480199D01*
X144816000Y-51111000D02*
X144260000Y-51111000D01*
X144858000Y-51071000D02*
X144260000Y-51071000D01*
X144898000Y-51031000D02*
X144260000Y-51031000D01*
X144936000Y-50991000D02*
X144260000Y-50991000D01*
X144972000Y-50951000D02*
X144260000Y-50951000D01*
X145007000Y-50911000D02*
X144260000Y-50911000D01*
X145039000Y-50871000D02*
X144260000Y-50871000D01*
X145070000Y-50831000D02*
X144260000Y-50831000D01*
X145100000Y-50791000D02*
X144260000Y-50791000D01*
X145128000Y-50751000D02*
X144260000Y-50751000D01*
X145155000Y-50711000D02*
X144260000Y-50711000D01*
X145180000Y-50671000D02*
X144260000Y-50671000D01*
X145205000Y-50631000D02*
X144260000Y-50631000D01*
X145228000Y-50591000D02*
X144260000Y-50591000D01*
X145250000Y-50551000D02*
X144260000Y-50551000D01*
X145271000Y-50511000D02*
X144260000Y-50511000D01*
X145290000Y-50471000D02*
X144260000Y-50471000D01*
X145309000Y-50431000D02*
X144260000Y-50431000D01*
X145327000Y-50391000D02*
X144260000Y-50391000D01*
X145344000Y-50351000D02*
X144260000Y-50351000D01*
X145360000Y-50311000D02*
X144260000Y-50311000D01*
X145374000Y-50271000D02*
X144260000Y-50271000D01*
X145388000Y-50230000D02*
X144260000Y-50230000D01*
X145402000Y-50190000D02*
X144260000Y-50190000D01*
X145414000Y-50150000D02*
X144260000Y-50150000D01*
X145425000Y-50110000D02*
X144260000Y-50110000D01*
X145436000Y-50070000D02*
X144260000Y-50070000D01*
X145445000Y-50030000D02*
X144260000Y-50030000D01*
X145454000Y-49990000D02*
X144260000Y-49990000D01*
X145462000Y-49950000D02*
X144260000Y-49950000D01*
X145470000Y-49910000D02*
X144260000Y-49910000D01*
X145476000Y-49870000D02*
X144260000Y-49870000D01*
X145482000Y-49830000D02*
X144260000Y-49830000D01*
X145487000Y-49790000D02*
X144260000Y-49790000D01*
X145491000Y-49750000D02*
X144260000Y-49750000D01*
X145494000Y-49710000D02*
X141346000Y-49710000D01*
X145497000Y-49670000D02*
X141343000Y-49670000D01*
X145499000Y-49630000D02*
X141341000Y-49630000D01*
X145500000Y-49550000D02*
X141340000Y-49550000D01*
X145500000Y-49590000D02*
X141340000Y-49590000D01*
X145540000Y-49550000D02*
G75*
G02*
X141300000Y-49550000I-2120000J0D01*
G01*
X141300000Y-49550000D02*
G75*
G02*
X145540000Y-49550000I2120000J0D01*
G01*
%TO.C,Y1*%
X129955000Y-62575000D02*
X136205000Y-62575000D01*
X129955000Y-67625000D02*
X136205000Y-67625000D01*
X129955000Y-67625000D02*
G75*
G02*
X129955000Y-62575000I0J2525000D01*
G01*
X136205000Y-62575000D02*
G75*
G02*
X136205000Y-67625000I0J-2525000D01*
G01*
%TO.C,R5*%
X116300000Y-64650000D02*
X117250000Y-64650000D01*
X117250000Y-63730000D02*
X117250000Y-65570000D01*
X117250000Y-65570000D02*
X121090000Y-65570000D01*
X121090000Y-63730000D02*
X117250000Y-63730000D01*
X121090000Y-65570000D02*
X121090000Y-63730000D01*
X122040000Y-64650000D02*
X121090000Y-64650000D01*
%TO.C,U4*%
X114050000Y-70210000D02*
X114050000Y-71860000D01*
X114050000Y-73860000D02*
X114050000Y-75510000D01*
X114050000Y-75510000D02*
X149730000Y-75510000D01*
X149730000Y-70210000D02*
X114050000Y-70210000D01*
X149730000Y-75510000D02*
X149730000Y-70210000D01*
X114050000Y-71860000D02*
G75*
G02*
X114050000Y-73860000I0J-1000000D01*
G01*
%TO.C,C9*%
X126070000Y-59995000D02*
X126070000Y-59980000D01*
X126070000Y-62120000D02*
X126070000Y-62105000D01*
X130610000Y-59980000D02*
X126070000Y-59980000D01*
X130610000Y-59995000D02*
X130610000Y-59980000D01*
X130610000Y-62120000D02*
X126070000Y-62120000D01*
X130610000Y-62120000D02*
X130610000Y-62105000D01*
%TO.C,J4*%
X139550000Y-60180000D02*
X139550000Y-58850000D01*
X140880000Y-60180000D02*
X139550000Y-60180000D01*
X142150000Y-57520000D02*
X149830000Y-57520000D01*
X142150000Y-60180000D02*
X142150000Y-57520000D01*
X142150000Y-60180000D02*
X149830000Y-60180000D01*
X149830000Y-60180000D02*
X149830000Y-57520000D01*
%TO.C,R6*%
X153430000Y-63090000D02*
X153430000Y-66930000D01*
X153430000Y-66930000D02*
X155270000Y-66930000D01*
X154350000Y-62140000D02*
X154350000Y-63090000D01*
X154350000Y-67880000D02*
X154350000Y-66930000D01*
X155270000Y-63090000D02*
X153430000Y-63090000D01*
X155270000Y-66930000D02*
X155270000Y-63090000D01*
%TO.C,D1*%
X159464000Y-51565000D02*
X159620000Y-51565000D01*
X161780000Y-51565000D02*
X161936000Y-51565000D01*
X159464485Y-51564999D02*
G75*
G02*
X159621392Y-48332666I1235515J1559999D01*
G01*
X159620001Y-51045960D02*
G75*
G02*
X159620164Y-48963871I1079999J1040960D01*
G01*
X161778608Y-48332666D02*
G75*
G02*
X161935515Y-51564999I-1078608J-1672334D01*
G01*
X161779836Y-48963871D02*
G75*
G02*
X161779999Y-51045960I-1079836J-1041129D01*
G01*
%TO.C,C4*%
X114830000Y-50890000D02*
X114830000Y-55430000D01*
X114845000Y-50890000D02*
X114830000Y-50890000D01*
X114845000Y-55430000D02*
X114830000Y-55430000D01*
X116970000Y-50890000D02*
X116955000Y-50890000D01*
X116970000Y-50890000D02*
X116970000Y-55430000D01*
X116970000Y-55430000D02*
X116955000Y-55430000D01*
%TO.C,R3*%
X107030000Y-57550000D02*
X107980000Y-57550000D01*
X107980000Y-56630000D02*
X107980000Y-58470000D01*
X107980000Y-58470000D02*
X111820000Y-58470000D01*
X111820000Y-56630000D02*
X107980000Y-56630000D01*
X111820000Y-58470000D02*
X111820000Y-56630000D01*
X112770000Y-57550000D02*
X111820000Y-57550000D01*
%TO.C,J5*%
X140890000Y-61630000D02*
X148630000Y-61630000D01*
X140890000Y-64230000D02*
X140890000Y-61630000D01*
X140890000Y-66830000D02*
X140890000Y-65500000D01*
X142220000Y-66830000D02*
X140890000Y-66830000D01*
X143490000Y-64230000D02*
X140890000Y-64230000D01*
X143490000Y-66830000D02*
X143490000Y-64230000D01*
X143490000Y-66830000D02*
X148630000Y-66830000D01*
X148630000Y-66830000D02*
X148630000Y-61630000D01*
%TO.C,Q1*%
X107490000Y-53100000D02*
X111090000Y-53100000D01*
X106933601Y-50151193D02*
G75*
G02*
X109290000Y-48650001I2356399J-1098807D01*
G01*
X107490001Y-53099999D02*
G75*
G02*
X106965817Y-52372795I1799999J1849999D01*
G01*
X109290000Y-48650000D02*
G75*
G02*
X111646400Y-50151193I0J-2600000D01*
G01*
X111614183Y-52372795D02*
G75*
G02*
X111089999Y-53099999I-2324183J1122795D01*
G01*
%TO.C,J3*%
X89130000Y-48600000D02*
X89130000Y-51260000D01*
X91730000Y-48600000D02*
X89130000Y-48600000D01*
X91730000Y-48600000D02*
X91730000Y-51260000D01*
X91730000Y-51260000D02*
X89130000Y-51260000D01*
X93000000Y-48600000D02*
X94330000Y-48600000D01*
X94330000Y-48600000D02*
X94330000Y-49930000D01*
%TO.C,BZ1*%
X109950000Y-64850000D02*
G75*
G02*
X97750000Y-64850000I-6100000J0D01*
G01*
X97750000Y-64850000D02*
G75*
G02*
X109950000Y-64850000I6100000J0D01*
G01*
%TO.C,C1*%
X97565225Y-48785000D02*
X98065225Y-48785000D01*
X97815225Y-48535000D02*
X97815225Y-49035000D01*
X100370000Y-47680000D02*
X100370000Y-49220000D01*
X100370000Y-51300000D02*
X100370000Y-52840000D01*
X100410000Y-47680000D02*
X100410000Y-49220000D01*
X100410000Y-51300000D02*
X100410000Y-52840000D01*
X100450000Y-47681000D02*
X100450000Y-49220000D01*
X100450000Y-51300000D02*
X100450000Y-52839000D01*
X100490000Y-47682000D02*
X100490000Y-49220000D01*
X100490000Y-51300000D02*
X100490000Y-52838000D01*
X100530000Y-47684000D02*
X100530000Y-49220000D01*
X100530000Y-51300000D02*
X100530000Y-52836000D01*
X100570000Y-47687000D02*
X100570000Y-49220000D01*
X100570000Y-51300000D02*
X100570000Y-52833000D01*
X100610000Y-47691000D02*
X100610000Y-49220000D01*
X100610000Y-51300000D02*
X100610000Y-52829000D01*
X100650000Y-47695000D02*
X100650000Y-49220000D01*
X100650000Y-51300000D02*
X100650000Y-52825000D01*
X100690000Y-47699000D02*
X100690000Y-49220000D01*
X100690000Y-51300000D02*
X100690000Y-52821000D01*
X100730000Y-47704000D02*
X100730000Y-49220000D01*
X100730000Y-51300000D02*
X100730000Y-52816000D01*
X100770000Y-47710000D02*
X100770000Y-49220000D01*
X100770000Y-51300000D02*
X100770000Y-52810000D01*
X100810000Y-47717000D02*
X100810000Y-49220000D01*
X100810000Y-51300000D02*
X100810000Y-52803000D01*
X100850000Y-47724000D02*
X100850000Y-49220000D01*
X100850000Y-51300000D02*
X100850000Y-52796000D01*
X100890000Y-47732000D02*
X100890000Y-49220000D01*
X100890000Y-51300000D02*
X100890000Y-52788000D01*
X100930000Y-47740000D02*
X100930000Y-49220000D01*
X100930000Y-51300000D02*
X100930000Y-52780000D01*
X100970000Y-47749000D02*
X100970000Y-49220000D01*
X100970000Y-51300000D02*
X100970000Y-52771000D01*
X101010000Y-47759000D02*
X101010000Y-49220000D01*
X101010000Y-51300000D02*
X101010000Y-52761000D01*
X101050000Y-47769000D02*
X101050000Y-49220000D01*
X101050000Y-51300000D02*
X101050000Y-52751000D01*
X101091000Y-47780000D02*
X101091000Y-49220000D01*
X101091000Y-51300000D02*
X101091000Y-52740000D01*
X101131000Y-47792000D02*
X101131000Y-49220000D01*
X101131000Y-51300000D02*
X101131000Y-52728000D01*
X101171000Y-47805000D02*
X101171000Y-49220000D01*
X101171000Y-51300000D02*
X101171000Y-52715000D01*
X101211000Y-47818000D02*
X101211000Y-49220000D01*
X101211000Y-51300000D02*
X101211000Y-52702000D01*
X101251000Y-47832000D02*
X101251000Y-49220000D01*
X101251000Y-51300000D02*
X101251000Y-52688000D01*
X101291000Y-47846000D02*
X101291000Y-49220000D01*
X101291000Y-51300000D02*
X101291000Y-52674000D01*
X101331000Y-47862000D02*
X101331000Y-49220000D01*
X101331000Y-51300000D02*
X101331000Y-52658000D01*
X101371000Y-47878000D02*
X101371000Y-49220000D01*
X101371000Y-51300000D02*
X101371000Y-52642000D01*
X101411000Y-47895000D02*
X101411000Y-49220000D01*
X101411000Y-51300000D02*
X101411000Y-52625000D01*
X101451000Y-47912000D02*
X101451000Y-49220000D01*
X101451000Y-51300000D02*
X101451000Y-52608000D01*
X101491000Y-47931000D02*
X101491000Y-49220000D01*
X101491000Y-51300000D02*
X101491000Y-52589000D01*
X101531000Y-47950000D02*
X101531000Y-49220000D01*
X101531000Y-51300000D02*
X101531000Y-52570000D01*
X101571000Y-47970000D02*
X101571000Y-49220000D01*
X101571000Y-51300000D02*
X101571000Y-52550000D01*
X101611000Y-47992000D02*
X101611000Y-49220000D01*
X101611000Y-51300000D02*
X101611000Y-52528000D01*
X101651000Y-48013000D02*
X101651000Y-49220000D01*
X101651000Y-51300000D02*
X101651000Y-52507000D01*
X101691000Y-48036000D02*
X101691000Y-49220000D01*
X101691000Y-51300000D02*
X101691000Y-52484000D01*
X101731000Y-48060000D02*
X101731000Y-49220000D01*
X101731000Y-51300000D02*
X101731000Y-52460000D01*
X101771000Y-48085000D02*
X101771000Y-49220000D01*
X101771000Y-51300000D02*
X101771000Y-52435000D01*
X101811000Y-48111000D02*
X101811000Y-49220000D01*
X101811000Y-51300000D02*
X101811000Y-52409000D01*
X101851000Y-48138000D02*
X101851000Y-49220000D01*
X101851000Y-51300000D02*
X101851000Y-52382000D01*
X101891000Y-48165000D02*
X101891000Y-49220000D01*
X101891000Y-51300000D02*
X101891000Y-52355000D01*
X101931000Y-48195000D02*
X101931000Y-49220000D01*
X101931000Y-51300000D02*
X101931000Y-52325000D01*
X101971000Y-48225000D02*
X101971000Y-49220000D01*
X101971000Y-51300000D02*
X101971000Y-52295000D01*
X102011000Y-48256000D02*
X102011000Y-49220000D01*
X102011000Y-51300000D02*
X102011000Y-52264000D01*
X102051000Y-48289000D02*
X102051000Y-49220000D01*
X102051000Y-51300000D02*
X102051000Y-52231000D01*
X102091000Y-48323000D02*
X102091000Y-49220000D01*
X102091000Y-51300000D02*
X102091000Y-52197000D01*
X102131000Y-48359000D02*
X102131000Y-49220000D01*
X102131000Y-51300000D02*
X102131000Y-52161000D01*
X102171000Y-48396000D02*
X102171000Y-49220000D01*
X102171000Y-51300000D02*
X102171000Y-52124000D01*
X102211000Y-48434000D02*
X102211000Y-49220000D01*
X102211000Y-51300000D02*
X102211000Y-52086000D01*
X102251000Y-48475000D02*
X102251000Y-49220000D01*
X102251000Y-51300000D02*
X102251000Y-52045000D01*
X102291000Y-48517000D02*
X102291000Y-49220000D01*
X102291000Y-51300000D02*
X102291000Y-52003000D01*
X102331000Y-48561000D02*
X102331000Y-49220000D01*
X102331000Y-51300000D02*
X102331000Y-51959000D01*
X102371000Y-48607000D02*
X102371000Y-49220000D01*
X102371000Y-51300000D02*
X102371000Y-51913000D01*
X102411000Y-48655000D02*
X102411000Y-51865000D01*
X102451000Y-48706000D02*
X102451000Y-51814000D01*
X102491000Y-48760000D02*
X102491000Y-51760000D01*
X102531000Y-48817000D02*
X102531000Y-51703000D01*
X102571000Y-48877000D02*
X102571000Y-51643000D01*
X102611000Y-48941000D02*
X102611000Y-51579000D01*
X102651000Y-49009000D02*
X102651000Y-51511000D01*
X102691000Y-49082000D02*
X102691000Y-51438000D01*
X102731000Y-49162000D02*
X102731000Y-51358000D01*
X102771000Y-49249000D02*
X102771000Y-51271000D01*
X102811000Y-49345000D02*
X102811000Y-51175000D01*
X102851000Y-49455000D02*
X102851000Y-51065000D01*
X102891000Y-49583000D02*
X102891000Y-50937000D01*
X102931000Y-49742000D02*
X102931000Y-50778000D01*
X102971000Y-49976000D02*
X102971000Y-50544000D01*
X102990000Y-50260000D02*
G75*
G02*
X97750000Y-50260000I-2620000J0D01*
G01*
X97750000Y-50260000D02*
G75*
G02*
X102990000Y-50260000I2620000J0D01*
G01*
%TO.C,U3*%
X87700000Y-73380000D02*
X87700000Y-78021000D01*
X87700000Y-73380000D02*
X97940000Y-73380000D01*
X87700000Y-74890000D02*
X97940000Y-74890000D01*
X87700000Y-78021000D02*
X97940000Y-78021000D01*
X90970000Y-73380000D02*
X90970000Y-74890000D01*
X94671000Y-73380000D02*
X94671000Y-74890000D01*
X97940000Y-73380000D02*
X97940000Y-78021000D01*
%TO.C,C5*%
X142580000Y-54490000D02*
X141349000Y-54490000D01*
X142580000Y-54530000D02*
X141353000Y-54530000D01*
X142580000Y-54570000D02*
X141358000Y-54570000D01*
X142580000Y-54610000D02*
X141364000Y-54610000D01*
X142580000Y-54650000D02*
X141370000Y-54650000D01*
X142580000Y-54690000D02*
X141378000Y-54690000D01*
X142580000Y-54730000D02*
X141386000Y-54730000D01*
X142580000Y-54770000D02*
X141395000Y-54770000D01*
X142580000Y-54810000D02*
X141404000Y-54810000D01*
X142580000Y-54850000D02*
X141415000Y-54850000D01*
X142580000Y-54890000D02*
X141426000Y-54890000D01*
X142580000Y-54930000D02*
X141438000Y-54930000D01*
X142580000Y-54970000D02*
X141452000Y-54970000D01*
X142580000Y-55011000D02*
X141466000Y-55011000D01*
X142580000Y-55051000D02*
X141480000Y-55051000D01*
X142580000Y-55091000D02*
X141496000Y-55091000D01*
X142580000Y-55131000D02*
X141513000Y-55131000D01*
X142580000Y-55171000D02*
X141531000Y-55171000D01*
X142580000Y-55211000D02*
X141550000Y-55211000D01*
X142580000Y-55251000D02*
X141569000Y-55251000D01*
X142580000Y-55291000D02*
X141590000Y-55291000D01*
X142580000Y-55331000D02*
X141612000Y-55331000D01*
X142580000Y-55371000D02*
X141635000Y-55371000D01*
X142580000Y-55411000D02*
X141660000Y-55411000D01*
X142580000Y-55451000D02*
X141685000Y-55451000D01*
X142580000Y-55491000D02*
X141712000Y-55491000D01*
X142580000Y-55531000D02*
X141740000Y-55531000D01*
X142580000Y-55571000D02*
X141770000Y-55571000D01*
X142580000Y-55611000D02*
X141801000Y-55611000D01*
X142580000Y-55651000D02*
X141833000Y-55651000D01*
X142580000Y-55691000D02*
X141868000Y-55691000D01*
X142580000Y-55731000D02*
X141904000Y-55731000D01*
X142580000Y-55771000D02*
X141942000Y-55771000D01*
X142580000Y-55811000D02*
X141982000Y-55811000D01*
X142580000Y-55851000D02*
X142024000Y-55851000D01*
X142580000Y-55891000D02*
X142069000Y-55891000D01*
X142580000Y-55931000D02*
X142116000Y-55931000D01*
X142580000Y-55971000D02*
X142166000Y-55971000D01*
X142580000Y-56011000D02*
X142220000Y-56011000D01*
X142580000Y-56051000D02*
X142278000Y-56051000D01*
X142580000Y-56091000D02*
X142340000Y-56091000D01*
X143790000Y-56371000D02*
X143050000Y-56371000D01*
X143957000Y-56331000D02*
X142883000Y-56331000D01*
X144084000Y-56291000D02*
X142756000Y-56291000D01*
X144188000Y-56251000D02*
X142652000Y-56251000D01*
X144279000Y-56211000D02*
X142561000Y-56211000D01*
X144360000Y-56171000D02*
X142480000Y-56171000D01*
X144433000Y-56131000D02*
X142407000Y-56131000D01*
X144500000Y-56091000D02*
X144260000Y-56091000D01*
X144562000Y-56051000D02*
X144260000Y-56051000D01*
X144615000Y-52020199D02*
X144615000Y-52420199D01*
X144620000Y-56011000D02*
X144260000Y-56011000D01*
X144674000Y-55971000D02*
X144260000Y-55971000D01*
X144724000Y-55931000D02*
X144260000Y-55931000D01*
X144771000Y-55891000D02*
X144260000Y-55891000D01*
X144815000Y-52220199D02*
X144415000Y-52220199D01*
X144816000Y-55851000D02*
X144260000Y-55851000D01*
X144858000Y-55811000D02*
X144260000Y-55811000D01*
X144898000Y-55771000D02*
X144260000Y-55771000D01*
X144936000Y-55731000D02*
X144260000Y-55731000D01*
X144972000Y-55691000D02*
X144260000Y-55691000D01*
X145007000Y-55651000D02*
X144260000Y-55651000D01*
X145039000Y-55611000D02*
X144260000Y-55611000D01*
X145070000Y-55571000D02*
X144260000Y-55571000D01*
X145100000Y-55531000D02*
X144260000Y-55531000D01*
X145128000Y-55491000D02*
X144260000Y-55491000D01*
X145155000Y-55451000D02*
X144260000Y-55451000D01*
X145180000Y-55411000D02*
X144260000Y-55411000D01*
X145205000Y-55371000D02*
X144260000Y-55371000D01*
X145228000Y-55331000D02*
X144260000Y-55331000D01*
X145250000Y-55291000D02*
X144260000Y-55291000D01*
X145271000Y-55251000D02*
X144260000Y-55251000D01*
X145290000Y-55211000D02*
X144260000Y-55211000D01*
X145309000Y-55171000D02*
X144260000Y-55171000D01*
X145327000Y-55131000D02*
X144260000Y-55131000D01*
X145344000Y-55091000D02*
X144260000Y-55091000D01*
X145360000Y-55051000D02*
X144260000Y-55051000D01*
X145374000Y-55011000D02*
X144260000Y-55011000D01*
X145388000Y-54970000D02*
X144260000Y-54970000D01*
X145402000Y-54930000D02*
X144260000Y-54930000D01*
X145414000Y-54890000D02*
X144260000Y-54890000D01*
X145425000Y-54850000D02*
X144260000Y-54850000D01*
X145436000Y-54810000D02*
X144260000Y-54810000D01*
X145445000Y-54770000D02*
X144260000Y-54770000D01*
X145454000Y-54730000D02*
X144260000Y-54730000D01*
X145462000Y-54690000D02*
X144260000Y-54690000D01*
X145470000Y-54650000D02*
X144260000Y-54650000D01*
X145476000Y-54610000D02*
X144260000Y-54610000D01*
X145482000Y-54570000D02*
X144260000Y-54570000D01*
X145487000Y-54530000D02*
X144260000Y-54530000D01*
X145491000Y-54490000D02*
X144260000Y-54490000D01*
X145494000Y-54450000D02*
X141346000Y-54450000D01*
X145497000Y-54410000D02*
X141343000Y-54410000D01*
X145499000Y-54370000D02*
X141341000Y-54370000D01*
X145500000Y-54290000D02*
X141340000Y-54290000D01*
X145500000Y-54330000D02*
X141340000Y-54330000D01*
X145540000Y-54290000D02*
G75*
G02*
X141300000Y-54290000I-2120000J0D01*
G01*
X141300000Y-54290000D02*
G75*
G02*
X145540000Y-54290000I2120000J0D01*
G01*
%TO.C,C3*%
X98695225Y-72925000D02*
X99195225Y-72925000D01*
X98945225Y-72675000D02*
X98945225Y-73175000D01*
X101500000Y-71820000D02*
X101500000Y-73360000D01*
X101500000Y-75440000D02*
X101500000Y-76980000D01*
X101540000Y-71820000D02*
X101540000Y-73360000D01*
X101540000Y-75440000D02*
X101540000Y-76980000D01*
X101580000Y-71821000D02*
X101580000Y-73360000D01*
X101580000Y-75440000D02*
X101580000Y-76979000D01*
X101620000Y-71822000D02*
X101620000Y-73360000D01*
X101620000Y-75440000D02*
X101620000Y-76978000D01*
X101660000Y-71824000D02*
X101660000Y-73360000D01*
X101660000Y-75440000D02*
X101660000Y-76976000D01*
X101700000Y-71827000D02*
X101700000Y-73360000D01*
X101700000Y-75440000D02*
X101700000Y-76973000D01*
X101740000Y-71831000D02*
X101740000Y-73360000D01*
X101740000Y-75440000D02*
X101740000Y-76969000D01*
X101780000Y-71835000D02*
X101780000Y-73360000D01*
X101780000Y-75440000D02*
X101780000Y-76965000D01*
X101820000Y-71839000D02*
X101820000Y-73360000D01*
X101820000Y-75440000D02*
X101820000Y-76961000D01*
X101860000Y-71844000D02*
X101860000Y-73360000D01*
X101860000Y-75440000D02*
X101860000Y-76956000D01*
X101900000Y-71850000D02*
X101900000Y-73360000D01*
X101900000Y-75440000D02*
X101900000Y-76950000D01*
X101940000Y-71857000D02*
X101940000Y-73360000D01*
X101940000Y-75440000D02*
X101940000Y-76943000D01*
X101980000Y-71864000D02*
X101980000Y-73360000D01*
X101980000Y-75440000D02*
X101980000Y-76936000D01*
X102020000Y-71872000D02*
X102020000Y-73360000D01*
X102020000Y-75440000D02*
X102020000Y-76928000D01*
X102060000Y-71880000D02*
X102060000Y-73360000D01*
X102060000Y-75440000D02*
X102060000Y-76920000D01*
X102100000Y-71889000D02*
X102100000Y-73360000D01*
X102100000Y-75440000D02*
X102100000Y-76911000D01*
X102140000Y-71899000D02*
X102140000Y-73360000D01*
X102140000Y-75440000D02*
X102140000Y-76901000D01*
X102180000Y-71909000D02*
X102180000Y-73360000D01*
X102180000Y-75440000D02*
X102180000Y-76891000D01*
X102221000Y-71920000D02*
X102221000Y-73360000D01*
X102221000Y-75440000D02*
X102221000Y-76880000D01*
X102261000Y-71932000D02*
X102261000Y-73360000D01*
X102261000Y-75440000D02*
X102261000Y-76868000D01*
X102301000Y-71945000D02*
X102301000Y-73360000D01*
X102301000Y-75440000D02*
X102301000Y-76855000D01*
X102341000Y-71958000D02*
X102341000Y-73360000D01*
X102341000Y-75440000D02*
X102341000Y-76842000D01*
X102381000Y-71972000D02*
X102381000Y-73360000D01*
X102381000Y-75440000D02*
X102381000Y-76828000D01*
X102421000Y-71986000D02*
X102421000Y-73360000D01*
X102421000Y-75440000D02*
X102421000Y-76814000D01*
X102461000Y-72002000D02*
X102461000Y-73360000D01*
X102461000Y-75440000D02*
X102461000Y-76798000D01*
X102501000Y-72018000D02*
X102501000Y-73360000D01*
X102501000Y-75440000D02*
X102501000Y-76782000D01*
X102541000Y-72035000D02*
X102541000Y-73360000D01*
X102541000Y-75440000D02*
X102541000Y-76765000D01*
X102581000Y-72052000D02*
X102581000Y-73360000D01*
X102581000Y-75440000D02*
X102581000Y-76748000D01*
X102621000Y-72071000D02*
X102621000Y-73360000D01*
X102621000Y-75440000D02*
X102621000Y-76729000D01*
X102661000Y-72090000D02*
X102661000Y-73360000D01*
X102661000Y-75440000D02*
X102661000Y-76710000D01*
X102701000Y-72110000D02*
X102701000Y-73360000D01*
X102701000Y-75440000D02*
X102701000Y-76690000D01*
X102741000Y-72132000D02*
X102741000Y-73360000D01*
X102741000Y-75440000D02*
X102741000Y-76668000D01*
X102781000Y-72153000D02*
X102781000Y-73360000D01*
X102781000Y-75440000D02*
X102781000Y-76647000D01*
X102821000Y-72176000D02*
X102821000Y-73360000D01*
X102821000Y-75440000D02*
X102821000Y-76624000D01*
X102861000Y-72200000D02*
X102861000Y-73360000D01*
X102861000Y-75440000D02*
X102861000Y-76600000D01*
X102901000Y-72225000D02*
X102901000Y-73360000D01*
X102901000Y-75440000D02*
X102901000Y-76575000D01*
X102941000Y-72251000D02*
X102941000Y-73360000D01*
X102941000Y-75440000D02*
X102941000Y-76549000D01*
X102981000Y-72278000D02*
X102981000Y-73360000D01*
X102981000Y-75440000D02*
X102981000Y-76522000D01*
X103021000Y-72305000D02*
X103021000Y-73360000D01*
X103021000Y-75440000D02*
X103021000Y-76495000D01*
X103061000Y-72335000D02*
X103061000Y-73360000D01*
X103061000Y-75440000D02*
X103061000Y-76465000D01*
X103101000Y-72365000D02*
X103101000Y-73360000D01*
X103101000Y-75440000D02*
X103101000Y-76435000D01*
X103141000Y-72396000D02*
X103141000Y-73360000D01*
X103141000Y-75440000D02*
X103141000Y-76404000D01*
X103181000Y-72429000D02*
X103181000Y-73360000D01*
X103181000Y-75440000D02*
X103181000Y-76371000D01*
X103221000Y-72463000D02*
X103221000Y-73360000D01*
X103221000Y-75440000D02*
X103221000Y-76337000D01*
X103261000Y-72499000D02*
X103261000Y-73360000D01*
X103261000Y-75440000D02*
X103261000Y-76301000D01*
X103301000Y-72536000D02*
X103301000Y-73360000D01*
X103301000Y-75440000D02*
X103301000Y-76264000D01*
X103341000Y-72574000D02*
X103341000Y-73360000D01*
X103341000Y-75440000D02*
X103341000Y-76226000D01*
X103381000Y-72615000D02*
X103381000Y-73360000D01*
X103381000Y-75440000D02*
X103381000Y-76185000D01*
X103421000Y-72657000D02*
X103421000Y-73360000D01*
X103421000Y-75440000D02*
X103421000Y-76143000D01*
X103461000Y-72701000D02*
X103461000Y-73360000D01*
X103461000Y-75440000D02*
X103461000Y-76099000D01*
X103501000Y-72747000D02*
X103501000Y-73360000D01*
X103501000Y-75440000D02*
X103501000Y-76053000D01*
X103541000Y-72795000D02*
X103541000Y-76005000D01*
X103581000Y-72846000D02*
X103581000Y-75954000D01*
X103621000Y-72900000D02*
X103621000Y-75900000D01*
X103661000Y-72957000D02*
X103661000Y-75843000D01*
X103701000Y-73017000D02*
X103701000Y-75783000D01*
X103741000Y-73081000D02*
X103741000Y-75719000D01*
X103781000Y-73149000D02*
X103781000Y-75651000D01*
X103821000Y-73222000D02*
X103821000Y-75578000D01*
X103861000Y-73302000D02*
X103861000Y-75498000D01*
X103901000Y-73389000D02*
X103901000Y-75411000D01*
X103941000Y-73485000D02*
X103941000Y-75315000D01*
X103981000Y-73595000D02*
X103981000Y-75205000D01*
X104021000Y-73723000D02*
X104021000Y-75077000D01*
X104061000Y-73882000D02*
X104061000Y-74918000D01*
X104101000Y-74116000D02*
X104101000Y-74684000D01*
X104120000Y-74400000D02*
G75*
G02*
X98880000Y-74400000I-2620000J0D01*
G01*
X98880000Y-74400000D02*
G75*
G02*
X104120000Y-74400000I2620000J0D01*
G01*
%TO.C,R7*%
X116310000Y-60350000D02*
X117260000Y-60350000D01*
X117260000Y-59430000D02*
X117260000Y-61270000D01*
X117260000Y-61270000D02*
X121100000Y-61270000D01*
X121100000Y-59430000D02*
X117260000Y-59430000D01*
X121100000Y-61270000D02*
X121100000Y-59430000D01*
X122050000Y-60350000D02*
X121100000Y-60350000D01*
%TO.C,U2*%
X117410000Y-50520000D02*
X117410000Y-55820000D01*
X117410000Y-55820000D02*
X137850000Y-55820000D01*
X137850000Y-50520000D02*
X117410000Y-50520000D01*
X137850000Y-52170000D02*
X137850000Y-50520000D01*
X137850000Y-55820000D02*
X137850000Y-54170000D01*
X137850000Y-54170000D02*
G75*
G02*
X137850000Y-52170000I0J1000000D01*
G01*
%TO.C,C6*%
X150510000Y-49750000D02*
X149279000Y-49750000D01*
X150510000Y-49790000D02*
X149283000Y-49790000D01*
X150510000Y-49830000D02*
X149288000Y-49830000D01*
X150510000Y-49870000D02*
X149294000Y-49870000D01*
X150510000Y-49910000D02*
X149300000Y-49910000D01*
X150510000Y-49950000D02*
X149308000Y-49950000D01*
X150510000Y-49990000D02*
X149316000Y-49990000D01*
X150510000Y-50030000D02*
X149325000Y-50030000D01*
X150510000Y-50070000D02*
X149334000Y-50070000D01*
X150510000Y-50110000D02*
X149345000Y-50110000D01*
X150510000Y-50150000D02*
X149356000Y-50150000D01*
X150510000Y-50190000D02*
X149368000Y-50190000D01*
X150510000Y-50230000D02*
X149382000Y-50230000D01*
X150510000Y-50271000D02*
X149396000Y-50271000D01*
X150510000Y-50311000D02*
X149410000Y-50311000D01*
X150510000Y-50351000D02*
X149426000Y-50351000D01*
X150510000Y-50391000D02*
X149443000Y-50391000D01*
X150510000Y-50431000D02*
X149461000Y-50431000D01*
X150510000Y-50471000D02*
X149480000Y-50471000D01*
X150510000Y-50511000D02*
X149499000Y-50511000D01*
X150510000Y-50551000D02*
X149520000Y-50551000D01*
X150510000Y-50591000D02*
X149542000Y-50591000D01*
X150510000Y-50631000D02*
X149565000Y-50631000D01*
X150510000Y-50671000D02*
X149590000Y-50671000D01*
X150510000Y-50711000D02*
X149615000Y-50711000D01*
X150510000Y-50751000D02*
X149642000Y-50751000D01*
X150510000Y-50791000D02*
X149670000Y-50791000D01*
X150510000Y-50831000D02*
X149700000Y-50831000D01*
X150510000Y-50871000D02*
X149731000Y-50871000D01*
X150510000Y-50911000D02*
X149763000Y-50911000D01*
X150510000Y-50951000D02*
X149798000Y-50951000D01*
X150510000Y-50991000D02*
X149834000Y-50991000D01*
X150510000Y-51031000D02*
X149872000Y-51031000D01*
X150510000Y-51071000D02*
X149912000Y-51071000D01*
X150510000Y-51111000D02*
X149954000Y-51111000D01*
X150510000Y-51151000D02*
X149999000Y-51151000D01*
X150510000Y-51191000D02*
X150046000Y-51191000D01*
X150510000Y-51231000D02*
X150096000Y-51231000D01*
X150510000Y-51271000D02*
X150150000Y-51271000D01*
X150510000Y-51311000D02*
X150208000Y-51311000D01*
X150510000Y-51351000D02*
X150270000Y-51351000D01*
X151720000Y-51631000D02*
X150980000Y-51631000D01*
X151887000Y-51591000D02*
X150813000Y-51591000D01*
X152014000Y-51551000D02*
X150686000Y-51551000D01*
X152118000Y-51511000D02*
X150582000Y-51511000D01*
X152209000Y-51471000D02*
X150491000Y-51471000D01*
X152290000Y-51431000D02*
X150410000Y-51431000D01*
X152363000Y-51391000D02*
X150337000Y-51391000D01*
X152430000Y-51351000D02*
X152190000Y-51351000D01*
X152492000Y-51311000D02*
X152190000Y-51311000D01*
X152545000Y-47280199D02*
X152545000Y-47680199D01*
X152550000Y-51271000D02*
X152190000Y-51271000D01*
X152604000Y-51231000D02*
X152190000Y-51231000D01*
X152654000Y-51191000D02*
X152190000Y-51191000D01*
X152701000Y-51151000D02*
X152190000Y-51151000D01*
X152745000Y-47480199D02*
X152345000Y-47480199D01*
X152746000Y-51111000D02*
X152190000Y-51111000D01*
X152788000Y-51071000D02*
X152190000Y-51071000D01*
X152828000Y-51031000D02*
X152190000Y-51031000D01*
X152866000Y-50991000D02*
X152190000Y-50991000D01*
X152902000Y-50951000D02*
X152190000Y-50951000D01*
X152937000Y-50911000D02*
X152190000Y-50911000D01*
X152969000Y-50871000D02*
X152190000Y-50871000D01*
X153000000Y-50831000D02*
X152190000Y-50831000D01*
X153030000Y-50791000D02*
X152190000Y-50791000D01*
X153058000Y-50751000D02*
X152190000Y-50751000D01*
X153085000Y-50711000D02*
X152190000Y-50711000D01*
X153110000Y-50671000D02*
X152190000Y-50671000D01*
X153135000Y-50631000D02*
X152190000Y-50631000D01*
X153158000Y-50591000D02*
X152190000Y-50591000D01*
X153180000Y-50551000D02*
X152190000Y-50551000D01*
X153201000Y-50511000D02*
X152190000Y-50511000D01*
X153220000Y-50471000D02*
X152190000Y-50471000D01*
X153239000Y-50431000D02*
X152190000Y-50431000D01*
X153257000Y-50391000D02*
X152190000Y-50391000D01*
X153274000Y-50351000D02*
X152190000Y-50351000D01*
X153290000Y-50311000D02*
X152190000Y-50311000D01*
X153304000Y-50271000D02*
X152190000Y-50271000D01*
X153318000Y-50230000D02*
X152190000Y-50230000D01*
X153332000Y-50190000D02*
X152190000Y-50190000D01*
X153344000Y-50150000D02*
X152190000Y-50150000D01*
X153355000Y-50110000D02*
X152190000Y-50110000D01*
X153366000Y-50070000D02*
X152190000Y-50070000D01*
X153375000Y-50030000D02*
X152190000Y-50030000D01*
X153384000Y-49990000D02*
X152190000Y-49990000D01*
X153392000Y-49950000D02*
X152190000Y-49950000D01*
X153400000Y-49910000D02*
X152190000Y-49910000D01*
X153406000Y-49870000D02*
X152190000Y-49870000D01*
X153412000Y-49830000D02*
X152190000Y-49830000D01*
X153417000Y-49790000D02*
X152190000Y-49790000D01*
X153421000Y-49750000D02*
X152190000Y-49750000D01*
X153424000Y-49710000D02*
X149276000Y-49710000D01*
X153427000Y-49670000D02*
X149273000Y-49670000D01*
X153429000Y-49630000D02*
X149271000Y-49630000D01*
X153430000Y-49550000D02*
X149270000Y-49550000D01*
X153430000Y-49590000D02*
X149270000Y-49590000D01*
X153470000Y-49550000D02*
G75*
G02*
X149230000Y-49550000I-2120000J0D01*
G01*
X149230000Y-49550000D02*
G75*
G02*
X153470000Y-49550000I2120000J0D01*
G01*
%TO.C,C10*%
X133220000Y-59980000D02*
X133220000Y-59995000D01*
X133220000Y-59980000D02*
X137760000Y-59980000D01*
X133220000Y-62105000D02*
X133220000Y-62120000D01*
X133220000Y-62120000D02*
X137760000Y-62120000D01*
X137760000Y-59980000D02*
X137760000Y-59995000D01*
X137760000Y-62105000D02*
X137760000Y-62120000D01*
%TO.C,R1*%
X155580000Y-63090000D02*
X155580000Y-66930000D01*
X155580000Y-66930000D02*
X157420000Y-66930000D01*
X156500000Y-62140000D02*
X156500000Y-63090000D01*
X156500000Y-67880000D02*
X156500000Y-66930000D01*
X157420000Y-63090000D02*
X155580000Y-63090000D01*
X157420000Y-66930000D02*
X157420000Y-63090000D01*
%TO.C,R8*%
X116310000Y-62500000D02*
X117260000Y-62500000D01*
X117260000Y-61580000D02*
X117260000Y-63420000D01*
X117260000Y-63420000D02*
X121100000Y-63420000D01*
X121100000Y-61580000D02*
X117260000Y-61580000D01*
X121100000Y-63420000D02*
X121100000Y-61580000D01*
X122050000Y-62500000D02*
X121100000Y-62500000D01*
%TD*%
M02*
