%TF.GenerationSoftware,KiCad,Pcbnew,8.0.1*%
%TF.CreationDate,2024-05-13T00:47:24+01:00*%
%TF.ProjectId,TIMPS2Key,54494d50-5332-44b6-9579-2e6b69636164,rev?*%
%TF.SameCoordinates,Original*%
%TF.FileFunction,Copper,L1,Top*%
%TF.FilePolarity,Positive*%
%FSLAX46Y46*%
G04 Gerber Fmt 4.6, Leading zero omitted, Abs format (unit mm)*
G04 Created by KiCad (PCBNEW 8.0.1) date 2024-05-13 00:47:24*
%MOMM*%
%LPD*%
G01*
G04 APERTURE LIST*
%TA.AperFunction,ComponentPad*%
%ADD10R,1.200000X1.200000*%
%TD*%
%TA.AperFunction,ComponentPad*%
%ADD11C,1.200000*%
%TD*%
%TA.AperFunction,ComponentPad*%
%ADD12R,2.100000X2.100000*%
%TD*%
%TA.AperFunction,ComponentPad*%
%ADD13C,2.100000*%
%TD*%
%TA.AperFunction,ComponentPad*%
%ADD14R,1.600000X1.600000*%
%TD*%
%TA.AperFunction,ComponentPad*%
%ADD15C,1.600000*%
%TD*%
%TA.AperFunction,ComponentPad*%
%ADD16O,3.500000X2.000000*%
%TD*%
%TA.AperFunction,ComponentPad*%
%ADD17O,2.000000X4.000000*%
%TD*%
%TA.AperFunction,ComponentPad*%
%ADD18C,1.400000*%
%TD*%
%TA.AperFunction,ComponentPad*%
%ADD19O,1.400000X1.400000*%
%TD*%
%TA.AperFunction,ComponentPad*%
%ADD20C,1.500000*%
%TD*%
%TA.AperFunction,ComponentPad*%
%ADD21O,1.600000X1.600000*%
%TD*%
%TA.AperFunction,ComponentPad*%
%ADD22R,1.700000X1.700000*%
%TD*%
%TA.AperFunction,ComponentPad*%
%ADD23O,1.700000X1.700000*%
%TD*%
%TA.AperFunction,ComponentPad*%
%ADD24R,1.800000X1.800000*%
%TD*%
%TA.AperFunction,ComponentPad*%
%ADD25C,1.800000*%
%TD*%
%TA.AperFunction,ComponentPad*%
%ADD26R,1.500000X1.500000*%
%TD*%
%TA.AperFunction,ComponentPad*%
%ADD27R,1.905000X2.000000*%
%TD*%
%TA.AperFunction,ComponentPad*%
%ADD28O,1.905000X2.000000*%
%TD*%
%TA.AperFunction,ViaPad*%
%ADD29C,0.800000*%
%TD*%
%TA.AperFunction,Conductor*%
%ADD30C,0.400000*%
%TD*%
%TA.AperFunction,Conductor*%
%ADD31C,0.800000*%
%TD*%
G04 APERTURE END LIST*
D10*
%TO.P,C8,1*%
%TO.N,Net-(U2-C2+)*%
X151350000Y-53290000D03*
D11*
%TO.P,C8,2*%
%TO.N,Net-(U2-C2-)*%
X151350000Y-55290000D03*
%TD*%
D12*
%TO.P,J1,1*%
%TO.N,GND*%
X93200000Y-70480000D03*
D13*
%TO.P,J1,2*%
%TO.N,S_TX*%
X93200000Y-62975000D03*
%TO.P,J1,3*%
%TO.N,S_RX*%
X93200000Y-55470000D03*
%TO.P,J1,4*%
%TO.N,+12V*%
X95690000Y-67980000D03*
%TO.P,J1,5*%
X95690000Y-57970000D03*
%TO.P,J1,G*%
%TO.N,GND*%
X83193200Y-67980000D03*
X83193200Y-65475000D03*
X83193200Y-62924200D03*
X83193200Y-60475000D03*
X83193200Y-57970000D03*
%TD*%
D14*
%TO.P,J2,1*%
%TO.N,ADMISO*%
X162700000Y-61530000D03*
D15*
%TO.P,J2,2*%
%TO.N,unconnected-(J2-Pad2)*%
X162700000Y-64130000D03*
%TO.P,J2,3*%
%TO.N,GND*%
X162700000Y-59430000D03*
%TO.P,J2,4*%
%TO.N,+5V*%
X162700000Y-66230000D03*
%TO.P,J2,5*%
%TO.N,PS2-CLK*%
X159900000Y-59430000D03*
%TO.P,J2,6*%
%TO.N,unconnected-(J2-Pad6)*%
X159900000Y-66230000D03*
D16*
%TO.P,J2,7*%
%TO.N,GND*%
X165550000Y-69680000D03*
D17*
X166350000Y-62830000D03*
D16*
X165550000Y-55980000D03*
%TD*%
D18*
%TO.P,R2,1*%
%TO.N,GND*%
X98680000Y-55350000D03*
D19*
%TO.P,R2,2*%
%TO.N,Net-(Q1-E)*%
X106300000Y-55350000D03*
%TD*%
D15*
%TO.P,C2,1*%
%TO.N,Net-(U4-AREF)*%
X151350000Y-75770000D03*
%TO.P,C2,2*%
%TO.N,GND*%
X151350000Y-70770000D03*
%TD*%
D18*
%TO.P,R4,1*%
%TO.N,+5V*%
X122980000Y-66800000D03*
D19*
%TO.P,R4,2*%
%TO.N,N_SCL*%
X115360000Y-66800000D03*
%TD*%
D10*
%TO.P,C7,1*%
%TO.N,Net-(U2-C1+)*%
X143420000Y-48550000D03*
D11*
%TO.P,C7,2*%
%TO.N,Net-(U2-C1-)*%
X143420000Y-50550000D03*
%TD*%
D20*
%TO.P,Y1,1,1*%
%TO.N,Net-(U4-PB6)*%
X130640000Y-65100000D03*
%TO.P,Y1,2,2*%
%TO.N,Net-(U4-PB7)*%
X135520000Y-65100000D03*
%TD*%
D18*
%TO.P,R5,1*%
%TO.N,+5V*%
X122980000Y-64650000D03*
D19*
%TO.P,R5,2*%
%TO.N,N_SDA*%
X115360000Y-64650000D03*
%TD*%
D14*
%TO.P,U4,1,PC6*%
%TO.N,ADRESET*%
X115380000Y-76670000D03*
D21*
%TO.P,U4,2,PD0*%
%TO.N,/AD0*%
X117920000Y-76670000D03*
%TO.P,U4,3,PD1*%
%TO.N,/AD1*%
X120460000Y-76670000D03*
%TO.P,U4,4,PD2*%
%TO.N,/AD2*%
X123000000Y-76670000D03*
%TO.P,U4,5,PD3*%
%TO.N,PS2-CLK*%
X125540000Y-76670000D03*
%TO.P,U4,6,PD4*%
%TO.N,/AD4*%
X128080000Y-76670000D03*
%TO.P,U4,7,VCC*%
%TO.N,+5V*%
X130620000Y-76670000D03*
%TO.P,U4,8,GND*%
%TO.N,GND*%
X133160000Y-76670000D03*
%TO.P,U4,9,PB6*%
%TO.N,Net-(U4-PB6)*%
X135700000Y-76670000D03*
%TO.P,U4,10,PB7*%
%TO.N,Net-(U4-PB7)*%
X138240000Y-76670000D03*
%TO.P,U4,11,PD5*%
%TO.N,/AD5*%
X140780000Y-76670000D03*
%TO.P,U4,12,PD6*%
%TO.N,/AD6*%
X143320000Y-76670000D03*
%TO.P,U4,13,PD7*%
%TO.N,/AD7*%
X145860000Y-76670000D03*
%TO.P,U4,14,PB0*%
%TO.N,/AD8*%
X148400000Y-76670000D03*
%TO.P,U4,15,PB1*%
%TO.N,/AD9*%
X148400000Y-69050000D03*
%TO.P,U4,16,PB2*%
%TO.N,/AD10*%
X145860000Y-69050000D03*
%TO.P,U4,17,PB3*%
%TO.N,ADMOSI*%
X143320000Y-69050000D03*
%TO.P,U4,18,PB4*%
%TO.N,ADMISO*%
X140780000Y-69050000D03*
%TO.P,U4,19,PB5*%
%TO.N,ADSCK*%
X138240000Y-69050000D03*
%TO.P,U4,20,AVCC*%
%TO.N,+5V*%
X135700000Y-69050000D03*
%TO.P,U4,21,AREF*%
%TO.N,Net-(U4-AREF)*%
X133160000Y-69050000D03*
%TO.P,U4,22,GND*%
%TO.N,GND*%
X130620000Y-69050000D03*
%TO.P,U4,23,PC0*%
%TO.N,SOUND*%
X128080000Y-69050000D03*
%TO.P,U4,24,PC1*%
%TO.N,/AA1*%
X125540000Y-69050000D03*
%TO.P,U4,25,PC2*%
%TO.N,/AA2*%
X123000000Y-69050000D03*
%TO.P,U4,26,PC3*%
%TO.N,/AA3*%
X120460000Y-69050000D03*
%TO.P,U4,27,PC4*%
%TO.N,N_SDA*%
X117920000Y-69050000D03*
%TO.P,U4,28,PC5*%
%TO.N,N_SCL*%
X115380000Y-69050000D03*
%TD*%
D15*
%TO.P,C9,1*%
%TO.N,Net-(U4-PB6)*%
X130840000Y-61050000D03*
%TO.P,C9,2*%
%TO.N,GND*%
X125840000Y-61050000D03*
%TD*%
D22*
%TO.P,J4,1,Pin_1*%
%TO.N,+5V*%
X140880000Y-58850000D03*
D23*
%TO.P,J4,2,Pin_2*%
%TO.N,GND*%
X143420000Y-58850000D03*
%TO.P,J4,3,Pin_3*%
%TO.N,N_SDA*%
X145960000Y-58850000D03*
%TO.P,J4,4,Pin_4*%
%TO.N,N_SCL*%
X148500000Y-58850000D03*
%TD*%
D18*
%TO.P,R6,1*%
%TO.N,+5V*%
X154350000Y-68820000D03*
D19*
%TO.P,R6,2*%
%TO.N,ADRESET*%
X154350000Y-61200000D03*
%TD*%
D24*
%TO.P,D1,1,K*%
%TO.N,GND*%
X160700000Y-51275000D03*
D25*
%TO.P,D1,2,A*%
%TO.N,Net-(D1-A)*%
X160700000Y-48735000D03*
%TD*%
D15*
%TO.P,C4,1*%
%TO.N,GND*%
X115900000Y-50660000D03*
%TO.P,C4,2*%
%TO.N,+5V*%
X115900000Y-55660000D03*
%TD*%
D18*
%TO.P,R3,1*%
%TO.N,Net-(Q1-B)*%
X106090000Y-57550000D03*
D19*
%TO.P,R3,2*%
%TO.N,SOUND*%
X113710000Y-57550000D03*
%TD*%
D22*
%TO.P,J5,1,Pin_1*%
%TO.N,ADMISO*%
X142220000Y-65500000D03*
D23*
%TO.P,J5,2,Pin_2*%
%TO.N,+5V*%
X142220000Y-62960000D03*
%TO.P,J5,3,Pin_3*%
%TO.N,ADSCK*%
X144760000Y-65500000D03*
%TO.P,J5,4,Pin_4*%
%TO.N,ADMOSI*%
X144760000Y-62960000D03*
%TO.P,J5,5,Pin_5*%
%TO.N,ADRESET*%
X147300000Y-65500000D03*
%TO.P,J5,6,Pin_6*%
%TO.N,GND*%
X147300000Y-62960000D03*
%TD*%
D26*
%TO.P,Q1,1,C*%
%TO.N,Net-(BZ1--)*%
X106750000Y-51250000D03*
D20*
%TO.P,Q1,2,B*%
%TO.N,Net-(Q1-B)*%
X109290000Y-51250000D03*
%TO.P,Q1,3,E*%
%TO.N,Net-(Q1-E)*%
X111830000Y-51250000D03*
%TD*%
D22*
%TO.P,J3,1,Pin_1*%
%TO.N,+5V*%
X93000000Y-49930000D03*
D23*
%TO.P,J3,2,Pin_2*%
%TO.N,GND*%
X90460000Y-49930000D03*
%TD*%
D14*
%TO.P,BZ1,1,+*%
%TO.N,+5V*%
X100600000Y-64850000D03*
D15*
%TO.P,BZ1,2,-*%
%TO.N,Net-(BZ1--)*%
X107100000Y-64850000D03*
%TD*%
D14*
%TO.P,C1,1*%
%TO.N,+5V*%
X99370000Y-50260000D03*
D15*
%TO.P,C1,2*%
%TO.N,GND*%
X101370000Y-50260000D03*
%TD*%
D27*
%TO.P,U3,1,VI*%
%TO.N,+12V*%
X90280000Y-76650000D03*
D28*
%TO.P,U3,2,GND*%
%TO.N,GND*%
X92820000Y-76650000D03*
%TO.P,U3,3,VO*%
%TO.N,+5V*%
X95360000Y-76650000D03*
%TD*%
D10*
%TO.P,C5,1*%
%TO.N,Net-(U2-VS+)*%
X143420000Y-53290000D03*
D11*
%TO.P,C5,2*%
%TO.N,+5V*%
X143420000Y-55290000D03*
%TD*%
D14*
%TO.P,C3,1*%
%TO.N,+12V*%
X100500000Y-74400000D03*
D15*
%TO.P,C3,2*%
%TO.N,GND*%
X102500000Y-74400000D03*
%TD*%
D18*
%TO.P,R7,1*%
%TO.N,/AD0*%
X115370000Y-60350000D03*
D19*
%TO.P,R7,2*%
%TO.N,N_RX*%
X122990000Y-60350000D03*
%TD*%
D14*
%TO.P,U2,1,C1+*%
%TO.N,Net-(U2-C1+)*%
X136520000Y-49360000D03*
D21*
%TO.P,U2,2,VS+*%
%TO.N,Net-(U2-VS+)*%
X133980000Y-49360000D03*
%TO.P,U2,3,C1-*%
%TO.N,Net-(U2-C1-)*%
X131440000Y-49360000D03*
%TO.P,U2,4,C2+*%
%TO.N,Net-(U2-C2+)*%
X128900000Y-49360000D03*
%TO.P,U2,5,C2-*%
%TO.N,Net-(U2-C2-)*%
X126360000Y-49360000D03*
%TO.P,U2,6,VS-*%
%TO.N,Net-(U2-VS-)*%
X123820000Y-49360000D03*
%TO.P,U2,7,T2OUT*%
%TO.N,unconnected-(U2-T2OUT-Pad7)*%
X121280000Y-49360000D03*
%TO.P,U2,8,R2IN*%
%TO.N,GND*%
X118740000Y-49360000D03*
%TO.P,U2,9,R2OUT*%
%TO.N,unconnected-(U2-R2OUT-Pad9)*%
X118740000Y-56980000D03*
%TO.P,U2,10,T2IN*%
%TO.N,GND*%
X121280000Y-56980000D03*
%TO.P,U2,11,T1IN*%
%TO.N,N_TX*%
X123820000Y-56980000D03*
%TO.P,U2,12,R1OUT*%
%TO.N,N_RX*%
X126360000Y-56980000D03*
%TO.P,U2,13,R1IN*%
%TO.N,S_RX*%
X128900000Y-56980000D03*
%TO.P,U2,14,T1OUT*%
%TO.N,S_TX*%
X131440000Y-56980000D03*
%TO.P,U2,15,GND*%
%TO.N,GND*%
X133980000Y-56980000D03*
%TO.P,U2,16,VCC*%
%TO.N,+5V*%
X136520000Y-56980000D03*
%TD*%
D10*
%TO.P,C6,1*%
%TO.N,GND*%
X151350000Y-48550000D03*
D11*
%TO.P,C6,2*%
%TO.N,Net-(U2-VS-)*%
X151350000Y-50550000D03*
%TD*%
D15*
%TO.P,C10,1*%
%TO.N,Net-(U4-PB7)*%
X132990000Y-61050000D03*
%TO.P,C10,2*%
%TO.N,GND*%
X137990000Y-61050000D03*
%TD*%
D18*
%TO.P,R1,1*%
%TO.N,+5V*%
X156500000Y-68820000D03*
D19*
%TO.P,R1,2*%
%TO.N,Net-(D1-A)*%
X156500000Y-61200000D03*
%TD*%
D18*
%TO.P,R8,1*%
%TO.N,/AD1*%
X115370000Y-62500000D03*
D19*
%TO.P,R8,2*%
%TO.N,N_TX*%
X122990000Y-62500000D03*
%TD*%
D29*
%TO.N,Net-(U4-AREF)*%
X133300000Y-75000000D03*
%TD*%
D30*
%TO.N,+5V*%
X135700000Y-69050000D02*
X141790000Y-62960000D01*
D31*
X154350000Y-68820000D02*
X156500000Y-68820000D01*
X81100000Y-78530000D02*
X95300000Y-78530000D01*
X170890000Y-78530000D02*
X170890000Y-66400000D01*
X140700000Y-55290000D02*
X139010000Y-56980000D01*
X93000000Y-49930000D02*
X93000000Y-47150000D01*
X95300000Y-78530000D02*
X130550000Y-78530000D01*
X100600000Y-68750000D02*
X100600000Y-64850000D01*
X99370000Y-47180000D02*
X99340000Y-47150000D01*
X130620000Y-78460000D02*
X130550000Y-78530000D01*
X170890000Y-47150000D02*
X155000000Y-47150000D01*
X170890000Y-66400000D02*
X170890000Y-47150000D01*
X148290000Y-55290000D02*
X149950000Y-56950000D01*
X170720000Y-66230000D02*
X170890000Y-66400000D01*
X139010000Y-56980000D02*
X140880000Y-58850000D01*
D30*
X143980000Y-61200000D02*
X149450000Y-61200000D01*
D31*
X155000000Y-55600000D02*
X155000000Y-47150000D01*
X143420000Y-55290000D02*
X140700000Y-55290000D01*
X99340000Y-47150000D02*
X93000000Y-47150000D01*
D30*
X142220000Y-62960000D02*
X143980000Y-61200000D01*
D31*
X114760000Y-55660000D02*
X113750000Y-54650000D01*
X155000000Y-47150000D02*
X113750000Y-47150000D01*
X115900000Y-55660000D02*
X114760000Y-55660000D01*
D30*
X150550000Y-60100000D02*
X150550000Y-56950000D01*
D31*
X136520000Y-56980000D02*
X139010000Y-56980000D01*
X99370000Y-50260000D02*
X99370000Y-47180000D01*
X93000000Y-47150000D02*
X81100000Y-47150000D01*
X160110000Y-68820000D02*
X162700000Y-66230000D01*
X95360000Y-76650000D02*
X95360000Y-78470000D01*
X81100000Y-47150000D02*
X81100000Y-78530000D01*
X95360000Y-76650000D02*
X95360000Y-73990000D01*
X130620000Y-76670000D02*
X130620000Y-78460000D01*
X153650000Y-56950000D02*
X155000000Y-55600000D01*
X113750000Y-54650000D02*
X113750000Y-47150000D01*
X150550000Y-56950000D02*
X153650000Y-56950000D01*
X113750000Y-47150000D02*
X97850000Y-47150000D01*
X156500000Y-68820000D02*
X160110000Y-68820000D01*
X143420000Y-55290000D02*
X148290000Y-55290000D01*
X149950000Y-56950000D02*
X150550000Y-56950000D01*
D30*
X149450000Y-61200000D02*
X150550000Y-60100000D01*
D31*
X95360000Y-78470000D02*
X95300000Y-78530000D01*
D30*
X141790000Y-62960000D02*
X142220000Y-62960000D01*
D31*
X95360000Y-73990000D02*
X100600000Y-68750000D01*
X162700000Y-66230000D02*
X170720000Y-66230000D01*
X130550000Y-78530000D02*
X170890000Y-78530000D01*
%TO.N,+12V*%
X90280000Y-75470000D02*
X90280000Y-76650000D01*
X90750000Y-75000000D02*
X90280000Y-75470000D01*
X95690000Y-67980000D02*
X95690000Y-71290000D01*
X95690000Y-71290000D02*
X91980000Y-75000000D01*
X91980000Y-75000000D02*
X90750000Y-75000000D01*
X95690000Y-57970000D02*
X95690000Y-67980000D01*
D30*
%TO.N,Net-(U2-VS-)*%
X123820000Y-49360000D02*
X123820000Y-48228630D01*
X123820000Y-48228630D02*
X124098630Y-47950000D01*
X140550000Y-49550000D02*
X150350000Y-49550000D01*
X138950000Y-47950000D02*
X140550000Y-49550000D01*
X150350000Y-49550000D02*
X151350000Y-50550000D01*
X124098630Y-47950000D02*
X138950000Y-47950000D01*
%TO.N,Net-(U2-C1-)*%
X131440000Y-49360000D02*
X131440000Y-50260000D01*
X131440000Y-50260000D02*
X131740000Y-50560000D01*
X143420000Y-50550000D02*
X143410000Y-50560000D01*
X143410000Y-50560000D02*
X131740000Y-50560000D01*
%TO.N,Net-(U2-C2+)*%
X151350000Y-53290000D02*
X149610000Y-51550000D01*
X129450000Y-51550000D02*
X128900000Y-51000000D01*
X149610000Y-51550000D02*
X129450000Y-51550000D01*
X128900000Y-51000000D02*
X128900000Y-49360000D01*
%TO.N,Net-(U2-C2-)*%
X151350000Y-55290000D02*
X150350000Y-54290000D01*
X150350000Y-54290000D02*
X127340000Y-54290000D01*
X126360000Y-53310000D02*
X126360000Y-49360000D01*
X127340000Y-54290000D02*
X126360000Y-53310000D01*
%TO.N,Net-(D1-A)*%
X163150000Y-57300000D02*
X163150000Y-49300000D01*
X164450000Y-62500000D02*
X164450000Y-58600000D01*
X162585000Y-48735000D02*
X160700000Y-48735000D01*
X156850000Y-62850000D02*
X164100000Y-62850000D01*
X164450000Y-58600000D02*
X163150000Y-57300000D01*
X164100000Y-62850000D02*
X164450000Y-62500000D01*
X163150000Y-49300000D02*
X162585000Y-48735000D01*
X156500000Y-61200000D02*
X156500000Y-62500000D01*
X156500000Y-62500000D02*
X156850000Y-62850000D01*
%TO.N,S_TX*%
X104400000Y-59150000D02*
X101770000Y-56520000D01*
X131440000Y-58510000D02*
X130800000Y-59150000D01*
X94380000Y-56520000D02*
X93200000Y-57700000D01*
X131440000Y-56980000D02*
X131440000Y-58510000D01*
X101770000Y-56520000D02*
X94380000Y-56520000D01*
X93200000Y-57700000D02*
X93200000Y-62975000D01*
X130800000Y-59150000D02*
X104400000Y-59150000D01*
%TO.N,S_RX*%
X94420000Y-54250000D02*
X102650000Y-54250000D01*
X102650000Y-54250000D02*
X104850000Y-56450000D01*
X104850000Y-56450000D02*
X114418629Y-56450000D01*
X116518629Y-58550000D02*
X128700000Y-58550000D01*
X128900000Y-58350000D02*
X128900000Y-56980000D01*
X93200000Y-55470000D02*
X94420000Y-54250000D01*
X128700000Y-58550000D02*
X128900000Y-58350000D01*
X114418629Y-56450000D02*
X116518629Y-58550000D01*
%TO.N,Net-(U4-AREF)*%
X133650000Y-74650000D02*
X150230000Y-74650000D01*
X133300000Y-75000000D02*
X133650000Y-74650000D01*
X150230000Y-74650000D02*
X151350000Y-75770000D01*
%TO.N,PS2-CLK*%
X152550000Y-59800000D02*
X152920000Y-59430000D01*
X125540000Y-76670000D02*
X125540000Y-75410000D01*
X125540000Y-75410000D02*
X126900000Y-74050000D01*
X152250000Y-74050000D02*
X152550000Y-73750000D01*
X152920000Y-59430000D02*
X159900000Y-59430000D01*
X152550000Y-73750000D02*
X152550000Y-59800000D01*
X126900000Y-74050000D02*
X152250000Y-74050000D01*
%TO.N,Net-(BZ1--)*%
X106750000Y-51250000D02*
X106400000Y-51250000D01*
%TO.N,N_SCL*%
X116350000Y-66800000D02*
X116600000Y-67050000D01*
X148300000Y-60100000D02*
X148500000Y-59900000D01*
X143100000Y-60100000D02*
X148300000Y-60100000D01*
X115360000Y-66800000D02*
X116350000Y-66800000D01*
X131900000Y-71000000D02*
X131900000Y-64450000D01*
X116600000Y-67050000D02*
X116600000Y-70650000D01*
X148500000Y-59900000D02*
X148500000Y-58850000D01*
X131300000Y-71600000D02*
X131900000Y-71000000D01*
X132450000Y-63900000D02*
X139300000Y-63900000D01*
X139300000Y-63900000D02*
X143100000Y-60100000D01*
X131900000Y-64450000D02*
X132450000Y-63900000D01*
X117550000Y-71600000D02*
X131300000Y-71600000D01*
X116600000Y-70650000D02*
X117550000Y-71600000D01*
%TO.N,ADMISO*%
X142220000Y-65500000D02*
X143470000Y-64250000D01*
X161830000Y-61530000D02*
X162700000Y-61530000D01*
X140780000Y-66940000D02*
X142220000Y-65500000D01*
X143470000Y-64250000D02*
X151250000Y-64250000D01*
X151250000Y-64250000D02*
X151600000Y-63900000D01*
X161250000Y-60950000D02*
X161830000Y-61530000D01*
X151600000Y-59550000D02*
X153250000Y-57900000D01*
X151600000Y-63900000D02*
X151600000Y-59550000D01*
X161250000Y-58500000D02*
X161250000Y-60950000D01*
X140780000Y-69050000D02*
X140780000Y-66940000D01*
X153250000Y-57900000D02*
X160650000Y-57900000D01*
X160650000Y-57900000D02*
X161250000Y-58500000D01*
%TO.N,ADRESET*%
X150000000Y-72850000D02*
X150000000Y-66300000D01*
X150000000Y-66300000D02*
X149200000Y-65500000D01*
X116850000Y-73450000D02*
X149400000Y-73450000D01*
X115380000Y-76670000D02*
X115380000Y-74920000D01*
X149200000Y-65500000D02*
X147300000Y-65500000D01*
X149400000Y-73450000D02*
X150000000Y-72850000D01*
X115380000Y-74920000D02*
X116850000Y-73450000D01*
%TO.N,N_SDA*%
X129350000Y-70550000D02*
X129350000Y-64100000D01*
X119260000Y-70560000D02*
X119700000Y-71000000D01*
X118700000Y-64650000D02*
X119260000Y-65210000D01*
X139051472Y-63300000D02*
X142130000Y-60221472D01*
X142130000Y-60221472D02*
X142130000Y-58020000D01*
X142550000Y-57600000D02*
X144710000Y-57600000D01*
X130150000Y-63300000D02*
X139051472Y-63300000D01*
X142130000Y-58020000D02*
X142550000Y-57600000D01*
X128900000Y-71000000D02*
X129350000Y-70550000D01*
X144710000Y-57600000D02*
X145960000Y-58850000D01*
X119700000Y-71000000D02*
X128900000Y-71000000D01*
X119260000Y-65210000D02*
X119260000Y-70560000D01*
X129350000Y-64100000D02*
X130150000Y-63300000D01*
X115360000Y-64650000D02*
X118700000Y-64650000D01*
%TO.N,Net-(Q1-E)*%
X110850000Y-55350000D02*
X111830000Y-54370000D01*
X106300000Y-55350000D02*
X110850000Y-55350000D01*
X111830000Y-54370000D02*
X111830000Y-51250000D01*
%TD*%
%TA.AperFunction,Conductor*%
%TO.N,+5V*%
G36*
X132350087Y-74770185D02*
G01*
X132395842Y-74822989D01*
X132406368Y-74887457D01*
X132394540Y-75000000D01*
X132414326Y-75188256D01*
X132414327Y-75188259D01*
X132472820Y-75368283D01*
X132496290Y-75408935D01*
X132512761Y-75476835D01*
X132489909Y-75542862D01*
X132460025Y-75572509D01*
X132320859Y-75669953D01*
X132159954Y-75830858D01*
X132043834Y-75996697D01*
X132029432Y-76017266D01*
X132016533Y-76044929D01*
X132002106Y-76075867D01*
X131955933Y-76128306D01*
X131888739Y-76147457D01*
X131821858Y-76127241D01*
X131777342Y-76075865D01*
X131750135Y-76017520D01*
X131750134Y-76017518D01*
X131619657Y-75831179D01*
X131458820Y-75670342D01*
X131272482Y-75539865D01*
X131066328Y-75443734D01*
X130870000Y-75391127D01*
X130870000Y-76354314D01*
X130865606Y-76349920D01*
X130774394Y-76297259D01*
X130672661Y-76270000D01*
X130567339Y-76270000D01*
X130465606Y-76297259D01*
X130374394Y-76349920D01*
X130370000Y-76354314D01*
X130370000Y-75391127D01*
X130173671Y-75443734D01*
X129967517Y-75539865D01*
X129781179Y-75670342D01*
X129620342Y-75831179D01*
X129489867Y-76017515D01*
X129462657Y-76075867D01*
X129416484Y-76128306D01*
X129349290Y-76147457D01*
X129282409Y-76127241D01*
X129237893Y-76075865D01*
X129223467Y-76044929D01*
X129210568Y-76017266D01*
X129097274Y-75855464D01*
X129080045Y-75830858D01*
X128919141Y-75669954D01*
X128732734Y-75539432D01*
X128732732Y-75539431D01*
X128526497Y-75443261D01*
X128526488Y-75443258D01*
X128306697Y-75384366D01*
X128306693Y-75384365D01*
X128306692Y-75384365D01*
X128306691Y-75384364D01*
X128306686Y-75384364D01*
X128080002Y-75364532D01*
X128079998Y-75364532D01*
X127853313Y-75384364D01*
X127853302Y-75384366D01*
X127633511Y-75443258D01*
X127633502Y-75443261D01*
X127427267Y-75539431D01*
X127427265Y-75539432D01*
X127240858Y-75669954D01*
X127079954Y-75830858D01*
X126949432Y-76017265D01*
X126949431Y-76017267D01*
X126922382Y-76075275D01*
X126876209Y-76127714D01*
X126809016Y-76146866D01*
X126742135Y-76126650D01*
X126697618Y-76075275D01*
X126670568Y-76017266D01*
X126557274Y-75855464D01*
X126540045Y-75830858D01*
X126412602Y-75703415D01*
X126379117Y-75642092D01*
X126384101Y-75572400D01*
X126412600Y-75528055D01*
X127153837Y-74786819D01*
X127215160Y-74753334D01*
X127241518Y-74750500D01*
X132283048Y-74750500D01*
X132350087Y-74770185D01*
G37*
%TD.AperFunction*%
%TA.AperFunction,Conductor*%
G36*
X140895308Y-63397860D02*
G01*
X140951242Y-63439731D01*
X140964357Y-63461637D01*
X141046399Y-63637578D01*
X141181894Y-63831082D01*
X141303946Y-63953134D01*
X141337431Y-64014457D01*
X141332447Y-64084149D01*
X141290575Y-64140082D01*
X141259598Y-64156997D01*
X141127671Y-64206202D01*
X141127664Y-64206206D01*
X141012455Y-64292452D01*
X141012452Y-64292455D01*
X140926206Y-64407664D01*
X140926202Y-64407671D01*
X140875908Y-64542517D01*
X140869501Y-64602116D01*
X140869500Y-64602135D01*
X140869500Y-65808480D01*
X140849815Y-65875519D01*
X140833181Y-65896161D01*
X140235888Y-66493453D01*
X140235887Y-66493454D01*
X140159222Y-66608192D01*
X140106421Y-66735667D01*
X140106418Y-66735679D01*
X140079905Y-66868970D01*
X140079900Y-66868998D01*
X140079500Y-66871006D01*
X140079500Y-67888326D01*
X140059815Y-67955365D01*
X140026624Y-67989901D01*
X139940863Y-68049951D01*
X139779951Y-68210862D01*
X139649432Y-68397265D01*
X139649431Y-68397267D01*
X139622382Y-68455275D01*
X139576209Y-68507714D01*
X139509016Y-68526866D01*
X139442135Y-68506650D01*
X139397618Y-68455275D01*
X139370686Y-68397520D01*
X139370568Y-68397266D01*
X139240047Y-68210861D01*
X139240045Y-68210858D01*
X139079141Y-68049954D01*
X138892734Y-67919432D01*
X138892732Y-67919431D01*
X138686497Y-67823261D01*
X138686488Y-67823258D01*
X138466697Y-67764366D01*
X138466693Y-67764365D01*
X138466692Y-67764365D01*
X138466691Y-67764364D01*
X138466686Y-67764364D01*
X138240002Y-67744532D01*
X138239998Y-67744532D01*
X138013313Y-67764364D01*
X138013302Y-67764366D01*
X137793511Y-67823258D01*
X137793502Y-67823261D01*
X137587267Y-67919431D01*
X137587265Y-67919432D01*
X137400858Y-68049954D01*
X137239954Y-68210858D01*
X137118266Y-68384649D01*
X137109432Y-68397266D01*
X137109315Y-68397518D01*
X137082106Y-68455867D01*
X137035933Y-68508306D01*
X136968739Y-68527457D01*
X136901858Y-68507241D01*
X136857342Y-68455865D01*
X136830135Y-68397520D01*
X136830134Y-68397518D01*
X136699657Y-68211179D01*
X136538820Y-68050342D01*
X136352482Y-67919865D01*
X136146328Y-67823734D01*
X135950000Y-67771127D01*
X135950000Y-68734314D01*
X135945606Y-68729920D01*
X135854394Y-68677259D01*
X135752661Y-68650000D01*
X135647339Y-68650000D01*
X135545606Y-68677259D01*
X135454394Y-68729920D01*
X135450000Y-68734314D01*
X135450000Y-67771127D01*
X135253671Y-67823734D01*
X135047517Y-67919865D01*
X134861179Y-68050342D01*
X134700342Y-68211179D01*
X134569867Y-68397515D01*
X134542657Y-68455867D01*
X134496484Y-68508306D01*
X134429290Y-68527457D01*
X134362409Y-68507241D01*
X134317893Y-68455865D01*
X134290685Y-68397518D01*
X134290568Y-68397266D01*
X134160047Y-68210861D01*
X134160045Y-68210858D01*
X133999141Y-68049954D01*
X133812734Y-67919432D01*
X133812732Y-67919431D01*
X133606497Y-67823261D01*
X133606488Y-67823258D01*
X133386697Y-67764366D01*
X133386693Y-67764365D01*
X133386692Y-67764365D01*
X133386691Y-67764364D01*
X133386686Y-67764364D01*
X133160002Y-67744532D01*
X133159998Y-67744532D01*
X132933313Y-67764364D01*
X132933302Y-67764366D01*
X132756593Y-67811715D01*
X132686743Y-67810052D01*
X132628881Y-67770889D01*
X132601377Y-67706661D01*
X132600500Y-67691940D01*
X132600500Y-64791518D01*
X132620185Y-64724479D01*
X132636819Y-64703837D01*
X132703837Y-64636819D01*
X132765160Y-64603334D01*
X132791518Y-64600500D01*
X134197627Y-64600500D01*
X134264666Y-64620185D01*
X134310421Y-64672989D01*
X134320365Y-64742147D01*
X134317403Y-64756588D01*
X134292374Y-64849998D01*
X134283793Y-64882023D01*
X134283793Y-64882024D01*
X134264773Y-65099432D01*
X134264723Y-65100000D01*
X134283613Y-65315925D01*
X134283793Y-65317975D01*
X134283793Y-65317979D01*
X134340422Y-65529322D01*
X134340424Y-65529326D01*
X134340425Y-65529330D01*
X134386661Y-65628484D01*
X134432897Y-65727638D01*
X134432898Y-65727639D01*
X134558402Y-65906877D01*
X134713123Y-66061598D01*
X134892361Y-66187102D01*
X135090670Y-66279575D01*
X135302023Y-66336207D01*
X135484926Y-66352208D01*
X135519998Y-66355277D01*
X135520000Y-66355277D01*
X135520002Y-66355277D01*
X135548254Y-66352805D01*
X135737977Y-66336207D01*
X135949330Y-66279575D01*
X136147639Y-66187102D01*
X136326877Y-66061598D01*
X136481598Y-65906877D01*
X136607102Y-65727639D01*
X136699575Y-65529330D01*
X136756207Y-65317977D01*
X136775277Y-65100000D01*
X136775227Y-65099432D01*
X136767025Y-65005680D01*
X136756207Y-64882023D01*
X136722598Y-64756592D01*
X136724261Y-64686744D01*
X136763423Y-64628881D01*
X136827652Y-64601377D01*
X136842373Y-64600500D01*
X139368996Y-64600500D01*
X139489668Y-64576496D01*
X139504328Y-64573580D01*
X139579321Y-64542517D01*
X139631807Y-64520777D01*
X139631808Y-64520776D01*
X139631811Y-64520775D01*
X139746543Y-64444114D01*
X140764298Y-63426358D01*
X140825617Y-63392876D01*
X140895308Y-63397860D01*
G37*
%TD.AperFunction*%
%TA.AperFunction,Conductor*%
G36*
X171166138Y-46750679D02*
G01*
X171233154Y-46770437D01*
X171278851Y-46823292D01*
X171290000Y-46874679D01*
X171290000Y-78806000D01*
X171270315Y-78873039D01*
X171217511Y-78918794D01*
X171166000Y-78930000D01*
X170549748Y-78930000D01*
X80823863Y-78830975D01*
X80756845Y-78811216D01*
X80711149Y-78758362D01*
X80700000Y-78706975D01*
X80700000Y-77697870D01*
X88827000Y-77697870D01*
X88827001Y-77697876D01*
X88833408Y-77757483D01*
X88883702Y-77892328D01*
X88883706Y-77892335D01*
X88969952Y-78007544D01*
X88969955Y-78007547D01*
X89085164Y-78093793D01*
X89085171Y-78093797D01*
X89220017Y-78144091D01*
X89220016Y-78144091D01*
X89226944Y-78144835D01*
X89279627Y-78150500D01*
X91280372Y-78150499D01*
X91339983Y-78144091D01*
X91474831Y-78093796D01*
X91590046Y-78007546D01*
X91676296Y-77892331D01*
X91686690Y-77864460D01*
X91728560Y-77808527D01*
X91794023Y-77784108D01*
X91862297Y-77798958D01*
X91875746Y-77807465D01*
X92058462Y-77940217D01*
X92190599Y-78007544D01*
X92262244Y-78044049D01*
X92479751Y-78114721D01*
X92479752Y-78114721D01*
X92479755Y-78114722D01*
X92705646Y-78150500D01*
X92705647Y-78150500D01*
X92934353Y-78150500D01*
X92934354Y-78150500D01*
X93160245Y-78114722D01*
X93160248Y-78114721D01*
X93160249Y-78114721D01*
X93377755Y-78044049D01*
X93377755Y-78044048D01*
X93377758Y-78044048D01*
X93581538Y-77940217D01*
X93766566Y-77805786D01*
X93928286Y-77644066D01*
X93989992Y-77559134D01*
X94045319Y-77516470D01*
X94114932Y-77510491D01*
X94176727Y-77543096D01*
X94190626Y-77559135D01*
X94252097Y-77643741D01*
X94252097Y-77643742D01*
X94413757Y-77805402D01*
X94598723Y-77939788D01*
X94802429Y-78043582D01*
X95019871Y-78114234D01*
X95110000Y-78128509D01*
X95110000Y-77140747D01*
X95147708Y-77162518D01*
X95287591Y-77200000D01*
X95432409Y-77200000D01*
X95572292Y-77162518D01*
X95610000Y-77140747D01*
X95610000Y-78128508D01*
X95700128Y-78114234D01*
X95917570Y-78043582D01*
X96121276Y-77939788D01*
X96306242Y-77805402D01*
X96467902Y-77643742D01*
X96602288Y-77458776D01*
X96706082Y-77255070D01*
X96776734Y-77037628D01*
X96798532Y-76900000D01*
X95850748Y-76900000D01*
X95872518Y-76862292D01*
X95910000Y-76722409D01*
X95910000Y-76577591D01*
X95872518Y-76437708D01*
X95850748Y-76400000D01*
X96798532Y-76400000D01*
X96776734Y-76262371D01*
X96706082Y-76044929D01*
X96602288Y-75841223D01*
X96467902Y-75656257D01*
X96306242Y-75494597D01*
X96121276Y-75360211D01*
X95917568Y-75256417D01*
X95891263Y-75247870D01*
X99199500Y-75247870D01*
X99199501Y-75247876D01*
X99205908Y-75307483D01*
X99256202Y-75442328D01*
X99256206Y-75442335D01*
X99342452Y-75557544D01*
X99342455Y-75557547D01*
X99457664Y-75643793D01*
X99457671Y-75643797D01*
X99592517Y-75694091D01*
X99592516Y-75694091D01*
X99599444Y-75694835D01*
X99652127Y-75700500D01*
X101347872Y-75700499D01*
X101407483Y-75694091D01*
X101542331Y-75643796D01*
X101657546Y-75557546D01*
X101664051Y-75548856D01*
X101719982Y-75506984D01*
X101789673Y-75501997D01*
X101834442Y-75521589D01*
X101847264Y-75530567D01*
X101847266Y-75530568D01*
X102053504Y-75626739D01*
X102053510Y-75626740D01*
X102053511Y-75626741D01*
X102056982Y-75627671D01*
X102273308Y-75685635D01*
X102435230Y-75699801D01*
X102499998Y-75705468D01*
X102500000Y-75705468D01*
X102500002Y-75705468D01*
X102556807Y-75700498D01*
X102726692Y-75685635D01*
X102946496Y-75626739D01*
X103152734Y-75530568D01*
X103339139Y-75400047D01*
X103500047Y-75239139D01*
X103630568Y-75052734D01*
X103726739Y-74846496D01*
X103785635Y-74626692D01*
X103805468Y-74400000D01*
X103785635Y-74173308D01*
X103726739Y-73953504D01*
X103630568Y-73747266D01*
X103500047Y-73560861D01*
X103500045Y-73560858D01*
X103339141Y-73399954D01*
X103152734Y-73269432D01*
X103152732Y-73269431D01*
X102946497Y-73173261D01*
X102946488Y-73173258D01*
X102726697Y-73114366D01*
X102726693Y-73114365D01*
X102726692Y-73114365D01*
X102726691Y-73114364D01*
X102726686Y-73114364D01*
X102500002Y-73094532D01*
X102499998Y-73094532D01*
X102273313Y-73114364D01*
X102273302Y-73114366D01*
X102053511Y-73173258D01*
X102053502Y-73173261D01*
X101847267Y-73269431D01*
X101847262Y-73269434D01*
X101834435Y-73278415D01*
X101768227Y-73300738D01*
X101700461Y-73283722D01*
X101664052Y-73251145D01*
X101657546Y-73242454D01*
X101657545Y-73242453D01*
X101657544Y-73242452D01*
X101542335Y-73156206D01*
X101542328Y-73156202D01*
X101407482Y-73105908D01*
X101407483Y-73105908D01*
X101347883Y-73099501D01*
X101347881Y-73099500D01*
X101347873Y-73099500D01*
X101347864Y-73099500D01*
X99652129Y-73099500D01*
X99652123Y-73099501D01*
X99592516Y-73105908D01*
X99457671Y-73156202D01*
X99457664Y-73156206D01*
X99342455Y-73242452D01*
X99342452Y-73242455D01*
X99256206Y-73357664D01*
X99256202Y-73357671D01*
X99205908Y-73492517D01*
X99199501Y-73552116D01*
X99199500Y-73552135D01*
X99199500Y-75247870D01*
X95891263Y-75247870D01*
X95700124Y-75185765D01*
X95610000Y-75171490D01*
X95610000Y-76159252D01*
X95572292Y-76137482D01*
X95432409Y-76100000D01*
X95287591Y-76100000D01*
X95147708Y-76137482D01*
X95110000Y-76159252D01*
X95110000Y-75171490D01*
X95109999Y-75171490D01*
X95019875Y-75185765D01*
X94802431Y-75256417D01*
X94598723Y-75360211D01*
X94413757Y-75494597D01*
X94252097Y-75656257D01*
X94190627Y-75740864D01*
X94135297Y-75783529D01*
X94065684Y-75789508D01*
X94003889Y-75756902D01*
X93989991Y-75740864D01*
X93928286Y-75655934D01*
X93766566Y-75494214D01*
X93581538Y-75359783D01*
X93510350Y-75323511D01*
X93377755Y-75255950D01*
X93283234Y-75225239D01*
X93225559Y-75185802D01*
X93198360Y-75121443D01*
X93210274Y-75052597D01*
X93233868Y-75019630D01*
X96389463Y-71864036D01*
X96429359Y-71804328D01*
X96488013Y-71716547D01*
X96555894Y-71552666D01*
X96590500Y-71378691D01*
X96590500Y-69307106D01*
X96610185Y-69240067D01*
X96633965Y-69212818D01*
X96789759Y-69079759D01*
X96948259Y-68894179D01*
X97075777Y-68686089D01*
X97169172Y-68460612D01*
X97226146Y-68223302D01*
X97245294Y-67980000D01*
X97226146Y-67736698D01*
X97169172Y-67499388D01*
X97151507Y-67456741D01*
X97075777Y-67273910D01*
X96956991Y-67080070D01*
X96948261Y-67065825D01*
X96948261Y-67065823D01*
X96854011Y-66955471D01*
X96789759Y-66880241D01*
X96633968Y-66747183D01*
X96595775Y-66688676D01*
X96590500Y-66652893D01*
X96590500Y-65697844D01*
X99300000Y-65697844D01*
X99306401Y-65757372D01*
X99306403Y-65757379D01*
X99356645Y-65892086D01*
X99356649Y-65892093D01*
X99442809Y-66007187D01*
X99442812Y-66007190D01*
X99557906Y-66093350D01*
X99557913Y-66093354D01*
X99692620Y-66143596D01*
X99692627Y-66143598D01*
X99752155Y-66149999D01*
X99752172Y-66150000D01*
X100350000Y-66150000D01*
X100350000Y-65283012D01*
X100407007Y-65315925D01*
X100534174Y-65350000D01*
X100665826Y-65350000D01*
X100792993Y-65315925D01*
X100850000Y-65283012D01*
X100850000Y-66150000D01*
X101447828Y-66150000D01*
X101447844Y-66149999D01*
X101507372Y-66143598D01*
X101507379Y-66143596D01*
X101642086Y-66093354D01*
X101642093Y-66093350D01*
X101757187Y-66007190D01*
X101757190Y-66007187D01*
X101843350Y-65892093D01*
X101843354Y-65892086D01*
X101893596Y-65757379D01*
X101893598Y-65757372D01*
X101899999Y-65697844D01*
X101900000Y-65697827D01*
X101900000Y-65100000D01*
X101033012Y-65100000D01*
X101065925Y-65042993D01*
X101100000Y-64915826D01*
X101100000Y-64850001D01*
X105794532Y-64850001D01*
X105814364Y-65076686D01*
X105814366Y-65076697D01*
X105873258Y-65296488D01*
X105873261Y-65296497D01*
X105969431Y-65502732D01*
X105969432Y-65502734D01*
X106099954Y-65689141D01*
X106260858Y-65850045D01*
X106260861Y-65850047D01*
X106447266Y-65980568D01*
X106653504Y-66076739D01*
X106653509Y-66076740D01*
X106653511Y-66076741D01*
X106706415Y-66090916D01*
X106873308Y-66135635D01*
X107035230Y-66149801D01*
X107099998Y-66155468D01*
X107100000Y-66155468D01*
X107100002Y-66155468D01*
X107162511Y-66149999D01*
X107326692Y-66135635D01*
X107546496Y-66076739D01*
X107752734Y-65980568D01*
X107939139Y-65850047D01*
X108100047Y-65689139D01*
X108230568Y-65502734D01*
X108326739Y-65296496D01*
X108385635Y-65076692D01*
X108405468Y-64850000D01*
X108401086Y-64799919D01*
X108398374Y-64768911D01*
X108385635Y-64623308D01*
X108333427Y-64428464D01*
X108326741Y-64403511D01*
X108326738Y-64403502D01*
X108304907Y-64356686D01*
X108230568Y-64197266D01*
X108114153Y-64031006D01*
X108100045Y-64010858D01*
X107939141Y-63849954D01*
X107752734Y-63719432D01*
X107752732Y-63719431D01*
X107546497Y-63623261D01*
X107546488Y-63623258D01*
X107326697Y-63564366D01*
X107326693Y-63564365D01*
X107326692Y-63564365D01*
X107326691Y-63564364D01*
X107326686Y-63564364D01*
X107100002Y-63544532D01*
X107099998Y-63544532D01*
X106873313Y-63564364D01*
X106873302Y-63564366D01*
X106653511Y-63623258D01*
X106653502Y-63623261D01*
X106447267Y-63719431D01*
X106447265Y-63719432D01*
X106260858Y-63849954D01*
X106099954Y-64010858D01*
X105969432Y-64197265D01*
X105969431Y-64197267D01*
X105873261Y-64403502D01*
X105873258Y-64403511D01*
X105814366Y-64623302D01*
X105814364Y-64623313D01*
X105794532Y-64849998D01*
X105794532Y-64850001D01*
X101100000Y-64850001D01*
X101100000Y-64784174D01*
X101065925Y-64657007D01*
X101033012Y-64600000D01*
X101900000Y-64600000D01*
X101900000Y-64002172D01*
X101899999Y-64002155D01*
X101893598Y-63942627D01*
X101893596Y-63942620D01*
X101843354Y-63807913D01*
X101843350Y-63807906D01*
X101757190Y-63692812D01*
X101757187Y-63692809D01*
X101642093Y-63606649D01*
X101642086Y-63606645D01*
X101507379Y-63556403D01*
X101507372Y-63556401D01*
X101447844Y-63550000D01*
X100850000Y-63550000D01*
X100850000Y-64416988D01*
X100792993Y-64384075D01*
X100665826Y-64350000D01*
X100534174Y-64350000D01*
X100407007Y-64384075D01*
X100350000Y-64416988D01*
X100350000Y-63550000D01*
X99752155Y-63550000D01*
X99692627Y-63556401D01*
X99692620Y-63556403D01*
X99557913Y-63606645D01*
X99557906Y-63606649D01*
X99442812Y-63692809D01*
X99442809Y-63692812D01*
X99356649Y-63807906D01*
X99356645Y-63807913D01*
X99306403Y-63942620D01*
X99306401Y-63942627D01*
X99300000Y-64002155D01*
X99300000Y-64600000D01*
X100166988Y-64600000D01*
X100134075Y-64657007D01*
X100100000Y-64784174D01*
X100100000Y-64915826D01*
X100134075Y-65042993D01*
X100166988Y-65100000D01*
X99300000Y-65100000D01*
X99300000Y-65697844D01*
X96590500Y-65697844D01*
X96590500Y-59297106D01*
X96610185Y-59230067D01*
X96633965Y-59202818D01*
X96789759Y-59069759D01*
X96948259Y-58884179D01*
X97075777Y-58676089D01*
X97169172Y-58450612D01*
X97226146Y-58213302D01*
X97245294Y-57970000D01*
X97226146Y-57726698D01*
X97169172Y-57489388D01*
X97169169Y-57489380D01*
X97169169Y-57489378D01*
X97169168Y-57489376D01*
X97128814Y-57391952D01*
X97121345Y-57322483D01*
X97152620Y-57260004D01*
X97212709Y-57224352D01*
X97243375Y-57220500D01*
X101428481Y-57220500D01*
X101495520Y-57240185D01*
X101516162Y-57256819D01*
X103953453Y-59694111D01*
X103953454Y-59694112D01*
X104068192Y-59770777D01*
X104194902Y-59823261D01*
X104195672Y-59823580D01*
X104195676Y-59823580D01*
X104195677Y-59823581D01*
X104331003Y-59850500D01*
X104331006Y-59850500D01*
X104331007Y-59850500D01*
X114099770Y-59850500D01*
X114166809Y-59870185D01*
X114212564Y-59922989D01*
X114222508Y-59992147D01*
X114219036Y-60008434D01*
X114184885Y-60128461D01*
X114184884Y-60128464D01*
X114164357Y-60349999D01*
X114164357Y-60350000D01*
X114184884Y-60571535D01*
X114184885Y-60571537D01*
X114245769Y-60785523D01*
X114245775Y-60785538D01*
X114344938Y-60984683D01*
X114344943Y-60984691D01*
X114479020Y-61162238D01*
X114643435Y-61312122D01*
X114655470Y-61319574D01*
X114702104Y-61371603D01*
X114713207Y-61440585D01*
X114685252Y-61504619D01*
X114655470Y-61530426D01*
X114643435Y-61537877D01*
X114479020Y-61687761D01*
X114344943Y-61865308D01*
X114344938Y-61865316D01*
X114245775Y-62064461D01*
X114245769Y-62064476D01*
X114184885Y-62278462D01*
X114184884Y-62278464D01*
X114164357Y-62499999D01*
X114164357Y-62500000D01*
X114184884Y-62721535D01*
X114184885Y-62721537D01*
X114245769Y-62935523D01*
X114245775Y-62935538D01*
X114344938Y-63134683D01*
X114344943Y-63134691D01*
X114479020Y-63312238D01*
X114643435Y-63462122D01*
X114650470Y-63466478D01*
X114697104Y-63518507D01*
X114708207Y-63587489D01*
X114680252Y-63651523D01*
X114650470Y-63677330D01*
X114633435Y-63687877D01*
X114469020Y-63837761D01*
X114334943Y-64015308D01*
X114334938Y-64015316D01*
X114235775Y-64214461D01*
X114235769Y-64214476D01*
X114174885Y-64428462D01*
X114174884Y-64428464D01*
X114154357Y-64649999D01*
X114154357Y-64650000D01*
X114174884Y-64871535D01*
X114174885Y-64871537D01*
X114235769Y-65085523D01*
X114235775Y-65085538D01*
X114334938Y-65284683D01*
X114334943Y-65284691D01*
X114469020Y-65462238D01*
X114633435Y-65612122D01*
X114645470Y-65619574D01*
X114692104Y-65671603D01*
X114703207Y-65740585D01*
X114675252Y-65804619D01*
X114645470Y-65830426D01*
X114633435Y-65837877D01*
X114469020Y-65987761D01*
X114334943Y-66165308D01*
X114334938Y-66165316D01*
X114235775Y-66364461D01*
X114235769Y-66364476D01*
X114174885Y-66578462D01*
X114174885Y-66578463D01*
X114154357Y-66799999D01*
X114154357Y-66800000D01*
X114174884Y-67021535D01*
X114174885Y-67021537D01*
X114235769Y-67235523D01*
X114235775Y-67235538D01*
X114334938Y-67434683D01*
X114334943Y-67434691D01*
X114469020Y-67612238D01*
X114633437Y-67762123D01*
X114633441Y-67762126D01*
X114642461Y-67767711D01*
X114689099Y-67819737D01*
X114700206Y-67888718D01*
X114672255Y-67952753D01*
X114648312Y-67974715D01*
X114540856Y-68049956D01*
X114379954Y-68210858D01*
X114249432Y-68397265D01*
X114249431Y-68397267D01*
X114153261Y-68603502D01*
X114153258Y-68603511D01*
X114094366Y-68823302D01*
X114094364Y-68823313D01*
X114074532Y-69049998D01*
X114074532Y-69050001D01*
X114094364Y-69276686D01*
X114094366Y-69276697D01*
X114153258Y-69496488D01*
X114153261Y-69496497D01*
X114249431Y-69702732D01*
X114249432Y-69702734D01*
X114379954Y-69889141D01*
X114540858Y-70050045D01*
X114540861Y-70050047D01*
X114727266Y-70180568D01*
X114933504Y-70276739D01*
X114933509Y-70276740D01*
X114933511Y-70276741D01*
X114971888Y-70287024D01*
X115153308Y-70335635D01*
X115315230Y-70349801D01*
X115379998Y-70355468D01*
X115380000Y-70355468D01*
X115380002Y-70355468D01*
X115436673Y-70350509D01*
X115606692Y-70335635D01*
X115743408Y-70299002D01*
X115813256Y-70300665D01*
X115871119Y-70339827D01*
X115898623Y-70404056D01*
X115899500Y-70418777D01*
X115899500Y-70581006D01*
X115899500Y-70718994D01*
X115899500Y-70718996D01*
X115899499Y-70718996D01*
X115926418Y-70854322D01*
X115926421Y-70854332D01*
X115979222Y-70981807D01*
X116055887Y-71096545D01*
X117103454Y-72144112D01*
X117218192Y-72220777D01*
X117345667Y-72273578D01*
X117345672Y-72273580D01*
X117345676Y-72273580D01*
X117345677Y-72273581D01*
X117481003Y-72300500D01*
X117481006Y-72300500D01*
X131368996Y-72300500D01*
X131460040Y-72282389D01*
X131504328Y-72273580D01*
X131595774Y-72235702D01*
X131631807Y-72220777D01*
X131631808Y-72220776D01*
X131631811Y-72220775D01*
X131746543Y-72144114D01*
X132444114Y-71446543D01*
X132520775Y-71331811D01*
X132573580Y-71204329D01*
X132585669Y-71143553D01*
X132592502Y-71109203D01*
X132592502Y-71109199D01*
X132600500Y-71068993D01*
X132600500Y-70408059D01*
X132620185Y-70341020D01*
X132672989Y-70295265D01*
X132742147Y-70285321D01*
X132756580Y-70288281D01*
X132933308Y-70335635D01*
X133095230Y-70349801D01*
X133159998Y-70355468D01*
X133160000Y-70355468D01*
X133160002Y-70355468D01*
X133216673Y-70350509D01*
X133386692Y-70335635D01*
X133606496Y-70276739D01*
X133812734Y-70180568D01*
X133999139Y-70050047D01*
X134160047Y-69889139D01*
X134290568Y-69702734D01*
X134317895Y-69644129D01*
X134364064Y-69591695D01*
X134431257Y-69572542D01*
X134498139Y-69592757D01*
X134542657Y-69644133D01*
X134569865Y-69702482D01*
X134700342Y-69888820D01*
X134861179Y-70049657D01*
X135047517Y-70180134D01*
X135253673Y-70276265D01*
X135253682Y-70276269D01*
X135449999Y-70328872D01*
X135450000Y-70328871D01*
X135450000Y-69365686D01*
X135454394Y-69370080D01*
X135545606Y-69422741D01*
X135647339Y-69450000D01*
X135752661Y-69450000D01*
X135854394Y-69422741D01*
X135945606Y-69370080D01*
X135950000Y-69365686D01*
X135950000Y-70328872D01*
X136146317Y-70276269D01*
X136146326Y-70276265D01*
X136352482Y-70180134D01*
X136538820Y-70049657D01*
X136699657Y-69888820D01*
X136830132Y-69702484D01*
X136857341Y-69644134D01*
X136903513Y-69591695D01*
X136970707Y-69572542D01*
X137037588Y-69592757D01*
X137082106Y-69644133D01*
X137109431Y-69702732D01*
X137109432Y-69702734D01*
X137239954Y-69889141D01*
X137400858Y-70050045D01*
X137400861Y-70050047D01*
X137587266Y-70180568D01*
X137793504Y-70276739D01*
X137793509Y-70276740D01*
X137793511Y-70276741D01*
X137831888Y-70287024D01*
X138013308Y-70335635D01*
X138175230Y-70349801D01*
X138239998Y-70355468D01*
X138240000Y-70355468D01*
X138240002Y-70355468D01*
X138296673Y-70350509D01*
X138466692Y-70335635D01*
X138686496Y-70276739D01*
X138892734Y-70180568D01*
X139079139Y-70050047D01*
X139240047Y-69889139D01*
X139370568Y-69702734D01*
X139397618Y-69644724D01*
X139443790Y-69592285D01*
X139510983Y-69573133D01*
X139577865Y-69593348D01*
X139622382Y-69644725D01*
X139649429Y-69702728D01*
X139649432Y-69702734D01*
X139779954Y-69889141D01*
X139940858Y-70050045D01*
X139940861Y-70050047D01*
X140127266Y-70180568D01*
X140333504Y-70276739D01*
X140333509Y-70276740D01*
X140333511Y-70276741D01*
X140371888Y-70287024D01*
X140553308Y-70335635D01*
X140715230Y-70349801D01*
X140779998Y-70355468D01*
X140780000Y-70355468D01*
X140780002Y-70355468D01*
X140836673Y-70350509D01*
X141006692Y-70335635D01*
X141226496Y-70276739D01*
X141432734Y-70180568D01*
X141619139Y-70050047D01*
X141780047Y-69889139D01*
X141910568Y-69702734D01*
X141937618Y-69644724D01*
X141983790Y-69592285D01*
X142050983Y-69573133D01*
X142117865Y-69593348D01*
X142162382Y-69644725D01*
X142189429Y-69702728D01*
X142189432Y-69702734D01*
X142319954Y-69889141D01*
X142480858Y-70050045D01*
X142480861Y-70050047D01*
X142667266Y-70180568D01*
X142873504Y-70276739D01*
X142873509Y-70276740D01*
X142873511Y-70276741D01*
X142911888Y-70287024D01*
X143093308Y-70335635D01*
X143255230Y-70349801D01*
X143319998Y-70355468D01*
X143320000Y-70355468D01*
X143320002Y-70355468D01*
X143376673Y-70350509D01*
X143546692Y-70335635D01*
X143766496Y-70276739D01*
X143972734Y-70180568D01*
X144159139Y-70050047D01*
X144320047Y-69889139D01*
X144450568Y-69702734D01*
X144477618Y-69644724D01*
X144523790Y-69592285D01*
X144590983Y-69573133D01*
X144657865Y-69593348D01*
X144702382Y-69644725D01*
X144729429Y-69702728D01*
X144729432Y-69702734D01*
X144859954Y-69889141D01*
X145020858Y-70050045D01*
X145020861Y-70050047D01*
X145207266Y-70180568D01*
X145413504Y-70276739D01*
X145413509Y-70276740D01*
X145413511Y-70276741D01*
X145451888Y-70287024D01*
X145633308Y-70335635D01*
X145795230Y-70349801D01*
X145859998Y-70355468D01*
X145860000Y-70355468D01*
X145860002Y-70355468D01*
X145916673Y-70350509D01*
X146086692Y-70335635D01*
X146306496Y-70276739D01*
X146512734Y-70180568D01*
X146699139Y-70050047D01*
X146860047Y-69889139D01*
X146990568Y-69702734D01*
X147017618Y-69644724D01*
X147063790Y-69592285D01*
X147130983Y-69573133D01*
X147197865Y-69593348D01*
X147242382Y-69644725D01*
X147269429Y-69702728D01*
X147269432Y-69702734D01*
X147399954Y-69889141D01*
X147560858Y-70050045D01*
X147560861Y-70050047D01*
X147747266Y-70180568D01*
X147953504Y-70276739D01*
X147953509Y-70276740D01*
X147953511Y-70276741D01*
X147991888Y-70287024D01*
X148173308Y-70335635D01*
X148335230Y-70349801D01*
X148399998Y-70355468D01*
X148400000Y-70355468D01*
X148400002Y-70355468D01*
X148456673Y-70350509D01*
X148626692Y-70335635D01*
X148846496Y-70276739D01*
X149052734Y-70180568D01*
X149104378Y-70144406D01*
X149170583Y-70122080D01*
X149238350Y-70139090D01*
X149286163Y-70190038D01*
X149299500Y-70245982D01*
X149299500Y-72508481D01*
X149279815Y-72575520D01*
X149263181Y-72596162D01*
X149146162Y-72713181D01*
X149084839Y-72746666D01*
X149058481Y-72749500D01*
X116781004Y-72749500D01*
X116645677Y-72776418D01*
X116645667Y-72776421D01*
X116518192Y-72829222D01*
X116403454Y-72905887D01*
X114835888Y-74473453D01*
X114835882Y-74473461D01*
X114764023Y-74581007D01*
X114764023Y-74581009D01*
X114759223Y-74588191D01*
X114759222Y-74588193D01*
X114706421Y-74715667D01*
X114706418Y-74715677D01*
X114679500Y-74851004D01*
X114679500Y-75245500D01*
X114659815Y-75312539D01*
X114607011Y-75358294D01*
X114555505Y-75369500D01*
X114532132Y-75369500D01*
X114532123Y-75369501D01*
X114472516Y-75375908D01*
X114337671Y-75426202D01*
X114337664Y-75426206D01*
X114222455Y-75512452D01*
X114222452Y-75512455D01*
X114136206Y-75627664D01*
X114136202Y-75627671D01*
X114085908Y-75762517D01*
X114079501Y-75822116D01*
X114079500Y-75822135D01*
X114079500Y-77517870D01*
X114079501Y-77517876D01*
X114085908Y-77577483D01*
X114136202Y-77712328D01*
X114136206Y-77712335D01*
X114222452Y-77827544D01*
X114222455Y-77827547D01*
X114337664Y-77913793D01*
X114337671Y-77913797D01*
X114472517Y-77964091D01*
X114472516Y-77964091D01*
X114479444Y-77964835D01*
X114532127Y-77970500D01*
X116227872Y-77970499D01*
X116287483Y-77964091D01*
X116422331Y-77913796D01*
X116537546Y-77827546D01*
X116623796Y-77712331D01*
X116674091Y-77577483D01*
X116677862Y-77542401D01*
X116704599Y-77477855D01*
X116761990Y-77438006D01*
X116831816Y-77435511D01*
X116891905Y-77471163D01*
X116902726Y-77484536D01*
X116919956Y-77509143D01*
X117080858Y-77670045D01*
X117080861Y-77670047D01*
X117267266Y-77800568D01*
X117473504Y-77896739D01*
X117693308Y-77955635D01*
X117855230Y-77969801D01*
X117919998Y-77975468D01*
X117920000Y-77975468D01*
X117920002Y-77975468D01*
X117976807Y-77970498D01*
X118146692Y-77955635D01*
X118366496Y-77896739D01*
X118572734Y-77800568D01*
X118759139Y-77670047D01*
X118920047Y-77509139D01*
X119050568Y-77322734D01*
X119077618Y-77264724D01*
X119123790Y-77212285D01*
X119190983Y-77193133D01*
X119257865Y-77213348D01*
X119302381Y-77264724D01*
X119316517Y-77295038D01*
X119329429Y-77322728D01*
X119329432Y-77322734D01*
X119459954Y-77509141D01*
X119620858Y-77670045D01*
X119620861Y-77670047D01*
X119807266Y-77800568D01*
X120013504Y-77896739D01*
X120233308Y-77955635D01*
X120395230Y-77969801D01*
X120459998Y-77975468D01*
X120460000Y-77975468D01*
X120460002Y-77975468D01*
X120516807Y-77970498D01*
X120686692Y-77955635D01*
X120906496Y-77896739D01*
X121112734Y-77800568D01*
X121299139Y-77670047D01*
X121460047Y-77509139D01*
X121590568Y-77322734D01*
X121617618Y-77264724D01*
X121663790Y-77212285D01*
X121730983Y-77193133D01*
X121797865Y-77213348D01*
X121842381Y-77264724D01*
X121856517Y-77295038D01*
X121869429Y-77322728D01*
X121869432Y-77322734D01*
X121999954Y-77509141D01*
X122160858Y-77670045D01*
X122160861Y-77670047D01*
X122347266Y-77800568D01*
X122553504Y-77896739D01*
X122773308Y-77955635D01*
X122935230Y-77969801D01*
X122999998Y-77975468D01*
X123000000Y-77975468D01*
X123000002Y-77975468D01*
X123056807Y-77970498D01*
X123226692Y-77955635D01*
X123446496Y-77896739D01*
X123652734Y-77800568D01*
X123839139Y-77670047D01*
X124000047Y-77509139D01*
X124130568Y-77322734D01*
X124157618Y-77264724D01*
X124203790Y-77212285D01*
X124270983Y-77193133D01*
X124337865Y-77213348D01*
X124382381Y-77264724D01*
X124396517Y-77295038D01*
X124409429Y-77322728D01*
X124409432Y-77322734D01*
X124539954Y-77509141D01*
X124700858Y-77670045D01*
X124700861Y-77670047D01*
X124887266Y-77800568D01*
X125093504Y-77896739D01*
X125313308Y-77955635D01*
X125475230Y-77969801D01*
X125539998Y-77975468D01*
X125540000Y-77975468D01*
X125540002Y-77975468D01*
X125596807Y-77970498D01*
X125766692Y-77955635D01*
X125986496Y-77896739D01*
X126192734Y-77800568D01*
X126379139Y-77670047D01*
X126540047Y-77509139D01*
X126670568Y-77322734D01*
X126697618Y-77264724D01*
X126743790Y-77212285D01*
X126810983Y-77193133D01*
X126877865Y-77213348D01*
X126922381Y-77264724D01*
X126936517Y-77295038D01*
X126949429Y-77322728D01*
X126949432Y-77322734D01*
X127079954Y-77509141D01*
X127240858Y-77670045D01*
X127240861Y-77670047D01*
X127427266Y-77800568D01*
X127633504Y-77896739D01*
X127853308Y-77955635D01*
X128015230Y-77969801D01*
X128079998Y-77975468D01*
X128080000Y-77975468D01*
X128080002Y-77975468D01*
X128136807Y-77970498D01*
X128306692Y-77955635D01*
X128526496Y-77896739D01*
X128732734Y-77800568D01*
X128919139Y-77670047D01*
X129080047Y-77509139D01*
X129210568Y-77322734D01*
X129237895Y-77264129D01*
X129284064Y-77211695D01*
X129351257Y-77192542D01*
X129418139Y-77212757D01*
X129462657Y-77264133D01*
X129489865Y-77322482D01*
X129620342Y-77508820D01*
X129781179Y-77669657D01*
X129967517Y-77800134D01*
X130173673Y-77896265D01*
X130173682Y-77896269D01*
X130369999Y-77948872D01*
X130370000Y-77948871D01*
X130370000Y-76985686D01*
X130374394Y-76990080D01*
X130465606Y-77042741D01*
X130567339Y-77070000D01*
X130672661Y-77070000D01*
X130774394Y-77042741D01*
X130865606Y-76990080D01*
X130870000Y-76985686D01*
X130870000Y-77948872D01*
X131066317Y-77896269D01*
X131066326Y-77896265D01*
X131272482Y-77800134D01*
X131458820Y-77669657D01*
X131619657Y-77508820D01*
X131750132Y-77322484D01*
X131777341Y-77264134D01*
X131823513Y-77211695D01*
X131890707Y-77192542D01*
X131957588Y-77212757D01*
X132002105Y-77264132D01*
X132023727Y-77310500D01*
X132029431Y-77322732D01*
X132029432Y-77322734D01*
X132159954Y-77509141D01*
X132320858Y-77670045D01*
X132320861Y-77670047D01*
X132507266Y-77800568D01*
X132713504Y-77896739D01*
X132933308Y-77955635D01*
X133095230Y-77969801D01*
X133159998Y-77975468D01*
X133160000Y-77975468D01*
X133160002Y-77975468D01*
X133216807Y-77970498D01*
X133386692Y-77955635D01*
X133606496Y-77896739D01*
X133812734Y-77800568D01*
X133999139Y-77670047D01*
X134160047Y-77509139D01*
X134290568Y-77322734D01*
X134317618Y-77264724D01*
X134363790Y-77212285D01*
X134430983Y-77193133D01*
X134497865Y-77213348D01*
X134542381Y-77264724D01*
X134556517Y-77295038D01*
X134569429Y-77322728D01*
X134569432Y-77322734D01*
X134699954Y-77509141D01*
X134860858Y-77670045D01*
X134860861Y-77670047D01*
X135047266Y-77800568D01*
X135253504Y-77896739D01*
X135473308Y-77955635D01*
X135635230Y-77969801D01*
X135699998Y-77975468D01*
X135700000Y-77975468D01*
X135700002Y-77975468D01*
X135756807Y-77970498D01*
X135926692Y-77955635D01*
X136146496Y-77896739D01*
X136352734Y-77800568D01*
X136539139Y-77670047D01*
X136700047Y-77509139D01*
X136830568Y-77322734D01*
X136857618Y-77264724D01*
X136903790Y-77212285D01*
X136970983Y-77193133D01*
X137037865Y-77213348D01*
X137082381Y-77264724D01*
X137096517Y-77295038D01*
X137109429Y-77322728D01*
X137109432Y-77322734D01*
X137239954Y-77509141D01*
X137400858Y-77670045D01*
X137400861Y-77670047D01*
X137587266Y-77800568D01*
X137793504Y-77896739D01*
X138013308Y-77955635D01*
X138175230Y-77969801D01*
X138239998Y-77975468D01*
X138240000Y-77975468D01*
X138240002Y-77975468D01*
X138296807Y-77970498D01*
X138466692Y-77955635D01*
X138686496Y-77896739D01*
X138892734Y-77800568D01*
X139079139Y-77670047D01*
X139240047Y-77509139D01*
X139370568Y-77322734D01*
X139397618Y-77264724D01*
X139443790Y-77212285D01*
X139510983Y-77193133D01*
X139577865Y-77213348D01*
X139622381Y-77264724D01*
X139636517Y-77295038D01*
X139649429Y-77322728D01*
X139649432Y-77322734D01*
X139779954Y-77509141D01*
X139940858Y-77670045D01*
X139940861Y-77670047D01*
X140127266Y-77800568D01*
X140333504Y-77896739D01*
X140553308Y-77955635D01*
X140715230Y-77969801D01*
X140779998Y-77975468D01*
X140780000Y-77975468D01*
X140780002Y-77975468D01*
X140836807Y-77970498D01*
X141006692Y-77955635D01*
X141226496Y-77896739D01*
X141432734Y-77800568D01*
X141619139Y-77670047D01*
X141780047Y-77509139D01*
X141910568Y-77322734D01*
X141937618Y-77264724D01*
X141983790Y-77212285D01*
X142050983Y-77193133D01*
X142117865Y-77213348D01*
X142162381Y-77264724D01*
X142176517Y-77295038D01*
X142189429Y-77322728D01*
X142189432Y-77322734D01*
X142319954Y-77509141D01*
X142480858Y-77670045D01*
X142480861Y-77670047D01*
X142667266Y-77800568D01*
X142873504Y-77896739D01*
X143093308Y-77955635D01*
X143255230Y-77969801D01*
X143319998Y-77975468D01*
X143320000Y-77975468D01*
X143320002Y-77975468D01*
X143376807Y-77970498D01*
X143546692Y-77955635D01*
X143766496Y-77896739D01*
X143972734Y-77800568D01*
X144159139Y-77670047D01*
X144320047Y-77509139D01*
X144450568Y-77322734D01*
X144477618Y-77264724D01*
X144523790Y-77212285D01*
X144590983Y-77193133D01*
X144657865Y-77213348D01*
X144702381Y-77264724D01*
X144716517Y-77295038D01*
X144729429Y-77322728D01*
X144729432Y-77322734D01*
X144859954Y-77509141D01*
X145020858Y-77670045D01*
X145020861Y-77670047D01*
X145207266Y-77800568D01*
X145413504Y-77896739D01*
X145633308Y-77955635D01*
X145795230Y-77969801D01*
X145859998Y-77975468D01*
X145860000Y-77975468D01*
X145860002Y-77975468D01*
X145916807Y-77970498D01*
X146086692Y-77955635D01*
X146306496Y-77896739D01*
X146512734Y-77800568D01*
X146699139Y-77670047D01*
X146860047Y-77509139D01*
X146990568Y-77322734D01*
X147017618Y-77264724D01*
X147063790Y-77212285D01*
X147130983Y-77193133D01*
X147197865Y-77213348D01*
X147242381Y-77264724D01*
X147256517Y-77295038D01*
X147269429Y-77322728D01*
X147269432Y-77322734D01*
X147399954Y-77509141D01*
X147560858Y-77670045D01*
X147560861Y-77670047D01*
X147747266Y-77800568D01*
X147953504Y-77896739D01*
X148173308Y-77955635D01*
X148335230Y-77969801D01*
X148399998Y-77975468D01*
X148400000Y-77975468D01*
X148400002Y-77975468D01*
X148456807Y-77970498D01*
X148626692Y-77955635D01*
X148846496Y-77896739D01*
X149052734Y-77800568D01*
X149239139Y-77670047D01*
X149400047Y-77509139D01*
X149530568Y-77322734D01*
X149626739Y-77116496D01*
X149685635Y-76896692D01*
X149705468Y-76670000D01*
X149685635Y-76443308D01*
X149626739Y-76223504D01*
X149530568Y-76017266D01*
X149417274Y-75855464D01*
X149400045Y-75830858D01*
X149239141Y-75669954D01*
X149105066Y-75576075D01*
X149061441Y-75521499D01*
X149054247Y-75452000D01*
X149085769Y-75389645D01*
X149145999Y-75354231D01*
X149176189Y-75350500D01*
X149888481Y-75350500D01*
X149955520Y-75370185D01*
X149976162Y-75386819D01*
X150028972Y-75439629D01*
X150062457Y-75500952D01*
X150064819Y-75538117D01*
X150044532Y-75769998D01*
X150044532Y-75770001D01*
X150064364Y-75996686D01*
X150064366Y-75996697D01*
X150123258Y-76216488D01*
X150123261Y-76216497D01*
X150219431Y-76422732D01*
X150219432Y-76422734D01*
X150349954Y-76609141D01*
X150510858Y-76770045D01*
X150510861Y-76770047D01*
X150697266Y-76900568D01*
X150903504Y-76996739D01*
X150903509Y-76996740D01*
X150903511Y-76996741D01*
X150923030Y-77001971D01*
X151123308Y-77055635D01*
X151274585Y-77068870D01*
X151349998Y-77075468D01*
X151350000Y-77075468D01*
X151350002Y-77075468D01*
X151425415Y-77068870D01*
X151576692Y-77055635D01*
X151796496Y-76996739D01*
X152002734Y-76900568D01*
X152189139Y-76770047D01*
X152350047Y-76609139D01*
X152480568Y-76422734D01*
X152576739Y-76216496D01*
X152604644Y-76112351D01*
X167049500Y-76112351D01*
X167081522Y-76314534D01*
X167144781Y-76509223D01*
X167237715Y-76691613D01*
X167358028Y-76857213D01*
X167502786Y-77001971D01*
X167657749Y-77114556D01*
X167668390Y-77122287D01*
X167747348Y-77162518D01*
X167850776Y-77215218D01*
X167850778Y-77215218D01*
X167850781Y-77215220D01*
X167955137Y-77249127D01*
X168045465Y-77278477D01*
X168146557Y-77294488D01*
X168247648Y-77310500D01*
X168247649Y-77310500D01*
X168452351Y-77310500D01*
X168452352Y-77310500D01*
X168654534Y-77278477D01*
X168849219Y-77215220D01*
X169031610Y-77122287D01*
X169148134Y-77037628D01*
X169197213Y-77001971D01*
X169197215Y-77001968D01*
X169197219Y-77001966D01*
X169341966Y-76857219D01*
X169341968Y-76857215D01*
X169341971Y-76857213D01*
X169439910Y-76722409D01*
X169462287Y-76691610D01*
X169555220Y-76509219D01*
X169618477Y-76314534D01*
X169650500Y-76112352D01*
X169650500Y-75907648D01*
X169649144Y-75899088D01*
X169618477Y-75705465D01*
X169584900Y-75602127D01*
X169555220Y-75510781D01*
X169555218Y-75510778D01*
X169555218Y-75510776D01*
X169512125Y-75426202D01*
X169462287Y-75328390D01*
X169436177Y-75292452D01*
X169341971Y-75162786D01*
X169197213Y-75018028D01*
X169031613Y-74897715D01*
X169031612Y-74897714D01*
X169031610Y-74897713D01*
X168972247Y-74867466D01*
X168849223Y-74804781D01*
X168654534Y-74741522D01*
X168479995Y-74713878D01*
X168452352Y-74709500D01*
X168247648Y-74709500D01*
X168223329Y-74713351D01*
X168045465Y-74741522D01*
X167850776Y-74804781D01*
X167668386Y-74897715D01*
X167502786Y-75018028D01*
X167358028Y-75162786D01*
X167237715Y-75328386D01*
X167144781Y-75510776D01*
X167081522Y-75705465D01*
X167049500Y-75907648D01*
X167049500Y-76112351D01*
X152604644Y-76112351D01*
X152635635Y-75996692D01*
X152655468Y-75770000D01*
X152635635Y-75543308D01*
X152576739Y-75323504D01*
X152480568Y-75117266D01*
X152350047Y-74930861D01*
X152346942Y-74926426D01*
X152348020Y-74925671D01*
X152322540Y-74867466D01*
X152333573Y-74798473D01*
X152380155Y-74746397D01*
X152421347Y-74730140D01*
X152454328Y-74723580D01*
X152518069Y-74697177D01*
X152581807Y-74670777D01*
X152581808Y-74670776D01*
X152581811Y-74670775D01*
X152696543Y-74594114D01*
X153094114Y-74196543D01*
X153170775Y-74081811D01*
X153223580Y-73954328D01*
X153250500Y-73818994D01*
X153250500Y-73681006D01*
X153250500Y-69826880D01*
X153696672Y-69826880D01*
X153812821Y-69898797D01*
X153812822Y-69898798D01*
X154020195Y-69979134D01*
X154238807Y-70020000D01*
X154461193Y-70020000D01*
X154679809Y-69979133D01*
X154887168Y-69898801D01*
X154887181Y-69898795D01*
X155003324Y-69826880D01*
X155846672Y-69826880D01*
X155962821Y-69898797D01*
X155962822Y-69898798D01*
X156170195Y-69979134D01*
X156388807Y-70020000D01*
X156611193Y-70020000D01*
X156829809Y-69979133D01*
X157037168Y-69898801D01*
X157037181Y-69898795D01*
X157153326Y-69826879D01*
X157124544Y-69798097D01*
X163299500Y-69798097D01*
X163336446Y-70031368D01*
X163409433Y-70255996D01*
X163516657Y-70466433D01*
X163655483Y-70657510D01*
X163822490Y-70824517D01*
X164013567Y-70963343D01*
X164049805Y-70981807D01*
X164224003Y-71070566D01*
X164224005Y-71070566D01*
X164224008Y-71070568D01*
X164303951Y-71096543D01*
X164448631Y-71143553D01*
X164681903Y-71180500D01*
X164681908Y-71180500D01*
X166418097Y-71180500D01*
X166651368Y-71143553D01*
X166875992Y-71070568D01*
X167086433Y-70963343D01*
X167277510Y-70824517D01*
X167444517Y-70657510D01*
X167583343Y-70466433D01*
X167690568Y-70255992D01*
X167763553Y-70031368D01*
X167771826Y-69979133D01*
X167800500Y-69798097D01*
X167800500Y-69561902D01*
X167763553Y-69328631D01*
X167717751Y-69187669D01*
X167690568Y-69104008D01*
X167690566Y-69104005D01*
X167690566Y-69104003D01*
X167601652Y-68929501D01*
X167583343Y-68893567D01*
X167444517Y-68702490D01*
X167277510Y-68535483D01*
X167086433Y-68396657D01*
X167062866Y-68384649D01*
X166875996Y-68289433D01*
X166651368Y-68216446D01*
X166418097Y-68179500D01*
X166418092Y-68179500D01*
X164681908Y-68179500D01*
X164681903Y-68179500D01*
X164448631Y-68216446D01*
X164224003Y-68289433D01*
X164013566Y-68396657D01*
X163912619Y-68470000D01*
X163822490Y-68535483D01*
X163822488Y-68535485D01*
X163822487Y-68535485D01*
X163655485Y-68702487D01*
X163655485Y-68702488D01*
X163655483Y-68702490D01*
X163595862Y-68784550D01*
X163516657Y-68893566D01*
X163409433Y-69104003D01*
X163336446Y-69328631D01*
X163299500Y-69561902D01*
X163299500Y-69798097D01*
X157124544Y-69798097D01*
X156500001Y-69173553D01*
X156500000Y-69173553D01*
X155846672Y-69826879D01*
X155846672Y-69826880D01*
X155003324Y-69826880D01*
X155003326Y-69826879D01*
X154350001Y-69173553D01*
X154350000Y-69173553D01*
X153696672Y-69826879D01*
X153696672Y-69826880D01*
X153250500Y-69826880D01*
X153250500Y-69601922D01*
X153270185Y-69534883D01*
X153322989Y-69489128D01*
X153328279Y-69488167D01*
X153950369Y-68866078D01*
X154000000Y-68866078D01*
X154023852Y-68955095D01*
X154069930Y-69034905D01*
X154135095Y-69100070D01*
X154214905Y-69146148D01*
X154303922Y-69170000D01*
X154396078Y-69170000D01*
X154485095Y-69146148D01*
X154564905Y-69100070D01*
X154630070Y-69034905D01*
X154676148Y-68955095D01*
X154700000Y-68866078D01*
X154700000Y-68820000D01*
X154703553Y-68820000D01*
X155358861Y-69475308D01*
X155415196Y-69471399D01*
X155415437Y-69474885D01*
X155434650Y-69473584D01*
X155434802Y-69471398D01*
X155450669Y-69472499D01*
X155451813Y-69472422D01*
X155452138Y-69472601D01*
X155491138Y-69475308D01*
X156100369Y-68866078D01*
X156150000Y-68866078D01*
X156173852Y-68955095D01*
X156219930Y-69034905D01*
X156285095Y-69100070D01*
X156364905Y-69146148D01*
X156453922Y-69170000D01*
X156546078Y-69170000D01*
X156635095Y-69146148D01*
X156714905Y-69100070D01*
X156780070Y-69034905D01*
X156826148Y-68955095D01*
X156850000Y-68866078D01*
X156850000Y-68820000D01*
X156853553Y-68820000D01*
X157508861Y-69475308D01*
X157524631Y-69454425D01*
X157524633Y-69454422D01*
X157623759Y-69255350D01*
X157684621Y-69041439D01*
X157705141Y-68820000D01*
X157705141Y-68819999D01*
X157684621Y-68598560D01*
X157623759Y-68384649D01*
X157524635Y-68185580D01*
X157524630Y-68185572D01*
X157508860Y-68164690D01*
X156853553Y-68819999D01*
X156853553Y-68820000D01*
X156850000Y-68820000D01*
X156850000Y-68773922D01*
X156826148Y-68684905D01*
X156780070Y-68605095D01*
X156714905Y-68539930D01*
X156635095Y-68493852D01*
X156546078Y-68470000D01*
X156453922Y-68470000D01*
X156364905Y-68493852D01*
X156285095Y-68539930D01*
X156219930Y-68605095D01*
X156173852Y-68684905D01*
X156150000Y-68773922D01*
X156150000Y-68866078D01*
X156100369Y-68866078D01*
X156146447Y-68820000D01*
X155491138Y-68164691D01*
X155434801Y-68168602D01*
X155434558Y-68165111D01*
X155415348Y-68166398D01*
X155415196Y-68168601D01*
X155399130Y-68167485D01*
X155398098Y-68167555D01*
X155397806Y-68167393D01*
X155358860Y-68164690D01*
X154703553Y-68819999D01*
X154703553Y-68820000D01*
X154700000Y-68820000D01*
X154700000Y-68773922D01*
X154676148Y-68684905D01*
X154630070Y-68605095D01*
X154564905Y-68539930D01*
X154485095Y-68493852D01*
X154396078Y-68470000D01*
X154303922Y-68470000D01*
X154214905Y-68493852D01*
X154135095Y-68539930D01*
X154069930Y-68605095D01*
X154023852Y-68684905D01*
X154000000Y-68773922D01*
X154000000Y-68866078D01*
X153950369Y-68866078D01*
X153996447Y-68820000D01*
X153325590Y-68149143D01*
X153314840Y-68146781D01*
X153265541Y-68097270D01*
X153250500Y-68038076D01*
X153250500Y-67813119D01*
X153696671Y-67813119D01*
X154350000Y-68466447D01*
X154350001Y-68466447D01*
X155003327Y-67813119D01*
X155846671Y-67813119D01*
X156500000Y-68466447D01*
X156500001Y-68466447D01*
X157153327Y-67813119D01*
X157037178Y-67741202D01*
X157037177Y-67741201D01*
X156829804Y-67660865D01*
X156611193Y-67620000D01*
X156388807Y-67620000D01*
X156170195Y-67660865D01*
X155962824Y-67741200D01*
X155962823Y-67741201D01*
X155846671Y-67813119D01*
X155003327Y-67813119D01*
X154887178Y-67741202D01*
X154887177Y-67741201D01*
X154679804Y-67660865D01*
X154461193Y-67620000D01*
X154238807Y-67620000D01*
X154020195Y-67660865D01*
X153812824Y-67741200D01*
X153812823Y-67741201D01*
X153696671Y-67813119D01*
X153250500Y-67813119D01*
X153250500Y-62102979D01*
X153270185Y-62035940D01*
X153322989Y-61990185D01*
X153392147Y-61980241D01*
X153455703Y-62009266D01*
X153458038Y-62011342D01*
X153542783Y-62088597D01*
X153622956Y-62161685D01*
X153623437Y-62162123D01*
X153623439Y-62162125D01*
X153812595Y-62279245D01*
X153812596Y-62279245D01*
X153812599Y-62279247D01*
X154020060Y-62359618D01*
X154238757Y-62400500D01*
X154238759Y-62400500D01*
X154461241Y-62400500D01*
X154461243Y-62400500D01*
X154679940Y-62359618D01*
X154887401Y-62279247D01*
X155076562Y-62162124D01*
X155240981Y-62012236D01*
X155326046Y-61899592D01*
X155382155Y-61857955D01*
X155451866Y-61853263D01*
X155513049Y-61887006D01*
X155523954Y-61899592D01*
X155609017Y-62012234D01*
X155609019Y-62012237D01*
X155759038Y-62148997D01*
X155795320Y-62208708D01*
X155799500Y-62240634D01*
X155799500Y-62431006D01*
X155799500Y-62568994D01*
X155799500Y-62568996D01*
X155799499Y-62568996D01*
X155826418Y-62704322D01*
X155826421Y-62704332D01*
X155879222Y-62831807D01*
X155955887Y-62946545D01*
X156403454Y-63394112D01*
X156518192Y-63470777D01*
X156640264Y-63521340D01*
X156645672Y-63523580D01*
X156645676Y-63523580D01*
X156645677Y-63523581D01*
X156781003Y-63550500D01*
X156781006Y-63550500D01*
X156781007Y-63550500D01*
X161347299Y-63550500D01*
X161414338Y-63570185D01*
X161460093Y-63622989D01*
X161470037Y-63692147D01*
X161467074Y-63706593D01*
X161414366Y-63903302D01*
X161414364Y-63903313D01*
X161394532Y-64129998D01*
X161394532Y-64130001D01*
X161414364Y-64356686D01*
X161414366Y-64356697D01*
X161473258Y-64576488D01*
X161473261Y-64576497D01*
X161569431Y-64782732D01*
X161569432Y-64782734D01*
X161699954Y-64969141D01*
X161860858Y-65130045D01*
X161860861Y-65130047D01*
X162047266Y-65260568D01*
X162096504Y-65283528D01*
X162096506Y-65283529D01*
X162131783Y-65308230D01*
X162653553Y-65830000D01*
X162647339Y-65830000D01*
X162545606Y-65857259D01*
X162454394Y-65909920D01*
X162379920Y-65984394D01*
X162327259Y-66075606D01*
X162300000Y-66177339D01*
X162300000Y-66183552D01*
X161620974Y-65504526D01*
X161620973Y-65504526D01*
X161569868Y-65577512D01*
X161569866Y-65577516D01*
X161473734Y-65783673D01*
X161473731Y-65783680D01*
X161420033Y-65984084D01*
X161383668Y-66043744D01*
X161320821Y-66074273D01*
X161251445Y-66065978D01*
X161197567Y-66021493D01*
X161180484Y-65984086D01*
X161126739Y-65783504D01*
X161030568Y-65577266D01*
X160900047Y-65390861D01*
X160900045Y-65390858D01*
X160739141Y-65229954D01*
X160552734Y-65099432D01*
X160552732Y-65099431D01*
X160346497Y-65003261D01*
X160346488Y-65003258D01*
X160126697Y-64944366D01*
X160126693Y-64944365D01*
X160126692Y-64944365D01*
X160126691Y-64944364D01*
X160126686Y-64944364D01*
X159900002Y-64924532D01*
X159899998Y-64924532D01*
X159673313Y-64944364D01*
X159673302Y-64944366D01*
X159453511Y-65003258D01*
X159453502Y-65003261D01*
X159247267Y-65099431D01*
X159247265Y-65099432D01*
X159060858Y-65229954D01*
X158899954Y-65390858D01*
X158769432Y-65577265D01*
X158769431Y-65577267D01*
X158673261Y-65783502D01*
X158673258Y-65783511D01*
X158614366Y-66003302D01*
X158614364Y-66003313D01*
X158594532Y-66229998D01*
X158594532Y-66230001D01*
X158614364Y-66456686D01*
X158614366Y-66456697D01*
X158673258Y-66676488D01*
X158673261Y-66676497D01*
X158769431Y-66882732D01*
X158769432Y-66882734D01*
X158899954Y-67069141D01*
X159060858Y-67230045D01*
X159068689Y-67235528D01*
X159247266Y-67360568D01*
X159453504Y-67456739D01*
X159673308Y-67515635D01*
X159835230Y-67529801D01*
X159899998Y-67535468D01*
X159900000Y-67535468D01*
X159900002Y-67535468D01*
X159956673Y-67530509D01*
X160126692Y-67515635D01*
X160346496Y-67456739D01*
X160552734Y-67360568D01*
X160739139Y-67230047D01*
X160900047Y-67069139D01*
X161030568Y-66882734D01*
X161126739Y-66676496D01*
X161180484Y-66475913D01*
X161216847Y-66416256D01*
X161279694Y-66385726D01*
X161349070Y-66394020D01*
X161402948Y-66438505D01*
X161420033Y-66475915D01*
X161473731Y-66676320D01*
X161473735Y-66676331D01*
X161569863Y-66882478D01*
X161620974Y-66955472D01*
X162300000Y-66276446D01*
X162300000Y-66282661D01*
X162327259Y-66384394D01*
X162379920Y-66475606D01*
X162454394Y-66550080D01*
X162545606Y-66602741D01*
X162647339Y-66630000D01*
X162653553Y-66630000D01*
X161974526Y-67309025D01*
X162047513Y-67360132D01*
X162047521Y-67360136D01*
X162253668Y-67456264D01*
X162253682Y-67456269D01*
X162473389Y-67515139D01*
X162473400Y-67515141D01*
X162699998Y-67534966D01*
X162700002Y-67534966D01*
X162926599Y-67515141D01*
X162926610Y-67515139D01*
X163146317Y-67456269D01*
X163146331Y-67456264D01*
X163352478Y-67360136D01*
X163425471Y-67309024D01*
X162746447Y-66630000D01*
X162752661Y-66630000D01*
X162854394Y-66602741D01*
X162945606Y-66550080D01*
X163020080Y-66475606D01*
X163072741Y-66384394D01*
X163100000Y-66282661D01*
X163100000Y-66276447D01*
X163779024Y-66955471D01*
X163830136Y-66882478D01*
X163926264Y-66676331D01*
X163926269Y-66676317D01*
X163985139Y-66456610D01*
X163985141Y-66456599D01*
X164004966Y-66230002D01*
X164004966Y-66229997D01*
X163985141Y-66003400D01*
X163985139Y-66003389D01*
X163926269Y-65783682D01*
X163926264Y-65783668D01*
X163830136Y-65577521D01*
X163830132Y-65577513D01*
X163779025Y-65504526D01*
X163100000Y-66183551D01*
X163100000Y-66177339D01*
X163072741Y-66075606D01*
X163020080Y-65984394D01*
X162945606Y-65909920D01*
X162854394Y-65857259D01*
X162752661Y-65830000D01*
X162746448Y-65830000D01*
X163268215Y-65308230D01*
X163303486Y-65283532D01*
X163352734Y-65260568D01*
X163539139Y-65130047D01*
X163700047Y-64969139D01*
X163830568Y-64782734D01*
X163926739Y-64576496D01*
X163985635Y-64356692D01*
X164005468Y-64130000D01*
X163985635Y-63903308D01*
X163944781Y-63750839D01*
X163932926Y-63706593D01*
X163934589Y-63636743D01*
X163973752Y-63578881D01*
X164037980Y-63551377D01*
X164052701Y-63550500D01*
X164168996Y-63550500D01*
X164272983Y-63529815D01*
X164304328Y-63523580D01*
X164407447Y-63480867D01*
X164431807Y-63470777D01*
X164431808Y-63470776D01*
X164431811Y-63470775D01*
X164546543Y-63394114D01*
X164637820Y-63302836D01*
X164699141Y-63269353D01*
X164768833Y-63274337D01*
X164824767Y-63316208D01*
X164849184Y-63381672D01*
X164849500Y-63390519D01*
X164849500Y-63948097D01*
X164886446Y-64181368D01*
X164959433Y-64405996D01*
X165058284Y-64600000D01*
X165066657Y-64616433D01*
X165205483Y-64807510D01*
X165372490Y-64974517D01*
X165563567Y-65113343D01*
X165659417Y-65162181D01*
X165774003Y-65220566D01*
X165774005Y-65220566D01*
X165774008Y-65220568D01*
X165864895Y-65250099D01*
X165998631Y-65293553D01*
X166231903Y-65330500D01*
X166231908Y-65330500D01*
X166468097Y-65330500D01*
X166701368Y-65293553D01*
X166729470Y-65284422D01*
X166925992Y-65220568D01*
X167136433Y-65113343D01*
X167327510Y-64974517D01*
X167494517Y-64807510D01*
X167633343Y-64616433D01*
X167740568Y-64405992D01*
X167813553Y-64181368D01*
X167825508Y-64105886D01*
X167850500Y-63948097D01*
X167850500Y-61711902D01*
X167813553Y-61478631D01*
X167759450Y-61312122D01*
X167740568Y-61254008D01*
X167740566Y-61254005D01*
X167740566Y-61254003D01*
X167636621Y-61050001D01*
X167633343Y-61043567D01*
X167494517Y-60852490D01*
X167327510Y-60685483D01*
X167136433Y-60546657D01*
X166925996Y-60439433D01*
X166701368Y-60366446D01*
X166468097Y-60329500D01*
X166468092Y-60329500D01*
X166231908Y-60329500D01*
X166231903Y-60329500D01*
X165998631Y-60366446D01*
X165774003Y-60439433D01*
X165563566Y-60546657D01*
X165485327Y-60603502D01*
X165372490Y-60685483D01*
X165372488Y-60685485D01*
X165372487Y-60685485D01*
X165362181Y-60695792D01*
X165300858Y-60729277D01*
X165231166Y-60724293D01*
X165175233Y-60682421D01*
X165150816Y-60616957D01*
X165150500Y-60608111D01*
X165150500Y-58531002D01*
X165147952Y-58518199D01*
X165147951Y-58518198D01*
X165147950Y-58518189D01*
X165123580Y-58395672D01*
X165118940Y-58384469D01*
X165070777Y-58268192D01*
X164994112Y-58153454D01*
X164994111Y-58153453D01*
X164523122Y-57682465D01*
X164489637Y-57621142D01*
X164494621Y-57551451D01*
X164536492Y-57495517D01*
X164601957Y-57471100D01*
X164630201Y-57472311D01*
X164681903Y-57480500D01*
X164681908Y-57480500D01*
X166418097Y-57480500D01*
X166651368Y-57443553D01*
X166875992Y-57370568D01*
X167086433Y-57263343D01*
X167277510Y-57124517D01*
X167444517Y-56957510D01*
X167583343Y-56766433D01*
X167690568Y-56555992D01*
X167763553Y-56331368D01*
X167780520Y-56224241D01*
X167800500Y-56098097D01*
X167800500Y-55861902D01*
X167763553Y-55628631D01*
X167712010Y-55470000D01*
X167690568Y-55404008D01*
X167690566Y-55404005D01*
X167690566Y-55404003D01*
X167593592Y-55213682D01*
X167583343Y-55193567D01*
X167444517Y-55002490D01*
X167277510Y-54835483D01*
X167086433Y-54696657D01*
X167069205Y-54687879D01*
X166875996Y-54589433D01*
X166651368Y-54516446D01*
X166418097Y-54479500D01*
X166418092Y-54479500D01*
X164681908Y-54479500D01*
X164681903Y-54479500D01*
X164448631Y-54516446D01*
X164224003Y-54589433D01*
X164030795Y-54687879D01*
X163962126Y-54700775D01*
X163897385Y-54674499D01*
X163857128Y-54617392D01*
X163850500Y-54577394D01*
X163850500Y-49912351D01*
X167049500Y-49912351D01*
X167081522Y-50114534D01*
X167144781Y-50309223D01*
X167187802Y-50393655D01*
X167237182Y-50490568D01*
X167237715Y-50491613D01*
X167358028Y-50657213D01*
X167502786Y-50801971D01*
X167624677Y-50890528D01*
X167668390Y-50922287D01*
X167759084Y-50968498D01*
X167850776Y-51015218D01*
X167850778Y-51015218D01*
X167850781Y-51015220D01*
X167955137Y-51049127D01*
X168045465Y-51078477D01*
X168139773Y-51093414D01*
X168247648Y-51110500D01*
X168247649Y-51110500D01*
X168452351Y-51110500D01*
X168452352Y-51110500D01*
X168654534Y-51078477D01*
X168849219Y-51015220D01*
X169031610Y-50922287D01*
X169161601Y-50827844D01*
X169197213Y-50801971D01*
X169197215Y-50801968D01*
X169197219Y-50801966D01*
X169341966Y-50657219D01*
X169341968Y-50657215D01*
X169341971Y-50657213D01*
X169398010Y-50580080D01*
X169462287Y-50491610D01*
X169555220Y-50309219D01*
X169618477Y-50114534D01*
X169650500Y-49912352D01*
X169650500Y-49707648D01*
X169633353Y-49599386D01*
X169618477Y-49505465D01*
X169585459Y-49403848D01*
X169555220Y-49310781D01*
X169555218Y-49310778D01*
X169555218Y-49310776D01*
X169514573Y-49231007D01*
X169462287Y-49128390D01*
X169443704Y-49102812D01*
X169341971Y-48962786D01*
X169197213Y-48818028D01*
X169031613Y-48697715D01*
X169031612Y-48697714D01*
X169031610Y-48697713D01*
X168974653Y-48668691D01*
X168849223Y-48604781D01*
X168654534Y-48541522D01*
X168479995Y-48513878D01*
X168452352Y-48509500D01*
X168247648Y-48509500D01*
X168223329Y-48513351D01*
X168045465Y-48541522D01*
X167850776Y-48604781D01*
X167668386Y-48697715D01*
X167502786Y-48818028D01*
X167358028Y-48962786D01*
X167237715Y-49128386D01*
X167144781Y-49310776D01*
X167081522Y-49505465D01*
X167049500Y-49707648D01*
X167049500Y-49912351D01*
X163850500Y-49912351D01*
X163850500Y-49231002D01*
X163847952Y-49218199D01*
X163847951Y-49218198D01*
X163847950Y-49218189D01*
X163823580Y-49095672D01*
X163797729Y-49033261D01*
X163770777Y-48968192D01*
X163694112Y-48853454D01*
X163031545Y-48190887D01*
X162916807Y-48114222D01*
X162789332Y-48061421D01*
X162789322Y-48061418D01*
X162653996Y-48034500D01*
X162653994Y-48034500D01*
X162653993Y-48034500D01*
X161982351Y-48034500D01*
X161915312Y-48014815D01*
X161878542Y-47978321D01*
X161808983Y-47871852D01*
X161808980Y-47871849D01*
X161808979Y-47871847D01*
X161651784Y-47701087D01*
X161651779Y-47701083D01*
X161651777Y-47701081D01*
X161468634Y-47558535D01*
X161468628Y-47558531D01*
X161264504Y-47448064D01*
X161264495Y-47448061D01*
X161044984Y-47372702D01*
X160873282Y-47344050D01*
X160816049Y-47334500D01*
X160583951Y-47334500D01*
X160538164Y-47342140D01*
X160355015Y-47372702D01*
X160135504Y-47448061D01*
X160135495Y-47448064D01*
X159931371Y-47558531D01*
X159931365Y-47558535D01*
X159748222Y-47701081D01*
X159748219Y-47701084D01*
X159748216Y-47701086D01*
X159748216Y-47701087D01*
X159742157Y-47707669D01*
X159591016Y-47871852D01*
X159464075Y-48066151D01*
X159370842Y-48278699D01*
X159313866Y-48503691D01*
X159313864Y-48503702D01*
X159294700Y-48734993D01*
X159294700Y-48735006D01*
X159313864Y-48966297D01*
X159313866Y-48966308D01*
X159370842Y-49191300D01*
X159464075Y-49403848D01*
X159591016Y-49598147D01*
X159591019Y-49598151D01*
X159591021Y-49598153D01*
X159685803Y-49701114D01*
X159716724Y-49763767D01*
X159708864Y-49833193D01*
X159664716Y-49887348D01*
X159637906Y-49901277D01*
X159557669Y-49931203D01*
X159557664Y-49931206D01*
X159442455Y-50017452D01*
X159442452Y-50017455D01*
X159356206Y-50132664D01*
X159356202Y-50132671D01*
X159305908Y-50267517D01*
X159303663Y-50288403D01*
X159299501Y-50327123D01*
X159299500Y-50327135D01*
X159299500Y-52222870D01*
X159299501Y-52222876D01*
X159305908Y-52282483D01*
X159356202Y-52417328D01*
X159356206Y-52417335D01*
X159442452Y-52532544D01*
X159442455Y-52532547D01*
X159557664Y-52618793D01*
X159557671Y-52618797D01*
X159692517Y-52669091D01*
X159692516Y-52669091D01*
X159699444Y-52669835D01*
X159752127Y-52675500D01*
X161647872Y-52675499D01*
X161707483Y-52669091D01*
X161842331Y-52618796D01*
X161957546Y-52532546D01*
X162043796Y-52417331D01*
X162094091Y-52282483D01*
X162100500Y-52222873D01*
X162100499Y-50327128D01*
X162094091Y-50267517D01*
X162091287Y-50260000D01*
X162043797Y-50132671D01*
X162043793Y-50132664D01*
X161957547Y-50017455D01*
X161957544Y-50017452D01*
X161842335Y-49931206D01*
X161842328Y-49931202D01*
X161762094Y-49901277D01*
X161706160Y-49859406D01*
X161681743Y-49793941D01*
X161696595Y-49725668D01*
X161714190Y-49701121D01*
X161808979Y-49598153D01*
X161853570Y-49529901D01*
X161878542Y-49491679D01*
X161931688Y-49446322D01*
X161982351Y-49435500D01*
X162243481Y-49435500D01*
X162310520Y-49455185D01*
X162331162Y-49471819D01*
X162413181Y-49553838D01*
X162446666Y-49615161D01*
X162449500Y-49641519D01*
X162449500Y-57231006D01*
X162449500Y-57368994D01*
X162449500Y-57368996D01*
X162449499Y-57368996D01*
X162476418Y-57504322D01*
X162476421Y-57504332D01*
X162529222Y-57631807D01*
X162605887Y-57746545D01*
X162773003Y-57913661D01*
X162806488Y-57974984D01*
X162801504Y-58044676D01*
X162759632Y-58100609D01*
X162696130Y-58124870D01*
X162473312Y-58144364D01*
X162473302Y-58144366D01*
X162253511Y-58203258D01*
X162253504Y-58203260D01*
X162253504Y-58203261D01*
X162246041Y-58206741D01*
X162062304Y-58292419D01*
X161993226Y-58302911D01*
X161929442Y-58274391D01*
X161895338Y-58227489D01*
X161877610Y-58184691D01*
X161870775Y-58168189D01*
X161794114Y-58053457D01*
X161794112Y-58053454D01*
X161096545Y-57355887D01*
X160981807Y-57279222D01*
X160854332Y-57226421D01*
X160854322Y-57226418D01*
X160718996Y-57199500D01*
X160718994Y-57199500D01*
X160718993Y-57199500D01*
X153181007Y-57199500D01*
X153181004Y-57199500D01*
X153075435Y-57220498D01*
X153075436Y-57220499D01*
X153045675Y-57226418D01*
X153045660Y-57226423D01*
X152992865Y-57248292D01*
X152918191Y-57279223D01*
X152826036Y-57340800D01*
X152803457Y-57355886D01*
X152803451Y-57355891D01*
X151055888Y-59103453D01*
X151055887Y-59103454D01*
X150979222Y-59218192D01*
X150926421Y-59345667D01*
X150926418Y-59345679D01*
X150902050Y-59468186D01*
X150902049Y-59468191D01*
X150899500Y-59481002D01*
X150899500Y-63425500D01*
X150879815Y-63492539D01*
X150827011Y-63538294D01*
X150775500Y-63549500D01*
X148701785Y-63549500D01*
X148634746Y-63529815D01*
X148588991Y-63477011D01*
X148579047Y-63407853D01*
X148582010Y-63393407D01*
X148603759Y-63312236D01*
X148635063Y-63195408D01*
X148655659Y-62960000D01*
X148653517Y-62935523D01*
X148635685Y-62731702D01*
X148635063Y-62724592D01*
X148588626Y-62551285D01*
X148573905Y-62496344D01*
X148573904Y-62496343D01*
X148573903Y-62496337D01*
X148474035Y-62282171D01*
X148471987Y-62279245D01*
X148338494Y-62088597D01*
X148171402Y-61921506D01*
X148171395Y-61921501D01*
X147977834Y-61785967D01*
X147977830Y-61785965D01*
X147869361Y-61735385D01*
X147763663Y-61686097D01*
X147763659Y-61686096D01*
X147763655Y-61686094D01*
X147535413Y-61624938D01*
X147535403Y-61624936D01*
X147300001Y-61604341D01*
X147299999Y-61604341D01*
X147064596Y-61624936D01*
X147064586Y-61624938D01*
X146836344Y-61686094D01*
X146836335Y-61686098D01*
X146622171Y-61785964D01*
X146622169Y-61785965D01*
X146428597Y-61921505D01*
X146261505Y-62088597D01*
X146131575Y-62274158D01*
X146076998Y-62317783D01*
X146007500Y-62324977D01*
X145945145Y-62293454D01*
X145928425Y-62274158D01*
X145798494Y-62088597D01*
X145631402Y-61921506D01*
X145631395Y-61921501D01*
X145437834Y-61785967D01*
X145437830Y-61785965D01*
X145329361Y-61735385D01*
X145223663Y-61686097D01*
X145223659Y-61686096D01*
X145223655Y-61686094D01*
X144995413Y-61624938D01*
X144995403Y-61624936D01*
X144760001Y-61604341D01*
X144759999Y-61604341D01*
X144524596Y-61624936D01*
X144524586Y-61624938D01*
X144296344Y-61686094D01*
X144296335Y-61686098D01*
X144082171Y-61785964D01*
X144082169Y-61785965D01*
X143888597Y-61921505D01*
X143721508Y-62088594D01*
X143591269Y-62274595D01*
X143536692Y-62318219D01*
X143467193Y-62325412D01*
X143404839Y-62293890D01*
X143388119Y-62274594D01*
X143258113Y-62088926D01*
X143258108Y-62088920D01*
X143091082Y-61921894D01*
X142897578Y-61786399D01*
X142721637Y-61704357D01*
X142669198Y-61658185D01*
X142650046Y-61590991D01*
X142670262Y-61524110D01*
X142686352Y-61504304D01*
X143353838Y-60836819D01*
X143415161Y-60803334D01*
X143441519Y-60800500D01*
X148368996Y-60800500D01*
X148460040Y-60782389D01*
X148504328Y-60773580D01*
X148596339Y-60735468D01*
X148631807Y-60720777D01*
X148631808Y-60720776D01*
X148631811Y-60720775D01*
X148746543Y-60644114D01*
X149044114Y-60346543D01*
X149120775Y-60231811D01*
X149120856Y-60231617D01*
X149157415Y-60143354D01*
X149173580Y-60104328D01*
X149181735Y-60063327D01*
X149214118Y-60001418D01*
X149232222Y-59985948D01*
X149371401Y-59888495D01*
X149538495Y-59721401D01*
X149674035Y-59527830D01*
X149773903Y-59313663D01*
X149835063Y-59085408D01*
X149855659Y-58850000D01*
X149835063Y-58614592D01*
X149773903Y-58386337D01*
X149674035Y-58172171D01*
X149671452Y-58168481D01*
X149538494Y-57978597D01*
X149371402Y-57811506D01*
X149371395Y-57811501D01*
X149177834Y-57675967D01*
X149177830Y-57675965D01*
X149177828Y-57675964D01*
X148963663Y-57576097D01*
X148963659Y-57576096D01*
X148963655Y-57576094D01*
X148735413Y-57514938D01*
X148735403Y-57514936D01*
X148500001Y-57494341D01*
X148499999Y-57494341D01*
X148264596Y-57514936D01*
X148264586Y-57514938D01*
X148036344Y-57576094D01*
X148036335Y-57576098D01*
X147822171Y-57675964D01*
X147822169Y-57675965D01*
X147628597Y-57811505D01*
X147461505Y-57978597D01*
X147331575Y-58164158D01*
X147276998Y-58207783D01*
X147207500Y-58214977D01*
X147145145Y-58183454D01*
X147128425Y-58164158D01*
X146998494Y-57978597D01*
X146831402Y-57811506D01*
X146831395Y-57811501D01*
X146637834Y-57675967D01*
X146637830Y-57675965D01*
X146637828Y-57675964D01*
X146423663Y-57576097D01*
X146423659Y-57576096D01*
X146423655Y-57576094D01*
X146195413Y-57514938D01*
X146195403Y-57514936D01*
X145960001Y-57494341D01*
X145959999Y-57494341D01*
X145724597Y-57514936D01*
X145724593Y-57514936D01*
X145724592Y-57514937D01*
X145724587Y-57514938D01*
X145724584Y-57514939D01*
X145707778Y-57519442D01*
X145637928Y-57517778D01*
X145588005Y-57487348D01*
X145156546Y-57055888D01*
X145156545Y-57055887D01*
X145041807Y-56979222D01*
X144914332Y-56926421D01*
X144914322Y-56926418D01*
X144778996Y-56899500D01*
X144778994Y-56899500D01*
X144778993Y-56899500D01*
X142618994Y-56899500D01*
X142481006Y-56899500D01*
X142481004Y-56899500D01*
X142345677Y-56926418D01*
X142345667Y-56926421D01*
X142218192Y-56979222D01*
X142103454Y-57055887D01*
X142103453Y-57055888D01*
X141695662Y-57463681D01*
X141634339Y-57497166D01*
X141607981Y-57500000D01*
X141130000Y-57500000D01*
X141130000Y-58416988D01*
X141072993Y-58384075D01*
X140945826Y-58350000D01*
X140814174Y-58350000D01*
X140687007Y-58384075D01*
X140630000Y-58416988D01*
X140630000Y-57500000D01*
X139982155Y-57500000D01*
X139922627Y-57506401D01*
X139922620Y-57506403D01*
X139787913Y-57556645D01*
X139787906Y-57556649D01*
X139672812Y-57642809D01*
X139672809Y-57642812D01*
X139586649Y-57757906D01*
X139586645Y-57757913D01*
X139536403Y-57892620D01*
X139536401Y-57892627D01*
X139530000Y-57952155D01*
X139530000Y-58600000D01*
X140446988Y-58600000D01*
X140414075Y-58657007D01*
X140380000Y-58784174D01*
X140380000Y-58915826D01*
X140414075Y-59042993D01*
X140446988Y-59100000D01*
X139530000Y-59100000D01*
X139530000Y-59747844D01*
X139536401Y-59807372D01*
X139536403Y-59807379D01*
X139586645Y-59942086D01*
X139586649Y-59942093D01*
X139672809Y-60057187D01*
X139672812Y-60057190D01*
X139787906Y-60143350D01*
X139787913Y-60143354D01*
X139922620Y-60193596D01*
X139922627Y-60193598D01*
X139982155Y-60199999D01*
X139982172Y-60200000D01*
X140630000Y-60200000D01*
X140630000Y-59283012D01*
X140687007Y-59315925D01*
X140814174Y-59350000D01*
X140945826Y-59350000D01*
X141072993Y-59315925D01*
X141130000Y-59283012D01*
X141130000Y-60179453D01*
X141110315Y-60246492D01*
X141093681Y-60267134D01*
X138797634Y-62563181D01*
X138736311Y-62596666D01*
X138709953Y-62599500D01*
X138040768Y-62599500D01*
X137988332Y-62584102D01*
X137963664Y-62597069D01*
X137939232Y-62599500D01*
X133040768Y-62599500D01*
X132988332Y-62584102D01*
X132963664Y-62597069D01*
X132939232Y-62599500D01*
X130890768Y-62599500D01*
X130838332Y-62584102D01*
X130813664Y-62597069D01*
X130789232Y-62599500D01*
X130081004Y-62599500D01*
X129945677Y-62626418D01*
X129945667Y-62626421D01*
X129818192Y-62679222D01*
X129703454Y-62755887D01*
X128805887Y-63653454D01*
X128729222Y-63768192D01*
X128676421Y-63895667D01*
X128676418Y-63895679D01*
X128655318Y-64001758D01*
X128655318Y-64001760D01*
X128653508Y-64010858D01*
X128649500Y-64031006D01*
X128649500Y-67694619D01*
X128629815Y-67761658D01*
X128577011Y-67807413D01*
X128507853Y-67817357D01*
X128493407Y-67814394D01*
X128306697Y-67764366D01*
X128306693Y-67764365D01*
X128306692Y-67764365D01*
X128306691Y-67764364D01*
X128306686Y-67764364D01*
X128080002Y-67744532D01*
X128079998Y-67744532D01*
X127853313Y-67764364D01*
X127853302Y-67764366D01*
X127633511Y-67823258D01*
X127633502Y-67823261D01*
X127427267Y-67919431D01*
X127427265Y-67919432D01*
X127240858Y-68049954D01*
X127079954Y-68210858D01*
X126949432Y-68397265D01*
X126949431Y-68397267D01*
X126922382Y-68455275D01*
X126876209Y-68507714D01*
X126809016Y-68526866D01*
X126742135Y-68506650D01*
X126697618Y-68455275D01*
X126670686Y-68397520D01*
X126670568Y-68397266D01*
X126540047Y-68210861D01*
X126540045Y-68210858D01*
X126379141Y-68049954D01*
X126192734Y-67919432D01*
X126192732Y-67919431D01*
X125986497Y-67823261D01*
X125986488Y-67823258D01*
X125766697Y-67764366D01*
X125766693Y-67764365D01*
X125766692Y-67764365D01*
X125766691Y-67764364D01*
X125766686Y-67764364D01*
X125540002Y-67744532D01*
X125539998Y-67744532D01*
X125313313Y-67764364D01*
X125313302Y-67764366D01*
X125093511Y-67823258D01*
X125093502Y-67823261D01*
X124887267Y-67919431D01*
X124887265Y-67919432D01*
X124700858Y-68049954D01*
X124539954Y-68210858D01*
X124409432Y-68397265D01*
X124409431Y-68397267D01*
X124382382Y-68455275D01*
X124336209Y-68507714D01*
X124269016Y-68526866D01*
X124202135Y-68506650D01*
X124157618Y-68455275D01*
X124130686Y-68397520D01*
X124130568Y-68397266D01*
X124000047Y-68210861D01*
X124000045Y-68210858D01*
X123839141Y-68049954D01*
X123753375Y-67989901D01*
X123683278Y-67940819D01*
X123639655Y-67886245D01*
X123631229Y-67824954D01*
X123633326Y-67806878D01*
X122980001Y-67153553D01*
X122980000Y-67153553D01*
X122326672Y-67806880D01*
X122331774Y-67850861D01*
X122319946Y-67919722D01*
X122279723Y-67966725D01*
X122160859Y-68049953D01*
X121999954Y-68210858D01*
X121869432Y-68397265D01*
X121869431Y-68397267D01*
X121842382Y-68455275D01*
X121796209Y-68507714D01*
X121729016Y-68526866D01*
X121662135Y-68506650D01*
X121617618Y-68455275D01*
X121590686Y-68397520D01*
X121590568Y-68397266D01*
X121460047Y-68210861D01*
X121460045Y-68210858D01*
X121299141Y-68049954D01*
X121112734Y-67919432D01*
X121112732Y-67919431D01*
X120906497Y-67823261D01*
X120906488Y-67823258D01*
X120686697Y-67764366D01*
X120686693Y-67764365D01*
X120686692Y-67764365D01*
X120686691Y-67764364D01*
X120686686Y-67764364D01*
X120460002Y-67744532D01*
X120459998Y-67744532D01*
X120233313Y-67764364D01*
X120233302Y-67764366D01*
X120116593Y-67795638D01*
X120046743Y-67793975D01*
X119988881Y-67754812D01*
X119961377Y-67690583D01*
X119960500Y-67675863D01*
X119960500Y-66800000D01*
X121774859Y-66800000D01*
X121795378Y-67021439D01*
X121856240Y-67235350D01*
X121955369Y-67434428D01*
X121971137Y-67455308D01*
X121971138Y-67455308D01*
X122580369Y-66846078D01*
X122630000Y-66846078D01*
X122653852Y-66935095D01*
X122699930Y-67014905D01*
X122765095Y-67080070D01*
X122844905Y-67126148D01*
X122933922Y-67150000D01*
X123026078Y-67150000D01*
X123115095Y-67126148D01*
X123194905Y-67080070D01*
X123260070Y-67014905D01*
X123306148Y-66935095D01*
X123330000Y-66846078D01*
X123330000Y-66800000D01*
X123333553Y-66800000D01*
X123988861Y-67455308D01*
X124004631Y-67434425D01*
X124004633Y-67434422D01*
X124103759Y-67235350D01*
X124164621Y-67021439D01*
X124185141Y-66800000D01*
X124185141Y-66799999D01*
X124164621Y-66578560D01*
X124103759Y-66364649D01*
X124004635Y-66165580D01*
X124004630Y-66165572D01*
X123988860Y-66144690D01*
X123333553Y-66799999D01*
X123333553Y-66800000D01*
X123330000Y-66800000D01*
X123330000Y-66753922D01*
X123306148Y-66664905D01*
X123260070Y-66585095D01*
X123194905Y-66519930D01*
X123115095Y-66473852D01*
X123026078Y-66450000D01*
X122933922Y-66450000D01*
X122844905Y-66473852D01*
X122765095Y-66519930D01*
X122699930Y-66585095D01*
X122653852Y-66664905D01*
X122630000Y-66753922D01*
X122630000Y-66846078D01*
X122580369Y-66846078D01*
X122626447Y-66800000D01*
X121971138Y-66144691D01*
X121971137Y-66144691D01*
X121955368Y-66165574D01*
X121856240Y-66364649D01*
X121795378Y-66578560D01*
X121774859Y-66799999D01*
X121774859Y-66800000D01*
X119960500Y-66800000D01*
X119960500Y-65793119D01*
X122326671Y-65793119D01*
X122980000Y-66446447D01*
X122980001Y-66446447D01*
X123633326Y-65793120D01*
X123627081Y-65739289D01*
X123627081Y-65710708D01*
X123633326Y-65656879D01*
X122980001Y-65003553D01*
X122980000Y-65003553D01*
X122326672Y-65656879D01*
X122332917Y-65710709D01*
X122332917Y-65739288D01*
X122326671Y-65793119D01*
X119960500Y-65793119D01*
X119960500Y-65141006D01*
X119951655Y-65096544D01*
X119951655Y-65096541D01*
X119938651Y-65031167D01*
X119933580Y-65005672D01*
X119880775Y-64878189D01*
X119804114Y-64763457D01*
X119804112Y-64763454D01*
X119690658Y-64650000D01*
X121774859Y-64650000D01*
X121795378Y-64871439D01*
X121856240Y-65085350D01*
X121955369Y-65284428D01*
X121971137Y-65305308D01*
X121971138Y-65305308D01*
X122580369Y-64696078D01*
X122630000Y-64696078D01*
X122653852Y-64785095D01*
X122699930Y-64864905D01*
X122765095Y-64930070D01*
X122844905Y-64976148D01*
X122933922Y-65000000D01*
X123026078Y-65000000D01*
X123115095Y-64976148D01*
X123194905Y-64930070D01*
X123260070Y-64864905D01*
X123306148Y-64785095D01*
X123330000Y-64696078D01*
X123330000Y-64650000D01*
X123333553Y-64650000D01*
X123988861Y-65305308D01*
X124004631Y-65284425D01*
X124004633Y-65284422D01*
X124103759Y-65085350D01*
X124164621Y-64871439D01*
X124185141Y-64650000D01*
X124185141Y-64649999D01*
X124164621Y-64428560D01*
X124103759Y-64214649D01*
X124004635Y-64015580D01*
X124004630Y-64015572D01*
X123988860Y-63994690D01*
X123333553Y-64649999D01*
X123333553Y-64650000D01*
X123330000Y-64650000D01*
X123330000Y-64603922D01*
X123306148Y-64514905D01*
X123260070Y-64435095D01*
X123194905Y-64369930D01*
X123115095Y-64323852D01*
X123026078Y-64300000D01*
X122933922Y-64300000D01*
X122844905Y-64323852D01*
X122765095Y-64369930D01*
X122699930Y-64435095D01*
X122653852Y-64514905D01*
X122630000Y-64603922D01*
X122630000Y-64696078D01*
X122580369Y-64696078D01*
X122626447Y-64650000D01*
X121971138Y-63994691D01*
X121971137Y-63994691D01*
X121955368Y-64015574D01*
X121856240Y-64214649D01*
X121795378Y-64428560D01*
X121774859Y-64649999D01*
X121774859Y-64650000D01*
X119690658Y-64650000D01*
X119146545Y-64105887D01*
X119031807Y-64029222D01*
X118904332Y-63976421D01*
X118904322Y-63976418D01*
X118768996Y-63949500D01*
X118768994Y-63949500D01*
X118768993Y-63949500D01*
X116397105Y-63949500D01*
X116330066Y-63929815D01*
X116298151Y-63900227D01*
X116250979Y-63837761D01*
X116086562Y-63687876D01*
X116086557Y-63687872D01*
X116079530Y-63683521D01*
X116032895Y-63631493D01*
X116021791Y-63562511D01*
X116049745Y-63498477D01*
X116079529Y-63472670D01*
X116096562Y-63462124D01*
X116260981Y-63312236D01*
X116395058Y-63134689D01*
X116494229Y-62935528D01*
X116555115Y-62721536D01*
X116575643Y-62500000D01*
X116555458Y-62282171D01*
X116555115Y-62278464D01*
X116555114Y-62278462D01*
X116554624Y-62276741D01*
X116494229Y-62064472D01*
X116494224Y-62064461D01*
X116395061Y-61865316D01*
X116395056Y-61865308D01*
X116260979Y-61687761D01*
X116096562Y-61537876D01*
X116096560Y-61537874D01*
X116084532Y-61530427D01*
X116037896Y-61478400D01*
X116026792Y-61409418D01*
X116054745Y-61345384D01*
X116084532Y-61319573D01*
X116096560Y-61312125D01*
X116096559Y-61312125D01*
X116096562Y-61312124D01*
X116260981Y-61162236D01*
X116395058Y-60984689D01*
X116494229Y-60785528D01*
X116555115Y-60571536D01*
X116575643Y-60350000D01*
X116573743Y-60329500D01*
X116555115Y-60128464D01*
X116555114Y-60128461D01*
X116520964Y-60008434D01*
X116521551Y-59938567D01*
X116559818Y-59880108D01*
X116623615Y-59851618D01*
X116640230Y-59850500D01*
X121719770Y-59850500D01*
X121786809Y-59870185D01*
X121832564Y-59922989D01*
X121842508Y-59992147D01*
X121839036Y-60008434D01*
X121804885Y-60128461D01*
X121804884Y-60128464D01*
X121784357Y-60349999D01*
X121784357Y-60350000D01*
X121804884Y-60571535D01*
X121804885Y-60571537D01*
X121865769Y-60785523D01*
X121865775Y-60785538D01*
X121964938Y-60984683D01*
X121964943Y-60984691D01*
X122099020Y-61162238D01*
X122263435Y-61312122D01*
X122275470Y-61319574D01*
X122322104Y-61371603D01*
X122333207Y-61440585D01*
X122305252Y-61504619D01*
X122275470Y-61530426D01*
X122263435Y-61537877D01*
X122099020Y-61687761D01*
X121964943Y-61865308D01*
X121964938Y-61865316D01*
X121865775Y-62064461D01*
X121865769Y-62064476D01*
X121804885Y-62278462D01*
X121804884Y-62278464D01*
X121784357Y-62499999D01*
X121784357Y-62500000D01*
X121804884Y-62721535D01*
X121804885Y-62721537D01*
X121865769Y-62935523D01*
X121865775Y-62935538D01*
X121964938Y-63134683D01*
X121964943Y-63134691D01*
X122099020Y-63312238D01*
X122263436Y-63462123D01*
X122275049Y-63469313D01*
X122321685Y-63521340D01*
X122332947Y-63589030D01*
X122326672Y-63643119D01*
X122980000Y-64296447D01*
X122980001Y-64296447D01*
X123633326Y-63643120D01*
X123628392Y-63600586D01*
X123640219Y-63531724D01*
X123686288Y-63480868D01*
X123716562Y-63462124D01*
X123791166Y-63394113D01*
X123880979Y-63312238D01*
X123909601Y-63274337D01*
X124015058Y-63134689D01*
X124114229Y-62935528D01*
X124175115Y-62721536D01*
X124195643Y-62500000D01*
X124175458Y-62282171D01*
X124175115Y-62278464D01*
X124175114Y-62278462D01*
X124174624Y-62276741D01*
X124114229Y-62064472D01*
X124114224Y-62064461D01*
X124015061Y-61865316D01*
X124015056Y-61865308D01*
X123880979Y-61687761D01*
X123716562Y-61537876D01*
X123716560Y-61537874D01*
X123704532Y-61530427D01*
X123657896Y-61478400D01*
X123646792Y-61409418D01*
X123674745Y-61345384D01*
X123704532Y-61319573D01*
X123716560Y-61312125D01*
X123716559Y-61312125D01*
X123716562Y-61312124D01*
X123880981Y-61162236D01*
X124015058Y-60984689D01*
X124114229Y-60785528D01*
X124175115Y-60571536D01*
X124195643Y-60350000D01*
X124193743Y-60329500D01*
X124175115Y-60128464D01*
X124175114Y-60128461D01*
X124140964Y-60008434D01*
X124141551Y-59938567D01*
X124179818Y-59880108D01*
X124243615Y-59851618D01*
X124260230Y-59850500D01*
X124900951Y-59850500D01*
X124967990Y-59870185D01*
X125013745Y-59922989D01*
X125023689Y-59992147D01*
X124994664Y-60055703D01*
X124988632Y-60062181D01*
X124839954Y-60210858D01*
X124709432Y-60397265D01*
X124709431Y-60397267D01*
X124613261Y-60603502D01*
X124613258Y-60603511D01*
X124554366Y-60823302D01*
X124554364Y-60823313D01*
X124534532Y-61049998D01*
X124534532Y-61050001D01*
X124554364Y-61276686D01*
X124554366Y-61276697D01*
X124613258Y-61496488D01*
X124613261Y-61496497D01*
X124709431Y-61702732D01*
X124709432Y-61702734D01*
X124839954Y-61889141D01*
X125000858Y-62050045D01*
X125021462Y-62064472D01*
X125187266Y-62180568D01*
X125393504Y-62276739D01*
X125393509Y-62276740D01*
X125393511Y-62276741D01*
X125422181Y-62284423D01*
X125613308Y-62335635D01*
X125775230Y-62349801D01*
X125839998Y-62355468D01*
X125840000Y-62355468D01*
X125840002Y-62355468D01*
X125896673Y-62350509D01*
X126066692Y-62335635D01*
X126286496Y-62276739D01*
X126492734Y-62180568D01*
X126679139Y-62050047D01*
X126840047Y-61889139D01*
X126970568Y-61702734D01*
X127066739Y-61496496D01*
X127125635Y-61276692D01*
X127145468Y-61050000D01*
X127142755Y-61018996D01*
X127128188Y-60852488D01*
X127125635Y-60823308D01*
X127070344Y-60616957D01*
X127066741Y-60603511D01*
X127066738Y-60603502D01*
X127051832Y-60571536D01*
X126970568Y-60397266D01*
X126840047Y-60210861D01*
X126840045Y-60210858D01*
X126691368Y-60062181D01*
X126657883Y-60000858D01*
X126662867Y-59931166D01*
X126704739Y-59875233D01*
X126770203Y-59850816D01*
X126779049Y-59850500D01*
X129900951Y-59850500D01*
X129967990Y-59870185D01*
X130013745Y-59922989D01*
X130023689Y-59992147D01*
X129994664Y-60055703D01*
X129988632Y-60062181D01*
X129839954Y-60210858D01*
X129709432Y-60397265D01*
X129709431Y-60397267D01*
X129613261Y-60603502D01*
X129613258Y-60603511D01*
X129554366Y-60823302D01*
X129554364Y-60823313D01*
X129534532Y-61049998D01*
X129534532Y-61050001D01*
X129554364Y-61276686D01*
X129554366Y-61276697D01*
X129613258Y-61496488D01*
X129613261Y-61496497D01*
X129709431Y-61702732D01*
X129709432Y-61702734D01*
X129839954Y-61889141D01*
X130000858Y-62050045D01*
X130021462Y-62064472D01*
X130187266Y-62180568D01*
X130393504Y-62276739D01*
X130393509Y-62276740D01*
X130393511Y-62276741D01*
X130422181Y-62284423D01*
X130613308Y-62335635D01*
X130755262Y-62348054D01*
X130800039Y-62351972D01*
X130839124Y-62367260D01*
X130855833Y-62356523D01*
X130879961Y-62351972D01*
X130918828Y-62348571D01*
X131066692Y-62335635D01*
X131286496Y-62276739D01*
X131492734Y-62180568D01*
X131679139Y-62050047D01*
X131748945Y-61980241D01*
X131827319Y-61901868D01*
X131888642Y-61868383D01*
X131958334Y-61873367D01*
X132002681Y-61901868D01*
X132150858Y-62050045D01*
X132171462Y-62064472D01*
X132337266Y-62180568D01*
X132543504Y-62276739D01*
X132543509Y-62276740D01*
X132543511Y-62276741D01*
X132572181Y-62284423D01*
X132763308Y-62335635D01*
X132905262Y-62348054D01*
X132950039Y-62351972D01*
X132989124Y-62367260D01*
X133005833Y-62356523D01*
X133029961Y-62351972D01*
X133068828Y-62348571D01*
X133216692Y-62335635D01*
X133436496Y-62276739D01*
X133642734Y-62180568D01*
X133829139Y-62050047D01*
X133990047Y-61889139D01*
X134120568Y-61702734D01*
X134216739Y-61496496D01*
X134275635Y-61276692D01*
X134295468Y-61050001D01*
X136684532Y-61050001D01*
X136704364Y-61276686D01*
X136704366Y-61276697D01*
X136763258Y-61496488D01*
X136763261Y-61496497D01*
X136859431Y-61702732D01*
X136859432Y-61702734D01*
X136989954Y-61889141D01*
X137150858Y-62050045D01*
X137171462Y-62064472D01*
X137337266Y-62180568D01*
X137543504Y-62276739D01*
X137543509Y-62276740D01*
X137543511Y-62276741D01*
X137572181Y-62284423D01*
X137763308Y-62335635D01*
X137905262Y-62348054D01*
X137950039Y-62351972D01*
X137989124Y-62367260D01*
X138005833Y-62356523D01*
X138029961Y-62351972D01*
X138068828Y-62348571D01*
X138216692Y-62335635D01*
X138436496Y-62276739D01*
X138642734Y-62180568D01*
X138829139Y-62050047D01*
X138990047Y-61889139D01*
X139120568Y-61702734D01*
X139216739Y-61496496D01*
X139275635Y-61276692D01*
X139295468Y-61050000D01*
X139292755Y-61018996D01*
X139278188Y-60852488D01*
X139275635Y-60823308D01*
X139220344Y-60616957D01*
X139216741Y-60603511D01*
X139216738Y-60603502D01*
X139201832Y-60571536D01*
X139120568Y-60397266D01*
X138990047Y-60210861D01*
X138990045Y-60210858D01*
X138829141Y-60049954D01*
X138642734Y-59919432D01*
X138642732Y-59919431D01*
X138436497Y-59823261D01*
X138436488Y-59823258D01*
X138216697Y-59764366D01*
X138216693Y-59764365D01*
X138216692Y-59764365D01*
X138216691Y-59764364D01*
X138216686Y-59764364D01*
X137990002Y-59744532D01*
X137989998Y-59744532D01*
X137763313Y-59764364D01*
X137763302Y-59764366D01*
X137543511Y-59823258D01*
X137543502Y-59823261D01*
X137337267Y-59919431D01*
X137337265Y-59919432D01*
X137150858Y-60049954D01*
X136989954Y-60210858D01*
X136859432Y-60397265D01*
X136859431Y-60397267D01*
X136763261Y-60603502D01*
X136763258Y-60603511D01*
X136704366Y-60823302D01*
X136704364Y-60823313D01*
X136684532Y-61049998D01*
X136684532Y-61050001D01*
X134295468Y-61050001D01*
X134295468Y-61050000D01*
X134292755Y-61018996D01*
X134278188Y-60852488D01*
X134275635Y-60823308D01*
X134220344Y-60616957D01*
X134216741Y-60603511D01*
X134216738Y-60603502D01*
X134201832Y-60571536D01*
X134120568Y-60397266D01*
X133990047Y-60210861D01*
X133990045Y-60210858D01*
X133829141Y-60049954D01*
X133642734Y-59919432D01*
X133642732Y-59919431D01*
X133436497Y-59823261D01*
X133436488Y-59823258D01*
X133216697Y-59764366D01*
X133216693Y-59764365D01*
X133216692Y-59764365D01*
X133216691Y-59764364D01*
X133216686Y-59764364D01*
X132990002Y-59744532D01*
X132989998Y-59744532D01*
X132763313Y-59764364D01*
X132763302Y-59764366D01*
X132543511Y-59823258D01*
X132543502Y-59823261D01*
X132337267Y-59919431D01*
X132337265Y-59919432D01*
X132150858Y-60049954D01*
X132002681Y-60198132D01*
X131941358Y-60231617D01*
X131871666Y-60226633D01*
X131827319Y-60198132D01*
X131679141Y-60049954D01*
X131492734Y-59919432D01*
X131492732Y-59919431D01*
X131331670Y-59844326D01*
X131279231Y-59798153D01*
X131260079Y-59730960D01*
X131280295Y-59664079D01*
X131296394Y-59644263D01*
X131984112Y-58956545D01*
X131984114Y-58956543D01*
X132060775Y-58841811D01*
X132113580Y-58714328D01*
X132140500Y-58578994D01*
X132140500Y-58441006D01*
X132140500Y-58141672D01*
X132160185Y-58074633D01*
X132193375Y-58040098D01*
X132279139Y-57980047D01*
X132440047Y-57819139D01*
X132570568Y-57632734D01*
X132597618Y-57574724D01*
X132643790Y-57522285D01*
X132710983Y-57503133D01*
X132777865Y-57523348D01*
X132822382Y-57574725D01*
X132849429Y-57632728D01*
X132849432Y-57632734D01*
X132979954Y-57819141D01*
X133140858Y-57980045D01*
X133148689Y-57985528D01*
X133327266Y-58110568D01*
X133533504Y-58206739D01*
X133533509Y-58206740D01*
X133533511Y-58206741D01*
X133564249Y-58214977D01*
X133753308Y-58265635D01*
X133915230Y-58279801D01*
X133979998Y-58285468D01*
X133980000Y-58285468D01*
X133980002Y-58285468D01*
X134036673Y-58280509D01*
X134206692Y-58265635D01*
X134426496Y-58206739D01*
X134632734Y-58110568D01*
X134819139Y-57980047D01*
X134980047Y-57819139D01*
X135110568Y-57632734D01*
X135137895Y-57574129D01*
X135184064Y-57521695D01*
X135251257Y-57502542D01*
X135318139Y-57522757D01*
X135362657Y-57574133D01*
X135389865Y-57632482D01*
X135520342Y-57818820D01*
X135681179Y-57979657D01*
X135867517Y-58110134D01*
X136073673Y-58206265D01*
X136073682Y-58206269D01*
X136269999Y-58258872D01*
X136270000Y-58258871D01*
X136270000Y-57295686D01*
X136274394Y-57300080D01*
X136365606Y-57352741D01*
X136467339Y-57380000D01*
X136572661Y-57380000D01*
X136674394Y-57352741D01*
X136765606Y-57300080D01*
X136770000Y-57295686D01*
X136770000Y-58258872D01*
X136966317Y-58206269D01*
X136966326Y-58206265D01*
X137172482Y-58110134D01*
X137358820Y-57979657D01*
X137519657Y-57818820D01*
X137650134Y-57632482D01*
X137746265Y-57426326D01*
X137746269Y-57426317D01*
X137798872Y-57230000D01*
X136835686Y-57230000D01*
X136840080Y-57225606D01*
X136892741Y-57134394D01*
X136920000Y-57032661D01*
X136920000Y-56927339D01*
X136892741Y-56825606D01*
X136840080Y-56734394D01*
X136835686Y-56730000D01*
X137798872Y-56730000D01*
X137798872Y-56729999D01*
X137746269Y-56533682D01*
X137746265Y-56533673D01*
X137650134Y-56327517D01*
X137577818Y-56224240D01*
X142839311Y-56224240D01*
X142927585Y-56278897D01*
X143117678Y-56352539D01*
X143318072Y-56390000D01*
X143521928Y-56390000D01*
X143722322Y-56352539D01*
X143912412Y-56278899D01*
X143912416Y-56278897D01*
X144000686Y-56224241D01*
X144000686Y-56224240D01*
X143420001Y-55643553D01*
X143420000Y-55643553D01*
X142839311Y-56224240D01*
X137577818Y-56224240D01*
X137519657Y-56141179D01*
X137358820Y-55980342D01*
X137172482Y-55849865D01*
X136966328Y-55753734D01*
X136770000Y-55701127D01*
X136770000Y-56664314D01*
X136765606Y-56659920D01*
X136674394Y-56607259D01*
X136572661Y-56580000D01*
X136467339Y-56580000D01*
X136365606Y-56607259D01*
X136274394Y-56659920D01*
X136270000Y-56664314D01*
X136270000Y-55701127D01*
X136073671Y-55753734D01*
X135867517Y-55849865D01*
X135681179Y-55980342D01*
X135520342Y-56141179D01*
X135389867Y-56327515D01*
X135362657Y-56385867D01*
X135316484Y-56438306D01*
X135249290Y-56457457D01*
X135182409Y-56437241D01*
X135137893Y-56385865D01*
X135137709Y-56385471D01*
X135110568Y-56327266D01*
X134980047Y-56140861D01*
X134980045Y-56140858D01*
X134819141Y-55979954D01*
X134632734Y-55849432D01*
X134632732Y-55849431D01*
X134426497Y-55753261D01*
X134426488Y-55753258D01*
X134206697Y-55694366D01*
X134206693Y-55694365D01*
X134206692Y-55694365D01*
X134206691Y-55694364D01*
X134206686Y-55694364D01*
X133980002Y-55674532D01*
X133979998Y-55674532D01*
X133753313Y-55694364D01*
X133753302Y-55694366D01*
X133533511Y-55753258D01*
X133533502Y-55753261D01*
X133327267Y-55849431D01*
X133327265Y-55849432D01*
X133140858Y-55979954D01*
X132979954Y-56140858D01*
X132849432Y-56327265D01*
X132849431Y-56327267D01*
X132822382Y-56385275D01*
X132776209Y-56437714D01*
X132709016Y-56456866D01*
X132642135Y-56436650D01*
X132597618Y-56385275D01*
X132582353Y-56352539D01*
X132570568Y-56327266D01*
X132440047Y-56140861D01*
X132440045Y-56140858D01*
X132279141Y-55979954D01*
X132092734Y-55849432D01*
X132092732Y-55849431D01*
X131886497Y-55753261D01*
X131886488Y-55753258D01*
X131666697Y-55694366D01*
X131666693Y-55694365D01*
X131666692Y-55694365D01*
X131666691Y-55694364D01*
X131666686Y-55694364D01*
X131440002Y-55674532D01*
X131439998Y-55674532D01*
X131213313Y-55694364D01*
X131213302Y-55694366D01*
X130993511Y-55753258D01*
X130993502Y-55753261D01*
X130787267Y-55849431D01*
X130787265Y-55849432D01*
X130600858Y-55979954D01*
X130439954Y-56140858D01*
X130309432Y-56327265D01*
X130309431Y-56327267D01*
X130282382Y-56385275D01*
X130236209Y-56437714D01*
X130169016Y-56456866D01*
X130102135Y-56436650D01*
X130057618Y-56385275D01*
X130042353Y-56352539D01*
X130030568Y-56327266D01*
X129900047Y-56140861D01*
X129900045Y-56140858D01*
X129739141Y-55979954D01*
X129552734Y-55849432D01*
X129552732Y-55849431D01*
X129346497Y-55753261D01*
X129346488Y-55753258D01*
X129126697Y-55694366D01*
X129126693Y-55694365D01*
X129126692Y-55694365D01*
X129126691Y-55694364D01*
X129126686Y-55694364D01*
X128900002Y-55674532D01*
X128899998Y-55674532D01*
X128673313Y-55694364D01*
X128673302Y-55694366D01*
X128453511Y-55753258D01*
X128453502Y-55753261D01*
X128247267Y-55849431D01*
X128247265Y-55849432D01*
X128060858Y-55979954D01*
X127899954Y-56140858D01*
X127769432Y-56327265D01*
X127769431Y-56327267D01*
X127742382Y-56385275D01*
X127696209Y-56437714D01*
X127629016Y-56456866D01*
X127562135Y-56436650D01*
X127517618Y-56385275D01*
X127502353Y-56352539D01*
X127490568Y-56327266D01*
X127360047Y-56140861D01*
X127360045Y-56140858D01*
X127199141Y-55979954D01*
X127012734Y-55849432D01*
X127012732Y-55849431D01*
X126806497Y-55753261D01*
X126806488Y-55753258D01*
X126586697Y-55694366D01*
X126586693Y-55694365D01*
X126586692Y-55694365D01*
X126586691Y-55694364D01*
X126586686Y-55694364D01*
X126360002Y-55674532D01*
X126359998Y-55674532D01*
X126133313Y-55694364D01*
X126133302Y-55694366D01*
X125913511Y-55753258D01*
X125913502Y-55753261D01*
X125707267Y-55849431D01*
X125707265Y-55849432D01*
X125520858Y-55979954D01*
X125359954Y-56140858D01*
X125229432Y-56327265D01*
X125229431Y-56327267D01*
X125202382Y-56385275D01*
X125156209Y-56437714D01*
X125089016Y-56456866D01*
X125022135Y-56436650D01*
X124977618Y-56385275D01*
X124962353Y-56352539D01*
X124950568Y-56327266D01*
X124820047Y-56140861D01*
X124820045Y-56140858D01*
X124659141Y-55979954D01*
X124472734Y-55849432D01*
X124472732Y-55849431D01*
X124266497Y-55753261D01*
X124266488Y-55753258D01*
X124046697Y-55694366D01*
X124046693Y-55694365D01*
X124046692Y-55694365D01*
X124046691Y-55694364D01*
X124046686Y-55694364D01*
X123820002Y-55674532D01*
X123819998Y-55674532D01*
X123593313Y-55694364D01*
X123593302Y-55694366D01*
X123373511Y-55753258D01*
X123373502Y-55753261D01*
X123167267Y-55849431D01*
X123167265Y-55849432D01*
X122980858Y-55979954D01*
X122819954Y-56140858D01*
X122689432Y-56327265D01*
X122689431Y-56327267D01*
X122662382Y-56385275D01*
X122616209Y-56437714D01*
X122549016Y-56456866D01*
X122482135Y-56436650D01*
X122437618Y-56385275D01*
X122422353Y-56352539D01*
X122410568Y-56327266D01*
X122280047Y-56140861D01*
X122280045Y-56140858D01*
X122119141Y-55979954D01*
X121932734Y-55849432D01*
X121932732Y-55849431D01*
X121726497Y-55753261D01*
X121726488Y-55753258D01*
X121506697Y-55694366D01*
X121506693Y-55694365D01*
X121506692Y-55694365D01*
X121506691Y-55694364D01*
X121506686Y-55694364D01*
X121280002Y-55674532D01*
X121279998Y-55674532D01*
X121053313Y-55694364D01*
X121053302Y-55694366D01*
X120833511Y-55753258D01*
X120833502Y-55753261D01*
X120627267Y-55849431D01*
X120627265Y-55849432D01*
X120440858Y-55979954D01*
X120279954Y-56140858D01*
X120149432Y-56327265D01*
X120149431Y-56327267D01*
X120122382Y-56385275D01*
X120076209Y-56437714D01*
X120009016Y-56456866D01*
X119942135Y-56436650D01*
X119897618Y-56385275D01*
X119882353Y-56352539D01*
X119870568Y-56327266D01*
X119740047Y-56140861D01*
X119740045Y-56140858D01*
X119579141Y-55979954D01*
X119392734Y-55849432D01*
X119392732Y-55849431D01*
X119186497Y-55753261D01*
X119186488Y-55753258D01*
X118966697Y-55694366D01*
X118966693Y-55694365D01*
X118966692Y-55694365D01*
X118966691Y-55694364D01*
X118966686Y-55694364D01*
X118740002Y-55674532D01*
X118739998Y-55674532D01*
X118513313Y-55694364D01*
X118513302Y-55694366D01*
X118293511Y-55753258D01*
X118293502Y-55753261D01*
X118087267Y-55849431D01*
X118087265Y-55849432D01*
X117900858Y-55979954D01*
X117739954Y-56140858D01*
X117609432Y-56327265D01*
X117609431Y-56327267D01*
X117513261Y-56533502D01*
X117513258Y-56533511D01*
X117454366Y-56753302D01*
X117454364Y-56753313D01*
X117434532Y-56979998D01*
X117434532Y-56980001D01*
X117454364Y-57206686D01*
X117454366Y-57206697D01*
X117513258Y-57426488D01*
X117513261Y-57426497D01*
X117608625Y-57631004D01*
X117609432Y-57632734D01*
X117624587Y-57654378D01*
X117646914Y-57720583D01*
X117629904Y-57788350D01*
X117578956Y-57836163D01*
X117523012Y-57849500D01*
X116860147Y-57849500D01*
X116793108Y-57829815D01*
X116772466Y-57813181D01*
X116103246Y-57143960D01*
X116069761Y-57082637D01*
X116074745Y-57012945D01*
X116116617Y-56957012D01*
X116158834Y-56936504D01*
X116346317Y-56886269D01*
X116346331Y-56886264D01*
X116552478Y-56790136D01*
X116625471Y-56739024D01*
X115946447Y-56060000D01*
X115952661Y-56060000D01*
X116054394Y-56032741D01*
X116145606Y-55980080D01*
X116220080Y-55905606D01*
X116272741Y-55814394D01*
X116300000Y-55712661D01*
X116300000Y-55706447D01*
X116979024Y-56385471D01*
X117030136Y-56312478D01*
X117126264Y-56106331D01*
X117126269Y-56106317D01*
X117185139Y-55886610D01*
X117185141Y-55886599D01*
X117204966Y-55660002D01*
X117204966Y-55659997D01*
X117185141Y-55433400D01*
X117185139Y-55433389D01*
X117126269Y-55213682D01*
X117126264Y-55213668D01*
X117030136Y-55007521D01*
X117030132Y-55007513D01*
X116979025Y-54934526D01*
X116300000Y-55613551D01*
X116300000Y-55607339D01*
X116272741Y-55505606D01*
X116220080Y-55414394D01*
X116145606Y-55339920D01*
X116054394Y-55287259D01*
X115952661Y-55260000D01*
X115946448Y-55260000D01*
X116625472Y-54580974D01*
X116552478Y-54529863D01*
X116346331Y-54433735D01*
X116346317Y-54433730D01*
X116126610Y-54374860D01*
X116126599Y-54374858D01*
X115900002Y-54355034D01*
X115899998Y-54355034D01*
X115673400Y-54374858D01*
X115673389Y-54374860D01*
X115453682Y-54433730D01*
X115453673Y-54433734D01*
X115247516Y-54529866D01*
X115247512Y-54529868D01*
X115174526Y-54580973D01*
X115174526Y-54580974D01*
X115853553Y-55260000D01*
X115847339Y-55260000D01*
X115745606Y-55287259D01*
X115654394Y-55339920D01*
X115579920Y-55414394D01*
X115527259Y-55505606D01*
X115500000Y-55607339D01*
X115500000Y-55613552D01*
X114820974Y-54934526D01*
X114820973Y-54934526D01*
X114769868Y-55007512D01*
X114769866Y-55007516D01*
X114673734Y-55213673D01*
X114673730Y-55213682D01*
X114614860Y-55433389D01*
X114614858Y-55433400D01*
X114597107Y-55636307D01*
X114571655Y-55701376D01*
X114515064Y-55742355D01*
X114473579Y-55749500D01*
X111740519Y-55749500D01*
X111673480Y-55729815D01*
X111627725Y-55677011D01*
X111617781Y-55607853D01*
X111646806Y-55544297D01*
X111652838Y-55537819D01*
X112374112Y-54816545D01*
X112374114Y-54816543D01*
X112409281Y-54763911D01*
X112450775Y-54701811D01*
X112497324Y-54589432D01*
X112503580Y-54574329D01*
X112511963Y-54532184D01*
X112522443Y-54479500D01*
X112530500Y-54438995D01*
X112530500Y-52350634D01*
X112550185Y-52283595D01*
X112583377Y-52249059D01*
X112636877Y-52211598D01*
X112791598Y-52056877D01*
X112917102Y-51877639D01*
X113009575Y-51679330D01*
X113066207Y-51467977D01*
X113082805Y-51278254D01*
X113085277Y-51250002D01*
X113085277Y-51249997D01*
X113078048Y-51167372D01*
X113066207Y-51032023D01*
X113027264Y-50886686D01*
X113009577Y-50820677D01*
X113009576Y-50820676D01*
X113009575Y-50820670D01*
X112934653Y-50660001D01*
X114594532Y-50660001D01*
X114614364Y-50886686D01*
X114614366Y-50886697D01*
X114673258Y-51106488D01*
X114673261Y-51106497D01*
X114769431Y-51312732D01*
X114769432Y-51312734D01*
X114899954Y-51499141D01*
X115060858Y-51660045D01*
X115060861Y-51660047D01*
X115247266Y-51790568D01*
X115453504Y-51886739D01*
X115673308Y-51945635D01*
X115835230Y-51959801D01*
X115899998Y-51965468D01*
X115900000Y-51965468D01*
X115900002Y-51965468D01*
X115956673Y-51960509D01*
X116126692Y-51945635D01*
X116346496Y-51886739D01*
X116552734Y-51790568D01*
X116739139Y-51660047D01*
X116900047Y-51499139D01*
X117030568Y-51312734D01*
X117126739Y-51106496D01*
X117185635Y-50886692D01*
X117205468Y-50660000D01*
X117205171Y-50656610D01*
X117192705Y-50514120D01*
X117185635Y-50433308D01*
X117126739Y-50213504D01*
X117030568Y-50007266D01*
X116900047Y-49820861D01*
X116900045Y-49820858D01*
X116739141Y-49659954D01*
X116552734Y-49529432D01*
X116552732Y-49529431D01*
X116346497Y-49433261D01*
X116346488Y-49433258D01*
X116126697Y-49374366D01*
X116126693Y-49374365D01*
X116126692Y-49374365D01*
X116126691Y-49374364D01*
X116126686Y-49374364D01*
X115962514Y-49360001D01*
X117434532Y-49360001D01*
X117454364Y-49586686D01*
X117454366Y-49586697D01*
X117513258Y-49806488D01*
X117513261Y-49806497D01*
X117609431Y-50012732D01*
X117609432Y-50012734D01*
X117739954Y-50199141D01*
X117900858Y-50360045D01*
X117900861Y-50360047D01*
X118087266Y-50490568D01*
X118293504Y-50586739D01*
X118513308Y-50645635D01*
X118660127Y-50658480D01*
X118739998Y-50665468D01*
X118740000Y-50665468D01*
X118740002Y-50665468D01*
X118802522Y-50659998D01*
X118966692Y-50645635D01*
X119186496Y-50586739D01*
X119392734Y-50490568D01*
X119579139Y-50360047D01*
X119740047Y-50199139D01*
X119870568Y-50012734D01*
X119897618Y-49954724D01*
X119943790Y-49902285D01*
X120010983Y-49883133D01*
X120077865Y-49903348D01*
X120122382Y-49954725D01*
X120149429Y-50012728D01*
X120149432Y-50012734D01*
X120279954Y-50199141D01*
X120440858Y-50360045D01*
X120440861Y-50360047D01*
X120627266Y-50490568D01*
X120833504Y-50586739D01*
X121053308Y-50645635D01*
X121200127Y-50658480D01*
X121279998Y-50665468D01*
X121280000Y-50665468D01*
X121280002Y-50665468D01*
X121342522Y-50659998D01*
X121506692Y-50645635D01*
X121726496Y-50586739D01*
X121932734Y-50490568D01*
X122119139Y-50360047D01*
X122280047Y-50199139D01*
X122410568Y-50012734D01*
X122437618Y-49954724D01*
X122483790Y-49902285D01*
X122550983Y-49883133D01*
X122617865Y-49903348D01*
X122662382Y-49954725D01*
X122689429Y-50012728D01*
X122689432Y-50012734D01*
X122819954Y-50199141D01*
X122980858Y-50360045D01*
X122980861Y-50360047D01*
X123167266Y-50490568D01*
X123373504Y-50586739D01*
X123593308Y-50645635D01*
X123740127Y-50658480D01*
X123819998Y-50665468D01*
X123820000Y-50665468D01*
X123820002Y-50665468D01*
X123882522Y-50659998D01*
X124046692Y-50645635D01*
X124266496Y-50586739D01*
X124472734Y-50490568D01*
X124659139Y-50360047D01*
X124820047Y-50199139D01*
X124950568Y-50012734D01*
X124977618Y-49954724D01*
X125023790Y-49902285D01*
X125090983Y-49883133D01*
X125157865Y-49903348D01*
X125202382Y-49954725D01*
X125229429Y-50012728D01*
X125229432Y-50012734D01*
X125359954Y-50199141D01*
X125520857Y-50360044D01*
X125520860Y-50360046D01*
X125520861Y-50360047D01*
X125606623Y-50420097D01*
X125650248Y-50474673D01*
X125659500Y-50521672D01*
X125659500Y-53241006D01*
X125659500Y-53378994D01*
X125659500Y-53378996D01*
X125659499Y-53378996D01*
X125686418Y-53514322D01*
X125686421Y-53514332D01*
X125739222Y-53641807D01*
X125815887Y-53756545D01*
X125815888Y-53756546D01*
X126393136Y-54333793D01*
X126893457Y-54834114D01*
X126939409Y-54864817D01*
X126939411Y-54864819D01*
X126939412Y-54864819D01*
X127008189Y-54910775D01*
X127008192Y-54910776D01*
X127008193Y-54910777D01*
X127095973Y-54947136D01*
X127095975Y-54947138D01*
X127135666Y-54963578D01*
X127135671Y-54963580D01*
X127135680Y-54963581D01*
X127135681Y-54963582D01*
X127162545Y-54968925D01*
X127162551Y-54968926D01*
X127162591Y-54968934D01*
X127252502Y-54986819D01*
X127271006Y-54990500D01*
X127271007Y-54990500D01*
X142207018Y-54990500D01*
X142274057Y-55010185D01*
X142319812Y-55062989D01*
X142330489Y-55125941D01*
X142315287Y-55289999D01*
X142315287Y-55290000D01*
X142334096Y-55492989D01*
X142334097Y-55492992D01*
X142389883Y-55689063D01*
X142389886Y-55689069D01*
X142480751Y-55871551D01*
X142482533Y-55873911D01*
X143125145Y-55231300D01*
X143120000Y-55250504D01*
X143120000Y-55329496D01*
X143140444Y-55405796D01*
X143179940Y-55474205D01*
X143235795Y-55530060D01*
X143304204Y-55569556D01*
X143380504Y-55590000D01*
X143459496Y-55590000D01*
X143535796Y-55569556D01*
X143604205Y-55530060D01*
X143660060Y-55474205D01*
X143699556Y-55405796D01*
X143720000Y-55329496D01*
X143720000Y-55250504D01*
X143714854Y-55231301D01*
X144357465Y-55873912D01*
X144359247Y-55871553D01*
X144359248Y-55871551D01*
X144450113Y-55689069D01*
X144450116Y-55689063D01*
X144505902Y-55492992D01*
X144505903Y-55492989D01*
X144524713Y-55290000D01*
X144524713Y-55289999D01*
X144509511Y-55125941D01*
X144522926Y-55057371D01*
X144571283Y-55006940D01*
X144632982Y-54990500D01*
X150008481Y-54990500D01*
X150075520Y-55010185D01*
X150096162Y-55026819D01*
X150213338Y-55143995D01*
X150246823Y-55205318D01*
X150249128Y-55243114D01*
X150244785Y-55289995D01*
X150244785Y-55290000D01*
X150263602Y-55493082D01*
X150319417Y-55689247D01*
X150319422Y-55689260D01*
X150410327Y-55871821D01*
X150533237Y-56034581D01*
X150683958Y-56171980D01*
X150683960Y-56171982D01*
X150768360Y-56224240D01*
X150857363Y-56279348D01*
X151047544Y-56353024D01*
X151248024Y-56390500D01*
X151248026Y-56390500D01*
X151451974Y-56390500D01*
X151451976Y-56390500D01*
X151652456Y-56353024D01*
X151842637Y-56279348D01*
X152016041Y-56171981D01*
X152166764Y-56034579D01*
X152289673Y-55871821D01*
X152380582Y-55689250D01*
X152436397Y-55493083D01*
X152455215Y-55290000D01*
X152450870Y-55243114D01*
X152436397Y-55086917D01*
X152414638Y-55010444D01*
X152380582Y-54890750D01*
X152353063Y-54835485D01*
X152317422Y-54763907D01*
X152289673Y-54708179D01*
X152166764Y-54545421D01*
X152166762Y-54545419D01*
X152159551Y-54538845D01*
X152123269Y-54479134D01*
X152125030Y-54409287D01*
X152164273Y-54351479D01*
X152185277Y-54339386D01*
X152184546Y-54338047D01*
X152192326Y-54333797D01*
X152192331Y-54333796D01*
X152307546Y-54247546D01*
X152393796Y-54132331D01*
X152444091Y-53997483D01*
X152450500Y-53937873D01*
X152450499Y-52642128D01*
X152444091Y-52582517D01*
X152425453Y-52532547D01*
X152393797Y-52447671D01*
X152393793Y-52447664D01*
X152307547Y-52332455D01*
X152307544Y-52332452D01*
X152192335Y-52246206D01*
X152192328Y-52246202D01*
X152057482Y-52195908D01*
X152057483Y-52195908D01*
X151997883Y-52189501D01*
X151997881Y-52189500D01*
X151997873Y-52189500D01*
X151997865Y-52189500D01*
X151291519Y-52189500D01*
X151224480Y-52169815D01*
X151203838Y-52153181D01*
X150836584Y-51785926D01*
X150803099Y-51724603D01*
X150808083Y-51654911D01*
X150849955Y-51598978D01*
X150915419Y-51574561D01*
X150969058Y-51582618D01*
X151009658Y-51598347D01*
X151047538Y-51613022D01*
X151047539Y-51613022D01*
X151047544Y-51613024D01*
X151248024Y-51650500D01*
X151248026Y-51650500D01*
X151451974Y-51650500D01*
X151451976Y-51650500D01*
X151652456Y-51613024D01*
X151842637Y-51539348D01*
X152016041Y-51431981D01*
X152166764Y-51294579D01*
X152289673Y-51131821D01*
X152380582Y-50949250D01*
X152436397Y-50753083D01*
X152455215Y-50550000D01*
X152450870Y-50503114D01*
X152436397Y-50346917D01*
X152419297Y-50286819D01*
X152380582Y-50150750D01*
X152376451Y-50142454D01*
X152312386Y-50013793D01*
X152289673Y-49968179D01*
X152166764Y-49805421D01*
X152166762Y-49805419D01*
X152159551Y-49798845D01*
X152123269Y-49739134D01*
X152125030Y-49669287D01*
X152164273Y-49611479D01*
X152185277Y-49599386D01*
X152184546Y-49598047D01*
X152192326Y-49593797D01*
X152192331Y-49593796D01*
X152307546Y-49507546D01*
X152393796Y-49392331D01*
X152444091Y-49257483D01*
X152450500Y-49197873D01*
X152450499Y-47902128D01*
X152444091Y-47842517D01*
X152393796Y-47707669D01*
X152393795Y-47707668D01*
X152393793Y-47707664D01*
X152307547Y-47592455D01*
X152307544Y-47592452D01*
X152192335Y-47506206D01*
X152192328Y-47506202D01*
X152057482Y-47455908D01*
X152057483Y-47455908D01*
X151997883Y-47449501D01*
X151997881Y-47449500D01*
X151997873Y-47449500D01*
X151997864Y-47449500D01*
X150702129Y-47449500D01*
X150702123Y-47449501D01*
X150642516Y-47455908D01*
X150507671Y-47506202D01*
X150507664Y-47506206D01*
X150392455Y-47592452D01*
X150392452Y-47592455D01*
X150306206Y-47707664D01*
X150306202Y-47707671D01*
X150255908Y-47842517D01*
X150250070Y-47896822D01*
X150249500Y-47902127D01*
X150249500Y-48359954D01*
X150249501Y-48725500D01*
X150229817Y-48792539D01*
X150177013Y-48838294D01*
X150125501Y-48849500D01*
X144644500Y-48849500D01*
X144577461Y-48829815D01*
X144531706Y-48777011D01*
X144520500Y-48725500D01*
X144520499Y-47902129D01*
X144520498Y-47902123D01*
X144520497Y-47902116D01*
X144514091Y-47842517D01*
X144463796Y-47707669D01*
X144463795Y-47707668D01*
X144463793Y-47707664D01*
X144377547Y-47592455D01*
X144377544Y-47592452D01*
X144262335Y-47506206D01*
X144262328Y-47506202D01*
X144127482Y-47455908D01*
X144127483Y-47455908D01*
X144067883Y-47449501D01*
X144067881Y-47449500D01*
X144067873Y-47449500D01*
X144067864Y-47449500D01*
X142772129Y-47449500D01*
X142772123Y-47449501D01*
X142712516Y-47455908D01*
X142577671Y-47506202D01*
X142577664Y-47506206D01*
X142462455Y-47592452D01*
X142462452Y-47592455D01*
X142376206Y-47707664D01*
X142376202Y-47707671D01*
X142325908Y-47842517D01*
X142320070Y-47896822D01*
X142319500Y-47902127D01*
X142319500Y-48359954D01*
X142319501Y-48725500D01*
X142299817Y-48792539D01*
X142247013Y-48838294D01*
X142195501Y-48849500D01*
X140891519Y-48849500D01*
X140824480Y-48829815D01*
X140803838Y-48813181D01*
X139396546Y-47405888D01*
X139396545Y-47405887D01*
X139281807Y-47329222D01*
X139154332Y-47276421D01*
X139154322Y-47276418D01*
X139018996Y-47249500D01*
X139018994Y-47249500D01*
X139018993Y-47249500D01*
X124029637Y-47249500D01*
X124029633Y-47249500D01*
X123921220Y-47271065D01*
X123921219Y-47271065D01*
X123907761Y-47273742D01*
X123894303Y-47276419D01*
X123867898Y-47287356D01*
X123841496Y-47298292D01*
X123841494Y-47298293D01*
X123841493Y-47298292D01*
X123766821Y-47329223D01*
X123701752Y-47372702D01*
X123701751Y-47372703D01*
X123652084Y-47405888D01*
X123652083Y-47405889D01*
X123275888Y-47782083D01*
X123275887Y-47782084D01*
X123199222Y-47896822D01*
X123146421Y-48024297D01*
X123146418Y-48024309D01*
X123124747Y-48133259D01*
X123124747Y-48133263D01*
X123119500Y-48159637D01*
X123119500Y-48198326D01*
X123099815Y-48265365D01*
X123066624Y-48299901D01*
X122980863Y-48359951D01*
X122819951Y-48520862D01*
X122689432Y-48707265D01*
X122689431Y-48707267D01*
X122662382Y-48765275D01*
X122616209Y-48817714D01*
X122549016Y-48836866D01*
X122482135Y-48816650D01*
X122437618Y-48765275D01*
X122423503Y-48735006D01*
X122410568Y-48707266D01*
X122280047Y-48520861D01*
X122280045Y-48520858D01*
X122119141Y-48359954D01*
X121932734Y-48229432D01*
X121932732Y-48229431D01*
X121726497Y-48133261D01*
X121726488Y-48133258D01*
X121506697Y-48074366D01*
X121506693Y-48074365D01*
X121506692Y-48074365D01*
X121506691Y-48074364D01*
X121506686Y-48074364D01*
X121280002Y-48054532D01*
X121279998Y-48054532D01*
X121053313Y-48074364D01*
X121053302Y-48074366D01*
X120833511Y-48133258D01*
X120833502Y-48133261D01*
X120627267Y-48229431D01*
X120627265Y-48229432D01*
X120440858Y-48359954D01*
X120279954Y-48520858D01*
X120149432Y-48707265D01*
X120149431Y-48707267D01*
X120122382Y-48765275D01*
X120076209Y-48817714D01*
X120009016Y-48836866D01*
X119942135Y-48816650D01*
X119897618Y-48765275D01*
X119883503Y-48735006D01*
X119870568Y-48707266D01*
X119740047Y-48520861D01*
X119740045Y-48520858D01*
X119579141Y-48359954D01*
X119392734Y-48229432D01*
X119392732Y-48229431D01*
X119186497Y-48133261D01*
X119186488Y-48133258D01*
X118966697Y-48074366D01*
X118966693Y-48074365D01*
X118966692Y-48074365D01*
X118966691Y-48074364D01*
X118966686Y-48074364D01*
X118740002Y-48054532D01*
X118739998Y-48054532D01*
X118513313Y-48074364D01*
X118513302Y-48074366D01*
X118293511Y-48133258D01*
X118293502Y-48133261D01*
X118087267Y-48229431D01*
X118087265Y-48229432D01*
X117900858Y-48359954D01*
X117739954Y-48520858D01*
X117609432Y-48707265D01*
X117609431Y-48707267D01*
X117513261Y-48913502D01*
X117513258Y-48913511D01*
X117454366Y-49133302D01*
X117454364Y-49133313D01*
X117434532Y-49359998D01*
X117434532Y-49360001D01*
X115962514Y-49360001D01*
X115900002Y-49354532D01*
X115899998Y-49354532D01*
X115673313Y-49374364D01*
X115673302Y-49374366D01*
X115453511Y-49433258D01*
X115453502Y-49433261D01*
X115247267Y-49529431D01*
X115247265Y-49529432D01*
X115060858Y-49659954D01*
X114899954Y-49820858D01*
X114769432Y-50007265D01*
X114769431Y-50007267D01*
X114673261Y-50213502D01*
X114673258Y-50213511D01*
X114614366Y-50433302D01*
X114614364Y-50433313D01*
X114594532Y-50659998D01*
X114594532Y-50660001D01*
X112934653Y-50660001D01*
X112917102Y-50622362D01*
X112917100Y-50622359D01*
X112917099Y-50622357D01*
X112791599Y-50443124D01*
X112734416Y-50385941D01*
X112636877Y-50288402D01*
X112457639Y-50162898D01*
X112457640Y-50162898D01*
X112457638Y-50162897D01*
X112334776Y-50105606D01*
X112259330Y-50070425D01*
X112259326Y-50070424D01*
X112259322Y-50070422D01*
X112047977Y-50013793D01*
X111830002Y-49994723D01*
X111829998Y-49994723D01*
X111702151Y-50005908D01*
X111612023Y-50013793D01*
X111612020Y-50013793D01*
X111400677Y-50070422D01*
X111400668Y-50070426D01*
X111202361Y-50162898D01*
X111202357Y-50162900D01*
X111023121Y-50288402D01*
X110868402Y-50443121D01*
X110742900Y-50622357D01*
X110742898Y-50622361D01*
X110672382Y-50773583D01*
X110626209Y-50826022D01*
X110559016Y-50845174D01*
X110492135Y-50824958D01*
X110447618Y-50773583D01*
X110416335Y-50706497D01*
X110377102Y-50622362D01*
X110377100Y-50622359D01*
X110377099Y-50622357D01*
X110251599Y-50443124D01*
X110194416Y-50385941D01*
X110096877Y-50288402D01*
X109917639Y-50162898D01*
X109917640Y-50162898D01*
X109917638Y-50162897D01*
X109794776Y-50105606D01*
X109719330Y-50070425D01*
X109719326Y-50070424D01*
X109719322Y-50070422D01*
X109507977Y-50013793D01*
X109290002Y-49994723D01*
X109289998Y-49994723D01*
X109162151Y-50005908D01*
X109072023Y-50013793D01*
X109072020Y-50013793D01*
X108860677Y-50070422D01*
X108860668Y-50070426D01*
X108662361Y-50162898D01*
X108662357Y-50162900D01*
X108483121Y-50288402D01*
X108328402Y-50443121D01*
X108226074Y-50589262D01*
X108171497Y-50632887D01*
X108101999Y-50640081D01*
X108039644Y-50608558D01*
X108004230Y-50548328D01*
X108000499Y-50518139D01*
X108000499Y-50452129D01*
X108000498Y-50452123D01*
X108000497Y-50452116D01*
X107994091Y-50392517D01*
X107991638Y-50385941D01*
X107943797Y-50257671D01*
X107943793Y-50257664D01*
X107857547Y-50142455D01*
X107857544Y-50142452D01*
X107742335Y-50056206D01*
X107742328Y-50056202D01*
X107607482Y-50005908D01*
X107607483Y-50005908D01*
X107547883Y-49999501D01*
X107547881Y-49999500D01*
X107547873Y-49999500D01*
X107547864Y-49999500D01*
X105952129Y-49999500D01*
X105952123Y-49999501D01*
X105892516Y-50005908D01*
X105757671Y-50056202D01*
X105757664Y-50056206D01*
X105642455Y-50142452D01*
X105642452Y-50142455D01*
X105556206Y-50257664D01*
X105556202Y-50257671D01*
X105505908Y-50392517D01*
X105500468Y-50443121D01*
X105499501Y-50452123D01*
X105499500Y-50452135D01*
X105499500Y-52047870D01*
X105499501Y-52047876D01*
X105505908Y-52107483D01*
X105556202Y-52242328D01*
X105556206Y-52242335D01*
X105642452Y-52357544D01*
X105642455Y-52357547D01*
X105757664Y-52443793D01*
X105757671Y-52443797D01*
X105892517Y-52494091D01*
X105892516Y-52494091D01*
X105899444Y-52494835D01*
X105952127Y-52500500D01*
X107547872Y-52500499D01*
X107607483Y-52494091D01*
X107742331Y-52443796D01*
X107857546Y-52357546D01*
X107943796Y-52242331D01*
X107994091Y-52107483D01*
X108000500Y-52047873D01*
X108000499Y-51981860D01*
X108020183Y-51914824D01*
X108072986Y-51869068D01*
X108142144Y-51859124D01*
X108205700Y-51888148D01*
X108226073Y-51910738D01*
X108322092Y-52047865D01*
X108328402Y-52056877D01*
X108483123Y-52211598D01*
X108662361Y-52337102D01*
X108860670Y-52429575D01*
X109072023Y-52486207D01*
X109254926Y-52502208D01*
X109289998Y-52505277D01*
X109290000Y-52505277D01*
X109290002Y-52505277D01*
X109318254Y-52502805D01*
X109507977Y-52486207D01*
X109719330Y-52429575D01*
X109917639Y-52337102D01*
X110096877Y-52211598D01*
X110251598Y-52056877D01*
X110377102Y-51877639D01*
X110447618Y-51726414D01*
X110493790Y-51673977D01*
X110560984Y-51654825D01*
X110627865Y-51675041D01*
X110672381Y-51726414D01*
X110742898Y-51877639D01*
X110868402Y-52056877D01*
X110868406Y-52056881D01*
X111023121Y-52211596D01*
X111023127Y-52211601D01*
X111040232Y-52223578D01*
X111072545Y-52246204D01*
X111076623Y-52249059D01*
X111120248Y-52303635D01*
X111129500Y-52350634D01*
X111129500Y-54028481D01*
X111109815Y-54095520D01*
X111093181Y-54116162D01*
X110596162Y-54613181D01*
X110534839Y-54646666D01*
X110508481Y-54649500D01*
X107337105Y-54649500D01*
X107270066Y-54629815D01*
X107238151Y-54600227D01*
X107190979Y-54537761D01*
X107026562Y-54387876D01*
X107026560Y-54387874D01*
X106837404Y-54270754D01*
X106837398Y-54270752D01*
X106629940Y-54190382D01*
X106411243Y-54149500D01*
X106188757Y-54149500D01*
X105970060Y-54190382D01*
X105858251Y-54233697D01*
X105762601Y-54270752D01*
X105762595Y-54270754D01*
X105573439Y-54387874D01*
X105573437Y-54387876D01*
X105409020Y-54537761D01*
X105274943Y-54715308D01*
X105274938Y-54715316D01*
X105175775Y-54914461D01*
X105175769Y-54914476D01*
X105114885Y-55128462D01*
X105114884Y-55128464D01*
X105094357Y-55349999D01*
X105094357Y-55350003D01*
X105098791Y-55397862D01*
X105085375Y-55466431D01*
X105037017Y-55516862D01*
X104969071Y-55533143D01*
X104903109Y-55510106D01*
X104887639Y-55496982D01*
X103096546Y-53705888D01*
X103096545Y-53705887D01*
X102981807Y-53629222D01*
X102854332Y-53576421D01*
X102854322Y-53576418D01*
X102718996Y-53549500D01*
X102718994Y-53549500D01*
X102718993Y-53549500D01*
X94488994Y-53549500D01*
X94351006Y-53549500D01*
X94351004Y-53549500D01*
X94215677Y-53576418D01*
X94215667Y-53576421D01*
X94088192Y-53629222D01*
X93973454Y-53705887D01*
X93736088Y-53943253D01*
X93674765Y-53976738D01*
X93619460Y-53976146D01*
X93443298Y-53933853D01*
X93443299Y-53933853D01*
X93200000Y-53914706D01*
X92956702Y-53933853D01*
X92719380Y-53990830D01*
X92493910Y-54084222D01*
X92285826Y-54211737D01*
X92285823Y-54211738D01*
X92100241Y-54370241D01*
X91941738Y-54555823D01*
X91941737Y-54555826D01*
X91814225Y-54763907D01*
X91814223Y-54763909D01*
X91720830Y-54989380D01*
X91720828Y-54989387D01*
X91720828Y-54989388D01*
X91703158Y-55062989D01*
X91663853Y-55226702D01*
X91644706Y-55470000D01*
X91663853Y-55713297D01*
X91663853Y-55713300D01*
X91663854Y-55713302D01*
X91705462Y-55886610D01*
X91720830Y-55950619D01*
X91814222Y-56176089D01*
X91941737Y-56384173D01*
X91941738Y-56384176D01*
X91984167Y-56433854D01*
X92100241Y-56569759D01*
X92205806Y-56659920D01*
X92285823Y-56728261D01*
X92285825Y-56728261D01*
X92288662Y-56730000D01*
X92493910Y-56855777D01*
X92718194Y-56948678D01*
X92772597Y-56992519D01*
X92794662Y-57058813D01*
X92777383Y-57126512D01*
X92758423Y-57150920D01*
X92655885Y-57253458D01*
X92587447Y-57355884D01*
X92587446Y-57355885D01*
X92579227Y-57368184D01*
X92579222Y-57368193D01*
X92526421Y-57495667D01*
X92526418Y-57495677D01*
X92499500Y-57631004D01*
X92499500Y-61516354D01*
X92479815Y-61583393D01*
X92440290Y-61622081D01*
X92285826Y-61716737D01*
X92285823Y-61716738D01*
X92100241Y-61875241D01*
X91941738Y-62060823D01*
X91941737Y-62060826D01*
X91814222Y-62268910D01*
X91720830Y-62494380D01*
X91720828Y-62494387D01*
X91720828Y-62494388D01*
X91704312Y-62563181D01*
X91663853Y-62731702D01*
X91644706Y-62975000D01*
X91663853Y-63218297D01*
X91663853Y-63218300D01*
X91663854Y-63218302D01*
X91717015Y-63439731D01*
X91720830Y-63455619D01*
X91814222Y-63681089D01*
X91941737Y-63889173D01*
X91941738Y-63889176D01*
X91976447Y-63929815D01*
X92100241Y-64074759D01*
X92176725Y-64140082D01*
X92285823Y-64233261D01*
X92285826Y-64233262D01*
X92493910Y-64360777D01*
X92603070Y-64405992D01*
X92695098Y-64444111D01*
X92719381Y-64454169D01*
X92719378Y-64454169D01*
X92719384Y-64454170D01*
X92719388Y-64454172D01*
X92956698Y-64511146D01*
X93200000Y-64530294D01*
X93443302Y-64511146D01*
X93680612Y-64454172D01*
X93906089Y-64360777D01*
X94114179Y-64233259D01*
X94299759Y-64074759D01*
X94458259Y-63889179D01*
X94559773Y-63723524D01*
X94611584Y-63676649D01*
X94680514Y-63665226D01*
X94744677Y-63692883D01*
X94783702Y-63750839D01*
X94789500Y-63788314D01*
X94789500Y-66652893D01*
X94769815Y-66719932D01*
X94746032Y-66747183D01*
X94590241Y-66880241D01*
X94431738Y-67065823D01*
X94431737Y-67065826D01*
X94304222Y-67273910D01*
X94210830Y-67499380D01*
X94210828Y-67499387D01*
X94210828Y-67499388D01*
X94207046Y-67515141D01*
X94153853Y-67736702D01*
X94134706Y-67980000D01*
X94153853Y-68223297D01*
X94153853Y-68223300D01*
X94153854Y-68223302D01*
X94209688Y-68455865D01*
X94210830Y-68460619D01*
X94304221Y-68686087D01*
X94337695Y-68740711D01*
X94355939Y-68808156D01*
X94334822Y-68874759D01*
X94281050Y-68919372D01*
X94231967Y-68929500D01*
X92102129Y-68929500D01*
X92102123Y-68929501D01*
X92042516Y-68935908D01*
X91907671Y-68986202D01*
X91907664Y-68986206D01*
X91792455Y-69072452D01*
X91792452Y-69072455D01*
X91706206Y-69187664D01*
X91706202Y-69187671D01*
X91655908Y-69322517D01*
X91649501Y-69382116D01*
X91649500Y-69382135D01*
X91649500Y-71577870D01*
X91649501Y-71577876D01*
X91655908Y-71637483D01*
X91706202Y-71772328D01*
X91706206Y-71772335D01*
X91792452Y-71887544D01*
X91792455Y-71887547D01*
X91907664Y-71973793D01*
X91907671Y-71973797D01*
X92042517Y-72024091D01*
X92042516Y-72024091D01*
X92045028Y-72024361D01*
X92102127Y-72030500D01*
X93376638Y-72030499D01*
X93443677Y-72050184D01*
X93489432Y-72102987D01*
X93499376Y-72172146D01*
X93470351Y-72235702D01*
X93464319Y-72242180D01*
X91643319Y-74063181D01*
X91581996Y-74096666D01*
X91555638Y-74099500D01*
X90661306Y-74099500D01*
X90580603Y-74115553D01*
X90540251Y-74123580D01*
X90502393Y-74131110D01*
X90487332Y-74134106D01*
X90323459Y-74201983D01*
X90323446Y-74201990D01*
X90175966Y-74300534D01*
X90175964Y-74300537D01*
X89580537Y-74895962D01*
X89580533Y-74895966D01*
X89575097Y-74904104D01*
X89575096Y-74904106D01*
X89481990Y-75043446D01*
X89481982Y-75043461D01*
X89469766Y-75072954D01*
X89425925Y-75127357D01*
X89359630Y-75149421D01*
X89355208Y-75149500D01*
X89279630Y-75149500D01*
X89279623Y-75149501D01*
X89220016Y-75155908D01*
X89085171Y-75206202D01*
X89085164Y-75206206D01*
X88969955Y-75292452D01*
X88969952Y-75292455D01*
X88883706Y-75407664D01*
X88883702Y-75407671D01*
X88833408Y-75542517D01*
X88827001Y-75602116D01*
X88827000Y-75602135D01*
X88827000Y-77697870D01*
X80700000Y-77697870D01*
X80700000Y-76112351D01*
X82729500Y-76112351D01*
X82761522Y-76314534D01*
X82824781Y-76509223D01*
X82917715Y-76691613D01*
X83038028Y-76857213D01*
X83182786Y-77001971D01*
X83337749Y-77114556D01*
X83348390Y-77122287D01*
X83427348Y-77162518D01*
X83530776Y-77215218D01*
X83530778Y-77215218D01*
X83530781Y-77215220D01*
X83635137Y-77249127D01*
X83725465Y-77278477D01*
X83826557Y-77294488D01*
X83927648Y-77310500D01*
X83927649Y-77310500D01*
X84132351Y-77310500D01*
X84132352Y-77310500D01*
X84334534Y-77278477D01*
X84529219Y-77215220D01*
X84711610Y-77122287D01*
X84828134Y-77037628D01*
X84877213Y-77001971D01*
X84877215Y-77001968D01*
X84877219Y-77001966D01*
X85021966Y-76857219D01*
X85021968Y-76857215D01*
X85021971Y-76857213D01*
X85119910Y-76722409D01*
X85142287Y-76691610D01*
X85235220Y-76509219D01*
X85298477Y-76314534D01*
X85330500Y-76112352D01*
X85330500Y-75907648D01*
X85329144Y-75899088D01*
X85298477Y-75705465D01*
X85264900Y-75602127D01*
X85235220Y-75510781D01*
X85235218Y-75510778D01*
X85235218Y-75510776D01*
X85192125Y-75426202D01*
X85142287Y-75328390D01*
X85116177Y-75292452D01*
X85021971Y-75162786D01*
X84877213Y-75018028D01*
X84711613Y-74897715D01*
X84711612Y-74897714D01*
X84711610Y-74897713D01*
X84652247Y-74867466D01*
X84529223Y-74804781D01*
X84334534Y-74741522D01*
X84159995Y-74713878D01*
X84132352Y-74709500D01*
X83927648Y-74709500D01*
X83903329Y-74713351D01*
X83725465Y-74741522D01*
X83530776Y-74804781D01*
X83348386Y-74897715D01*
X83182786Y-75018028D01*
X83038028Y-75162786D01*
X82917715Y-75328386D01*
X82824781Y-75510776D01*
X82761522Y-75705465D01*
X82729500Y-75907648D01*
X82729500Y-76112351D01*
X80700000Y-76112351D01*
X80700000Y-70593768D01*
X86744500Y-70593768D01*
X86780093Y-70818490D01*
X86850400Y-71034876D01*
X86850401Y-71034879D01*
X86936737Y-71204321D01*
X86953697Y-71237607D01*
X87087434Y-71421680D01*
X87248320Y-71582566D01*
X87432393Y-71716303D01*
X87531825Y-71766966D01*
X87635120Y-71819598D01*
X87635123Y-71819599D01*
X87743316Y-71854752D01*
X87851511Y-71889907D01*
X87955591Y-71906391D01*
X88076232Y-71925500D01*
X88076237Y-71925500D01*
X88303768Y-71925500D01*
X88412710Y-71908244D01*
X88528489Y-71889907D01*
X88744879Y-71819598D01*
X88947607Y-71716303D01*
X89131680Y-71582566D01*
X89292566Y-71421680D01*
X89426303Y-71237607D01*
X89529598Y-71034879D01*
X89599907Y-70818489D01*
X89625250Y-70658481D01*
X89635500Y-70593768D01*
X89635500Y-70366231D01*
X89606093Y-70180568D01*
X89599907Y-70141511D01*
X89547148Y-69979134D01*
X89529599Y-69925123D01*
X89529598Y-69925120D01*
X89464876Y-69798097D01*
X89426303Y-69722393D01*
X89292566Y-69538320D01*
X89131680Y-69377434D01*
X88947607Y-69243697D01*
X88886998Y-69212815D01*
X88744879Y-69140401D01*
X88744876Y-69140400D01*
X88528490Y-69070093D01*
X88303768Y-69034500D01*
X88303763Y-69034500D01*
X88076237Y-69034500D01*
X88076232Y-69034500D01*
X87851509Y-69070093D01*
X87635123Y-69140400D01*
X87635120Y-69140401D01*
X87432392Y-69243697D01*
X87386979Y-69276692D01*
X87248320Y-69377434D01*
X87248318Y-69377436D01*
X87248317Y-69377436D01*
X87087436Y-69538317D01*
X87087436Y-69538318D01*
X87087434Y-69538320D01*
X87029998Y-69617372D01*
X86953697Y-69722392D01*
X86850401Y-69925120D01*
X86850400Y-69925123D01*
X86780093Y-70141509D01*
X86744500Y-70366231D01*
X86744500Y-70593768D01*
X80700000Y-70593768D01*
X80700000Y-67980000D01*
X81637906Y-67980000D01*
X81657053Y-68223297D01*
X81657053Y-68223300D01*
X81657054Y-68223302D01*
X81712888Y-68455865D01*
X81714030Y-68460619D01*
X81807422Y-68686089D01*
X81934937Y-68894173D01*
X81934938Y-68894176D01*
X81956458Y-68919372D01*
X82093441Y-69079759D01*
X82171173Y-69146148D01*
X82279023Y-69238261D01*
X82279026Y-69238262D01*
X82487110Y-69365777D01*
X82624635Y-69422741D01*
X82701120Y-69454422D01*
X82712581Y-69459169D01*
X82712578Y-69459169D01*
X82712584Y-69459170D01*
X82712588Y-69459172D01*
X82949898Y-69516146D01*
X83193200Y-69535294D01*
X83436502Y-69516146D01*
X83673812Y-69459172D01*
X83899289Y-69365777D01*
X84107379Y-69238259D01*
X84292959Y-69079759D01*
X84451459Y-68894179D01*
X84578977Y-68686089D01*
X84672372Y-68460612D01*
X84729346Y-68223302D01*
X84748494Y-67980000D01*
X84729346Y-67736698D01*
X84672372Y-67499388D01*
X84654707Y-67456741D01*
X84578977Y-67273910D01*
X84460191Y-67080070D01*
X84451461Y-67065825D01*
X84451461Y-67065823D01*
X84292959Y-66880241D01*
X84279762Y-66868970D01*
X84224519Y-66821788D01*
X84186328Y-66763284D01*
X84185828Y-66693416D01*
X84223182Y-66634370D01*
X84224431Y-66633286D01*
X84292959Y-66574759D01*
X84451459Y-66389179D01*
X84578977Y-66181089D01*
X84672372Y-65955612D01*
X84729346Y-65718302D01*
X84748494Y-65475000D01*
X84729346Y-65231698D01*
X84672372Y-64994388D01*
X84664438Y-64975233D01*
X84578977Y-64768910D01*
X84459278Y-64573580D01*
X84451461Y-64560825D01*
X84451461Y-64560823D01*
X84360372Y-64454172D01*
X84292959Y-64375241D01*
X84197708Y-64293889D01*
X84159516Y-64235383D01*
X84159018Y-64165515D01*
X84196371Y-64106469D01*
X84197709Y-64105310D01*
X84222485Y-64084149D01*
X84292959Y-64023959D01*
X84451459Y-63838379D01*
X84578977Y-63630289D01*
X84672372Y-63404812D01*
X84729346Y-63167502D01*
X84748494Y-62924200D01*
X84729346Y-62680898D01*
X84672372Y-62443588D01*
X84672369Y-62443580D01*
X84578977Y-62218110D01*
X84452815Y-62012234D01*
X84451461Y-62010025D01*
X84451461Y-62010023D01*
X84389793Y-61937819D01*
X84292959Y-61824441D01*
X84257186Y-61793888D01*
X84218995Y-61735385D01*
X84218495Y-61665517D01*
X84255848Y-61606470D01*
X84257097Y-61605387D01*
X84292959Y-61574759D01*
X84451459Y-61389179D01*
X84578977Y-61181089D01*
X84672372Y-60955612D01*
X84729346Y-60718302D01*
X84748494Y-60475000D01*
X84729346Y-60231698D01*
X84672372Y-59994388D01*
X84650708Y-59942086D01*
X84578977Y-59768910D01*
X84451462Y-59560826D01*
X84451461Y-59560823D01*
X84292959Y-59375241D01*
X84263405Y-59350000D01*
X84224519Y-59316788D01*
X84186328Y-59258284D01*
X84185828Y-59188416D01*
X84223182Y-59129370D01*
X84224431Y-59128286D01*
X84292959Y-59069759D01*
X84451459Y-58884179D01*
X84578977Y-58676089D01*
X84672372Y-58450612D01*
X84729346Y-58213302D01*
X84748494Y-57970000D01*
X84729346Y-57726698D01*
X84672372Y-57489388D01*
X84671527Y-57487348D01*
X84578977Y-57263910D01*
X84460623Y-57070775D01*
X84451461Y-57055825D01*
X84451461Y-57055823D01*
X84415653Y-57013897D01*
X84292959Y-56870241D01*
X84156041Y-56753302D01*
X84107376Y-56711738D01*
X84107373Y-56711737D01*
X83899289Y-56584222D01*
X83673818Y-56490830D01*
X83673821Y-56490830D01*
X83532352Y-56456866D01*
X83436502Y-56433854D01*
X83436500Y-56433853D01*
X83436497Y-56433853D01*
X83193200Y-56414706D01*
X82949902Y-56433853D01*
X82712580Y-56490830D01*
X82487110Y-56584222D01*
X82279026Y-56711737D01*
X82279023Y-56711738D01*
X82093441Y-56870241D01*
X81934938Y-57055823D01*
X81934937Y-57055826D01*
X81807422Y-57263910D01*
X81714030Y-57489380D01*
X81714028Y-57489387D01*
X81714028Y-57489388D01*
X81693682Y-57574133D01*
X81657053Y-57726702D01*
X81637906Y-57970000D01*
X81657053Y-58213297D01*
X81657053Y-58213300D01*
X81657054Y-58213302D01*
X81713857Y-58449901D01*
X81714030Y-58450619D01*
X81807422Y-58676089D01*
X81934937Y-58884173D01*
X81934938Y-58884176D01*
X82093443Y-59069761D01*
X82161878Y-59128210D01*
X82200072Y-59186716D01*
X82200571Y-59256584D01*
X82163217Y-59315631D01*
X82161878Y-59316790D01*
X82093443Y-59375238D01*
X81934938Y-59560823D01*
X81934937Y-59560826D01*
X81807422Y-59768910D01*
X81714030Y-59994380D01*
X81657053Y-60231702D01*
X81637906Y-60475000D01*
X81657053Y-60718297D01*
X81657053Y-60718300D01*
X81657054Y-60718302D01*
X81696116Y-60881006D01*
X81714030Y-60955619D01*
X81807422Y-61181089D01*
X81934937Y-61389173D01*
X81934938Y-61389176D01*
X81962576Y-61421536D01*
X82093441Y-61574759D01*
X82129212Y-61605310D01*
X82167405Y-61663817D01*
X82167903Y-61733685D01*
X82130550Y-61792731D01*
X82129238Y-61793866D01*
X82093441Y-61824441D01*
X81934938Y-62010023D01*
X81934937Y-62010026D01*
X81807422Y-62218110D01*
X81714030Y-62443580D01*
X81714028Y-62443587D01*
X81714028Y-62443588D01*
X81686103Y-62559901D01*
X81657053Y-62680902D01*
X81637906Y-62924200D01*
X81657053Y-63167497D01*
X81657053Y-63167500D01*
X81657054Y-63167502D01*
X81711459Y-63394113D01*
X81714030Y-63404819D01*
X81807422Y-63630289D01*
X81934937Y-63838373D01*
X81934938Y-63838376D01*
X81934941Y-63838379D01*
X82093441Y-64023959D01*
X82163915Y-64084149D01*
X82188691Y-64105310D01*
X82226884Y-64163817D01*
X82227382Y-64233685D01*
X82190029Y-64292731D01*
X82188691Y-64293890D01*
X82093441Y-64375241D01*
X81934938Y-64560823D01*
X81934937Y-64560826D01*
X81807422Y-64768910D01*
X81714030Y-64994380D01*
X81714028Y-64994387D01*
X81714028Y-64994388D01*
X81689503Y-65096541D01*
X81657053Y-65231702D01*
X81637906Y-65475000D01*
X81657053Y-65718297D01*
X81657053Y-65718300D01*
X81657054Y-65718302D01*
X81691035Y-65859842D01*
X81714030Y-65955619D01*
X81807422Y-66181089D01*
X81934937Y-66389173D01*
X81934938Y-66389176D01*
X82093443Y-66574761D01*
X82161878Y-66633210D01*
X82200072Y-66691716D01*
X82200571Y-66761584D01*
X82163217Y-66820631D01*
X82161878Y-66821790D01*
X82093443Y-66880238D01*
X81934938Y-67065823D01*
X81934937Y-67065826D01*
X81807422Y-67273910D01*
X81714030Y-67499380D01*
X81714028Y-67499387D01*
X81714028Y-67499388D01*
X81710246Y-67515141D01*
X81657053Y-67736702D01*
X81637906Y-67980000D01*
X80700000Y-67980000D01*
X80700000Y-55583768D01*
X86744500Y-55583768D01*
X86780093Y-55808490D01*
X86850400Y-56024876D01*
X86850401Y-56024879D01*
X86927447Y-56176089D01*
X86953697Y-56227607D01*
X87087434Y-56411680D01*
X87248320Y-56572566D01*
X87432393Y-56706303D01*
X87487525Y-56734394D01*
X87635120Y-56809598D01*
X87635123Y-56809599D01*
X87743316Y-56844752D01*
X87851511Y-56879907D01*
X87955591Y-56896391D01*
X88076232Y-56915500D01*
X88076237Y-56915500D01*
X88303768Y-56915500D01*
X88412710Y-56898244D01*
X88528489Y-56879907D01*
X88744879Y-56809598D01*
X88947607Y-56706303D01*
X89131680Y-56572566D01*
X89292566Y-56411680D01*
X89426303Y-56227607D01*
X89529598Y-56024879D01*
X89599907Y-55808489D01*
X89623425Y-55660002D01*
X89635500Y-55583768D01*
X89635500Y-55356231D01*
X89614793Y-55225499D01*
X89599907Y-55131511D01*
X89559618Y-55007513D01*
X89529599Y-54915123D01*
X89529598Y-54915120D01*
X89452557Y-54763919D01*
X89426303Y-54712393D01*
X89292566Y-54528320D01*
X89131680Y-54367434D01*
X88947607Y-54233697D01*
X88904508Y-54211737D01*
X88744879Y-54130401D01*
X88744876Y-54130400D01*
X88528490Y-54060093D01*
X88303768Y-54024500D01*
X88303763Y-54024500D01*
X88076237Y-54024500D01*
X88076232Y-54024500D01*
X87851509Y-54060093D01*
X87635123Y-54130400D01*
X87635120Y-54130401D01*
X87432392Y-54233697D01*
X87381388Y-54270754D01*
X87248320Y-54367434D01*
X87248318Y-54367436D01*
X87248317Y-54367436D01*
X87087436Y-54528317D01*
X87087436Y-54528318D01*
X87087434Y-54528320D01*
X87029998Y-54607372D01*
X86953697Y-54712392D01*
X86850401Y-54915120D01*
X86850400Y-54915123D01*
X86780093Y-55131509D01*
X86744500Y-55356231D01*
X86744500Y-55583768D01*
X80700000Y-55583768D01*
X80700000Y-49912351D01*
X82729500Y-49912351D01*
X82761522Y-50114534D01*
X82824781Y-50309223D01*
X82867802Y-50393655D01*
X82917182Y-50490568D01*
X82917715Y-50491613D01*
X83038028Y-50657213D01*
X83182786Y-50801971D01*
X83304677Y-50890528D01*
X83348390Y-50922287D01*
X83439084Y-50968498D01*
X83530776Y-51015218D01*
X83530778Y-51015218D01*
X83530781Y-51015220D01*
X83635137Y-51049127D01*
X83725465Y-51078477D01*
X83819773Y-51093414D01*
X83927648Y-51110500D01*
X83927649Y-51110500D01*
X84132351Y-51110500D01*
X84132352Y-51110500D01*
X84334534Y-51078477D01*
X84529219Y-51015220D01*
X84711610Y-50922287D01*
X84841601Y-50827844D01*
X84877213Y-50801971D01*
X84877215Y-50801968D01*
X84877219Y-50801966D01*
X85021966Y-50657219D01*
X85021968Y-50657215D01*
X85021971Y-50657213D01*
X85078010Y-50580080D01*
X85142287Y-50491610D01*
X85235220Y-50309219D01*
X85298477Y-50114534D01*
X85327705Y-49930000D01*
X89104341Y-49930000D01*
X89124936Y-50165403D01*
X89124938Y-50165413D01*
X89186094Y-50393655D01*
X89186096Y-50393659D01*
X89186097Y-50393663D01*
X89245789Y-50521672D01*
X89285965Y-50607830D01*
X89285967Y-50607834D01*
X89357395Y-50709843D01*
X89421505Y-50801401D01*
X89588599Y-50968495D01*
X89655329Y-51015220D01*
X89782165Y-51104032D01*
X89782167Y-51104033D01*
X89782170Y-51104035D01*
X89996337Y-51203903D01*
X89996343Y-51203904D01*
X89996344Y-51203905D01*
X89997923Y-51204328D01*
X90224592Y-51265063D01*
X90395319Y-51280000D01*
X90459999Y-51285659D01*
X90460000Y-51285659D01*
X90460001Y-51285659D01*
X90524681Y-51280000D01*
X90695408Y-51265063D01*
X90923663Y-51203903D01*
X91137830Y-51104035D01*
X91331401Y-50968495D01*
X91453717Y-50846178D01*
X91515036Y-50812696D01*
X91584728Y-50817680D01*
X91640662Y-50859551D01*
X91657577Y-50890528D01*
X91706646Y-51022088D01*
X91706649Y-51022093D01*
X91792809Y-51137187D01*
X91792812Y-51137190D01*
X91907906Y-51223350D01*
X91907913Y-51223354D01*
X92042620Y-51273596D01*
X92042627Y-51273598D01*
X92102155Y-51279999D01*
X92102172Y-51280000D01*
X92750000Y-51280000D01*
X92750000Y-50363012D01*
X92807007Y-50395925D01*
X92934174Y-50430000D01*
X93065826Y-50430000D01*
X93192993Y-50395925D01*
X93250000Y-50363012D01*
X93250000Y-51280000D01*
X93897828Y-51280000D01*
X93897844Y-51279999D01*
X93957372Y-51273598D01*
X93957379Y-51273596D01*
X94092086Y-51223354D01*
X94092093Y-51223350D01*
X94207187Y-51137190D01*
X94207190Y-51137187D01*
X94229156Y-51107844D01*
X98070000Y-51107844D01*
X98076401Y-51167372D01*
X98076403Y-51167379D01*
X98126645Y-51302086D01*
X98126649Y-51302093D01*
X98212809Y-51417187D01*
X98212812Y-51417190D01*
X98327906Y-51503350D01*
X98327913Y-51503354D01*
X98462620Y-51553596D01*
X98462627Y-51553598D01*
X98522155Y-51559999D01*
X98522172Y-51560000D01*
X99120000Y-51560000D01*
X99120000Y-50575686D01*
X99124394Y-50580080D01*
X99215606Y-50632741D01*
X99317339Y-50660000D01*
X99422661Y-50660000D01*
X99524394Y-50632741D01*
X99615606Y-50580080D01*
X99620000Y-50575686D01*
X99620000Y-51560000D01*
X100217828Y-51560000D01*
X100217844Y-51559999D01*
X100277372Y-51553598D01*
X100277379Y-51553596D01*
X100412086Y-51503354D01*
X100412088Y-51503352D01*
X100527186Y-51417190D01*
X100527188Y-51417188D01*
X100533642Y-51408568D01*
X100589575Y-51366696D01*
X100659266Y-51361710D01*
X100704029Y-51381300D01*
X100717266Y-51390568D01*
X100923504Y-51486739D01*
X101143308Y-51545635D01*
X101305230Y-51559801D01*
X101369998Y-51565468D01*
X101370000Y-51565468D01*
X101370002Y-51565468D01*
X101432511Y-51559999D01*
X101596692Y-51545635D01*
X101816496Y-51486739D01*
X102022734Y-51390568D01*
X102209139Y-51260047D01*
X102370047Y-51099139D01*
X102500568Y-50912734D01*
X102596739Y-50706496D01*
X102655635Y-50486692D01*
X102674810Y-50267517D01*
X102675468Y-50260001D01*
X102675468Y-50259998D01*
X102666973Y-50162898D01*
X102655635Y-50033308D01*
X102598710Y-49820861D01*
X102596741Y-49813511D01*
X102596738Y-49813502D01*
X102500568Y-49607266D01*
X102401888Y-49466335D01*
X102370045Y-49420858D01*
X102209141Y-49259954D01*
X102022734Y-49129432D01*
X102022732Y-49129431D01*
X101816497Y-49033261D01*
X101816488Y-49033258D01*
X101596697Y-48974366D01*
X101596693Y-48974365D01*
X101596692Y-48974365D01*
X101596691Y-48974364D01*
X101596686Y-48974364D01*
X101370002Y-48954532D01*
X101369998Y-48954532D01*
X101143313Y-48974364D01*
X101143302Y-48974366D01*
X100923511Y-49033258D01*
X100923502Y-49033261D01*
X100717261Y-49129434D01*
X100717260Y-49129434D01*
X100704029Y-49138699D01*
X100637822Y-49161025D01*
X100570055Y-49144012D01*
X100533640Y-49111430D01*
X100527186Y-49102808D01*
X100412093Y-49016649D01*
X100412086Y-49016645D01*
X100277379Y-48966403D01*
X100277372Y-48966401D01*
X100217844Y-48960000D01*
X99620000Y-48960000D01*
X99620000Y-49944314D01*
X99615606Y-49939920D01*
X99524394Y-49887259D01*
X99422661Y-49860000D01*
X99317339Y-49860000D01*
X99215606Y-49887259D01*
X99124394Y-49939920D01*
X99120000Y-49944314D01*
X99120000Y-48960000D01*
X98522155Y-48960000D01*
X98462627Y-48966401D01*
X98462620Y-48966403D01*
X98327913Y-49016645D01*
X98327906Y-49016649D01*
X98212812Y-49102809D01*
X98212809Y-49102812D01*
X98126649Y-49217906D01*
X98126645Y-49217913D01*
X98076403Y-49352620D01*
X98076401Y-49352627D01*
X98070000Y-49412155D01*
X98070000Y-50010000D01*
X99054314Y-50010000D01*
X99049920Y-50014394D01*
X98997259Y-50105606D01*
X98970000Y-50207339D01*
X98970000Y-50312661D01*
X98997259Y-50414394D01*
X99049920Y-50505606D01*
X99054314Y-50510000D01*
X98070000Y-50510000D01*
X98070000Y-51107844D01*
X94229156Y-51107844D01*
X94293350Y-51022093D01*
X94293354Y-51022086D01*
X94343596Y-50887379D01*
X94343598Y-50887372D01*
X94349999Y-50827844D01*
X94350000Y-50827827D01*
X94350000Y-50180000D01*
X93433012Y-50180000D01*
X93465925Y-50122993D01*
X93500000Y-49995826D01*
X93500000Y-49864174D01*
X93465925Y-49737007D01*
X93433012Y-49680000D01*
X94350000Y-49680000D01*
X94350000Y-49032172D01*
X94349999Y-49032155D01*
X94343598Y-48972627D01*
X94343596Y-48972620D01*
X94293354Y-48837913D01*
X94293350Y-48837906D01*
X94207190Y-48722812D01*
X94207187Y-48722809D01*
X94092093Y-48636649D01*
X94092086Y-48636645D01*
X93957379Y-48586403D01*
X93957372Y-48586401D01*
X93897844Y-48580000D01*
X93250000Y-48580000D01*
X93250000Y-49496988D01*
X93192993Y-49464075D01*
X93065826Y-49430000D01*
X92934174Y-49430000D01*
X92807007Y-49464075D01*
X92750000Y-49496988D01*
X92750000Y-48580000D01*
X92102155Y-48580000D01*
X92042627Y-48586401D01*
X92042620Y-48586403D01*
X91907913Y-48636645D01*
X91907906Y-48636649D01*
X91792812Y-48722809D01*
X91792809Y-48722812D01*
X91706649Y-48837906D01*
X91706645Y-48837913D01*
X91657578Y-48969470D01*
X91615707Y-49025404D01*
X91550242Y-49049821D01*
X91481969Y-49034969D01*
X91453715Y-49013819D01*
X91394428Y-48954532D01*
X91331401Y-48891505D01*
X91331397Y-48891502D01*
X91331396Y-48891501D01*
X91137834Y-48755967D01*
X91137830Y-48755965D01*
X91092883Y-48735006D01*
X90923663Y-48656097D01*
X90923659Y-48656096D01*
X90923655Y-48656094D01*
X90695413Y-48594938D01*
X90695403Y-48594936D01*
X90460001Y-48574341D01*
X90459999Y-48574341D01*
X90224596Y-48594936D01*
X90224586Y-48594938D01*
X89996344Y-48656094D01*
X89996335Y-48656098D01*
X89782171Y-48755964D01*
X89782169Y-48755965D01*
X89588597Y-48891505D01*
X89421505Y-49058597D01*
X89285965Y-49252169D01*
X89285964Y-49252171D01*
X89186098Y-49466335D01*
X89186094Y-49466344D01*
X89124938Y-49694586D01*
X89124936Y-49694596D01*
X89104341Y-49929999D01*
X89104341Y-49930000D01*
X85327705Y-49930000D01*
X85330500Y-49912352D01*
X85330500Y-49707648D01*
X85313353Y-49599386D01*
X85298477Y-49505465D01*
X85265459Y-49403848D01*
X85235220Y-49310781D01*
X85235218Y-49310778D01*
X85235218Y-49310776D01*
X85194573Y-49231007D01*
X85142287Y-49128390D01*
X85123704Y-49102812D01*
X85021971Y-48962786D01*
X84877213Y-48818028D01*
X84711613Y-48697715D01*
X84711612Y-48697714D01*
X84711610Y-48697713D01*
X84654653Y-48668691D01*
X84529223Y-48604781D01*
X84334534Y-48541522D01*
X84159995Y-48513878D01*
X84132352Y-48509500D01*
X83927648Y-48509500D01*
X83903329Y-48513351D01*
X83725465Y-48541522D01*
X83530776Y-48604781D01*
X83348386Y-48697715D01*
X83182786Y-48818028D01*
X83038028Y-48962786D01*
X82917715Y-49128386D01*
X82824781Y-49310776D01*
X82761522Y-49505465D01*
X82729500Y-49707648D01*
X82729500Y-49912351D01*
X80700000Y-49912351D01*
X80700000Y-46874000D01*
X80719685Y-46806961D01*
X80772489Y-46761206D01*
X80824000Y-46750000D01*
X170549748Y-46750000D01*
X171166138Y-46750679D01*
G37*
%TD.AperFunction*%
%TD*%
M02*
