M48
; DRILL file {KiCad 8.0.1} date 2024-05-13T00:47:22+0100
; FORMAT={-:-/ absolute / inch / decimal}
; #@! TF.CreationDate,2024-05-13T00:47:22+01:00
; #@! TF.GenerationSoftware,Kicad,Pcbnew,8.0.1
; #@! TF.FileFunction,Plated,1,2,PTH
FMAT,2
INCH
; #@! TA.AperFunction,Plated,PTH,ViaDrill
T1C0.0157
; #@! TA.AperFunction,Plated,PTH,ComponentDrill
T2C0.0236
; #@! TA.AperFunction,Plated,PTH,ComponentDrill
T3C0.0276
; #@! TA.AperFunction,Plated,PTH,ComponentDrill
T4C0.0315
; #@! TA.AperFunction,Plated,PTH,ComponentDrill
T5C0.0354
; #@! TA.AperFunction,Plated,PTH,ComponentDrill
T6C0.0394
; #@! TA.AperFunction,Plated,PTH,ComponentDrill
T7C0.0433
; #@! TA.AperFunction,Plated,PTH,ComponentDrill
T8C0.0551
%
G90
G05
T1
X5.248Y-2.9528
T2
X5.6465Y-1.9114
X5.6465Y-1.9902
X5.6465Y-2.098
X5.6465Y-2.1768
X5.9587Y-1.9114
X5.9587Y-1.9902
X5.9587Y-2.098
X5.9587Y-2.1768
T3
X3.885Y-2.1791
X4.1768Y-2.2657
X4.185Y-2.1791
X4.4768Y-2.2657
X4.5417Y-2.5453
X4.5417Y-2.6299
X4.5421Y-2.376
X4.5421Y-2.4606
X4.8417Y-2.5453
X4.8417Y-2.6299
X4.8421Y-2.376
X4.8421Y-2.4606
X6.0768Y-2.4094
X6.0768Y-2.7094
X6.1614Y-2.4094
X6.1614Y-2.7094
T4
X3.9122Y-1.9787
X3.9567Y-2.9291
X3.9909Y-1.9787
X4.0354Y-2.9291
X4.2028Y-2.0177
X4.3028Y-2.0177
X4.4028Y-2.0177
X4.5425Y-2.7185
X4.5425Y-3.0185
X4.563Y-1.9945
X4.563Y-2.1913
X4.6425Y-2.7185
X4.6425Y-3.0185
X4.6748Y-1.9433
X4.6748Y-2.2433
X4.7425Y-2.7185
X4.7425Y-3.0185
X4.7748Y-1.9433
X4.7748Y-2.2433
X4.8425Y-2.7185
X4.8425Y-3.0185
X4.8748Y-1.9433
X4.8748Y-2.2433
X4.9425Y-2.7185
X4.9425Y-3.0185
X4.9543Y-2.4035
X4.9748Y-1.9433
X4.9748Y-2.2433
X5.0425Y-2.7185
X5.0425Y-3.0185
X5.0748Y-1.9433
X5.0748Y-2.2433
X5.1425Y-2.7185
X5.1425Y-3.0185
X5.1433Y-2.563
X5.1512Y-2.4035
X5.1748Y-1.9433
X5.1748Y-2.2433
X5.2358Y-2.4035
X5.2425Y-2.7185
X5.2425Y-3.0185
X5.2748Y-1.9433
X5.2748Y-2.2433
X5.3354Y-2.563
X5.3425Y-2.7185
X5.3425Y-3.0185
X5.3748Y-1.9433
X5.3748Y-2.2433
X5.4327Y-2.4035
X5.4425Y-2.7185
X5.4425Y-3.0185
X5.5425Y-2.7185
X5.5425Y-3.0185
X5.6425Y-2.7185
X5.6425Y-3.0185
X5.7425Y-2.7185
X5.7425Y-3.0185
X5.8425Y-2.7185
X5.8425Y-3.0185
X5.9587Y-2.7862
X5.9587Y-2.9831
X6.2953Y-2.3398
X6.2953Y-2.6075
X6.4055Y-2.3398
X6.4055Y-2.4224
X6.4055Y-2.5248
X6.4055Y-2.6075
T5
X6.3268Y-1.9187
X6.3268Y-2.0187
T6
X3.5614Y-1.9657
X3.6614Y-1.9657
X3.9606Y-2.5531
X4.2165Y-2.5531
X5.5465Y-2.3169
X5.5992Y-2.4787
X5.5992Y-2.5787
X5.6465Y-2.3169
X5.6992Y-2.4787
X5.6992Y-2.5787
X5.7465Y-2.3169
X5.7992Y-2.4787
X5.7992Y-2.5787
X5.8465Y-2.3169
T7
X3.5543Y-3.0177
X3.6543Y-3.0177
X3.7543Y-3.0177
T8
X3.2753Y-2.2823
X3.2753Y-2.3809
X3.2753Y-2.4773
X3.2753Y-2.5778
X3.2753Y-2.6764
X3.6693Y-2.1839
X3.6693Y-2.4793
X3.6693Y-2.7748
X3.7673Y-2.2823
X3.7673Y-2.6764
T6
G00X6.4882Y-2.2039
M15
G01X6.5472Y-2.2039
M16
G05
G00X6.4882Y-2.7433
M15
G01X6.5472Y-2.7433
M16
G05
G00X6.5492Y-2.513
M15
G01X6.5492Y-2.4343
M16
G05
M30
