%TF.GenerationSoftware,KiCad,Pcbnew,8.0.1*%
%TF.CreationDate,2024-06-09T01:41:55+01:00*%
%TF.ProjectId,tim011_video_fix,74696d30-3131-45f7-9669-64656f5f6669,rev?*%
%TF.SameCoordinates,Original*%
%TF.FileFunction,Drillmap*%
%TF.FilePolarity,Positive*%
%FSLAX45Y45*%
G04 Gerber Fmt 4.5, Leading zero omitted, Abs format (unit mm)*
G04 Created by KiCad (PCBNEW 8.0.1) date 2024-06-09 01:41:55*
%MOMM*%
%LPD*%
G01*
G04 APERTURE LIST*
%ADD10C,0.050000*%
%ADD11C,0.200000*%
%ADD12C,0.100000*%
%ADD13C,0.110000*%
%ADD14C,0.130000*%
%ADD15C,0.170000*%
%ADD16C,0.180000*%
%ADD17C,0.260000*%
%ADD18C,0.320000*%
G04 APERTURE END LIST*
D10*
X5485000Y-5845000D02*
X13975000Y-5845000D01*
X13975000Y-11585000D01*
X5485000Y-11585000D01*
X5485000Y-5845000D01*
D11*
D12*
X8595000Y-9495000D02*
X8655000Y-9555000D01*
X8655000Y-9495000D02*
X8595000Y-9555000D01*
X8764906Y-9489337D02*
X8824906Y-9549337D01*
X8824906Y-9489337D02*
X8764906Y-9549337D01*
X9280000Y-10040000D02*
X9340000Y-10100000D01*
X9340000Y-10040000D02*
X9280000Y-10100000D01*
X10426500Y-9452500D02*
X10486500Y-9512500D01*
X10486500Y-9452500D02*
X10426500Y-9512500D01*
X11473853Y-9537500D02*
X11533853Y-9597500D01*
X11533853Y-9537500D02*
X11473853Y-9597500D01*
X11627132Y-9463977D02*
X11687132Y-9523977D01*
X11687132Y-9463977D02*
X11627132Y-9523977D01*
X12170000Y-10050000D02*
X12230000Y-10110000D01*
X12230000Y-10050000D02*
X12170000Y-10110000D01*
X5851250Y-9271000D02*
G75*
G02*
X5771250Y-9271000I-40000J0D01*
G01*
X5771250Y-9271000D02*
G75*
G02*
X5851250Y-9271000I40000J0D01*
G01*
X5851250Y-9771000D02*
G75*
G02*
X5771250Y-9771000I-40000J0D01*
G01*
X5771250Y-9771000D02*
G75*
G02*
X5851250Y-9771000I40000J0D01*
G01*
X5971500Y-10466000D02*
G75*
G02*
X5891500Y-10466000I-40000J0D01*
G01*
X5891500Y-10466000D02*
G75*
G02*
X5971500Y-10466000I40000J0D01*
G01*
X5971500Y-10843500D02*
G75*
G02*
X5891500Y-10843500I-40000J0D01*
G01*
X5891500Y-10843500D02*
G75*
G02*
X5971500Y-10843500I40000J0D01*
G01*
X5971500Y-11213500D02*
G75*
G02*
X5891500Y-11213500I-40000J0D01*
G01*
X5891500Y-11213500D02*
G75*
G02*
X5971500Y-11213500I40000J0D01*
G01*
X5990000Y-6837500D02*
G75*
G02*
X5910000Y-6837500I-40000J0D01*
G01*
X5910000Y-6837500D02*
G75*
G02*
X5990000Y-6837500I40000J0D01*
G01*
X5990000Y-8107500D02*
G75*
G02*
X5910000Y-8107500I-40000J0D01*
G01*
X5910000Y-8107500D02*
G75*
G02*
X5990000Y-8107500I40000J0D01*
G01*
X6012000Y-6340000D02*
G75*
G02*
X5932000Y-6340000I-40000J0D01*
G01*
X5932000Y-6340000D02*
G75*
G02*
X6012000Y-6340000I40000J0D01*
G01*
X6266000Y-6340000D02*
G75*
G02*
X6186000Y-6340000I-40000J0D01*
G01*
X6186000Y-6340000D02*
G75*
G02*
X6266000Y-6340000I40000J0D01*
G01*
X6292500Y-9144000D02*
G75*
G02*
X6212500Y-9144000I-40000J0D01*
G01*
X6212500Y-9144000D02*
G75*
G02*
X6292500Y-9144000I40000J0D01*
G01*
X6292500Y-9906000D02*
G75*
G02*
X6212500Y-9906000I-40000J0D01*
G01*
X6212500Y-9906000D02*
G75*
G02*
X6292500Y-9906000I40000J0D01*
G01*
X6520000Y-6340000D02*
G75*
G02*
X6440000Y-6340000I-40000J0D01*
G01*
X6440000Y-6340000D02*
G75*
G02*
X6520000Y-6340000I40000J0D01*
G01*
X6546500Y-9144000D02*
G75*
G02*
X6466500Y-9144000I-40000J0D01*
G01*
X6466500Y-9144000D02*
G75*
G02*
X6546500Y-9144000I40000J0D01*
G01*
X6546500Y-9906000D02*
G75*
G02*
X6466500Y-9906000I-40000J0D01*
G01*
X6466500Y-9906000D02*
G75*
G02*
X6546500Y-9906000I40000J0D01*
G01*
X6800500Y-9144000D02*
G75*
G02*
X6720500Y-9144000I-40000J0D01*
G01*
X6720500Y-9144000D02*
G75*
G02*
X6800500Y-9144000I40000J0D01*
G01*
X6800500Y-9906000D02*
G75*
G02*
X6720500Y-9906000I-40000J0D01*
G01*
X6720500Y-9906000D02*
G75*
G02*
X6800500Y-9906000I40000J0D01*
G01*
X6872500Y-6837500D02*
G75*
G02*
X6792500Y-6837500I-40000J0D01*
G01*
X6792500Y-6837500D02*
G75*
G02*
X6872500Y-6837500I40000J0D01*
G01*
X6872500Y-8107500D02*
G75*
G02*
X6792500Y-8107500I-40000J0D01*
G01*
X6792500Y-8107500D02*
G75*
G02*
X6872500Y-8107500I40000J0D01*
G01*
X7054500Y-9144000D02*
G75*
G02*
X6974500Y-9144000I-40000J0D01*
G01*
X6974500Y-9144000D02*
G75*
G02*
X7054500Y-9144000I40000J0D01*
G01*
X7054500Y-9906000D02*
G75*
G02*
X6974500Y-9906000I-40000J0D01*
G01*
X6974500Y-9906000D02*
G75*
G02*
X7054500Y-9906000I40000J0D01*
G01*
X7241500Y-10466000D02*
G75*
G02*
X7161500Y-10466000I-40000J0D01*
G01*
X7161500Y-10466000D02*
G75*
G02*
X7241500Y-10466000I40000J0D01*
G01*
X7241500Y-10843500D02*
G75*
G02*
X7161500Y-10843500I-40000J0D01*
G01*
X7161500Y-10843500D02*
G75*
G02*
X7241500Y-10843500I40000J0D01*
G01*
X7241500Y-11213500D02*
G75*
G02*
X7161500Y-11213500I-40000J0D01*
G01*
X7161500Y-11213500D02*
G75*
G02*
X7241500Y-11213500I40000J0D01*
G01*
X7308500Y-9144000D02*
G75*
G02*
X7228500Y-9144000I-40000J0D01*
G01*
X7228500Y-9144000D02*
G75*
G02*
X7308500Y-9144000I40000J0D01*
G01*
X7308500Y-9906000D02*
G75*
G02*
X7228500Y-9906000I-40000J0D01*
G01*
X7228500Y-9906000D02*
G75*
G02*
X7308500Y-9906000I40000J0D01*
G01*
X7562500Y-9144000D02*
G75*
G02*
X7482500Y-9144000I-40000J0D01*
G01*
X7482500Y-9144000D02*
G75*
G02*
X7562500Y-9144000I40000J0D01*
G01*
X7562500Y-9906000D02*
G75*
G02*
X7482500Y-9906000I-40000J0D01*
G01*
X7482500Y-9906000D02*
G75*
G02*
X7562500Y-9906000I40000J0D01*
G01*
X7816500Y-9144000D02*
G75*
G02*
X7736500Y-9144000I-40000J0D01*
G01*
X7736500Y-9144000D02*
G75*
G02*
X7816500Y-9144000I40000J0D01*
G01*
X7816500Y-9906000D02*
G75*
G02*
X7736500Y-9906000I-40000J0D01*
G01*
X7736500Y-9906000D02*
G75*
G02*
X7816500Y-9906000I40000J0D01*
G01*
X7933500Y-6837500D02*
G75*
G02*
X7853500Y-6837500I-40000J0D01*
G01*
X7853500Y-6837500D02*
G75*
G02*
X7933500Y-6837500I40000J0D01*
G01*
X7933500Y-8107500D02*
G75*
G02*
X7853500Y-8107500I-40000J0D01*
G01*
X7853500Y-8107500D02*
G75*
G02*
X7933500Y-8107500I40000J0D01*
G01*
X8193500Y-8891000D02*
G75*
G02*
X8113500Y-8891000I-40000J0D01*
G01*
X8113500Y-8891000D02*
G75*
G02*
X8193500Y-8891000I40000J0D01*
G01*
X8193500Y-10161000D02*
G75*
G02*
X8113500Y-10161000I-40000J0D01*
G01*
X8113500Y-10161000D02*
G75*
G02*
X8193500Y-10161000I40000J0D01*
G01*
X8314500Y-6837500D02*
G75*
G02*
X8234500Y-6837500I-40000J0D01*
G01*
X8234500Y-6837500D02*
G75*
G02*
X8314500Y-6837500I40000J0D01*
G01*
X8314500Y-8107500D02*
G75*
G02*
X8234500Y-8107500I-40000J0D01*
G01*
X8234500Y-8107500D02*
G75*
G02*
X8314500Y-8107500I40000J0D01*
G01*
X8723500Y-9144000D02*
G75*
G02*
X8643500Y-9144000I-40000J0D01*
G01*
X8643500Y-9144000D02*
G75*
G02*
X8723500Y-9144000I40000J0D01*
G01*
X8723500Y-9906000D02*
G75*
G02*
X8643500Y-9906000I-40000J0D01*
G01*
X8643500Y-9906000D02*
G75*
G02*
X8723500Y-9906000I40000J0D01*
G01*
X8887000Y-8898500D02*
G75*
G02*
X8807000Y-8898500I-40000J0D01*
G01*
X8807000Y-8898500D02*
G75*
G02*
X8887000Y-8898500I40000J0D01*
G01*
X8977500Y-9144000D02*
G75*
G02*
X8897500Y-9144000I-40000J0D01*
G01*
X8897500Y-9144000D02*
G75*
G02*
X8977500Y-9144000I40000J0D01*
G01*
X8977500Y-9906000D02*
G75*
G02*
X8897500Y-9906000I-40000J0D01*
G01*
X8897500Y-9906000D02*
G75*
G02*
X8977500Y-9906000I40000J0D01*
G01*
X9231500Y-9144000D02*
G75*
G02*
X9151500Y-9144000I-40000J0D01*
G01*
X9151500Y-9144000D02*
G75*
G02*
X9231500Y-9144000I40000J0D01*
G01*
X9231500Y-9906000D02*
G75*
G02*
X9151500Y-9906000I-40000J0D01*
G01*
X9151500Y-9906000D02*
G75*
G02*
X9231500Y-9906000I40000J0D01*
G01*
X9387000Y-8898500D02*
G75*
G02*
X9307000Y-8898500I-40000J0D01*
G01*
X9307000Y-8898500D02*
G75*
G02*
X9387000Y-8898500I40000J0D01*
G01*
X9392500Y-8583500D02*
G75*
G02*
X9312500Y-8583500I-40000J0D01*
G01*
X9312500Y-8583500D02*
G75*
G02*
X9392500Y-8583500I40000J0D01*
G01*
X9485500Y-9144000D02*
G75*
G02*
X9405500Y-9144000I-40000J0D01*
G01*
X9405500Y-9144000D02*
G75*
G02*
X9485500Y-9144000I40000J0D01*
G01*
X9485500Y-9906000D02*
G75*
G02*
X9405500Y-9906000I-40000J0D01*
G01*
X9405500Y-9906000D02*
G75*
G02*
X9485500Y-9906000I40000J0D01*
G01*
X9592000Y-10635500D02*
G75*
G02*
X9512000Y-10635500I-40000J0D01*
G01*
X9512000Y-10635500D02*
G75*
G02*
X9592000Y-10635500I40000J0D01*
G01*
X9592000Y-10890500D02*
G75*
G02*
X9512000Y-10890500I-40000J0D01*
G01*
X9512000Y-10890500D02*
G75*
G02*
X9592000Y-10890500I40000J0D01*
G01*
X9592000Y-11147500D02*
G75*
G02*
X9512000Y-11147500I-40000J0D01*
G01*
X9512000Y-11147500D02*
G75*
G02*
X9592000Y-11147500I40000J0D01*
G01*
X9649000Y-8898500D02*
G75*
G02*
X9569000Y-8898500I-40000J0D01*
G01*
X9569000Y-8898500D02*
G75*
G02*
X9649000Y-8898500I40000J0D01*
G01*
X9739500Y-9144000D02*
G75*
G02*
X9659500Y-9144000I-40000J0D01*
G01*
X9659500Y-9144000D02*
G75*
G02*
X9739500Y-9144000I40000J0D01*
G01*
X9739500Y-9906000D02*
G75*
G02*
X9659500Y-9906000I-40000J0D01*
G01*
X9659500Y-9906000D02*
G75*
G02*
X9739500Y-9906000I40000J0D01*
G01*
X9843000Y-10890500D02*
G75*
G02*
X9763000Y-10890500I-40000J0D01*
G01*
X9763000Y-10890500D02*
G75*
G02*
X9843000Y-10890500I40000J0D01*
G01*
X9993500Y-9144000D02*
G75*
G02*
X9913500Y-9144000I-40000J0D01*
G01*
X9913500Y-9144000D02*
G75*
G02*
X9993500Y-9144000I40000J0D01*
G01*
X9993500Y-9906000D02*
G75*
G02*
X9913500Y-9906000I-40000J0D01*
G01*
X9913500Y-9906000D02*
G75*
G02*
X9993500Y-9906000I40000J0D01*
G01*
X10149000Y-8898500D02*
G75*
G02*
X10069000Y-8898500I-40000J0D01*
G01*
X10069000Y-8898500D02*
G75*
G02*
X10149000Y-8898500I40000J0D01*
G01*
X10247500Y-9144000D02*
G75*
G02*
X10167500Y-9144000I-40000J0D01*
G01*
X10167500Y-9144000D02*
G75*
G02*
X10247500Y-9144000I40000J0D01*
G01*
X10247500Y-9906000D02*
G75*
G02*
X10167500Y-9906000I-40000J0D01*
G01*
X10167500Y-9906000D02*
G75*
G02*
X10247500Y-9906000I40000J0D01*
G01*
X10501500Y-9144000D02*
G75*
G02*
X10421500Y-9144000I-40000J0D01*
G01*
X10421500Y-9144000D02*
G75*
G02*
X10501500Y-9144000I40000J0D01*
G01*
X10501500Y-9906000D02*
G75*
G02*
X10421500Y-9906000I-40000J0D01*
G01*
X10421500Y-9906000D02*
G75*
G02*
X10501500Y-9906000I40000J0D01*
G01*
X10662500Y-8583500D02*
G75*
G02*
X10582500Y-8583500I-40000J0D01*
G01*
X10582500Y-8583500D02*
G75*
G02*
X10662500Y-8583500I40000J0D01*
G01*
X10783500Y-9276000D02*
G75*
G02*
X10703500Y-9276000I-40000J0D01*
G01*
X10703500Y-9276000D02*
G75*
G02*
X10783500Y-9276000I40000J0D01*
G01*
X10783500Y-9776000D02*
G75*
G02*
X10703500Y-9776000I-40000J0D01*
G01*
X10703500Y-9776000D02*
G75*
G02*
X10783500Y-9776000I40000J0D01*
G01*
X11108500Y-8891000D02*
G75*
G02*
X11028500Y-8891000I-40000J0D01*
G01*
X11028500Y-8891000D02*
G75*
G02*
X11108500Y-8891000I40000J0D01*
G01*
X11108500Y-10161000D02*
G75*
G02*
X11028500Y-10161000I-40000J0D01*
G01*
X11028500Y-10161000D02*
G75*
G02*
X11108500Y-10161000I40000J0D01*
G01*
X11609500Y-9144000D02*
G75*
G02*
X11529500Y-9144000I-40000J0D01*
G01*
X11529500Y-9144000D02*
G75*
G02*
X11609500Y-9144000I40000J0D01*
G01*
X11609500Y-9906000D02*
G75*
G02*
X11529500Y-9906000I-40000J0D01*
G01*
X11529500Y-9906000D02*
G75*
G02*
X11609500Y-9906000I40000J0D01*
G01*
X11785000Y-8898500D02*
G75*
G02*
X11705000Y-8898500I-40000J0D01*
G01*
X11705000Y-8898500D02*
G75*
G02*
X11785000Y-8898500I40000J0D01*
G01*
X11863500Y-9144000D02*
G75*
G02*
X11783500Y-9144000I-40000J0D01*
G01*
X11783500Y-9144000D02*
G75*
G02*
X11863500Y-9144000I40000J0D01*
G01*
X11863500Y-9906000D02*
G75*
G02*
X11783500Y-9906000I-40000J0D01*
G01*
X11783500Y-9906000D02*
G75*
G02*
X11863500Y-9906000I40000J0D01*
G01*
X12117500Y-9144000D02*
G75*
G02*
X12037500Y-9144000I-40000J0D01*
G01*
X12037500Y-9144000D02*
G75*
G02*
X12117500Y-9144000I40000J0D01*
G01*
X12117500Y-9906000D02*
G75*
G02*
X12037500Y-9906000I-40000J0D01*
G01*
X12037500Y-9906000D02*
G75*
G02*
X12117500Y-9906000I40000J0D01*
G01*
X12285000Y-8898500D02*
G75*
G02*
X12205000Y-8898500I-40000J0D01*
G01*
X12205000Y-8898500D02*
G75*
G02*
X12285000Y-8898500I40000J0D01*
G01*
X12345500Y-8573500D02*
G75*
G02*
X12265500Y-8573500I-40000J0D01*
G01*
X12265500Y-8573500D02*
G75*
G02*
X12345500Y-8573500I40000J0D01*
G01*
X12371500Y-9144000D02*
G75*
G02*
X12291500Y-9144000I-40000J0D01*
G01*
X12291500Y-9144000D02*
G75*
G02*
X12371500Y-9144000I40000J0D01*
G01*
X12371500Y-9906000D02*
G75*
G02*
X12291500Y-9906000I-40000J0D01*
G01*
X12291500Y-9906000D02*
G75*
G02*
X12371500Y-9906000I40000J0D01*
G01*
X12488500Y-10635500D02*
G75*
G02*
X12408500Y-10635500I-40000J0D01*
G01*
X12408500Y-10635500D02*
G75*
G02*
X12488500Y-10635500I40000J0D01*
G01*
X12488500Y-10890500D02*
G75*
G02*
X12408500Y-10890500I-40000J0D01*
G01*
X12408500Y-10890500D02*
G75*
G02*
X12488500Y-10890500I40000J0D01*
G01*
X12488500Y-11147500D02*
G75*
G02*
X12408500Y-11147500I-40000J0D01*
G01*
X12408500Y-11147500D02*
G75*
G02*
X12488500Y-11147500I40000J0D01*
G01*
X12555000Y-8898500D02*
G75*
G02*
X12475000Y-8898500I-40000J0D01*
G01*
X12475000Y-8898500D02*
G75*
G02*
X12555000Y-8898500I40000J0D01*
G01*
X12625500Y-9144000D02*
G75*
G02*
X12545500Y-9144000I-40000J0D01*
G01*
X12545500Y-9144000D02*
G75*
G02*
X12625500Y-9144000I40000J0D01*
G01*
X12625500Y-9906000D02*
G75*
G02*
X12545500Y-9906000I-40000J0D01*
G01*
X12545500Y-9906000D02*
G75*
G02*
X12625500Y-9906000I40000J0D01*
G01*
X12739500Y-10890500D02*
G75*
G02*
X12659500Y-10890500I-40000J0D01*
G01*
X12659500Y-10890500D02*
G75*
G02*
X12739500Y-10890500I40000J0D01*
G01*
X12879500Y-9144000D02*
G75*
G02*
X12799500Y-9144000I-40000J0D01*
G01*
X12799500Y-9144000D02*
G75*
G02*
X12879500Y-9144000I40000J0D01*
G01*
X12879500Y-9906000D02*
G75*
G02*
X12799500Y-9906000I-40000J0D01*
G01*
X12799500Y-9906000D02*
G75*
G02*
X12879500Y-9906000I40000J0D01*
G01*
X13055000Y-8898500D02*
G75*
G02*
X12975000Y-8898500I-40000J0D01*
G01*
X12975000Y-8898500D02*
G75*
G02*
X13055000Y-8898500I40000J0D01*
G01*
X13133500Y-9144000D02*
G75*
G02*
X13053500Y-9144000I-40000J0D01*
G01*
X13053500Y-9144000D02*
G75*
G02*
X13133500Y-9144000I40000J0D01*
G01*
X13133500Y-9906000D02*
G75*
G02*
X13053500Y-9906000I-40000J0D01*
G01*
X13053500Y-9906000D02*
G75*
G02*
X13133500Y-9906000I40000J0D01*
G01*
X13387500Y-9144000D02*
G75*
G02*
X13307500Y-9144000I-40000J0D01*
G01*
X13307500Y-9144000D02*
G75*
G02*
X13387500Y-9144000I40000J0D01*
G01*
X13387500Y-9906000D02*
G75*
G02*
X13307500Y-9906000I-40000J0D01*
G01*
X13307500Y-9906000D02*
G75*
G02*
X13387500Y-9906000I40000J0D01*
G01*
X13569000Y-7598500D02*
G75*
G02*
X13489000Y-7598500I-40000J0D01*
G01*
X13489000Y-7598500D02*
G75*
G02*
X13569000Y-7598500I40000J0D01*
G01*
X13569000Y-8098500D02*
G75*
G02*
X13489000Y-8098500I-40000J0D01*
G01*
X13489000Y-8098500D02*
G75*
G02*
X13569000Y-8098500I40000J0D01*
G01*
X13615500Y-8573500D02*
G75*
G02*
X13535500Y-8573500I-40000J0D01*
G01*
X13535500Y-8573500D02*
G75*
G02*
X13615500Y-8573500I40000J0D01*
G01*
X13667750Y-9276000D02*
G75*
G02*
X13587750Y-9276000I-40000J0D01*
G01*
X13587750Y-9276000D02*
G75*
G02*
X13667750Y-9276000I40000J0D01*
G01*
X13667750Y-9776000D02*
G75*
G02*
X13587750Y-9776000I-40000J0D01*
G01*
X13587750Y-9776000D02*
G75*
G02*
X13667750Y-9776000I40000J0D01*
G01*
X7377500Y-6638500D02*
X7377500Y-6738500D01*
X7327500Y-6688500D02*
X7427500Y-6688500D01*
X7377500Y-7113500D02*
X7377500Y-7213500D01*
X7327500Y-7163500D02*
X7427500Y-7163500D01*
X7377500Y-8137500D02*
X7377500Y-8237500D01*
X7327500Y-8187500D02*
X7427500Y-8187500D01*
X8917000Y-7624000D02*
X8917000Y-7724000D01*
X8867000Y-7674000D02*
X8967000Y-7674000D01*
X9171000Y-7624000D02*
X9171000Y-7724000D01*
X9121000Y-7674000D02*
X9221000Y-7674000D01*
X9425000Y-7624000D02*
X9425000Y-7724000D01*
X9375000Y-7674000D02*
X9475000Y-7674000D01*
X9679000Y-7624000D02*
X9679000Y-7724000D01*
X9629000Y-7674000D02*
X9729000Y-7674000D01*
X9933000Y-7624000D02*
X9933000Y-7724000D01*
X9883000Y-7674000D02*
X9983000Y-7674000D01*
X10187000Y-7624000D02*
X10187000Y-7724000D01*
X10137000Y-7674000D02*
X10237000Y-7674000D01*
X11271500Y-6617500D02*
X11271500Y-6717500D01*
X11221500Y-6667500D02*
X11321500Y-6667500D01*
X11326250Y-7568500D02*
X11326250Y-7668500D01*
X11276250Y-7618500D02*
X11376250Y-7618500D01*
X11326250Y-7822500D02*
X11326250Y-7922500D01*
X11276250Y-7872500D02*
X11376250Y-7872500D01*
X11410000Y-6333500D02*
X11410000Y-6433500D01*
X11360000Y-6383500D02*
X11460000Y-6383500D01*
X11548500Y-6617500D02*
X11548500Y-6717500D01*
X11498500Y-6667500D02*
X11598500Y-6667500D01*
X11580250Y-7568500D02*
X11580250Y-7668500D01*
X11530250Y-7618500D02*
X11630250Y-7618500D01*
X11580250Y-7822500D02*
X11580250Y-7922500D01*
X11530250Y-7872500D02*
X11630250Y-7872500D01*
X11687000Y-6333500D02*
X11687000Y-6433500D01*
X11637000Y-6383500D02*
X11737000Y-6383500D01*
X11825500Y-6617500D02*
X11825500Y-6717500D01*
X11775500Y-6667500D02*
X11875500Y-6667500D01*
X11834250Y-7568500D02*
X11834250Y-7668500D01*
X11784250Y-7618500D02*
X11884250Y-7618500D01*
X11834250Y-7822500D02*
X11834250Y-7922500D01*
X11784250Y-7872500D02*
X11884250Y-7872500D01*
X11964000Y-6333500D02*
X11964000Y-6433500D01*
X11914000Y-6383500D02*
X12014000Y-6383500D01*
X12088250Y-7568500D02*
X12088250Y-7668500D01*
X12038250Y-7618500D02*
X12138250Y-7618500D01*
X12088250Y-7822500D02*
X12088250Y-7922500D01*
X12038250Y-7872500D02*
X12138250Y-7872500D01*
X12102500Y-6617500D02*
X12102500Y-6717500D01*
X12052500Y-6667500D02*
X12152500Y-6667500D01*
X12241000Y-6333500D02*
X12241000Y-6433500D01*
X12191000Y-6383500D02*
X12291000Y-6383500D01*
X12342250Y-7568500D02*
X12342250Y-7668500D01*
X12292250Y-7618500D02*
X12392250Y-7618500D01*
X12342250Y-7822500D02*
X12342250Y-7922500D01*
X12292250Y-7872500D02*
X12392250Y-7872500D01*
X12379500Y-6617500D02*
X12379500Y-6717500D01*
X12329500Y-6667500D02*
X12429500Y-6667500D01*
X12596250Y-7568500D02*
X12596250Y-7668500D01*
X12546250Y-7618500D02*
X12646250Y-7618500D01*
X12596250Y-7822500D02*
X12596250Y-7922500D01*
X12546250Y-7872500D02*
X12646250Y-7872500D01*
D13*
X8847891Y-6825391D02*
X8847891Y-6747609D01*
X8770109Y-6747609D01*
X8770109Y-6825391D01*
X8847891Y-6825391D01*
D12*
X8754000Y-6696500D02*
X8754000Y-6876500D01*
X8864000Y-6876500D02*
G75*
G02*
X8754000Y-6876500I-55000J0D01*
G01*
X8864000Y-6876500D02*
X8864000Y-6696500D01*
X8864000Y-6696500D02*
G75*
G03*
X8754000Y-6696500I-55000J0D01*
G01*
D13*
X9847891Y-6825391D02*
X9847891Y-6747609D01*
X9770109Y-6747609D01*
X9770109Y-6825391D01*
X9847891Y-6825391D01*
D12*
X9754000Y-6696500D02*
X9754000Y-6876500D01*
X9864000Y-6876500D02*
G75*
G02*
X9754000Y-6876500I-55000J0D01*
G01*
X9864000Y-6876500D02*
X9864000Y-6696500D01*
X9864000Y-6696500D02*
G75*
G03*
X9754000Y-6696500I-55000J0D01*
G01*
D14*
X9286000Y-10700500D02*
X9351000Y-10635500D01*
X9286000Y-10570500D01*
X9221000Y-10635500D01*
X9286000Y-10700500D01*
X9286000Y-11212500D02*
X9351000Y-11147500D01*
X9286000Y-11082500D01*
X9221000Y-11147500D01*
X9286000Y-11212500D01*
X10305000Y-10955500D02*
X10370000Y-10890500D01*
X10305000Y-10825500D01*
X10240000Y-10890500D01*
X10305000Y-10955500D01*
X12182500Y-10700500D02*
X12247500Y-10635500D01*
X12182500Y-10570500D01*
X12117500Y-10635500D01*
X12182500Y-10700500D01*
X12182500Y-11212500D02*
X12247500Y-11147500D01*
X12182500Y-11082500D01*
X12117500Y-11147500D01*
X12182500Y-11212500D01*
X13201500Y-10955500D02*
X13266500Y-10890500D01*
X13201500Y-10825500D01*
X13136500Y-10890500D01*
X13201500Y-10955500D01*
D15*
X9224000Y-6701500D02*
X9394000Y-6871500D01*
X9394000Y-6701500D02*
X9224000Y-6871500D01*
X9394000Y-6786500D02*
G75*
G02*
X9224000Y-6786500I-85000J0D01*
G01*
X9224000Y-6786500D02*
G75*
G02*
X9394000Y-6786500I85000J0D01*
G01*
D16*
X7603000Y-6113500D02*
X7783000Y-6293500D01*
X7783000Y-6113500D02*
X7603000Y-6293500D01*
X7693000Y-6113500D02*
X7693000Y-6293500D01*
X7603000Y-6203500D02*
X7783000Y-6203500D01*
X7999000Y-6113500D02*
X8179000Y-6293500D01*
X8179000Y-6113500D02*
X7999000Y-6293500D01*
X8089000Y-6113500D02*
X8089000Y-6293500D01*
X7999000Y-6203500D02*
X8179000Y-6203500D01*
D17*
X9179000Y-6006500D02*
X9439000Y-6266500D01*
X9439000Y-6006500D02*
X9179000Y-6266500D01*
X9400925Y-6228425D02*
X9400925Y-6044575D01*
X9217075Y-6044575D01*
X9217075Y-6228425D01*
X9400925Y-6228425D01*
D18*
X10415500Y-6477500D02*
X10735500Y-6797500D01*
X10735500Y-6477500D02*
X10415500Y-6797500D01*
X10575500Y-6797500D02*
X10735500Y-6637500D01*
X10575500Y-6477500D01*
X10415500Y-6637500D01*
X10575500Y-6797500D01*
X12915500Y-6477500D02*
X13235500Y-6797500D01*
X13235500Y-6477500D02*
X12915500Y-6797500D01*
X13075500Y-6797500D02*
X13235500Y-6637500D01*
X13075500Y-6477500D01*
X12915500Y-6637500D01*
X13075500Y-6797500D01*
D11*
X5743277Y-11898984D02*
X5743277Y-11698984D01*
X5743277Y-11698984D02*
X5790896Y-11698984D01*
X5790896Y-11698984D02*
X5819467Y-11708508D01*
X5819467Y-11708508D02*
X5838515Y-11727555D01*
X5838515Y-11727555D02*
X5848039Y-11746603D01*
X5848039Y-11746603D02*
X5857562Y-11784698D01*
X5857562Y-11784698D02*
X5857562Y-11813269D01*
X5857562Y-11813269D02*
X5848039Y-11851365D01*
X5848039Y-11851365D02*
X5838515Y-11870412D01*
X5838515Y-11870412D02*
X5819467Y-11889460D01*
X5819467Y-11889460D02*
X5790896Y-11898984D01*
X5790896Y-11898984D02*
X5743277Y-11898984D01*
X5943277Y-11898984D02*
X5943277Y-11765650D01*
X5943277Y-11803746D02*
X5952801Y-11784698D01*
X5952801Y-11784698D02*
X5962324Y-11775174D01*
X5962324Y-11775174D02*
X5981372Y-11765650D01*
X5981372Y-11765650D02*
X6000420Y-11765650D01*
X6067086Y-11898984D02*
X6067086Y-11765650D01*
X6067086Y-11698984D02*
X6057562Y-11708508D01*
X6057562Y-11708508D02*
X6067086Y-11718031D01*
X6067086Y-11718031D02*
X6076610Y-11708508D01*
X6076610Y-11708508D02*
X6067086Y-11698984D01*
X6067086Y-11698984D02*
X6067086Y-11718031D01*
X6190896Y-11898984D02*
X6171848Y-11889460D01*
X6171848Y-11889460D02*
X6162324Y-11870412D01*
X6162324Y-11870412D02*
X6162324Y-11698984D01*
X6295658Y-11898984D02*
X6276610Y-11889460D01*
X6276610Y-11889460D02*
X6267086Y-11870412D01*
X6267086Y-11870412D02*
X6267086Y-11698984D01*
X6524229Y-11898984D02*
X6524229Y-11698984D01*
X6524229Y-11698984D02*
X6590896Y-11841841D01*
X6590896Y-11841841D02*
X6657562Y-11698984D01*
X6657562Y-11698984D02*
X6657562Y-11898984D01*
X6838515Y-11898984D02*
X6838515Y-11794222D01*
X6838515Y-11794222D02*
X6828991Y-11775174D01*
X6828991Y-11775174D02*
X6809943Y-11765650D01*
X6809943Y-11765650D02*
X6771848Y-11765650D01*
X6771848Y-11765650D02*
X6752801Y-11775174D01*
X6838515Y-11889460D02*
X6819467Y-11898984D01*
X6819467Y-11898984D02*
X6771848Y-11898984D01*
X6771848Y-11898984D02*
X6752801Y-11889460D01*
X6752801Y-11889460D02*
X6743277Y-11870412D01*
X6743277Y-11870412D02*
X6743277Y-11851365D01*
X6743277Y-11851365D02*
X6752801Y-11832317D01*
X6752801Y-11832317D02*
X6771848Y-11822793D01*
X6771848Y-11822793D02*
X6819467Y-11822793D01*
X6819467Y-11822793D02*
X6838515Y-11813269D01*
X6933753Y-11765650D02*
X6933753Y-11965650D01*
X6933753Y-11775174D02*
X6952801Y-11765650D01*
X6952801Y-11765650D02*
X6990896Y-11765650D01*
X6990896Y-11765650D02*
X7009943Y-11775174D01*
X7009943Y-11775174D02*
X7019467Y-11784698D01*
X7019467Y-11784698D02*
X7028991Y-11803746D01*
X7028991Y-11803746D02*
X7028991Y-11860888D01*
X7028991Y-11860888D02*
X7019467Y-11879936D01*
X7019467Y-11879936D02*
X7009943Y-11889460D01*
X7009943Y-11889460D02*
X6990896Y-11898984D01*
X6990896Y-11898984D02*
X6952801Y-11898984D01*
X6952801Y-11898984D02*
X6933753Y-11889460D01*
X7114705Y-11879936D02*
X7124229Y-11889460D01*
X7124229Y-11889460D02*
X7114705Y-11898984D01*
X7114705Y-11898984D02*
X7105182Y-11889460D01*
X7105182Y-11889460D02*
X7114705Y-11879936D01*
X7114705Y-11879936D02*
X7114705Y-11898984D01*
X7114705Y-11775174D02*
X7124229Y-11784698D01*
X7124229Y-11784698D02*
X7114705Y-11794222D01*
X7114705Y-11794222D02*
X7105182Y-11784698D01*
X7105182Y-11784698D02*
X7114705Y-11775174D01*
X7114705Y-11775174D02*
X7114705Y-11794222D01*
D12*
X5422500Y-12197500D02*
X5482500Y-12257500D01*
X5482500Y-12197500D02*
X5422500Y-12257500D01*
D11*
X5781372Y-12118984D02*
X5800420Y-12118984D01*
X5800420Y-12118984D02*
X5819467Y-12128508D01*
X5819467Y-12128508D02*
X5828991Y-12138031D01*
X5828991Y-12138031D02*
X5838515Y-12157079D01*
X5838515Y-12157079D02*
X5848039Y-12195174D01*
X5848039Y-12195174D02*
X5848039Y-12242793D01*
X5848039Y-12242793D02*
X5838515Y-12280888D01*
X5838515Y-12280888D02*
X5828991Y-12299936D01*
X5828991Y-12299936D02*
X5819467Y-12309460D01*
X5819467Y-12309460D02*
X5800420Y-12318984D01*
X5800420Y-12318984D02*
X5781372Y-12318984D01*
X5781372Y-12318984D02*
X5762324Y-12309460D01*
X5762324Y-12309460D02*
X5752801Y-12299936D01*
X5752801Y-12299936D02*
X5743277Y-12280888D01*
X5743277Y-12280888D02*
X5733753Y-12242793D01*
X5733753Y-12242793D02*
X5733753Y-12195174D01*
X5733753Y-12195174D02*
X5743277Y-12157079D01*
X5743277Y-12157079D02*
X5752801Y-12138031D01*
X5752801Y-12138031D02*
X5762324Y-12128508D01*
X5762324Y-12128508D02*
X5781372Y-12118984D01*
X5933753Y-12299936D02*
X5943277Y-12309460D01*
X5943277Y-12309460D02*
X5933753Y-12318984D01*
X5933753Y-12318984D02*
X5924229Y-12309460D01*
X5924229Y-12309460D02*
X5933753Y-12299936D01*
X5933753Y-12299936D02*
X5933753Y-12318984D01*
X6114705Y-12118984D02*
X6076610Y-12118984D01*
X6076610Y-12118984D02*
X6057562Y-12128508D01*
X6057562Y-12128508D02*
X6048039Y-12138031D01*
X6048039Y-12138031D02*
X6028991Y-12166603D01*
X6028991Y-12166603D02*
X6019467Y-12204698D01*
X6019467Y-12204698D02*
X6019467Y-12280888D01*
X6019467Y-12280888D02*
X6028991Y-12299936D01*
X6028991Y-12299936D02*
X6038515Y-12309460D01*
X6038515Y-12309460D02*
X6057562Y-12318984D01*
X6057562Y-12318984D02*
X6095658Y-12318984D01*
X6095658Y-12318984D02*
X6114705Y-12309460D01*
X6114705Y-12309460D02*
X6124229Y-12299936D01*
X6124229Y-12299936D02*
X6133753Y-12280888D01*
X6133753Y-12280888D02*
X6133753Y-12233269D01*
X6133753Y-12233269D02*
X6124229Y-12214222D01*
X6124229Y-12214222D02*
X6114705Y-12204698D01*
X6114705Y-12204698D02*
X6095658Y-12195174D01*
X6095658Y-12195174D02*
X6057562Y-12195174D01*
X6057562Y-12195174D02*
X6038515Y-12204698D01*
X6038515Y-12204698D02*
X6028991Y-12214222D01*
X6028991Y-12214222D02*
X6019467Y-12233269D01*
X6257562Y-12118984D02*
X6276610Y-12118984D01*
X6276610Y-12118984D02*
X6295658Y-12128508D01*
X6295658Y-12128508D02*
X6305182Y-12138031D01*
X6305182Y-12138031D02*
X6314705Y-12157079D01*
X6314705Y-12157079D02*
X6324229Y-12195174D01*
X6324229Y-12195174D02*
X6324229Y-12242793D01*
X6324229Y-12242793D02*
X6314705Y-12280888D01*
X6314705Y-12280888D02*
X6305182Y-12299936D01*
X6305182Y-12299936D02*
X6295658Y-12309460D01*
X6295658Y-12309460D02*
X6276610Y-12318984D01*
X6276610Y-12318984D02*
X6257562Y-12318984D01*
X6257562Y-12318984D02*
X6238515Y-12309460D01*
X6238515Y-12309460D02*
X6228991Y-12299936D01*
X6228991Y-12299936D02*
X6219467Y-12280888D01*
X6219467Y-12280888D02*
X6209943Y-12242793D01*
X6209943Y-12242793D02*
X6209943Y-12195174D01*
X6209943Y-12195174D02*
X6219467Y-12157079D01*
X6219467Y-12157079D02*
X6228991Y-12138031D01*
X6228991Y-12138031D02*
X6238515Y-12128508D01*
X6238515Y-12128508D02*
X6257562Y-12118984D01*
X6448039Y-12118984D02*
X6467086Y-12118984D01*
X6467086Y-12118984D02*
X6486134Y-12128508D01*
X6486134Y-12128508D02*
X6495658Y-12138031D01*
X6495658Y-12138031D02*
X6505182Y-12157079D01*
X6505182Y-12157079D02*
X6514705Y-12195174D01*
X6514705Y-12195174D02*
X6514705Y-12242793D01*
X6514705Y-12242793D02*
X6505182Y-12280888D01*
X6505182Y-12280888D02*
X6495658Y-12299936D01*
X6495658Y-12299936D02*
X6486134Y-12309460D01*
X6486134Y-12309460D02*
X6467086Y-12318984D01*
X6467086Y-12318984D02*
X6448039Y-12318984D01*
X6448039Y-12318984D02*
X6428991Y-12309460D01*
X6428991Y-12309460D02*
X6419467Y-12299936D01*
X6419467Y-12299936D02*
X6409943Y-12280888D01*
X6409943Y-12280888D02*
X6400420Y-12242793D01*
X6400420Y-12242793D02*
X6400420Y-12195174D01*
X6400420Y-12195174D02*
X6409943Y-12157079D01*
X6409943Y-12157079D02*
X6419467Y-12138031D01*
X6419467Y-12138031D02*
X6428991Y-12128508D01*
X6428991Y-12128508D02*
X6448039Y-12118984D01*
X6600420Y-12318984D02*
X6600420Y-12185650D01*
X6600420Y-12204698D02*
X6609943Y-12195174D01*
X6609943Y-12195174D02*
X6628991Y-12185650D01*
X6628991Y-12185650D02*
X6657563Y-12185650D01*
X6657563Y-12185650D02*
X6676610Y-12195174D01*
X6676610Y-12195174D02*
X6686134Y-12214222D01*
X6686134Y-12214222D02*
X6686134Y-12318984D01*
X6686134Y-12214222D02*
X6695658Y-12195174D01*
X6695658Y-12195174D02*
X6714705Y-12185650D01*
X6714705Y-12185650D02*
X6743277Y-12185650D01*
X6743277Y-12185650D02*
X6762324Y-12195174D01*
X6762324Y-12195174D02*
X6771848Y-12214222D01*
X6771848Y-12214222D02*
X6771848Y-12318984D01*
X6867086Y-12318984D02*
X6867086Y-12185650D01*
X6867086Y-12204698D02*
X6876610Y-12195174D01*
X6876610Y-12195174D02*
X6895658Y-12185650D01*
X6895658Y-12185650D02*
X6924229Y-12185650D01*
X6924229Y-12185650D02*
X6943277Y-12195174D01*
X6943277Y-12195174D02*
X6952801Y-12214222D01*
X6952801Y-12214222D02*
X6952801Y-12318984D01*
X6952801Y-12214222D02*
X6962324Y-12195174D01*
X6962324Y-12195174D02*
X6981372Y-12185650D01*
X6981372Y-12185650D02*
X7009943Y-12185650D01*
X7009943Y-12185650D02*
X7028991Y-12195174D01*
X7028991Y-12195174D02*
X7038515Y-12214222D01*
X7038515Y-12214222D02*
X7038515Y-12318984D01*
X7428991Y-12109460D02*
X7257563Y-12366603D01*
X7686134Y-12118984D02*
X7705182Y-12118984D01*
X7705182Y-12118984D02*
X7724229Y-12128508D01*
X7724229Y-12128508D02*
X7733753Y-12138031D01*
X7733753Y-12138031D02*
X7743277Y-12157079D01*
X7743277Y-12157079D02*
X7752801Y-12195174D01*
X7752801Y-12195174D02*
X7752801Y-12242793D01*
X7752801Y-12242793D02*
X7743277Y-12280888D01*
X7743277Y-12280888D02*
X7733753Y-12299936D01*
X7733753Y-12299936D02*
X7724229Y-12309460D01*
X7724229Y-12309460D02*
X7705182Y-12318984D01*
X7705182Y-12318984D02*
X7686134Y-12318984D01*
X7686134Y-12318984D02*
X7667086Y-12309460D01*
X7667086Y-12309460D02*
X7657563Y-12299936D01*
X7657563Y-12299936D02*
X7648039Y-12280888D01*
X7648039Y-12280888D02*
X7638515Y-12242793D01*
X7638515Y-12242793D02*
X7638515Y-12195174D01*
X7638515Y-12195174D02*
X7648039Y-12157079D01*
X7648039Y-12157079D02*
X7657563Y-12138031D01*
X7657563Y-12138031D02*
X7667086Y-12128508D01*
X7667086Y-12128508D02*
X7686134Y-12118984D01*
X7838515Y-12299936D02*
X7848039Y-12309460D01*
X7848039Y-12309460D02*
X7838515Y-12318984D01*
X7838515Y-12318984D02*
X7828991Y-12309460D01*
X7828991Y-12309460D02*
X7838515Y-12299936D01*
X7838515Y-12299936D02*
X7838515Y-12318984D01*
X7971848Y-12118984D02*
X7990896Y-12118984D01*
X7990896Y-12118984D02*
X8009944Y-12128508D01*
X8009944Y-12128508D02*
X8019467Y-12138031D01*
X8019467Y-12138031D02*
X8028991Y-12157079D01*
X8028991Y-12157079D02*
X8038515Y-12195174D01*
X8038515Y-12195174D02*
X8038515Y-12242793D01*
X8038515Y-12242793D02*
X8028991Y-12280888D01*
X8028991Y-12280888D02*
X8019467Y-12299936D01*
X8019467Y-12299936D02*
X8009944Y-12309460D01*
X8009944Y-12309460D02*
X7990896Y-12318984D01*
X7990896Y-12318984D02*
X7971848Y-12318984D01*
X7971848Y-12318984D02*
X7952801Y-12309460D01*
X7952801Y-12309460D02*
X7943277Y-12299936D01*
X7943277Y-12299936D02*
X7933753Y-12280888D01*
X7933753Y-12280888D02*
X7924229Y-12242793D01*
X7924229Y-12242793D02*
X7924229Y-12195174D01*
X7924229Y-12195174D02*
X7933753Y-12157079D01*
X7933753Y-12157079D02*
X7943277Y-12138031D01*
X7943277Y-12138031D02*
X7952801Y-12128508D01*
X7952801Y-12128508D02*
X7971848Y-12118984D01*
X8114706Y-12138031D02*
X8124229Y-12128508D01*
X8124229Y-12128508D02*
X8143277Y-12118984D01*
X8143277Y-12118984D02*
X8190896Y-12118984D01*
X8190896Y-12118984D02*
X8209944Y-12128508D01*
X8209944Y-12128508D02*
X8219467Y-12138031D01*
X8219467Y-12138031D02*
X8228991Y-12157079D01*
X8228991Y-12157079D02*
X8228991Y-12176127D01*
X8228991Y-12176127D02*
X8219467Y-12204698D01*
X8219467Y-12204698D02*
X8105182Y-12318984D01*
X8105182Y-12318984D02*
X8228991Y-12318984D01*
X8295658Y-12118984D02*
X8419468Y-12118984D01*
X8419468Y-12118984D02*
X8352801Y-12195174D01*
X8352801Y-12195174D02*
X8381372Y-12195174D01*
X8381372Y-12195174D02*
X8400420Y-12204698D01*
X8400420Y-12204698D02*
X8409944Y-12214222D01*
X8409944Y-12214222D02*
X8419468Y-12233269D01*
X8419468Y-12233269D02*
X8419468Y-12280888D01*
X8419468Y-12280888D02*
X8409944Y-12299936D01*
X8409944Y-12299936D02*
X8400420Y-12309460D01*
X8400420Y-12309460D02*
X8381372Y-12318984D01*
X8381372Y-12318984D02*
X8324229Y-12318984D01*
X8324229Y-12318984D02*
X8305182Y-12309460D01*
X8305182Y-12309460D02*
X8295658Y-12299936D01*
X8590896Y-12118984D02*
X8552801Y-12118984D01*
X8552801Y-12118984D02*
X8533753Y-12128508D01*
X8533753Y-12128508D02*
X8524229Y-12138031D01*
X8524229Y-12138031D02*
X8505182Y-12166603D01*
X8505182Y-12166603D02*
X8495658Y-12204698D01*
X8495658Y-12204698D02*
X8495658Y-12280888D01*
X8495658Y-12280888D02*
X8505182Y-12299936D01*
X8505182Y-12299936D02*
X8514706Y-12309460D01*
X8514706Y-12309460D02*
X8533753Y-12318984D01*
X8533753Y-12318984D02*
X8571849Y-12318984D01*
X8571849Y-12318984D02*
X8590896Y-12309460D01*
X8590896Y-12309460D02*
X8600420Y-12299936D01*
X8600420Y-12299936D02*
X8609944Y-12280888D01*
X8609944Y-12280888D02*
X8609944Y-12233269D01*
X8609944Y-12233269D02*
X8600420Y-12214222D01*
X8600420Y-12214222D02*
X8590896Y-12204698D01*
X8590896Y-12204698D02*
X8571849Y-12195174D01*
X8571849Y-12195174D02*
X8533753Y-12195174D01*
X8533753Y-12195174D02*
X8514706Y-12204698D01*
X8514706Y-12204698D02*
X8505182Y-12214222D01*
X8505182Y-12214222D02*
X8495658Y-12233269D01*
X8686134Y-12118984D02*
X8686134Y-12157079D01*
X8762325Y-12118984D02*
X8762325Y-12157079D01*
X9057563Y-12395174D02*
X9048039Y-12385650D01*
X9048039Y-12385650D02*
X9028991Y-12357079D01*
X9028991Y-12357079D02*
X9019468Y-12338031D01*
X9019468Y-12338031D02*
X9009944Y-12309460D01*
X9009944Y-12309460D02*
X9000420Y-12261841D01*
X9000420Y-12261841D02*
X9000420Y-12223746D01*
X9000420Y-12223746D02*
X9009944Y-12176127D01*
X9009944Y-12176127D02*
X9019468Y-12147555D01*
X9019468Y-12147555D02*
X9028991Y-12128508D01*
X9028991Y-12128508D02*
X9048039Y-12099936D01*
X9048039Y-12099936D02*
X9057563Y-12090412D01*
X9114706Y-12118984D02*
X9248039Y-12118984D01*
X9248039Y-12118984D02*
X9162325Y-12318984D01*
X9476611Y-12318984D02*
X9476611Y-12118984D01*
X9562325Y-12318984D02*
X9562325Y-12214222D01*
X9562325Y-12214222D02*
X9552801Y-12195174D01*
X9552801Y-12195174D02*
X9533753Y-12185650D01*
X9533753Y-12185650D02*
X9505182Y-12185650D01*
X9505182Y-12185650D02*
X9486134Y-12195174D01*
X9486134Y-12195174D02*
X9476611Y-12204698D01*
X9686134Y-12318984D02*
X9667087Y-12309460D01*
X9667087Y-12309460D02*
X9657563Y-12299936D01*
X9657563Y-12299936D02*
X9648039Y-12280888D01*
X9648039Y-12280888D02*
X9648039Y-12223746D01*
X9648039Y-12223746D02*
X9657563Y-12204698D01*
X9657563Y-12204698D02*
X9667087Y-12195174D01*
X9667087Y-12195174D02*
X9686134Y-12185650D01*
X9686134Y-12185650D02*
X9714706Y-12185650D01*
X9714706Y-12185650D02*
X9733753Y-12195174D01*
X9733753Y-12195174D02*
X9743277Y-12204698D01*
X9743277Y-12204698D02*
X9752801Y-12223746D01*
X9752801Y-12223746D02*
X9752801Y-12280888D01*
X9752801Y-12280888D02*
X9743277Y-12299936D01*
X9743277Y-12299936D02*
X9733753Y-12309460D01*
X9733753Y-12309460D02*
X9714706Y-12318984D01*
X9714706Y-12318984D02*
X9686134Y-12318984D01*
X9867087Y-12318984D02*
X9848039Y-12309460D01*
X9848039Y-12309460D02*
X9838515Y-12290412D01*
X9838515Y-12290412D02*
X9838515Y-12118984D01*
X10019468Y-12309460D02*
X10000420Y-12318984D01*
X10000420Y-12318984D02*
X9962325Y-12318984D01*
X9962325Y-12318984D02*
X9943277Y-12309460D01*
X9943277Y-12309460D02*
X9933753Y-12290412D01*
X9933753Y-12290412D02*
X9933753Y-12214222D01*
X9933753Y-12214222D02*
X9943277Y-12195174D01*
X9943277Y-12195174D02*
X9962325Y-12185650D01*
X9962325Y-12185650D02*
X10000420Y-12185650D01*
X10000420Y-12185650D02*
X10019468Y-12195174D01*
X10019468Y-12195174D02*
X10028992Y-12214222D01*
X10028992Y-12214222D02*
X10028992Y-12233269D01*
X10028992Y-12233269D02*
X9933753Y-12252317D01*
X10105182Y-12309460D02*
X10124230Y-12318984D01*
X10124230Y-12318984D02*
X10162325Y-12318984D01*
X10162325Y-12318984D02*
X10181373Y-12309460D01*
X10181373Y-12309460D02*
X10190896Y-12290412D01*
X10190896Y-12290412D02*
X10190896Y-12280888D01*
X10190896Y-12280888D02*
X10181373Y-12261841D01*
X10181373Y-12261841D02*
X10162325Y-12252317D01*
X10162325Y-12252317D02*
X10133753Y-12252317D01*
X10133753Y-12252317D02*
X10114706Y-12242793D01*
X10114706Y-12242793D02*
X10105182Y-12223746D01*
X10105182Y-12223746D02*
X10105182Y-12214222D01*
X10105182Y-12214222D02*
X10114706Y-12195174D01*
X10114706Y-12195174D02*
X10133753Y-12185650D01*
X10133753Y-12185650D02*
X10162325Y-12185650D01*
X10162325Y-12185650D02*
X10181373Y-12195174D01*
X10257563Y-12395174D02*
X10267087Y-12385650D01*
X10267087Y-12385650D02*
X10286134Y-12357079D01*
X10286134Y-12357079D02*
X10295658Y-12338031D01*
X10295658Y-12338031D02*
X10305182Y-12309460D01*
X10305182Y-12309460D02*
X10314706Y-12261841D01*
X10314706Y-12261841D02*
X10314706Y-12223746D01*
X10314706Y-12223746D02*
X10305182Y-12176127D01*
X10305182Y-12176127D02*
X10295658Y-12147555D01*
X10295658Y-12147555D02*
X10286134Y-12128508D01*
X10286134Y-12128508D02*
X10267087Y-12099936D01*
X10267087Y-12099936D02*
X10257563Y-12090412D01*
D12*
X5482500Y-12491500D02*
G75*
G02*
X5402500Y-12491500I-40000J0D01*
G01*
X5402500Y-12491500D02*
G75*
G02*
X5482500Y-12491500I40000J0D01*
G01*
D11*
X5781372Y-12382984D02*
X5800420Y-12382984D01*
X5800420Y-12382984D02*
X5819467Y-12392508D01*
X5819467Y-12392508D02*
X5828991Y-12402031D01*
X5828991Y-12402031D02*
X5838515Y-12421079D01*
X5838515Y-12421079D02*
X5848039Y-12459174D01*
X5848039Y-12459174D02*
X5848039Y-12506793D01*
X5848039Y-12506793D02*
X5838515Y-12544888D01*
X5838515Y-12544888D02*
X5828991Y-12563936D01*
X5828991Y-12563936D02*
X5819467Y-12573460D01*
X5819467Y-12573460D02*
X5800420Y-12582984D01*
X5800420Y-12582984D02*
X5781372Y-12582984D01*
X5781372Y-12582984D02*
X5762324Y-12573460D01*
X5762324Y-12573460D02*
X5752801Y-12563936D01*
X5752801Y-12563936D02*
X5743277Y-12544888D01*
X5743277Y-12544888D02*
X5733753Y-12506793D01*
X5733753Y-12506793D02*
X5733753Y-12459174D01*
X5733753Y-12459174D02*
X5743277Y-12421079D01*
X5743277Y-12421079D02*
X5752801Y-12402031D01*
X5752801Y-12402031D02*
X5762324Y-12392508D01*
X5762324Y-12392508D02*
X5781372Y-12382984D01*
X5933753Y-12563936D02*
X5943277Y-12573460D01*
X5943277Y-12573460D02*
X5933753Y-12582984D01*
X5933753Y-12582984D02*
X5924229Y-12573460D01*
X5924229Y-12573460D02*
X5933753Y-12563936D01*
X5933753Y-12563936D02*
X5933753Y-12582984D01*
X6057562Y-12468698D02*
X6038515Y-12459174D01*
X6038515Y-12459174D02*
X6028991Y-12449650D01*
X6028991Y-12449650D02*
X6019467Y-12430603D01*
X6019467Y-12430603D02*
X6019467Y-12421079D01*
X6019467Y-12421079D02*
X6028991Y-12402031D01*
X6028991Y-12402031D02*
X6038515Y-12392508D01*
X6038515Y-12392508D02*
X6057562Y-12382984D01*
X6057562Y-12382984D02*
X6095658Y-12382984D01*
X6095658Y-12382984D02*
X6114705Y-12392508D01*
X6114705Y-12392508D02*
X6124229Y-12402031D01*
X6124229Y-12402031D02*
X6133753Y-12421079D01*
X6133753Y-12421079D02*
X6133753Y-12430603D01*
X6133753Y-12430603D02*
X6124229Y-12449650D01*
X6124229Y-12449650D02*
X6114705Y-12459174D01*
X6114705Y-12459174D02*
X6095658Y-12468698D01*
X6095658Y-12468698D02*
X6057562Y-12468698D01*
X6057562Y-12468698D02*
X6038515Y-12478222D01*
X6038515Y-12478222D02*
X6028991Y-12487746D01*
X6028991Y-12487746D02*
X6019467Y-12506793D01*
X6019467Y-12506793D02*
X6019467Y-12544888D01*
X6019467Y-12544888D02*
X6028991Y-12563936D01*
X6028991Y-12563936D02*
X6038515Y-12573460D01*
X6038515Y-12573460D02*
X6057562Y-12582984D01*
X6057562Y-12582984D02*
X6095658Y-12582984D01*
X6095658Y-12582984D02*
X6114705Y-12573460D01*
X6114705Y-12573460D02*
X6124229Y-12563936D01*
X6124229Y-12563936D02*
X6133753Y-12544888D01*
X6133753Y-12544888D02*
X6133753Y-12506793D01*
X6133753Y-12506793D02*
X6124229Y-12487746D01*
X6124229Y-12487746D02*
X6114705Y-12478222D01*
X6114705Y-12478222D02*
X6095658Y-12468698D01*
X6257562Y-12382984D02*
X6276610Y-12382984D01*
X6276610Y-12382984D02*
X6295658Y-12392508D01*
X6295658Y-12392508D02*
X6305182Y-12402031D01*
X6305182Y-12402031D02*
X6314705Y-12421079D01*
X6314705Y-12421079D02*
X6324229Y-12459174D01*
X6324229Y-12459174D02*
X6324229Y-12506793D01*
X6324229Y-12506793D02*
X6314705Y-12544888D01*
X6314705Y-12544888D02*
X6305182Y-12563936D01*
X6305182Y-12563936D02*
X6295658Y-12573460D01*
X6295658Y-12573460D02*
X6276610Y-12582984D01*
X6276610Y-12582984D02*
X6257562Y-12582984D01*
X6257562Y-12582984D02*
X6238515Y-12573460D01*
X6238515Y-12573460D02*
X6228991Y-12563936D01*
X6228991Y-12563936D02*
X6219467Y-12544888D01*
X6219467Y-12544888D02*
X6209943Y-12506793D01*
X6209943Y-12506793D02*
X6209943Y-12459174D01*
X6209943Y-12459174D02*
X6219467Y-12421079D01*
X6219467Y-12421079D02*
X6228991Y-12402031D01*
X6228991Y-12402031D02*
X6238515Y-12392508D01*
X6238515Y-12392508D02*
X6257562Y-12382984D01*
X6448039Y-12382984D02*
X6467086Y-12382984D01*
X6467086Y-12382984D02*
X6486134Y-12392508D01*
X6486134Y-12392508D02*
X6495658Y-12402031D01*
X6495658Y-12402031D02*
X6505182Y-12421079D01*
X6505182Y-12421079D02*
X6514705Y-12459174D01*
X6514705Y-12459174D02*
X6514705Y-12506793D01*
X6514705Y-12506793D02*
X6505182Y-12544888D01*
X6505182Y-12544888D02*
X6495658Y-12563936D01*
X6495658Y-12563936D02*
X6486134Y-12573460D01*
X6486134Y-12573460D02*
X6467086Y-12582984D01*
X6467086Y-12582984D02*
X6448039Y-12582984D01*
X6448039Y-12582984D02*
X6428991Y-12573460D01*
X6428991Y-12573460D02*
X6419467Y-12563936D01*
X6419467Y-12563936D02*
X6409943Y-12544888D01*
X6409943Y-12544888D02*
X6400420Y-12506793D01*
X6400420Y-12506793D02*
X6400420Y-12459174D01*
X6400420Y-12459174D02*
X6409943Y-12421079D01*
X6409943Y-12421079D02*
X6419467Y-12402031D01*
X6419467Y-12402031D02*
X6428991Y-12392508D01*
X6428991Y-12392508D02*
X6448039Y-12382984D01*
X6600420Y-12582984D02*
X6600420Y-12449650D01*
X6600420Y-12468698D02*
X6609943Y-12459174D01*
X6609943Y-12459174D02*
X6628991Y-12449650D01*
X6628991Y-12449650D02*
X6657563Y-12449650D01*
X6657563Y-12449650D02*
X6676610Y-12459174D01*
X6676610Y-12459174D02*
X6686134Y-12478222D01*
X6686134Y-12478222D02*
X6686134Y-12582984D01*
X6686134Y-12478222D02*
X6695658Y-12459174D01*
X6695658Y-12459174D02*
X6714705Y-12449650D01*
X6714705Y-12449650D02*
X6743277Y-12449650D01*
X6743277Y-12449650D02*
X6762324Y-12459174D01*
X6762324Y-12459174D02*
X6771848Y-12478222D01*
X6771848Y-12478222D02*
X6771848Y-12582984D01*
X6867086Y-12582984D02*
X6867086Y-12449650D01*
X6867086Y-12468698D02*
X6876610Y-12459174D01*
X6876610Y-12459174D02*
X6895658Y-12449650D01*
X6895658Y-12449650D02*
X6924229Y-12449650D01*
X6924229Y-12449650D02*
X6943277Y-12459174D01*
X6943277Y-12459174D02*
X6952801Y-12478222D01*
X6952801Y-12478222D02*
X6952801Y-12582984D01*
X6952801Y-12478222D02*
X6962324Y-12459174D01*
X6962324Y-12459174D02*
X6981372Y-12449650D01*
X6981372Y-12449650D02*
X7009943Y-12449650D01*
X7009943Y-12449650D02*
X7028991Y-12459174D01*
X7028991Y-12459174D02*
X7038515Y-12478222D01*
X7038515Y-12478222D02*
X7038515Y-12582984D01*
X7428991Y-12373460D02*
X7257563Y-12630603D01*
X7686134Y-12382984D02*
X7705182Y-12382984D01*
X7705182Y-12382984D02*
X7724229Y-12392508D01*
X7724229Y-12392508D02*
X7733753Y-12402031D01*
X7733753Y-12402031D02*
X7743277Y-12421079D01*
X7743277Y-12421079D02*
X7752801Y-12459174D01*
X7752801Y-12459174D02*
X7752801Y-12506793D01*
X7752801Y-12506793D02*
X7743277Y-12544888D01*
X7743277Y-12544888D02*
X7733753Y-12563936D01*
X7733753Y-12563936D02*
X7724229Y-12573460D01*
X7724229Y-12573460D02*
X7705182Y-12582984D01*
X7705182Y-12582984D02*
X7686134Y-12582984D01*
X7686134Y-12582984D02*
X7667086Y-12573460D01*
X7667086Y-12573460D02*
X7657563Y-12563936D01*
X7657563Y-12563936D02*
X7648039Y-12544888D01*
X7648039Y-12544888D02*
X7638515Y-12506793D01*
X7638515Y-12506793D02*
X7638515Y-12459174D01*
X7638515Y-12459174D02*
X7648039Y-12421079D01*
X7648039Y-12421079D02*
X7657563Y-12402031D01*
X7657563Y-12402031D02*
X7667086Y-12392508D01*
X7667086Y-12392508D02*
X7686134Y-12382984D01*
X7838515Y-12563936D02*
X7848039Y-12573460D01*
X7848039Y-12573460D02*
X7838515Y-12582984D01*
X7838515Y-12582984D02*
X7828991Y-12573460D01*
X7828991Y-12573460D02*
X7838515Y-12563936D01*
X7838515Y-12563936D02*
X7838515Y-12582984D01*
X7971848Y-12382984D02*
X7990896Y-12382984D01*
X7990896Y-12382984D02*
X8009944Y-12392508D01*
X8009944Y-12392508D02*
X8019467Y-12402031D01*
X8019467Y-12402031D02*
X8028991Y-12421079D01*
X8028991Y-12421079D02*
X8038515Y-12459174D01*
X8038515Y-12459174D02*
X8038515Y-12506793D01*
X8038515Y-12506793D02*
X8028991Y-12544888D01*
X8028991Y-12544888D02*
X8019467Y-12563936D01*
X8019467Y-12563936D02*
X8009944Y-12573460D01*
X8009944Y-12573460D02*
X7990896Y-12582984D01*
X7990896Y-12582984D02*
X7971848Y-12582984D01*
X7971848Y-12582984D02*
X7952801Y-12573460D01*
X7952801Y-12573460D02*
X7943277Y-12563936D01*
X7943277Y-12563936D02*
X7933753Y-12544888D01*
X7933753Y-12544888D02*
X7924229Y-12506793D01*
X7924229Y-12506793D02*
X7924229Y-12459174D01*
X7924229Y-12459174D02*
X7933753Y-12421079D01*
X7933753Y-12421079D02*
X7943277Y-12402031D01*
X7943277Y-12402031D02*
X7952801Y-12392508D01*
X7952801Y-12392508D02*
X7971848Y-12382984D01*
X8105182Y-12382984D02*
X8228991Y-12382984D01*
X8228991Y-12382984D02*
X8162325Y-12459174D01*
X8162325Y-12459174D02*
X8190896Y-12459174D01*
X8190896Y-12459174D02*
X8209944Y-12468698D01*
X8209944Y-12468698D02*
X8219467Y-12478222D01*
X8219467Y-12478222D02*
X8228991Y-12497269D01*
X8228991Y-12497269D02*
X8228991Y-12544888D01*
X8228991Y-12544888D02*
X8219467Y-12563936D01*
X8219467Y-12563936D02*
X8209944Y-12573460D01*
X8209944Y-12573460D02*
X8190896Y-12582984D01*
X8190896Y-12582984D02*
X8133753Y-12582984D01*
X8133753Y-12582984D02*
X8114706Y-12573460D01*
X8114706Y-12573460D02*
X8105182Y-12563936D01*
X8419468Y-12582984D02*
X8305182Y-12582984D01*
X8362325Y-12582984D02*
X8362325Y-12382984D01*
X8362325Y-12382984D02*
X8343277Y-12411555D01*
X8343277Y-12411555D02*
X8324229Y-12430603D01*
X8324229Y-12430603D02*
X8305182Y-12440127D01*
X8600420Y-12382984D02*
X8505182Y-12382984D01*
X8505182Y-12382984D02*
X8495658Y-12478222D01*
X8495658Y-12478222D02*
X8505182Y-12468698D01*
X8505182Y-12468698D02*
X8524229Y-12459174D01*
X8524229Y-12459174D02*
X8571849Y-12459174D01*
X8571849Y-12459174D02*
X8590896Y-12468698D01*
X8590896Y-12468698D02*
X8600420Y-12478222D01*
X8600420Y-12478222D02*
X8609944Y-12497269D01*
X8609944Y-12497269D02*
X8609944Y-12544888D01*
X8609944Y-12544888D02*
X8600420Y-12563936D01*
X8600420Y-12563936D02*
X8590896Y-12573460D01*
X8590896Y-12573460D02*
X8571849Y-12582984D01*
X8571849Y-12582984D02*
X8524229Y-12582984D01*
X8524229Y-12582984D02*
X8505182Y-12573460D01*
X8505182Y-12573460D02*
X8495658Y-12563936D01*
X8686134Y-12382984D02*
X8686134Y-12421079D01*
X8762325Y-12382984D02*
X8762325Y-12421079D01*
X9057563Y-12659174D02*
X9048039Y-12649650D01*
X9048039Y-12649650D02*
X9028991Y-12621079D01*
X9028991Y-12621079D02*
X9019468Y-12602031D01*
X9019468Y-12602031D02*
X9009944Y-12573460D01*
X9009944Y-12573460D02*
X9000420Y-12525841D01*
X9000420Y-12525841D02*
X9000420Y-12487746D01*
X9000420Y-12487746D02*
X9009944Y-12440127D01*
X9009944Y-12440127D02*
X9019468Y-12411555D01*
X9019468Y-12411555D02*
X9028991Y-12392508D01*
X9028991Y-12392508D02*
X9048039Y-12363936D01*
X9048039Y-12363936D02*
X9057563Y-12354412D01*
X9143277Y-12582984D02*
X9181372Y-12582984D01*
X9181372Y-12582984D02*
X9200420Y-12573460D01*
X9200420Y-12573460D02*
X9209944Y-12563936D01*
X9209944Y-12563936D02*
X9228991Y-12535365D01*
X9228991Y-12535365D02*
X9238515Y-12497269D01*
X9238515Y-12497269D02*
X9238515Y-12421079D01*
X9238515Y-12421079D02*
X9228991Y-12402031D01*
X9228991Y-12402031D02*
X9219468Y-12392508D01*
X9219468Y-12392508D02*
X9200420Y-12382984D01*
X9200420Y-12382984D02*
X9162325Y-12382984D01*
X9162325Y-12382984D02*
X9143277Y-12392508D01*
X9143277Y-12392508D02*
X9133753Y-12402031D01*
X9133753Y-12402031D02*
X9124230Y-12421079D01*
X9124230Y-12421079D02*
X9124230Y-12468698D01*
X9124230Y-12468698D02*
X9133753Y-12487746D01*
X9133753Y-12487746D02*
X9143277Y-12497269D01*
X9143277Y-12497269D02*
X9162325Y-12506793D01*
X9162325Y-12506793D02*
X9200420Y-12506793D01*
X9200420Y-12506793D02*
X9219468Y-12497269D01*
X9219468Y-12497269D02*
X9228991Y-12487746D01*
X9228991Y-12487746D02*
X9238515Y-12468698D01*
X9419468Y-12382984D02*
X9324230Y-12382984D01*
X9324230Y-12382984D02*
X9314706Y-12478222D01*
X9314706Y-12478222D02*
X9324230Y-12468698D01*
X9324230Y-12468698D02*
X9343277Y-12459174D01*
X9343277Y-12459174D02*
X9390896Y-12459174D01*
X9390896Y-12459174D02*
X9409944Y-12468698D01*
X9409944Y-12468698D02*
X9419468Y-12478222D01*
X9419468Y-12478222D02*
X9428991Y-12497269D01*
X9428991Y-12497269D02*
X9428991Y-12544888D01*
X9428991Y-12544888D02*
X9419468Y-12563936D01*
X9419468Y-12563936D02*
X9409944Y-12573460D01*
X9409944Y-12573460D02*
X9390896Y-12582984D01*
X9390896Y-12582984D02*
X9343277Y-12582984D01*
X9343277Y-12582984D02*
X9324230Y-12573460D01*
X9324230Y-12573460D02*
X9314706Y-12563936D01*
X9667087Y-12582984D02*
X9667087Y-12382984D01*
X9752801Y-12582984D02*
X9752801Y-12478222D01*
X9752801Y-12478222D02*
X9743277Y-12459174D01*
X9743277Y-12459174D02*
X9724230Y-12449650D01*
X9724230Y-12449650D02*
X9695658Y-12449650D01*
X9695658Y-12449650D02*
X9676611Y-12459174D01*
X9676611Y-12459174D02*
X9667087Y-12468698D01*
X9876611Y-12582984D02*
X9857563Y-12573460D01*
X9857563Y-12573460D02*
X9848039Y-12563936D01*
X9848039Y-12563936D02*
X9838515Y-12544888D01*
X9838515Y-12544888D02*
X9838515Y-12487746D01*
X9838515Y-12487746D02*
X9848039Y-12468698D01*
X9848039Y-12468698D02*
X9857563Y-12459174D01*
X9857563Y-12459174D02*
X9876611Y-12449650D01*
X9876611Y-12449650D02*
X9905182Y-12449650D01*
X9905182Y-12449650D02*
X9924230Y-12459174D01*
X9924230Y-12459174D02*
X9933753Y-12468698D01*
X9933753Y-12468698D02*
X9943277Y-12487746D01*
X9943277Y-12487746D02*
X9943277Y-12544888D01*
X9943277Y-12544888D02*
X9933753Y-12563936D01*
X9933753Y-12563936D02*
X9924230Y-12573460D01*
X9924230Y-12573460D02*
X9905182Y-12582984D01*
X9905182Y-12582984D02*
X9876611Y-12582984D01*
X10057563Y-12582984D02*
X10038515Y-12573460D01*
X10038515Y-12573460D02*
X10028992Y-12554412D01*
X10028992Y-12554412D02*
X10028992Y-12382984D01*
X10209944Y-12573460D02*
X10190896Y-12582984D01*
X10190896Y-12582984D02*
X10152801Y-12582984D01*
X10152801Y-12582984D02*
X10133753Y-12573460D01*
X10133753Y-12573460D02*
X10124230Y-12554412D01*
X10124230Y-12554412D02*
X10124230Y-12478222D01*
X10124230Y-12478222D02*
X10133753Y-12459174D01*
X10133753Y-12459174D02*
X10152801Y-12449650D01*
X10152801Y-12449650D02*
X10190896Y-12449650D01*
X10190896Y-12449650D02*
X10209944Y-12459174D01*
X10209944Y-12459174D02*
X10219468Y-12478222D01*
X10219468Y-12478222D02*
X10219468Y-12497269D01*
X10219468Y-12497269D02*
X10124230Y-12516317D01*
X10295658Y-12573460D02*
X10314706Y-12582984D01*
X10314706Y-12582984D02*
X10352801Y-12582984D01*
X10352801Y-12582984D02*
X10371849Y-12573460D01*
X10371849Y-12573460D02*
X10381373Y-12554412D01*
X10381373Y-12554412D02*
X10381373Y-12544888D01*
X10381373Y-12544888D02*
X10371849Y-12525841D01*
X10371849Y-12525841D02*
X10352801Y-12516317D01*
X10352801Y-12516317D02*
X10324230Y-12516317D01*
X10324230Y-12516317D02*
X10305182Y-12506793D01*
X10305182Y-12506793D02*
X10295658Y-12487746D01*
X10295658Y-12487746D02*
X10295658Y-12478222D01*
X10295658Y-12478222D02*
X10305182Y-12459174D01*
X10305182Y-12459174D02*
X10324230Y-12449650D01*
X10324230Y-12449650D02*
X10352801Y-12449650D01*
X10352801Y-12449650D02*
X10371849Y-12459174D01*
X10448039Y-12659174D02*
X10457563Y-12649650D01*
X10457563Y-12649650D02*
X10476611Y-12621079D01*
X10476611Y-12621079D02*
X10486134Y-12602031D01*
X10486134Y-12602031D02*
X10495658Y-12573460D01*
X10495658Y-12573460D02*
X10505182Y-12525841D01*
X10505182Y-12525841D02*
X10505182Y-12487746D01*
X10505182Y-12487746D02*
X10495658Y-12440127D01*
X10495658Y-12440127D02*
X10486134Y-12411555D01*
X10486134Y-12411555D02*
X10476611Y-12392508D01*
X10476611Y-12392508D02*
X10457563Y-12363936D01*
X10457563Y-12363936D02*
X10448039Y-12354412D01*
D12*
X5432500Y-12705500D02*
X5432500Y-12805500D01*
X5382500Y-12755500D02*
X5482500Y-12755500D01*
D11*
X5848039Y-12846984D02*
X5733753Y-12846984D01*
X5790896Y-12846984D02*
X5790896Y-12646984D01*
X5790896Y-12646984D02*
X5771848Y-12675555D01*
X5771848Y-12675555D02*
X5752801Y-12694603D01*
X5752801Y-12694603D02*
X5733753Y-12704127D01*
X5933753Y-12827936D02*
X5943277Y-12837460D01*
X5943277Y-12837460D02*
X5933753Y-12846984D01*
X5933753Y-12846984D02*
X5924229Y-12837460D01*
X5924229Y-12837460D02*
X5933753Y-12827936D01*
X5933753Y-12827936D02*
X5933753Y-12846984D01*
X6067086Y-12646984D02*
X6086134Y-12646984D01*
X6086134Y-12646984D02*
X6105182Y-12656508D01*
X6105182Y-12656508D02*
X6114705Y-12666031D01*
X6114705Y-12666031D02*
X6124229Y-12685079D01*
X6124229Y-12685079D02*
X6133753Y-12723174D01*
X6133753Y-12723174D02*
X6133753Y-12770793D01*
X6133753Y-12770793D02*
X6124229Y-12808888D01*
X6124229Y-12808888D02*
X6114705Y-12827936D01*
X6114705Y-12827936D02*
X6105182Y-12837460D01*
X6105182Y-12837460D02*
X6086134Y-12846984D01*
X6086134Y-12846984D02*
X6067086Y-12846984D01*
X6067086Y-12846984D02*
X6048039Y-12837460D01*
X6048039Y-12837460D02*
X6038515Y-12827936D01*
X6038515Y-12827936D02*
X6028991Y-12808888D01*
X6028991Y-12808888D02*
X6019467Y-12770793D01*
X6019467Y-12770793D02*
X6019467Y-12723174D01*
X6019467Y-12723174D02*
X6028991Y-12685079D01*
X6028991Y-12685079D02*
X6038515Y-12666031D01*
X6038515Y-12666031D02*
X6048039Y-12656508D01*
X6048039Y-12656508D02*
X6067086Y-12646984D01*
X6257562Y-12646984D02*
X6276610Y-12646984D01*
X6276610Y-12646984D02*
X6295658Y-12656508D01*
X6295658Y-12656508D02*
X6305182Y-12666031D01*
X6305182Y-12666031D02*
X6314705Y-12685079D01*
X6314705Y-12685079D02*
X6324229Y-12723174D01*
X6324229Y-12723174D02*
X6324229Y-12770793D01*
X6324229Y-12770793D02*
X6314705Y-12808888D01*
X6314705Y-12808888D02*
X6305182Y-12827936D01*
X6305182Y-12827936D02*
X6295658Y-12837460D01*
X6295658Y-12837460D02*
X6276610Y-12846984D01*
X6276610Y-12846984D02*
X6257562Y-12846984D01*
X6257562Y-12846984D02*
X6238515Y-12837460D01*
X6238515Y-12837460D02*
X6228991Y-12827936D01*
X6228991Y-12827936D02*
X6219467Y-12808888D01*
X6219467Y-12808888D02*
X6209943Y-12770793D01*
X6209943Y-12770793D02*
X6209943Y-12723174D01*
X6209943Y-12723174D02*
X6219467Y-12685079D01*
X6219467Y-12685079D02*
X6228991Y-12666031D01*
X6228991Y-12666031D02*
X6238515Y-12656508D01*
X6238515Y-12656508D02*
X6257562Y-12646984D01*
X6448039Y-12646984D02*
X6467086Y-12646984D01*
X6467086Y-12646984D02*
X6486134Y-12656508D01*
X6486134Y-12656508D02*
X6495658Y-12666031D01*
X6495658Y-12666031D02*
X6505182Y-12685079D01*
X6505182Y-12685079D02*
X6514705Y-12723174D01*
X6514705Y-12723174D02*
X6514705Y-12770793D01*
X6514705Y-12770793D02*
X6505182Y-12808888D01*
X6505182Y-12808888D02*
X6495658Y-12827936D01*
X6495658Y-12827936D02*
X6486134Y-12837460D01*
X6486134Y-12837460D02*
X6467086Y-12846984D01*
X6467086Y-12846984D02*
X6448039Y-12846984D01*
X6448039Y-12846984D02*
X6428991Y-12837460D01*
X6428991Y-12837460D02*
X6419467Y-12827936D01*
X6419467Y-12827936D02*
X6409943Y-12808888D01*
X6409943Y-12808888D02*
X6400420Y-12770793D01*
X6400420Y-12770793D02*
X6400420Y-12723174D01*
X6400420Y-12723174D02*
X6409943Y-12685079D01*
X6409943Y-12685079D02*
X6419467Y-12666031D01*
X6419467Y-12666031D02*
X6428991Y-12656508D01*
X6428991Y-12656508D02*
X6448039Y-12646984D01*
X6600420Y-12846984D02*
X6600420Y-12713650D01*
X6600420Y-12732698D02*
X6609943Y-12723174D01*
X6609943Y-12723174D02*
X6628991Y-12713650D01*
X6628991Y-12713650D02*
X6657563Y-12713650D01*
X6657563Y-12713650D02*
X6676610Y-12723174D01*
X6676610Y-12723174D02*
X6686134Y-12742222D01*
X6686134Y-12742222D02*
X6686134Y-12846984D01*
X6686134Y-12742222D02*
X6695658Y-12723174D01*
X6695658Y-12723174D02*
X6714705Y-12713650D01*
X6714705Y-12713650D02*
X6743277Y-12713650D01*
X6743277Y-12713650D02*
X6762324Y-12723174D01*
X6762324Y-12723174D02*
X6771848Y-12742222D01*
X6771848Y-12742222D02*
X6771848Y-12846984D01*
X6867086Y-12846984D02*
X6867086Y-12713650D01*
X6867086Y-12732698D02*
X6876610Y-12723174D01*
X6876610Y-12723174D02*
X6895658Y-12713650D01*
X6895658Y-12713650D02*
X6924229Y-12713650D01*
X6924229Y-12713650D02*
X6943277Y-12723174D01*
X6943277Y-12723174D02*
X6952801Y-12742222D01*
X6952801Y-12742222D02*
X6952801Y-12846984D01*
X6952801Y-12742222D02*
X6962324Y-12723174D01*
X6962324Y-12723174D02*
X6981372Y-12713650D01*
X6981372Y-12713650D02*
X7009943Y-12713650D01*
X7009943Y-12713650D02*
X7028991Y-12723174D01*
X7028991Y-12723174D02*
X7038515Y-12742222D01*
X7038515Y-12742222D02*
X7038515Y-12846984D01*
X7428991Y-12637460D02*
X7257563Y-12894603D01*
X7686134Y-12646984D02*
X7705182Y-12646984D01*
X7705182Y-12646984D02*
X7724229Y-12656508D01*
X7724229Y-12656508D02*
X7733753Y-12666031D01*
X7733753Y-12666031D02*
X7743277Y-12685079D01*
X7743277Y-12685079D02*
X7752801Y-12723174D01*
X7752801Y-12723174D02*
X7752801Y-12770793D01*
X7752801Y-12770793D02*
X7743277Y-12808888D01*
X7743277Y-12808888D02*
X7733753Y-12827936D01*
X7733753Y-12827936D02*
X7724229Y-12837460D01*
X7724229Y-12837460D02*
X7705182Y-12846984D01*
X7705182Y-12846984D02*
X7686134Y-12846984D01*
X7686134Y-12846984D02*
X7667086Y-12837460D01*
X7667086Y-12837460D02*
X7657563Y-12827936D01*
X7657563Y-12827936D02*
X7648039Y-12808888D01*
X7648039Y-12808888D02*
X7638515Y-12770793D01*
X7638515Y-12770793D02*
X7638515Y-12723174D01*
X7638515Y-12723174D02*
X7648039Y-12685079D01*
X7648039Y-12685079D02*
X7657563Y-12666031D01*
X7657563Y-12666031D02*
X7667086Y-12656508D01*
X7667086Y-12656508D02*
X7686134Y-12646984D01*
X7838515Y-12827936D02*
X7848039Y-12837460D01*
X7848039Y-12837460D02*
X7838515Y-12846984D01*
X7838515Y-12846984D02*
X7828991Y-12837460D01*
X7828991Y-12837460D02*
X7838515Y-12827936D01*
X7838515Y-12827936D02*
X7838515Y-12846984D01*
X7971848Y-12646984D02*
X7990896Y-12646984D01*
X7990896Y-12646984D02*
X8009944Y-12656508D01*
X8009944Y-12656508D02*
X8019467Y-12666031D01*
X8019467Y-12666031D02*
X8028991Y-12685079D01*
X8028991Y-12685079D02*
X8038515Y-12723174D01*
X8038515Y-12723174D02*
X8038515Y-12770793D01*
X8038515Y-12770793D02*
X8028991Y-12808888D01*
X8028991Y-12808888D02*
X8019467Y-12827936D01*
X8019467Y-12827936D02*
X8009944Y-12837460D01*
X8009944Y-12837460D02*
X7990896Y-12846984D01*
X7990896Y-12846984D02*
X7971848Y-12846984D01*
X7971848Y-12846984D02*
X7952801Y-12837460D01*
X7952801Y-12837460D02*
X7943277Y-12827936D01*
X7943277Y-12827936D02*
X7933753Y-12808888D01*
X7933753Y-12808888D02*
X7924229Y-12770793D01*
X7924229Y-12770793D02*
X7924229Y-12723174D01*
X7924229Y-12723174D02*
X7933753Y-12685079D01*
X7933753Y-12685079D02*
X7943277Y-12666031D01*
X7943277Y-12666031D02*
X7952801Y-12656508D01*
X7952801Y-12656508D02*
X7971848Y-12646984D01*
X8105182Y-12646984D02*
X8228991Y-12646984D01*
X8228991Y-12646984D02*
X8162325Y-12723174D01*
X8162325Y-12723174D02*
X8190896Y-12723174D01*
X8190896Y-12723174D02*
X8209944Y-12732698D01*
X8209944Y-12732698D02*
X8219467Y-12742222D01*
X8219467Y-12742222D02*
X8228991Y-12761269D01*
X8228991Y-12761269D02*
X8228991Y-12808888D01*
X8228991Y-12808888D02*
X8219467Y-12827936D01*
X8219467Y-12827936D02*
X8209944Y-12837460D01*
X8209944Y-12837460D02*
X8190896Y-12846984D01*
X8190896Y-12846984D02*
X8133753Y-12846984D01*
X8133753Y-12846984D02*
X8114706Y-12837460D01*
X8114706Y-12837460D02*
X8105182Y-12827936D01*
X8324229Y-12846984D02*
X8362325Y-12846984D01*
X8362325Y-12846984D02*
X8381372Y-12837460D01*
X8381372Y-12837460D02*
X8390896Y-12827936D01*
X8390896Y-12827936D02*
X8409944Y-12799365D01*
X8409944Y-12799365D02*
X8419468Y-12761269D01*
X8419468Y-12761269D02*
X8419468Y-12685079D01*
X8419468Y-12685079D02*
X8409944Y-12666031D01*
X8409944Y-12666031D02*
X8400420Y-12656508D01*
X8400420Y-12656508D02*
X8381372Y-12646984D01*
X8381372Y-12646984D02*
X8343277Y-12646984D01*
X8343277Y-12646984D02*
X8324229Y-12656508D01*
X8324229Y-12656508D02*
X8314706Y-12666031D01*
X8314706Y-12666031D02*
X8305182Y-12685079D01*
X8305182Y-12685079D02*
X8305182Y-12732698D01*
X8305182Y-12732698D02*
X8314706Y-12751746D01*
X8314706Y-12751746D02*
X8324229Y-12761269D01*
X8324229Y-12761269D02*
X8343277Y-12770793D01*
X8343277Y-12770793D02*
X8381372Y-12770793D01*
X8381372Y-12770793D02*
X8400420Y-12761269D01*
X8400420Y-12761269D02*
X8409944Y-12751746D01*
X8409944Y-12751746D02*
X8419468Y-12732698D01*
X8590896Y-12713650D02*
X8590896Y-12846984D01*
X8543277Y-12637460D02*
X8495658Y-12780317D01*
X8495658Y-12780317D02*
X8619468Y-12780317D01*
X8686134Y-12646984D02*
X8686134Y-12685079D01*
X8762325Y-12646984D02*
X8762325Y-12685079D01*
X9057563Y-12923174D02*
X9048039Y-12913650D01*
X9048039Y-12913650D02*
X9028991Y-12885079D01*
X9028991Y-12885079D02*
X9019468Y-12866031D01*
X9019468Y-12866031D02*
X9009944Y-12837460D01*
X9009944Y-12837460D02*
X9000420Y-12789841D01*
X9000420Y-12789841D02*
X9000420Y-12751746D01*
X9000420Y-12751746D02*
X9009944Y-12704127D01*
X9009944Y-12704127D02*
X9019468Y-12675555D01*
X9019468Y-12675555D02*
X9028991Y-12656508D01*
X9028991Y-12656508D02*
X9048039Y-12627936D01*
X9048039Y-12627936D02*
X9057563Y-12618412D01*
X9114706Y-12646984D02*
X9238515Y-12646984D01*
X9238515Y-12646984D02*
X9171849Y-12723174D01*
X9171849Y-12723174D02*
X9200420Y-12723174D01*
X9200420Y-12723174D02*
X9219468Y-12732698D01*
X9219468Y-12732698D02*
X9228991Y-12742222D01*
X9228991Y-12742222D02*
X9238515Y-12761269D01*
X9238515Y-12761269D02*
X9238515Y-12808888D01*
X9238515Y-12808888D02*
X9228991Y-12827936D01*
X9228991Y-12827936D02*
X9219468Y-12837460D01*
X9219468Y-12837460D02*
X9200420Y-12846984D01*
X9200420Y-12846984D02*
X9143277Y-12846984D01*
X9143277Y-12846984D02*
X9124230Y-12837460D01*
X9124230Y-12837460D02*
X9114706Y-12827936D01*
X9362325Y-12646984D02*
X9381372Y-12646984D01*
X9381372Y-12646984D02*
X9400420Y-12656508D01*
X9400420Y-12656508D02*
X9409944Y-12666031D01*
X9409944Y-12666031D02*
X9419468Y-12685079D01*
X9419468Y-12685079D02*
X9428991Y-12723174D01*
X9428991Y-12723174D02*
X9428991Y-12770793D01*
X9428991Y-12770793D02*
X9419468Y-12808888D01*
X9419468Y-12808888D02*
X9409944Y-12827936D01*
X9409944Y-12827936D02*
X9400420Y-12837460D01*
X9400420Y-12837460D02*
X9381372Y-12846984D01*
X9381372Y-12846984D02*
X9362325Y-12846984D01*
X9362325Y-12846984D02*
X9343277Y-12837460D01*
X9343277Y-12837460D02*
X9333753Y-12827936D01*
X9333753Y-12827936D02*
X9324230Y-12808888D01*
X9324230Y-12808888D02*
X9314706Y-12770793D01*
X9314706Y-12770793D02*
X9314706Y-12723174D01*
X9314706Y-12723174D02*
X9324230Y-12685079D01*
X9324230Y-12685079D02*
X9333753Y-12666031D01*
X9333753Y-12666031D02*
X9343277Y-12656508D01*
X9343277Y-12656508D02*
X9362325Y-12646984D01*
X9667087Y-12846984D02*
X9667087Y-12646984D01*
X9752801Y-12846984D02*
X9752801Y-12742222D01*
X9752801Y-12742222D02*
X9743277Y-12723174D01*
X9743277Y-12723174D02*
X9724230Y-12713650D01*
X9724230Y-12713650D02*
X9695658Y-12713650D01*
X9695658Y-12713650D02*
X9676611Y-12723174D01*
X9676611Y-12723174D02*
X9667087Y-12732698D01*
X9876611Y-12846984D02*
X9857563Y-12837460D01*
X9857563Y-12837460D02*
X9848039Y-12827936D01*
X9848039Y-12827936D02*
X9838515Y-12808888D01*
X9838515Y-12808888D02*
X9838515Y-12751746D01*
X9838515Y-12751746D02*
X9848039Y-12732698D01*
X9848039Y-12732698D02*
X9857563Y-12723174D01*
X9857563Y-12723174D02*
X9876611Y-12713650D01*
X9876611Y-12713650D02*
X9905182Y-12713650D01*
X9905182Y-12713650D02*
X9924230Y-12723174D01*
X9924230Y-12723174D02*
X9933753Y-12732698D01*
X9933753Y-12732698D02*
X9943277Y-12751746D01*
X9943277Y-12751746D02*
X9943277Y-12808888D01*
X9943277Y-12808888D02*
X9933753Y-12827936D01*
X9933753Y-12827936D02*
X9924230Y-12837460D01*
X9924230Y-12837460D02*
X9905182Y-12846984D01*
X9905182Y-12846984D02*
X9876611Y-12846984D01*
X10057563Y-12846984D02*
X10038515Y-12837460D01*
X10038515Y-12837460D02*
X10028992Y-12818412D01*
X10028992Y-12818412D02*
X10028992Y-12646984D01*
X10209944Y-12837460D02*
X10190896Y-12846984D01*
X10190896Y-12846984D02*
X10152801Y-12846984D01*
X10152801Y-12846984D02*
X10133753Y-12837460D01*
X10133753Y-12837460D02*
X10124230Y-12818412D01*
X10124230Y-12818412D02*
X10124230Y-12742222D01*
X10124230Y-12742222D02*
X10133753Y-12723174D01*
X10133753Y-12723174D02*
X10152801Y-12713650D01*
X10152801Y-12713650D02*
X10190896Y-12713650D01*
X10190896Y-12713650D02*
X10209944Y-12723174D01*
X10209944Y-12723174D02*
X10219468Y-12742222D01*
X10219468Y-12742222D02*
X10219468Y-12761269D01*
X10219468Y-12761269D02*
X10124230Y-12780317D01*
X10295658Y-12837460D02*
X10314706Y-12846984D01*
X10314706Y-12846984D02*
X10352801Y-12846984D01*
X10352801Y-12846984D02*
X10371849Y-12837460D01*
X10371849Y-12837460D02*
X10381373Y-12818412D01*
X10381373Y-12818412D02*
X10381373Y-12808888D01*
X10381373Y-12808888D02*
X10371849Y-12789841D01*
X10371849Y-12789841D02*
X10352801Y-12780317D01*
X10352801Y-12780317D02*
X10324230Y-12780317D01*
X10324230Y-12780317D02*
X10305182Y-12770793D01*
X10305182Y-12770793D02*
X10295658Y-12751746D01*
X10295658Y-12751746D02*
X10295658Y-12742222D01*
X10295658Y-12742222D02*
X10305182Y-12723174D01*
X10305182Y-12723174D02*
X10324230Y-12713650D01*
X10324230Y-12713650D02*
X10352801Y-12713650D01*
X10352801Y-12713650D02*
X10371849Y-12723174D01*
X10448039Y-12923174D02*
X10457563Y-12913650D01*
X10457563Y-12913650D02*
X10476611Y-12885079D01*
X10476611Y-12885079D02*
X10486134Y-12866031D01*
X10486134Y-12866031D02*
X10495658Y-12837460D01*
X10495658Y-12837460D02*
X10505182Y-12789841D01*
X10505182Y-12789841D02*
X10505182Y-12751746D01*
X10505182Y-12751746D02*
X10495658Y-12704127D01*
X10495658Y-12704127D02*
X10486134Y-12675555D01*
X10486134Y-12675555D02*
X10476611Y-12656508D01*
X10476611Y-12656508D02*
X10457563Y-12627936D01*
X10457563Y-12627936D02*
X10448039Y-12618412D01*
D13*
X5466391Y-13058391D02*
X5466391Y-12980609D01*
X5388609Y-12980609D01*
X5388609Y-13058391D01*
X5466391Y-13058391D01*
D11*
X5848039Y-13110984D02*
X5733753Y-13110984D01*
X5790896Y-13110984D02*
X5790896Y-12910984D01*
X5790896Y-12910984D02*
X5771848Y-12939555D01*
X5771848Y-12939555D02*
X5752801Y-12958603D01*
X5752801Y-12958603D02*
X5733753Y-12968127D01*
X5933753Y-13091936D02*
X5943277Y-13101460D01*
X5943277Y-13101460D02*
X5933753Y-13110984D01*
X5933753Y-13110984D02*
X5924229Y-13101460D01*
X5924229Y-13101460D02*
X5933753Y-13091936D01*
X5933753Y-13091936D02*
X5933753Y-13110984D01*
X6133753Y-13110984D02*
X6019467Y-13110984D01*
X6076610Y-13110984D02*
X6076610Y-12910984D01*
X6076610Y-12910984D02*
X6057562Y-12939555D01*
X6057562Y-12939555D02*
X6038515Y-12958603D01*
X6038515Y-12958603D02*
X6019467Y-12968127D01*
X6257562Y-12910984D02*
X6276610Y-12910984D01*
X6276610Y-12910984D02*
X6295658Y-12920508D01*
X6295658Y-12920508D02*
X6305182Y-12930031D01*
X6305182Y-12930031D02*
X6314705Y-12949079D01*
X6314705Y-12949079D02*
X6324229Y-12987174D01*
X6324229Y-12987174D02*
X6324229Y-13034793D01*
X6324229Y-13034793D02*
X6314705Y-13072888D01*
X6314705Y-13072888D02*
X6305182Y-13091936D01*
X6305182Y-13091936D02*
X6295658Y-13101460D01*
X6295658Y-13101460D02*
X6276610Y-13110984D01*
X6276610Y-13110984D02*
X6257562Y-13110984D01*
X6257562Y-13110984D02*
X6238515Y-13101460D01*
X6238515Y-13101460D02*
X6228991Y-13091936D01*
X6228991Y-13091936D02*
X6219467Y-13072888D01*
X6219467Y-13072888D02*
X6209943Y-13034793D01*
X6209943Y-13034793D02*
X6209943Y-12987174D01*
X6209943Y-12987174D02*
X6219467Y-12949079D01*
X6219467Y-12949079D02*
X6228991Y-12930031D01*
X6228991Y-12930031D02*
X6238515Y-12920508D01*
X6238515Y-12920508D02*
X6257562Y-12910984D01*
X6448039Y-12910984D02*
X6467086Y-12910984D01*
X6467086Y-12910984D02*
X6486134Y-12920508D01*
X6486134Y-12920508D02*
X6495658Y-12930031D01*
X6495658Y-12930031D02*
X6505182Y-12949079D01*
X6505182Y-12949079D02*
X6514705Y-12987174D01*
X6514705Y-12987174D02*
X6514705Y-13034793D01*
X6514705Y-13034793D02*
X6505182Y-13072888D01*
X6505182Y-13072888D02*
X6495658Y-13091936D01*
X6495658Y-13091936D02*
X6486134Y-13101460D01*
X6486134Y-13101460D02*
X6467086Y-13110984D01*
X6467086Y-13110984D02*
X6448039Y-13110984D01*
X6448039Y-13110984D02*
X6428991Y-13101460D01*
X6428991Y-13101460D02*
X6419467Y-13091936D01*
X6419467Y-13091936D02*
X6409943Y-13072888D01*
X6409943Y-13072888D02*
X6400420Y-13034793D01*
X6400420Y-13034793D02*
X6400420Y-12987174D01*
X6400420Y-12987174D02*
X6409943Y-12949079D01*
X6409943Y-12949079D02*
X6419467Y-12930031D01*
X6419467Y-12930031D02*
X6428991Y-12920508D01*
X6428991Y-12920508D02*
X6448039Y-12910984D01*
X6600420Y-13110984D02*
X6600420Y-12977650D01*
X6600420Y-12996698D02*
X6609943Y-12987174D01*
X6609943Y-12987174D02*
X6628991Y-12977650D01*
X6628991Y-12977650D02*
X6657563Y-12977650D01*
X6657563Y-12977650D02*
X6676610Y-12987174D01*
X6676610Y-12987174D02*
X6686134Y-13006222D01*
X6686134Y-13006222D02*
X6686134Y-13110984D01*
X6686134Y-13006222D02*
X6695658Y-12987174D01*
X6695658Y-12987174D02*
X6714705Y-12977650D01*
X6714705Y-12977650D02*
X6743277Y-12977650D01*
X6743277Y-12977650D02*
X6762324Y-12987174D01*
X6762324Y-12987174D02*
X6771848Y-13006222D01*
X6771848Y-13006222D02*
X6771848Y-13110984D01*
X6867086Y-13110984D02*
X6867086Y-12977650D01*
X6867086Y-12996698D02*
X6876610Y-12987174D01*
X6876610Y-12987174D02*
X6895658Y-12977650D01*
X6895658Y-12977650D02*
X6924229Y-12977650D01*
X6924229Y-12977650D02*
X6943277Y-12987174D01*
X6943277Y-12987174D02*
X6952801Y-13006222D01*
X6952801Y-13006222D02*
X6952801Y-13110984D01*
X6952801Y-13006222D02*
X6962324Y-12987174D01*
X6962324Y-12987174D02*
X6981372Y-12977650D01*
X6981372Y-12977650D02*
X7009943Y-12977650D01*
X7009943Y-12977650D02*
X7028991Y-12987174D01*
X7028991Y-12987174D02*
X7038515Y-13006222D01*
X7038515Y-13006222D02*
X7038515Y-13110984D01*
X7428991Y-12901460D02*
X7257563Y-13158603D01*
X7686134Y-12910984D02*
X7705182Y-12910984D01*
X7705182Y-12910984D02*
X7724229Y-12920508D01*
X7724229Y-12920508D02*
X7733753Y-12930031D01*
X7733753Y-12930031D02*
X7743277Y-12949079D01*
X7743277Y-12949079D02*
X7752801Y-12987174D01*
X7752801Y-12987174D02*
X7752801Y-13034793D01*
X7752801Y-13034793D02*
X7743277Y-13072888D01*
X7743277Y-13072888D02*
X7733753Y-13091936D01*
X7733753Y-13091936D02*
X7724229Y-13101460D01*
X7724229Y-13101460D02*
X7705182Y-13110984D01*
X7705182Y-13110984D02*
X7686134Y-13110984D01*
X7686134Y-13110984D02*
X7667086Y-13101460D01*
X7667086Y-13101460D02*
X7657563Y-13091936D01*
X7657563Y-13091936D02*
X7648039Y-13072888D01*
X7648039Y-13072888D02*
X7638515Y-13034793D01*
X7638515Y-13034793D02*
X7638515Y-12987174D01*
X7638515Y-12987174D02*
X7648039Y-12949079D01*
X7648039Y-12949079D02*
X7657563Y-12930031D01*
X7657563Y-12930031D02*
X7667086Y-12920508D01*
X7667086Y-12920508D02*
X7686134Y-12910984D01*
X7838515Y-13091936D02*
X7848039Y-13101460D01*
X7848039Y-13101460D02*
X7838515Y-13110984D01*
X7838515Y-13110984D02*
X7828991Y-13101460D01*
X7828991Y-13101460D02*
X7838515Y-13091936D01*
X7838515Y-13091936D02*
X7838515Y-13110984D01*
X7971848Y-12910984D02*
X7990896Y-12910984D01*
X7990896Y-12910984D02*
X8009944Y-12920508D01*
X8009944Y-12920508D02*
X8019467Y-12930031D01*
X8019467Y-12930031D02*
X8028991Y-12949079D01*
X8028991Y-12949079D02*
X8038515Y-12987174D01*
X8038515Y-12987174D02*
X8038515Y-13034793D01*
X8038515Y-13034793D02*
X8028991Y-13072888D01*
X8028991Y-13072888D02*
X8019467Y-13091936D01*
X8019467Y-13091936D02*
X8009944Y-13101460D01*
X8009944Y-13101460D02*
X7990896Y-13110984D01*
X7990896Y-13110984D02*
X7971848Y-13110984D01*
X7971848Y-13110984D02*
X7952801Y-13101460D01*
X7952801Y-13101460D02*
X7943277Y-13091936D01*
X7943277Y-13091936D02*
X7933753Y-13072888D01*
X7933753Y-13072888D02*
X7924229Y-13034793D01*
X7924229Y-13034793D02*
X7924229Y-12987174D01*
X7924229Y-12987174D02*
X7933753Y-12949079D01*
X7933753Y-12949079D02*
X7943277Y-12930031D01*
X7943277Y-12930031D02*
X7952801Y-12920508D01*
X7952801Y-12920508D02*
X7971848Y-12910984D01*
X8209944Y-12977650D02*
X8209944Y-13110984D01*
X8162325Y-12901460D02*
X8114706Y-13044317D01*
X8114706Y-13044317D02*
X8238515Y-13044317D01*
X8295658Y-12910984D02*
X8419468Y-12910984D01*
X8419468Y-12910984D02*
X8352801Y-12987174D01*
X8352801Y-12987174D02*
X8381372Y-12987174D01*
X8381372Y-12987174D02*
X8400420Y-12996698D01*
X8400420Y-12996698D02*
X8409944Y-13006222D01*
X8409944Y-13006222D02*
X8419468Y-13025269D01*
X8419468Y-13025269D02*
X8419468Y-13072888D01*
X8419468Y-13072888D02*
X8409944Y-13091936D01*
X8409944Y-13091936D02*
X8400420Y-13101460D01*
X8400420Y-13101460D02*
X8381372Y-13110984D01*
X8381372Y-13110984D02*
X8324229Y-13110984D01*
X8324229Y-13110984D02*
X8305182Y-13101460D01*
X8305182Y-13101460D02*
X8295658Y-13091936D01*
X8486134Y-12910984D02*
X8609944Y-12910984D01*
X8609944Y-12910984D02*
X8543277Y-12987174D01*
X8543277Y-12987174D02*
X8571849Y-12987174D01*
X8571849Y-12987174D02*
X8590896Y-12996698D01*
X8590896Y-12996698D02*
X8600420Y-13006222D01*
X8600420Y-13006222D02*
X8609944Y-13025269D01*
X8609944Y-13025269D02*
X8609944Y-13072888D01*
X8609944Y-13072888D02*
X8600420Y-13091936D01*
X8600420Y-13091936D02*
X8590896Y-13101460D01*
X8590896Y-13101460D02*
X8571849Y-13110984D01*
X8571849Y-13110984D02*
X8514706Y-13110984D01*
X8514706Y-13110984D02*
X8495658Y-13101460D01*
X8495658Y-13101460D02*
X8486134Y-13091936D01*
X8686134Y-12910984D02*
X8686134Y-12949079D01*
X8762325Y-12910984D02*
X8762325Y-12949079D01*
X9057563Y-13187174D02*
X9048039Y-13177650D01*
X9048039Y-13177650D02*
X9028991Y-13149079D01*
X9028991Y-13149079D02*
X9019468Y-13130031D01*
X9019468Y-13130031D02*
X9009944Y-13101460D01*
X9009944Y-13101460D02*
X9000420Y-13053841D01*
X9000420Y-13053841D02*
X9000420Y-13015746D01*
X9000420Y-13015746D02*
X9009944Y-12968127D01*
X9009944Y-12968127D02*
X9019468Y-12939555D01*
X9019468Y-12939555D02*
X9028991Y-12920508D01*
X9028991Y-12920508D02*
X9048039Y-12891936D01*
X9048039Y-12891936D02*
X9057563Y-12882412D01*
X9171849Y-12910984D02*
X9190896Y-12910984D01*
X9190896Y-12910984D02*
X9209944Y-12920508D01*
X9209944Y-12920508D02*
X9219468Y-12930031D01*
X9219468Y-12930031D02*
X9228991Y-12949079D01*
X9228991Y-12949079D02*
X9238515Y-12987174D01*
X9238515Y-12987174D02*
X9238515Y-13034793D01*
X9238515Y-13034793D02*
X9228991Y-13072888D01*
X9228991Y-13072888D02*
X9219468Y-13091936D01*
X9219468Y-13091936D02*
X9209944Y-13101460D01*
X9209944Y-13101460D02*
X9190896Y-13110984D01*
X9190896Y-13110984D02*
X9171849Y-13110984D01*
X9171849Y-13110984D02*
X9152801Y-13101460D01*
X9152801Y-13101460D02*
X9143277Y-13091936D01*
X9143277Y-13091936D02*
X9133753Y-13072888D01*
X9133753Y-13072888D02*
X9124230Y-13034793D01*
X9124230Y-13034793D02*
X9124230Y-12987174D01*
X9124230Y-12987174D02*
X9133753Y-12949079D01*
X9133753Y-12949079D02*
X9143277Y-12930031D01*
X9143277Y-12930031D02*
X9152801Y-12920508D01*
X9152801Y-12920508D02*
X9171849Y-12910984D01*
X9476611Y-13110984D02*
X9476611Y-12910984D01*
X9562325Y-13110984D02*
X9562325Y-13006222D01*
X9562325Y-13006222D02*
X9552801Y-12987174D01*
X9552801Y-12987174D02*
X9533753Y-12977650D01*
X9533753Y-12977650D02*
X9505182Y-12977650D01*
X9505182Y-12977650D02*
X9486134Y-12987174D01*
X9486134Y-12987174D02*
X9476611Y-12996698D01*
X9686134Y-13110984D02*
X9667087Y-13101460D01*
X9667087Y-13101460D02*
X9657563Y-13091936D01*
X9657563Y-13091936D02*
X9648039Y-13072888D01*
X9648039Y-13072888D02*
X9648039Y-13015746D01*
X9648039Y-13015746D02*
X9657563Y-12996698D01*
X9657563Y-12996698D02*
X9667087Y-12987174D01*
X9667087Y-12987174D02*
X9686134Y-12977650D01*
X9686134Y-12977650D02*
X9714706Y-12977650D01*
X9714706Y-12977650D02*
X9733753Y-12987174D01*
X9733753Y-12987174D02*
X9743277Y-12996698D01*
X9743277Y-12996698D02*
X9752801Y-13015746D01*
X9752801Y-13015746D02*
X9752801Y-13072888D01*
X9752801Y-13072888D02*
X9743277Y-13091936D01*
X9743277Y-13091936D02*
X9733753Y-13101460D01*
X9733753Y-13101460D02*
X9714706Y-13110984D01*
X9714706Y-13110984D02*
X9686134Y-13110984D01*
X9867087Y-13110984D02*
X9848039Y-13101460D01*
X9848039Y-13101460D02*
X9838515Y-13082412D01*
X9838515Y-13082412D02*
X9838515Y-12910984D01*
X10019468Y-13101460D02*
X10000420Y-13110984D01*
X10000420Y-13110984D02*
X9962325Y-13110984D01*
X9962325Y-13110984D02*
X9943277Y-13101460D01*
X9943277Y-13101460D02*
X9933753Y-13082412D01*
X9933753Y-13082412D02*
X9933753Y-13006222D01*
X9933753Y-13006222D02*
X9943277Y-12987174D01*
X9943277Y-12987174D02*
X9962325Y-12977650D01*
X9962325Y-12977650D02*
X10000420Y-12977650D01*
X10000420Y-12977650D02*
X10019468Y-12987174D01*
X10019468Y-12987174D02*
X10028992Y-13006222D01*
X10028992Y-13006222D02*
X10028992Y-13025269D01*
X10028992Y-13025269D02*
X9933753Y-13044317D01*
X10105182Y-13101460D02*
X10124230Y-13110984D01*
X10124230Y-13110984D02*
X10162325Y-13110984D01*
X10162325Y-13110984D02*
X10181373Y-13101460D01*
X10181373Y-13101460D02*
X10190896Y-13082412D01*
X10190896Y-13082412D02*
X10190896Y-13072888D01*
X10190896Y-13072888D02*
X10181373Y-13053841D01*
X10181373Y-13053841D02*
X10162325Y-13044317D01*
X10162325Y-13044317D02*
X10133753Y-13044317D01*
X10133753Y-13044317D02*
X10114706Y-13034793D01*
X10114706Y-13034793D02*
X10105182Y-13015746D01*
X10105182Y-13015746D02*
X10105182Y-13006222D01*
X10105182Y-13006222D02*
X10114706Y-12987174D01*
X10114706Y-12987174D02*
X10133753Y-12977650D01*
X10133753Y-12977650D02*
X10162325Y-12977650D01*
X10162325Y-12977650D02*
X10181373Y-12987174D01*
X10428992Y-13034793D02*
X10581373Y-13034793D01*
X10505182Y-13110984D02*
X10505182Y-12958603D01*
X10819468Y-12930031D02*
X10828992Y-12920508D01*
X10828992Y-12920508D02*
X10848039Y-12910984D01*
X10848039Y-12910984D02*
X10895658Y-12910984D01*
X10895658Y-12910984D02*
X10914706Y-12920508D01*
X10914706Y-12920508D02*
X10924230Y-12930031D01*
X10924230Y-12930031D02*
X10933754Y-12949079D01*
X10933754Y-12949079D02*
X10933754Y-12968127D01*
X10933754Y-12968127D02*
X10924230Y-12996698D01*
X10924230Y-12996698D02*
X10809944Y-13110984D01*
X10809944Y-13110984D02*
X10933754Y-13110984D01*
X11162325Y-13101460D02*
X11181373Y-13110984D01*
X11181373Y-13110984D02*
X11219468Y-13110984D01*
X11219468Y-13110984D02*
X11238515Y-13101460D01*
X11238515Y-13101460D02*
X11248039Y-13082412D01*
X11248039Y-13082412D02*
X11248039Y-13072888D01*
X11248039Y-13072888D02*
X11238515Y-13053841D01*
X11238515Y-13053841D02*
X11219468Y-13044317D01*
X11219468Y-13044317D02*
X11190896Y-13044317D01*
X11190896Y-13044317D02*
X11171849Y-13034793D01*
X11171849Y-13034793D02*
X11162325Y-13015746D01*
X11162325Y-13015746D02*
X11162325Y-13006222D01*
X11162325Y-13006222D02*
X11171849Y-12987174D01*
X11171849Y-12987174D02*
X11190896Y-12977650D01*
X11190896Y-12977650D02*
X11219468Y-12977650D01*
X11219468Y-12977650D02*
X11238515Y-12987174D01*
X11362325Y-13110984D02*
X11343277Y-13101460D01*
X11343277Y-13101460D02*
X11333754Y-13082412D01*
X11333754Y-13082412D02*
X11333754Y-12910984D01*
X11467087Y-13110984D02*
X11448039Y-13101460D01*
X11448039Y-13101460D02*
X11438515Y-13091936D01*
X11438515Y-13091936D02*
X11428992Y-13072888D01*
X11428992Y-13072888D02*
X11428992Y-13015746D01*
X11428992Y-13015746D02*
X11438515Y-12996698D01*
X11438515Y-12996698D02*
X11448039Y-12987174D01*
X11448039Y-12987174D02*
X11467087Y-12977650D01*
X11467087Y-12977650D02*
X11495658Y-12977650D01*
X11495658Y-12977650D02*
X11514706Y-12987174D01*
X11514706Y-12987174D02*
X11524230Y-12996698D01*
X11524230Y-12996698D02*
X11533754Y-13015746D01*
X11533754Y-13015746D02*
X11533754Y-13072888D01*
X11533754Y-13072888D02*
X11524230Y-13091936D01*
X11524230Y-13091936D02*
X11514706Y-13101460D01*
X11514706Y-13101460D02*
X11495658Y-13110984D01*
X11495658Y-13110984D02*
X11467087Y-13110984D01*
X11590896Y-12977650D02*
X11667087Y-12977650D01*
X11619468Y-12910984D02*
X11619468Y-13082412D01*
X11619468Y-13082412D02*
X11628992Y-13101460D01*
X11628992Y-13101460D02*
X11648039Y-13110984D01*
X11648039Y-13110984D02*
X11667087Y-13110984D01*
X11724230Y-13101460D02*
X11743277Y-13110984D01*
X11743277Y-13110984D02*
X11781373Y-13110984D01*
X11781373Y-13110984D02*
X11800420Y-13101460D01*
X11800420Y-13101460D02*
X11809944Y-13082412D01*
X11809944Y-13082412D02*
X11809944Y-13072888D01*
X11809944Y-13072888D02*
X11800420Y-13053841D01*
X11800420Y-13053841D02*
X11781373Y-13044317D01*
X11781373Y-13044317D02*
X11752801Y-13044317D01*
X11752801Y-13044317D02*
X11733754Y-13034793D01*
X11733754Y-13034793D02*
X11724230Y-13015746D01*
X11724230Y-13015746D02*
X11724230Y-13006222D01*
X11724230Y-13006222D02*
X11733754Y-12987174D01*
X11733754Y-12987174D02*
X11752801Y-12977650D01*
X11752801Y-12977650D02*
X11781373Y-12977650D01*
X11781373Y-12977650D02*
X11800420Y-12987174D01*
X11876611Y-13187174D02*
X11886135Y-13177650D01*
X11886135Y-13177650D02*
X11905182Y-13149079D01*
X11905182Y-13149079D02*
X11914706Y-13130031D01*
X11914706Y-13130031D02*
X11924230Y-13101460D01*
X11924230Y-13101460D02*
X11933754Y-13053841D01*
X11933754Y-13053841D02*
X11933754Y-13015746D01*
X11933754Y-13015746D02*
X11924230Y-12968127D01*
X11924230Y-12968127D02*
X11914706Y-12939555D01*
X11914706Y-12939555D02*
X11905182Y-12920508D01*
X11905182Y-12920508D02*
X11886135Y-12891936D01*
X11886135Y-12891936D02*
X11876611Y-12882412D01*
D14*
X5417500Y-13348500D02*
X5482500Y-13283500D01*
X5417500Y-13218500D01*
X5352500Y-13283500D01*
X5417500Y-13348500D01*
D11*
X5848039Y-13374984D02*
X5733753Y-13374984D01*
X5790896Y-13374984D02*
X5790896Y-13174984D01*
X5790896Y-13174984D02*
X5771848Y-13203555D01*
X5771848Y-13203555D02*
X5752801Y-13222603D01*
X5752801Y-13222603D02*
X5733753Y-13232127D01*
X5933753Y-13355936D02*
X5943277Y-13365460D01*
X5943277Y-13365460D02*
X5933753Y-13374984D01*
X5933753Y-13374984D02*
X5924229Y-13365460D01*
X5924229Y-13365460D02*
X5933753Y-13355936D01*
X5933753Y-13355936D02*
X5933753Y-13374984D01*
X6009943Y-13174984D02*
X6133753Y-13174984D01*
X6133753Y-13174984D02*
X6067086Y-13251174D01*
X6067086Y-13251174D02*
X6095658Y-13251174D01*
X6095658Y-13251174D02*
X6114705Y-13260698D01*
X6114705Y-13260698D02*
X6124229Y-13270222D01*
X6124229Y-13270222D02*
X6133753Y-13289269D01*
X6133753Y-13289269D02*
X6133753Y-13336888D01*
X6133753Y-13336888D02*
X6124229Y-13355936D01*
X6124229Y-13355936D02*
X6114705Y-13365460D01*
X6114705Y-13365460D02*
X6095658Y-13374984D01*
X6095658Y-13374984D02*
X6038515Y-13374984D01*
X6038515Y-13374984D02*
X6019467Y-13365460D01*
X6019467Y-13365460D02*
X6009943Y-13355936D01*
X6257562Y-13174984D02*
X6276610Y-13174984D01*
X6276610Y-13174984D02*
X6295658Y-13184508D01*
X6295658Y-13184508D02*
X6305182Y-13194031D01*
X6305182Y-13194031D02*
X6314705Y-13213079D01*
X6314705Y-13213079D02*
X6324229Y-13251174D01*
X6324229Y-13251174D02*
X6324229Y-13298793D01*
X6324229Y-13298793D02*
X6314705Y-13336888D01*
X6314705Y-13336888D02*
X6305182Y-13355936D01*
X6305182Y-13355936D02*
X6295658Y-13365460D01*
X6295658Y-13365460D02*
X6276610Y-13374984D01*
X6276610Y-13374984D02*
X6257562Y-13374984D01*
X6257562Y-13374984D02*
X6238515Y-13365460D01*
X6238515Y-13365460D02*
X6228991Y-13355936D01*
X6228991Y-13355936D02*
X6219467Y-13336888D01*
X6219467Y-13336888D02*
X6209943Y-13298793D01*
X6209943Y-13298793D02*
X6209943Y-13251174D01*
X6209943Y-13251174D02*
X6219467Y-13213079D01*
X6219467Y-13213079D02*
X6228991Y-13194031D01*
X6228991Y-13194031D02*
X6238515Y-13184508D01*
X6238515Y-13184508D02*
X6257562Y-13174984D01*
X6448039Y-13174984D02*
X6467086Y-13174984D01*
X6467086Y-13174984D02*
X6486134Y-13184508D01*
X6486134Y-13184508D02*
X6495658Y-13194031D01*
X6495658Y-13194031D02*
X6505182Y-13213079D01*
X6505182Y-13213079D02*
X6514705Y-13251174D01*
X6514705Y-13251174D02*
X6514705Y-13298793D01*
X6514705Y-13298793D02*
X6505182Y-13336888D01*
X6505182Y-13336888D02*
X6495658Y-13355936D01*
X6495658Y-13355936D02*
X6486134Y-13365460D01*
X6486134Y-13365460D02*
X6467086Y-13374984D01*
X6467086Y-13374984D02*
X6448039Y-13374984D01*
X6448039Y-13374984D02*
X6428991Y-13365460D01*
X6428991Y-13365460D02*
X6419467Y-13355936D01*
X6419467Y-13355936D02*
X6409943Y-13336888D01*
X6409943Y-13336888D02*
X6400420Y-13298793D01*
X6400420Y-13298793D02*
X6400420Y-13251174D01*
X6400420Y-13251174D02*
X6409943Y-13213079D01*
X6409943Y-13213079D02*
X6419467Y-13194031D01*
X6419467Y-13194031D02*
X6428991Y-13184508D01*
X6428991Y-13184508D02*
X6448039Y-13174984D01*
X6600420Y-13374984D02*
X6600420Y-13241650D01*
X6600420Y-13260698D02*
X6609943Y-13251174D01*
X6609943Y-13251174D02*
X6628991Y-13241650D01*
X6628991Y-13241650D02*
X6657563Y-13241650D01*
X6657563Y-13241650D02*
X6676610Y-13251174D01*
X6676610Y-13251174D02*
X6686134Y-13270222D01*
X6686134Y-13270222D02*
X6686134Y-13374984D01*
X6686134Y-13270222D02*
X6695658Y-13251174D01*
X6695658Y-13251174D02*
X6714705Y-13241650D01*
X6714705Y-13241650D02*
X6743277Y-13241650D01*
X6743277Y-13241650D02*
X6762324Y-13251174D01*
X6762324Y-13251174D02*
X6771848Y-13270222D01*
X6771848Y-13270222D02*
X6771848Y-13374984D01*
X6867086Y-13374984D02*
X6867086Y-13241650D01*
X6867086Y-13260698D02*
X6876610Y-13251174D01*
X6876610Y-13251174D02*
X6895658Y-13241650D01*
X6895658Y-13241650D02*
X6924229Y-13241650D01*
X6924229Y-13241650D02*
X6943277Y-13251174D01*
X6943277Y-13251174D02*
X6952801Y-13270222D01*
X6952801Y-13270222D02*
X6952801Y-13374984D01*
X6952801Y-13270222D02*
X6962324Y-13251174D01*
X6962324Y-13251174D02*
X6981372Y-13241650D01*
X6981372Y-13241650D02*
X7009943Y-13241650D01*
X7009943Y-13241650D02*
X7028991Y-13251174D01*
X7028991Y-13251174D02*
X7038515Y-13270222D01*
X7038515Y-13270222D02*
X7038515Y-13374984D01*
X7428991Y-13165460D02*
X7257563Y-13422603D01*
X7686134Y-13174984D02*
X7705182Y-13174984D01*
X7705182Y-13174984D02*
X7724229Y-13184508D01*
X7724229Y-13184508D02*
X7733753Y-13194031D01*
X7733753Y-13194031D02*
X7743277Y-13213079D01*
X7743277Y-13213079D02*
X7752801Y-13251174D01*
X7752801Y-13251174D02*
X7752801Y-13298793D01*
X7752801Y-13298793D02*
X7743277Y-13336888D01*
X7743277Y-13336888D02*
X7733753Y-13355936D01*
X7733753Y-13355936D02*
X7724229Y-13365460D01*
X7724229Y-13365460D02*
X7705182Y-13374984D01*
X7705182Y-13374984D02*
X7686134Y-13374984D01*
X7686134Y-13374984D02*
X7667086Y-13365460D01*
X7667086Y-13365460D02*
X7657563Y-13355936D01*
X7657563Y-13355936D02*
X7648039Y-13336888D01*
X7648039Y-13336888D02*
X7638515Y-13298793D01*
X7638515Y-13298793D02*
X7638515Y-13251174D01*
X7638515Y-13251174D02*
X7648039Y-13213079D01*
X7648039Y-13213079D02*
X7657563Y-13194031D01*
X7657563Y-13194031D02*
X7667086Y-13184508D01*
X7667086Y-13184508D02*
X7686134Y-13174984D01*
X7838515Y-13355936D02*
X7848039Y-13365460D01*
X7848039Y-13365460D02*
X7838515Y-13374984D01*
X7838515Y-13374984D02*
X7828991Y-13365460D01*
X7828991Y-13365460D02*
X7838515Y-13355936D01*
X7838515Y-13355936D02*
X7838515Y-13374984D01*
X7971848Y-13174984D02*
X7990896Y-13174984D01*
X7990896Y-13174984D02*
X8009944Y-13184508D01*
X8009944Y-13184508D02*
X8019467Y-13194031D01*
X8019467Y-13194031D02*
X8028991Y-13213079D01*
X8028991Y-13213079D02*
X8038515Y-13251174D01*
X8038515Y-13251174D02*
X8038515Y-13298793D01*
X8038515Y-13298793D02*
X8028991Y-13336888D01*
X8028991Y-13336888D02*
X8019467Y-13355936D01*
X8019467Y-13355936D02*
X8009944Y-13365460D01*
X8009944Y-13365460D02*
X7990896Y-13374984D01*
X7990896Y-13374984D02*
X7971848Y-13374984D01*
X7971848Y-13374984D02*
X7952801Y-13365460D01*
X7952801Y-13365460D02*
X7943277Y-13355936D01*
X7943277Y-13355936D02*
X7933753Y-13336888D01*
X7933753Y-13336888D02*
X7924229Y-13298793D01*
X7924229Y-13298793D02*
X7924229Y-13251174D01*
X7924229Y-13251174D02*
X7933753Y-13213079D01*
X7933753Y-13213079D02*
X7943277Y-13194031D01*
X7943277Y-13194031D02*
X7952801Y-13184508D01*
X7952801Y-13184508D02*
X7971848Y-13174984D01*
X8219467Y-13174984D02*
X8124229Y-13174984D01*
X8124229Y-13174984D02*
X8114706Y-13270222D01*
X8114706Y-13270222D02*
X8124229Y-13260698D01*
X8124229Y-13260698D02*
X8143277Y-13251174D01*
X8143277Y-13251174D02*
X8190896Y-13251174D01*
X8190896Y-13251174D02*
X8209944Y-13260698D01*
X8209944Y-13260698D02*
X8219467Y-13270222D01*
X8219467Y-13270222D02*
X8228991Y-13289269D01*
X8228991Y-13289269D02*
X8228991Y-13336888D01*
X8228991Y-13336888D02*
X8219467Y-13355936D01*
X8219467Y-13355936D02*
X8209944Y-13365460D01*
X8209944Y-13365460D02*
X8190896Y-13374984D01*
X8190896Y-13374984D02*
X8143277Y-13374984D01*
X8143277Y-13374984D02*
X8124229Y-13365460D01*
X8124229Y-13365460D02*
X8114706Y-13355936D01*
X8419468Y-13374984D02*
X8305182Y-13374984D01*
X8362325Y-13374984D02*
X8362325Y-13174984D01*
X8362325Y-13174984D02*
X8343277Y-13203555D01*
X8343277Y-13203555D02*
X8324229Y-13222603D01*
X8324229Y-13222603D02*
X8305182Y-13232127D01*
X8495658Y-13194031D02*
X8505182Y-13184508D01*
X8505182Y-13184508D02*
X8524229Y-13174984D01*
X8524229Y-13174984D02*
X8571849Y-13174984D01*
X8571849Y-13174984D02*
X8590896Y-13184508D01*
X8590896Y-13184508D02*
X8600420Y-13194031D01*
X8600420Y-13194031D02*
X8609944Y-13213079D01*
X8609944Y-13213079D02*
X8609944Y-13232127D01*
X8609944Y-13232127D02*
X8600420Y-13260698D01*
X8600420Y-13260698D02*
X8486134Y-13374984D01*
X8486134Y-13374984D02*
X8609944Y-13374984D01*
X8686134Y-13174984D02*
X8686134Y-13213079D01*
X8762325Y-13174984D02*
X8762325Y-13213079D01*
X9057563Y-13451174D02*
X9048039Y-13441650D01*
X9048039Y-13441650D02*
X9028991Y-13413079D01*
X9028991Y-13413079D02*
X9019468Y-13394031D01*
X9019468Y-13394031D02*
X9009944Y-13365460D01*
X9009944Y-13365460D02*
X9000420Y-13317841D01*
X9000420Y-13317841D02*
X9000420Y-13279746D01*
X9000420Y-13279746D02*
X9009944Y-13232127D01*
X9009944Y-13232127D02*
X9019468Y-13203555D01*
X9019468Y-13203555D02*
X9028991Y-13184508D01*
X9028991Y-13184508D02*
X9048039Y-13155936D01*
X9048039Y-13155936D02*
X9057563Y-13146412D01*
X9219468Y-13174984D02*
X9181372Y-13174984D01*
X9181372Y-13174984D02*
X9162325Y-13184508D01*
X9162325Y-13184508D02*
X9152801Y-13194031D01*
X9152801Y-13194031D02*
X9133753Y-13222603D01*
X9133753Y-13222603D02*
X9124230Y-13260698D01*
X9124230Y-13260698D02*
X9124230Y-13336888D01*
X9124230Y-13336888D02*
X9133753Y-13355936D01*
X9133753Y-13355936D02*
X9143277Y-13365460D01*
X9143277Y-13365460D02*
X9162325Y-13374984D01*
X9162325Y-13374984D02*
X9200420Y-13374984D01*
X9200420Y-13374984D02*
X9219468Y-13365460D01*
X9219468Y-13365460D02*
X9228991Y-13355936D01*
X9228991Y-13355936D02*
X9238515Y-13336888D01*
X9238515Y-13336888D02*
X9238515Y-13289269D01*
X9238515Y-13289269D02*
X9228991Y-13270222D01*
X9228991Y-13270222D02*
X9219468Y-13260698D01*
X9219468Y-13260698D02*
X9200420Y-13251174D01*
X9200420Y-13251174D02*
X9162325Y-13251174D01*
X9162325Y-13251174D02*
X9143277Y-13260698D01*
X9143277Y-13260698D02*
X9133753Y-13270222D01*
X9133753Y-13270222D02*
X9124230Y-13289269D01*
X9476611Y-13374984D02*
X9476611Y-13174984D01*
X9562325Y-13374984D02*
X9562325Y-13270222D01*
X9562325Y-13270222D02*
X9552801Y-13251174D01*
X9552801Y-13251174D02*
X9533753Y-13241650D01*
X9533753Y-13241650D02*
X9505182Y-13241650D01*
X9505182Y-13241650D02*
X9486134Y-13251174D01*
X9486134Y-13251174D02*
X9476611Y-13260698D01*
X9686134Y-13374984D02*
X9667087Y-13365460D01*
X9667087Y-13365460D02*
X9657563Y-13355936D01*
X9657563Y-13355936D02*
X9648039Y-13336888D01*
X9648039Y-13336888D02*
X9648039Y-13279746D01*
X9648039Y-13279746D02*
X9657563Y-13260698D01*
X9657563Y-13260698D02*
X9667087Y-13251174D01*
X9667087Y-13251174D02*
X9686134Y-13241650D01*
X9686134Y-13241650D02*
X9714706Y-13241650D01*
X9714706Y-13241650D02*
X9733753Y-13251174D01*
X9733753Y-13251174D02*
X9743277Y-13260698D01*
X9743277Y-13260698D02*
X9752801Y-13279746D01*
X9752801Y-13279746D02*
X9752801Y-13336888D01*
X9752801Y-13336888D02*
X9743277Y-13355936D01*
X9743277Y-13355936D02*
X9733753Y-13365460D01*
X9733753Y-13365460D02*
X9714706Y-13374984D01*
X9714706Y-13374984D02*
X9686134Y-13374984D01*
X9867087Y-13374984D02*
X9848039Y-13365460D01*
X9848039Y-13365460D02*
X9838515Y-13346412D01*
X9838515Y-13346412D02*
X9838515Y-13174984D01*
X10019468Y-13365460D02*
X10000420Y-13374984D01*
X10000420Y-13374984D02*
X9962325Y-13374984D01*
X9962325Y-13374984D02*
X9943277Y-13365460D01*
X9943277Y-13365460D02*
X9933753Y-13346412D01*
X9933753Y-13346412D02*
X9933753Y-13270222D01*
X9933753Y-13270222D02*
X9943277Y-13251174D01*
X9943277Y-13251174D02*
X9962325Y-13241650D01*
X9962325Y-13241650D02*
X10000420Y-13241650D01*
X10000420Y-13241650D02*
X10019468Y-13251174D01*
X10019468Y-13251174D02*
X10028992Y-13270222D01*
X10028992Y-13270222D02*
X10028992Y-13289269D01*
X10028992Y-13289269D02*
X9933753Y-13308317D01*
X10105182Y-13365460D02*
X10124230Y-13374984D01*
X10124230Y-13374984D02*
X10162325Y-13374984D01*
X10162325Y-13374984D02*
X10181373Y-13365460D01*
X10181373Y-13365460D02*
X10190896Y-13346412D01*
X10190896Y-13346412D02*
X10190896Y-13336888D01*
X10190896Y-13336888D02*
X10181373Y-13317841D01*
X10181373Y-13317841D02*
X10162325Y-13308317D01*
X10162325Y-13308317D02*
X10133753Y-13308317D01*
X10133753Y-13308317D02*
X10114706Y-13298793D01*
X10114706Y-13298793D02*
X10105182Y-13279746D01*
X10105182Y-13279746D02*
X10105182Y-13270222D01*
X10105182Y-13270222D02*
X10114706Y-13251174D01*
X10114706Y-13251174D02*
X10133753Y-13241650D01*
X10133753Y-13241650D02*
X10162325Y-13241650D01*
X10162325Y-13241650D02*
X10181373Y-13251174D01*
X10257563Y-13451174D02*
X10267087Y-13441650D01*
X10267087Y-13441650D02*
X10286134Y-13413079D01*
X10286134Y-13413079D02*
X10295658Y-13394031D01*
X10295658Y-13394031D02*
X10305182Y-13365460D01*
X10305182Y-13365460D02*
X10314706Y-13317841D01*
X10314706Y-13317841D02*
X10314706Y-13279746D01*
X10314706Y-13279746D02*
X10305182Y-13232127D01*
X10305182Y-13232127D02*
X10295658Y-13203555D01*
X10295658Y-13203555D02*
X10286134Y-13184508D01*
X10286134Y-13184508D02*
X10267087Y-13155936D01*
X10267087Y-13155936D02*
X10257563Y-13146412D01*
D15*
X5312500Y-13462500D02*
X5482500Y-13632500D01*
X5482500Y-13462500D02*
X5312500Y-13632500D01*
X5482500Y-13547500D02*
G75*
G02*
X5312500Y-13547500I-85000J0D01*
G01*
X5312500Y-13547500D02*
G75*
G02*
X5482500Y-13547500I85000J0D01*
G01*
D11*
X5848039Y-13638984D02*
X5733753Y-13638984D01*
X5790896Y-13638984D02*
X5790896Y-13438984D01*
X5790896Y-13438984D02*
X5771848Y-13467555D01*
X5771848Y-13467555D02*
X5752801Y-13486603D01*
X5752801Y-13486603D02*
X5733753Y-13496127D01*
X5933753Y-13619936D02*
X5943277Y-13629460D01*
X5943277Y-13629460D02*
X5933753Y-13638984D01*
X5933753Y-13638984D02*
X5924229Y-13629460D01*
X5924229Y-13629460D02*
X5933753Y-13619936D01*
X5933753Y-13619936D02*
X5933753Y-13638984D01*
X6009943Y-13438984D02*
X6143277Y-13438984D01*
X6143277Y-13438984D02*
X6057562Y-13638984D01*
X6257562Y-13438984D02*
X6276610Y-13438984D01*
X6276610Y-13438984D02*
X6295658Y-13448508D01*
X6295658Y-13448508D02*
X6305182Y-13458031D01*
X6305182Y-13458031D02*
X6314705Y-13477079D01*
X6314705Y-13477079D02*
X6324229Y-13515174D01*
X6324229Y-13515174D02*
X6324229Y-13562793D01*
X6324229Y-13562793D02*
X6314705Y-13600888D01*
X6314705Y-13600888D02*
X6305182Y-13619936D01*
X6305182Y-13619936D02*
X6295658Y-13629460D01*
X6295658Y-13629460D02*
X6276610Y-13638984D01*
X6276610Y-13638984D02*
X6257562Y-13638984D01*
X6257562Y-13638984D02*
X6238515Y-13629460D01*
X6238515Y-13629460D02*
X6228991Y-13619936D01*
X6228991Y-13619936D02*
X6219467Y-13600888D01*
X6219467Y-13600888D02*
X6209943Y-13562793D01*
X6209943Y-13562793D02*
X6209943Y-13515174D01*
X6209943Y-13515174D02*
X6219467Y-13477079D01*
X6219467Y-13477079D02*
X6228991Y-13458031D01*
X6228991Y-13458031D02*
X6238515Y-13448508D01*
X6238515Y-13448508D02*
X6257562Y-13438984D01*
X6448039Y-13438984D02*
X6467086Y-13438984D01*
X6467086Y-13438984D02*
X6486134Y-13448508D01*
X6486134Y-13448508D02*
X6495658Y-13458031D01*
X6495658Y-13458031D02*
X6505182Y-13477079D01*
X6505182Y-13477079D02*
X6514705Y-13515174D01*
X6514705Y-13515174D02*
X6514705Y-13562793D01*
X6514705Y-13562793D02*
X6505182Y-13600888D01*
X6505182Y-13600888D02*
X6495658Y-13619936D01*
X6495658Y-13619936D02*
X6486134Y-13629460D01*
X6486134Y-13629460D02*
X6467086Y-13638984D01*
X6467086Y-13638984D02*
X6448039Y-13638984D01*
X6448039Y-13638984D02*
X6428991Y-13629460D01*
X6428991Y-13629460D02*
X6419467Y-13619936D01*
X6419467Y-13619936D02*
X6409943Y-13600888D01*
X6409943Y-13600888D02*
X6400420Y-13562793D01*
X6400420Y-13562793D02*
X6400420Y-13515174D01*
X6400420Y-13515174D02*
X6409943Y-13477079D01*
X6409943Y-13477079D02*
X6419467Y-13458031D01*
X6419467Y-13458031D02*
X6428991Y-13448508D01*
X6428991Y-13448508D02*
X6448039Y-13438984D01*
X6600420Y-13638984D02*
X6600420Y-13505650D01*
X6600420Y-13524698D02*
X6609943Y-13515174D01*
X6609943Y-13515174D02*
X6628991Y-13505650D01*
X6628991Y-13505650D02*
X6657563Y-13505650D01*
X6657563Y-13505650D02*
X6676610Y-13515174D01*
X6676610Y-13515174D02*
X6686134Y-13534222D01*
X6686134Y-13534222D02*
X6686134Y-13638984D01*
X6686134Y-13534222D02*
X6695658Y-13515174D01*
X6695658Y-13515174D02*
X6714705Y-13505650D01*
X6714705Y-13505650D02*
X6743277Y-13505650D01*
X6743277Y-13505650D02*
X6762324Y-13515174D01*
X6762324Y-13515174D02*
X6771848Y-13534222D01*
X6771848Y-13534222D02*
X6771848Y-13638984D01*
X6867086Y-13638984D02*
X6867086Y-13505650D01*
X6867086Y-13524698D02*
X6876610Y-13515174D01*
X6876610Y-13515174D02*
X6895658Y-13505650D01*
X6895658Y-13505650D02*
X6924229Y-13505650D01*
X6924229Y-13505650D02*
X6943277Y-13515174D01*
X6943277Y-13515174D02*
X6952801Y-13534222D01*
X6952801Y-13534222D02*
X6952801Y-13638984D01*
X6952801Y-13534222D02*
X6962324Y-13515174D01*
X6962324Y-13515174D02*
X6981372Y-13505650D01*
X6981372Y-13505650D02*
X7009943Y-13505650D01*
X7009943Y-13505650D02*
X7028991Y-13515174D01*
X7028991Y-13515174D02*
X7038515Y-13534222D01*
X7038515Y-13534222D02*
X7038515Y-13638984D01*
X7428991Y-13429460D02*
X7257563Y-13686603D01*
X7686134Y-13438984D02*
X7705182Y-13438984D01*
X7705182Y-13438984D02*
X7724229Y-13448508D01*
X7724229Y-13448508D02*
X7733753Y-13458031D01*
X7733753Y-13458031D02*
X7743277Y-13477079D01*
X7743277Y-13477079D02*
X7752801Y-13515174D01*
X7752801Y-13515174D02*
X7752801Y-13562793D01*
X7752801Y-13562793D02*
X7743277Y-13600888D01*
X7743277Y-13600888D02*
X7733753Y-13619936D01*
X7733753Y-13619936D02*
X7724229Y-13629460D01*
X7724229Y-13629460D02*
X7705182Y-13638984D01*
X7705182Y-13638984D02*
X7686134Y-13638984D01*
X7686134Y-13638984D02*
X7667086Y-13629460D01*
X7667086Y-13629460D02*
X7657563Y-13619936D01*
X7657563Y-13619936D02*
X7648039Y-13600888D01*
X7648039Y-13600888D02*
X7638515Y-13562793D01*
X7638515Y-13562793D02*
X7638515Y-13515174D01*
X7638515Y-13515174D02*
X7648039Y-13477079D01*
X7648039Y-13477079D02*
X7657563Y-13458031D01*
X7657563Y-13458031D02*
X7667086Y-13448508D01*
X7667086Y-13448508D02*
X7686134Y-13438984D01*
X7838515Y-13619936D02*
X7848039Y-13629460D01*
X7848039Y-13629460D02*
X7838515Y-13638984D01*
X7838515Y-13638984D02*
X7828991Y-13629460D01*
X7828991Y-13629460D02*
X7838515Y-13619936D01*
X7838515Y-13619936D02*
X7838515Y-13638984D01*
X7971848Y-13438984D02*
X7990896Y-13438984D01*
X7990896Y-13438984D02*
X8009944Y-13448508D01*
X8009944Y-13448508D02*
X8019467Y-13458031D01*
X8019467Y-13458031D02*
X8028991Y-13477079D01*
X8028991Y-13477079D02*
X8038515Y-13515174D01*
X8038515Y-13515174D02*
X8038515Y-13562793D01*
X8038515Y-13562793D02*
X8028991Y-13600888D01*
X8028991Y-13600888D02*
X8019467Y-13619936D01*
X8019467Y-13619936D02*
X8009944Y-13629460D01*
X8009944Y-13629460D02*
X7990896Y-13638984D01*
X7990896Y-13638984D02*
X7971848Y-13638984D01*
X7971848Y-13638984D02*
X7952801Y-13629460D01*
X7952801Y-13629460D02*
X7943277Y-13619936D01*
X7943277Y-13619936D02*
X7933753Y-13600888D01*
X7933753Y-13600888D02*
X7924229Y-13562793D01*
X7924229Y-13562793D02*
X7924229Y-13515174D01*
X7924229Y-13515174D02*
X7933753Y-13477079D01*
X7933753Y-13477079D02*
X7943277Y-13458031D01*
X7943277Y-13458031D02*
X7952801Y-13448508D01*
X7952801Y-13448508D02*
X7971848Y-13438984D01*
X8209944Y-13438984D02*
X8171848Y-13438984D01*
X8171848Y-13438984D02*
X8152801Y-13448508D01*
X8152801Y-13448508D02*
X8143277Y-13458031D01*
X8143277Y-13458031D02*
X8124229Y-13486603D01*
X8124229Y-13486603D02*
X8114706Y-13524698D01*
X8114706Y-13524698D02*
X8114706Y-13600888D01*
X8114706Y-13600888D02*
X8124229Y-13619936D01*
X8124229Y-13619936D02*
X8133753Y-13629460D01*
X8133753Y-13629460D02*
X8152801Y-13638984D01*
X8152801Y-13638984D02*
X8190896Y-13638984D01*
X8190896Y-13638984D02*
X8209944Y-13629460D01*
X8209944Y-13629460D02*
X8219467Y-13619936D01*
X8219467Y-13619936D02*
X8228991Y-13600888D01*
X8228991Y-13600888D02*
X8228991Y-13553269D01*
X8228991Y-13553269D02*
X8219467Y-13534222D01*
X8219467Y-13534222D02*
X8209944Y-13524698D01*
X8209944Y-13524698D02*
X8190896Y-13515174D01*
X8190896Y-13515174D02*
X8152801Y-13515174D01*
X8152801Y-13515174D02*
X8133753Y-13524698D01*
X8133753Y-13524698D02*
X8124229Y-13534222D01*
X8124229Y-13534222D02*
X8114706Y-13553269D01*
X8400420Y-13438984D02*
X8362325Y-13438984D01*
X8362325Y-13438984D02*
X8343277Y-13448508D01*
X8343277Y-13448508D02*
X8333753Y-13458031D01*
X8333753Y-13458031D02*
X8314706Y-13486603D01*
X8314706Y-13486603D02*
X8305182Y-13524698D01*
X8305182Y-13524698D02*
X8305182Y-13600888D01*
X8305182Y-13600888D02*
X8314706Y-13619936D01*
X8314706Y-13619936D02*
X8324229Y-13629460D01*
X8324229Y-13629460D02*
X8343277Y-13638984D01*
X8343277Y-13638984D02*
X8381372Y-13638984D01*
X8381372Y-13638984D02*
X8400420Y-13629460D01*
X8400420Y-13629460D02*
X8409944Y-13619936D01*
X8409944Y-13619936D02*
X8419468Y-13600888D01*
X8419468Y-13600888D02*
X8419468Y-13553269D01*
X8419468Y-13553269D02*
X8409944Y-13534222D01*
X8409944Y-13534222D02*
X8400420Y-13524698D01*
X8400420Y-13524698D02*
X8381372Y-13515174D01*
X8381372Y-13515174D02*
X8343277Y-13515174D01*
X8343277Y-13515174D02*
X8324229Y-13524698D01*
X8324229Y-13524698D02*
X8314706Y-13534222D01*
X8314706Y-13534222D02*
X8305182Y-13553269D01*
X8514706Y-13638984D02*
X8552801Y-13638984D01*
X8552801Y-13638984D02*
X8571849Y-13629460D01*
X8571849Y-13629460D02*
X8581372Y-13619936D01*
X8581372Y-13619936D02*
X8600420Y-13591365D01*
X8600420Y-13591365D02*
X8609944Y-13553269D01*
X8609944Y-13553269D02*
X8609944Y-13477079D01*
X8609944Y-13477079D02*
X8600420Y-13458031D01*
X8600420Y-13458031D02*
X8590896Y-13448508D01*
X8590896Y-13448508D02*
X8571849Y-13438984D01*
X8571849Y-13438984D02*
X8533753Y-13438984D01*
X8533753Y-13438984D02*
X8514706Y-13448508D01*
X8514706Y-13448508D02*
X8505182Y-13458031D01*
X8505182Y-13458031D02*
X8495658Y-13477079D01*
X8495658Y-13477079D02*
X8495658Y-13524698D01*
X8495658Y-13524698D02*
X8505182Y-13543746D01*
X8505182Y-13543746D02*
X8514706Y-13553269D01*
X8514706Y-13553269D02*
X8533753Y-13562793D01*
X8533753Y-13562793D02*
X8571849Y-13562793D01*
X8571849Y-13562793D02*
X8590896Y-13553269D01*
X8590896Y-13553269D02*
X8600420Y-13543746D01*
X8600420Y-13543746D02*
X8609944Y-13524698D01*
X8686134Y-13438984D02*
X8686134Y-13477079D01*
X8762325Y-13438984D02*
X8762325Y-13477079D01*
X9057563Y-13715174D02*
X9048039Y-13705650D01*
X9048039Y-13705650D02*
X9028991Y-13677079D01*
X9028991Y-13677079D02*
X9019468Y-13658031D01*
X9019468Y-13658031D02*
X9009944Y-13629460D01*
X9009944Y-13629460D02*
X9000420Y-13581841D01*
X9000420Y-13581841D02*
X9000420Y-13543746D01*
X9000420Y-13543746D02*
X9009944Y-13496127D01*
X9009944Y-13496127D02*
X9019468Y-13467555D01*
X9019468Y-13467555D02*
X9028991Y-13448508D01*
X9028991Y-13448508D02*
X9048039Y-13419936D01*
X9048039Y-13419936D02*
X9057563Y-13410412D01*
X9238515Y-13638984D02*
X9124230Y-13638984D01*
X9181372Y-13638984D02*
X9181372Y-13438984D01*
X9181372Y-13438984D02*
X9162325Y-13467555D01*
X9162325Y-13467555D02*
X9143277Y-13486603D01*
X9143277Y-13486603D02*
X9124230Y-13496127D01*
X9476611Y-13638984D02*
X9476611Y-13438984D01*
X9562325Y-13638984D02*
X9562325Y-13534222D01*
X9562325Y-13534222D02*
X9552801Y-13515174D01*
X9552801Y-13515174D02*
X9533753Y-13505650D01*
X9533753Y-13505650D02*
X9505182Y-13505650D01*
X9505182Y-13505650D02*
X9486134Y-13515174D01*
X9486134Y-13515174D02*
X9476611Y-13524698D01*
X9686134Y-13638984D02*
X9667087Y-13629460D01*
X9667087Y-13629460D02*
X9657563Y-13619936D01*
X9657563Y-13619936D02*
X9648039Y-13600888D01*
X9648039Y-13600888D02*
X9648039Y-13543746D01*
X9648039Y-13543746D02*
X9657563Y-13524698D01*
X9657563Y-13524698D02*
X9667087Y-13515174D01*
X9667087Y-13515174D02*
X9686134Y-13505650D01*
X9686134Y-13505650D02*
X9714706Y-13505650D01*
X9714706Y-13505650D02*
X9733753Y-13515174D01*
X9733753Y-13515174D02*
X9743277Y-13524698D01*
X9743277Y-13524698D02*
X9752801Y-13543746D01*
X9752801Y-13543746D02*
X9752801Y-13600888D01*
X9752801Y-13600888D02*
X9743277Y-13619936D01*
X9743277Y-13619936D02*
X9733753Y-13629460D01*
X9733753Y-13629460D02*
X9714706Y-13638984D01*
X9714706Y-13638984D02*
X9686134Y-13638984D01*
X9867087Y-13638984D02*
X9848039Y-13629460D01*
X9848039Y-13629460D02*
X9838515Y-13610412D01*
X9838515Y-13610412D02*
X9838515Y-13438984D01*
X10019468Y-13629460D02*
X10000420Y-13638984D01*
X10000420Y-13638984D02*
X9962325Y-13638984D01*
X9962325Y-13638984D02*
X9943277Y-13629460D01*
X9943277Y-13629460D02*
X9933753Y-13610412D01*
X9933753Y-13610412D02*
X9933753Y-13534222D01*
X9933753Y-13534222D02*
X9943277Y-13515174D01*
X9943277Y-13515174D02*
X9962325Y-13505650D01*
X9962325Y-13505650D02*
X10000420Y-13505650D01*
X10000420Y-13505650D02*
X10019468Y-13515174D01*
X10019468Y-13515174D02*
X10028992Y-13534222D01*
X10028992Y-13534222D02*
X10028992Y-13553269D01*
X10028992Y-13553269D02*
X9933753Y-13572317D01*
X10095658Y-13715174D02*
X10105182Y-13705650D01*
X10105182Y-13705650D02*
X10124230Y-13677079D01*
X10124230Y-13677079D02*
X10133753Y-13658031D01*
X10133753Y-13658031D02*
X10143277Y-13629460D01*
X10143277Y-13629460D02*
X10152801Y-13581841D01*
X10152801Y-13581841D02*
X10152801Y-13543746D01*
X10152801Y-13543746D02*
X10143277Y-13496127D01*
X10143277Y-13496127D02*
X10133753Y-13467555D01*
X10133753Y-13467555D02*
X10124230Y-13448508D01*
X10124230Y-13448508D02*
X10105182Y-13419936D01*
X10105182Y-13419936D02*
X10095658Y-13410412D01*
D16*
X5302500Y-13747500D02*
X5482500Y-13927500D01*
X5482500Y-13747500D02*
X5302500Y-13927500D01*
X5392500Y-13747500D02*
X5392500Y-13927500D01*
X5302500Y-13837500D02*
X5482500Y-13837500D01*
D11*
X5848039Y-13928984D02*
X5733753Y-13928984D01*
X5790896Y-13928984D02*
X5790896Y-13728984D01*
X5790896Y-13728984D02*
X5771848Y-13757555D01*
X5771848Y-13757555D02*
X5752801Y-13776603D01*
X5752801Y-13776603D02*
X5733753Y-13786127D01*
X5933753Y-13909936D02*
X5943277Y-13919460D01*
X5943277Y-13919460D02*
X5933753Y-13928984D01*
X5933753Y-13928984D02*
X5924229Y-13919460D01*
X5924229Y-13919460D02*
X5933753Y-13909936D01*
X5933753Y-13909936D02*
X5933753Y-13928984D01*
X6057562Y-13814698D02*
X6038515Y-13805174D01*
X6038515Y-13805174D02*
X6028991Y-13795650D01*
X6028991Y-13795650D02*
X6019467Y-13776603D01*
X6019467Y-13776603D02*
X6019467Y-13767079D01*
X6019467Y-13767079D02*
X6028991Y-13748031D01*
X6028991Y-13748031D02*
X6038515Y-13738508D01*
X6038515Y-13738508D02*
X6057562Y-13728984D01*
X6057562Y-13728984D02*
X6095658Y-13728984D01*
X6095658Y-13728984D02*
X6114705Y-13738508D01*
X6114705Y-13738508D02*
X6124229Y-13748031D01*
X6124229Y-13748031D02*
X6133753Y-13767079D01*
X6133753Y-13767079D02*
X6133753Y-13776603D01*
X6133753Y-13776603D02*
X6124229Y-13795650D01*
X6124229Y-13795650D02*
X6114705Y-13805174D01*
X6114705Y-13805174D02*
X6095658Y-13814698D01*
X6095658Y-13814698D02*
X6057562Y-13814698D01*
X6057562Y-13814698D02*
X6038515Y-13824222D01*
X6038515Y-13824222D02*
X6028991Y-13833746D01*
X6028991Y-13833746D02*
X6019467Y-13852793D01*
X6019467Y-13852793D02*
X6019467Y-13890888D01*
X6019467Y-13890888D02*
X6028991Y-13909936D01*
X6028991Y-13909936D02*
X6038515Y-13919460D01*
X6038515Y-13919460D02*
X6057562Y-13928984D01*
X6057562Y-13928984D02*
X6095658Y-13928984D01*
X6095658Y-13928984D02*
X6114705Y-13919460D01*
X6114705Y-13919460D02*
X6124229Y-13909936D01*
X6124229Y-13909936D02*
X6133753Y-13890888D01*
X6133753Y-13890888D02*
X6133753Y-13852793D01*
X6133753Y-13852793D02*
X6124229Y-13833746D01*
X6124229Y-13833746D02*
X6114705Y-13824222D01*
X6114705Y-13824222D02*
X6095658Y-13814698D01*
X6257562Y-13728984D02*
X6276610Y-13728984D01*
X6276610Y-13728984D02*
X6295658Y-13738508D01*
X6295658Y-13738508D02*
X6305182Y-13748031D01*
X6305182Y-13748031D02*
X6314705Y-13767079D01*
X6314705Y-13767079D02*
X6324229Y-13805174D01*
X6324229Y-13805174D02*
X6324229Y-13852793D01*
X6324229Y-13852793D02*
X6314705Y-13890888D01*
X6314705Y-13890888D02*
X6305182Y-13909936D01*
X6305182Y-13909936D02*
X6295658Y-13919460D01*
X6295658Y-13919460D02*
X6276610Y-13928984D01*
X6276610Y-13928984D02*
X6257562Y-13928984D01*
X6257562Y-13928984D02*
X6238515Y-13919460D01*
X6238515Y-13919460D02*
X6228991Y-13909936D01*
X6228991Y-13909936D02*
X6219467Y-13890888D01*
X6219467Y-13890888D02*
X6209943Y-13852793D01*
X6209943Y-13852793D02*
X6209943Y-13805174D01*
X6209943Y-13805174D02*
X6219467Y-13767079D01*
X6219467Y-13767079D02*
X6228991Y-13748031D01*
X6228991Y-13748031D02*
X6238515Y-13738508D01*
X6238515Y-13738508D02*
X6257562Y-13728984D01*
X6448039Y-13728984D02*
X6467086Y-13728984D01*
X6467086Y-13728984D02*
X6486134Y-13738508D01*
X6486134Y-13738508D02*
X6495658Y-13748031D01*
X6495658Y-13748031D02*
X6505182Y-13767079D01*
X6505182Y-13767079D02*
X6514705Y-13805174D01*
X6514705Y-13805174D02*
X6514705Y-13852793D01*
X6514705Y-13852793D02*
X6505182Y-13890888D01*
X6505182Y-13890888D02*
X6495658Y-13909936D01*
X6495658Y-13909936D02*
X6486134Y-13919460D01*
X6486134Y-13919460D02*
X6467086Y-13928984D01*
X6467086Y-13928984D02*
X6448039Y-13928984D01*
X6448039Y-13928984D02*
X6428991Y-13919460D01*
X6428991Y-13919460D02*
X6419467Y-13909936D01*
X6419467Y-13909936D02*
X6409943Y-13890888D01*
X6409943Y-13890888D02*
X6400420Y-13852793D01*
X6400420Y-13852793D02*
X6400420Y-13805174D01*
X6400420Y-13805174D02*
X6409943Y-13767079D01*
X6409943Y-13767079D02*
X6419467Y-13748031D01*
X6419467Y-13748031D02*
X6428991Y-13738508D01*
X6428991Y-13738508D02*
X6448039Y-13728984D01*
X6600420Y-13928984D02*
X6600420Y-13795650D01*
X6600420Y-13814698D02*
X6609943Y-13805174D01*
X6609943Y-13805174D02*
X6628991Y-13795650D01*
X6628991Y-13795650D02*
X6657563Y-13795650D01*
X6657563Y-13795650D02*
X6676610Y-13805174D01*
X6676610Y-13805174D02*
X6686134Y-13824222D01*
X6686134Y-13824222D02*
X6686134Y-13928984D01*
X6686134Y-13824222D02*
X6695658Y-13805174D01*
X6695658Y-13805174D02*
X6714705Y-13795650D01*
X6714705Y-13795650D02*
X6743277Y-13795650D01*
X6743277Y-13795650D02*
X6762324Y-13805174D01*
X6762324Y-13805174D02*
X6771848Y-13824222D01*
X6771848Y-13824222D02*
X6771848Y-13928984D01*
X6867086Y-13928984D02*
X6867086Y-13795650D01*
X6867086Y-13814698D02*
X6876610Y-13805174D01*
X6876610Y-13805174D02*
X6895658Y-13795650D01*
X6895658Y-13795650D02*
X6924229Y-13795650D01*
X6924229Y-13795650D02*
X6943277Y-13805174D01*
X6943277Y-13805174D02*
X6952801Y-13824222D01*
X6952801Y-13824222D02*
X6952801Y-13928984D01*
X6952801Y-13824222D02*
X6962324Y-13805174D01*
X6962324Y-13805174D02*
X6981372Y-13795650D01*
X6981372Y-13795650D02*
X7009943Y-13795650D01*
X7009943Y-13795650D02*
X7028991Y-13805174D01*
X7028991Y-13805174D02*
X7038515Y-13824222D01*
X7038515Y-13824222D02*
X7038515Y-13928984D01*
X7428991Y-13719460D02*
X7257563Y-13976603D01*
X7686134Y-13728984D02*
X7705182Y-13728984D01*
X7705182Y-13728984D02*
X7724229Y-13738508D01*
X7724229Y-13738508D02*
X7733753Y-13748031D01*
X7733753Y-13748031D02*
X7743277Y-13767079D01*
X7743277Y-13767079D02*
X7752801Y-13805174D01*
X7752801Y-13805174D02*
X7752801Y-13852793D01*
X7752801Y-13852793D02*
X7743277Y-13890888D01*
X7743277Y-13890888D02*
X7733753Y-13909936D01*
X7733753Y-13909936D02*
X7724229Y-13919460D01*
X7724229Y-13919460D02*
X7705182Y-13928984D01*
X7705182Y-13928984D02*
X7686134Y-13928984D01*
X7686134Y-13928984D02*
X7667086Y-13919460D01*
X7667086Y-13919460D02*
X7657563Y-13909936D01*
X7657563Y-13909936D02*
X7648039Y-13890888D01*
X7648039Y-13890888D02*
X7638515Y-13852793D01*
X7638515Y-13852793D02*
X7638515Y-13805174D01*
X7638515Y-13805174D02*
X7648039Y-13767079D01*
X7648039Y-13767079D02*
X7657563Y-13748031D01*
X7657563Y-13748031D02*
X7667086Y-13738508D01*
X7667086Y-13738508D02*
X7686134Y-13728984D01*
X7838515Y-13909936D02*
X7848039Y-13919460D01*
X7848039Y-13919460D02*
X7838515Y-13928984D01*
X7838515Y-13928984D02*
X7828991Y-13919460D01*
X7828991Y-13919460D02*
X7838515Y-13909936D01*
X7838515Y-13909936D02*
X7838515Y-13928984D01*
X7971848Y-13728984D02*
X7990896Y-13728984D01*
X7990896Y-13728984D02*
X8009944Y-13738508D01*
X8009944Y-13738508D02*
X8019467Y-13748031D01*
X8019467Y-13748031D02*
X8028991Y-13767079D01*
X8028991Y-13767079D02*
X8038515Y-13805174D01*
X8038515Y-13805174D02*
X8038515Y-13852793D01*
X8038515Y-13852793D02*
X8028991Y-13890888D01*
X8028991Y-13890888D02*
X8019467Y-13909936D01*
X8019467Y-13909936D02*
X8009944Y-13919460D01*
X8009944Y-13919460D02*
X7990896Y-13928984D01*
X7990896Y-13928984D02*
X7971848Y-13928984D01*
X7971848Y-13928984D02*
X7952801Y-13919460D01*
X7952801Y-13919460D02*
X7943277Y-13909936D01*
X7943277Y-13909936D02*
X7933753Y-13890888D01*
X7933753Y-13890888D02*
X7924229Y-13852793D01*
X7924229Y-13852793D02*
X7924229Y-13805174D01*
X7924229Y-13805174D02*
X7933753Y-13767079D01*
X7933753Y-13767079D02*
X7943277Y-13748031D01*
X7943277Y-13748031D02*
X7952801Y-13738508D01*
X7952801Y-13738508D02*
X7971848Y-13728984D01*
X8105182Y-13728984D02*
X8238515Y-13728984D01*
X8238515Y-13728984D02*
X8152801Y-13928984D01*
X8352801Y-13728984D02*
X8371848Y-13728984D01*
X8371848Y-13728984D02*
X8390896Y-13738508D01*
X8390896Y-13738508D02*
X8400420Y-13748031D01*
X8400420Y-13748031D02*
X8409944Y-13767079D01*
X8409944Y-13767079D02*
X8419468Y-13805174D01*
X8419468Y-13805174D02*
X8419468Y-13852793D01*
X8419468Y-13852793D02*
X8409944Y-13890888D01*
X8409944Y-13890888D02*
X8400420Y-13909936D01*
X8400420Y-13909936D02*
X8390896Y-13919460D01*
X8390896Y-13919460D02*
X8371848Y-13928984D01*
X8371848Y-13928984D02*
X8352801Y-13928984D01*
X8352801Y-13928984D02*
X8333753Y-13919460D01*
X8333753Y-13919460D02*
X8324229Y-13909936D01*
X8324229Y-13909936D02*
X8314706Y-13890888D01*
X8314706Y-13890888D02*
X8305182Y-13852793D01*
X8305182Y-13852793D02*
X8305182Y-13805174D01*
X8305182Y-13805174D02*
X8314706Y-13767079D01*
X8314706Y-13767079D02*
X8324229Y-13748031D01*
X8324229Y-13748031D02*
X8333753Y-13738508D01*
X8333753Y-13738508D02*
X8352801Y-13728984D01*
X8514706Y-13928984D02*
X8552801Y-13928984D01*
X8552801Y-13928984D02*
X8571849Y-13919460D01*
X8571849Y-13919460D02*
X8581372Y-13909936D01*
X8581372Y-13909936D02*
X8600420Y-13881365D01*
X8600420Y-13881365D02*
X8609944Y-13843269D01*
X8609944Y-13843269D02*
X8609944Y-13767079D01*
X8609944Y-13767079D02*
X8600420Y-13748031D01*
X8600420Y-13748031D02*
X8590896Y-13738508D01*
X8590896Y-13738508D02*
X8571849Y-13728984D01*
X8571849Y-13728984D02*
X8533753Y-13728984D01*
X8533753Y-13728984D02*
X8514706Y-13738508D01*
X8514706Y-13738508D02*
X8505182Y-13748031D01*
X8505182Y-13748031D02*
X8495658Y-13767079D01*
X8495658Y-13767079D02*
X8495658Y-13814698D01*
X8495658Y-13814698D02*
X8505182Y-13833746D01*
X8505182Y-13833746D02*
X8514706Y-13843269D01*
X8514706Y-13843269D02*
X8533753Y-13852793D01*
X8533753Y-13852793D02*
X8571849Y-13852793D01*
X8571849Y-13852793D02*
X8590896Y-13843269D01*
X8590896Y-13843269D02*
X8600420Y-13833746D01*
X8600420Y-13833746D02*
X8609944Y-13814698D01*
X8686134Y-13728984D02*
X8686134Y-13767079D01*
X8762325Y-13728984D02*
X8762325Y-13767079D01*
X9057563Y-14005174D02*
X9048039Y-13995650D01*
X9048039Y-13995650D02*
X9028991Y-13967079D01*
X9028991Y-13967079D02*
X9019468Y-13948031D01*
X9019468Y-13948031D02*
X9009944Y-13919460D01*
X9009944Y-13919460D02*
X9000420Y-13871841D01*
X9000420Y-13871841D02*
X9000420Y-13833746D01*
X9000420Y-13833746D02*
X9009944Y-13786127D01*
X9009944Y-13786127D02*
X9019468Y-13757555D01*
X9019468Y-13757555D02*
X9028991Y-13738508D01*
X9028991Y-13738508D02*
X9048039Y-13709936D01*
X9048039Y-13709936D02*
X9057563Y-13700412D01*
X9124230Y-13748031D02*
X9133753Y-13738508D01*
X9133753Y-13738508D02*
X9152801Y-13728984D01*
X9152801Y-13728984D02*
X9200420Y-13728984D01*
X9200420Y-13728984D02*
X9219468Y-13738508D01*
X9219468Y-13738508D02*
X9228991Y-13748031D01*
X9228991Y-13748031D02*
X9238515Y-13767079D01*
X9238515Y-13767079D02*
X9238515Y-13786127D01*
X9238515Y-13786127D02*
X9228991Y-13814698D01*
X9228991Y-13814698D02*
X9114706Y-13928984D01*
X9114706Y-13928984D02*
X9238515Y-13928984D01*
X9476611Y-13928984D02*
X9476611Y-13728984D01*
X9562325Y-13928984D02*
X9562325Y-13824222D01*
X9562325Y-13824222D02*
X9552801Y-13805174D01*
X9552801Y-13805174D02*
X9533753Y-13795650D01*
X9533753Y-13795650D02*
X9505182Y-13795650D01*
X9505182Y-13795650D02*
X9486134Y-13805174D01*
X9486134Y-13805174D02*
X9476611Y-13814698D01*
X9686134Y-13928984D02*
X9667087Y-13919460D01*
X9667087Y-13919460D02*
X9657563Y-13909936D01*
X9657563Y-13909936D02*
X9648039Y-13890888D01*
X9648039Y-13890888D02*
X9648039Y-13833746D01*
X9648039Y-13833746D02*
X9657563Y-13814698D01*
X9657563Y-13814698D02*
X9667087Y-13805174D01*
X9667087Y-13805174D02*
X9686134Y-13795650D01*
X9686134Y-13795650D02*
X9714706Y-13795650D01*
X9714706Y-13795650D02*
X9733753Y-13805174D01*
X9733753Y-13805174D02*
X9743277Y-13814698D01*
X9743277Y-13814698D02*
X9752801Y-13833746D01*
X9752801Y-13833746D02*
X9752801Y-13890888D01*
X9752801Y-13890888D02*
X9743277Y-13909936D01*
X9743277Y-13909936D02*
X9733753Y-13919460D01*
X9733753Y-13919460D02*
X9714706Y-13928984D01*
X9714706Y-13928984D02*
X9686134Y-13928984D01*
X9867087Y-13928984D02*
X9848039Y-13919460D01*
X9848039Y-13919460D02*
X9838515Y-13900412D01*
X9838515Y-13900412D02*
X9838515Y-13728984D01*
X10019468Y-13919460D02*
X10000420Y-13928984D01*
X10000420Y-13928984D02*
X9962325Y-13928984D01*
X9962325Y-13928984D02*
X9943277Y-13919460D01*
X9943277Y-13919460D02*
X9933753Y-13900412D01*
X9933753Y-13900412D02*
X9933753Y-13824222D01*
X9933753Y-13824222D02*
X9943277Y-13805174D01*
X9943277Y-13805174D02*
X9962325Y-13795650D01*
X9962325Y-13795650D02*
X10000420Y-13795650D01*
X10000420Y-13795650D02*
X10019468Y-13805174D01*
X10019468Y-13805174D02*
X10028992Y-13824222D01*
X10028992Y-13824222D02*
X10028992Y-13843269D01*
X10028992Y-13843269D02*
X9933753Y-13862317D01*
X10105182Y-13919460D02*
X10124230Y-13928984D01*
X10124230Y-13928984D02*
X10162325Y-13928984D01*
X10162325Y-13928984D02*
X10181373Y-13919460D01*
X10181373Y-13919460D02*
X10190896Y-13900412D01*
X10190896Y-13900412D02*
X10190896Y-13890888D01*
X10190896Y-13890888D02*
X10181373Y-13871841D01*
X10181373Y-13871841D02*
X10162325Y-13862317D01*
X10162325Y-13862317D02*
X10133753Y-13862317D01*
X10133753Y-13862317D02*
X10114706Y-13852793D01*
X10114706Y-13852793D02*
X10105182Y-13833746D01*
X10105182Y-13833746D02*
X10105182Y-13824222D01*
X10105182Y-13824222D02*
X10114706Y-13805174D01*
X10114706Y-13805174D02*
X10133753Y-13795650D01*
X10133753Y-13795650D02*
X10162325Y-13795650D01*
X10162325Y-13795650D02*
X10181373Y-13805174D01*
X10257563Y-14005174D02*
X10267087Y-13995650D01*
X10267087Y-13995650D02*
X10286134Y-13967079D01*
X10286134Y-13967079D02*
X10295658Y-13948031D01*
X10295658Y-13948031D02*
X10305182Y-13919460D01*
X10305182Y-13919460D02*
X10314706Y-13871841D01*
X10314706Y-13871841D02*
X10314706Y-13833746D01*
X10314706Y-13833746D02*
X10305182Y-13786127D01*
X10305182Y-13786127D02*
X10295658Y-13757555D01*
X10295658Y-13757555D02*
X10286134Y-13738508D01*
X10286134Y-13738508D02*
X10267087Y-13709936D01*
X10267087Y-13709936D02*
X10257563Y-13700412D01*
X5282500Y-14037500D02*
X5482500Y-14237500D01*
X5482500Y-14037500D02*
X5282500Y-14237500D01*
X5453211Y-14208211D02*
X5453211Y-14066789D01*
X5311789Y-14066789D01*
X5311789Y-14208211D01*
X5453211Y-14208211D01*
X5733753Y-14048031D02*
X5743277Y-14038508D01*
X5743277Y-14038508D02*
X5762324Y-14028984D01*
X5762324Y-14028984D02*
X5809943Y-14028984D01*
X5809943Y-14028984D02*
X5828991Y-14038508D01*
X5828991Y-14038508D02*
X5838515Y-14048031D01*
X5838515Y-14048031D02*
X5848039Y-14067079D01*
X5848039Y-14067079D02*
X5848039Y-14086127D01*
X5848039Y-14086127D02*
X5838515Y-14114698D01*
X5838515Y-14114698D02*
X5724229Y-14228984D01*
X5724229Y-14228984D02*
X5848039Y-14228984D01*
X5933753Y-14209936D02*
X5943277Y-14219460D01*
X5943277Y-14219460D02*
X5933753Y-14228984D01*
X5933753Y-14228984D02*
X5924229Y-14219460D01*
X5924229Y-14219460D02*
X5933753Y-14209936D01*
X5933753Y-14209936D02*
X5933753Y-14228984D01*
X6114705Y-14028984D02*
X6076610Y-14028984D01*
X6076610Y-14028984D02*
X6057562Y-14038508D01*
X6057562Y-14038508D02*
X6048039Y-14048031D01*
X6048039Y-14048031D02*
X6028991Y-14076603D01*
X6028991Y-14076603D02*
X6019467Y-14114698D01*
X6019467Y-14114698D02*
X6019467Y-14190888D01*
X6019467Y-14190888D02*
X6028991Y-14209936D01*
X6028991Y-14209936D02*
X6038515Y-14219460D01*
X6038515Y-14219460D02*
X6057562Y-14228984D01*
X6057562Y-14228984D02*
X6095658Y-14228984D01*
X6095658Y-14228984D02*
X6114705Y-14219460D01*
X6114705Y-14219460D02*
X6124229Y-14209936D01*
X6124229Y-14209936D02*
X6133753Y-14190888D01*
X6133753Y-14190888D02*
X6133753Y-14143269D01*
X6133753Y-14143269D02*
X6124229Y-14124222D01*
X6124229Y-14124222D02*
X6114705Y-14114698D01*
X6114705Y-14114698D02*
X6095658Y-14105174D01*
X6095658Y-14105174D02*
X6057562Y-14105174D01*
X6057562Y-14105174D02*
X6038515Y-14114698D01*
X6038515Y-14114698D02*
X6028991Y-14124222D01*
X6028991Y-14124222D02*
X6019467Y-14143269D01*
X6257562Y-14028984D02*
X6276610Y-14028984D01*
X6276610Y-14028984D02*
X6295658Y-14038508D01*
X6295658Y-14038508D02*
X6305182Y-14048031D01*
X6305182Y-14048031D02*
X6314705Y-14067079D01*
X6314705Y-14067079D02*
X6324229Y-14105174D01*
X6324229Y-14105174D02*
X6324229Y-14152793D01*
X6324229Y-14152793D02*
X6314705Y-14190888D01*
X6314705Y-14190888D02*
X6305182Y-14209936D01*
X6305182Y-14209936D02*
X6295658Y-14219460D01*
X6295658Y-14219460D02*
X6276610Y-14228984D01*
X6276610Y-14228984D02*
X6257562Y-14228984D01*
X6257562Y-14228984D02*
X6238515Y-14219460D01*
X6238515Y-14219460D02*
X6228991Y-14209936D01*
X6228991Y-14209936D02*
X6219467Y-14190888D01*
X6219467Y-14190888D02*
X6209943Y-14152793D01*
X6209943Y-14152793D02*
X6209943Y-14105174D01*
X6209943Y-14105174D02*
X6219467Y-14067079D01*
X6219467Y-14067079D02*
X6228991Y-14048031D01*
X6228991Y-14048031D02*
X6238515Y-14038508D01*
X6238515Y-14038508D02*
X6257562Y-14028984D01*
X6448039Y-14028984D02*
X6467086Y-14028984D01*
X6467086Y-14028984D02*
X6486134Y-14038508D01*
X6486134Y-14038508D02*
X6495658Y-14048031D01*
X6495658Y-14048031D02*
X6505182Y-14067079D01*
X6505182Y-14067079D02*
X6514705Y-14105174D01*
X6514705Y-14105174D02*
X6514705Y-14152793D01*
X6514705Y-14152793D02*
X6505182Y-14190888D01*
X6505182Y-14190888D02*
X6495658Y-14209936D01*
X6495658Y-14209936D02*
X6486134Y-14219460D01*
X6486134Y-14219460D02*
X6467086Y-14228984D01*
X6467086Y-14228984D02*
X6448039Y-14228984D01*
X6448039Y-14228984D02*
X6428991Y-14219460D01*
X6428991Y-14219460D02*
X6419467Y-14209936D01*
X6419467Y-14209936D02*
X6409943Y-14190888D01*
X6409943Y-14190888D02*
X6400420Y-14152793D01*
X6400420Y-14152793D02*
X6400420Y-14105174D01*
X6400420Y-14105174D02*
X6409943Y-14067079D01*
X6409943Y-14067079D02*
X6419467Y-14048031D01*
X6419467Y-14048031D02*
X6428991Y-14038508D01*
X6428991Y-14038508D02*
X6448039Y-14028984D01*
X6600420Y-14228984D02*
X6600420Y-14095650D01*
X6600420Y-14114698D02*
X6609943Y-14105174D01*
X6609943Y-14105174D02*
X6628991Y-14095650D01*
X6628991Y-14095650D02*
X6657563Y-14095650D01*
X6657563Y-14095650D02*
X6676610Y-14105174D01*
X6676610Y-14105174D02*
X6686134Y-14124222D01*
X6686134Y-14124222D02*
X6686134Y-14228984D01*
X6686134Y-14124222D02*
X6695658Y-14105174D01*
X6695658Y-14105174D02*
X6714705Y-14095650D01*
X6714705Y-14095650D02*
X6743277Y-14095650D01*
X6743277Y-14095650D02*
X6762324Y-14105174D01*
X6762324Y-14105174D02*
X6771848Y-14124222D01*
X6771848Y-14124222D02*
X6771848Y-14228984D01*
X6867086Y-14228984D02*
X6867086Y-14095650D01*
X6867086Y-14114698D02*
X6876610Y-14105174D01*
X6876610Y-14105174D02*
X6895658Y-14095650D01*
X6895658Y-14095650D02*
X6924229Y-14095650D01*
X6924229Y-14095650D02*
X6943277Y-14105174D01*
X6943277Y-14105174D02*
X6952801Y-14124222D01*
X6952801Y-14124222D02*
X6952801Y-14228984D01*
X6952801Y-14124222D02*
X6962324Y-14105174D01*
X6962324Y-14105174D02*
X6981372Y-14095650D01*
X6981372Y-14095650D02*
X7009943Y-14095650D01*
X7009943Y-14095650D02*
X7028991Y-14105174D01*
X7028991Y-14105174D02*
X7038515Y-14124222D01*
X7038515Y-14124222D02*
X7038515Y-14228984D01*
X7428991Y-14019460D02*
X7257563Y-14276603D01*
X7686134Y-14028984D02*
X7705182Y-14028984D01*
X7705182Y-14028984D02*
X7724229Y-14038508D01*
X7724229Y-14038508D02*
X7733753Y-14048031D01*
X7733753Y-14048031D02*
X7743277Y-14067079D01*
X7743277Y-14067079D02*
X7752801Y-14105174D01*
X7752801Y-14105174D02*
X7752801Y-14152793D01*
X7752801Y-14152793D02*
X7743277Y-14190888D01*
X7743277Y-14190888D02*
X7733753Y-14209936D01*
X7733753Y-14209936D02*
X7724229Y-14219460D01*
X7724229Y-14219460D02*
X7705182Y-14228984D01*
X7705182Y-14228984D02*
X7686134Y-14228984D01*
X7686134Y-14228984D02*
X7667086Y-14219460D01*
X7667086Y-14219460D02*
X7657563Y-14209936D01*
X7657563Y-14209936D02*
X7648039Y-14190888D01*
X7648039Y-14190888D02*
X7638515Y-14152793D01*
X7638515Y-14152793D02*
X7638515Y-14105174D01*
X7638515Y-14105174D02*
X7648039Y-14067079D01*
X7648039Y-14067079D02*
X7657563Y-14048031D01*
X7657563Y-14048031D02*
X7667086Y-14038508D01*
X7667086Y-14038508D02*
X7686134Y-14028984D01*
X7838515Y-14209936D02*
X7848039Y-14219460D01*
X7848039Y-14219460D02*
X7838515Y-14228984D01*
X7838515Y-14228984D02*
X7828991Y-14219460D01*
X7828991Y-14219460D02*
X7838515Y-14209936D01*
X7838515Y-14209936D02*
X7838515Y-14228984D01*
X8038515Y-14228984D02*
X7924229Y-14228984D01*
X7981372Y-14228984D02*
X7981372Y-14028984D01*
X7981372Y-14028984D02*
X7962325Y-14057555D01*
X7962325Y-14057555D02*
X7943277Y-14076603D01*
X7943277Y-14076603D02*
X7924229Y-14086127D01*
X8162325Y-14028984D02*
X8181372Y-14028984D01*
X8181372Y-14028984D02*
X8200420Y-14038508D01*
X8200420Y-14038508D02*
X8209944Y-14048031D01*
X8209944Y-14048031D02*
X8219467Y-14067079D01*
X8219467Y-14067079D02*
X8228991Y-14105174D01*
X8228991Y-14105174D02*
X8228991Y-14152793D01*
X8228991Y-14152793D02*
X8219467Y-14190888D01*
X8219467Y-14190888D02*
X8209944Y-14209936D01*
X8209944Y-14209936D02*
X8200420Y-14219460D01*
X8200420Y-14219460D02*
X8181372Y-14228984D01*
X8181372Y-14228984D02*
X8162325Y-14228984D01*
X8162325Y-14228984D02*
X8143277Y-14219460D01*
X8143277Y-14219460D02*
X8133753Y-14209936D01*
X8133753Y-14209936D02*
X8124229Y-14190888D01*
X8124229Y-14190888D02*
X8114706Y-14152793D01*
X8114706Y-14152793D02*
X8114706Y-14105174D01*
X8114706Y-14105174D02*
X8124229Y-14067079D01*
X8124229Y-14067079D02*
X8133753Y-14048031D01*
X8133753Y-14048031D02*
X8143277Y-14038508D01*
X8143277Y-14038508D02*
X8162325Y-14028984D01*
X8305182Y-14048031D02*
X8314706Y-14038508D01*
X8314706Y-14038508D02*
X8333753Y-14028984D01*
X8333753Y-14028984D02*
X8381372Y-14028984D01*
X8381372Y-14028984D02*
X8400420Y-14038508D01*
X8400420Y-14038508D02*
X8409944Y-14048031D01*
X8409944Y-14048031D02*
X8419468Y-14067079D01*
X8419468Y-14067079D02*
X8419468Y-14086127D01*
X8419468Y-14086127D02*
X8409944Y-14114698D01*
X8409944Y-14114698D02*
X8295658Y-14228984D01*
X8295658Y-14228984D02*
X8419468Y-14228984D01*
X8590896Y-14095650D02*
X8590896Y-14228984D01*
X8543277Y-14019460D02*
X8495658Y-14162317D01*
X8495658Y-14162317D02*
X8619468Y-14162317D01*
X8686134Y-14028984D02*
X8686134Y-14067079D01*
X8762325Y-14028984D02*
X8762325Y-14067079D01*
X9057563Y-14305174D02*
X9048039Y-14295650D01*
X9048039Y-14295650D02*
X9028991Y-14267079D01*
X9028991Y-14267079D02*
X9019468Y-14248031D01*
X9019468Y-14248031D02*
X9009944Y-14219460D01*
X9009944Y-14219460D02*
X9000420Y-14171841D01*
X9000420Y-14171841D02*
X9000420Y-14133746D01*
X9000420Y-14133746D02*
X9009944Y-14086127D01*
X9009944Y-14086127D02*
X9019468Y-14057555D01*
X9019468Y-14057555D02*
X9028991Y-14038508D01*
X9028991Y-14038508D02*
X9048039Y-14009936D01*
X9048039Y-14009936D02*
X9057563Y-14000412D01*
X9238515Y-14228984D02*
X9124230Y-14228984D01*
X9181372Y-14228984D02*
X9181372Y-14028984D01*
X9181372Y-14028984D02*
X9162325Y-14057555D01*
X9162325Y-14057555D02*
X9143277Y-14076603D01*
X9143277Y-14076603D02*
X9124230Y-14086127D01*
X9476611Y-14228984D02*
X9476611Y-14028984D01*
X9562325Y-14228984D02*
X9562325Y-14124222D01*
X9562325Y-14124222D02*
X9552801Y-14105174D01*
X9552801Y-14105174D02*
X9533753Y-14095650D01*
X9533753Y-14095650D02*
X9505182Y-14095650D01*
X9505182Y-14095650D02*
X9486134Y-14105174D01*
X9486134Y-14105174D02*
X9476611Y-14114698D01*
X9686134Y-14228984D02*
X9667087Y-14219460D01*
X9667087Y-14219460D02*
X9657563Y-14209936D01*
X9657563Y-14209936D02*
X9648039Y-14190888D01*
X9648039Y-14190888D02*
X9648039Y-14133746D01*
X9648039Y-14133746D02*
X9657563Y-14114698D01*
X9657563Y-14114698D02*
X9667087Y-14105174D01*
X9667087Y-14105174D02*
X9686134Y-14095650D01*
X9686134Y-14095650D02*
X9714706Y-14095650D01*
X9714706Y-14095650D02*
X9733753Y-14105174D01*
X9733753Y-14105174D02*
X9743277Y-14114698D01*
X9743277Y-14114698D02*
X9752801Y-14133746D01*
X9752801Y-14133746D02*
X9752801Y-14190888D01*
X9752801Y-14190888D02*
X9743277Y-14209936D01*
X9743277Y-14209936D02*
X9733753Y-14219460D01*
X9733753Y-14219460D02*
X9714706Y-14228984D01*
X9714706Y-14228984D02*
X9686134Y-14228984D01*
X9867087Y-14228984D02*
X9848039Y-14219460D01*
X9848039Y-14219460D02*
X9838515Y-14200412D01*
X9838515Y-14200412D02*
X9838515Y-14028984D01*
X10019468Y-14219460D02*
X10000420Y-14228984D01*
X10000420Y-14228984D02*
X9962325Y-14228984D01*
X9962325Y-14228984D02*
X9943277Y-14219460D01*
X9943277Y-14219460D02*
X9933753Y-14200412D01*
X9933753Y-14200412D02*
X9933753Y-14124222D01*
X9933753Y-14124222D02*
X9943277Y-14105174D01*
X9943277Y-14105174D02*
X9962325Y-14095650D01*
X9962325Y-14095650D02*
X10000420Y-14095650D01*
X10000420Y-14095650D02*
X10019468Y-14105174D01*
X10019468Y-14105174D02*
X10028992Y-14124222D01*
X10028992Y-14124222D02*
X10028992Y-14143269D01*
X10028992Y-14143269D02*
X9933753Y-14162317D01*
X10095658Y-14305174D02*
X10105182Y-14295650D01*
X10105182Y-14295650D02*
X10124230Y-14267079D01*
X10124230Y-14267079D02*
X10133753Y-14248031D01*
X10133753Y-14248031D02*
X10143277Y-14219460D01*
X10143277Y-14219460D02*
X10152801Y-14171841D01*
X10152801Y-14171841D02*
X10152801Y-14133746D01*
X10152801Y-14133746D02*
X10143277Y-14086127D01*
X10143277Y-14086127D02*
X10133753Y-14057555D01*
X10133753Y-14057555D02*
X10124230Y-14038508D01*
X10124230Y-14038508D02*
X10105182Y-14009936D01*
X10105182Y-14009936D02*
X10095658Y-14000412D01*
X5282500Y-14357500D02*
X5482500Y-14557500D01*
X5482500Y-14357500D02*
X5282500Y-14557500D01*
X5382500Y-14557500D02*
X5482500Y-14457500D01*
X5382500Y-14357500D01*
X5282500Y-14457500D01*
X5382500Y-14557500D01*
X5724229Y-14348984D02*
X5848039Y-14348984D01*
X5848039Y-14348984D02*
X5781372Y-14425174D01*
X5781372Y-14425174D02*
X5809943Y-14425174D01*
X5809943Y-14425174D02*
X5828991Y-14434698D01*
X5828991Y-14434698D02*
X5838515Y-14444222D01*
X5838515Y-14444222D02*
X5848039Y-14463269D01*
X5848039Y-14463269D02*
X5848039Y-14510888D01*
X5848039Y-14510888D02*
X5838515Y-14529936D01*
X5838515Y-14529936D02*
X5828991Y-14539460D01*
X5828991Y-14539460D02*
X5809943Y-14548984D01*
X5809943Y-14548984D02*
X5752801Y-14548984D01*
X5752801Y-14548984D02*
X5733753Y-14539460D01*
X5733753Y-14539460D02*
X5724229Y-14529936D01*
X5933753Y-14529936D02*
X5943277Y-14539460D01*
X5943277Y-14539460D02*
X5933753Y-14548984D01*
X5933753Y-14548984D02*
X5924229Y-14539460D01*
X5924229Y-14539460D02*
X5933753Y-14529936D01*
X5933753Y-14529936D02*
X5933753Y-14548984D01*
X6019467Y-14368031D02*
X6028991Y-14358508D01*
X6028991Y-14358508D02*
X6048039Y-14348984D01*
X6048039Y-14348984D02*
X6095658Y-14348984D01*
X6095658Y-14348984D02*
X6114705Y-14358508D01*
X6114705Y-14358508D02*
X6124229Y-14368031D01*
X6124229Y-14368031D02*
X6133753Y-14387079D01*
X6133753Y-14387079D02*
X6133753Y-14406127D01*
X6133753Y-14406127D02*
X6124229Y-14434698D01*
X6124229Y-14434698D02*
X6009943Y-14548984D01*
X6009943Y-14548984D02*
X6133753Y-14548984D01*
X6257562Y-14348984D02*
X6276610Y-14348984D01*
X6276610Y-14348984D02*
X6295658Y-14358508D01*
X6295658Y-14358508D02*
X6305182Y-14368031D01*
X6305182Y-14368031D02*
X6314705Y-14387079D01*
X6314705Y-14387079D02*
X6324229Y-14425174D01*
X6324229Y-14425174D02*
X6324229Y-14472793D01*
X6324229Y-14472793D02*
X6314705Y-14510888D01*
X6314705Y-14510888D02*
X6305182Y-14529936D01*
X6305182Y-14529936D02*
X6295658Y-14539460D01*
X6295658Y-14539460D02*
X6276610Y-14548984D01*
X6276610Y-14548984D02*
X6257562Y-14548984D01*
X6257562Y-14548984D02*
X6238515Y-14539460D01*
X6238515Y-14539460D02*
X6228991Y-14529936D01*
X6228991Y-14529936D02*
X6219467Y-14510888D01*
X6219467Y-14510888D02*
X6209943Y-14472793D01*
X6209943Y-14472793D02*
X6209943Y-14425174D01*
X6209943Y-14425174D02*
X6219467Y-14387079D01*
X6219467Y-14387079D02*
X6228991Y-14368031D01*
X6228991Y-14368031D02*
X6238515Y-14358508D01*
X6238515Y-14358508D02*
X6257562Y-14348984D01*
X6448039Y-14348984D02*
X6467086Y-14348984D01*
X6467086Y-14348984D02*
X6486134Y-14358508D01*
X6486134Y-14358508D02*
X6495658Y-14368031D01*
X6495658Y-14368031D02*
X6505182Y-14387079D01*
X6505182Y-14387079D02*
X6514705Y-14425174D01*
X6514705Y-14425174D02*
X6514705Y-14472793D01*
X6514705Y-14472793D02*
X6505182Y-14510888D01*
X6505182Y-14510888D02*
X6495658Y-14529936D01*
X6495658Y-14529936D02*
X6486134Y-14539460D01*
X6486134Y-14539460D02*
X6467086Y-14548984D01*
X6467086Y-14548984D02*
X6448039Y-14548984D01*
X6448039Y-14548984D02*
X6428991Y-14539460D01*
X6428991Y-14539460D02*
X6419467Y-14529936D01*
X6419467Y-14529936D02*
X6409943Y-14510888D01*
X6409943Y-14510888D02*
X6400420Y-14472793D01*
X6400420Y-14472793D02*
X6400420Y-14425174D01*
X6400420Y-14425174D02*
X6409943Y-14387079D01*
X6409943Y-14387079D02*
X6419467Y-14368031D01*
X6419467Y-14368031D02*
X6428991Y-14358508D01*
X6428991Y-14358508D02*
X6448039Y-14348984D01*
X6600420Y-14548984D02*
X6600420Y-14415650D01*
X6600420Y-14434698D02*
X6609943Y-14425174D01*
X6609943Y-14425174D02*
X6628991Y-14415650D01*
X6628991Y-14415650D02*
X6657563Y-14415650D01*
X6657563Y-14415650D02*
X6676610Y-14425174D01*
X6676610Y-14425174D02*
X6686134Y-14444222D01*
X6686134Y-14444222D02*
X6686134Y-14548984D01*
X6686134Y-14444222D02*
X6695658Y-14425174D01*
X6695658Y-14425174D02*
X6714705Y-14415650D01*
X6714705Y-14415650D02*
X6743277Y-14415650D01*
X6743277Y-14415650D02*
X6762324Y-14425174D01*
X6762324Y-14425174D02*
X6771848Y-14444222D01*
X6771848Y-14444222D02*
X6771848Y-14548984D01*
X6867086Y-14548984D02*
X6867086Y-14415650D01*
X6867086Y-14434698D02*
X6876610Y-14425174D01*
X6876610Y-14425174D02*
X6895658Y-14415650D01*
X6895658Y-14415650D02*
X6924229Y-14415650D01*
X6924229Y-14415650D02*
X6943277Y-14425174D01*
X6943277Y-14425174D02*
X6952801Y-14444222D01*
X6952801Y-14444222D02*
X6952801Y-14548984D01*
X6952801Y-14444222D02*
X6962324Y-14425174D01*
X6962324Y-14425174D02*
X6981372Y-14415650D01*
X6981372Y-14415650D02*
X7009943Y-14415650D01*
X7009943Y-14415650D02*
X7028991Y-14425174D01*
X7028991Y-14425174D02*
X7038515Y-14444222D01*
X7038515Y-14444222D02*
X7038515Y-14548984D01*
X7428991Y-14339460D02*
X7257563Y-14596603D01*
X7686134Y-14348984D02*
X7705182Y-14348984D01*
X7705182Y-14348984D02*
X7724229Y-14358508D01*
X7724229Y-14358508D02*
X7733753Y-14368031D01*
X7733753Y-14368031D02*
X7743277Y-14387079D01*
X7743277Y-14387079D02*
X7752801Y-14425174D01*
X7752801Y-14425174D02*
X7752801Y-14472793D01*
X7752801Y-14472793D02*
X7743277Y-14510888D01*
X7743277Y-14510888D02*
X7733753Y-14529936D01*
X7733753Y-14529936D02*
X7724229Y-14539460D01*
X7724229Y-14539460D02*
X7705182Y-14548984D01*
X7705182Y-14548984D02*
X7686134Y-14548984D01*
X7686134Y-14548984D02*
X7667086Y-14539460D01*
X7667086Y-14539460D02*
X7657563Y-14529936D01*
X7657563Y-14529936D02*
X7648039Y-14510888D01*
X7648039Y-14510888D02*
X7638515Y-14472793D01*
X7638515Y-14472793D02*
X7638515Y-14425174D01*
X7638515Y-14425174D02*
X7648039Y-14387079D01*
X7648039Y-14387079D02*
X7657563Y-14368031D01*
X7657563Y-14368031D02*
X7667086Y-14358508D01*
X7667086Y-14358508D02*
X7686134Y-14348984D01*
X7838515Y-14529936D02*
X7848039Y-14539460D01*
X7848039Y-14539460D02*
X7838515Y-14548984D01*
X7838515Y-14548984D02*
X7828991Y-14539460D01*
X7828991Y-14539460D02*
X7838515Y-14529936D01*
X7838515Y-14529936D02*
X7838515Y-14548984D01*
X8038515Y-14548984D02*
X7924229Y-14548984D01*
X7981372Y-14548984D02*
X7981372Y-14348984D01*
X7981372Y-14348984D02*
X7962325Y-14377555D01*
X7962325Y-14377555D02*
X7943277Y-14396603D01*
X7943277Y-14396603D02*
X7924229Y-14406127D01*
X8114706Y-14368031D02*
X8124229Y-14358508D01*
X8124229Y-14358508D02*
X8143277Y-14348984D01*
X8143277Y-14348984D02*
X8190896Y-14348984D01*
X8190896Y-14348984D02*
X8209944Y-14358508D01*
X8209944Y-14358508D02*
X8219467Y-14368031D01*
X8219467Y-14368031D02*
X8228991Y-14387079D01*
X8228991Y-14387079D02*
X8228991Y-14406127D01*
X8228991Y-14406127D02*
X8219467Y-14434698D01*
X8219467Y-14434698D02*
X8105182Y-14548984D01*
X8105182Y-14548984D02*
X8228991Y-14548984D01*
X8400420Y-14348984D02*
X8362325Y-14348984D01*
X8362325Y-14348984D02*
X8343277Y-14358508D01*
X8343277Y-14358508D02*
X8333753Y-14368031D01*
X8333753Y-14368031D02*
X8314706Y-14396603D01*
X8314706Y-14396603D02*
X8305182Y-14434698D01*
X8305182Y-14434698D02*
X8305182Y-14510888D01*
X8305182Y-14510888D02*
X8314706Y-14529936D01*
X8314706Y-14529936D02*
X8324229Y-14539460D01*
X8324229Y-14539460D02*
X8343277Y-14548984D01*
X8343277Y-14548984D02*
X8381372Y-14548984D01*
X8381372Y-14548984D02*
X8400420Y-14539460D01*
X8400420Y-14539460D02*
X8409944Y-14529936D01*
X8409944Y-14529936D02*
X8419468Y-14510888D01*
X8419468Y-14510888D02*
X8419468Y-14463269D01*
X8419468Y-14463269D02*
X8409944Y-14444222D01*
X8409944Y-14444222D02*
X8400420Y-14434698D01*
X8400420Y-14434698D02*
X8381372Y-14425174D01*
X8381372Y-14425174D02*
X8343277Y-14425174D01*
X8343277Y-14425174D02*
X8324229Y-14434698D01*
X8324229Y-14434698D02*
X8314706Y-14444222D01*
X8314706Y-14444222D02*
X8305182Y-14463269D01*
X8543277Y-14348984D02*
X8562325Y-14348984D01*
X8562325Y-14348984D02*
X8581372Y-14358508D01*
X8581372Y-14358508D02*
X8590896Y-14368031D01*
X8590896Y-14368031D02*
X8600420Y-14387079D01*
X8600420Y-14387079D02*
X8609944Y-14425174D01*
X8609944Y-14425174D02*
X8609944Y-14472793D01*
X8609944Y-14472793D02*
X8600420Y-14510888D01*
X8600420Y-14510888D02*
X8590896Y-14529936D01*
X8590896Y-14529936D02*
X8581372Y-14539460D01*
X8581372Y-14539460D02*
X8562325Y-14548984D01*
X8562325Y-14548984D02*
X8543277Y-14548984D01*
X8543277Y-14548984D02*
X8524229Y-14539460D01*
X8524229Y-14539460D02*
X8514706Y-14529936D01*
X8514706Y-14529936D02*
X8505182Y-14510888D01*
X8505182Y-14510888D02*
X8495658Y-14472793D01*
X8495658Y-14472793D02*
X8495658Y-14425174D01*
X8495658Y-14425174D02*
X8505182Y-14387079D01*
X8505182Y-14387079D02*
X8514706Y-14368031D01*
X8514706Y-14368031D02*
X8524229Y-14358508D01*
X8524229Y-14358508D02*
X8543277Y-14348984D01*
X8686134Y-14348984D02*
X8686134Y-14387079D01*
X8762325Y-14348984D02*
X8762325Y-14387079D01*
X9057563Y-14625174D02*
X9048039Y-14615650D01*
X9048039Y-14615650D02*
X9028991Y-14587079D01*
X9028991Y-14587079D02*
X9019468Y-14568031D01*
X9019468Y-14568031D02*
X9009944Y-14539460D01*
X9009944Y-14539460D02*
X9000420Y-14491841D01*
X9000420Y-14491841D02*
X9000420Y-14453746D01*
X9000420Y-14453746D02*
X9009944Y-14406127D01*
X9009944Y-14406127D02*
X9019468Y-14377555D01*
X9019468Y-14377555D02*
X9028991Y-14358508D01*
X9028991Y-14358508D02*
X9048039Y-14329936D01*
X9048039Y-14329936D02*
X9057563Y-14320412D01*
X9124230Y-14368031D02*
X9133753Y-14358508D01*
X9133753Y-14358508D02*
X9152801Y-14348984D01*
X9152801Y-14348984D02*
X9200420Y-14348984D01*
X9200420Y-14348984D02*
X9219468Y-14358508D01*
X9219468Y-14358508D02*
X9228991Y-14368031D01*
X9228991Y-14368031D02*
X9238515Y-14387079D01*
X9238515Y-14387079D02*
X9238515Y-14406127D01*
X9238515Y-14406127D02*
X9228991Y-14434698D01*
X9228991Y-14434698D02*
X9114706Y-14548984D01*
X9114706Y-14548984D02*
X9238515Y-14548984D01*
X9476611Y-14548984D02*
X9476611Y-14348984D01*
X9562325Y-14548984D02*
X9562325Y-14444222D01*
X9562325Y-14444222D02*
X9552801Y-14425174D01*
X9552801Y-14425174D02*
X9533753Y-14415650D01*
X9533753Y-14415650D02*
X9505182Y-14415650D01*
X9505182Y-14415650D02*
X9486134Y-14425174D01*
X9486134Y-14425174D02*
X9476611Y-14434698D01*
X9686134Y-14548984D02*
X9667087Y-14539460D01*
X9667087Y-14539460D02*
X9657563Y-14529936D01*
X9657563Y-14529936D02*
X9648039Y-14510888D01*
X9648039Y-14510888D02*
X9648039Y-14453746D01*
X9648039Y-14453746D02*
X9657563Y-14434698D01*
X9657563Y-14434698D02*
X9667087Y-14425174D01*
X9667087Y-14425174D02*
X9686134Y-14415650D01*
X9686134Y-14415650D02*
X9714706Y-14415650D01*
X9714706Y-14415650D02*
X9733753Y-14425174D01*
X9733753Y-14425174D02*
X9743277Y-14434698D01*
X9743277Y-14434698D02*
X9752801Y-14453746D01*
X9752801Y-14453746D02*
X9752801Y-14510888D01*
X9752801Y-14510888D02*
X9743277Y-14529936D01*
X9743277Y-14529936D02*
X9733753Y-14539460D01*
X9733753Y-14539460D02*
X9714706Y-14548984D01*
X9714706Y-14548984D02*
X9686134Y-14548984D01*
X9867087Y-14548984D02*
X9848039Y-14539460D01*
X9848039Y-14539460D02*
X9838515Y-14520412D01*
X9838515Y-14520412D02*
X9838515Y-14348984D01*
X10019468Y-14539460D02*
X10000420Y-14548984D01*
X10000420Y-14548984D02*
X9962325Y-14548984D01*
X9962325Y-14548984D02*
X9943277Y-14539460D01*
X9943277Y-14539460D02*
X9933753Y-14520412D01*
X9933753Y-14520412D02*
X9933753Y-14444222D01*
X9933753Y-14444222D02*
X9943277Y-14425174D01*
X9943277Y-14425174D02*
X9962325Y-14415650D01*
X9962325Y-14415650D02*
X10000420Y-14415650D01*
X10000420Y-14415650D02*
X10019468Y-14425174D01*
X10019468Y-14425174D02*
X10028992Y-14444222D01*
X10028992Y-14444222D02*
X10028992Y-14463269D01*
X10028992Y-14463269D02*
X9933753Y-14482317D01*
X10105182Y-14539460D02*
X10124230Y-14548984D01*
X10124230Y-14548984D02*
X10162325Y-14548984D01*
X10162325Y-14548984D02*
X10181373Y-14539460D01*
X10181373Y-14539460D02*
X10190896Y-14520412D01*
X10190896Y-14520412D02*
X10190896Y-14510888D01*
X10190896Y-14510888D02*
X10181373Y-14491841D01*
X10181373Y-14491841D02*
X10162325Y-14482317D01*
X10162325Y-14482317D02*
X10133753Y-14482317D01*
X10133753Y-14482317D02*
X10114706Y-14472793D01*
X10114706Y-14472793D02*
X10105182Y-14453746D01*
X10105182Y-14453746D02*
X10105182Y-14444222D01*
X10105182Y-14444222D02*
X10114706Y-14425174D01*
X10114706Y-14425174D02*
X10133753Y-14415650D01*
X10133753Y-14415650D02*
X10162325Y-14415650D01*
X10162325Y-14415650D02*
X10181373Y-14425174D01*
X10257563Y-14625174D02*
X10267087Y-14615650D01*
X10267087Y-14615650D02*
X10286134Y-14587079D01*
X10286134Y-14587079D02*
X10295658Y-14568031D01*
X10295658Y-14568031D02*
X10305182Y-14539460D01*
X10305182Y-14539460D02*
X10314706Y-14491841D01*
X10314706Y-14491841D02*
X10314706Y-14453746D01*
X10314706Y-14453746D02*
X10305182Y-14406127D01*
X10305182Y-14406127D02*
X10295658Y-14377555D01*
X10295658Y-14377555D02*
X10286134Y-14358508D01*
X10286134Y-14358508D02*
X10267087Y-14329936D01*
X10267087Y-14329936D02*
X10257563Y-14320412D01*
M02*
