%TF.GenerationSoftware,KiCad,Pcbnew,8.0.1*%
%TF.CreationDate,2024-06-09T01:41:57+01:00*%
%TF.ProjectId,tim011_video_fix,74696d30-3131-45f7-9669-64656f5f6669,rev?*%
%TF.SameCoordinates,Original*%
%TF.FileFunction,Legend,Bot*%
%TF.FilePolarity,Positive*%
%FSLAX46Y46*%
G04 Gerber Fmt 4.6, Leading zero omitted, Abs format (unit mm)*
G04 Created by KiCad (PCBNEW 8.0.1) date 2024-06-09 01:41:57*
%MOMM*%
%LPD*%
G01*
G04 APERTURE LIST*
%ADD10C,0.150000*%
%ADD11C,0.100000*%
G04 APERTURE END LIST*
D10*
X137672744Y-113295342D02*
X137672744Y-114152485D01*
X137672744Y-114152485D02*
X137729887Y-114323914D01*
X137729887Y-114323914D02*
X137844173Y-114438200D01*
X137844173Y-114438200D02*
X138015601Y-114495342D01*
X138015601Y-114495342D02*
X138129887Y-114495342D01*
X136529887Y-114495342D02*
X137101315Y-114495342D01*
X137101315Y-114495342D02*
X137101315Y-113295342D01*
X135444172Y-114381057D02*
X135501315Y-114438200D01*
X135501315Y-114438200D02*
X135672743Y-114495342D01*
X135672743Y-114495342D02*
X135787029Y-114495342D01*
X135787029Y-114495342D02*
X135958458Y-114438200D01*
X135958458Y-114438200D02*
X136072743Y-114323914D01*
X136072743Y-114323914D02*
X136129886Y-114209628D01*
X136129886Y-114209628D02*
X136187029Y-113981057D01*
X136187029Y-113981057D02*
X136187029Y-113809628D01*
X136187029Y-113809628D02*
X136129886Y-113581057D01*
X136129886Y-113581057D02*
X136072743Y-113466771D01*
X136072743Y-113466771D02*
X135958458Y-113352485D01*
X135958458Y-113352485D02*
X135787029Y-113295342D01*
X135787029Y-113295342D02*
X135672743Y-113295342D01*
X135672743Y-113295342D02*
X135501315Y-113352485D01*
X135501315Y-113352485D02*
X135444172Y-113409628D01*
X134587029Y-113295342D02*
X134587029Y-114152485D01*
X134587029Y-114152485D02*
X134644172Y-114323914D01*
X134644172Y-114323914D02*
X134758458Y-114438200D01*
X134758458Y-114438200D02*
X134929886Y-114495342D01*
X134929886Y-114495342D02*
X135044172Y-114495342D01*
X133444172Y-114495342D02*
X134015600Y-114495342D01*
X134015600Y-114495342D02*
X134015600Y-113295342D01*
X132358457Y-114381057D02*
X132415600Y-114438200D01*
X132415600Y-114438200D02*
X132587028Y-114495342D01*
X132587028Y-114495342D02*
X132701314Y-114495342D01*
X132701314Y-114495342D02*
X132872743Y-114438200D01*
X132872743Y-114438200D02*
X132987028Y-114323914D01*
X132987028Y-114323914D02*
X133044171Y-114209628D01*
X133044171Y-114209628D02*
X133101314Y-113981057D01*
X133101314Y-113981057D02*
X133101314Y-113809628D01*
X133101314Y-113809628D02*
X133044171Y-113581057D01*
X133044171Y-113581057D02*
X132987028Y-113466771D01*
X132987028Y-113466771D02*
X132872743Y-113352485D01*
X132872743Y-113352485D02*
X132701314Y-113295342D01*
X132701314Y-113295342D02*
X132587028Y-113295342D01*
X132587028Y-113295342D02*
X132415600Y-113352485D01*
X132415600Y-113352485D02*
X132358457Y-113409628D01*
X131501314Y-113295342D02*
X131501314Y-114152485D01*
X131501314Y-114152485D02*
X131558457Y-114323914D01*
X131558457Y-114323914D02*
X131672743Y-114438200D01*
X131672743Y-114438200D02*
X131844171Y-114495342D01*
X131844171Y-114495342D02*
X131958457Y-114495342D01*
X130358457Y-114495342D02*
X130929885Y-114495342D01*
X130929885Y-114495342D02*
X130929885Y-113295342D01*
X129272742Y-114381057D02*
X129329885Y-114438200D01*
X129329885Y-114438200D02*
X129501313Y-114495342D01*
X129501313Y-114495342D02*
X129615599Y-114495342D01*
X129615599Y-114495342D02*
X129787028Y-114438200D01*
X129787028Y-114438200D02*
X129901313Y-114323914D01*
X129901313Y-114323914D02*
X129958456Y-114209628D01*
X129958456Y-114209628D02*
X130015599Y-113981057D01*
X130015599Y-113981057D02*
X130015599Y-113809628D01*
X130015599Y-113809628D02*
X129958456Y-113581057D01*
X129958456Y-113581057D02*
X129901313Y-113466771D01*
X129901313Y-113466771D02*
X129787028Y-113352485D01*
X129787028Y-113352485D02*
X129615599Y-113295342D01*
X129615599Y-113295342D02*
X129501313Y-113295342D01*
X129501313Y-113295342D02*
X129329885Y-113352485D01*
X129329885Y-113352485D02*
X129272742Y-113409628D01*
X128415599Y-113295342D02*
X128415599Y-114152485D01*
X128415599Y-114152485D02*
X128472742Y-114323914D01*
X128472742Y-114323914D02*
X128587028Y-114438200D01*
X128587028Y-114438200D02*
X128758456Y-114495342D01*
X128758456Y-114495342D02*
X128872742Y-114495342D01*
X127272742Y-114495342D02*
X127844170Y-114495342D01*
X127844170Y-114495342D02*
X127844170Y-113295342D01*
X126187027Y-114381057D02*
X126244170Y-114438200D01*
X126244170Y-114438200D02*
X126415598Y-114495342D01*
X126415598Y-114495342D02*
X126529884Y-114495342D01*
X126529884Y-114495342D02*
X126701313Y-114438200D01*
X126701313Y-114438200D02*
X126815598Y-114323914D01*
X126815598Y-114323914D02*
X126872741Y-114209628D01*
X126872741Y-114209628D02*
X126929884Y-113981057D01*
X126929884Y-113981057D02*
X126929884Y-113809628D01*
X126929884Y-113809628D02*
X126872741Y-113581057D01*
X126872741Y-113581057D02*
X126815598Y-113466771D01*
X126815598Y-113466771D02*
X126701313Y-113352485D01*
X126701313Y-113352485D02*
X126529884Y-113295342D01*
X126529884Y-113295342D02*
X126415598Y-113295342D01*
X126415598Y-113295342D02*
X126244170Y-113352485D01*
X126244170Y-113352485D02*
X126187027Y-113409628D01*
D11*
X134393734Y-70054912D02*
X134250877Y-70102531D01*
X134250877Y-70102531D02*
X134012782Y-70102531D01*
X134012782Y-70102531D02*
X133917544Y-70054912D01*
X133917544Y-70054912D02*
X133869925Y-70007292D01*
X133869925Y-70007292D02*
X133822306Y-69912054D01*
X133822306Y-69912054D02*
X133822306Y-69816816D01*
X133822306Y-69816816D02*
X133869925Y-69721578D01*
X133869925Y-69721578D02*
X133917544Y-69673959D01*
X133917544Y-69673959D02*
X134012782Y-69626340D01*
X134012782Y-69626340D02*
X134203258Y-69578721D01*
X134203258Y-69578721D02*
X134298496Y-69531102D01*
X134298496Y-69531102D02*
X134346115Y-69483483D01*
X134346115Y-69483483D02*
X134393734Y-69388245D01*
X134393734Y-69388245D02*
X134393734Y-69293007D01*
X134393734Y-69293007D02*
X134346115Y-69197769D01*
X134346115Y-69197769D02*
X134298496Y-69150150D01*
X134298496Y-69150150D02*
X134203258Y-69102531D01*
X134203258Y-69102531D02*
X133965163Y-69102531D01*
X133965163Y-69102531D02*
X133822306Y-69150150D01*
X132965163Y-70054912D02*
X133060401Y-70102531D01*
X133060401Y-70102531D02*
X133250877Y-70102531D01*
X133250877Y-70102531D02*
X133346115Y-70054912D01*
X133346115Y-70054912D02*
X133393734Y-70007292D01*
X133393734Y-70007292D02*
X133441353Y-69912054D01*
X133441353Y-69912054D02*
X133441353Y-69626340D01*
X133441353Y-69626340D02*
X133393734Y-69531102D01*
X133393734Y-69531102D02*
X133346115Y-69483483D01*
X133346115Y-69483483D02*
X133250877Y-69435864D01*
X133250877Y-69435864D02*
X133060401Y-69435864D01*
X133060401Y-69435864D02*
X132965163Y-69483483D01*
X132536591Y-70102531D02*
X132536591Y-69102531D01*
X132108020Y-70102531D02*
X132108020Y-69578721D01*
X132108020Y-69578721D02*
X132155639Y-69483483D01*
X132155639Y-69483483D02*
X132250877Y-69435864D01*
X132250877Y-69435864D02*
X132393734Y-69435864D01*
X132393734Y-69435864D02*
X132488972Y-69483483D01*
X132488972Y-69483483D02*
X132536591Y-69531102D01*
X131250877Y-70054912D02*
X131346115Y-70102531D01*
X131346115Y-70102531D02*
X131536591Y-70102531D01*
X131536591Y-70102531D02*
X131631829Y-70054912D01*
X131631829Y-70054912D02*
X131679448Y-69959673D01*
X131679448Y-69959673D02*
X131679448Y-69578721D01*
X131679448Y-69578721D02*
X131631829Y-69483483D01*
X131631829Y-69483483D02*
X131536591Y-69435864D01*
X131536591Y-69435864D02*
X131346115Y-69435864D01*
X131346115Y-69435864D02*
X131250877Y-69483483D01*
X131250877Y-69483483D02*
X131203258Y-69578721D01*
X131203258Y-69578721D02*
X131203258Y-69673959D01*
X131203258Y-69673959D02*
X131679448Y-69769197D01*
X130774686Y-70102531D02*
X130774686Y-69435864D01*
X130774686Y-69531102D02*
X130727067Y-69483483D01*
X130727067Y-69483483D02*
X130631829Y-69435864D01*
X130631829Y-69435864D02*
X130488972Y-69435864D01*
X130488972Y-69435864D02*
X130393734Y-69483483D01*
X130393734Y-69483483D02*
X130346115Y-69578721D01*
X130346115Y-69578721D02*
X130346115Y-70102531D01*
X130346115Y-69578721D02*
X130298496Y-69483483D01*
X130298496Y-69483483D02*
X130203258Y-69435864D01*
X130203258Y-69435864D02*
X130060401Y-69435864D01*
X130060401Y-69435864D02*
X129965162Y-69483483D01*
X129965162Y-69483483D02*
X129917543Y-69578721D01*
X129917543Y-69578721D02*
X129917543Y-70102531D01*
X129012782Y-70102531D02*
X129012782Y-69578721D01*
X129012782Y-69578721D02*
X129060401Y-69483483D01*
X129060401Y-69483483D02*
X129155639Y-69435864D01*
X129155639Y-69435864D02*
X129346115Y-69435864D01*
X129346115Y-69435864D02*
X129441353Y-69483483D01*
X129012782Y-70054912D02*
X129108020Y-70102531D01*
X129108020Y-70102531D02*
X129346115Y-70102531D01*
X129346115Y-70102531D02*
X129441353Y-70054912D01*
X129441353Y-70054912D02*
X129488972Y-69959673D01*
X129488972Y-69959673D02*
X129488972Y-69864435D01*
X129488972Y-69864435D02*
X129441353Y-69769197D01*
X129441353Y-69769197D02*
X129346115Y-69721578D01*
X129346115Y-69721578D02*
X129108020Y-69721578D01*
X129108020Y-69721578D02*
X129012782Y-69673959D01*
X128679448Y-69435864D02*
X128298496Y-69435864D01*
X128536591Y-69102531D02*
X128536591Y-69959673D01*
X128536591Y-69959673D02*
X128488972Y-70054912D01*
X128488972Y-70054912D02*
X128393734Y-70102531D01*
X128393734Y-70102531D02*
X128298496Y-70102531D01*
X127965162Y-70102531D02*
X127965162Y-69435864D01*
X127965162Y-69102531D02*
X128012781Y-69150150D01*
X128012781Y-69150150D02*
X127965162Y-69197769D01*
X127965162Y-69197769D02*
X127917543Y-69150150D01*
X127917543Y-69150150D02*
X127965162Y-69102531D01*
X127965162Y-69102531D02*
X127965162Y-69197769D01*
X127060401Y-70054912D02*
X127155639Y-70102531D01*
X127155639Y-70102531D02*
X127346115Y-70102531D01*
X127346115Y-70102531D02*
X127441353Y-70054912D01*
X127441353Y-70054912D02*
X127488972Y-70007292D01*
X127488972Y-70007292D02*
X127536591Y-69912054D01*
X127536591Y-69912054D02*
X127536591Y-69626340D01*
X127536591Y-69626340D02*
X127488972Y-69531102D01*
X127488972Y-69531102D02*
X127441353Y-69483483D01*
X127441353Y-69483483D02*
X127346115Y-69435864D01*
X127346115Y-69435864D02*
X127155639Y-69435864D01*
X127155639Y-69435864D02*
X127060401Y-69483483D01*
X126679448Y-70054912D02*
X126584210Y-70102531D01*
X126584210Y-70102531D02*
X126393734Y-70102531D01*
X126393734Y-70102531D02*
X126298496Y-70054912D01*
X126298496Y-70054912D02*
X126250877Y-69959673D01*
X126250877Y-69959673D02*
X126250877Y-69912054D01*
X126250877Y-69912054D02*
X126298496Y-69816816D01*
X126298496Y-69816816D02*
X126393734Y-69769197D01*
X126393734Y-69769197D02*
X126536591Y-69769197D01*
X126536591Y-69769197D02*
X126631829Y-69721578D01*
X126631829Y-69721578D02*
X126679448Y-69626340D01*
X126679448Y-69626340D02*
X126679448Y-69578721D01*
X126679448Y-69578721D02*
X126631829Y-69483483D01*
X126631829Y-69483483D02*
X126536591Y-69435864D01*
X126536591Y-69435864D02*
X126393734Y-69435864D01*
X126393734Y-69435864D02*
X126298496Y-69483483D01*
X125822305Y-70007292D02*
X125774686Y-70054912D01*
X125774686Y-70054912D02*
X125822305Y-70102531D01*
X125822305Y-70102531D02*
X125869924Y-70054912D01*
X125869924Y-70054912D02*
X125822305Y-70007292D01*
X125822305Y-70007292D02*
X125822305Y-70102531D01*
X125822305Y-69483483D02*
X125774686Y-69531102D01*
X125774686Y-69531102D02*
X125822305Y-69578721D01*
X125822305Y-69578721D02*
X125869924Y-69531102D01*
X125869924Y-69531102D02*
X125822305Y-69483483D01*
X125822305Y-69483483D02*
X125822305Y-69578721D01*
X124584210Y-70102531D02*
X124584210Y-69102531D01*
X124584210Y-69102531D02*
X124250877Y-69816816D01*
X124250877Y-69816816D02*
X123917544Y-69102531D01*
X123917544Y-69102531D02*
X123917544Y-70102531D01*
X123012782Y-70102531D02*
X123012782Y-69578721D01*
X123012782Y-69578721D02*
X123060401Y-69483483D01*
X123060401Y-69483483D02*
X123155639Y-69435864D01*
X123155639Y-69435864D02*
X123346115Y-69435864D01*
X123346115Y-69435864D02*
X123441353Y-69483483D01*
X123012782Y-70054912D02*
X123108020Y-70102531D01*
X123108020Y-70102531D02*
X123346115Y-70102531D01*
X123346115Y-70102531D02*
X123441353Y-70054912D01*
X123441353Y-70054912D02*
X123488972Y-69959673D01*
X123488972Y-69959673D02*
X123488972Y-69864435D01*
X123488972Y-69864435D02*
X123441353Y-69769197D01*
X123441353Y-69769197D02*
X123346115Y-69721578D01*
X123346115Y-69721578D02*
X123108020Y-69721578D01*
X123108020Y-69721578D02*
X123012782Y-69673959D01*
X122536591Y-70102531D02*
X122536591Y-69435864D01*
X122536591Y-69626340D02*
X122488972Y-69531102D01*
X122488972Y-69531102D02*
X122441353Y-69483483D01*
X122441353Y-69483483D02*
X122346115Y-69435864D01*
X122346115Y-69435864D02*
X122250877Y-69435864D01*
X121917543Y-70102531D02*
X121917543Y-69102531D01*
X121822305Y-69721578D02*
X121536591Y-70102531D01*
X121536591Y-69435864D02*
X121917543Y-69816816D01*
X120965162Y-70102531D02*
X121060400Y-70054912D01*
X121060400Y-70054912D02*
X121108019Y-70007292D01*
X121108019Y-70007292D02*
X121155638Y-69912054D01*
X121155638Y-69912054D02*
X121155638Y-69626340D01*
X121155638Y-69626340D02*
X121108019Y-69531102D01*
X121108019Y-69531102D02*
X121060400Y-69483483D01*
X121060400Y-69483483D02*
X120965162Y-69435864D01*
X120965162Y-69435864D02*
X120822305Y-69435864D01*
X120822305Y-69435864D02*
X120727067Y-69483483D01*
X120727067Y-69483483D02*
X120679448Y-69531102D01*
X120679448Y-69531102D02*
X120631829Y-69626340D01*
X120631829Y-69626340D02*
X120631829Y-69912054D01*
X120631829Y-69912054D02*
X120679448Y-70007292D01*
X120679448Y-70007292D02*
X120727067Y-70054912D01*
X120727067Y-70054912D02*
X120822305Y-70102531D01*
X120822305Y-70102531D02*
X120965162Y-70102531D01*
X119488971Y-70054912D02*
X119346114Y-70102531D01*
X119346114Y-70102531D02*
X119108019Y-70102531D01*
X119108019Y-70102531D02*
X119012781Y-70054912D01*
X119012781Y-70054912D02*
X118965162Y-70007292D01*
X118965162Y-70007292D02*
X118917543Y-69912054D01*
X118917543Y-69912054D02*
X118917543Y-69816816D01*
X118917543Y-69816816D02*
X118965162Y-69721578D01*
X118965162Y-69721578D02*
X119012781Y-69673959D01*
X119012781Y-69673959D02*
X119108019Y-69626340D01*
X119108019Y-69626340D02*
X119298495Y-69578721D01*
X119298495Y-69578721D02*
X119393733Y-69531102D01*
X119393733Y-69531102D02*
X119441352Y-69483483D01*
X119441352Y-69483483D02*
X119488971Y-69388245D01*
X119488971Y-69388245D02*
X119488971Y-69293007D01*
X119488971Y-69293007D02*
X119441352Y-69197769D01*
X119441352Y-69197769D02*
X119393733Y-69150150D01*
X119393733Y-69150150D02*
X119298495Y-69102531D01*
X119298495Y-69102531D02*
X119060400Y-69102531D01*
X119060400Y-69102531D02*
X118917543Y-69150150D01*
X119393733Y-68721578D02*
X119203257Y-68864435D01*
X119203257Y-68864435D02*
X119012781Y-68721578D01*
X118346114Y-70102531D02*
X118441352Y-70054912D01*
X118441352Y-70054912D02*
X118488971Y-70007292D01*
X118488971Y-70007292D02*
X118536590Y-69912054D01*
X118536590Y-69912054D02*
X118536590Y-69626340D01*
X118536590Y-69626340D02*
X118488971Y-69531102D01*
X118488971Y-69531102D02*
X118441352Y-69483483D01*
X118441352Y-69483483D02*
X118346114Y-69435864D01*
X118346114Y-69435864D02*
X118203257Y-69435864D01*
X118203257Y-69435864D02*
X118108019Y-69483483D01*
X118108019Y-69483483D02*
X118060400Y-69531102D01*
X118060400Y-69531102D02*
X118012781Y-69626340D01*
X118012781Y-69626340D02*
X118012781Y-69912054D01*
X118012781Y-69912054D02*
X118060400Y-70007292D01*
X118060400Y-70007292D02*
X118108019Y-70054912D01*
X118108019Y-70054912D02*
X118203257Y-70102531D01*
X118203257Y-70102531D02*
X118346114Y-70102531D01*
X117441352Y-70102531D02*
X117536590Y-70054912D01*
X117536590Y-70054912D02*
X117584209Y-69959673D01*
X117584209Y-69959673D02*
X117584209Y-69102531D01*
X116631828Y-70102531D02*
X116631828Y-69578721D01*
X116631828Y-69578721D02*
X116679447Y-69483483D01*
X116679447Y-69483483D02*
X116774685Y-69435864D01*
X116774685Y-69435864D02*
X116965161Y-69435864D01*
X116965161Y-69435864D02*
X117060399Y-69483483D01*
X116631828Y-70054912D02*
X116727066Y-70102531D01*
X116727066Y-70102531D02*
X116965161Y-70102531D01*
X116965161Y-70102531D02*
X117060399Y-70054912D01*
X117060399Y-70054912D02*
X117108018Y-69959673D01*
X117108018Y-69959673D02*
X117108018Y-69864435D01*
X117108018Y-69864435D02*
X117060399Y-69769197D01*
X117060399Y-69769197D02*
X116965161Y-69721578D01*
X116965161Y-69721578D02*
X116727066Y-69721578D01*
X116727066Y-69721578D02*
X116631828Y-69673959D01*
X116155637Y-69435864D02*
X116155637Y-70293007D01*
X116155637Y-70293007D02*
X116203256Y-70388245D01*
X116203256Y-70388245D02*
X116298494Y-70435864D01*
X116298494Y-70435864D02*
X116346113Y-70435864D01*
X116155637Y-69102531D02*
X116203256Y-69150150D01*
X116203256Y-69150150D02*
X116155637Y-69197769D01*
X116155637Y-69197769D02*
X116108018Y-69150150D01*
X116108018Y-69150150D02*
X116155637Y-69102531D01*
X116155637Y-69102531D02*
X116155637Y-69197769D01*
X115679447Y-70102531D02*
X115679447Y-69435864D01*
X115679447Y-69102531D02*
X115727066Y-69150150D01*
X115727066Y-69150150D02*
X115679447Y-69197769D01*
X115679447Y-69197769D02*
X115631828Y-69150150D01*
X115631828Y-69150150D02*
X115679447Y-69102531D01*
X115679447Y-69102531D02*
X115679447Y-69197769D01*
X114774686Y-70054912D02*
X114869924Y-70102531D01*
X114869924Y-70102531D02*
X115060400Y-70102531D01*
X115060400Y-70102531D02*
X115155638Y-70054912D01*
X115155638Y-70054912D02*
X115203257Y-70007292D01*
X115203257Y-70007292D02*
X115250876Y-69912054D01*
X115250876Y-69912054D02*
X115250876Y-69626340D01*
X115250876Y-69626340D02*
X115203257Y-69531102D01*
X115203257Y-69531102D02*
X115155638Y-69483483D01*
X115155638Y-69483483D02*
X115060400Y-69435864D01*
X115060400Y-69435864D02*
X114869924Y-69435864D01*
X114869924Y-69435864D02*
X114774686Y-69483483D01*
X114869924Y-69054912D02*
X115012781Y-69197769D01*
X134346115Y-71712475D02*
X134346115Y-70712475D01*
X134346115Y-70712475D02*
X133965163Y-70712475D01*
X133965163Y-70712475D02*
X133869925Y-70760094D01*
X133869925Y-70760094D02*
X133822306Y-70807713D01*
X133822306Y-70807713D02*
X133774687Y-70902951D01*
X133774687Y-70902951D02*
X133774687Y-71045808D01*
X133774687Y-71045808D02*
X133822306Y-71141046D01*
X133822306Y-71141046D02*
X133869925Y-71188665D01*
X133869925Y-71188665D02*
X133965163Y-71236284D01*
X133965163Y-71236284D02*
X134346115Y-71236284D01*
X132774687Y-71617236D02*
X132822306Y-71664856D01*
X132822306Y-71664856D02*
X132965163Y-71712475D01*
X132965163Y-71712475D02*
X133060401Y-71712475D01*
X133060401Y-71712475D02*
X133203258Y-71664856D01*
X133203258Y-71664856D02*
X133298496Y-71569617D01*
X133298496Y-71569617D02*
X133346115Y-71474379D01*
X133346115Y-71474379D02*
X133393734Y-71283903D01*
X133393734Y-71283903D02*
X133393734Y-71141046D01*
X133393734Y-71141046D02*
X133346115Y-70950570D01*
X133346115Y-70950570D02*
X133298496Y-70855332D01*
X133298496Y-70855332D02*
X133203258Y-70760094D01*
X133203258Y-70760094D02*
X133060401Y-70712475D01*
X133060401Y-70712475D02*
X132965163Y-70712475D01*
X132965163Y-70712475D02*
X132822306Y-70760094D01*
X132822306Y-70760094D02*
X132774687Y-70807713D01*
X132012782Y-71188665D02*
X131869925Y-71236284D01*
X131869925Y-71236284D02*
X131822306Y-71283903D01*
X131822306Y-71283903D02*
X131774687Y-71379141D01*
X131774687Y-71379141D02*
X131774687Y-71521998D01*
X131774687Y-71521998D02*
X131822306Y-71617236D01*
X131822306Y-71617236D02*
X131869925Y-71664856D01*
X131869925Y-71664856D02*
X131965163Y-71712475D01*
X131965163Y-71712475D02*
X132346115Y-71712475D01*
X132346115Y-71712475D02*
X132346115Y-70712475D01*
X132346115Y-70712475D02*
X132012782Y-70712475D01*
X132012782Y-70712475D02*
X131917544Y-70760094D01*
X131917544Y-70760094D02*
X131869925Y-70807713D01*
X131869925Y-70807713D02*
X131822306Y-70902951D01*
X131822306Y-70902951D02*
X131822306Y-70998189D01*
X131822306Y-70998189D02*
X131869925Y-71093427D01*
X131869925Y-71093427D02*
X131917544Y-71141046D01*
X131917544Y-71141046D02*
X132012782Y-71188665D01*
X132012782Y-71188665D02*
X132346115Y-71188665D01*
X130108020Y-71712475D02*
X130584210Y-71712475D01*
X130584210Y-71712475D02*
X130584210Y-70712475D01*
X129346115Y-71712475D02*
X129346115Y-71188665D01*
X129346115Y-71188665D02*
X129393734Y-71093427D01*
X129393734Y-71093427D02*
X129488972Y-71045808D01*
X129488972Y-71045808D02*
X129679448Y-71045808D01*
X129679448Y-71045808D02*
X129774686Y-71093427D01*
X129346115Y-71664856D02*
X129441353Y-71712475D01*
X129441353Y-71712475D02*
X129679448Y-71712475D01*
X129679448Y-71712475D02*
X129774686Y-71664856D01*
X129774686Y-71664856D02*
X129822305Y-71569617D01*
X129822305Y-71569617D02*
X129822305Y-71474379D01*
X129822305Y-71474379D02*
X129774686Y-71379141D01*
X129774686Y-71379141D02*
X129679448Y-71331522D01*
X129679448Y-71331522D02*
X129441353Y-71331522D01*
X129441353Y-71331522D02*
X129346115Y-71283903D01*
X128965162Y-71045808D02*
X128727067Y-71712475D01*
X128488972Y-71045808D02*
X128727067Y-71712475D01*
X128727067Y-71712475D02*
X128822305Y-71950570D01*
X128822305Y-71950570D02*
X128869924Y-71998189D01*
X128869924Y-71998189D02*
X128965162Y-72045808D01*
X127965162Y-71712475D02*
X128060400Y-71664856D01*
X128060400Y-71664856D02*
X128108019Y-71617236D01*
X128108019Y-71617236D02*
X128155638Y-71521998D01*
X128155638Y-71521998D02*
X128155638Y-71236284D01*
X128155638Y-71236284D02*
X128108019Y-71141046D01*
X128108019Y-71141046D02*
X128060400Y-71093427D01*
X128060400Y-71093427D02*
X127965162Y-71045808D01*
X127965162Y-71045808D02*
X127822305Y-71045808D01*
X127822305Y-71045808D02*
X127727067Y-71093427D01*
X127727067Y-71093427D02*
X127679448Y-71141046D01*
X127679448Y-71141046D02*
X127631829Y-71236284D01*
X127631829Y-71236284D02*
X127631829Y-71521998D01*
X127631829Y-71521998D02*
X127679448Y-71617236D01*
X127679448Y-71617236D02*
X127727067Y-71664856D01*
X127727067Y-71664856D02*
X127822305Y-71712475D01*
X127822305Y-71712475D02*
X127965162Y-71712475D01*
X126774686Y-71045808D02*
X126774686Y-71712475D01*
X127203257Y-71045808D02*
X127203257Y-71569617D01*
X127203257Y-71569617D02*
X127155638Y-71664856D01*
X127155638Y-71664856D02*
X127060400Y-71712475D01*
X127060400Y-71712475D02*
X126917543Y-71712475D01*
X126917543Y-71712475D02*
X126822305Y-71664856D01*
X126822305Y-71664856D02*
X126774686Y-71617236D01*
X126441352Y-71045808D02*
X126060400Y-71045808D01*
X126298495Y-70712475D02*
X126298495Y-71569617D01*
X126298495Y-71569617D02*
X126250876Y-71664856D01*
X126250876Y-71664856D02*
X126155638Y-71712475D01*
X126155638Y-71712475D02*
X126060400Y-71712475D01*
X125727066Y-71617236D02*
X125679447Y-71664856D01*
X125679447Y-71664856D02*
X125727066Y-71712475D01*
X125727066Y-71712475D02*
X125774685Y-71664856D01*
X125774685Y-71664856D02*
X125727066Y-71617236D01*
X125727066Y-71617236D02*
X125727066Y-71712475D01*
X125727066Y-71093427D02*
X125679447Y-71141046D01*
X125679447Y-71141046D02*
X125727066Y-71188665D01*
X125727066Y-71188665D02*
X125774685Y-71141046D01*
X125774685Y-71141046D02*
X125727066Y-71093427D01*
X125727066Y-71093427D02*
X125727066Y-71188665D01*
X124488971Y-71712475D02*
X124488971Y-70712475D01*
X123584210Y-71712475D02*
X123584210Y-71188665D01*
X123584210Y-71188665D02*
X123631829Y-71093427D01*
X123631829Y-71093427D02*
X123727067Y-71045808D01*
X123727067Y-71045808D02*
X123917543Y-71045808D01*
X123917543Y-71045808D02*
X124012781Y-71093427D01*
X123584210Y-71664856D02*
X123679448Y-71712475D01*
X123679448Y-71712475D02*
X123917543Y-71712475D01*
X123917543Y-71712475D02*
X124012781Y-71664856D01*
X124012781Y-71664856D02*
X124060400Y-71569617D01*
X124060400Y-71569617D02*
X124060400Y-71474379D01*
X124060400Y-71474379D02*
X124012781Y-71379141D01*
X124012781Y-71379141D02*
X123917543Y-71331522D01*
X123917543Y-71331522D02*
X123679448Y-71331522D01*
X123679448Y-71331522D02*
X123584210Y-71283903D01*
X123108019Y-71045808D02*
X123108019Y-71712475D01*
X123108019Y-71141046D02*
X123060400Y-71093427D01*
X123060400Y-71093427D02*
X122965162Y-71045808D01*
X122965162Y-71045808D02*
X122822305Y-71045808D01*
X122822305Y-71045808D02*
X122727067Y-71093427D01*
X122727067Y-71093427D02*
X122679448Y-71188665D01*
X122679448Y-71188665D02*
X122679448Y-71712475D01*
X120869924Y-71617236D02*
X120917543Y-71664856D01*
X120917543Y-71664856D02*
X121060400Y-71712475D01*
X121060400Y-71712475D02*
X121155638Y-71712475D01*
X121155638Y-71712475D02*
X121298495Y-71664856D01*
X121298495Y-71664856D02*
X121393733Y-71569617D01*
X121393733Y-71569617D02*
X121441352Y-71474379D01*
X121441352Y-71474379D02*
X121488971Y-71283903D01*
X121488971Y-71283903D02*
X121488971Y-71141046D01*
X121488971Y-71141046D02*
X121441352Y-70950570D01*
X121441352Y-70950570D02*
X121393733Y-70855332D01*
X121393733Y-70855332D02*
X121298495Y-70760094D01*
X121298495Y-70760094D02*
X121155638Y-70712475D01*
X121155638Y-70712475D02*
X121060400Y-70712475D01*
X121060400Y-70712475D02*
X120917543Y-70760094D01*
X120917543Y-70760094D02*
X120869924Y-70807713D01*
X120012781Y-71045808D02*
X120012781Y-71712475D01*
X120441352Y-71045808D02*
X120441352Y-71569617D01*
X120441352Y-71569617D02*
X120393733Y-71664856D01*
X120393733Y-71664856D02*
X120298495Y-71712475D01*
X120298495Y-71712475D02*
X120155638Y-71712475D01*
X120155638Y-71712475D02*
X120060400Y-71664856D01*
X120060400Y-71664856D02*
X120012781Y-71617236D01*
X119108019Y-71712475D02*
X119108019Y-70712475D01*
X119108019Y-71664856D02*
X119203257Y-71712475D01*
X119203257Y-71712475D02*
X119393733Y-71712475D01*
X119393733Y-71712475D02*
X119488971Y-71664856D01*
X119488971Y-71664856D02*
X119536590Y-71617236D01*
X119536590Y-71617236D02*
X119584209Y-71521998D01*
X119584209Y-71521998D02*
X119584209Y-71236284D01*
X119584209Y-71236284D02*
X119536590Y-71141046D01*
X119536590Y-71141046D02*
X119488971Y-71093427D01*
X119488971Y-71093427D02*
X119393733Y-71045808D01*
X119393733Y-71045808D02*
X119203257Y-71045808D01*
X119203257Y-71045808D02*
X119108019Y-71093427D01*
X118488971Y-71712475D02*
X118584209Y-71664856D01*
X118584209Y-71664856D02*
X118631828Y-71569617D01*
X118631828Y-71569617D02*
X118631828Y-70712475D01*
X118108018Y-71712475D02*
X118108018Y-71045808D01*
X118108018Y-70712475D02*
X118155637Y-70760094D01*
X118155637Y-70760094D02*
X118108018Y-70807713D01*
X118108018Y-70807713D02*
X118060399Y-70760094D01*
X118060399Y-70760094D02*
X118108018Y-70712475D01*
X118108018Y-70712475D02*
X118108018Y-70807713D01*
X117631828Y-71045808D02*
X117631828Y-72045808D01*
X117631828Y-71093427D02*
X117536590Y-71045808D01*
X117536590Y-71045808D02*
X117346114Y-71045808D01*
X117346114Y-71045808D02*
X117250876Y-71093427D01*
X117250876Y-71093427D02*
X117203257Y-71141046D01*
X117203257Y-71141046D02*
X117155638Y-71236284D01*
X117155638Y-71236284D02*
X117155638Y-71521998D01*
X117155638Y-71521998D02*
X117203257Y-71617236D01*
X117203257Y-71617236D02*
X117250876Y-71664856D01*
X117250876Y-71664856D02*
X117346114Y-71712475D01*
X117346114Y-71712475D02*
X117536590Y-71712475D01*
X117536590Y-71712475D02*
X117631828Y-71664856D01*
X116679447Y-71664856D02*
X116679447Y-71712475D01*
X116679447Y-71712475D02*
X116727066Y-71807713D01*
X116727066Y-71807713D02*
X116774685Y-71855332D01*
X114917543Y-71712475D02*
X115250876Y-71236284D01*
X115488971Y-71712475D02*
X115488971Y-70712475D01*
X115488971Y-70712475D02*
X115108019Y-70712475D01*
X115108019Y-70712475D02*
X115012781Y-70760094D01*
X115012781Y-70760094D02*
X114965162Y-70807713D01*
X114965162Y-70807713D02*
X114917543Y-70902951D01*
X114917543Y-70902951D02*
X114917543Y-71045808D01*
X114917543Y-71045808D02*
X114965162Y-71141046D01*
X114965162Y-71141046D02*
X115012781Y-71188665D01*
X115012781Y-71188665D02*
X115108019Y-71236284D01*
X115108019Y-71236284D02*
X115488971Y-71236284D01*
X114346114Y-71712475D02*
X114441352Y-71664856D01*
X114441352Y-71664856D02*
X114488971Y-71617236D01*
X114488971Y-71617236D02*
X114536590Y-71521998D01*
X114536590Y-71521998D02*
X114536590Y-71236284D01*
X114536590Y-71236284D02*
X114488971Y-71141046D01*
X114488971Y-71141046D02*
X114441352Y-71093427D01*
X114441352Y-71093427D02*
X114346114Y-71045808D01*
X114346114Y-71045808D02*
X114203257Y-71045808D01*
X114203257Y-71045808D02*
X114108019Y-71093427D01*
X114108019Y-71093427D02*
X114060400Y-71141046D01*
X114060400Y-71141046D02*
X114012781Y-71236284D01*
X114012781Y-71236284D02*
X114012781Y-71521998D01*
X114012781Y-71521998D02*
X114060400Y-71617236D01*
X114060400Y-71617236D02*
X114108019Y-71664856D01*
X114108019Y-71664856D02*
X114203257Y-71712475D01*
X114203257Y-71712475D02*
X114346114Y-71712475D01*
X113584209Y-71712475D02*
X113584209Y-70712475D01*
X113584209Y-71093427D02*
X113488971Y-71045808D01*
X113488971Y-71045808D02*
X113298495Y-71045808D01*
X113298495Y-71045808D02*
X113203257Y-71093427D01*
X113203257Y-71093427D02*
X113155638Y-71141046D01*
X113155638Y-71141046D02*
X113108019Y-71236284D01*
X113108019Y-71236284D02*
X113108019Y-71521998D01*
X113108019Y-71521998D02*
X113155638Y-71617236D01*
X113155638Y-71617236D02*
X113203257Y-71664856D01*
X113203257Y-71664856D02*
X113298495Y-71712475D01*
X113298495Y-71712475D02*
X113488971Y-71712475D01*
X113488971Y-71712475D02*
X113584209Y-71664856D01*
X111965161Y-70712475D02*
X111965161Y-70902951D01*
X111584209Y-70712475D02*
X111584209Y-70902951D01*
X111155637Y-71712475D02*
X111155637Y-70712475D01*
X111155637Y-70712475D02*
X110774685Y-70712475D01*
X110774685Y-70712475D02*
X110679447Y-70760094D01*
X110679447Y-70760094D02*
X110631828Y-70807713D01*
X110631828Y-70807713D02*
X110584209Y-70902951D01*
X110584209Y-70902951D02*
X110584209Y-71045808D01*
X110584209Y-71045808D02*
X110631828Y-71141046D01*
X110631828Y-71141046D02*
X110679447Y-71188665D01*
X110679447Y-71188665D02*
X110774685Y-71236284D01*
X110774685Y-71236284D02*
X111155637Y-71236284D01*
X109774685Y-71664856D02*
X109869923Y-71712475D01*
X109869923Y-71712475D02*
X110060399Y-71712475D01*
X110060399Y-71712475D02*
X110155637Y-71664856D01*
X110155637Y-71664856D02*
X110203256Y-71569617D01*
X110203256Y-71569617D02*
X110203256Y-71188665D01*
X110203256Y-71188665D02*
X110155637Y-71093427D01*
X110155637Y-71093427D02*
X110060399Y-71045808D01*
X110060399Y-71045808D02*
X109869923Y-71045808D01*
X109869923Y-71045808D02*
X109774685Y-71093427D01*
X109774685Y-71093427D02*
X109727066Y-71188665D01*
X109727066Y-71188665D02*
X109727066Y-71283903D01*
X109727066Y-71283903D02*
X110203256Y-71379141D01*
X108917542Y-71664856D02*
X109012780Y-71712475D01*
X109012780Y-71712475D02*
X109203256Y-71712475D01*
X109203256Y-71712475D02*
X109298494Y-71664856D01*
X109298494Y-71664856D02*
X109346113Y-71569617D01*
X109346113Y-71569617D02*
X109346113Y-71188665D01*
X109346113Y-71188665D02*
X109298494Y-71093427D01*
X109298494Y-71093427D02*
X109203256Y-71045808D01*
X109203256Y-71045808D02*
X109012780Y-71045808D01*
X109012780Y-71045808D02*
X108917542Y-71093427D01*
X108917542Y-71093427D02*
X108869923Y-71188665D01*
X108869923Y-71188665D02*
X108869923Y-71283903D01*
X108869923Y-71283903D02*
X109346113Y-71379141D01*
X108441351Y-71045808D02*
X108441351Y-72045808D01*
X108441351Y-71093427D02*
X108346113Y-71045808D01*
X108346113Y-71045808D02*
X108155637Y-71045808D01*
X108155637Y-71045808D02*
X108060399Y-71093427D01*
X108060399Y-71093427D02*
X108012780Y-71141046D01*
X108012780Y-71141046D02*
X107965161Y-71236284D01*
X107965161Y-71236284D02*
X107965161Y-71521998D01*
X107965161Y-71521998D02*
X108012780Y-71617236D01*
X108012780Y-71617236D02*
X108060399Y-71664856D01*
X108060399Y-71664856D02*
X108155637Y-71712475D01*
X108155637Y-71712475D02*
X108346113Y-71712475D01*
X108346113Y-71712475D02*
X108441351Y-71664856D01*
X107393732Y-71712475D02*
X107488970Y-71664856D01*
X107488970Y-71664856D02*
X107536589Y-71617236D01*
X107536589Y-71617236D02*
X107584208Y-71521998D01*
X107584208Y-71521998D02*
X107584208Y-71236284D01*
X107584208Y-71236284D02*
X107536589Y-71141046D01*
X107536589Y-71141046D02*
X107488970Y-71093427D01*
X107488970Y-71093427D02*
X107393732Y-71045808D01*
X107393732Y-71045808D02*
X107250875Y-71045808D01*
X107250875Y-71045808D02*
X107155637Y-71093427D01*
X107155637Y-71093427D02*
X107108018Y-71141046D01*
X107108018Y-71141046D02*
X107060399Y-71236284D01*
X107060399Y-71236284D02*
X107060399Y-71521998D01*
X107060399Y-71521998D02*
X107108018Y-71617236D01*
X107108018Y-71617236D02*
X107155637Y-71664856D01*
X107155637Y-71664856D02*
X107250875Y-71712475D01*
X107250875Y-71712475D02*
X107393732Y-71712475D01*
X106679446Y-70712475D02*
X106679446Y-70902951D01*
X106298494Y-70712475D02*
X106298494Y-70902951D01*
X105250874Y-70712475D02*
X104679446Y-70712475D01*
X104965160Y-71712475D02*
X104965160Y-70712475D01*
X103917541Y-71712475D02*
X103917541Y-71188665D01*
X103917541Y-71188665D02*
X103965160Y-71093427D01*
X103965160Y-71093427D02*
X104060398Y-71045808D01*
X104060398Y-71045808D02*
X104250874Y-71045808D01*
X104250874Y-71045808D02*
X104346112Y-71093427D01*
X103917541Y-71664856D02*
X104012779Y-71712475D01*
X104012779Y-71712475D02*
X104250874Y-71712475D01*
X104250874Y-71712475D02*
X104346112Y-71664856D01*
X104346112Y-71664856D02*
X104393731Y-71569617D01*
X104393731Y-71569617D02*
X104393731Y-71474379D01*
X104393731Y-71474379D02*
X104346112Y-71379141D01*
X104346112Y-71379141D02*
X104250874Y-71331522D01*
X104250874Y-71331522D02*
X104012779Y-71331522D01*
X104012779Y-71331522D02*
X103917541Y-71283903D01*
X103536588Y-71045808D02*
X103298493Y-71712475D01*
X103060398Y-71045808D02*
X103298493Y-71712475D01*
X103298493Y-71712475D02*
X103393731Y-71950570D01*
X103393731Y-71950570D02*
X103441350Y-71998189D01*
X103441350Y-71998189D02*
X103536588Y-72045808D01*
X102536588Y-71712475D02*
X102631826Y-71664856D01*
X102631826Y-71664856D02*
X102679445Y-71569617D01*
X102679445Y-71569617D02*
X102679445Y-70712475D01*
X102012778Y-71712475D02*
X102108016Y-71664856D01*
X102108016Y-71664856D02*
X102155635Y-71617236D01*
X102155635Y-71617236D02*
X102203254Y-71521998D01*
X102203254Y-71521998D02*
X102203254Y-71236284D01*
X102203254Y-71236284D02*
X102155635Y-71141046D01*
X102155635Y-71141046D02*
X102108016Y-71093427D01*
X102108016Y-71093427D02*
X102012778Y-71045808D01*
X102012778Y-71045808D02*
X101869921Y-71045808D01*
X101869921Y-71045808D02*
X101774683Y-71093427D01*
X101774683Y-71093427D02*
X101727064Y-71141046D01*
X101727064Y-71141046D02*
X101679445Y-71236284D01*
X101679445Y-71236284D02*
X101679445Y-71521998D01*
X101679445Y-71521998D02*
X101727064Y-71617236D01*
X101727064Y-71617236D02*
X101774683Y-71664856D01*
X101774683Y-71664856D02*
X101869921Y-71712475D01*
X101869921Y-71712475D02*
X102012778Y-71712475D01*
X101250873Y-71712475D02*
X101250873Y-71045808D01*
X101250873Y-71236284D02*
X101203254Y-71141046D01*
X101203254Y-71141046D02*
X101155635Y-71093427D01*
X101155635Y-71093427D02*
X101060397Y-71045808D01*
X101060397Y-71045808D02*
X100965159Y-71045808D01*
X134488972Y-72322419D02*
X133917544Y-72322419D01*
X134203258Y-73322419D02*
X134203258Y-72322419D01*
X133584210Y-73322419D02*
X133584210Y-72322419D01*
X133155639Y-73322419D02*
X133155639Y-72798609D01*
X133155639Y-72798609D02*
X133203258Y-72703371D01*
X133203258Y-72703371D02*
X133298496Y-72655752D01*
X133298496Y-72655752D02*
X133441353Y-72655752D01*
X133441353Y-72655752D02*
X133536591Y-72703371D01*
X133536591Y-72703371D02*
X133584210Y-72750990D01*
X132250877Y-73322419D02*
X132250877Y-72798609D01*
X132250877Y-72798609D02*
X132298496Y-72703371D01*
X132298496Y-72703371D02*
X132393734Y-72655752D01*
X132393734Y-72655752D02*
X132584210Y-72655752D01*
X132584210Y-72655752D02*
X132679448Y-72703371D01*
X132250877Y-73274800D02*
X132346115Y-73322419D01*
X132346115Y-73322419D02*
X132584210Y-73322419D01*
X132584210Y-73322419D02*
X132679448Y-73274800D01*
X132679448Y-73274800D02*
X132727067Y-73179561D01*
X132727067Y-73179561D02*
X132727067Y-73084323D01*
X132727067Y-73084323D02*
X132679448Y-72989085D01*
X132679448Y-72989085D02*
X132584210Y-72941466D01*
X132584210Y-72941466D02*
X132346115Y-72941466D01*
X132346115Y-72941466D02*
X132250877Y-72893847D01*
X131774686Y-72655752D02*
X131774686Y-73322419D01*
X131774686Y-72750990D02*
X131727067Y-72703371D01*
X131727067Y-72703371D02*
X131631829Y-72655752D01*
X131631829Y-72655752D02*
X131488972Y-72655752D01*
X131488972Y-72655752D02*
X131393734Y-72703371D01*
X131393734Y-72703371D02*
X131346115Y-72798609D01*
X131346115Y-72798609D02*
X131346115Y-73322419D01*
X130869924Y-73322419D02*
X130869924Y-72322419D01*
X130774686Y-72941466D02*
X130488972Y-73322419D01*
X130488972Y-72655752D02*
X130869924Y-73036704D01*
X130108019Y-73274800D02*
X130012781Y-73322419D01*
X130012781Y-73322419D02*
X129822305Y-73322419D01*
X129822305Y-73322419D02*
X129727067Y-73274800D01*
X129727067Y-73274800D02*
X129679448Y-73179561D01*
X129679448Y-73179561D02*
X129679448Y-73131942D01*
X129679448Y-73131942D02*
X129727067Y-73036704D01*
X129727067Y-73036704D02*
X129822305Y-72989085D01*
X129822305Y-72989085D02*
X129965162Y-72989085D01*
X129965162Y-72989085D02*
X130060400Y-72941466D01*
X130060400Y-72941466D02*
X130108019Y-72846228D01*
X130108019Y-72846228D02*
X130108019Y-72798609D01*
X130108019Y-72798609D02*
X130060400Y-72703371D01*
X130060400Y-72703371D02*
X129965162Y-72655752D01*
X129965162Y-72655752D02*
X129822305Y-72655752D01*
X129822305Y-72655752D02*
X129727067Y-72703371D01*
X128631828Y-72655752D02*
X128250876Y-72655752D01*
X128488971Y-72322419D02*
X128488971Y-73179561D01*
X128488971Y-73179561D02*
X128441352Y-73274800D01*
X128441352Y-73274800D02*
X128346114Y-73322419D01*
X128346114Y-73322419D02*
X128250876Y-73322419D01*
X127774685Y-73322419D02*
X127869923Y-73274800D01*
X127869923Y-73274800D02*
X127917542Y-73227180D01*
X127917542Y-73227180D02*
X127965161Y-73131942D01*
X127965161Y-73131942D02*
X127965161Y-72846228D01*
X127965161Y-72846228D02*
X127917542Y-72750990D01*
X127917542Y-72750990D02*
X127869923Y-72703371D01*
X127869923Y-72703371D02*
X127774685Y-72655752D01*
X127774685Y-72655752D02*
X127631828Y-72655752D01*
X127631828Y-72655752D02*
X127536590Y-72703371D01*
X127536590Y-72703371D02*
X127488971Y-72750990D01*
X127488971Y-72750990D02*
X127441352Y-72846228D01*
X127441352Y-72846228D02*
X127441352Y-73131942D01*
X127441352Y-73131942D02*
X127488971Y-73227180D01*
X127488971Y-73227180D02*
X127536590Y-73274800D01*
X127536590Y-73274800D02*
X127631828Y-73322419D01*
X127631828Y-73322419D02*
X127774685Y-73322419D01*
X127012780Y-73227180D02*
X126965161Y-73274800D01*
X126965161Y-73274800D02*
X127012780Y-73322419D01*
X127012780Y-73322419D02*
X127060399Y-73274800D01*
X127060399Y-73274800D02*
X127012780Y-73227180D01*
X127012780Y-73227180D02*
X127012780Y-73322419D01*
X127012780Y-72703371D02*
X126965161Y-72750990D01*
X126965161Y-72750990D02*
X127012780Y-72798609D01*
X127012780Y-72798609D02*
X127060399Y-72750990D01*
X127060399Y-72750990D02*
X127012780Y-72703371D01*
X127012780Y-72703371D02*
X127012780Y-72798609D01*
X125869923Y-72322419D02*
X125203257Y-72322419D01*
X125203257Y-72322419D02*
X125869923Y-73322419D01*
X125869923Y-73322419D02*
X125203257Y-73322419D01*
X124679447Y-73322419D02*
X124774685Y-73274800D01*
X124774685Y-73274800D02*
X124822304Y-73227180D01*
X124822304Y-73227180D02*
X124869923Y-73131942D01*
X124869923Y-73131942D02*
X124869923Y-72846228D01*
X124869923Y-72846228D02*
X124822304Y-72750990D01*
X124822304Y-72750990D02*
X124774685Y-72703371D01*
X124774685Y-72703371D02*
X124679447Y-72655752D01*
X124679447Y-72655752D02*
X124536590Y-72655752D01*
X124536590Y-72655752D02*
X124441352Y-72703371D01*
X124441352Y-72703371D02*
X124393733Y-72750990D01*
X124393733Y-72750990D02*
X124346114Y-72846228D01*
X124346114Y-72846228D02*
X124346114Y-73131942D01*
X124346114Y-73131942D02*
X124393733Y-73227180D01*
X124393733Y-73227180D02*
X124441352Y-73274800D01*
X124441352Y-73274800D02*
X124536590Y-73322419D01*
X124536590Y-73322419D02*
X124679447Y-73322419D01*
X123774685Y-73322419D02*
X123869923Y-73274800D01*
X123869923Y-73274800D02*
X123917542Y-73179561D01*
X123917542Y-73179561D02*
X123917542Y-72322419D01*
X123536589Y-72655752D02*
X123155637Y-72655752D01*
X123393732Y-72322419D02*
X123393732Y-73179561D01*
X123393732Y-73179561D02*
X123346113Y-73274800D01*
X123346113Y-73274800D02*
X123250875Y-73322419D01*
X123250875Y-73322419D02*
X123155637Y-73322419D01*
X122393732Y-73322419D02*
X122393732Y-72798609D01*
X122393732Y-72798609D02*
X122441351Y-72703371D01*
X122441351Y-72703371D02*
X122536589Y-72655752D01*
X122536589Y-72655752D02*
X122727065Y-72655752D01*
X122727065Y-72655752D02*
X122822303Y-72703371D01*
X122393732Y-73274800D02*
X122488970Y-73322419D01*
X122488970Y-73322419D02*
X122727065Y-73322419D01*
X122727065Y-73322419D02*
X122822303Y-73274800D01*
X122822303Y-73274800D02*
X122869922Y-73179561D01*
X122869922Y-73179561D02*
X122869922Y-73084323D01*
X122869922Y-73084323D02*
X122822303Y-72989085D01*
X122822303Y-72989085D02*
X122727065Y-72941466D01*
X122727065Y-72941466D02*
X122488970Y-72941466D01*
X122488970Y-72941466D02*
X122393732Y-72893847D01*
X121917541Y-72655752D02*
X121917541Y-73322419D01*
X121917541Y-72750990D02*
X121869922Y-72703371D01*
X121869922Y-72703371D02*
X121774684Y-72655752D01*
X121774684Y-72655752D02*
X121631827Y-72655752D01*
X121631827Y-72655752D02*
X121536589Y-72703371D01*
X121536589Y-72703371D02*
X121488970Y-72798609D01*
X121488970Y-72798609D02*
X121488970Y-73322419D01*
X120250874Y-73322419D02*
X120250874Y-72322419D01*
X120250874Y-72322419D02*
X119869922Y-72322419D01*
X119869922Y-72322419D02*
X119774684Y-72370038D01*
X119774684Y-72370038D02*
X119727065Y-72417657D01*
X119727065Y-72417657D02*
X119679446Y-72512895D01*
X119679446Y-72512895D02*
X119679446Y-72655752D01*
X119679446Y-72655752D02*
X119727065Y-72750990D01*
X119727065Y-72750990D02*
X119774684Y-72798609D01*
X119774684Y-72798609D02*
X119869922Y-72846228D01*
X119869922Y-72846228D02*
X120250874Y-72846228D01*
X118869922Y-73274800D02*
X118965160Y-73322419D01*
X118965160Y-73322419D02*
X119155636Y-73322419D01*
X119155636Y-73322419D02*
X119250874Y-73274800D01*
X119250874Y-73274800D02*
X119298493Y-73179561D01*
X119298493Y-73179561D02*
X119298493Y-72798609D01*
X119298493Y-72798609D02*
X119250874Y-72703371D01*
X119250874Y-72703371D02*
X119155636Y-72655752D01*
X119155636Y-72655752D02*
X118965160Y-72655752D01*
X118965160Y-72655752D02*
X118869922Y-72703371D01*
X118869922Y-72703371D02*
X118822303Y-72798609D01*
X118822303Y-72798609D02*
X118822303Y-72893847D01*
X118822303Y-72893847D02*
X119298493Y-72989085D01*
X118393731Y-73322419D02*
X118393731Y-72322419D01*
X118298493Y-72941466D02*
X118012779Y-73322419D01*
X118012779Y-72655752D02*
X118393731Y-73036704D01*
X117584207Y-73322419D02*
X117584207Y-72655752D01*
X117584207Y-72322419D02*
X117631826Y-72370038D01*
X117631826Y-72370038D02*
X117584207Y-72417657D01*
X117584207Y-72417657D02*
X117536588Y-72370038D01*
X117536588Y-72370038D02*
X117584207Y-72322419D01*
X117584207Y-72322419D02*
X117584207Y-72417657D01*
X116679446Y-73274800D02*
X116774684Y-73322419D01*
X116774684Y-73322419D02*
X116965160Y-73322419D01*
X116965160Y-73322419D02*
X117060398Y-73274800D01*
X117060398Y-73274800D02*
X117108017Y-73227180D01*
X117108017Y-73227180D02*
X117155636Y-73131942D01*
X117155636Y-73131942D02*
X117155636Y-72846228D01*
X117155636Y-72846228D02*
X117108017Y-72750990D01*
X117108017Y-72750990D02*
X117060398Y-72703371D01*
X117060398Y-72703371D02*
X116965160Y-72655752D01*
X116965160Y-72655752D02*
X116774684Y-72655752D01*
X116774684Y-72655752D02*
X116679446Y-72703371D01*
M02*
