%TF.GenerationSoftware,KiCad,Pcbnew,8.0.1*%
%TF.CreationDate,2024-06-09T01:41:57+01:00*%
%TF.ProjectId,tim011_video_fix,74696d30-3131-45f7-9669-64656f5f6669,rev?*%
%TF.SameCoordinates,Original*%
%TF.FileFunction,Copper,L2,Bot*%
%TF.FilePolarity,Positive*%
%FSLAX46Y46*%
G04 Gerber Fmt 4.6, Leading zero omitted, Abs format (unit mm)*
G04 Created by KiCad (PCBNEW 8.0.1) date 2024-06-09 01:41:57*
%MOMM*%
%LPD*%
G01*
G04 APERTURE LIST*
%TA.AperFunction,ComponentPad*%
%ADD10C,1.600000*%
%TD*%
%TA.AperFunction,ComponentPad*%
%ADD11C,1.300000*%
%TD*%
%TA.AperFunction,ComponentPad*%
%ADD12C,1.900000*%
%TD*%
%TA.AperFunction,ComponentPad*%
%ADD13O,1.600000X1.600000*%
%TD*%
%TA.AperFunction,ComponentPad*%
%ADD14R,1.600000X1.600000*%
%TD*%
%TA.AperFunction,ComponentPad*%
%ADD15R,1.500000X1.500000*%
%TD*%
%TA.AperFunction,ComponentPad*%
%ADD16C,1.500000*%
%TD*%
%TA.AperFunction,ComponentPad*%
%ADD17R,1.700000X1.700000*%
%TD*%
%TA.AperFunction,ComponentPad*%
%ADD18O,1.700000X1.700000*%
%TD*%
%TA.AperFunction,ComponentPad*%
%ADD19C,2.550000*%
%TD*%
%TA.AperFunction,ComponentPad*%
%ADD20R,1.300000X3.616000*%
%TD*%
%TA.AperFunction,ComponentPad*%
%ADD21C,3.616000*%
%TD*%
%TA.AperFunction,ComponentPad*%
%ADD22C,4.000000*%
%TD*%
%TA.AperFunction,ComponentPad*%
%ADD23R,2.000000X2.000000*%
%TD*%
%TA.AperFunction,ComponentPad*%
%ADD24C,2.000000*%
%TD*%
%TA.AperFunction,ComponentPad*%
%ADD25R,3.000000X3.000000*%
%TD*%
%TA.AperFunction,ComponentPad*%
%ADD26C,3.000000*%
%TD*%
%TA.AperFunction,ViaPad*%
%ADD27C,1.500000*%
%TD*%
%TA.AperFunction,Conductor*%
%ADD28C,0.600000*%
%TD*%
%TA.AperFunction,Conductor*%
%ADD29C,0.400000*%
%TD*%
%TA.AperFunction,Conductor*%
%ADD30C,1.400000*%
%TD*%
G04 APERTURE END LIST*
D10*
%TO.P,C5,1*%
%TO.N,+5V*%
X107435000Y-92760000D03*
%TO.P,C5,2*%
%TO.N,GND*%
X107435000Y-97760000D03*
%TD*%
D11*
%TO.P,RV2,3,3*%
%TO.N,Net-(R3-Pad1)*%
X95520000Y-111475000D03*
D12*
X92860000Y-111475000D03*
%TO.P,RV2,2,2*%
%TO.N,+5V*%
X103050000Y-108905000D03*
D11*
X98030000Y-108905000D03*
X95520000Y-108905000D03*
%TO.P,RV2,1,1*%
X95520000Y-106355000D03*
D12*
X92860000Y-106355000D03*
%TD*%
D11*
%TO.P,RV1,3,3*%
%TO.N,Net-(R1-Pad1)*%
X124485000Y-111475000D03*
D12*
X121825000Y-111475000D03*
%TO.P,RV1,2,2*%
%TO.N,+5V*%
X132015000Y-108905000D03*
D11*
X126995000Y-108905000D03*
X124485000Y-108905000D03*
%TO.P,RV1,1,1*%
X124485000Y-106355000D03*
D12*
X121825000Y-106355000D03*
%TD*%
D10*
%TO.P,C9,1*%
%TO.N,HSYNC_OUT*%
X135290000Y-75985000D03*
%TO.P,C9,2*%
%TO.N,GND*%
X135290000Y-80985000D03*
%TD*%
%TO.P,R8,1*%
%TO.N,Net-(Q1-B)*%
X59315000Y-112135000D03*
D13*
%TO.P,R8,2*%
%TO.N,VID2B*%
X72015000Y-112135000D03*
%TD*%
D14*
%TO.P,U3,1*%
%TO.N,HSYNC_OUT*%
X62525000Y-99060000D03*
D13*
%TO.P,U3,2*%
%TO.N,VSYNC_OUT*%
X65065000Y-99060000D03*
%TO.P,U3,3*%
%TO.N,CSYNC*%
X67605000Y-99060000D03*
%TO.P,U3,4*%
%TO.N,GND*%
X70145000Y-99060000D03*
%TO.P,U3,5*%
X72685000Y-99060000D03*
%TO.P,U3,6*%
%TO.N,unconnected-(U3-Pad6)*%
X75225000Y-99060000D03*
%TO.P,U3,7,GND*%
%TO.N,GND*%
X77765000Y-99060000D03*
%TO.P,U3,8*%
%TO.N,VID1B*%
X77765000Y-91440000D03*
%TO.P,U3,9*%
%TO.N,VID1*%
X75225000Y-91440000D03*
%TO.P,U3,10*%
X72685000Y-91440000D03*
%TO.P,U3,11*%
%TO.N,VID2B*%
X70145000Y-91440000D03*
%TO.P,U3,12*%
%TO.N,VID2*%
X67605000Y-91440000D03*
%TO.P,U3,13*%
X65065000Y-91440000D03*
%TO.P,U3,14,VCC*%
%TO.N,+5V*%
X62525000Y-91440000D03*
%TD*%
D15*
%TO.P,Q1,1,C*%
%TO.N,GND*%
X59720000Y-63400000D03*
D16*
%TO.P,Q1,2,B*%
%TO.N,Net-(Q1-B)*%
X62260000Y-63400000D03*
%TO.P,Q1,3,E*%
%TO.N,Net-(Q1-E)*%
X64800000Y-63400000D03*
%TD*%
D10*
%TO.P,C1,1*%
%TO.N,Net-(U1A-RCext)*%
X117450000Y-88985000D03*
%TO.P,C1,2*%
%TO.N,GND*%
X122450000Y-88985000D03*
%TD*%
D17*
%TO.P,P1,1,Pin_1*%
%TO.N,GND*%
X89170000Y-76740000D03*
D18*
%TO.P,P1,2,Pin_2*%
%TO.N,VID1*%
X91710000Y-76740000D03*
%TO.P,P1,3,Pin_3*%
%TO.N,VID2*%
X94250000Y-76740000D03*
%TO.P,P1,4,Pin_4*%
%TO.N,VSYNC_IN*%
X96790000Y-76740000D03*
%TO.P,P1,5,Pin_5*%
%TO.N,HSYNC_IN*%
X99330000Y-76740000D03*
%TO.P,P1,6,Pin_6*%
%TO.N,+5V*%
X101870000Y-76740000D03*
%TD*%
D13*
%TO.P,R6,2*%
%TO.N,CSYNC*%
X59500000Y-81075000D03*
D10*
%TO.P,R6,1*%
%TO.N,Net-(Q1-B)*%
X59500000Y-68375000D03*
%TD*%
D19*
%TO.P,J3,1,In*%
%TO.N,Net-(J3-In)*%
X93090000Y-67865000D03*
D20*
%TO.P,J3,2,Ext*%
%TO.N,GND*%
X88090000Y-67865000D03*
D21*
X93090000Y-61365000D03*
D20*
X98090000Y-67865000D03*
%TD*%
D10*
%TO.P,R10,1*%
%TO.N,+5V*%
X68325000Y-81075000D03*
D13*
%TO.P,R10,2*%
%TO.N,Net-(Q1-E)*%
X68325000Y-68375000D03*
%TD*%
D10*
%TO.P,C4,1*%
%TO.N,Net-(U2B-RCext)*%
X101090000Y-88985000D03*
%TO.P,C4,2*%
%TO.N,GND*%
X96090000Y-88985000D03*
%TD*%
D17*
%TO.P,P2,1,Pin_1*%
%TO.N,unconnected-(P2-Pin_1-Pad1)*%
X113262500Y-78725000D03*
D18*
%TO.P,P2,2,Pin_2*%
%TO.N,unconnected-(P2-Pin_2-Pad2)*%
X113262500Y-76185000D03*
%TO.P,P2,3,Pin_3*%
%TO.N,GND*%
X115802500Y-78725000D03*
%TO.P,P2,4,Pin_4*%
%TO.N,VID2*%
X115802500Y-76185000D03*
%TO.P,P2,5,Pin_5*%
%TO.N,unconnected-(P2-Pin_5-Pad5)*%
X118342500Y-78725000D03*
%TO.P,P2,6,Pin_6*%
%TO.N,unconnected-(P2-Pin_6-Pad6)*%
X118342500Y-76185000D03*
%TO.P,P2,7,Pin_7*%
%TO.N,unconnected-(P2-Pin_7-Pad7)*%
X120882500Y-78725000D03*
%TO.P,P2,8,Pin_8*%
%TO.N,HSYNC_OUT*%
X120882500Y-76185000D03*
%TO.P,P2,9,Pin_9*%
%TO.N,VID1*%
X123422500Y-78725000D03*
%TO.P,P2,10,Pin_10*%
%TO.N,VSYNC_OUT*%
X123422500Y-76185000D03*
%TO.P,P2,11,Pin_11*%
%TO.N,unconnected-(P2-Pin_11-Pad11)*%
X125962500Y-78725000D03*
%TO.P,P2,12,Pin_12*%
%TO.N,+5V*%
X125962500Y-76185000D03*
%TD*%
D22*
%TO.P,J4,0,PAD*%
%TO.N,GND*%
X130755000Y-66375000D03*
X105755000Y-66375000D03*
D14*
%TO.P,J4,1,1*%
X112715000Y-66675000D03*
D10*
%TO.P,J4,2,2*%
X115485000Y-66675000D03*
%TO.P,J4,3,3*%
%TO.N,VID1*%
X118255000Y-66675000D03*
%TO.P,J4,4,4*%
X121025000Y-66675000D03*
%TO.P,J4,5,5*%
X123795000Y-66675000D03*
%TO.P,J4,6,6*%
%TO.N,VID2*%
X114100000Y-63835000D03*
%TO.P,J4,7,7*%
%TO.N,unconnected-(J4-Pad7)*%
X116870000Y-63835000D03*
%TO.P,J4,8,8*%
%TO.N,HSYNC_OUT*%
X119640000Y-63835000D03*
%TO.P,J4,9,9*%
%TO.N,VSYNC_OUT*%
X122410000Y-63835000D03*
%TD*%
%TO.P,R1,1*%
%TO.N,Net-(R1-Pad1)*%
X110685000Y-101610000D03*
D13*
%TO.P,R1,2*%
%TO.N,Net-(U1A-RCext)*%
X110685000Y-88910000D03*
%TD*%
%TO.P,R9,2*%
%TO.N,GND*%
X82745000Y-68375000D03*
D10*
%TO.P,R9,1*%
%TO.N,Net-(C8-Pad2)*%
X82745000Y-81075000D03*
%TD*%
D14*
%TO.P,U1,1,A*%
%TO.N,GND*%
X115695000Y-99060000D03*
D13*
%TO.P,U1,2,B*%
%TO.N,HSYNC_IN*%
X118235000Y-99060000D03*
%TO.P,U1,3,Clr*%
%TO.N,+5V*%
X120775000Y-99060000D03*
%TO.P,U1,4,~{Q}*%
%TO.N,Net-(U1A-~{Q})*%
X123315000Y-99060000D03*
%TO.P,U1,5,Q*%
%TO.N,unconnected-(U1B-Q-Pad5)*%
X125855000Y-99060000D03*
%TO.P,U1,6,Cext*%
%TO.N,GND*%
X128395000Y-99060000D03*
%TO.P,U1,7,RCext*%
%TO.N,Net-(U1B-RCext)*%
X130935000Y-99060000D03*
%TO.P,U1,8,GND*%
%TO.N,GND*%
X133475000Y-99060000D03*
%TO.P,U1,9,A*%
X133475000Y-91440000D03*
%TO.P,U1,10,B*%
%TO.N,Net-(U1A-~{Q})*%
X130935000Y-91440000D03*
%TO.P,U1,11,Clr*%
%TO.N,+5V*%
X128395000Y-91440000D03*
%TO.P,U1,12,~{Q}*%
%TO.N,HSYNC_OUT*%
X125855000Y-91440000D03*
%TO.P,U1,13,Q*%
%TO.N,unconnected-(U1A-Q-Pad13)*%
X123315000Y-91440000D03*
%TO.P,U1,14,Cext*%
%TO.N,GND*%
X120775000Y-91440000D03*
%TO.P,U1,15,RCext*%
%TO.N,Net-(U1A-RCext)*%
X118235000Y-91440000D03*
%TO.P,U1,16,VCC*%
%TO.N,+5V*%
X115695000Y-91440000D03*
%TD*%
D10*
%TO.P,C2,1*%
%TO.N,Net-(U1B-RCext)*%
X130150000Y-88985000D03*
%TO.P,C2,2*%
%TO.N,GND*%
X125150000Y-88985000D03*
%TD*%
%TO.P,R5,1*%
%TO.N,Net-(Q1-B)*%
X59315000Y-104660000D03*
D13*
%TO.P,R5,2*%
%TO.N,GND*%
X72015000Y-104660000D03*
%TD*%
%TO.P,R3,2*%
%TO.N,Net-(U2A-RCext)*%
X81535000Y-88910000D03*
D10*
%TO.P,R3,1*%
%TO.N,Net-(R3-Pad1)*%
X81535000Y-101610000D03*
%TD*%
%TO.P,R2,1*%
%TO.N,+5V*%
X135755000Y-85735000D03*
D13*
%TO.P,R2,2*%
%TO.N,Net-(U1B-RCext)*%
X123055000Y-85735000D03*
%TD*%
%TO.P,R11,2*%
%TO.N,Net-(J3-In)*%
X78935000Y-68375000D03*
D10*
%TO.P,R11,1*%
%TO.N,Net-(C8-Pad2)*%
X78935000Y-81075000D03*
%TD*%
D23*
%TO.P,C8,1*%
%TO.N,Net-(Q1-E)*%
X73775000Y-66885000D03*
D24*
%TO.P,C8,2*%
%TO.N,Net-(C8-Pad2)*%
X73775000Y-71635000D03*
X73775000Y-81875000D03*
%TD*%
D10*
%TO.P,C7,1*%
%TO.N,+5V*%
X136277500Y-92760000D03*
%TO.P,C7,2*%
%TO.N,GND*%
X136277500Y-97760000D03*
%TD*%
D25*
%TO.P,P3,1,Pin_1*%
%TO.N,+5V*%
X76930000Y-62035000D03*
D26*
%TO.P,P3,2,Pin_2*%
%TO.N,GND*%
X80890000Y-62035000D03*
%TD*%
D10*
%TO.P,C3,1*%
%TO.N,Net-(U2A-RCext)*%
X88470000Y-88985000D03*
%TO.P,C3,2*%
%TO.N,GND*%
X93470000Y-88985000D03*
%TD*%
%TO.P,R7,1*%
%TO.N,Net-(Q1-B)*%
X59315000Y-108435000D03*
D13*
%TO.P,R7,2*%
%TO.N,VID1B*%
X72015000Y-108435000D03*
%TD*%
D10*
%TO.P,C6,1*%
%TO.N,+5V*%
X58112500Y-92710000D03*
%TO.P,C6,2*%
%TO.N,GND*%
X58112500Y-97710000D03*
%TD*%
D14*
%TO.P,U2,1,A*%
%TO.N,GND*%
X86835000Y-99060000D03*
D13*
%TO.P,U2,2,B*%
%TO.N,VSYNC_IN*%
X89375000Y-99060000D03*
%TO.P,U2,3,Clr*%
%TO.N,+5V*%
X91915000Y-99060000D03*
%TO.P,U2,4,~{Q}*%
%TO.N,Net-(U2A-~{Q})*%
X94455000Y-99060000D03*
%TO.P,U2,5,Q*%
%TO.N,unconnected-(U2B-Q-Pad5)*%
X96995000Y-99060000D03*
%TO.P,U2,6,Cext*%
%TO.N,GND*%
X99535000Y-99060000D03*
%TO.P,U2,7,RCext*%
%TO.N,Net-(U2B-RCext)*%
X102075000Y-99060000D03*
%TO.P,U2,8,GND*%
%TO.N,GND*%
X104615000Y-99060000D03*
%TO.P,U2,9,A*%
X104615000Y-91440000D03*
%TO.P,U2,10,B*%
%TO.N,Net-(U2A-~{Q})*%
X102075000Y-91440000D03*
%TO.P,U2,11,Clr*%
%TO.N,+5V*%
X99535000Y-91440000D03*
%TO.P,U2,12,~{Q}*%
%TO.N,VSYNC_OUT*%
X96995000Y-91440000D03*
%TO.P,U2,13,Q*%
%TO.N,unconnected-(U2A-Q-Pad13)*%
X94455000Y-91440000D03*
%TO.P,U2,14,Cext*%
%TO.N,GND*%
X91915000Y-91440000D03*
%TO.P,U2,15,RCext*%
%TO.N,Net-(U2A-RCext)*%
X89375000Y-91440000D03*
%TO.P,U2,16,VCC*%
%TO.N,+5V*%
X86835000Y-91440000D03*
%TD*%
D10*
%TO.P,R4,1*%
%TO.N,+5V*%
X106225000Y-85835000D03*
D13*
%TO.P,R4,2*%
%TO.N,Net-(U2B-RCext)*%
X93525000Y-85835000D03*
%TD*%
D27*
%TO.N,GND*%
X104565000Y-94825000D03*
%TO.N,+5V*%
X86250000Y-95250000D03*
%TO.N,GND*%
X87949058Y-95193365D03*
X116571319Y-94939774D03*
%TO.N,+5V*%
X115038527Y-95675000D03*
%TO.N,HSYNC_OUT*%
X122000000Y-100800000D03*
%TO.N,VSYNC_OUT*%
X93100000Y-100700000D03*
%TD*%
D28*
%TO.N,GND*%
X91800000Y-95100000D02*
X91800000Y-96925000D01*
X91550000Y-94850000D02*
X91800000Y-95100000D01*
X88292423Y-94850000D02*
X91550000Y-94850000D01*
X87949058Y-95193365D02*
X88292423Y-94850000D01*
D29*
%TO.N,+5V*%
X86250000Y-95250000D02*
X85700000Y-94700000D01*
X85700000Y-94700000D02*
X85700000Y-93575000D01*
D28*
%TO.N,Net-(R3-Pad1)*%
X90300000Y-108000000D02*
X90300000Y-110800000D01*
X89700000Y-107400000D02*
X90300000Y-108000000D01*
X82550000Y-107400000D02*
X89700000Y-107400000D01*
X81535000Y-106385000D02*
X82550000Y-107400000D01*
X90300000Y-110800000D02*
X90975000Y-111475000D01*
X90975000Y-111475000D02*
X92860000Y-111475000D01*
X81535000Y-101610000D02*
X81535000Y-106385000D01*
%TO.N,Net-(R1-Pad1)*%
X121825000Y-111475000D02*
X124485000Y-111475000D01*
X111725000Y-111475000D02*
X121825000Y-111475000D01*
X110685000Y-110435000D02*
X111725000Y-111475000D01*
X110685000Y-101610000D02*
X110685000Y-110435000D01*
%TO.N,GND*%
X104565000Y-94825000D02*
X104565000Y-96890000D01*
X104565000Y-96890000D02*
X104600000Y-96925000D01*
%TO.N,+5V*%
X107185000Y-85835000D02*
X107435000Y-86085000D01*
X106225000Y-85835000D02*
X107185000Y-85835000D01*
X107435000Y-86085000D02*
X107435000Y-92760000D01*
D29*
%TO.N,GND*%
X138960000Y-91440000D02*
X139000000Y-91400000D01*
X133475000Y-91440000D02*
X138960000Y-91440000D01*
D30*
X139000000Y-81050000D02*
X139000000Y-91400000D01*
X139000000Y-91400000D02*
X139000000Y-97750000D01*
D28*
%TO.N,+5V*%
X62475000Y-93575000D02*
X85700000Y-93575000D01*
X85700000Y-93575000D02*
X86825000Y-93575000D01*
%TO.N,GND*%
X91800000Y-96925000D02*
X86775000Y-96925000D01*
X99550000Y-96925000D02*
X91800000Y-96925000D01*
X118389774Y-94939774D02*
X116571319Y-94939774D01*
X118750000Y-95300000D02*
X118389774Y-94939774D01*
X118750000Y-96925000D02*
X118750000Y-95300000D01*
X118750000Y-96925000D02*
X115725000Y-96925000D01*
X128375000Y-96925000D02*
X118750000Y-96925000D01*
D29*
%TO.N,+5V*%
X115038527Y-93636473D02*
X115100000Y-93575000D01*
X115038527Y-95675000D02*
X115038527Y-93636473D01*
D28*
X115100000Y-93575000D02*
X115600000Y-93575000D01*
X107475000Y-93575000D02*
X115100000Y-93575000D01*
D29*
%TO.N,VSYNC_OUT*%
X122172500Y-77435000D02*
X123422500Y-76185000D01*
X112052500Y-77435000D02*
X122172500Y-77435000D01*
X111100000Y-78387500D02*
X112052500Y-77435000D01*
X111100000Y-79850000D02*
X111100000Y-78387500D01*
X108150000Y-82800000D02*
X111100000Y-79850000D01*
X97794999Y-84805001D02*
X99800000Y-82800000D01*
X97794999Y-90640001D02*
X97794999Y-84805001D01*
X99800000Y-82800000D02*
X108150000Y-82800000D01*
X96995000Y-91440000D02*
X97794999Y-90640001D01*
%TO.N,Net-(U1A-RCext)*%
X117450000Y-90655000D02*
X118235000Y-91440000D01*
X117450000Y-88985000D02*
X117450000Y-90655000D01*
X110685000Y-88910000D02*
X117375000Y-88910000D01*
X117375000Y-88910000D02*
X117450000Y-88985000D01*
%TO.N,Net-(U2A-RCext)*%
X88470000Y-90535000D02*
X89375000Y-91440000D01*
X88470000Y-88985000D02*
X88470000Y-90535000D01*
X81610000Y-88985000D02*
X81535000Y-88910000D01*
X88470000Y-88985000D02*
X81610000Y-88985000D01*
%TO.N,VID2*%
X65065000Y-91440000D02*
X67605000Y-91440000D01*
%TO.N,VSYNC_OUT*%
X82950000Y-99100000D02*
X84550000Y-100700000D01*
X80150000Y-99100000D02*
X82950000Y-99100000D01*
X78550000Y-100700000D02*
X80150000Y-99100000D01*
X66705000Y-100700000D02*
X78550000Y-100700000D01*
X65065000Y-99060000D02*
X66705000Y-100700000D01*
X84550000Y-100700000D02*
X93100000Y-100700000D01*
%TO.N,HSYNC_OUT*%
X112750000Y-100800000D02*
X122000000Y-100800000D01*
X111700000Y-99750000D02*
X112750000Y-100800000D01*
X107500000Y-101850000D02*
X109600000Y-99750000D01*
X84250000Y-101850000D02*
X107500000Y-101850000D01*
X82500000Y-100100000D02*
X84250000Y-101850000D01*
X80600000Y-100100000D02*
X82500000Y-100100000D01*
X78950000Y-101750000D02*
X80600000Y-100100000D01*
X109600000Y-99750000D02*
X111700000Y-99750000D01*
X65215000Y-101750000D02*
X78950000Y-101750000D01*
X62525000Y-99060000D02*
X65215000Y-101750000D01*
D28*
%TO.N,Net-(Q1-B)*%
X62260000Y-67615000D02*
X61500000Y-68375000D01*
X61500000Y-68375000D02*
X59500000Y-68375000D01*
X62260000Y-63400000D02*
X62260000Y-67615000D01*
%TO.N,Net-(Q1-E)*%
X64800000Y-67825000D02*
X64800000Y-63400000D01*
X68325000Y-68375000D02*
X65350000Y-68375000D01*
X65350000Y-68375000D02*
X64800000Y-67825000D01*
X73400000Y-68375000D02*
X68325000Y-68375000D01*
X73775000Y-68000000D02*
X73400000Y-68375000D01*
X73775000Y-66885000D02*
X73775000Y-68000000D01*
%TO.N,Net-(C8-Pad2)*%
X73775000Y-71635000D02*
X73775000Y-81875000D01*
X74575000Y-81075000D02*
X73775000Y-81875000D01*
X78935000Y-81075000D02*
X74575000Y-81075000D01*
X82745000Y-81075000D02*
X78935000Y-81075000D01*
D29*
%TO.N,VID1*%
X118255000Y-68270000D02*
X118255000Y-66675000D01*
X118050000Y-68475000D02*
X118255000Y-68270000D01*
X111075000Y-68475000D02*
X118050000Y-68475000D01*
X109925000Y-69625000D02*
X111075000Y-68475000D01*
X109925000Y-78825000D02*
X109925000Y-69625000D01*
X107300000Y-81450000D02*
X109925000Y-78825000D01*
X92625000Y-81450000D02*
X107300000Y-81450000D01*
X91710000Y-80535000D02*
X92625000Y-81450000D01*
X91710000Y-76740000D02*
X91710000Y-80535000D01*
%TO.N,VID2*%
X109440000Y-63835000D02*
X114100000Y-63835000D01*
X106425000Y-80150000D02*
X108675000Y-77900000D01*
X108675000Y-64600000D02*
X109440000Y-63835000D01*
X108675000Y-77900000D02*
X108675000Y-64600000D01*
X94750000Y-80150000D02*
X106425000Y-80150000D01*
D28*
%TO.N,GND*%
X115485000Y-59255000D02*
X115525000Y-59215000D01*
X115485000Y-66675000D02*
X115485000Y-59255000D01*
D30*
X115525000Y-59215000D02*
X130725000Y-59215000D01*
X105850000Y-59215000D02*
X115525000Y-59215000D01*
D29*
%TO.N,VID2*%
X94250000Y-79650000D02*
X94750000Y-80150000D01*
X94250000Y-76740000D02*
X94250000Y-79650000D01*
%TO.N,VSYNC_OUT*%
X122410000Y-70335000D02*
X122410000Y-63835000D01*
X123422500Y-76185000D02*
X123422500Y-71347500D01*
X123422500Y-71347500D02*
X122410000Y-70335000D01*
%TO.N,HSYNC_OUT*%
X120882500Y-71682500D02*
X119640000Y-70440000D01*
X119640000Y-70440000D02*
X119640000Y-63835000D01*
X120882500Y-76185000D02*
X120882500Y-71682500D01*
D28*
%TO.N,Net-(U1B-RCext)*%
X130150000Y-86500000D02*
X130150000Y-88985000D01*
X129385000Y-85735000D02*
X130150000Y-86500000D01*
X123055000Y-85735000D02*
X129385000Y-85735000D01*
%TO.N,+5V*%
X68325000Y-85640000D02*
X68325000Y-81075000D01*
X62525000Y-91440000D02*
X68325000Y-85640000D01*
X62525000Y-93525000D02*
X62475000Y-93575000D01*
X58977500Y-93575000D02*
X62475000Y-93575000D01*
X62525000Y-91440000D02*
X62525000Y-93525000D01*
X86835000Y-93565000D02*
X86825000Y-93575000D01*
X86835000Y-91440000D02*
X86835000Y-93565000D01*
X86825000Y-93575000D02*
X99500000Y-93575000D01*
X99535000Y-91440000D02*
X99535000Y-93540000D01*
X99500000Y-93575000D02*
X107475000Y-93575000D01*
X99535000Y-93540000D02*
X99500000Y-93575000D01*
X107435000Y-93535000D02*
X107475000Y-93575000D01*
X107435000Y-92760000D02*
X107435000Y-93535000D01*
X115695000Y-93480000D02*
X115600000Y-93575000D01*
X115695000Y-91440000D02*
X115695000Y-93480000D01*
X115600000Y-93575000D02*
X128250000Y-93575000D01*
X128395000Y-93430000D02*
X128250000Y-93575000D01*
X128395000Y-91440000D02*
X128395000Y-93430000D01*
X128250000Y-93575000D02*
X135462500Y-93575000D01*
X135462500Y-93575000D02*
X136277500Y-92760000D01*
X58112500Y-92710000D02*
X58977500Y-93575000D01*
%TO.N,GND*%
X70145000Y-99060000D02*
X70145000Y-96955000D01*
X70145000Y-96955000D02*
X70175000Y-96925000D01*
X70175000Y-96925000D02*
X58897500Y-96925000D01*
X72700000Y-96925000D02*
X70175000Y-96925000D01*
X72685000Y-99060000D02*
X72685000Y-96940000D01*
X72685000Y-96940000D02*
X72700000Y-96925000D01*
X77575000Y-96925000D02*
X72700000Y-96925000D01*
X86835000Y-99060000D02*
X86835000Y-96985000D01*
X86835000Y-96985000D02*
X86775000Y-96925000D01*
X86775000Y-96925000D02*
X77575000Y-96925000D01*
X99535000Y-96940000D02*
X99550000Y-96925000D01*
X104600000Y-96925000D02*
X99550000Y-96925000D01*
X99535000Y-99060000D02*
X99535000Y-96940000D01*
X104615000Y-96940000D02*
X104600000Y-96925000D01*
X104615000Y-99060000D02*
X104615000Y-96940000D01*
X107475000Y-96925000D02*
X104600000Y-96925000D01*
X107435000Y-97760000D02*
X107435000Y-96965000D01*
X133475000Y-96950000D02*
X133450000Y-96925000D01*
X133475000Y-99060000D02*
X133475000Y-96950000D01*
X133450000Y-96925000D02*
X128375000Y-96925000D01*
X135442500Y-96925000D02*
X133450000Y-96925000D01*
X128395000Y-96945000D02*
X128375000Y-96925000D01*
X128395000Y-99060000D02*
X128395000Y-96945000D01*
X115695000Y-96955000D02*
X115725000Y-96925000D01*
X115695000Y-99060000D02*
X115695000Y-96955000D01*
X115725000Y-96925000D02*
X107475000Y-96925000D01*
X77765000Y-97115000D02*
X77575000Y-96925000D01*
X77765000Y-99060000D02*
X77765000Y-97115000D01*
X107435000Y-96965000D02*
X107475000Y-96925000D01*
X136277500Y-97760000D02*
X135442500Y-96925000D01*
X58897500Y-96925000D02*
X58112500Y-97710000D01*
X120775000Y-91440000D02*
X120775000Y-90660000D01*
X120775000Y-90660000D02*
X122450000Y-88985000D01*
X122450000Y-88985000D02*
X125150000Y-88985000D01*
X120975000Y-87510000D02*
X120975000Y-81060000D01*
X121050000Y-80985000D02*
X135290000Y-80985000D01*
X120975000Y-81060000D02*
X121050000Y-80985000D01*
X116460000Y-80985000D02*
X121050000Y-80985000D01*
X122450000Y-88985000D02*
X120975000Y-87510000D01*
X91915000Y-89115000D02*
X91785000Y-88985000D01*
X91915000Y-91440000D02*
X91915000Y-89115000D01*
X93470000Y-88985000D02*
X96090000Y-88985000D01*
X91785000Y-88985000D02*
X89170000Y-86370000D01*
X89170000Y-86370000D02*
X89170000Y-76740000D01*
X93470000Y-88985000D02*
X91785000Y-88985000D01*
%TO.N,+5V*%
X136277500Y-92997500D02*
X136277500Y-92760000D01*
%TO.N,GND*%
X115802500Y-80327500D02*
X116460000Y-80985000D01*
X115802500Y-78725000D02*
X115802500Y-80327500D01*
X112715000Y-66675000D02*
X112525000Y-66675000D01*
X112525000Y-66675000D02*
X112225000Y-66375000D01*
X115485000Y-66675000D02*
X112715000Y-66675000D01*
X59720000Y-63400000D02*
X59720000Y-59205000D01*
D30*
X59725000Y-59200000D02*
X80875000Y-59200000D01*
D28*
X59720000Y-59205000D02*
X59725000Y-59200000D01*
D30*
X55625000Y-59200000D02*
X59725000Y-59200000D01*
X88090000Y-59350000D02*
X88225000Y-59215000D01*
X88090000Y-67865000D02*
X88090000Y-59350000D01*
X88090000Y-75660000D02*
X89170000Y-76740000D01*
X88090000Y-67865000D02*
X88090000Y-75660000D01*
D28*
X58112500Y-97710000D02*
X55640000Y-97710000D01*
D30*
X55600000Y-97750000D02*
X55600000Y-59225000D01*
X55600000Y-115100000D02*
X55600000Y-97750000D01*
D28*
X55640000Y-97710000D02*
X55600000Y-97750000D01*
X138990000Y-97760000D02*
X139000000Y-97750000D01*
X136277500Y-97760000D02*
X138990000Y-97760000D01*
D30*
X139000000Y-97750000D02*
X139000000Y-115100000D01*
D28*
X135290000Y-80985000D02*
X138935000Y-80985000D01*
X138935000Y-80985000D02*
X139000000Y-81050000D01*
D30*
X139000000Y-74600000D02*
X139000000Y-81050000D01*
X130755000Y-59245000D02*
X130725000Y-59215000D01*
X130755000Y-66375000D02*
X130755000Y-59245000D01*
X130725000Y-59215000D02*
X139000000Y-59215000D01*
X105755000Y-59310000D02*
X105850000Y-59215000D01*
X105755000Y-66375000D02*
X105755000Y-59310000D01*
X98050000Y-59215000D02*
X105850000Y-59215000D01*
X88225000Y-59215000D02*
X93175000Y-59215000D01*
X80890000Y-59215000D02*
X88225000Y-59215000D01*
D28*
X98090000Y-59255000D02*
X98050000Y-59215000D01*
X98090000Y-67865000D02*
X98090000Y-59255000D01*
D30*
X93175000Y-59215000D02*
X98050000Y-59215000D01*
D28*
X80890000Y-68265000D02*
X80890000Y-62035000D01*
X81000000Y-68375000D02*
X80890000Y-68265000D01*
X82745000Y-68375000D02*
X81000000Y-68375000D01*
X93090000Y-59300000D02*
X93175000Y-59215000D01*
X93090000Y-61365000D02*
X93090000Y-59300000D01*
D30*
X139000000Y-115100000D02*
X55600000Y-115100000D01*
X55600000Y-59225000D02*
X55625000Y-59200000D01*
X134775000Y-70050000D02*
X134775000Y-72950000D01*
X139000000Y-68300000D02*
X136525000Y-68300000D01*
X134775000Y-72950000D02*
X136425000Y-74600000D01*
X136425000Y-74600000D02*
X139000000Y-74600000D01*
X136525000Y-68300000D02*
X134775000Y-70050000D01*
X139000000Y-59215000D02*
X139000000Y-68300000D01*
X80890000Y-62035000D02*
X80890000Y-59215000D01*
%TD*%
M02*
