%TF.GenerationSoftware,KiCad,Pcbnew,8.0.1*%
%TF.CreationDate,2024-06-09T01:41:55+01:00*%
%TF.ProjectId,tim011_video_fix,74696d30-3131-45f7-9669-64656f5f6669,rev?*%
%TF.SameCoordinates,Original*%
%TF.FileFunction,Drillmap*%
%TF.FilePolarity,Positive*%
%FSLAX45Y45*%
G04 Gerber Fmt 4.5, Leading zero omitted, Abs format (unit mm)*
G04 Created by KiCad (PCBNEW 8.0.1) date 2024-06-09 01:41:55*
%MOMM*%
%LPD*%
G01*
G04 APERTURE LIST*
%ADD10C,0.050000*%
%ADD11C,0.200000*%
%ADD12C,0.270000*%
G04 APERTURE END LIST*
D10*
X5485000Y-5845000D02*
X13975000Y-5845000D01*
X13975000Y-11585000D01*
X5485000Y-11585000D01*
X5485000Y-5845000D01*
D11*
D12*
X6243400Y-7579300D02*
X6513400Y-7849300D01*
X6513400Y-7579300D02*
X6243400Y-7849300D01*
X8370000Y-10942500D02*
X8640000Y-11212500D01*
X8640000Y-10942500D02*
X8370000Y-11212500D01*
X13610000Y-7007800D02*
X13880000Y-7277800D01*
X13880000Y-7007800D02*
X13610000Y-7277800D01*
D11*
X5743277Y-11898984D02*
X5743277Y-11698984D01*
X5743277Y-11698984D02*
X5790896Y-11698984D01*
X5790896Y-11698984D02*
X5819467Y-11708508D01*
X5819467Y-11708508D02*
X5838515Y-11727555D01*
X5838515Y-11727555D02*
X5848039Y-11746603D01*
X5848039Y-11746603D02*
X5857562Y-11784698D01*
X5857562Y-11784698D02*
X5857562Y-11813269D01*
X5857562Y-11813269D02*
X5848039Y-11851365D01*
X5848039Y-11851365D02*
X5838515Y-11870412D01*
X5838515Y-11870412D02*
X5819467Y-11889460D01*
X5819467Y-11889460D02*
X5790896Y-11898984D01*
X5790896Y-11898984D02*
X5743277Y-11898984D01*
X5943277Y-11898984D02*
X5943277Y-11765650D01*
X5943277Y-11803746D02*
X5952801Y-11784698D01*
X5952801Y-11784698D02*
X5962324Y-11775174D01*
X5962324Y-11775174D02*
X5981372Y-11765650D01*
X5981372Y-11765650D02*
X6000420Y-11765650D01*
X6067086Y-11898984D02*
X6067086Y-11765650D01*
X6067086Y-11698984D02*
X6057562Y-11708508D01*
X6057562Y-11708508D02*
X6067086Y-11718031D01*
X6067086Y-11718031D02*
X6076610Y-11708508D01*
X6076610Y-11708508D02*
X6067086Y-11698984D01*
X6067086Y-11698984D02*
X6067086Y-11718031D01*
X6190896Y-11898984D02*
X6171848Y-11889460D01*
X6171848Y-11889460D02*
X6162324Y-11870412D01*
X6162324Y-11870412D02*
X6162324Y-11698984D01*
X6295658Y-11898984D02*
X6276610Y-11889460D01*
X6276610Y-11889460D02*
X6267086Y-11870412D01*
X6267086Y-11870412D02*
X6267086Y-11698984D01*
X6524229Y-11898984D02*
X6524229Y-11698984D01*
X6524229Y-11698984D02*
X6590896Y-11841841D01*
X6590896Y-11841841D02*
X6657562Y-11698984D01*
X6657562Y-11698984D02*
X6657562Y-11898984D01*
X6838515Y-11898984D02*
X6838515Y-11794222D01*
X6838515Y-11794222D02*
X6828991Y-11775174D01*
X6828991Y-11775174D02*
X6809943Y-11765650D01*
X6809943Y-11765650D02*
X6771848Y-11765650D01*
X6771848Y-11765650D02*
X6752801Y-11775174D01*
X6838515Y-11889460D02*
X6819467Y-11898984D01*
X6819467Y-11898984D02*
X6771848Y-11898984D01*
X6771848Y-11898984D02*
X6752801Y-11889460D01*
X6752801Y-11889460D02*
X6743277Y-11870412D01*
X6743277Y-11870412D02*
X6743277Y-11851365D01*
X6743277Y-11851365D02*
X6752801Y-11832317D01*
X6752801Y-11832317D02*
X6771848Y-11822793D01*
X6771848Y-11822793D02*
X6819467Y-11822793D01*
X6819467Y-11822793D02*
X6838515Y-11813269D01*
X6933753Y-11765650D02*
X6933753Y-11965650D01*
X6933753Y-11775174D02*
X6952801Y-11765650D01*
X6952801Y-11765650D02*
X6990896Y-11765650D01*
X6990896Y-11765650D02*
X7009943Y-11775174D01*
X7009943Y-11775174D02*
X7019467Y-11784698D01*
X7019467Y-11784698D02*
X7028991Y-11803746D01*
X7028991Y-11803746D02*
X7028991Y-11860888D01*
X7028991Y-11860888D02*
X7019467Y-11879936D01*
X7019467Y-11879936D02*
X7009943Y-11889460D01*
X7009943Y-11889460D02*
X6990896Y-11898984D01*
X6990896Y-11898984D02*
X6952801Y-11898984D01*
X6952801Y-11898984D02*
X6933753Y-11889460D01*
X7114705Y-11879936D02*
X7124229Y-11889460D01*
X7124229Y-11889460D02*
X7114705Y-11898984D01*
X7114705Y-11898984D02*
X7105182Y-11889460D01*
X7105182Y-11889460D02*
X7114705Y-11879936D01*
X7114705Y-11879936D02*
X7114705Y-11898984D01*
X7114705Y-11775174D02*
X7124229Y-11784698D01*
X7124229Y-11784698D02*
X7114705Y-11794222D01*
X7114705Y-11794222D02*
X7105182Y-11784698D01*
X7105182Y-11784698D02*
X7114705Y-11775174D01*
X7114705Y-11775174D02*
X7114705Y-11794222D01*
X5282500Y-12127500D02*
X5482500Y-12327500D01*
X5482500Y-12127500D02*
X5282500Y-12327500D01*
X5733753Y-12138031D02*
X5743277Y-12128508D01*
X5743277Y-12128508D02*
X5762324Y-12118984D01*
X5762324Y-12118984D02*
X5809943Y-12118984D01*
X5809943Y-12118984D02*
X5828991Y-12128508D01*
X5828991Y-12128508D02*
X5838515Y-12138031D01*
X5838515Y-12138031D02*
X5848039Y-12157079D01*
X5848039Y-12157079D02*
X5848039Y-12176127D01*
X5848039Y-12176127D02*
X5838515Y-12204698D01*
X5838515Y-12204698D02*
X5724229Y-12318984D01*
X5724229Y-12318984D02*
X5848039Y-12318984D01*
X5933753Y-12299936D02*
X5943277Y-12309460D01*
X5943277Y-12309460D02*
X5933753Y-12318984D01*
X5933753Y-12318984D02*
X5924229Y-12309460D01*
X5924229Y-12309460D02*
X5933753Y-12299936D01*
X5933753Y-12299936D02*
X5933753Y-12318984D01*
X6009943Y-12118984D02*
X6143277Y-12118984D01*
X6143277Y-12118984D02*
X6057562Y-12318984D01*
X6257562Y-12118984D02*
X6276610Y-12118984D01*
X6276610Y-12118984D02*
X6295658Y-12128508D01*
X6295658Y-12128508D02*
X6305182Y-12138031D01*
X6305182Y-12138031D02*
X6314705Y-12157079D01*
X6314705Y-12157079D02*
X6324229Y-12195174D01*
X6324229Y-12195174D02*
X6324229Y-12242793D01*
X6324229Y-12242793D02*
X6314705Y-12280888D01*
X6314705Y-12280888D02*
X6305182Y-12299936D01*
X6305182Y-12299936D02*
X6295658Y-12309460D01*
X6295658Y-12309460D02*
X6276610Y-12318984D01*
X6276610Y-12318984D02*
X6257562Y-12318984D01*
X6257562Y-12318984D02*
X6238515Y-12309460D01*
X6238515Y-12309460D02*
X6228991Y-12299936D01*
X6228991Y-12299936D02*
X6219467Y-12280888D01*
X6219467Y-12280888D02*
X6209943Y-12242793D01*
X6209943Y-12242793D02*
X6209943Y-12195174D01*
X6209943Y-12195174D02*
X6219467Y-12157079D01*
X6219467Y-12157079D02*
X6228991Y-12138031D01*
X6228991Y-12138031D02*
X6238515Y-12128508D01*
X6238515Y-12128508D02*
X6257562Y-12118984D01*
X6448039Y-12118984D02*
X6467086Y-12118984D01*
X6467086Y-12118984D02*
X6486134Y-12128508D01*
X6486134Y-12128508D02*
X6495658Y-12138031D01*
X6495658Y-12138031D02*
X6505182Y-12157079D01*
X6505182Y-12157079D02*
X6514705Y-12195174D01*
X6514705Y-12195174D02*
X6514705Y-12242793D01*
X6514705Y-12242793D02*
X6505182Y-12280888D01*
X6505182Y-12280888D02*
X6495658Y-12299936D01*
X6495658Y-12299936D02*
X6486134Y-12309460D01*
X6486134Y-12309460D02*
X6467086Y-12318984D01*
X6467086Y-12318984D02*
X6448039Y-12318984D01*
X6448039Y-12318984D02*
X6428991Y-12309460D01*
X6428991Y-12309460D02*
X6419467Y-12299936D01*
X6419467Y-12299936D02*
X6409943Y-12280888D01*
X6409943Y-12280888D02*
X6400420Y-12242793D01*
X6400420Y-12242793D02*
X6400420Y-12195174D01*
X6400420Y-12195174D02*
X6409943Y-12157079D01*
X6409943Y-12157079D02*
X6419467Y-12138031D01*
X6419467Y-12138031D02*
X6428991Y-12128508D01*
X6428991Y-12128508D02*
X6448039Y-12118984D01*
X6600420Y-12318984D02*
X6600420Y-12185650D01*
X6600420Y-12204698D02*
X6609943Y-12195174D01*
X6609943Y-12195174D02*
X6628991Y-12185650D01*
X6628991Y-12185650D02*
X6657563Y-12185650D01*
X6657563Y-12185650D02*
X6676610Y-12195174D01*
X6676610Y-12195174D02*
X6686134Y-12214222D01*
X6686134Y-12214222D02*
X6686134Y-12318984D01*
X6686134Y-12214222D02*
X6695658Y-12195174D01*
X6695658Y-12195174D02*
X6714705Y-12185650D01*
X6714705Y-12185650D02*
X6743277Y-12185650D01*
X6743277Y-12185650D02*
X6762324Y-12195174D01*
X6762324Y-12195174D02*
X6771848Y-12214222D01*
X6771848Y-12214222D02*
X6771848Y-12318984D01*
X6867086Y-12318984D02*
X6867086Y-12185650D01*
X6867086Y-12204698D02*
X6876610Y-12195174D01*
X6876610Y-12195174D02*
X6895658Y-12185650D01*
X6895658Y-12185650D02*
X6924229Y-12185650D01*
X6924229Y-12185650D02*
X6943277Y-12195174D01*
X6943277Y-12195174D02*
X6952801Y-12214222D01*
X6952801Y-12214222D02*
X6952801Y-12318984D01*
X6952801Y-12214222D02*
X6962324Y-12195174D01*
X6962324Y-12195174D02*
X6981372Y-12185650D01*
X6981372Y-12185650D02*
X7009943Y-12185650D01*
X7009943Y-12185650D02*
X7028991Y-12195174D01*
X7028991Y-12195174D02*
X7038515Y-12214222D01*
X7038515Y-12214222D02*
X7038515Y-12318984D01*
X7428991Y-12109460D02*
X7257563Y-12366603D01*
X7686134Y-12118984D02*
X7705182Y-12118984D01*
X7705182Y-12118984D02*
X7724229Y-12128508D01*
X7724229Y-12128508D02*
X7733753Y-12138031D01*
X7733753Y-12138031D02*
X7743277Y-12157079D01*
X7743277Y-12157079D02*
X7752801Y-12195174D01*
X7752801Y-12195174D02*
X7752801Y-12242793D01*
X7752801Y-12242793D02*
X7743277Y-12280888D01*
X7743277Y-12280888D02*
X7733753Y-12299936D01*
X7733753Y-12299936D02*
X7724229Y-12309460D01*
X7724229Y-12309460D02*
X7705182Y-12318984D01*
X7705182Y-12318984D02*
X7686134Y-12318984D01*
X7686134Y-12318984D02*
X7667086Y-12309460D01*
X7667086Y-12309460D02*
X7657563Y-12299936D01*
X7657563Y-12299936D02*
X7648039Y-12280888D01*
X7648039Y-12280888D02*
X7638515Y-12242793D01*
X7638515Y-12242793D02*
X7638515Y-12195174D01*
X7638515Y-12195174D02*
X7648039Y-12157079D01*
X7648039Y-12157079D02*
X7657563Y-12138031D01*
X7657563Y-12138031D02*
X7667086Y-12128508D01*
X7667086Y-12128508D02*
X7686134Y-12118984D01*
X7838515Y-12299936D02*
X7848039Y-12309460D01*
X7848039Y-12309460D02*
X7838515Y-12318984D01*
X7838515Y-12318984D02*
X7828991Y-12309460D01*
X7828991Y-12309460D02*
X7838515Y-12299936D01*
X7838515Y-12299936D02*
X7838515Y-12318984D01*
X8038515Y-12318984D02*
X7924229Y-12318984D01*
X7981372Y-12318984D02*
X7981372Y-12118984D01*
X7981372Y-12118984D02*
X7962325Y-12147555D01*
X7962325Y-12147555D02*
X7943277Y-12166603D01*
X7943277Y-12166603D02*
X7924229Y-12176127D01*
X8162325Y-12118984D02*
X8181372Y-12118984D01*
X8181372Y-12118984D02*
X8200420Y-12128508D01*
X8200420Y-12128508D02*
X8209944Y-12138031D01*
X8209944Y-12138031D02*
X8219467Y-12157079D01*
X8219467Y-12157079D02*
X8228991Y-12195174D01*
X8228991Y-12195174D02*
X8228991Y-12242793D01*
X8228991Y-12242793D02*
X8219467Y-12280888D01*
X8219467Y-12280888D02*
X8209944Y-12299936D01*
X8209944Y-12299936D02*
X8200420Y-12309460D01*
X8200420Y-12309460D02*
X8181372Y-12318984D01*
X8181372Y-12318984D02*
X8162325Y-12318984D01*
X8162325Y-12318984D02*
X8143277Y-12309460D01*
X8143277Y-12309460D02*
X8133753Y-12299936D01*
X8133753Y-12299936D02*
X8124229Y-12280888D01*
X8124229Y-12280888D02*
X8114706Y-12242793D01*
X8114706Y-12242793D02*
X8114706Y-12195174D01*
X8114706Y-12195174D02*
X8124229Y-12157079D01*
X8124229Y-12157079D02*
X8133753Y-12138031D01*
X8133753Y-12138031D02*
X8143277Y-12128508D01*
X8143277Y-12128508D02*
X8162325Y-12118984D01*
X8400420Y-12118984D02*
X8362325Y-12118984D01*
X8362325Y-12118984D02*
X8343277Y-12128508D01*
X8343277Y-12128508D02*
X8333753Y-12138031D01*
X8333753Y-12138031D02*
X8314706Y-12166603D01*
X8314706Y-12166603D02*
X8305182Y-12204698D01*
X8305182Y-12204698D02*
X8305182Y-12280888D01*
X8305182Y-12280888D02*
X8314706Y-12299936D01*
X8314706Y-12299936D02*
X8324229Y-12309460D01*
X8324229Y-12309460D02*
X8343277Y-12318984D01*
X8343277Y-12318984D02*
X8381372Y-12318984D01*
X8381372Y-12318984D02*
X8400420Y-12309460D01*
X8400420Y-12309460D02*
X8409944Y-12299936D01*
X8409944Y-12299936D02*
X8419468Y-12280888D01*
X8419468Y-12280888D02*
X8419468Y-12233269D01*
X8419468Y-12233269D02*
X8409944Y-12214222D01*
X8409944Y-12214222D02*
X8400420Y-12204698D01*
X8400420Y-12204698D02*
X8381372Y-12195174D01*
X8381372Y-12195174D02*
X8343277Y-12195174D01*
X8343277Y-12195174D02*
X8324229Y-12204698D01*
X8324229Y-12204698D02*
X8314706Y-12214222D01*
X8314706Y-12214222D02*
X8305182Y-12233269D01*
X8486134Y-12118984D02*
X8609944Y-12118984D01*
X8609944Y-12118984D02*
X8543277Y-12195174D01*
X8543277Y-12195174D02*
X8571849Y-12195174D01*
X8571849Y-12195174D02*
X8590896Y-12204698D01*
X8590896Y-12204698D02*
X8600420Y-12214222D01*
X8600420Y-12214222D02*
X8609944Y-12233269D01*
X8609944Y-12233269D02*
X8609944Y-12280888D01*
X8609944Y-12280888D02*
X8600420Y-12299936D01*
X8600420Y-12299936D02*
X8590896Y-12309460D01*
X8590896Y-12309460D02*
X8571849Y-12318984D01*
X8571849Y-12318984D02*
X8514706Y-12318984D01*
X8514706Y-12318984D02*
X8495658Y-12309460D01*
X8495658Y-12309460D02*
X8486134Y-12299936D01*
X8686134Y-12118984D02*
X8686134Y-12157079D01*
X8762325Y-12118984D02*
X8762325Y-12157079D01*
X9057563Y-12395174D02*
X9048039Y-12385650D01*
X9048039Y-12385650D02*
X9028991Y-12357079D01*
X9028991Y-12357079D02*
X9019468Y-12338031D01*
X9019468Y-12338031D02*
X9009944Y-12309460D01*
X9009944Y-12309460D02*
X9000420Y-12261841D01*
X9000420Y-12261841D02*
X9000420Y-12223746D01*
X9000420Y-12223746D02*
X9009944Y-12176127D01*
X9009944Y-12176127D02*
X9019468Y-12147555D01*
X9019468Y-12147555D02*
X9028991Y-12128508D01*
X9028991Y-12128508D02*
X9048039Y-12099936D01*
X9048039Y-12099936D02*
X9057563Y-12090412D01*
X9114706Y-12118984D02*
X9238515Y-12118984D01*
X9238515Y-12118984D02*
X9171849Y-12195174D01*
X9171849Y-12195174D02*
X9200420Y-12195174D01*
X9200420Y-12195174D02*
X9219468Y-12204698D01*
X9219468Y-12204698D02*
X9228991Y-12214222D01*
X9228991Y-12214222D02*
X9238515Y-12233269D01*
X9238515Y-12233269D02*
X9238515Y-12280888D01*
X9238515Y-12280888D02*
X9228991Y-12299936D01*
X9228991Y-12299936D02*
X9219468Y-12309460D01*
X9219468Y-12309460D02*
X9200420Y-12318984D01*
X9200420Y-12318984D02*
X9143277Y-12318984D01*
X9143277Y-12318984D02*
X9124230Y-12309460D01*
X9124230Y-12309460D02*
X9114706Y-12299936D01*
X9476611Y-12318984D02*
X9476611Y-12118984D01*
X9562325Y-12318984D02*
X9562325Y-12214222D01*
X9562325Y-12214222D02*
X9552801Y-12195174D01*
X9552801Y-12195174D02*
X9533753Y-12185650D01*
X9533753Y-12185650D02*
X9505182Y-12185650D01*
X9505182Y-12185650D02*
X9486134Y-12195174D01*
X9486134Y-12195174D02*
X9476611Y-12204698D01*
X9686134Y-12318984D02*
X9667087Y-12309460D01*
X9667087Y-12309460D02*
X9657563Y-12299936D01*
X9657563Y-12299936D02*
X9648039Y-12280888D01*
X9648039Y-12280888D02*
X9648039Y-12223746D01*
X9648039Y-12223746D02*
X9657563Y-12204698D01*
X9657563Y-12204698D02*
X9667087Y-12195174D01*
X9667087Y-12195174D02*
X9686134Y-12185650D01*
X9686134Y-12185650D02*
X9714706Y-12185650D01*
X9714706Y-12185650D02*
X9733753Y-12195174D01*
X9733753Y-12195174D02*
X9743277Y-12204698D01*
X9743277Y-12204698D02*
X9752801Y-12223746D01*
X9752801Y-12223746D02*
X9752801Y-12280888D01*
X9752801Y-12280888D02*
X9743277Y-12299936D01*
X9743277Y-12299936D02*
X9733753Y-12309460D01*
X9733753Y-12309460D02*
X9714706Y-12318984D01*
X9714706Y-12318984D02*
X9686134Y-12318984D01*
X9867087Y-12318984D02*
X9848039Y-12309460D01*
X9848039Y-12309460D02*
X9838515Y-12290412D01*
X9838515Y-12290412D02*
X9838515Y-12118984D01*
X10019468Y-12309460D02*
X10000420Y-12318984D01*
X10000420Y-12318984D02*
X9962325Y-12318984D01*
X9962325Y-12318984D02*
X9943277Y-12309460D01*
X9943277Y-12309460D02*
X9933753Y-12290412D01*
X9933753Y-12290412D02*
X9933753Y-12214222D01*
X9933753Y-12214222D02*
X9943277Y-12195174D01*
X9943277Y-12195174D02*
X9962325Y-12185650D01*
X9962325Y-12185650D02*
X10000420Y-12185650D01*
X10000420Y-12185650D02*
X10019468Y-12195174D01*
X10019468Y-12195174D02*
X10028992Y-12214222D01*
X10028992Y-12214222D02*
X10028992Y-12233269D01*
X10028992Y-12233269D02*
X9933753Y-12252317D01*
X10105182Y-12309460D02*
X10124230Y-12318984D01*
X10124230Y-12318984D02*
X10162325Y-12318984D01*
X10162325Y-12318984D02*
X10181373Y-12309460D01*
X10181373Y-12309460D02*
X10190896Y-12290412D01*
X10190896Y-12290412D02*
X10190896Y-12280888D01*
X10190896Y-12280888D02*
X10181373Y-12261841D01*
X10181373Y-12261841D02*
X10162325Y-12252317D01*
X10162325Y-12252317D02*
X10133753Y-12252317D01*
X10133753Y-12252317D02*
X10114706Y-12242793D01*
X10114706Y-12242793D02*
X10105182Y-12223746D01*
X10105182Y-12223746D02*
X10105182Y-12214222D01*
X10105182Y-12214222D02*
X10114706Y-12195174D01*
X10114706Y-12195174D02*
X10133753Y-12185650D01*
X10133753Y-12185650D02*
X10162325Y-12185650D01*
X10162325Y-12185650D02*
X10181373Y-12195174D01*
X10257563Y-12395174D02*
X10267087Y-12385650D01*
X10267087Y-12385650D02*
X10286134Y-12357079D01*
X10286134Y-12357079D02*
X10295658Y-12338031D01*
X10295658Y-12338031D02*
X10305182Y-12309460D01*
X10305182Y-12309460D02*
X10314706Y-12261841D01*
X10314706Y-12261841D02*
X10314706Y-12223746D01*
X10314706Y-12223746D02*
X10305182Y-12176127D01*
X10305182Y-12176127D02*
X10295658Y-12147555D01*
X10295658Y-12147555D02*
X10286134Y-12128508D01*
X10286134Y-12128508D02*
X10267087Y-12099936D01*
X10267087Y-12099936D02*
X10257563Y-12090412D01*
X10619468Y-12395174D02*
X10609944Y-12385650D01*
X10609944Y-12385650D02*
X10590896Y-12357079D01*
X10590896Y-12357079D02*
X10581373Y-12338031D01*
X10581373Y-12338031D02*
X10571849Y-12309460D01*
X10571849Y-12309460D02*
X10562325Y-12261841D01*
X10562325Y-12261841D02*
X10562325Y-12223746D01*
X10562325Y-12223746D02*
X10571849Y-12176127D01*
X10571849Y-12176127D02*
X10581373Y-12147555D01*
X10581373Y-12147555D02*
X10590896Y-12128508D01*
X10590896Y-12128508D02*
X10609944Y-12099936D01*
X10609944Y-12099936D02*
X10619468Y-12090412D01*
X10695658Y-12185650D02*
X10695658Y-12318984D01*
X10695658Y-12204698D02*
X10705182Y-12195174D01*
X10705182Y-12195174D02*
X10724230Y-12185650D01*
X10724230Y-12185650D02*
X10752801Y-12185650D01*
X10752801Y-12185650D02*
X10771849Y-12195174D01*
X10771849Y-12195174D02*
X10781373Y-12214222D01*
X10781373Y-12214222D02*
X10781373Y-12318984D01*
X10905182Y-12318984D02*
X10886134Y-12309460D01*
X10886134Y-12309460D02*
X10876611Y-12299936D01*
X10876611Y-12299936D02*
X10867087Y-12280888D01*
X10867087Y-12280888D02*
X10867087Y-12223746D01*
X10867087Y-12223746D02*
X10876611Y-12204698D01*
X10876611Y-12204698D02*
X10886134Y-12195174D01*
X10886134Y-12195174D02*
X10905182Y-12185650D01*
X10905182Y-12185650D02*
X10933754Y-12185650D01*
X10933754Y-12185650D02*
X10952801Y-12195174D01*
X10952801Y-12195174D02*
X10962325Y-12204698D01*
X10962325Y-12204698D02*
X10971849Y-12223746D01*
X10971849Y-12223746D02*
X10971849Y-12280888D01*
X10971849Y-12280888D02*
X10962325Y-12299936D01*
X10962325Y-12299936D02*
X10952801Y-12309460D01*
X10952801Y-12309460D02*
X10933754Y-12318984D01*
X10933754Y-12318984D02*
X10905182Y-12318984D01*
X11028992Y-12185650D02*
X11105182Y-12185650D01*
X11057563Y-12118984D02*
X11057563Y-12290412D01*
X11057563Y-12290412D02*
X11067087Y-12309460D01*
X11067087Y-12309460D02*
X11086134Y-12318984D01*
X11086134Y-12318984D02*
X11105182Y-12318984D01*
X11324230Y-12185650D02*
X11324230Y-12385650D01*
X11324230Y-12195174D02*
X11343277Y-12185650D01*
X11343277Y-12185650D02*
X11381373Y-12185650D01*
X11381373Y-12185650D02*
X11400420Y-12195174D01*
X11400420Y-12195174D02*
X11409944Y-12204698D01*
X11409944Y-12204698D02*
X11419468Y-12223746D01*
X11419468Y-12223746D02*
X11419468Y-12280888D01*
X11419468Y-12280888D02*
X11409944Y-12299936D01*
X11409944Y-12299936D02*
X11400420Y-12309460D01*
X11400420Y-12309460D02*
X11381373Y-12318984D01*
X11381373Y-12318984D02*
X11343277Y-12318984D01*
X11343277Y-12318984D02*
X11324230Y-12309460D01*
X11533753Y-12318984D02*
X11514706Y-12309460D01*
X11514706Y-12309460D02*
X11505182Y-12290412D01*
X11505182Y-12290412D02*
X11505182Y-12118984D01*
X11695658Y-12318984D02*
X11695658Y-12214222D01*
X11695658Y-12214222D02*
X11686134Y-12195174D01*
X11686134Y-12195174D02*
X11667087Y-12185650D01*
X11667087Y-12185650D02*
X11628992Y-12185650D01*
X11628992Y-12185650D02*
X11609944Y-12195174D01*
X11695658Y-12309460D02*
X11676611Y-12318984D01*
X11676611Y-12318984D02*
X11628992Y-12318984D01*
X11628992Y-12318984D02*
X11609944Y-12309460D01*
X11609944Y-12309460D02*
X11600420Y-12290412D01*
X11600420Y-12290412D02*
X11600420Y-12271365D01*
X11600420Y-12271365D02*
X11609944Y-12252317D01*
X11609944Y-12252317D02*
X11628992Y-12242793D01*
X11628992Y-12242793D02*
X11676611Y-12242793D01*
X11676611Y-12242793D02*
X11695658Y-12233269D01*
X11762325Y-12185650D02*
X11838515Y-12185650D01*
X11790896Y-12118984D02*
X11790896Y-12290412D01*
X11790896Y-12290412D02*
X11800420Y-12309460D01*
X11800420Y-12309460D02*
X11819468Y-12318984D01*
X11819468Y-12318984D02*
X11838515Y-12318984D01*
X11981373Y-12309460D02*
X11962325Y-12318984D01*
X11962325Y-12318984D02*
X11924230Y-12318984D01*
X11924230Y-12318984D02*
X11905182Y-12309460D01*
X11905182Y-12309460D02*
X11895658Y-12290412D01*
X11895658Y-12290412D02*
X11895658Y-12214222D01*
X11895658Y-12214222D02*
X11905182Y-12195174D01*
X11905182Y-12195174D02*
X11924230Y-12185650D01*
X11924230Y-12185650D02*
X11962325Y-12185650D01*
X11962325Y-12185650D02*
X11981373Y-12195174D01*
X11981373Y-12195174D02*
X11990896Y-12214222D01*
X11990896Y-12214222D02*
X11990896Y-12233269D01*
X11990896Y-12233269D02*
X11895658Y-12252317D01*
X12162325Y-12318984D02*
X12162325Y-12118984D01*
X12162325Y-12309460D02*
X12143277Y-12318984D01*
X12143277Y-12318984D02*
X12105182Y-12318984D01*
X12105182Y-12318984D02*
X12086134Y-12309460D01*
X12086134Y-12309460D02*
X12076611Y-12299936D01*
X12076611Y-12299936D02*
X12067087Y-12280888D01*
X12067087Y-12280888D02*
X12067087Y-12223746D01*
X12067087Y-12223746D02*
X12076611Y-12204698D01*
X12076611Y-12204698D02*
X12086134Y-12195174D01*
X12086134Y-12195174D02*
X12105182Y-12185650D01*
X12105182Y-12185650D02*
X12143277Y-12185650D01*
X12143277Y-12185650D02*
X12162325Y-12195174D01*
X12238515Y-12395174D02*
X12248039Y-12385650D01*
X12248039Y-12385650D02*
X12267087Y-12357079D01*
X12267087Y-12357079D02*
X12276611Y-12338031D01*
X12276611Y-12338031D02*
X12286134Y-12309460D01*
X12286134Y-12309460D02*
X12295658Y-12261841D01*
X12295658Y-12261841D02*
X12295658Y-12223746D01*
X12295658Y-12223746D02*
X12286134Y-12176127D01*
X12286134Y-12176127D02*
X12276611Y-12147555D01*
X12276611Y-12147555D02*
X12267087Y-12128508D01*
X12267087Y-12128508D02*
X12248039Y-12099936D01*
X12248039Y-12099936D02*
X12238515Y-12090412D01*
M02*
