M48
; DRILL file {KiCad 8.0.1} date 2024-06-09T01:41:56+0100
; FORMAT={-:-/ absolute / inch / decimal}
; #@! TF.CreationDate,2024-06-09T01:41:56+01:00
; #@! TF.GenerationSoftware,Kicad,Pcbnew,8.0.1
; #@! TF.FileFunction,Plated,1,2,PTH
FMAT,2
INCH
; #@! TA.AperFunction,Plated,PTH,ViaDrill
T1C0.0236
; #@! TA.AperFunction,Plated,PTH,ComponentDrill
T2C0.0315
; #@! TA.AperFunction,Plated,PTH,ComponentDrill
T3C0.0394
; #@! TA.AperFunction,Plated,PTH,ComponentDrill
T4C0.0433
; #@! TA.AperFunction,Plated,PTH,ComponentDrill
T5C0.0512
; #@! TA.AperFunction,Plated,PTH,ComponentDrill
T6C0.0669
; #@! TA.AperFunction,Plated,PTH,ComponentDrill
T7C0.0709
; #@! TA.AperFunction,Plated,PTH,ComponentDrill
T8C0.1024
; #@! TA.AperFunction,Plated,PTH,ComponentDrill
T9C0.1260
%
G90
G05
T1
X3.3957Y-3.75
X3.4626Y-3.7478
X3.6654Y-3.9646
X4.1167Y-3.7333
X4.5291Y-3.7667
X4.5894Y-3.7378
X4.8031Y-3.9685
T2
X2.2879Y-3.65
X2.2879Y-3.8469
X2.3352Y-4.1205
X2.3352Y-4.2691
X2.3352Y-4.4148
X2.3425Y-2.6919
X2.3425Y-3.1919
X2.3512Y-2.4961
X2.4512Y-2.4961
X2.4616Y-3.6
X2.4616Y-3.9
X2.5512Y-2.4961
X2.5616Y-3.6
X2.5616Y-3.9
X2.6616Y-3.6
X2.6616Y-3.9
X2.69Y-2.6919
X2.69Y-3.1919
X2.7616Y-3.6
X2.7616Y-3.9
X2.8352Y-4.1205
X2.8352Y-4.2691
X2.8352Y-4.4148
X2.8616Y-3.6
X2.8616Y-3.9
X2.9616Y-3.6
X2.9616Y-3.9
X3.0616Y-3.6
X3.0616Y-3.9
X3.1077Y-2.6919
X3.1077Y-3.1919
X3.21Y-3.5004
X3.21Y-4.0004
X3.2577Y-2.6919
X3.2577Y-3.1919
X3.4187Y-3.6
X3.4187Y-3.9
X3.4831Y-3.5033
X3.5187Y-3.6
X3.5187Y-3.9
X3.6187Y-3.6
X3.6187Y-3.9
X3.6799Y-3.5033
X3.6821Y-3.3793
X3.7187Y-3.6
X3.7187Y-3.9
X3.7606Y-4.1872
X3.7606Y-4.2876
X3.7606Y-4.3888
X3.7831Y-3.5033
X3.8187Y-3.6
X3.8187Y-3.9
X3.8594Y-4.2876
X3.9187Y-3.6
X3.9187Y-3.9
X3.9799Y-3.5033
X4.0187Y-3.6
X4.0187Y-3.9
X4.1187Y-3.6
X4.1187Y-3.9
X4.1821Y-3.3793
X4.2297Y-3.652
X4.2297Y-3.8488
X4.3577Y-3.5004
X4.3577Y-4.0004
X4.5549Y-3.6
X4.5549Y-3.9
X4.624Y-3.5033
X4.6549Y-3.6
X4.6549Y-3.9
X4.7549Y-3.6
X4.7549Y-3.9
X4.8209Y-3.5033
X4.8447Y-3.3754
X4.8549Y-3.6
X4.8549Y-3.9
X4.901Y-4.1872
X4.901Y-4.2876
X4.901Y-4.3888
X4.9272Y-3.5033
X4.9549Y-3.6
X4.9549Y-3.9
X4.9998Y-4.2876
X5.0549Y-3.6
X5.0549Y-3.9
X5.124Y-3.5033
X5.1549Y-3.6
X5.1549Y-3.9
X5.2549Y-3.6
X5.2549Y-3.9
X5.3264Y-2.9915
X5.3264Y-3.1884
X5.3447Y-3.3754
X5.3653Y-3.652
X5.3653Y-3.8488
T3
X2.9045Y-2.6333
X2.9045Y-2.8203
X2.9045Y-3.2234
X3.5106Y-3.0213
X3.6106Y-3.0213
X3.7106Y-3.0213
X3.8106Y-3.0213
X3.9106Y-3.0213
X4.0106Y-3.0213
X4.4376Y-2.625
X4.4592Y-2.9994
X4.4592Y-3.0994
X4.4921Y-2.5132
X4.5467Y-2.625
X4.5592Y-2.9994
X4.5592Y-3.0994
X4.6012Y-2.5132
X4.6557Y-2.625
X4.6592Y-2.9994
X4.6592Y-3.0994
X4.7102Y-2.5132
X4.7592Y-2.9994
X4.7592Y-3.0994
X4.7648Y-2.625
X4.8193Y-2.5132
X4.8592Y-2.9994
X4.8592Y-3.0994
X4.8738Y-2.625
X4.9592Y-2.9994
X4.9592Y-3.0994
T5
X3.6559Y-4.1872
X3.6559Y-4.3888
X4.0571Y-4.2876
X4.7963Y-4.1872
X4.7963Y-4.3888
X5.1974Y-4.2876
T6
X3.665Y-2.6719
T7
X3.0287Y-2.4423
X3.1846Y-2.4423
T8
X3.665Y-2.4159
T9
X4.1636Y-2.6132
X5.1478Y-2.6132
T4
G00X3.4681Y-2.6364
M15
G01X3.4681Y-2.7073
M16
G05
G00X3.8618Y-2.6364
M15
G01X3.8618Y-2.7073
M16
G05
M30
