%TF.GenerationSoftware,KiCad,Pcbnew,8.0.1*%
%TF.CreationDate,2024-06-09T01:41:57+01:00*%
%TF.ProjectId,tim011_video_fix,74696d30-3131-45f7-9669-64656f5f6669,rev?*%
%TF.SameCoordinates,Original*%
%TF.FileFunction,Soldermask,Bot*%
%TF.FilePolarity,Negative*%
%FSLAX46Y46*%
G04 Gerber Fmt 4.6, Leading zero omitted, Abs format (unit mm)*
G04 Created by KiCad (PCBNEW 8.0.1) date 2024-06-09 01:41:57*
%MOMM*%
%LPD*%
G01*
G04 APERTURE LIST*
%ADD10C,1.600000*%
%ADD11C,2.700000*%
%ADD12C,1.300000*%
%ADD13C,1.900000*%
%ADD14O,1.600000X1.600000*%
%ADD15R,1.600000X1.600000*%
%ADD16R,1.500000X1.500000*%
%ADD17C,1.500000*%
%ADD18R,1.700000X1.700000*%
%ADD19O,1.700000X1.700000*%
%ADD20C,2.550000*%
%ADD21R,1.300000X3.616000*%
%ADD22C,3.616000*%
%ADD23C,4.000000*%
%ADD24R,2.000000X2.000000*%
%ADD25C,2.000000*%
%ADD26R,3.000000X3.000000*%
%ADD27C,3.000000*%
G04 APERTURE END LIST*
D10*
%TO.C,C5*%
X107435000Y-92760000D03*
X107435000Y-97760000D03*
%TD*%
D11*
%TO.C,H1*%
X63784000Y-77143000D03*
%TD*%
D12*
%TO.C,RV2*%
X95520000Y-111475000D03*
D13*
X92860000Y-111475000D03*
X103050000Y-108905000D03*
D12*
X98030000Y-108905000D03*
X95520000Y-108905000D03*
X95520000Y-106355000D03*
D13*
X92860000Y-106355000D03*
%TD*%
D12*
%TO.C,RV1*%
X124485000Y-111475000D03*
D13*
X121825000Y-111475000D03*
X132015000Y-108905000D03*
D12*
X126995000Y-108905000D03*
X124485000Y-108905000D03*
X124485000Y-106355000D03*
D13*
X121825000Y-106355000D03*
%TD*%
D11*
%TO.C,H3*%
X85050000Y-110775000D03*
%TD*%
D10*
%TO.C,C9*%
X135290000Y-75985000D03*
X135290000Y-80985000D03*
%TD*%
%TO.C,R8*%
X59315000Y-112135000D03*
D14*
X72015000Y-112135000D03*
%TD*%
D15*
%TO.C,U3*%
X62525000Y-99060000D03*
D14*
X65065000Y-99060000D03*
X67605000Y-99060000D03*
X70145000Y-99060000D03*
X72685000Y-99060000D03*
X75225000Y-99060000D03*
X77765000Y-99060000D03*
X77765000Y-91440000D03*
X75225000Y-91440000D03*
X72685000Y-91440000D03*
X70145000Y-91440000D03*
X67605000Y-91440000D03*
X65065000Y-91440000D03*
X62525000Y-91440000D03*
%TD*%
D16*
%TO.C,Q1*%
X59720000Y-63400000D03*
D17*
X62260000Y-63400000D03*
X64800000Y-63400000D03*
%TD*%
D10*
%TO.C,C1*%
X117450000Y-88985000D03*
X122450000Y-88985000D03*
%TD*%
D18*
%TO.C,P1*%
X89170000Y-76740000D03*
D19*
X91710000Y-76740000D03*
X94250000Y-76740000D03*
X96790000Y-76740000D03*
X99330000Y-76740000D03*
X101870000Y-76740000D03*
%TD*%
D14*
%TO.C,R6*%
X59500000Y-81075000D03*
D10*
X59500000Y-68375000D03*
%TD*%
D20*
%TO.C,J3*%
X93090000Y-67865000D03*
D21*
X88090000Y-67865000D03*
D22*
X93090000Y-61365000D03*
D21*
X98090000Y-67865000D03*
%TD*%
D10*
%TO.C,R10*%
X68325000Y-81075000D03*
D14*
X68325000Y-68375000D03*
%TD*%
D10*
%TO.C,C4*%
X101090000Y-88985000D03*
X96090000Y-88985000D03*
%TD*%
D18*
%TO.C,P2*%
X113262500Y-78725000D03*
D19*
X113262500Y-76185000D03*
X115802500Y-78725000D03*
X115802500Y-76185000D03*
X118342500Y-78725000D03*
X118342500Y-76185000D03*
X120882500Y-78725000D03*
X120882500Y-76185000D03*
X123422500Y-78725000D03*
X123422500Y-76185000D03*
X125962500Y-78725000D03*
X125962500Y-76185000D03*
%TD*%
D23*
%TO.C,J4*%
X130755000Y-66375000D03*
X105755000Y-66375000D03*
D15*
X112715000Y-66675000D03*
D10*
X115485000Y-66675000D03*
X118255000Y-66675000D03*
X121025000Y-66675000D03*
X123795000Y-66675000D03*
X114100000Y-63835000D03*
X116870000Y-63835000D03*
X119640000Y-63835000D03*
X122410000Y-63835000D03*
%TD*%
%TO.C,R1*%
X110685000Y-101610000D03*
D14*
X110685000Y-88910000D03*
%TD*%
%TO.C,R9*%
X82745000Y-68375000D03*
D10*
X82745000Y-81075000D03*
%TD*%
D15*
%TO.C,U1*%
X115695000Y-99060000D03*
D14*
X118235000Y-99060000D03*
X120775000Y-99060000D03*
X123315000Y-99060000D03*
X125855000Y-99060000D03*
X128395000Y-99060000D03*
X130935000Y-99060000D03*
X133475000Y-99060000D03*
X133475000Y-91440000D03*
X130935000Y-91440000D03*
X128395000Y-91440000D03*
X125855000Y-91440000D03*
X123315000Y-91440000D03*
X120775000Y-91440000D03*
X118235000Y-91440000D03*
X115695000Y-91440000D03*
%TD*%
D10*
%TO.C,C2*%
X130150000Y-88985000D03*
X125150000Y-88985000D03*
%TD*%
%TO.C,R5*%
X59315000Y-104660000D03*
D14*
X72015000Y-104660000D03*
%TD*%
%TO.C,R3*%
X81535000Y-88910000D03*
D10*
X81535000Y-101610000D03*
%TD*%
%TO.C,R2*%
X135755000Y-85735000D03*
D14*
X123055000Y-85735000D03*
%TD*%
%TO.C,R11*%
X78935000Y-68375000D03*
D10*
X78935000Y-81075000D03*
%TD*%
D24*
%TO.C,C8*%
X73775000Y-66885000D03*
D25*
X73775000Y-71635000D03*
X73775000Y-81875000D03*
%TD*%
D10*
%TO.C,C7*%
X136277500Y-92760000D03*
X136277500Y-97760000D03*
%TD*%
D11*
%TO.C,H2*%
X137450000Y-71428000D03*
%TD*%
D26*
%TO.C,P3*%
X76930000Y-62035000D03*
D27*
X80890000Y-62035000D03*
%TD*%
D10*
%TO.C,C3*%
X88470000Y-88985000D03*
X93470000Y-88985000D03*
%TD*%
%TO.C,R7*%
X59315000Y-108435000D03*
D14*
X72015000Y-108435000D03*
%TD*%
D10*
%TO.C,C6*%
X58112500Y-92710000D03*
X58112500Y-97710000D03*
%TD*%
D15*
%TO.C,U2*%
X86835000Y-99060000D03*
D14*
X89375000Y-99060000D03*
X91915000Y-99060000D03*
X94455000Y-99060000D03*
X96995000Y-99060000D03*
X99535000Y-99060000D03*
X102075000Y-99060000D03*
X104615000Y-99060000D03*
X104615000Y-91440000D03*
X102075000Y-91440000D03*
X99535000Y-91440000D03*
X96995000Y-91440000D03*
X94455000Y-91440000D03*
X91915000Y-91440000D03*
X89375000Y-91440000D03*
X86835000Y-91440000D03*
%TD*%
D10*
%TO.C,R4*%
X106225000Y-85835000D03*
D14*
X93525000Y-85835000D03*
%TD*%
M02*
