%TF.GenerationSoftware,KiCad,Pcbnew,8.0.1*%
%TF.CreationDate,2024-06-09T01:41:57+01:00*%
%TF.ProjectId,tim011_video_fix,74696d30-3131-45f7-9669-64656f5f6669,rev?*%
%TF.SameCoordinates,Original*%
%TF.FileFunction,Legend,Top*%
%TF.FilePolarity,Positive*%
%FSLAX46Y46*%
G04 Gerber Fmt 4.6, Leading zero omitted, Abs format (unit mm)*
G04 Created by KiCad (PCBNEW 8.0.1) date 2024-06-09 01:41:57*
%MOMM*%
%LPD*%
G01*
G04 APERTURE LIST*
%ADD10C,0.400000*%
%ADD11C,0.360000*%
%ADD12C,0.280000*%
%ADD13C,0.129000*%
%ADD14C,0.120000*%
%ADD15C,0.300000*%
G04 APERTURE END LIST*
D10*
X55350000Y-59050000D02*
X139125000Y-59050000D01*
X139125000Y-115300000D01*
X55350000Y-115300000D01*
X55350000Y-59050000D01*
D11*
X84174461Y-62008613D02*
X85926842Y-62008613D01*
X72074461Y-61958613D02*
X73826842Y-61958613D01*
X72950651Y-62834803D02*
X72950651Y-61082422D01*
D12*
X106430638Y-107887840D02*
X107459210Y-107887840D01*
X106944924Y-109297840D02*
X106944924Y-107887840D01*
X108059210Y-109297840D02*
X108059210Y-107887840D01*
X108916353Y-109297840D02*
X108916353Y-107887840D01*
X108916353Y-107887840D02*
X109516353Y-108894983D01*
X109516353Y-108894983D02*
X110116353Y-107887840D01*
X110116353Y-107887840D02*
X110116353Y-109297840D01*
X110973496Y-108760698D02*
X112344925Y-108760698D01*
X113544924Y-107887840D02*
X113716353Y-107887840D01*
X113716353Y-107887840D02*
X113887781Y-107954983D01*
X113887781Y-107954983D02*
X113973496Y-108022126D01*
X113973496Y-108022126D02*
X114059210Y-108156412D01*
X114059210Y-108156412D02*
X114144924Y-108424983D01*
X114144924Y-108424983D02*
X114144924Y-108760698D01*
X114144924Y-108760698D02*
X114059210Y-109029269D01*
X114059210Y-109029269D02*
X113973496Y-109163555D01*
X113973496Y-109163555D02*
X113887781Y-109230698D01*
X113887781Y-109230698D02*
X113716353Y-109297840D01*
X113716353Y-109297840D02*
X113544924Y-109297840D01*
X113544924Y-109297840D02*
X113373496Y-109230698D01*
X113373496Y-109230698D02*
X113287781Y-109163555D01*
X113287781Y-109163555D02*
X113202067Y-109029269D01*
X113202067Y-109029269D02*
X113116353Y-108760698D01*
X113116353Y-108760698D02*
X113116353Y-108424983D01*
X113116353Y-108424983D02*
X113202067Y-108156412D01*
X113202067Y-108156412D02*
X113287781Y-108022126D01*
X113287781Y-108022126D02*
X113373496Y-107954983D01*
X113373496Y-107954983D02*
X113544924Y-107887840D01*
X115859210Y-109297840D02*
X114830639Y-109297840D01*
X115344924Y-109297840D02*
X115344924Y-107887840D01*
X115344924Y-107887840D02*
X115173496Y-108089269D01*
X115173496Y-108089269D02*
X115002067Y-108223555D01*
X115002067Y-108223555D02*
X114830639Y-108290698D01*
X117573496Y-109297840D02*
X116544925Y-109297840D01*
X117059210Y-109297840D02*
X117059210Y-107887840D01*
X117059210Y-107887840D02*
X116887782Y-108089269D01*
X116887782Y-108089269D02*
X116716353Y-108223555D01*
X116716353Y-108223555D02*
X116544925Y-108290698D01*
X106430638Y-110157861D02*
X107030638Y-111567861D01*
X107030638Y-111567861D02*
X107630638Y-110157861D01*
X108230638Y-111567861D02*
X108230638Y-110627861D01*
X108230638Y-110157861D02*
X108144924Y-110225004D01*
X108144924Y-110225004D02*
X108230638Y-110292147D01*
X108230638Y-110292147D02*
X108316352Y-110225004D01*
X108316352Y-110225004D02*
X108230638Y-110157861D01*
X108230638Y-110157861D02*
X108230638Y-110292147D01*
X109859210Y-111567861D02*
X109859210Y-110157861D01*
X109859210Y-111500719D02*
X109687781Y-111567861D01*
X109687781Y-111567861D02*
X109344924Y-111567861D01*
X109344924Y-111567861D02*
X109173495Y-111500719D01*
X109173495Y-111500719D02*
X109087781Y-111433576D01*
X109087781Y-111433576D02*
X109002067Y-111299290D01*
X109002067Y-111299290D02*
X109002067Y-110896433D01*
X109002067Y-110896433D02*
X109087781Y-110762147D01*
X109087781Y-110762147D02*
X109173495Y-110695004D01*
X109173495Y-110695004D02*
X109344924Y-110627861D01*
X109344924Y-110627861D02*
X109687781Y-110627861D01*
X109687781Y-110627861D02*
X109859210Y-110695004D01*
X111402066Y-111500719D02*
X111230638Y-111567861D01*
X111230638Y-111567861D02*
X110887781Y-111567861D01*
X110887781Y-111567861D02*
X110716352Y-111500719D01*
X110716352Y-111500719D02*
X110630638Y-111366433D01*
X110630638Y-111366433D02*
X110630638Y-110829290D01*
X110630638Y-110829290D02*
X110716352Y-110695004D01*
X110716352Y-110695004D02*
X110887781Y-110627861D01*
X110887781Y-110627861D02*
X111230638Y-110627861D01*
X111230638Y-110627861D02*
X111402066Y-110695004D01*
X111402066Y-110695004D02*
X111487781Y-110829290D01*
X111487781Y-110829290D02*
X111487781Y-110963576D01*
X111487781Y-110963576D02*
X110630638Y-111097861D01*
X112516352Y-111567861D02*
X112344923Y-111500719D01*
X112344923Y-111500719D02*
X112259209Y-111433576D01*
X112259209Y-111433576D02*
X112173495Y-111299290D01*
X112173495Y-111299290D02*
X112173495Y-110896433D01*
X112173495Y-110896433D02*
X112259209Y-110762147D01*
X112259209Y-110762147D02*
X112344923Y-110695004D01*
X112344923Y-110695004D02*
X112516352Y-110627861D01*
X112516352Y-110627861D02*
X112773495Y-110627861D01*
X112773495Y-110627861D02*
X112944923Y-110695004D01*
X112944923Y-110695004D02*
X113030638Y-110762147D01*
X113030638Y-110762147D02*
X113116352Y-110896433D01*
X113116352Y-110896433D02*
X113116352Y-111299290D01*
X113116352Y-111299290D02*
X113030638Y-111433576D01*
X113030638Y-111433576D02*
X112944923Y-111500719D01*
X112944923Y-111500719D02*
X112773495Y-111567861D01*
X112773495Y-111567861D02*
X112516352Y-111567861D01*
X115859209Y-110829290D02*
X115259209Y-110829290D01*
X115259209Y-111567861D02*
X115259209Y-110157861D01*
X115259209Y-110157861D02*
X116116352Y-110157861D01*
X116802066Y-111567861D02*
X116802066Y-110627861D01*
X116802066Y-110157861D02*
X116716352Y-110225004D01*
X116716352Y-110225004D02*
X116802066Y-110292147D01*
X116802066Y-110292147D02*
X116887780Y-110225004D01*
X116887780Y-110225004D02*
X116802066Y-110157861D01*
X116802066Y-110157861D02*
X116802066Y-110292147D01*
X117487780Y-111567861D02*
X118430638Y-110627861D01*
X117487780Y-110627861D02*
X118430638Y-111567861D01*
X106516352Y-112897882D02*
X106944924Y-113837882D01*
X106944924Y-113837882D02*
X107373495Y-112897882D01*
X109002067Y-113837882D02*
X107973496Y-113837882D01*
X108487781Y-113837882D02*
X108487781Y-112427882D01*
X108487781Y-112427882D02*
X108316353Y-112629311D01*
X108316353Y-112629311D02*
X108144924Y-112763597D01*
X108144924Y-112763597D02*
X107973496Y-112830740D01*
X109773496Y-113703597D02*
X109859210Y-113770740D01*
X109859210Y-113770740D02*
X109773496Y-113837882D01*
X109773496Y-113837882D02*
X109687782Y-113770740D01*
X109687782Y-113770740D02*
X109773496Y-113703597D01*
X109773496Y-113703597D02*
X109773496Y-113837882D01*
X111573496Y-113837882D02*
X110544925Y-113837882D01*
X111059210Y-113837882D02*
X111059210Y-112427882D01*
X111059210Y-112427882D02*
X110887782Y-112629311D01*
X110887782Y-112629311D02*
X110716353Y-112763597D01*
X110716353Y-112763597D02*
X110544925Y-112830740D01*
D11*
X92855952Y-104343994D02*
X92089286Y-103486851D01*
X91541667Y-104343994D02*
X91541667Y-102543994D01*
X91541667Y-102543994D02*
X92417857Y-102543994D01*
X92417857Y-102543994D02*
X92636905Y-102629708D01*
X92636905Y-102629708D02*
X92746428Y-102715422D01*
X92746428Y-102715422D02*
X92855952Y-102886851D01*
X92855952Y-102886851D02*
X92855952Y-103143994D01*
X92855952Y-103143994D02*
X92746428Y-103315422D01*
X92746428Y-103315422D02*
X92636905Y-103401137D01*
X92636905Y-103401137D02*
X92417857Y-103486851D01*
X92417857Y-103486851D02*
X91541667Y-103486851D01*
X93513095Y-102543994D02*
X94279762Y-104343994D01*
X94279762Y-104343994D02*
X95046428Y-102543994D01*
X95703572Y-102715422D02*
X95813096Y-102629708D01*
X95813096Y-102629708D02*
X96032143Y-102543994D01*
X96032143Y-102543994D02*
X96579762Y-102543994D01*
X96579762Y-102543994D02*
X96798810Y-102629708D01*
X96798810Y-102629708D02*
X96908334Y-102715422D01*
X96908334Y-102715422D02*
X97017857Y-102886851D01*
X97017857Y-102886851D02*
X97017857Y-103058280D01*
X97017857Y-103058280D02*
X96908334Y-103315422D01*
X96908334Y-103315422D02*
X95594048Y-104343994D01*
X95594048Y-104343994D02*
X97017857Y-104343994D01*
X121790952Y-104393994D02*
X121024286Y-103536851D01*
X120476667Y-104393994D02*
X120476667Y-102593994D01*
X120476667Y-102593994D02*
X121352857Y-102593994D01*
X121352857Y-102593994D02*
X121571905Y-102679708D01*
X121571905Y-102679708D02*
X121681428Y-102765422D01*
X121681428Y-102765422D02*
X121790952Y-102936851D01*
X121790952Y-102936851D02*
X121790952Y-103193994D01*
X121790952Y-103193994D02*
X121681428Y-103365422D01*
X121681428Y-103365422D02*
X121571905Y-103451137D01*
X121571905Y-103451137D02*
X121352857Y-103536851D01*
X121352857Y-103536851D02*
X120476667Y-103536851D01*
X122448095Y-102593994D02*
X123214762Y-104393994D01*
X123214762Y-104393994D02*
X123981428Y-102593994D01*
X125952857Y-104393994D02*
X124638572Y-104393994D01*
X125295715Y-104393994D02*
X125295715Y-102593994D01*
X125295715Y-102593994D02*
X125076667Y-102851137D01*
X125076667Y-102851137D02*
X124857619Y-103022565D01*
X124857619Y-103022565D02*
X124638572Y-103108280D01*
D13*
X135599240Y-78628333D02*
X135640193Y-78669285D01*
X135640193Y-78669285D02*
X135681145Y-78792143D01*
X135681145Y-78792143D02*
X135681145Y-78874047D01*
X135681145Y-78874047D02*
X135640193Y-78996904D01*
X135640193Y-78996904D02*
X135558288Y-79078809D01*
X135558288Y-79078809D02*
X135476383Y-79119762D01*
X135476383Y-79119762D02*
X135312573Y-79160714D01*
X135312573Y-79160714D02*
X135189716Y-79160714D01*
X135189716Y-79160714D02*
X135025907Y-79119762D01*
X135025907Y-79119762D02*
X134944002Y-79078809D01*
X134944002Y-79078809D02*
X134862097Y-78996904D01*
X134862097Y-78996904D02*
X134821145Y-78874047D01*
X134821145Y-78874047D02*
X134821145Y-78792143D01*
X134821145Y-78792143D02*
X134862097Y-78669285D01*
X134862097Y-78669285D02*
X134903050Y-78628333D01*
X135681145Y-78218809D02*
X135681145Y-78055000D01*
X135681145Y-78055000D02*
X135640193Y-77973095D01*
X135640193Y-77973095D02*
X135599240Y-77932143D01*
X135599240Y-77932143D02*
X135476383Y-77850238D01*
X135476383Y-77850238D02*
X135312573Y-77809285D01*
X135312573Y-77809285D02*
X134984954Y-77809285D01*
X134984954Y-77809285D02*
X134903050Y-77850238D01*
X134903050Y-77850238D02*
X134862097Y-77891190D01*
X134862097Y-77891190D02*
X134821145Y-77973095D01*
X134821145Y-77973095D02*
X134821145Y-78136904D01*
X134821145Y-78136904D02*
X134862097Y-78218809D01*
X134862097Y-78218809D02*
X134903050Y-78259762D01*
X134903050Y-78259762D02*
X134984954Y-78300714D01*
X134984954Y-78300714D02*
X135189716Y-78300714D01*
X135189716Y-78300714D02*
X135271621Y-78259762D01*
X135271621Y-78259762D02*
X135312573Y-78218809D01*
X135312573Y-78218809D02*
X135353526Y-78136904D01*
X135353526Y-78136904D02*
X135353526Y-77973095D01*
X135353526Y-77973095D02*
X135312573Y-77891190D01*
X135312573Y-77891190D02*
X135271621Y-77850238D01*
X135271621Y-77850238D02*
X135189716Y-77809285D01*
D11*
X75086428Y-112948994D02*
X74319762Y-112091851D01*
X73772143Y-112948994D02*
X73772143Y-111148994D01*
X73772143Y-111148994D02*
X74648333Y-111148994D01*
X74648333Y-111148994D02*
X74867381Y-111234708D01*
X74867381Y-111234708D02*
X74976904Y-111320422D01*
X74976904Y-111320422D02*
X75086428Y-111491851D01*
X75086428Y-111491851D02*
X75086428Y-111748994D01*
X75086428Y-111748994D02*
X74976904Y-111920422D01*
X74976904Y-111920422D02*
X74867381Y-112006137D01*
X74867381Y-112006137D02*
X74648333Y-112091851D01*
X74648333Y-112091851D02*
X73772143Y-112091851D01*
X76400714Y-111920422D02*
X76181666Y-111834708D01*
X76181666Y-111834708D02*
X76072143Y-111748994D01*
X76072143Y-111748994D02*
X75962619Y-111577565D01*
X75962619Y-111577565D02*
X75962619Y-111491851D01*
X75962619Y-111491851D02*
X76072143Y-111320422D01*
X76072143Y-111320422D02*
X76181666Y-111234708D01*
X76181666Y-111234708D02*
X76400714Y-111148994D01*
X76400714Y-111148994D02*
X76838809Y-111148994D01*
X76838809Y-111148994D02*
X77057857Y-111234708D01*
X77057857Y-111234708D02*
X77167381Y-111320422D01*
X77167381Y-111320422D02*
X77276904Y-111491851D01*
X77276904Y-111491851D02*
X77276904Y-111577565D01*
X77276904Y-111577565D02*
X77167381Y-111748994D01*
X77167381Y-111748994D02*
X77057857Y-111834708D01*
X77057857Y-111834708D02*
X76838809Y-111920422D01*
X76838809Y-111920422D02*
X76400714Y-111920422D01*
X76400714Y-111920422D02*
X76181666Y-112006137D01*
X76181666Y-112006137D02*
X76072143Y-112091851D01*
X76072143Y-112091851D02*
X75962619Y-112263280D01*
X75962619Y-112263280D02*
X75962619Y-112606137D01*
X75962619Y-112606137D02*
X76072143Y-112777565D01*
X76072143Y-112777565D02*
X76181666Y-112863280D01*
X76181666Y-112863280D02*
X76400714Y-112948994D01*
X76400714Y-112948994D02*
X76838809Y-112948994D01*
X76838809Y-112948994D02*
X77057857Y-112863280D01*
X77057857Y-112863280D02*
X77167381Y-112777565D01*
X77167381Y-112777565D02*
X77276904Y-112606137D01*
X77276904Y-112606137D02*
X77276904Y-112263280D01*
X77276904Y-112263280D02*
X77167381Y-112091851D01*
X77167381Y-112091851D02*
X77057857Y-112006137D01*
X77057857Y-112006137D02*
X76838809Y-111920422D01*
X61362619Y-100373994D02*
X61362619Y-101831137D01*
X61362619Y-101831137D02*
X61472142Y-102002565D01*
X61472142Y-102002565D02*
X61581666Y-102088280D01*
X61581666Y-102088280D02*
X61800714Y-102173994D01*
X61800714Y-102173994D02*
X62238809Y-102173994D01*
X62238809Y-102173994D02*
X62457857Y-102088280D01*
X62457857Y-102088280D02*
X62567380Y-102002565D01*
X62567380Y-102002565D02*
X62676904Y-101831137D01*
X62676904Y-101831137D02*
X62676904Y-100373994D01*
X63553095Y-100373994D02*
X64976904Y-100373994D01*
X64976904Y-100373994D02*
X64210238Y-101059708D01*
X64210238Y-101059708D02*
X64538809Y-101059708D01*
X64538809Y-101059708D02*
X64757857Y-101145422D01*
X64757857Y-101145422D02*
X64867381Y-101231137D01*
X64867381Y-101231137D02*
X64976904Y-101402565D01*
X64976904Y-101402565D02*
X64976904Y-101831137D01*
X64976904Y-101831137D02*
X64867381Y-102002565D01*
X64867381Y-102002565D02*
X64757857Y-102088280D01*
X64757857Y-102088280D02*
X64538809Y-102173994D01*
X64538809Y-102173994D02*
X63881666Y-102173994D01*
X63881666Y-102173994D02*
X63662619Y-102088280D01*
X63662619Y-102088280D02*
X63553095Y-102002565D01*
X63906429Y-94323994D02*
X65439762Y-94323994D01*
X65439762Y-94323994D02*
X64454048Y-96123994D01*
X67301667Y-94923994D02*
X67301667Y-96123994D01*
X66754048Y-94238280D02*
X66206429Y-95523994D01*
X66206429Y-95523994D02*
X67630238Y-95523994D01*
X69601667Y-96123994D02*
X68506429Y-96123994D01*
X68506429Y-96123994D02*
X68506429Y-94323994D01*
X70258810Y-96038280D02*
X70587381Y-96123994D01*
X70587381Y-96123994D02*
X71135000Y-96123994D01*
X71135000Y-96123994D02*
X71354048Y-96038280D01*
X71354048Y-96038280D02*
X71463572Y-95952565D01*
X71463572Y-95952565D02*
X71573095Y-95781137D01*
X71573095Y-95781137D02*
X71573095Y-95609708D01*
X71573095Y-95609708D02*
X71463572Y-95438280D01*
X71463572Y-95438280D02*
X71354048Y-95352565D01*
X71354048Y-95352565D02*
X71135000Y-95266851D01*
X71135000Y-95266851D02*
X70696905Y-95181137D01*
X70696905Y-95181137D02*
X70477857Y-95095422D01*
X70477857Y-95095422D02*
X70368334Y-95009708D01*
X70368334Y-95009708D02*
X70258810Y-94838280D01*
X70258810Y-94838280D02*
X70258810Y-94666851D01*
X70258810Y-94666851D02*
X70368334Y-94495422D01*
X70368334Y-94495422D02*
X70477857Y-94409708D01*
X70477857Y-94409708D02*
X70696905Y-94323994D01*
X70696905Y-94323994D02*
X71244524Y-94323994D01*
X71244524Y-94323994D02*
X71573095Y-94409708D01*
X72996905Y-94323994D02*
X73215952Y-94323994D01*
X73215952Y-94323994D02*
X73435000Y-94409708D01*
X73435000Y-94409708D02*
X73544524Y-94495422D01*
X73544524Y-94495422D02*
X73654048Y-94666851D01*
X73654048Y-94666851D02*
X73763571Y-95009708D01*
X73763571Y-95009708D02*
X73763571Y-95438280D01*
X73763571Y-95438280D02*
X73654048Y-95781137D01*
X73654048Y-95781137D02*
X73544524Y-95952565D01*
X73544524Y-95952565D02*
X73435000Y-96038280D01*
X73435000Y-96038280D02*
X73215952Y-96123994D01*
X73215952Y-96123994D02*
X72996905Y-96123994D01*
X72996905Y-96123994D02*
X72777857Y-96038280D01*
X72777857Y-96038280D02*
X72668333Y-95952565D01*
X72668333Y-95952565D02*
X72558810Y-95781137D01*
X72558810Y-95781137D02*
X72449286Y-95438280D01*
X72449286Y-95438280D02*
X72449286Y-95009708D01*
X72449286Y-95009708D02*
X72558810Y-94666851D01*
X72558810Y-94666851D02*
X72668333Y-94495422D01*
X72668333Y-94495422D02*
X72777857Y-94409708D01*
X72777857Y-94409708D02*
X72996905Y-94323994D01*
X75077857Y-95095422D02*
X74858809Y-95009708D01*
X74858809Y-95009708D02*
X74749286Y-94923994D01*
X74749286Y-94923994D02*
X74639762Y-94752565D01*
X74639762Y-94752565D02*
X74639762Y-94666851D01*
X74639762Y-94666851D02*
X74749286Y-94495422D01*
X74749286Y-94495422D02*
X74858809Y-94409708D01*
X74858809Y-94409708D02*
X75077857Y-94323994D01*
X75077857Y-94323994D02*
X75515952Y-94323994D01*
X75515952Y-94323994D02*
X75735000Y-94409708D01*
X75735000Y-94409708D02*
X75844524Y-94495422D01*
X75844524Y-94495422D02*
X75954047Y-94666851D01*
X75954047Y-94666851D02*
X75954047Y-94752565D01*
X75954047Y-94752565D02*
X75844524Y-94923994D01*
X75844524Y-94923994D02*
X75735000Y-95009708D01*
X75735000Y-95009708D02*
X75515952Y-95095422D01*
X75515952Y-95095422D02*
X75077857Y-95095422D01*
X75077857Y-95095422D02*
X74858809Y-95181137D01*
X74858809Y-95181137D02*
X74749286Y-95266851D01*
X74749286Y-95266851D02*
X74639762Y-95438280D01*
X74639762Y-95438280D02*
X74639762Y-95781137D01*
X74639762Y-95781137D02*
X74749286Y-95952565D01*
X74749286Y-95952565D02*
X74858809Y-96038280D01*
X74858809Y-96038280D02*
X75077857Y-96123994D01*
X75077857Y-96123994D02*
X75515952Y-96123994D01*
X75515952Y-96123994D02*
X75735000Y-96038280D01*
X75735000Y-96038280D02*
X75844524Y-95952565D01*
X75844524Y-95952565D02*
X75954047Y-95781137D01*
X75954047Y-95781137D02*
X75954047Y-95438280D01*
X75954047Y-95438280D02*
X75844524Y-95266851D01*
X75844524Y-95266851D02*
X75735000Y-95181137D01*
X75735000Y-95181137D02*
X75515952Y-95095422D01*
X68190952Y-64285422D02*
X67971904Y-64199708D01*
X67971904Y-64199708D02*
X67752857Y-64028280D01*
X67752857Y-64028280D02*
X67424285Y-63771137D01*
X67424285Y-63771137D02*
X67205238Y-63685422D01*
X67205238Y-63685422D02*
X66986190Y-63685422D01*
X67095714Y-64113994D02*
X66876666Y-64028280D01*
X66876666Y-64028280D02*
X66657619Y-63856851D01*
X66657619Y-63856851D02*
X66548095Y-63513994D01*
X66548095Y-63513994D02*
X66548095Y-62913994D01*
X66548095Y-62913994D02*
X66657619Y-62571137D01*
X66657619Y-62571137D02*
X66876666Y-62399708D01*
X66876666Y-62399708D02*
X67095714Y-62313994D01*
X67095714Y-62313994D02*
X67533809Y-62313994D01*
X67533809Y-62313994D02*
X67752857Y-62399708D01*
X67752857Y-62399708D02*
X67971904Y-62571137D01*
X67971904Y-62571137D02*
X68081428Y-62913994D01*
X68081428Y-62913994D02*
X68081428Y-63513994D01*
X68081428Y-63513994D02*
X67971904Y-63856851D01*
X67971904Y-63856851D02*
X67752857Y-64028280D01*
X67752857Y-64028280D02*
X67533809Y-64113994D01*
X67533809Y-64113994D02*
X67095714Y-64113994D01*
X70271904Y-64113994D02*
X68957619Y-64113994D01*
X69614762Y-64113994D02*
X69614762Y-62313994D01*
X69614762Y-62313994D02*
X69395714Y-62571137D01*
X69395714Y-62571137D02*
X69176666Y-62742565D01*
X69176666Y-62742565D02*
X68957619Y-62828280D01*
D13*
X119806666Y-89294240D02*
X119765714Y-89335193D01*
X119765714Y-89335193D02*
X119642856Y-89376145D01*
X119642856Y-89376145D02*
X119560952Y-89376145D01*
X119560952Y-89376145D02*
X119438095Y-89335193D01*
X119438095Y-89335193D02*
X119356190Y-89253288D01*
X119356190Y-89253288D02*
X119315237Y-89171383D01*
X119315237Y-89171383D02*
X119274285Y-89007573D01*
X119274285Y-89007573D02*
X119274285Y-88884716D01*
X119274285Y-88884716D02*
X119315237Y-88720907D01*
X119315237Y-88720907D02*
X119356190Y-88639002D01*
X119356190Y-88639002D02*
X119438095Y-88557097D01*
X119438095Y-88557097D02*
X119560952Y-88516145D01*
X119560952Y-88516145D02*
X119642856Y-88516145D01*
X119642856Y-88516145D02*
X119765714Y-88557097D01*
X119765714Y-88557097D02*
X119806666Y-88598050D01*
X120625714Y-89376145D02*
X120134285Y-89376145D01*
X120379999Y-89376145D02*
X120379999Y-88516145D01*
X120379999Y-88516145D02*
X120298095Y-88639002D01*
X120298095Y-88639002D02*
X120216190Y-88720907D01*
X120216190Y-88720907D02*
X120134285Y-88761859D01*
D11*
X94971429Y-80613994D02*
X94971429Y-78813994D01*
X96066667Y-79413994D02*
X96066667Y-80613994D01*
X96066667Y-79585422D02*
X96176190Y-79499708D01*
X96176190Y-79499708D02*
X96395238Y-79413994D01*
X96395238Y-79413994D02*
X96723809Y-79413994D01*
X96723809Y-79413994D02*
X96942857Y-79499708D01*
X96942857Y-79499708D02*
X97052381Y-79671137D01*
X97052381Y-79671137D02*
X97052381Y-80613994D01*
X98147619Y-79413994D02*
X98147619Y-81213994D01*
X98147619Y-79499708D02*
X98366666Y-79413994D01*
X98366666Y-79413994D02*
X98804761Y-79413994D01*
X98804761Y-79413994D02*
X99023809Y-79499708D01*
X99023809Y-79499708D02*
X99133333Y-79585422D01*
X99133333Y-79585422D02*
X99242857Y-79756851D01*
X99242857Y-79756851D02*
X99242857Y-80271137D01*
X99242857Y-80271137D02*
X99133333Y-80442565D01*
X99133333Y-80442565D02*
X99023809Y-80528280D01*
X99023809Y-80528280D02*
X98804761Y-80613994D01*
X98804761Y-80613994D02*
X98366666Y-80613994D01*
X98366666Y-80613994D02*
X98147619Y-80528280D01*
X101214285Y-79413994D02*
X101214285Y-80613994D01*
X100228571Y-79413994D02*
X100228571Y-80356851D01*
X100228571Y-80356851D02*
X100338094Y-80528280D01*
X100338094Y-80528280D02*
X100557142Y-80613994D01*
X100557142Y-80613994D02*
X100885713Y-80613994D01*
X100885713Y-80613994D02*
X101104761Y-80528280D01*
X101104761Y-80528280D02*
X101214285Y-80442565D01*
X101980951Y-79413994D02*
X102857142Y-79413994D01*
X102309523Y-78813994D02*
X102309523Y-80356851D01*
X102309523Y-80356851D02*
X102419046Y-80528280D01*
X102419046Y-80528280D02*
X102638094Y-80613994D01*
X102638094Y-80613994D02*
X102857142Y-80613994D01*
X60313994Y-84913095D02*
X59456851Y-85679761D01*
X60313994Y-86227380D02*
X58513994Y-86227380D01*
X58513994Y-86227380D02*
X58513994Y-85351190D01*
X58513994Y-85351190D02*
X58599708Y-85132142D01*
X58599708Y-85132142D02*
X58685422Y-85022619D01*
X58685422Y-85022619D02*
X58856851Y-84913095D01*
X58856851Y-84913095D02*
X59113994Y-84913095D01*
X59113994Y-84913095D02*
X59285422Y-85022619D01*
X59285422Y-85022619D02*
X59371137Y-85132142D01*
X59371137Y-85132142D02*
X59456851Y-85351190D01*
X59456851Y-85351190D02*
X59456851Y-86227380D01*
X58513994Y-82941666D02*
X58513994Y-83379761D01*
X58513994Y-83379761D02*
X58599708Y-83598809D01*
X58599708Y-83598809D02*
X58685422Y-83708333D01*
X58685422Y-83708333D02*
X58942565Y-83927380D01*
X58942565Y-83927380D02*
X59285422Y-84036904D01*
X59285422Y-84036904D02*
X59971137Y-84036904D01*
X59971137Y-84036904D02*
X60142565Y-83927380D01*
X60142565Y-83927380D02*
X60228280Y-83817857D01*
X60228280Y-83817857D02*
X60313994Y-83598809D01*
X60313994Y-83598809D02*
X60313994Y-83160714D01*
X60313994Y-83160714D02*
X60228280Y-82941666D01*
X60228280Y-82941666D02*
X60142565Y-82832142D01*
X60142565Y-82832142D02*
X59971137Y-82722619D01*
X59971137Y-82722619D02*
X59542565Y-82722619D01*
X59542565Y-82722619D02*
X59371137Y-82832142D01*
X59371137Y-82832142D02*
X59285422Y-82941666D01*
X59285422Y-82941666D02*
X59199708Y-83160714D01*
X59199708Y-83160714D02*
X59199708Y-83598809D01*
X59199708Y-83598809D02*
X59285422Y-83817857D01*
X59285422Y-83817857D02*
X59371137Y-83927380D01*
X59371137Y-83927380D02*
X59542565Y-84036904D01*
X90287619Y-72307565D02*
X90178095Y-72393280D01*
X90178095Y-72393280D02*
X89849524Y-72478994D01*
X89849524Y-72478994D02*
X89630476Y-72478994D01*
X89630476Y-72478994D02*
X89301905Y-72393280D01*
X89301905Y-72393280D02*
X89082857Y-72221851D01*
X89082857Y-72221851D02*
X88973334Y-72050422D01*
X88973334Y-72050422D02*
X88863810Y-71707565D01*
X88863810Y-71707565D02*
X88863810Y-71450422D01*
X88863810Y-71450422D02*
X88973334Y-71107565D01*
X88973334Y-71107565D02*
X89082857Y-70936137D01*
X89082857Y-70936137D02*
X89301905Y-70764708D01*
X89301905Y-70764708D02*
X89630476Y-70678994D01*
X89630476Y-70678994D02*
X89849524Y-70678994D01*
X89849524Y-70678994D02*
X90178095Y-70764708D01*
X90178095Y-70764708D02*
X90287619Y-70850422D01*
X91601905Y-72478994D02*
X91382857Y-72393280D01*
X91382857Y-72393280D02*
X91273334Y-72307565D01*
X91273334Y-72307565D02*
X91163810Y-72136137D01*
X91163810Y-72136137D02*
X91163810Y-71621851D01*
X91163810Y-71621851D02*
X91273334Y-71450422D01*
X91273334Y-71450422D02*
X91382857Y-71364708D01*
X91382857Y-71364708D02*
X91601905Y-71278994D01*
X91601905Y-71278994D02*
X91930476Y-71278994D01*
X91930476Y-71278994D02*
X92149524Y-71364708D01*
X92149524Y-71364708D02*
X92259048Y-71450422D01*
X92259048Y-71450422D02*
X92368572Y-71621851D01*
X92368572Y-71621851D02*
X92368572Y-72136137D01*
X92368572Y-72136137D02*
X92259048Y-72307565D01*
X92259048Y-72307565D02*
X92149524Y-72393280D01*
X92149524Y-72393280D02*
X91930476Y-72478994D01*
X91930476Y-72478994D02*
X91601905Y-72478994D01*
X93354286Y-72478994D02*
X93354286Y-71278994D01*
X93354286Y-71450422D02*
X93463809Y-71364708D01*
X93463809Y-71364708D02*
X93682857Y-71278994D01*
X93682857Y-71278994D02*
X94011428Y-71278994D01*
X94011428Y-71278994D02*
X94230476Y-71364708D01*
X94230476Y-71364708D02*
X94340000Y-71536137D01*
X94340000Y-71536137D02*
X94340000Y-72478994D01*
X94340000Y-71536137D02*
X94449524Y-71364708D01*
X94449524Y-71364708D02*
X94668571Y-71278994D01*
X94668571Y-71278994D02*
X94997143Y-71278994D01*
X94997143Y-71278994D02*
X95216190Y-71364708D01*
X95216190Y-71364708D02*
X95325714Y-71536137D01*
X95325714Y-71536137D02*
X95325714Y-72478994D01*
X96420953Y-71278994D02*
X96420953Y-73078994D01*
X96420953Y-71364708D02*
X96640000Y-71278994D01*
X96640000Y-71278994D02*
X97078095Y-71278994D01*
X97078095Y-71278994D02*
X97297143Y-71364708D01*
X97297143Y-71364708D02*
X97406667Y-71450422D01*
X97406667Y-71450422D02*
X97516191Y-71621851D01*
X97516191Y-71621851D02*
X97516191Y-72136137D01*
X97516191Y-72136137D02*
X97406667Y-72307565D01*
X97406667Y-72307565D02*
X97297143Y-72393280D01*
X97297143Y-72393280D02*
X97078095Y-72478994D01*
X97078095Y-72478994D02*
X96640000Y-72478994D01*
X96640000Y-72478994D02*
X96420953Y-72393280D01*
X69178994Y-87103571D02*
X68321851Y-87870237D01*
X69178994Y-88417856D02*
X67378994Y-88417856D01*
X67378994Y-88417856D02*
X67378994Y-87541666D01*
X67378994Y-87541666D02*
X67464708Y-87322618D01*
X67464708Y-87322618D02*
X67550422Y-87213095D01*
X67550422Y-87213095D02*
X67721851Y-87103571D01*
X67721851Y-87103571D02*
X67978994Y-87103571D01*
X67978994Y-87103571D02*
X68150422Y-87213095D01*
X68150422Y-87213095D02*
X68236137Y-87322618D01*
X68236137Y-87322618D02*
X68321851Y-87541666D01*
X68321851Y-87541666D02*
X68321851Y-88417856D01*
X69178994Y-84913095D02*
X69178994Y-86227380D01*
X69178994Y-85570237D02*
X67378994Y-85570237D01*
X67378994Y-85570237D02*
X67636137Y-85789285D01*
X67636137Y-85789285D02*
X67807565Y-86008333D01*
X67807565Y-86008333D02*
X67893280Y-86227380D01*
X67378994Y-83489285D02*
X67378994Y-83270238D01*
X67378994Y-83270238D02*
X67464708Y-83051190D01*
X67464708Y-83051190D02*
X67550422Y-82941666D01*
X67550422Y-82941666D02*
X67721851Y-82832142D01*
X67721851Y-82832142D02*
X68064708Y-82722619D01*
X68064708Y-82722619D02*
X68493280Y-82722619D01*
X68493280Y-82722619D02*
X68836137Y-82832142D01*
X68836137Y-82832142D02*
X69007565Y-82941666D01*
X69007565Y-82941666D02*
X69093280Y-83051190D01*
X69093280Y-83051190D02*
X69178994Y-83270238D01*
X69178994Y-83270238D02*
X69178994Y-83489285D01*
X69178994Y-83489285D02*
X69093280Y-83708333D01*
X69093280Y-83708333D02*
X69007565Y-83817857D01*
X69007565Y-83817857D02*
X68836137Y-83927380D01*
X68836137Y-83927380D02*
X68493280Y-84036904D01*
X68493280Y-84036904D02*
X68064708Y-84036904D01*
X68064708Y-84036904D02*
X67721851Y-83927380D01*
X67721851Y-83927380D02*
X67550422Y-83817857D01*
X67550422Y-83817857D02*
X67464708Y-83708333D01*
X67464708Y-83708333D02*
X67378994Y-83489285D01*
D13*
X98446666Y-89294240D02*
X98405714Y-89335193D01*
X98405714Y-89335193D02*
X98282856Y-89376145D01*
X98282856Y-89376145D02*
X98200952Y-89376145D01*
X98200952Y-89376145D02*
X98078095Y-89335193D01*
X98078095Y-89335193D02*
X97996190Y-89253288D01*
X97996190Y-89253288D02*
X97955237Y-89171383D01*
X97955237Y-89171383D02*
X97914285Y-89007573D01*
X97914285Y-89007573D02*
X97914285Y-88884716D01*
X97914285Y-88884716D02*
X97955237Y-88720907D01*
X97955237Y-88720907D02*
X97996190Y-88639002D01*
X97996190Y-88639002D02*
X98078095Y-88557097D01*
X98078095Y-88557097D02*
X98200952Y-88516145D01*
X98200952Y-88516145D02*
X98282856Y-88516145D01*
X98282856Y-88516145D02*
X98405714Y-88557097D01*
X98405714Y-88557097D02*
X98446666Y-88598050D01*
X99183809Y-88802812D02*
X99183809Y-89376145D01*
X98979047Y-88475193D02*
X98774285Y-89089478D01*
X98774285Y-89089478D02*
X99306666Y-89089478D01*
D11*
X111760119Y-82631470D02*
X110993453Y-81869565D01*
X110445834Y-82631470D02*
X110445834Y-81031470D01*
X110445834Y-81031470D02*
X111322024Y-81031470D01*
X111322024Y-81031470D02*
X111541072Y-81107660D01*
X111541072Y-81107660D02*
X111650595Y-81183851D01*
X111650595Y-81183851D02*
X111760119Y-81336232D01*
X111760119Y-81336232D02*
X111760119Y-81564803D01*
X111760119Y-81564803D02*
X111650595Y-81717184D01*
X111650595Y-81717184D02*
X111541072Y-81793375D01*
X111541072Y-81793375D02*
X111322024Y-81869565D01*
X111322024Y-81869565D02*
X110445834Y-81869565D01*
X113950595Y-81107660D02*
X113731548Y-81031470D01*
X113731548Y-81031470D02*
X113402976Y-81031470D01*
X113402976Y-81031470D02*
X113074405Y-81107660D01*
X113074405Y-81107660D02*
X112855357Y-81260041D01*
X112855357Y-81260041D02*
X112745834Y-81412422D01*
X112745834Y-81412422D02*
X112636310Y-81717184D01*
X112636310Y-81717184D02*
X112636310Y-81945756D01*
X112636310Y-81945756D02*
X112745834Y-82250518D01*
X112745834Y-82250518D02*
X112855357Y-82402899D01*
X112855357Y-82402899D02*
X113074405Y-82555280D01*
X113074405Y-82555280D02*
X113402976Y-82631470D01*
X113402976Y-82631470D02*
X113622024Y-82631470D01*
X113622024Y-82631470D02*
X113950595Y-82555280D01*
X113950595Y-82555280D02*
X114060119Y-82479089D01*
X114060119Y-82479089D02*
X114060119Y-81945756D01*
X114060119Y-81945756D02*
X113622024Y-81945756D01*
X115812500Y-81793375D02*
X116141072Y-81869565D01*
X116141072Y-81869565D02*
X116250595Y-81945756D01*
X116250595Y-81945756D02*
X116360119Y-82098137D01*
X116360119Y-82098137D02*
X116360119Y-82326708D01*
X116360119Y-82326708D02*
X116250595Y-82479089D01*
X116250595Y-82479089D02*
X116141072Y-82555280D01*
X116141072Y-82555280D02*
X115922024Y-82631470D01*
X115922024Y-82631470D02*
X115045834Y-82631470D01*
X115045834Y-82631470D02*
X115045834Y-81031470D01*
X115045834Y-81031470D02*
X115812500Y-81031470D01*
X115812500Y-81031470D02*
X116031548Y-81107660D01*
X116031548Y-81107660D02*
X116141072Y-81183851D01*
X116141072Y-81183851D02*
X116250595Y-81336232D01*
X116250595Y-81336232D02*
X116250595Y-81488613D01*
X116250595Y-81488613D02*
X116141072Y-81640994D01*
X116141072Y-81640994D02*
X116031548Y-81717184D01*
X116031548Y-81717184D02*
X115812500Y-81793375D01*
X115812500Y-81793375D02*
X115045834Y-81793375D01*
X117017262Y-81564803D02*
X117893453Y-81564803D01*
X117345834Y-81031470D02*
X117345834Y-82402899D01*
X117345834Y-82402899D02*
X117455357Y-82555280D01*
X117455357Y-82555280D02*
X117674405Y-82631470D01*
X117674405Y-82631470D02*
X117893453Y-82631470D01*
X118988691Y-82631470D02*
X118769643Y-82555280D01*
X118769643Y-82555280D02*
X118660120Y-82479089D01*
X118660120Y-82479089D02*
X118550596Y-82326708D01*
X118550596Y-82326708D02*
X118550596Y-81869565D01*
X118550596Y-81869565D02*
X118660120Y-81717184D01*
X118660120Y-81717184D02*
X118769643Y-81640994D01*
X118769643Y-81640994D02*
X118988691Y-81564803D01*
X118988691Y-81564803D02*
X119317262Y-81564803D01*
X119317262Y-81564803D02*
X119536310Y-81640994D01*
X119536310Y-81640994D02*
X119645834Y-81717184D01*
X119645834Y-81717184D02*
X119755358Y-81869565D01*
X119755358Y-81869565D02*
X119755358Y-82326708D01*
X119755358Y-82326708D02*
X119645834Y-82479089D01*
X119645834Y-82479089D02*
X119536310Y-82555280D01*
X119536310Y-82555280D02*
X119317262Y-82631470D01*
X119317262Y-82631470D02*
X118988691Y-82631470D01*
X120741072Y-82631470D02*
X120741072Y-81031470D01*
X120741072Y-81793375D02*
X122055357Y-81793375D01*
X122055357Y-82631470D02*
X122055357Y-81031470D01*
X123150596Y-82631470D02*
X123150596Y-81031470D01*
X123150596Y-81031470D02*
X123698215Y-81031470D01*
X123698215Y-81031470D02*
X124026786Y-81107660D01*
X124026786Y-81107660D02*
X124245834Y-81260041D01*
X124245834Y-81260041D02*
X124355357Y-81412422D01*
X124355357Y-81412422D02*
X124464881Y-81717184D01*
X124464881Y-81717184D02*
X124464881Y-81945756D01*
X124464881Y-81945756D02*
X124355357Y-82250518D01*
X124355357Y-82250518D02*
X124245834Y-82402899D01*
X124245834Y-82402899D02*
X124026786Y-82555280D01*
X124026786Y-82555280D02*
X123698215Y-82631470D01*
X123698215Y-82631470D02*
X123150596Y-82631470D01*
X125450596Y-82631470D02*
X125450596Y-81031470D01*
X125450596Y-81031470D02*
X126217262Y-82174327D01*
X126217262Y-82174327D02*
X126983929Y-81031470D01*
X126983929Y-81031470D02*
X126983929Y-82631470D01*
X128079167Y-82631470D02*
X128079167Y-81031470D01*
X114547143Y-72148994D02*
X114985239Y-72148994D01*
X114985239Y-72148994D02*
X115204286Y-72063280D01*
X115204286Y-72063280D02*
X115313810Y-71977565D01*
X115313810Y-71977565D02*
X115532858Y-71720422D01*
X115532858Y-71720422D02*
X115642381Y-71377565D01*
X115642381Y-71377565D02*
X115642381Y-70691851D01*
X115642381Y-70691851D02*
X115532858Y-70520422D01*
X115532858Y-70520422D02*
X115423334Y-70434708D01*
X115423334Y-70434708D02*
X115204286Y-70348994D01*
X115204286Y-70348994D02*
X114766191Y-70348994D01*
X114766191Y-70348994D02*
X114547143Y-70434708D01*
X114547143Y-70434708D02*
X114437620Y-70520422D01*
X114437620Y-70520422D02*
X114328096Y-70691851D01*
X114328096Y-70691851D02*
X114328096Y-71120422D01*
X114328096Y-71120422D02*
X114437620Y-71291851D01*
X114437620Y-71291851D02*
X114547143Y-71377565D01*
X114547143Y-71377565D02*
X114766191Y-71463280D01*
X114766191Y-71463280D02*
X115204286Y-71463280D01*
X115204286Y-71463280D02*
X115423334Y-71377565D01*
X115423334Y-71377565D02*
X115532858Y-71291851D01*
X115532858Y-71291851D02*
X115642381Y-71120422D01*
X118380477Y-70948994D02*
X118380477Y-72748994D01*
X118380477Y-71034708D02*
X118599524Y-70948994D01*
X118599524Y-70948994D02*
X119037619Y-70948994D01*
X119037619Y-70948994D02*
X119256667Y-71034708D01*
X119256667Y-71034708D02*
X119366191Y-71120422D01*
X119366191Y-71120422D02*
X119475715Y-71291851D01*
X119475715Y-71291851D02*
X119475715Y-71806137D01*
X119475715Y-71806137D02*
X119366191Y-71977565D01*
X119366191Y-71977565D02*
X119256667Y-72063280D01*
X119256667Y-72063280D02*
X119037619Y-72148994D01*
X119037619Y-72148994D02*
X118599524Y-72148994D01*
X118599524Y-72148994D02*
X118380477Y-72063280D01*
X120461429Y-72148994D02*
X120461429Y-70948994D01*
X120461429Y-70348994D02*
X120351905Y-70434708D01*
X120351905Y-70434708D02*
X120461429Y-70520422D01*
X120461429Y-70520422D02*
X120570952Y-70434708D01*
X120570952Y-70434708D02*
X120461429Y-70348994D01*
X120461429Y-70348994D02*
X120461429Y-70520422D01*
X121556667Y-70948994D02*
X121556667Y-72148994D01*
X121556667Y-71120422D02*
X121666190Y-71034708D01*
X121666190Y-71034708D02*
X121885238Y-70948994D01*
X121885238Y-70948994D02*
X122213809Y-70948994D01*
X122213809Y-70948994D02*
X122432857Y-71034708D01*
X122432857Y-71034708D02*
X122542381Y-71206137D01*
X122542381Y-71206137D02*
X122542381Y-72148994D01*
X111598994Y-105293333D02*
X110741851Y-106059999D01*
X111598994Y-106607618D02*
X109798994Y-106607618D01*
X109798994Y-106607618D02*
X109798994Y-105731428D01*
X109798994Y-105731428D02*
X109884708Y-105512380D01*
X109884708Y-105512380D02*
X109970422Y-105402857D01*
X109970422Y-105402857D02*
X110141851Y-105293333D01*
X110141851Y-105293333D02*
X110398994Y-105293333D01*
X110398994Y-105293333D02*
X110570422Y-105402857D01*
X110570422Y-105402857D02*
X110656137Y-105512380D01*
X110656137Y-105512380D02*
X110741851Y-105731428D01*
X110741851Y-105731428D02*
X110741851Y-106607618D01*
X111598994Y-103102857D02*
X111598994Y-104417142D01*
X111598994Y-103759999D02*
X109798994Y-103759999D01*
X109798994Y-103759999D02*
X110056137Y-103979047D01*
X110056137Y-103979047D02*
X110227565Y-104198095D01*
X110227565Y-104198095D02*
X110313280Y-104417142D01*
X83658994Y-84913095D02*
X82801851Y-85679761D01*
X83658994Y-86227380D02*
X81858994Y-86227380D01*
X81858994Y-86227380D02*
X81858994Y-85351190D01*
X81858994Y-85351190D02*
X81944708Y-85132142D01*
X81944708Y-85132142D02*
X82030422Y-85022619D01*
X82030422Y-85022619D02*
X82201851Y-84913095D01*
X82201851Y-84913095D02*
X82458994Y-84913095D01*
X82458994Y-84913095D02*
X82630422Y-85022619D01*
X82630422Y-85022619D02*
X82716137Y-85132142D01*
X82716137Y-85132142D02*
X82801851Y-85351190D01*
X82801851Y-85351190D02*
X82801851Y-86227380D01*
X83658994Y-83817857D02*
X83658994Y-83379761D01*
X83658994Y-83379761D02*
X83573280Y-83160714D01*
X83573280Y-83160714D02*
X83487565Y-83051190D01*
X83487565Y-83051190D02*
X83230422Y-82832142D01*
X83230422Y-82832142D02*
X82887565Y-82722619D01*
X82887565Y-82722619D02*
X82201851Y-82722619D01*
X82201851Y-82722619D02*
X82030422Y-82832142D01*
X82030422Y-82832142D02*
X81944708Y-82941666D01*
X81944708Y-82941666D02*
X81858994Y-83160714D01*
X81858994Y-83160714D02*
X81858994Y-83598809D01*
X81858994Y-83598809D02*
X81944708Y-83817857D01*
X81944708Y-83817857D02*
X82030422Y-83927380D01*
X82030422Y-83927380D02*
X82201851Y-84036904D01*
X82201851Y-84036904D02*
X82630422Y-84036904D01*
X82630422Y-84036904D02*
X82801851Y-83927380D01*
X82801851Y-83927380D02*
X82887565Y-83817857D01*
X82887565Y-83817857D02*
X82973280Y-83598809D01*
X82973280Y-83598809D02*
X82973280Y-83160714D01*
X82973280Y-83160714D02*
X82887565Y-82941666D01*
X82887565Y-82941666D02*
X82801851Y-82832142D01*
X82801851Y-82832142D02*
X82630422Y-82722619D01*
X114225119Y-100423994D02*
X114225119Y-101881137D01*
X114225119Y-101881137D02*
X114334642Y-102052565D01*
X114334642Y-102052565D02*
X114444166Y-102138280D01*
X114444166Y-102138280D02*
X114663214Y-102223994D01*
X114663214Y-102223994D02*
X115101309Y-102223994D01*
X115101309Y-102223994D02*
X115320357Y-102138280D01*
X115320357Y-102138280D02*
X115429880Y-102052565D01*
X115429880Y-102052565D02*
X115539404Y-101881137D01*
X115539404Y-101881137D02*
X115539404Y-100423994D01*
X117839404Y-102223994D02*
X116525119Y-102223994D01*
X117182262Y-102223994D02*
X117182262Y-100423994D01*
X117182262Y-100423994D02*
X116963214Y-100681137D01*
X116963214Y-100681137D02*
X116744166Y-100852565D01*
X116744166Y-100852565D02*
X116525119Y-100938280D01*
X117403691Y-94373994D02*
X118937024Y-94373994D01*
X118937024Y-94373994D02*
X117951310Y-96173994D01*
X120798929Y-94973994D02*
X120798929Y-96173994D01*
X120251310Y-94288280D02*
X119703691Y-95573994D01*
X119703691Y-95573994D02*
X121127500Y-95573994D01*
X123098929Y-96173994D02*
X122003691Y-96173994D01*
X122003691Y-96173994D02*
X122003691Y-94373994D01*
X123756072Y-96088280D02*
X124084643Y-96173994D01*
X124084643Y-96173994D02*
X124632262Y-96173994D01*
X124632262Y-96173994D02*
X124851310Y-96088280D01*
X124851310Y-96088280D02*
X124960834Y-96002565D01*
X124960834Y-96002565D02*
X125070357Y-95831137D01*
X125070357Y-95831137D02*
X125070357Y-95659708D01*
X125070357Y-95659708D02*
X124960834Y-95488280D01*
X124960834Y-95488280D02*
X124851310Y-95402565D01*
X124851310Y-95402565D02*
X124632262Y-95316851D01*
X124632262Y-95316851D02*
X124194167Y-95231137D01*
X124194167Y-95231137D02*
X123975119Y-95145422D01*
X123975119Y-95145422D02*
X123865596Y-95059708D01*
X123865596Y-95059708D02*
X123756072Y-94888280D01*
X123756072Y-94888280D02*
X123756072Y-94716851D01*
X123756072Y-94716851D02*
X123865596Y-94545422D01*
X123865596Y-94545422D02*
X123975119Y-94459708D01*
X123975119Y-94459708D02*
X124194167Y-94373994D01*
X124194167Y-94373994D02*
X124741786Y-94373994D01*
X124741786Y-94373994D02*
X125070357Y-94459708D01*
X127260833Y-96173994D02*
X125946548Y-96173994D01*
X126603691Y-96173994D02*
X126603691Y-94373994D01*
X126603691Y-94373994D02*
X126384643Y-94631137D01*
X126384643Y-94631137D02*
X126165595Y-94802565D01*
X126165595Y-94802565D02*
X125946548Y-94888280D01*
X128137024Y-94545422D02*
X128246548Y-94459708D01*
X128246548Y-94459708D02*
X128465595Y-94373994D01*
X128465595Y-94373994D02*
X129013214Y-94373994D01*
X129013214Y-94373994D02*
X129232262Y-94459708D01*
X129232262Y-94459708D02*
X129341786Y-94545422D01*
X129341786Y-94545422D02*
X129451309Y-94716851D01*
X129451309Y-94716851D02*
X129451309Y-94888280D01*
X129451309Y-94888280D02*
X129341786Y-95145422D01*
X129341786Y-95145422D02*
X128027500Y-96173994D01*
X128027500Y-96173994D02*
X129451309Y-96173994D01*
X130217976Y-94373994D02*
X131641785Y-94373994D01*
X131641785Y-94373994D02*
X130875119Y-95059708D01*
X130875119Y-95059708D02*
X131203690Y-95059708D01*
X131203690Y-95059708D02*
X131422738Y-95145422D01*
X131422738Y-95145422D02*
X131532262Y-95231137D01*
X131532262Y-95231137D02*
X131641785Y-95402565D01*
X131641785Y-95402565D02*
X131641785Y-95831137D01*
X131641785Y-95831137D02*
X131532262Y-96002565D01*
X131532262Y-96002565D02*
X131422738Y-96088280D01*
X131422738Y-96088280D02*
X131203690Y-96173994D01*
X131203690Y-96173994D02*
X130546547Y-96173994D01*
X130546547Y-96173994D02*
X130327500Y-96088280D01*
X130327500Y-96088280D02*
X130217976Y-96002565D01*
D13*
X127506666Y-89294240D02*
X127465714Y-89335193D01*
X127465714Y-89335193D02*
X127342856Y-89376145D01*
X127342856Y-89376145D02*
X127260952Y-89376145D01*
X127260952Y-89376145D02*
X127138095Y-89335193D01*
X127138095Y-89335193D02*
X127056190Y-89253288D01*
X127056190Y-89253288D02*
X127015237Y-89171383D01*
X127015237Y-89171383D02*
X126974285Y-89007573D01*
X126974285Y-89007573D02*
X126974285Y-88884716D01*
X126974285Y-88884716D02*
X127015237Y-88720907D01*
X127015237Y-88720907D02*
X127056190Y-88639002D01*
X127056190Y-88639002D02*
X127138095Y-88557097D01*
X127138095Y-88557097D02*
X127260952Y-88516145D01*
X127260952Y-88516145D02*
X127342856Y-88516145D01*
X127342856Y-88516145D02*
X127465714Y-88557097D01*
X127465714Y-88557097D02*
X127506666Y-88598050D01*
X127834285Y-88598050D02*
X127875237Y-88557097D01*
X127875237Y-88557097D02*
X127957142Y-88516145D01*
X127957142Y-88516145D02*
X128161904Y-88516145D01*
X128161904Y-88516145D02*
X128243809Y-88557097D01*
X128243809Y-88557097D02*
X128284761Y-88598050D01*
X128284761Y-88598050D02*
X128325714Y-88679954D01*
X128325714Y-88679954D02*
X128325714Y-88761859D01*
X128325714Y-88761859D02*
X128284761Y-88884716D01*
X128284761Y-88884716D02*
X127793333Y-89376145D01*
X127793333Y-89376145D02*
X128325714Y-89376145D01*
D11*
X75086428Y-105473994D02*
X74319762Y-104616851D01*
X73772143Y-105473994D02*
X73772143Y-103673994D01*
X73772143Y-103673994D02*
X74648333Y-103673994D01*
X74648333Y-103673994D02*
X74867381Y-103759708D01*
X74867381Y-103759708D02*
X74976904Y-103845422D01*
X74976904Y-103845422D02*
X75086428Y-104016851D01*
X75086428Y-104016851D02*
X75086428Y-104273994D01*
X75086428Y-104273994D02*
X74976904Y-104445422D01*
X74976904Y-104445422D02*
X74867381Y-104531137D01*
X74867381Y-104531137D02*
X74648333Y-104616851D01*
X74648333Y-104616851D02*
X73772143Y-104616851D01*
X77167381Y-103673994D02*
X76072143Y-103673994D01*
X76072143Y-103673994D02*
X75962619Y-104531137D01*
X75962619Y-104531137D02*
X76072143Y-104445422D01*
X76072143Y-104445422D02*
X76291190Y-104359708D01*
X76291190Y-104359708D02*
X76838809Y-104359708D01*
X76838809Y-104359708D02*
X77057857Y-104445422D01*
X77057857Y-104445422D02*
X77167381Y-104531137D01*
X77167381Y-104531137D02*
X77276904Y-104702565D01*
X77276904Y-104702565D02*
X77276904Y-105131137D01*
X77276904Y-105131137D02*
X77167381Y-105302565D01*
X77167381Y-105302565D02*
X77057857Y-105388280D01*
X77057857Y-105388280D02*
X76838809Y-105473994D01*
X76838809Y-105473994D02*
X76291190Y-105473994D01*
X76291190Y-105473994D02*
X76072143Y-105388280D01*
X76072143Y-105388280D02*
X75962619Y-105302565D01*
X82448994Y-105343333D02*
X81591851Y-106109999D01*
X82448994Y-106657618D02*
X80648994Y-106657618D01*
X80648994Y-106657618D02*
X80648994Y-105781428D01*
X80648994Y-105781428D02*
X80734708Y-105562380D01*
X80734708Y-105562380D02*
X80820422Y-105452857D01*
X80820422Y-105452857D02*
X80991851Y-105343333D01*
X80991851Y-105343333D02*
X81248994Y-105343333D01*
X81248994Y-105343333D02*
X81420422Y-105452857D01*
X81420422Y-105452857D02*
X81506137Y-105562380D01*
X81506137Y-105562380D02*
X81591851Y-105781428D01*
X81591851Y-105781428D02*
X81591851Y-106657618D01*
X80648994Y-104576666D02*
X80648994Y-103152857D01*
X80648994Y-103152857D02*
X81334708Y-103919523D01*
X81334708Y-103919523D02*
X81334708Y-103590952D01*
X81334708Y-103590952D02*
X81420422Y-103371904D01*
X81420422Y-103371904D02*
X81506137Y-103262380D01*
X81506137Y-103262380D02*
X81677565Y-103152857D01*
X81677565Y-103152857D02*
X82106137Y-103152857D01*
X82106137Y-103152857D02*
X82277565Y-103262380D01*
X82277565Y-103262380D02*
X82363280Y-103371904D01*
X82363280Y-103371904D02*
X82448994Y-103590952D01*
X82448994Y-103590952D02*
X82448994Y-104248095D01*
X82448994Y-104248095D02*
X82363280Y-104467142D01*
X82363280Y-104467142D02*
X82277565Y-104576666D01*
X119271666Y-86498994D02*
X118505000Y-85641851D01*
X117957381Y-86498994D02*
X117957381Y-84698994D01*
X117957381Y-84698994D02*
X118833571Y-84698994D01*
X118833571Y-84698994D02*
X119052619Y-84784708D01*
X119052619Y-84784708D02*
X119162142Y-84870422D01*
X119162142Y-84870422D02*
X119271666Y-85041851D01*
X119271666Y-85041851D02*
X119271666Y-85298994D01*
X119271666Y-85298994D02*
X119162142Y-85470422D01*
X119162142Y-85470422D02*
X119052619Y-85556137D01*
X119052619Y-85556137D02*
X118833571Y-85641851D01*
X118833571Y-85641851D02*
X117957381Y-85641851D01*
X120147857Y-84870422D02*
X120257381Y-84784708D01*
X120257381Y-84784708D02*
X120476428Y-84698994D01*
X120476428Y-84698994D02*
X121024047Y-84698994D01*
X121024047Y-84698994D02*
X121243095Y-84784708D01*
X121243095Y-84784708D02*
X121352619Y-84870422D01*
X121352619Y-84870422D02*
X121462142Y-85041851D01*
X121462142Y-85041851D02*
X121462142Y-85213280D01*
X121462142Y-85213280D02*
X121352619Y-85470422D01*
X121352619Y-85470422D02*
X120038333Y-86498994D01*
X120038333Y-86498994D02*
X121462142Y-86498994D01*
X79848994Y-87103571D02*
X78991851Y-87870237D01*
X79848994Y-88417856D02*
X78048994Y-88417856D01*
X78048994Y-88417856D02*
X78048994Y-87541666D01*
X78048994Y-87541666D02*
X78134708Y-87322618D01*
X78134708Y-87322618D02*
X78220422Y-87213095D01*
X78220422Y-87213095D02*
X78391851Y-87103571D01*
X78391851Y-87103571D02*
X78648994Y-87103571D01*
X78648994Y-87103571D02*
X78820422Y-87213095D01*
X78820422Y-87213095D02*
X78906137Y-87322618D01*
X78906137Y-87322618D02*
X78991851Y-87541666D01*
X78991851Y-87541666D02*
X78991851Y-88417856D01*
X79848994Y-84913095D02*
X79848994Y-86227380D01*
X79848994Y-85570237D02*
X78048994Y-85570237D01*
X78048994Y-85570237D02*
X78306137Y-85789285D01*
X78306137Y-85789285D02*
X78477565Y-86008333D01*
X78477565Y-86008333D02*
X78563280Y-86227380D01*
X79848994Y-82722619D02*
X79848994Y-84036904D01*
X79848994Y-83379761D02*
X78048994Y-83379761D01*
X78048994Y-83379761D02*
X78306137Y-83598809D01*
X78306137Y-83598809D02*
X78477565Y-83817857D01*
X78477565Y-83817857D02*
X78563280Y-84036904D01*
X74515829Y-85668095D02*
X74601544Y-85777619D01*
X74601544Y-85777619D02*
X74687258Y-86106190D01*
X74687258Y-86106190D02*
X74687258Y-86325238D01*
X74687258Y-86325238D02*
X74601544Y-86653809D01*
X74601544Y-86653809D02*
X74430115Y-86872857D01*
X74430115Y-86872857D02*
X74258686Y-86982380D01*
X74258686Y-86982380D02*
X73915829Y-87091904D01*
X73915829Y-87091904D02*
X73658686Y-87091904D01*
X73658686Y-87091904D02*
X73315829Y-86982380D01*
X73315829Y-86982380D02*
X73144401Y-86872857D01*
X73144401Y-86872857D02*
X72972972Y-86653809D01*
X72972972Y-86653809D02*
X72887258Y-86325238D01*
X72887258Y-86325238D02*
X72887258Y-86106190D01*
X72887258Y-86106190D02*
X72972972Y-85777619D01*
X72972972Y-85777619D02*
X73058686Y-85668095D01*
X73658686Y-84353809D02*
X73572972Y-84572857D01*
X73572972Y-84572857D02*
X73487258Y-84682380D01*
X73487258Y-84682380D02*
X73315829Y-84791904D01*
X73315829Y-84791904D02*
X73230115Y-84791904D01*
X73230115Y-84791904D02*
X73058686Y-84682380D01*
X73058686Y-84682380D02*
X72972972Y-84572857D01*
X72972972Y-84572857D02*
X72887258Y-84353809D01*
X72887258Y-84353809D02*
X72887258Y-83915714D01*
X72887258Y-83915714D02*
X72972972Y-83696666D01*
X72972972Y-83696666D02*
X73058686Y-83587142D01*
X73058686Y-83587142D02*
X73230115Y-83477619D01*
X73230115Y-83477619D02*
X73315829Y-83477619D01*
X73315829Y-83477619D02*
X73487258Y-83587142D01*
X73487258Y-83587142D02*
X73572972Y-83696666D01*
X73572972Y-83696666D02*
X73658686Y-83915714D01*
X73658686Y-83915714D02*
X73658686Y-84353809D01*
X73658686Y-84353809D02*
X73744401Y-84572857D01*
X73744401Y-84572857D02*
X73830115Y-84682380D01*
X73830115Y-84682380D02*
X74001544Y-84791904D01*
X74001544Y-84791904D02*
X74344401Y-84791904D01*
X74344401Y-84791904D02*
X74515829Y-84682380D01*
X74515829Y-84682380D02*
X74601544Y-84572857D01*
X74601544Y-84572857D02*
X74687258Y-84353809D01*
X74687258Y-84353809D02*
X74687258Y-83915714D01*
X74687258Y-83915714D02*
X74601544Y-83696666D01*
X74601544Y-83696666D02*
X74515829Y-83587142D01*
X74515829Y-83587142D02*
X74344401Y-83477619D01*
X74344401Y-83477619D02*
X74001544Y-83477619D01*
X74001544Y-83477619D02*
X73830115Y-83587142D01*
X73830115Y-83587142D02*
X73744401Y-83696666D01*
X73744401Y-83696666D02*
X73658686Y-83915714D01*
D10*
X75564347Y-66817533D02*
X77088157Y-66817533D01*
X76326252Y-67579438D02*
X76326252Y-66055628D01*
D13*
X90826666Y-89294240D02*
X90785714Y-89335193D01*
X90785714Y-89335193D02*
X90662856Y-89376145D01*
X90662856Y-89376145D02*
X90580952Y-89376145D01*
X90580952Y-89376145D02*
X90458095Y-89335193D01*
X90458095Y-89335193D02*
X90376190Y-89253288D01*
X90376190Y-89253288D02*
X90335237Y-89171383D01*
X90335237Y-89171383D02*
X90294285Y-89007573D01*
X90294285Y-89007573D02*
X90294285Y-88884716D01*
X90294285Y-88884716D02*
X90335237Y-88720907D01*
X90335237Y-88720907D02*
X90376190Y-88639002D01*
X90376190Y-88639002D02*
X90458095Y-88557097D01*
X90458095Y-88557097D02*
X90580952Y-88516145D01*
X90580952Y-88516145D02*
X90662856Y-88516145D01*
X90662856Y-88516145D02*
X90785714Y-88557097D01*
X90785714Y-88557097D02*
X90826666Y-88598050D01*
X91113333Y-88516145D02*
X91645714Y-88516145D01*
X91645714Y-88516145D02*
X91359047Y-88843764D01*
X91359047Y-88843764D02*
X91481904Y-88843764D01*
X91481904Y-88843764D02*
X91563809Y-88884716D01*
X91563809Y-88884716D02*
X91604761Y-88925669D01*
X91604761Y-88925669D02*
X91645714Y-89007573D01*
X91645714Y-89007573D02*
X91645714Y-89212335D01*
X91645714Y-89212335D02*
X91604761Y-89294240D01*
X91604761Y-89294240D02*
X91563809Y-89335193D01*
X91563809Y-89335193D02*
X91481904Y-89376145D01*
X91481904Y-89376145D02*
X91236190Y-89376145D01*
X91236190Y-89376145D02*
X91154285Y-89335193D01*
X91154285Y-89335193D02*
X91113333Y-89294240D01*
D11*
X75086428Y-109248994D02*
X74319762Y-108391851D01*
X73772143Y-109248994D02*
X73772143Y-107448994D01*
X73772143Y-107448994D02*
X74648333Y-107448994D01*
X74648333Y-107448994D02*
X74867381Y-107534708D01*
X74867381Y-107534708D02*
X74976904Y-107620422D01*
X74976904Y-107620422D02*
X75086428Y-107791851D01*
X75086428Y-107791851D02*
X75086428Y-108048994D01*
X75086428Y-108048994D02*
X74976904Y-108220422D01*
X74976904Y-108220422D02*
X74867381Y-108306137D01*
X74867381Y-108306137D02*
X74648333Y-108391851D01*
X74648333Y-108391851D02*
X73772143Y-108391851D01*
X75853095Y-107448994D02*
X77386428Y-107448994D01*
X77386428Y-107448994D02*
X76400714Y-109248994D01*
X85432619Y-100373994D02*
X85432619Y-101831137D01*
X85432619Y-101831137D02*
X85542142Y-102002565D01*
X85542142Y-102002565D02*
X85651666Y-102088280D01*
X85651666Y-102088280D02*
X85870714Y-102173994D01*
X85870714Y-102173994D02*
X86308809Y-102173994D01*
X86308809Y-102173994D02*
X86527857Y-102088280D01*
X86527857Y-102088280D02*
X86637380Y-102002565D01*
X86637380Y-102002565D02*
X86746904Y-101831137D01*
X86746904Y-101831137D02*
X86746904Y-100373994D01*
X87732619Y-100545422D02*
X87842143Y-100459708D01*
X87842143Y-100459708D02*
X88061190Y-100373994D01*
X88061190Y-100373994D02*
X88608809Y-100373994D01*
X88608809Y-100373994D02*
X88827857Y-100459708D01*
X88827857Y-100459708D02*
X88937381Y-100545422D01*
X88937381Y-100545422D02*
X89046904Y-100716851D01*
X89046904Y-100716851D02*
X89046904Y-100888280D01*
X89046904Y-100888280D02*
X88937381Y-101145422D01*
X88937381Y-101145422D02*
X87623095Y-102173994D01*
X87623095Y-102173994D02*
X89046904Y-102173994D01*
X88461191Y-94323994D02*
X89994524Y-94323994D01*
X89994524Y-94323994D02*
X89008810Y-96123994D01*
X91856429Y-94923994D02*
X91856429Y-96123994D01*
X91308810Y-94238280D02*
X90761191Y-95523994D01*
X90761191Y-95523994D02*
X92185000Y-95523994D01*
X94156429Y-96123994D02*
X93061191Y-96123994D01*
X93061191Y-96123994D02*
X93061191Y-94323994D01*
X94813572Y-96038280D02*
X95142143Y-96123994D01*
X95142143Y-96123994D02*
X95689762Y-96123994D01*
X95689762Y-96123994D02*
X95908810Y-96038280D01*
X95908810Y-96038280D02*
X96018334Y-95952565D01*
X96018334Y-95952565D02*
X96127857Y-95781137D01*
X96127857Y-95781137D02*
X96127857Y-95609708D01*
X96127857Y-95609708D02*
X96018334Y-95438280D01*
X96018334Y-95438280D02*
X95908810Y-95352565D01*
X95908810Y-95352565D02*
X95689762Y-95266851D01*
X95689762Y-95266851D02*
X95251667Y-95181137D01*
X95251667Y-95181137D02*
X95032619Y-95095422D01*
X95032619Y-95095422D02*
X94923096Y-95009708D01*
X94923096Y-95009708D02*
X94813572Y-94838280D01*
X94813572Y-94838280D02*
X94813572Y-94666851D01*
X94813572Y-94666851D02*
X94923096Y-94495422D01*
X94923096Y-94495422D02*
X95032619Y-94409708D01*
X95032619Y-94409708D02*
X95251667Y-94323994D01*
X95251667Y-94323994D02*
X95799286Y-94323994D01*
X95799286Y-94323994D02*
X96127857Y-94409708D01*
X98318333Y-96123994D02*
X97004048Y-96123994D01*
X97661191Y-96123994D02*
X97661191Y-94323994D01*
X97661191Y-94323994D02*
X97442143Y-94581137D01*
X97442143Y-94581137D02*
X97223095Y-94752565D01*
X97223095Y-94752565D02*
X97004048Y-94838280D01*
X99194524Y-94495422D02*
X99304048Y-94409708D01*
X99304048Y-94409708D02*
X99523095Y-94323994D01*
X99523095Y-94323994D02*
X100070714Y-94323994D01*
X100070714Y-94323994D02*
X100289762Y-94409708D01*
X100289762Y-94409708D02*
X100399286Y-94495422D01*
X100399286Y-94495422D02*
X100508809Y-94666851D01*
X100508809Y-94666851D02*
X100508809Y-94838280D01*
X100508809Y-94838280D02*
X100399286Y-95095422D01*
X100399286Y-95095422D02*
X99085000Y-96123994D01*
X99085000Y-96123994D02*
X100508809Y-96123994D01*
X101275476Y-94323994D02*
X102699285Y-94323994D01*
X102699285Y-94323994D02*
X101932619Y-95009708D01*
X101932619Y-95009708D02*
X102261190Y-95009708D01*
X102261190Y-95009708D02*
X102480238Y-95095422D01*
X102480238Y-95095422D02*
X102589762Y-95181137D01*
X102589762Y-95181137D02*
X102699285Y-95352565D01*
X102699285Y-95352565D02*
X102699285Y-95781137D01*
X102699285Y-95781137D02*
X102589762Y-95952565D01*
X102589762Y-95952565D02*
X102480238Y-96038280D01*
X102480238Y-96038280D02*
X102261190Y-96123994D01*
X102261190Y-96123994D02*
X101604047Y-96123994D01*
X101604047Y-96123994D02*
X101385000Y-96038280D01*
X101385000Y-96038280D02*
X101275476Y-95952565D01*
X89741666Y-86648994D02*
X88975000Y-85791851D01*
X88427381Y-86648994D02*
X88427381Y-84848994D01*
X88427381Y-84848994D02*
X89303571Y-84848994D01*
X89303571Y-84848994D02*
X89522619Y-84934708D01*
X89522619Y-84934708D02*
X89632142Y-85020422D01*
X89632142Y-85020422D02*
X89741666Y-85191851D01*
X89741666Y-85191851D02*
X89741666Y-85448994D01*
X89741666Y-85448994D02*
X89632142Y-85620422D01*
X89632142Y-85620422D02*
X89522619Y-85706137D01*
X89522619Y-85706137D02*
X89303571Y-85791851D01*
X89303571Y-85791851D02*
X88427381Y-85791851D01*
X91713095Y-85448994D02*
X91713095Y-86648994D01*
X91165476Y-84763280D02*
X90617857Y-86048994D01*
X90617857Y-86048994D02*
X92041666Y-86048994D01*
%TO.C,C5*%
D10*
X108455000Y-91740000D02*
X106415000Y-91740000D01*
X106415000Y-98780000D01*
X108455000Y-98780000D01*
X108455000Y-91740000D01*
%TO.C,RV2*%
X91460000Y-105055000D02*
X104460000Y-105055000D01*
X104460000Y-112755000D01*
X91460000Y-112755000D01*
X91460000Y-105055000D01*
%TO.C,RV1*%
X120425000Y-105055000D02*
X133425000Y-105055000D01*
X133425000Y-112755000D01*
X120425000Y-112755000D01*
X120425000Y-105055000D01*
%TO.C,C9*%
X136310000Y-74965000D02*
X134270000Y-74965000D01*
X134270000Y-82005000D01*
X136310000Y-82005000D01*
X136310000Y-74965000D01*
%TO.C,R8*%
X59315000Y-112135000D02*
X61855000Y-112135000D01*
D14*
X60355000Y-112135000D02*
X61045000Y-112135000D01*
D10*
X61855000Y-112135000D02*
X63135000Y-110855000D01*
X61855000Y-112135000D02*
X63135000Y-113415000D01*
X63135000Y-110855000D02*
X68155000Y-110855000D01*
X63135000Y-113415000D02*
X68155000Y-113415000D01*
X69435000Y-112135000D02*
X68155000Y-110855000D01*
X69435000Y-112135000D02*
X68155000Y-113415000D01*
X71975000Y-112135000D02*
X69435000Y-112135000D01*
D15*
X62495000Y-112775000D02*
X61855000Y-112135000D01*
X62495000Y-111495000D01*
X62495000Y-112775000D01*
G36*
X62495000Y-112775000D02*
G01*
X61855000Y-112135000D01*
X62495000Y-111495000D01*
X62495000Y-112775000D01*
G37*
X69435000Y-112135000D02*
X68795000Y-112775000D01*
X68795000Y-111495000D01*
X69435000Y-112135000D01*
G36*
X69435000Y-112135000D02*
G01*
X68795000Y-112775000D01*
X68795000Y-111495000D01*
X69435000Y-112135000D01*
G37*
D10*
%TO.C,U3*%
X59675000Y-93350000D02*
X60925000Y-94600000D01*
X59675000Y-97150000D02*
X60925000Y-95900000D01*
X60425000Y-92600000D02*
X59675000Y-93350000D01*
X60425000Y-97900000D02*
X59675000Y-97150000D01*
X60925000Y-95900000D02*
X60925000Y-94600000D01*
X61195000Y-92600000D02*
X60425000Y-92600000D01*
X61195000Y-97900000D02*
X60425000Y-97900000D01*
X61195000Y-97900000D02*
X79095000Y-97900000D01*
X79095000Y-92600000D02*
X61195000Y-92600000D01*
X79095000Y-97900000D02*
X79095000Y-92600000D01*
%TO.C,Q1*%
X60460000Y-65250000D02*
X64060000Y-65250000D01*
X59903601Y-62301193D02*
G75*
G02*
X62260000Y-60800001I2356399J-1098807D01*
G01*
X60460001Y-65249999D02*
G75*
G02*
X59935817Y-64522795I1799999J1849999D01*
G01*
X62260000Y-60800000D02*
G75*
G02*
X64616400Y-62301193I0J-2600000D01*
G01*
X64584183Y-64522795D02*
G75*
G02*
X64059999Y-65249999I-2324183J1122795D01*
G01*
%TO.C,C1*%
X116430000Y-87965000D02*
X123470000Y-87965000D01*
X123470000Y-90005000D01*
X116430000Y-90005000D01*
X116430000Y-87965000D01*
%TO.C,P1*%
X87900000Y-75410000D02*
X103200000Y-75410000D01*
X87900000Y-78070000D02*
X87900000Y-75410000D01*
X87900000Y-78070000D02*
X103200000Y-78070000D01*
X103200000Y-78070000D02*
X103200000Y-75410000D01*
X87900000Y-77010000D02*
X87900000Y-78070000D01*
X86590000Y-76760000D01*
X86590000Y-76720000D01*
X87900000Y-75410000D01*
X87900000Y-77010000D01*
G36*
X87900000Y-77010000D02*
G01*
X87900000Y-78070000D01*
X86590000Y-76760000D01*
X86590000Y-76720000D01*
X87900000Y-75410000D01*
X87900000Y-77010000D01*
G37*
D15*
%TO.C,R6*%
X59500000Y-78495000D02*
X58860000Y-77855000D01*
X60140000Y-77855000D01*
X59500000Y-78495000D01*
G36*
X59500000Y-78495000D02*
G01*
X58860000Y-77855000D01*
X60140000Y-77855000D01*
X59500000Y-78495000D01*
G37*
X60140000Y-71555000D02*
X58860000Y-71555000D01*
X59500000Y-70915000D01*
X60140000Y-71555000D01*
G36*
X60140000Y-71555000D02*
G01*
X58860000Y-71555000D01*
X59500000Y-70915000D01*
X60140000Y-71555000D01*
G37*
D10*
X60780000Y-72195000D02*
X60780000Y-77215000D01*
X59500000Y-81035000D02*
X59500000Y-78495000D01*
X59500000Y-78495000D02*
X60780000Y-77215000D01*
X59500000Y-78495000D02*
X58220000Y-77215000D01*
X59500000Y-70915000D02*
X60780000Y-72195000D01*
X59500000Y-70915000D02*
X58220000Y-72195000D01*
D14*
X59500000Y-69415000D02*
X59500000Y-70105000D01*
D10*
X59500000Y-68375000D02*
X59500000Y-70915000D01*
X58220000Y-72195000D02*
X58220000Y-77215000D01*
%TO.C,J3*%
X87790000Y-60665000D02*
X87790000Y-65765000D01*
X89740000Y-69165000D02*
X92290000Y-69165000D01*
X93990000Y-69165000D02*
X96490000Y-69165000D01*
X98390000Y-65865000D02*
X98390000Y-60665000D01*
%TO.C,R10*%
X67045000Y-77255000D02*
X67045000Y-72235000D01*
X68325000Y-68415000D02*
X68325000Y-70955000D01*
X68325000Y-70955000D02*
X67045000Y-72235000D01*
X68325000Y-70955000D02*
X69605000Y-72235000D01*
X68325000Y-78535000D02*
X67045000Y-77255000D01*
X68325000Y-78535000D02*
X69605000Y-77255000D01*
D14*
X68325000Y-80035000D02*
X68325000Y-79345000D01*
D10*
X68325000Y-81075000D02*
X68325000Y-78535000D01*
X69605000Y-77255000D02*
X69605000Y-72235000D01*
D15*
X68965000Y-71595000D02*
X67685000Y-71595000D01*
X68325000Y-70955000D01*
X68965000Y-71595000D01*
G36*
X68965000Y-71595000D02*
G01*
X67685000Y-71595000D01*
X68325000Y-70955000D01*
X68965000Y-71595000D01*
G37*
X68325000Y-78535000D02*
X67685000Y-77895000D01*
X68965000Y-77895000D01*
X68325000Y-78535000D01*
G36*
X68325000Y-78535000D02*
G01*
X67685000Y-77895000D01*
X68965000Y-77895000D01*
X68325000Y-78535000D01*
G37*
%TO.C,C4*%
D10*
X102110000Y-90005000D02*
X95070000Y-90005000D01*
X95070000Y-87965000D01*
X102110000Y-87965000D01*
X102110000Y-90005000D01*
%TO.C,P2*%
X110752500Y-75350000D02*
X112042500Y-76640000D01*
X110752500Y-79205000D02*
X112042500Y-77915000D01*
X111522500Y-74580000D02*
X110752500Y-75350000D01*
X111522500Y-79975000D02*
X110752500Y-79205000D01*
X112042500Y-77915000D02*
X112042500Y-76640000D01*
X126632500Y-74580000D02*
X111522500Y-74580000D01*
X126632500Y-79975000D02*
X111522500Y-79975000D01*
X127232500Y-75180000D02*
X126632500Y-74580000D01*
X127232500Y-76730000D02*
X127232500Y-75180000D01*
X127232500Y-76730000D02*
X127232500Y-77825000D01*
X127232500Y-77825000D02*
X127232500Y-79375000D01*
X127232500Y-79375000D02*
X126632500Y-79975000D01*
%TO.C,J4*%
X102770000Y-69435000D02*
X102770000Y-58955000D01*
X112115000Y-70775000D02*
X112665000Y-70041988D01*
X112715000Y-69975000D02*
X113315000Y-70775000D01*
X113315000Y-70775000D02*
X112115000Y-70775000D01*
X133740000Y-58955000D02*
X133740000Y-69435000D01*
X133740000Y-69435000D02*
X102770000Y-69435000D01*
%TO.C,R1*%
X109405000Y-97790000D02*
X109405000Y-92770000D01*
X110685000Y-88950000D02*
X110685000Y-91490000D01*
X110685000Y-91490000D02*
X109405000Y-92770000D01*
X110685000Y-91490000D02*
X111965000Y-92770000D01*
X110685000Y-99070000D02*
X109405000Y-97790000D01*
X110685000Y-99070000D02*
X111965000Y-97790000D01*
D14*
X110685000Y-100570000D02*
X110685000Y-99880000D01*
D10*
X110685000Y-101610000D02*
X110685000Y-99070000D01*
X111965000Y-97790000D02*
X111965000Y-92770000D01*
D15*
X111325000Y-92130000D02*
X110045000Y-92130000D01*
X110685000Y-91490000D01*
X111325000Y-92130000D01*
G36*
X111325000Y-92130000D02*
G01*
X110045000Y-92130000D01*
X110685000Y-91490000D01*
X111325000Y-92130000D01*
G37*
X110685000Y-99070000D02*
X110045000Y-98430000D01*
X111325000Y-98430000D01*
X110685000Y-99070000D01*
G36*
X110685000Y-99070000D02*
G01*
X110045000Y-98430000D01*
X111325000Y-98430000D01*
X110685000Y-99070000D01*
G37*
%TO.C,R9*%
X82745000Y-78535000D02*
X82105000Y-77895000D01*
X83385000Y-77895000D01*
X82745000Y-78535000D01*
G36*
X82745000Y-78535000D02*
G01*
X82105000Y-77895000D01*
X83385000Y-77895000D01*
X82745000Y-78535000D01*
G37*
X83385000Y-71595000D02*
X82105000Y-71595000D01*
X82745000Y-70955000D01*
X83385000Y-71595000D01*
G36*
X83385000Y-71595000D02*
G01*
X82105000Y-71595000D01*
X82745000Y-70955000D01*
X83385000Y-71595000D01*
G37*
D10*
X84025000Y-77255000D02*
X84025000Y-72235000D01*
X82745000Y-81075000D02*
X82745000Y-78535000D01*
D14*
X82745000Y-80035000D02*
X82745000Y-79345000D01*
D10*
X82745000Y-78535000D02*
X84025000Y-77255000D01*
X82745000Y-78535000D02*
X81465000Y-77255000D01*
X82745000Y-70955000D02*
X84025000Y-72235000D01*
X82745000Y-70955000D02*
X81465000Y-72235000D01*
X82745000Y-68415000D02*
X82745000Y-70955000D01*
X81465000Y-77255000D02*
X81465000Y-72235000D01*
%TO.C,U1*%
X112835000Y-93450000D02*
X114185000Y-94800000D01*
X112835000Y-97050000D02*
X114185000Y-95700000D01*
X113685000Y-92600000D02*
X112835000Y-93450000D01*
X113685000Y-97900000D02*
X112835000Y-97050000D01*
X114185000Y-95700000D02*
X114185000Y-94800000D01*
X114365000Y-92600000D02*
X113685000Y-92600000D01*
X114365000Y-97900000D02*
X113685000Y-97900000D01*
X114365000Y-97900000D02*
X134805000Y-97900000D01*
X134805000Y-92600000D02*
X114365000Y-92600000D01*
X134805000Y-97900000D02*
X134805000Y-92600000D01*
%TO.C,C2*%
X131170000Y-90005000D02*
X124130000Y-90005000D01*
X124130000Y-87965000D01*
X131170000Y-87965000D01*
X131170000Y-90005000D01*
%TO.C,R5*%
X63135000Y-105940000D02*
X68155000Y-105940000D01*
X59315000Y-104660000D02*
X61855000Y-104660000D01*
D14*
X60355000Y-104660000D02*
X61045000Y-104660000D01*
D10*
X61855000Y-104660000D02*
X63135000Y-105940000D01*
X61855000Y-104660000D02*
X63135000Y-103380000D01*
X69435000Y-104660000D02*
X68155000Y-105940000D01*
X69435000Y-104660000D02*
X68155000Y-103380000D01*
X71975000Y-104660000D02*
X69435000Y-104660000D01*
X63135000Y-103380000D02*
X68155000Y-103380000D01*
D15*
X62495000Y-105300000D02*
X61855000Y-104660000D01*
X62495000Y-104020000D01*
X62495000Y-105300000D01*
G36*
X62495000Y-105300000D02*
G01*
X61855000Y-104660000D01*
X62495000Y-104020000D01*
X62495000Y-105300000D01*
G37*
X69435000Y-104660000D02*
X68795000Y-105300000D01*
X68795000Y-104020000D01*
X69435000Y-104660000D01*
G36*
X69435000Y-104660000D02*
G01*
X68795000Y-105300000D01*
X68795000Y-104020000D01*
X69435000Y-104660000D01*
G37*
%TO.C,R3*%
X81535000Y-99070000D02*
X80895000Y-98430000D01*
X82175000Y-98430000D01*
X81535000Y-99070000D01*
G36*
X81535000Y-99070000D02*
G01*
X80895000Y-98430000D01*
X82175000Y-98430000D01*
X81535000Y-99070000D01*
G37*
X82175000Y-92130000D02*
X80895000Y-92130000D01*
X81535000Y-91490000D01*
X82175000Y-92130000D01*
G36*
X82175000Y-92130000D02*
G01*
X80895000Y-92130000D01*
X81535000Y-91490000D01*
X82175000Y-92130000D01*
G37*
D10*
X82815000Y-97790000D02*
X82815000Y-92770000D01*
X81535000Y-101610000D02*
X81535000Y-99070000D01*
D14*
X81535000Y-100570000D02*
X81535000Y-99880000D01*
D10*
X81535000Y-99070000D02*
X82815000Y-97790000D01*
X81535000Y-99070000D02*
X80255000Y-97790000D01*
X81535000Y-91490000D02*
X82815000Y-92770000D01*
X81535000Y-91490000D02*
X80255000Y-92770000D01*
X81535000Y-88950000D02*
X81535000Y-91490000D01*
X80255000Y-97790000D02*
X80255000Y-92770000D01*
%TO.C,R2*%
X123095000Y-85735000D02*
X125635000Y-85735000D01*
X125635000Y-85735000D02*
X126915000Y-84455000D01*
X125635000Y-85735000D02*
X126915000Y-87015000D01*
X131935000Y-84455000D02*
X126915000Y-84455000D01*
X131935000Y-87015000D02*
X126915000Y-87015000D01*
X133215000Y-85735000D02*
X131935000Y-84455000D01*
X133215000Y-85735000D02*
X131935000Y-87015000D01*
D14*
X134715000Y-85735000D02*
X134025000Y-85735000D01*
D10*
X135755000Y-85735000D02*
X133215000Y-85735000D01*
D15*
X126275000Y-86375000D02*
X125635000Y-85735000D01*
X126275000Y-85095000D01*
X126275000Y-86375000D01*
G36*
X126275000Y-86375000D02*
G01*
X125635000Y-85735000D01*
X126275000Y-85095000D01*
X126275000Y-86375000D01*
G37*
X133215000Y-85735000D02*
X132575000Y-86375000D01*
X132575000Y-85095000D01*
X133215000Y-85735000D01*
G36*
X133215000Y-85735000D02*
G01*
X132575000Y-86375000D01*
X132575000Y-85095000D01*
X133215000Y-85735000D01*
G37*
%TO.C,R11*%
X78935000Y-78535000D02*
X78295000Y-77895000D01*
X79575000Y-77895000D01*
X78935000Y-78535000D01*
G36*
X78935000Y-78535000D02*
G01*
X78295000Y-77895000D01*
X79575000Y-77895000D01*
X78935000Y-78535000D01*
G37*
X79575000Y-71595000D02*
X78295000Y-71595000D01*
X78935000Y-70955000D01*
X79575000Y-71595000D01*
G36*
X79575000Y-71595000D02*
G01*
X78295000Y-71595000D01*
X78935000Y-70955000D01*
X79575000Y-71595000D01*
G37*
D10*
X80215000Y-77255000D02*
X80215000Y-72235000D01*
X78935000Y-81075000D02*
X78935000Y-78535000D01*
D14*
X78935000Y-80035000D02*
X78935000Y-79345000D01*
D10*
X78935000Y-78535000D02*
X80215000Y-77255000D01*
X78935000Y-78535000D02*
X77655000Y-77255000D01*
X78935000Y-70955000D02*
X80215000Y-72235000D01*
X78935000Y-70955000D02*
X77655000Y-72235000D01*
X78935000Y-68415000D02*
X78935000Y-70955000D01*
X77655000Y-77255000D02*
X77655000Y-72235000D01*
%TO.C,C8*%
X71425000Y-73385000D02*
X72675000Y-72135000D01*
X71425000Y-78425000D02*
X71425000Y-73385000D01*
X71465000Y-69635000D02*
X72015000Y-69085000D01*
X71465000Y-70925000D02*
X71465000Y-69635000D01*
X72015000Y-69085000D02*
X74205000Y-69085000D01*
X72235000Y-79235000D02*
X71425000Y-78425000D01*
X72675000Y-72135000D02*
X71465000Y-70925000D01*
X73775000Y-66885000D02*
X73775000Y-69085000D01*
X73775000Y-79235000D02*
X72235000Y-79235000D01*
X73775000Y-79235000D02*
X75315000Y-79235000D01*
X73775000Y-81875000D02*
X73775000Y-79235000D01*
X74875000Y-72135000D02*
X76085000Y-70925000D01*
X75315000Y-79235000D02*
X76125000Y-78425000D01*
X75535000Y-69085000D02*
X74175000Y-69085000D01*
X76085000Y-69635000D02*
X75535000Y-69085000D01*
X76085000Y-70925000D02*
X76085000Y-69635000D01*
X76125000Y-73385000D02*
X74875000Y-72135000D01*
X76125000Y-78425000D02*
X76125000Y-73385000D01*
X76135001Y-69245000D02*
G75*
G02*
X71411527Y-69245000I-2361737J0D01*
G01*
X71411527Y-69245000D02*
G75*
G02*
X76135001Y-69245000I2361737J0D01*
G01*
%TO.C,C7*%
X137297500Y-91740000D02*
X135257500Y-91740000D01*
X135257500Y-98780000D01*
X137297500Y-98780000D01*
X137297500Y-91740000D01*
%TO.C,P3*%
X74390000Y-60155000D02*
X74390000Y-61925000D01*
X74390000Y-63925000D02*
X74390000Y-61835000D01*
X75000000Y-59545000D02*
X74390000Y-60155000D01*
X75000000Y-64535000D02*
X74390000Y-63925000D01*
X82890000Y-59545000D02*
X75000000Y-59545000D01*
X82890000Y-64534000D02*
X75000000Y-64535000D01*
X83570000Y-60222000D02*
X82890000Y-59545000D01*
X83570000Y-62162000D02*
X83570000Y-60222000D01*
X83570000Y-62162000D02*
X83570000Y-63854000D01*
X83570000Y-63854000D02*
X82890000Y-64534000D01*
%TO.C,C3*%
X87450000Y-87965000D02*
X94490000Y-87965000D01*
X94490000Y-90005000D01*
X87450000Y-90005000D01*
X87450000Y-87965000D01*
%TO.C,R7*%
X59315000Y-108435000D02*
X61855000Y-108435000D01*
D14*
X60355000Y-108435000D02*
X61045000Y-108435000D01*
D10*
X61855000Y-108435000D02*
X63135000Y-107155000D01*
X61855000Y-108435000D02*
X63135000Y-109715000D01*
X63135000Y-107155000D02*
X68155000Y-107155000D01*
X63135000Y-109715000D02*
X68155000Y-109715000D01*
X69435000Y-108435000D02*
X68155000Y-107155000D01*
X69435000Y-108435000D02*
X68155000Y-109715000D01*
X71975000Y-108435000D02*
X69435000Y-108435000D01*
D15*
X62495000Y-109075000D02*
X61855000Y-108435000D01*
X62495000Y-107795000D01*
X62495000Y-109075000D01*
G36*
X62495000Y-109075000D02*
G01*
X61855000Y-108435000D01*
X62495000Y-107795000D01*
X62495000Y-109075000D01*
G37*
X69435000Y-108435000D02*
X68795000Y-109075000D01*
X68795000Y-107795000D01*
X69435000Y-108435000D01*
G36*
X69435000Y-108435000D02*
G01*
X68795000Y-109075000D01*
X68795000Y-107795000D01*
X69435000Y-108435000D01*
G37*
%TO.C,C6*%
D10*
X59132500Y-91690000D02*
X57092500Y-91690000D01*
X57092500Y-98730000D01*
X59132500Y-98730000D01*
X59132500Y-91690000D01*
%TO.C,U2*%
X83975000Y-93450000D02*
X85325000Y-94800000D01*
X83975000Y-97050000D02*
X85325000Y-95700000D01*
X84825000Y-92600000D02*
X83975000Y-93450000D01*
X84825000Y-97900000D02*
X83975000Y-97050000D01*
X85325000Y-95700000D02*
X85325000Y-94800000D01*
X85505000Y-92600000D02*
X84825000Y-92600000D01*
X85505000Y-97900000D02*
X84825000Y-97900000D01*
X85505000Y-97900000D02*
X105945000Y-97900000D01*
X105945000Y-92600000D02*
X85505000Y-92600000D01*
X105945000Y-97900000D02*
X105945000Y-92600000D01*
%TO.C,R4*%
X93565000Y-85835000D02*
X96105000Y-85835000D01*
X96105000Y-85835000D02*
X97385000Y-84555000D01*
X96105000Y-85835000D02*
X97385000Y-87115000D01*
X102405000Y-84555000D02*
X97385000Y-84555000D01*
X102405000Y-87115000D02*
X97385000Y-87115000D01*
X103685000Y-85835000D02*
X102405000Y-84555000D01*
X103685000Y-85835000D02*
X102405000Y-87115000D01*
D14*
X105185000Y-85835000D02*
X104495000Y-85835000D01*
D10*
X106225000Y-85835000D02*
X103685000Y-85835000D01*
D15*
X96745000Y-86475000D02*
X96105000Y-85835000D01*
X96745000Y-85195000D01*
X96745000Y-86475000D01*
G36*
X96745000Y-86475000D02*
G01*
X96105000Y-85835000D01*
X96745000Y-85195000D01*
X96745000Y-86475000D01*
G37*
X103685000Y-85835000D02*
X103045000Y-86475000D01*
X103045000Y-85195000D01*
X103685000Y-85835000D01*
G36*
X103685000Y-85835000D02*
G01*
X103045000Y-86475000D01*
X103045000Y-85195000D01*
X103685000Y-85835000D01*
G37*
%TD*%
M02*
