M48
; DRILL file {KiCad 8.0.3} date 2024-07-01T23:59:26+0100
; FORMAT={-:-/ absolute / inch / decimal}
; #@! TF.CreationDate,2024-07-01T23:59:26+01:00
; #@! TF.GenerationSoftware,Kicad,Pcbnew,8.0.3
; #@! TF.FileFunction,Plated,1,2,PTH
FMAT,2
INCH
; #@! TA.AperFunction,Plated,PTH,ViaDrill
T1C0.0315
; #@! TA.AperFunction,Plated,PTH,ComponentDrill
T2C0.0315
; #@! TA.AperFunction,Plated,PTH,ComponentDrill
T3C0.0354
; #@! TA.AperFunction,Plated,PTH,ComponentDrill
T4C0.0394
%
G90
G05
T1
X2.2302Y-3.7595
X2.4845Y-3.5866
X3.0276Y-3.7357
X3.3071Y-2.2559
X4.1654Y-3.7008
T2
X2.2024Y-2.3575
X2.2024Y-2.5543
X2.2024Y-3.4843
X2.2024Y-3.6811
X2.3213Y-2.3063
X2.3213Y-2.6063
X2.3228Y-3.4331
X2.3228Y-3.7331
X2.4213Y-2.3063
X2.4213Y-2.6063
X2.4228Y-3.4331
X2.4228Y-3.7331
X2.5213Y-2.3063
X2.5213Y-2.6063
X2.5228Y-3.4331
X2.5228Y-3.7331
X2.6213Y-2.3063
X2.6213Y-2.6063
X2.6228Y-3.4331
X2.6228Y-3.7331
X2.7213Y-2.3063
X2.7213Y-2.6063
X2.7228Y-3.4331
X2.7228Y-3.7331
X2.8213Y-2.3063
X2.8213Y-2.6063
X2.8228Y-3.4331
X2.8228Y-3.7331
X2.9213Y-2.3063
X2.9213Y-2.6063
X2.9228Y-3.4331
X2.9228Y-3.7331
X3.0213Y-2.3063
X3.0213Y-2.6063
X3.2953Y-2.3575
X3.2953Y-2.5543
X3.2953Y-3.4843
X3.2953Y-3.6811
X3.4157Y-2.3063
X3.4157Y-2.6063
X3.4165Y-3.4331
X3.4165Y-3.7331
X3.5157Y-2.3063
X3.5157Y-2.6063
X3.5165Y-3.4331
X3.5165Y-3.7331
X3.6157Y-2.3063
X3.6157Y-2.6063
X3.6165Y-3.4331
X3.6165Y-3.7331
X3.6378Y-2.8189
X3.6378Y-2.9685
X3.6378Y-3.1181
X3.7157Y-2.3063
X3.7157Y-2.6063
X3.7165Y-3.4331
X3.7165Y-3.7331
X3.8157Y-2.3063
X3.8157Y-2.6063
X3.8165Y-3.4331
X3.8165Y-3.7331
X3.9157Y-2.3063
X3.9157Y-2.6063
X3.9165Y-3.4331
X3.9165Y-3.7331
X4.0157Y-2.3063
X4.0157Y-2.6063
X4.0165Y-3.4331
X4.0165Y-3.7331
X4.1157Y-2.3063
X4.1157Y-2.6063
X4.1378Y-2.8189
X4.1378Y-2.9685
X4.1378Y-3.1181
X4.2157Y-2.3063
X4.2157Y-2.6063
X4.2913Y-3.3819
X4.2913Y-3.8819
X4.3157Y-2.3063
X4.3157Y-2.6063
X4.4409Y-3.3819
X4.4409Y-3.8819
X4.4488Y-2.6732
X4.4488Y-2.8701
T3
X4.2441Y-4.0866
X4.3441Y-4.0866
X4.6457Y-4.0866
X4.7457Y-4.0866
T4
X2.0946Y-2.7443
X2.0946Y-2.9313
X2.0946Y-3.3344
X2.3587Y-1.6634
X2.3587Y-1.7634
X2.3589Y-1.8637
X2.3589Y-1.9637
X2.4587Y-1.6634
X2.4587Y-1.7634
X2.4589Y-1.8637
X2.4589Y-1.9637
X2.5587Y-1.6634
X2.5587Y-1.7634
X2.5589Y-1.8637
X2.5589Y-1.9637
X2.6189Y-2.8449
X2.6189Y-2.9449
X2.6587Y-1.6634
X2.6587Y-1.7634
X2.6589Y-1.8637
X2.6589Y-1.9637
X2.7189Y-2.8449
X2.7189Y-2.9449
X2.7587Y-1.6634
X2.7587Y-1.7634
X2.7589Y-1.8637
X2.7589Y-1.9637
X2.8189Y-2.8449
X2.8189Y-2.9449
X2.8587Y-1.6634
X2.8587Y-1.7634
X2.8589Y-1.8637
X2.8589Y-1.9637
X2.9189Y-2.8449
X2.9189Y-2.9449
X2.9587Y-1.6634
X2.9587Y-1.7634
X2.9589Y-1.8637
X2.9589Y-1.9637
X3.0587Y-1.6634
X3.0587Y-1.7634
X3.0589Y-1.8637
X3.0589Y-1.9637
X3.1587Y-1.6634
X3.1587Y-1.7634
X3.1589Y-1.8637
X3.1589Y-1.9637
X3.2587Y-1.6634
X3.2587Y-1.7634
X3.2589Y-1.8637
X3.2589Y-1.9637
X3.3587Y-1.6634
X3.3587Y-1.7634
X3.3589Y-1.8637
X3.3589Y-1.9637
X3.4587Y-1.6634
X3.4587Y-1.7634
X3.4589Y-1.8637
X3.4589Y-1.9637
X3.5587Y-1.6634
X3.5587Y-1.7634
X3.5589Y-1.8637
X3.5589Y-1.9637
X3.6587Y-1.6634
X3.6587Y-1.7634
X3.6589Y-1.8637
X3.6589Y-1.9637
X3.7587Y-1.6634
X3.7587Y-1.7634
X3.7589Y-1.8637
X3.7589Y-1.9637
X3.8587Y-1.6634
X3.8587Y-1.7634
X3.8589Y-1.8637
X3.8589Y-1.9637
X3.9587Y-1.6634
X3.9587Y-1.7634
X3.9589Y-1.8637
X3.9589Y-1.9637
X4.0587Y-1.6634
X4.0587Y-1.7634
X4.0589Y-1.8637
X4.0589Y-1.9637
X4.1587Y-1.6634
X4.1587Y-1.7634
X4.1589Y-1.8637
X4.1589Y-1.9637
X4.2587Y-1.6634
X4.2587Y-1.7634
X4.2589Y-1.8637
X4.2589Y-1.9637
X4.6717Y-1.915
X4.6717Y-2.015
X4.6717Y-2.115
X4.6717Y-2.215
X4.6717Y-2.315
X4.6717Y-2.415
X4.6717Y-2.515
X4.6717Y-2.615
X4.6717Y-2.715
X4.6717Y-2.815
X4.6717Y-2.915
X4.6717Y-3.015
X4.6717Y-3.115
X4.6717Y-3.215
X4.6717Y-3.315
X4.6717Y-3.415
X4.6717Y-3.515
X4.6717Y-3.615
X4.6717Y-3.715
X4.6717Y-3.815
X4.7717Y-1.915
X4.7717Y-2.015
X4.7717Y-2.115
X4.7717Y-2.215
X4.7717Y-2.315
X4.7717Y-2.415
X4.7717Y-2.515
X4.7717Y-2.615
X4.7717Y-2.715
X4.7717Y-2.815
X4.7717Y-2.915
X4.7717Y-3.015
X4.7717Y-3.115
X4.7717Y-3.215
X4.7717Y-3.315
X4.7717Y-3.415
X4.7717Y-3.515
X4.7717Y-3.615
X4.7717Y-3.715
X4.7717Y-3.815
M30
