%TF.GenerationSoftware,KiCad,Pcbnew,8.0.3*%
%TF.CreationDate,2024-07-01T23:59:29+01:00*%
%TF.ProjectId,TIMIDE,54494d49-4445-42e6-9b69-6361645f7063,rev?*%
%TF.SameCoordinates,Original*%
%TF.FileFunction,Copper,L1,Top*%
%TF.FilePolarity,Positive*%
%FSLAX46Y46*%
G04 Gerber Fmt 4.6, Leading zero omitted, Abs format (unit mm)*
G04 Created by KiCad (PCBNEW 8.0.3) date 2024-07-01 23:59:29*
%MOMM*%
%LPD*%
G01*
G04 APERTURE LIST*
%TA.AperFunction,ComponentPad*%
%ADD10C,1.600000*%
%TD*%
%TA.AperFunction,ComponentPad*%
%ADD11R,1.600000X1.600000*%
%TD*%
%TA.AperFunction,ComponentPad*%
%ADD12O,1.600000X1.600000*%
%TD*%
%TA.AperFunction,ComponentPad*%
%ADD13R,1.700000X1.700000*%
%TD*%
%TA.AperFunction,ComponentPad*%
%ADD14O,1.700000X1.700000*%
%TD*%
%TA.AperFunction,ComponentPad*%
%ADD15R,1.800000X1.800000*%
%TD*%
%TA.AperFunction,ComponentPad*%
%ADD16C,1.800000*%
%TD*%
%TA.AperFunction,ComponentPad*%
%ADD17R,2.000000X2.000000*%
%TD*%
%TA.AperFunction,ComponentPad*%
%ADD18C,2.000000*%
%TD*%
%TA.AperFunction,ViaPad*%
%ADD19C,1.500000*%
%TD*%
%TA.AperFunction,Conductor*%
%ADD20C,0.400000*%
%TD*%
%TA.AperFunction,Conductor*%
%ADD21C,0.500000*%
%TD*%
%TA.AperFunction,Conductor*%
%ADD22C,0.800000*%
%TD*%
%TA.AperFunction,Conductor*%
%ADD23C,0.300000*%
%TD*%
G04 APERTURE END LIST*
D10*
%TO.P,C401,1*%
%TO.N,+5V*%
X83700000Y-93500000D03*
%TO.P,C401,2*%
%TO.N,GND*%
X83700000Y-88500000D03*
%TD*%
D11*
%TO.P,U401,1,~{R}*%
%TO.N,Net-(U401A-~{R})*%
X102020000Y-87200000D03*
D12*
%TO.P,U401,2,D*%
%TO.N,~{RD}*%
X99480000Y-87200000D03*
%TO.P,U401,3,C*%
%TO.N,FI*%
X96940000Y-87200000D03*
%TO.P,U401,4,~{S}*%
%TO.N,+5V*%
X94400000Y-87200000D03*
%TO.P,U401,5,Q*%
%TO.N,Net-(U401A-Q)*%
X91860000Y-87200000D03*
%TO.P,U401,6,~{Q}*%
%TO.N,unconnected-(U401A-~{Q}-Pad6)*%
X89320000Y-87200000D03*
%TO.P,U401,7,GND*%
%TO.N,GND*%
X86780000Y-87200000D03*
%TO.P,U401,8,~{Q}*%
%TO.N,unconnected-(U401B-~{Q}-Pad8)*%
X86780000Y-94820000D03*
%TO.P,U401,9,Q*%
%TO.N,Net-(U401B-Q)*%
X89320000Y-94820000D03*
%TO.P,U401,10,~{S}*%
%TO.N,+5V*%
X91860000Y-94820000D03*
%TO.P,U401,11,C*%
%TO.N,FI*%
X94400000Y-94820000D03*
%TO.P,U401,12,D*%
%TO.N,+5V*%
X96940000Y-94820000D03*
%TO.P,U401,13,~{R}*%
%TO.N,EXPSEL_O*%
X99480000Y-94820000D03*
%TO.P,U401,14,VCC*%
%TO.N,+5V*%
X102020000Y-94820000D03*
%TD*%
D10*
%TO.P,R404,1*%
%TO.N,Net-(D401-K)*%
X112800000Y-98600000D03*
D12*
%TO.P,R404,2*%
%TO.N,Net-(J401-Pin_39)*%
X112800000Y-85900000D03*
%TD*%
D10*
%TO.P,C404,1*%
%TO.N,+5V*%
X83700000Y-64880000D03*
%TO.P,C404,2*%
%TO.N,GND*%
X83700000Y-59880000D03*
%TD*%
D13*
%TO.P,P2,1,Pin_1*%
%TO.N,+5V*%
X59916000Y-49879000D03*
D14*
%TO.P,P2,2,Pin_2*%
X59916000Y-47339000D03*
%TO.P,P2,3,Pin_3*%
%TO.N,GND*%
X62456000Y-49879000D03*
%TO.P,P2,4,Pin_4*%
X62456000Y-47339000D03*
%TO.P,P2,5,Pin_5*%
%TO.N,~{RD}*%
X64996000Y-49879000D03*
%TO.P,P2,6,Pin_6*%
%TO.N,FI*%
X64996000Y-47339000D03*
%TO.P,P2,7,Pin_7*%
%TO.N,~{WR}*%
X67536000Y-49879000D03*
%TO.P,P2,8,Pin_8*%
%TO.N,~{RESET}*%
X67536000Y-47339000D03*
%TO.P,P2,9,Pin_9*%
%TO.N,E*%
X70076000Y-49879000D03*
%TO.P,P2,10,Pin_10*%
%TO.N,~{LIR}*%
X70076000Y-47339000D03*
%TO.P,P2,11,Pin_11*%
%TO.N,~{NMI}*%
X72616000Y-49879000D03*
%TO.P,P2,12,Pin_12*%
%TO.N,EXPSEL_O*%
X72616000Y-47339000D03*
%TO.P,P2,13,Pin_13*%
%TO.N,~{WAIT}*%
X75156000Y-49879000D03*
%TO.P,P2,14,Pin_14*%
%TO.N,EXPSEL_2*%
X75156000Y-47339000D03*
%TO.P,P2,15,Pin_15*%
%TO.N,~{INT0}*%
X77696000Y-49879000D03*
%TO.P,P2,16,Pin_16*%
%TO.N,~{HALT}*%
X77696000Y-47339000D03*
%TO.P,P2,17,Pin_17*%
%TO.N,ST*%
X80236000Y-49879000D03*
%TO.P,P2,18,Pin_18*%
%TO.N,EXPSEL_3*%
X80236000Y-47339000D03*
%TO.P,P2,19,Pin_19*%
%TO.N,/CF IDE Interface/A0*%
X82776000Y-49879000D03*
%TO.P,P2,20,Pin_20*%
%TO.N,/CF IDE Interface/A1*%
X82776000Y-47339000D03*
%TO.P,P2,21,Pin_21*%
%TO.N,~{TEND0}*%
X85316000Y-49879000D03*
%TO.P,P2,22,Pin_22*%
%TO.N,/CF IDE Interface/A2*%
X85316000Y-47339000D03*
%TO.P,P2,23,Pin_23*%
%TO.N,/CF IDE Interface/A3*%
X87856000Y-49879000D03*
%TO.P,P2,24,Pin_24*%
%TO.N,/CF IDE Interface/A4*%
X87856000Y-47339000D03*
%TO.P,P2,25,Pin_25*%
%TO.N,~{DREQ0}*%
X90396000Y-49879000D03*
%TO.P,P2,26,Pin_26*%
%TO.N,~{IOE}*%
X90396000Y-47339000D03*
%TO.P,P2,27,Pin_27*%
%TO.N,PIN_27*%
X92936000Y-49879000D03*
%TO.P,P2,28,Pin_28*%
%TO.N,RESET*%
X92936000Y-47339000D03*
%TO.P,P2,29,Pin_29*%
%TO.N,/CF IDE Interface/D7*%
X95476000Y-49879000D03*
%TO.P,P2,30,Pin_30*%
%TO.N,/CF IDE Interface/D6*%
X95476000Y-47339000D03*
%TO.P,P2,31,Pin_31*%
%TO.N,/CF IDE Interface/D5*%
X98016000Y-49879000D03*
%TO.P,P2,32,Pin_32*%
%TO.N,/CF IDE Interface/D3*%
X98016000Y-47339000D03*
%TO.P,P2,33,Pin_33*%
%TO.N,/CF IDE Interface/D4*%
X100556000Y-49879000D03*
%TO.P,P2,34,Pin_34*%
%TO.N,/CF IDE Interface/D2*%
X100556000Y-47339000D03*
%TO.P,P2,35,Pin_35*%
%TO.N,/CF IDE Interface/D1*%
X103096000Y-49879000D03*
%TO.P,P2,36,Pin_36*%
%TO.N,/CF IDE Interface/D0*%
X103096000Y-47339000D03*
%TO.P,P2,37,Pin_37*%
%TO.N,GND*%
X105636000Y-49879000D03*
%TO.P,P2,38,Pin_38*%
X105636000Y-47339000D03*
%TO.P,P2,39,Pin_39*%
%TO.N,PIN_39*%
X108176000Y-49879000D03*
%TO.P,P2,40,Pin_40*%
%TO.N,PIN_40*%
X108176000Y-47339000D03*
%TD*%
D11*
%TO.P,U404,1,A->B*%
%TO.N,~{RD}*%
X109620000Y-58580000D03*
D12*
%TO.P,U404,2,A0*%
%TO.N,/CF IDE Interface/D0*%
X107080000Y-58580000D03*
%TO.P,U404,3,A1*%
%TO.N,/CF IDE Interface/D1*%
X104540000Y-58580000D03*
%TO.P,U404,4,A2*%
%TO.N,/CF IDE Interface/D2*%
X102000000Y-58580000D03*
%TO.P,U404,5,A3*%
%TO.N,/CF IDE Interface/D3*%
X99460000Y-58580000D03*
%TO.P,U404,6,A4*%
%TO.N,/CF IDE Interface/D4*%
X96920000Y-58580000D03*
%TO.P,U404,7,A5*%
%TO.N,/CF IDE Interface/D5*%
X94380000Y-58580000D03*
%TO.P,U404,8,A6*%
%TO.N,/CF IDE Interface/D6*%
X91840000Y-58580000D03*
%TO.P,U404,9,A7*%
%TO.N,/CF IDE Interface/D7*%
X89300000Y-58580000D03*
%TO.P,U404,10,GND*%
%TO.N,GND*%
X86760000Y-58580000D03*
%TO.P,U404,11,B7*%
%TO.N,/CF IDE Interface/BD7*%
X86760000Y-66200000D03*
%TO.P,U404,12,B6*%
%TO.N,/CF IDE Interface/BD6*%
X89300000Y-66200000D03*
%TO.P,U404,13,B5*%
%TO.N,/CF IDE Interface/BD5*%
X91840000Y-66200000D03*
%TO.P,U404,14,B4*%
%TO.N,/CF IDE Interface/BD4*%
X94380000Y-66200000D03*
%TO.P,U404,15,B3*%
%TO.N,/CF IDE Interface/BD3*%
X96920000Y-66200000D03*
%TO.P,U404,16,B2*%
%TO.N,/CF IDE Interface/BD2*%
X99460000Y-66200000D03*
%TO.P,U404,17,B1*%
%TO.N,/CF IDE Interface/BD1*%
X102000000Y-66200000D03*
%TO.P,U404,18,B0*%
%TO.N,/CF IDE Interface/BD0*%
X104540000Y-66200000D03*
%TO.P,U404,19,CE*%
%TO.N,EXPSEL_O*%
X107080000Y-66200000D03*
%TO.P,U404,20,VCC*%
%TO.N,+5V*%
X109620000Y-66200000D03*
%TD*%
D15*
%TO.P,D402,1,K*%
%TO.N,Net-(D402-K)*%
X107800000Y-103800000D03*
D16*
%TO.P,D402,2,A*%
%TO.N,+5V*%
X110340000Y-103800000D03*
%TD*%
D11*
%TO.P,U403,1,A0*%
%TO.N,/CF IDE Interface/A3*%
X76740000Y-58580000D03*
D12*
%TO.P,U403,2,A1*%
%TO.N,/CF IDE Interface/A4*%
X74200000Y-58580000D03*
%TO.P,U403,3,A2*%
%TO.N,GND*%
X71660000Y-58580000D03*
%TO.P,U403,4,E1*%
%TO.N,Net-(U401B-Q)*%
X69120000Y-58580000D03*
%TO.P,U403,5,E2*%
%TO.N,GND*%
X66580000Y-58580000D03*
%TO.P,U403,6,E3*%
%TO.N,~{LIR}*%
X64040000Y-58580000D03*
%TO.P,U403,7,O7*%
%TO.N,unconnected-(U403-O7-Pad7)*%
X61500000Y-58580000D03*
%TO.P,U403,8,GND*%
%TO.N,GND*%
X58960000Y-58580000D03*
%TO.P,U403,9,O6*%
%TO.N,unconnected-(U403-O6-Pad9)*%
X58960000Y-66200000D03*
%TO.P,U403,10,O5*%
%TO.N,unconnected-(U403-O5-Pad10)*%
X61500000Y-66200000D03*
%TO.P,U403,11,O4*%
%TO.N,unconnected-(U403-O4-Pad11)*%
X64040000Y-66200000D03*
%TO.P,U403,12,O3*%
%TO.N,Net-(J402-Pin_7)*%
X66580000Y-66200000D03*
%TO.P,U403,13,O2*%
%TO.N,Net-(J402-Pin_5)*%
X69120000Y-66200000D03*
%TO.P,U403,14,O1*%
%TO.N,Net-(J402-Pin_3)*%
X71660000Y-66200000D03*
%TO.P,U403,15,O0*%
%TO.N,Net-(J402-Pin_1)*%
X74200000Y-66200000D03*
%TO.P,U403,16,VCC*%
%TO.N,+5V*%
X76740000Y-66200000D03*
%TD*%
D13*
%TO.P,J402,1,Pin_1*%
%TO.N,Net-(J402-Pin_1)*%
X74140000Y-72260000D03*
D14*
%TO.P,J402,2,Pin_2*%
%TO.N,~{IDE_CS}*%
X74140000Y-74800000D03*
%TO.P,J402,3,Pin_3*%
%TO.N,Net-(J402-Pin_3)*%
X71600000Y-72260000D03*
%TO.P,J402,4,Pin_4*%
%TO.N,~{IDE_CS}*%
X71600000Y-74800000D03*
%TO.P,J402,5,Pin_5*%
%TO.N,Net-(J402-Pin_5)*%
X69060000Y-72260000D03*
%TO.P,J402,6,Pin_6*%
%TO.N,~{IDE_CS}*%
X69060000Y-74800000D03*
%TO.P,J402,7,Pin_7*%
%TO.N,Net-(J402-Pin_7)*%
X66520000Y-72260000D03*
%TO.P,J402,8,Pin_8*%
%TO.N,~{IDE_CS}*%
X66520000Y-74800000D03*
%TD*%
D13*
%TO.P,J401,1,Pin_1*%
%TO.N,~{RESET}*%
X118660000Y-48640000D03*
D14*
%TO.P,J401,2,Pin_2*%
%TO.N,GND*%
X121200000Y-48640000D03*
%TO.P,J401,3,Pin_3*%
%TO.N,/CF IDE Interface/BD7*%
X118660000Y-51180000D03*
%TO.P,J401,4,Pin_4*%
%TO.N,unconnected-(J401-Pin_4-Pad4)*%
X121200000Y-51180000D03*
%TO.P,J401,5,Pin_5*%
%TO.N,/CF IDE Interface/BD6*%
X118660000Y-53720000D03*
%TO.P,J401,6,Pin_6*%
%TO.N,unconnected-(J401-Pin_6-Pad6)*%
X121200000Y-53720000D03*
%TO.P,J401,7,Pin_7*%
%TO.N,/CF IDE Interface/BD5*%
X118660000Y-56260000D03*
%TO.P,J401,8,Pin_8*%
%TO.N,unconnected-(J401-Pin_8-Pad8)*%
X121200000Y-56260000D03*
%TO.P,J401,9,Pin_9*%
%TO.N,/CF IDE Interface/BD4*%
X118660000Y-58800000D03*
%TO.P,J401,10,Pin_10*%
%TO.N,unconnected-(J401-Pin_10-Pad10)*%
X121200000Y-58800000D03*
%TO.P,J401,11,Pin_11*%
%TO.N,/CF IDE Interface/BD3*%
X118660000Y-61340000D03*
%TO.P,J401,12,Pin_12*%
%TO.N,unconnected-(J401-Pin_12-Pad12)*%
X121200000Y-61340000D03*
%TO.P,J401,13,Pin_13*%
%TO.N,/CF IDE Interface/BD2*%
X118660000Y-63880000D03*
%TO.P,J401,14,Pin_14*%
%TO.N,unconnected-(J401-Pin_14-Pad14)*%
X121200000Y-63880000D03*
%TO.P,J401,15,Pin_15*%
%TO.N,/CF IDE Interface/BD1*%
X118660000Y-66420000D03*
%TO.P,J401,16,Pin_16*%
%TO.N,unconnected-(J401-Pin_16-Pad16)*%
X121200000Y-66420000D03*
%TO.P,J401,17,Pin_17*%
%TO.N,/CF IDE Interface/BD0*%
X118660000Y-68960000D03*
%TO.P,J401,18,Pin_18*%
%TO.N,unconnected-(J401-Pin_18-Pad18)*%
X121200000Y-68960000D03*
%TO.P,J401,19,Pin_19*%
%TO.N,GND*%
X118660000Y-71500000D03*
%TO.P,J401,20,Pin_20*%
%TO.N,+5V*%
X121200000Y-71500000D03*
%TO.P,J401,21,Pin_21*%
%TO.N,unconnected-(J401-Pin_21-Pad21)*%
X118660000Y-74040000D03*
%TO.P,J401,22,Pin_22*%
%TO.N,GND*%
X121200000Y-74040000D03*
%TO.P,J401,23,Pin_23*%
%TO.N,Net-(J401-Pin_23)*%
X118660000Y-76580000D03*
%TO.P,J401,24,Pin_24*%
%TO.N,GND*%
X121200000Y-76580000D03*
%TO.P,J401,25,Pin_25*%
%TO.N,Net-(J401-Pin_25)*%
X118660000Y-79120000D03*
%TO.P,J401,26,Pin_26*%
%TO.N,GND*%
X121200000Y-79120000D03*
%TO.P,J401,27,Pin_27*%
%TO.N,unconnected-(J401-Pin_27-Pad27)*%
X118660000Y-81660000D03*
%TO.P,J401,28,Pin_28*%
%TO.N,unconnected-(J401-Pin_28-Pad28)*%
X121200000Y-81660000D03*
%TO.P,J401,29,Pin_29*%
%TO.N,Net-(J401-Pin_29)*%
X118660000Y-84200000D03*
%TO.P,J401,30,Pin_30*%
%TO.N,GND*%
X121200000Y-84200000D03*
%TO.P,J401,31,Pin_31*%
%TO.N,unconnected-(J401-Pin_31-Pad31)*%
X118660000Y-86740000D03*
%TO.P,J401,32,Pin_32*%
%TO.N,unconnected-(J401-Pin_32-Pad32)*%
X121200000Y-86740000D03*
%TO.P,J401,33,Pin_33*%
%TO.N,/CF IDE Interface/A1*%
X118660000Y-89280000D03*
%TO.P,J401,34,Pin_34*%
%TO.N,Net-(J401-Pin_34)*%
X121200000Y-89280000D03*
%TO.P,J401,35,Pin_35*%
%TO.N,/CF IDE Interface/A0*%
X118660000Y-91820000D03*
%TO.P,J401,36,Pin_36*%
%TO.N,/CF IDE Interface/A2*%
X121200000Y-91820000D03*
%TO.P,J401,37,Pin_37*%
%TO.N,~{IDE_CS}*%
X118660000Y-94360000D03*
%TO.P,J401,38,Pin_38*%
%TO.N,Net-(J401-Pin_38)*%
X121200000Y-94360000D03*
%TO.P,J401,39,Pin_39*%
%TO.N,Net-(J401-Pin_39)*%
X118660000Y-96900000D03*
%TO.P,J401,40,Pin_40*%
%TO.N,GND*%
X121200000Y-96900000D03*
%TD*%
D10*
%TO.P,C402,1*%
%TO.N,+5V*%
X55940000Y-93500000D03*
%TO.P,C402,2*%
%TO.N,GND*%
X55940000Y-88500000D03*
%TD*%
D15*
%TO.P,D401,1,K*%
%TO.N,Net-(D401-K)*%
X118000000Y-103800000D03*
D16*
%TO.P,D401,2,A*%
%TO.N,+5V*%
X120540000Y-103800000D03*
%TD*%
D17*
%TO.P,C406,1*%
%TO.N,+5V*%
X53201700Y-69705000D03*
D18*
%TO.P,C406,2*%
%TO.N,GND*%
X53201700Y-74455000D03*
X53201700Y-84695000D03*
%TD*%
D10*
%TO.P,C403,1*%
%TO.N,+5V*%
X55940000Y-64880000D03*
%TO.P,C403,2*%
%TO.N,GND*%
X55940000Y-59880000D03*
%TD*%
%TO.P,R403,1*%
%TO.N,+5V*%
X92400000Y-71600000D03*
D12*
%TO.P,R403,2*%
%TO.N,Net-(J401-Pin_29)*%
X105100000Y-71600000D03*
%TD*%
D11*
%TO.P,U402,1*%
%TO.N,~{IDE_CS}*%
X74240000Y-87200000D03*
D12*
%TO.P,U402,2*%
%TO.N,~{WR}*%
X71700000Y-87200000D03*
%TO.P,U402,3*%
%TO.N,Net-(U402-Pad3)*%
X69160000Y-87200000D03*
%TO.P,U402,4*%
X66620000Y-87200000D03*
%TO.P,U402,5*%
%TO.N,GND*%
X64080000Y-87200000D03*
%TO.P,U402,6*%
%TO.N,Net-(J401-Pin_23)*%
X61540000Y-87200000D03*
%TO.P,U402,7,GND*%
%TO.N,GND*%
X59000000Y-87200000D03*
%TO.P,U402,8*%
%TO.N,Net-(J401-Pin_25)*%
X59000000Y-94820000D03*
%TO.P,U402,9*%
%TO.N,~{RD}*%
X61540000Y-94820000D03*
%TO.P,U402,10*%
%TO.N,Net-(U401A-Q)*%
X64080000Y-94820000D03*
%TO.P,U402,11*%
%TO.N,Net-(U401A-~{R})*%
X66620000Y-94820000D03*
%TO.P,U402,12*%
%TO.N,FI*%
X69160000Y-94820000D03*
%TO.P,U402,13*%
%TO.N,~{RD}*%
X71700000Y-94820000D03*
%TO.P,U402,14,VCC*%
%TO.N,+5V*%
X74240000Y-94820000D03*
%TD*%
D13*
%TO.P,P1,1,Pin_1*%
%TO.N,+5V*%
X59910000Y-44790000D03*
D14*
%TO.P,P1,2,Pin_2*%
X59910000Y-42250000D03*
%TO.P,P1,3,Pin_3*%
%TO.N,GND*%
X62450000Y-44790000D03*
%TO.P,P1,4,Pin_4*%
X62450000Y-42250000D03*
%TO.P,P1,5,Pin_5*%
%TO.N,~{RD}*%
X64990000Y-44790000D03*
%TO.P,P1,6,Pin_6*%
%TO.N,FI*%
X64990000Y-42250000D03*
%TO.P,P1,7,Pin_7*%
%TO.N,~{WR}*%
X67530000Y-44790000D03*
%TO.P,P1,8,Pin_8*%
%TO.N,~{RESET}*%
X67530000Y-42250000D03*
%TO.P,P1,9,Pin_9*%
%TO.N,E*%
X70070000Y-44790000D03*
%TO.P,P1,10,Pin_10*%
%TO.N,~{LIR}*%
X70070000Y-42250000D03*
%TO.P,P1,11,Pin_11*%
%TO.N,~{NMI}*%
X72610000Y-44790000D03*
%TO.P,P1,12,Pin_12*%
%TO.N,EXPSEL_O*%
X72610000Y-42250000D03*
%TO.P,P1,13,Pin_13*%
%TO.N,~{WAIT}*%
X75150000Y-44790000D03*
%TO.P,P1,14,Pin_14*%
%TO.N,EXPSEL_2*%
X75150000Y-42250000D03*
%TO.P,P1,15,Pin_15*%
%TO.N,~{INT0}*%
X77690000Y-44790000D03*
%TO.P,P1,16,Pin_16*%
%TO.N,~{HALT}*%
X77690000Y-42250000D03*
%TO.P,P1,17,Pin_17*%
%TO.N,ST*%
X80230000Y-44790000D03*
%TO.P,P1,18,Pin_18*%
%TO.N,EXPSEL_3*%
X80230000Y-42250000D03*
%TO.P,P1,19,Pin_19*%
%TO.N,/CF IDE Interface/A0*%
X82770000Y-44790000D03*
%TO.P,P1,20,Pin_20*%
%TO.N,/CF IDE Interface/A1*%
X82770000Y-42250000D03*
%TO.P,P1,21,Pin_21*%
%TO.N,~{TEND0}*%
X85310000Y-44790000D03*
%TO.P,P1,22,Pin_22*%
%TO.N,/CF IDE Interface/A2*%
X85310000Y-42250000D03*
%TO.P,P1,23,Pin_23*%
%TO.N,/CF IDE Interface/A3*%
X87850000Y-44790000D03*
%TO.P,P1,24,Pin_24*%
%TO.N,/CF IDE Interface/A4*%
X87850000Y-42250000D03*
%TO.P,P1,25,Pin_25*%
%TO.N,~{DREQ0}*%
X90390000Y-44790000D03*
%TO.P,P1,26,Pin_26*%
%TO.N,~{IOE}*%
X90390000Y-42250000D03*
%TO.P,P1,27,Pin_27*%
%TO.N,PIN_27*%
X92930000Y-44790000D03*
%TO.P,P1,28,Pin_28*%
%TO.N,RESET*%
X92930000Y-42250000D03*
%TO.P,P1,29,Pin_29*%
%TO.N,/CF IDE Interface/D7*%
X95470000Y-44790000D03*
%TO.P,P1,30,Pin_30*%
%TO.N,/CF IDE Interface/D6*%
X95470000Y-42250000D03*
%TO.P,P1,31,Pin_31*%
%TO.N,/CF IDE Interface/D5*%
X98010000Y-44790000D03*
%TO.P,P1,32,Pin_32*%
%TO.N,/CF IDE Interface/D3*%
X98010000Y-42250000D03*
%TO.P,P1,33,Pin_33*%
%TO.N,/CF IDE Interface/D4*%
X100550000Y-44790000D03*
%TO.P,P1,34,Pin_34*%
%TO.N,/CF IDE Interface/D2*%
X100550000Y-42250000D03*
%TO.P,P1,35,Pin_35*%
%TO.N,/CF IDE Interface/D1*%
X103090000Y-44790000D03*
%TO.P,P1,36,Pin_36*%
%TO.N,/CF IDE Interface/D0*%
X103090000Y-42250000D03*
%TO.P,P1,37,Pin_37*%
%TO.N,GND*%
X105630000Y-44790000D03*
%TO.P,P1,38,Pin_38*%
X105630000Y-42250000D03*
%TO.P,P1,39,Pin_39*%
%TO.N,PIN_39*%
X108170000Y-44790000D03*
%TO.P,P1,40,Pin_40*%
%TO.N,PIN_40*%
X108170000Y-42250000D03*
%TD*%
D10*
%TO.P,R401,1*%
%TO.N,+5V*%
X92400000Y-75400000D03*
D12*
%TO.P,R401,2*%
%TO.N,Net-(J401-Pin_34)*%
X105100000Y-75400000D03*
%TD*%
D10*
%TO.P,R402,1*%
%TO.N,+5V*%
X92400000Y-79200000D03*
D12*
%TO.P,R402,2*%
%TO.N,Net-(J401-Pin_38)*%
X105100000Y-79200000D03*
%TD*%
D10*
%TO.P,R405,1*%
%TO.N,Net-(D402-K)*%
X109000000Y-85900000D03*
D12*
%TO.P,R405,2*%
%TO.N,GND*%
X109000000Y-98600000D03*
%TD*%
D10*
%TO.P,C405,1*%
%TO.N,+5V*%
X113000000Y-72900000D03*
%TO.P,C405,2*%
%TO.N,GND*%
X113000000Y-67900000D03*
%TD*%
D19*
%TO.N,GND*%
X105800000Y-94000000D03*
%TO.N,FI*%
X56646600Y-95492200D03*
%TO.N,~{RD}*%
X84000000Y-57300000D03*
%TO.N,Net-(U401A-Q)*%
X76900000Y-94886800D03*
%TO.N,Net-(U401B-Q)*%
X63106600Y-91100000D03*
%TD*%
D20*
%TO.N,Net-(D401-K)*%
X112800000Y-102500000D02*
X114100000Y-103800000D01*
X112800000Y-98600000D02*
X112800000Y-102500000D01*
X114100000Y-103800000D02*
X118000000Y-103800000D01*
D21*
%TO.N,GND*%
X113200000Y-94000000D02*
X105800000Y-94000000D01*
X117400000Y-98200000D02*
X113200000Y-94000000D01*
X119900000Y-98200000D02*
X117400000Y-98200000D01*
X121200000Y-96900000D02*
X119900000Y-98200000D01*
D20*
X113600000Y-71500000D02*
X113000000Y-70900000D01*
X118660000Y-71500000D02*
X113600000Y-71500000D01*
X113000000Y-70900000D02*
X113000000Y-67900000D01*
D22*
%TO.N,+5V*%
X121200000Y-71500000D02*
X124400000Y-71500000D01*
X110340000Y-103800000D02*
X110340000Y-109460000D01*
X55940000Y-93500000D02*
X50100000Y-93500000D01*
X50100000Y-64800000D02*
X50100000Y-69700000D01*
X50100000Y-38350000D02*
X50100000Y-64800000D01*
X110340000Y-109460000D02*
X110200000Y-109600000D01*
D20*
X120540000Y-103800000D02*
X124400000Y-103800000D01*
D22*
X124400000Y-103800000D02*
X124400000Y-71500000D01*
X89288630Y-71600000D02*
X92400000Y-71600000D01*
X50100000Y-109600000D02*
X110200000Y-109600000D01*
D23*
X59916000Y-44797500D02*
X59910000Y-44791500D01*
D22*
X83700000Y-64880000D02*
X83700000Y-66011370D01*
X59910000Y-38460000D02*
X59800000Y-38350000D01*
X50100000Y-93500000D02*
X50100000Y-109600000D01*
X59916000Y-42256000D02*
X59910000Y-42250000D01*
X50105000Y-69705000D02*
X50100000Y-69700000D01*
X53201700Y-69705000D02*
X50105000Y-69705000D01*
X59916000Y-49879000D02*
X59916000Y-47339000D01*
X94400000Y-87200000D02*
X91860000Y-89740000D01*
X91860000Y-89740000D02*
X91860000Y-94820000D01*
X110200000Y-109600000D02*
X124400000Y-109600000D01*
X59800000Y-38350000D02*
X50100000Y-38350000D01*
X124400000Y-71500000D02*
X124400000Y-38350000D01*
D20*
X121200000Y-71500000D02*
X119950000Y-72750000D01*
D22*
X50100000Y-69700000D02*
X50100000Y-93500000D01*
D20*
X113150000Y-72750000D02*
X113000000Y-72900000D01*
X119950000Y-72750000D02*
X113150000Y-72750000D01*
D22*
X59916000Y-47339000D02*
X59916000Y-44797500D01*
D23*
X59910000Y-44791500D02*
X59910000Y-44790000D01*
D22*
X83700000Y-66011370D02*
X89288630Y-71600000D01*
X124400000Y-109600000D02*
X124400000Y-103800000D01*
X59916000Y-44797500D02*
X59916000Y-42256000D01*
X59910000Y-42250000D02*
X59910000Y-38460000D01*
X50180000Y-64880000D02*
X50100000Y-64800000D01*
X124400000Y-38350000D02*
X59800000Y-38350000D01*
X55940000Y-64880000D02*
X50180000Y-64880000D01*
D23*
%TO.N,Net-(J401-Pin_23)*%
X123650000Y-98450000D02*
X123650000Y-78950000D01*
X116000000Y-99800000D02*
X122300000Y-99800000D01*
X106700000Y-97587200D02*
X108157200Y-96130000D01*
X108157200Y-96130000D02*
X112330000Y-96130000D01*
X57846600Y-95375000D02*
X60058800Y-97587200D01*
X122500000Y-77800000D02*
X119880000Y-77800000D01*
X57846600Y-90893400D02*
X57846600Y-95375000D01*
X112330000Y-96130000D02*
X116000000Y-99800000D01*
X61540000Y-87200000D02*
X57846600Y-90893400D01*
X119880000Y-77800000D02*
X118660000Y-76580000D01*
X123650000Y-78950000D02*
X122500000Y-77800000D01*
X60058800Y-97587200D02*
X106700000Y-97587200D01*
X122300000Y-99800000D02*
X123650000Y-98450000D01*
%TO.N,/CF IDE Interface/BD6*%
X89300000Y-66200000D02*
X93500000Y-62000000D01*
X110400000Y-62000000D02*
X118660000Y-53740000D01*
X93500000Y-62000000D02*
X110400000Y-62000000D01*
X118660000Y-53740000D02*
X118660000Y-53720000D01*
%TO.N,/CF IDE Interface/A1*%
X82776000Y-47339000D02*
X81500000Y-48615000D01*
X105351800Y-76800000D02*
X117831800Y-89280000D01*
X81500000Y-48615000D02*
X81500000Y-51900000D01*
X90776800Y-76800000D02*
X105351800Y-76800000D01*
X117831800Y-89280000D02*
X118660000Y-89280000D01*
X74424700Y-56700000D02*
X73016700Y-58108000D01*
X81500000Y-51900000D02*
X76700000Y-56700000D01*
X73016700Y-58108000D02*
X73016700Y-59039900D01*
X76700000Y-56700000D02*
X74424700Y-56700000D01*
X73016700Y-59039900D02*
X90776800Y-76800000D01*
%TO.N,Net-(J401-Pin_25)*%
X61219900Y-97039900D02*
X106540194Y-97039900D01*
X122430000Y-82930000D02*
X120756600Y-82930000D01*
X123150000Y-83650000D02*
X122430000Y-82930000D01*
X107950094Y-95630000D02*
X113130000Y-95630000D01*
X119900000Y-80360000D02*
X118660000Y-79120000D01*
X113130000Y-95630000D02*
X116700000Y-99200000D01*
X120756600Y-82930000D02*
X119900000Y-82073400D01*
X121600000Y-99200000D02*
X123150000Y-97650000D01*
X119900000Y-82073400D02*
X119900000Y-80360000D01*
X116700000Y-99200000D02*
X121600000Y-99200000D01*
X106540194Y-97039900D02*
X107950094Y-95630000D01*
X123150000Y-97650000D02*
X123150000Y-83650000D01*
X59000000Y-94820000D02*
X61219900Y-97039900D01*
%TO.N,/CF IDE Interface/A2*%
X86555000Y-46100000D02*
X85316000Y-47339000D01*
X78400000Y-58025000D02*
X84325000Y-52100000D01*
X88000000Y-52100000D02*
X89100000Y-51000000D01*
X105500000Y-73600000D02*
X88700000Y-73600000D01*
X88700000Y-73600000D02*
X78400000Y-63300000D01*
X84325000Y-52100000D02*
X88000000Y-52100000D01*
X122500000Y-90520000D02*
X122500000Y-86202943D01*
X121200000Y-91820000D02*
X122500000Y-90520000D01*
X117300000Y-85400000D02*
X105500000Y-73600000D01*
X88457057Y-46100000D02*
X86555000Y-46100000D01*
X89100000Y-46742943D02*
X88457057Y-46100000D01*
X122500000Y-86202943D02*
X121697057Y-85400000D01*
X121697057Y-85400000D02*
X117300000Y-85400000D01*
X78400000Y-63300000D02*
X78400000Y-58025000D01*
X89100000Y-51000000D02*
X89100000Y-46742943D01*
%TO.N,Net-(J401-Pin_38)*%
X105100000Y-79200000D02*
X105100000Y-80351700D01*
X117838300Y-93090000D02*
X119930000Y-93090000D01*
X119930000Y-93090000D02*
X121200000Y-94360000D01*
X105100000Y-80351700D02*
X117838300Y-93090000D01*
%TO.N,~{LIR}*%
X68806000Y-48609000D02*
X67052300Y-48609000D01*
X70076000Y-47339000D02*
X68806000Y-48609000D01*
X64040000Y-58580000D02*
X64040000Y-57428300D01*
X66266000Y-49395300D02*
X66266000Y-55202300D01*
X66266000Y-55202300D02*
X64040000Y-57428300D01*
X67052300Y-48609000D02*
X66266000Y-49395300D01*
%TO.N,~{RESET}*%
X68751400Y-46123600D02*
X67536000Y-47339000D01*
X68751400Y-44271543D02*
X69572943Y-43450000D01*
X68751400Y-46123600D02*
X68751400Y-44271543D01*
X69572943Y-43450000D02*
X113470000Y-43450000D01*
X113470000Y-43450000D02*
X118660000Y-48640000D01*
%TO.N,EXPSEL_O*%
X118000000Y-67700000D02*
X119900000Y-67700000D01*
X119900000Y-67700000D02*
X119930000Y-67670000D01*
X73810000Y-41050000D02*
X72610000Y-42250000D01*
X116200000Y-65900000D02*
X118000000Y-67700000D01*
X107080000Y-66200000D02*
X108231700Y-67351700D01*
X119930000Y-67670000D02*
X119930000Y-47712600D01*
X111700000Y-65900000D02*
X116200000Y-65900000D01*
X119930000Y-47712600D02*
X113267400Y-41050000D01*
X113267400Y-41050000D02*
X73810000Y-41050000D01*
X110248300Y-67351700D02*
X111700000Y-65900000D01*
X108231700Y-67351700D02*
X110248300Y-67351700D01*
%TO.N,FI*%
X62100000Y-57200000D02*
X58200000Y-57200000D01*
X57091800Y-58308200D02*
X57091800Y-95047000D01*
X63794300Y-55505700D02*
X62100000Y-57200000D01*
X58200000Y-57200000D02*
X57091800Y-58308200D01*
X57091800Y-95047000D02*
X56646600Y-95492200D01*
X70326800Y-95986800D02*
X93233200Y-95986800D01*
X63794300Y-48540700D02*
X63794300Y-55505700D01*
X69160000Y-94820000D02*
X70326800Y-95986800D01*
X94400000Y-89740000D02*
X94400000Y-94820000D01*
X93233200Y-95986800D02*
X94400000Y-94820000D01*
X64996000Y-47339000D02*
X63794300Y-48540700D01*
X96940000Y-87200000D02*
X94400000Y-89740000D01*
%TO.N,~{WR}*%
X70330000Y-52673000D02*
X70330000Y-85830000D01*
X67536000Y-49879000D02*
X70330000Y-52673000D01*
X70330000Y-85830000D02*
X71700000Y-87200000D01*
%TO.N,~{RD}*%
X62800000Y-57638350D02*
X62800000Y-89200000D01*
X99480000Y-87200000D02*
X97777500Y-85497500D01*
X70509400Y-93629400D02*
X71700000Y-94820000D01*
X87087300Y-60800000D02*
X107400000Y-60800000D01*
X84000000Y-57712700D02*
X87087300Y-60800000D01*
X64996000Y-49879000D02*
X64996000Y-55442350D01*
X97777500Y-85497500D02*
X81022500Y-85497500D01*
X107400000Y-60800000D02*
X109620000Y-58580000D01*
X62730600Y-93629400D02*
X70509400Y-93629400D01*
X64996000Y-55442350D02*
X62800000Y-57638350D01*
X62800000Y-89200000D02*
X61540000Y-90460000D01*
X61540000Y-90460000D02*
X61540000Y-94820000D01*
X61540000Y-94820000D02*
X62730600Y-93629400D01*
X81022500Y-85497500D02*
X71700000Y-94820000D01*
X84000000Y-57300000D02*
X84000000Y-57712700D01*
%TO.N,/CF IDE Interface/BD1*%
X102000000Y-66200000D02*
X103167900Y-65032100D01*
X118620000Y-66420000D02*
X118660000Y-66420000D01*
X117232100Y-65032100D02*
X118620000Y-66420000D01*
X103167900Y-65032100D02*
X117232100Y-65032100D01*
%TO.N,Net-(J401-Pin_34)*%
X119930000Y-88010000D02*
X121200000Y-89280000D01*
X105100000Y-75400000D02*
X105603900Y-75400000D01*
X118213900Y-88010000D02*
X119930000Y-88010000D01*
X105603900Y-75400000D02*
X118213900Y-88010000D01*
%TO.N,/CF IDE Interface/BD0*%
X104600000Y-66200000D02*
X104540000Y-66200000D01*
X115700000Y-66600000D02*
X118060000Y-68960000D01*
X104540000Y-66200000D02*
X106340000Y-68000000D01*
X118060000Y-68960000D02*
X118660000Y-68960000D01*
X106340000Y-68000000D02*
X110800000Y-68000000D01*
X110800000Y-68000000D02*
X112200000Y-66600000D01*
X112200000Y-66600000D02*
X115700000Y-66600000D01*
%TO.N,Net-(J401-Pin_29)*%
X117700000Y-84200000D02*
X118660000Y-84200000D01*
X105100000Y-71600000D02*
X117700000Y-84200000D01*
%TO.N,/CF IDE Interface/BD3*%
X99326900Y-63793100D02*
X96920000Y-66200000D01*
X116206050Y-63793100D02*
X99326900Y-63793100D01*
X118659150Y-61340000D02*
X116206050Y-63793100D01*
X118660000Y-61340000D02*
X118659150Y-61340000D01*
%TO.N,/CF IDE Interface/BD7*%
X91560000Y-61400000D02*
X108897400Y-61400000D01*
X118660000Y-51637400D02*
X118660000Y-51180000D01*
X108897400Y-61400000D02*
X118660000Y-51637400D01*
X86760000Y-66200000D02*
X91560000Y-61400000D01*
%TO.N,/CF IDE Interface/BD4*%
X114300000Y-63200000D02*
X118660000Y-58840000D01*
X94380000Y-66200000D02*
X94380000Y-66120000D01*
X118660000Y-58840000D02*
X118660000Y-58800000D01*
X97300000Y-63200000D02*
X114300000Y-63200000D01*
X94380000Y-66120000D02*
X97300000Y-63200000D01*
%TO.N,/CF IDE Interface/BD2*%
X118660000Y-63880000D02*
X118161900Y-64378100D01*
X101281900Y-64378100D02*
X99460000Y-66200000D01*
X118161900Y-64378100D02*
X101281900Y-64378100D01*
%TO.N,/CF IDE Interface/BD5*%
X91840000Y-66200000D02*
X95440000Y-62600000D01*
X95440000Y-62600000D02*
X112309150Y-62600000D01*
X112309150Y-62600000D02*
X118649150Y-56260000D01*
X118649150Y-56260000D02*
X118660000Y-56260000D01*
%TO.N,/CF IDE Interface/A3*%
X87775400Y-49879000D02*
X86254400Y-51400000D01*
X83920000Y-51400000D02*
X76740000Y-58580000D01*
X86254400Y-51400000D02*
X83920000Y-51400000D01*
X87856000Y-49879000D02*
X87775400Y-49879000D01*
%TO.N,/CF IDE Interface/D1*%
X103096000Y-49879000D02*
X103096000Y-57136000D01*
X103096000Y-57136000D02*
X104540000Y-58580000D01*
%TO.N,/CF IDE Interface/D2*%
X101757700Y-48540700D02*
X101757700Y-58337700D01*
X101757700Y-58337700D02*
X102000000Y-58580000D01*
X100556000Y-47339000D02*
X101757700Y-48540700D01*
%TO.N,/CF IDE Interface/A4*%
X75351700Y-57428300D02*
X74200000Y-58580000D01*
X84046000Y-49435600D02*
X84046000Y-50311400D01*
X84046000Y-50311400D02*
X76929100Y-57428300D01*
X76929100Y-57428300D02*
X75351700Y-57428300D01*
X86586000Y-48609000D02*
X84872600Y-48609000D01*
X87856000Y-47339000D02*
X86586000Y-48609000D01*
X84872600Y-48609000D02*
X84046000Y-49435600D01*
%TO.N,/CF IDE Interface/D7*%
X93100000Y-59600000D02*
X93100000Y-57304300D01*
X89300000Y-58580000D02*
X90720000Y-60000000D01*
X95476000Y-54928300D02*
X95476000Y-49879000D01*
X92700000Y-60000000D02*
X93100000Y-59600000D01*
X90720000Y-60000000D02*
X92700000Y-60000000D01*
X93100000Y-57304300D02*
X95476000Y-54928300D01*
%TO.N,/CF IDE Interface/D6*%
X91840000Y-57428300D02*
X91840000Y-58580000D01*
X94274300Y-54994000D02*
X91840000Y-57428300D01*
X95476000Y-47339000D02*
X94274300Y-48540700D01*
X94274300Y-48540700D02*
X94274300Y-54994000D01*
%TO.N,/CF IDE Interface/D3*%
X99217700Y-58337700D02*
X99460000Y-58580000D01*
X99217700Y-48540700D02*
X99217700Y-58337700D01*
X98016000Y-47339000D02*
X99217700Y-48540700D01*
%TO.N,/CF IDE Interface/D5*%
X98016000Y-49879000D02*
X98016000Y-54984000D01*
X98016000Y-54984000D02*
X94420000Y-58580000D01*
X94420000Y-58580000D02*
X94380000Y-58580000D01*
%TO.N,Net-(U401A-~{R})*%
X68292800Y-96492800D02*
X66620000Y-94820000D01*
X95670000Y-95630000D02*
X94807200Y-96492800D01*
X102020000Y-87200000D02*
X95670000Y-93550000D01*
X94807200Y-96492800D02*
X68292800Y-96492800D01*
X95670000Y-93550000D02*
X95670000Y-95630000D01*
%TO.N,Net-(U401A-Q)*%
X76900000Y-94886800D02*
X77413200Y-95400000D01*
X84000000Y-95400000D02*
X91860000Y-87540000D01*
X91860000Y-87540000D02*
X91860000Y-87200000D01*
X77413200Y-95400000D02*
X84000000Y-95400000D01*
%TO.N,Net-(U401B-Q)*%
X65300000Y-64200000D02*
X65300000Y-88906600D01*
X69120000Y-60380000D02*
X65300000Y-64200000D01*
X69120000Y-58580000D02*
X69120000Y-60380000D01*
X65300000Y-88906600D02*
X63106600Y-91100000D01*
%TO.N,Net-(U402-Pad3)*%
X66620000Y-87200000D02*
X69160000Y-87200000D01*
%TO.N,~{IDE_CS}*%
X118660000Y-94360000D02*
X117560000Y-94360000D01*
X117560000Y-94360000D02*
X110700000Y-87500000D01*
X106100000Y-87500000D02*
X103595800Y-84995800D01*
X103595800Y-84995800D02*
X76444200Y-84995800D01*
X110700000Y-87500000D02*
X106100000Y-87500000D01*
X76444200Y-84995800D02*
X74240000Y-87200000D01*
D20*
%TO.N,Net-(J402-Pin_5)*%
X69120000Y-72200000D02*
X69060000Y-72260000D01*
%TO.N,Net-(J402-Pin_1)*%
X74200000Y-72200000D02*
X74140000Y-72260000D01*
%TO.N,Net-(J402-Pin_3)*%
X71660000Y-72200000D02*
X71600000Y-72260000D01*
%TO.N,Net-(J402-Pin_7)*%
X66580000Y-72200000D02*
X66520000Y-72260000D01*
%TD*%
%TA.AperFunction,Conductor*%
%TO.N,+5V*%
G36*
X103342031Y-85665985D02*
G01*
X103362673Y-85682619D01*
X105685325Y-88005272D01*
X105685332Y-88005278D01*
X105791863Y-88076459D01*
X105791865Y-88076460D01*
X105791874Y-88076466D01*
X105838209Y-88095658D01*
X105838210Y-88095659D01*
X105910251Y-88125499D01*
X105910256Y-88125501D01*
X105910260Y-88125501D01*
X105910261Y-88125502D01*
X106035928Y-88150500D01*
X106035931Y-88150500D01*
X110379192Y-88150500D01*
X110446231Y-88170185D01*
X110466873Y-88186819D01*
X117145325Y-94865272D01*
X117145332Y-94865278D01*
X117210301Y-94908688D01*
X117210303Y-94908689D01*
X117210306Y-94908691D01*
X117251873Y-94936465D01*
X117370256Y-94985501D01*
X117413289Y-94994061D01*
X117475200Y-95026445D01*
X117490673Y-95044554D01*
X117621505Y-95231401D01*
X117621506Y-95231402D01*
X117788597Y-95398493D01*
X117788603Y-95398498D01*
X117974158Y-95528425D01*
X118017783Y-95583002D01*
X118024977Y-95652500D01*
X117993454Y-95714855D01*
X117974158Y-95731575D01*
X117788597Y-95861505D01*
X117621505Y-96028597D01*
X117485965Y-96222169D01*
X117485964Y-96222171D01*
X117386098Y-96436335D01*
X117386094Y-96436344D01*
X117324938Y-96664586D01*
X117324936Y-96664596D01*
X117316015Y-96766565D01*
X117290562Y-96831634D01*
X117233971Y-96872612D01*
X117164209Y-96876490D01*
X117104806Y-96843438D01*
X113678421Y-93417052D01*
X113678414Y-93417046D01*
X113593419Y-93360255D01*
X113593418Y-93360255D01*
X113555500Y-93334919D01*
X113555488Y-93334912D01*
X113418917Y-93278343D01*
X113418907Y-93278340D01*
X113273920Y-93249500D01*
X113273918Y-93249500D01*
X106865624Y-93249500D01*
X106798585Y-93229815D01*
X106764048Y-93196622D01*
X106761598Y-93193123D01*
X106692598Y-93124123D01*
X106606877Y-93038402D01*
X106427639Y-92912898D01*
X106427640Y-92912898D01*
X106427638Y-92912897D01*
X106310967Y-92858493D01*
X106229330Y-92820425D01*
X106229326Y-92820424D01*
X106229322Y-92820422D01*
X106017977Y-92763793D01*
X105800002Y-92744723D01*
X105799998Y-92744723D01*
X105654682Y-92757436D01*
X105582023Y-92763793D01*
X105582020Y-92763793D01*
X105370677Y-92820422D01*
X105370668Y-92820426D01*
X105172361Y-92912898D01*
X105172357Y-92912900D01*
X104993121Y-93038402D01*
X104838402Y-93193121D01*
X104712900Y-93372357D01*
X104712898Y-93372361D01*
X104641384Y-93525723D01*
X104623658Y-93563738D01*
X104620426Y-93570668D01*
X104620422Y-93570677D01*
X104563793Y-93782020D01*
X104563793Y-93782024D01*
X104545435Y-93991867D01*
X104544723Y-94000000D01*
X104559378Y-94167517D01*
X104563793Y-94217975D01*
X104563793Y-94217979D01*
X104620422Y-94429322D01*
X104620424Y-94429326D01*
X104620425Y-94429330D01*
X104635448Y-94461547D01*
X104712897Y-94627638D01*
X104714646Y-94630136D01*
X104838402Y-94806877D01*
X104993123Y-94961598D01*
X105172361Y-95087102D01*
X105370670Y-95179575D01*
X105582023Y-95236207D01*
X105764926Y-95252208D01*
X105799998Y-95255277D01*
X105800000Y-95255277D01*
X105800002Y-95255277D01*
X105828254Y-95252805D01*
X106017977Y-95236207D01*
X106229330Y-95179575D01*
X106427639Y-95087102D01*
X106606877Y-94961598D01*
X106761598Y-94806877D01*
X106764050Y-94803374D01*
X106818628Y-94759751D01*
X106865624Y-94750500D01*
X107778294Y-94750500D01*
X107845333Y-94770185D01*
X107891088Y-94822989D01*
X107901032Y-94892147D01*
X107872007Y-94955703D01*
X107813229Y-94993477D01*
X107802486Y-94996117D01*
X107760355Y-95004497D01*
X107760349Y-95004499D01*
X107641968Y-95053534D01*
X107535420Y-95124726D01*
X107535419Y-95124727D01*
X106307067Y-96353081D01*
X106245744Y-96386566D01*
X106219386Y-96389400D01*
X96129909Y-96389400D01*
X96062870Y-96369715D01*
X96017115Y-96316911D01*
X96007171Y-96247753D01*
X96036196Y-96184197D01*
X96042228Y-96177719D01*
X96175271Y-96044675D01*
X96175276Y-96044670D01*
X96191001Y-96021134D01*
X96244612Y-95976329D01*
X96313937Y-95967620D01*
X96346509Y-95977642D01*
X96493673Y-96046265D01*
X96493682Y-96046269D01*
X96689999Y-96098872D01*
X96690000Y-96098871D01*
X96690000Y-95135686D01*
X96694394Y-95140080D01*
X96785606Y-95192741D01*
X96887339Y-95220000D01*
X96992661Y-95220000D01*
X97094394Y-95192741D01*
X97185606Y-95140080D01*
X97190000Y-95135686D01*
X97190000Y-96098872D01*
X97386317Y-96046269D01*
X97386326Y-96046265D01*
X97592482Y-95950134D01*
X97778820Y-95819657D01*
X97939657Y-95658820D01*
X98070132Y-95472484D01*
X98097341Y-95414134D01*
X98143513Y-95361695D01*
X98210707Y-95342542D01*
X98277588Y-95362757D01*
X98322106Y-95414133D01*
X98349431Y-95472732D01*
X98349432Y-95472734D01*
X98479954Y-95659141D01*
X98640858Y-95820045D01*
X98640861Y-95820047D01*
X98827266Y-95950568D01*
X99033504Y-96046739D01*
X99253308Y-96105635D01*
X99415230Y-96119801D01*
X99479998Y-96125468D01*
X99480000Y-96125468D01*
X99480002Y-96125468D01*
X99536673Y-96120509D01*
X99706692Y-96105635D01*
X99926496Y-96046739D01*
X100132734Y-95950568D01*
X100319139Y-95820047D01*
X100480047Y-95659139D01*
X100610568Y-95472734D01*
X100637895Y-95414129D01*
X100684064Y-95361695D01*
X100751257Y-95342542D01*
X100818139Y-95362757D01*
X100862657Y-95414133D01*
X100889865Y-95472482D01*
X101020342Y-95658820D01*
X101181179Y-95819657D01*
X101367517Y-95950134D01*
X101573673Y-96046265D01*
X101573682Y-96046269D01*
X101769999Y-96098872D01*
X101770000Y-96098871D01*
X101770000Y-95135686D01*
X101774394Y-95140080D01*
X101865606Y-95192741D01*
X101967339Y-95220000D01*
X102072661Y-95220000D01*
X102174394Y-95192741D01*
X102265606Y-95140080D01*
X102270000Y-95135686D01*
X102270000Y-96098872D01*
X102466317Y-96046269D01*
X102466326Y-96046265D01*
X102672482Y-95950134D01*
X102858820Y-95819657D01*
X103019657Y-95658820D01*
X103150134Y-95472482D01*
X103246265Y-95266326D01*
X103246269Y-95266317D01*
X103298872Y-95070000D01*
X102335686Y-95070000D01*
X102340080Y-95065606D01*
X102392741Y-94974394D01*
X102420000Y-94872661D01*
X102420000Y-94767339D01*
X102392741Y-94665606D01*
X102340080Y-94574394D01*
X102335686Y-94570000D01*
X103298872Y-94570000D01*
X103298872Y-94569999D01*
X103246269Y-94373682D01*
X103246265Y-94373673D01*
X103150134Y-94167517D01*
X103019657Y-93981179D01*
X102858820Y-93820342D01*
X102672482Y-93689865D01*
X102466328Y-93593734D01*
X102270000Y-93541127D01*
X102270000Y-94504314D01*
X102265606Y-94499920D01*
X102174394Y-94447259D01*
X102072661Y-94420000D01*
X101967339Y-94420000D01*
X101865606Y-94447259D01*
X101774394Y-94499920D01*
X101770000Y-94504314D01*
X101770000Y-93541127D01*
X101573671Y-93593734D01*
X101367517Y-93689865D01*
X101181179Y-93820342D01*
X101020342Y-93981179D01*
X100889867Y-94167515D01*
X100862657Y-94225867D01*
X100816484Y-94278306D01*
X100749290Y-94297457D01*
X100682409Y-94277241D01*
X100637893Y-94225865D01*
X100610685Y-94167518D01*
X100610568Y-94167266D01*
X100480047Y-93980861D01*
X100480045Y-93980858D01*
X100319141Y-93819954D01*
X100132734Y-93689432D01*
X100132732Y-93689431D01*
X99926497Y-93593261D01*
X99926488Y-93593258D01*
X99706697Y-93534366D01*
X99706693Y-93534365D01*
X99706692Y-93534365D01*
X99706691Y-93534364D01*
X99706686Y-93534364D01*
X99480002Y-93514532D01*
X99479998Y-93514532D01*
X99253313Y-93534364D01*
X99253302Y-93534366D01*
X99033511Y-93593258D01*
X99033502Y-93593261D01*
X98827267Y-93689431D01*
X98827265Y-93689432D01*
X98640858Y-93819954D01*
X98479954Y-93980858D01*
X98349433Y-94167264D01*
X98349432Y-94167266D01*
X98349315Y-94167518D01*
X98322106Y-94225867D01*
X98275933Y-94278306D01*
X98208739Y-94297457D01*
X98141858Y-94277241D01*
X98097342Y-94225865D01*
X98070135Y-94167520D01*
X98070134Y-94167518D01*
X97939657Y-93981179D01*
X97778820Y-93820342D01*
X97592482Y-93689865D01*
X97386328Y-93593734D01*
X97190000Y-93541127D01*
X97190000Y-94504314D01*
X97185606Y-94499920D01*
X97094394Y-94447259D01*
X96992661Y-94420000D01*
X96887339Y-94420000D01*
X96785606Y-94447259D01*
X96694394Y-94499920D01*
X96690000Y-94504314D01*
X96690000Y-93501306D01*
X96709685Y-93434267D01*
X96726315Y-93413629D01*
X101603126Y-88536817D01*
X101664449Y-88503333D01*
X101690807Y-88500499D01*
X102867871Y-88500499D01*
X102867872Y-88500499D01*
X102927483Y-88494091D01*
X103062331Y-88443796D01*
X103177546Y-88357546D01*
X103263796Y-88242331D01*
X103314091Y-88107483D01*
X103320500Y-88047873D01*
X103320499Y-86352128D01*
X103314091Y-86292517D01*
X103304934Y-86267967D01*
X103263797Y-86157671D01*
X103263793Y-86157664D01*
X103177547Y-86042455D01*
X103177544Y-86042452D01*
X103062335Y-85956206D01*
X103062328Y-85956202D01*
X102927482Y-85905908D01*
X102927483Y-85905908D01*
X102867883Y-85899501D01*
X102867881Y-85899500D01*
X102867873Y-85899500D01*
X102867864Y-85899500D01*
X101172129Y-85899500D01*
X101172123Y-85899501D01*
X101112516Y-85905908D01*
X100977671Y-85956202D01*
X100977664Y-85956206D01*
X100862455Y-86042452D01*
X100862452Y-86042455D01*
X100776206Y-86157664D01*
X100776202Y-86157671D01*
X100725908Y-86292516D01*
X100722137Y-86327596D01*
X100695398Y-86392146D01*
X100638006Y-86431994D01*
X100568180Y-86434487D01*
X100508092Y-86398834D01*
X100497273Y-86385462D01*
X100480045Y-86360858D01*
X100319141Y-86199954D01*
X100132734Y-86069432D01*
X100132732Y-86069431D01*
X99926497Y-85973261D01*
X99926488Y-85973258D01*
X99706697Y-85914366D01*
X99706693Y-85914365D01*
X99706692Y-85914365D01*
X99706691Y-85914364D01*
X99706686Y-85914364D01*
X99480002Y-85894532D01*
X99479998Y-85894532D01*
X99253313Y-85914364D01*
X99253299Y-85914367D01*
X99212834Y-85925209D01*
X99142984Y-85923545D01*
X99093061Y-85893115D01*
X99057927Y-85857981D01*
X99024442Y-85796658D01*
X99029426Y-85726966D01*
X99071298Y-85671033D01*
X99136762Y-85646616D01*
X99145608Y-85646300D01*
X103274992Y-85646300D01*
X103342031Y-85665985D01*
G37*
%TD.AperFunction*%
%TA.AperFunction,Conductor*%
G36*
X85760490Y-86167685D02*
G01*
X85806245Y-86220489D01*
X85816189Y-86289647D01*
X85787164Y-86353203D01*
X85781132Y-86359681D01*
X85779954Y-86360858D01*
X85649432Y-86547265D01*
X85649431Y-86547267D01*
X85553261Y-86753502D01*
X85553258Y-86753511D01*
X85494366Y-86973302D01*
X85494364Y-86973313D01*
X85474532Y-87199998D01*
X85474532Y-87200001D01*
X85494364Y-87426686D01*
X85494366Y-87426697D01*
X85553258Y-87646488D01*
X85553261Y-87646497D01*
X85649431Y-87852732D01*
X85649432Y-87852734D01*
X85779954Y-88039141D01*
X85940858Y-88200045D01*
X85940861Y-88200047D01*
X86127266Y-88330568D01*
X86333504Y-88426739D01*
X86333509Y-88426740D01*
X86333511Y-88426741D01*
X86372799Y-88437268D01*
X86553308Y-88485635D01*
X86715230Y-88499801D01*
X86779998Y-88505468D01*
X86780000Y-88505468D01*
X86780002Y-88505468D01*
X86842522Y-88499998D01*
X87006692Y-88485635D01*
X87226496Y-88426739D01*
X87432734Y-88330568D01*
X87619139Y-88200047D01*
X87780047Y-88039139D01*
X87910568Y-87852734D01*
X87937618Y-87794724D01*
X87983790Y-87742285D01*
X88050983Y-87723133D01*
X88117865Y-87743348D01*
X88162382Y-87794725D01*
X88189429Y-87852728D01*
X88189432Y-87852734D01*
X88319954Y-88039141D01*
X88480858Y-88200045D01*
X88480861Y-88200047D01*
X88667266Y-88330568D01*
X88873504Y-88426739D01*
X88873509Y-88426740D01*
X88873511Y-88426741D01*
X88912799Y-88437268D01*
X89093308Y-88485635D01*
X89255230Y-88499801D01*
X89319998Y-88505468D01*
X89320000Y-88505468D01*
X89320002Y-88505468D01*
X89382522Y-88499998D01*
X89546692Y-88485635D01*
X89711291Y-88441531D01*
X89781141Y-88443194D01*
X89839003Y-88482357D01*
X89866507Y-88546585D01*
X89854920Y-88615487D01*
X89831065Y-88648987D01*
X85183821Y-93296230D01*
X85122498Y-93329715D01*
X85052806Y-93324731D01*
X84996873Y-93282859D01*
X84976365Y-93240643D01*
X84926268Y-93053679D01*
X84926264Y-93053668D01*
X84830136Y-92847521D01*
X84830132Y-92847513D01*
X84779025Y-92774526D01*
X84100000Y-93453552D01*
X84100000Y-93447339D01*
X84072741Y-93345606D01*
X84020080Y-93254394D01*
X83945606Y-93179920D01*
X83854394Y-93127259D01*
X83752661Y-93100000D01*
X83746448Y-93100000D01*
X84425472Y-92420974D01*
X84352478Y-92369863D01*
X84146331Y-92273735D01*
X84146317Y-92273730D01*
X83926610Y-92214860D01*
X83926599Y-92214858D01*
X83700002Y-92195034D01*
X83699998Y-92195034D01*
X83473400Y-92214858D01*
X83473389Y-92214860D01*
X83253682Y-92273730D01*
X83253673Y-92273734D01*
X83047516Y-92369866D01*
X83047512Y-92369868D01*
X82974526Y-92420973D01*
X82974526Y-92420974D01*
X83653553Y-93100000D01*
X83647339Y-93100000D01*
X83545606Y-93127259D01*
X83454394Y-93179920D01*
X83379920Y-93254394D01*
X83327259Y-93345606D01*
X83300000Y-93447339D01*
X83300000Y-93453552D01*
X82620974Y-92774526D01*
X82620973Y-92774526D01*
X82569868Y-92847512D01*
X82569866Y-92847516D01*
X82473734Y-93053673D01*
X82473730Y-93053682D01*
X82414860Y-93273389D01*
X82414858Y-93273400D01*
X82395034Y-93499997D01*
X82395034Y-93500002D01*
X82414858Y-93726599D01*
X82414860Y-93726610D01*
X82473730Y-93946317D01*
X82473735Y-93946331D01*
X82569863Y-94152478D01*
X82620974Y-94225472D01*
X83300000Y-93546446D01*
X83300000Y-93552661D01*
X83327259Y-93654394D01*
X83379920Y-93745606D01*
X83454394Y-93820080D01*
X83545606Y-93872741D01*
X83647339Y-93900000D01*
X83653553Y-93900000D01*
X82974526Y-94579025D01*
X82977647Y-94614694D01*
X82963880Y-94683194D01*
X82915264Y-94733376D01*
X82854119Y-94749500D01*
X78252973Y-94749500D01*
X78185934Y-94729815D01*
X78140179Y-94677011D01*
X78133198Y-94657593D01*
X78079577Y-94457477D01*
X78079576Y-94457476D01*
X78079575Y-94457470D01*
X77987102Y-94259162D01*
X77987100Y-94259159D01*
X77987099Y-94259157D01*
X77861599Y-94079924D01*
X77861596Y-94079921D01*
X77706877Y-93925202D01*
X77557122Y-93820342D01*
X77527638Y-93799697D01*
X77370901Y-93726610D01*
X77329330Y-93707225D01*
X77329326Y-93707224D01*
X77329322Y-93707222D01*
X77117977Y-93650593D01*
X76900002Y-93631523D01*
X76899998Y-93631523D01*
X76754682Y-93644236D01*
X76682023Y-93650593D01*
X76682020Y-93650593D01*
X76470677Y-93707222D01*
X76470668Y-93707226D01*
X76272361Y-93799698D01*
X76272357Y-93799700D01*
X76093121Y-93925202D01*
X75938402Y-94079921D01*
X75812900Y-94259157D01*
X75812898Y-94259161D01*
X75759579Y-94373504D01*
X75725187Y-94447259D01*
X75718137Y-94462377D01*
X75716358Y-94461547D01*
X75680008Y-94510874D01*
X75614728Y-94535781D01*
X75546346Y-94521442D01*
X75496571Y-94472408D01*
X75485180Y-94444260D01*
X75466269Y-94373682D01*
X75466265Y-94373673D01*
X75370134Y-94167517D01*
X75239657Y-93981179D01*
X75078820Y-93820342D01*
X74892482Y-93689865D01*
X74686328Y-93593734D01*
X74490000Y-93541127D01*
X74490000Y-94504314D01*
X74485606Y-94499920D01*
X74394394Y-94447259D01*
X74292661Y-94420000D01*
X74187339Y-94420000D01*
X74085606Y-94447259D01*
X73994394Y-94499920D01*
X73990000Y-94504314D01*
X73990000Y-93501306D01*
X74009685Y-93434267D01*
X74026314Y-93413630D01*
X78939947Y-88499998D01*
X82394532Y-88499998D01*
X82394532Y-88500001D01*
X82414364Y-88726686D01*
X82414366Y-88726697D01*
X82473258Y-88946488D01*
X82473261Y-88946497D01*
X82569431Y-89152732D01*
X82569432Y-89152734D01*
X82699954Y-89339141D01*
X82860858Y-89500045D01*
X82907693Y-89532839D01*
X83047266Y-89630568D01*
X83253504Y-89726739D01*
X83473308Y-89785635D01*
X83635230Y-89799801D01*
X83699998Y-89805468D01*
X83700000Y-89805468D01*
X83700002Y-89805468D01*
X83756673Y-89800509D01*
X83926692Y-89785635D01*
X84146496Y-89726739D01*
X84352734Y-89630568D01*
X84539139Y-89500047D01*
X84700047Y-89339139D01*
X84830568Y-89152734D01*
X84926739Y-88946496D01*
X84985635Y-88726692D01*
X85002634Y-88532384D01*
X85005468Y-88500001D01*
X85005468Y-88499998D01*
X84993005Y-88357546D01*
X84985635Y-88273308D01*
X84926739Y-88053504D01*
X84830568Y-87847266D01*
X84700047Y-87660861D01*
X84700045Y-87660858D01*
X84539141Y-87499954D01*
X84352734Y-87369432D01*
X84352732Y-87369431D01*
X84146497Y-87273261D01*
X84146488Y-87273258D01*
X83926697Y-87214366D01*
X83926693Y-87214365D01*
X83926692Y-87214365D01*
X83926691Y-87214364D01*
X83926686Y-87214364D01*
X83700002Y-87194532D01*
X83699998Y-87194532D01*
X83473313Y-87214364D01*
X83473302Y-87214366D01*
X83253511Y-87273258D01*
X83253502Y-87273261D01*
X83047267Y-87369431D01*
X83047265Y-87369432D01*
X82860858Y-87499954D01*
X82699954Y-87660858D01*
X82569432Y-87847265D01*
X82569431Y-87847267D01*
X82473261Y-88053502D01*
X82473258Y-88053511D01*
X82414366Y-88273302D01*
X82414364Y-88273313D01*
X82394532Y-88499998D01*
X78939947Y-88499998D01*
X81255627Y-86184319D01*
X81316950Y-86150834D01*
X81343308Y-86148000D01*
X85693451Y-86148000D01*
X85760490Y-86167685D01*
G37*
%TD.AperFunction*%
%TA.AperFunction,Conductor*%
G36*
X94650000Y-88518690D02*
G01*
X94630315Y-88585729D01*
X94613681Y-88606371D01*
X93894726Y-89325326D01*
X93823534Y-89431874D01*
X93774499Y-89550255D01*
X93774497Y-89550261D01*
X93749500Y-89675928D01*
X93749500Y-93623316D01*
X93729815Y-93690355D01*
X93696623Y-93724891D01*
X93560859Y-93819953D01*
X93399954Y-93980858D01*
X93269433Y-94167264D01*
X93269432Y-94167266D01*
X93269315Y-94167518D01*
X93242106Y-94225867D01*
X93195933Y-94278306D01*
X93128739Y-94297457D01*
X93061858Y-94277241D01*
X93017342Y-94225865D01*
X92990135Y-94167520D01*
X92990134Y-94167518D01*
X92859657Y-93981179D01*
X92698820Y-93820342D01*
X92512482Y-93689865D01*
X92306328Y-93593734D01*
X92110000Y-93541127D01*
X92110000Y-94504314D01*
X92105606Y-94499920D01*
X92014394Y-94447259D01*
X91912661Y-94420000D01*
X91807339Y-94420000D01*
X91705606Y-94447259D01*
X91614394Y-94499920D01*
X91610000Y-94504314D01*
X91610000Y-93541127D01*
X91413671Y-93593734D01*
X91207517Y-93689865D01*
X91021179Y-93820342D01*
X90860342Y-93981179D01*
X90729867Y-94167515D01*
X90702657Y-94225867D01*
X90656484Y-94278306D01*
X90589290Y-94297457D01*
X90522409Y-94277241D01*
X90477893Y-94225865D01*
X90450685Y-94167518D01*
X90450568Y-94167266D01*
X90320047Y-93980861D01*
X90320045Y-93980858D01*
X90159141Y-93819954D01*
X89972734Y-93689432D01*
X89972732Y-93689431D01*
X89766497Y-93593261D01*
X89766488Y-93593258D01*
X89546697Y-93534366D01*
X89546693Y-93534365D01*
X89546692Y-93534365D01*
X89546691Y-93534364D01*
X89546686Y-93534364D01*
X89320002Y-93514532D01*
X89319998Y-93514532D01*
X89093313Y-93534364D01*
X89093302Y-93534366D01*
X88873511Y-93593258D01*
X88873502Y-93593261D01*
X88667267Y-93689431D01*
X88667265Y-93689432D01*
X88480858Y-93819954D01*
X88319954Y-93980858D01*
X88189432Y-94167265D01*
X88189431Y-94167267D01*
X88162382Y-94225275D01*
X88116209Y-94277714D01*
X88049016Y-94296866D01*
X87982135Y-94276650D01*
X87937618Y-94225275D01*
X87910686Y-94167520D01*
X87910568Y-94167266D01*
X87780047Y-93980861D01*
X87780045Y-93980858D01*
X87619141Y-93819954D01*
X87432734Y-93689432D01*
X87432732Y-93689431D01*
X87226497Y-93593261D01*
X87226488Y-93593258D01*
X87039762Y-93543226D01*
X86980101Y-93506861D01*
X86949572Y-93444014D01*
X86957867Y-93374639D01*
X86984171Y-93335773D01*
X91778200Y-88541744D01*
X91839521Y-88508261D01*
X91855072Y-88505899D01*
X91859999Y-88505467D01*
X91860000Y-88505468D01*
X92086692Y-88485635D01*
X92306496Y-88426739D01*
X92512734Y-88330568D01*
X92699139Y-88200047D01*
X92860047Y-88039139D01*
X92990568Y-87852734D01*
X93017895Y-87794129D01*
X93064064Y-87741695D01*
X93131257Y-87722542D01*
X93198139Y-87742757D01*
X93242657Y-87794133D01*
X93269865Y-87852482D01*
X93400342Y-88038820D01*
X93561179Y-88199657D01*
X93747517Y-88330134D01*
X93953673Y-88426265D01*
X93953682Y-88426269D01*
X94149999Y-88478872D01*
X94150000Y-88478871D01*
X94150000Y-87515686D01*
X94154394Y-87520080D01*
X94245606Y-87572741D01*
X94347339Y-87600000D01*
X94452661Y-87600000D01*
X94554394Y-87572741D01*
X94645606Y-87520080D01*
X94650000Y-87515686D01*
X94650000Y-88518690D01*
G37*
%TD.AperFunction*%
%TA.AperFunction,Conductor*%
G36*
X72628907Y-59577674D02*
G01*
X72653738Y-59596885D01*
X90362124Y-77305271D01*
X90362131Y-77305277D01*
X90468671Y-77376464D01*
X90468670Y-77376464D01*
X90503344Y-77390826D01*
X90587056Y-77425501D01*
X90587060Y-77425501D01*
X90587061Y-77425502D01*
X90712728Y-77450500D01*
X90712731Y-77450500D01*
X105030992Y-77450500D01*
X105098031Y-77470185D01*
X105118673Y-77486819D01*
X105326364Y-77694510D01*
X105359849Y-77755833D01*
X105354865Y-77825525D01*
X105312993Y-77881458D01*
X105247529Y-77905875D01*
X105227876Y-77905719D01*
X105100002Y-77894532D01*
X105099998Y-77894532D01*
X104873313Y-77914364D01*
X104873302Y-77914366D01*
X104653511Y-77973258D01*
X104653502Y-77973261D01*
X104447267Y-78069431D01*
X104447265Y-78069432D01*
X104260858Y-78199954D01*
X104099954Y-78360858D01*
X103969432Y-78547265D01*
X103969431Y-78547267D01*
X103873261Y-78753502D01*
X103873258Y-78753511D01*
X103814366Y-78973302D01*
X103814364Y-78973313D01*
X103794532Y-79199998D01*
X103794532Y-79200001D01*
X103814364Y-79426686D01*
X103814366Y-79426697D01*
X103873258Y-79646488D01*
X103873261Y-79646497D01*
X103969431Y-79852732D01*
X103969432Y-79852734D01*
X104099954Y-80039141D01*
X104260855Y-80200042D01*
X104260858Y-80200044D01*
X104260861Y-80200047D01*
X104396626Y-80295109D01*
X104440248Y-80349683D01*
X104449500Y-80396682D01*
X104449500Y-80415769D01*
X104467343Y-80505468D01*
X104474499Y-80541444D01*
X104523534Y-80659825D01*
X104594726Y-80766373D01*
X104594727Y-80766374D01*
X108392895Y-84564541D01*
X108426380Y-84625864D01*
X108421396Y-84695556D01*
X108379524Y-84751489D01*
X108357620Y-84764604D01*
X108347266Y-84769431D01*
X108160858Y-84899954D01*
X107999954Y-85060858D01*
X107869432Y-85247265D01*
X107869431Y-85247267D01*
X107773261Y-85453502D01*
X107773258Y-85453511D01*
X107714366Y-85673302D01*
X107714364Y-85673313D01*
X107694532Y-85899998D01*
X107694532Y-85900001D01*
X107714364Y-86126686D01*
X107714366Y-86126697D01*
X107773258Y-86346488D01*
X107773261Y-86346497D01*
X107866998Y-86547515D01*
X107869432Y-86552734D01*
X107906634Y-86605865D01*
X107940603Y-86654377D01*
X107962930Y-86720583D01*
X107945920Y-86788350D01*
X107894972Y-86836163D01*
X107839028Y-86849500D01*
X106420808Y-86849500D01*
X106353769Y-86829815D01*
X106333127Y-86813181D01*
X104010474Y-84490527D01*
X104010473Y-84490526D01*
X103903934Y-84419340D01*
X103903927Y-84419335D01*
X103785544Y-84370299D01*
X103785538Y-84370297D01*
X103659871Y-84345300D01*
X103659869Y-84345300D01*
X76380131Y-84345300D01*
X76380129Y-84345300D01*
X76254461Y-84370297D01*
X76254455Y-84370299D01*
X76207512Y-84389744D01*
X76207511Y-84389744D01*
X76136081Y-84419330D01*
X76136063Y-84419340D01*
X76029532Y-84490521D01*
X76029525Y-84490527D01*
X74656871Y-85863181D01*
X74595548Y-85896666D01*
X74569190Y-85899500D01*
X73392129Y-85899500D01*
X73392123Y-85899501D01*
X73332516Y-85905908D01*
X73197671Y-85956202D01*
X73197664Y-85956206D01*
X73082455Y-86042452D01*
X73082452Y-86042455D01*
X72996206Y-86157664D01*
X72996202Y-86157671D01*
X72945908Y-86292516D01*
X72942137Y-86327596D01*
X72915398Y-86392146D01*
X72858006Y-86431994D01*
X72788180Y-86434487D01*
X72728092Y-86398834D01*
X72717273Y-86385462D01*
X72700045Y-86360858D01*
X72539141Y-86199954D01*
X72352734Y-86069432D01*
X72352732Y-86069431D01*
X72146497Y-85973261D01*
X72146488Y-85973258D01*
X71926697Y-85914366D01*
X71926693Y-85914365D01*
X71926692Y-85914365D01*
X71926691Y-85914364D01*
X71926686Y-85914364D01*
X71700002Y-85894532D01*
X71699998Y-85894532D01*
X71473313Y-85914364D01*
X71473299Y-85914367D01*
X71432834Y-85925209D01*
X71362984Y-85923545D01*
X71313061Y-85893115D01*
X71016819Y-85596873D01*
X70983334Y-85535550D01*
X70980500Y-85509192D01*
X70980500Y-79199997D01*
X91095034Y-79199997D01*
X91095034Y-79200002D01*
X91114858Y-79426599D01*
X91114860Y-79426610D01*
X91173730Y-79646317D01*
X91173735Y-79646331D01*
X91269863Y-79852478D01*
X91320974Y-79925472D01*
X92000000Y-79246446D01*
X92000000Y-79252661D01*
X92027259Y-79354394D01*
X92079920Y-79445606D01*
X92154394Y-79520080D01*
X92245606Y-79572741D01*
X92347339Y-79600000D01*
X92353553Y-79600000D01*
X91674526Y-80279025D01*
X91747513Y-80330132D01*
X91747521Y-80330136D01*
X91953668Y-80426264D01*
X91953682Y-80426269D01*
X92173389Y-80485139D01*
X92173400Y-80485141D01*
X92399998Y-80504966D01*
X92400002Y-80504966D01*
X92626599Y-80485141D01*
X92626610Y-80485139D01*
X92846317Y-80426269D01*
X92846331Y-80426264D01*
X93052478Y-80330136D01*
X93125471Y-80279024D01*
X92446447Y-79600000D01*
X92452661Y-79600000D01*
X92554394Y-79572741D01*
X92645606Y-79520080D01*
X92720080Y-79445606D01*
X92772741Y-79354394D01*
X92800000Y-79252661D01*
X92800000Y-79246447D01*
X93479024Y-79925471D01*
X93530136Y-79852478D01*
X93626264Y-79646331D01*
X93626269Y-79646317D01*
X93685139Y-79426610D01*
X93685141Y-79426599D01*
X93704966Y-79200002D01*
X93704966Y-79199997D01*
X93685141Y-78973400D01*
X93685139Y-78973389D01*
X93626269Y-78753682D01*
X93626264Y-78753668D01*
X93530136Y-78547521D01*
X93530132Y-78547513D01*
X93479025Y-78474526D01*
X92800000Y-79153551D01*
X92800000Y-79147339D01*
X92772741Y-79045606D01*
X92720080Y-78954394D01*
X92645606Y-78879920D01*
X92554394Y-78827259D01*
X92452661Y-78800000D01*
X92446448Y-78800000D01*
X93125472Y-78120974D01*
X93052478Y-78069863D01*
X92846331Y-77973735D01*
X92846317Y-77973730D01*
X92626610Y-77914860D01*
X92626599Y-77914858D01*
X92400002Y-77895034D01*
X92399998Y-77895034D01*
X92173400Y-77914858D01*
X92173389Y-77914860D01*
X91953682Y-77973730D01*
X91953673Y-77973734D01*
X91747516Y-78069866D01*
X91747512Y-78069868D01*
X91674526Y-78120973D01*
X91674526Y-78120974D01*
X92353553Y-78800000D01*
X92347339Y-78800000D01*
X92245606Y-78827259D01*
X92154394Y-78879920D01*
X92079920Y-78954394D01*
X92027259Y-79045606D01*
X92000000Y-79147339D01*
X92000000Y-79153552D01*
X91320974Y-78474526D01*
X91320973Y-78474526D01*
X91269868Y-78547512D01*
X91269866Y-78547516D01*
X91173734Y-78753673D01*
X91173730Y-78753682D01*
X91114860Y-78973389D01*
X91114858Y-78973400D01*
X91095034Y-79199997D01*
X70980500Y-79199997D01*
X70980500Y-76193746D01*
X71000185Y-76126707D01*
X71052989Y-76080952D01*
X71122147Y-76071008D01*
X71136583Y-76073969D01*
X71364592Y-76135063D01*
X71529604Y-76149500D01*
X71599999Y-76155659D01*
X71600000Y-76155659D01*
X71600001Y-76155659D01*
X71639234Y-76152226D01*
X71835408Y-76135063D01*
X72063663Y-76073903D01*
X72277830Y-75974035D01*
X72471401Y-75838495D01*
X72638495Y-75671401D01*
X72768425Y-75485842D01*
X72823002Y-75442217D01*
X72892500Y-75435023D01*
X72954855Y-75466546D01*
X72971575Y-75485842D01*
X73101500Y-75671395D01*
X73101505Y-75671401D01*
X73268599Y-75838495D01*
X73348094Y-75894158D01*
X73462165Y-75974032D01*
X73462167Y-75974033D01*
X73462170Y-75974035D01*
X73676337Y-76073903D01*
X73676343Y-76073904D01*
X73676344Y-76073905D01*
X73715535Y-76084406D01*
X73904592Y-76135063D01*
X74069604Y-76149500D01*
X74139999Y-76155659D01*
X74140000Y-76155659D01*
X74140001Y-76155659D01*
X74179234Y-76152226D01*
X74375408Y-76135063D01*
X74603663Y-76073903D01*
X74817830Y-75974035D01*
X75011401Y-75838495D01*
X75178495Y-75671401D01*
X75314035Y-75477830D01*
X75413903Y-75263663D01*
X75475063Y-75035408D01*
X75495659Y-74800000D01*
X75475063Y-74564592D01*
X75413903Y-74336337D01*
X75314035Y-74122171D01*
X75308424Y-74114158D01*
X75178496Y-73928600D01*
X75178493Y-73928597D01*
X75056567Y-73806671D01*
X75023084Y-73745351D01*
X75028068Y-73675659D01*
X75069939Y-73619725D01*
X75100915Y-73602810D01*
X75232331Y-73553796D01*
X75347546Y-73467546D01*
X75433796Y-73352331D01*
X75484091Y-73217483D01*
X75490500Y-73157873D01*
X75490499Y-71362128D01*
X75484091Y-71302517D01*
X75482810Y-71299083D01*
X75433797Y-71167671D01*
X75433793Y-71167664D01*
X75347547Y-71052455D01*
X75347544Y-71052452D01*
X75232335Y-70966206D01*
X75232328Y-70966202D01*
X75097482Y-70915908D01*
X75097483Y-70915908D01*
X75037883Y-70909501D01*
X75037881Y-70909500D01*
X75037873Y-70909500D01*
X75037864Y-70909500D01*
X73242129Y-70909500D01*
X73242123Y-70909501D01*
X73182516Y-70915908D01*
X73047671Y-70966202D01*
X73047664Y-70966206D01*
X72932455Y-71052452D01*
X72932452Y-71052455D01*
X72846206Y-71167664D01*
X72846203Y-71167669D01*
X72797189Y-71299083D01*
X72755317Y-71355016D01*
X72689853Y-71379433D01*
X72621580Y-71364581D01*
X72593326Y-71343430D01*
X72471402Y-71221506D01*
X72471395Y-71221501D01*
X72277834Y-71085967D01*
X72277830Y-71085965D01*
X72226838Y-71062187D01*
X72063663Y-70986097D01*
X72063659Y-70986096D01*
X72063655Y-70986094D01*
X71835413Y-70924938D01*
X71835403Y-70924936D01*
X71600001Y-70904341D01*
X71599999Y-70904341D01*
X71364596Y-70924936D01*
X71364586Y-70924938D01*
X71136593Y-70986028D01*
X71066743Y-70984365D01*
X71008881Y-70945202D01*
X70981377Y-70880974D01*
X70980500Y-70866253D01*
X70980500Y-67512728D01*
X71000185Y-67445689D01*
X71052989Y-67399934D01*
X71122147Y-67389990D01*
X71156903Y-67400345D01*
X71213504Y-67426739D01*
X71213509Y-67426740D01*
X71213511Y-67426741D01*
X71226592Y-67430246D01*
X71433308Y-67485635D01*
X71595230Y-67499801D01*
X71659998Y-67505468D01*
X71660000Y-67505468D01*
X71660002Y-67505468D01*
X71716673Y-67500509D01*
X71886692Y-67485635D01*
X72106496Y-67426739D01*
X72312734Y-67330568D01*
X72499139Y-67200047D01*
X72660047Y-67039139D01*
X72790568Y-66852734D01*
X72817618Y-66794724D01*
X72863790Y-66742285D01*
X72930983Y-66723133D01*
X72997865Y-66743348D01*
X73042382Y-66794725D01*
X73069429Y-66852728D01*
X73069432Y-66852734D01*
X73199954Y-67039141D01*
X73360858Y-67200045D01*
X73360861Y-67200047D01*
X73547266Y-67330568D01*
X73753504Y-67426739D01*
X73753509Y-67426740D01*
X73753511Y-67426741D01*
X73766592Y-67430246D01*
X73973308Y-67485635D01*
X74135230Y-67499801D01*
X74199998Y-67505468D01*
X74200000Y-67505468D01*
X74200002Y-67505468D01*
X74256673Y-67500509D01*
X74426692Y-67485635D01*
X74646496Y-67426739D01*
X74852734Y-67330568D01*
X75039139Y-67200047D01*
X75200047Y-67039139D01*
X75330568Y-66852734D01*
X75357895Y-66794129D01*
X75404064Y-66741695D01*
X75471257Y-66722542D01*
X75538139Y-66742757D01*
X75582657Y-66794133D01*
X75609865Y-66852482D01*
X75740342Y-67038820D01*
X75901179Y-67199657D01*
X76087517Y-67330134D01*
X76293673Y-67426265D01*
X76293682Y-67426269D01*
X76489999Y-67478872D01*
X76490000Y-67478871D01*
X76490000Y-66515686D01*
X76494394Y-66520080D01*
X76585606Y-66572741D01*
X76687339Y-66600000D01*
X76792661Y-66600000D01*
X76894394Y-66572741D01*
X76985606Y-66520080D01*
X76990000Y-66515686D01*
X76990000Y-67478872D01*
X77186317Y-67426269D01*
X77186326Y-67426265D01*
X77392482Y-67330134D01*
X77578820Y-67199657D01*
X77739657Y-67038820D01*
X77870134Y-66852482D01*
X77966265Y-66646326D01*
X77966269Y-66646317D01*
X78018872Y-66450000D01*
X77055686Y-66450000D01*
X77060080Y-66445606D01*
X77112741Y-66354394D01*
X77140000Y-66252661D01*
X77140000Y-66147339D01*
X77112741Y-66045606D01*
X77060080Y-65954394D01*
X77055686Y-65950000D01*
X78018872Y-65950000D01*
X78018872Y-65949999D01*
X77966269Y-65753682D01*
X77966265Y-65753673D01*
X77870134Y-65547517D01*
X77739657Y-65361179D01*
X77578820Y-65200342D01*
X77392482Y-65069865D01*
X77186328Y-64973734D01*
X76990000Y-64921127D01*
X76990000Y-65884314D01*
X76985606Y-65879920D01*
X76894394Y-65827259D01*
X76792661Y-65800000D01*
X76687339Y-65800000D01*
X76585606Y-65827259D01*
X76494394Y-65879920D01*
X76490000Y-65884314D01*
X76490000Y-64921127D01*
X76293671Y-64973734D01*
X76087517Y-65069865D01*
X75901179Y-65200342D01*
X75740342Y-65361179D01*
X75609867Y-65547515D01*
X75582657Y-65605867D01*
X75536484Y-65658306D01*
X75469290Y-65677457D01*
X75402409Y-65657241D01*
X75357893Y-65605865D01*
X75357709Y-65605471D01*
X75330568Y-65547266D01*
X75200047Y-65360861D01*
X75200045Y-65360858D01*
X75039141Y-65199954D01*
X74852734Y-65069432D01*
X74852732Y-65069431D01*
X74646497Y-64973261D01*
X74646488Y-64973258D01*
X74426697Y-64914366D01*
X74426693Y-64914365D01*
X74426692Y-64914365D01*
X74426691Y-64914364D01*
X74426686Y-64914364D01*
X74200002Y-64894532D01*
X74199998Y-64894532D01*
X73973313Y-64914364D01*
X73973302Y-64914366D01*
X73753511Y-64973258D01*
X73753502Y-64973261D01*
X73547267Y-65069431D01*
X73547265Y-65069432D01*
X73360858Y-65199954D01*
X73199954Y-65360858D01*
X73069432Y-65547265D01*
X73069431Y-65547267D01*
X73042382Y-65605275D01*
X72996209Y-65657714D01*
X72929016Y-65676866D01*
X72862135Y-65656650D01*
X72817618Y-65605275D01*
X72790568Y-65547266D01*
X72660047Y-65360861D01*
X72660045Y-65360858D01*
X72499141Y-65199954D01*
X72312734Y-65069432D01*
X72312732Y-65069431D01*
X72106497Y-64973261D01*
X72106488Y-64973258D01*
X71886697Y-64914366D01*
X71886693Y-64914365D01*
X71886692Y-64914365D01*
X71886691Y-64914364D01*
X71886686Y-64914364D01*
X71660002Y-64894532D01*
X71659998Y-64894532D01*
X71433313Y-64914364D01*
X71433302Y-64914366D01*
X71213511Y-64973258D01*
X71213506Y-64973260D01*
X71156904Y-64999654D01*
X71087826Y-65010145D01*
X71024042Y-64981624D01*
X70985803Y-64923147D01*
X70980500Y-64887271D01*
X70980500Y-59892728D01*
X71000185Y-59825689D01*
X71052989Y-59779934D01*
X71122147Y-59769990D01*
X71156903Y-59780345D01*
X71213504Y-59806739D01*
X71433308Y-59865635D01*
X71595230Y-59879801D01*
X71659998Y-59885468D01*
X71660000Y-59885468D01*
X71660002Y-59885468D01*
X71722522Y-59879998D01*
X71886692Y-59865635D01*
X72106496Y-59806739D01*
X72312734Y-59710568D01*
X72494934Y-59582990D01*
X72561140Y-59560664D01*
X72628907Y-59577674D01*
G37*
%TD.AperFunction*%
%TA.AperFunction,Conductor*%
G36*
X91750855Y-50545546D02*
G01*
X91767575Y-50564842D01*
X91897500Y-50750395D01*
X91897505Y-50750401D01*
X92064599Y-50917495D01*
X92141135Y-50971086D01*
X92258165Y-51053032D01*
X92258167Y-51053033D01*
X92258170Y-51053035D01*
X92472337Y-51152903D01*
X92472343Y-51152904D01*
X92472344Y-51152905D01*
X92527285Y-51167626D01*
X92700592Y-51214063D01*
X92871319Y-51229000D01*
X92935999Y-51234659D01*
X92936000Y-51234659D01*
X92936001Y-51234659D01*
X93000681Y-51229000D01*
X93171408Y-51214063D01*
X93399663Y-51152903D01*
X93447395Y-51130644D01*
X93516471Y-51120152D01*
X93580255Y-51148671D01*
X93618496Y-51207146D01*
X93623800Y-51243026D01*
X93623800Y-54673191D01*
X93604115Y-54740230D01*
X93587481Y-54760872D01*
X91334727Y-57013625D01*
X91334724Y-57013628D01*
X91295768Y-57071930D01*
X91295769Y-57071931D01*
X91263534Y-57120174D01*
X91214499Y-57238555D01*
X91214497Y-57238561D01*
X91189500Y-57364228D01*
X91189500Y-57383316D01*
X91169815Y-57450355D01*
X91136623Y-57484891D01*
X91000859Y-57579953D01*
X90839954Y-57740858D01*
X90709432Y-57927265D01*
X90709431Y-57927267D01*
X90682382Y-57985275D01*
X90636209Y-58037714D01*
X90569016Y-58056866D01*
X90502135Y-58036650D01*
X90457618Y-57985275D01*
X90444175Y-57956446D01*
X90430568Y-57927266D01*
X90300047Y-57740861D01*
X90300045Y-57740858D01*
X90139141Y-57579954D01*
X89952734Y-57449432D01*
X89952732Y-57449431D01*
X89746497Y-57353261D01*
X89746488Y-57353258D01*
X89526697Y-57294366D01*
X89526693Y-57294365D01*
X89526692Y-57294365D01*
X89526691Y-57294364D01*
X89526686Y-57294364D01*
X89300002Y-57274532D01*
X89299998Y-57274532D01*
X89073313Y-57294364D01*
X89073302Y-57294366D01*
X88853511Y-57353258D01*
X88853502Y-57353261D01*
X88647267Y-57449431D01*
X88647265Y-57449432D01*
X88460858Y-57579954D01*
X88299954Y-57740858D01*
X88169432Y-57927265D01*
X88169431Y-57927267D01*
X88142382Y-57985275D01*
X88096209Y-58037714D01*
X88029016Y-58056866D01*
X87962135Y-58036650D01*
X87917618Y-57985275D01*
X87904175Y-57956446D01*
X87890568Y-57927266D01*
X87760047Y-57740861D01*
X87760045Y-57740858D01*
X87599141Y-57579954D01*
X87412734Y-57449432D01*
X87412732Y-57449431D01*
X87206497Y-57353261D01*
X87206488Y-57353258D01*
X86986697Y-57294366D01*
X86986693Y-57294365D01*
X86986692Y-57294365D01*
X86986691Y-57294364D01*
X86986686Y-57294364D01*
X86760002Y-57274532D01*
X86759998Y-57274532D01*
X86533313Y-57294364D01*
X86533302Y-57294366D01*
X86313511Y-57353258D01*
X86313502Y-57353261D01*
X86107267Y-57449431D01*
X86107265Y-57449432D01*
X85920858Y-57579954D01*
X85759954Y-57740858D01*
X85629432Y-57927265D01*
X85629431Y-57927267D01*
X85546881Y-58104296D01*
X85500708Y-58156735D01*
X85433515Y-58175887D01*
X85366634Y-58155671D01*
X85346818Y-58139572D01*
X85163692Y-57956446D01*
X85130207Y-57895123D01*
X85135191Y-57825431D01*
X85138980Y-57816383D01*
X85179575Y-57729330D01*
X85236207Y-57517977D01*
X85253200Y-57323738D01*
X85255277Y-57300002D01*
X85255277Y-57299997D01*
X85248448Y-57221940D01*
X85236207Y-57082023D01*
X85179575Y-56870670D01*
X85087102Y-56672362D01*
X85087100Y-56672359D01*
X85087099Y-56672357D01*
X84961599Y-56493124D01*
X84961596Y-56493121D01*
X84806877Y-56338402D01*
X84668978Y-56241844D01*
X84627638Y-56212897D01*
X84528484Y-56166661D01*
X84429330Y-56120425D01*
X84429326Y-56120424D01*
X84429322Y-56120422D01*
X84217977Y-56063793D01*
X84000002Y-56044723D01*
X83999998Y-56044723D01*
X83854682Y-56057436D01*
X83782023Y-56063793D01*
X83782020Y-56063793D01*
X83570677Y-56120422D01*
X83570668Y-56120426D01*
X83372361Y-56212898D01*
X83372357Y-56212900D01*
X83193121Y-56338402D01*
X83038402Y-56493121D01*
X82912900Y-56672357D01*
X82912898Y-56672361D01*
X82820426Y-56870668D01*
X82820422Y-56870677D01*
X82763793Y-57082020D01*
X82763793Y-57082024D01*
X82744723Y-57299997D01*
X82744723Y-57300002D01*
X82749383Y-57353261D01*
X82762876Y-57507500D01*
X82763793Y-57517975D01*
X82763793Y-57517979D01*
X82820422Y-57729322D01*
X82820424Y-57729326D01*
X82820425Y-57729330D01*
X82843509Y-57778834D01*
X82912897Y-57927638D01*
X82912898Y-57927639D01*
X83038402Y-58106877D01*
X83193123Y-58261598D01*
X83372361Y-58387102D01*
X83382708Y-58391927D01*
X83435146Y-58438098D01*
X83454298Y-58505291D01*
X83434083Y-58572172D01*
X83380918Y-58617507D01*
X83362396Y-58624083D01*
X83253509Y-58653259D01*
X83253502Y-58653261D01*
X83047267Y-58749431D01*
X83047265Y-58749432D01*
X82860858Y-58879954D01*
X82699954Y-59040858D01*
X82569432Y-59227265D01*
X82569431Y-59227267D01*
X82473261Y-59433502D01*
X82473258Y-59433511D01*
X82414366Y-59653302D01*
X82414364Y-59653313D01*
X82394532Y-59879998D01*
X82394532Y-59880001D01*
X82414364Y-60106686D01*
X82414366Y-60106697D01*
X82473258Y-60326488D01*
X82473261Y-60326497D01*
X82569431Y-60532732D01*
X82569432Y-60532734D01*
X82699954Y-60719141D01*
X82860858Y-60880045D01*
X82860861Y-60880047D01*
X83047266Y-61010568D01*
X83253504Y-61106739D01*
X83473308Y-61165635D01*
X83635230Y-61179801D01*
X83699998Y-61185468D01*
X83700000Y-61185468D01*
X83700002Y-61185468D01*
X83756673Y-61180509D01*
X83926692Y-61165635D01*
X84146496Y-61106739D01*
X84352734Y-61010568D01*
X84539139Y-60880047D01*
X84700047Y-60719139D01*
X84830568Y-60532734D01*
X84926739Y-60326496D01*
X84985635Y-60106692D01*
X85001751Y-59922478D01*
X85027203Y-59857411D01*
X85083794Y-59816432D01*
X85153556Y-59812554D01*
X85212960Y-59845606D01*
X86672625Y-61305272D01*
X86672632Y-61305278D01*
X86779163Y-61376459D01*
X86779167Y-61376461D01*
X86779174Y-61376466D01*
X86845815Y-61404069D01*
X86897556Y-61425501D01*
X86897560Y-61425501D01*
X86897561Y-61425502D01*
X87023228Y-61450500D01*
X87023231Y-61450500D01*
X87023232Y-61450500D01*
X87151369Y-61450500D01*
X90290192Y-61450500D01*
X90357231Y-61470185D01*
X90402986Y-61522989D01*
X90412930Y-61592147D01*
X90383905Y-61655703D01*
X90377873Y-61662181D01*
X87146937Y-64893115D01*
X87085614Y-64926600D01*
X87027163Y-64925209D01*
X86986697Y-64914366D01*
X86986693Y-64914365D01*
X86986692Y-64914365D01*
X86986691Y-64914364D01*
X86986686Y-64914364D01*
X86760002Y-64894532D01*
X86759998Y-64894532D01*
X86533313Y-64914364D01*
X86533302Y-64914366D01*
X86313511Y-64973258D01*
X86313502Y-64973261D01*
X86107267Y-65069431D01*
X86107265Y-65069432D01*
X85920858Y-65199954D01*
X85759954Y-65360858D01*
X85629432Y-65547265D01*
X85629431Y-65547267D01*
X85533261Y-65753502D01*
X85533258Y-65753511D01*
X85474366Y-65973302D01*
X85474364Y-65973313D01*
X85454532Y-66199998D01*
X85454532Y-66200001D01*
X85474364Y-66426686D01*
X85474366Y-66426697D01*
X85533258Y-66646488D01*
X85533261Y-66646497D01*
X85629431Y-66852732D01*
X85629432Y-66852734D01*
X85759954Y-67039141D01*
X85920858Y-67200045D01*
X85920861Y-67200047D01*
X86107266Y-67330568D01*
X86313504Y-67426739D01*
X86313509Y-67426740D01*
X86313511Y-67426741D01*
X86326592Y-67430246D01*
X86533308Y-67485635D01*
X86695230Y-67499801D01*
X86759998Y-67505468D01*
X86760000Y-67505468D01*
X86760002Y-67505468D01*
X86816673Y-67500509D01*
X86986692Y-67485635D01*
X87206496Y-67426739D01*
X87412734Y-67330568D01*
X87599139Y-67200047D01*
X87760047Y-67039139D01*
X87890568Y-66852734D01*
X87917618Y-66794724D01*
X87963790Y-66742285D01*
X88030983Y-66723133D01*
X88097865Y-66743348D01*
X88142382Y-66794725D01*
X88169429Y-66852728D01*
X88169432Y-66852734D01*
X88299954Y-67039141D01*
X88460858Y-67200045D01*
X88460861Y-67200047D01*
X88647266Y-67330568D01*
X88853504Y-67426739D01*
X88853509Y-67426740D01*
X88853511Y-67426741D01*
X88866592Y-67430246D01*
X89073308Y-67485635D01*
X89235230Y-67499801D01*
X89299998Y-67505468D01*
X89300000Y-67505468D01*
X89300002Y-67505468D01*
X89356673Y-67500509D01*
X89526692Y-67485635D01*
X89746496Y-67426739D01*
X89952734Y-67330568D01*
X90139139Y-67200047D01*
X90300047Y-67039139D01*
X90430568Y-66852734D01*
X90457618Y-66794724D01*
X90503790Y-66742285D01*
X90570983Y-66723133D01*
X90637865Y-66743348D01*
X90682382Y-66794725D01*
X90709429Y-66852728D01*
X90709432Y-66852734D01*
X90839954Y-67039141D01*
X91000858Y-67200045D01*
X91000861Y-67200047D01*
X91187266Y-67330568D01*
X91393504Y-67426739D01*
X91393509Y-67426740D01*
X91393511Y-67426741D01*
X91406592Y-67430246D01*
X91613308Y-67485635D01*
X91775230Y-67499801D01*
X91839998Y-67505468D01*
X91840000Y-67505468D01*
X91840002Y-67505468D01*
X91896673Y-67500509D01*
X92066692Y-67485635D01*
X92286496Y-67426739D01*
X92492734Y-67330568D01*
X92679139Y-67200047D01*
X92840047Y-67039139D01*
X92970568Y-66852734D01*
X92997618Y-66794724D01*
X93043790Y-66742285D01*
X93110983Y-66723133D01*
X93177865Y-66743348D01*
X93222382Y-66794725D01*
X93249429Y-66852728D01*
X93249432Y-66852734D01*
X93379954Y-67039141D01*
X93540858Y-67200045D01*
X93540861Y-67200047D01*
X93727266Y-67330568D01*
X93933504Y-67426739D01*
X93933509Y-67426740D01*
X93933511Y-67426741D01*
X93946592Y-67430246D01*
X94153308Y-67485635D01*
X94315230Y-67499801D01*
X94379998Y-67505468D01*
X94380000Y-67505468D01*
X94380002Y-67505468D01*
X94436673Y-67500509D01*
X94606692Y-67485635D01*
X94826496Y-67426739D01*
X95032734Y-67330568D01*
X95219139Y-67200047D01*
X95380047Y-67039139D01*
X95510568Y-66852734D01*
X95537618Y-66794724D01*
X95583790Y-66742285D01*
X95650983Y-66723133D01*
X95717865Y-66743348D01*
X95762382Y-66794725D01*
X95789429Y-66852728D01*
X95789432Y-66852734D01*
X95919954Y-67039141D01*
X96080858Y-67200045D01*
X96080861Y-67200047D01*
X96267266Y-67330568D01*
X96473504Y-67426739D01*
X96473509Y-67426740D01*
X96473511Y-67426741D01*
X96486592Y-67430246D01*
X96693308Y-67485635D01*
X96855230Y-67499801D01*
X96919998Y-67505468D01*
X96920000Y-67505468D01*
X96920002Y-67505468D01*
X96976673Y-67500509D01*
X97146692Y-67485635D01*
X97366496Y-67426739D01*
X97572734Y-67330568D01*
X97759139Y-67200047D01*
X97920047Y-67039139D01*
X98050568Y-66852734D01*
X98077618Y-66794724D01*
X98123790Y-66742285D01*
X98190983Y-66723133D01*
X98257865Y-66743348D01*
X98302382Y-66794725D01*
X98329429Y-66852728D01*
X98329432Y-66852734D01*
X98459954Y-67039141D01*
X98620858Y-67200045D01*
X98620861Y-67200047D01*
X98807266Y-67330568D01*
X99013504Y-67426739D01*
X99013509Y-67426740D01*
X99013511Y-67426741D01*
X99026592Y-67430246D01*
X99233308Y-67485635D01*
X99395230Y-67499801D01*
X99459998Y-67505468D01*
X99460000Y-67505468D01*
X99460002Y-67505468D01*
X99516673Y-67500509D01*
X99686692Y-67485635D01*
X99906496Y-67426739D01*
X100112734Y-67330568D01*
X100299139Y-67200047D01*
X100460047Y-67039139D01*
X100590568Y-66852734D01*
X100617618Y-66794724D01*
X100663790Y-66742285D01*
X100730983Y-66723133D01*
X100797865Y-66743348D01*
X100842382Y-66794725D01*
X100869429Y-66852728D01*
X100869432Y-66852734D01*
X100999954Y-67039141D01*
X101160858Y-67200045D01*
X101160861Y-67200047D01*
X101347266Y-67330568D01*
X101553504Y-67426739D01*
X101553509Y-67426740D01*
X101553511Y-67426741D01*
X101566592Y-67430246D01*
X101773308Y-67485635D01*
X101935230Y-67499801D01*
X101999998Y-67505468D01*
X102000000Y-67505468D01*
X102000002Y-67505468D01*
X102056673Y-67500509D01*
X102226692Y-67485635D01*
X102446496Y-67426739D01*
X102652734Y-67330568D01*
X102839139Y-67200047D01*
X103000047Y-67039139D01*
X103130568Y-66852734D01*
X103157618Y-66794724D01*
X103203790Y-66742285D01*
X103270983Y-66723133D01*
X103337865Y-66743348D01*
X103382382Y-66794725D01*
X103409429Y-66852728D01*
X103409432Y-66852734D01*
X103539954Y-67039141D01*
X103700858Y-67200045D01*
X103700861Y-67200047D01*
X103887266Y-67330568D01*
X104093504Y-67426739D01*
X104093509Y-67426740D01*
X104093511Y-67426741D01*
X104106592Y-67430246D01*
X104313308Y-67485635D01*
X104475230Y-67499801D01*
X104539998Y-67505468D01*
X104540000Y-67505468D01*
X104540002Y-67505468D01*
X104571421Y-67502719D01*
X104766692Y-67485635D01*
X104807162Y-67474791D01*
X104877012Y-67476452D01*
X104926938Y-67506884D01*
X105925324Y-68505271D01*
X105925327Y-68505274D01*
X105925330Y-68505276D01*
X105996357Y-68552734D01*
X106031873Y-68576465D01*
X106150256Y-68625501D01*
X106150260Y-68625501D01*
X106150261Y-68625502D01*
X106275928Y-68650500D01*
X106275931Y-68650500D01*
X110864071Y-68650500D01*
X110948615Y-68633682D01*
X110989744Y-68625501D01*
X111108127Y-68576465D01*
X111143642Y-68552735D01*
X111143643Y-68552735D01*
X111196791Y-68517222D01*
X111214669Y-68505277D01*
X111536903Y-68183041D01*
X111598225Y-68149558D01*
X111667916Y-68154542D01*
X111723850Y-68196413D01*
X111744358Y-68238630D01*
X111773259Y-68346490D01*
X111773261Y-68346497D01*
X111869431Y-68552732D01*
X111869432Y-68552734D01*
X111999954Y-68739141D01*
X112160857Y-68900044D01*
X112160860Y-68900046D01*
X112160861Y-68900047D01*
X112246623Y-68960097D01*
X112290248Y-69014673D01*
X112299500Y-69061672D01*
X112299500Y-70831006D01*
X112299500Y-70968994D01*
X112299500Y-70968996D01*
X112299499Y-70968996D01*
X112326418Y-71104322D01*
X112326421Y-71104332D01*
X112379222Y-71231807D01*
X112391378Y-71250000D01*
X112455886Y-71346543D01*
X112584902Y-71475559D01*
X112618386Y-71536880D01*
X112613402Y-71606572D01*
X112571531Y-71662506D01*
X112549625Y-71675621D01*
X112347516Y-71769866D01*
X112347512Y-71769868D01*
X112274526Y-71820973D01*
X112274526Y-71820974D01*
X112953553Y-72500000D01*
X112947339Y-72500000D01*
X112845606Y-72527259D01*
X112754394Y-72579920D01*
X112679920Y-72654394D01*
X112627259Y-72745606D01*
X112600000Y-72847339D01*
X112600000Y-72853552D01*
X111920974Y-72174526D01*
X111920973Y-72174526D01*
X111869868Y-72247512D01*
X111869866Y-72247516D01*
X111773734Y-72453673D01*
X111773730Y-72453682D01*
X111714860Y-72673389D01*
X111714858Y-72673400D01*
X111695034Y-72899997D01*
X111695034Y-72900002D01*
X111714858Y-73126599D01*
X111714860Y-73126610D01*
X111773730Y-73346317D01*
X111773735Y-73346331D01*
X111869863Y-73552478D01*
X111920974Y-73625472D01*
X112600000Y-72946446D01*
X112600000Y-72952661D01*
X112627259Y-73054394D01*
X112679920Y-73145606D01*
X112754394Y-73220080D01*
X112845606Y-73272741D01*
X112947339Y-73300000D01*
X112953553Y-73300000D01*
X112274526Y-73979025D01*
X112347513Y-74030132D01*
X112347521Y-74030136D01*
X112553668Y-74126264D01*
X112553682Y-74126269D01*
X112773389Y-74185139D01*
X112773400Y-74185141D01*
X112999998Y-74204966D01*
X113000002Y-74204966D01*
X113226599Y-74185141D01*
X113226610Y-74185139D01*
X113446317Y-74126269D01*
X113446331Y-74126264D01*
X113652478Y-74030136D01*
X113725471Y-73979024D01*
X113046447Y-73300000D01*
X113052661Y-73300000D01*
X113154394Y-73272741D01*
X113245606Y-73220080D01*
X113320080Y-73145606D01*
X113372741Y-73054394D01*
X113400000Y-72952661D01*
X113400000Y-72946447D01*
X114079024Y-73625471D01*
X114130136Y-73552478D01*
X114226264Y-73346331D01*
X114226269Y-73346317D01*
X114285139Y-73126610D01*
X114285141Y-73126599D01*
X114304966Y-72900002D01*
X114304966Y-72899997D01*
X114285141Y-72673400D01*
X114285139Y-72673389D01*
X114226269Y-72453682D01*
X114226266Y-72453673D01*
X114190468Y-72376905D01*
X114179976Y-72307828D01*
X114208495Y-72244044D01*
X114266972Y-72205804D01*
X114302850Y-72200500D01*
X117437289Y-72200500D01*
X117504328Y-72220185D01*
X117538864Y-72253377D01*
X117621505Y-72371402D01*
X117788597Y-72538493D01*
X117788603Y-72538498D01*
X117974158Y-72668425D01*
X118017783Y-72723002D01*
X118024977Y-72792500D01*
X117993454Y-72854855D01*
X117974158Y-72871575D01*
X117788597Y-73001505D01*
X117621505Y-73168597D01*
X117485965Y-73362169D01*
X117485964Y-73362171D01*
X117386098Y-73576335D01*
X117386094Y-73576344D01*
X117324938Y-73804586D01*
X117324936Y-73804596D01*
X117304341Y-74039999D01*
X117304341Y-74040000D01*
X117324936Y-74275403D01*
X117324938Y-74275413D01*
X117386094Y-74503655D01*
X117386096Y-74503659D01*
X117386097Y-74503663D01*
X117390000Y-74512032D01*
X117485965Y-74717830D01*
X117485967Y-74717834D01*
X117543500Y-74799999D01*
X117621501Y-74911396D01*
X117621506Y-74911402D01*
X117788597Y-75078493D01*
X117788603Y-75078498D01*
X117974158Y-75208425D01*
X118017783Y-75263002D01*
X118024977Y-75332500D01*
X117993454Y-75394855D01*
X117974158Y-75411575D01*
X117788597Y-75541505D01*
X117621505Y-75708597D01*
X117485965Y-75902169D01*
X117485964Y-75902171D01*
X117386098Y-76116335D01*
X117386094Y-76116344D01*
X117324938Y-76344586D01*
X117324936Y-76344596D01*
X117304341Y-76579999D01*
X117304341Y-76580000D01*
X117324936Y-76815403D01*
X117324938Y-76815413D01*
X117386094Y-77043655D01*
X117386096Y-77043659D01*
X117386097Y-77043663D01*
X117469973Y-77223535D01*
X117485965Y-77257830D01*
X117485967Y-77257834D01*
X117621501Y-77451395D01*
X117621506Y-77451402D01*
X117788597Y-77618493D01*
X117788603Y-77618498D01*
X117974158Y-77748425D01*
X118017783Y-77803002D01*
X118024977Y-77872500D01*
X117993454Y-77934855D01*
X117974158Y-77951575D01*
X117788597Y-78081505D01*
X117621505Y-78248597D01*
X117485965Y-78442169D01*
X117485964Y-78442171D01*
X117386098Y-78656335D01*
X117386094Y-78656344D01*
X117324938Y-78884586D01*
X117324936Y-78884596D01*
X117304341Y-79119999D01*
X117304341Y-79120000D01*
X117324936Y-79355403D01*
X117324938Y-79355413D01*
X117386094Y-79583655D01*
X117386096Y-79583659D01*
X117386097Y-79583663D01*
X117415320Y-79646331D01*
X117485965Y-79797830D01*
X117485967Y-79797834D01*
X117621501Y-79991395D01*
X117621506Y-79991402D01*
X117788597Y-80158493D01*
X117788603Y-80158498D01*
X117974158Y-80288425D01*
X118017783Y-80343002D01*
X118024977Y-80412500D01*
X117993454Y-80474855D01*
X117974158Y-80491575D01*
X117788597Y-80621505D01*
X117621505Y-80788597D01*
X117485965Y-80982169D01*
X117485964Y-80982171D01*
X117386098Y-81196335D01*
X117386094Y-81196344D01*
X117324938Y-81424586D01*
X117324936Y-81424596D01*
X117304341Y-81659999D01*
X117304341Y-81660000D01*
X117324936Y-81895403D01*
X117324938Y-81895413D01*
X117386094Y-82123655D01*
X117386096Y-82123659D01*
X117386097Y-82123663D01*
X117485965Y-82337830D01*
X117485967Y-82337834D01*
X117621501Y-82531395D01*
X117621506Y-82531402D01*
X117788597Y-82698493D01*
X117788603Y-82698498D01*
X117974158Y-82828425D01*
X118017783Y-82883002D01*
X118024977Y-82952500D01*
X117993454Y-83014855D01*
X117974158Y-83031575D01*
X117788596Y-83161506D01*
X117772703Y-83177399D01*
X117711379Y-83210883D01*
X117641687Y-83205897D01*
X117597343Y-83177397D01*
X106406884Y-71986938D01*
X106373399Y-71925615D01*
X106374791Y-71867162D01*
X106385633Y-71826699D01*
X106385632Y-71826699D01*
X106385635Y-71826692D01*
X106405468Y-71600000D01*
X106385635Y-71373308D01*
X106330535Y-71167671D01*
X106326741Y-71153511D01*
X106326738Y-71153502D01*
X106324336Y-71148350D01*
X106230568Y-70947266D01*
X106113319Y-70779815D01*
X106100045Y-70760858D01*
X105939141Y-70599954D01*
X105752734Y-70469432D01*
X105752732Y-70469431D01*
X105546497Y-70373261D01*
X105546488Y-70373258D01*
X105326697Y-70314366D01*
X105326693Y-70314365D01*
X105326692Y-70314365D01*
X105326691Y-70314364D01*
X105326686Y-70314364D01*
X105100002Y-70294532D01*
X105099998Y-70294532D01*
X104873313Y-70314364D01*
X104873302Y-70314366D01*
X104653511Y-70373258D01*
X104653502Y-70373261D01*
X104447267Y-70469431D01*
X104447265Y-70469432D01*
X104260858Y-70599954D01*
X104099954Y-70760858D01*
X103969432Y-70947265D01*
X103969431Y-70947267D01*
X103873261Y-71153502D01*
X103873258Y-71153511D01*
X103814366Y-71373302D01*
X103814364Y-71373313D01*
X103794532Y-71599998D01*
X103794532Y-71600001D01*
X103814364Y-71826686D01*
X103814366Y-71826697D01*
X103873258Y-72046488D01*
X103873261Y-72046497D01*
X103969431Y-72252732D01*
X103969432Y-72252734D01*
X104099954Y-72439141D01*
X104260858Y-72600045D01*
X104260861Y-72600047D01*
X104381246Y-72684341D01*
X104437779Y-72723925D01*
X104481404Y-72778501D01*
X104488598Y-72848000D01*
X104457076Y-72910355D01*
X104396846Y-72945769D01*
X104366656Y-72949500D01*
X93132473Y-72949500D01*
X93065434Y-72929815D01*
X93019679Y-72877011D01*
X93009735Y-72807853D01*
X93038760Y-72744297D01*
X93061348Y-72723926D01*
X93125471Y-72679024D01*
X92446447Y-72000000D01*
X92452661Y-72000000D01*
X92554394Y-71972741D01*
X92645606Y-71920080D01*
X92720080Y-71845606D01*
X92772741Y-71754394D01*
X92800000Y-71652661D01*
X92800000Y-71646447D01*
X93479024Y-72325471D01*
X93530136Y-72252478D01*
X93626264Y-72046331D01*
X93626269Y-72046317D01*
X93685139Y-71826610D01*
X93685141Y-71826599D01*
X93704966Y-71600002D01*
X93704966Y-71599997D01*
X93685141Y-71373400D01*
X93685139Y-71373389D01*
X93626269Y-71153682D01*
X93626264Y-71153668D01*
X93530136Y-70947521D01*
X93530132Y-70947513D01*
X93479025Y-70874526D01*
X92800000Y-71553551D01*
X92800000Y-71547339D01*
X92772741Y-71445606D01*
X92720080Y-71354394D01*
X92645606Y-71279920D01*
X92554394Y-71227259D01*
X92452661Y-71200000D01*
X92446448Y-71200000D01*
X93125472Y-70520974D01*
X93052478Y-70469863D01*
X92846331Y-70373735D01*
X92846317Y-70373730D01*
X92626610Y-70314860D01*
X92626599Y-70314858D01*
X92400002Y-70295034D01*
X92399998Y-70295034D01*
X92173400Y-70314858D01*
X92173389Y-70314860D01*
X91953682Y-70373730D01*
X91953673Y-70373734D01*
X91747516Y-70469866D01*
X91747512Y-70469868D01*
X91674526Y-70520973D01*
X91674526Y-70520974D01*
X92353553Y-71200000D01*
X92347339Y-71200000D01*
X92245606Y-71227259D01*
X92154394Y-71279920D01*
X92079920Y-71354394D01*
X92027259Y-71445606D01*
X92000000Y-71547339D01*
X92000000Y-71553552D01*
X91320974Y-70874526D01*
X91320973Y-70874526D01*
X91269868Y-70947512D01*
X91269866Y-70947516D01*
X91173736Y-71153669D01*
X91173730Y-71153682D01*
X91114860Y-71373389D01*
X91114858Y-71373400D01*
X91095034Y-71599997D01*
X91095034Y-71600002D01*
X91114858Y-71826599D01*
X91114860Y-71826610D01*
X91173730Y-72046317D01*
X91173735Y-72046331D01*
X91269863Y-72252478D01*
X91320974Y-72325472D01*
X92000000Y-71646446D01*
X92000000Y-71652661D01*
X92027259Y-71754394D01*
X92079920Y-71845606D01*
X92154394Y-71920080D01*
X92245606Y-71972741D01*
X92347339Y-72000000D01*
X92353553Y-72000000D01*
X91674526Y-72679025D01*
X91738650Y-72723926D01*
X91782275Y-72778503D01*
X91789467Y-72848001D01*
X91757944Y-72910356D01*
X91697714Y-72945769D01*
X91667526Y-72949500D01*
X89020808Y-72949500D01*
X88953769Y-72929815D01*
X88933127Y-72913181D01*
X80899943Y-64879997D01*
X82395034Y-64879997D01*
X82395034Y-64880002D01*
X82414858Y-65106599D01*
X82414860Y-65106610D01*
X82473730Y-65326317D01*
X82473735Y-65326331D01*
X82569863Y-65532478D01*
X82620974Y-65605472D01*
X83300000Y-64926446D01*
X83300000Y-64932661D01*
X83327259Y-65034394D01*
X83379920Y-65125606D01*
X83454394Y-65200080D01*
X83545606Y-65252741D01*
X83647339Y-65280000D01*
X83653553Y-65280000D01*
X82974526Y-65959025D01*
X83047513Y-66010132D01*
X83047521Y-66010136D01*
X83253668Y-66106264D01*
X83253682Y-66106269D01*
X83473389Y-66165139D01*
X83473400Y-66165141D01*
X83699998Y-66184966D01*
X83700002Y-66184966D01*
X83926599Y-66165141D01*
X83926610Y-66165139D01*
X84146317Y-66106269D01*
X84146331Y-66106264D01*
X84352478Y-66010136D01*
X84425471Y-65959024D01*
X83746447Y-65280000D01*
X83752661Y-65280000D01*
X83854394Y-65252741D01*
X83945606Y-65200080D01*
X84020080Y-65125606D01*
X84072741Y-65034394D01*
X84100000Y-64932661D01*
X84100000Y-64926447D01*
X84779024Y-65605471D01*
X84830136Y-65532478D01*
X84926264Y-65326331D01*
X84926269Y-65326317D01*
X84985139Y-65106610D01*
X84985141Y-65106599D01*
X85004966Y-64880002D01*
X85004966Y-64879997D01*
X84985141Y-64653400D01*
X84985139Y-64653389D01*
X84926269Y-64433682D01*
X84926264Y-64433668D01*
X84830136Y-64227521D01*
X84830132Y-64227513D01*
X84779025Y-64154526D01*
X84100000Y-64833551D01*
X84100000Y-64827339D01*
X84072741Y-64725606D01*
X84020080Y-64634394D01*
X83945606Y-64559920D01*
X83854394Y-64507259D01*
X83752661Y-64480000D01*
X83746448Y-64480000D01*
X84425472Y-63800974D01*
X84352478Y-63749863D01*
X84146331Y-63653735D01*
X84146317Y-63653730D01*
X83926610Y-63594860D01*
X83926599Y-63594858D01*
X83700002Y-63575034D01*
X83699998Y-63575034D01*
X83473400Y-63594858D01*
X83473389Y-63594860D01*
X83253682Y-63653730D01*
X83253673Y-63653734D01*
X83047516Y-63749866D01*
X83047512Y-63749868D01*
X82974526Y-63800973D01*
X82974526Y-63800974D01*
X83653553Y-64480000D01*
X83647339Y-64480000D01*
X83545606Y-64507259D01*
X83454394Y-64559920D01*
X83379920Y-64634394D01*
X83327259Y-64725606D01*
X83300000Y-64827339D01*
X83300000Y-64833552D01*
X82620974Y-64154526D01*
X82620973Y-64154526D01*
X82569868Y-64227512D01*
X82569866Y-64227516D01*
X82473734Y-64433673D01*
X82473730Y-64433682D01*
X82414860Y-64653389D01*
X82414858Y-64653400D01*
X82395034Y-64879997D01*
X80899943Y-64879997D01*
X79086819Y-63066873D01*
X79053334Y-63005550D01*
X79050500Y-62979192D01*
X79050500Y-58345808D01*
X79070185Y-58278769D01*
X79086819Y-58258127D01*
X84558127Y-52786819D01*
X84619450Y-52753334D01*
X84645808Y-52750500D01*
X88064071Y-52750500D01*
X88148615Y-52733682D01*
X88189744Y-52725501D01*
X88308127Y-52676465D01*
X88414669Y-52605277D01*
X89605277Y-51414669D01*
X89676465Y-51308127D01*
X89722204Y-51197702D01*
X89766044Y-51143299D01*
X89832338Y-51121234D01*
X89889166Y-51132772D01*
X89932337Y-51152903D01*
X89932343Y-51152904D01*
X89932344Y-51152905D01*
X89987285Y-51167626D01*
X90160592Y-51214063D01*
X90331319Y-51229000D01*
X90395999Y-51234659D01*
X90396000Y-51234659D01*
X90396001Y-51234659D01*
X90460681Y-51229000D01*
X90631408Y-51214063D01*
X90859663Y-51152903D01*
X91073830Y-51053035D01*
X91267401Y-50917495D01*
X91434495Y-50750401D01*
X91564425Y-50564842D01*
X91619002Y-50521217D01*
X91688500Y-50514023D01*
X91750855Y-50545546D01*
G37*
%TD.AperFunction*%
%TA.AperFunction,Conductor*%
G36*
X91619729Y-74270185D02*
G01*
X91640371Y-74286819D01*
X92353553Y-75000000D01*
X92347339Y-75000000D01*
X92245606Y-75027259D01*
X92154394Y-75079920D01*
X92079920Y-75154394D01*
X92027259Y-75245606D01*
X92000000Y-75347339D01*
X92000000Y-75353552D01*
X91320974Y-74674526D01*
X91320973Y-74674526D01*
X91269868Y-74747512D01*
X91269866Y-74747516D01*
X91173734Y-74953673D01*
X91173730Y-74953682D01*
X91114860Y-75173389D01*
X91114858Y-75173400D01*
X91095034Y-75399997D01*
X91095034Y-75400002D01*
X91114858Y-75626599D01*
X91114860Y-75626610D01*
X91173730Y-75846317D01*
X91173734Y-75846326D01*
X91232847Y-75973095D01*
X91243339Y-76042173D01*
X91214819Y-76105957D01*
X91156343Y-76144196D01*
X91120465Y-76149500D01*
X91097608Y-76149500D01*
X91030569Y-76129815D01*
X91009927Y-76113181D01*
X89358927Y-74462181D01*
X89325442Y-74400858D01*
X89330426Y-74331166D01*
X89372298Y-74275233D01*
X89437762Y-74250816D01*
X89446608Y-74250500D01*
X91552690Y-74250500D01*
X91619729Y-74270185D01*
G37*
%TD.AperFunction*%
%TA.AperFunction,Conductor*%
G36*
X104177990Y-74270185D02*
G01*
X104223745Y-74322989D01*
X104233689Y-74392147D01*
X104204664Y-74455703D01*
X104198632Y-74462181D01*
X104099954Y-74560858D01*
X103969432Y-74747265D01*
X103969431Y-74747267D01*
X103873261Y-74953502D01*
X103873258Y-74953511D01*
X103814366Y-75173302D01*
X103814364Y-75173313D01*
X103794532Y-75399998D01*
X103794532Y-75400001D01*
X103814364Y-75626686D01*
X103814366Y-75626697D01*
X103873258Y-75846488D01*
X103873263Y-75846502D01*
X103932295Y-75973096D01*
X103942787Y-76042173D01*
X103914267Y-76105957D01*
X103855790Y-76144196D01*
X103819913Y-76149500D01*
X93679535Y-76149500D01*
X93612496Y-76129815D01*
X93566741Y-76077011D01*
X93556797Y-76007853D01*
X93567153Y-75973095D01*
X93626265Y-75846326D01*
X93626269Y-75846317D01*
X93685139Y-75626610D01*
X93685141Y-75626599D01*
X93704966Y-75400002D01*
X93704966Y-75399997D01*
X93685141Y-75173400D01*
X93685139Y-75173389D01*
X93626269Y-74953682D01*
X93626264Y-74953668D01*
X93530136Y-74747521D01*
X93530132Y-74747513D01*
X93479025Y-74674526D01*
X92800000Y-75353551D01*
X92800000Y-75347339D01*
X92772741Y-75245606D01*
X92720080Y-75154394D01*
X92645606Y-75079920D01*
X92554394Y-75027259D01*
X92452661Y-75000000D01*
X92446448Y-75000000D01*
X93159628Y-74286819D01*
X93220951Y-74253334D01*
X93247309Y-74250500D01*
X104110951Y-74250500D01*
X104177990Y-74270185D01*
G37*
%TD.AperFunction*%
%TA.AperFunction,Conductor*%
G36*
X120015160Y-72166110D02*
G01*
X120031879Y-72185405D01*
X120161890Y-72371078D01*
X120328917Y-72538105D01*
X120514595Y-72668119D01*
X120558219Y-72722696D01*
X120565412Y-72792195D01*
X120533890Y-72854549D01*
X120514595Y-72871269D01*
X120328594Y-73001508D01*
X120161505Y-73168597D01*
X120031575Y-73354158D01*
X119976998Y-73397783D01*
X119907500Y-73404977D01*
X119845145Y-73373454D01*
X119828425Y-73354158D01*
X119698494Y-73168597D01*
X119531402Y-73001506D01*
X119531396Y-73001501D01*
X119345842Y-72871575D01*
X119302217Y-72816998D01*
X119295023Y-72747500D01*
X119326546Y-72685145D01*
X119345842Y-72668425D01*
X119368026Y-72652891D01*
X119531401Y-72538495D01*
X119698495Y-72371401D01*
X119828730Y-72185405D01*
X119883307Y-72141781D01*
X119952805Y-72134587D01*
X120015160Y-72166110D01*
G37*
%TD.AperFunction*%
%TA.AperFunction,Conductor*%
G36*
X60166000Y-49445988D02*
G01*
X60108993Y-49413075D01*
X59981826Y-49379000D01*
X59850174Y-49379000D01*
X59723007Y-49413075D01*
X59666000Y-49445988D01*
X59666000Y-47772012D01*
X59723007Y-47804925D01*
X59850174Y-47839000D01*
X59981826Y-47839000D01*
X60108993Y-47804925D01*
X60166000Y-47772012D01*
X60166000Y-49445988D01*
G37*
%TD.AperFunction*%
%TA.AperFunction,Conductor*%
G36*
X60160000Y-45971205D02*
G01*
X60163166Y-45977004D01*
X60166000Y-46003362D01*
X60166000Y-46905988D01*
X60108993Y-46873075D01*
X59981826Y-46839000D01*
X59850174Y-46839000D01*
X59723007Y-46873075D01*
X59666000Y-46905988D01*
X59666000Y-46157794D01*
X59662834Y-46151996D01*
X59660000Y-46125638D01*
X59660000Y-45223012D01*
X59717007Y-45255925D01*
X59844174Y-45290000D01*
X59975826Y-45290000D01*
X60102993Y-45255925D01*
X60160000Y-45223012D01*
X60160000Y-45971205D01*
G37*
%TD.AperFunction*%
%TA.AperFunction,Conductor*%
G36*
X60160000Y-44356988D02*
G01*
X60102993Y-44324075D01*
X59975826Y-44290000D01*
X59844174Y-44290000D01*
X59717007Y-44324075D01*
X59660000Y-44356988D01*
X59660000Y-42683012D01*
X59717007Y-42715925D01*
X59844174Y-42750000D01*
X59975826Y-42750000D01*
X60102993Y-42715925D01*
X60160000Y-42683012D01*
X60160000Y-44356988D01*
G37*
%TD.AperFunction*%
%TA.AperFunction,Conductor*%
G36*
X124742539Y-37970185D02*
G01*
X124788294Y-38022989D01*
X124799500Y-38074500D01*
X124799500Y-109875500D01*
X124779815Y-109942539D01*
X124727011Y-109988294D01*
X124675500Y-109999500D01*
X49824500Y-109999500D01*
X49757461Y-109979815D01*
X49711706Y-109927011D01*
X49700500Y-109875500D01*
X49700500Y-103684938D01*
X86658600Y-103684938D01*
X86658600Y-103936861D01*
X86698010Y-104185685D01*
X86775860Y-104425283D01*
X86890232Y-104649748D01*
X87038301Y-104853549D01*
X87038305Y-104853554D01*
X87216445Y-105031694D01*
X87216450Y-105031698D01*
X87370737Y-105143793D01*
X87420255Y-105179770D01*
X87563284Y-105252647D01*
X87644716Y-105294139D01*
X87644718Y-105294139D01*
X87644721Y-105294141D01*
X87884315Y-105371990D01*
X88133138Y-105411400D01*
X88133139Y-105411400D01*
X88385061Y-105411400D01*
X88385062Y-105411400D01*
X88633885Y-105371990D01*
X88873479Y-105294141D01*
X89097945Y-105179770D01*
X89301756Y-105031693D01*
X89479893Y-104853556D01*
X89627970Y-104649745D01*
X89742341Y-104425279D01*
X89820190Y-104185685D01*
X89859600Y-103936862D01*
X89859600Y-103684938D01*
X89820190Y-103436115D01*
X89742341Y-103196521D01*
X89742339Y-103196518D01*
X89742339Y-103196516D01*
X89692906Y-103099500D01*
X89627970Y-102972055D01*
X89609052Y-102946017D01*
X89540843Y-102852135D01*
X106399500Y-102852135D01*
X106399500Y-104747870D01*
X106399501Y-104747876D01*
X106405908Y-104807483D01*
X106456202Y-104942328D01*
X106456206Y-104942335D01*
X106542452Y-105057544D01*
X106542455Y-105057547D01*
X106657664Y-105143793D01*
X106657671Y-105143797D01*
X106792517Y-105194091D01*
X106792516Y-105194091D01*
X106799444Y-105194835D01*
X106852127Y-105200500D01*
X108747872Y-105200499D01*
X108807483Y-105194091D01*
X108942331Y-105143796D01*
X109057546Y-105057546D01*
X109143796Y-104942331D01*
X109194091Y-104807483D01*
X109200500Y-104747873D01*
X109200499Y-104637304D01*
X109220183Y-104570268D01*
X109236818Y-104549626D01*
X109897861Y-103888584D01*
X109920667Y-103973694D01*
X109979910Y-104076306D01*
X110063694Y-104160090D01*
X110166306Y-104219333D01*
X110251414Y-104242138D01*
X109541201Y-104952351D01*
X109571649Y-104976050D01*
X109775697Y-105086476D01*
X109775706Y-105086479D01*
X109995139Y-105161811D01*
X110223993Y-105200000D01*
X110456007Y-105200000D01*
X110684860Y-105161811D01*
X110904293Y-105086479D01*
X110904301Y-105086476D01*
X111108355Y-104976047D01*
X111138797Y-104952351D01*
X111138798Y-104952350D01*
X110428585Y-104242137D01*
X110513694Y-104219333D01*
X110616306Y-104160090D01*
X110700090Y-104076306D01*
X110759333Y-103973694D01*
X110782138Y-103888585D01*
X111491186Y-104597633D01*
X111575482Y-104468611D01*
X111668682Y-104256135D01*
X111725638Y-104031218D01*
X111744798Y-103800005D01*
X111744798Y-103799994D01*
X111725638Y-103568781D01*
X111668682Y-103343864D01*
X111575484Y-103131393D01*
X111491186Y-103002365D01*
X110782137Y-103711414D01*
X110759333Y-103626306D01*
X110700090Y-103523694D01*
X110616306Y-103439910D01*
X110513694Y-103380667D01*
X110428584Y-103357861D01*
X111138797Y-102647647D01*
X111138797Y-102647645D01*
X111108360Y-102623955D01*
X111108354Y-102623951D01*
X110904302Y-102513523D01*
X110904293Y-102513520D01*
X110684860Y-102438188D01*
X110456007Y-102400000D01*
X110223993Y-102400000D01*
X109995139Y-102438188D01*
X109775706Y-102513520D01*
X109775697Y-102513523D01*
X109571650Y-102623949D01*
X109541200Y-102647647D01*
X110251415Y-103357861D01*
X110166306Y-103380667D01*
X110063694Y-103439910D01*
X109979910Y-103523694D01*
X109920667Y-103626306D01*
X109897861Y-103711415D01*
X109236818Y-103050372D01*
X109203333Y-102989049D01*
X109200499Y-102962691D01*
X109200499Y-102852129D01*
X109200498Y-102852123D01*
X109200497Y-102852116D01*
X109194091Y-102792517D01*
X109161196Y-102704322D01*
X109143797Y-102657671D01*
X109143793Y-102657664D01*
X109057547Y-102542455D01*
X109057544Y-102542452D01*
X108942335Y-102456206D01*
X108942328Y-102456202D01*
X108807482Y-102405908D01*
X108807483Y-102405908D01*
X108747883Y-102399501D01*
X108747881Y-102399500D01*
X108747873Y-102399500D01*
X108747864Y-102399500D01*
X106852129Y-102399500D01*
X106852123Y-102399501D01*
X106792516Y-102405908D01*
X106657671Y-102456202D01*
X106657664Y-102456206D01*
X106542455Y-102542452D01*
X106542452Y-102542455D01*
X106456206Y-102657664D01*
X106456202Y-102657671D01*
X106405908Y-102792517D01*
X106401684Y-102831811D01*
X106399501Y-102852123D01*
X106399500Y-102852135D01*
X89540843Y-102852135D01*
X89479898Y-102768250D01*
X89479894Y-102768245D01*
X89301754Y-102590105D01*
X89301749Y-102590101D01*
X89097948Y-102442032D01*
X89097947Y-102442031D01*
X89097945Y-102442030D01*
X89027053Y-102405909D01*
X88873483Y-102327660D01*
X88633885Y-102249810D01*
X88610853Y-102246162D01*
X88385062Y-102210400D01*
X88133138Y-102210400D01*
X88008726Y-102230105D01*
X87884314Y-102249810D01*
X87644716Y-102327660D01*
X87420251Y-102442032D01*
X87216450Y-102590101D01*
X87216445Y-102590105D01*
X87038305Y-102768245D01*
X87038301Y-102768250D01*
X86890232Y-102972051D01*
X86775860Y-103196516D01*
X86698010Y-103436114D01*
X86658600Y-103684938D01*
X49700500Y-103684938D01*
X49700500Y-98599998D01*
X107694532Y-98599998D01*
X107694532Y-98600001D01*
X107714364Y-98826686D01*
X107714366Y-98826697D01*
X107773258Y-99046488D01*
X107773261Y-99046497D01*
X107869431Y-99252732D01*
X107869432Y-99252734D01*
X107999954Y-99439141D01*
X108160858Y-99600045D01*
X108160861Y-99600047D01*
X108347266Y-99730568D01*
X108553504Y-99826739D01*
X108773308Y-99885635D01*
X108935230Y-99899801D01*
X108999998Y-99905468D01*
X109000000Y-99905468D01*
X109000002Y-99905468D01*
X109056673Y-99900509D01*
X109226692Y-99885635D01*
X109446496Y-99826739D01*
X109652734Y-99730568D01*
X109839139Y-99600047D01*
X110000047Y-99439139D01*
X110130568Y-99252734D01*
X110226739Y-99046496D01*
X110285635Y-98826692D01*
X110305468Y-98600000D01*
X110285635Y-98373308D01*
X110226739Y-98153504D01*
X110130568Y-97947266D01*
X110000047Y-97760861D01*
X110000045Y-97760858D01*
X109839141Y-97599954D01*
X109652734Y-97469432D01*
X109652732Y-97469431D01*
X109446497Y-97373261D01*
X109446488Y-97373258D01*
X109226697Y-97314366D01*
X109226693Y-97314365D01*
X109226692Y-97314365D01*
X109226691Y-97314364D01*
X109226686Y-97314364D01*
X109000002Y-97294532D01*
X108999998Y-97294532D01*
X108773313Y-97314364D01*
X108773302Y-97314366D01*
X108553511Y-97373258D01*
X108553502Y-97373261D01*
X108347267Y-97469431D01*
X108347265Y-97469432D01*
X108160858Y-97599954D01*
X107999954Y-97760858D01*
X107869432Y-97947265D01*
X107869431Y-97947267D01*
X107773261Y-98153502D01*
X107773258Y-98153511D01*
X107714366Y-98373302D01*
X107714364Y-98373313D01*
X107694532Y-98599998D01*
X49700500Y-98599998D01*
X49700500Y-84694994D01*
X51696057Y-84694994D01*
X51696057Y-84695005D01*
X51716590Y-84942812D01*
X51716592Y-84942824D01*
X51777636Y-85183881D01*
X51877526Y-85411606D01*
X52013533Y-85619782D01*
X52013536Y-85619785D01*
X52181956Y-85802738D01*
X52378191Y-85955474D01*
X52436132Y-85986830D01*
X52568745Y-86058597D01*
X52596890Y-86073828D01*
X52750892Y-86126697D01*
X52821200Y-86150834D01*
X52832086Y-86154571D01*
X53077365Y-86195500D01*
X53326035Y-86195500D01*
X53571314Y-86154571D01*
X53806510Y-86073828D01*
X54025209Y-85955474D01*
X54221444Y-85802738D01*
X54389864Y-85619785D01*
X54525873Y-85411607D01*
X54625763Y-85183881D01*
X54686808Y-84942821D01*
X54690360Y-84899953D01*
X54707343Y-84695005D01*
X54707343Y-84694994D01*
X54686809Y-84447187D01*
X54686807Y-84447175D01*
X54625763Y-84206118D01*
X54525873Y-83978393D01*
X54389866Y-83770217D01*
X54350972Y-83727967D01*
X54221444Y-83587262D01*
X54025209Y-83434526D01*
X54025207Y-83434525D01*
X54025206Y-83434524D01*
X53806511Y-83316172D01*
X53806502Y-83316169D01*
X53571316Y-83235429D01*
X53326035Y-83194500D01*
X53077365Y-83194500D01*
X52832083Y-83235429D01*
X52596897Y-83316169D01*
X52596888Y-83316172D01*
X52378193Y-83434524D01*
X52181957Y-83587261D01*
X52013533Y-83770217D01*
X51877526Y-83978393D01*
X51777636Y-84206118D01*
X51716592Y-84447175D01*
X51716590Y-84447187D01*
X51696057Y-84694994D01*
X49700500Y-84694994D01*
X49700500Y-74454994D01*
X51696057Y-74454994D01*
X51696057Y-74455005D01*
X51716590Y-74702812D01*
X51716592Y-74702824D01*
X51777636Y-74943881D01*
X51877526Y-75171606D01*
X52013533Y-75379782D01*
X52013536Y-75379785D01*
X52181956Y-75562738D01*
X52378191Y-75715474D01*
X52596890Y-75833828D01*
X52832086Y-75914571D01*
X53077365Y-75955500D01*
X53326035Y-75955500D01*
X53571314Y-75914571D01*
X53806510Y-75833828D01*
X54025209Y-75715474D01*
X54221444Y-75562738D01*
X54389864Y-75379785D01*
X54525873Y-75171607D01*
X54625763Y-74943881D01*
X54686808Y-74702821D01*
X54686809Y-74702812D01*
X54707343Y-74455005D01*
X54707343Y-74454994D01*
X54686809Y-74207187D01*
X54686807Y-74207175D01*
X54625763Y-73966118D01*
X54525873Y-73738393D01*
X54389866Y-73530217D01*
X54332171Y-73467544D01*
X54221444Y-73347262D01*
X54025209Y-73194526D01*
X54025207Y-73194525D01*
X54025206Y-73194524D01*
X53806511Y-73076172D01*
X53806502Y-73076169D01*
X53571316Y-72995429D01*
X53326035Y-72954500D01*
X53077365Y-72954500D01*
X52832083Y-72995429D01*
X52596897Y-73076169D01*
X52596888Y-73076172D01*
X52378193Y-73194524D01*
X52181957Y-73347261D01*
X52013533Y-73530217D01*
X51877526Y-73738393D01*
X51777636Y-73966118D01*
X51716592Y-74207175D01*
X51716590Y-74207187D01*
X51696057Y-74454994D01*
X49700500Y-74454994D01*
X49700500Y-68657155D01*
X51701700Y-68657155D01*
X51701700Y-69455000D01*
X52768688Y-69455000D01*
X52735775Y-69512007D01*
X52701700Y-69639174D01*
X52701700Y-69770826D01*
X52735775Y-69897993D01*
X52768688Y-69955000D01*
X51701700Y-69955000D01*
X51701700Y-70752844D01*
X51708101Y-70812372D01*
X51708103Y-70812379D01*
X51758345Y-70947086D01*
X51758349Y-70947093D01*
X51844509Y-71062187D01*
X51844512Y-71062190D01*
X51959606Y-71148350D01*
X51959613Y-71148354D01*
X52094320Y-71198596D01*
X52094327Y-71198598D01*
X52153855Y-71204999D01*
X52153872Y-71205000D01*
X52951700Y-71205000D01*
X52951700Y-70138012D01*
X53008707Y-70170925D01*
X53135874Y-70205000D01*
X53267526Y-70205000D01*
X53394693Y-70170925D01*
X53451700Y-70138012D01*
X53451700Y-71205000D01*
X54249528Y-71205000D01*
X54249544Y-71204999D01*
X54309072Y-71198598D01*
X54309079Y-71198596D01*
X54443786Y-71148354D01*
X54443793Y-71148350D01*
X54558887Y-71062190D01*
X54558890Y-71062187D01*
X54645050Y-70947093D01*
X54645054Y-70947086D01*
X54695296Y-70812379D01*
X54695298Y-70812372D01*
X54701699Y-70752844D01*
X54701700Y-70752827D01*
X54701700Y-69955000D01*
X53634712Y-69955000D01*
X53667625Y-69897993D01*
X53701700Y-69770826D01*
X53701700Y-69639174D01*
X53667625Y-69512007D01*
X53634712Y-69455000D01*
X54701700Y-69455000D01*
X54701700Y-68657172D01*
X54701699Y-68657155D01*
X54695298Y-68597627D01*
X54695296Y-68597620D01*
X54645054Y-68462913D01*
X54645050Y-68462906D01*
X54558890Y-68347812D01*
X54558887Y-68347809D01*
X54443793Y-68261649D01*
X54443786Y-68261645D01*
X54309079Y-68211403D01*
X54309072Y-68211401D01*
X54249544Y-68205000D01*
X53451700Y-68205000D01*
X53451700Y-69271988D01*
X53394693Y-69239075D01*
X53267526Y-69205000D01*
X53135874Y-69205000D01*
X53008707Y-69239075D01*
X52951700Y-69271988D01*
X52951700Y-68205000D01*
X52153855Y-68205000D01*
X52094327Y-68211401D01*
X52094320Y-68211403D01*
X51959613Y-68261645D01*
X51959606Y-68261649D01*
X51844512Y-68347809D01*
X51844509Y-68347812D01*
X51758349Y-68462906D01*
X51758345Y-68462913D01*
X51708103Y-68597620D01*
X51708101Y-68597627D01*
X51701700Y-68657155D01*
X49700500Y-68657155D01*
X49700500Y-59879998D01*
X54634532Y-59879998D01*
X54634532Y-59880001D01*
X54654364Y-60106686D01*
X54654366Y-60106697D01*
X54713258Y-60326488D01*
X54713261Y-60326497D01*
X54809431Y-60532732D01*
X54809432Y-60532734D01*
X54939954Y-60719141D01*
X55100858Y-60880045D01*
X55100861Y-60880047D01*
X55287266Y-61010568D01*
X55493504Y-61106739D01*
X55713308Y-61165635D01*
X55875230Y-61179801D01*
X55939998Y-61185468D01*
X55940000Y-61185468D01*
X55940002Y-61185468D01*
X55996673Y-61180509D01*
X56166692Y-61165635D01*
X56285207Y-61133879D01*
X56355056Y-61135542D01*
X56412919Y-61174704D01*
X56440423Y-61238933D01*
X56441300Y-61253654D01*
X56441300Y-63506863D01*
X56421615Y-63573902D01*
X56368811Y-63619657D01*
X56299653Y-63629601D01*
X56285207Y-63626638D01*
X56166610Y-63594860D01*
X56166599Y-63594858D01*
X55940002Y-63575034D01*
X55939998Y-63575034D01*
X55713400Y-63594858D01*
X55713389Y-63594860D01*
X55493682Y-63653730D01*
X55493673Y-63653734D01*
X55287516Y-63749866D01*
X55287512Y-63749868D01*
X55214526Y-63800973D01*
X55214526Y-63800974D01*
X55893553Y-64480000D01*
X55887339Y-64480000D01*
X55785606Y-64507259D01*
X55694394Y-64559920D01*
X55619920Y-64634394D01*
X55567259Y-64725606D01*
X55540000Y-64827339D01*
X55540000Y-64833552D01*
X54860974Y-64154526D01*
X54860973Y-64154526D01*
X54809868Y-64227512D01*
X54809866Y-64227516D01*
X54713734Y-64433673D01*
X54713730Y-64433682D01*
X54654860Y-64653389D01*
X54654858Y-64653400D01*
X54635034Y-64879997D01*
X54635034Y-64880002D01*
X54654858Y-65106599D01*
X54654860Y-65106610D01*
X54713730Y-65326317D01*
X54713735Y-65326331D01*
X54809863Y-65532478D01*
X54860974Y-65605472D01*
X55540000Y-64926446D01*
X55540000Y-64932661D01*
X55567259Y-65034394D01*
X55619920Y-65125606D01*
X55694394Y-65200080D01*
X55785606Y-65252741D01*
X55887339Y-65280000D01*
X55893551Y-65280000D01*
X55214526Y-65959025D01*
X55287513Y-66010132D01*
X55287521Y-66010136D01*
X55493668Y-66106264D01*
X55493682Y-66106269D01*
X55713389Y-66165139D01*
X55713400Y-66165141D01*
X55939998Y-66184966D01*
X55940002Y-66184966D01*
X56166599Y-66165141D01*
X56166606Y-66165140D01*
X56285206Y-66133361D01*
X56355056Y-66135024D01*
X56412918Y-66174186D01*
X56440423Y-66238414D01*
X56441300Y-66253136D01*
X56441300Y-87126345D01*
X56421615Y-87193384D01*
X56368811Y-87239139D01*
X56299653Y-87249083D01*
X56285207Y-87246120D01*
X56166697Y-87214366D01*
X56166693Y-87214365D01*
X56166692Y-87214365D01*
X56166691Y-87214364D01*
X56166686Y-87214364D01*
X55940002Y-87194532D01*
X55939998Y-87194532D01*
X55713313Y-87214364D01*
X55713302Y-87214366D01*
X55493511Y-87273258D01*
X55493502Y-87273261D01*
X55287267Y-87369431D01*
X55287265Y-87369432D01*
X55100858Y-87499954D01*
X54939954Y-87660858D01*
X54809432Y-87847265D01*
X54809431Y-87847267D01*
X54713261Y-88053502D01*
X54713258Y-88053511D01*
X54654366Y-88273302D01*
X54654364Y-88273313D01*
X54634532Y-88499998D01*
X54634532Y-88500001D01*
X54654364Y-88726686D01*
X54654366Y-88726697D01*
X54713258Y-88946488D01*
X54713261Y-88946497D01*
X54809431Y-89152732D01*
X54809432Y-89152734D01*
X54939954Y-89339141D01*
X55100858Y-89500045D01*
X55147693Y-89532839D01*
X55287266Y-89630568D01*
X55493504Y-89726739D01*
X55713308Y-89785635D01*
X55875230Y-89799801D01*
X55939998Y-89805468D01*
X55940000Y-89805468D01*
X55940002Y-89805468D01*
X55996673Y-89800509D01*
X56166692Y-89785635D01*
X56285207Y-89753879D01*
X56355056Y-89755542D01*
X56412919Y-89794704D01*
X56440423Y-89858933D01*
X56441300Y-89873654D01*
X56441300Y-92126863D01*
X56421615Y-92193902D01*
X56368811Y-92239657D01*
X56299653Y-92249601D01*
X56285207Y-92246638D01*
X56166610Y-92214860D01*
X56166599Y-92214858D01*
X55940002Y-92195034D01*
X55939998Y-92195034D01*
X55713400Y-92214858D01*
X55713389Y-92214860D01*
X55493682Y-92273730D01*
X55493673Y-92273734D01*
X55287516Y-92369866D01*
X55287512Y-92369868D01*
X55214526Y-92420973D01*
X55214526Y-92420974D01*
X55893553Y-93100000D01*
X55887339Y-93100000D01*
X55785606Y-93127259D01*
X55694394Y-93179920D01*
X55619920Y-93254394D01*
X55567259Y-93345606D01*
X55540000Y-93447339D01*
X55540000Y-93453552D01*
X54860974Y-92774526D01*
X54860973Y-92774526D01*
X54809868Y-92847512D01*
X54809866Y-92847516D01*
X54713734Y-93053673D01*
X54713730Y-93053682D01*
X54654860Y-93273389D01*
X54654858Y-93273400D01*
X54635034Y-93499997D01*
X54635034Y-93500002D01*
X54654858Y-93726599D01*
X54654860Y-93726610D01*
X54713730Y-93946317D01*
X54713735Y-93946331D01*
X54809863Y-94152478D01*
X54860974Y-94225472D01*
X55540000Y-93546446D01*
X55540000Y-93552661D01*
X55567259Y-93654394D01*
X55619920Y-93745606D01*
X55694394Y-93820080D01*
X55785606Y-93872741D01*
X55887339Y-93900000D01*
X55893551Y-93900000D01*
X55214526Y-94579025D01*
X55287513Y-94630132D01*
X55287521Y-94630136D01*
X55488329Y-94723774D01*
X55540769Y-94769946D01*
X55559921Y-94837139D01*
X55548306Y-94888561D01*
X55471379Y-95053534D01*
X55467026Y-95062868D01*
X55467022Y-95062877D01*
X55410393Y-95274220D01*
X55410393Y-95274224D01*
X55391323Y-95492197D01*
X55391323Y-95492202D01*
X55410393Y-95710175D01*
X55410393Y-95710179D01*
X55467022Y-95921522D01*
X55467024Y-95921526D01*
X55467025Y-95921530D01*
X55507381Y-96008074D01*
X55559497Y-96119838D01*
X55563002Y-96124843D01*
X55685002Y-96299077D01*
X55839723Y-96453798D01*
X56018961Y-96579302D01*
X56217270Y-96671775D01*
X56428623Y-96728407D01*
X56611526Y-96744408D01*
X56646598Y-96747477D01*
X56646600Y-96747477D01*
X56646602Y-96747477D01*
X56674854Y-96745005D01*
X56864577Y-96728407D01*
X57075930Y-96671775D01*
X57274239Y-96579302D01*
X57453477Y-96453798D01*
X57608198Y-96299077D01*
X57623319Y-96277482D01*
X57677895Y-96233856D01*
X57747393Y-96226661D01*
X57809748Y-96258182D01*
X57812576Y-96260922D01*
X59644124Y-98092471D01*
X59644127Y-98092474D01*
X59644130Y-98092476D01*
X59694427Y-98126083D01*
X59750673Y-98163665D01*
X59869056Y-98212701D01*
X59869060Y-98212701D01*
X59869061Y-98212702D01*
X59994728Y-98237700D01*
X59994731Y-98237700D01*
X106764071Y-98237700D01*
X106848615Y-98220882D01*
X106889744Y-98212701D01*
X107008127Y-98163665D01*
X107013197Y-98160277D01*
X107023404Y-98153458D01*
X107084109Y-98112895D01*
X107114669Y-98092477D01*
X108390327Y-96816819D01*
X108451650Y-96783334D01*
X108478008Y-96780500D01*
X112009192Y-96780500D01*
X112076231Y-96800185D01*
X112096873Y-96816819D01*
X112438088Y-97158034D01*
X112471573Y-97219357D01*
X112466589Y-97289049D01*
X112424717Y-97344982D01*
X112382504Y-97365489D01*
X112353512Y-97373258D01*
X112353502Y-97373261D01*
X112147267Y-97469431D01*
X112147265Y-97469432D01*
X111960858Y-97599954D01*
X111799954Y-97760858D01*
X111669432Y-97947265D01*
X111669431Y-97947267D01*
X111573261Y-98153502D01*
X111573258Y-98153511D01*
X111514366Y-98373302D01*
X111514364Y-98373313D01*
X111494532Y-98599998D01*
X111494532Y-98600001D01*
X111514364Y-98826686D01*
X111514366Y-98826697D01*
X111573258Y-99046488D01*
X111573261Y-99046497D01*
X111669431Y-99252732D01*
X111669432Y-99252734D01*
X111799954Y-99439141D01*
X111960857Y-99600044D01*
X111960860Y-99600046D01*
X111960861Y-99600047D01*
X112046623Y-99660097D01*
X112090248Y-99714673D01*
X112099500Y-99761672D01*
X112099500Y-102431006D01*
X112099500Y-102568994D01*
X112099500Y-102568996D01*
X112099499Y-102568996D01*
X112126418Y-102704322D01*
X112126421Y-102704332D01*
X112179222Y-102831807D01*
X112255887Y-102946545D01*
X113653454Y-104344112D01*
X113768192Y-104420777D01*
X113895667Y-104473578D01*
X113895672Y-104473580D01*
X113895676Y-104473580D01*
X113895677Y-104473581D01*
X114031003Y-104500500D01*
X114031006Y-104500500D01*
X114031007Y-104500500D01*
X116475501Y-104500500D01*
X116542540Y-104520185D01*
X116588295Y-104572989D01*
X116599501Y-104624500D01*
X116599501Y-104747876D01*
X116605908Y-104807483D01*
X116656202Y-104942328D01*
X116656206Y-104942335D01*
X116742452Y-105057544D01*
X116742455Y-105057547D01*
X116857664Y-105143793D01*
X116857671Y-105143797D01*
X116992517Y-105194091D01*
X116992516Y-105194091D01*
X116999444Y-105194835D01*
X117052127Y-105200500D01*
X118947872Y-105200499D01*
X119007483Y-105194091D01*
X119142331Y-105143796D01*
X119257546Y-105057546D01*
X119343796Y-104942331D01*
X119394091Y-104807483D01*
X119400500Y-104747873D01*
X119400499Y-104637304D01*
X119420183Y-104570268D01*
X119436818Y-104549626D01*
X120097861Y-103888584D01*
X120120667Y-103973694D01*
X120179910Y-104076306D01*
X120263694Y-104160090D01*
X120366306Y-104219333D01*
X120451414Y-104242138D01*
X119741201Y-104952351D01*
X119771649Y-104976050D01*
X119975697Y-105086476D01*
X119975706Y-105086479D01*
X120195139Y-105161811D01*
X120423993Y-105200000D01*
X120656007Y-105200000D01*
X120884860Y-105161811D01*
X121104293Y-105086479D01*
X121104301Y-105086476D01*
X121308355Y-104976047D01*
X121338797Y-104952351D01*
X121338798Y-104952350D01*
X120628585Y-104242137D01*
X120713694Y-104219333D01*
X120816306Y-104160090D01*
X120900090Y-104076306D01*
X120959333Y-103973694D01*
X120982138Y-103888585D01*
X121691186Y-104597633D01*
X121775482Y-104468611D01*
X121868682Y-104256135D01*
X121925638Y-104031218D01*
X121944798Y-103800005D01*
X121944798Y-103799994D01*
X121925638Y-103568781D01*
X121868682Y-103343864D01*
X121775484Y-103131393D01*
X121691186Y-103002365D01*
X120982137Y-103711414D01*
X120959333Y-103626306D01*
X120900090Y-103523694D01*
X120816306Y-103439910D01*
X120713694Y-103380667D01*
X120628584Y-103357861D01*
X121338797Y-102647647D01*
X121338797Y-102647645D01*
X121308360Y-102623955D01*
X121308354Y-102623951D01*
X121104302Y-102513523D01*
X121104293Y-102513520D01*
X120884860Y-102438188D01*
X120656007Y-102400000D01*
X120423993Y-102400000D01*
X120195139Y-102438188D01*
X119975706Y-102513520D01*
X119975697Y-102513523D01*
X119771650Y-102623949D01*
X119741200Y-102647647D01*
X120451415Y-103357861D01*
X120366306Y-103380667D01*
X120263694Y-103439910D01*
X120179910Y-103523694D01*
X120120667Y-103626306D01*
X120097861Y-103711415D01*
X119436818Y-103050372D01*
X119403333Y-102989049D01*
X119400499Y-102962691D01*
X119400499Y-102852129D01*
X119400498Y-102852123D01*
X119400497Y-102852116D01*
X119394091Y-102792517D01*
X119361196Y-102704322D01*
X119343797Y-102657671D01*
X119343793Y-102657664D01*
X119257547Y-102542455D01*
X119257544Y-102542452D01*
X119142335Y-102456206D01*
X119142328Y-102456202D01*
X119007482Y-102405908D01*
X119007483Y-102405908D01*
X118947883Y-102399501D01*
X118947881Y-102399500D01*
X118947873Y-102399500D01*
X118947864Y-102399500D01*
X117052129Y-102399500D01*
X117052123Y-102399501D01*
X116992516Y-102405908D01*
X116857671Y-102456202D01*
X116857664Y-102456206D01*
X116742455Y-102542452D01*
X116742452Y-102542455D01*
X116656206Y-102657664D01*
X116656202Y-102657671D01*
X116605908Y-102792517D01*
X116601684Y-102831811D01*
X116599501Y-102852123D01*
X116599500Y-102852135D01*
X116599500Y-102975500D01*
X116579815Y-103042539D01*
X116527011Y-103088294D01*
X116475500Y-103099500D01*
X114441519Y-103099500D01*
X114374480Y-103079815D01*
X114353838Y-103063181D01*
X113536819Y-102246162D01*
X113503334Y-102184839D01*
X113500500Y-102158481D01*
X113500500Y-99761672D01*
X113520185Y-99694633D01*
X113553375Y-99660098D01*
X113639139Y-99600047D01*
X113800047Y-99439139D01*
X113930568Y-99252734D01*
X114026739Y-99046496D01*
X114034508Y-99017499D01*
X114070870Y-98957841D01*
X114133716Y-98927309D01*
X114203092Y-98935602D01*
X114241964Y-98961911D01*
X115585326Y-100305273D01*
X115585329Y-100305275D01*
X115585331Y-100305277D01*
X115691873Y-100376465D01*
X115810256Y-100425501D01*
X115810260Y-100425501D01*
X115810261Y-100425502D01*
X115935928Y-100450500D01*
X115935931Y-100450500D01*
X122364071Y-100450500D01*
X122448615Y-100433682D01*
X122489744Y-100425501D01*
X122608127Y-100376465D01*
X122714669Y-100305277D01*
X124155276Y-98864670D01*
X124226465Y-98758127D01*
X124275501Y-98639744D01*
X124278725Y-98623535D01*
X124300500Y-98514069D01*
X124300500Y-78885931D01*
X124300500Y-78885928D01*
X124275502Y-78760261D01*
X124275501Y-78760260D01*
X124275501Y-78760256D01*
X124248357Y-78694724D01*
X124226466Y-78641874D01*
X124163252Y-78547267D01*
X124155278Y-78535332D01*
X124155272Y-78535325D01*
X122914673Y-77294726D01*
X122914669Y-77294723D01*
X122808127Y-77223535D01*
X122689744Y-77174499D01*
X122689738Y-77174497D01*
X122581390Y-77152945D01*
X122519479Y-77120560D01*
X122484905Y-77059844D01*
X122485807Y-76999235D01*
X122535063Y-76815408D01*
X122555659Y-76580000D01*
X122535063Y-76344592D01*
X122473903Y-76116337D01*
X122374035Y-75902171D01*
X122368425Y-75894158D01*
X122238494Y-75708597D01*
X122071402Y-75541506D01*
X122071396Y-75541501D01*
X121885842Y-75411575D01*
X121842217Y-75356998D01*
X121835023Y-75287500D01*
X121866546Y-75225145D01*
X121885842Y-75208425D01*
X121963006Y-75154394D01*
X122071401Y-75078495D01*
X122238495Y-74911401D01*
X122374035Y-74717830D01*
X122473903Y-74503663D01*
X122535063Y-74275408D01*
X122555659Y-74040000D01*
X122535063Y-73804592D01*
X122480996Y-73602810D01*
X122473905Y-73576344D01*
X122473904Y-73576343D01*
X122473903Y-73576337D01*
X122374035Y-73362171D01*
X122368425Y-73354158D01*
X122238494Y-73168597D01*
X122071402Y-73001506D01*
X122071401Y-73001505D01*
X121885405Y-72871269D01*
X121841781Y-72816692D01*
X121834588Y-72747193D01*
X121866110Y-72684839D01*
X121885405Y-72668119D01*
X122071082Y-72538105D01*
X122238105Y-72371082D01*
X122373600Y-72177578D01*
X122473429Y-71963492D01*
X122473432Y-71963486D01*
X122530636Y-71750000D01*
X121633012Y-71750000D01*
X121665925Y-71692993D01*
X121700000Y-71565826D01*
X121700000Y-71434174D01*
X121665925Y-71307007D01*
X121633012Y-71250000D01*
X122530636Y-71250000D01*
X122530635Y-71249999D01*
X122473432Y-71036513D01*
X122473429Y-71036507D01*
X122373600Y-70822422D01*
X122373599Y-70822420D01*
X122238113Y-70628926D01*
X122238108Y-70628920D01*
X122071078Y-70461890D01*
X121885405Y-70331879D01*
X121841780Y-70277302D01*
X121834588Y-70207804D01*
X121866110Y-70145449D01*
X121885406Y-70128730D01*
X121885842Y-70128425D01*
X122071401Y-69998495D01*
X122238495Y-69831401D01*
X122374035Y-69637830D01*
X122473903Y-69423663D01*
X122535063Y-69195408D01*
X122555659Y-68960000D01*
X122535063Y-68724592D01*
X122476299Y-68505278D01*
X122473905Y-68496344D01*
X122473904Y-68496343D01*
X122473903Y-68496337D01*
X122374035Y-68282171D01*
X122359666Y-68261649D01*
X122238494Y-68088597D01*
X122071402Y-67921506D01*
X122071396Y-67921501D01*
X121885842Y-67791575D01*
X121842217Y-67736998D01*
X121835023Y-67667500D01*
X121866546Y-67605145D01*
X121885842Y-67588425D01*
X121973970Y-67526717D01*
X122071401Y-67458495D01*
X122238495Y-67291401D01*
X122374035Y-67097830D01*
X122473903Y-66883663D01*
X122535063Y-66655408D01*
X122555659Y-66420000D01*
X122535063Y-66184592D01*
X122473903Y-65956337D01*
X122374035Y-65742171D01*
X122332324Y-65682600D01*
X122238494Y-65548597D01*
X122071402Y-65381506D01*
X122071396Y-65381501D01*
X121885842Y-65251575D01*
X121842217Y-65196998D01*
X121835023Y-65127500D01*
X121866546Y-65065145D01*
X121885842Y-65048425D01*
X121960684Y-64996020D01*
X122071401Y-64918495D01*
X122238495Y-64751401D01*
X122374035Y-64557830D01*
X122473903Y-64343663D01*
X122535063Y-64115408D01*
X122555659Y-63880000D01*
X122535063Y-63644592D01*
X122473903Y-63416337D01*
X122374035Y-63202171D01*
X122332324Y-63142600D01*
X122238494Y-63008597D01*
X122071402Y-62841506D01*
X122071396Y-62841501D01*
X121885842Y-62711575D01*
X121842217Y-62656998D01*
X121835023Y-62587500D01*
X121866546Y-62525145D01*
X121885842Y-62508425D01*
X122029473Y-62407853D01*
X122071401Y-62378495D01*
X122238495Y-62211401D01*
X122374035Y-62017830D01*
X122473903Y-61803663D01*
X122535063Y-61575408D01*
X122555659Y-61340000D01*
X122535063Y-61104592D01*
X122473903Y-60876337D01*
X122374035Y-60662171D01*
X122283402Y-60532732D01*
X122238494Y-60468597D01*
X122071402Y-60301506D01*
X122071396Y-60301501D01*
X121885842Y-60171575D01*
X121842217Y-60116998D01*
X121835023Y-60047500D01*
X121866546Y-59985145D01*
X121885842Y-59968425D01*
X122002294Y-59886884D01*
X122071401Y-59838495D01*
X122238495Y-59671401D01*
X122374035Y-59477830D01*
X122473903Y-59263663D01*
X122535063Y-59035408D01*
X122555659Y-58800000D01*
X122535063Y-58564592D01*
X122473903Y-58336337D01*
X122374035Y-58122171D01*
X122371438Y-58118461D01*
X122238494Y-57928597D01*
X122071402Y-57761506D01*
X122071396Y-57761501D01*
X121885842Y-57631575D01*
X121842217Y-57576998D01*
X121835023Y-57507500D01*
X121866546Y-57445145D01*
X121885842Y-57428425D01*
X121955494Y-57379654D01*
X122071401Y-57298495D01*
X122238495Y-57131401D01*
X122374035Y-56937830D01*
X122473903Y-56723663D01*
X122535063Y-56495408D01*
X122555659Y-56260000D01*
X122535063Y-56024592D01*
X122473903Y-55796337D01*
X122374035Y-55582171D01*
X122338165Y-55530942D01*
X122238494Y-55388597D01*
X122071402Y-55221506D01*
X122071396Y-55221501D01*
X121885842Y-55091575D01*
X121842217Y-55036998D01*
X121835023Y-54967500D01*
X121866546Y-54905145D01*
X121885842Y-54888425D01*
X122068006Y-54760872D01*
X122071401Y-54758495D01*
X122238495Y-54591401D01*
X122374035Y-54397830D01*
X122473903Y-54183663D01*
X122535063Y-53955408D01*
X122555659Y-53720000D01*
X122535063Y-53484592D01*
X122473903Y-53256337D01*
X122374035Y-53042171D01*
X122278777Y-52906127D01*
X122238494Y-52848597D01*
X122071402Y-52681506D01*
X122071396Y-52681501D01*
X121885842Y-52551575D01*
X121842217Y-52496998D01*
X121835023Y-52427500D01*
X121866546Y-52365145D01*
X121885842Y-52348425D01*
X122014509Y-52258331D01*
X122071401Y-52218495D01*
X122238495Y-52051401D01*
X122374035Y-51857830D01*
X122473903Y-51643663D01*
X122535063Y-51415408D01*
X122555659Y-51180000D01*
X122535063Y-50944592D01*
X122473903Y-50716337D01*
X122374035Y-50502171D01*
X122287791Y-50379000D01*
X122238494Y-50308597D01*
X122071402Y-50141506D01*
X122071396Y-50141501D01*
X121885842Y-50011575D01*
X121842217Y-49956998D01*
X121835023Y-49887500D01*
X121866546Y-49825145D01*
X121885842Y-49808425D01*
X121908026Y-49792891D01*
X122071401Y-49678495D01*
X122238495Y-49511401D01*
X122374035Y-49317830D01*
X122473903Y-49103663D01*
X122535063Y-48875408D01*
X122555659Y-48640000D01*
X122535063Y-48404592D01*
X122473903Y-48176337D01*
X122374035Y-47962171D01*
X122287791Y-47839000D01*
X122238494Y-47768597D01*
X122071402Y-47601506D01*
X122071395Y-47601501D01*
X121877834Y-47465967D01*
X121877830Y-47465965D01*
X121869644Y-47462148D01*
X121663663Y-47366097D01*
X121663659Y-47366096D01*
X121663655Y-47366094D01*
X121435413Y-47304938D01*
X121435403Y-47304936D01*
X121200001Y-47284341D01*
X121199999Y-47284341D01*
X120964596Y-47304936D01*
X120964586Y-47304938D01*
X120736344Y-47366094D01*
X120736330Y-47366099D01*
X120637930Y-47411984D01*
X120568853Y-47422476D01*
X120505069Y-47393956D01*
X120482424Y-47368493D01*
X120467531Y-47346204D01*
X120467530Y-47346203D01*
X120435276Y-47297930D01*
X120435274Y-47297928D01*
X120435272Y-47297925D01*
X113682073Y-40544726D01*
X113682069Y-40544723D01*
X113575527Y-40473535D01*
X113457144Y-40424499D01*
X113457138Y-40424497D01*
X113331471Y-40399500D01*
X113331469Y-40399500D01*
X73745931Y-40399500D01*
X73745929Y-40399500D01*
X73620261Y-40424497D01*
X73620255Y-40424499D01*
X73501870Y-40473535D01*
X73395331Y-40544722D01*
X73395324Y-40544728D01*
X73037762Y-40902290D01*
X72976439Y-40935775D01*
X72917989Y-40934384D01*
X72845416Y-40914939D01*
X72845412Y-40914938D01*
X72845408Y-40914937D01*
X72845406Y-40914936D01*
X72845403Y-40914936D01*
X72610001Y-40894341D01*
X72609999Y-40894341D01*
X72374596Y-40914936D01*
X72374586Y-40914938D01*
X72146344Y-40976094D01*
X72146335Y-40976098D01*
X71932171Y-41075964D01*
X71932169Y-41075965D01*
X71738597Y-41211505D01*
X71571505Y-41378597D01*
X71441575Y-41564158D01*
X71386998Y-41607783D01*
X71317500Y-41614977D01*
X71255145Y-41583454D01*
X71238425Y-41564158D01*
X71108494Y-41378597D01*
X70941402Y-41211506D01*
X70941395Y-41211501D01*
X70747834Y-41075967D01*
X70747830Y-41075965D01*
X70747828Y-41075964D01*
X70533663Y-40976097D01*
X70533659Y-40976096D01*
X70533655Y-40976094D01*
X70305413Y-40914938D01*
X70305403Y-40914936D01*
X70070001Y-40894341D01*
X70069999Y-40894341D01*
X69834596Y-40914936D01*
X69834586Y-40914938D01*
X69606344Y-40976094D01*
X69606335Y-40976098D01*
X69392171Y-41075964D01*
X69392169Y-41075965D01*
X69198597Y-41211505D01*
X69031505Y-41378597D01*
X68901575Y-41564158D01*
X68846998Y-41607783D01*
X68777500Y-41614977D01*
X68715145Y-41583454D01*
X68698425Y-41564158D01*
X68568494Y-41378597D01*
X68401402Y-41211506D01*
X68401395Y-41211501D01*
X68207834Y-41075967D01*
X68207830Y-41075965D01*
X68207828Y-41075964D01*
X67993663Y-40976097D01*
X67993659Y-40976096D01*
X67993655Y-40976094D01*
X67765413Y-40914938D01*
X67765403Y-40914936D01*
X67530001Y-40894341D01*
X67529999Y-40894341D01*
X67294596Y-40914936D01*
X67294586Y-40914938D01*
X67066344Y-40976094D01*
X67066335Y-40976098D01*
X66852171Y-41075964D01*
X66852169Y-41075965D01*
X66658597Y-41211505D01*
X66491505Y-41378597D01*
X66361575Y-41564158D01*
X66306998Y-41607783D01*
X66237500Y-41614977D01*
X66175145Y-41583454D01*
X66158425Y-41564158D01*
X66028494Y-41378597D01*
X65861402Y-41211506D01*
X65861395Y-41211501D01*
X65667834Y-41075967D01*
X65667830Y-41075965D01*
X65667828Y-41075964D01*
X65453663Y-40976097D01*
X65453659Y-40976096D01*
X65453655Y-40976094D01*
X65225413Y-40914938D01*
X65225403Y-40914936D01*
X64990001Y-40894341D01*
X64989999Y-40894341D01*
X64754596Y-40914936D01*
X64754586Y-40914938D01*
X64526344Y-40976094D01*
X64526335Y-40976098D01*
X64312171Y-41075964D01*
X64312169Y-41075965D01*
X64118597Y-41211505D01*
X63951505Y-41378597D01*
X63821575Y-41564158D01*
X63766998Y-41607783D01*
X63697500Y-41614977D01*
X63635145Y-41583454D01*
X63618425Y-41564158D01*
X63488494Y-41378597D01*
X63321402Y-41211506D01*
X63321395Y-41211501D01*
X63127834Y-41075967D01*
X63127830Y-41075965D01*
X63127828Y-41075964D01*
X62913663Y-40976097D01*
X62913659Y-40976096D01*
X62913655Y-40976094D01*
X62685413Y-40914938D01*
X62685403Y-40914936D01*
X62450001Y-40894341D01*
X62449999Y-40894341D01*
X62214596Y-40914936D01*
X62214586Y-40914938D01*
X61986344Y-40976094D01*
X61986335Y-40976098D01*
X61772171Y-41075964D01*
X61772169Y-41075965D01*
X61578597Y-41211505D01*
X61411508Y-41378594D01*
X61281269Y-41564595D01*
X61226692Y-41608219D01*
X61157193Y-41615412D01*
X61094839Y-41583890D01*
X61078119Y-41564594D01*
X60948113Y-41378926D01*
X60948108Y-41378920D01*
X60781082Y-41211894D01*
X60587578Y-41076399D01*
X60373492Y-40976570D01*
X60373486Y-40976567D01*
X60160000Y-40919364D01*
X60160000Y-41816988D01*
X60102993Y-41784075D01*
X59975826Y-41750000D01*
X59844174Y-41750000D01*
X59717007Y-41784075D01*
X59660000Y-41816988D01*
X59660000Y-40919364D01*
X59659999Y-40919364D01*
X59446513Y-40976567D01*
X59446507Y-40976570D01*
X59232422Y-41076399D01*
X59232420Y-41076400D01*
X59038926Y-41211886D01*
X59038920Y-41211891D01*
X58871891Y-41378920D01*
X58871886Y-41378926D01*
X58736400Y-41572420D01*
X58736399Y-41572422D01*
X58636570Y-41786507D01*
X58636567Y-41786513D01*
X58579364Y-41999999D01*
X58579364Y-42000000D01*
X59476988Y-42000000D01*
X59444075Y-42057007D01*
X59410000Y-42184174D01*
X59410000Y-42315826D01*
X59444075Y-42442993D01*
X59476988Y-42500000D01*
X58579364Y-42500000D01*
X58636567Y-42713486D01*
X58636570Y-42713492D01*
X58736399Y-42927578D01*
X58871894Y-43121082D01*
X58994334Y-43243522D01*
X59027819Y-43304845D01*
X59022835Y-43374537D01*
X58980963Y-43430470D01*
X58949987Y-43447385D01*
X58817911Y-43496646D01*
X58817906Y-43496649D01*
X58702812Y-43582809D01*
X58702809Y-43582812D01*
X58616649Y-43697906D01*
X58616645Y-43697913D01*
X58566403Y-43832620D01*
X58566401Y-43832627D01*
X58560000Y-43892155D01*
X58560000Y-44540000D01*
X59476988Y-44540000D01*
X59444075Y-44597007D01*
X59410000Y-44724174D01*
X59410000Y-44855826D01*
X59444075Y-44982993D01*
X59476988Y-45040000D01*
X58560000Y-45040000D01*
X58560000Y-45687844D01*
X58566401Y-45747372D01*
X58566403Y-45747379D01*
X58616645Y-45882086D01*
X58616649Y-45882093D01*
X58702809Y-45997187D01*
X58702812Y-45997190D01*
X58817906Y-46083350D01*
X58817913Y-46083354D01*
X58959892Y-46136309D01*
X58958792Y-46139258D01*
X59006887Y-46166619D01*
X59039298Y-46228516D01*
X59033100Y-46298110D01*
X59005373Y-46340439D01*
X58877886Y-46467926D01*
X58742400Y-46661420D01*
X58742399Y-46661422D01*
X58642570Y-46875507D01*
X58642567Y-46875513D01*
X58585364Y-47088999D01*
X58585364Y-47089000D01*
X59482988Y-47089000D01*
X59450075Y-47146007D01*
X59416000Y-47273174D01*
X59416000Y-47404826D01*
X59450075Y-47531993D01*
X59482988Y-47589000D01*
X58585364Y-47589000D01*
X58642567Y-47802486D01*
X58642570Y-47802492D01*
X58742399Y-48016578D01*
X58877894Y-48210082D01*
X59000334Y-48332522D01*
X59033819Y-48393845D01*
X59028835Y-48463537D01*
X58986963Y-48519470D01*
X58955987Y-48536385D01*
X58823911Y-48585646D01*
X58823906Y-48585649D01*
X58708812Y-48671809D01*
X58708809Y-48671812D01*
X58622649Y-48786906D01*
X58622645Y-48786913D01*
X58572403Y-48921620D01*
X58572401Y-48921627D01*
X58566000Y-48981155D01*
X58566000Y-49629000D01*
X59482988Y-49629000D01*
X59450075Y-49686007D01*
X59416000Y-49813174D01*
X59416000Y-49944826D01*
X59450075Y-50071993D01*
X59482988Y-50129000D01*
X58566000Y-50129000D01*
X58566000Y-50776844D01*
X58572401Y-50836372D01*
X58572403Y-50836379D01*
X58622645Y-50971086D01*
X58622649Y-50971093D01*
X58708809Y-51086187D01*
X58708812Y-51086190D01*
X58823906Y-51172350D01*
X58823913Y-51172354D01*
X58958620Y-51222596D01*
X58958627Y-51222598D01*
X59018155Y-51228999D01*
X59018172Y-51229000D01*
X59666000Y-51229000D01*
X59666000Y-50312012D01*
X59723007Y-50344925D01*
X59850174Y-50379000D01*
X59981826Y-50379000D01*
X60108993Y-50344925D01*
X60166000Y-50312012D01*
X60166000Y-51229000D01*
X60813828Y-51229000D01*
X60813844Y-51228999D01*
X60873372Y-51222598D01*
X60873379Y-51222596D01*
X61008086Y-51172354D01*
X61008093Y-51172350D01*
X61123187Y-51086190D01*
X61123190Y-51086187D01*
X61209350Y-50971093D01*
X61209354Y-50971086D01*
X61258422Y-50839529D01*
X61300293Y-50783595D01*
X61365757Y-50759178D01*
X61434030Y-50774030D01*
X61462285Y-50795181D01*
X61584599Y-50917495D01*
X61661135Y-50971086D01*
X61778165Y-51053032D01*
X61778167Y-51053033D01*
X61778170Y-51053035D01*
X61992337Y-51152903D01*
X61992343Y-51152904D01*
X61992344Y-51152905D01*
X62047285Y-51167626D01*
X62220592Y-51214063D01*
X62391319Y-51229000D01*
X62455999Y-51234659D01*
X62456000Y-51234659D01*
X62456001Y-51234659D01*
X62520681Y-51229000D01*
X62691408Y-51214063D01*
X62919663Y-51152903D01*
X62967395Y-51130644D01*
X63036471Y-51120152D01*
X63100255Y-51148671D01*
X63138496Y-51207146D01*
X63143800Y-51243026D01*
X63143800Y-55184892D01*
X63124115Y-55251931D01*
X63107481Y-55272573D01*
X61866873Y-56513181D01*
X61805550Y-56546666D01*
X61779192Y-56549500D01*
X58135929Y-56549500D01*
X58010261Y-56574497D01*
X58010255Y-56574499D01*
X57891870Y-56623535D01*
X57785331Y-56694722D01*
X57785324Y-56694728D01*
X56586524Y-57893528D01*
X56533498Y-57972889D01*
X56515335Y-58000071D01*
X56466299Y-58118455D01*
X56466297Y-58118461D01*
X56441300Y-58244128D01*
X56441300Y-58506345D01*
X56421615Y-58573384D01*
X56368811Y-58619139D01*
X56299653Y-58629083D01*
X56285207Y-58626120D01*
X56166697Y-58594366D01*
X56166693Y-58594365D01*
X56166692Y-58594365D01*
X56166691Y-58594364D01*
X56166686Y-58594364D01*
X55940002Y-58574532D01*
X55939998Y-58574532D01*
X55713313Y-58594364D01*
X55713302Y-58594366D01*
X55493511Y-58653258D01*
X55493502Y-58653261D01*
X55287267Y-58749431D01*
X55287265Y-58749432D01*
X55100858Y-58879954D01*
X54939954Y-59040858D01*
X54809432Y-59227265D01*
X54809431Y-59227267D01*
X54713261Y-59433502D01*
X54713258Y-59433511D01*
X54654366Y-59653302D01*
X54654364Y-59653313D01*
X54634532Y-59879998D01*
X49700500Y-59879998D01*
X49700500Y-38074500D01*
X49720185Y-38007461D01*
X49772989Y-37961706D01*
X49824500Y-37950500D01*
X124675500Y-37950500D01*
X124742539Y-37970185D01*
G37*
%TD.AperFunction*%
%TD*%
M02*
