%TF.GenerationSoftware,KiCad,Pcbnew,8.0.3*%
%TF.CreationDate,2024-07-01T23:59:29+01:00*%
%TF.ProjectId,TIMIDE,54494d49-4445-42e6-9b69-6361645f7063,rev?*%
%TF.SameCoordinates,Original*%
%TF.FileFunction,Legend,Top*%
%TF.FilePolarity,Positive*%
%FSLAX46Y46*%
G04 Gerber Fmt 4.6, Leading zero omitted, Abs format (unit mm)*
G04 Created by KiCad (PCBNEW 8.0.3) date 2024-07-01 23:59:29*
%MOMM*%
%LPD*%
G01*
G04 APERTURE LIST*
%ADD10C,0.400000*%
%ADD11C,0.300000*%
%ADD12C,0.360000*%
%ADD13C,0.120000*%
G04 APERTURE END LIST*
D10*
X50310000Y-38620000D02*
X124200000Y-38620000D01*
X124200000Y-109400000D01*
X50310000Y-109400000D01*
X50310000Y-38620000D01*
D11*
X74316275Y-77354510D02*
X74316275Y-77854510D01*
X73457227Y-78068796D02*
X73457227Y-77354510D01*
X73457227Y-77354510D02*
X75097227Y-77354510D01*
X75097227Y-77354510D02*
X75097227Y-78068796D01*
X75097227Y-78997368D02*
X75097227Y-79140225D01*
X75097227Y-79140225D02*
X75019132Y-79283082D01*
X75019132Y-79283082D02*
X74941037Y-79354511D01*
X74941037Y-79354511D02*
X74784846Y-79425939D01*
X74784846Y-79425939D02*
X74472465Y-79497368D01*
X74472465Y-79497368D02*
X74081989Y-79497368D01*
X74081989Y-79497368D02*
X73769608Y-79425939D01*
X73769608Y-79425939D02*
X73613418Y-79354511D01*
X73613418Y-79354511D02*
X73535323Y-79283082D01*
X73535323Y-79283082D02*
X73457227Y-79140225D01*
X73457227Y-79140225D02*
X73457227Y-78997368D01*
X73457227Y-78997368D02*
X73535323Y-78854511D01*
X73535323Y-78854511D02*
X73613418Y-78783082D01*
X73613418Y-78783082D02*
X73769608Y-78711653D01*
X73769608Y-78711653D02*
X74081989Y-78640225D01*
X74081989Y-78640225D02*
X74472465Y-78640225D01*
X74472465Y-78640225D02*
X74784846Y-78711653D01*
X74784846Y-78711653D02*
X74941037Y-78783082D01*
X74941037Y-78783082D02*
X75019132Y-78854511D01*
X75019132Y-78854511D02*
X75097227Y-78997368D01*
X71675967Y-77354510D02*
X71675967Y-77854510D01*
X70816919Y-78068796D02*
X70816919Y-77354510D01*
X70816919Y-77354510D02*
X72456919Y-77354510D01*
X72456919Y-77354510D02*
X72456919Y-78068796D01*
X71754062Y-78925939D02*
X71832157Y-78783082D01*
X71832157Y-78783082D02*
X71910253Y-78711653D01*
X71910253Y-78711653D02*
X72066443Y-78640225D01*
X72066443Y-78640225D02*
X72144538Y-78640225D01*
X72144538Y-78640225D02*
X72300729Y-78711653D01*
X72300729Y-78711653D02*
X72378824Y-78783082D01*
X72378824Y-78783082D02*
X72456919Y-78925939D01*
X72456919Y-78925939D02*
X72456919Y-79211653D01*
X72456919Y-79211653D02*
X72378824Y-79354511D01*
X72378824Y-79354511D02*
X72300729Y-79425939D01*
X72300729Y-79425939D02*
X72144538Y-79497368D01*
X72144538Y-79497368D02*
X72066443Y-79497368D01*
X72066443Y-79497368D02*
X71910253Y-79425939D01*
X71910253Y-79425939D02*
X71832157Y-79354511D01*
X71832157Y-79354511D02*
X71754062Y-79211653D01*
X71754062Y-79211653D02*
X71754062Y-78925939D01*
X71754062Y-78925939D02*
X71675967Y-78783082D01*
X71675967Y-78783082D02*
X71597872Y-78711653D01*
X71597872Y-78711653D02*
X71441681Y-78640225D01*
X71441681Y-78640225D02*
X71129300Y-78640225D01*
X71129300Y-78640225D02*
X70973110Y-78711653D01*
X70973110Y-78711653D02*
X70895015Y-78783082D01*
X70895015Y-78783082D02*
X70816919Y-78925939D01*
X70816919Y-78925939D02*
X70816919Y-79211653D01*
X70816919Y-79211653D02*
X70895015Y-79354511D01*
X70895015Y-79354511D02*
X70973110Y-79425939D01*
X70973110Y-79425939D02*
X71129300Y-79497368D01*
X71129300Y-79497368D02*
X71441681Y-79497368D01*
X71441681Y-79497368D02*
X71597872Y-79425939D01*
X71597872Y-79425939D02*
X71675967Y-79354511D01*
X71675967Y-79354511D02*
X71754062Y-79211653D01*
X69035659Y-77854510D02*
X69035659Y-77354510D01*
X68176611Y-77354510D02*
X69816611Y-77354510D01*
X69816611Y-77354510D02*
X69816611Y-78068796D01*
X69816611Y-78925939D02*
X69816611Y-79068796D01*
X69816611Y-79068796D02*
X69738516Y-79211653D01*
X69738516Y-79211653D02*
X69660421Y-79283082D01*
X69660421Y-79283082D02*
X69504230Y-79354510D01*
X69504230Y-79354510D02*
X69191849Y-79425939D01*
X69191849Y-79425939D02*
X68801373Y-79425939D01*
X68801373Y-79425939D02*
X68488992Y-79354510D01*
X68488992Y-79354510D02*
X68332802Y-79283082D01*
X68332802Y-79283082D02*
X68254707Y-79211653D01*
X68254707Y-79211653D02*
X68176611Y-79068796D01*
X68176611Y-79068796D02*
X68176611Y-78925939D01*
X68176611Y-78925939D02*
X68254707Y-78783082D01*
X68254707Y-78783082D02*
X68332802Y-78711653D01*
X68332802Y-78711653D02*
X68488992Y-78640224D01*
X68488992Y-78640224D02*
X68801373Y-78568796D01*
X68801373Y-78568796D02*
X69191849Y-78568796D01*
X69191849Y-78568796D02*
X69504230Y-78640224D01*
X69504230Y-78640224D02*
X69660421Y-78711653D01*
X69660421Y-78711653D02*
X69738516Y-78783082D01*
X69738516Y-78783082D02*
X69816611Y-78925939D01*
X66395351Y-77854510D02*
X66395351Y-77354510D01*
X65536303Y-77354510D02*
X67176303Y-77354510D01*
X67176303Y-77354510D02*
X67176303Y-78068796D01*
X66473446Y-78854510D02*
X66551541Y-78711653D01*
X66551541Y-78711653D02*
X66629637Y-78640224D01*
X66629637Y-78640224D02*
X66785827Y-78568796D01*
X66785827Y-78568796D02*
X66863922Y-78568796D01*
X66863922Y-78568796D02*
X67020113Y-78640224D01*
X67020113Y-78640224D02*
X67098208Y-78711653D01*
X67098208Y-78711653D02*
X67176303Y-78854510D01*
X67176303Y-78854510D02*
X67176303Y-79140224D01*
X67176303Y-79140224D02*
X67098208Y-79283082D01*
X67098208Y-79283082D02*
X67020113Y-79354510D01*
X67020113Y-79354510D02*
X66863922Y-79425939D01*
X66863922Y-79425939D02*
X66785827Y-79425939D01*
X66785827Y-79425939D02*
X66629637Y-79354510D01*
X66629637Y-79354510D02*
X66551541Y-79283082D01*
X66551541Y-79283082D02*
X66473446Y-79140224D01*
X66473446Y-79140224D02*
X66473446Y-78854510D01*
X66473446Y-78854510D02*
X66395351Y-78711653D01*
X66395351Y-78711653D02*
X66317256Y-78640224D01*
X66317256Y-78640224D02*
X66161065Y-78568796D01*
X66161065Y-78568796D02*
X65848684Y-78568796D01*
X65848684Y-78568796D02*
X65692494Y-78640224D01*
X65692494Y-78640224D02*
X65614399Y-78711653D01*
X65614399Y-78711653D02*
X65536303Y-78854510D01*
X65536303Y-78854510D02*
X65536303Y-79140224D01*
X65536303Y-79140224D02*
X65614399Y-79283082D01*
X65614399Y-79283082D02*
X65692494Y-79354510D01*
X65692494Y-79354510D02*
X65848684Y-79425939D01*
X65848684Y-79425939D02*
X66161065Y-79425939D01*
X66161065Y-79425939D02*
X66317256Y-79354510D01*
X66317256Y-79354510D02*
X66395351Y-79283082D01*
X66395351Y-79283082D02*
X66473446Y-79140224D01*
D12*
X51855889Y-103263095D02*
X53170175Y-103263095D01*
X52513032Y-105063095D02*
X52513032Y-103263095D01*
X53936842Y-105063095D02*
X53936842Y-103263095D01*
X55032080Y-105063095D02*
X55032080Y-103263095D01*
X55032080Y-103263095D02*
X55798746Y-104548809D01*
X55798746Y-104548809D02*
X56565413Y-103263095D01*
X56565413Y-103263095D02*
X56565413Y-105063095D01*
X57660651Y-104377381D02*
X59413032Y-104377381D01*
X60946365Y-103263095D02*
X61165412Y-103263095D01*
X61165412Y-103263095D02*
X61384460Y-103348809D01*
X61384460Y-103348809D02*
X61493984Y-103434523D01*
X61493984Y-103434523D02*
X61603508Y-103605952D01*
X61603508Y-103605952D02*
X61713031Y-103948809D01*
X61713031Y-103948809D02*
X61713031Y-104377381D01*
X61713031Y-104377381D02*
X61603508Y-104720238D01*
X61603508Y-104720238D02*
X61493984Y-104891666D01*
X61493984Y-104891666D02*
X61384460Y-104977381D01*
X61384460Y-104977381D02*
X61165412Y-105063095D01*
X61165412Y-105063095D02*
X60946365Y-105063095D01*
X60946365Y-105063095D02*
X60727317Y-104977381D01*
X60727317Y-104977381D02*
X60617793Y-104891666D01*
X60617793Y-104891666D02*
X60508270Y-104720238D01*
X60508270Y-104720238D02*
X60398746Y-104377381D01*
X60398746Y-104377381D02*
X60398746Y-103948809D01*
X60398746Y-103948809D02*
X60508270Y-103605952D01*
X60508270Y-103605952D02*
X60617793Y-103434523D01*
X60617793Y-103434523D02*
X60727317Y-103348809D01*
X60727317Y-103348809D02*
X60946365Y-103263095D01*
X63903507Y-105063095D02*
X62589222Y-105063095D01*
X63246365Y-105063095D02*
X63246365Y-103263095D01*
X63246365Y-103263095D02*
X63027317Y-103520238D01*
X63027317Y-103520238D02*
X62808269Y-103691666D01*
X62808269Y-103691666D02*
X62589222Y-103777381D01*
X66093983Y-105063095D02*
X64779698Y-105063095D01*
X65436841Y-105063095D02*
X65436841Y-103263095D01*
X65436841Y-103263095D02*
X65217793Y-103520238D01*
X65217793Y-103520238D02*
X64998745Y-103691666D01*
X64998745Y-103691666D02*
X64779698Y-103777381D01*
X53498746Y-107789565D02*
X53389222Y-107875280D01*
X53389222Y-107875280D02*
X53060651Y-107960994D01*
X53060651Y-107960994D02*
X52841603Y-107960994D01*
X52841603Y-107960994D02*
X52513032Y-107875280D01*
X52513032Y-107875280D02*
X52293984Y-107703851D01*
X52293984Y-107703851D02*
X52184461Y-107532422D01*
X52184461Y-107532422D02*
X52074937Y-107189565D01*
X52074937Y-107189565D02*
X52074937Y-106932422D01*
X52074937Y-106932422D02*
X52184461Y-106589565D01*
X52184461Y-106589565D02*
X52293984Y-106418137D01*
X52293984Y-106418137D02*
X52513032Y-106246708D01*
X52513032Y-106246708D02*
X52841603Y-106160994D01*
X52841603Y-106160994D02*
X53060651Y-106160994D01*
X53060651Y-106160994D02*
X53389222Y-106246708D01*
X53389222Y-106246708D02*
X53498746Y-106332422D01*
X55251127Y-107018137D02*
X54484461Y-107018137D01*
X54484461Y-107960994D02*
X54484461Y-106160994D01*
X54484461Y-106160994D02*
X55579699Y-106160994D01*
X58098747Y-106075280D02*
X56127318Y-108389565D01*
X58865414Y-107960994D02*
X58865414Y-106160994D01*
X59960652Y-107960994D02*
X59960652Y-106160994D01*
X59960652Y-106160994D02*
X60508271Y-106160994D01*
X60508271Y-106160994D02*
X60836842Y-106246708D01*
X60836842Y-106246708D02*
X61055890Y-106418137D01*
X61055890Y-106418137D02*
X61165413Y-106589565D01*
X61165413Y-106589565D02*
X61274937Y-106932422D01*
X61274937Y-106932422D02*
X61274937Y-107189565D01*
X61274937Y-107189565D02*
X61165413Y-107532422D01*
X61165413Y-107532422D02*
X61055890Y-107703851D01*
X61055890Y-107703851D02*
X60836842Y-107875280D01*
X60836842Y-107875280D02*
X60508271Y-107960994D01*
X60508271Y-107960994D02*
X59960652Y-107960994D01*
X62260652Y-107018137D02*
X63027318Y-107018137D01*
X63355890Y-107960994D02*
X62260652Y-107960994D01*
X62260652Y-107960994D02*
X62260652Y-106160994D01*
X62260652Y-106160994D02*
X63355890Y-106160994D01*
X66093985Y-107960994D02*
X66093985Y-106160994D01*
X67189223Y-106760994D02*
X67189223Y-107960994D01*
X67189223Y-106932422D02*
X67298746Y-106846708D01*
X67298746Y-106846708D02*
X67517794Y-106760994D01*
X67517794Y-106760994D02*
X67846365Y-106760994D01*
X67846365Y-106760994D02*
X68065413Y-106846708D01*
X68065413Y-106846708D02*
X68174937Y-107018137D01*
X68174937Y-107018137D02*
X68174937Y-107960994D01*
X68941603Y-106760994D02*
X69817794Y-106760994D01*
X69270175Y-106160994D02*
X69270175Y-107703851D01*
X69270175Y-107703851D02*
X69379698Y-107875280D01*
X69379698Y-107875280D02*
X69598746Y-107960994D01*
X69598746Y-107960994D02*
X69817794Y-107960994D01*
X71460651Y-107875280D02*
X71241603Y-107960994D01*
X71241603Y-107960994D02*
X70803508Y-107960994D01*
X70803508Y-107960994D02*
X70584461Y-107875280D01*
X70584461Y-107875280D02*
X70474937Y-107703851D01*
X70474937Y-107703851D02*
X70474937Y-107018137D01*
X70474937Y-107018137D02*
X70584461Y-106846708D01*
X70584461Y-106846708D02*
X70803508Y-106760994D01*
X70803508Y-106760994D02*
X71241603Y-106760994D01*
X71241603Y-106760994D02*
X71460651Y-106846708D01*
X71460651Y-106846708D02*
X71570175Y-107018137D01*
X71570175Y-107018137D02*
X71570175Y-107189565D01*
X71570175Y-107189565D02*
X70474937Y-107360994D01*
X72555890Y-107960994D02*
X72555890Y-106760994D01*
X72555890Y-107103851D02*
X72665413Y-106932422D01*
X72665413Y-106932422D02*
X72774937Y-106846708D01*
X72774937Y-106846708D02*
X72993985Y-106760994D01*
X72993985Y-106760994D02*
X73213032Y-106760994D01*
X73651128Y-106760994D02*
X74527319Y-106760994D01*
X73979700Y-107960994D02*
X73979700Y-106418137D01*
X73979700Y-106418137D02*
X74089223Y-106246708D01*
X74089223Y-106246708D02*
X74308271Y-106160994D01*
X74308271Y-106160994D02*
X74527319Y-106160994D01*
X76279700Y-107960994D02*
X76279700Y-107018137D01*
X76279700Y-107018137D02*
X76170176Y-106846708D01*
X76170176Y-106846708D02*
X75951128Y-106760994D01*
X75951128Y-106760994D02*
X75513033Y-106760994D01*
X75513033Y-106760994D02*
X75293986Y-106846708D01*
X76279700Y-107875280D02*
X76060652Y-107960994D01*
X76060652Y-107960994D02*
X75513033Y-107960994D01*
X75513033Y-107960994D02*
X75293986Y-107875280D01*
X75293986Y-107875280D02*
X75184462Y-107703851D01*
X75184462Y-107703851D02*
X75184462Y-107532422D01*
X75184462Y-107532422D02*
X75293986Y-107360994D01*
X75293986Y-107360994D02*
X75513033Y-107275280D01*
X75513033Y-107275280D02*
X76060652Y-107275280D01*
X76060652Y-107275280D02*
X76279700Y-107189565D01*
X78360652Y-107875280D02*
X78141604Y-107960994D01*
X78141604Y-107960994D02*
X77703509Y-107960994D01*
X77703509Y-107960994D02*
X77484461Y-107875280D01*
X77484461Y-107875280D02*
X77374938Y-107789565D01*
X77374938Y-107789565D02*
X77265414Y-107618137D01*
X77265414Y-107618137D02*
X77265414Y-107103851D01*
X77265414Y-107103851D02*
X77374938Y-106932422D01*
X77374938Y-106932422D02*
X77484461Y-106846708D01*
X77484461Y-106846708D02*
X77703509Y-106760994D01*
X77703509Y-106760994D02*
X78141604Y-106760994D01*
X78141604Y-106760994D02*
X78360652Y-106846708D01*
X80222557Y-107875280D02*
X80003509Y-107960994D01*
X80003509Y-107960994D02*
X79565414Y-107960994D01*
X79565414Y-107960994D02*
X79346367Y-107875280D01*
X79346367Y-107875280D02*
X79236843Y-107703851D01*
X79236843Y-107703851D02*
X79236843Y-107018137D01*
X79236843Y-107018137D02*
X79346367Y-106846708D01*
X79346367Y-106846708D02*
X79565414Y-106760994D01*
X79565414Y-106760994D02*
X80003509Y-106760994D01*
X80003509Y-106760994D02*
X80222557Y-106846708D01*
X80222557Y-106846708D02*
X80332081Y-107018137D01*
X80332081Y-107018137D02*
X80332081Y-107189565D01*
X80332081Y-107189565D02*
X79236843Y-107360994D01*
D11*
X121559775Y-39958638D02*
X121869299Y-40825304D01*
X121869299Y-40825304D02*
X122178822Y-39958638D01*
X123355013Y-40825304D02*
X122612156Y-40825304D01*
X122983584Y-40825304D02*
X122983584Y-39525304D01*
X122983584Y-39525304D02*
X122859775Y-39711019D01*
X122859775Y-39711019D02*
X122735965Y-39834828D01*
X122735965Y-39834828D02*
X122612156Y-39896733D01*
D12*
X85377143Y-83833994D02*
X85377143Y-85291137D01*
X85377143Y-85291137D02*
X85486666Y-85462565D01*
X85486666Y-85462565D02*
X85596190Y-85548280D01*
X85596190Y-85548280D02*
X85815238Y-85633994D01*
X85815238Y-85633994D02*
X86253333Y-85633994D01*
X86253333Y-85633994D02*
X86472381Y-85548280D01*
X86472381Y-85548280D02*
X86581904Y-85462565D01*
X86581904Y-85462565D02*
X86691428Y-85291137D01*
X86691428Y-85291137D02*
X86691428Y-83833994D01*
X88772381Y-84433994D02*
X88772381Y-85633994D01*
X88224762Y-83748280D02*
X87677143Y-85033994D01*
X87677143Y-85033994D02*
X89100952Y-85033994D01*
X90415238Y-83833994D02*
X90634285Y-83833994D01*
X90634285Y-83833994D02*
X90853333Y-83919708D01*
X90853333Y-83919708D02*
X90962857Y-84005422D01*
X90962857Y-84005422D02*
X91072381Y-84176851D01*
X91072381Y-84176851D02*
X91181904Y-84519708D01*
X91181904Y-84519708D02*
X91181904Y-84948280D01*
X91181904Y-84948280D02*
X91072381Y-85291137D01*
X91072381Y-85291137D02*
X90962857Y-85462565D01*
X90962857Y-85462565D02*
X90853333Y-85548280D01*
X90853333Y-85548280D02*
X90634285Y-85633994D01*
X90634285Y-85633994D02*
X90415238Y-85633994D01*
X90415238Y-85633994D02*
X90196190Y-85548280D01*
X90196190Y-85548280D02*
X90086666Y-85462565D01*
X90086666Y-85462565D02*
X89977143Y-85291137D01*
X89977143Y-85291137D02*
X89867619Y-84948280D01*
X89867619Y-84948280D02*
X89867619Y-84519708D01*
X89867619Y-84519708D02*
X89977143Y-84176851D01*
X89977143Y-84176851D02*
X90086666Y-84005422D01*
X90086666Y-84005422D02*
X90196190Y-83919708D01*
X90196190Y-83919708D02*
X90415238Y-83833994D01*
X93372380Y-85633994D02*
X92058095Y-85633994D01*
X92715238Y-85633994D02*
X92715238Y-83833994D01*
X92715238Y-83833994D02*
X92496190Y-84091137D01*
X92496190Y-84091137D02*
X92277142Y-84262565D01*
X92277142Y-84262565D02*
X92058095Y-84348280D01*
X89053929Y-90013994D02*
X90587262Y-90013994D01*
X90587262Y-90013994D02*
X89601548Y-91813994D01*
X92449167Y-90613994D02*
X92449167Y-91813994D01*
X91901548Y-89928280D02*
X91353929Y-91213994D01*
X91353929Y-91213994D02*
X92777738Y-91213994D01*
X94749167Y-91813994D02*
X93653929Y-91813994D01*
X93653929Y-91813994D02*
X93653929Y-90013994D01*
X95406310Y-91728280D02*
X95734881Y-91813994D01*
X95734881Y-91813994D02*
X96282500Y-91813994D01*
X96282500Y-91813994D02*
X96501548Y-91728280D01*
X96501548Y-91728280D02*
X96611072Y-91642565D01*
X96611072Y-91642565D02*
X96720595Y-91471137D01*
X96720595Y-91471137D02*
X96720595Y-91299708D01*
X96720595Y-91299708D02*
X96611072Y-91128280D01*
X96611072Y-91128280D02*
X96501548Y-91042565D01*
X96501548Y-91042565D02*
X96282500Y-90956851D01*
X96282500Y-90956851D02*
X95844405Y-90871137D01*
X95844405Y-90871137D02*
X95625357Y-90785422D01*
X95625357Y-90785422D02*
X95515834Y-90699708D01*
X95515834Y-90699708D02*
X95406310Y-90528280D01*
X95406310Y-90528280D02*
X95406310Y-90356851D01*
X95406310Y-90356851D02*
X95515834Y-90185422D01*
X95515834Y-90185422D02*
X95625357Y-90099708D01*
X95625357Y-90099708D02*
X95844405Y-90013994D01*
X95844405Y-90013994D02*
X96392024Y-90013994D01*
X96392024Y-90013994D02*
X96720595Y-90099708D01*
X97487262Y-90013994D02*
X99020595Y-90013994D01*
X99020595Y-90013994D02*
X98034881Y-91813994D01*
X100882500Y-90613994D02*
X100882500Y-91813994D01*
X100334881Y-89928280D02*
X99787262Y-91213994D01*
X99787262Y-91213994D02*
X101211071Y-91213994D01*
X113613994Y-82773809D02*
X112756851Y-83540475D01*
X113613994Y-84088094D02*
X111813994Y-84088094D01*
X111813994Y-84088094D02*
X111813994Y-83211904D01*
X111813994Y-83211904D02*
X111899708Y-82992856D01*
X111899708Y-82992856D02*
X111985422Y-82883333D01*
X111985422Y-82883333D02*
X112156851Y-82773809D01*
X112156851Y-82773809D02*
X112413994Y-82773809D01*
X112413994Y-82773809D02*
X112585422Y-82883333D01*
X112585422Y-82883333D02*
X112671137Y-82992856D01*
X112671137Y-82992856D02*
X112756851Y-83211904D01*
X112756851Y-83211904D02*
X112756851Y-84088094D01*
X112413994Y-80802380D02*
X113613994Y-80802380D01*
X111728280Y-81349999D02*
X113013994Y-81897618D01*
X113013994Y-81897618D02*
X113013994Y-80473809D01*
X111813994Y-79159523D02*
X111813994Y-78940476D01*
X111813994Y-78940476D02*
X111899708Y-78721428D01*
X111899708Y-78721428D02*
X111985422Y-78611904D01*
X111985422Y-78611904D02*
X112156851Y-78502380D01*
X112156851Y-78502380D02*
X112499708Y-78392857D01*
X112499708Y-78392857D02*
X112928280Y-78392857D01*
X112928280Y-78392857D02*
X113271137Y-78502380D01*
X113271137Y-78502380D02*
X113442565Y-78611904D01*
X113442565Y-78611904D02*
X113528280Y-78721428D01*
X113528280Y-78721428D02*
X113613994Y-78940476D01*
X113613994Y-78940476D02*
X113613994Y-79159523D01*
X113613994Y-79159523D02*
X113528280Y-79378571D01*
X113528280Y-79378571D02*
X113442565Y-79488095D01*
X113442565Y-79488095D02*
X113271137Y-79597618D01*
X113271137Y-79597618D02*
X112928280Y-79707142D01*
X112928280Y-79707142D02*
X112499708Y-79707142D01*
X112499708Y-79707142D02*
X112156851Y-79597618D01*
X112156851Y-79597618D02*
X111985422Y-79488095D01*
X111985422Y-79488095D02*
X111899708Y-79378571D01*
X111899708Y-79378571D02*
X111813994Y-79159523D01*
X112413994Y-76421428D02*
X113613994Y-76421428D01*
X111728280Y-76969047D02*
X113013994Y-77516666D01*
X113013994Y-77516666D02*
X113013994Y-76092857D01*
X53712381Y-49573994D02*
X53712381Y-47773994D01*
X53712381Y-47773994D02*
X54588571Y-47773994D01*
X54588571Y-47773994D02*
X54807619Y-47859708D01*
X54807619Y-47859708D02*
X54917142Y-47945422D01*
X54917142Y-47945422D02*
X55026666Y-48116851D01*
X55026666Y-48116851D02*
X55026666Y-48373994D01*
X55026666Y-48373994D02*
X54917142Y-48545422D01*
X54917142Y-48545422D02*
X54807619Y-48631137D01*
X54807619Y-48631137D02*
X54588571Y-48716851D01*
X54588571Y-48716851D02*
X53712381Y-48716851D01*
X55902857Y-47945422D02*
X56012381Y-47859708D01*
X56012381Y-47859708D02*
X56231428Y-47773994D01*
X56231428Y-47773994D02*
X56779047Y-47773994D01*
X56779047Y-47773994D02*
X56998095Y-47859708D01*
X56998095Y-47859708D02*
X57107619Y-47945422D01*
X57107619Y-47945422D02*
X57217142Y-48116851D01*
X57217142Y-48116851D02*
X57217142Y-48288280D01*
X57217142Y-48288280D02*
X57107619Y-48545422D01*
X57107619Y-48545422D02*
X55793333Y-49573994D01*
X55793333Y-49573994D02*
X57217142Y-49573994D01*
X85557143Y-55213994D02*
X85557143Y-56671137D01*
X85557143Y-56671137D02*
X85666666Y-56842565D01*
X85666666Y-56842565D02*
X85776190Y-56928280D01*
X85776190Y-56928280D02*
X85995238Y-57013994D01*
X85995238Y-57013994D02*
X86433333Y-57013994D01*
X86433333Y-57013994D02*
X86652381Y-56928280D01*
X86652381Y-56928280D02*
X86761904Y-56842565D01*
X86761904Y-56842565D02*
X86871428Y-56671137D01*
X86871428Y-56671137D02*
X86871428Y-55213994D01*
X88952381Y-55813994D02*
X88952381Y-57013994D01*
X88404762Y-55128280D02*
X87857143Y-56413994D01*
X87857143Y-56413994D02*
X89280952Y-56413994D01*
X90595238Y-55213994D02*
X90814285Y-55213994D01*
X90814285Y-55213994D02*
X91033333Y-55299708D01*
X91033333Y-55299708D02*
X91142857Y-55385422D01*
X91142857Y-55385422D02*
X91252381Y-55556851D01*
X91252381Y-55556851D02*
X91361904Y-55899708D01*
X91361904Y-55899708D02*
X91361904Y-56328280D01*
X91361904Y-56328280D02*
X91252381Y-56671137D01*
X91252381Y-56671137D02*
X91142857Y-56842565D01*
X91142857Y-56842565D02*
X91033333Y-56928280D01*
X91033333Y-56928280D02*
X90814285Y-57013994D01*
X90814285Y-57013994D02*
X90595238Y-57013994D01*
X90595238Y-57013994D02*
X90376190Y-56928280D01*
X90376190Y-56928280D02*
X90266666Y-56842565D01*
X90266666Y-56842565D02*
X90157143Y-56671137D01*
X90157143Y-56671137D02*
X90047619Y-56328280D01*
X90047619Y-56328280D02*
X90047619Y-55899708D01*
X90047619Y-55899708D02*
X90157143Y-55556851D01*
X90157143Y-55556851D02*
X90266666Y-55385422D01*
X90266666Y-55385422D02*
X90376190Y-55299708D01*
X90376190Y-55299708D02*
X90595238Y-55213994D01*
X93333333Y-55813994D02*
X93333333Y-57013994D01*
X92785714Y-55128280D02*
X92238095Y-56413994D01*
X92238095Y-56413994D02*
X93661904Y-56413994D01*
X91768691Y-61393994D02*
X93302024Y-61393994D01*
X93302024Y-61393994D02*
X92316310Y-63193994D01*
X95163929Y-61993994D02*
X95163929Y-63193994D01*
X94616310Y-61308280D02*
X94068691Y-62593994D01*
X94068691Y-62593994D02*
X95492500Y-62593994D01*
X97463929Y-63193994D02*
X96368691Y-63193994D01*
X96368691Y-63193994D02*
X96368691Y-61393994D01*
X98121072Y-63108280D02*
X98449643Y-63193994D01*
X98449643Y-63193994D02*
X98997262Y-63193994D01*
X98997262Y-63193994D02*
X99216310Y-63108280D01*
X99216310Y-63108280D02*
X99325834Y-63022565D01*
X99325834Y-63022565D02*
X99435357Y-62851137D01*
X99435357Y-62851137D02*
X99435357Y-62679708D01*
X99435357Y-62679708D02*
X99325834Y-62508280D01*
X99325834Y-62508280D02*
X99216310Y-62422565D01*
X99216310Y-62422565D02*
X98997262Y-62336851D01*
X98997262Y-62336851D02*
X98559167Y-62251137D01*
X98559167Y-62251137D02*
X98340119Y-62165422D01*
X98340119Y-62165422D02*
X98230596Y-62079708D01*
X98230596Y-62079708D02*
X98121072Y-61908280D01*
X98121072Y-61908280D02*
X98121072Y-61736851D01*
X98121072Y-61736851D02*
X98230596Y-61565422D01*
X98230596Y-61565422D02*
X98340119Y-61479708D01*
X98340119Y-61479708D02*
X98559167Y-61393994D01*
X98559167Y-61393994D02*
X99106786Y-61393994D01*
X99106786Y-61393994D02*
X99435357Y-61479708D01*
X100311548Y-61565422D02*
X100421072Y-61479708D01*
X100421072Y-61479708D02*
X100640119Y-61393994D01*
X100640119Y-61393994D02*
X101187738Y-61393994D01*
X101187738Y-61393994D02*
X101406786Y-61479708D01*
X101406786Y-61479708D02*
X101516310Y-61565422D01*
X101516310Y-61565422D02*
X101625833Y-61736851D01*
X101625833Y-61736851D02*
X101625833Y-61908280D01*
X101625833Y-61908280D02*
X101516310Y-62165422D01*
X101516310Y-62165422D02*
X100202024Y-63193994D01*
X100202024Y-63193994D02*
X101625833Y-63193994D01*
X103597262Y-61993994D02*
X103597262Y-63193994D01*
X103049643Y-61308280D02*
X102502024Y-62593994D01*
X102502024Y-62593994D02*
X103925833Y-62593994D01*
X105897262Y-61393994D02*
X104802024Y-61393994D01*
X104802024Y-61393994D02*
X104692500Y-62251137D01*
X104692500Y-62251137D02*
X104802024Y-62165422D01*
X104802024Y-62165422D02*
X105021071Y-62079708D01*
X105021071Y-62079708D02*
X105568690Y-62079708D01*
X105568690Y-62079708D02*
X105787738Y-62165422D01*
X105787738Y-62165422D02*
X105897262Y-62251137D01*
X105897262Y-62251137D02*
X106006785Y-62422565D01*
X106006785Y-62422565D02*
X106006785Y-62851137D01*
X106006785Y-62851137D02*
X105897262Y-63022565D01*
X105897262Y-63022565D02*
X105787738Y-63108280D01*
X105787738Y-63108280D02*
X105568690Y-63193994D01*
X105568690Y-63193994D02*
X105021071Y-63193994D01*
X105021071Y-63193994D02*
X104802024Y-63108280D01*
X104802024Y-63108280D02*
X104692500Y-63022565D01*
X103758096Y-108413994D02*
X103758096Y-106613994D01*
X103758096Y-106613994D02*
X104634286Y-106613994D01*
X104634286Y-106613994D02*
X104853334Y-106699708D01*
X104853334Y-106699708D02*
X104962857Y-106785422D01*
X104962857Y-106785422D02*
X105072381Y-106956851D01*
X105072381Y-106956851D02*
X105072381Y-107213994D01*
X105072381Y-107213994D02*
X104962857Y-107385422D01*
X104962857Y-107385422D02*
X104853334Y-107471137D01*
X104853334Y-107471137D02*
X104634286Y-107556851D01*
X104634286Y-107556851D02*
X103758096Y-107556851D01*
X106496191Y-106613994D02*
X106934286Y-106613994D01*
X106934286Y-106613994D02*
X107153334Y-106699708D01*
X107153334Y-106699708D02*
X107372381Y-106871137D01*
X107372381Y-106871137D02*
X107481905Y-107213994D01*
X107481905Y-107213994D02*
X107481905Y-107813994D01*
X107481905Y-107813994D02*
X107372381Y-108156851D01*
X107372381Y-108156851D02*
X107153334Y-108328280D01*
X107153334Y-108328280D02*
X106934286Y-108413994D01*
X106934286Y-108413994D02*
X106496191Y-108413994D01*
X106496191Y-108413994D02*
X106277143Y-108328280D01*
X106277143Y-108328280D02*
X106058096Y-108156851D01*
X106058096Y-108156851D02*
X105948572Y-107813994D01*
X105948572Y-107813994D02*
X105948572Y-107213994D01*
X105948572Y-107213994D02*
X106058096Y-106871137D01*
X106058096Y-106871137D02*
X106277143Y-106699708D01*
X106277143Y-106699708D02*
X106496191Y-106613994D01*
X108248572Y-106613994D02*
X108796191Y-108413994D01*
X108796191Y-108413994D02*
X109234286Y-107128280D01*
X109234286Y-107128280D02*
X109672381Y-108413994D01*
X109672381Y-108413994D02*
X110220001Y-106613994D01*
X111096191Y-107471137D02*
X111862857Y-107471137D01*
X112191429Y-108413994D02*
X111096191Y-108413994D01*
X111096191Y-108413994D02*
X111096191Y-106613994D01*
X111096191Y-106613994D02*
X112191429Y-106613994D01*
X114491428Y-108413994D02*
X113724762Y-107556851D01*
X113177143Y-108413994D02*
X113177143Y-106613994D01*
X113177143Y-106613994D02*
X114053333Y-106613994D01*
X114053333Y-106613994D02*
X114272381Y-106699708D01*
X114272381Y-106699708D02*
X114381904Y-106785422D01*
X114381904Y-106785422D02*
X114491428Y-106956851D01*
X114491428Y-106956851D02*
X114491428Y-107213994D01*
X114491428Y-107213994D02*
X114381904Y-107385422D01*
X114381904Y-107385422D02*
X114272381Y-107471137D01*
X114272381Y-107471137D02*
X114053333Y-107556851D01*
X114053333Y-107556851D02*
X113177143Y-107556851D01*
X57497143Y-55013994D02*
X57497143Y-56471137D01*
X57497143Y-56471137D02*
X57606666Y-56642565D01*
X57606666Y-56642565D02*
X57716190Y-56728280D01*
X57716190Y-56728280D02*
X57935238Y-56813994D01*
X57935238Y-56813994D02*
X58373333Y-56813994D01*
X58373333Y-56813994D02*
X58592381Y-56728280D01*
X58592381Y-56728280D02*
X58701904Y-56642565D01*
X58701904Y-56642565D02*
X58811428Y-56471137D01*
X58811428Y-56471137D02*
X58811428Y-55013994D01*
X60892381Y-55613994D02*
X60892381Y-56813994D01*
X60344762Y-54928280D02*
X59797143Y-56213994D01*
X59797143Y-56213994D02*
X61220952Y-56213994D01*
X62535238Y-55013994D02*
X62754285Y-55013994D01*
X62754285Y-55013994D02*
X62973333Y-55099708D01*
X62973333Y-55099708D02*
X63082857Y-55185422D01*
X63082857Y-55185422D02*
X63192381Y-55356851D01*
X63192381Y-55356851D02*
X63301904Y-55699708D01*
X63301904Y-55699708D02*
X63301904Y-56128280D01*
X63301904Y-56128280D02*
X63192381Y-56471137D01*
X63192381Y-56471137D02*
X63082857Y-56642565D01*
X63082857Y-56642565D02*
X62973333Y-56728280D01*
X62973333Y-56728280D02*
X62754285Y-56813994D01*
X62754285Y-56813994D02*
X62535238Y-56813994D01*
X62535238Y-56813994D02*
X62316190Y-56728280D01*
X62316190Y-56728280D02*
X62206666Y-56642565D01*
X62206666Y-56642565D02*
X62097143Y-56471137D01*
X62097143Y-56471137D02*
X61987619Y-56128280D01*
X61987619Y-56128280D02*
X61987619Y-55699708D01*
X61987619Y-55699708D02*
X62097143Y-55356851D01*
X62097143Y-55356851D02*
X62206666Y-55185422D01*
X62206666Y-55185422D02*
X62316190Y-55099708D01*
X62316190Y-55099708D02*
X62535238Y-55013994D01*
X64068571Y-55013994D02*
X65492380Y-55013994D01*
X65492380Y-55013994D02*
X64725714Y-55699708D01*
X64725714Y-55699708D02*
X65054285Y-55699708D01*
X65054285Y-55699708D02*
X65273333Y-55785422D01*
X65273333Y-55785422D02*
X65382857Y-55871137D01*
X65382857Y-55871137D02*
X65492380Y-56042565D01*
X65492380Y-56042565D02*
X65492380Y-56471137D01*
X65492380Y-56471137D02*
X65382857Y-56642565D01*
X65382857Y-56642565D02*
X65273333Y-56728280D01*
X65273333Y-56728280D02*
X65054285Y-56813994D01*
X65054285Y-56813994D02*
X64397142Y-56813994D01*
X64397142Y-56813994D02*
X64178095Y-56728280D01*
X64178095Y-56728280D02*
X64068571Y-56642565D01*
X61433691Y-61393994D02*
X62967024Y-61393994D01*
X62967024Y-61393994D02*
X61981310Y-63193994D01*
X64828929Y-61993994D02*
X64828929Y-63193994D01*
X64281310Y-61308280D02*
X63733691Y-62593994D01*
X63733691Y-62593994D02*
X65157500Y-62593994D01*
X67128929Y-63193994D02*
X66033691Y-63193994D01*
X66033691Y-63193994D02*
X66033691Y-61393994D01*
X67786072Y-63108280D02*
X68114643Y-63193994D01*
X68114643Y-63193994D02*
X68662262Y-63193994D01*
X68662262Y-63193994D02*
X68881310Y-63108280D01*
X68881310Y-63108280D02*
X68990834Y-63022565D01*
X68990834Y-63022565D02*
X69100357Y-62851137D01*
X69100357Y-62851137D02*
X69100357Y-62679708D01*
X69100357Y-62679708D02*
X68990834Y-62508280D01*
X68990834Y-62508280D02*
X68881310Y-62422565D01*
X68881310Y-62422565D02*
X68662262Y-62336851D01*
X68662262Y-62336851D02*
X68224167Y-62251137D01*
X68224167Y-62251137D02*
X68005119Y-62165422D01*
X68005119Y-62165422D02*
X67895596Y-62079708D01*
X67895596Y-62079708D02*
X67786072Y-61908280D01*
X67786072Y-61908280D02*
X67786072Y-61736851D01*
X67786072Y-61736851D02*
X67895596Y-61565422D01*
X67895596Y-61565422D02*
X68005119Y-61479708D01*
X68005119Y-61479708D02*
X68224167Y-61393994D01*
X68224167Y-61393994D02*
X68771786Y-61393994D01*
X68771786Y-61393994D02*
X69100357Y-61479708D01*
X71290833Y-63193994D02*
X69976548Y-63193994D01*
X70633691Y-63193994D02*
X70633691Y-61393994D01*
X70633691Y-61393994D02*
X70414643Y-61651137D01*
X70414643Y-61651137D02*
X70195595Y-61822565D01*
X70195595Y-61822565D02*
X69976548Y-61908280D01*
X72057500Y-61393994D02*
X73481309Y-61393994D01*
X73481309Y-61393994D02*
X72714643Y-62079708D01*
X72714643Y-62079708D02*
X73043214Y-62079708D01*
X73043214Y-62079708D02*
X73262262Y-62165422D01*
X73262262Y-62165422D02*
X73371786Y-62251137D01*
X73371786Y-62251137D02*
X73481309Y-62422565D01*
X73481309Y-62422565D02*
X73481309Y-62851137D01*
X73481309Y-62851137D02*
X73371786Y-63022565D01*
X73371786Y-63022565D02*
X73262262Y-63108280D01*
X73262262Y-63108280D02*
X73043214Y-63193994D01*
X73043214Y-63193994D02*
X72386071Y-63193994D01*
X72386071Y-63193994D02*
X72167024Y-63108280D01*
X72167024Y-63108280D02*
X72057500Y-63022565D01*
X74795595Y-62165422D02*
X74576547Y-62079708D01*
X74576547Y-62079708D02*
X74467024Y-61993994D01*
X74467024Y-61993994D02*
X74357500Y-61822565D01*
X74357500Y-61822565D02*
X74357500Y-61736851D01*
X74357500Y-61736851D02*
X74467024Y-61565422D01*
X74467024Y-61565422D02*
X74576547Y-61479708D01*
X74576547Y-61479708D02*
X74795595Y-61393994D01*
X74795595Y-61393994D02*
X75233690Y-61393994D01*
X75233690Y-61393994D02*
X75452738Y-61479708D01*
X75452738Y-61479708D02*
X75562262Y-61565422D01*
X75562262Y-61565422D02*
X75671785Y-61736851D01*
X75671785Y-61736851D02*
X75671785Y-61822565D01*
X75671785Y-61822565D02*
X75562262Y-61993994D01*
X75562262Y-61993994D02*
X75452738Y-62079708D01*
X75452738Y-62079708D02*
X75233690Y-62165422D01*
X75233690Y-62165422D02*
X74795595Y-62165422D01*
X74795595Y-62165422D02*
X74576547Y-62251137D01*
X74576547Y-62251137D02*
X74467024Y-62336851D01*
X74467024Y-62336851D02*
X74357500Y-62508280D01*
X74357500Y-62508280D02*
X74357500Y-62851137D01*
X74357500Y-62851137D02*
X74467024Y-63022565D01*
X74467024Y-63022565D02*
X74576547Y-63108280D01*
X74576547Y-63108280D02*
X74795595Y-63193994D01*
X74795595Y-63193994D02*
X75233690Y-63193994D01*
X75233690Y-63193994D02*
X75452738Y-63108280D01*
X75452738Y-63108280D02*
X75562262Y-63022565D01*
X75562262Y-63022565D02*
X75671785Y-62851137D01*
X75671785Y-62851137D02*
X75671785Y-62508280D01*
X75671785Y-62508280D02*
X75562262Y-62336851D01*
X75562262Y-62336851D02*
X75452738Y-62251137D01*
X75452738Y-62251137D02*
X75233690Y-62165422D01*
X114613994Y-53957142D02*
X115899708Y-53957142D01*
X115899708Y-53957142D02*
X116156851Y-54066665D01*
X116156851Y-54066665D02*
X116328280Y-54285713D01*
X116328280Y-54285713D02*
X116413994Y-54614284D01*
X116413994Y-54614284D02*
X116413994Y-54833332D01*
X115213994Y-51876189D02*
X116413994Y-51876189D01*
X114528280Y-52423808D02*
X115813994Y-52971427D01*
X115813994Y-52971427D02*
X115813994Y-51547618D01*
X114613994Y-50233332D02*
X114613994Y-50014285D01*
X114613994Y-50014285D02*
X114699708Y-49795237D01*
X114699708Y-49795237D02*
X114785422Y-49685713D01*
X114785422Y-49685713D02*
X114956851Y-49576189D01*
X114956851Y-49576189D02*
X115299708Y-49466666D01*
X115299708Y-49466666D02*
X115728280Y-49466666D01*
X115728280Y-49466666D02*
X116071137Y-49576189D01*
X116071137Y-49576189D02*
X116242565Y-49685713D01*
X116242565Y-49685713D02*
X116328280Y-49795237D01*
X116328280Y-49795237D02*
X116413994Y-50014285D01*
X116413994Y-50014285D02*
X116413994Y-50233332D01*
X116413994Y-50233332D02*
X116328280Y-50452380D01*
X116328280Y-50452380D02*
X116242565Y-50561904D01*
X116242565Y-50561904D02*
X116071137Y-50671427D01*
X116071137Y-50671427D02*
X115728280Y-50780951D01*
X115728280Y-50780951D02*
X115299708Y-50780951D01*
X115299708Y-50780951D02*
X114956851Y-50671427D01*
X114956851Y-50671427D02*
X114785422Y-50561904D01*
X114785422Y-50561904D02*
X114699708Y-50452380D01*
X114699708Y-50452380D02*
X114613994Y-50233332D01*
X116413994Y-47276190D02*
X116413994Y-48590475D01*
X116413994Y-47933332D02*
X114613994Y-47933332D01*
X114613994Y-47933332D02*
X114871137Y-48152380D01*
X114871137Y-48152380D02*
X115042565Y-48371428D01*
X115042565Y-48371428D02*
X115128280Y-48590475D01*
X116696190Y-107899708D02*
X117791428Y-107899708D01*
X116477142Y-108413994D02*
X117243809Y-106613994D01*
X117243809Y-106613994D02*
X118010475Y-108413994D01*
X120091428Y-108242565D02*
X119981904Y-108328280D01*
X119981904Y-108328280D02*
X119653333Y-108413994D01*
X119653333Y-108413994D02*
X119434285Y-108413994D01*
X119434285Y-108413994D02*
X119105714Y-108328280D01*
X119105714Y-108328280D02*
X118886666Y-108156851D01*
X118886666Y-108156851D02*
X118777143Y-107985422D01*
X118777143Y-107985422D02*
X118667619Y-107642565D01*
X118667619Y-107642565D02*
X118667619Y-107385422D01*
X118667619Y-107385422D02*
X118777143Y-107042565D01*
X118777143Y-107042565D02*
X118886666Y-106871137D01*
X118886666Y-106871137D02*
X119105714Y-106699708D01*
X119105714Y-106699708D02*
X119434285Y-106613994D01*
X119434285Y-106613994D02*
X119653333Y-106613994D01*
X119653333Y-106613994D02*
X119981904Y-106699708D01*
X119981904Y-106699708D02*
X120091428Y-106785422D01*
X120748571Y-106613994D02*
X122062857Y-106613994D01*
X121405714Y-108413994D02*
X121405714Y-106613994D01*
X57842529Y-77373809D02*
X57928244Y-77483333D01*
X57928244Y-77483333D02*
X58013958Y-77811904D01*
X58013958Y-77811904D02*
X58013958Y-78030952D01*
X58013958Y-78030952D02*
X57928244Y-78359523D01*
X57928244Y-78359523D02*
X57756815Y-78578571D01*
X57756815Y-78578571D02*
X57585386Y-78688094D01*
X57585386Y-78688094D02*
X57242529Y-78797618D01*
X57242529Y-78797618D02*
X56985386Y-78797618D01*
X56985386Y-78797618D02*
X56642529Y-78688094D01*
X56642529Y-78688094D02*
X56471101Y-78578571D01*
X56471101Y-78578571D02*
X56299672Y-78359523D01*
X56299672Y-78359523D02*
X56213958Y-78030952D01*
X56213958Y-78030952D02*
X56213958Y-77811904D01*
X56213958Y-77811904D02*
X56299672Y-77483333D01*
X56299672Y-77483333D02*
X56385386Y-77373809D01*
X56813958Y-75402380D02*
X58013958Y-75402380D01*
X56128244Y-75949999D02*
X57413958Y-76497618D01*
X57413958Y-76497618D02*
X57413958Y-75073809D01*
X56213958Y-73759523D02*
X56213958Y-73540476D01*
X56213958Y-73540476D02*
X56299672Y-73321428D01*
X56299672Y-73321428D02*
X56385386Y-73211904D01*
X56385386Y-73211904D02*
X56556815Y-73102380D01*
X56556815Y-73102380D02*
X56899672Y-72992857D01*
X56899672Y-72992857D02*
X57328244Y-72992857D01*
X57328244Y-72992857D02*
X57671101Y-73102380D01*
X57671101Y-73102380D02*
X57842529Y-73211904D01*
X57842529Y-73211904D02*
X57928244Y-73321428D01*
X57928244Y-73321428D02*
X58013958Y-73540476D01*
X58013958Y-73540476D02*
X58013958Y-73759523D01*
X58013958Y-73759523D02*
X57928244Y-73978571D01*
X57928244Y-73978571D02*
X57842529Y-74088095D01*
X57842529Y-74088095D02*
X57671101Y-74197618D01*
X57671101Y-74197618D02*
X57328244Y-74307142D01*
X57328244Y-74307142D02*
X56899672Y-74307142D01*
X56899672Y-74307142D02*
X56556815Y-74197618D01*
X56556815Y-74197618D02*
X56385386Y-74088095D01*
X56385386Y-74088095D02*
X56299672Y-73978571D01*
X56299672Y-73978571D02*
X56213958Y-73759523D01*
X56213958Y-71021428D02*
X56213958Y-71459523D01*
X56213958Y-71459523D02*
X56299672Y-71678571D01*
X56299672Y-71678571D02*
X56385386Y-71788095D01*
X56385386Y-71788095D02*
X56642529Y-72007142D01*
X56642529Y-72007142D02*
X56985386Y-72116666D01*
X56985386Y-72116666D02*
X57671101Y-72116666D01*
X57671101Y-72116666D02*
X57842529Y-72007142D01*
X57842529Y-72007142D02*
X57928244Y-71897619D01*
X57928244Y-71897619D02*
X58013958Y-71678571D01*
X58013958Y-71678571D02*
X58013958Y-71240476D01*
X58013958Y-71240476D02*
X57928244Y-71021428D01*
X57928244Y-71021428D02*
X57842529Y-70911904D01*
X57842529Y-70911904D02*
X57671101Y-70802381D01*
X57671101Y-70802381D02*
X57242529Y-70802381D01*
X57242529Y-70802381D02*
X57071101Y-70911904D01*
X57071101Y-70911904D02*
X56985386Y-71021428D01*
X56985386Y-71021428D02*
X56899672Y-71240476D01*
X56899672Y-71240476D02*
X56899672Y-71678571D01*
X56899672Y-71678571D02*
X56985386Y-71897619D01*
X56985386Y-71897619D02*
X57071101Y-72007142D01*
X57071101Y-72007142D02*
X57242529Y-72116666D01*
D10*
X54991047Y-69637533D02*
X56514857Y-69637533D01*
X55752952Y-70399438D02*
X55752952Y-68875628D01*
D12*
X83976190Y-72613994D02*
X83209524Y-71756851D01*
X82661905Y-72613994D02*
X82661905Y-70813994D01*
X82661905Y-70813994D02*
X83538095Y-70813994D01*
X83538095Y-70813994D02*
X83757143Y-70899708D01*
X83757143Y-70899708D02*
X83866666Y-70985422D01*
X83866666Y-70985422D02*
X83976190Y-71156851D01*
X83976190Y-71156851D02*
X83976190Y-71413994D01*
X83976190Y-71413994D02*
X83866666Y-71585422D01*
X83866666Y-71585422D02*
X83757143Y-71671137D01*
X83757143Y-71671137D02*
X83538095Y-71756851D01*
X83538095Y-71756851D02*
X82661905Y-71756851D01*
X85947619Y-71413994D02*
X85947619Y-72613994D01*
X85400000Y-70728280D02*
X84852381Y-72013994D01*
X84852381Y-72013994D02*
X86276190Y-72013994D01*
X87590476Y-70813994D02*
X87809523Y-70813994D01*
X87809523Y-70813994D02*
X88028571Y-70899708D01*
X88028571Y-70899708D02*
X88138095Y-70985422D01*
X88138095Y-70985422D02*
X88247619Y-71156851D01*
X88247619Y-71156851D02*
X88357142Y-71499708D01*
X88357142Y-71499708D02*
X88357142Y-71928280D01*
X88357142Y-71928280D02*
X88247619Y-72271137D01*
X88247619Y-72271137D02*
X88138095Y-72442565D01*
X88138095Y-72442565D02*
X88028571Y-72528280D01*
X88028571Y-72528280D02*
X87809523Y-72613994D01*
X87809523Y-72613994D02*
X87590476Y-72613994D01*
X87590476Y-72613994D02*
X87371428Y-72528280D01*
X87371428Y-72528280D02*
X87261904Y-72442565D01*
X87261904Y-72442565D02*
X87152381Y-72271137D01*
X87152381Y-72271137D02*
X87042857Y-71928280D01*
X87042857Y-71928280D02*
X87042857Y-71499708D01*
X87042857Y-71499708D02*
X87152381Y-71156851D01*
X87152381Y-71156851D02*
X87261904Y-70985422D01*
X87261904Y-70985422D02*
X87371428Y-70899708D01*
X87371428Y-70899708D02*
X87590476Y-70813994D01*
X89123809Y-70813994D02*
X90547618Y-70813994D01*
X90547618Y-70813994D02*
X89780952Y-71499708D01*
X89780952Y-71499708D02*
X90109523Y-71499708D01*
X90109523Y-71499708D02*
X90328571Y-71585422D01*
X90328571Y-71585422D02*
X90438095Y-71671137D01*
X90438095Y-71671137D02*
X90547618Y-71842565D01*
X90547618Y-71842565D02*
X90547618Y-72271137D01*
X90547618Y-72271137D02*
X90438095Y-72442565D01*
X90438095Y-72442565D02*
X90328571Y-72528280D01*
X90328571Y-72528280D02*
X90109523Y-72613994D01*
X90109523Y-72613994D02*
X89452380Y-72613994D01*
X89452380Y-72613994D02*
X89233333Y-72528280D01*
X89233333Y-72528280D02*
X89123809Y-72442565D01*
X57597143Y-83833994D02*
X57597143Y-85291137D01*
X57597143Y-85291137D02*
X57706666Y-85462565D01*
X57706666Y-85462565D02*
X57816190Y-85548280D01*
X57816190Y-85548280D02*
X58035238Y-85633994D01*
X58035238Y-85633994D02*
X58473333Y-85633994D01*
X58473333Y-85633994D02*
X58692381Y-85548280D01*
X58692381Y-85548280D02*
X58801904Y-85462565D01*
X58801904Y-85462565D02*
X58911428Y-85291137D01*
X58911428Y-85291137D02*
X58911428Y-83833994D01*
X60992381Y-84433994D02*
X60992381Y-85633994D01*
X60444762Y-83748280D02*
X59897143Y-85033994D01*
X59897143Y-85033994D02*
X61320952Y-85033994D01*
X62635238Y-83833994D02*
X62854285Y-83833994D01*
X62854285Y-83833994D02*
X63073333Y-83919708D01*
X63073333Y-83919708D02*
X63182857Y-84005422D01*
X63182857Y-84005422D02*
X63292381Y-84176851D01*
X63292381Y-84176851D02*
X63401904Y-84519708D01*
X63401904Y-84519708D02*
X63401904Y-84948280D01*
X63401904Y-84948280D02*
X63292381Y-85291137D01*
X63292381Y-85291137D02*
X63182857Y-85462565D01*
X63182857Y-85462565D02*
X63073333Y-85548280D01*
X63073333Y-85548280D02*
X62854285Y-85633994D01*
X62854285Y-85633994D02*
X62635238Y-85633994D01*
X62635238Y-85633994D02*
X62416190Y-85548280D01*
X62416190Y-85548280D02*
X62306666Y-85462565D01*
X62306666Y-85462565D02*
X62197143Y-85291137D01*
X62197143Y-85291137D02*
X62087619Y-84948280D01*
X62087619Y-84948280D02*
X62087619Y-84519708D01*
X62087619Y-84519708D02*
X62197143Y-84176851D01*
X62197143Y-84176851D02*
X62306666Y-84005422D01*
X62306666Y-84005422D02*
X62416190Y-83919708D01*
X62416190Y-83919708D02*
X62635238Y-83833994D01*
X64278095Y-84005422D02*
X64387619Y-83919708D01*
X64387619Y-83919708D02*
X64606666Y-83833994D01*
X64606666Y-83833994D02*
X65154285Y-83833994D01*
X65154285Y-83833994D02*
X65373333Y-83919708D01*
X65373333Y-83919708D02*
X65482857Y-84005422D01*
X65482857Y-84005422D02*
X65592380Y-84176851D01*
X65592380Y-84176851D02*
X65592380Y-84348280D01*
X65592380Y-84348280D02*
X65482857Y-84605422D01*
X65482857Y-84605422D02*
X64168571Y-85633994D01*
X64168571Y-85633994D02*
X65592380Y-85633994D01*
X61273929Y-90013994D02*
X62807262Y-90013994D01*
X62807262Y-90013994D02*
X61821548Y-91813994D01*
X64669167Y-90613994D02*
X64669167Y-91813994D01*
X64121548Y-89928280D02*
X63573929Y-91213994D01*
X63573929Y-91213994D02*
X64997738Y-91213994D01*
X66969167Y-91813994D02*
X65873929Y-91813994D01*
X65873929Y-91813994D02*
X65873929Y-90013994D01*
X67626310Y-91728280D02*
X67954881Y-91813994D01*
X67954881Y-91813994D02*
X68502500Y-91813994D01*
X68502500Y-91813994D02*
X68721548Y-91728280D01*
X68721548Y-91728280D02*
X68831072Y-91642565D01*
X68831072Y-91642565D02*
X68940595Y-91471137D01*
X68940595Y-91471137D02*
X68940595Y-91299708D01*
X68940595Y-91299708D02*
X68831072Y-91128280D01*
X68831072Y-91128280D02*
X68721548Y-91042565D01*
X68721548Y-91042565D02*
X68502500Y-90956851D01*
X68502500Y-90956851D02*
X68064405Y-90871137D01*
X68064405Y-90871137D02*
X67845357Y-90785422D01*
X67845357Y-90785422D02*
X67735834Y-90699708D01*
X67735834Y-90699708D02*
X67626310Y-90528280D01*
X67626310Y-90528280D02*
X67626310Y-90356851D01*
X67626310Y-90356851D02*
X67735834Y-90185422D01*
X67735834Y-90185422D02*
X67845357Y-90099708D01*
X67845357Y-90099708D02*
X68064405Y-90013994D01*
X68064405Y-90013994D02*
X68612024Y-90013994D01*
X68612024Y-90013994D02*
X68940595Y-90099708D01*
X69707262Y-90013994D02*
X71131071Y-90013994D01*
X71131071Y-90013994D02*
X70364405Y-90699708D01*
X70364405Y-90699708D02*
X70692976Y-90699708D01*
X70692976Y-90699708D02*
X70912024Y-90785422D01*
X70912024Y-90785422D02*
X71021548Y-90871137D01*
X71021548Y-90871137D02*
X71131071Y-91042565D01*
X71131071Y-91042565D02*
X71131071Y-91471137D01*
X71131071Y-91471137D02*
X71021548Y-91642565D01*
X71021548Y-91642565D02*
X70912024Y-91728280D01*
X70912024Y-91728280D02*
X70692976Y-91813994D01*
X70692976Y-91813994D02*
X70035833Y-91813994D01*
X70035833Y-91813994D02*
X69816786Y-91728280D01*
X69816786Y-91728280D02*
X69707262Y-91642565D01*
X72007262Y-90185422D02*
X72116786Y-90099708D01*
X72116786Y-90099708D02*
X72335833Y-90013994D01*
X72335833Y-90013994D02*
X72883452Y-90013994D01*
X72883452Y-90013994D02*
X73102500Y-90099708D01*
X73102500Y-90099708D02*
X73212024Y-90185422D01*
X73212024Y-90185422D02*
X73321547Y-90356851D01*
X73321547Y-90356851D02*
X73321547Y-90528280D01*
X73321547Y-90528280D02*
X73212024Y-90785422D01*
X73212024Y-90785422D02*
X71897738Y-91813994D01*
X71897738Y-91813994D02*
X73321547Y-91813994D01*
X53672381Y-44373994D02*
X53672381Y-42573994D01*
X53672381Y-42573994D02*
X54548571Y-42573994D01*
X54548571Y-42573994D02*
X54767619Y-42659708D01*
X54767619Y-42659708D02*
X54877142Y-42745422D01*
X54877142Y-42745422D02*
X54986666Y-42916851D01*
X54986666Y-42916851D02*
X54986666Y-43173994D01*
X54986666Y-43173994D02*
X54877142Y-43345422D01*
X54877142Y-43345422D02*
X54767619Y-43431137D01*
X54767619Y-43431137D02*
X54548571Y-43516851D01*
X54548571Y-43516851D02*
X53672381Y-43516851D01*
X57177142Y-44373994D02*
X55862857Y-44373994D01*
X56520000Y-44373994D02*
X56520000Y-42573994D01*
X56520000Y-42573994D02*
X56300952Y-42831137D01*
X56300952Y-42831137D02*
X56081904Y-43002565D01*
X56081904Y-43002565D02*
X55862857Y-43088280D01*
X83976190Y-76213994D02*
X83209524Y-75356851D01*
X82661905Y-76213994D02*
X82661905Y-74413994D01*
X82661905Y-74413994D02*
X83538095Y-74413994D01*
X83538095Y-74413994D02*
X83757143Y-74499708D01*
X83757143Y-74499708D02*
X83866666Y-74585422D01*
X83866666Y-74585422D02*
X83976190Y-74756851D01*
X83976190Y-74756851D02*
X83976190Y-75013994D01*
X83976190Y-75013994D02*
X83866666Y-75185422D01*
X83866666Y-75185422D02*
X83757143Y-75271137D01*
X83757143Y-75271137D02*
X83538095Y-75356851D01*
X83538095Y-75356851D02*
X82661905Y-75356851D01*
X85947619Y-75013994D02*
X85947619Y-76213994D01*
X85400000Y-74328280D02*
X84852381Y-75613994D01*
X84852381Y-75613994D02*
X86276190Y-75613994D01*
X87590476Y-74413994D02*
X87809523Y-74413994D01*
X87809523Y-74413994D02*
X88028571Y-74499708D01*
X88028571Y-74499708D02*
X88138095Y-74585422D01*
X88138095Y-74585422D02*
X88247619Y-74756851D01*
X88247619Y-74756851D02*
X88357142Y-75099708D01*
X88357142Y-75099708D02*
X88357142Y-75528280D01*
X88357142Y-75528280D02*
X88247619Y-75871137D01*
X88247619Y-75871137D02*
X88138095Y-76042565D01*
X88138095Y-76042565D02*
X88028571Y-76128280D01*
X88028571Y-76128280D02*
X87809523Y-76213994D01*
X87809523Y-76213994D02*
X87590476Y-76213994D01*
X87590476Y-76213994D02*
X87371428Y-76128280D01*
X87371428Y-76128280D02*
X87261904Y-76042565D01*
X87261904Y-76042565D02*
X87152381Y-75871137D01*
X87152381Y-75871137D02*
X87042857Y-75528280D01*
X87042857Y-75528280D02*
X87042857Y-75099708D01*
X87042857Y-75099708D02*
X87152381Y-74756851D01*
X87152381Y-74756851D02*
X87261904Y-74585422D01*
X87261904Y-74585422D02*
X87371428Y-74499708D01*
X87371428Y-74499708D02*
X87590476Y-74413994D01*
X90547618Y-76213994D02*
X89233333Y-76213994D01*
X89890476Y-76213994D02*
X89890476Y-74413994D01*
X89890476Y-74413994D02*
X89671428Y-74671137D01*
X89671428Y-74671137D02*
X89452380Y-74842565D01*
X89452380Y-74842565D02*
X89233333Y-74928280D01*
X83976190Y-80013994D02*
X83209524Y-79156851D01*
X82661905Y-80013994D02*
X82661905Y-78213994D01*
X82661905Y-78213994D02*
X83538095Y-78213994D01*
X83538095Y-78213994D02*
X83757143Y-78299708D01*
X83757143Y-78299708D02*
X83866666Y-78385422D01*
X83866666Y-78385422D02*
X83976190Y-78556851D01*
X83976190Y-78556851D02*
X83976190Y-78813994D01*
X83976190Y-78813994D02*
X83866666Y-78985422D01*
X83866666Y-78985422D02*
X83757143Y-79071137D01*
X83757143Y-79071137D02*
X83538095Y-79156851D01*
X83538095Y-79156851D02*
X82661905Y-79156851D01*
X85947619Y-78813994D02*
X85947619Y-80013994D01*
X85400000Y-78128280D02*
X84852381Y-79413994D01*
X84852381Y-79413994D02*
X86276190Y-79413994D01*
X87590476Y-78213994D02*
X87809523Y-78213994D01*
X87809523Y-78213994D02*
X88028571Y-78299708D01*
X88028571Y-78299708D02*
X88138095Y-78385422D01*
X88138095Y-78385422D02*
X88247619Y-78556851D01*
X88247619Y-78556851D02*
X88357142Y-78899708D01*
X88357142Y-78899708D02*
X88357142Y-79328280D01*
X88357142Y-79328280D02*
X88247619Y-79671137D01*
X88247619Y-79671137D02*
X88138095Y-79842565D01*
X88138095Y-79842565D02*
X88028571Y-79928280D01*
X88028571Y-79928280D02*
X87809523Y-80013994D01*
X87809523Y-80013994D02*
X87590476Y-80013994D01*
X87590476Y-80013994D02*
X87371428Y-79928280D01*
X87371428Y-79928280D02*
X87261904Y-79842565D01*
X87261904Y-79842565D02*
X87152381Y-79671137D01*
X87152381Y-79671137D02*
X87042857Y-79328280D01*
X87042857Y-79328280D02*
X87042857Y-78899708D01*
X87042857Y-78899708D02*
X87152381Y-78556851D01*
X87152381Y-78556851D02*
X87261904Y-78385422D01*
X87261904Y-78385422D02*
X87371428Y-78299708D01*
X87371428Y-78299708D02*
X87590476Y-78213994D01*
X89233333Y-78385422D02*
X89342857Y-78299708D01*
X89342857Y-78299708D02*
X89561904Y-78213994D01*
X89561904Y-78213994D02*
X90109523Y-78213994D01*
X90109523Y-78213994D02*
X90328571Y-78299708D01*
X90328571Y-78299708D02*
X90438095Y-78385422D01*
X90438095Y-78385422D02*
X90547618Y-78556851D01*
X90547618Y-78556851D02*
X90547618Y-78728280D01*
X90547618Y-78728280D02*
X90438095Y-78985422D01*
X90438095Y-78985422D02*
X89123809Y-80013994D01*
X89123809Y-80013994D02*
X90547618Y-80013994D01*
X110013994Y-82773809D02*
X109156851Y-83540475D01*
X110013994Y-84088094D02*
X108213994Y-84088094D01*
X108213994Y-84088094D02*
X108213994Y-83211904D01*
X108213994Y-83211904D02*
X108299708Y-82992856D01*
X108299708Y-82992856D02*
X108385422Y-82883333D01*
X108385422Y-82883333D02*
X108556851Y-82773809D01*
X108556851Y-82773809D02*
X108813994Y-82773809D01*
X108813994Y-82773809D02*
X108985422Y-82883333D01*
X108985422Y-82883333D02*
X109071137Y-82992856D01*
X109071137Y-82992856D02*
X109156851Y-83211904D01*
X109156851Y-83211904D02*
X109156851Y-84088094D01*
X108813994Y-80802380D02*
X110013994Y-80802380D01*
X108128280Y-81349999D02*
X109413994Y-81897618D01*
X109413994Y-81897618D02*
X109413994Y-80473809D01*
X108213994Y-79159523D02*
X108213994Y-78940476D01*
X108213994Y-78940476D02*
X108299708Y-78721428D01*
X108299708Y-78721428D02*
X108385422Y-78611904D01*
X108385422Y-78611904D02*
X108556851Y-78502380D01*
X108556851Y-78502380D02*
X108899708Y-78392857D01*
X108899708Y-78392857D02*
X109328280Y-78392857D01*
X109328280Y-78392857D02*
X109671137Y-78502380D01*
X109671137Y-78502380D02*
X109842565Y-78611904D01*
X109842565Y-78611904D02*
X109928280Y-78721428D01*
X109928280Y-78721428D02*
X110013994Y-78940476D01*
X110013994Y-78940476D02*
X110013994Y-79159523D01*
X110013994Y-79159523D02*
X109928280Y-79378571D01*
X109928280Y-79378571D02*
X109842565Y-79488095D01*
X109842565Y-79488095D02*
X109671137Y-79597618D01*
X109671137Y-79597618D02*
X109328280Y-79707142D01*
X109328280Y-79707142D02*
X108899708Y-79707142D01*
X108899708Y-79707142D02*
X108556851Y-79597618D01*
X108556851Y-79597618D02*
X108385422Y-79488095D01*
X108385422Y-79488095D02*
X108299708Y-79378571D01*
X108299708Y-79378571D02*
X108213994Y-79159523D01*
X108213994Y-76311904D02*
X108213994Y-77407142D01*
X108213994Y-77407142D02*
X109071137Y-77516666D01*
X109071137Y-77516666D02*
X108985422Y-77407142D01*
X108985422Y-77407142D02*
X108899708Y-77188095D01*
X108899708Y-77188095D02*
X108899708Y-76640476D01*
X108899708Y-76640476D02*
X108985422Y-76421428D01*
X108985422Y-76421428D02*
X109071137Y-76311904D01*
X109071137Y-76311904D02*
X109242565Y-76202381D01*
X109242565Y-76202381D02*
X109671137Y-76202381D01*
X109671137Y-76202381D02*
X109842565Y-76311904D01*
X109842565Y-76311904D02*
X109928280Y-76421428D01*
X109928280Y-76421428D02*
X110013994Y-76640476D01*
X110013994Y-76640476D02*
X110013994Y-77188095D01*
X110013994Y-77188095D02*
X109928280Y-77407142D01*
X109928280Y-77407142D02*
X109842565Y-77516666D01*
%TO.C,C401*%
D10*
X82680000Y-94520000D02*
X84720000Y-94520000D01*
X84720000Y-87480000D01*
X82680000Y-87480000D01*
X82680000Y-94520000D01*
%TO.C,U401*%
X85450000Y-88360000D02*
X85450000Y-93660000D01*
X85450000Y-93660000D02*
X103350000Y-93660000D01*
X103350000Y-88360000D02*
X85450000Y-88360000D01*
X103350000Y-88360000D02*
X104120000Y-88360000D01*
X103350000Y-93660000D02*
X104120000Y-93660000D01*
X103620000Y-90360000D02*
X103620000Y-91660000D01*
X104120000Y-88360000D02*
X104870000Y-89110000D01*
X104120000Y-93660000D02*
X104870000Y-92910000D01*
X104870000Y-89110000D02*
X103620000Y-90360000D01*
X104870000Y-92910000D02*
X103620000Y-91660000D01*
%TO.C,R404*%
X111520000Y-94780000D02*
X111520000Y-89760000D01*
X112800000Y-85940000D02*
X112800000Y-88480000D01*
X112800000Y-88480000D02*
X111520000Y-89760000D01*
X112800000Y-88480000D02*
X114080000Y-89760000D01*
X112800000Y-96060000D02*
X111520000Y-94780000D01*
X112800000Y-96060000D02*
X114080000Y-94780000D01*
D13*
X112800000Y-97560000D02*
X112800000Y-96870000D01*
D10*
X112800000Y-98600000D02*
X112800000Y-96060000D01*
X114080000Y-94780000D02*
X114080000Y-89760000D01*
D11*
X113440000Y-89120000D02*
X112160000Y-89120000D01*
X112800000Y-88480000D01*
X113440000Y-89120000D01*
G36*
X113440000Y-89120000D02*
G01*
X112160000Y-89120000D01*
X112800000Y-88480000D01*
X113440000Y-89120000D01*
G37*
X112800000Y-96060000D02*
X112160000Y-95420000D01*
X113440000Y-95420000D01*
X112800000Y-96060000D01*
G36*
X112800000Y-96060000D02*
G01*
X112160000Y-95420000D01*
X113440000Y-95420000D01*
X112800000Y-96060000D01*
G37*
%TO.C,C404*%
D10*
X82680000Y-65900000D02*
X84720000Y-65900000D01*
X84720000Y-58860000D01*
X82680000Y-58860000D01*
X82680000Y-65900000D01*
D12*
%TO.C,H401*%
X89959100Y-103810900D02*
G75*
G02*
X86559100Y-103810900I-1700000J0D01*
G01*
X86559100Y-103810900D02*
G75*
G02*
X89959100Y-103810900I1700000J0D01*
G01*
D10*
%TO.C,P2*%
X57316000Y-46681500D02*
X58606000Y-47971500D01*
X57316000Y-50536500D02*
X58606000Y-49246500D01*
X58086000Y-45911500D02*
X57316000Y-46681500D01*
X58086000Y-51306500D02*
X57316000Y-50536500D01*
X58606000Y-49246500D02*
X58606000Y-47971500D01*
X101136000Y-45911500D02*
X58086000Y-45911500D01*
X101136000Y-45911500D02*
X108416000Y-45911500D01*
X101136000Y-51306500D02*
X58086000Y-51306500D01*
X101136000Y-51306500D02*
X108416000Y-51306500D01*
X108416000Y-45911500D02*
X109283500Y-46779000D01*
X108416000Y-51306500D02*
X109283500Y-50439000D01*
X109283500Y-46779000D02*
X109283500Y-50439000D01*
%TO.C,U404*%
X85430000Y-59740000D02*
X85430000Y-65040000D01*
X85430000Y-65040000D02*
X110950000Y-65040000D01*
X110950000Y-59740000D02*
X85430000Y-59740000D01*
X110950000Y-59740000D02*
X111630000Y-59740000D01*
X110950000Y-65040000D02*
X111630000Y-65040000D01*
X111210000Y-61880000D02*
X111210000Y-62900000D01*
X111630000Y-59740000D02*
X112490000Y-60600000D01*
X111630000Y-65040000D02*
X112490000Y-64180000D01*
X112490000Y-60600000D02*
X111210000Y-61880000D01*
X112490000Y-64180000D02*
X111210000Y-62900000D01*
%TO.C,D402*%
X107510000Y-102579000D02*
X107510000Y-102564484D01*
D13*
X107510000Y-104880000D02*
X107510000Y-105036000D01*
D10*
X107510000Y-102564484D02*
G75*
G02*
X110742335Y-102721392I1560000J-1235516D01*
G01*
X108054001Y-102657001D02*
G75*
G02*
X110131453Y-102699083I1015999J-1142999D01*
G01*
X110111013Y-104903836D02*
G75*
G02*
X108028922Y-104903999I-1041130J1079833D01*
G01*
X110742335Y-104878608D02*
G75*
G02*
X107510000Y-105035516I-1672335J1078608D01*
G01*
%TO.C,U403*%
X57630000Y-59740000D02*
X57630000Y-65040000D01*
X57630000Y-65040000D02*
X78070000Y-65040000D01*
X78070000Y-59740000D02*
X57630000Y-59740000D01*
X78070000Y-59740000D02*
X78750000Y-59740000D01*
X78070000Y-65040000D02*
X78750000Y-65040000D01*
X78250000Y-61940000D02*
X78250000Y-62840000D01*
X78750000Y-59740000D02*
X79600000Y-60590000D01*
X78750000Y-65040000D02*
X79600000Y-64190000D01*
X79600000Y-60590000D02*
X78250000Y-61940000D01*
X79600000Y-64190000D02*
X78250000Y-62840000D01*
%TO.C,J402*%
X65190000Y-70930000D02*
X65190000Y-76130000D01*
X67740000Y-70930000D02*
X67740000Y-76130000D01*
X70340000Y-70930000D02*
X70340000Y-76130000D01*
X72810000Y-70930000D02*
X72810000Y-76130000D01*
X75470000Y-70930000D02*
X65190000Y-70930000D01*
X75470000Y-70930000D02*
X75470000Y-76130000D01*
X75470000Y-76130000D02*
X65190000Y-76130000D01*
%TO.C,J401*%
X117232500Y-46810000D02*
X118002500Y-46040000D01*
X117232500Y-89860000D02*
X117232500Y-46810000D01*
X117232500Y-89860000D02*
X117232500Y-97140000D01*
X117232500Y-97140000D02*
X118100000Y-98007500D01*
X118002500Y-46040000D02*
X119292500Y-47330000D01*
X119292500Y-47330000D02*
X120567500Y-47330000D01*
X121760000Y-98007500D02*
X118100000Y-98007500D01*
X121857500Y-46040000D02*
X120567500Y-47330000D01*
X122627500Y-46810000D02*
X121857500Y-46040000D01*
X122627500Y-89860000D02*
X122627500Y-46810000D01*
X122627500Y-89860000D02*
X122627500Y-97140000D01*
X122627500Y-97140000D02*
X121760000Y-98007500D01*
%TO.C,C402*%
X54920000Y-94520000D02*
X56960000Y-94520000D01*
X56960000Y-87480000D01*
X54920000Y-87480000D01*
X54920000Y-94520000D01*
%TO.C,D401*%
X117710000Y-102579000D02*
X117710000Y-102564484D01*
D13*
X117710000Y-104880000D02*
X117710000Y-105036000D01*
D10*
X117710000Y-102564484D02*
G75*
G02*
X120942335Y-102721392I1560000J-1235516D01*
G01*
X118254001Y-102657001D02*
G75*
G02*
X120331453Y-102699083I1015999J-1142999D01*
G01*
X120311013Y-104903836D02*
G75*
G02*
X118228922Y-104903999I-1041130J1079833D01*
G01*
X120942335Y-104878608D02*
G75*
G02*
X117710000Y-105035516I-1672335J1078608D01*
G01*
%TO.C,C406*%
X50851700Y-76205000D02*
X52101700Y-74955000D01*
X50851700Y-81245000D02*
X50851700Y-76205000D01*
X50891700Y-72455000D02*
X51441700Y-71905000D01*
X50891700Y-73745000D02*
X50891700Y-72455000D01*
X51441700Y-71905000D02*
X53631700Y-71905000D01*
X51661700Y-82055000D02*
X50851700Y-81245000D01*
X52101700Y-74955000D02*
X50891700Y-73745000D01*
X53201700Y-69705000D02*
X53201700Y-71905000D01*
X53201700Y-82055000D02*
X51661700Y-82055000D01*
X53201700Y-82055000D02*
X54741700Y-82055000D01*
X53201700Y-84695000D02*
X53201700Y-82055000D01*
X54301700Y-74955000D02*
X55511700Y-73745000D01*
X54741700Y-82055000D02*
X55551700Y-81245000D01*
X54961700Y-71905000D02*
X53601700Y-71905000D01*
X55511700Y-72455000D02*
X54961700Y-71905000D01*
X55511700Y-73745000D02*
X55511700Y-72455000D01*
X55551700Y-76205000D02*
X54301700Y-74955000D01*
X55551700Y-81245000D02*
X55551700Y-76205000D01*
X55561701Y-72065000D02*
G75*
G02*
X50838227Y-72065000I-2361737J0D01*
G01*
X50838227Y-72065000D02*
G75*
G02*
X55561701Y-72065000I2361737J0D01*
G01*
%TO.C,C403*%
X54920000Y-65900000D02*
X56960000Y-65900000D01*
X56960000Y-58860000D01*
X54920000Y-58860000D01*
X54920000Y-65900000D01*
%TO.C,R403*%
X92400000Y-71600000D02*
X94940000Y-71600000D01*
D13*
X93440000Y-71600000D02*
X94130000Y-71600000D01*
D10*
X94940000Y-71600000D02*
X96220000Y-70320000D01*
X94940000Y-71600000D02*
X96220000Y-72880000D01*
X96220000Y-70320000D02*
X101240000Y-70320000D01*
X96220000Y-72880000D02*
X101240000Y-72880000D01*
X102520000Y-71600000D02*
X101240000Y-70320000D01*
X102520000Y-71600000D02*
X101240000Y-72880000D01*
X105060000Y-71600000D02*
X102520000Y-71600000D01*
D11*
X95580000Y-72240000D02*
X94940000Y-71600000D01*
X95580000Y-70960000D01*
X95580000Y-72240000D01*
G36*
X95580000Y-72240000D02*
G01*
X94940000Y-71600000D01*
X95580000Y-70960000D01*
X95580000Y-72240000D01*
G37*
X102520000Y-71600000D02*
X101880000Y-72240000D01*
X101880000Y-70960000D01*
X102520000Y-71600000D01*
G36*
X102520000Y-71600000D02*
G01*
X101880000Y-72240000D01*
X101880000Y-70960000D01*
X102520000Y-71600000D01*
G37*
D10*
%TO.C,U402*%
X57670000Y-88360000D02*
X57670000Y-93660000D01*
X57670000Y-93660000D02*
X75570000Y-93660000D01*
X75570000Y-88360000D02*
X57670000Y-88360000D01*
X75570000Y-88360000D02*
X76340000Y-88360000D01*
X75570000Y-93660000D02*
X76340000Y-93660000D01*
X75840000Y-90360000D02*
X75840000Y-91660000D01*
X76340000Y-88360000D02*
X77090000Y-89110000D01*
X76340000Y-93660000D02*
X77090000Y-92910000D01*
X77090000Y-89110000D02*
X75840000Y-90360000D01*
X77090000Y-92910000D02*
X75840000Y-91660000D01*
%TO.C,P1*%
X57310000Y-41592500D02*
X58600000Y-42882500D01*
X57310000Y-45447500D02*
X58600000Y-44157500D01*
X58080000Y-40822500D02*
X57310000Y-41592500D01*
X58080000Y-46217500D02*
X57310000Y-45447500D01*
X58600000Y-44157500D02*
X58600000Y-42882500D01*
X101130000Y-40822500D02*
X58080000Y-40822500D01*
X101130000Y-40822500D02*
X108410000Y-40822500D01*
X101130000Y-46217500D02*
X58080000Y-46217500D01*
X101130000Y-46217500D02*
X108410000Y-46217500D01*
X108410000Y-40822500D02*
X109277500Y-41690000D01*
X108410000Y-46217500D02*
X109277500Y-45350000D01*
X109277500Y-41690000D02*
X109277500Y-45350000D01*
%TO.C,R401*%
X92400000Y-75400000D02*
X94940000Y-75400000D01*
D13*
X93440000Y-75400000D02*
X94130000Y-75400000D01*
D10*
X94940000Y-75400000D02*
X96220000Y-74120000D01*
X94940000Y-75400000D02*
X96220000Y-76680000D01*
X96220000Y-74120000D02*
X101240000Y-74120000D01*
X96220000Y-76680000D02*
X101240000Y-76680000D01*
X102520000Y-75400000D02*
X101240000Y-74120000D01*
X102520000Y-75400000D02*
X101240000Y-76680000D01*
X105060000Y-75400000D02*
X102520000Y-75400000D01*
D11*
X95580000Y-76040000D02*
X94940000Y-75400000D01*
X95580000Y-74760000D01*
X95580000Y-76040000D01*
G36*
X95580000Y-76040000D02*
G01*
X94940000Y-75400000D01*
X95580000Y-74760000D01*
X95580000Y-76040000D01*
G37*
X102520000Y-75400000D02*
X101880000Y-76040000D01*
X101880000Y-74760000D01*
X102520000Y-75400000D01*
G36*
X102520000Y-75400000D02*
G01*
X101880000Y-76040000D01*
X101880000Y-74760000D01*
X102520000Y-75400000D01*
G37*
D10*
%TO.C,R402*%
X92400000Y-79200000D02*
X94940000Y-79200000D01*
D13*
X93440000Y-79200000D02*
X94130000Y-79200000D01*
D10*
X94940000Y-79200000D02*
X96220000Y-77920000D01*
X94940000Y-79200000D02*
X96220000Y-80480000D01*
X96220000Y-77920000D02*
X101240000Y-77920000D01*
X96220000Y-80480000D02*
X101240000Y-80480000D01*
X102520000Y-79200000D02*
X101240000Y-77920000D01*
X102520000Y-79200000D02*
X101240000Y-80480000D01*
X105060000Y-79200000D02*
X102520000Y-79200000D01*
D11*
X95580000Y-79840000D02*
X94940000Y-79200000D01*
X95580000Y-78560000D01*
X95580000Y-79840000D01*
G36*
X95580000Y-79840000D02*
G01*
X94940000Y-79200000D01*
X95580000Y-78560000D01*
X95580000Y-79840000D01*
G37*
X102520000Y-79200000D02*
X101880000Y-79840000D01*
X101880000Y-78560000D01*
X102520000Y-79200000D01*
G36*
X102520000Y-79200000D02*
G01*
X101880000Y-79840000D01*
X101880000Y-78560000D01*
X102520000Y-79200000D01*
G37*
D10*
%TO.C,R405*%
X107720000Y-89720000D02*
X107720000Y-94740000D01*
X109000000Y-85900000D02*
X109000000Y-88440000D01*
D13*
X109000000Y-86940000D02*
X109000000Y-87630000D01*
D10*
X109000000Y-88440000D02*
X107720000Y-89720000D01*
X109000000Y-88440000D02*
X110280000Y-89720000D01*
X109000000Y-96020000D02*
X107720000Y-94740000D01*
X109000000Y-96020000D02*
X110280000Y-94740000D01*
X109000000Y-98560000D02*
X109000000Y-96020000D01*
X110280000Y-89720000D02*
X110280000Y-94740000D01*
D11*
X109640000Y-89080000D02*
X108360000Y-89080000D01*
X109000000Y-88440000D01*
X109640000Y-89080000D01*
G36*
X109640000Y-89080000D02*
G01*
X108360000Y-89080000D01*
X109000000Y-88440000D01*
X109640000Y-89080000D01*
G37*
X109000000Y-96020000D02*
X108360000Y-95380000D01*
X109640000Y-95380000D01*
X109000000Y-96020000D01*
G36*
X109000000Y-96020000D02*
G01*
X108360000Y-95380000D01*
X109640000Y-95380000D01*
X109000000Y-96020000D01*
G37*
%TO.C,C405*%
D10*
X111980000Y-73920000D02*
X114020000Y-73920000D01*
X114020000Y-66880000D01*
X111980000Y-66880000D01*
X111980000Y-73920000D01*
%TD*%
M02*
