%TF.GenerationSoftware,KiCad,Pcbnew,8.0.3*%
%TF.CreationDate,2024-07-01T23:59:29+01:00*%
%TF.ProjectId,TIMIDE,54494d49-4445-42e6-9b69-6361645f7063,rev?*%
%TF.SameCoordinates,Original*%
%TF.FileFunction,Copper,L2,Bot*%
%TF.FilePolarity,Positive*%
%FSLAX46Y46*%
G04 Gerber Fmt 4.6, Leading zero omitted, Abs format (unit mm)*
G04 Created by KiCad (PCBNEW 8.0.3) date 2024-07-01 23:59:29*
%MOMM*%
%LPD*%
G01*
G04 APERTURE LIST*
%TA.AperFunction,ComponentPad*%
%ADD10C,1.600000*%
%TD*%
%TA.AperFunction,ComponentPad*%
%ADD11R,1.600000X1.600000*%
%TD*%
%TA.AperFunction,ComponentPad*%
%ADD12O,1.600000X1.600000*%
%TD*%
%TA.AperFunction,ComponentPad*%
%ADD13R,1.700000X1.700000*%
%TD*%
%TA.AperFunction,ComponentPad*%
%ADD14O,1.700000X1.700000*%
%TD*%
%TA.AperFunction,ComponentPad*%
%ADD15R,1.800000X1.800000*%
%TD*%
%TA.AperFunction,ComponentPad*%
%ADD16C,1.800000*%
%TD*%
%TA.AperFunction,ComponentPad*%
%ADD17R,2.000000X2.000000*%
%TD*%
%TA.AperFunction,ComponentPad*%
%ADD18C,2.000000*%
%TD*%
%TA.AperFunction,ViaPad*%
%ADD19C,1.500000*%
%TD*%
%TA.AperFunction,Conductor*%
%ADD20C,0.800000*%
%TD*%
%TA.AperFunction,Conductor*%
%ADD21C,0.500000*%
%TD*%
%TA.AperFunction,Conductor*%
%ADD22C,0.400000*%
%TD*%
%TA.AperFunction,Conductor*%
%ADD23C,0.300000*%
%TD*%
G04 APERTURE END LIST*
D10*
%TO.P,C401,1*%
%TO.N,+5V*%
X83700000Y-93500000D03*
%TO.P,C401,2*%
%TO.N,GND*%
X83700000Y-88500000D03*
%TD*%
D11*
%TO.P,U401,1,~{R}*%
%TO.N,Net-(U401A-~{R})*%
X102020000Y-87200000D03*
D12*
%TO.P,U401,2,D*%
%TO.N,~{RD}*%
X99480000Y-87200000D03*
%TO.P,U401,3,C*%
%TO.N,FI*%
X96940000Y-87200000D03*
%TO.P,U401,4,~{S}*%
%TO.N,+5V*%
X94400000Y-87200000D03*
%TO.P,U401,5,Q*%
%TO.N,Net-(U401A-Q)*%
X91860000Y-87200000D03*
%TO.P,U401,6,~{Q}*%
%TO.N,unconnected-(U401A-~{Q}-Pad6)*%
X89320000Y-87200000D03*
%TO.P,U401,7,GND*%
%TO.N,GND*%
X86780000Y-87200000D03*
%TO.P,U401,8,~{Q}*%
%TO.N,unconnected-(U401B-~{Q}-Pad8)*%
X86780000Y-94820000D03*
%TO.P,U401,9,Q*%
%TO.N,Net-(U401B-Q)*%
X89320000Y-94820000D03*
%TO.P,U401,10,~{S}*%
%TO.N,+5V*%
X91860000Y-94820000D03*
%TO.P,U401,11,C*%
%TO.N,FI*%
X94400000Y-94820000D03*
%TO.P,U401,12,D*%
%TO.N,+5V*%
X96940000Y-94820000D03*
%TO.P,U401,13,~{R}*%
%TO.N,EXPSEL_O*%
X99480000Y-94820000D03*
%TO.P,U401,14,VCC*%
%TO.N,+5V*%
X102020000Y-94820000D03*
%TD*%
D10*
%TO.P,R404,1*%
%TO.N,Net-(D401-K)*%
X112800000Y-98600000D03*
D12*
%TO.P,R404,2*%
%TO.N,Net-(J401-Pin_39)*%
X112800000Y-85900000D03*
%TD*%
D10*
%TO.P,C404,1*%
%TO.N,+5V*%
X83700000Y-64880000D03*
%TO.P,C404,2*%
%TO.N,GND*%
X83700000Y-59880000D03*
%TD*%
D13*
%TO.P,P2,1,Pin_1*%
%TO.N,+5V*%
X59916000Y-49879000D03*
D14*
%TO.P,P2,2,Pin_2*%
X59916000Y-47339000D03*
%TO.P,P2,3,Pin_3*%
%TO.N,GND*%
X62456000Y-49879000D03*
%TO.P,P2,4,Pin_4*%
X62456000Y-47339000D03*
%TO.P,P2,5,Pin_5*%
%TO.N,~{RD}*%
X64996000Y-49879000D03*
%TO.P,P2,6,Pin_6*%
%TO.N,FI*%
X64996000Y-47339000D03*
%TO.P,P2,7,Pin_7*%
%TO.N,~{WR}*%
X67536000Y-49879000D03*
%TO.P,P2,8,Pin_8*%
%TO.N,~{RESET}*%
X67536000Y-47339000D03*
%TO.P,P2,9,Pin_9*%
%TO.N,E*%
X70076000Y-49879000D03*
%TO.P,P2,10,Pin_10*%
%TO.N,~{LIR}*%
X70076000Y-47339000D03*
%TO.P,P2,11,Pin_11*%
%TO.N,~{NMI}*%
X72616000Y-49879000D03*
%TO.P,P2,12,Pin_12*%
%TO.N,EXPSEL_O*%
X72616000Y-47339000D03*
%TO.P,P2,13,Pin_13*%
%TO.N,~{WAIT}*%
X75156000Y-49879000D03*
%TO.P,P2,14,Pin_14*%
%TO.N,EXPSEL_2*%
X75156000Y-47339000D03*
%TO.P,P2,15,Pin_15*%
%TO.N,~{INT0}*%
X77696000Y-49879000D03*
%TO.P,P2,16,Pin_16*%
%TO.N,~{HALT}*%
X77696000Y-47339000D03*
%TO.P,P2,17,Pin_17*%
%TO.N,ST*%
X80236000Y-49879000D03*
%TO.P,P2,18,Pin_18*%
%TO.N,EXPSEL_3*%
X80236000Y-47339000D03*
%TO.P,P2,19,Pin_19*%
%TO.N,/CF IDE Interface/A0*%
X82776000Y-49879000D03*
%TO.P,P2,20,Pin_20*%
%TO.N,/CF IDE Interface/A1*%
X82776000Y-47339000D03*
%TO.P,P2,21,Pin_21*%
%TO.N,~{TEND0}*%
X85316000Y-49879000D03*
%TO.P,P2,22,Pin_22*%
%TO.N,/CF IDE Interface/A2*%
X85316000Y-47339000D03*
%TO.P,P2,23,Pin_23*%
%TO.N,/CF IDE Interface/A3*%
X87856000Y-49879000D03*
%TO.P,P2,24,Pin_24*%
%TO.N,/CF IDE Interface/A4*%
X87856000Y-47339000D03*
%TO.P,P2,25,Pin_25*%
%TO.N,~{DREQ0}*%
X90396000Y-49879000D03*
%TO.P,P2,26,Pin_26*%
%TO.N,~{IOE}*%
X90396000Y-47339000D03*
%TO.P,P2,27,Pin_27*%
%TO.N,PIN_27*%
X92936000Y-49879000D03*
%TO.P,P2,28,Pin_28*%
%TO.N,RESET*%
X92936000Y-47339000D03*
%TO.P,P2,29,Pin_29*%
%TO.N,/CF IDE Interface/D7*%
X95476000Y-49879000D03*
%TO.P,P2,30,Pin_30*%
%TO.N,/CF IDE Interface/D6*%
X95476000Y-47339000D03*
%TO.P,P2,31,Pin_31*%
%TO.N,/CF IDE Interface/D5*%
X98016000Y-49879000D03*
%TO.P,P2,32,Pin_32*%
%TO.N,/CF IDE Interface/D3*%
X98016000Y-47339000D03*
%TO.P,P2,33,Pin_33*%
%TO.N,/CF IDE Interface/D4*%
X100556000Y-49879000D03*
%TO.P,P2,34,Pin_34*%
%TO.N,/CF IDE Interface/D2*%
X100556000Y-47339000D03*
%TO.P,P2,35,Pin_35*%
%TO.N,/CF IDE Interface/D1*%
X103096000Y-49879000D03*
%TO.P,P2,36,Pin_36*%
%TO.N,/CF IDE Interface/D0*%
X103096000Y-47339000D03*
%TO.P,P2,37,Pin_37*%
%TO.N,GND*%
X105636000Y-49879000D03*
%TO.P,P2,38,Pin_38*%
X105636000Y-47339000D03*
%TO.P,P2,39,Pin_39*%
%TO.N,PIN_39*%
X108176000Y-49879000D03*
%TO.P,P2,40,Pin_40*%
%TO.N,PIN_40*%
X108176000Y-47339000D03*
%TD*%
D11*
%TO.P,U404,1,A->B*%
%TO.N,~{RD}*%
X109620000Y-58580000D03*
D12*
%TO.P,U404,2,A0*%
%TO.N,/CF IDE Interface/D0*%
X107080000Y-58580000D03*
%TO.P,U404,3,A1*%
%TO.N,/CF IDE Interface/D1*%
X104540000Y-58580000D03*
%TO.P,U404,4,A2*%
%TO.N,/CF IDE Interface/D2*%
X102000000Y-58580000D03*
%TO.P,U404,5,A3*%
%TO.N,/CF IDE Interface/D3*%
X99460000Y-58580000D03*
%TO.P,U404,6,A4*%
%TO.N,/CF IDE Interface/D4*%
X96920000Y-58580000D03*
%TO.P,U404,7,A5*%
%TO.N,/CF IDE Interface/D5*%
X94380000Y-58580000D03*
%TO.P,U404,8,A6*%
%TO.N,/CF IDE Interface/D6*%
X91840000Y-58580000D03*
%TO.P,U404,9,A7*%
%TO.N,/CF IDE Interface/D7*%
X89300000Y-58580000D03*
%TO.P,U404,10,GND*%
%TO.N,GND*%
X86760000Y-58580000D03*
%TO.P,U404,11,B7*%
%TO.N,/CF IDE Interface/BD7*%
X86760000Y-66200000D03*
%TO.P,U404,12,B6*%
%TO.N,/CF IDE Interface/BD6*%
X89300000Y-66200000D03*
%TO.P,U404,13,B5*%
%TO.N,/CF IDE Interface/BD5*%
X91840000Y-66200000D03*
%TO.P,U404,14,B4*%
%TO.N,/CF IDE Interface/BD4*%
X94380000Y-66200000D03*
%TO.P,U404,15,B3*%
%TO.N,/CF IDE Interface/BD3*%
X96920000Y-66200000D03*
%TO.P,U404,16,B2*%
%TO.N,/CF IDE Interface/BD2*%
X99460000Y-66200000D03*
%TO.P,U404,17,B1*%
%TO.N,/CF IDE Interface/BD1*%
X102000000Y-66200000D03*
%TO.P,U404,18,B0*%
%TO.N,/CF IDE Interface/BD0*%
X104540000Y-66200000D03*
%TO.P,U404,19,CE*%
%TO.N,EXPSEL_O*%
X107080000Y-66200000D03*
%TO.P,U404,20,VCC*%
%TO.N,+5V*%
X109620000Y-66200000D03*
%TD*%
D15*
%TO.P,D402,1,K*%
%TO.N,Net-(D402-K)*%
X107800000Y-103800000D03*
D16*
%TO.P,D402,2,A*%
%TO.N,+5V*%
X110340000Y-103800000D03*
%TD*%
D11*
%TO.P,U403,1,A0*%
%TO.N,/CF IDE Interface/A3*%
X76740000Y-58580000D03*
D12*
%TO.P,U403,2,A1*%
%TO.N,/CF IDE Interface/A4*%
X74200000Y-58580000D03*
%TO.P,U403,3,A2*%
%TO.N,GND*%
X71660000Y-58580000D03*
%TO.P,U403,4,E1*%
%TO.N,Net-(U401B-Q)*%
X69120000Y-58580000D03*
%TO.P,U403,5,E2*%
%TO.N,GND*%
X66580000Y-58580000D03*
%TO.P,U403,6,E3*%
%TO.N,~{LIR}*%
X64040000Y-58580000D03*
%TO.P,U403,7,O7*%
%TO.N,unconnected-(U403-O7-Pad7)*%
X61500000Y-58580000D03*
%TO.P,U403,8,GND*%
%TO.N,GND*%
X58960000Y-58580000D03*
%TO.P,U403,9,O6*%
%TO.N,unconnected-(U403-O6-Pad9)*%
X58960000Y-66200000D03*
%TO.P,U403,10,O5*%
%TO.N,unconnected-(U403-O5-Pad10)*%
X61500000Y-66200000D03*
%TO.P,U403,11,O4*%
%TO.N,unconnected-(U403-O4-Pad11)*%
X64040000Y-66200000D03*
%TO.P,U403,12,O3*%
%TO.N,Net-(J402-Pin_7)*%
X66580000Y-66200000D03*
%TO.P,U403,13,O2*%
%TO.N,Net-(J402-Pin_5)*%
X69120000Y-66200000D03*
%TO.P,U403,14,O1*%
%TO.N,Net-(J402-Pin_3)*%
X71660000Y-66200000D03*
%TO.P,U403,15,O0*%
%TO.N,Net-(J402-Pin_1)*%
X74200000Y-66200000D03*
%TO.P,U403,16,VCC*%
%TO.N,+5V*%
X76740000Y-66200000D03*
%TD*%
D13*
%TO.P,J402,1,Pin_1*%
%TO.N,Net-(J402-Pin_1)*%
X74140000Y-72260000D03*
D14*
%TO.P,J402,2,Pin_2*%
%TO.N,~{IDE_CS}*%
X74140000Y-74800000D03*
%TO.P,J402,3,Pin_3*%
%TO.N,Net-(J402-Pin_3)*%
X71600000Y-72260000D03*
%TO.P,J402,4,Pin_4*%
%TO.N,~{IDE_CS}*%
X71600000Y-74800000D03*
%TO.P,J402,5,Pin_5*%
%TO.N,Net-(J402-Pin_5)*%
X69060000Y-72260000D03*
%TO.P,J402,6,Pin_6*%
%TO.N,~{IDE_CS}*%
X69060000Y-74800000D03*
%TO.P,J402,7,Pin_7*%
%TO.N,Net-(J402-Pin_7)*%
X66520000Y-72260000D03*
%TO.P,J402,8,Pin_8*%
%TO.N,~{IDE_CS}*%
X66520000Y-74800000D03*
%TD*%
D13*
%TO.P,J401,1,Pin_1*%
%TO.N,~{RESET}*%
X118660000Y-48640000D03*
D14*
%TO.P,J401,2,Pin_2*%
%TO.N,GND*%
X121200000Y-48640000D03*
%TO.P,J401,3,Pin_3*%
%TO.N,/CF IDE Interface/BD7*%
X118660000Y-51180000D03*
%TO.P,J401,4,Pin_4*%
%TO.N,unconnected-(J401-Pin_4-Pad4)*%
X121200000Y-51180000D03*
%TO.P,J401,5,Pin_5*%
%TO.N,/CF IDE Interface/BD6*%
X118660000Y-53720000D03*
%TO.P,J401,6,Pin_6*%
%TO.N,unconnected-(J401-Pin_6-Pad6)*%
X121200000Y-53720000D03*
%TO.P,J401,7,Pin_7*%
%TO.N,/CF IDE Interface/BD5*%
X118660000Y-56260000D03*
%TO.P,J401,8,Pin_8*%
%TO.N,unconnected-(J401-Pin_8-Pad8)*%
X121200000Y-56260000D03*
%TO.P,J401,9,Pin_9*%
%TO.N,/CF IDE Interface/BD4*%
X118660000Y-58800000D03*
%TO.P,J401,10,Pin_10*%
%TO.N,unconnected-(J401-Pin_10-Pad10)*%
X121200000Y-58800000D03*
%TO.P,J401,11,Pin_11*%
%TO.N,/CF IDE Interface/BD3*%
X118660000Y-61340000D03*
%TO.P,J401,12,Pin_12*%
%TO.N,unconnected-(J401-Pin_12-Pad12)*%
X121200000Y-61340000D03*
%TO.P,J401,13,Pin_13*%
%TO.N,/CF IDE Interface/BD2*%
X118660000Y-63880000D03*
%TO.P,J401,14,Pin_14*%
%TO.N,unconnected-(J401-Pin_14-Pad14)*%
X121200000Y-63880000D03*
%TO.P,J401,15,Pin_15*%
%TO.N,/CF IDE Interface/BD1*%
X118660000Y-66420000D03*
%TO.P,J401,16,Pin_16*%
%TO.N,unconnected-(J401-Pin_16-Pad16)*%
X121200000Y-66420000D03*
%TO.P,J401,17,Pin_17*%
%TO.N,/CF IDE Interface/BD0*%
X118660000Y-68960000D03*
%TO.P,J401,18,Pin_18*%
%TO.N,unconnected-(J401-Pin_18-Pad18)*%
X121200000Y-68960000D03*
%TO.P,J401,19,Pin_19*%
%TO.N,GND*%
X118660000Y-71500000D03*
%TO.P,J401,20,Pin_20*%
%TO.N,+5V*%
X121200000Y-71500000D03*
%TO.P,J401,21,Pin_21*%
%TO.N,unconnected-(J401-Pin_21-Pad21)*%
X118660000Y-74040000D03*
%TO.P,J401,22,Pin_22*%
%TO.N,GND*%
X121200000Y-74040000D03*
%TO.P,J401,23,Pin_23*%
%TO.N,Net-(J401-Pin_23)*%
X118660000Y-76580000D03*
%TO.P,J401,24,Pin_24*%
%TO.N,GND*%
X121200000Y-76580000D03*
%TO.P,J401,25,Pin_25*%
%TO.N,Net-(J401-Pin_25)*%
X118660000Y-79120000D03*
%TO.P,J401,26,Pin_26*%
%TO.N,GND*%
X121200000Y-79120000D03*
%TO.P,J401,27,Pin_27*%
%TO.N,unconnected-(J401-Pin_27-Pad27)*%
X118660000Y-81660000D03*
%TO.P,J401,28,Pin_28*%
%TO.N,unconnected-(J401-Pin_28-Pad28)*%
X121200000Y-81660000D03*
%TO.P,J401,29,Pin_29*%
%TO.N,Net-(J401-Pin_29)*%
X118660000Y-84200000D03*
%TO.P,J401,30,Pin_30*%
%TO.N,GND*%
X121200000Y-84200000D03*
%TO.P,J401,31,Pin_31*%
%TO.N,unconnected-(J401-Pin_31-Pad31)*%
X118660000Y-86740000D03*
%TO.P,J401,32,Pin_32*%
%TO.N,unconnected-(J401-Pin_32-Pad32)*%
X121200000Y-86740000D03*
%TO.P,J401,33,Pin_33*%
%TO.N,/CF IDE Interface/A1*%
X118660000Y-89280000D03*
%TO.P,J401,34,Pin_34*%
%TO.N,Net-(J401-Pin_34)*%
X121200000Y-89280000D03*
%TO.P,J401,35,Pin_35*%
%TO.N,/CF IDE Interface/A0*%
X118660000Y-91820000D03*
%TO.P,J401,36,Pin_36*%
%TO.N,/CF IDE Interface/A2*%
X121200000Y-91820000D03*
%TO.P,J401,37,Pin_37*%
%TO.N,~{IDE_CS}*%
X118660000Y-94360000D03*
%TO.P,J401,38,Pin_38*%
%TO.N,Net-(J401-Pin_38)*%
X121200000Y-94360000D03*
%TO.P,J401,39,Pin_39*%
%TO.N,Net-(J401-Pin_39)*%
X118660000Y-96900000D03*
%TO.P,J401,40,Pin_40*%
%TO.N,GND*%
X121200000Y-96900000D03*
%TD*%
D10*
%TO.P,C402,1*%
%TO.N,+5V*%
X55940000Y-93500000D03*
%TO.P,C402,2*%
%TO.N,GND*%
X55940000Y-88500000D03*
%TD*%
D15*
%TO.P,D401,1,K*%
%TO.N,Net-(D401-K)*%
X118000000Y-103800000D03*
D16*
%TO.P,D401,2,A*%
%TO.N,+5V*%
X120540000Y-103800000D03*
%TD*%
D17*
%TO.P,C406,1*%
%TO.N,+5V*%
X53201700Y-69705000D03*
D18*
%TO.P,C406,2*%
%TO.N,GND*%
X53201700Y-74455000D03*
X53201700Y-84695000D03*
%TD*%
D10*
%TO.P,C403,1*%
%TO.N,+5V*%
X55940000Y-64880000D03*
%TO.P,C403,2*%
%TO.N,GND*%
X55940000Y-59880000D03*
%TD*%
%TO.P,R403,1*%
%TO.N,+5V*%
X92400000Y-71600000D03*
D12*
%TO.P,R403,2*%
%TO.N,Net-(J401-Pin_29)*%
X105100000Y-71600000D03*
%TD*%
D11*
%TO.P,U402,1*%
%TO.N,~{IDE_CS}*%
X74240000Y-87200000D03*
D12*
%TO.P,U402,2*%
%TO.N,~{WR}*%
X71700000Y-87200000D03*
%TO.P,U402,3*%
%TO.N,Net-(U402-Pad3)*%
X69160000Y-87200000D03*
%TO.P,U402,4*%
X66620000Y-87200000D03*
%TO.P,U402,5*%
%TO.N,GND*%
X64080000Y-87200000D03*
%TO.P,U402,6*%
%TO.N,Net-(J401-Pin_23)*%
X61540000Y-87200000D03*
%TO.P,U402,7,GND*%
%TO.N,GND*%
X59000000Y-87200000D03*
%TO.P,U402,8*%
%TO.N,Net-(J401-Pin_25)*%
X59000000Y-94820000D03*
%TO.P,U402,9*%
%TO.N,~{RD}*%
X61540000Y-94820000D03*
%TO.P,U402,10*%
%TO.N,Net-(U401A-Q)*%
X64080000Y-94820000D03*
%TO.P,U402,11*%
%TO.N,Net-(U401A-~{R})*%
X66620000Y-94820000D03*
%TO.P,U402,12*%
%TO.N,FI*%
X69160000Y-94820000D03*
%TO.P,U402,13*%
%TO.N,~{RD}*%
X71700000Y-94820000D03*
%TO.P,U402,14,VCC*%
%TO.N,+5V*%
X74240000Y-94820000D03*
%TD*%
D13*
%TO.P,P1,1,Pin_1*%
%TO.N,+5V*%
X59910000Y-44790000D03*
D14*
%TO.P,P1,2,Pin_2*%
X59910000Y-42250000D03*
%TO.P,P1,3,Pin_3*%
%TO.N,GND*%
X62450000Y-44790000D03*
%TO.P,P1,4,Pin_4*%
X62450000Y-42250000D03*
%TO.P,P1,5,Pin_5*%
%TO.N,~{RD}*%
X64990000Y-44790000D03*
%TO.P,P1,6,Pin_6*%
%TO.N,FI*%
X64990000Y-42250000D03*
%TO.P,P1,7,Pin_7*%
%TO.N,~{WR}*%
X67530000Y-44790000D03*
%TO.P,P1,8,Pin_8*%
%TO.N,~{RESET}*%
X67530000Y-42250000D03*
%TO.P,P1,9,Pin_9*%
%TO.N,E*%
X70070000Y-44790000D03*
%TO.P,P1,10,Pin_10*%
%TO.N,~{LIR}*%
X70070000Y-42250000D03*
%TO.P,P1,11,Pin_11*%
%TO.N,~{NMI}*%
X72610000Y-44790000D03*
%TO.P,P1,12,Pin_12*%
%TO.N,EXPSEL_O*%
X72610000Y-42250000D03*
%TO.P,P1,13,Pin_13*%
%TO.N,~{WAIT}*%
X75150000Y-44790000D03*
%TO.P,P1,14,Pin_14*%
%TO.N,EXPSEL_2*%
X75150000Y-42250000D03*
%TO.P,P1,15,Pin_15*%
%TO.N,~{INT0}*%
X77690000Y-44790000D03*
%TO.P,P1,16,Pin_16*%
%TO.N,~{HALT}*%
X77690000Y-42250000D03*
%TO.P,P1,17,Pin_17*%
%TO.N,ST*%
X80230000Y-44790000D03*
%TO.P,P1,18,Pin_18*%
%TO.N,EXPSEL_3*%
X80230000Y-42250000D03*
%TO.P,P1,19,Pin_19*%
%TO.N,/CF IDE Interface/A0*%
X82770000Y-44790000D03*
%TO.P,P1,20,Pin_20*%
%TO.N,/CF IDE Interface/A1*%
X82770000Y-42250000D03*
%TO.P,P1,21,Pin_21*%
%TO.N,~{TEND0}*%
X85310000Y-44790000D03*
%TO.P,P1,22,Pin_22*%
%TO.N,/CF IDE Interface/A2*%
X85310000Y-42250000D03*
%TO.P,P1,23,Pin_23*%
%TO.N,/CF IDE Interface/A3*%
X87850000Y-44790000D03*
%TO.P,P1,24,Pin_24*%
%TO.N,/CF IDE Interface/A4*%
X87850000Y-42250000D03*
%TO.P,P1,25,Pin_25*%
%TO.N,~{DREQ0}*%
X90390000Y-44790000D03*
%TO.P,P1,26,Pin_26*%
%TO.N,~{IOE}*%
X90390000Y-42250000D03*
%TO.P,P1,27,Pin_27*%
%TO.N,PIN_27*%
X92930000Y-44790000D03*
%TO.P,P1,28,Pin_28*%
%TO.N,RESET*%
X92930000Y-42250000D03*
%TO.P,P1,29,Pin_29*%
%TO.N,/CF IDE Interface/D7*%
X95470000Y-44790000D03*
%TO.P,P1,30,Pin_30*%
%TO.N,/CF IDE Interface/D6*%
X95470000Y-42250000D03*
%TO.P,P1,31,Pin_31*%
%TO.N,/CF IDE Interface/D5*%
X98010000Y-44790000D03*
%TO.P,P1,32,Pin_32*%
%TO.N,/CF IDE Interface/D3*%
X98010000Y-42250000D03*
%TO.P,P1,33,Pin_33*%
%TO.N,/CF IDE Interface/D4*%
X100550000Y-44790000D03*
%TO.P,P1,34,Pin_34*%
%TO.N,/CF IDE Interface/D2*%
X100550000Y-42250000D03*
%TO.P,P1,35,Pin_35*%
%TO.N,/CF IDE Interface/D1*%
X103090000Y-44790000D03*
%TO.P,P1,36,Pin_36*%
%TO.N,/CF IDE Interface/D0*%
X103090000Y-42250000D03*
%TO.P,P1,37,Pin_37*%
%TO.N,GND*%
X105630000Y-44790000D03*
%TO.P,P1,38,Pin_38*%
X105630000Y-42250000D03*
%TO.P,P1,39,Pin_39*%
%TO.N,PIN_39*%
X108170000Y-44790000D03*
%TO.P,P1,40,Pin_40*%
%TO.N,PIN_40*%
X108170000Y-42250000D03*
%TD*%
D10*
%TO.P,R401,1*%
%TO.N,+5V*%
X92400000Y-75400000D03*
D12*
%TO.P,R401,2*%
%TO.N,Net-(J401-Pin_34)*%
X105100000Y-75400000D03*
%TD*%
D10*
%TO.P,R402,1*%
%TO.N,+5V*%
X92400000Y-79200000D03*
D12*
%TO.P,R402,2*%
%TO.N,Net-(J401-Pin_38)*%
X105100000Y-79200000D03*
%TD*%
D10*
%TO.P,R405,1*%
%TO.N,Net-(D402-K)*%
X109000000Y-85900000D03*
D12*
%TO.P,R405,2*%
%TO.N,GND*%
X109000000Y-98600000D03*
%TD*%
D10*
%TO.P,C405,1*%
%TO.N,+5V*%
X113000000Y-72900000D03*
%TO.P,C405,2*%
%TO.N,GND*%
X113000000Y-67900000D03*
%TD*%
D19*
%TO.N,GND*%
X105800000Y-94000000D03*
%TO.N,FI*%
X56646600Y-95492200D03*
%TO.N,~{RD}*%
X84000000Y-57300000D03*
%TO.N,Net-(U401A-Q)*%
X76900000Y-94886800D03*
%TO.N,Net-(U401B-Q)*%
X63106600Y-91100000D03*
%TD*%
D20*
%TO.N,GND*%
X83600000Y-60500000D02*
X86200000Y-60500000D01*
X124400000Y-109600000D02*
X124400000Y-100500000D01*
X62450000Y-42250000D02*
X62450000Y-38600000D01*
X105630000Y-42250000D02*
X105630000Y-38380000D01*
X64080000Y-87200000D02*
X64080000Y-89220000D01*
X66600000Y-60500000D02*
X71700000Y-60500000D01*
X50100000Y-38350000D02*
X50100000Y-59800000D01*
X56700000Y-89300000D02*
X58900000Y-89300000D01*
X50100000Y-59800000D02*
X50100000Y-74400000D01*
X62456000Y-44797500D02*
X62456000Y-42256000D01*
D21*
X119600000Y-98500000D02*
X115600000Y-98500000D01*
D20*
X113000000Y-63700000D02*
X113000000Y-67900000D01*
D22*
X124350000Y-70250000D02*
X124400000Y-70200000D01*
D21*
X124220000Y-79120000D02*
X124400000Y-79300000D01*
D20*
X83700000Y-88500000D02*
X83700000Y-89300000D01*
X62200000Y-38350000D02*
X61800000Y-38350000D01*
X103800000Y-89300000D02*
X105200000Y-90700000D01*
X105630000Y-38380000D02*
X105600000Y-38350000D01*
D21*
X121200000Y-48640000D02*
X124340000Y-48640000D01*
D20*
X55940000Y-88540000D02*
X56700000Y-89300000D01*
D22*
X118660000Y-71500000D02*
X119910000Y-70250000D01*
D20*
X55940000Y-59880000D02*
X56080000Y-59880000D01*
X124400000Y-76700000D02*
X124400000Y-74300000D01*
X105600000Y-38350000D02*
X62200000Y-38350000D01*
X62200000Y-38350000D02*
X61800000Y-38350000D01*
X124400000Y-70200000D02*
X124400000Y-48700000D01*
X53201700Y-74455000D02*
X50155000Y-74455000D01*
X55940000Y-59880000D02*
X50180000Y-59880000D01*
D21*
X121200000Y-84200000D02*
X124400000Y-84200000D01*
D20*
X50155000Y-74455000D02*
X50100000Y-74400000D01*
X124400000Y-38400000D02*
X124350000Y-38350000D01*
D21*
X121200000Y-79120000D02*
X124220000Y-79120000D01*
D20*
X64000000Y-89300000D02*
X83700000Y-89300000D01*
D21*
X115600000Y-98500000D02*
X114100000Y-97000000D01*
X121200000Y-74040000D02*
X124140000Y-74040000D01*
D20*
X86200000Y-60500000D02*
X87400000Y-61700000D01*
X55940000Y-88500000D02*
X50100000Y-88500000D01*
X86200000Y-60500000D02*
X86760000Y-59940000D01*
D21*
X121200000Y-96900000D02*
X119600000Y-98500000D01*
D20*
X50100000Y-109600000D02*
X124400000Y-109600000D01*
X58900000Y-89300000D02*
X64000000Y-89300000D01*
X124400000Y-79300000D02*
X124400000Y-76700000D01*
X124350000Y-38350000D02*
X105600000Y-38350000D01*
X64080000Y-89220000D02*
X64000000Y-89300000D01*
X83700000Y-89300000D02*
X86800000Y-89300000D01*
X58960000Y-60460000D02*
X59000000Y-60500000D01*
X124400000Y-74300000D02*
X124400000Y-70200000D01*
D23*
X62450000Y-44791500D02*
X62450000Y-44790000D01*
D20*
X66580000Y-58580000D02*
X66580000Y-60480000D01*
X105636000Y-49879000D02*
X105636000Y-47339000D01*
X50105000Y-84695000D02*
X50100000Y-84700000D01*
X105800000Y-91300000D02*
X105800000Y-94000000D01*
X83700000Y-59880000D02*
X83700000Y-60400000D01*
D23*
X105636000Y-44577800D02*
X105630000Y-44583800D01*
D20*
X62450000Y-38600000D02*
X62200000Y-38350000D01*
X71660000Y-60460000D02*
X71700000Y-60500000D01*
X71700000Y-60500000D02*
X83600000Y-60500000D01*
X86800000Y-89300000D02*
X103800000Y-89300000D01*
D21*
X109000000Y-97600000D02*
X109000000Y-98600000D01*
D20*
X105636000Y-44577800D02*
X105636000Y-42256000D01*
X59000000Y-87200000D02*
X59000000Y-89200000D01*
X71660000Y-58580000D02*
X71660000Y-60460000D01*
X56080000Y-59880000D02*
X56700000Y-60500000D01*
X86800000Y-89300000D02*
X86780000Y-89280000D01*
X50100000Y-88500000D02*
X50100000Y-109600000D01*
D21*
X124140000Y-74040000D02*
X124400000Y-74300000D01*
D20*
X87400000Y-61700000D02*
X111000000Y-61700000D01*
X105636000Y-47339000D02*
X105636000Y-44577800D01*
X62456000Y-49879000D02*
X62456000Y-47339000D01*
X105200000Y-90700000D02*
X105800000Y-91300000D01*
X62456000Y-47339000D02*
X62456000Y-44797500D01*
X62456000Y-42256000D02*
X62450000Y-42250000D01*
X58960000Y-58580000D02*
X58960000Y-60460000D01*
X59000000Y-60500000D02*
X66600000Y-60500000D01*
D23*
X105630000Y-44583800D02*
X105630000Y-44790000D01*
D20*
X111000000Y-61700000D02*
X113000000Y-63700000D01*
X66580000Y-60480000D02*
X66600000Y-60500000D01*
X50100000Y-84700000D02*
X50100000Y-88500000D01*
X56700000Y-60500000D02*
X59000000Y-60500000D01*
X61800000Y-38350000D02*
X50100000Y-38350000D01*
X124400000Y-84200000D02*
X124400000Y-79300000D01*
X53201700Y-84695000D02*
X50105000Y-84695000D01*
X86760000Y-59940000D02*
X86760000Y-58580000D01*
X124400000Y-100500000D02*
X124400000Y-96900000D01*
X124400000Y-96900000D02*
X124400000Y-84200000D01*
D23*
X62456000Y-44797500D02*
X62450000Y-44791500D01*
D21*
X124340000Y-48640000D02*
X124400000Y-48700000D01*
X124280000Y-76580000D02*
X124400000Y-76700000D01*
D20*
X59000000Y-89200000D02*
X58900000Y-89300000D01*
D21*
X121200000Y-96900000D02*
X124400000Y-96900000D01*
X114100000Y-97000000D02*
X109600000Y-97000000D01*
D20*
X50180000Y-59880000D02*
X50100000Y-59800000D01*
X55940000Y-88500000D02*
X55940000Y-88540000D01*
D21*
X121200000Y-76580000D02*
X124280000Y-76580000D01*
X109600000Y-97000000D02*
X109000000Y-97600000D01*
D20*
X83700000Y-60400000D02*
X83600000Y-60500000D01*
D22*
X119910000Y-70250000D02*
X124350000Y-70250000D01*
D20*
X50100000Y-74400000D02*
X50100000Y-84700000D01*
X105636000Y-42256000D02*
X105630000Y-42250000D01*
X124400000Y-48700000D02*
X124400000Y-38400000D01*
X86780000Y-89280000D02*
X86780000Y-87200000D01*
%TO.N,+5V*%
X96900000Y-92900000D02*
X101600000Y-92900000D01*
X91860000Y-94820000D02*
X91860000Y-92960000D01*
D22*
X113000000Y-72900000D02*
X113110000Y-72790000D01*
D20*
X105700000Y-105100000D02*
X106600000Y-106000000D01*
X106600000Y-106000000D02*
X110000000Y-106000000D01*
X74240000Y-94820000D02*
X74240000Y-92960000D01*
X91860000Y-92960000D02*
X91800000Y-92900000D01*
X55940000Y-93500000D02*
X56100000Y-93500000D01*
X110000000Y-106000000D02*
X110340000Y-105660000D01*
X76740000Y-66200000D02*
X76740000Y-64140000D01*
X94400000Y-92900000D02*
X96900000Y-92900000D01*
X96940000Y-92940000D02*
X96900000Y-92900000D01*
X96940000Y-94820000D02*
X96940000Y-92940000D01*
X109620000Y-64820000D02*
X109620000Y-66200000D01*
X83700000Y-64100000D02*
X108900000Y-64100000D01*
X83700000Y-93500000D02*
X83700000Y-92900000D01*
X101600000Y-92900000D02*
X102020000Y-93320000D01*
X83700000Y-64880000D02*
X83700000Y-64100000D01*
X109620000Y-71920000D02*
X110600000Y-72900000D01*
X92400000Y-82100000D02*
X94400000Y-84100000D01*
X74240000Y-92960000D02*
X74300000Y-92900000D01*
X105700000Y-98900000D02*
X105700000Y-105100000D01*
X109620000Y-66200000D02*
X109620000Y-71920000D01*
D22*
X120600000Y-71500000D02*
X121200000Y-71500000D01*
D20*
X83700000Y-92900000D02*
X91800000Y-92900000D01*
X98040000Y-97800000D02*
X104600000Y-97800000D01*
X92400000Y-75400000D02*
X92400000Y-79200000D01*
X110340000Y-105660000D02*
X110340000Y-103800000D01*
X76740000Y-64140000D02*
X76700000Y-64100000D01*
X110600000Y-72900000D02*
X113000000Y-72900000D01*
X104600000Y-97800000D02*
X105700000Y-98900000D01*
X56700000Y-92900000D02*
X74300000Y-92900000D01*
X56720000Y-64100000D02*
X76700000Y-64100000D01*
X92400000Y-79200000D02*
X92400000Y-82100000D01*
X92400000Y-71600000D02*
X92400000Y-75400000D01*
X76700000Y-64100000D02*
X83700000Y-64100000D01*
X55940000Y-64880000D02*
X56720000Y-64100000D01*
X102020000Y-93320000D02*
X102020000Y-94820000D01*
X94400000Y-84100000D02*
X94400000Y-87200000D01*
X91800000Y-92900000D02*
X94400000Y-92900000D01*
X96940000Y-94820000D02*
X96940000Y-96700000D01*
X108900000Y-64100000D02*
X109620000Y-64820000D01*
X56100000Y-93500000D02*
X56700000Y-92900000D01*
X96940000Y-96700000D02*
X98040000Y-97800000D01*
X74300000Y-92900000D02*
X83700000Y-92900000D01*
D23*
%TO.N,Net-(J401-Pin_39)*%
X112800000Y-91156900D02*
X112800000Y-85900000D01*
X118543100Y-96900000D02*
X112800000Y-91156900D01*
X118660000Y-96900000D02*
X118543100Y-96900000D01*
D22*
%TO.N,/CF IDE Interface/A1*%
X82776000Y-46551800D02*
X84020000Y-45307800D01*
X82776000Y-47339000D02*
X82776000Y-46551800D01*
X84020000Y-45307800D02*
X84020000Y-43500000D01*
X84020000Y-43500000D02*
X82770000Y-42250000D01*
%TO.N,/CF IDE Interface/A2*%
X86560000Y-45307800D02*
X86560000Y-43500000D01*
X86560000Y-43500000D02*
X85310000Y-42250000D01*
X85316000Y-46551800D02*
X86560000Y-45307800D01*
X85316000Y-47339000D02*
X85316000Y-46551800D01*
%TO.N,~{LIR}*%
X70076000Y-46551800D02*
X71320000Y-45307800D01*
X71320000Y-43500000D02*
X70070000Y-42250000D01*
X70076000Y-47339000D02*
X70076000Y-46551800D01*
X71320000Y-45307800D02*
X71320000Y-43500000D01*
%TO.N,~{INT0}*%
X77696000Y-49879000D02*
X76446000Y-48629000D01*
X76446000Y-46554000D02*
X77690000Y-45310000D01*
X76446000Y-48629000D02*
X76446000Y-46554000D01*
X77690000Y-45310000D02*
X77690000Y-44790000D01*
%TO.N,~{NMI}*%
X72610000Y-45390000D02*
X72610000Y-44790000D01*
X71366000Y-48629000D02*
X71366000Y-46634000D01*
X71366000Y-46634000D02*
X72610000Y-45390000D01*
X72616000Y-49879000D02*
X71366000Y-48629000D01*
%TO.N,E*%
X70076000Y-49879000D02*
X68826000Y-48629000D01*
X68826000Y-48629000D02*
X68826000Y-46574000D01*
X68826000Y-46574000D02*
X70070000Y-45330000D01*
X70070000Y-45330000D02*
X70070000Y-44790000D01*
%TO.N,~{RESET}*%
X67536000Y-47339000D02*
X67536000Y-46551800D01*
X68780000Y-43500000D02*
X67530000Y-42250000D01*
X68780000Y-45307800D02*
X68780000Y-43500000D01*
X67536000Y-46551800D02*
X68780000Y-45307800D01*
%TO.N,RESET*%
X94180000Y-43500000D02*
X92930000Y-42250000D01*
X92936000Y-47339000D02*
X92936000Y-46551800D01*
X92936000Y-46551800D02*
X94180000Y-45307800D01*
X94180000Y-45307800D02*
X94180000Y-43500000D01*
%TO.N,~{IOE}*%
X90396000Y-46551800D02*
X91640000Y-45307800D01*
X90396000Y-47339000D02*
X90396000Y-46551800D01*
X91640000Y-43500000D02*
X90390000Y-42250000D01*
X91640000Y-45307800D02*
X91640000Y-43500000D01*
%TO.N,EXPSEL_O*%
X73860000Y-45307800D02*
X73860000Y-43500000D01*
D23*
X105100000Y-96300000D02*
X107080000Y-94320000D01*
D22*
X73860000Y-43500000D02*
X72610000Y-42250000D01*
D23*
X100500000Y-96300000D02*
X105100000Y-96300000D01*
X107080000Y-94320000D02*
X107080000Y-66200000D01*
D22*
X72616000Y-47339000D02*
X72616000Y-46551800D01*
D23*
X99480000Y-94820000D02*
X99480000Y-95280000D01*
X99480000Y-95280000D02*
X100500000Y-96300000D01*
D22*
X72616000Y-46551800D02*
X73860000Y-45307800D01*
%TO.N,~{WAIT}*%
X75156000Y-49879000D02*
X73906000Y-48629000D01*
X73906000Y-46664000D02*
X75150000Y-45420000D01*
X75150000Y-45420000D02*
X75150000Y-44790000D01*
X73906000Y-48629000D02*
X73906000Y-46664000D01*
%TO.N,ST*%
X78986000Y-48629000D02*
X78986000Y-46614000D01*
X78986000Y-46614000D02*
X80230000Y-45370000D01*
X80230000Y-45370000D02*
X80230000Y-44790000D01*
X80236000Y-49879000D02*
X78986000Y-48629000D01*
%TO.N,~{HALT}*%
X78940000Y-45307800D02*
X78940000Y-43500000D01*
X77696000Y-46551800D02*
X78940000Y-45307800D01*
X78940000Y-43500000D02*
X77690000Y-42250000D01*
X77696000Y-47339000D02*
X77696000Y-46551800D01*
%TO.N,~{DREQ0}*%
X90390000Y-45500000D02*
X90390000Y-44790000D01*
X90396000Y-49879000D02*
X89146000Y-48629000D01*
X89146000Y-46744000D02*
X90390000Y-45500000D01*
X89146000Y-48629000D02*
X89146000Y-46744000D01*
D23*
%TO.N,FI*%
X69160000Y-94820000D02*
X67981400Y-95998600D01*
D22*
X64996000Y-46551800D02*
X66240000Y-45307800D01*
X64996000Y-47339000D02*
X64996000Y-46551800D01*
X66240000Y-43500000D02*
X64990000Y-42250000D01*
D23*
X57153000Y-95998600D02*
X56646600Y-95492200D01*
D22*
X66240000Y-45307800D02*
X66240000Y-43500000D01*
D23*
X67981400Y-95998600D02*
X57153000Y-95998600D01*
D22*
%TO.N,~{TEND0}*%
X85316000Y-49879000D02*
X84066000Y-48629000D01*
X85310000Y-45490000D02*
X85310000Y-44790000D01*
X84066000Y-48629000D02*
X84066000Y-46734000D01*
X84066000Y-46734000D02*
X85310000Y-45490000D01*
%TO.N,~{WR}*%
X67536000Y-49879000D02*
X66286000Y-48629000D01*
X66286000Y-46674000D02*
X67530000Y-45430000D01*
X67530000Y-45430000D02*
X67530000Y-44790000D01*
X66286000Y-48629000D02*
X66286000Y-46674000D01*
%TO.N,~{RD}*%
X64990000Y-45600000D02*
X64990000Y-44790000D01*
X63746000Y-46821200D02*
X64478200Y-46089000D01*
X64501000Y-46089000D02*
X64990000Y-45600000D01*
X64996000Y-49879000D02*
X63746000Y-48629000D01*
X63746000Y-48629000D02*
X63746000Y-46821200D01*
D23*
X64996000Y-56096000D02*
X64996000Y-49879000D01*
X65769600Y-56869600D02*
X64996000Y-56096000D01*
X83569600Y-56869600D02*
X65769600Y-56869600D01*
X84000000Y-57300000D02*
X83569600Y-56869600D01*
D22*
X64478200Y-46089000D02*
X64501000Y-46089000D01*
D23*
%TO.N,/CF IDE Interface/A0*%
X95650000Y-51850000D02*
X95650000Y-59750000D01*
D22*
X82770000Y-45410000D02*
X82770000Y-44790000D01*
X82776000Y-49879000D02*
X81526000Y-48629000D01*
D23*
X95650000Y-59750000D02*
X96100000Y-60200000D01*
X83980700Y-51080700D02*
X94880700Y-51080700D01*
X117000000Y-62600000D02*
X117000000Y-90160000D01*
X94880700Y-51080700D02*
X95650000Y-51850000D01*
D22*
X81526000Y-46654000D02*
X82770000Y-45410000D01*
D23*
X114600000Y-60200000D02*
X117000000Y-62600000D01*
X82779000Y-49879000D02*
X83980700Y-51080700D01*
X82776000Y-49879000D02*
X82779000Y-49879000D01*
D22*
X81526000Y-48629000D02*
X81526000Y-46654000D01*
D23*
X117000000Y-90160000D02*
X118660000Y-91820000D01*
X96100000Y-60200000D02*
X114600000Y-60200000D01*
D22*
%TO.N,Net-(D402-K)*%
X107800000Y-87100000D02*
X109000000Y-85900000D01*
X107800000Y-103800000D02*
X107800000Y-87100000D01*
%TO.N,/CF IDE Interface/A3*%
X87850000Y-45470000D02*
X87850000Y-44790000D01*
X86606000Y-48629000D02*
X86606000Y-46714000D01*
X87856000Y-49879000D02*
X86606000Y-48629000D01*
X86606000Y-46714000D02*
X87850000Y-45470000D01*
%TO.N,/CF IDE Interface/D1*%
X101846000Y-46754000D02*
X103090000Y-45510000D01*
X103090000Y-45510000D02*
X103090000Y-44790000D01*
X103096000Y-49879000D02*
X101846000Y-48629000D01*
X101846000Y-48629000D02*
X101846000Y-46754000D01*
D23*
%TO.N,/CF IDE Interface/D0*%
X104400000Y-55900000D02*
X104400000Y-47699000D01*
D22*
X104340000Y-46095000D02*
X104340000Y-43500000D01*
D23*
X107080000Y-58580000D02*
X104400000Y-55900000D01*
D22*
X103568000Y-46867000D02*
X104340000Y-46095000D01*
X104340000Y-43500000D02*
X103090000Y-42250000D01*
X103096000Y-47339000D02*
X103568000Y-46867000D01*
D23*
X104400000Y-47699000D02*
X103568000Y-46867000D01*
D22*
%TO.N,/CF IDE Interface/D2*%
X100556000Y-46551800D02*
X101800000Y-45307800D01*
X100556000Y-47339000D02*
X100556000Y-46551800D01*
X101800000Y-43500000D02*
X100550000Y-42250000D01*
X101800000Y-45307800D02*
X101800000Y-43500000D01*
%TO.N,/CF IDE Interface/A4*%
X87856000Y-46551800D02*
X89100000Y-45307800D01*
X89100000Y-45307800D02*
X89100000Y-43500000D01*
X89100000Y-43500000D02*
X87850000Y-42250000D01*
X87856000Y-47339000D02*
X87856000Y-46551800D01*
%TO.N,/CF IDE Interface/D7*%
X94226000Y-46774000D02*
X95470000Y-45530000D01*
X95476000Y-49879000D02*
X94226000Y-48629000D01*
X95470000Y-45530000D02*
X95470000Y-44790000D01*
X94226000Y-48629000D02*
X94226000Y-46774000D01*
%TO.N,/CF IDE Interface/D4*%
X99306000Y-46694000D02*
X100550000Y-45450000D01*
X99306000Y-48629000D02*
X99306000Y-46694000D01*
X100256900Y-49579900D02*
X99306000Y-48629000D01*
X100556000Y-49879000D02*
X100256900Y-49579900D01*
D23*
X100256900Y-55243100D02*
X96920000Y-58580000D01*
D22*
X100550000Y-45450000D02*
X100550000Y-44790000D01*
D23*
X100256900Y-49579900D02*
X100256900Y-55243100D01*
D22*
%TO.N,/CF IDE Interface/D6*%
X95476000Y-47339000D02*
X95476000Y-46551800D01*
X96760000Y-43540000D02*
X95470000Y-42250000D01*
X96760000Y-45267800D02*
X96760000Y-43540000D01*
X95476000Y-46551800D02*
X96760000Y-45267800D01*
%TO.N,/CF IDE Interface/D3*%
X98016000Y-46551800D02*
X99260000Y-45307800D01*
X99260000Y-45307800D02*
X99260000Y-43500000D01*
X99260000Y-43500000D02*
X98010000Y-42250000D01*
X98016000Y-47339000D02*
X98016000Y-46551800D01*
%TO.N,/CF IDE Interface/D5*%
X98016000Y-49879000D02*
X96766000Y-48629000D01*
X96766000Y-46634000D02*
X98010000Y-45390000D01*
X96766000Y-48629000D02*
X96766000Y-46634000D01*
X98010000Y-45390000D02*
X98010000Y-44790000D01*
D23*
%TO.N,Net-(U401A-Q)*%
X75778700Y-96008100D02*
X71202800Y-96008100D01*
X70311700Y-94313900D02*
X69666100Y-93668300D01*
X65231700Y-93668300D02*
X64080000Y-94820000D01*
X70311700Y-95117000D02*
X70311700Y-94313900D01*
X71202800Y-96008100D02*
X70311700Y-95117000D01*
X76900000Y-94886800D02*
X75778700Y-96008100D01*
X69666100Y-93668300D02*
X65231700Y-93668300D01*
%TO.N,Net-(U401B-Q)*%
X56162100Y-96647300D02*
X87492700Y-96647300D01*
X56711300Y-91100000D02*
X54767300Y-93044000D01*
X54767300Y-93044000D02*
X54767300Y-95252500D01*
X87492700Y-96647300D02*
X89320000Y-94820000D01*
X54767300Y-95252500D02*
X56162100Y-96647300D01*
X63106600Y-91100000D02*
X56711300Y-91100000D01*
D22*
%TO.N,~{IDE_CS}*%
X66520000Y-74800000D02*
X69060000Y-74800000D01*
X74140000Y-87100000D02*
X74240000Y-87200000D01*
X71600000Y-74800000D02*
X74140000Y-74800000D01*
X74140000Y-74800000D02*
X74140000Y-87100000D01*
X69060000Y-74800000D02*
X71600000Y-74800000D01*
%TO.N,Net-(J402-Pin_5)*%
X69120000Y-72200000D02*
X69060000Y-72260000D01*
X69120000Y-66200000D02*
X69120000Y-72200000D01*
%TO.N,Net-(J402-Pin_1)*%
X74200000Y-66200000D02*
X74200000Y-72200000D01*
X74200000Y-72200000D02*
X74140000Y-72260000D01*
%TO.N,EXPSEL_2*%
X76400000Y-45307800D02*
X76400000Y-43500000D01*
X75156000Y-46551800D02*
X76400000Y-45307800D01*
X75156000Y-47339000D02*
X75156000Y-46551800D01*
X76400000Y-43500000D02*
X75150000Y-42250000D01*
%TO.N,PIN_40*%
X109420000Y-43500000D02*
X108170000Y-42250000D01*
X108176000Y-47339000D02*
X109420000Y-46095000D01*
X109420000Y-46095000D02*
X109420000Y-43500000D01*
%TO.N,PIN_39*%
X106926000Y-46034000D02*
X108170000Y-44790000D01*
X106926000Y-48629000D02*
X106926000Y-46034000D01*
X108176000Y-49879000D02*
X106926000Y-48629000D01*
%TO.N,EXPSEL_3*%
X80236000Y-46551800D02*
X81480000Y-45307800D01*
X80236000Y-47339000D02*
X80236000Y-46551800D01*
X81480000Y-45307800D02*
X81480000Y-43500000D01*
X81480000Y-43500000D02*
X80230000Y-42250000D01*
%TO.N,PIN_27*%
X91686000Y-46714000D02*
X92930000Y-45470000D01*
X91686000Y-48629000D02*
X91686000Y-46714000D01*
X92936000Y-49879000D02*
X91686000Y-48629000D01*
X92930000Y-45470000D02*
X92930000Y-44790000D01*
%TO.N,Net-(J402-Pin_3)*%
X71660000Y-72200000D02*
X71600000Y-72260000D01*
X71660000Y-66200000D02*
X71660000Y-72200000D01*
%TO.N,Net-(J402-Pin_7)*%
X66580000Y-66200000D02*
X66580000Y-72200000D01*
X66580000Y-72200000D02*
X66520000Y-72260000D01*
%TD*%
%TA.AperFunction,Conductor*%
%TO.N,GND*%
G36*
X121450000Y-78686988D02*
G01*
X121392993Y-78654075D01*
X121265826Y-78620000D01*
X121134174Y-78620000D01*
X121007007Y-78654075D01*
X120950000Y-78686988D01*
X120950000Y-77013012D01*
X121007007Y-77045925D01*
X121134174Y-77080000D01*
X121265826Y-77080000D01*
X121392993Y-77045925D01*
X121450000Y-77013012D01*
X121450000Y-78686988D01*
G37*
%TD.AperFunction*%
%TA.AperFunction,Conductor*%
G36*
X121450000Y-76146988D02*
G01*
X121392993Y-76114075D01*
X121265826Y-76080000D01*
X121134174Y-76080000D01*
X121007007Y-76114075D01*
X120950000Y-76146988D01*
X120950000Y-74473012D01*
X121007007Y-74505925D01*
X121134174Y-74540000D01*
X121265826Y-74540000D01*
X121392993Y-74505925D01*
X121450000Y-74473012D01*
X121450000Y-76146988D01*
G37*
%TD.AperFunction*%
%TA.AperFunction,Conductor*%
G36*
X120014855Y-69626546D02*
G01*
X120031575Y-69645842D01*
X120161501Y-69831396D01*
X120161506Y-69831402D01*
X120328597Y-69998493D01*
X120328603Y-69998498D01*
X120514158Y-70128425D01*
X120557783Y-70183002D01*
X120564977Y-70252500D01*
X120533454Y-70314855D01*
X120514158Y-70331575D01*
X120328597Y-70461505D01*
X120161508Y-70628594D01*
X120031269Y-70814595D01*
X119976692Y-70858219D01*
X119907193Y-70865412D01*
X119844839Y-70833890D01*
X119828119Y-70814594D01*
X119698113Y-70628926D01*
X119698108Y-70628920D01*
X119531078Y-70461890D01*
X119345405Y-70331879D01*
X119301780Y-70277302D01*
X119294588Y-70207804D01*
X119326110Y-70145449D01*
X119345406Y-70128730D01*
X119345842Y-70128425D01*
X119531401Y-69998495D01*
X119698495Y-69831401D01*
X119828425Y-69645842D01*
X119883002Y-69602217D01*
X119952500Y-69595023D01*
X120014855Y-69626546D01*
G37*
%TD.AperFunction*%
%TA.AperFunction,Conductor*%
G36*
X62706000Y-49445988D02*
G01*
X62648993Y-49413075D01*
X62521826Y-49379000D01*
X62390174Y-49379000D01*
X62263007Y-49413075D01*
X62206000Y-49445988D01*
X62206000Y-47772012D01*
X62263007Y-47804925D01*
X62390174Y-47839000D01*
X62521826Y-47839000D01*
X62648993Y-47804925D01*
X62706000Y-47772012D01*
X62706000Y-49445988D01*
G37*
%TD.AperFunction*%
%TA.AperFunction,Conductor*%
G36*
X105886000Y-49445988D02*
G01*
X105828993Y-49413075D01*
X105701826Y-49379000D01*
X105570174Y-49379000D01*
X105443007Y-49413075D01*
X105386000Y-49445988D01*
X105386000Y-47772012D01*
X105443007Y-47804925D01*
X105570174Y-47839000D01*
X105701826Y-47839000D01*
X105828993Y-47804925D01*
X105886000Y-47772012D01*
X105886000Y-49445988D01*
G37*
%TD.AperFunction*%
%TA.AperFunction,Conductor*%
G36*
X62700000Y-45971205D02*
G01*
X62703166Y-45977004D01*
X62706000Y-46003362D01*
X62706000Y-46905988D01*
X62648993Y-46873075D01*
X62521826Y-46839000D01*
X62390174Y-46839000D01*
X62263007Y-46873075D01*
X62206000Y-46905988D01*
X62206000Y-46157794D01*
X62202834Y-46151996D01*
X62200000Y-46125638D01*
X62200000Y-45223012D01*
X62257007Y-45255925D01*
X62384174Y-45290000D01*
X62515826Y-45290000D01*
X62642993Y-45255925D01*
X62700000Y-45223012D01*
X62700000Y-45971205D01*
G37*
%TD.AperFunction*%
%TA.AperFunction,Conductor*%
G36*
X105880000Y-45971205D02*
G01*
X105883166Y-45977004D01*
X105886000Y-46003362D01*
X105886000Y-46905988D01*
X105828993Y-46873075D01*
X105701826Y-46839000D01*
X105570174Y-46839000D01*
X105443007Y-46873075D01*
X105386000Y-46905988D01*
X105386000Y-46157794D01*
X105382834Y-46151996D01*
X105380000Y-46125638D01*
X105380000Y-45223012D01*
X105437007Y-45255925D01*
X105564174Y-45290000D01*
X105695826Y-45290000D01*
X105822993Y-45255925D01*
X105880000Y-45223012D01*
X105880000Y-45971205D01*
G37*
%TD.AperFunction*%
%TA.AperFunction,Conductor*%
G36*
X62700000Y-44356988D02*
G01*
X62642993Y-44324075D01*
X62515826Y-44290000D01*
X62384174Y-44290000D01*
X62257007Y-44324075D01*
X62200000Y-44356988D01*
X62200000Y-42683012D01*
X62257007Y-42715925D01*
X62384174Y-42750000D01*
X62515826Y-42750000D01*
X62642993Y-42715925D01*
X62700000Y-42683012D01*
X62700000Y-44356988D01*
G37*
%TD.AperFunction*%
%TA.AperFunction,Conductor*%
G36*
X105880000Y-44356988D02*
G01*
X105822993Y-44324075D01*
X105695826Y-44290000D01*
X105564174Y-44290000D01*
X105437007Y-44324075D01*
X105380000Y-44356988D01*
X105380000Y-42683012D01*
X105437007Y-42715925D01*
X105564174Y-42750000D01*
X105695826Y-42750000D01*
X105822993Y-42715925D01*
X105880000Y-42683012D01*
X105880000Y-44356988D01*
G37*
%TD.AperFunction*%
%TA.AperFunction,Conductor*%
G36*
X124742539Y-37970185D02*
G01*
X124788294Y-38022989D01*
X124799500Y-38074500D01*
X124799500Y-109875500D01*
X124779815Y-109942539D01*
X124727011Y-109988294D01*
X124675500Y-109999500D01*
X49824500Y-109999500D01*
X49757461Y-109979815D01*
X49711706Y-109927011D01*
X49700500Y-109875500D01*
X49700500Y-103684938D01*
X86658600Y-103684938D01*
X86658600Y-103936862D01*
X86673559Y-104031308D01*
X86698010Y-104185685D01*
X86775860Y-104425283D01*
X86890232Y-104649748D01*
X87038301Y-104853549D01*
X87038305Y-104853554D01*
X87216445Y-105031694D01*
X87216450Y-105031698D01*
X87370737Y-105143793D01*
X87420255Y-105179770D01*
X87563284Y-105252647D01*
X87644716Y-105294139D01*
X87644718Y-105294139D01*
X87644721Y-105294141D01*
X87884315Y-105371990D01*
X88133138Y-105411400D01*
X88133139Y-105411400D01*
X88385061Y-105411400D01*
X88385062Y-105411400D01*
X88633885Y-105371990D01*
X88873479Y-105294141D01*
X89097945Y-105179770D01*
X89301756Y-105031693D01*
X89479893Y-104853556D01*
X89627970Y-104649745D01*
X89742341Y-104425279D01*
X89820190Y-104185685D01*
X89859600Y-103936862D01*
X89859600Y-103684938D01*
X89820190Y-103436115D01*
X89742341Y-103196521D01*
X89742339Y-103196518D01*
X89742339Y-103196516D01*
X89700847Y-103115084D01*
X89627970Y-102972055D01*
X89602390Y-102936847D01*
X89479898Y-102768250D01*
X89479894Y-102768245D01*
X89301754Y-102590105D01*
X89301749Y-102590101D01*
X89097948Y-102442032D01*
X89097947Y-102442031D01*
X89097945Y-102442030D01*
X89027053Y-102405909D01*
X88873483Y-102327660D01*
X88633885Y-102249810D01*
X88385062Y-102210400D01*
X88133138Y-102210400D01*
X88008726Y-102230105D01*
X87884314Y-102249810D01*
X87644716Y-102327660D01*
X87420251Y-102442032D01*
X87216450Y-102590101D01*
X87216445Y-102590105D01*
X87038305Y-102768245D01*
X87038301Y-102768250D01*
X86890232Y-102972051D01*
X86775860Y-103196516D01*
X86698010Y-103436114D01*
X86698010Y-103436115D01*
X86658600Y-103684938D01*
X49700500Y-103684938D01*
X49700500Y-92979928D01*
X54116800Y-92979928D01*
X54116800Y-92979931D01*
X54116800Y-95316569D01*
X54132693Y-95396465D01*
X54141799Y-95442244D01*
X54190835Y-95560627D01*
X54256658Y-95659139D01*
X54262026Y-95667173D01*
X55747428Y-97152575D01*
X55747431Y-97152577D01*
X55806186Y-97191835D01*
X55853973Y-97223765D01*
X55972356Y-97272801D01*
X55972360Y-97272801D01*
X55972361Y-97272802D01*
X56098028Y-97297800D01*
X56098031Y-97297800D01*
X87556771Y-97297800D01*
X87641315Y-97280982D01*
X87682444Y-97272801D01*
X87800827Y-97223765D01*
X87848614Y-97191835D01*
X87907369Y-97152577D01*
X88933062Y-96126882D01*
X88994383Y-96093399D01*
X89052834Y-96094790D01*
X89093308Y-96105635D01*
X89255230Y-96119801D01*
X89319998Y-96125468D01*
X89320000Y-96125468D01*
X89320002Y-96125468D01*
X89376673Y-96120509D01*
X89546692Y-96105635D01*
X89766496Y-96046739D01*
X89972734Y-95950568D01*
X90159139Y-95820047D01*
X90320047Y-95659139D01*
X90450568Y-95472734D01*
X90477618Y-95414724D01*
X90523790Y-95362285D01*
X90590983Y-95343133D01*
X90657865Y-95363348D01*
X90702382Y-95414725D01*
X90729429Y-95472728D01*
X90729432Y-95472734D01*
X90859954Y-95659141D01*
X91020858Y-95820045D01*
X91020861Y-95820047D01*
X91207266Y-95950568D01*
X91413504Y-96046739D01*
X91633308Y-96105635D01*
X91795230Y-96119801D01*
X91859998Y-96125468D01*
X91860000Y-96125468D01*
X91860002Y-96125468D01*
X91916673Y-96120509D01*
X92086692Y-96105635D01*
X92306496Y-96046739D01*
X92512734Y-95950568D01*
X92699139Y-95820047D01*
X92860047Y-95659139D01*
X92990568Y-95472734D01*
X93017618Y-95414724D01*
X93063790Y-95362285D01*
X93130983Y-95343133D01*
X93197865Y-95363348D01*
X93242382Y-95414725D01*
X93269429Y-95472728D01*
X93269432Y-95472734D01*
X93399954Y-95659141D01*
X93560858Y-95820045D01*
X93560861Y-95820047D01*
X93747266Y-95950568D01*
X93953504Y-96046739D01*
X94173308Y-96105635D01*
X94335230Y-96119801D01*
X94399998Y-96125468D01*
X94400000Y-96125468D01*
X94400002Y-96125468D01*
X94456673Y-96120509D01*
X94626692Y-96105635D01*
X94846496Y-96046739D01*
X95052734Y-95950568D01*
X95239139Y-95820047D01*
X95400047Y-95659139D01*
X95530568Y-95472734D01*
X95557618Y-95414724D01*
X95603790Y-95362285D01*
X95670983Y-95343133D01*
X95737865Y-95363348D01*
X95782382Y-95414725D01*
X95809429Y-95472728D01*
X95809432Y-95472734D01*
X95939951Y-95659137D01*
X95939952Y-95659138D01*
X95939953Y-95659139D01*
X96003182Y-95722368D01*
X96036666Y-95783689D01*
X96039500Y-95810048D01*
X96039500Y-96788696D01*
X96074103Y-96962658D01*
X96074105Y-96962666D01*
X96108046Y-97044606D01*
X96108046Y-97044607D01*
X96141983Y-97126540D01*
X96141990Y-97126552D01*
X96196497Y-97208127D01*
X96196497Y-97208128D01*
X96240532Y-97274031D01*
X96240538Y-97274039D01*
X97465964Y-98499464D01*
X97465966Y-98499466D01*
X97525036Y-98538933D01*
X97525039Y-98538936D01*
X97613450Y-98598011D01*
X97613453Y-98598013D01*
X97695393Y-98631953D01*
X97695394Y-98631953D01*
X97695395Y-98631954D01*
X97708400Y-98637341D01*
X97777334Y-98665895D01*
X97951303Y-98700499D01*
X97951307Y-98700500D01*
X97951308Y-98700500D01*
X97951309Y-98700500D01*
X104175638Y-98700500D01*
X104242677Y-98720185D01*
X104263319Y-98736819D01*
X104763181Y-99236681D01*
X104796666Y-99298004D01*
X104799500Y-99324362D01*
X104799500Y-105188696D01*
X104834103Y-105362658D01*
X104834105Y-105362666D01*
X104860325Y-105425966D01*
X104901984Y-105526542D01*
X104931896Y-105571309D01*
X105000537Y-105674038D01*
X105000540Y-105674041D01*
X106025964Y-106699464D01*
X106025966Y-106699466D01*
X106085036Y-106738933D01*
X106085039Y-106738936D01*
X106173449Y-106798010D01*
X106173453Y-106798013D01*
X106255393Y-106831953D01*
X106337334Y-106865895D01*
X106511303Y-106900499D01*
X106511307Y-106900500D01*
X106511308Y-106900500D01*
X110088693Y-106900500D01*
X110088694Y-106900499D01*
X110262666Y-106865895D01*
X110344606Y-106831953D01*
X110426547Y-106798013D01*
X110426549Y-106798011D01*
X110426552Y-106798010D01*
X110514955Y-106738939D01*
X110514955Y-106738938D01*
X110514959Y-106738936D01*
X110574036Y-106699464D01*
X111039464Y-106234035D01*
X111138013Y-106086547D01*
X111157895Y-106038547D01*
X111205895Y-105922666D01*
X111240500Y-105748691D01*
X111240500Y-105571308D01*
X111240500Y-104934448D01*
X111260185Y-104867409D01*
X111288343Y-104836590D01*
X111291784Y-104833913D01*
X111448979Y-104663153D01*
X111575924Y-104468849D01*
X111669157Y-104256300D01*
X111726134Y-104031305D01*
X111745300Y-103800000D01*
X111745300Y-103799993D01*
X111726135Y-103568702D01*
X111726133Y-103568691D01*
X111669157Y-103343699D01*
X111575924Y-103131151D01*
X111448983Y-102936852D01*
X111448980Y-102936849D01*
X111448979Y-102936847D01*
X111370996Y-102852135D01*
X116599500Y-102852135D01*
X116599500Y-104747870D01*
X116599501Y-104747876D01*
X116605908Y-104807483D01*
X116656202Y-104942328D01*
X116656206Y-104942335D01*
X116742452Y-105057544D01*
X116742455Y-105057547D01*
X116857664Y-105143793D01*
X116857671Y-105143797D01*
X116992517Y-105194091D01*
X116992516Y-105194091D01*
X116999444Y-105194835D01*
X117052127Y-105200500D01*
X118947872Y-105200499D01*
X119007483Y-105194091D01*
X119142331Y-105143796D01*
X119257546Y-105057546D01*
X119343796Y-104942331D01*
X119372455Y-104865493D01*
X119414326Y-104809559D01*
X119479790Y-104785141D01*
X119548063Y-104799992D01*
X119579866Y-104824843D01*
X119587302Y-104832920D01*
X119588215Y-104833912D01*
X119588222Y-104833918D01*
X119771365Y-104976464D01*
X119771371Y-104976468D01*
X119771374Y-104976470D01*
X119975497Y-105086936D01*
X120012095Y-105099500D01*
X120195015Y-105162297D01*
X120195017Y-105162297D01*
X120195019Y-105162298D01*
X120423951Y-105200500D01*
X120423952Y-105200500D01*
X120656048Y-105200500D01*
X120656049Y-105200500D01*
X120884981Y-105162298D01*
X121104503Y-105086936D01*
X121308626Y-104976470D01*
X121491784Y-104833913D01*
X121648979Y-104663153D01*
X121775924Y-104468849D01*
X121869157Y-104256300D01*
X121926134Y-104031305D01*
X121945300Y-103800000D01*
X121945300Y-103799993D01*
X121926135Y-103568702D01*
X121926133Y-103568691D01*
X121869157Y-103343699D01*
X121775924Y-103131151D01*
X121648983Y-102936852D01*
X121648980Y-102936849D01*
X121648979Y-102936847D01*
X121491784Y-102766087D01*
X121491779Y-102766083D01*
X121491777Y-102766081D01*
X121308634Y-102623535D01*
X121308628Y-102623531D01*
X121104504Y-102513064D01*
X121104495Y-102513061D01*
X120884984Y-102437702D01*
X120694450Y-102405908D01*
X120656049Y-102399500D01*
X120423951Y-102399500D01*
X120385550Y-102405908D01*
X120195015Y-102437702D01*
X119975504Y-102513061D01*
X119975495Y-102513064D01*
X119771371Y-102623531D01*
X119771365Y-102623535D01*
X119588222Y-102766081D01*
X119588218Y-102766085D01*
X119588216Y-102766086D01*
X119588216Y-102766087D01*
X119586230Y-102768245D01*
X119579866Y-102775158D01*
X119519979Y-102811148D01*
X119450141Y-102809047D01*
X119392525Y-102769522D01*
X119372455Y-102734507D01*
X119343797Y-102657671D01*
X119343793Y-102657664D01*
X119257547Y-102542455D01*
X119257544Y-102542452D01*
X119142335Y-102456206D01*
X119142328Y-102456202D01*
X119007482Y-102405908D01*
X119007483Y-102405908D01*
X118947883Y-102399501D01*
X118947881Y-102399500D01*
X118947873Y-102399500D01*
X118947864Y-102399500D01*
X117052129Y-102399500D01*
X117052123Y-102399501D01*
X116992516Y-102405908D01*
X116857671Y-102456202D01*
X116857664Y-102456206D01*
X116742455Y-102542452D01*
X116742452Y-102542455D01*
X116656206Y-102657664D01*
X116656202Y-102657671D01*
X116605908Y-102792517D01*
X116599501Y-102852116D01*
X116599500Y-102852135D01*
X111370996Y-102852135D01*
X111291784Y-102766087D01*
X111291779Y-102766083D01*
X111291777Y-102766081D01*
X111108634Y-102623535D01*
X111108628Y-102623531D01*
X110904504Y-102513064D01*
X110904495Y-102513061D01*
X110684984Y-102437702D01*
X110494450Y-102405908D01*
X110456049Y-102399500D01*
X110223951Y-102399500D01*
X110185550Y-102405908D01*
X109995015Y-102437702D01*
X109775504Y-102513061D01*
X109775495Y-102513064D01*
X109571371Y-102623531D01*
X109571365Y-102623535D01*
X109388222Y-102766081D01*
X109388218Y-102766085D01*
X109388216Y-102766086D01*
X109388216Y-102766087D01*
X109386230Y-102768245D01*
X109379866Y-102775158D01*
X109319979Y-102811148D01*
X109250141Y-102809047D01*
X109192525Y-102769522D01*
X109172455Y-102734507D01*
X109143797Y-102657671D01*
X109143793Y-102657664D01*
X109057547Y-102542455D01*
X109057544Y-102542452D01*
X108942335Y-102456206D01*
X108942328Y-102456202D01*
X108807482Y-102405908D01*
X108807483Y-102405908D01*
X108747883Y-102399501D01*
X108747881Y-102399500D01*
X108747873Y-102399500D01*
X108747865Y-102399500D01*
X108624500Y-102399500D01*
X108557461Y-102379815D01*
X108511706Y-102327011D01*
X108500500Y-102275500D01*
X108500500Y-99973619D01*
X108520185Y-99906580D01*
X108572989Y-99860825D01*
X108642147Y-99850881D01*
X108656594Y-99853844D01*
X108749999Y-99878871D01*
X108750000Y-99878871D01*
X108750000Y-98915686D01*
X108754394Y-98920080D01*
X108845606Y-98972741D01*
X108947339Y-99000000D01*
X109052661Y-99000000D01*
X109154394Y-98972741D01*
X109245606Y-98920080D01*
X109250000Y-98915686D01*
X109250000Y-99878872D01*
X109446317Y-99826269D01*
X109446326Y-99826265D01*
X109652482Y-99730134D01*
X109838820Y-99599657D01*
X109999657Y-99438820D01*
X110130134Y-99252482D01*
X110226265Y-99046326D01*
X110226269Y-99046317D01*
X110278872Y-98850000D01*
X109315686Y-98850000D01*
X109320080Y-98845606D01*
X109372741Y-98754394D01*
X109400000Y-98652661D01*
X109400000Y-98599998D01*
X111494532Y-98599998D01*
X111494532Y-98600001D01*
X111514364Y-98826686D01*
X111514366Y-98826697D01*
X111573258Y-99046488D01*
X111573261Y-99046497D01*
X111669431Y-99252732D01*
X111669432Y-99252734D01*
X111799954Y-99439141D01*
X111960858Y-99600045D01*
X111960861Y-99600047D01*
X112147266Y-99730568D01*
X112353504Y-99826739D01*
X112573308Y-99885635D01*
X112735230Y-99899801D01*
X112799998Y-99905468D01*
X112800000Y-99905468D01*
X112800002Y-99905468D01*
X112856673Y-99900509D01*
X113026692Y-99885635D01*
X113246496Y-99826739D01*
X113452734Y-99730568D01*
X113639139Y-99600047D01*
X113800047Y-99439139D01*
X113930568Y-99252734D01*
X114026739Y-99046496D01*
X114085635Y-98826692D01*
X114105468Y-98600000D01*
X114085635Y-98373308D01*
X114026739Y-98153504D01*
X113930568Y-97947266D01*
X113800047Y-97760861D01*
X113800045Y-97760858D01*
X113639141Y-97599954D01*
X113452734Y-97469432D01*
X113452732Y-97469431D01*
X113246497Y-97373261D01*
X113246488Y-97373258D01*
X113026697Y-97314366D01*
X113026693Y-97314365D01*
X113026692Y-97314365D01*
X113026691Y-97314364D01*
X113026686Y-97314364D01*
X112800002Y-97294532D01*
X112799998Y-97294532D01*
X112573313Y-97314364D01*
X112573302Y-97314366D01*
X112353511Y-97373258D01*
X112353502Y-97373261D01*
X112147267Y-97469431D01*
X112147265Y-97469432D01*
X111960858Y-97599954D01*
X111799954Y-97760858D01*
X111669432Y-97947265D01*
X111669431Y-97947267D01*
X111573261Y-98153502D01*
X111573258Y-98153511D01*
X111514366Y-98373302D01*
X111514364Y-98373313D01*
X111494532Y-98599998D01*
X109400000Y-98599998D01*
X109400000Y-98547339D01*
X109372741Y-98445606D01*
X109320080Y-98354394D01*
X109315686Y-98350000D01*
X110278872Y-98350000D01*
X110278872Y-98349999D01*
X110226269Y-98153682D01*
X110226265Y-98153673D01*
X110130134Y-97947517D01*
X109999657Y-97761179D01*
X109838820Y-97600342D01*
X109652482Y-97469865D01*
X109446328Y-97373734D01*
X109250000Y-97321127D01*
X109250000Y-98284314D01*
X109245606Y-98279920D01*
X109154394Y-98227259D01*
X109052661Y-98200000D01*
X108947339Y-98200000D01*
X108845606Y-98227259D01*
X108754394Y-98279920D01*
X108750000Y-98284314D01*
X108750000Y-97321127D01*
X108749999Y-97321126D01*
X108656594Y-97346155D01*
X108586744Y-97344492D01*
X108528881Y-97305330D01*
X108501377Y-97241101D01*
X108500500Y-97226380D01*
X108500500Y-87441518D01*
X108520185Y-87374479D01*
X108536810Y-87353846D01*
X108669631Y-87221024D01*
X108730950Y-87187542D01*
X108768117Y-87185180D01*
X108773303Y-87185633D01*
X108773308Y-87185635D01*
X108978263Y-87203566D01*
X108999999Y-87205468D01*
X109000000Y-87205468D01*
X109000002Y-87205468D01*
X109062499Y-87200000D01*
X109226692Y-87185635D01*
X109446496Y-87126739D01*
X109652734Y-87030568D01*
X109839139Y-86900047D01*
X110000047Y-86739139D01*
X110130568Y-86552734D01*
X110226739Y-86346496D01*
X110285635Y-86126692D01*
X110305468Y-85900000D01*
X110305424Y-85899501D01*
X110295234Y-85783023D01*
X110285635Y-85673308D01*
X110226739Y-85453504D01*
X110130568Y-85247266D01*
X110027729Y-85100396D01*
X110000045Y-85060858D01*
X109839141Y-84899954D01*
X109652734Y-84769432D01*
X109652732Y-84769431D01*
X109446497Y-84673261D01*
X109446488Y-84673258D01*
X109226697Y-84614366D01*
X109226693Y-84614365D01*
X109226692Y-84614365D01*
X109226691Y-84614364D01*
X109226686Y-84614364D01*
X109000002Y-84594532D01*
X108999998Y-84594532D01*
X108773313Y-84614364D01*
X108773302Y-84614366D01*
X108553511Y-84673258D01*
X108553502Y-84673261D01*
X108347267Y-84769431D01*
X108347265Y-84769432D01*
X108160858Y-84899954D01*
X107999953Y-85060859D01*
X107956075Y-85123525D01*
X107901498Y-85167150D01*
X107832000Y-85174344D01*
X107769645Y-85142821D01*
X107734231Y-85082591D01*
X107730500Y-85052402D01*
X107730500Y-67396682D01*
X107750185Y-67329643D01*
X107783371Y-67295111D01*
X107919139Y-67200047D01*
X108080047Y-67039139D01*
X108210568Y-66852734D01*
X108237618Y-66794724D01*
X108283790Y-66742285D01*
X108350983Y-66723133D01*
X108417865Y-66743348D01*
X108462382Y-66794725D01*
X108489429Y-66852728D01*
X108489432Y-66852734D01*
X108619951Y-67039137D01*
X108619952Y-67039138D01*
X108619953Y-67039139D01*
X108683182Y-67102368D01*
X108716666Y-67163689D01*
X108719500Y-67190048D01*
X108719500Y-72008696D01*
X108754103Y-72182659D01*
X108754105Y-72182665D01*
X108780864Y-72247266D01*
X108780863Y-72247266D01*
X108780864Y-72247267D01*
X108821984Y-72346542D01*
X108821985Y-72346544D01*
X108881063Y-72434960D01*
X108920537Y-72494038D01*
X108920540Y-72494041D01*
X109900536Y-73474035D01*
X109966501Y-73540000D01*
X110025966Y-73599465D01*
X110173446Y-73698009D01*
X110173450Y-73698011D01*
X110173453Y-73698013D01*
X110326738Y-73761505D01*
X110337334Y-73765894D01*
X110337338Y-73765894D01*
X110337339Y-73765895D01*
X110511305Y-73800500D01*
X110511308Y-73800500D01*
X110511309Y-73800500D01*
X112009952Y-73800500D01*
X112076991Y-73820185D01*
X112097628Y-73836814D01*
X112160859Y-73900045D01*
X112160862Y-73900048D01*
X112201635Y-73928597D01*
X112347266Y-74030568D01*
X112553504Y-74126739D01*
X112773308Y-74185635D01*
X112935230Y-74199801D01*
X112999998Y-74205468D01*
X113000000Y-74205468D01*
X113000002Y-74205468D01*
X113056673Y-74200509D01*
X113226692Y-74185635D01*
X113446496Y-74126739D01*
X113652734Y-74030568D01*
X113839139Y-73900047D01*
X114000047Y-73739139D01*
X114130568Y-73552734D01*
X114226739Y-73346496D01*
X114285635Y-73126692D01*
X114305468Y-72900000D01*
X114285635Y-72673308D01*
X114226739Y-72453504D01*
X114130568Y-72247266D01*
X114000047Y-72060861D01*
X114000045Y-72060858D01*
X113839141Y-71899954D01*
X113652734Y-71769432D01*
X113652732Y-71769431D01*
X113446497Y-71673261D01*
X113446488Y-71673258D01*
X113226697Y-71614366D01*
X113226693Y-71614365D01*
X113226692Y-71614365D01*
X113226691Y-71614364D01*
X113226686Y-71614364D01*
X113000002Y-71594532D01*
X112999998Y-71594532D01*
X112773313Y-71614364D01*
X112773302Y-71614366D01*
X112553511Y-71673258D01*
X112553502Y-71673261D01*
X112347267Y-71769431D01*
X112347265Y-71769432D01*
X112160862Y-71899951D01*
X112129248Y-71931566D01*
X112097631Y-71963182D01*
X112036311Y-71996666D01*
X112009952Y-71999500D01*
X111024361Y-71999500D01*
X110957322Y-71979815D01*
X110936680Y-71963181D01*
X110556819Y-71583319D01*
X110523334Y-71521996D01*
X110520500Y-71495638D01*
X110520500Y-67899997D01*
X111695034Y-67899997D01*
X111695034Y-67900002D01*
X111714858Y-68126599D01*
X111714860Y-68126610D01*
X111773730Y-68346317D01*
X111773735Y-68346331D01*
X111869863Y-68552478D01*
X111920974Y-68625472D01*
X112600000Y-67946446D01*
X112600000Y-67952661D01*
X112627259Y-68054394D01*
X112679920Y-68145606D01*
X112754394Y-68220080D01*
X112845606Y-68272741D01*
X112947339Y-68300000D01*
X112953553Y-68300000D01*
X112274526Y-68979025D01*
X112347513Y-69030132D01*
X112347521Y-69030136D01*
X112553668Y-69126264D01*
X112553682Y-69126269D01*
X112773389Y-69185139D01*
X112773400Y-69185141D01*
X112999998Y-69204966D01*
X113000002Y-69204966D01*
X113226599Y-69185141D01*
X113226610Y-69185139D01*
X113446317Y-69126269D01*
X113446331Y-69126264D01*
X113652478Y-69030136D01*
X113725471Y-68979024D01*
X113046447Y-68300000D01*
X113052661Y-68300000D01*
X113154394Y-68272741D01*
X113245606Y-68220080D01*
X113320080Y-68145606D01*
X113372741Y-68054394D01*
X113400000Y-67952661D01*
X113400000Y-67946447D01*
X114079024Y-68625471D01*
X114130136Y-68552478D01*
X114226264Y-68346331D01*
X114226269Y-68346317D01*
X114285139Y-68126610D01*
X114285141Y-68126599D01*
X114304966Y-67900002D01*
X114304966Y-67899997D01*
X114285141Y-67673400D01*
X114285139Y-67673389D01*
X114226269Y-67453682D01*
X114226264Y-67453668D01*
X114130136Y-67247521D01*
X114130132Y-67247513D01*
X114079025Y-67174526D01*
X113400000Y-67853551D01*
X113400000Y-67847339D01*
X113372741Y-67745606D01*
X113320080Y-67654394D01*
X113245606Y-67579920D01*
X113154394Y-67527259D01*
X113052661Y-67500000D01*
X113046448Y-67500000D01*
X113725472Y-66820974D01*
X113652478Y-66769863D01*
X113446331Y-66673735D01*
X113446317Y-66673730D01*
X113226610Y-66614860D01*
X113226599Y-66614858D01*
X113000002Y-66595034D01*
X112999998Y-66595034D01*
X112773400Y-66614858D01*
X112773389Y-66614860D01*
X112553682Y-66673730D01*
X112553673Y-66673734D01*
X112347516Y-66769866D01*
X112347512Y-66769868D01*
X112274526Y-66820973D01*
X112274526Y-66820974D01*
X112953553Y-67500000D01*
X112947339Y-67500000D01*
X112845606Y-67527259D01*
X112754394Y-67579920D01*
X112679920Y-67654394D01*
X112627259Y-67745606D01*
X112600000Y-67847339D01*
X112600000Y-67853552D01*
X111920974Y-67174526D01*
X111920973Y-67174526D01*
X111869868Y-67247512D01*
X111869866Y-67247516D01*
X111773734Y-67453673D01*
X111773730Y-67453682D01*
X111714860Y-67673389D01*
X111714858Y-67673400D01*
X111695034Y-67899997D01*
X110520500Y-67899997D01*
X110520500Y-67190048D01*
X110540185Y-67123009D01*
X110556814Y-67102371D01*
X110620047Y-67039139D01*
X110750568Y-66852734D01*
X110846739Y-66646496D01*
X110905635Y-66426692D01*
X110925468Y-66200000D01*
X110924119Y-66184586D01*
X110917309Y-66106738D01*
X110905635Y-65973308D01*
X110846739Y-65753504D01*
X110750568Y-65547266D01*
X110620047Y-65360861D01*
X110620045Y-65360858D01*
X110556819Y-65297632D01*
X110523334Y-65236309D01*
X110520500Y-65209951D01*
X110520500Y-64731308D01*
X110520499Y-64731307D01*
X110509108Y-64674036D01*
X110485895Y-64557334D01*
X110420339Y-64399071D01*
X110418695Y-64394474D01*
X110319465Y-64245966D01*
X110300764Y-64227265D01*
X110194035Y-64120536D01*
X110114357Y-64040858D01*
X109474041Y-63400540D01*
X109474040Y-63400539D01*
X109474036Y-63400536D01*
X109414959Y-63361063D01*
X109414958Y-63361061D01*
X109326544Y-63301985D01*
X109326542Y-63301984D01*
X109244607Y-63268046D01*
X109244606Y-63268046D01*
X109162666Y-63234105D01*
X109162658Y-63234103D01*
X108988696Y-63199500D01*
X108988692Y-63199500D01*
X108988691Y-63199500D01*
X83788691Y-63199500D01*
X76788692Y-63199500D01*
X76788691Y-63199500D01*
X56808692Y-63199500D01*
X56631309Y-63199500D01*
X56631304Y-63199500D01*
X56457341Y-63234103D01*
X56457333Y-63234105D01*
X56360764Y-63274106D01*
X56360763Y-63274106D01*
X56293457Y-63301984D01*
X56293455Y-63301985D01*
X56145968Y-63400533D01*
X56145963Y-63400537D01*
X56006944Y-63539554D01*
X55945621Y-63573038D01*
X55930072Y-63575400D01*
X55713312Y-63594364D01*
X55713302Y-63594366D01*
X55493511Y-63653258D01*
X55493502Y-63653261D01*
X55287267Y-63749431D01*
X55287265Y-63749432D01*
X55100858Y-63879954D01*
X54939954Y-64040858D01*
X54809432Y-64227265D01*
X54809431Y-64227267D01*
X54713261Y-64433502D01*
X54713258Y-64433511D01*
X54654366Y-64653302D01*
X54654364Y-64653313D01*
X54634532Y-64879998D01*
X54634532Y-64880001D01*
X54654364Y-65106686D01*
X54654366Y-65106697D01*
X54713258Y-65326488D01*
X54713261Y-65326497D01*
X54809431Y-65532732D01*
X54809432Y-65532734D01*
X54939954Y-65719141D01*
X55100858Y-65880045D01*
X55100861Y-65880047D01*
X55287266Y-66010568D01*
X55493504Y-66106739D01*
X55713308Y-66165635D01*
X55875230Y-66179801D01*
X55939998Y-66185468D01*
X55940000Y-66185468D01*
X55940002Y-66185468D01*
X55996673Y-66180509D01*
X56166692Y-66165635D01*
X56386496Y-66106739D01*
X56592734Y-66010568D01*
X56779139Y-65880047D01*
X56940047Y-65719139D01*
X57070568Y-65532734D01*
X57166739Y-65326496D01*
X57225635Y-65106692D01*
X57225635Y-65106682D01*
X57226292Y-65102965D01*
X57257320Y-65040363D01*
X57317268Y-65004474D01*
X57348408Y-65000500D01*
X58020951Y-65000500D01*
X58087990Y-65020185D01*
X58133745Y-65072989D01*
X58143689Y-65142147D01*
X58114664Y-65205703D01*
X58108632Y-65212181D01*
X57959954Y-65360858D01*
X57829432Y-65547265D01*
X57829431Y-65547267D01*
X57733261Y-65753502D01*
X57733258Y-65753511D01*
X57674366Y-65973302D01*
X57674364Y-65973313D01*
X57654532Y-66199998D01*
X57654532Y-66200001D01*
X57674364Y-66426686D01*
X57674366Y-66426697D01*
X57733258Y-66646488D01*
X57733261Y-66646497D01*
X57829431Y-66852732D01*
X57829432Y-66852734D01*
X57959954Y-67039141D01*
X58120858Y-67200045D01*
X58120861Y-67200047D01*
X58307266Y-67330568D01*
X58513504Y-67426739D01*
X58733308Y-67485635D01*
X58895230Y-67499801D01*
X58959998Y-67505468D01*
X58960000Y-67505468D01*
X58960002Y-67505468D01*
X59022499Y-67500000D01*
X59186692Y-67485635D01*
X59406496Y-67426739D01*
X59612734Y-67330568D01*
X59799139Y-67200047D01*
X59960047Y-67039139D01*
X60090568Y-66852734D01*
X60117618Y-66794724D01*
X60163790Y-66742285D01*
X60230983Y-66723133D01*
X60297865Y-66743348D01*
X60342382Y-66794725D01*
X60369429Y-66852728D01*
X60369432Y-66852734D01*
X60499954Y-67039141D01*
X60660858Y-67200045D01*
X60660861Y-67200047D01*
X60847266Y-67330568D01*
X61053504Y-67426739D01*
X61273308Y-67485635D01*
X61435230Y-67499801D01*
X61499998Y-67505468D01*
X61500000Y-67505468D01*
X61500002Y-67505468D01*
X61562499Y-67500000D01*
X61726692Y-67485635D01*
X61946496Y-67426739D01*
X62152734Y-67330568D01*
X62339139Y-67200047D01*
X62500047Y-67039139D01*
X62630568Y-66852734D01*
X62657618Y-66794724D01*
X62703790Y-66742285D01*
X62770983Y-66723133D01*
X62837865Y-66743348D01*
X62882382Y-66794725D01*
X62909429Y-66852728D01*
X62909432Y-66852734D01*
X63039954Y-67039141D01*
X63200858Y-67200045D01*
X63200861Y-67200047D01*
X63387266Y-67330568D01*
X63593504Y-67426739D01*
X63813308Y-67485635D01*
X63975230Y-67499801D01*
X64039998Y-67505468D01*
X64040000Y-67505468D01*
X64040002Y-67505468D01*
X64102499Y-67500000D01*
X64266692Y-67485635D01*
X64486496Y-67426739D01*
X64692734Y-67330568D01*
X64879139Y-67200047D01*
X65040047Y-67039139D01*
X65170568Y-66852734D01*
X65197618Y-66794724D01*
X65243790Y-66742285D01*
X65310983Y-66723133D01*
X65377865Y-66743348D01*
X65422382Y-66794725D01*
X65449429Y-66852728D01*
X65449432Y-66852734D01*
X65579954Y-67039141D01*
X65740857Y-67200044D01*
X65740860Y-67200046D01*
X65740861Y-67200047D01*
X65826623Y-67260097D01*
X65870248Y-67314673D01*
X65879500Y-67361672D01*
X65879500Y-70995276D01*
X65859815Y-71062315D01*
X65826623Y-71096851D01*
X65648597Y-71221505D01*
X65481505Y-71388597D01*
X65345965Y-71582169D01*
X65345964Y-71582171D01*
X65246098Y-71796335D01*
X65246094Y-71796344D01*
X65184938Y-72024586D01*
X65184936Y-72024596D01*
X65164341Y-72259999D01*
X65164341Y-72260000D01*
X65184936Y-72495403D01*
X65184938Y-72495413D01*
X65246094Y-72723655D01*
X65246096Y-72723659D01*
X65246097Y-72723663D01*
X65315212Y-72871880D01*
X65345965Y-72937830D01*
X65345967Y-72937834D01*
X65390551Y-73001506D01*
X65481501Y-73131396D01*
X65481506Y-73131402D01*
X65648597Y-73298493D01*
X65648603Y-73298498D01*
X65834158Y-73428425D01*
X65877783Y-73483002D01*
X65884977Y-73552500D01*
X65853454Y-73614855D01*
X65834158Y-73631575D01*
X65648597Y-73761505D01*
X65481505Y-73928597D01*
X65345965Y-74122169D01*
X65345964Y-74122171D01*
X65246098Y-74336335D01*
X65246094Y-74336344D01*
X65184938Y-74564586D01*
X65184936Y-74564596D01*
X65164341Y-74799999D01*
X65164341Y-74800000D01*
X65184936Y-75035403D01*
X65184938Y-75035413D01*
X65246094Y-75263655D01*
X65246096Y-75263659D01*
X65246097Y-75263663D01*
X65309671Y-75399998D01*
X65345965Y-75477830D01*
X65345967Y-75477834D01*
X65450195Y-75626686D01*
X65481505Y-75671401D01*
X65648599Y-75838495D01*
X65728717Y-75894594D01*
X65842165Y-75974032D01*
X65842167Y-75974033D01*
X65842170Y-75974035D01*
X66056337Y-76073903D01*
X66056343Y-76073904D01*
X66056344Y-76073905D01*
X66111285Y-76088626D01*
X66284592Y-76135063D01*
X66472918Y-76151539D01*
X66519999Y-76155659D01*
X66520000Y-76155659D01*
X66520001Y-76155659D01*
X66559234Y-76152226D01*
X66755408Y-76135063D01*
X66983663Y-76073903D01*
X67197830Y-75974035D01*
X67391401Y-75838495D01*
X67558495Y-75671401D01*
X67641136Y-75553376D01*
X67695713Y-75509752D01*
X67742711Y-75500500D01*
X67837289Y-75500500D01*
X67904328Y-75520185D01*
X67938864Y-75553377D01*
X68021505Y-75671402D01*
X68183468Y-75833364D01*
X68188599Y-75838495D01*
X68268717Y-75894594D01*
X68382165Y-75974032D01*
X68382167Y-75974033D01*
X68382170Y-75974035D01*
X68596337Y-76073903D01*
X68596343Y-76073904D01*
X68596344Y-76073905D01*
X68651285Y-76088626D01*
X68824592Y-76135063D01*
X69012918Y-76151539D01*
X69059999Y-76155659D01*
X69060000Y-76155659D01*
X69060001Y-76155659D01*
X69099234Y-76152226D01*
X69295408Y-76135063D01*
X69523663Y-76073903D01*
X69737830Y-75974035D01*
X69931401Y-75838495D01*
X70098495Y-75671401D01*
X70181136Y-75553376D01*
X70235713Y-75509752D01*
X70282711Y-75500500D01*
X70377289Y-75500500D01*
X70444328Y-75520185D01*
X70478864Y-75553377D01*
X70561505Y-75671402D01*
X70723468Y-75833364D01*
X70728599Y-75838495D01*
X70808717Y-75894594D01*
X70922165Y-75974032D01*
X70922167Y-75974033D01*
X70922170Y-75974035D01*
X71136337Y-76073903D01*
X71136343Y-76073904D01*
X71136344Y-76073905D01*
X71191285Y-76088626D01*
X71364592Y-76135063D01*
X71552918Y-76151539D01*
X71599999Y-76155659D01*
X71600000Y-76155659D01*
X71600001Y-76155659D01*
X71639234Y-76152226D01*
X71835408Y-76135063D01*
X72063663Y-76073903D01*
X72277830Y-75974035D01*
X72471401Y-75838495D01*
X72638495Y-75671401D01*
X72721136Y-75553376D01*
X72775713Y-75509752D01*
X72822711Y-75500500D01*
X72917289Y-75500500D01*
X72984328Y-75520185D01*
X73018864Y-75553377D01*
X73101506Y-75671403D01*
X73268596Y-75838493D01*
X73268599Y-75838495D01*
X73376274Y-75913890D01*
X73386623Y-75921136D01*
X73430248Y-75975713D01*
X73439500Y-76022711D01*
X73439500Y-85783023D01*
X73419815Y-85850062D01*
X73367011Y-85895817D01*
X73339865Y-85903266D01*
X73340068Y-85904124D01*
X73332520Y-85905907D01*
X73197671Y-85956202D01*
X73197664Y-85956206D01*
X73082455Y-86042452D01*
X73082452Y-86042455D01*
X72996206Y-86157664D01*
X72996202Y-86157671D01*
X72945908Y-86292516D01*
X72942137Y-86327596D01*
X72915398Y-86392146D01*
X72858006Y-86431994D01*
X72788180Y-86434487D01*
X72728092Y-86398834D01*
X72717273Y-86385462D01*
X72700045Y-86360858D01*
X72539141Y-86199954D01*
X72352734Y-86069432D01*
X72352732Y-86069431D01*
X72146497Y-85973261D01*
X72146488Y-85973258D01*
X71926697Y-85914366D01*
X71926693Y-85914365D01*
X71926692Y-85914365D01*
X71926691Y-85914364D01*
X71926686Y-85914364D01*
X71700002Y-85894532D01*
X71699998Y-85894532D01*
X71473313Y-85914364D01*
X71473302Y-85914366D01*
X71253511Y-85973258D01*
X71253502Y-85973261D01*
X71047267Y-86069431D01*
X71047265Y-86069432D01*
X70860858Y-86199954D01*
X70699954Y-86360858D01*
X70569432Y-86547265D01*
X70569431Y-86547267D01*
X70542382Y-86605275D01*
X70496209Y-86657714D01*
X70429016Y-86676866D01*
X70362135Y-86656650D01*
X70317618Y-86605275D01*
X70290568Y-86547266D01*
X70160047Y-86360861D01*
X70160045Y-86360858D01*
X69999141Y-86199954D01*
X69812734Y-86069432D01*
X69812732Y-86069431D01*
X69606497Y-85973261D01*
X69606488Y-85973258D01*
X69386697Y-85914366D01*
X69386693Y-85914365D01*
X69386692Y-85914365D01*
X69386691Y-85914364D01*
X69386686Y-85914364D01*
X69160002Y-85894532D01*
X69159998Y-85894532D01*
X68933313Y-85914364D01*
X68933302Y-85914366D01*
X68713511Y-85973258D01*
X68713502Y-85973261D01*
X68507267Y-86069431D01*
X68507265Y-86069432D01*
X68320858Y-86199954D01*
X68159954Y-86360858D01*
X68029432Y-86547265D01*
X68029431Y-86547267D01*
X68002382Y-86605275D01*
X67956209Y-86657714D01*
X67889016Y-86676866D01*
X67822135Y-86656650D01*
X67777618Y-86605275D01*
X67750568Y-86547266D01*
X67620047Y-86360861D01*
X67620045Y-86360858D01*
X67459141Y-86199954D01*
X67272734Y-86069432D01*
X67272732Y-86069431D01*
X67066497Y-85973261D01*
X67066488Y-85973258D01*
X66846697Y-85914366D01*
X66846693Y-85914365D01*
X66846692Y-85914365D01*
X66846691Y-85914364D01*
X66846686Y-85914364D01*
X66620002Y-85894532D01*
X66619998Y-85894532D01*
X66393313Y-85914364D01*
X66393302Y-85914366D01*
X66173511Y-85973258D01*
X66173502Y-85973261D01*
X65967267Y-86069431D01*
X65967265Y-86069432D01*
X65780858Y-86199954D01*
X65619954Y-86360858D01*
X65489433Y-86547264D01*
X65489432Y-86547266D01*
X65489315Y-86547518D01*
X65462106Y-86605867D01*
X65415933Y-86658306D01*
X65348739Y-86677457D01*
X65281858Y-86657241D01*
X65237342Y-86605865D01*
X65210135Y-86547520D01*
X65210134Y-86547518D01*
X65079657Y-86361179D01*
X64918820Y-86200342D01*
X64732482Y-86069865D01*
X64526328Y-85973734D01*
X64330000Y-85921127D01*
X64330000Y-86884314D01*
X64325606Y-86879920D01*
X64234394Y-86827259D01*
X64132661Y-86800000D01*
X64027339Y-86800000D01*
X63925606Y-86827259D01*
X63834394Y-86879920D01*
X63830000Y-86884314D01*
X63830000Y-85921127D01*
X63633671Y-85973734D01*
X63427517Y-86069865D01*
X63241179Y-86200342D01*
X63080342Y-86361179D01*
X62949867Y-86547515D01*
X62922657Y-86605867D01*
X62876484Y-86658306D01*
X62809290Y-86677457D01*
X62742409Y-86657241D01*
X62697893Y-86605865D01*
X62673117Y-86552734D01*
X62670568Y-86547266D01*
X62540047Y-86360861D01*
X62540045Y-86360858D01*
X62379141Y-86199954D01*
X62192734Y-86069432D01*
X62192732Y-86069431D01*
X61986497Y-85973261D01*
X61986488Y-85973258D01*
X61766697Y-85914366D01*
X61766693Y-85914365D01*
X61766692Y-85914365D01*
X61766691Y-85914364D01*
X61766686Y-85914364D01*
X61540002Y-85894532D01*
X61539998Y-85894532D01*
X61313313Y-85914364D01*
X61313302Y-85914366D01*
X61093511Y-85973258D01*
X61093502Y-85973261D01*
X60887267Y-86069431D01*
X60887265Y-86069432D01*
X60700858Y-86199954D01*
X60539954Y-86360858D01*
X60409433Y-86547264D01*
X60409432Y-86547266D01*
X60409315Y-86547518D01*
X60382106Y-86605867D01*
X60335933Y-86658306D01*
X60268739Y-86677457D01*
X60201858Y-86657241D01*
X60157342Y-86605865D01*
X60130135Y-86547520D01*
X60130134Y-86547518D01*
X59999657Y-86361179D01*
X59838820Y-86200342D01*
X59652482Y-86069865D01*
X59446328Y-85973734D01*
X59250000Y-85921127D01*
X59250000Y-86884314D01*
X59245606Y-86879920D01*
X59154394Y-86827259D01*
X59052661Y-86800000D01*
X58947339Y-86800000D01*
X58845606Y-86827259D01*
X58754394Y-86879920D01*
X58750000Y-86884314D01*
X58750000Y-85921127D01*
X58553671Y-85973734D01*
X58347517Y-86069865D01*
X58161179Y-86200342D01*
X58000342Y-86361179D01*
X57869865Y-86547517D01*
X57773734Y-86753673D01*
X57773730Y-86753682D01*
X57721127Y-86949999D01*
X57721128Y-86950000D01*
X58684314Y-86950000D01*
X58679920Y-86954394D01*
X58627259Y-87045606D01*
X58600000Y-87147339D01*
X58600000Y-87252661D01*
X58627259Y-87354394D01*
X58679920Y-87445606D01*
X58684314Y-87450000D01*
X57721128Y-87450000D01*
X57773730Y-87646317D01*
X57773734Y-87646326D01*
X57869865Y-87852482D01*
X58000342Y-88038820D01*
X58161179Y-88199657D01*
X58347517Y-88330134D01*
X58553673Y-88426265D01*
X58553682Y-88426269D01*
X58749999Y-88478872D01*
X58750000Y-88478871D01*
X58750000Y-87515686D01*
X58754394Y-87520080D01*
X58845606Y-87572741D01*
X58947339Y-87600000D01*
X59052661Y-87600000D01*
X59154394Y-87572741D01*
X59245606Y-87520080D01*
X59250000Y-87515686D01*
X59250000Y-88478872D01*
X59446317Y-88426269D01*
X59446326Y-88426265D01*
X59652482Y-88330134D01*
X59838820Y-88199657D01*
X59999657Y-88038820D01*
X60130132Y-87852484D01*
X60157341Y-87794134D01*
X60203513Y-87741695D01*
X60270707Y-87722542D01*
X60337588Y-87742757D01*
X60382106Y-87794133D01*
X60409431Y-87852732D01*
X60409432Y-87852734D01*
X60539954Y-88039141D01*
X60700858Y-88200045D01*
X60700861Y-88200047D01*
X60887266Y-88330568D01*
X61093504Y-88426739D01*
X61313308Y-88485635D01*
X61475230Y-88499801D01*
X61539998Y-88505468D01*
X61540000Y-88505468D01*
X61540002Y-88505468D01*
X61596807Y-88500498D01*
X61766692Y-88485635D01*
X61986496Y-88426739D01*
X62192734Y-88330568D01*
X62379139Y-88200047D01*
X62540047Y-88039139D01*
X62670568Y-87852734D01*
X62697895Y-87794129D01*
X62744064Y-87741695D01*
X62811257Y-87722542D01*
X62878139Y-87742757D01*
X62922657Y-87794133D01*
X62949865Y-87852482D01*
X63080342Y-88038820D01*
X63241179Y-88199657D01*
X63427517Y-88330134D01*
X63633673Y-88426265D01*
X63633682Y-88426269D01*
X63829999Y-88478872D01*
X63830000Y-88478871D01*
X63830000Y-87515686D01*
X63834394Y-87520080D01*
X63925606Y-87572741D01*
X64027339Y-87600000D01*
X64132661Y-87600000D01*
X64234394Y-87572741D01*
X64325606Y-87520080D01*
X64330000Y-87515686D01*
X64330000Y-88478872D01*
X64526317Y-88426269D01*
X64526326Y-88426265D01*
X64732482Y-88330134D01*
X64918820Y-88199657D01*
X65079657Y-88038820D01*
X65210132Y-87852484D01*
X65237341Y-87794134D01*
X65283513Y-87741695D01*
X65350707Y-87722542D01*
X65417588Y-87742757D01*
X65462106Y-87794133D01*
X65489431Y-87852732D01*
X65489432Y-87852734D01*
X65619954Y-88039141D01*
X65780858Y-88200045D01*
X65780861Y-88200047D01*
X65967266Y-88330568D01*
X66173504Y-88426739D01*
X66393308Y-88485635D01*
X66555230Y-88499801D01*
X66619998Y-88505468D01*
X66620000Y-88505468D01*
X66620002Y-88505468D01*
X66676807Y-88500498D01*
X66846692Y-88485635D01*
X67066496Y-88426739D01*
X67272734Y-88330568D01*
X67459139Y-88200047D01*
X67620047Y-88039139D01*
X67750568Y-87852734D01*
X67777618Y-87794724D01*
X67823790Y-87742285D01*
X67890983Y-87723133D01*
X67957865Y-87743348D01*
X68002382Y-87794725D01*
X68029429Y-87852728D01*
X68029432Y-87852734D01*
X68159954Y-88039141D01*
X68320858Y-88200045D01*
X68320861Y-88200047D01*
X68507266Y-88330568D01*
X68713504Y-88426739D01*
X68933308Y-88485635D01*
X69095230Y-88499801D01*
X69159998Y-88505468D01*
X69160000Y-88505468D01*
X69160002Y-88505468D01*
X69216807Y-88500498D01*
X69386692Y-88485635D01*
X69606496Y-88426739D01*
X69812734Y-88330568D01*
X69999139Y-88200047D01*
X70160047Y-88039139D01*
X70290568Y-87852734D01*
X70317618Y-87794724D01*
X70363790Y-87742285D01*
X70430983Y-87723133D01*
X70497865Y-87743348D01*
X70542382Y-87794725D01*
X70569429Y-87852728D01*
X70569432Y-87852734D01*
X70699954Y-88039141D01*
X70860858Y-88200045D01*
X70860861Y-88200047D01*
X71047266Y-88330568D01*
X71253504Y-88426739D01*
X71473308Y-88485635D01*
X71635230Y-88499801D01*
X71699998Y-88505468D01*
X71700000Y-88505468D01*
X71700002Y-88505468D01*
X71756807Y-88500498D01*
X71926692Y-88485635D01*
X72146496Y-88426739D01*
X72352734Y-88330568D01*
X72539139Y-88200047D01*
X72700047Y-88039139D01*
X72717272Y-88014539D01*
X72771848Y-87970913D01*
X72841346Y-87963718D01*
X72903701Y-87995239D01*
X72939116Y-88055468D01*
X72942138Y-88072406D01*
X72945908Y-88107483D01*
X72996202Y-88242328D01*
X72996206Y-88242335D01*
X73082452Y-88357544D01*
X73082455Y-88357547D01*
X73197664Y-88443793D01*
X73197671Y-88443797D01*
X73332517Y-88494091D01*
X73332516Y-88494091D01*
X73339444Y-88494835D01*
X73392127Y-88500500D01*
X75087872Y-88500499D01*
X75092542Y-88499997D01*
X82395034Y-88499997D01*
X82395034Y-88500002D01*
X82414858Y-88726599D01*
X82414860Y-88726610D01*
X82473730Y-88946317D01*
X82473735Y-88946331D01*
X82569863Y-89152478D01*
X82620974Y-89225472D01*
X83300000Y-88546446D01*
X83300000Y-88552661D01*
X83327259Y-88654394D01*
X83379920Y-88745606D01*
X83454394Y-88820080D01*
X83545606Y-88872741D01*
X83647339Y-88900000D01*
X83653553Y-88900000D01*
X82974526Y-89579025D01*
X83047513Y-89630132D01*
X83047521Y-89630136D01*
X83253668Y-89726264D01*
X83253682Y-89726269D01*
X83473389Y-89785139D01*
X83473400Y-89785141D01*
X83699998Y-89804966D01*
X83700002Y-89804966D01*
X83926599Y-89785141D01*
X83926610Y-89785139D01*
X84146317Y-89726269D01*
X84146331Y-89726264D01*
X84352478Y-89630136D01*
X84425471Y-89579024D01*
X83746447Y-88900000D01*
X83752661Y-88900000D01*
X83854394Y-88872741D01*
X83945606Y-88820080D01*
X84020080Y-88745606D01*
X84072741Y-88654394D01*
X84100000Y-88552661D01*
X84100000Y-88546447D01*
X84779024Y-89225471D01*
X84830136Y-89152478D01*
X84926264Y-88946331D01*
X84926269Y-88946317D01*
X84985139Y-88726610D01*
X84985141Y-88726599D01*
X85004966Y-88500002D01*
X85004966Y-88499997D01*
X84985141Y-88273400D01*
X84985139Y-88273389D01*
X84926269Y-88053682D01*
X84926264Y-88053668D01*
X84830136Y-87847521D01*
X84830132Y-87847513D01*
X84779025Y-87774526D01*
X84100000Y-88453551D01*
X84100000Y-88447339D01*
X84072741Y-88345606D01*
X84020080Y-88254394D01*
X83945606Y-88179920D01*
X83854394Y-88127259D01*
X83752661Y-88100000D01*
X83746448Y-88100000D01*
X84425472Y-87420974D01*
X84352478Y-87369863D01*
X84146331Y-87273735D01*
X84146317Y-87273730D01*
X83926610Y-87214860D01*
X83926599Y-87214858D01*
X83700002Y-87195034D01*
X83699998Y-87195034D01*
X83473400Y-87214858D01*
X83473389Y-87214860D01*
X83253682Y-87273730D01*
X83253673Y-87273734D01*
X83047516Y-87369866D01*
X83047512Y-87369868D01*
X82974526Y-87420973D01*
X82974526Y-87420974D01*
X83653553Y-88100000D01*
X83647339Y-88100000D01*
X83545606Y-88127259D01*
X83454394Y-88179920D01*
X83379920Y-88254394D01*
X83327259Y-88345606D01*
X83300000Y-88447339D01*
X83300000Y-88453552D01*
X82620974Y-87774526D01*
X82620973Y-87774526D01*
X82569868Y-87847512D01*
X82569866Y-87847516D01*
X82473734Y-88053673D01*
X82473730Y-88053682D01*
X82414860Y-88273389D01*
X82414858Y-88273400D01*
X82395034Y-88499997D01*
X75092542Y-88499997D01*
X75147483Y-88494091D01*
X75282331Y-88443796D01*
X75397546Y-88357546D01*
X75483796Y-88242331D01*
X75534091Y-88107483D01*
X75540500Y-88047873D01*
X75540499Y-86949999D01*
X85501127Y-86949999D01*
X85501128Y-86950000D01*
X86464314Y-86950000D01*
X86459920Y-86954394D01*
X86407259Y-87045606D01*
X86380000Y-87147339D01*
X86380000Y-87252661D01*
X86407259Y-87354394D01*
X86459920Y-87445606D01*
X86464314Y-87450000D01*
X85501128Y-87450000D01*
X85553730Y-87646317D01*
X85553734Y-87646326D01*
X85649865Y-87852482D01*
X85780342Y-88038820D01*
X85941179Y-88199657D01*
X86127517Y-88330134D01*
X86333673Y-88426265D01*
X86333682Y-88426269D01*
X86529999Y-88478872D01*
X86530000Y-88478871D01*
X86530000Y-87515686D01*
X86534394Y-87520080D01*
X86625606Y-87572741D01*
X86727339Y-87600000D01*
X86832661Y-87600000D01*
X86934394Y-87572741D01*
X87025606Y-87520080D01*
X87030000Y-87515686D01*
X87030000Y-88478872D01*
X87226317Y-88426269D01*
X87226326Y-88426265D01*
X87432482Y-88330134D01*
X87618820Y-88199657D01*
X87779657Y-88038820D01*
X87910132Y-87852484D01*
X87937341Y-87794134D01*
X87983513Y-87741695D01*
X88050707Y-87722542D01*
X88117588Y-87742757D01*
X88162106Y-87794133D01*
X88189431Y-87852732D01*
X88189432Y-87852734D01*
X88319954Y-88039141D01*
X88480858Y-88200045D01*
X88480861Y-88200047D01*
X88667266Y-88330568D01*
X88873504Y-88426739D01*
X89093308Y-88485635D01*
X89255230Y-88499801D01*
X89319998Y-88505468D01*
X89320000Y-88505468D01*
X89320002Y-88505468D01*
X89376807Y-88500498D01*
X89546692Y-88485635D01*
X89766496Y-88426739D01*
X89972734Y-88330568D01*
X90159139Y-88200047D01*
X90320047Y-88039139D01*
X90450568Y-87852734D01*
X90477618Y-87794724D01*
X90523790Y-87742285D01*
X90590983Y-87723133D01*
X90657865Y-87743348D01*
X90702382Y-87794725D01*
X90729429Y-87852728D01*
X90729432Y-87852734D01*
X90859954Y-88039141D01*
X91020858Y-88200045D01*
X91020861Y-88200047D01*
X91207266Y-88330568D01*
X91413504Y-88426739D01*
X91633308Y-88485635D01*
X91795230Y-88499801D01*
X91859998Y-88505468D01*
X91860000Y-88505468D01*
X91860002Y-88505468D01*
X91916807Y-88500498D01*
X92086692Y-88485635D01*
X92306496Y-88426739D01*
X92512734Y-88330568D01*
X92699139Y-88200047D01*
X92860047Y-88039139D01*
X92990568Y-87852734D01*
X93017618Y-87794724D01*
X93063790Y-87742285D01*
X93130983Y-87723133D01*
X93197865Y-87743348D01*
X93242382Y-87794725D01*
X93269429Y-87852728D01*
X93269432Y-87852734D01*
X93399954Y-88039141D01*
X93560858Y-88200045D01*
X93560861Y-88200047D01*
X93747266Y-88330568D01*
X93953504Y-88426739D01*
X94173308Y-88485635D01*
X94335230Y-88499801D01*
X94399998Y-88505468D01*
X94400000Y-88505468D01*
X94400002Y-88505468D01*
X94456807Y-88500498D01*
X94626692Y-88485635D01*
X94846496Y-88426739D01*
X95052734Y-88330568D01*
X95239139Y-88200047D01*
X95400047Y-88039139D01*
X95530568Y-87852734D01*
X95557618Y-87794724D01*
X95603790Y-87742285D01*
X95670983Y-87723133D01*
X95737865Y-87743348D01*
X95782382Y-87794725D01*
X95809429Y-87852728D01*
X95809432Y-87852734D01*
X95939954Y-88039141D01*
X96100858Y-88200045D01*
X96100861Y-88200047D01*
X96287266Y-88330568D01*
X96493504Y-88426739D01*
X96713308Y-88485635D01*
X96875230Y-88499801D01*
X96939998Y-88505468D01*
X96940000Y-88505468D01*
X96940002Y-88505468D01*
X96996807Y-88500498D01*
X97166692Y-88485635D01*
X97386496Y-88426739D01*
X97592734Y-88330568D01*
X97779139Y-88200047D01*
X97940047Y-88039139D01*
X98070568Y-87852734D01*
X98097618Y-87794724D01*
X98143790Y-87742285D01*
X98210983Y-87723133D01*
X98277865Y-87743348D01*
X98322382Y-87794725D01*
X98349429Y-87852728D01*
X98349432Y-87852734D01*
X98479954Y-88039141D01*
X98640858Y-88200045D01*
X98640861Y-88200047D01*
X98827266Y-88330568D01*
X99033504Y-88426739D01*
X99253308Y-88485635D01*
X99415230Y-88499801D01*
X99479998Y-88505468D01*
X99480000Y-88505468D01*
X99480002Y-88505468D01*
X99536807Y-88500498D01*
X99706692Y-88485635D01*
X99926496Y-88426739D01*
X100132734Y-88330568D01*
X100319139Y-88200047D01*
X100480047Y-88039139D01*
X100497272Y-88014539D01*
X100551848Y-87970913D01*
X100621346Y-87963718D01*
X100683701Y-87995239D01*
X100719116Y-88055468D01*
X100722138Y-88072406D01*
X100725908Y-88107483D01*
X100776202Y-88242328D01*
X100776206Y-88242335D01*
X100862452Y-88357544D01*
X100862455Y-88357547D01*
X100977664Y-88443793D01*
X100977671Y-88443797D01*
X101112517Y-88494091D01*
X101112516Y-88494091D01*
X101119444Y-88494835D01*
X101172127Y-88500500D01*
X102867872Y-88500499D01*
X102927483Y-88494091D01*
X103062331Y-88443796D01*
X103177546Y-88357546D01*
X103263796Y-88242331D01*
X103314091Y-88107483D01*
X103320500Y-88047873D01*
X103320499Y-86352128D01*
X103314091Y-86292517D01*
X103308056Y-86276337D01*
X103263797Y-86157671D01*
X103263793Y-86157664D01*
X103177547Y-86042455D01*
X103177544Y-86042452D01*
X103062335Y-85956206D01*
X103062328Y-85956202D01*
X102927482Y-85905908D01*
X102927483Y-85905908D01*
X102867883Y-85899501D01*
X102867881Y-85899500D01*
X102867873Y-85899500D01*
X102867864Y-85899500D01*
X101172129Y-85899500D01*
X101172123Y-85899501D01*
X101112516Y-85905908D01*
X100977671Y-85956202D01*
X100977664Y-85956206D01*
X100862455Y-86042452D01*
X100862452Y-86042455D01*
X100776206Y-86157664D01*
X100776202Y-86157671D01*
X100725908Y-86292516D01*
X100722137Y-86327596D01*
X100695398Y-86392146D01*
X100638006Y-86431994D01*
X100568180Y-86434487D01*
X100508092Y-86398834D01*
X100497273Y-86385462D01*
X100480045Y-86360858D01*
X100319141Y-86199954D01*
X100132734Y-86069432D01*
X100132732Y-86069431D01*
X99926497Y-85973261D01*
X99926488Y-85973258D01*
X99706697Y-85914366D01*
X99706693Y-85914365D01*
X99706692Y-85914365D01*
X99706691Y-85914364D01*
X99706686Y-85914364D01*
X99480002Y-85894532D01*
X99479998Y-85894532D01*
X99253313Y-85914364D01*
X99253302Y-85914366D01*
X99033511Y-85973258D01*
X99033502Y-85973261D01*
X98827267Y-86069431D01*
X98827265Y-86069432D01*
X98640858Y-86199954D01*
X98479954Y-86360858D01*
X98349432Y-86547265D01*
X98349431Y-86547267D01*
X98322382Y-86605275D01*
X98276209Y-86657714D01*
X98209016Y-86676866D01*
X98142135Y-86656650D01*
X98097618Y-86605275D01*
X98070568Y-86547266D01*
X97940047Y-86360861D01*
X97940045Y-86360858D01*
X97779141Y-86199954D01*
X97592734Y-86069432D01*
X97592732Y-86069431D01*
X97386497Y-85973261D01*
X97386488Y-85973258D01*
X97166697Y-85914366D01*
X97166693Y-85914365D01*
X97166692Y-85914365D01*
X97166691Y-85914364D01*
X97166686Y-85914364D01*
X96940002Y-85894532D01*
X96939998Y-85894532D01*
X96713313Y-85914364D01*
X96713302Y-85914366D01*
X96493511Y-85973258D01*
X96493502Y-85973261D01*
X96287267Y-86069431D01*
X96287265Y-86069432D01*
X96100858Y-86199954D01*
X95939954Y-86360858D01*
X95809432Y-86547265D01*
X95809431Y-86547267D01*
X95782382Y-86605275D01*
X95736209Y-86657714D01*
X95669016Y-86676866D01*
X95602135Y-86656650D01*
X95557618Y-86605275D01*
X95530568Y-86547266D01*
X95400047Y-86360861D01*
X95400045Y-86360858D01*
X95336819Y-86297632D01*
X95303334Y-86236309D01*
X95300500Y-86209951D01*
X95300500Y-84011307D01*
X95300499Y-84011303D01*
X95265896Y-83837341D01*
X95265895Y-83837334D01*
X95219814Y-83726086D01*
X95198013Y-83673453D01*
X95198012Y-83673451D01*
X95198011Y-83673449D01*
X95123688Y-83562218D01*
X95123688Y-83562217D01*
X95123686Y-83562216D01*
X95099464Y-83525964D01*
X95099463Y-83525962D01*
X93336819Y-81763318D01*
X93303334Y-81701995D01*
X93300500Y-81675637D01*
X93300500Y-80190048D01*
X93320185Y-80123009D01*
X93336814Y-80102371D01*
X93400047Y-80039139D01*
X93530568Y-79852734D01*
X93626739Y-79646496D01*
X93685635Y-79426692D01*
X93705468Y-79200000D01*
X93685635Y-78973308D01*
X93626739Y-78753504D01*
X93530568Y-78547266D01*
X93400047Y-78360861D01*
X93400045Y-78360858D01*
X93336819Y-78297632D01*
X93303334Y-78236309D01*
X93300500Y-78209951D01*
X93300500Y-76390048D01*
X93320185Y-76323009D01*
X93336814Y-76302371D01*
X93400047Y-76239139D01*
X93530568Y-76052734D01*
X93626739Y-75846496D01*
X93685635Y-75626692D01*
X93705468Y-75400000D01*
X93685635Y-75173308D01*
X93626739Y-74953504D01*
X93530568Y-74747266D01*
X93402662Y-74564596D01*
X93400045Y-74560858D01*
X93336819Y-74497632D01*
X93303334Y-74436309D01*
X93300500Y-74409951D01*
X93300500Y-72590048D01*
X93320185Y-72523009D01*
X93336814Y-72502371D01*
X93400047Y-72439139D01*
X93530568Y-72252734D01*
X93626739Y-72046496D01*
X93685635Y-71826692D01*
X93705468Y-71600000D01*
X93685635Y-71373308D01*
X93630535Y-71167671D01*
X93626741Y-71153511D01*
X93626738Y-71153502D01*
X93622238Y-71143851D01*
X93530568Y-70947266D01*
X93400047Y-70760861D01*
X93400045Y-70760858D01*
X93239141Y-70599954D01*
X93052734Y-70469432D01*
X93052732Y-70469431D01*
X92846497Y-70373261D01*
X92846488Y-70373258D01*
X92626697Y-70314366D01*
X92626693Y-70314365D01*
X92626692Y-70314365D01*
X92626691Y-70314364D01*
X92626686Y-70314364D01*
X92400002Y-70294532D01*
X92399998Y-70294532D01*
X92173313Y-70314364D01*
X92173302Y-70314366D01*
X91953511Y-70373258D01*
X91953502Y-70373261D01*
X91747267Y-70469431D01*
X91747265Y-70469432D01*
X91560858Y-70599954D01*
X91399954Y-70760858D01*
X91269432Y-70947265D01*
X91269431Y-70947267D01*
X91173261Y-71153502D01*
X91173258Y-71153511D01*
X91114366Y-71373302D01*
X91114364Y-71373313D01*
X91094532Y-71599998D01*
X91094532Y-71600001D01*
X91114364Y-71826686D01*
X91114366Y-71826697D01*
X91173258Y-72046488D01*
X91173261Y-72046497D01*
X91269431Y-72252732D01*
X91269432Y-72252734D01*
X91399951Y-72439137D01*
X91399952Y-72439138D01*
X91399953Y-72439139D01*
X91463182Y-72502368D01*
X91496666Y-72563689D01*
X91499500Y-72590048D01*
X91499500Y-74409951D01*
X91479815Y-74476990D01*
X91463181Y-74497632D01*
X91399954Y-74560858D01*
X91269432Y-74747265D01*
X91269431Y-74747267D01*
X91173261Y-74953502D01*
X91173258Y-74953511D01*
X91114366Y-75173302D01*
X91114364Y-75173313D01*
X91094532Y-75399998D01*
X91094532Y-75400001D01*
X91114364Y-75626686D01*
X91114366Y-75626697D01*
X91173258Y-75846488D01*
X91173261Y-75846497D01*
X91269431Y-76052732D01*
X91269432Y-76052734D01*
X91399951Y-76239137D01*
X91399952Y-76239138D01*
X91399953Y-76239139D01*
X91463182Y-76302368D01*
X91496666Y-76363689D01*
X91499500Y-76390048D01*
X91499500Y-78209951D01*
X91479815Y-78276990D01*
X91463181Y-78297632D01*
X91399954Y-78360858D01*
X91269432Y-78547265D01*
X91269431Y-78547267D01*
X91173261Y-78753502D01*
X91173258Y-78753511D01*
X91114366Y-78973302D01*
X91114364Y-78973313D01*
X91094532Y-79199998D01*
X91094532Y-79200001D01*
X91114364Y-79426686D01*
X91114366Y-79426697D01*
X91173258Y-79646488D01*
X91173261Y-79646497D01*
X91269431Y-79852732D01*
X91269432Y-79852734D01*
X91399951Y-80039137D01*
X91399952Y-80039138D01*
X91399953Y-80039139D01*
X91463182Y-80102368D01*
X91496666Y-80163689D01*
X91499500Y-80190048D01*
X91499500Y-82188696D01*
X91534103Y-82362658D01*
X91534105Y-82362666D01*
X91564953Y-82437139D01*
X91601985Y-82526545D01*
X91661063Y-82614960D01*
X91661064Y-82614961D01*
X91700534Y-82674034D01*
X93463181Y-84436681D01*
X93496666Y-84498004D01*
X93499500Y-84524362D01*
X93499500Y-86209951D01*
X93479815Y-86276990D01*
X93463181Y-86297632D01*
X93399954Y-86360858D01*
X93269432Y-86547265D01*
X93269431Y-86547267D01*
X93242382Y-86605275D01*
X93196209Y-86657714D01*
X93129016Y-86676866D01*
X93062135Y-86656650D01*
X93017618Y-86605275D01*
X92990568Y-86547266D01*
X92860047Y-86360861D01*
X92860045Y-86360858D01*
X92699141Y-86199954D01*
X92512734Y-86069432D01*
X92512732Y-86069431D01*
X92306497Y-85973261D01*
X92306488Y-85973258D01*
X92086697Y-85914366D01*
X92086693Y-85914365D01*
X92086692Y-85914365D01*
X92086691Y-85914364D01*
X92086686Y-85914364D01*
X91860002Y-85894532D01*
X91859998Y-85894532D01*
X91633313Y-85914364D01*
X91633302Y-85914366D01*
X91413511Y-85973258D01*
X91413502Y-85973261D01*
X91207267Y-86069431D01*
X91207265Y-86069432D01*
X91020858Y-86199954D01*
X90859954Y-86360858D01*
X90729432Y-86547265D01*
X90729431Y-86547267D01*
X90702382Y-86605275D01*
X90656209Y-86657714D01*
X90589016Y-86676866D01*
X90522135Y-86656650D01*
X90477618Y-86605275D01*
X90450568Y-86547266D01*
X90320047Y-86360861D01*
X90320045Y-86360858D01*
X90159141Y-86199954D01*
X89972734Y-86069432D01*
X89972732Y-86069431D01*
X89766497Y-85973261D01*
X89766488Y-85973258D01*
X89546697Y-85914366D01*
X89546693Y-85914365D01*
X89546692Y-85914365D01*
X89546691Y-85914364D01*
X89546686Y-85914364D01*
X89320002Y-85894532D01*
X89319998Y-85894532D01*
X89093313Y-85914364D01*
X89093302Y-85914366D01*
X88873511Y-85973258D01*
X88873502Y-85973261D01*
X88667267Y-86069431D01*
X88667265Y-86069432D01*
X88480858Y-86199954D01*
X88319954Y-86360858D01*
X88189433Y-86547264D01*
X88189432Y-86547266D01*
X88189315Y-86547518D01*
X88162106Y-86605867D01*
X88115933Y-86658306D01*
X88048739Y-86677457D01*
X87981858Y-86657241D01*
X87937342Y-86605865D01*
X87910135Y-86547520D01*
X87910134Y-86547518D01*
X87779657Y-86361179D01*
X87618820Y-86200342D01*
X87432482Y-86069865D01*
X87226328Y-85973734D01*
X87030000Y-85921127D01*
X87030000Y-86884314D01*
X87025606Y-86879920D01*
X86934394Y-86827259D01*
X86832661Y-86800000D01*
X86727339Y-86800000D01*
X86625606Y-86827259D01*
X86534394Y-86879920D01*
X86530000Y-86884314D01*
X86530000Y-85921127D01*
X86333671Y-85973734D01*
X86127517Y-86069865D01*
X85941179Y-86200342D01*
X85780342Y-86361179D01*
X85649865Y-86547517D01*
X85553734Y-86753673D01*
X85553730Y-86753682D01*
X85501127Y-86949999D01*
X75540499Y-86949999D01*
X75540499Y-86352128D01*
X75534091Y-86292517D01*
X75528056Y-86276337D01*
X75483797Y-86157671D01*
X75483793Y-86157664D01*
X75397547Y-86042455D01*
X75397544Y-86042452D01*
X75282335Y-85956206D01*
X75282328Y-85956202D01*
X75147482Y-85905908D01*
X75147483Y-85905908D01*
X75087883Y-85899501D01*
X75087881Y-85899500D01*
X75087873Y-85899500D01*
X75087865Y-85899500D01*
X74964500Y-85899500D01*
X74897461Y-85879815D01*
X74851706Y-85827011D01*
X74840500Y-85775500D01*
X74840500Y-76022711D01*
X74860185Y-75955672D01*
X74893377Y-75921136D01*
X74903450Y-75914083D01*
X75011401Y-75838495D01*
X75178495Y-75671401D01*
X75314035Y-75477830D01*
X75413903Y-75263663D01*
X75475063Y-75035408D01*
X75495659Y-74800000D01*
X75475063Y-74564592D01*
X75413903Y-74336337D01*
X75314035Y-74122171D01*
X75308569Y-74114365D01*
X75178496Y-73928600D01*
X75149941Y-73900045D01*
X75056567Y-73806671D01*
X75023084Y-73745351D01*
X75028068Y-73675659D01*
X75069939Y-73619725D01*
X75100915Y-73602810D01*
X75232331Y-73553796D01*
X75347546Y-73467546D01*
X75433796Y-73352331D01*
X75484091Y-73217483D01*
X75490500Y-73157873D01*
X75490499Y-71362128D01*
X75484091Y-71302517D01*
X75482810Y-71299083D01*
X75433797Y-71167671D01*
X75433793Y-71167664D01*
X75347547Y-71052455D01*
X75347544Y-71052452D01*
X75232335Y-70966206D01*
X75232328Y-70966202D01*
X75097482Y-70915908D01*
X75097483Y-70915908D01*
X75037883Y-70909501D01*
X75037881Y-70909500D01*
X75037873Y-70909500D01*
X75037865Y-70909500D01*
X75024500Y-70909500D01*
X74957461Y-70889815D01*
X74911706Y-70837011D01*
X74900500Y-70785500D01*
X74900500Y-67361672D01*
X74920185Y-67294633D01*
X74953375Y-67260098D01*
X75039139Y-67200047D01*
X75200047Y-67039139D01*
X75330568Y-66852734D01*
X75357618Y-66794724D01*
X75403790Y-66742285D01*
X75470983Y-66723133D01*
X75537865Y-66743348D01*
X75582382Y-66794725D01*
X75609429Y-66852728D01*
X75609432Y-66852734D01*
X75739954Y-67039141D01*
X75900858Y-67200045D01*
X75900861Y-67200047D01*
X76087266Y-67330568D01*
X76293504Y-67426739D01*
X76513308Y-67485635D01*
X76675230Y-67499801D01*
X76739998Y-67505468D01*
X76740000Y-67505468D01*
X76740002Y-67505468D01*
X76802499Y-67500000D01*
X76966692Y-67485635D01*
X77186496Y-67426739D01*
X77392734Y-67330568D01*
X77579139Y-67200047D01*
X77740047Y-67039139D01*
X77870568Y-66852734D01*
X77966739Y-66646496D01*
X78025635Y-66426692D01*
X78045468Y-66200000D01*
X78044119Y-66184586D01*
X78037309Y-66106738D01*
X78025635Y-65973308D01*
X77966739Y-65753504D01*
X77870568Y-65547266D01*
X77740047Y-65360861D01*
X77740045Y-65360858D01*
X77676819Y-65297632D01*
X77643334Y-65236309D01*
X77640500Y-65209951D01*
X77640500Y-65124500D01*
X77660185Y-65057461D01*
X77712989Y-65011706D01*
X77764500Y-65000500D01*
X82291592Y-65000500D01*
X82358631Y-65020185D01*
X82404386Y-65072989D01*
X82413708Y-65102965D01*
X82414365Y-65106693D01*
X82473258Y-65326488D01*
X82473261Y-65326497D01*
X82569431Y-65532732D01*
X82569432Y-65532734D01*
X82699954Y-65719141D01*
X82860858Y-65880045D01*
X82860861Y-65880047D01*
X83047266Y-66010568D01*
X83253504Y-66106739D01*
X83473308Y-66165635D01*
X83635230Y-66179801D01*
X83699998Y-66185468D01*
X83700000Y-66185468D01*
X83700002Y-66185468D01*
X83756673Y-66180509D01*
X83926692Y-66165635D01*
X84146496Y-66106739D01*
X84352734Y-66010568D01*
X84539139Y-65880047D01*
X84700047Y-65719139D01*
X84830568Y-65532734D01*
X84926739Y-65326496D01*
X84985635Y-65106692D01*
X84985635Y-65106682D01*
X84986292Y-65102965D01*
X85017320Y-65040363D01*
X85077268Y-65004474D01*
X85108408Y-65000500D01*
X85820951Y-65000500D01*
X85887990Y-65020185D01*
X85933745Y-65072989D01*
X85943689Y-65142147D01*
X85914664Y-65205703D01*
X85908632Y-65212181D01*
X85759954Y-65360858D01*
X85629432Y-65547265D01*
X85629431Y-65547267D01*
X85533261Y-65753502D01*
X85533258Y-65753511D01*
X85474366Y-65973302D01*
X85474364Y-65973313D01*
X85454532Y-66199998D01*
X85454532Y-66200001D01*
X85474364Y-66426686D01*
X85474366Y-66426697D01*
X85533258Y-66646488D01*
X85533261Y-66646497D01*
X85629431Y-66852732D01*
X85629432Y-66852734D01*
X85759954Y-67039141D01*
X85920858Y-67200045D01*
X85920861Y-67200047D01*
X86107266Y-67330568D01*
X86313504Y-67426739D01*
X86533308Y-67485635D01*
X86695230Y-67499801D01*
X86759998Y-67505468D01*
X86760000Y-67505468D01*
X86760002Y-67505468D01*
X86822499Y-67500000D01*
X86986692Y-67485635D01*
X87206496Y-67426739D01*
X87412734Y-67330568D01*
X87599139Y-67200047D01*
X87760047Y-67039139D01*
X87890568Y-66852734D01*
X87917618Y-66794724D01*
X87963790Y-66742285D01*
X88030983Y-66723133D01*
X88097865Y-66743348D01*
X88142382Y-66794725D01*
X88169429Y-66852728D01*
X88169432Y-66852734D01*
X88299954Y-67039141D01*
X88460858Y-67200045D01*
X88460861Y-67200047D01*
X88647266Y-67330568D01*
X88853504Y-67426739D01*
X89073308Y-67485635D01*
X89235230Y-67499801D01*
X89299998Y-67505468D01*
X89300000Y-67505468D01*
X89300002Y-67505468D01*
X89362499Y-67500000D01*
X89526692Y-67485635D01*
X89746496Y-67426739D01*
X89952734Y-67330568D01*
X90139139Y-67200047D01*
X90300047Y-67039139D01*
X90430568Y-66852734D01*
X90457618Y-66794724D01*
X90503790Y-66742285D01*
X90570983Y-66723133D01*
X90637865Y-66743348D01*
X90682382Y-66794725D01*
X90709429Y-66852728D01*
X90709432Y-66852734D01*
X90839954Y-67039141D01*
X91000858Y-67200045D01*
X91000861Y-67200047D01*
X91187266Y-67330568D01*
X91393504Y-67426739D01*
X91613308Y-67485635D01*
X91775230Y-67499801D01*
X91839998Y-67505468D01*
X91840000Y-67505468D01*
X91840002Y-67505468D01*
X91902499Y-67500000D01*
X92066692Y-67485635D01*
X92286496Y-67426739D01*
X92492734Y-67330568D01*
X92679139Y-67200047D01*
X92840047Y-67039139D01*
X92970568Y-66852734D01*
X92997618Y-66794724D01*
X93043790Y-66742285D01*
X93110983Y-66723133D01*
X93177865Y-66743348D01*
X93222382Y-66794725D01*
X93249429Y-66852728D01*
X93249432Y-66852734D01*
X93379954Y-67039141D01*
X93540858Y-67200045D01*
X93540861Y-67200047D01*
X93727266Y-67330568D01*
X93933504Y-67426739D01*
X94153308Y-67485635D01*
X94315230Y-67499801D01*
X94379998Y-67505468D01*
X94380000Y-67505468D01*
X94380002Y-67505468D01*
X94442499Y-67500000D01*
X94606692Y-67485635D01*
X94826496Y-67426739D01*
X95032734Y-67330568D01*
X95219139Y-67200047D01*
X95380047Y-67039139D01*
X95510568Y-66852734D01*
X95537618Y-66794724D01*
X95583790Y-66742285D01*
X95650983Y-66723133D01*
X95717865Y-66743348D01*
X95762382Y-66794725D01*
X95789429Y-66852728D01*
X95789432Y-66852734D01*
X95919954Y-67039141D01*
X96080858Y-67200045D01*
X96080861Y-67200047D01*
X96267266Y-67330568D01*
X96473504Y-67426739D01*
X96693308Y-67485635D01*
X96855230Y-67499801D01*
X96919998Y-67505468D01*
X96920000Y-67505468D01*
X96920002Y-67505468D01*
X96982499Y-67500000D01*
X97146692Y-67485635D01*
X97366496Y-67426739D01*
X97572734Y-67330568D01*
X97759139Y-67200047D01*
X97920047Y-67039139D01*
X98050568Y-66852734D01*
X98077618Y-66794724D01*
X98123790Y-66742285D01*
X98190983Y-66723133D01*
X98257865Y-66743348D01*
X98302382Y-66794725D01*
X98329429Y-66852728D01*
X98329432Y-66852734D01*
X98459954Y-67039141D01*
X98620858Y-67200045D01*
X98620861Y-67200047D01*
X98807266Y-67330568D01*
X99013504Y-67426739D01*
X99233308Y-67485635D01*
X99395230Y-67499801D01*
X99459998Y-67505468D01*
X99460000Y-67505468D01*
X99460002Y-67505468D01*
X99522499Y-67500000D01*
X99686692Y-67485635D01*
X99906496Y-67426739D01*
X100112734Y-67330568D01*
X100299139Y-67200047D01*
X100460047Y-67039139D01*
X100590568Y-66852734D01*
X100617618Y-66794724D01*
X100663790Y-66742285D01*
X100730983Y-66723133D01*
X100797865Y-66743348D01*
X100842382Y-66794725D01*
X100869429Y-66852728D01*
X100869432Y-66852734D01*
X100999954Y-67039141D01*
X101160858Y-67200045D01*
X101160861Y-67200047D01*
X101347266Y-67330568D01*
X101553504Y-67426739D01*
X101773308Y-67485635D01*
X101935230Y-67499801D01*
X101999998Y-67505468D01*
X102000000Y-67505468D01*
X102000002Y-67505468D01*
X102062499Y-67500000D01*
X102226692Y-67485635D01*
X102446496Y-67426739D01*
X102652734Y-67330568D01*
X102839139Y-67200047D01*
X103000047Y-67039139D01*
X103130568Y-66852734D01*
X103157618Y-66794724D01*
X103203790Y-66742285D01*
X103270983Y-66723133D01*
X103337865Y-66743348D01*
X103382382Y-66794725D01*
X103409429Y-66852728D01*
X103409432Y-66852734D01*
X103539954Y-67039141D01*
X103700858Y-67200045D01*
X103700861Y-67200047D01*
X103887266Y-67330568D01*
X104093504Y-67426739D01*
X104313308Y-67485635D01*
X104475230Y-67499801D01*
X104539998Y-67505468D01*
X104540000Y-67505468D01*
X104540002Y-67505468D01*
X104602499Y-67500000D01*
X104766692Y-67485635D01*
X104986496Y-67426739D01*
X105192734Y-67330568D01*
X105379139Y-67200047D01*
X105540047Y-67039139D01*
X105670568Y-66852734D01*
X105697618Y-66794724D01*
X105743790Y-66742285D01*
X105810983Y-66723133D01*
X105877865Y-66743348D01*
X105922382Y-66794725D01*
X105949429Y-66852728D01*
X105949432Y-66852734D01*
X106079954Y-67039141D01*
X106240855Y-67200042D01*
X106240858Y-67200044D01*
X106240861Y-67200047D01*
X106376626Y-67295109D01*
X106420248Y-67349683D01*
X106429500Y-67396682D01*
X106429500Y-70838092D01*
X106409815Y-70905131D01*
X106357011Y-70950886D01*
X106287853Y-70960830D01*
X106224297Y-70931805D01*
X106203925Y-70909215D01*
X106100045Y-70760858D01*
X105939141Y-70599954D01*
X105752734Y-70469432D01*
X105752732Y-70469431D01*
X105546497Y-70373261D01*
X105546488Y-70373258D01*
X105326697Y-70314366D01*
X105326693Y-70314365D01*
X105326692Y-70314365D01*
X105326691Y-70314364D01*
X105326686Y-70314364D01*
X105100002Y-70294532D01*
X105099998Y-70294532D01*
X104873313Y-70314364D01*
X104873302Y-70314366D01*
X104653511Y-70373258D01*
X104653502Y-70373261D01*
X104447267Y-70469431D01*
X104447265Y-70469432D01*
X104260858Y-70599954D01*
X104099954Y-70760858D01*
X103969432Y-70947265D01*
X103969431Y-70947267D01*
X103873261Y-71153502D01*
X103873258Y-71153511D01*
X103814366Y-71373302D01*
X103814364Y-71373313D01*
X103794532Y-71599998D01*
X103794532Y-71600001D01*
X103814364Y-71826686D01*
X103814366Y-71826697D01*
X103873258Y-72046488D01*
X103873261Y-72046497D01*
X103969431Y-72252732D01*
X103969432Y-72252734D01*
X104099954Y-72439141D01*
X104260858Y-72600045D01*
X104260861Y-72600047D01*
X104447266Y-72730568D01*
X104653504Y-72826739D01*
X104873308Y-72885635D01*
X105035230Y-72899801D01*
X105099998Y-72905468D01*
X105100000Y-72905468D01*
X105100002Y-72905468D01*
X105162522Y-72899998D01*
X105326692Y-72885635D01*
X105546496Y-72826739D01*
X105752734Y-72730568D01*
X105939139Y-72600047D01*
X106100047Y-72439139D01*
X106203925Y-72290783D01*
X106258501Y-72247159D01*
X106328000Y-72239965D01*
X106390354Y-72271487D01*
X106425769Y-72331717D01*
X106429500Y-72361907D01*
X106429500Y-74638092D01*
X106409815Y-74705131D01*
X106357011Y-74750886D01*
X106287853Y-74760830D01*
X106224297Y-74731805D01*
X106203925Y-74709215D01*
X106100045Y-74560858D01*
X105939141Y-74399954D01*
X105752734Y-74269432D01*
X105752732Y-74269431D01*
X105546497Y-74173261D01*
X105546488Y-74173258D01*
X105326697Y-74114366D01*
X105326693Y-74114365D01*
X105326692Y-74114365D01*
X105326691Y-74114364D01*
X105326686Y-74114364D01*
X105100002Y-74094532D01*
X105099998Y-74094532D01*
X104873313Y-74114364D01*
X104873302Y-74114366D01*
X104653511Y-74173258D01*
X104653502Y-74173261D01*
X104447267Y-74269431D01*
X104447265Y-74269432D01*
X104260858Y-74399954D01*
X104099954Y-74560858D01*
X103969432Y-74747265D01*
X103969431Y-74747267D01*
X103873261Y-74953502D01*
X103873258Y-74953511D01*
X103814366Y-75173302D01*
X103814364Y-75173313D01*
X103794532Y-75399998D01*
X103794532Y-75400001D01*
X103814364Y-75626686D01*
X103814366Y-75626697D01*
X103873258Y-75846488D01*
X103873261Y-75846497D01*
X103969431Y-76052732D01*
X103969432Y-76052734D01*
X104099954Y-76239141D01*
X104260858Y-76400045D01*
X104260861Y-76400047D01*
X104447266Y-76530568D01*
X104653504Y-76626739D01*
X104873308Y-76685635D01*
X105035230Y-76699801D01*
X105099998Y-76705468D01*
X105100000Y-76705468D01*
X105100002Y-76705468D01*
X105156673Y-76700509D01*
X105326692Y-76685635D01*
X105546496Y-76626739D01*
X105752734Y-76530568D01*
X105939139Y-76400047D01*
X106100047Y-76239139D01*
X106203925Y-76090783D01*
X106258501Y-76047159D01*
X106328000Y-76039965D01*
X106390354Y-76071487D01*
X106425769Y-76131717D01*
X106429500Y-76161907D01*
X106429500Y-78438092D01*
X106409815Y-78505131D01*
X106357011Y-78550886D01*
X106287853Y-78560830D01*
X106224297Y-78531805D01*
X106203925Y-78509215D01*
X106100045Y-78360858D01*
X105939141Y-78199954D01*
X105752734Y-78069432D01*
X105752732Y-78069431D01*
X105546497Y-77973261D01*
X105546488Y-77973258D01*
X105326697Y-77914366D01*
X105326693Y-77914365D01*
X105326692Y-77914365D01*
X105326691Y-77914364D01*
X105326686Y-77914364D01*
X105100002Y-77894532D01*
X105099998Y-77894532D01*
X104873313Y-77914364D01*
X104873302Y-77914366D01*
X104653511Y-77973258D01*
X104653502Y-77973261D01*
X104447267Y-78069431D01*
X104447265Y-78069432D01*
X104260858Y-78199954D01*
X104099954Y-78360858D01*
X103969432Y-78547265D01*
X103969431Y-78547267D01*
X103873261Y-78753502D01*
X103873258Y-78753511D01*
X103814366Y-78973302D01*
X103814364Y-78973313D01*
X103794532Y-79199998D01*
X103794532Y-79200001D01*
X103814364Y-79426686D01*
X103814366Y-79426697D01*
X103873258Y-79646488D01*
X103873261Y-79646497D01*
X103969431Y-79852732D01*
X103969432Y-79852734D01*
X104099954Y-80039141D01*
X104260858Y-80200045D01*
X104260861Y-80200047D01*
X104447266Y-80330568D01*
X104653504Y-80426739D01*
X104873308Y-80485635D01*
X105035230Y-80499801D01*
X105099998Y-80505468D01*
X105100000Y-80505468D01*
X105100002Y-80505468D01*
X105156673Y-80500509D01*
X105326692Y-80485635D01*
X105546496Y-80426739D01*
X105752734Y-80330568D01*
X105939139Y-80200047D01*
X106100047Y-80039139D01*
X106203925Y-79890783D01*
X106258501Y-79847159D01*
X106328000Y-79839965D01*
X106390354Y-79871487D01*
X106425769Y-79931717D01*
X106429500Y-79961907D01*
X106429500Y-93999192D01*
X106409815Y-94066231D01*
X106393181Y-94086873D01*
X104866873Y-95613181D01*
X104805550Y-95646666D01*
X104779192Y-95649500D01*
X103262781Y-95649500D01*
X103195742Y-95629815D01*
X103149987Y-95577011D01*
X103140043Y-95507853D01*
X103150399Y-95473095D01*
X103150566Y-95472736D01*
X103150568Y-95472734D01*
X103246739Y-95266496D01*
X103305635Y-95046692D01*
X103324415Y-94832032D01*
X103325468Y-94820001D01*
X103325468Y-94819998D01*
X103312242Y-94668824D01*
X103305635Y-94593308D01*
X103255204Y-94405097D01*
X103246741Y-94373511D01*
X103246738Y-94373502D01*
X103193420Y-94259162D01*
X103150568Y-94167266D01*
X103020047Y-93980861D01*
X103020045Y-93980858D01*
X102956819Y-93917632D01*
X102923334Y-93856309D01*
X102920500Y-93829951D01*
X102920500Y-93231309D01*
X102914803Y-93202666D01*
X102914803Y-93202664D01*
X102914803Y-93202663D01*
X102896868Y-93112500D01*
X102885895Y-93057334D01*
X102820339Y-92899071D01*
X102818695Y-92894474D01*
X102791825Y-92854261D01*
X102719464Y-92745965D01*
X102594035Y-92620536D01*
X102174041Y-92200540D01*
X102174040Y-92200539D01*
X102114960Y-92161064D01*
X102114958Y-92161061D01*
X102026544Y-92101985D01*
X102026542Y-92101984D01*
X101944607Y-92068046D01*
X101944606Y-92068046D01*
X101862666Y-92034105D01*
X101862658Y-92034103D01*
X101688696Y-91999500D01*
X101688692Y-91999500D01*
X101688691Y-91999500D01*
X96988692Y-91999500D01*
X96988691Y-91999500D01*
X94488691Y-91999500D01*
X91888692Y-91999500D01*
X91888691Y-91999500D01*
X83788691Y-91999500D01*
X74388692Y-91999500D01*
X74388691Y-91999500D01*
X64241544Y-91999500D01*
X64174505Y-91979815D01*
X64128750Y-91927011D01*
X64118806Y-91857853D01*
X64139970Y-91804376D01*
X64151563Y-91787819D01*
X64193702Y-91727639D01*
X64286175Y-91529330D01*
X64342807Y-91317977D01*
X64361877Y-91100000D01*
X64342807Y-90882023D01*
X64286175Y-90670670D01*
X64193702Y-90472362D01*
X64193700Y-90472359D01*
X64193699Y-90472357D01*
X64068199Y-90293124D01*
X63999144Y-90224069D01*
X63913477Y-90138402D01*
X63734239Y-90012898D01*
X63734240Y-90012898D01*
X63734238Y-90012897D01*
X63616145Y-89957830D01*
X63535930Y-89920425D01*
X63535926Y-89920424D01*
X63535922Y-89920422D01*
X63324577Y-89863793D01*
X63106602Y-89844723D01*
X63106598Y-89844723D01*
X62961282Y-89857436D01*
X62888623Y-89863793D01*
X62888620Y-89863793D01*
X62677277Y-89920422D01*
X62677268Y-89920426D01*
X62478961Y-90012898D01*
X62478957Y-90012900D01*
X62299721Y-90138402D01*
X62145003Y-90293120D01*
X62072531Y-90396623D01*
X62017955Y-90440248D01*
X61970956Y-90449500D01*
X56647229Y-90449500D01*
X56521561Y-90474497D01*
X56521555Y-90474499D01*
X56403175Y-90523533D01*
X56403166Y-90523538D01*
X56296631Y-90594723D01*
X56296627Y-90594726D01*
X54262022Y-92629331D01*
X54251466Y-92645129D01*
X54240956Y-92660861D01*
X54220880Y-92690907D01*
X54190834Y-92735873D01*
X54141799Y-92854255D01*
X54141797Y-92854261D01*
X54116800Y-92979928D01*
X49700500Y-92979928D01*
X49700500Y-88499997D01*
X54635034Y-88499997D01*
X54635034Y-88500002D01*
X54654858Y-88726599D01*
X54654860Y-88726610D01*
X54713730Y-88946317D01*
X54713735Y-88946331D01*
X54809863Y-89152478D01*
X54860974Y-89225472D01*
X55540000Y-88546446D01*
X55540000Y-88552661D01*
X55567259Y-88654394D01*
X55619920Y-88745606D01*
X55694394Y-88820080D01*
X55785606Y-88872741D01*
X55887339Y-88900000D01*
X55893553Y-88900000D01*
X55214526Y-89579025D01*
X55287513Y-89630132D01*
X55287521Y-89630136D01*
X55493668Y-89726264D01*
X55493682Y-89726269D01*
X55713389Y-89785139D01*
X55713400Y-89785141D01*
X55939998Y-89804966D01*
X55940002Y-89804966D01*
X56166599Y-89785141D01*
X56166610Y-89785139D01*
X56386317Y-89726269D01*
X56386331Y-89726264D01*
X56592478Y-89630136D01*
X56665471Y-89579024D01*
X55986447Y-88900000D01*
X55992661Y-88900000D01*
X56094394Y-88872741D01*
X56185606Y-88820080D01*
X56260080Y-88745606D01*
X56312741Y-88654394D01*
X56340000Y-88552661D01*
X56340000Y-88546447D01*
X57019024Y-89225471D01*
X57070136Y-89152478D01*
X57166264Y-88946331D01*
X57166269Y-88946317D01*
X57225139Y-88726610D01*
X57225141Y-88726599D01*
X57244966Y-88500002D01*
X57244966Y-88499997D01*
X57225141Y-88273400D01*
X57225139Y-88273389D01*
X57166269Y-88053682D01*
X57166264Y-88053668D01*
X57070136Y-87847521D01*
X57070132Y-87847513D01*
X57019025Y-87774526D01*
X56340000Y-88453551D01*
X56340000Y-88447339D01*
X56312741Y-88345606D01*
X56260080Y-88254394D01*
X56185606Y-88179920D01*
X56094394Y-88127259D01*
X55992661Y-88100000D01*
X55986448Y-88100000D01*
X56665472Y-87420974D01*
X56592478Y-87369863D01*
X56386331Y-87273735D01*
X56386317Y-87273730D01*
X56166610Y-87214860D01*
X56166599Y-87214858D01*
X55940002Y-87195034D01*
X55939998Y-87195034D01*
X55713400Y-87214858D01*
X55713389Y-87214860D01*
X55493682Y-87273730D01*
X55493673Y-87273734D01*
X55287516Y-87369866D01*
X55287512Y-87369868D01*
X55214526Y-87420973D01*
X55214526Y-87420974D01*
X55893553Y-88100000D01*
X55887339Y-88100000D01*
X55785606Y-88127259D01*
X55694394Y-88179920D01*
X55619920Y-88254394D01*
X55567259Y-88345606D01*
X55540000Y-88447339D01*
X55540000Y-88453552D01*
X54860974Y-87774526D01*
X54860973Y-87774526D01*
X54809868Y-87847512D01*
X54809866Y-87847516D01*
X54713734Y-88053673D01*
X54713730Y-88053682D01*
X54654860Y-88273389D01*
X54654858Y-88273400D01*
X54635034Y-88499997D01*
X49700500Y-88499997D01*
X49700500Y-84694994D01*
X51696559Y-84694994D01*
X51696559Y-84695005D01*
X51717085Y-84942729D01*
X51717087Y-84942738D01*
X51778112Y-85183717D01*
X51877966Y-85411364D01*
X51978264Y-85564882D01*
X52718737Y-84824409D01*
X52735775Y-84887993D01*
X52801601Y-85002007D01*
X52894693Y-85095099D01*
X53008707Y-85160925D01*
X53072290Y-85177962D01*
X52331642Y-85918609D01*
X52378468Y-85955055D01*
X52378470Y-85955056D01*
X52597085Y-86073364D01*
X52597096Y-86073369D01*
X52832206Y-86154083D01*
X53077407Y-86195000D01*
X53325993Y-86195000D01*
X53571193Y-86154083D01*
X53806303Y-86073369D01*
X53806314Y-86073364D01*
X54024928Y-85955057D01*
X54024931Y-85955055D01*
X54071756Y-85918609D01*
X53331109Y-85177962D01*
X53394693Y-85160925D01*
X53508707Y-85095099D01*
X53601799Y-85002007D01*
X53667625Y-84887993D01*
X53684662Y-84824410D01*
X54425134Y-85564882D01*
X54525431Y-85411369D01*
X54625287Y-85183717D01*
X54686312Y-84942738D01*
X54686314Y-84942729D01*
X54706841Y-84695005D01*
X54706841Y-84694994D01*
X54686314Y-84447270D01*
X54686312Y-84447261D01*
X54625287Y-84206282D01*
X54525431Y-83978630D01*
X54425134Y-83825116D01*
X53684662Y-84565589D01*
X53667625Y-84502007D01*
X53601799Y-84387993D01*
X53508707Y-84294901D01*
X53394693Y-84229075D01*
X53331110Y-84212037D01*
X54071757Y-83471390D01*
X54071756Y-83471389D01*
X54024929Y-83434943D01*
X53806314Y-83316635D01*
X53806303Y-83316630D01*
X53571193Y-83235916D01*
X53325993Y-83195000D01*
X53077407Y-83195000D01*
X52832206Y-83235916D01*
X52597096Y-83316630D01*
X52597090Y-83316632D01*
X52378461Y-83434949D01*
X52331642Y-83471388D01*
X52331642Y-83471390D01*
X53072290Y-84212037D01*
X53008707Y-84229075D01*
X52894693Y-84294901D01*
X52801601Y-84387993D01*
X52735775Y-84502007D01*
X52718737Y-84565589D01*
X51978264Y-83825116D01*
X51877967Y-83978632D01*
X51778112Y-84206282D01*
X51717087Y-84447261D01*
X51717085Y-84447270D01*
X51696559Y-84694994D01*
X49700500Y-84694994D01*
X49700500Y-74454994D01*
X51696559Y-74454994D01*
X51696559Y-74455005D01*
X51717085Y-74702729D01*
X51717087Y-74702738D01*
X51778112Y-74943717D01*
X51877966Y-75171364D01*
X51978264Y-75324882D01*
X52718737Y-74584409D01*
X52735775Y-74647993D01*
X52801601Y-74762007D01*
X52894693Y-74855099D01*
X53008707Y-74920925D01*
X53072290Y-74937962D01*
X52331642Y-75678609D01*
X52378468Y-75715055D01*
X52378470Y-75715056D01*
X52597085Y-75833364D01*
X52597096Y-75833369D01*
X52832206Y-75914083D01*
X53077407Y-75955000D01*
X53325993Y-75955000D01*
X53571193Y-75914083D01*
X53806303Y-75833369D01*
X53806314Y-75833364D01*
X54024928Y-75715057D01*
X54024931Y-75715055D01*
X54071756Y-75678609D01*
X53331109Y-74937962D01*
X53394693Y-74920925D01*
X53508707Y-74855099D01*
X53601799Y-74762007D01*
X53667625Y-74647993D01*
X53684662Y-74584410D01*
X54425134Y-75324882D01*
X54525431Y-75171369D01*
X54625287Y-74943717D01*
X54686312Y-74702738D01*
X54686314Y-74702729D01*
X54706841Y-74455005D01*
X54706841Y-74454994D01*
X54686314Y-74207270D01*
X54686312Y-74207261D01*
X54625287Y-73966282D01*
X54525431Y-73738630D01*
X54425134Y-73585116D01*
X53684662Y-74325589D01*
X53667625Y-74262007D01*
X53601799Y-74147993D01*
X53508707Y-74054901D01*
X53394693Y-73989075D01*
X53331110Y-73972037D01*
X54071757Y-73231390D01*
X54071756Y-73231389D01*
X54024929Y-73194943D01*
X53806314Y-73076635D01*
X53806303Y-73076630D01*
X53571193Y-72995916D01*
X53325993Y-72955000D01*
X53077407Y-72955000D01*
X52832206Y-72995916D01*
X52597096Y-73076630D01*
X52597090Y-73076632D01*
X52378461Y-73194949D01*
X52331642Y-73231388D01*
X52331642Y-73231390D01*
X53072290Y-73972037D01*
X53008707Y-73989075D01*
X52894693Y-74054901D01*
X52801601Y-74147993D01*
X52735775Y-74262007D01*
X52718737Y-74325589D01*
X51978264Y-73585116D01*
X51877967Y-73738632D01*
X51778112Y-73966282D01*
X51717087Y-74207261D01*
X51717085Y-74207270D01*
X51696559Y-74454994D01*
X49700500Y-74454994D01*
X49700500Y-68657135D01*
X51701200Y-68657135D01*
X51701200Y-70752870D01*
X51701201Y-70752876D01*
X51707608Y-70812483D01*
X51757902Y-70947328D01*
X51757906Y-70947335D01*
X51844152Y-71062544D01*
X51844155Y-71062547D01*
X51959364Y-71148793D01*
X51959371Y-71148797D01*
X52094217Y-71199091D01*
X52094216Y-71199091D01*
X52101144Y-71199835D01*
X52153827Y-71205500D01*
X54249572Y-71205499D01*
X54309183Y-71199091D01*
X54444031Y-71148796D01*
X54559246Y-71062546D01*
X54645496Y-70947331D01*
X54695791Y-70812483D01*
X54702200Y-70752873D01*
X54702199Y-68657128D01*
X54695791Y-68597517D01*
X54658053Y-68496337D01*
X54645497Y-68462671D01*
X54645493Y-68462664D01*
X54559247Y-68347455D01*
X54559244Y-68347452D01*
X54444035Y-68261206D01*
X54444028Y-68261202D01*
X54309182Y-68210908D01*
X54309183Y-68210908D01*
X54249583Y-68204501D01*
X54249581Y-68204500D01*
X54249573Y-68204500D01*
X54249564Y-68204500D01*
X52153829Y-68204500D01*
X52153823Y-68204501D01*
X52094216Y-68210908D01*
X51959371Y-68261202D01*
X51959364Y-68261206D01*
X51844155Y-68347452D01*
X51844152Y-68347455D01*
X51757906Y-68462664D01*
X51757902Y-68462671D01*
X51707608Y-68597517D01*
X51704603Y-68625472D01*
X51701201Y-68657123D01*
X51701200Y-68657135D01*
X49700500Y-68657135D01*
X49700500Y-59879997D01*
X54635034Y-59879997D01*
X54635034Y-59880002D01*
X54654858Y-60106599D01*
X54654860Y-60106610D01*
X54713730Y-60326317D01*
X54713735Y-60326331D01*
X54809863Y-60532478D01*
X54860974Y-60605472D01*
X55540000Y-59926446D01*
X55540000Y-59932661D01*
X55567259Y-60034394D01*
X55619920Y-60125606D01*
X55694394Y-60200080D01*
X55785606Y-60252741D01*
X55887339Y-60280000D01*
X55893553Y-60280000D01*
X55214526Y-60959025D01*
X55287513Y-61010132D01*
X55287521Y-61010136D01*
X55493668Y-61106264D01*
X55493682Y-61106269D01*
X55713389Y-61165139D01*
X55713400Y-61165141D01*
X55939998Y-61184966D01*
X55940002Y-61184966D01*
X56166599Y-61165141D01*
X56166610Y-61165139D01*
X56386317Y-61106269D01*
X56386331Y-61106264D01*
X56592478Y-61010136D01*
X56665471Y-60959024D01*
X55986447Y-60280000D01*
X55992661Y-60280000D01*
X56094394Y-60252741D01*
X56185606Y-60200080D01*
X56260080Y-60125606D01*
X56312741Y-60034394D01*
X56340000Y-59932661D01*
X56340000Y-59926447D01*
X57019024Y-60605471D01*
X57070136Y-60532478D01*
X57166264Y-60326331D01*
X57166269Y-60326317D01*
X57225139Y-60106610D01*
X57225141Y-60106599D01*
X57244966Y-59880002D01*
X57244966Y-59879997D01*
X57225141Y-59653400D01*
X57225139Y-59653389D01*
X57166269Y-59433682D01*
X57166264Y-59433668D01*
X57070136Y-59227521D01*
X57070132Y-59227513D01*
X57019025Y-59154526D01*
X56340000Y-59833551D01*
X56340000Y-59827339D01*
X56312741Y-59725606D01*
X56260080Y-59634394D01*
X56185606Y-59559920D01*
X56094394Y-59507259D01*
X55992661Y-59480000D01*
X55986448Y-59480000D01*
X56665472Y-58800974D01*
X56592478Y-58749863D01*
X56386331Y-58653735D01*
X56386317Y-58653730D01*
X56166610Y-58594860D01*
X56166599Y-58594858D01*
X55940002Y-58575034D01*
X55939998Y-58575034D01*
X55713400Y-58594858D01*
X55713389Y-58594860D01*
X55493682Y-58653730D01*
X55493673Y-58653734D01*
X55287516Y-58749866D01*
X55287512Y-58749868D01*
X55214526Y-58800973D01*
X55214526Y-58800974D01*
X55893553Y-59480000D01*
X55887339Y-59480000D01*
X55785606Y-59507259D01*
X55694394Y-59559920D01*
X55619920Y-59634394D01*
X55567259Y-59725606D01*
X55540000Y-59827339D01*
X55540000Y-59833552D01*
X54860974Y-59154526D01*
X54860973Y-59154526D01*
X54809868Y-59227512D01*
X54809866Y-59227516D01*
X54713734Y-59433673D01*
X54713730Y-59433682D01*
X54654860Y-59653389D01*
X54654858Y-59653400D01*
X54635034Y-59879997D01*
X49700500Y-59879997D01*
X49700500Y-58329999D01*
X57681127Y-58329999D01*
X57681128Y-58330000D01*
X58644314Y-58330000D01*
X58639920Y-58334394D01*
X58587259Y-58425606D01*
X58560000Y-58527339D01*
X58560000Y-58632661D01*
X58587259Y-58734394D01*
X58639920Y-58825606D01*
X58644314Y-58830000D01*
X57681128Y-58830000D01*
X57733730Y-59026317D01*
X57733734Y-59026326D01*
X57829865Y-59232482D01*
X57960342Y-59418820D01*
X58121179Y-59579657D01*
X58307517Y-59710134D01*
X58513673Y-59806265D01*
X58513682Y-59806269D01*
X58709999Y-59858872D01*
X58710000Y-59858871D01*
X58710000Y-58895686D01*
X58714394Y-58900080D01*
X58805606Y-58952741D01*
X58907339Y-58980000D01*
X59012661Y-58980000D01*
X59114394Y-58952741D01*
X59205606Y-58900080D01*
X59210000Y-58895686D01*
X59210000Y-59858872D01*
X59406317Y-59806269D01*
X59406326Y-59806265D01*
X59612482Y-59710134D01*
X59798820Y-59579657D01*
X59959657Y-59418820D01*
X60090132Y-59232484D01*
X60117341Y-59174134D01*
X60163513Y-59121695D01*
X60230707Y-59102542D01*
X60297588Y-59122757D01*
X60342106Y-59174133D01*
X60369431Y-59232732D01*
X60369432Y-59232734D01*
X60499954Y-59419141D01*
X60660858Y-59580045D01*
X60660861Y-59580047D01*
X60847266Y-59710568D01*
X61053504Y-59806739D01*
X61273308Y-59865635D01*
X61435230Y-59879801D01*
X61499998Y-59885468D01*
X61500000Y-59885468D01*
X61500002Y-59885468D01*
X61556807Y-59880498D01*
X61726692Y-59865635D01*
X61946496Y-59806739D01*
X62152734Y-59710568D01*
X62339139Y-59580047D01*
X62500047Y-59419139D01*
X62630568Y-59232734D01*
X62657618Y-59174724D01*
X62703790Y-59122285D01*
X62770983Y-59103133D01*
X62837865Y-59123348D01*
X62882382Y-59174725D01*
X62909429Y-59232728D01*
X62909432Y-59232734D01*
X63039954Y-59419141D01*
X63200858Y-59580045D01*
X63200861Y-59580047D01*
X63387266Y-59710568D01*
X63593504Y-59806739D01*
X63813308Y-59865635D01*
X63975230Y-59879801D01*
X64039998Y-59885468D01*
X64040000Y-59885468D01*
X64040002Y-59885468D01*
X64096807Y-59880498D01*
X64266692Y-59865635D01*
X64486496Y-59806739D01*
X64692734Y-59710568D01*
X64879139Y-59580047D01*
X65040047Y-59419139D01*
X65170568Y-59232734D01*
X65197895Y-59174129D01*
X65244064Y-59121695D01*
X65311257Y-59102542D01*
X65378139Y-59122757D01*
X65422657Y-59174133D01*
X65449865Y-59232482D01*
X65580342Y-59418820D01*
X65741179Y-59579657D01*
X65927517Y-59710134D01*
X66133673Y-59806265D01*
X66133682Y-59806269D01*
X66329999Y-59858872D01*
X66330000Y-59858871D01*
X66330000Y-58895686D01*
X66334394Y-58900080D01*
X66425606Y-58952741D01*
X66527339Y-58980000D01*
X66632661Y-58980000D01*
X66734394Y-58952741D01*
X66825606Y-58900080D01*
X66830000Y-58895686D01*
X66830000Y-59858872D01*
X67026317Y-59806269D01*
X67026326Y-59806265D01*
X67232482Y-59710134D01*
X67418820Y-59579657D01*
X67579657Y-59418820D01*
X67710132Y-59232484D01*
X67737341Y-59174134D01*
X67783513Y-59121695D01*
X67850707Y-59102542D01*
X67917588Y-59122757D01*
X67962106Y-59174133D01*
X67989431Y-59232732D01*
X67989432Y-59232734D01*
X68119954Y-59419141D01*
X68280858Y-59580045D01*
X68280861Y-59580047D01*
X68467266Y-59710568D01*
X68673504Y-59806739D01*
X68893308Y-59865635D01*
X69055230Y-59879801D01*
X69119998Y-59885468D01*
X69120000Y-59885468D01*
X69120002Y-59885468D01*
X69176807Y-59880498D01*
X69346692Y-59865635D01*
X69566496Y-59806739D01*
X69772734Y-59710568D01*
X69959139Y-59580047D01*
X70120047Y-59419139D01*
X70250568Y-59232734D01*
X70277895Y-59174129D01*
X70324064Y-59121695D01*
X70391257Y-59102542D01*
X70458139Y-59122757D01*
X70502657Y-59174133D01*
X70529865Y-59232482D01*
X70660342Y-59418820D01*
X70821179Y-59579657D01*
X71007517Y-59710134D01*
X71213673Y-59806265D01*
X71213682Y-59806269D01*
X71409999Y-59858872D01*
X71410000Y-59858871D01*
X71410000Y-58895686D01*
X71414394Y-58900080D01*
X71505606Y-58952741D01*
X71607339Y-58980000D01*
X71712661Y-58980000D01*
X71814394Y-58952741D01*
X71905606Y-58900080D01*
X71910000Y-58895686D01*
X71910000Y-59858872D01*
X72106317Y-59806269D01*
X72106326Y-59806265D01*
X72312482Y-59710134D01*
X72498820Y-59579657D01*
X72659657Y-59418820D01*
X72790132Y-59232484D01*
X72817341Y-59174134D01*
X72863513Y-59121695D01*
X72930707Y-59102542D01*
X72997588Y-59122757D01*
X73042106Y-59174133D01*
X73069431Y-59232732D01*
X73069432Y-59232734D01*
X73199954Y-59419141D01*
X73360858Y-59580045D01*
X73360861Y-59580047D01*
X73547266Y-59710568D01*
X73753504Y-59806739D01*
X73973308Y-59865635D01*
X74135230Y-59879801D01*
X74199998Y-59885468D01*
X74200000Y-59885468D01*
X74200002Y-59885468D01*
X74256807Y-59880498D01*
X74426692Y-59865635D01*
X74646496Y-59806739D01*
X74852734Y-59710568D01*
X75039139Y-59580047D01*
X75200047Y-59419139D01*
X75217272Y-59394539D01*
X75271848Y-59350913D01*
X75341346Y-59343718D01*
X75403701Y-59375239D01*
X75439116Y-59435468D01*
X75442138Y-59452406D01*
X75445908Y-59487483D01*
X75496202Y-59622328D01*
X75496206Y-59622335D01*
X75582452Y-59737544D01*
X75582455Y-59737547D01*
X75697664Y-59823793D01*
X75697671Y-59823797D01*
X75832517Y-59874091D01*
X75832516Y-59874091D01*
X75839444Y-59874835D01*
X75892127Y-59880500D01*
X77587872Y-59880499D01*
X77647483Y-59874091D01*
X77782331Y-59823796D01*
X77897546Y-59737546D01*
X77983796Y-59622331D01*
X78034091Y-59487483D01*
X78040500Y-59427873D01*
X78040499Y-57732128D01*
X78034091Y-57672517D01*
X78034091Y-57672516D01*
X78033262Y-57664804D01*
X78034542Y-57664666D01*
X78037853Y-57602851D01*
X78078717Y-57546178D01*
X78143734Y-57520594D01*
X78154791Y-57520100D01*
X82669213Y-57520100D01*
X82736252Y-57539785D01*
X82782007Y-57592589D01*
X82788988Y-57612006D01*
X82820423Y-57729325D01*
X82820424Y-57729327D01*
X82820425Y-57729330D01*
X82843509Y-57778834D01*
X82912897Y-57927638D01*
X82912898Y-57927639D01*
X83038402Y-58106877D01*
X83193123Y-58261598D01*
X83372160Y-58386961D01*
X83372361Y-58387102D01*
X83383412Y-58392255D01*
X83435851Y-58438428D01*
X83455003Y-58505622D01*
X83434787Y-58572503D01*
X83381621Y-58617837D01*
X83363101Y-58624412D01*
X83253680Y-58653731D01*
X83253673Y-58653734D01*
X83047516Y-58749866D01*
X83047512Y-58749868D01*
X82974526Y-58800973D01*
X82974526Y-58800974D01*
X83653553Y-59480000D01*
X83647339Y-59480000D01*
X83545606Y-59507259D01*
X83454394Y-59559920D01*
X83379920Y-59634394D01*
X83327259Y-59725606D01*
X83300000Y-59827339D01*
X83300000Y-59833552D01*
X82620974Y-59154526D01*
X82620973Y-59154526D01*
X82569868Y-59227512D01*
X82569866Y-59227516D01*
X82473734Y-59433673D01*
X82473730Y-59433682D01*
X82414860Y-59653389D01*
X82414858Y-59653400D01*
X82395034Y-59879997D01*
X82395034Y-59880002D01*
X82414858Y-60106599D01*
X82414860Y-60106610D01*
X82473730Y-60326317D01*
X82473735Y-60326331D01*
X82569863Y-60532478D01*
X82620974Y-60605472D01*
X83300000Y-59926446D01*
X83300000Y-59932661D01*
X83327259Y-60034394D01*
X83379920Y-60125606D01*
X83454394Y-60200080D01*
X83545606Y-60252741D01*
X83647339Y-60280000D01*
X83653553Y-60280000D01*
X82974526Y-60959025D01*
X83047513Y-61010132D01*
X83047521Y-61010136D01*
X83253668Y-61106264D01*
X83253682Y-61106269D01*
X83473389Y-61165139D01*
X83473400Y-61165141D01*
X83699998Y-61184966D01*
X83700002Y-61184966D01*
X83926599Y-61165141D01*
X83926610Y-61165139D01*
X84146317Y-61106269D01*
X84146331Y-61106264D01*
X84352478Y-61010136D01*
X84425471Y-60959024D01*
X83746447Y-60280000D01*
X83752661Y-60280000D01*
X83854394Y-60252741D01*
X83945606Y-60200080D01*
X84020080Y-60125606D01*
X84072741Y-60034394D01*
X84100000Y-59932661D01*
X84100000Y-59926447D01*
X84779024Y-60605471D01*
X84830136Y-60532478D01*
X84926264Y-60326331D01*
X84926269Y-60326317D01*
X84985139Y-60106610D01*
X84985141Y-60106599D01*
X85004966Y-59880002D01*
X85004966Y-59879997D01*
X84985141Y-59653400D01*
X84985139Y-59653389D01*
X84926269Y-59433682D01*
X84926264Y-59433668D01*
X84830136Y-59227521D01*
X84830132Y-59227513D01*
X84779025Y-59154526D01*
X84100000Y-59833551D01*
X84100000Y-59827339D01*
X84072741Y-59725606D01*
X84020080Y-59634394D01*
X83945606Y-59559920D01*
X83854394Y-59507259D01*
X83752661Y-59480000D01*
X83746448Y-59480000D01*
X84425472Y-58800974D01*
X84352482Y-58749865D01*
X84321178Y-58735268D01*
X84268739Y-58689095D01*
X84249588Y-58621901D01*
X84269805Y-58555020D01*
X84322970Y-58509686D01*
X84341485Y-58503112D01*
X84429330Y-58479575D01*
X84627639Y-58387102D01*
X84806877Y-58261598D01*
X84961598Y-58106877D01*
X85087102Y-57927639D01*
X85179575Y-57729330D01*
X85236207Y-57517977D01*
X85254967Y-57303545D01*
X85255277Y-57300002D01*
X85255277Y-57299997D01*
X85249966Y-57239293D01*
X85236207Y-57082023D01*
X85179575Y-56870670D01*
X85087102Y-56672362D01*
X85087100Y-56672359D01*
X85087099Y-56672357D01*
X84961599Y-56493124D01*
X84961598Y-56493123D01*
X84806877Y-56338402D01*
X84636498Y-56219101D01*
X84627638Y-56212897D01*
X84514347Y-56160069D01*
X84429330Y-56120425D01*
X84429326Y-56120424D01*
X84429322Y-56120422D01*
X84217977Y-56063793D01*
X84000002Y-56044723D01*
X83999998Y-56044723D01*
X83854682Y-56057436D01*
X83782023Y-56063793D01*
X83782020Y-56063793D01*
X83570677Y-56120422D01*
X83570668Y-56120426D01*
X83383976Y-56207482D01*
X83331571Y-56219100D01*
X66090408Y-56219100D01*
X66023369Y-56199415D01*
X66002727Y-56182781D01*
X65682819Y-55862873D01*
X65649334Y-55801550D01*
X65646500Y-55775192D01*
X65646500Y-51136722D01*
X65666185Y-51069683D01*
X65699377Y-51035147D01*
X65750429Y-50999399D01*
X65867401Y-50917495D01*
X66034495Y-50750401D01*
X66164425Y-50564842D01*
X66219002Y-50521217D01*
X66288500Y-50514023D01*
X66350855Y-50545546D01*
X66367575Y-50564842D01*
X66497500Y-50750395D01*
X66497505Y-50750401D01*
X66664599Y-50917495D01*
X66761384Y-50985265D01*
X66858165Y-51053032D01*
X66858167Y-51053033D01*
X66858170Y-51053035D01*
X67072337Y-51152903D01*
X67072343Y-51152904D01*
X67072344Y-51152905D01*
X67104657Y-51161563D01*
X67300592Y-51214063D01*
X67477034Y-51229500D01*
X67535999Y-51234659D01*
X67536000Y-51234659D01*
X67536001Y-51234659D01*
X67594966Y-51229500D01*
X67771408Y-51214063D01*
X67999663Y-51152903D01*
X68213830Y-51053035D01*
X68407401Y-50917495D01*
X68574495Y-50750401D01*
X68704425Y-50564842D01*
X68759002Y-50521217D01*
X68828500Y-50514023D01*
X68890855Y-50545546D01*
X68907575Y-50564842D01*
X69037500Y-50750395D01*
X69037505Y-50750401D01*
X69204599Y-50917495D01*
X69301384Y-50985265D01*
X69398165Y-51053032D01*
X69398167Y-51053033D01*
X69398170Y-51053035D01*
X69612337Y-51152903D01*
X69612343Y-51152904D01*
X69612344Y-51152905D01*
X69644657Y-51161563D01*
X69840592Y-51214063D01*
X70017034Y-51229500D01*
X70075999Y-51234659D01*
X70076000Y-51234659D01*
X70076001Y-51234659D01*
X70134966Y-51229500D01*
X70311408Y-51214063D01*
X70539663Y-51152903D01*
X70753830Y-51053035D01*
X70947401Y-50917495D01*
X71114495Y-50750401D01*
X71244425Y-50564842D01*
X71299002Y-50521217D01*
X71368500Y-50514023D01*
X71430855Y-50545546D01*
X71447575Y-50564842D01*
X71577500Y-50750395D01*
X71577505Y-50750401D01*
X71744599Y-50917495D01*
X71841384Y-50985265D01*
X71938165Y-51053032D01*
X71938167Y-51053033D01*
X71938170Y-51053035D01*
X72152337Y-51152903D01*
X72152343Y-51152904D01*
X72152344Y-51152905D01*
X72184657Y-51161563D01*
X72380592Y-51214063D01*
X72557034Y-51229500D01*
X72615999Y-51234659D01*
X72616000Y-51234659D01*
X72616001Y-51234659D01*
X72674966Y-51229500D01*
X72851408Y-51214063D01*
X73079663Y-51152903D01*
X73293830Y-51053035D01*
X73487401Y-50917495D01*
X73654495Y-50750401D01*
X73784425Y-50564842D01*
X73839002Y-50521217D01*
X73908500Y-50514023D01*
X73970855Y-50545546D01*
X73987575Y-50564842D01*
X74117500Y-50750395D01*
X74117505Y-50750401D01*
X74284599Y-50917495D01*
X74381384Y-50985265D01*
X74478165Y-51053032D01*
X74478167Y-51053033D01*
X74478170Y-51053035D01*
X74692337Y-51152903D01*
X74692343Y-51152904D01*
X74692344Y-51152905D01*
X74724657Y-51161563D01*
X74920592Y-51214063D01*
X75097034Y-51229500D01*
X75155999Y-51234659D01*
X75156000Y-51234659D01*
X75156001Y-51234659D01*
X75214966Y-51229500D01*
X75391408Y-51214063D01*
X75619663Y-51152903D01*
X75833830Y-51053035D01*
X76027401Y-50917495D01*
X76194495Y-50750401D01*
X76324425Y-50564842D01*
X76379002Y-50521217D01*
X76448500Y-50514023D01*
X76510855Y-50545546D01*
X76527575Y-50564842D01*
X76657500Y-50750395D01*
X76657505Y-50750401D01*
X76824599Y-50917495D01*
X76921384Y-50985265D01*
X77018165Y-51053032D01*
X77018167Y-51053033D01*
X77018170Y-51053035D01*
X77232337Y-51152903D01*
X77232343Y-51152904D01*
X77232344Y-51152905D01*
X77264657Y-51161563D01*
X77460592Y-51214063D01*
X77637034Y-51229500D01*
X77695999Y-51234659D01*
X77696000Y-51234659D01*
X77696001Y-51234659D01*
X77754966Y-51229500D01*
X77931408Y-51214063D01*
X78159663Y-51152903D01*
X78373830Y-51053035D01*
X78567401Y-50917495D01*
X78734495Y-50750401D01*
X78864425Y-50564842D01*
X78919002Y-50521217D01*
X78988500Y-50514023D01*
X79050855Y-50545546D01*
X79067575Y-50564842D01*
X79197500Y-50750395D01*
X79197505Y-50750401D01*
X79364599Y-50917495D01*
X79461384Y-50985265D01*
X79558165Y-51053032D01*
X79558167Y-51053033D01*
X79558170Y-51053035D01*
X79772337Y-51152903D01*
X79772343Y-51152904D01*
X79772344Y-51152905D01*
X79804657Y-51161563D01*
X80000592Y-51214063D01*
X80177034Y-51229500D01*
X80235999Y-51234659D01*
X80236000Y-51234659D01*
X80236001Y-51234659D01*
X80294966Y-51229500D01*
X80471408Y-51214063D01*
X80699663Y-51152903D01*
X80913830Y-51053035D01*
X81107401Y-50917495D01*
X81274495Y-50750401D01*
X81404425Y-50564842D01*
X81459002Y-50521217D01*
X81528500Y-50514023D01*
X81590855Y-50545546D01*
X81607575Y-50564842D01*
X81737500Y-50750395D01*
X81737505Y-50750401D01*
X81904599Y-50917495D01*
X82001384Y-50985265D01*
X82098165Y-51053032D01*
X82098167Y-51053033D01*
X82098170Y-51053035D01*
X82312337Y-51152903D01*
X82312343Y-51152904D01*
X82312344Y-51152905D01*
X82344657Y-51161563D01*
X82540592Y-51214063D01*
X82717034Y-51229500D01*
X82775999Y-51234659D01*
X82776000Y-51234659D01*
X82776001Y-51234659D01*
X82834966Y-51229500D01*
X83011408Y-51214063D01*
X83086354Y-51193981D01*
X83156203Y-51195644D01*
X83206128Y-51226075D01*
X83566024Y-51585971D01*
X83566031Y-51585977D01*
X83672571Y-51657164D01*
X83672570Y-51657164D01*
X83680035Y-51660256D01*
X83790956Y-51706201D01*
X83790960Y-51706201D01*
X83790961Y-51706202D01*
X83916628Y-51731200D01*
X83916631Y-51731200D01*
X94559892Y-51731200D01*
X94626931Y-51750885D01*
X94647573Y-51767519D01*
X94963181Y-52083127D01*
X94996666Y-52144450D01*
X94999500Y-52170808D01*
X94999500Y-57239293D01*
X94979815Y-57306332D01*
X94927011Y-57352087D01*
X94857853Y-57362031D01*
X94831874Y-57354293D01*
X94831577Y-57355111D01*
X94826488Y-57353258D01*
X94606697Y-57294366D01*
X94606693Y-57294365D01*
X94606692Y-57294365D01*
X94606691Y-57294364D01*
X94606686Y-57294364D01*
X94380002Y-57274532D01*
X94379998Y-57274532D01*
X94153313Y-57294364D01*
X94153302Y-57294366D01*
X93933511Y-57353258D01*
X93933502Y-57353261D01*
X93727267Y-57449431D01*
X93727265Y-57449432D01*
X93540858Y-57579954D01*
X93379954Y-57740858D01*
X93249432Y-57927265D01*
X93249431Y-57927267D01*
X93222382Y-57985275D01*
X93176209Y-58037714D01*
X93109016Y-58056866D01*
X93042135Y-58036650D01*
X92997618Y-57985275D01*
X92970568Y-57927266D01*
X92840047Y-57740861D01*
X92840045Y-57740858D01*
X92679141Y-57579954D01*
X92492734Y-57449432D01*
X92492732Y-57449431D01*
X92286497Y-57353261D01*
X92286488Y-57353258D01*
X92066697Y-57294366D01*
X92066693Y-57294365D01*
X92066692Y-57294365D01*
X92066691Y-57294364D01*
X92066686Y-57294364D01*
X91840002Y-57274532D01*
X91839998Y-57274532D01*
X91613313Y-57294364D01*
X91613302Y-57294366D01*
X91393511Y-57353258D01*
X91393502Y-57353261D01*
X91187267Y-57449431D01*
X91187265Y-57449432D01*
X91000858Y-57579954D01*
X90839954Y-57740858D01*
X90709432Y-57927265D01*
X90709431Y-57927267D01*
X90682382Y-57985275D01*
X90636209Y-58037714D01*
X90569016Y-58056866D01*
X90502135Y-58036650D01*
X90457618Y-57985275D01*
X90430568Y-57927266D01*
X90300047Y-57740861D01*
X90300045Y-57740858D01*
X90139141Y-57579954D01*
X89952734Y-57449432D01*
X89952732Y-57449431D01*
X89746497Y-57353261D01*
X89746488Y-57353258D01*
X89526697Y-57294366D01*
X89526693Y-57294365D01*
X89526692Y-57294365D01*
X89526691Y-57294364D01*
X89526686Y-57294364D01*
X89300002Y-57274532D01*
X89299998Y-57274532D01*
X89073313Y-57294364D01*
X89073302Y-57294366D01*
X88853511Y-57353258D01*
X88853502Y-57353261D01*
X88647267Y-57449431D01*
X88647265Y-57449432D01*
X88460858Y-57579954D01*
X88299954Y-57740858D01*
X88169433Y-57927264D01*
X88169432Y-57927266D01*
X88169315Y-57927518D01*
X88142106Y-57985867D01*
X88095933Y-58038306D01*
X88028739Y-58057457D01*
X87961858Y-58037241D01*
X87917342Y-57985865D01*
X87890135Y-57927520D01*
X87890134Y-57927518D01*
X87759657Y-57741179D01*
X87598820Y-57580342D01*
X87412482Y-57449865D01*
X87206328Y-57353734D01*
X87010000Y-57301127D01*
X87010000Y-58264314D01*
X87005606Y-58259920D01*
X86914394Y-58207259D01*
X86812661Y-58180000D01*
X86707339Y-58180000D01*
X86605606Y-58207259D01*
X86514394Y-58259920D01*
X86510000Y-58264314D01*
X86510000Y-57301127D01*
X86313671Y-57353734D01*
X86107517Y-57449865D01*
X85921179Y-57580342D01*
X85760342Y-57741179D01*
X85629865Y-57927517D01*
X85533734Y-58133673D01*
X85533730Y-58133682D01*
X85481127Y-58329999D01*
X85481128Y-58330000D01*
X86444314Y-58330000D01*
X86439920Y-58334394D01*
X86387259Y-58425606D01*
X86360000Y-58527339D01*
X86360000Y-58632661D01*
X86387259Y-58734394D01*
X86439920Y-58825606D01*
X86444314Y-58830000D01*
X85481128Y-58830000D01*
X85533730Y-59026317D01*
X85533734Y-59026326D01*
X85629865Y-59232482D01*
X85760342Y-59418820D01*
X85921179Y-59579657D01*
X86107517Y-59710134D01*
X86313673Y-59806265D01*
X86313682Y-59806269D01*
X86509999Y-59858872D01*
X86510000Y-59858871D01*
X86510000Y-58895686D01*
X86514394Y-58900080D01*
X86605606Y-58952741D01*
X86707339Y-58980000D01*
X86812661Y-58980000D01*
X86914394Y-58952741D01*
X87005606Y-58900080D01*
X87010000Y-58895686D01*
X87010000Y-59858872D01*
X87206317Y-59806269D01*
X87206326Y-59806265D01*
X87412482Y-59710134D01*
X87598820Y-59579657D01*
X87759657Y-59418820D01*
X87890132Y-59232484D01*
X87917341Y-59174134D01*
X87963513Y-59121695D01*
X88030707Y-59102542D01*
X88097588Y-59122757D01*
X88142106Y-59174133D01*
X88169431Y-59232732D01*
X88169432Y-59232734D01*
X88299954Y-59419141D01*
X88460858Y-59580045D01*
X88460861Y-59580047D01*
X88647266Y-59710568D01*
X88853504Y-59806739D01*
X89073308Y-59865635D01*
X89235230Y-59879801D01*
X89299998Y-59885468D01*
X89300000Y-59885468D01*
X89300002Y-59885468D01*
X89356807Y-59880498D01*
X89526692Y-59865635D01*
X89746496Y-59806739D01*
X89952734Y-59710568D01*
X90139139Y-59580047D01*
X90300047Y-59419139D01*
X90430568Y-59232734D01*
X90457618Y-59174724D01*
X90503790Y-59122285D01*
X90570983Y-59103133D01*
X90637865Y-59123348D01*
X90682382Y-59174725D01*
X90709429Y-59232728D01*
X90709432Y-59232734D01*
X90839954Y-59419141D01*
X91000858Y-59580045D01*
X91000861Y-59580047D01*
X91187266Y-59710568D01*
X91393504Y-59806739D01*
X91613308Y-59865635D01*
X91775230Y-59879801D01*
X91839998Y-59885468D01*
X91840000Y-59885468D01*
X91840002Y-59885468D01*
X91896807Y-59880498D01*
X92066692Y-59865635D01*
X92286496Y-59806739D01*
X92492734Y-59710568D01*
X92679139Y-59580047D01*
X92840047Y-59419139D01*
X92970568Y-59232734D01*
X92997618Y-59174724D01*
X93043790Y-59122285D01*
X93110983Y-59103133D01*
X93177865Y-59123348D01*
X93222382Y-59174725D01*
X93249429Y-59232728D01*
X93249432Y-59232734D01*
X93379954Y-59419141D01*
X93540858Y-59580045D01*
X93540861Y-59580047D01*
X93727266Y-59710568D01*
X93933504Y-59806739D01*
X94153308Y-59865635D01*
X94315230Y-59879801D01*
X94379998Y-59885468D01*
X94380000Y-59885468D01*
X94380002Y-59885468D01*
X94436807Y-59880498D01*
X94606692Y-59865635D01*
X94826496Y-59806739D01*
X94840283Y-59800309D01*
X94909360Y-59789817D01*
X94973144Y-59818335D01*
X95011385Y-59876811D01*
X95014303Y-59888487D01*
X95024499Y-59939744D01*
X95073535Y-60058127D01*
X95138166Y-60154855D01*
X95144726Y-60164673D01*
X95685326Y-60705273D01*
X95685329Y-60705275D01*
X95685331Y-60705277D01*
X95791873Y-60776465D01*
X95910256Y-60825501D01*
X95910260Y-60825501D01*
X95910261Y-60825502D01*
X96035928Y-60850500D01*
X96035931Y-60850500D01*
X114279192Y-60850500D01*
X114346231Y-60870185D01*
X114366873Y-60886819D01*
X116313181Y-62833127D01*
X116346666Y-62894450D01*
X116349500Y-62920808D01*
X116349500Y-90224069D01*
X116367757Y-90315849D01*
X116374499Y-90349744D01*
X116423535Y-90468127D01*
X116460556Y-90523533D01*
X116494726Y-90574673D01*
X116494727Y-90574674D01*
X117312290Y-91392236D01*
X117345775Y-91453559D01*
X117344384Y-91512008D01*
X117324937Y-91584589D01*
X117324937Y-91584590D01*
X117304341Y-91819999D01*
X117304341Y-91820000D01*
X117324936Y-92055403D01*
X117324938Y-92055413D01*
X117386094Y-92283655D01*
X117386096Y-92283659D01*
X117386097Y-92283663D01*
X117390000Y-92292032D01*
X117485965Y-92497830D01*
X117485967Y-92497834D01*
X117571885Y-92620536D01*
X117621501Y-92691396D01*
X117621506Y-92691402D01*
X117788597Y-92858493D01*
X117788603Y-92858498D01*
X117974158Y-92988425D01*
X118017783Y-93043002D01*
X118024977Y-93112500D01*
X117993454Y-93174855D01*
X117974158Y-93191575D01*
X117788597Y-93321505D01*
X117621505Y-93488597D01*
X117485965Y-93682169D01*
X117485964Y-93682171D01*
X117386098Y-93896335D01*
X117386094Y-93896344D01*
X117324938Y-94124586D01*
X117324936Y-94124596D01*
X117304341Y-94359999D01*
X117304341Y-94360002D01*
X117311205Y-94438462D01*
X117297438Y-94506962D01*
X117248823Y-94557145D01*
X117180794Y-94573078D01*
X117114950Y-94549702D01*
X117099996Y-94536950D01*
X113486819Y-90923773D01*
X113453334Y-90862450D01*
X113450500Y-90836092D01*
X113450500Y-87096682D01*
X113470185Y-87029643D01*
X113503371Y-86995111D01*
X113639139Y-86900047D01*
X113800047Y-86739139D01*
X113930568Y-86552734D01*
X114026739Y-86346496D01*
X114085635Y-86126692D01*
X114105468Y-85900000D01*
X114105424Y-85899501D01*
X114095234Y-85783023D01*
X114085635Y-85673308D01*
X114026739Y-85453504D01*
X113930568Y-85247266D01*
X113827729Y-85100396D01*
X113800045Y-85060858D01*
X113639141Y-84899954D01*
X113452734Y-84769432D01*
X113452732Y-84769431D01*
X113246497Y-84673261D01*
X113246488Y-84673258D01*
X113026697Y-84614366D01*
X113026693Y-84614365D01*
X113026692Y-84614365D01*
X113026691Y-84614364D01*
X113026686Y-84614364D01*
X112800002Y-84594532D01*
X112799998Y-84594532D01*
X112573313Y-84614364D01*
X112573302Y-84614366D01*
X112353511Y-84673258D01*
X112353502Y-84673261D01*
X112147267Y-84769431D01*
X112147265Y-84769432D01*
X111960858Y-84899954D01*
X111799954Y-85060858D01*
X111669432Y-85247265D01*
X111669431Y-85247267D01*
X111573261Y-85453502D01*
X111573258Y-85453511D01*
X111514366Y-85673302D01*
X111514364Y-85673313D01*
X111494532Y-85899998D01*
X111494532Y-85900001D01*
X111514364Y-86126686D01*
X111514366Y-86126697D01*
X111573258Y-86346488D01*
X111573261Y-86346497D01*
X111669431Y-86552732D01*
X111669432Y-86552734D01*
X111799954Y-86739141D01*
X111960855Y-86900042D01*
X111960858Y-86900044D01*
X111960861Y-86900047D01*
X112096626Y-86995109D01*
X112140248Y-87049683D01*
X112149500Y-87096682D01*
X112149500Y-91220970D01*
X112162885Y-91288256D01*
X112162885Y-91288258D01*
X112168796Y-91317977D01*
X112174499Y-91346644D01*
X112223535Y-91465027D01*
X112266501Y-91529331D01*
X112294726Y-91571573D01*
X112294727Y-91571574D01*
X117289103Y-96565949D01*
X117322588Y-96627272D01*
X117324950Y-96664437D01*
X117304341Y-96899998D01*
X117304341Y-96900000D01*
X117324936Y-97135403D01*
X117324938Y-97135413D01*
X117386094Y-97363655D01*
X117386096Y-97363659D01*
X117386097Y-97363663D01*
X117469155Y-97541781D01*
X117485965Y-97577830D01*
X117485967Y-97577834D01*
X117594281Y-97732521D01*
X117621505Y-97771401D01*
X117788599Y-97938495D01*
X117801127Y-97947267D01*
X117982165Y-98074032D01*
X117982167Y-98074033D01*
X117982170Y-98074035D01*
X118196337Y-98173903D01*
X118424592Y-98235063D01*
X118612918Y-98251539D01*
X118659999Y-98255659D01*
X118660000Y-98255659D01*
X118660001Y-98255659D01*
X118699234Y-98252226D01*
X118895408Y-98235063D01*
X119123663Y-98173903D01*
X119337830Y-98074035D01*
X119531401Y-97938495D01*
X119698495Y-97771401D01*
X119828730Y-97585405D01*
X119883307Y-97541781D01*
X119952805Y-97534587D01*
X120015160Y-97566110D01*
X120031879Y-97585405D01*
X120161890Y-97771078D01*
X120328917Y-97938105D01*
X120522421Y-98073600D01*
X120736507Y-98173429D01*
X120736516Y-98173433D01*
X120950000Y-98230634D01*
X120950000Y-97333012D01*
X121007007Y-97365925D01*
X121134174Y-97400000D01*
X121265826Y-97400000D01*
X121392993Y-97365925D01*
X121450000Y-97333012D01*
X121450000Y-98230633D01*
X121663483Y-98173433D01*
X121663492Y-98173429D01*
X121877578Y-98073600D01*
X122071082Y-97938105D01*
X122238105Y-97771082D01*
X122373600Y-97577578D01*
X122473429Y-97363492D01*
X122473432Y-97363486D01*
X122530636Y-97150000D01*
X121633012Y-97150000D01*
X121665925Y-97092993D01*
X121700000Y-96965826D01*
X121700000Y-96834174D01*
X121665925Y-96707007D01*
X121633012Y-96650000D01*
X122530636Y-96650000D01*
X122530635Y-96649999D01*
X122473432Y-96436513D01*
X122473429Y-96436507D01*
X122373600Y-96222422D01*
X122373599Y-96222420D01*
X122238113Y-96028926D01*
X122238108Y-96028920D01*
X122071078Y-95861890D01*
X121885405Y-95731879D01*
X121841780Y-95677302D01*
X121834588Y-95607804D01*
X121866110Y-95545449D01*
X121885406Y-95528730D01*
X121905817Y-95514438D01*
X122071401Y-95398495D01*
X122238495Y-95231401D01*
X122374035Y-95037830D01*
X122473903Y-94823663D01*
X122535063Y-94595408D01*
X122555659Y-94360000D01*
X122535063Y-94124592D01*
X122473903Y-93896337D01*
X122374035Y-93682171D01*
X122368425Y-93674158D01*
X122238494Y-93488597D01*
X122071402Y-93321506D01*
X122071396Y-93321501D01*
X121885842Y-93191575D01*
X121842217Y-93136998D01*
X121835023Y-93067500D01*
X121866546Y-93005145D01*
X121885842Y-92988425D01*
X122013435Y-92899083D01*
X122071401Y-92858495D01*
X122238495Y-92691401D01*
X122374035Y-92497830D01*
X122473903Y-92283663D01*
X122535063Y-92055408D01*
X122555659Y-91820000D01*
X122535063Y-91584592D01*
X122473903Y-91356337D01*
X122374035Y-91142171D01*
X122368425Y-91134158D01*
X122238494Y-90948597D01*
X122071402Y-90781506D01*
X122071396Y-90781501D01*
X121885842Y-90651575D01*
X121842217Y-90596998D01*
X121835023Y-90527500D01*
X121866546Y-90465145D01*
X121885842Y-90448425D01*
X121959823Y-90396623D01*
X122071401Y-90318495D01*
X122238495Y-90151401D01*
X122374035Y-89957830D01*
X122473903Y-89743663D01*
X122535063Y-89515408D01*
X122555659Y-89280000D01*
X122535063Y-89044592D01*
X122473903Y-88816337D01*
X122374035Y-88602171D01*
X122368425Y-88594158D01*
X122238494Y-88408597D01*
X122071402Y-88241506D01*
X122071396Y-88241501D01*
X121885842Y-88111575D01*
X121842217Y-88056998D01*
X121835023Y-87987500D01*
X121866546Y-87925145D01*
X121885842Y-87908425D01*
X121965377Y-87852734D01*
X122071401Y-87778495D01*
X122238495Y-87611401D01*
X122374035Y-87417830D01*
X122473903Y-87203663D01*
X122535063Y-86975408D01*
X122555659Y-86740000D01*
X122535063Y-86504592D01*
X122473903Y-86276337D01*
X122374035Y-86062171D01*
X122368425Y-86054158D01*
X122238494Y-85868597D01*
X122071402Y-85701506D01*
X122071401Y-85701505D01*
X121885405Y-85571269D01*
X121841781Y-85516692D01*
X121834588Y-85447193D01*
X121866110Y-85384839D01*
X121885405Y-85368119D01*
X122071082Y-85238105D01*
X122238105Y-85071082D01*
X122373600Y-84877578D01*
X122473429Y-84663492D01*
X122473432Y-84663486D01*
X122530636Y-84450000D01*
X121633012Y-84450000D01*
X121665925Y-84392993D01*
X121700000Y-84265826D01*
X121700000Y-84134174D01*
X121665925Y-84007007D01*
X121633012Y-83950000D01*
X122530636Y-83950000D01*
X122530635Y-83949999D01*
X122473432Y-83736513D01*
X122473429Y-83736507D01*
X122373600Y-83522422D01*
X122373599Y-83522420D01*
X122238113Y-83328926D01*
X122238108Y-83328920D01*
X122071078Y-83161890D01*
X121885405Y-83031879D01*
X121841780Y-82977302D01*
X121834588Y-82907804D01*
X121866110Y-82845449D01*
X121885406Y-82828730D01*
X121885842Y-82828425D01*
X122071401Y-82698495D01*
X122238495Y-82531401D01*
X122374035Y-82337830D01*
X122473903Y-82123663D01*
X122535063Y-81895408D01*
X122555659Y-81660000D01*
X122535063Y-81424592D01*
X122473903Y-81196337D01*
X122374035Y-80982171D01*
X122368425Y-80974158D01*
X122238494Y-80788597D01*
X122071402Y-80621506D01*
X122071401Y-80621505D01*
X121885405Y-80491269D01*
X121841781Y-80436692D01*
X121834588Y-80367193D01*
X121866110Y-80304839D01*
X121885405Y-80288119D01*
X122071082Y-80158105D01*
X122238105Y-79991082D01*
X122373600Y-79797578D01*
X122473429Y-79583492D01*
X122473432Y-79583486D01*
X122530636Y-79370000D01*
X121633012Y-79370000D01*
X121665925Y-79312993D01*
X121700000Y-79185826D01*
X121700000Y-79054174D01*
X121665925Y-78927007D01*
X121633012Y-78870000D01*
X122530636Y-78870000D01*
X122530635Y-78869999D01*
X122473432Y-78656513D01*
X122473429Y-78656507D01*
X122373600Y-78442422D01*
X122373599Y-78442420D01*
X122238113Y-78248926D01*
X122238108Y-78248920D01*
X122071082Y-78081894D01*
X121884968Y-77951575D01*
X121841344Y-77896998D01*
X121834151Y-77827499D01*
X121865673Y-77765145D01*
X121884968Y-77748425D01*
X122071082Y-77618105D01*
X122238105Y-77451082D01*
X122373600Y-77257578D01*
X122473429Y-77043492D01*
X122473432Y-77043486D01*
X122530636Y-76830000D01*
X121633012Y-76830000D01*
X121665925Y-76772993D01*
X121700000Y-76645826D01*
X121700000Y-76514174D01*
X121665925Y-76387007D01*
X121633012Y-76330000D01*
X122530636Y-76330000D01*
X122530635Y-76329999D01*
X122473432Y-76116513D01*
X122473429Y-76116507D01*
X122373600Y-75902422D01*
X122373599Y-75902420D01*
X122238113Y-75708926D01*
X122238108Y-75708920D01*
X122071082Y-75541894D01*
X121884968Y-75411575D01*
X121841344Y-75356998D01*
X121834151Y-75287499D01*
X121865673Y-75225145D01*
X121884968Y-75208425D01*
X122071082Y-75078105D01*
X122238105Y-74911082D01*
X122373600Y-74717578D01*
X122473429Y-74503492D01*
X122473432Y-74503486D01*
X122530636Y-74290000D01*
X121633012Y-74290000D01*
X121665925Y-74232993D01*
X121700000Y-74105826D01*
X121700000Y-73974174D01*
X121665925Y-73847007D01*
X121633012Y-73790000D01*
X122530636Y-73790000D01*
X122530635Y-73789999D01*
X122473432Y-73576513D01*
X122473429Y-73576507D01*
X122373600Y-73362422D01*
X122373599Y-73362420D01*
X122238113Y-73168926D01*
X122238108Y-73168920D01*
X122071078Y-73001890D01*
X121885405Y-72871879D01*
X121841780Y-72817302D01*
X121834588Y-72747804D01*
X121866110Y-72685449D01*
X121885406Y-72668730D01*
X121886279Y-72668119D01*
X122071401Y-72538495D01*
X122238495Y-72371401D01*
X122374035Y-72177830D01*
X122473903Y-71963663D01*
X122535063Y-71735408D01*
X122555659Y-71500000D01*
X122535063Y-71264592D01*
X122485415Y-71079300D01*
X122473905Y-71036344D01*
X122473904Y-71036343D01*
X122473903Y-71036337D01*
X122374035Y-70822171D01*
X122368731Y-70814595D01*
X122238494Y-70628597D01*
X122071402Y-70461506D01*
X122071396Y-70461501D01*
X121885842Y-70331575D01*
X121842217Y-70276998D01*
X121835023Y-70207500D01*
X121866546Y-70145145D01*
X121885842Y-70128425D01*
X121908026Y-70112891D01*
X122071401Y-69998495D01*
X122238495Y-69831401D01*
X122374035Y-69637830D01*
X122473903Y-69423663D01*
X122535063Y-69195408D01*
X122555659Y-68960000D01*
X122535063Y-68724592D01*
X122473903Y-68496337D01*
X122374035Y-68282171D01*
X122368425Y-68274158D01*
X122238494Y-68088597D01*
X122071402Y-67921506D01*
X122071396Y-67921501D01*
X121885842Y-67791575D01*
X121842217Y-67736998D01*
X121835023Y-67667500D01*
X121866546Y-67605145D01*
X121885842Y-67588425D01*
X121908026Y-67572891D01*
X122071401Y-67458495D01*
X122238495Y-67291401D01*
X122374035Y-67097830D01*
X122473903Y-66883663D01*
X122535063Y-66655408D01*
X122555659Y-66420000D01*
X122535063Y-66184592D01*
X122473903Y-65956337D01*
X122374035Y-65742171D01*
X122368425Y-65734158D01*
X122238494Y-65548597D01*
X122071402Y-65381506D01*
X122071396Y-65381501D01*
X121885842Y-65251575D01*
X121842217Y-65196998D01*
X121835023Y-65127500D01*
X121866546Y-65065145D01*
X121885842Y-65048425D01*
X121948610Y-65004474D01*
X122071401Y-64918495D01*
X122238495Y-64751401D01*
X122374035Y-64557830D01*
X122473903Y-64343663D01*
X122535063Y-64115408D01*
X122555659Y-63880000D01*
X122535063Y-63644592D01*
X122473903Y-63416337D01*
X122374035Y-63202171D01*
X122368425Y-63194158D01*
X122238494Y-63008597D01*
X122071402Y-62841506D01*
X122071396Y-62841501D01*
X121885842Y-62711575D01*
X121842217Y-62656998D01*
X121835023Y-62587500D01*
X121866546Y-62525145D01*
X121885842Y-62508425D01*
X121908026Y-62492891D01*
X122071401Y-62378495D01*
X122238495Y-62211401D01*
X122374035Y-62017830D01*
X122473903Y-61803663D01*
X122535063Y-61575408D01*
X122555659Y-61340000D01*
X122535063Y-61104592D01*
X122473903Y-60876337D01*
X122374035Y-60662171D01*
X122368425Y-60654158D01*
X122238494Y-60468597D01*
X122071402Y-60301506D01*
X122071396Y-60301501D01*
X121885842Y-60171575D01*
X121842217Y-60116998D01*
X121835023Y-60047500D01*
X121866546Y-59985145D01*
X121885842Y-59968425D01*
X121908026Y-59952891D01*
X122071401Y-59838495D01*
X122238495Y-59671401D01*
X122374035Y-59477830D01*
X122473903Y-59263663D01*
X122535063Y-59035408D01*
X122555659Y-58800000D01*
X122535063Y-58564592D01*
X122487505Y-58387102D01*
X122473905Y-58336344D01*
X122473904Y-58336343D01*
X122473903Y-58336337D01*
X122374035Y-58122171D01*
X122368425Y-58114158D01*
X122238494Y-57928597D01*
X122071402Y-57761506D01*
X122071396Y-57761501D01*
X121885842Y-57631575D01*
X121842217Y-57576998D01*
X121835023Y-57507500D01*
X121866546Y-57445145D01*
X121885842Y-57428425D01*
X121991713Y-57354293D01*
X122071401Y-57298495D01*
X122238495Y-57131401D01*
X122374035Y-56937830D01*
X122473903Y-56723663D01*
X122535063Y-56495408D01*
X122555659Y-56260000D01*
X122535063Y-56024592D01*
X122473903Y-55796337D01*
X122374035Y-55582171D01*
X122368425Y-55574158D01*
X122238494Y-55388597D01*
X122071402Y-55221506D01*
X122071396Y-55221501D01*
X121885842Y-55091575D01*
X121842217Y-55036998D01*
X121835023Y-54967500D01*
X121866546Y-54905145D01*
X121885842Y-54888425D01*
X121908026Y-54872891D01*
X122071401Y-54758495D01*
X122238495Y-54591401D01*
X122374035Y-54397830D01*
X122473903Y-54183663D01*
X122535063Y-53955408D01*
X122555659Y-53720000D01*
X122535063Y-53484592D01*
X122473903Y-53256337D01*
X122374035Y-53042171D01*
X122368425Y-53034158D01*
X122238494Y-52848597D01*
X122071402Y-52681506D01*
X122071396Y-52681501D01*
X121885842Y-52551575D01*
X121842217Y-52496998D01*
X121835023Y-52427500D01*
X121866546Y-52365145D01*
X121885842Y-52348425D01*
X121908026Y-52332891D01*
X122071401Y-52218495D01*
X122238495Y-52051401D01*
X122374035Y-51857830D01*
X122473903Y-51643663D01*
X122535063Y-51415408D01*
X122555659Y-51180000D01*
X122555028Y-51172793D01*
X122542986Y-51035147D01*
X122535063Y-50944592D01*
X122473903Y-50716337D01*
X122374035Y-50502171D01*
X122368425Y-50494158D01*
X122238494Y-50308597D01*
X122071402Y-50141506D01*
X122071401Y-50141505D01*
X121885405Y-50011269D01*
X121841781Y-49956692D01*
X121834588Y-49887193D01*
X121866110Y-49824839D01*
X121885405Y-49808119D01*
X122071082Y-49678105D01*
X122238105Y-49511082D01*
X122373600Y-49317578D01*
X122473429Y-49103492D01*
X122473432Y-49103486D01*
X122530636Y-48890000D01*
X121633012Y-48890000D01*
X121665925Y-48832993D01*
X121700000Y-48705826D01*
X121700000Y-48574174D01*
X121665925Y-48447007D01*
X121633012Y-48390000D01*
X122530636Y-48390000D01*
X122530635Y-48389999D01*
X122473432Y-48176513D01*
X122473429Y-48176507D01*
X122373600Y-47962422D01*
X122373599Y-47962420D01*
X122238113Y-47768926D01*
X122238108Y-47768920D01*
X122071082Y-47601894D01*
X121877578Y-47466399D01*
X121663492Y-47366570D01*
X121663486Y-47366567D01*
X121450000Y-47309364D01*
X121450000Y-48206988D01*
X121392993Y-48174075D01*
X121265826Y-48140000D01*
X121134174Y-48140000D01*
X121007007Y-48174075D01*
X120950000Y-48206988D01*
X120950000Y-47309364D01*
X120949999Y-47309364D01*
X120736513Y-47366567D01*
X120736507Y-47366570D01*
X120522422Y-47466399D01*
X120522420Y-47466400D01*
X120328926Y-47601886D01*
X120206865Y-47723947D01*
X120145542Y-47757431D01*
X120075850Y-47752447D01*
X120019917Y-47710575D01*
X120003002Y-47679598D01*
X119986342Y-47634931D01*
X119953796Y-47547669D01*
X119953795Y-47547668D01*
X119953793Y-47547664D01*
X119867547Y-47432455D01*
X119867544Y-47432452D01*
X119752335Y-47346206D01*
X119752328Y-47346202D01*
X119617482Y-47295908D01*
X119617483Y-47295908D01*
X119557883Y-47289501D01*
X119557881Y-47289500D01*
X119557873Y-47289500D01*
X119557864Y-47289500D01*
X117762129Y-47289500D01*
X117762123Y-47289501D01*
X117702516Y-47295908D01*
X117567671Y-47346202D01*
X117567664Y-47346206D01*
X117452455Y-47432452D01*
X117452452Y-47432455D01*
X117366206Y-47547664D01*
X117366202Y-47547671D01*
X117315908Y-47682517D01*
X117309501Y-47742116D01*
X117309500Y-47742135D01*
X117309500Y-49537870D01*
X117309501Y-49537876D01*
X117315908Y-49597483D01*
X117366202Y-49732328D01*
X117366206Y-49732335D01*
X117452452Y-49847544D01*
X117452455Y-49847547D01*
X117567664Y-49933793D01*
X117567671Y-49933797D01*
X117699081Y-49982810D01*
X117755015Y-50024681D01*
X117779432Y-50090145D01*
X117764580Y-50158418D01*
X117743430Y-50186673D01*
X117621503Y-50308600D01*
X117485965Y-50502169D01*
X117485964Y-50502171D01*
X117386098Y-50716335D01*
X117386094Y-50716344D01*
X117324938Y-50944586D01*
X117324936Y-50944596D01*
X117304341Y-51179999D01*
X117304341Y-51180000D01*
X117324936Y-51415403D01*
X117324938Y-51415413D01*
X117386094Y-51643655D01*
X117386096Y-51643659D01*
X117386097Y-51643663D01*
X117452438Y-51785931D01*
X117485965Y-51857830D01*
X117485967Y-51857834D01*
X117594281Y-52012521D01*
X117621501Y-52051396D01*
X117621506Y-52051402D01*
X117788597Y-52218493D01*
X117788603Y-52218498D01*
X117974158Y-52348425D01*
X118017783Y-52403002D01*
X118024977Y-52472500D01*
X117993454Y-52534855D01*
X117974158Y-52551575D01*
X117788597Y-52681505D01*
X117621505Y-52848597D01*
X117485965Y-53042169D01*
X117485964Y-53042171D01*
X117386098Y-53256335D01*
X117386094Y-53256344D01*
X117324938Y-53484586D01*
X117324936Y-53484596D01*
X117304341Y-53719999D01*
X117304341Y-53720000D01*
X117324936Y-53955403D01*
X117324938Y-53955413D01*
X117386094Y-54183655D01*
X117386096Y-54183659D01*
X117386097Y-54183663D01*
X117390000Y-54192032D01*
X117485965Y-54397830D01*
X117485967Y-54397834D01*
X117594281Y-54552521D01*
X117621501Y-54591396D01*
X117621506Y-54591402D01*
X117788597Y-54758493D01*
X117788603Y-54758498D01*
X117974158Y-54888425D01*
X118017783Y-54943002D01*
X118024977Y-55012500D01*
X117993454Y-55074855D01*
X117974158Y-55091575D01*
X117788597Y-55221505D01*
X117621505Y-55388597D01*
X117485965Y-55582169D01*
X117485964Y-55582171D01*
X117386098Y-55796335D01*
X117386094Y-55796344D01*
X117324938Y-56024586D01*
X117324936Y-56024596D01*
X117304341Y-56259999D01*
X117304341Y-56260000D01*
X117324936Y-56495403D01*
X117324938Y-56495413D01*
X117386094Y-56723655D01*
X117386096Y-56723659D01*
X117386097Y-56723663D01*
X117390000Y-56732032D01*
X117485965Y-56937830D01*
X117485967Y-56937834D01*
X117574164Y-57063791D01*
X117621501Y-57131396D01*
X117621506Y-57131402D01*
X117788597Y-57298493D01*
X117788603Y-57298498D01*
X117974158Y-57428425D01*
X118017783Y-57483002D01*
X118024977Y-57552500D01*
X117993454Y-57614855D01*
X117974158Y-57631575D01*
X117788597Y-57761505D01*
X117621505Y-57928597D01*
X117485965Y-58122169D01*
X117485964Y-58122171D01*
X117405393Y-58294957D01*
X117389053Y-58329999D01*
X117386098Y-58336335D01*
X117386094Y-58336344D01*
X117324938Y-58564586D01*
X117324936Y-58564596D01*
X117304341Y-58799999D01*
X117304341Y-58800000D01*
X117324936Y-59035403D01*
X117324938Y-59035413D01*
X117386094Y-59263655D01*
X117386096Y-59263659D01*
X117386097Y-59263663D01*
X117466004Y-59435023D01*
X117485965Y-59477830D01*
X117485967Y-59477834D01*
X117543445Y-59559920D01*
X117621501Y-59671396D01*
X117621506Y-59671402D01*
X117788597Y-59838493D01*
X117788603Y-59838498D01*
X117974158Y-59968425D01*
X118017783Y-60023002D01*
X118024977Y-60092500D01*
X117993454Y-60154855D01*
X117974158Y-60171575D01*
X117788597Y-60301505D01*
X117621505Y-60468597D01*
X117485965Y-60662169D01*
X117485964Y-60662171D01*
X117386098Y-60876335D01*
X117386094Y-60876344D01*
X117324938Y-61104586D01*
X117324936Y-61104596D01*
X117304341Y-61339999D01*
X117304341Y-61340000D01*
X117324936Y-61575403D01*
X117324938Y-61575413D01*
X117362399Y-61715222D01*
X117360736Y-61785072D01*
X117321573Y-61842934D01*
X117257344Y-61870438D01*
X117188442Y-61858851D01*
X117154943Y-61834996D01*
X115014673Y-59694726D01*
X114979766Y-59671402D01*
X114908127Y-59623535D01*
X114905220Y-59622331D01*
X114789744Y-59574499D01*
X114789738Y-59574497D01*
X114664071Y-59549500D01*
X114664069Y-59549500D01*
X111044500Y-59549500D01*
X110977461Y-59529815D01*
X110931706Y-59477011D01*
X110920500Y-59425500D01*
X110920499Y-57732129D01*
X110920498Y-57732123D01*
X110920461Y-57731781D01*
X110914091Y-57672517D01*
X110911214Y-57664804D01*
X110863797Y-57537671D01*
X110863793Y-57537664D01*
X110777547Y-57422455D01*
X110777544Y-57422452D01*
X110662335Y-57336206D01*
X110662328Y-57336202D01*
X110527482Y-57285908D01*
X110527483Y-57285908D01*
X110467883Y-57279501D01*
X110467881Y-57279500D01*
X110467873Y-57279500D01*
X110467864Y-57279500D01*
X108772129Y-57279500D01*
X108772123Y-57279501D01*
X108712516Y-57285908D01*
X108577671Y-57336202D01*
X108577664Y-57336206D01*
X108462455Y-57422452D01*
X108462452Y-57422455D01*
X108376206Y-57537664D01*
X108376202Y-57537671D01*
X108325908Y-57672516D01*
X108322137Y-57707596D01*
X108295398Y-57772146D01*
X108238006Y-57811994D01*
X108168180Y-57814487D01*
X108108092Y-57778834D01*
X108097273Y-57765462D01*
X108080045Y-57740858D01*
X107919141Y-57579954D01*
X107732734Y-57449432D01*
X107732732Y-57449431D01*
X107526497Y-57353261D01*
X107526488Y-57353258D01*
X107306697Y-57294366D01*
X107306693Y-57294365D01*
X107306692Y-57294365D01*
X107306691Y-57294364D01*
X107306686Y-57294364D01*
X107080002Y-57274532D01*
X107079998Y-57274532D01*
X106853313Y-57294364D01*
X106853299Y-57294367D01*
X106812834Y-57305209D01*
X106742984Y-57303545D01*
X106693061Y-57273115D01*
X105086819Y-55666873D01*
X105053334Y-55605550D01*
X105050500Y-55579192D01*
X105050500Y-51281338D01*
X105070185Y-51214299D01*
X105122989Y-51168544D01*
X105192147Y-51158600D01*
X105206593Y-51161563D01*
X105386000Y-51209634D01*
X105386000Y-50312012D01*
X105443007Y-50344925D01*
X105570174Y-50379000D01*
X105701826Y-50379000D01*
X105828993Y-50344925D01*
X105886000Y-50312012D01*
X105886000Y-51209633D01*
X106099483Y-51152433D01*
X106099492Y-51152429D01*
X106313578Y-51052600D01*
X106507082Y-50917105D01*
X106674105Y-50750082D01*
X106804119Y-50564405D01*
X106858696Y-50520781D01*
X106928195Y-50513588D01*
X106990549Y-50545110D01*
X107007269Y-50564405D01*
X107137505Y-50750401D01*
X107304599Y-50917495D01*
X107401384Y-50985265D01*
X107498165Y-51053032D01*
X107498167Y-51053033D01*
X107498170Y-51053035D01*
X107712337Y-51152903D01*
X107712343Y-51152904D01*
X107712344Y-51152905D01*
X107744657Y-51161563D01*
X107940592Y-51214063D01*
X108117034Y-51229500D01*
X108175999Y-51234659D01*
X108176000Y-51234659D01*
X108176001Y-51234659D01*
X108234966Y-51229500D01*
X108411408Y-51214063D01*
X108639663Y-51152903D01*
X108853830Y-51053035D01*
X109047401Y-50917495D01*
X109214495Y-50750401D01*
X109350035Y-50556830D01*
X109449903Y-50342663D01*
X109511063Y-50114408D01*
X109531659Y-49879000D01*
X109511063Y-49643592D01*
X109449903Y-49415337D01*
X109350035Y-49201171D01*
X109283344Y-49105925D01*
X109214494Y-49007597D01*
X109047402Y-48840506D01*
X109047396Y-48840501D01*
X108861842Y-48710575D01*
X108818217Y-48655998D01*
X108811023Y-48586500D01*
X108842546Y-48524145D01*
X108861842Y-48507425D01*
X108924800Y-48463341D01*
X109047401Y-48377495D01*
X109214495Y-48210401D01*
X109350035Y-48016830D01*
X109449903Y-47802663D01*
X109511063Y-47574408D01*
X109531659Y-47339000D01*
X109511063Y-47103592D01*
X109506558Y-47086779D01*
X109508219Y-47016932D01*
X109538647Y-46967008D01*
X109964114Y-46541543D01*
X110040775Y-46426811D01*
X110093580Y-46299328D01*
X110102389Y-46255040D01*
X110120500Y-46163996D01*
X110120500Y-43431004D01*
X110093581Y-43295677D01*
X110093580Y-43295676D01*
X110093580Y-43295672D01*
X110093578Y-43295667D01*
X110040777Y-43168193D01*
X110040776Y-43168191D01*
X110009512Y-43121401D01*
X110009512Y-43121400D01*
X109964115Y-43053458D01*
X109964109Y-43053451D01*
X109532651Y-42621994D01*
X109499166Y-42560671D01*
X109500558Y-42502217D01*
X109505063Y-42485408D01*
X109525659Y-42250000D01*
X109505063Y-42014592D01*
X109443903Y-41786337D01*
X109344035Y-41572171D01*
X109338731Y-41564595D01*
X109208494Y-41378597D01*
X109041402Y-41211506D01*
X109041395Y-41211501D01*
X108847834Y-41075967D01*
X108847830Y-41075965D01*
X108847828Y-41075964D01*
X108633663Y-40976097D01*
X108633659Y-40976096D01*
X108633655Y-40976094D01*
X108405413Y-40914938D01*
X108405403Y-40914936D01*
X108170001Y-40894341D01*
X108169999Y-40894341D01*
X107934596Y-40914936D01*
X107934586Y-40914938D01*
X107706344Y-40976094D01*
X107706335Y-40976098D01*
X107492171Y-41075964D01*
X107492169Y-41075965D01*
X107298597Y-41211505D01*
X107131508Y-41378594D01*
X107001269Y-41564595D01*
X106946692Y-41608219D01*
X106877193Y-41615412D01*
X106814839Y-41583890D01*
X106798119Y-41564594D01*
X106668113Y-41378926D01*
X106668108Y-41378920D01*
X106501082Y-41211894D01*
X106307578Y-41076399D01*
X106093492Y-40976570D01*
X106093486Y-40976567D01*
X105880000Y-40919364D01*
X105880000Y-41816988D01*
X105822993Y-41784075D01*
X105695826Y-41750000D01*
X105564174Y-41750000D01*
X105437007Y-41784075D01*
X105380000Y-41816988D01*
X105380000Y-40919364D01*
X105379999Y-40919364D01*
X105166513Y-40976567D01*
X105166507Y-40976570D01*
X104952422Y-41076399D01*
X104952420Y-41076400D01*
X104758926Y-41211886D01*
X104758920Y-41211891D01*
X104591891Y-41378920D01*
X104591890Y-41378922D01*
X104461880Y-41564595D01*
X104407303Y-41608219D01*
X104337804Y-41615412D01*
X104275450Y-41583890D01*
X104258730Y-41564594D01*
X104128494Y-41378597D01*
X103961402Y-41211506D01*
X103961395Y-41211501D01*
X103767834Y-41075967D01*
X103767830Y-41075965D01*
X103767828Y-41075964D01*
X103553663Y-40976097D01*
X103553659Y-40976096D01*
X103553655Y-40976094D01*
X103325413Y-40914938D01*
X103325403Y-40914936D01*
X103090001Y-40894341D01*
X103089999Y-40894341D01*
X102854596Y-40914936D01*
X102854586Y-40914938D01*
X102626344Y-40976094D01*
X102626335Y-40976098D01*
X102412171Y-41075964D01*
X102412169Y-41075965D01*
X102218597Y-41211505D01*
X102051505Y-41378597D01*
X101921575Y-41564158D01*
X101866998Y-41607783D01*
X101797500Y-41614977D01*
X101735145Y-41583454D01*
X101718425Y-41564158D01*
X101588494Y-41378597D01*
X101421402Y-41211506D01*
X101421395Y-41211501D01*
X101227834Y-41075967D01*
X101227830Y-41075965D01*
X101227828Y-41075964D01*
X101013663Y-40976097D01*
X101013659Y-40976096D01*
X101013655Y-40976094D01*
X100785413Y-40914938D01*
X100785403Y-40914936D01*
X100550001Y-40894341D01*
X100549999Y-40894341D01*
X100314596Y-40914936D01*
X100314586Y-40914938D01*
X100086344Y-40976094D01*
X100086335Y-40976098D01*
X99872171Y-41075964D01*
X99872169Y-41075965D01*
X99678597Y-41211505D01*
X99511505Y-41378597D01*
X99381575Y-41564158D01*
X99326998Y-41607783D01*
X99257500Y-41614977D01*
X99195145Y-41583454D01*
X99178425Y-41564158D01*
X99048494Y-41378597D01*
X98881402Y-41211506D01*
X98881395Y-41211501D01*
X98687834Y-41075967D01*
X98687830Y-41075965D01*
X98687828Y-41075964D01*
X98473663Y-40976097D01*
X98473659Y-40976096D01*
X98473655Y-40976094D01*
X98245413Y-40914938D01*
X98245403Y-40914936D01*
X98010001Y-40894341D01*
X98009999Y-40894341D01*
X97774596Y-40914936D01*
X97774586Y-40914938D01*
X97546344Y-40976094D01*
X97546335Y-40976098D01*
X97332171Y-41075964D01*
X97332169Y-41075965D01*
X97138597Y-41211505D01*
X96971505Y-41378597D01*
X96841575Y-41564158D01*
X96786998Y-41607783D01*
X96717500Y-41614977D01*
X96655145Y-41583454D01*
X96638425Y-41564158D01*
X96508494Y-41378597D01*
X96341402Y-41211506D01*
X96341395Y-41211501D01*
X96147834Y-41075967D01*
X96147830Y-41075965D01*
X96147828Y-41075964D01*
X95933663Y-40976097D01*
X95933659Y-40976096D01*
X95933655Y-40976094D01*
X95705413Y-40914938D01*
X95705403Y-40914936D01*
X95470001Y-40894341D01*
X95469999Y-40894341D01*
X95234596Y-40914936D01*
X95234586Y-40914938D01*
X95006344Y-40976094D01*
X95006335Y-40976098D01*
X94792171Y-41075964D01*
X94792169Y-41075965D01*
X94598597Y-41211505D01*
X94431505Y-41378597D01*
X94301575Y-41564158D01*
X94246998Y-41607783D01*
X94177500Y-41614977D01*
X94115145Y-41583454D01*
X94098425Y-41564158D01*
X93968494Y-41378597D01*
X93801402Y-41211506D01*
X93801395Y-41211501D01*
X93607834Y-41075967D01*
X93607830Y-41075965D01*
X93607828Y-41075964D01*
X93393663Y-40976097D01*
X93393659Y-40976096D01*
X93393655Y-40976094D01*
X93165413Y-40914938D01*
X93165403Y-40914936D01*
X92930001Y-40894341D01*
X92929999Y-40894341D01*
X92694596Y-40914936D01*
X92694586Y-40914938D01*
X92466344Y-40976094D01*
X92466335Y-40976098D01*
X92252171Y-41075964D01*
X92252169Y-41075965D01*
X92058597Y-41211505D01*
X91891505Y-41378597D01*
X91761575Y-41564158D01*
X91706998Y-41607783D01*
X91637500Y-41614977D01*
X91575145Y-41583454D01*
X91558425Y-41564158D01*
X91428494Y-41378597D01*
X91261402Y-41211506D01*
X91261395Y-41211501D01*
X91067834Y-41075967D01*
X91067830Y-41075965D01*
X91067828Y-41075964D01*
X90853663Y-40976097D01*
X90853659Y-40976096D01*
X90853655Y-40976094D01*
X90625413Y-40914938D01*
X90625403Y-40914936D01*
X90390001Y-40894341D01*
X90389999Y-40894341D01*
X90154596Y-40914936D01*
X90154586Y-40914938D01*
X89926344Y-40976094D01*
X89926335Y-40976098D01*
X89712171Y-41075964D01*
X89712169Y-41075965D01*
X89518597Y-41211505D01*
X89351505Y-41378597D01*
X89221575Y-41564158D01*
X89166998Y-41607783D01*
X89097500Y-41614977D01*
X89035145Y-41583454D01*
X89018425Y-41564158D01*
X88888494Y-41378597D01*
X88721402Y-41211506D01*
X88721395Y-41211501D01*
X88527834Y-41075967D01*
X88527830Y-41075965D01*
X88527828Y-41075964D01*
X88313663Y-40976097D01*
X88313659Y-40976096D01*
X88313655Y-40976094D01*
X88085413Y-40914938D01*
X88085403Y-40914936D01*
X87850001Y-40894341D01*
X87849999Y-40894341D01*
X87614596Y-40914936D01*
X87614586Y-40914938D01*
X87386344Y-40976094D01*
X87386335Y-40976098D01*
X87172171Y-41075964D01*
X87172169Y-41075965D01*
X86978597Y-41211505D01*
X86811505Y-41378597D01*
X86681575Y-41564158D01*
X86626998Y-41607783D01*
X86557500Y-41614977D01*
X86495145Y-41583454D01*
X86478425Y-41564158D01*
X86348494Y-41378597D01*
X86181402Y-41211506D01*
X86181395Y-41211501D01*
X85987834Y-41075967D01*
X85987830Y-41075965D01*
X85987828Y-41075964D01*
X85773663Y-40976097D01*
X85773659Y-40976096D01*
X85773655Y-40976094D01*
X85545413Y-40914938D01*
X85545403Y-40914936D01*
X85310001Y-40894341D01*
X85309999Y-40894341D01*
X85074596Y-40914936D01*
X85074586Y-40914938D01*
X84846344Y-40976094D01*
X84846335Y-40976098D01*
X84632171Y-41075964D01*
X84632169Y-41075965D01*
X84438597Y-41211505D01*
X84271505Y-41378597D01*
X84141575Y-41564158D01*
X84086998Y-41607783D01*
X84017500Y-41614977D01*
X83955145Y-41583454D01*
X83938425Y-41564158D01*
X83808494Y-41378597D01*
X83641402Y-41211506D01*
X83641395Y-41211501D01*
X83447834Y-41075967D01*
X83447830Y-41075965D01*
X83447828Y-41075964D01*
X83233663Y-40976097D01*
X83233659Y-40976096D01*
X83233655Y-40976094D01*
X83005413Y-40914938D01*
X83005403Y-40914936D01*
X82770001Y-40894341D01*
X82769999Y-40894341D01*
X82534596Y-40914936D01*
X82534586Y-40914938D01*
X82306344Y-40976094D01*
X82306335Y-40976098D01*
X82092171Y-41075964D01*
X82092169Y-41075965D01*
X81898597Y-41211505D01*
X81731505Y-41378597D01*
X81601575Y-41564158D01*
X81546998Y-41607783D01*
X81477500Y-41614977D01*
X81415145Y-41583454D01*
X81398425Y-41564158D01*
X81268494Y-41378597D01*
X81101402Y-41211506D01*
X81101395Y-41211501D01*
X80907834Y-41075967D01*
X80907830Y-41075965D01*
X80907828Y-41075964D01*
X80693663Y-40976097D01*
X80693659Y-40976096D01*
X80693655Y-40976094D01*
X80465413Y-40914938D01*
X80465403Y-40914936D01*
X80230001Y-40894341D01*
X80229999Y-40894341D01*
X79994596Y-40914936D01*
X79994586Y-40914938D01*
X79766344Y-40976094D01*
X79766335Y-40976098D01*
X79552171Y-41075964D01*
X79552169Y-41075965D01*
X79358597Y-41211505D01*
X79191505Y-41378597D01*
X79061575Y-41564158D01*
X79006998Y-41607783D01*
X78937500Y-41614977D01*
X78875145Y-41583454D01*
X78858425Y-41564158D01*
X78728494Y-41378597D01*
X78561402Y-41211506D01*
X78561395Y-41211501D01*
X78367834Y-41075967D01*
X78367830Y-41075965D01*
X78367828Y-41075964D01*
X78153663Y-40976097D01*
X78153659Y-40976096D01*
X78153655Y-40976094D01*
X77925413Y-40914938D01*
X77925403Y-40914936D01*
X77690001Y-40894341D01*
X77689999Y-40894341D01*
X77454596Y-40914936D01*
X77454586Y-40914938D01*
X77226344Y-40976094D01*
X77226335Y-40976098D01*
X77012171Y-41075964D01*
X77012169Y-41075965D01*
X76818597Y-41211505D01*
X76651505Y-41378597D01*
X76521575Y-41564158D01*
X76466998Y-41607783D01*
X76397500Y-41614977D01*
X76335145Y-41583454D01*
X76318425Y-41564158D01*
X76188494Y-41378597D01*
X76021402Y-41211506D01*
X76021395Y-41211501D01*
X75827834Y-41075967D01*
X75827830Y-41075965D01*
X75827828Y-41075964D01*
X75613663Y-40976097D01*
X75613659Y-40976096D01*
X75613655Y-40976094D01*
X75385413Y-40914938D01*
X75385403Y-40914936D01*
X75150001Y-40894341D01*
X75149999Y-40894341D01*
X74914596Y-40914936D01*
X74914586Y-40914938D01*
X74686344Y-40976094D01*
X74686335Y-40976098D01*
X74472171Y-41075964D01*
X74472169Y-41075965D01*
X74278597Y-41211505D01*
X74111505Y-41378597D01*
X73981575Y-41564158D01*
X73926998Y-41607783D01*
X73857500Y-41614977D01*
X73795145Y-41583454D01*
X73778425Y-41564158D01*
X73648494Y-41378597D01*
X73481402Y-41211506D01*
X73481395Y-41211501D01*
X73287834Y-41075967D01*
X73287830Y-41075965D01*
X73287828Y-41075964D01*
X73073663Y-40976097D01*
X73073659Y-40976096D01*
X73073655Y-40976094D01*
X72845413Y-40914938D01*
X72845403Y-40914936D01*
X72610001Y-40894341D01*
X72609999Y-40894341D01*
X72374596Y-40914936D01*
X72374586Y-40914938D01*
X72146344Y-40976094D01*
X72146335Y-40976098D01*
X71932171Y-41075964D01*
X71932169Y-41075965D01*
X71738597Y-41211505D01*
X71571505Y-41378597D01*
X71441575Y-41564158D01*
X71386998Y-41607783D01*
X71317500Y-41614977D01*
X71255145Y-41583454D01*
X71238425Y-41564158D01*
X71108494Y-41378597D01*
X70941402Y-41211506D01*
X70941395Y-41211501D01*
X70747834Y-41075967D01*
X70747830Y-41075965D01*
X70747828Y-41075964D01*
X70533663Y-40976097D01*
X70533659Y-40976096D01*
X70533655Y-40976094D01*
X70305413Y-40914938D01*
X70305403Y-40914936D01*
X70070001Y-40894341D01*
X70069999Y-40894341D01*
X69834596Y-40914936D01*
X69834586Y-40914938D01*
X69606344Y-40976094D01*
X69606335Y-40976098D01*
X69392171Y-41075964D01*
X69392169Y-41075965D01*
X69198597Y-41211505D01*
X69031505Y-41378597D01*
X68901575Y-41564158D01*
X68846998Y-41607783D01*
X68777500Y-41614977D01*
X68715145Y-41583454D01*
X68698425Y-41564158D01*
X68568494Y-41378597D01*
X68401402Y-41211506D01*
X68401395Y-41211501D01*
X68207834Y-41075967D01*
X68207830Y-41075965D01*
X68207828Y-41075964D01*
X67993663Y-40976097D01*
X67993659Y-40976096D01*
X67993655Y-40976094D01*
X67765413Y-40914938D01*
X67765403Y-40914936D01*
X67530001Y-40894341D01*
X67529999Y-40894341D01*
X67294596Y-40914936D01*
X67294586Y-40914938D01*
X67066344Y-40976094D01*
X67066335Y-40976098D01*
X66852171Y-41075964D01*
X66852169Y-41075965D01*
X66658597Y-41211505D01*
X66491505Y-41378597D01*
X66361575Y-41564158D01*
X66306998Y-41607783D01*
X66237500Y-41614977D01*
X66175145Y-41583454D01*
X66158425Y-41564158D01*
X66028494Y-41378597D01*
X65861402Y-41211506D01*
X65861395Y-41211501D01*
X65667834Y-41075967D01*
X65667830Y-41075965D01*
X65667828Y-41075964D01*
X65453663Y-40976097D01*
X65453659Y-40976096D01*
X65453655Y-40976094D01*
X65225413Y-40914938D01*
X65225403Y-40914936D01*
X64990001Y-40894341D01*
X64989999Y-40894341D01*
X64754596Y-40914936D01*
X64754586Y-40914938D01*
X64526344Y-40976094D01*
X64526335Y-40976098D01*
X64312171Y-41075964D01*
X64312169Y-41075965D01*
X64118597Y-41211505D01*
X63951508Y-41378594D01*
X63821269Y-41564595D01*
X63766692Y-41608219D01*
X63697193Y-41615412D01*
X63634839Y-41583890D01*
X63618119Y-41564594D01*
X63488113Y-41378926D01*
X63488108Y-41378920D01*
X63321082Y-41211894D01*
X63127578Y-41076399D01*
X62913492Y-40976570D01*
X62913486Y-40976567D01*
X62700000Y-40919364D01*
X62700000Y-41816988D01*
X62642993Y-41784075D01*
X62515826Y-41750000D01*
X62384174Y-41750000D01*
X62257007Y-41784075D01*
X62200000Y-41816988D01*
X62200000Y-40919364D01*
X62199999Y-40919364D01*
X61986513Y-40976567D01*
X61986507Y-40976570D01*
X61772422Y-41076399D01*
X61772420Y-41076400D01*
X61578926Y-41211886D01*
X61578920Y-41211891D01*
X61411891Y-41378920D01*
X61411890Y-41378922D01*
X61281880Y-41564595D01*
X61227303Y-41608219D01*
X61157804Y-41615412D01*
X61095450Y-41583890D01*
X61078730Y-41564594D01*
X60948494Y-41378597D01*
X60781402Y-41211506D01*
X60781395Y-41211501D01*
X60587834Y-41075967D01*
X60587830Y-41075965D01*
X60587828Y-41075964D01*
X60373663Y-40976097D01*
X60373659Y-40976096D01*
X60373655Y-40976094D01*
X60145413Y-40914938D01*
X60145403Y-40914936D01*
X59910001Y-40894341D01*
X59909999Y-40894341D01*
X59674596Y-40914936D01*
X59674586Y-40914938D01*
X59446344Y-40976094D01*
X59446335Y-40976098D01*
X59232171Y-41075964D01*
X59232169Y-41075965D01*
X59038597Y-41211505D01*
X58871505Y-41378597D01*
X58735965Y-41572169D01*
X58735964Y-41572171D01*
X58636098Y-41786335D01*
X58636094Y-41786344D01*
X58574938Y-42014586D01*
X58574936Y-42014596D01*
X58554341Y-42249999D01*
X58554341Y-42250000D01*
X58574936Y-42485403D01*
X58574938Y-42485413D01*
X58636094Y-42713655D01*
X58636096Y-42713659D01*
X58636097Y-42713663D01*
X58715801Y-42884588D01*
X58735965Y-42927830D01*
X58735967Y-42927834D01*
X58823926Y-43053451D01*
X58871502Y-43121397D01*
X58871504Y-43121400D01*
X58993430Y-43243326D01*
X59026915Y-43304649D01*
X59021931Y-43374341D01*
X58980059Y-43430274D01*
X58949083Y-43447189D01*
X58817669Y-43496203D01*
X58817664Y-43496206D01*
X58702455Y-43582452D01*
X58702452Y-43582455D01*
X58616206Y-43697664D01*
X58616202Y-43697671D01*
X58565908Y-43832517D01*
X58559501Y-43892116D01*
X58559500Y-43892135D01*
X58559500Y-45687870D01*
X58559501Y-45687876D01*
X58565908Y-45747483D01*
X58616202Y-45882328D01*
X58616206Y-45882335D01*
X58702452Y-45997544D01*
X58702455Y-45997547D01*
X58817664Y-46083793D01*
X58817671Y-46083797D01*
X58959785Y-46136802D01*
X58958593Y-46139995D01*
X59005887Y-46166895D01*
X59038303Y-46228789D01*
X59032111Y-46298384D01*
X59004380Y-46340723D01*
X58877503Y-46467600D01*
X58741965Y-46661169D01*
X58741964Y-46661171D01*
X58642098Y-46875335D01*
X58642094Y-46875344D01*
X58580938Y-47103586D01*
X58580936Y-47103596D01*
X58560341Y-47338999D01*
X58560341Y-47339000D01*
X58580936Y-47574403D01*
X58580938Y-47574413D01*
X58642094Y-47802655D01*
X58642096Y-47802659D01*
X58642097Y-47802663D01*
X58725155Y-47980781D01*
X58741965Y-48016830D01*
X58741967Y-48016834D01*
X58850281Y-48171521D01*
X58877501Y-48210396D01*
X58877506Y-48210402D01*
X58999430Y-48332326D01*
X59032915Y-48393649D01*
X59027931Y-48463341D01*
X58986059Y-48519274D01*
X58955083Y-48536189D01*
X58823669Y-48585203D01*
X58823664Y-48585206D01*
X58708455Y-48671452D01*
X58708452Y-48671455D01*
X58622206Y-48786664D01*
X58622202Y-48786671D01*
X58571908Y-48921517D01*
X58565501Y-48981116D01*
X58565500Y-48981135D01*
X58565500Y-50776870D01*
X58565501Y-50776876D01*
X58571908Y-50836483D01*
X58622202Y-50971328D01*
X58622206Y-50971335D01*
X58708452Y-51086544D01*
X58708455Y-51086547D01*
X58823664Y-51172793D01*
X58823671Y-51172797D01*
X58958517Y-51223091D01*
X58958516Y-51223091D01*
X58965444Y-51223835D01*
X59018127Y-51229500D01*
X60813872Y-51229499D01*
X60873483Y-51223091D01*
X61008331Y-51172796D01*
X61123546Y-51086546D01*
X61209796Y-50971331D01*
X61219768Y-50944596D01*
X61229874Y-50917498D01*
X61259002Y-50839401D01*
X61300872Y-50783468D01*
X61366337Y-50759050D01*
X61434610Y-50773901D01*
X61462865Y-50795053D01*
X61584917Y-50917105D01*
X61778421Y-51052600D01*
X61992507Y-51152429D01*
X61992516Y-51152433D01*
X62206000Y-51209634D01*
X62206000Y-50312012D01*
X62263007Y-50344925D01*
X62390174Y-50379000D01*
X62521826Y-50379000D01*
X62648993Y-50344925D01*
X62706000Y-50312012D01*
X62706000Y-51209633D01*
X62919483Y-51152433D01*
X62919492Y-51152429D01*
X63133578Y-51052600D01*
X63327082Y-50917105D01*
X63494105Y-50750082D01*
X63624119Y-50564405D01*
X63678696Y-50520781D01*
X63748195Y-50513588D01*
X63810549Y-50545110D01*
X63827269Y-50564405D01*
X63957505Y-50750401D01*
X63957506Y-50750402D01*
X64124597Y-50917493D01*
X64124603Y-50917498D01*
X64292623Y-51035147D01*
X64336248Y-51089724D01*
X64345500Y-51136722D01*
X64345500Y-56160069D01*
X64357243Y-56219101D01*
X64370499Y-56285744D01*
X64419535Y-56404127D01*
X64490723Y-56510669D01*
X64490726Y-56510673D01*
X65354925Y-57374872D01*
X65354931Y-57374877D01*
X65461474Y-57446066D01*
X65530821Y-57474789D01*
X65579856Y-57495101D01*
X65579858Y-57495101D01*
X65582754Y-57496301D01*
X65637156Y-57540144D01*
X65659219Y-57606439D01*
X65641938Y-57674137D01*
X65622980Y-57698541D01*
X65580342Y-57741179D01*
X65449867Y-57927515D01*
X65422657Y-57985867D01*
X65376484Y-58038306D01*
X65309290Y-58057457D01*
X65242409Y-58037241D01*
X65197893Y-57985865D01*
X65171189Y-57928599D01*
X65170568Y-57927266D01*
X65040047Y-57740861D01*
X65040045Y-57740858D01*
X64879141Y-57579954D01*
X64692734Y-57449432D01*
X64692732Y-57449431D01*
X64486497Y-57353261D01*
X64486488Y-57353258D01*
X64266697Y-57294366D01*
X64266693Y-57294365D01*
X64266692Y-57294365D01*
X64266691Y-57294364D01*
X64266686Y-57294364D01*
X64040002Y-57274532D01*
X64039998Y-57274532D01*
X63813313Y-57294364D01*
X63813302Y-57294366D01*
X63593511Y-57353258D01*
X63593502Y-57353261D01*
X63387267Y-57449431D01*
X63387265Y-57449432D01*
X63200858Y-57579954D01*
X63039954Y-57740858D01*
X62909432Y-57927265D01*
X62909431Y-57927267D01*
X62882382Y-57985275D01*
X62836209Y-58037714D01*
X62769016Y-58056866D01*
X62702135Y-58036650D01*
X62657618Y-57985275D01*
X62630568Y-57927266D01*
X62500047Y-57740861D01*
X62500045Y-57740858D01*
X62339141Y-57579954D01*
X62152734Y-57449432D01*
X62152732Y-57449431D01*
X61946497Y-57353261D01*
X61946488Y-57353258D01*
X61726697Y-57294366D01*
X61726693Y-57294365D01*
X61726692Y-57294365D01*
X61726691Y-57294364D01*
X61726686Y-57294364D01*
X61500002Y-57274532D01*
X61499998Y-57274532D01*
X61273313Y-57294364D01*
X61273302Y-57294366D01*
X61053511Y-57353258D01*
X61053502Y-57353261D01*
X60847267Y-57449431D01*
X60847265Y-57449432D01*
X60660858Y-57579954D01*
X60499954Y-57740858D01*
X60369433Y-57927264D01*
X60369432Y-57927266D01*
X60369315Y-57927518D01*
X60342106Y-57985867D01*
X60295933Y-58038306D01*
X60228739Y-58057457D01*
X60161858Y-58037241D01*
X60117342Y-57985865D01*
X60090135Y-57927520D01*
X60090134Y-57927518D01*
X59959657Y-57741179D01*
X59798820Y-57580342D01*
X59612482Y-57449865D01*
X59406328Y-57353734D01*
X59210000Y-57301127D01*
X59210000Y-58264314D01*
X59205606Y-58259920D01*
X59114394Y-58207259D01*
X59012661Y-58180000D01*
X58907339Y-58180000D01*
X58805606Y-58207259D01*
X58714394Y-58259920D01*
X58710000Y-58264314D01*
X58710000Y-57301127D01*
X58513671Y-57353734D01*
X58307517Y-57449865D01*
X58121179Y-57580342D01*
X57960342Y-57741179D01*
X57829865Y-57927517D01*
X57733734Y-58133673D01*
X57733730Y-58133682D01*
X57681127Y-58329999D01*
X49700500Y-58329999D01*
X49700500Y-38074500D01*
X49720185Y-38007461D01*
X49772989Y-37961706D01*
X49824500Y-37950500D01*
X124675500Y-37950500D01*
X124742539Y-37970185D01*
G37*
%TD.AperFunction*%
%TD*%
M02*
