%TF.GenerationSoftware,KiCad,Pcbnew,8.0.1*%
%TF.CreationDate,2024-05-11T19:49:50+01:00*%
%TF.ProjectId,TIMI2CLEDPanel,54494d49-3243-44c4-9544-50616e656c2e,rev?*%
%TF.SameCoordinates,Original*%
%TF.FileFunction,Soldermask,Top*%
%TF.FilePolarity,Negative*%
%FSLAX46Y46*%
G04 Gerber Fmt 4.6, Leading zero omitted, Abs format (unit mm)*
G04 Created by KiCad (PCBNEW 8.0.1) date 2024-05-11 19:49:50*
%MOMM*%
%LPD*%
G01*
G04 APERTURE LIST*
%ADD10R,1.700000X1.700000*%
%ADD11O,1.700000X1.700000*%
%ADD12C,2.100000*%
%ADD13R,1.800000X1.800000*%
%ADD14C,1.800000*%
%ADD15C,1.600000*%
%ADD16C,1.400000*%
%ADD17O,1.400000X1.400000*%
%ADD18R,1.600000X1.600000*%
%ADD19O,1.600000X1.600000*%
G04 APERTURE END LIST*
D10*
%TO.C,J1*%
X102800000Y-31900000D03*
D11*
X100260000Y-31900000D03*
X97720000Y-31900000D03*
X95180000Y-31900000D03*
%TD*%
D12*
%TO.C,H4*%
X42500000Y-45500000D03*
%TD*%
D13*
%TO.C,D2*%
X48730000Y-39000000D03*
D14*
X51270000Y-39000000D03*
%TD*%
D13*
%TO.C,D6*%
X88730000Y-38800000D03*
D14*
X91270000Y-38800000D03*
%TD*%
D13*
%TO.C,D5*%
X78730000Y-38600000D03*
D14*
X81270000Y-38600000D03*
%TD*%
D12*
%TO.C,H5*%
X127500000Y-45500000D03*
%TD*%
%TO.C,H2*%
X42500000Y-32500000D03*
%TD*%
D13*
%TO.C,D3*%
X58730000Y-39100000D03*
D14*
X61270000Y-39100000D03*
%TD*%
D13*
%TO.C,D4*%
X68730000Y-38850000D03*
D14*
X71270000Y-38850000D03*
%TD*%
D13*
%TO.C,D9*%
X118730000Y-38750000D03*
D14*
X121270000Y-38750000D03*
%TD*%
D13*
%TO.C,D7*%
X98730000Y-38550000D03*
D14*
X101270000Y-38550000D03*
%TD*%
D12*
%TO.C,H3*%
X127500000Y-32500000D03*
%TD*%
D15*
%TO.C,C1*%
X65100000Y-41600000D03*
X65100000Y-36600000D03*
%TD*%
D13*
%TO.C,D8*%
X108730000Y-38750000D03*
D14*
X111270000Y-38750000D03*
%TD*%
D13*
%TO.C,D1*%
X127200000Y-38750000D03*
D14*
X124660000Y-38750000D03*
%TD*%
D16*
%TO.C,R7*%
X96195000Y-45250000D03*
D17*
X103815000Y-45250000D03*
%TD*%
D10*
%TO.C,J4*%
X89045000Y-31900000D03*
D11*
X86505000Y-31900000D03*
X83965000Y-31900000D03*
X81425000Y-31900000D03*
%TD*%
D16*
%TO.C,R10*%
X113460000Y-31950000D03*
D17*
X105840000Y-31950000D03*
%TD*%
D16*
%TO.C,R9*%
X116195000Y-45250000D03*
D17*
X123815000Y-45250000D03*
%TD*%
D16*
%TO.C,R8*%
X106195000Y-45250000D03*
D17*
X113815000Y-45250000D03*
%TD*%
D16*
%TO.C,R2*%
X53815000Y-45250000D03*
D17*
X46195000Y-45250000D03*
%TD*%
D16*
%TO.C,R1*%
X115590000Y-31950000D03*
D17*
X123210000Y-31950000D03*
%TD*%
D16*
%TO.C,R3*%
X63815000Y-45250000D03*
D17*
X56195000Y-45250000D03*
%TD*%
D16*
%TO.C,R6*%
X86195000Y-45250000D03*
D17*
X93815000Y-45250000D03*
%TD*%
D18*
%TO.C,U1*%
X94120000Y-42600000D03*
D19*
X91580000Y-42600000D03*
X89040000Y-42600000D03*
X86500000Y-42600000D03*
X83960000Y-42600000D03*
X81420000Y-42600000D03*
X78880000Y-42600000D03*
X76340000Y-42600000D03*
X76340000Y-34980000D03*
X78880000Y-34980000D03*
X81420000Y-34980000D03*
X83960000Y-34980000D03*
X86500000Y-34980000D03*
X89040000Y-34980000D03*
X91580000Y-34980000D03*
X94120000Y-34980000D03*
%TD*%
D16*
%TO.C,R5*%
X76195000Y-45250000D03*
D17*
X83815000Y-45250000D03*
%TD*%
D16*
%TO.C,R4*%
X73815000Y-45250000D03*
D17*
X66195000Y-45250000D03*
%TD*%
M02*
