%TF.GenerationSoftware,KiCad,Pcbnew,8.0.1*%
%TF.CreationDate,2024-05-11T19:49:50+01:00*%
%TF.ProjectId,TIMI2CLEDPanel,54494d49-3243-44c4-9544-50616e656c2e,rev?*%
%TF.SameCoordinates,Original*%
%TF.FileFunction,Legend,Top*%
%TF.FilePolarity,Positive*%
%FSLAX46Y46*%
G04 Gerber Fmt 4.6, Leading zero omitted, Abs format (unit mm)*
G04 Created by KiCad (PCBNEW 8.0.1) date 2024-05-11 19:49:50*
%MOMM*%
%LPD*%
G01*
G04 APERTURE LIST*
%ADD10C,0.150000*%
%ADD11C,0.120000*%
%ADD12C,0.000000*%
G04 APERTURE END LIST*
D10*
X47943922Y-31209875D02*
X48515350Y-31209875D01*
X48229636Y-32209875D02*
X48229636Y-31209875D01*
X48848684Y-32209875D02*
X48848684Y-31209875D01*
X49324874Y-32209875D02*
X49324874Y-31209875D01*
X49324874Y-31209875D02*
X49658207Y-31924160D01*
X49658207Y-31924160D02*
X49991540Y-31209875D01*
X49991540Y-31209875D02*
X49991540Y-32209875D01*
X50467731Y-31828922D02*
X51229636Y-31828922D01*
X51896302Y-31209875D02*
X51991540Y-31209875D01*
X51991540Y-31209875D02*
X52086778Y-31257494D01*
X52086778Y-31257494D02*
X52134397Y-31305113D01*
X52134397Y-31305113D02*
X52182016Y-31400351D01*
X52182016Y-31400351D02*
X52229635Y-31590827D01*
X52229635Y-31590827D02*
X52229635Y-31828922D01*
X52229635Y-31828922D02*
X52182016Y-32019398D01*
X52182016Y-32019398D02*
X52134397Y-32114636D01*
X52134397Y-32114636D02*
X52086778Y-32162256D01*
X52086778Y-32162256D02*
X51991540Y-32209875D01*
X51991540Y-32209875D02*
X51896302Y-32209875D01*
X51896302Y-32209875D02*
X51801064Y-32162256D01*
X51801064Y-32162256D02*
X51753445Y-32114636D01*
X51753445Y-32114636D02*
X51705826Y-32019398D01*
X51705826Y-32019398D02*
X51658207Y-31828922D01*
X51658207Y-31828922D02*
X51658207Y-31590827D01*
X51658207Y-31590827D02*
X51705826Y-31400351D01*
X51705826Y-31400351D02*
X51753445Y-31305113D01*
X51753445Y-31305113D02*
X51801064Y-31257494D01*
X51801064Y-31257494D02*
X51896302Y-31209875D01*
X53182016Y-32209875D02*
X52610588Y-32209875D01*
X52896302Y-32209875D02*
X52896302Y-31209875D01*
X52896302Y-31209875D02*
X52801064Y-31352732D01*
X52801064Y-31352732D02*
X52705826Y-31447970D01*
X52705826Y-31447970D02*
X52610588Y-31495589D01*
X54134397Y-32209875D02*
X53562969Y-32209875D01*
X53848683Y-32209875D02*
X53848683Y-31209875D01*
X53848683Y-31209875D02*
X53753445Y-31352732D01*
X53753445Y-31352732D02*
X53658207Y-31447970D01*
X53658207Y-31447970D02*
X53562969Y-31495589D01*
X55324874Y-32209875D02*
X55324874Y-31209875D01*
X55896302Y-32209875D02*
X55467731Y-31638446D01*
X55896302Y-31209875D02*
X55324874Y-31781303D01*
X56705826Y-32162256D02*
X56610588Y-32209875D01*
X56610588Y-32209875D02*
X56420112Y-32209875D01*
X56420112Y-32209875D02*
X56324874Y-32162256D01*
X56324874Y-32162256D02*
X56277255Y-32067017D01*
X56277255Y-32067017D02*
X56277255Y-31686065D01*
X56277255Y-31686065D02*
X56324874Y-31590827D01*
X56324874Y-31590827D02*
X56420112Y-31543208D01*
X56420112Y-31543208D02*
X56610588Y-31543208D01*
X56610588Y-31543208D02*
X56705826Y-31590827D01*
X56705826Y-31590827D02*
X56753445Y-31686065D01*
X56753445Y-31686065D02*
X56753445Y-31781303D01*
X56753445Y-31781303D02*
X56277255Y-31876541D01*
X57086779Y-31543208D02*
X57324874Y-32209875D01*
X57562969Y-31543208D02*
X57324874Y-32209875D01*
X57324874Y-32209875D02*
X57229636Y-32447970D01*
X57229636Y-32447970D02*
X57182017Y-32495589D01*
X57182017Y-32495589D02*
X57086779Y-32543208D01*
X57943922Y-32209875D02*
X57943922Y-31209875D01*
X57943922Y-31590827D02*
X58039160Y-31543208D01*
X58039160Y-31543208D02*
X58229636Y-31543208D01*
X58229636Y-31543208D02*
X58324874Y-31590827D01*
X58324874Y-31590827D02*
X58372493Y-31638446D01*
X58372493Y-31638446D02*
X58420112Y-31733684D01*
X58420112Y-31733684D02*
X58420112Y-32019398D01*
X58420112Y-32019398D02*
X58372493Y-32114636D01*
X58372493Y-32114636D02*
X58324874Y-32162256D01*
X58324874Y-32162256D02*
X58229636Y-32209875D01*
X58229636Y-32209875D02*
X58039160Y-32209875D01*
X58039160Y-32209875D02*
X57943922Y-32162256D01*
X58991541Y-32209875D02*
X58896303Y-32162256D01*
X58896303Y-32162256D02*
X58848684Y-32114636D01*
X58848684Y-32114636D02*
X58801065Y-32019398D01*
X58801065Y-32019398D02*
X58801065Y-31733684D01*
X58801065Y-31733684D02*
X58848684Y-31638446D01*
X58848684Y-31638446D02*
X58896303Y-31590827D01*
X58896303Y-31590827D02*
X58991541Y-31543208D01*
X58991541Y-31543208D02*
X59134398Y-31543208D01*
X59134398Y-31543208D02*
X59229636Y-31590827D01*
X59229636Y-31590827D02*
X59277255Y-31638446D01*
X59277255Y-31638446D02*
X59324874Y-31733684D01*
X59324874Y-31733684D02*
X59324874Y-32019398D01*
X59324874Y-32019398D02*
X59277255Y-32114636D01*
X59277255Y-32114636D02*
X59229636Y-32162256D01*
X59229636Y-32162256D02*
X59134398Y-32209875D01*
X59134398Y-32209875D02*
X58991541Y-32209875D01*
X60182017Y-32209875D02*
X60182017Y-31686065D01*
X60182017Y-31686065D02*
X60134398Y-31590827D01*
X60134398Y-31590827D02*
X60039160Y-31543208D01*
X60039160Y-31543208D02*
X59848684Y-31543208D01*
X59848684Y-31543208D02*
X59753446Y-31590827D01*
X60182017Y-32162256D02*
X60086779Y-32209875D01*
X60086779Y-32209875D02*
X59848684Y-32209875D01*
X59848684Y-32209875D02*
X59753446Y-32162256D01*
X59753446Y-32162256D02*
X59705827Y-32067017D01*
X59705827Y-32067017D02*
X59705827Y-31971779D01*
X59705827Y-31971779D02*
X59753446Y-31876541D01*
X59753446Y-31876541D02*
X59848684Y-31828922D01*
X59848684Y-31828922D02*
X60086779Y-31828922D01*
X60086779Y-31828922D02*
X60182017Y-31781303D01*
X60658208Y-32209875D02*
X60658208Y-31543208D01*
X60658208Y-31733684D02*
X60705827Y-31638446D01*
X60705827Y-31638446D02*
X60753446Y-31590827D01*
X60753446Y-31590827D02*
X60848684Y-31543208D01*
X60848684Y-31543208D02*
X60943922Y-31543208D01*
X61705827Y-32209875D02*
X61705827Y-31209875D01*
X61705827Y-32162256D02*
X61610589Y-32209875D01*
X61610589Y-32209875D02*
X61420113Y-32209875D01*
X61420113Y-32209875D02*
X61324875Y-32162256D01*
X61324875Y-32162256D02*
X61277256Y-32114636D01*
X61277256Y-32114636D02*
X61229637Y-32019398D01*
X61229637Y-32019398D02*
X61229637Y-31733684D01*
X61229637Y-31733684D02*
X61277256Y-31638446D01*
X61277256Y-31638446D02*
X61324875Y-31590827D01*
X61324875Y-31590827D02*
X61420113Y-31543208D01*
X61420113Y-31543208D02*
X61610589Y-31543208D01*
X61610589Y-31543208D02*
X61705827Y-31590827D01*
X48562969Y-33819819D02*
X48086779Y-33819819D01*
X48086779Y-33819819D02*
X48086779Y-32819819D01*
X48896303Y-33296009D02*
X49229636Y-33296009D01*
X49372493Y-33819819D02*
X48896303Y-33819819D01*
X48896303Y-33819819D02*
X48896303Y-32819819D01*
X48896303Y-32819819D02*
X49372493Y-32819819D01*
X49801065Y-33819819D02*
X49801065Y-32819819D01*
X49801065Y-32819819D02*
X50039160Y-32819819D01*
X50039160Y-32819819D02*
X50182017Y-32867438D01*
X50182017Y-32867438D02*
X50277255Y-32962676D01*
X50277255Y-32962676D02*
X50324874Y-33057914D01*
X50324874Y-33057914D02*
X50372493Y-33248390D01*
X50372493Y-33248390D02*
X50372493Y-33391247D01*
X50372493Y-33391247D02*
X50324874Y-33581723D01*
X50324874Y-33581723D02*
X50277255Y-33676961D01*
X50277255Y-33676961D02*
X50182017Y-33772200D01*
X50182017Y-33772200D02*
X50039160Y-33819819D01*
X50039160Y-33819819D02*
X49801065Y-33819819D01*
X51562970Y-33819819D02*
X51562970Y-32819819D01*
X51562970Y-32819819D02*
X51943922Y-32819819D01*
X51943922Y-32819819D02*
X52039160Y-32867438D01*
X52039160Y-32867438D02*
X52086779Y-32915057D01*
X52086779Y-32915057D02*
X52134398Y-33010295D01*
X52134398Y-33010295D02*
X52134398Y-33153152D01*
X52134398Y-33153152D02*
X52086779Y-33248390D01*
X52086779Y-33248390D02*
X52039160Y-33296009D01*
X52039160Y-33296009D02*
X51943922Y-33343628D01*
X51943922Y-33343628D02*
X51562970Y-33343628D01*
X52991541Y-33819819D02*
X52991541Y-33296009D01*
X52991541Y-33296009D02*
X52943922Y-33200771D01*
X52943922Y-33200771D02*
X52848684Y-33153152D01*
X52848684Y-33153152D02*
X52658208Y-33153152D01*
X52658208Y-33153152D02*
X52562970Y-33200771D01*
X52991541Y-33772200D02*
X52896303Y-33819819D01*
X52896303Y-33819819D02*
X52658208Y-33819819D01*
X52658208Y-33819819D02*
X52562970Y-33772200D01*
X52562970Y-33772200D02*
X52515351Y-33676961D01*
X52515351Y-33676961D02*
X52515351Y-33581723D01*
X52515351Y-33581723D02*
X52562970Y-33486485D01*
X52562970Y-33486485D02*
X52658208Y-33438866D01*
X52658208Y-33438866D02*
X52896303Y-33438866D01*
X52896303Y-33438866D02*
X52991541Y-33391247D01*
X53467732Y-33153152D02*
X53467732Y-33819819D01*
X53467732Y-33248390D02*
X53515351Y-33200771D01*
X53515351Y-33200771D02*
X53610589Y-33153152D01*
X53610589Y-33153152D02*
X53753446Y-33153152D01*
X53753446Y-33153152D02*
X53848684Y-33200771D01*
X53848684Y-33200771D02*
X53896303Y-33296009D01*
X53896303Y-33296009D02*
X53896303Y-33819819D01*
X54753446Y-33772200D02*
X54658208Y-33819819D01*
X54658208Y-33819819D02*
X54467732Y-33819819D01*
X54467732Y-33819819D02*
X54372494Y-33772200D01*
X54372494Y-33772200D02*
X54324875Y-33676961D01*
X54324875Y-33676961D02*
X54324875Y-33296009D01*
X54324875Y-33296009D02*
X54372494Y-33200771D01*
X54372494Y-33200771D02*
X54467732Y-33153152D01*
X54467732Y-33153152D02*
X54658208Y-33153152D01*
X54658208Y-33153152D02*
X54753446Y-33200771D01*
X54753446Y-33200771D02*
X54801065Y-33296009D01*
X54801065Y-33296009D02*
X54801065Y-33391247D01*
X54801065Y-33391247D02*
X54324875Y-33486485D01*
X55372494Y-33819819D02*
X55277256Y-33772200D01*
X55277256Y-33772200D02*
X55229637Y-33676961D01*
X55229637Y-33676961D02*
X55229637Y-32819819D01*
X56420114Y-33153152D02*
X56658209Y-33819819D01*
X56658209Y-33819819D02*
X56896304Y-33153152D01*
X57801066Y-33819819D02*
X57229638Y-33819819D01*
X57515352Y-33819819D02*
X57515352Y-32819819D01*
X57515352Y-32819819D02*
X57420114Y-32962676D01*
X57420114Y-32962676D02*
X57324876Y-33057914D01*
X57324876Y-33057914D02*
X57229638Y-33105533D01*
X113084397Y-34546009D02*
X112751064Y-34546009D01*
X112751064Y-35069819D02*
X112751064Y-34069819D01*
X112751064Y-34069819D02*
X113227254Y-34069819D01*
X114179635Y-35069819D02*
X113846302Y-34593628D01*
X113608207Y-35069819D02*
X113608207Y-34069819D01*
X113608207Y-34069819D02*
X113989159Y-34069819D01*
X113989159Y-34069819D02*
X114084397Y-34117438D01*
X114084397Y-34117438D02*
X114132016Y-34165057D01*
X114132016Y-34165057D02*
X114179635Y-34260295D01*
X114179635Y-34260295D02*
X114179635Y-34403152D01*
X114179635Y-34403152D02*
X114132016Y-34498390D01*
X114132016Y-34498390D02*
X114084397Y-34546009D01*
X114084397Y-34546009D02*
X113989159Y-34593628D01*
X113989159Y-34593628D02*
X113608207Y-34593628D01*
X114798683Y-34069819D02*
X114989159Y-34069819D01*
X114989159Y-34069819D02*
X115084397Y-34117438D01*
X115084397Y-34117438D02*
X115179635Y-34212676D01*
X115179635Y-34212676D02*
X115227254Y-34403152D01*
X115227254Y-34403152D02*
X115227254Y-34736485D01*
X115227254Y-34736485D02*
X115179635Y-34926961D01*
X115179635Y-34926961D02*
X115084397Y-35022200D01*
X115084397Y-35022200D02*
X114989159Y-35069819D01*
X114989159Y-35069819D02*
X114798683Y-35069819D01*
X114798683Y-35069819D02*
X114703445Y-35022200D01*
X114703445Y-35022200D02*
X114608207Y-34926961D01*
X114608207Y-34926961D02*
X114560588Y-34736485D01*
X114560588Y-34736485D02*
X114560588Y-34403152D01*
X114560588Y-34403152D02*
X114608207Y-34212676D01*
X114608207Y-34212676D02*
X114703445Y-34117438D01*
X114703445Y-34117438D02*
X114798683Y-34069819D01*
X115655826Y-35069819D02*
X115655826Y-34069819D01*
X115655826Y-34069819D02*
X116227254Y-35069819D01*
X116227254Y-35069819D02*
X116227254Y-34069819D01*
X116560588Y-34069819D02*
X117132016Y-34069819D01*
X116846302Y-35069819D02*
X116846302Y-34069819D01*
X49261905Y-36494819D02*
X49261905Y-35494819D01*
X49261905Y-35494819D02*
X49500000Y-35494819D01*
X49500000Y-35494819D02*
X49642857Y-35542438D01*
X49642857Y-35542438D02*
X49738095Y-35637676D01*
X49738095Y-35637676D02*
X49785714Y-35732914D01*
X49785714Y-35732914D02*
X49833333Y-35923390D01*
X49833333Y-35923390D02*
X49833333Y-36066247D01*
X49833333Y-36066247D02*
X49785714Y-36256723D01*
X49785714Y-36256723D02*
X49738095Y-36351961D01*
X49738095Y-36351961D02*
X49642857Y-36447200D01*
X49642857Y-36447200D02*
X49500000Y-36494819D01*
X49500000Y-36494819D02*
X49261905Y-36494819D01*
X50214286Y-35590057D02*
X50261905Y-35542438D01*
X50261905Y-35542438D02*
X50357143Y-35494819D01*
X50357143Y-35494819D02*
X50595238Y-35494819D01*
X50595238Y-35494819D02*
X50690476Y-35542438D01*
X50690476Y-35542438D02*
X50738095Y-35590057D01*
X50738095Y-35590057D02*
X50785714Y-35685295D01*
X50785714Y-35685295D02*
X50785714Y-35780533D01*
X50785714Y-35780533D02*
X50738095Y-35923390D01*
X50738095Y-35923390D02*
X50166667Y-36494819D01*
X50166667Y-36494819D02*
X50785714Y-36494819D01*
X49095238Y-42414819D02*
X48619048Y-42414819D01*
X48619048Y-42414819D02*
X48619048Y-41414819D01*
X49428572Y-42414819D02*
X49428572Y-41414819D01*
X49904762Y-42414819D02*
X49904762Y-41414819D01*
X49904762Y-41414819D02*
X50476190Y-42414819D01*
X50476190Y-42414819D02*
X50476190Y-41414819D01*
X50952381Y-41891009D02*
X51285714Y-41891009D01*
X51428571Y-42414819D02*
X50952381Y-42414819D01*
X50952381Y-42414819D02*
X50952381Y-41414819D01*
X50952381Y-41414819D02*
X51428571Y-41414819D01*
X87304819Y-39438094D02*
X86304819Y-39438094D01*
X86304819Y-39438094D02*
X86304819Y-39199999D01*
X86304819Y-39199999D02*
X86352438Y-39057142D01*
X86352438Y-39057142D02*
X86447676Y-38961904D01*
X86447676Y-38961904D02*
X86542914Y-38914285D01*
X86542914Y-38914285D02*
X86733390Y-38866666D01*
X86733390Y-38866666D02*
X86876247Y-38866666D01*
X86876247Y-38866666D02*
X87066723Y-38914285D01*
X87066723Y-38914285D02*
X87161961Y-38961904D01*
X87161961Y-38961904D02*
X87257200Y-39057142D01*
X87257200Y-39057142D02*
X87304819Y-39199999D01*
X87304819Y-39199999D02*
X87304819Y-39438094D01*
X86304819Y-38009523D02*
X86304819Y-38199999D01*
X86304819Y-38199999D02*
X86352438Y-38295237D01*
X86352438Y-38295237D02*
X86400057Y-38342856D01*
X86400057Y-38342856D02*
X86542914Y-38438094D01*
X86542914Y-38438094D02*
X86733390Y-38485713D01*
X86733390Y-38485713D02*
X87114342Y-38485713D01*
X87114342Y-38485713D02*
X87209580Y-38438094D01*
X87209580Y-38438094D02*
X87257200Y-38390475D01*
X87257200Y-38390475D02*
X87304819Y-38295237D01*
X87304819Y-38295237D02*
X87304819Y-38104761D01*
X87304819Y-38104761D02*
X87257200Y-38009523D01*
X87257200Y-38009523D02*
X87209580Y-37961904D01*
X87209580Y-37961904D02*
X87114342Y-37914285D01*
X87114342Y-37914285D02*
X86876247Y-37914285D01*
X86876247Y-37914285D02*
X86781009Y-37961904D01*
X86781009Y-37961904D02*
X86733390Y-38009523D01*
X86733390Y-38009523D02*
X86685771Y-38104761D01*
X86685771Y-38104761D02*
X86685771Y-38295237D01*
X86685771Y-38295237D02*
X86733390Y-38390475D01*
X86733390Y-38390475D02*
X86781009Y-38438094D01*
X86781009Y-38438094D02*
X86876247Y-38485713D01*
X93604819Y-38866666D02*
X93604819Y-39342856D01*
X93604819Y-39342856D02*
X92604819Y-39342856D01*
X93604819Y-38009523D02*
X93604819Y-38580951D01*
X93604819Y-38295237D02*
X92604819Y-38295237D01*
X92604819Y-38295237D02*
X92747676Y-38390475D01*
X92747676Y-38390475D02*
X92842914Y-38485713D01*
X92842914Y-38485713D02*
X92890533Y-38580951D01*
X77254819Y-39338094D02*
X76254819Y-39338094D01*
X76254819Y-39338094D02*
X76254819Y-39099999D01*
X76254819Y-39099999D02*
X76302438Y-38957142D01*
X76302438Y-38957142D02*
X76397676Y-38861904D01*
X76397676Y-38861904D02*
X76492914Y-38814285D01*
X76492914Y-38814285D02*
X76683390Y-38766666D01*
X76683390Y-38766666D02*
X76826247Y-38766666D01*
X76826247Y-38766666D02*
X77016723Y-38814285D01*
X77016723Y-38814285D02*
X77111961Y-38861904D01*
X77111961Y-38861904D02*
X77207200Y-38957142D01*
X77207200Y-38957142D02*
X77254819Y-39099999D01*
X77254819Y-39099999D02*
X77254819Y-39338094D01*
X76254819Y-37861904D02*
X76254819Y-38338094D01*
X76254819Y-38338094D02*
X76731009Y-38385713D01*
X76731009Y-38385713D02*
X76683390Y-38338094D01*
X76683390Y-38338094D02*
X76635771Y-38242856D01*
X76635771Y-38242856D02*
X76635771Y-38004761D01*
X76635771Y-38004761D02*
X76683390Y-37909523D01*
X76683390Y-37909523D02*
X76731009Y-37861904D01*
X76731009Y-37861904D02*
X76826247Y-37814285D01*
X76826247Y-37814285D02*
X77064342Y-37814285D01*
X77064342Y-37814285D02*
X77159580Y-37861904D01*
X77159580Y-37861904D02*
X77207200Y-37909523D01*
X77207200Y-37909523D02*
X77254819Y-38004761D01*
X77254819Y-38004761D02*
X77254819Y-38242856D01*
X77254819Y-38242856D02*
X77207200Y-38338094D01*
X77207200Y-38338094D02*
X77159580Y-38385713D01*
X83604819Y-39664285D02*
X83604819Y-40140475D01*
X83604819Y-40140475D02*
X82604819Y-40140475D01*
X82604819Y-39140475D02*
X82604819Y-38949999D01*
X82604819Y-38949999D02*
X82652438Y-38854761D01*
X82652438Y-38854761D02*
X82747676Y-38759523D01*
X82747676Y-38759523D02*
X82938152Y-38711904D01*
X82938152Y-38711904D02*
X83271485Y-38711904D01*
X83271485Y-38711904D02*
X83461961Y-38759523D01*
X83461961Y-38759523D02*
X83557200Y-38854761D01*
X83557200Y-38854761D02*
X83604819Y-38949999D01*
X83604819Y-38949999D02*
X83604819Y-39140475D01*
X83604819Y-39140475D02*
X83557200Y-39235713D01*
X83557200Y-39235713D02*
X83461961Y-39330951D01*
X83461961Y-39330951D02*
X83271485Y-39378570D01*
X83271485Y-39378570D02*
X82938152Y-39378570D01*
X82938152Y-39378570D02*
X82747676Y-39330951D01*
X82747676Y-39330951D02*
X82652438Y-39235713D01*
X82652438Y-39235713D02*
X82604819Y-39140475D01*
X83509580Y-37711904D02*
X83557200Y-37759523D01*
X83557200Y-37759523D02*
X83604819Y-37902380D01*
X83604819Y-37902380D02*
X83604819Y-37997618D01*
X83604819Y-37997618D02*
X83557200Y-38140475D01*
X83557200Y-38140475D02*
X83461961Y-38235713D01*
X83461961Y-38235713D02*
X83366723Y-38283332D01*
X83366723Y-38283332D02*
X83176247Y-38330951D01*
X83176247Y-38330951D02*
X83033390Y-38330951D01*
X83033390Y-38330951D02*
X82842914Y-38283332D01*
X82842914Y-38283332D02*
X82747676Y-38235713D01*
X82747676Y-38235713D02*
X82652438Y-38140475D01*
X82652438Y-38140475D02*
X82604819Y-37997618D01*
X82604819Y-37997618D02*
X82604819Y-37902380D01*
X82604819Y-37902380D02*
X82652438Y-37759523D01*
X82652438Y-37759523D02*
X82700057Y-37711904D01*
X83604819Y-37283332D02*
X82604819Y-37283332D01*
X83604819Y-36711904D02*
X83033390Y-37140475D01*
X82604819Y-36711904D02*
X83176247Y-37283332D01*
X59261905Y-36594819D02*
X59261905Y-35594819D01*
X59261905Y-35594819D02*
X59500000Y-35594819D01*
X59500000Y-35594819D02*
X59642857Y-35642438D01*
X59642857Y-35642438D02*
X59738095Y-35737676D01*
X59738095Y-35737676D02*
X59785714Y-35832914D01*
X59785714Y-35832914D02*
X59833333Y-36023390D01*
X59833333Y-36023390D02*
X59833333Y-36166247D01*
X59833333Y-36166247D02*
X59785714Y-36356723D01*
X59785714Y-36356723D02*
X59738095Y-36451961D01*
X59738095Y-36451961D02*
X59642857Y-36547200D01*
X59642857Y-36547200D02*
X59500000Y-36594819D01*
X59500000Y-36594819D02*
X59261905Y-36594819D01*
X60166667Y-35594819D02*
X60785714Y-35594819D01*
X60785714Y-35594819D02*
X60452381Y-35975771D01*
X60452381Y-35975771D02*
X60595238Y-35975771D01*
X60595238Y-35975771D02*
X60690476Y-36023390D01*
X60690476Y-36023390D02*
X60738095Y-36071009D01*
X60738095Y-36071009D02*
X60785714Y-36166247D01*
X60785714Y-36166247D02*
X60785714Y-36404342D01*
X60785714Y-36404342D02*
X60738095Y-36499580D01*
X60738095Y-36499580D02*
X60690476Y-36547200D01*
X60690476Y-36547200D02*
X60595238Y-36594819D01*
X60595238Y-36594819D02*
X60309524Y-36594819D01*
X60309524Y-36594819D02*
X60214286Y-36547200D01*
X60214286Y-36547200D02*
X60166667Y-36499580D01*
X58452380Y-42514819D02*
X57976190Y-42514819D01*
X57976190Y-42514819D02*
X57976190Y-41514819D01*
X58976190Y-41514819D02*
X59166666Y-41514819D01*
X59166666Y-41514819D02*
X59261904Y-41562438D01*
X59261904Y-41562438D02*
X59357142Y-41657676D01*
X59357142Y-41657676D02*
X59404761Y-41848152D01*
X59404761Y-41848152D02*
X59404761Y-42181485D01*
X59404761Y-42181485D02*
X59357142Y-42371961D01*
X59357142Y-42371961D02*
X59261904Y-42467200D01*
X59261904Y-42467200D02*
X59166666Y-42514819D01*
X59166666Y-42514819D02*
X58976190Y-42514819D01*
X58976190Y-42514819D02*
X58880952Y-42467200D01*
X58880952Y-42467200D02*
X58785714Y-42371961D01*
X58785714Y-42371961D02*
X58738095Y-42181485D01*
X58738095Y-42181485D02*
X58738095Y-41848152D01*
X58738095Y-41848152D02*
X58785714Y-41657676D01*
X58785714Y-41657676D02*
X58880952Y-41562438D01*
X58880952Y-41562438D02*
X58976190Y-41514819D01*
X60404761Y-42419580D02*
X60357142Y-42467200D01*
X60357142Y-42467200D02*
X60214285Y-42514819D01*
X60214285Y-42514819D02*
X60119047Y-42514819D01*
X60119047Y-42514819D02*
X59976190Y-42467200D01*
X59976190Y-42467200D02*
X59880952Y-42371961D01*
X59880952Y-42371961D02*
X59833333Y-42276723D01*
X59833333Y-42276723D02*
X59785714Y-42086247D01*
X59785714Y-42086247D02*
X59785714Y-41943390D01*
X59785714Y-41943390D02*
X59833333Y-41752914D01*
X59833333Y-41752914D02*
X59880952Y-41657676D01*
X59880952Y-41657676D02*
X59976190Y-41562438D01*
X59976190Y-41562438D02*
X60119047Y-41514819D01*
X60119047Y-41514819D02*
X60214285Y-41514819D01*
X60214285Y-41514819D02*
X60357142Y-41562438D01*
X60357142Y-41562438D02*
X60404761Y-41610057D01*
X60785714Y-42229104D02*
X61261904Y-42229104D01*
X60690476Y-42514819D02*
X61023809Y-41514819D01*
X61023809Y-41514819D02*
X61357142Y-42514819D01*
X62166666Y-42514819D02*
X61690476Y-42514819D01*
X61690476Y-42514819D02*
X61690476Y-41514819D01*
X69261905Y-36344819D02*
X69261905Y-35344819D01*
X69261905Y-35344819D02*
X69500000Y-35344819D01*
X69500000Y-35344819D02*
X69642857Y-35392438D01*
X69642857Y-35392438D02*
X69738095Y-35487676D01*
X69738095Y-35487676D02*
X69785714Y-35582914D01*
X69785714Y-35582914D02*
X69833333Y-35773390D01*
X69833333Y-35773390D02*
X69833333Y-35916247D01*
X69833333Y-35916247D02*
X69785714Y-36106723D01*
X69785714Y-36106723D02*
X69738095Y-36201961D01*
X69738095Y-36201961D02*
X69642857Y-36297200D01*
X69642857Y-36297200D02*
X69500000Y-36344819D01*
X69500000Y-36344819D02*
X69261905Y-36344819D01*
X70690476Y-35678152D02*
X70690476Y-36344819D01*
X70452381Y-35297200D02*
X70214286Y-36011485D01*
X70214286Y-36011485D02*
X70833333Y-36011485D01*
X68904761Y-42169580D02*
X68857142Y-42217200D01*
X68857142Y-42217200D02*
X68714285Y-42264819D01*
X68714285Y-42264819D02*
X68619047Y-42264819D01*
X68619047Y-42264819D02*
X68476190Y-42217200D01*
X68476190Y-42217200D02*
X68380952Y-42121961D01*
X68380952Y-42121961D02*
X68333333Y-42026723D01*
X68333333Y-42026723D02*
X68285714Y-41836247D01*
X68285714Y-41836247D02*
X68285714Y-41693390D01*
X68285714Y-41693390D02*
X68333333Y-41502914D01*
X68333333Y-41502914D02*
X68380952Y-41407676D01*
X68380952Y-41407676D02*
X68476190Y-41312438D01*
X68476190Y-41312438D02*
X68619047Y-41264819D01*
X68619047Y-41264819D02*
X68714285Y-41264819D01*
X68714285Y-41264819D02*
X68857142Y-41312438D01*
X68857142Y-41312438D02*
X68904761Y-41360057D01*
X69285714Y-41979104D02*
X69761904Y-41979104D01*
X69190476Y-42264819D02*
X69523809Y-41264819D01*
X69523809Y-41264819D02*
X69857142Y-42264819D01*
X70190476Y-42264819D02*
X70190476Y-41264819D01*
X70190476Y-41264819D02*
X70571428Y-41264819D01*
X70571428Y-41264819D02*
X70666666Y-41312438D01*
X70666666Y-41312438D02*
X70714285Y-41360057D01*
X70714285Y-41360057D02*
X70761904Y-41455295D01*
X70761904Y-41455295D02*
X70761904Y-41598152D01*
X70761904Y-41598152D02*
X70714285Y-41693390D01*
X70714285Y-41693390D02*
X70666666Y-41741009D01*
X70666666Y-41741009D02*
X70571428Y-41788628D01*
X70571428Y-41788628D02*
X70190476Y-41788628D01*
X71142857Y-42217200D02*
X71285714Y-42264819D01*
X71285714Y-42264819D02*
X71523809Y-42264819D01*
X71523809Y-42264819D02*
X71619047Y-42217200D01*
X71619047Y-42217200D02*
X71666666Y-42169580D01*
X71666666Y-42169580D02*
X71714285Y-42074342D01*
X71714285Y-42074342D02*
X71714285Y-41979104D01*
X71714285Y-41979104D02*
X71666666Y-41883866D01*
X71666666Y-41883866D02*
X71619047Y-41836247D01*
X71619047Y-41836247D02*
X71523809Y-41788628D01*
X71523809Y-41788628D02*
X71333333Y-41741009D01*
X71333333Y-41741009D02*
X71238095Y-41693390D01*
X71238095Y-41693390D02*
X71190476Y-41645771D01*
X71190476Y-41645771D02*
X71142857Y-41550533D01*
X71142857Y-41550533D02*
X71142857Y-41455295D01*
X71142857Y-41455295D02*
X71190476Y-41360057D01*
X71190476Y-41360057D02*
X71238095Y-41312438D01*
X71238095Y-41312438D02*
X71333333Y-41264819D01*
X71333333Y-41264819D02*
X71571428Y-41264819D01*
X71571428Y-41264819D02*
X71714285Y-41312438D01*
X119261905Y-36244819D02*
X119261905Y-35244819D01*
X119261905Y-35244819D02*
X119500000Y-35244819D01*
X119500000Y-35244819D02*
X119642857Y-35292438D01*
X119642857Y-35292438D02*
X119738095Y-35387676D01*
X119738095Y-35387676D02*
X119785714Y-35482914D01*
X119785714Y-35482914D02*
X119833333Y-35673390D01*
X119833333Y-35673390D02*
X119833333Y-35816247D01*
X119833333Y-35816247D02*
X119785714Y-36006723D01*
X119785714Y-36006723D02*
X119738095Y-36101961D01*
X119738095Y-36101961D02*
X119642857Y-36197200D01*
X119642857Y-36197200D02*
X119500000Y-36244819D01*
X119500000Y-36244819D02*
X119261905Y-36244819D01*
X120309524Y-36244819D02*
X120500000Y-36244819D01*
X120500000Y-36244819D02*
X120595238Y-36197200D01*
X120595238Y-36197200D02*
X120642857Y-36149580D01*
X120642857Y-36149580D02*
X120738095Y-36006723D01*
X120738095Y-36006723D02*
X120785714Y-35816247D01*
X120785714Y-35816247D02*
X120785714Y-35435295D01*
X120785714Y-35435295D02*
X120738095Y-35340057D01*
X120738095Y-35340057D02*
X120690476Y-35292438D01*
X120690476Y-35292438D02*
X120595238Y-35244819D01*
X120595238Y-35244819D02*
X120404762Y-35244819D01*
X120404762Y-35244819D02*
X120309524Y-35292438D01*
X120309524Y-35292438D02*
X120261905Y-35340057D01*
X120261905Y-35340057D02*
X120214286Y-35435295D01*
X120214286Y-35435295D02*
X120214286Y-35673390D01*
X120214286Y-35673390D02*
X120261905Y-35768628D01*
X120261905Y-35768628D02*
X120309524Y-35816247D01*
X120309524Y-35816247D02*
X120404762Y-35863866D01*
X120404762Y-35863866D02*
X120595238Y-35863866D01*
X120595238Y-35863866D02*
X120690476Y-35816247D01*
X120690476Y-35816247D02*
X120738095Y-35768628D01*
X120738095Y-35768628D02*
X120785714Y-35673390D01*
X119833333Y-42164819D02*
X119357143Y-42164819D01*
X119357143Y-42164819D02*
X119357143Y-41164819D01*
X120595238Y-41498152D02*
X120595238Y-42164819D01*
X120357143Y-41117200D02*
X120119048Y-41831485D01*
X120119048Y-41831485D02*
X120738095Y-41831485D01*
X99261905Y-36044819D02*
X99261905Y-35044819D01*
X99261905Y-35044819D02*
X99500000Y-35044819D01*
X99500000Y-35044819D02*
X99642857Y-35092438D01*
X99642857Y-35092438D02*
X99738095Y-35187676D01*
X99738095Y-35187676D02*
X99785714Y-35282914D01*
X99785714Y-35282914D02*
X99833333Y-35473390D01*
X99833333Y-35473390D02*
X99833333Y-35616247D01*
X99833333Y-35616247D02*
X99785714Y-35806723D01*
X99785714Y-35806723D02*
X99738095Y-35901961D01*
X99738095Y-35901961D02*
X99642857Y-35997200D01*
X99642857Y-35997200D02*
X99500000Y-36044819D01*
X99500000Y-36044819D02*
X99261905Y-36044819D01*
X100166667Y-35044819D02*
X100833333Y-35044819D01*
X100833333Y-35044819D02*
X100404762Y-36044819D01*
X99833333Y-41964819D02*
X99357143Y-41964819D01*
X99357143Y-41964819D02*
X99357143Y-40964819D01*
X100119048Y-41060057D02*
X100166667Y-41012438D01*
X100166667Y-41012438D02*
X100261905Y-40964819D01*
X100261905Y-40964819D02*
X100500000Y-40964819D01*
X100500000Y-40964819D02*
X100595238Y-41012438D01*
X100595238Y-41012438D02*
X100642857Y-41060057D01*
X100642857Y-41060057D02*
X100690476Y-41155295D01*
X100690476Y-41155295D02*
X100690476Y-41250533D01*
X100690476Y-41250533D02*
X100642857Y-41393390D01*
X100642857Y-41393390D02*
X100071429Y-41964819D01*
X100071429Y-41964819D02*
X100690476Y-41964819D01*
X109261905Y-36244819D02*
X109261905Y-35244819D01*
X109261905Y-35244819D02*
X109500000Y-35244819D01*
X109500000Y-35244819D02*
X109642857Y-35292438D01*
X109642857Y-35292438D02*
X109738095Y-35387676D01*
X109738095Y-35387676D02*
X109785714Y-35482914D01*
X109785714Y-35482914D02*
X109833333Y-35673390D01*
X109833333Y-35673390D02*
X109833333Y-35816247D01*
X109833333Y-35816247D02*
X109785714Y-36006723D01*
X109785714Y-36006723D02*
X109738095Y-36101961D01*
X109738095Y-36101961D02*
X109642857Y-36197200D01*
X109642857Y-36197200D02*
X109500000Y-36244819D01*
X109500000Y-36244819D02*
X109261905Y-36244819D01*
X110404762Y-35673390D02*
X110309524Y-35625771D01*
X110309524Y-35625771D02*
X110261905Y-35578152D01*
X110261905Y-35578152D02*
X110214286Y-35482914D01*
X110214286Y-35482914D02*
X110214286Y-35435295D01*
X110214286Y-35435295D02*
X110261905Y-35340057D01*
X110261905Y-35340057D02*
X110309524Y-35292438D01*
X110309524Y-35292438D02*
X110404762Y-35244819D01*
X110404762Y-35244819D02*
X110595238Y-35244819D01*
X110595238Y-35244819D02*
X110690476Y-35292438D01*
X110690476Y-35292438D02*
X110738095Y-35340057D01*
X110738095Y-35340057D02*
X110785714Y-35435295D01*
X110785714Y-35435295D02*
X110785714Y-35482914D01*
X110785714Y-35482914D02*
X110738095Y-35578152D01*
X110738095Y-35578152D02*
X110690476Y-35625771D01*
X110690476Y-35625771D02*
X110595238Y-35673390D01*
X110595238Y-35673390D02*
X110404762Y-35673390D01*
X110404762Y-35673390D02*
X110309524Y-35721009D01*
X110309524Y-35721009D02*
X110261905Y-35768628D01*
X110261905Y-35768628D02*
X110214286Y-35863866D01*
X110214286Y-35863866D02*
X110214286Y-36054342D01*
X110214286Y-36054342D02*
X110261905Y-36149580D01*
X110261905Y-36149580D02*
X110309524Y-36197200D01*
X110309524Y-36197200D02*
X110404762Y-36244819D01*
X110404762Y-36244819D02*
X110595238Y-36244819D01*
X110595238Y-36244819D02*
X110690476Y-36197200D01*
X110690476Y-36197200D02*
X110738095Y-36149580D01*
X110738095Y-36149580D02*
X110785714Y-36054342D01*
X110785714Y-36054342D02*
X110785714Y-35863866D01*
X110785714Y-35863866D02*
X110738095Y-35768628D01*
X110738095Y-35768628D02*
X110690476Y-35721009D01*
X110690476Y-35721009D02*
X110595238Y-35673390D01*
X109833333Y-42164819D02*
X109357143Y-42164819D01*
X109357143Y-42164819D02*
X109357143Y-41164819D01*
X110071429Y-41164819D02*
X110690476Y-41164819D01*
X110690476Y-41164819D02*
X110357143Y-41545771D01*
X110357143Y-41545771D02*
X110500000Y-41545771D01*
X110500000Y-41545771D02*
X110595238Y-41593390D01*
X110595238Y-41593390D02*
X110642857Y-41641009D01*
X110642857Y-41641009D02*
X110690476Y-41736247D01*
X110690476Y-41736247D02*
X110690476Y-41974342D01*
X110690476Y-41974342D02*
X110642857Y-42069580D01*
X110642857Y-42069580D02*
X110595238Y-42117200D01*
X110595238Y-42117200D02*
X110500000Y-42164819D01*
X110500000Y-42164819D02*
X110214286Y-42164819D01*
X110214286Y-42164819D02*
X110119048Y-42117200D01*
X110119048Y-42117200D02*
X110071429Y-42069580D01*
D11*
%TO.C,D2*%
X48440000Y-37764000D02*
X48440000Y-37920000D01*
X48440000Y-40080000D02*
X48440000Y-40236000D01*
X48440001Y-37764485D02*
G75*
G02*
X51672334Y-37921392I1559999J-1235515D01*
G01*
X48959040Y-37920001D02*
G75*
G02*
X51041129Y-37920164I1040960J-1079999D01*
G01*
X51041129Y-40079836D02*
G75*
G02*
X48959040Y-40079999I-1041129J1079836D01*
G01*
X51672334Y-40078608D02*
G75*
G02*
X48440001Y-40235515I-1672334J1078608D01*
G01*
%TO.C,D6*%
X88440000Y-37564000D02*
X88440000Y-37720000D01*
X88440000Y-39880000D02*
X88440000Y-40036000D01*
X88440001Y-37564485D02*
G75*
G02*
X91672334Y-37721392I1559999J-1235515D01*
G01*
X88959040Y-37720001D02*
G75*
G02*
X91041129Y-37720164I1040960J-1079999D01*
G01*
X91041129Y-39879836D02*
G75*
G02*
X88959040Y-39879999I-1041129J1079836D01*
G01*
X91672334Y-39878608D02*
G75*
G02*
X88440001Y-40035515I-1672334J1078608D01*
G01*
%TO.C,D5*%
X78440000Y-37364000D02*
X78440000Y-37520000D01*
X78440000Y-39680000D02*
X78440000Y-39836000D01*
X78440001Y-37364485D02*
G75*
G02*
X81672334Y-37521392I1559999J-1235515D01*
G01*
X78959040Y-37520001D02*
G75*
G02*
X81041129Y-37520164I1040960J-1079999D01*
G01*
X81041129Y-39679836D02*
G75*
G02*
X78959040Y-39679999I-1041129J1079836D01*
G01*
X81672334Y-39678608D02*
G75*
G02*
X78440001Y-39835515I-1672334J1078608D01*
G01*
D12*
%TO.C,G1*%
G36*
X44100721Y-35673335D02*
G01*
X44124008Y-35678249D01*
X44131605Y-35680912D01*
X44161006Y-35697208D01*
X44186530Y-35720338D01*
X44207807Y-35749815D01*
X44224466Y-35785151D01*
X44233744Y-35815359D01*
X44235464Y-35825313D01*
X44237059Y-35840820D01*
X44238530Y-35862055D01*
X44239881Y-35889190D01*
X44241114Y-35922400D01*
X44242233Y-35961859D01*
X44243238Y-36007740D01*
X44244134Y-36060217D01*
X44244924Y-36119464D01*
X44245609Y-36185654D01*
X44246192Y-36258962D01*
X44246676Y-36339561D01*
X44247065Y-36427626D01*
X44247360Y-36523329D01*
X44247564Y-36626844D01*
X44247660Y-36710828D01*
X44247735Y-36772268D01*
X44247855Y-36832790D01*
X44248016Y-36891733D01*
X44248216Y-36948438D01*
X44248449Y-37002243D01*
X44248713Y-37052488D01*
X44249004Y-37098513D01*
X44249317Y-37139656D01*
X44249649Y-37175257D01*
X44249996Y-37204656D01*
X44250355Y-37227192D01*
X44250685Y-37241073D01*
X44253344Y-37326447D01*
X44410018Y-37274215D01*
X44444203Y-37262803D01*
X44476112Y-37252119D01*
X44504894Y-37242451D01*
X44529697Y-37234087D01*
X44549671Y-37227313D01*
X44563964Y-37222417D01*
X44571726Y-37219686D01*
X44572782Y-37219277D01*
X44579921Y-37216380D01*
X44581916Y-37215713D01*
X44586990Y-37213840D01*
X44592412Y-37211984D01*
X44593080Y-37211811D01*
X44599812Y-37209926D01*
X44600184Y-37209808D01*
X44606273Y-37209300D01*
X44609168Y-37206652D01*
X44609317Y-37205287D01*
X44612270Y-37202573D01*
X44615407Y-37203130D01*
X44620623Y-37203011D01*
X44621496Y-37201100D01*
X44624432Y-37198440D01*
X44627323Y-37198970D01*
X44633140Y-37199235D01*
X44634427Y-37197987D01*
X44638401Y-37196165D01*
X44649419Y-37192016D01*
X44666820Y-37185769D01*
X44689941Y-37177653D01*
X44718122Y-37167897D01*
X44750699Y-37156730D01*
X44787012Y-37144381D01*
X44826399Y-37131079D01*
X44868197Y-37117052D01*
X44873182Y-37115385D01*
X44944561Y-37091519D01*
X45014204Y-37068221D01*
X45081705Y-37045629D01*
X45146657Y-37023877D01*
X45208656Y-37003104D01*
X45267295Y-36983444D01*
X45322168Y-36965035D01*
X45372868Y-36948013D01*
X45418990Y-36932513D01*
X45460128Y-36918674D01*
X45495876Y-36906630D01*
X45525827Y-36896519D01*
X45549576Y-36888476D01*
X45566716Y-36882638D01*
X45576842Y-36879142D01*
X45579527Y-36878165D01*
X45586031Y-36875488D01*
X45587646Y-36874876D01*
X45592795Y-36872964D01*
X45595765Y-36871827D01*
X45603158Y-36869172D01*
X45614714Y-36865209D01*
X45620121Y-36863395D01*
X45633236Y-36858928D01*
X45650376Y-36852961D01*
X45667930Y-36846751D01*
X45668673Y-36846486D01*
X45713692Y-36832533D01*
X45759472Y-36822297D01*
X45803393Y-36816287D01*
X45831708Y-36814866D01*
X45851779Y-36814914D01*
X45866106Y-36815666D01*
X45877061Y-36817511D01*
X45887012Y-36820843D01*
X45897778Y-36825781D01*
X45912301Y-36833568D01*
X45925625Y-36841844D01*
X45932453Y-36846875D01*
X45945868Y-36861952D01*
X45958928Y-36883813D01*
X45970937Y-36911131D01*
X45979401Y-36936299D01*
X45981981Y-36945213D01*
X45984126Y-36953472D01*
X45985895Y-36961944D01*
X45987347Y-36971495D01*
X45988540Y-36982992D01*
X45989533Y-36997302D01*
X45990384Y-37015291D01*
X45991153Y-37037827D01*
X45991898Y-37065775D01*
X45992678Y-37100004D01*
X45993551Y-37141379D01*
X45993665Y-37146859D01*
X45993969Y-37165007D01*
X45994294Y-37190911D01*
X45994638Y-37224206D01*
X45994998Y-37264531D01*
X45995373Y-37311521D01*
X45995760Y-37364813D01*
X45996159Y-37424044D01*
X45996566Y-37488851D01*
X45996980Y-37558870D01*
X45997399Y-37633738D01*
X45997820Y-37713092D01*
X45998243Y-37796568D01*
X45998665Y-37883803D01*
X45999083Y-37974434D01*
X45999497Y-38068097D01*
X45999904Y-38164429D01*
X46000302Y-38263067D01*
X46000689Y-38363647D01*
X46001063Y-38465807D01*
X46001423Y-38569182D01*
X46001547Y-38606233D01*
X46001902Y-38712847D01*
X46002262Y-38819790D01*
X46002624Y-38926618D01*
X46002986Y-39032884D01*
X46003348Y-39138143D01*
X46003708Y-39241947D01*
X46004064Y-39343851D01*
X46004414Y-39443410D01*
X46004758Y-39540176D01*
X46005092Y-39633705D01*
X46005417Y-39723549D01*
X46005729Y-39809264D01*
X46006028Y-39890402D01*
X46006312Y-39966519D01*
X46006579Y-40037167D01*
X46006828Y-40101901D01*
X46007057Y-40160275D01*
X46007264Y-40211843D01*
X46007448Y-40256158D01*
X46007599Y-40290906D01*
X46007827Y-40350377D01*
X46007970Y-40407391D01*
X46008030Y-40461393D01*
X46008011Y-40511830D01*
X46007914Y-40558145D01*
X46007742Y-40599786D01*
X46007497Y-40636196D01*
X46007181Y-40666822D01*
X46006798Y-40691109D01*
X46006350Y-40708502D01*
X46005838Y-40718447D01*
X46005724Y-40719531D01*
X45996833Y-40765838D01*
X45982080Y-40814567D01*
X45962372Y-40863657D01*
X45938618Y-40911048D01*
X45911722Y-40954677D01*
X45888897Y-40985073D01*
X45851216Y-41027360D01*
X45811787Y-41064730D01*
X45767950Y-41099618D01*
X45749697Y-41112653D01*
X45730412Y-41125746D01*
X45712326Y-41137194D01*
X45694262Y-41147543D01*
X45675047Y-41157339D01*
X45653503Y-41167129D01*
X45628456Y-41177459D01*
X45598730Y-41188875D01*
X45563149Y-41201923D01*
X45538932Y-41210610D01*
X45504603Y-41222852D01*
X45465929Y-41236639D01*
X45425727Y-41250966D01*
X45386814Y-41264830D01*
X45352008Y-41277227D01*
X45344079Y-41280050D01*
X45317626Y-41289470D01*
X45293579Y-41298035D01*
X45273036Y-41305355D01*
X45257098Y-41311037D01*
X45246864Y-41314689D01*
X45243564Y-41315871D01*
X45238238Y-41317229D01*
X45237475Y-41317151D01*
X45233662Y-41318461D01*
X45226354Y-41322192D01*
X45218338Y-41326431D01*
X45214176Y-41328303D01*
X45209098Y-41330157D01*
X45206057Y-41331427D01*
X45204643Y-41332000D01*
X45202092Y-41332970D01*
X45198041Y-41334465D01*
X45192126Y-41336617D01*
X45183984Y-41339552D01*
X45173253Y-41343402D01*
X45159569Y-41348295D01*
X45142569Y-41354360D01*
X45121890Y-41361726D01*
X45097169Y-41370524D01*
X45068043Y-41380881D01*
X45034148Y-41392927D01*
X44995122Y-41406792D01*
X44950602Y-41422604D01*
X44900223Y-41440494D01*
X44843624Y-41460589D01*
X44780441Y-41483019D01*
X44710311Y-41507915D01*
X44637734Y-41533677D01*
X44591282Y-41550112D01*
X44546043Y-41566017D01*
X44502759Y-41581135D01*
X44462174Y-41595213D01*
X44425029Y-41607995D01*
X44392068Y-41619227D01*
X44364033Y-41628654D01*
X44341667Y-41636020D01*
X44325712Y-41641072D01*
X44319067Y-41643012D01*
X44291083Y-41650302D01*
X44274451Y-41654294D01*
X44265615Y-41656415D01*
X44243769Y-41661125D01*
X44226656Y-41664205D01*
X44215384Y-41665428D01*
X44211391Y-41664969D01*
X44206526Y-41665706D01*
X44205443Y-41666995D01*
X44200427Y-41668743D01*
X44188648Y-41670084D01*
X44171453Y-41670908D01*
X44154984Y-41671120D01*
X44113017Y-41669204D01*
X44071831Y-41663732D01*
X44033678Y-41655114D01*
X44000813Y-41643764D01*
X43997558Y-41642340D01*
X43983667Y-41636451D01*
X43972222Y-41632218D01*
X43965631Y-41630528D01*
X43965516Y-41630526D01*
X43960361Y-41628208D01*
X43959805Y-41626466D01*
X43956538Y-41622817D01*
X43954006Y-41622407D01*
X43946196Y-41619795D01*
X43942842Y-41617312D01*
X43936897Y-41612544D01*
X43926443Y-41604922D01*
X43913734Y-41596086D01*
X43913608Y-41596000D01*
X43889852Y-41576831D01*
X43865636Y-41551880D01*
X43842671Y-41523190D01*
X43822665Y-41492803D01*
X43813937Y-41476888D01*
X43808527Y-41466998D01*
X43804629Y-41461278D01*
X43803568Y-41460653D01*
X43802478Y-41464933D01*
X43800369Y-41475860D01*
X43797490Y-41492062D01*
X43794085Y-41512164D01*
X43791652Y-41527013D01*
X43787499Y-41551070D01*
X43783045Y-41574160D01*
X43778713Y-41594259D01*
X43774926Y-41609341D01*
X43773397Y-41614288D01*
X43767460Y-41631951D01*
X43761306Y-41651086D01*
X43758877Y-41658942D01*
X43747268Y-41689338D01*
X43730424Y-41722672D01*
X43709596Y-41757000D01*
X43686033Y-41790374D01*
X43660986Y-41820847D01*
X43642538Y-41840089D01*
X43622403Y-41857824D01*
X43597975Y-41876732D01*
X43571556Y-41895228D01*
X43545448Y-41911730D01*
X43521952Y-41924654D01*
X43514530Y-41928147D01*
X43504659Y-41932100D01*
X43488191Y-41938204D01*
X43466239Y-41946068D01*
X43439915Y-41955300D01*
X43410332Y-41965509D01*
X43378603Y-41976304D01*
X43356211Y-41983832D01*
X43324838Y-41994330D01*
X43295865Y-42004033D01*
X43270202Y-42012635D01*
X43248762Y-42019829D01*
X43232459Y-42025310D01*
X43222203Y-42028770D01*
X43218955Y-42029883D01*
X43211806Y-42031512D01*
X43211290Y-42031548D01*
X43205987Y-42034672D01*
X43205185Y-42035761D01*
X43201039Y-42037647D01*
X43189766Y-42041906D01*
X43171941Y-42048337D01*
X43148138Y-42056744D01*
X43118932Y-42066925D01*
X43084898Y-42078684D01*
X43046610Y-42091821D01*
X43004642Y-42106136D01*
X42959569Y-42121432D01*
X42911965Y-42137509D01*
X42886064Y-42146225D01*
X42835256Y-42163323D01*
X42785136Y-42180229D01*
X42736459Y-42196686D01*
X42689984Y-42212436D01*
X42646466Y-42227222D01*
X42606664Y-42240786D01*
X42593453Y-42245304D01*
X42571333Y-42252869D01*
X42541230Y-42263216D01*
X42517113Y-42271567D01*
X42499738Y-42277666D01*
X42496372Y-42278867D01*
X42471352Y-42287788D01*
X42440789Y-42298592D01*
X42406817Y-42310532D01*
X42371573Y-42322857D01*
X42337191Y-42334818D01*
X42317914Y-42341491D01*
X42290021Y-42351215D01*
X42264517Y-42360277D01*
X42242452Y-42368290D01*
X42224874Y-42374867D01*
X42212833Y-42379624D01*
X42207376Y-42382172D01*
X42207294Y-42382235D01*
X42202874Y-42384493D01*
X42202062Y-42383554D01*
X42199564Y-42383189D01*
X42195972Y-42385584D01*
X42191063Y-42388418D01*
X42189883Y-42387614D01*
X42187380Y-42386919D01*
X42184809Y-42388460D01*
X42178769Y-42391401D01*
X42166403Y-42396241D01*
X42149147Y-42402493D01*
X42128436Y-42409672D01*
X42105705Y-42417294D01*
X42082389Y-42424870D01*
X42059923Y-42431917D01*
X42039743Y-42437948D01*
X42032518Y-42439999D01*
X42009232Y-42445518D01*
X41980646Y-42450837D01*
X41949446Y-42455585D01*
X41918320Y-42459388D01*
X41889954Y-42461874D01*
X41869018Y-42462677D01*
X41850059Y-42461874D01*
X41825570Y-42459631D01*
X41797943Y-42456275D01*
X41769573Y-42452130D01*
X41742853Y-42447522D01*
X41720178Y-42442778D01*
X41716957Y-42441996D01*
X41664032Y-42425622D01*
X41610069Y-42402939D01*
X41557381Y-42375033D01*
X41512943Y-42346334D01*
X41465452Y-42307780D01*
X41422183Y-42262871D01*
X41383703Y-42212502D01*
X41350584Y-42157569D01*
X41323393Y-42098968D01*
X41302701Y-42037593D01*
X41294101Y-42002043D01*
X41283963Y-41953252D01*
X41273183Y-39472568D01*
X42583650Y-39472568D01*
X42583653Y-39728493D01*
X42583692Y-39803348D01*
X42583804Y-39878271D01*
X42583986Y-39952828D01*
X42584233Y-40026581D01*
X42584542Y-40099095D01*
X42584907Y-40169933D01*
X42585324Y-40238659D01*
X42585790Y-40304836D01*
X42586300Y-40368030D01*
X42586850Y-40427803D01*
X42587436Y-40483719D01*
X42588053Y-40535342D01*
X42588697Y-40582236D01*
X42589365Y-40623966D01*
X42590051Y-40660093D01*
X42590752Y-40690183D01*
X42591463Y-40713800D01*
X42592180Y-40730506D01*
X42592899Y-40739866D01*
X42593453Y-40741792D01*
X42599441Y-40738108D01*
X42600860Y-40737680D01*
X42601476Y-40737618D01*
X42602009Y-40737561D01*
X42603080Y-40737309D01*
X42605307Y-40736661D01*
X42609312Y-40735418D01*
X42615713Y-40733379D01*
X42625131Y-40730345D01*
X42638185Y-40726115D01*
X42655496Y-40720490D01*
X42677683Y-40713268D01*
X42705366Y-40704250D01*
X42739164Y-40693236D01*
X42779698Y-40680026D01*
X42806920Y-40671155D01*
X42846464Y-40658272D01*
X42885021Y-40645717D01*
X42921630Y-40633802D01*
X42955332Y-40622841D01*
X42985165Y-40613144D01*
X43010170Y-40605025D01*
X43029386Y-40598795D01*
X43041854Y-40594766D01*
X43041946Y-40594737D01*
X43084148Y-40581157D01*
X43081181Y-39949912D01*
X43080841Y-39878979D01*
X43080497Y-39810273D01*
X43080153Y-39744231D01*
X43079812Y-39681291D01*
X43079475Y-39621888D01*
X43079147Y-39566459D01*
X43078830Y-39515442D01*
X43078526Y-39469274D01*
X43078239Y-39428391D01*
X43077972Y-39393230D01*
X43077727Y-39364228D01*
X43077506Y-39341822D01*
X43077314Y-39326449D01*
X43077153Y-39318545D01*
X43077086Y-39317532D01*
X43073094Y-39318446D01*
X43062275Y-39321560D01*
X43045534Y-39326598D01*
X43023776Y-39333281D01*
X42997906Y-39341333D01*
X42968828Y-39350476D01*
X42946513Y-39357548D01*
X42908087Y-39369757D01*
X42865469Y-39383289D01*
X42821039Y-39397387D01*
X42777179Y-39411296D01*
X42736269Y-39424262D01*
X42700690Y-39435528D01*
X42700360Y-39435633D01*
X42583650Y-39472568D01*
X41273183Y-39472568D01*
X41272135Y-39231389D01*
X41271488Y-39081978D01*
X41270854Y-38934188D01*
X41270347Y-38815063D01*
X44268398Y-38815063D01*
X44270954Y-39450483D01*
X44271246Y-39521654D01*
X44271541Y-39590600D01*
X44271835Y-39656885D01*
X44272127Y-39720073D01*
X44272415Y-39779730D01*
X44272695Y-39835419D01*
X44272965Y-39886705D01*
X44273224Y-39933153D01*
X44273468Y-39974328D01*
X44273695Y-40009793D01*
X44273904Y-40039114D01*
X44274090Y-40061854D01*
X44274253Y-40077580D01*
X44274390Y-40085854D01*
X44274451Y-40087070D01*
X44278559Y-40086364D01*
X44289393Y-40083420D01*
X44305968Y-40078551D01*
X44327304Y-40072072D01*
X44352417Y-40064296D01*
X44380326Y-40055539D01*
X44410048Y-40046114D01*
X44440601Y-40036336D01*
X44471003Y-40026520D01*
X44500271Y-40016979D01*
X44527424Y-40008028D01*
X44551478Y-39999981D01*
X44571451Y-39993152D01*
X44586362Y-39987857D01*
X44595109Y-39984460D01*
X44602607Y-39981670D01*
X44616491Y-39976947D01*
X44635388Y-39970743D01*
X44657924Y-39963506D01*
X44682723Y-39955687D01*
X44688477Y-39953892D01*
X44769666Y-39928626D01*
X44768437Y-39432852D01*
X44768253Y-39366934D01*
X44768028Y-39301213D01*
X44767767Y-39236380D01*
X44767475Y-39173128D01*
X44767156Y-39112151D01*
X44766815Y-39054142D01*
X44766455Y-38999792D01*
X44766082Y-38949796D01*
X44765700Y-38904846D01*
X44765313Y-38865634D01*
X44764925Y-38832855D01*
X44764542Y-38807200D01*
X44764378Y-38798440D01*
X44761547Y-38659802D01*
X44514972Y-38737433D01*
X44268398Y-38815063D01*
X41270347Y-38815063D01*
X41270233Y-38788245D01*
X41269626Y-38644372D01*
X41269034Y-38502795D01*
X41268458Y-38363738D01*
X41267898Y-38227427D01*
X41267356Y-38094084D01*
X41266832Y-37963937D01*
X41266327Y-37837209D01*
X41265842Y-37714124D01*
X41265378Y-37594909D01*
X41264935Y-37479786D01*
X41264515Y-37368983D01*
X41264118Y-37262721D01*
X41263745Y-37161228D01*
X41263397Y-37064727D01*
X41263075Y-36973443D01*
X41262779Y-36887601D01*
X41262511Y-36807426D01*
X41262271Y-36733142D01*
X41262060Y-36664975D01*
X41261878Y-36603148D01*
X41261728Y-36547886D01*
X41261609Y-36499415D01*
X41261523Y-36457959D01*
X41261470Y-36423743D01*
X41261451Y-36396991D01*
X41261467Y-36377929D01*
X41261512Y-36367444D01*
X41261842Y-36329747D01*
X41262169Y-36299212D01*
X41262561Y-36274882D01*
X41263084Y-36255800D01*
X41263804Y-36241010D01*
X41264788Y-36229554D01*
X41266103Y-36220477D01*
X41267815Y-36212821D01*
X41269990Y-36205629D01*
X41272696Y-36197946D01*
X41273449Y-36195876D01*
X41284994Y-36167111D01*
X41297467Y-36143050D01*
X41312616Y-36120886D01*
X41332192Y-36097807D01*
X41339274Y-36090196D01*
X41376839Y-36053109D01*
X41413355Y-36022747D01*
X41450242Y-35998100D01*
X41488918Y-35978158D01*
X41507895Y-35970211D01*
X41523330Y-35964144D01*
X41537486Y-35958537D01*
X41546460Y-35954942D01*
X41555458Y-35951328D01*
X41560572Y-35949344D01*
X41560668Y-35949310D01*
X41565741Y-35947250D01*
X41568787Y-35945927D01*
X41573542Y-35944217D01*
X41585372Y-35940123D01*
X41603658Y-35933854D01*
X41627780Y-35925621D01*
X41657120Y-35915635D01*
X41691060Y-35904106D01*
X41728980Y-35891244D01*
X41770263Y-35877260D01*
X41814288Y-35862364D01*
X41857008Y-35847926D01*
X41905578Y-35831512D01*
X41953900Y-35815171D01*
X42001111Y-35799196D01*
X42046346Y-35783879D01*
X42088742Y-35769513D01*
X42127434Y-35756392D01*
X42161559Y-35744807D01*
X42190251Y-35735052D01*
X42212649Y-35727419D01*
X42222952Y-35723896D01*
X42264437Y-35710202D01*
X42299691Y-35699885D01*
X42329827Y-35692864D01*
X42355958Y-35689052D01*
X42379195Y-35688368D01*
X42400652Y-35690727D01*
X42421442Y-35696045D01*
X42442677Y-35704239D01*
X42448595Y-35706917D01*
X42467691Y-35718795D01*
X42487878Y-35736515D01*
X42507497Y-35758280D01*
X42524888Y-35782292D01*
X42535839Y-35801422D01*
X42540964Y-35811604D01*
X42545438Y-35820718D01*
X42549313Y-35829368D01*
X42552638Y-35838155D01*
X42555463Y-35847684D01*
X42557838Y-35858556D01*
X42559815Y-35871373D01*
X42561442Y-35886740D01*
X42562769Y-35905257D01*
X42563848Y-35927528D01*
X42564728Y-35954156D01*
X42565459Y-35985743D01*
X42566091Y-36022891D01*
X42566675Y-36066203D01*
X42567260Y-36116283D01*
X42567898Y-36173732D01*
X42568065Y-36188828D01*
X42568462Y-36227424D01*
X42568877Y-36273459D01*
X42569306Y-36326254D01*
X42569744Y-36385130D01*
X42570189Y-36449406D01*
X42570636Y-36518403D01*
X42571081Y-36591441D01*
X42571521Y-36667842D01*
X42571950Y-36746926D01*
X42572367Y-36828012D01*
X42572765Y-36910422D01*
X42573142Y-36993476D01*
X42573494Y-37076495D01*
X42573816Y-37158798D01*
X42574020Y-37214937D01*
X42574369Y-37310608D01*
X42574720Y-37398391D01*
X42575075Y-37478519D01*
X42575437Y-37551224D01*
X42575807Y-37616736D01*
X42576189Y-37675288D01*
X42576583Y-37727111D01*
X42576994Y-37772438D01*
X42577422Y-37811499D01*
X42577870Y-37844526D01*
X42578341Y-37871752D01*
X42578837Y-37893408D01*
X42579360Y-37909725D01*
X42579912Y-37920936D01*
X42580496Y-37927271D01*
X42581106Y-37928971D01*
X42585673Y-37927108D01*
X42597289Y-37922944D01*
X42615286Y-37916704D01*
X42638998Y-37908614D01*
X42667758Y-37898899D01*
X42700898Y-37887783D01*
X42737752Y-37875492D01*
X42777652Y-37862251D01*
X42819932Y-37848285D01*
X42828797Y-37845365D01*
X43071915Y-37765315D01*
X43070335Y-36991280D01*
X43070146Y-36898102D01*
X43069980Y-36812692D01*
X43069837Y-36734699D01*
X43069722Y-36663772D01*
X43069637Y-36599558D01*
X43069584Y-36541708D01*
X43069566Y-36489871D01*
X43069587Y-36443694D01*
X43069648Y-36402827D01*
X43069752Y-36366920D01*
X43069903Y-36335620D01*
X43070102Y-36308576D01*
X43070352Y-36285439D01*
X43070657Y-36265855D01*
X43071019Y-36249475D01*
X43071441Y-36235947D01*
X43071924Y-36224921D01*
X43072473Y-36216044D01*
X43073090Y-36208966D01*
X43073777Y-36203336D01*
X43074537Y-36198802D01*
X43075373Y-36195014D01*
X43076288Y-36191620D01*
X43076510Y-36190858D01*
X43090026Y-36154006D01*
X43108619Y-36119299D01*
X43133259Y-36085140D01*
X43157607Y-36057526D01*
X43177146Y-36039502D01*
X43201843Y-36021454D01*
X43232245Y-36003080D01*
X43268896Y-35984081D01*
X43312341Y-35964154D01*
X43363127Y-35943000D01*
X43371184Y-35939793D01*
X43395403Y-35930127D01*
X43418660Y-35920706D01*
X43439245Y-35912236D01*
X43455446Y-35905417D01*
X43464552Y-35901419D01*
X43477920Y-35895528D01*
X43496086Y-35887848D01*
X43516282Y-35879536D01*
X43529503Y-35874219D01*
X43547094Y-35867035D01*
X43562121Y-35860554D01*
X43572826Y-35855557D01*
X43577201Y-35853065D01*
X43581541Y-35850744D01*
X43582276Y-35851490D01*
X43585157Y-35851571D01*
X43591410Y-35848325D01*
X43597483Y-35845352D01*
X43610252Y-35839755D01*
X43628855Y-35831878D01*
X43652431Y-35822069D01*
X43680119Y-35810672D01*
X43711059Y-35798034D01*
X43744389Y-35784501D01*
X43779248Y-35770418D01*
X43814776Y-35756131D01*
X43850112Y-35741987D01*
X43884394Y-35728330D01*
X43916762Y-35715507D01*
X43946354Y-35703864D01*
X43972311Y-35693747D01*
X43993771Y-35685501D01*
X44009872Y-35679472D01*
X44019755Y-35676006D01*
X44021903Y-35675384D01*
X44046646Y-35671750D01*
X44073926Y-35671118D01*
X44100721Y-35673335D01*
G37*
D11*
%TO.C,D3*%
X58440000Y-37864000D02*
X58440000Y-38020000D01*
X58440000Y-40180000D02*
X58440000Y-40336000D01*
X58440001Y-37864485D02*
G75*
G02*
X61672334Y-38021392I1559999J-1235515D01*
G01*
X58959040Y-38020001D02*
G75*
G02*
X61041129Y-38020164I1040960J-1079999D01*
G01*
X61041129Y-40179836D02*
G75*
G02*
X58959040Y-40179999I-1041129J1079836D01*
G01*
X61672334Y-40178608D02*
G75*
G02*
X58440001Y-40335515I-1672334J1078608D01*
G01*
%TO.C,D4*%
X68440000Y-37614000D02*
X68440000Y-37770000D01*
X68440000Y-39930000D02*
X68440000Y-40086000D01*
X68440001Y-37614485D02*
G75*
G02*
X71672334Y-37771392I1559999J-1235515D01*
G01*
X68959040Y-37770001D02*
G75*
G02*
X71041129Y-37770164I1040960J-1079999D01*
G01*
X71041129Y-39929836D02*
G75*
G02*
X68959040Y-39929999I-1041129J1079836D01*
G01*
X71672334Y-39928608D02*
G75*
G02*
X68440001Y-40085515I-1672334J1078608D01*
G01*
%TO.C,D9*%
X118440000Y-37514000D02*
X118440000Y-37670000D01*
X118440000Y-39830000D02*
X118440000Y-39986000D01*
X118440001Y-37514485D02*
G75*
G02*
X121672334Y-37671392I1559999J-1235515D01*
G01*
X118959040Y-37670001D02*
G75*
G02*
X121041129Y-37670164I1040960J-1079999D01*
G01*
X121041129Y-39829836D02*
G75*
G02*
X118959040Y-39829999I-1041129J1079836D01*
G01*
X121672334Y-39828608D02*
G75*
G02*
X118440001Y-39985515I-1672334J1078608D01*
G01*
%TO.C,D7*%
X98440000Y-37314000D02*
X98440000Y-37470000D01*
X98440000Y-39630000D02*
X98440000Y-39786000D01*
X98440001Y-37314485D02*
G75*
G02*
X101672334Y-37471392I1559999J-1235515D01*
G01*
X98959040Y-37470001D02*
G75*
G02*
X101041129Y-37470164I1040960J-1079999D01*
G01*
X101041129Y-39629836D02*
G75*
G02*
X98959040Y-39629999I-1041129J1079836D01*
G01*
X101672334Y-39628608D02*
G75*
G02*
X98440001Y-39785515I-1672334J1078608D01*
G01*
%TO.C,C1*%
X64030000Y-36830000D02*
X64045000Y-36830000D01*
X64030000Y-41370000D02*
X64030000Y-36830000D01*
X64030000Y-41370000D02*
X64045000Y-41370000D01*
X66155000Y-36830000D02*
X66170000Y-36830000D01*
X66155000Y-41370000D02*
X66170000Y-41370000D01*
X66170000Y-41370000D02*
X66170000Y-36830000D01*
%TO.C,D8*%
X108440000Y-37514000D02*
X108440000Y-37670000D01*
X108440000Y-39830000D02*
X108440000Y-39986000D01*
X108440001Y-37514485D02*
G75*
G02*
X111672334Y-37671392I1559999J-1235515D01*
G01*
X108959040Y-37670001D02*
G75*
G02*
X111041129Y-37670164I1040960J-1079999D01*
G01*
X111041129Y-39829836D02*
G75*
G02*
X108959040Y-39829999I-1041129J1079836D01*
G01*
X111672334Y-39828608D02*
G75*
G02*
X108440001Y-39985515I-1672334J1078608D01*
G01*
%TD*%
M02*
