%TF.GenerationSoftware,KiCad,Pcbnew,8.0.1*%
%TF.CreationDate,2024-05-11T19:49:50+01:00*%
%TF.ProjectId,TIMI2CLEDPanel,54494d49-3243-44c4-9544-50616e656c2e,rev?*%
%TF.SameCoordinates,Original*%
%TF.FileFunction,Legend,Bot*%
%TF.FilePolarity,Positive*%
%FSLAX46Y46*%
G04 Gerber Fmt 4.6, Leading zero omitted, Abs format (unit mm)*
G04 Created by KiCad (PCBNEW 8.0.1) date 2024-05-11 19:49:50*
%MOMM*%
%LPD*%
G01*
G04 APERTURE LIST*
%ADD10C,0.150000*%
%ADD11C,0.129000*%
%ADD12C,0.108000*%
%ADD13C,0.120000*%
G04 APERTURE END LIST*
D10*
X116279887Y-34546009D02*
X116137030Y-34593628D01*
X116137030Y-34593628D02*
X116089411Y-34641247D01*
X116089411Y-34641247D02*
X116041792Y-34736485D01*
X116041792Y-34736485D02*
X116041792Y-34879342D01*
X116041792Y-34879342D02*
X116089411Y-34974580D01*
X116089411Y-34974580D02*
X116137030Y-35022200D01*
X116137030Y-35022200D02*
X116232268Y-35069819D01*
X116232268Y-35069819D02*
X116613220Y-35069819D01*
X116613220Y-35069819D02*
X116613220Y-34069819D01*
X116613220Y-34069819D02*
X116279887Y-34069819D01*
X116279887Y-34069819D02*
X116184649Y-34117438D01*
X116184649Y-34117438D02*
X116137030Y-34165057D01*
X116137030Y-34165057D02*
X116089411Y-34260295D01*
X116089411Y-34260295D02*
X116089411Y-34355533D01*
X116089411Y-34355533D02*
X116137030Y-34450771D01*
X116137030Y-34450771D02*
X116184649Y-34498390D01*
X116184649Y-34498390D02*
X116279887Y-34546009D01*
X116279887Y-34546009D02*
X116613220Y-34546009D01*
X115660839Y-34784104D02*
X115184649Y-34784104D01*
X115756077Y-35069819D02*
X115422744Y-34069819D01*
X115422744Y-34069819D02*
X115089411Y-35069819D01*
X114184649Y-34974580D02*
X114232268Y-35022200D01*
X114232268Y-35022200D02*
X114375125Y-35069819D01*
X114375125Y-35069819D02*
X114470363Y-35069819D01*
X114470363Y-35069819D02*
X114613220Y-35022200D01*
X114613220Y-35022200D02*
X114708458Y-34926961D01*
X114708458Y-34926961D02*
X114756077Y-34831723D01*
X114756077Y-34831723D02*
X114803696Y-34641247D01*
X114803696Y-34641247D02*
X114803696Y-34498390D01*
X114803696Y-34498390D02*
X114756077Y-34307914D01*
X114756077Y-34307914D02*
X114708458Y-34212676D01*
X114708458Y-34212676D02*
X114613220Y-34117438D01*
X114613220Y-34117438D02*
X114470363Y-34069819D01*
X114470363Y-34069819D02*
X114375125Y-34069819D01*
X114375125Y-34069819D02*
X114232268Y-34117438D01*
X114232268Y-34117438D02*
X114184649Y-34165057D01*
X113756077Y-35069819D02*
X113756077Y-34069819D01*
X113184649Y-35069819D02*
X113613220Y-34498390D01*
X113184649Y-34069819D02*
X113756077Y-34641247D01*
X93304819Y-30923810D02*
X92304819Y-30923810D01*
X92400057Y-31352381D02*
X92352438Y-31400000D01*
X92352438Y-31400000D02*
X92304819Y-31495238D01*
X92304819Y-31495238D02*
X92304819Y-31733333D01*
X92304819Y-31733333D02*
X92352438Y-31828571D01*
X92352438Y-31828571D02*
X92400057Y-31876190D01*
X92400057Y-31876190D02*
X92495295Y-31923809D01*
X92495295Y-31923809D02*
X92590533Y-31923809D01*
X92590533Y-31923809D02*
X92733390Y-31876190D01*
X92733390Y-31876190D02*
X93304819Y-31304762D01*
X93304819Y-31304762D02*
X93304819Y-31923809D01*
X93209580Y-32923809D02*
X93257200Y-32876190D01*
X93257200Y-32876190D02*
X93304819Y-32733333D01*
X93304819Y-32733333D02*
X93304819Y-32638095D01*
X93304819Y-32638095D02*
X93257200Y-32495238D01*
X93257200Y-32495238D02*
X93161961Y-32400000D01*
X93161961Y-32400000D02*
X93066723Y-32352381D01*
X93066723Y-32352381D02*
X92876247Y-32304762D01*
X92876247Y-32304762D02*
X92733390Y-32304762D01*
X92733390Y-32304762D02*
X92542914Y-32352381D01*
X92542914Y-32352381D02*
X92447676Y-32400000D01*
X92447676Y-32400000D02*
X92352438Y-32495238D01*
X92352438Y-32495238D02*
X92304819Y-32638095D01*
X92304819Y-32638095D02*
X92304819Y-32733333D01*
X92304819Y-32733333D02*
X92352438Y-32876190D01*
X92352438Y-32876190D02*
X92400057Y-32923809D01*
D11*
X65409240Y-38956666D02*
X65450193Y-38915714D01*
X65450193Y-38915714D02*
X65491145Y-38792856D01*
X65491145Y-38792856D02*
X65491145Y-38710952D01*
X65491145Y-38710952D02*
X65450193Y-38588095D01*
X65450193Y-38588095D02*
X65368288Y-38506190D01*
X65368288Y-38506190D02*
X65286383Y-38465237D01*
X65286383Y-38465237D02*
X65122573Y-38424285D01*
X65122573Y-38424285D02*
X64999716Y-38424285D01*
X64999716Y-38424285D02*
X64835907Y-38465237D01*
X64835907Y-38465237D02*
X64754002Y-38506190D01*
X64754002Y-38506190D02*
X64672097Y-38588095D01*
X64672097Y-38588095D02*
X64631145Y-38710952D01*
X64631145Y-38710952D02*
X64631145Y-38792856D01*
X64631145Y-38792856D02*
X64672097Y-38915714D01*
X64672097Y-38915714D02*
X64713050Y-38956666D01*
X65491145Y-39775714D02*
X65491145Y-39284285D01*
X65491145Y-39529999D02*
X64631145Y-39529999D01*
X64631145Y-39529999D02*
X64754002Y-39448095D01*
X64754002Y-39448095D02*
X64835907Y-39366190D01*
X64835907Y-39366190D02*
X64876859Y-39284285D01*
D10*
X126668094Y-36244819D02*
X126668094Y-35244819D01*
X126668094Y-35244819D02*
X126429999Y-35244819D01*
X126429999Y-35244819D02*
X126287142Y-35292438D01*
X126287142Y-35292438D02*
X126191904Y-35387676D01*
X126191904Y-35387676D02*
X126144285Y-35482914D01*
X126144285Y-35482914D02*
X126096666Y-35673390D01*
X126096666Y-35673390D02*
X126096666Y-35816247D01*
X126096666Y-35816247D02*
X126144285Y-36006723D01*
X126144285Y-36006723D02*
X126191904Y-36101961D01*
X126191904Y-36101961D02*
X126287142Y-36197200D01*
X126287142Y-36197200D02*
X126429999Y-36244819D01*
X126429999Y-36244819D02*
X126668094Y-36244819D01*
X125144285Y-36244819D02*
X125715713Y-36244819D01*
X125429999Y-36244819D02*
X125429999Y-35244819D01*
X125429999Y-35244819D02*
X125525237Y-35387676D01*
X125525237Y-35387676D02*
X125620475Y-35482914D01*
X125620475Y-35482914D02*
X125715713Y-35530533D01*
X128239523Y-42164819D02*
X128239523Y-41164819D01*
X128239523Y-41164819D02*
X127858571Y-41164819D01*
X127858571Y-41164819D02*
X127763333Y-41212438D01*
X127763333Y-41212438D02*
X127715714Y-41260057D01*
X127715714Y-41260057D02*
X127668095Y-41355295D01*
X127668095Y-41355295D02*
X127668095Y-41498152D01*
X127668095Y-41498152D02*
X127715714Y-41593390D01*
X127715714Y-41593390D02*
X127763333Y-41641009D01*
X127763333Y-41641009D02*
X127858571Y-41688628D01*
X127858571Y-41688628D02*
X128239523Y-41688628D01*
X127049047Y-41164819D02*
X126858571Y-41164819D01*
X126858571Y-41164819D02*
X126763333Y-41212438D01*
X126763333Y-41212438D02*
X126668095Y-41307676D01*
X126668095Y-41307676D02*
X126620476Y-41498152D01*
X126620476Y-41498152D02*
X126620476Y-41831485D01*
X126620476Y-41831485D02*
X126668095Y-42021961D01*
X126668095Y-42021961D02*
X126763333Y-42117200D01*
X126763333Y-42117200D02*
X126858571Y-42164819D01*
X126858571Y-42164819D02*
X127049047Y-42164819D01*
X127049047Y-42164819D02*
X127144285Y-42117200D01*
X127144285Y-42117200D02*
X127239523Y-42021961D01*
X127239523Y-42021961D02*
X127287142Y-41831485D01*
X127287142Y-41831485D02*
X127287142Y-41498152D01*
X127287142Y-41498152D02*
X127239523Y-41307676D01*
X127239523Y-41307676D02*
X127144285Y-41212438D01*
X127144285Y-41212438D02*
X127049047Y-41164819D01*
X126287142Y-41164819D02*
X126049047Y-42164819D01*
X126049047Y-42164819D02*
X125858571Y-41450533D01*
X125858571Y-41450533D02*
X125668095Y-42164819D01*
X125668095Y-42164819D02*
X125430000Y-41164819D01*
X125049047Y-41641009D02*
X124715714Y-41641009D01*
X124572857Y-42164819D02*
X125049047Y-42164819D01*
X125049047Y-42164819D02*
X125049047Y-41164819D01*
X125049047Y-41164819D02*
X124572857Y-41164819D01*
X123572857Y-42164819D02*
X123906190Y-41688628D01*
X124144285Y-42164819D02*
X124144285Y-41164819D01*
X124144285Y-41164819D02*
X123763333Y-41164819D01*
X123763333Y-41164819D02*
X123668095Y-41212438D01*
X123668095Y-41212438D02*
X123620476Y-41260057D01*
X123620476Y-41260057D02*
X123572857Y-41355295D01*
X123572857Y-41355295D02*
X123572857Y-41498152D01*
X123572857Y-41498152D02*
X123620476Y-41593390D01*
X123620476Y-41593390D02*
X123668095Y-41641009D01*
X123668095Y-41641009D02*
X123763333Y-41688628D01*
X123763333Y-41688628D02*
X124144285Y-41688628D01*
D12*
X100124999Y-45577469D02*
X100364999Y-45234612D01*
X100536428Y-45577469D02*
X100536428Y-44857469D01*
X100536428Y-44857469D02*
X100262142Y-44857469D01*
X100262142Y-44857469D02*
X100193571Y-44891755D01*
X100193571Y-44891755D02*
X100159285Y-44926041D01*
X100159285Y-44926041D02*
X100124999Y-44994612D01*
X100124999Y-44994612D02*
X100124999Y-45097469D01*
X100124999Y-45097469D02*
X100159285Y-45166041D01*
X100159285Y-45166041D02*
X100193571Y-45200326D01*
X100193571Y-45200326D02*
X100262142Y-45234612D01*
X100262142Y-45234612D02*
X100536428Y-45234612D01*
X99884999Y-44857469D02*
X99404999Y-44857469D01*
X99404999Y-44857469D02*
X99713571Y-45577469D01*
D10*
X79549819Y-30923810D02*
X78549819Y-30923810D01*
X78645057Y-31352381D02*
X78597438Y-31400000D01*
X78597438Y-31400000D02*
X78549819Y-31495238D01*
X78549819Y-31495238D02*
X78549819Y-31733333D01*
X78549819Y-31733333D02*
X78597438Y-31828571D01*
X78597438Y-31828571D02*
X78645057Y-31876190D01*
X78645057Y-31876190D02*
X78740295Y-31923809D01*
X78740295Y-31923809D02*
X78835533Y-31923809D01*
X78835533Y-31923809D02*
X78978390Y-31876190D01*
X78978390Y-31876190D02*
X79549819Y-31304762D01*
X79549819Y-31304762D02*
X79549819Y-31923809D01*
X79454580Y-32923809D02*
X79502200Y-32876190D01*
X79502200Y-32876190D02*
X79549819Y-32733333D01*
X79549819Y-32733333D02*
X79549819Y-32638095D01*
X79549819Y-32638095D02*
X79502200Y-32495238D01*
X79502200Y-32495238D02*
X79406961Y-32400000D01*
X79406961Y-32400000D02*
X79311723Y-32352381D01*
X79311723Y-32352381D02*
X79121247Y-32304762D01*
X79121247Y-32304762D02*
X78978390Y-32304762D01*
X78978390Y-32304762D02*
X78787914Y-32352381D01*
X78787914Y-32352381D02*
X78692676Y-32400000D01*
X78692676Y-32400000D02*
X78597438Y-32495238D01*
X78597438Y-32495238D02*
X78549819Y-32638095D01*
X78549819Y-32638095D02*
X78549819Y-32733333D01*
X78549819Y-32733333D02*
X78597438Y-32876190D01*
X78597438Y-32876190D02*
X78645057Y-32923809D01*
D12*
X110112856Y-32277469D02*
X110352856Y-31934612D01*
X110524285Y-32277469D02*
X110524285Y-31557469D01*
X110524285Y-31557469D02*
X110249999Y-31557469D01*
X110249999Y-31557469D02*
X110181428Y-31591755D01*
X110181428Y-31591755D02*
X110147142Y-31626041D01*
X110147142Y-31626041D02*
X110112856Y-31694612D01*
X110112856Y-31694612D02*
X110112856Y-31797469D01*
X110112856Y-31797469D02*
X110147142Y-31866041D01*
X110147142Y-31866041D02*
X110181428Y-31900326D01*
X110181428Y-31900326D02*
X110249999Y-31934612D01*
X110249999Y-31934612D02*
X110524285Y-31934612D01*
X109427142Y-32277469D02*
X109838571Y-32277469D01*
X109632856Y-32277469D02*
X109632856Y-31557469D01*
X109632856Y-31557469D02*
X109701428Y-31660326D01*
X109701428Y-31660326D02*
X109769999Y-31728898D01*
X109769999Y-31728898D02*
X109838571Y-31763184D01*
X108981428Y-31557469D02*
X108912857Y-31557469D01*
X108912857Y-31557469D02*
X108844285Y-31591755D01*
X108844285Y-31591755D02*
X108810000Y-31626041D01*
X108810000Y-31626041D02*
X108775714Y-31694612D01*
X108775714Y-31694612D02*
X108741428Y-31831755D01*
X108741428Y-31831755D02*
X108741428Y-32003184D01*
X108741428Y-32003184D02*
X108775714Y-32140326D01*
X108775714Y-32140326D02*
X108810000Y-32208898D01*
X108810000Y-32208898D02*
X108844285Y-32243184D01*
X108844285Y-32243184D02*
X108912857Y-32277469D01*
X108912857Y-32277469D02*
X108981428Y-32277469D01*
X108981428Y-32277469D02*
X109050000Y-32243184D01*
X109050000Y-32243184D02*
X109084285Y-32208898D01*
X109084285Y-32208898D02*
X109118571Y-32140326D01*
X109118571Y-32140326D02*
X109152857Y-32003184D01*
X109152857Y-32003184D02*
X109152857Y-31831755D01*
X109152857Y-31831755D02*
X109118571Y-31694612D01*
X109118571Y-31694612D02*
X109084285Y-31626041D01*
X109084285Y-31626041D02*
X109050000Y-31591755D01*
X109050000Y-31591755D02*
X108981428Y-31557469D01*
X120124999Y-45577469D02*
X120364999Y-45234612D01*
X120536428Y-45577469D02*
X120536428Y-44857469D01*
X120536428Y-44857469D02*
X120262142Y-44857469D01*
X120262142Y-44857469D02*
X120193571Y-44891755D01*
X120193571Y-44891755D02*
X120159285Y-44926041D01*
X120159285Y-44926041D02*
X120124999Y-44994612D01*
X120124999Y-44994612D02*
X120124999Y-45097469D01*
X120124999Y-45097469D02*
X120159285Y-45166041D01*
X120159285Y-45166041D02*
X120193571Y-45200326D01*
X120193571Y-45200326D02*
X120262142Y-45234612D01*
X120262142Y-45234612D02*
X120536428Y-45234612D01*
X119782142Y-45577469D02*
X119644999Y-45577469D01*
X119644999Y-45577469D02*
X119576428Y-45543184D01*
X119576428Y-45543184D02*
X119542142Y-45508898D01*
X119542142Y-45508898D02*
X119473571Y-45406041D01*
X119473571Y-45406041D02*
X119439285Y-45268898D01*
X119439285Y-45268898D02*
X119439285Y-44994612D01*
X119439285Y-44994612D02*
X119473571Y-44926041D01*
X119473571Y-44926041D02*
X119507857Y-44891755D01*
X119507857Y-44891755D02*
X119576428Y-44857469D01*
X119576428Y-44857469D02*
X119713571Y-44857469D01*
X119713571Y-44857469D02*
X119782142Y-44891755D01*
X119782142Y-44891755D02*
X119816428Y-44926041D01*
X119816428Y-44926041D02*
X119850714Y-44994612D01*
X119850714Y-44994612D02*
X119850714Y-45166041D01*
X119850714Y-45166041D02*
X119816428Y-45234612D01*
X119816428Y-45234612D02*
X119782142Y-45268898D01*
X119782142Y-45268898D02*
X119713571Y-45303184D01*
X119713571Y-45303184D02*
X119576428Y-45303184D01*
X119576428Y-45303184D02*
X119507857Y-45268898D01*
X119507857Y-45268898D02*
X119473571Y-45234612D01*
X119473571Y-45234612D02*
X119439285Y-45166041D01*
X110124999Y-45577469D02*
X110364999Y-45234612D01*
X110536428Y-45577469D02*
X110536428Y-44857469D01*
X110536428Y-44857469D02*
X110262142Y-44857469D01*
X110262142Y-44857469D02*
X110193571Y-44891755D01*
X110193571Y-44891755D02*
X110159285Y-44926041D01*
X110159285Y-44926041D02*
X110124999Y-44994612D01*
X110124999Y-44994612D02*
X110124999Y-45097469D01*
X110124999Y-45097469D02*
X110159285Y-45166041D01*
X110159285Y-45166041D02*
X110193571Y-45200326D01*
X110193571Y-45200326D02*
X110262142Y-45234612D01*
X110262142Y-45234612D02*
X110536428Y-45234612D01*
X109713571Y-45166041D02*
X109782142Y-45131755D01*
X109782142Y-45131755D02*
X109816428Y-45097469D01*
X109816428Y-45097469D02*
X109850714Y-45028898D01*
X109850714Y-45028898D02*
X109850714Y-44994612D01*
X109850714Y-44994612D02*
X109816428Y-44926041D01*
X109816428Y-44926041D02*
X109782142Y-44891755D01*
X109782142Y-44891755D02*
X109713571Y-44857469D01*
X109713571Y-44857469D02*
X109576428Y-44857469D01*
X109576428Y-44857469D02*
X109507857Y-44891755D01*
X109507857Y-44891755D02*
X109473571Y-44926041D01*
X109473571Y-44926041D02*
X109439285Y-44994612D01*
X109439285Y-44994612D02*
X109439285Y-45028898D01*
X109439285Y-45028898D02*
X109473571Y-45097469D01*
X109473571Y-45097469D02*
X109507857Y-45131755D01*
X109507857Y-45131755D02*
X109576428Y-45166041D01*
X109576428Y-45166041D02*
X109713571Y-45166041D01*
X109713571Y-45166041D02*
X109782142Y-45200326D01*
X109782142Y-45200326D02*
X109816428Y-45234612D01*
X109816428Y-45234612D02*
X109850714Y-45303184D01*
X109850714Y-45303184D02*
X109850714Y-45440326D01*
X109850714Y-45440326D02*
X109816428Y-45508898D01*
X109816428Y-45508898D02*
X109782142Y-45543184D01*
X109782142Y-45543184D02*
X109713571Y-45577469D01*
X109713571Y-45577469D02*
X109576428Y-45577469D01*
X109576428Y-45577469D02*
X109507857Y-45543184D01*
X109507857Y-45543184D02*
X109473571Y-45508898D01*
X109473571Y-45508898D02*
X109439285Y-45440326D01*
X109439285Y-45440326D02*
X109439285Y-45303184D01*
X109439285Y-45303184D02*
X109473571Y-45234612D01*
X109473571Y-45234612D02*
X109507857Y-45200326D01*
X109507857Y-45200326D02*
X109576428Y-45166041D01*
X50124999Y-45577469D02*
X50364999Y-45234612D01*
X50536428Y-45577469D02*
X50536428Y-44857469D01*
X50536428Y-44857469D02*
X50262142Y-44857469D01*
X50262142Y-44857469D02*
X50193571Y-44891755D01*
X50193571Y-44891755D02*
X50159285Y-44926041D01*
X50159285Y-44926041D02*
X50124999Y-44994612D01*
X50124999Y-44994612D02*
X50124999Y-45097469D01*
X50124999Y-45097469D02*
X50159285Y-45166041D01*
X50159285Y-45166041D02*
X50193571Y-45200326D01*
X50193571Y-45200326D02*
X50262142Y-45234612D01*
X50262142Y-45234612D02*
X50536428Y-45234612D01*
X49850714Y-44926041D02*
X49816428Y-44891755D01*
X49816428Y-44891755D02*
X49747857Y-44857469D01*
X49747857Y-44857469D02*
X49576428Y-44857469D01*
X49576428Y-44857469D02*
X49507857Y-44891755D01*
X49507857Y-44891755D02*
X49473571Y-44926041D01*
X49473571Y-44926041D02*
X49439285Y-44994612D01*
X49439285Y-44994612D02*
X49439285Y-45063184D01*
X49439285Y-45063184D02*
X49473571Y-45166041D01*
X49473571Y-45166041D02*
X49884999Y-45577469D01*
X49884999Y-45577469D02*
X49439285Y-45577469D01*
X119519999Y-32277469D02*
X119759999Y-31934612D01*
X119931428Y-32277469D02*
X119931428Y-31557469D01*
X119931428Y-31557469D02*
X119657142Y-31557469D01*
X119657142Y-31557469D02*
X119588571Y-31591755D01*
X119588571Y-31591755D02*
X119554285Y-31626041D01*
X119554285Y-31626041D02*
X119519999Y-31694612D01*
X119519999Y-31694612D02*
X119519999Y-31797469D01*
X119519999Y-31797469D02*
X119554285Y-31866041D01*
X119554285Y-31866041D02*
X119588571Y-31900326D01*
X119588571Y-31900326D02*
X119657142Y-31934612D01*
X119657142Y-31934612D02*
X119931428Y-31934612D01*
X118834285Y-32277469D02*
X119245714Y-32277469D01*
X119039999Y-32277469D02*
X119039999Y-31557469D01*
X119039999Y-31557469D02*
X119108571Y-31660326D01*
X119108571Y-31660326D02*
X119177142Y-31728898D01*
X119177142Y-31728898D02*
X119245714Y-31763184D01*
X60124999Y-45577469D02*
X60364999Y-45234612D01*
X60536428Y-45577469D02*
X60536428Y-44857469D01*
X60536428Y-44857469D02*
X60262142Y-44857469D01*
X60262142Y-44857469D02*
X60193571Y-44891755D01*
X60193571Y-44891755D02*
X60159285Y-44926041D01*
X60159285Y-44926041D02*
X60124999Y-44994612D01*
X60124999Y-44994612D02*
X60124999Y-45097469D01*
X60124999Y-45097469D02*
X60159285Y-45166041D01*
X60159285Y-45166041D02*
X60193571Y-45200326D01*
X60193571Y-45200326D02*
X60262142Y-45234612D01*
X60262142Y-45234612D02*
X60536428Y-45234612D01*
X59884999Y-44857469D02*
X59439285Y-44857469D01*
X59439285Y-44857469D02*
X59679285Y-45131755D01*
X59679285Y-45131755D02*
X59576428Y-45131755D01*
X59576428Y-45131755D02*
X59507857Y-45166041D01*
X59507857Y-45166041D02*
X59473571Y-45200326D01*
X59473571Y-45200326D02*
X59439285Y-45268898D01*
X59439285Y-45268898D02*
X59439285Y-45440326D01*
X59439285Y-45440326D02*
X59473571Y-45508898D01*
X59473571Y-45508898D02*
X59507857Y-45543184D01*
X59507857Y-45543184D02*
X59576428Y-45577469D01*
X59576428Y-45577469D02*
X59782142Y-45577469D01*
X59782142Y-45577469D02*
X59850714Y-45543184D01*
X59850714Y-45543184D02*
X59884999Y-45508898D01*
X90124999Y-45577469D02*
X90364999Y-45234612D01*
X90536428Y-45577469D02*
X90536428Y-44857469D01*
X90536428Y-44857469D02*
X90262142Y-44857469D01*
X90262142Y-44857469D02*
X90193571Y-44891755D01*
X90193571Y-44891755D02*
X90159285Y-44926041D01*
X90159285Y-44926041D02*
X90124999Y-44994612D01*
X90124999Y-44994612D02*
X90124999Y-45097469D01*
X90124999Y-45097469D02*
X90159285Y-45166041D01*
X90159285Y-45166041D02*
X90193571Y-45200326D01*
X90193571Y-45200326D02*
X90262142Y-45234612D01*
X90262142Y-45234612D02*
X90536428Y-45234612D01*
X89507857Y-44857469D02*
X89644999Y-44857469D01*
X89644999Y-44857469D02*
X89713571Y-44891755D01*
X89713571Y-44891755D02*
X89747857Y-44926041D01*
X89747857Y-44926041D02*
X89816428Y-45028898D01*
X89816428Y-45028898D02*
X89850714Y-45166041D01*
X89850714Y-45166041D02*
X89850714Y-45440326D01*
X89850714Y-45440326D02*
X89816428Y-45508898D01*
X89816428Y-45508898D02*
X89782142Y-45543184D01*
X89782142Y-45543184D02*
X89713571Y-45577469D01*
X89713571Y-45577469D02*
X89576428Y-45577469D01*
X89576428Y-45577469D02*
X89507857Y-45543184D01*
X89507857Y-45543184D02*
X89473571Y-45508898D01*
X89473571Y-45508898D02*
X89439285Y-45440326D01*
X89439285Y-45440326D02*
X89439285Y-45268898D01*
X89439285Y-45268898D02*
X89473571Y-45200326D01*
X89473571Y-45200326D02*
X89507857Y-45166041D01*
X89507857Y-45166041D02*
X89576428Y-45131755D01*
X89576428Y-45131755D02*
X89713571Y-45131755D01*
X89713571Y-45131755D02*
X89782142Y-45166041D01*
X89782142Y-45166041D02*
X89816428Y-45200326D01*
X89816428Y-45200326D02*
X89850714Y-45268898D01*
D10*
X95904819Y-38028095D02*
X96714342Y-38028095D01*
X96714342Y-38028095D02*
X96809580Y-38075714D01*
X96809580Y-38075714D02*
X96857200Y-38123333D01*
X96857200Y-38123333D02*
X96904819Y-38218571D01*
X96904819Y-38218571D02*
X96904819Y-38409047D01*
X96904819Y-38409047D02*
X96857200Y-38504285D01*
X96857200Y-38504285D02*
X96809580Y-38551904D01*
X96809580Y-38551904D02*
X96714342Y-38599523D01*
X96714342Y-38599523D02*
X95904819Y-38599523D01*
X96904819Y-39599523D02*
X96904819Y-39028095D01*
X96904819Y-39313809D02*
X95904819Y-39313809D01*
X95904819Y-39313809D02*
X96047676Y-39218571D01*
X96047676Y-39218571D02*
X96142914Y-39123333D01*
X96142914Y-39123333D02*
X96190533Y-39028095D01*
X74464819Y-35694762D02*
X73464819Y-35694762D01*
X73464819Y-35694762D02*
X73464819Y-36075714D01*
X73464819Y-36075714D02*
X73512438Y-36170952D01*
X73512438Y-36170952D02*
X73560057Y-36218571D01*
X73560057Y-36218571D02*
X73655295Y-36266190D01*
X73655295Y-36266190D02*
X73798152Y-36266190D01*
X73798152Y-36266190D02*
X73893390Y-36218571D01*
X73893390Y-36218571D02*
X73941009Y-36170952D01*
X73941009Y-36170952D02*
X73988628Y-36075714D01*
X73988628Y-36075714D02*
X73988628Y-35694762D01*
X74369580Y-37266190D02*
X74417200Y-37218571D01*
X74417200Y-37218571D02*
X74464819Y-37075714D01*
X74464819Y-37075714D02*
X74464819Y-36980476D01*
X74464819Y-36980476D02*
X74417200Y-36837619D01*
X74417200Y-36837619D02*
X74321961Y-36742381D01*
X74321961Y-36742381D02*
X74226723Y-36694762D01*
X74226723Y-36694762D02*
X74036247Y-36647143D01*
X74036247Y-36647143D02*
X73893390Y-36647143D01*
X73893390Y-36647143D02*
X73702914Y-36694762D01*
X73702914Y-36694762D02*
X73607676Y-36742381D01*
X73607676Y-36742381D02*
X73512438Y-36837619D01*
X73512438Y-36837619D02*
X73464819Y-36980476D01*
X73464819Y-36980476D02*
X73464819Y-37075714D01*
X73464819Y-37075714D02*
X73512438Y-37218571D01*
X73512438Y-37218571D02*
X73560057Y-37266190D01*
X73941009Y-38028095D02*
X73941009Y-37694762D01*
X74464819Y-37694762D02*
X73464819Y-37694762D01*
X73464819Y-37694762D02*
X73464819Y-38170952D01*
X73893390Y-38694762D02*
X73845771Y-38599524D01*
X73845771Y-38599524D02*
X73798152Y-38551905D01*
X73798152Y-38551905D02*
X73702914Y-38504286D01*
X73702914Y-38504286D02*
X73655295Y-38504286D01*
X73655295Y-38504286D02*
X73560057Y-38551905D01*
X73560057Y-38551905D02*
X73512438Y-38599524D01*
X73512438Y-38599524D02*
X73464819Y-38694762D01*
X73464819Y-38694762D02*
X73464819Y-38885238D01*
X73464819Y-38885238D02*
X73512438Y-38980476D01*
X73512438Y-38980476D02*
X73560057Y-39028095D01*
X73560057Y-39028095D02*
X73655295Y-39075714D01*
X73655295Y-39075714D02*
X73702914Y-39075714D01*
X73702914Y-39075714D02*
X73798152Y-39028095D01*
X73798152Y-39028095D02*
X73845771Y-38980476D01*
X73845771Y-38980476D02*
X73893390Y-38885238D01*
X73893390Y-38885238D02*
X73893390Y-38694762D01*
X73893390Y-38694762D02*
X73941009Y-38599524D01*
X73941009Y-38599524D02*
X73988628Y-38551905D01*
X73988628Y-38551905D02*
X74083866Y-38504286D01*
X74083866Y-38504286D02*
X74274342Y-38504286D01*
X74274342Y-38504286D02*
X74369580Y-38551905D01*
X74369580Y-38551905D02*
X74417200Y-38599524D01*
X74417200Y-38599524D02*
X74464819Y-38694762D01*
X74464819Y-38694762D02*
X74464819Y-38885238D01*
X74464819Y-38885238D02*
X74417200Y-38980476D01*
X74417200Y-38980476D02*
X74369580Y-39028095D01*
X74369580Y-39028095D02*
X74274342Y-39075714D01*
X74274342Y-39075714D02*
X74083866Y-39075714D01*
X74083866Y-39075714D02*
X73988628Y-39028095D01*
X73988628Y-39028095D02*
X73941009Y-38980476D01*
X73941009Y-38980476D02*
X73893390Y-38885238D01*
X73464819Y-39980476D02*
X73464819Y-39504286D01*
X73464819Y-39504286D02*
X73941009Y-39456667D01*
X73941009Y-39456667D02*
X73893390Y-39504286D01*
X73893390Y-39504286D02*
X73845771Y-39599524D01*
X73845771Y-39599524D02*
X73845771Y-39837619D01*
X73845771Y-39837619D02*
X73893390Y-39932857D01*
X73893390Y-39932857D02*
X73941009Y-39980476D01*
X73941009Y-39980476D02*
X74036247Y-40028095D01*
X74036247Y-40028095D02*
X74274342Y-40028095D01*
X74274342Y-40028095D02*
X74369580Y-39980476D01*
X74369580Y-39980476D02*
X74417200Y-39932857D01*
X74417200Y-39932857D02*
X74464819Y-39837619D01*
X74464819Y-39837619D02*
X74464819Y-39599524D01*
X74464819Y-39599524D02*
X74417200Y-39504286D01*
X74417200Y-39504286D02*
X74369580Y-39456667D01*
X73464819Y-40361429D02*
X73464819Y-41028095D01*
X73464819Y-41028095D02*
X74464819Y-40599524D01*
X73798152Y-41837619D02*
X74464819Y-41837619D01*
X73417200Y-41599524D02*
X74131485Y-41361429D01*
X74131485Y-41361429D02*
X74131485Y-41980476D01*
D12*
X80124999Y-45577469D02*
X80364999Y-45234612D01*
X80536428Y-45577469D02*
X80536428Y-44857469D01*
X80536428Y-44857469D02*
X80262142Y-44857469D01*
X80262142Y-44857469D02*
X80193571Y-44891755D01*
X80193571Y-44891755D02*
X80159285Y-44926041D01*
X80159285Y-44926041D02*
X80124999Y-44994612D01*
X80124999Y-44994612D02*
X80124999Y-45097469D01*
X80124999Y-45097469D02*
X80159285Y-45166041D01*
X80159285Y-45166041D02*
X80193571Y-45200326D01*
X80193571Y-45200326D02*
X80262142Y-45234612D01*
X80262142Y-45234612D02*
X80536428Y-45234612D01*
X79473571Y-44857469D02*
X79816428Y-44857469D01*
X79816428Y-44857469D02*
X79850714Y-45200326D01*
X79850714Y-45200326D02*
X79816428Y-45166041D01*
X79816428Y-45166041D02*
X79747857Y-45131755D01*
X79747857Y-45131755D02*
X79576428Y-45131755D01*
X79576428Y-45131755D02*
X79507857Y-45166041D01*
X79507857Y-45166041D02*
X79473571Y-45200326D01*
X79473571Y-45200326D02*
X79439285Y-45268898D01*
X79439285Y-45268898D02*
X79439285Y-45440326D01*
X79439285Y-45440326D02*
X79473571Y-45508898D01*
X79473571Y-45508898D02*
X79507857Y-45543184D01*
X79507857Y-45543184D02*
X79576428Y-45577469D01*
X79576428Y-45577469D02*
X79747857Y-45577469D01*
X79747857Y-45577469D02*
X79816428Y-45543184D01*
X79816428Y-45543184D02*
X79850714Y-45508898D01*
X70124999Y-45577469D02*
X70364999Y-45234612D01*
X70536428Y-45577469D02*
X70536428Y-44857469D01*
X70536428Y-44857469D02*
X70262142Y-44857469D01*
X70262142Y-44857469D02*
X70193571Y-44891755D01*
X70193571Y-44891755D02*
X70159285Y-44926041D01*
X70159285Y-44926041D02*
X70124999Y-44994612D01*
X70124999Y-44994612D02*
X70124999Y-45097469D01*
X70124999Y-45097469D02*
X70159285Y-45166041D01*
X70159285Y-45166041D02*
X70193571Y-45200326D01*
X70193571Y-45200326D02*
X70262142Y-45234612D01*
X70262142Y-45234612D02*
X70536428Y-45234612D01*
X69507857Y-45097469D02*
X69507857Y-45577469D01*
X69679285Y-44823184D02*
X69850714Y-45337469D01*
X69850714Y-45337469D02*
X69404999Y-45337469D01*
D13*
%TO.C,J1*%
X104130000Y-31900000D02*
X104130000Y-33230000D01*
X104130000Y-33230000D02*
X102800000Y-33230000D01*
X93850000Y-33230000D02*
X101530000Y-33230000D01*
X101530000Y-30570000D02*
X101530000Y-33230000D01*
X93850000Y-30570000D02*
X93850000Y-33230000D01*
X93850000Y-30570000D02*
X101530000Y-30570000D01*
%TO.C,D1*%
X127490000Y-37670000D02*
X127490000Y-37514000D01*
X127490000Y-39986000D02*
X127490000Y-39830000D01*
X124257666Y-37671392D02*
G75*
G02*
X127489999Y-37514485I1672334J-1078608D01*
G01*
X124888871Y-37670164D02*
G75*
G02*
X126970960Y-37670001I1041129J-1079836D01*
G01*
X126970960Y-39829999D02*
G75*
G02*
X124888871Y-39829836I-1040960J1079999D01*
G01*
X127489999Y-39985515D02*
G75*
G02*
X124257666Y-39828608I-1559999J1235515D01*
G01*
%TO.C,R7*%
X98085000Y-44330000D02*
X98085000Y-46170000D01*
X98085000Y-45250000D02*
X97135000Y-45250000D01*
X98085000Y-46170000D02*
X101925000Y-46170000D01*
X101925000Y-44330000D02*
X98085000Y-44330000D01*
X101925000Y-45250000D02*
X102875000Y-45250000D01*
X101925000Y-46170000D02*
X101925000Y-44330000D01*
%TO.C,J4*%
X80095000Y-30570000D02*
X80095000Y-33230000D01*
X80095000Y-30570000D02*
X87775000Y-30570000D01*
X80095000Y-33230000D02*
X87775000Y-33230000D01*
X87775000Y-30570000D02*
X87775000Y-33230000D01*
X90375000Y-31900000D02*
X90375000Y-33230000D01*
X90375000Y-33230000D02*
X89045000Y-33230000D01*
%TO.C,R10*%
X107730000Y-31030000D02*
X107730000Y-32870000D01*
X107730000Y-31950000D02*
X106780000Y-31950000D01*
X107730000Y-32870000D02*
X111570000Y-32870000D01*
X111570000Y-31030000D02*
X107730000Y-31030000D01*
X111570000Y-31950000D02*
X112520000Y-31950000D01*
X111570000Y-32870000D02*
X111570000Y-31030000D01*
%TO.C,R9*%
X118085000Y-44330000D02*
X118085000Y-46170000D01*
X118085000Y-45250000D02*
X117135000Y-45250000D01*
X118085000Y-46170000D02*
X121925000Y-46170000D01*
X121925000Y-44330000D02*
X118085000Y-44330000D01*
X121925000Y-45250000D02*
X122875000Y-45250000D01*
X121925000Y-46170000D02*
X121925000Y-44330000D01*
%TO.C,R8*%
X108085000Y-44330000D02*
X108085000Y-46170000D01*
X108085000Y-45250000D02*
X107135000Y-45250000D01*
X108085000Y-46170000D02*
X111925000Y-46170000D01*
X111925000Y-44330000D02*
X108085000Y-44330000D01*
X111925000Y-45250000D02*
X112875000Y-45250000D01*
X111925000Y-46170000D02*
X111925000Y-44330000D01*
%TO.C,R2*%
X48085000Y-44330000D02*
X48085000Y-46170000D01*
X48085000Y-45250000D02*
X47135000Y-45250000D01*
X48085000Y-46170000D02*
X51925000Y-46170000D01*
X51925000Y-44330000D02*
X48085000Y-44330000D01*
X51925000Y-45250000D02*
X52875000Y-45250000D01*
X51925000Y-46170000D02*
X51925000Y-44330000D01*
%TO.C,R1*%
X117480000Y-31030000D02*
X117480000Y-32870000D01*
X117480000Y-31950000D02*
X116530000Y-31950000D01*
X117480000Y-32870000D02*
X121320000Y-32870000D01*
X121320000Y-31030000D02*
X117480000Y-31030000D01*
X121320000Y-31950000D02*
X122270000Y-31950000D01*
X121320000Y-32870000D02*
X121320000Y-31030000D01*
%TO.C,R3*%
X58085000Y-44330000D02*
X58085000Y-46170000D01*
X58085000Y-45250000D02*
X57135000Y-45250000D01*
X58085000Y-46170000D02*
X61925000Y-46170000D01*
X61925000Y-44330000D02*
X58085000Y-44330000D01*
X61925000Y-45250000D02*
X62875000Y-45250000D01*
X61925000Y-46170000D02*
X61925000Y-44330000D01*
%TO.C,R6*%
X88085000Y-44330000D02*
X88085000Y-46170000D01*
X88085000Y-45250000D02*
X87135000Y-45250000D01*
X88085000Y-46170000D02*
X91925000Y-46170000D01*
X91925000Y-44330000D02*
X88085000Y-44330000D01*
X91925000Y-45250000D02*
X92875000Y-45250000D01*
X91925000Y-46170000D02*
X91925000Y-44330000D01*
%TO.C,U1*%
X75010000Y-36140000D02*
X75010000Y-41440000D01*
X75010000Y-41440000D02*
X95450000Y-41440000D01*
X95450000Y-36140000D02*
X75010000Y-36140000D01*
X95450000Y-37790000D02*
X95450000Y-36140000D01*
X95450000Y-41440000D02*
X95450000Y-39790000D01*
X95450000Y-39790000D02*
G75*
G02*
X95450000Y-37790000I0J1000000D01*
G01*
%TO.C,R5*%
X78085000Y-44330000D02*
X78085000Y-46170000D01*
X78085000Y-45250000D02*
X77135000Y-45250000D01*
X78085000Y-46170000D02*
X81925000Y-46170000D01*
X81925000Y-44330000D02*
X78085000Y-44330000D01*
X81925000Y-45250000D02*
X82875000Y-45250000D01*
X81925000Y-46170000D02*
X81925000Y-44330000D01*
%TO.C,R4*%
X68085000Y-44330000D02*
X68085000Y-46170000D01*
X68085000Y-45250000D02*
X67135000Y-45250000D01*
X68085000Y-46170000D02*
X71925000Y-46170000D01*
X71925000Y-44330000D02*
X68085000Y-44330000D01*
X71925000Y-45250000D02*
X72875000Y-45250000D01*
X71925000Y-46170000D02*
X71925000Y-44330000D01*
%TD*%
M02*
