%TF.GenerationSoftware,KiCad,Pcbnew,8.0.1*%
%TF.CreationDate,2024-05-11T19:49:48+01:00*%
%TF.ProjectId,TIMI2CLEDPanel,54494d49-3243-44c4-9544-50616e656c2e,rev?*%
%TF.SameCoordinates,Original*%
%TF.FileFunction,Drillmap*%
%TF.FilePolarity,Positive*%
%FSLAX45Y45*%
G04 Gerber Fmt 4.5, Leading zero omitted, Abs format (unit mm)*
G04 Created by KiCad (PCBNEW 8.0.1) date 2024-05-11 19:49:48*
%MOMM*%
%LPD*%
G01*
G04 APERTURE LIST*
%ADD10C,0.150000*%
%ADD11C,0.200000*%
%ADD12C,0.100000*%
G04 APERTURE END LIST*
D10*
X4000000Y-3000000D02*
X13000000Y-3000000D01*
X13000000Y-4800000D01*
X4000000Y-4800000D01*
X4000000Y-3000000D01*
D11*
D12*
X4584500Y-4490000D02*
X4654500Y-4560000D01*
X4654500Y-4490000D02*
X4584500Y-4560000D01*
X5346500Y-4490000D02*
X5416500Y-4560000D01*
X5416500Y-4490000D02*
X5346500Y-4560000D01*
X5584500Y-4490000D02*
X5654500Y-4560000D01*
X5654500Y-4490000D02*
X5584500Y-4560000D01*
X6346500Y-4490000D02*
X6416500Y-4560000D01*
X6416500Y-4490000D02*
X6346500Y-4560000D01*
X6584500Y-4490000D02*
X6654500Y-4560000D01*
X6654500Y-4490000D02*
X6584500Y-4560000D01*
X7346500Y-4490000D02*
X7416500Y-4560000D01*
X7416500Y-4490000D02*
X7346500Y-4560000D01*
X7584500Y-4490000D02*
X7654500Y-4560000D01*
X7654500Y-4490000D02*
X7584500Y-4560000D01*
X8346500Y-4490000D02*
X8416500Y-4560000D01*
X8416500Y-4490000D02*
X8346500Y-4560000D01*
X8584500Y-4490000D02*
X8654500Y-4560000D01*
X8654500Y-4490000D02*
X8584500Y-4560000D01*
X9346500Y-4490000D02*
X9416500Y-4560000D01*
X9416500Y-4490000D02*
X9346500Y-4560000D01*
X9584500Y-4490000D02*
X9654500Y-4560000D01*
X9654500Y-4490000D02*
X9584500Y-4560000D01*
X10346500Y-4490000D02*
X10416500Y-4560000D01*
X10416500Y-4490000D02*
X10346500Y-4560000D01*
X10549000Y-3160000D02*
X10619000Y-3230000D01*
X10619000Y-3160000D02*
X10549000Y-3230000D01*
X10584500Y-4490000D02*
X10654500Y-4560000D01*
X10654500Y-4490000D02*
X10584500Y-4560000D01*
X11311000Y-3160000D02*
X11381000Y-3230000D01*
X11381000Y-3160000D02*
X11311000Y-3230000D01*
X11346500Y-4490000D02*
X11416500Y-4560000D01*
X11416500Y-4490000D02*
X11346500Y-4560000D01*
X11524000Y-3160000D02*
X11594000Y-3230000D01*
X11594000Y-3160000D02*
X11524000Y-3230000D01*
X11584500Y-4490000D02*
X11654500Y-4560000D01*
X11654500Y-4490000D02*
X11584500Y-4560000D01*
X12286000Y-3160000D02*
X12356000Y-3230000D01*
X12356000Y-3160000D02*
X12286000Y-3230000D01*
X12346500Y-4490000D02*
X12416500Y-4560000D01*
X12416500Y-4490000D02*
X12346500Y-4560000D01*
X6550000Y-3660000D02*
G75*
G02*
X6470000Y-3660000I-40000J0D01*
G01*
X6470000Y-3660000D02*
G75*
G02*
X6550000Y-3660000I40000J0D01*
G01*
X6550000Y-4160000D02*
G75*
G02*
X6470000Y-4160000I-40000J0D01*
G01*
X6470000Y-4160000D02*
G75*
G02*
X6550000Y-4160000I40000J0D01*
G01*
X7674000Y-3498000D02*
G75*
G02*
X7594000Y-3498000I-40000J0D01*
G01*
X7594000Y-3498000D02*
G75*
G02*
X7674000Y-3498000I40000J0D01*
G01*
X7674000Y-4260000D02*
G75*
G02*
X7594000Y-4260000I-40000J0D01*
G01*
X7594000Y-4260000D02*
G75*
G02*
X7674000Y-4260000I40000J0D01*
G01*
X7928000Y-3498000D02*
G75*
G02*
X7848000Y-3498000I-40000J0D01*
G01*
X7848000Y-3498000D02*
G75*
G02*
X7928000Y-3498000I40000J0D01*
G01*
X7928000Y-4260000D02*
G75*
G02*
X7848000Y-4260000I-40000J0D01*
G01*
X7848000Y-4260000D02*
G75*
G02*
X7928000Y-4260000I40000J0D01*
G01*
X8182000Y-3498000D02*
G75*
G02*
X8102000Y-3498000I-40000J0D01*
G01*
X8102000Y-3498000D02*
G75*
G02*
X8182000Y-3498000I40000J0D01*
G01*
X8182000Y-4260000D02*
G75*
G02*
X8102000Y-4260000I-40000J0D01*
G01*
X8102000Y-4260000D02*
G75*
G02*
X8182000Y-4260000I40000J0D01*
G01*
X8436000Y-3498000D02*
G75*
G02*
X8356000Y-3498000I-40000J0D01*
G01*
X8356000Y-3498000D02*
G75*
G02*
X8436000Y-3498000I40000J0D01*
G01*
X8436000Y-4260000D02*
G75*
G02*
X8356000Y-4260000I-40000J0D01*
G01*
X8356000Y-4260000D02*
G75*
G02*
X8436000Y-4260000I40000J0D01*
G01*
X8690000Y-3498000D02*
G75*
G02*
X8610000Y-3498000I-40000J0D01*
G01*
X8610000Y-3498000D02*
G75*
G02*
X8690000Y-3498000I40000J0D01*
G01*
X8690000Y-4260000D02*
G75*
G02*
X8610000Y-4260000I-40000J0D01*
G01*
X8610000Y-4260000D02*
G75*
G02*
X8690000Y-4260000I40000J0D01*
G01*
X8944000Y-3498000D02*
G75*
G02*
X8864000Y-3498000I-40000J0D01*
G01*
X8864000Y-3498000D02*
G75*
G02*
X8944000Y-3498000I40000J0D01*
G01*
X8944000Y-4260000D02*
G75*
G02*
X8864000Y-4260000I-40000J0D01*
G01*
X8864000Y-4260000D02*
G75*
G02*
X8944000Y-4260000I40000J0D01*
G01*
X9198000Y-3498000D02*
G75*
G02*
X9118000Y-3498000I-40000J0D01*
G01*
X9118000Y-3498000D02*
G75*
G02*
X9198000Y-3498000I40000J0D01*
G01*
X9198000Y-4260000D02*
G75*
G02*
X9118000Y-4260000I-40000J0D01*
G01*
X9118000Y-4260000D02*
G75*
G02*
X9198000Y-4260000I40000J0D01*
G01*
X9452000Y-3498000D02*
G75*
G02*
X9372000Y-3498000I-40000J0D01*
G01*
X9372000Y-3498000D02*
G75*
G02*
X9452000Y-3498000I40000J0D01*
G01*
X9452000Y-4260000D02*
G75*
G02*
X9372000Y-4260000I-40000J0D01*
G01*
X9372000Y-4260000D02*
G75*
G02*
X9452000Y-4260000I40000J0D01*
G01*
X4873000Y-3855000D02*
X4873000Y-3945000D01*
X4828000Y-3900000D02*
X4918000Y-3900000D01*
X5127000Y-3855000D02*
X5127000Y-3945000D01*
X5082000Y-3900000D02*
X5172000Y-3900000D01*
X5873000Y-3865000D02*
X5873000Y-3955000D01*
X5828000Y-3910000D02*
X5918000Y-3910000D01*
X6127000Y-3865000D02*
X6127000Y-3955000D01*
X6082000Y-3910000D02*
X6172000Y-3910000D01*
X6873000Y-3840000D02*
X6873000Y-3930000D01*
X6828000Y-3885000D02*
X6918000Y-3885000D01*
X7127000Y-3840000D02*
X7127000Y-3930000D01*
X7082000Y-3885000D02*
X7172000Y-3885000D01*
X7873000Y-3815000D02*
X7873000Y-3905000D01*
X7828000Y-3860000D02*
X7918000Y-3860000D01*
X8127000Y-3815000D02*
X8127000Y-3905000D01*
X8082000Y-3860000D02*
X8172000Y-3860000D01*
X8873000Y-3835000D02*
X8873000Y-3925000D01*
X8828000Y-3880000D02*
X8918000Y-3880000D01*
X9127000Y-3835000D02*
X9127000Y-3925000D01*
X9082000Y-3880000D02*
X9172000Y-3880000D01*
X9873000Y-3810000D02*
X9873000Y-3900000D01*
X9828000Y-3855000D02*
X9918000Y-3855000D01*
X10127000Y-3810000D02*
X10127000Y-3900000D01*
X10082000Y-3855000D02*
X10172000Y-3855000D01*
X10873000Y-3830000D02*
X10873000Y-3920000D01*
X10828000Y-3875000D02*
X10918000Y-3875000D01*
X11127000Y-3830000D02*
X11127000Y-3920000D01*
X11082000Y-3875000D02*
X11172000Y-3875000D01*
X11873000Y-3830000D02*
X11873000Y-3920000D01*
X11828000Y-3875000D02*
X11918000Y-3875000D01*
X12127000Y-3830000D02*
X12127000Y-3920000D01*
X12082000Y-3875000D02*
X12172000Y-3875000D01*
X12466000Y-3830000D02*
X12466000Y-3920000D01*
X12421000Y-3875000D02*
X12511000Y-3875000D01*
X12720000Y-3830000D02*
X12720000Y-3920000D01*
X12675000Y-3875000D02*
X12765000Y-3875000D01*
X8177856Y-3225356D02*
X8177856Y-3154644D01*
X8107144Y-3154644D01*
X8107144Y-3225356D01*
X8177856Y-3225356D01*
X8431856Y-3225356D02*
X8431856Y-3154644D01*
X8361144Y-3154644D01*
X8361144Y-3225356D01*
X8431856Y-3225356D01*
X8685856Y-3225356D02*
X8685856Y-3154644D01*
X8615144Y-3154644D01*
X8615144Y-3225356D01*
X8685856Y-3225356D01*
X8939856Y-3225356D02*
X8939856Y-3154644D01*
X8869144Y-3154644D01*
X8869144Y-3225356D01*
X8939856Y-3225356D01*
X9553356Y-3225356D02*
X9553356Y-3154644D01*
X9482644Y-3154644D01*
X9482644Y-3225356D01*
X9553356Y-3225356D01*
X9807356Y-3225356D02*
X9807356Y-3154644D01*
X9736644Y-3154644D01*
X9736644Y-3225356D01*
X9807356Y-3225356D01*
X10061356Y-3225356D02*
X10061356Y-3154644D01*
X9990644Y-3154644D01*
X9990644Y-3225356D01*
X10061356Y-3225356D01*
X10315356Y-3225356D02*
X10315356Y-3154644D01*
X10244644Y-3154644D01*
X10244644Y-3225356D01*
X10315356Y-3225356D01*
D11*
X4253277Y-5118984D02*
X4253277Y-4918984D01*
X4253277Y-4918984D02*
X4300896Y-4918984D01*
X4300896Y-4918984D02*
X4329467Y-4928508D01*
X4329467Y-4928508D02*
X4348515Y-4947555D01*
X4348515Y-4947555D02*
X4358039Y-4966603D01*
X4358039Y-4966603D02*
X4367563Y-5004698D01*
X4367563Y-5004698D02*
X4367563Y-5033270D01*
X4367563Y-5033270D02*
X4358039Y-5071365D01*
X4358039Y-5071365D02*
X4348515Y-5090412D01*
X4348515Y-5090412D02*
X4329467Y-5109460D01*
X4329467Y-5109460D02*
X4300896Y-5118984D01*
X4300896Y-5118984D02*
X4253277Y-5118984D01*
X4453277Y-5118984D02*
X4453277Y-4985650D01*
X4453277Y-5023746D02*
X4462801Y-5004698D01*
X4462801Y-5004698D02*
X4472324Y-4995174D01*
X4472324Y-4995174D02*
X4491372Y-4985650D01*
X4491372Y-4985650D02*
X4510420Y-4985650D01*
X4577086Y-5118984D02*
X4577086Y-4985650D01*
X4577086Y-4918984D02*
X4567563Y-4928508D01*
X4567563Y-4928508D02*
X4577086Y-4938031D01*
X4577086Y-4938031D02*
X4586610Y-4928508D01*
X4586610Y-4928508D02*
X4577086Y-4918984D01*
X4577086Y-4918984D02*
X4577086Y-4938031D01*
X4700896Y-5118984D02*
X4681848Y-5109460D01*
X4681848Y-5109460D02*
X4672324Y-5090412D01*
X4672324Y-5090412D02*
X4672324Y-4918984D01*
X4805658Y-5118984D02*
X4786610Y-5109460D01*
X4786610Y-5109460D02*
X4777086Y-5090412D01*
X4777086Y-5090412D02*
X4777086Y-4918984D01*
X5034229Y-5118984D02*
X5034229Y-4918984D01*
X5034229Y-4918984D02*
X5100896Y-5061841D01*
X5100896Y-5061841D02*
X5167563Y-4918984D01*
X5167563Y-4918984D02*
X5167563Y-5118984D01*
X5348515Y-5118984D02*
X5348515Y-5014222D01*
X5348515Y-5014222D02*
X5338991Y-4995174D01*
X5338991Y-4995174D02*
X5319944Y-4985650D01*
X5319944Y-4985650D02*
X5281848Y-4985650D01*
X5281848Y-4985650D02*
X5262801Y-4995174D01*
X5348515Y-5109460D02*
X5329467Y-5118984D01*
X5329467Y-5118984D02*
X5281848Y-5118984D01*
X5281848Y-5118984D02*
X5262801Y-5109460D01*
X5262801Y-5109460D02*
X5253277Y-5090412D01*
X5253277Y-5090412D02*
X5253277Y-5071365D01*
X5253277Y-5071365D02*
X5262801Y-5052317D01*
X5262801Y-5052317D02*
X5281848Y-5042793D01*
X5281848Y-5042793D02*
X5329467Y-5042793D01*
X5329467Y-5042793D02*
X5348515Y-5033270D01*
X5443753Y-4985650D02*
X5443753Y-5185650D01*
X5443753Y-4995174D02*
X5462801Y-4985650D01*
X5462801Y-4985650D02*
X5500896Y-4985650D01*
X5500896Y-4985650D02*
X5519944Y-4995174D01*
X5519944Y-4995174D02*
X5529467Y-5004698D01*
X5529467Y-5004698D02*
X5538991Y-5023746D01*
X5538991Y-5023746D02*
X5538991Y-5080889D01*
X5538991Y-5080889D02*
X5529467Y-5099936D01*
X5529467Y-5099936D02*
X5519944Y-5109460D01*
X5519944Y-5109460D02*
X5500896Y-5118984D01*
X5500896Y-5118984D02*
X5462801Y-5118984D01*
X5462801Y-5118984D02*
X5443753Y-5109460D01*
X5624705Y-5099936D02*
X5634229Y-5109460D01*
X5634229Y-5109460D02*
X5624705Y-5118984D01*
X5624705Y-5118984D02*
X5615182Y-5109460D01*
X5615182Y-5109460D02*
X5624705Y-5099936D01*
X5624705Y-5099936D02*
X5624705Y-5118984D01*
X5624705Y-4995174D02*
X5634229Y-5004698D01*
X5634229Y-5004698D02*
X5624705Y-5014222D01*
X5624705Y-5014222D02*
X5615182Y-5004698D01*
X5615182Y-5004698D02*
X5624705Y-4995174D01*
X5624705Y-4995174D02*
X5624705Y-5014222D01*
D12*
X3922500Y-5412500D02*
X3992500Y-5482500D01*
X3992500Y-5412500D02*
X3922500Y-5482500D01*
D11*
X4291372Y-5338984D02*
X4310420Y-5338984D01*
X4310420Y-5338984D02*
X4329467Y-5348508D01*
X4329467Y-5348508D02*
X4338991Y-5358031D01*
X4338991Y-5358031D02*
X4348515Y-5377079D01*
X4348515Y-5377079D02*
X4358039Y-5415174D01*
X4358039Y-5415174D02*
X4358039Y-5462793D01*
X4358039Y-5462793D02*
X4348515Y-5500889D01*
X4348515Y-5500889D02*
X4338991Y-5519936D01*
X4338991Y-5519936D02*
X4329467Y-5529460D01*
X4329467Y-5529460D02*
X4310420Y-5538984D01*
X4310420Y-5538984D02*
X4291372Y-5538984D01*
X4291372Y-5538984D02*
X4272324Y-5529460D01*
X4272324Y-5529460D02*
X4262801Y-5519936D01*
X4262801Y-5519936D02*
X4253277Y-5500889D01*
X4253277Y-5500889D02*
X4243753Y-5462793D01*
X4243753Y-5462793D02*
X4243753Y-5415174D01*
X4243753Y-5415174D02*
X4253277Y-5377079D01*
X4253277Y-5377079D02*
X4262801Y-5358031D01*
X4262801Y-5358031D02*
X4272324Y-5348508D01*
X4272324Y-5348508D02*
X4291372Y-5338984D01*
X4443753Y-5519936D02*
X4453277Y-5529460D01*
X4453277Y-5529460D02*
X4443753Y-5538984D01*
X4443753Y-5538984D02*
X4434229Y-5529460D01*
X4434229Y-5529460D02*
X4443753Y-5519936D01*
X4443753Y-5519936D02*
X4443753Y-5538984D01*
X4519944Y-5338984D02*
X4653277Y-5338984D01*
X4653277Y-5338984D02*
X4567563Y-5538984D01*
X4767563Y-5338984D02*
X4786610Y-5338984D01*
X4786610Y-5338984D02*
X4805658Y-5348508D01*
X4805658Y-5348508D02*
X4815182Y-5358031D01*
X4815182Y-5358031D02*
X4824705Y-5377079D01*
X4824705Y-5377079D02*
X4834229Y-5415174D01*
X4834229Y-5415174D02*
X4834229Y-5462793D01*
X4834229Y-5462793D02*
X4824705Y-5500889D01*
X4824705Y-5500889D02*
X4815182Y-5519936D01*
X4815182Y-5519936D02*
X4805658Y-5529460D01*
X4805658Y-5529460D02*
X4786610Y-5538984D01*
X4786610Y-5538984D02*
X4767563Y-5538984D01*
X4767563Y-5538984D02*
X4748515Y-5529460D01*
X4748515Y-5529460D02*
X4738991Y-5519936D01*
X4738991Y-5519936D02*
X4729467Y-5500889D01*
X4729467Y-5500889D02*
X4719944Y-5462793D01*
X4719944Y-5462793D02*
X4719944Y-5415174D01*
X4719944Y-5415174D02*
X4729467Y-5377079D01*
X4729467Y-5377079D02*
X4738991Y-5358031D01*
X4738991Y-5358031D02*
X4748515Y-5348508D01*
X4748515Y-5348508D02*
X4767563Y-5338984D01*
X4958039Y-5338984D02*
X4977086Y-5338984D01*
X4977086Y-5338984D02*
X4996134Y-5348508D01*
X4996134Y-5348508D02*
X5005658Y-5358031D01*
X5005658Y-5358031D02*
X5015182Y-5377079D01*
X5015182Y-5377079D02*
X5024705Y-5415174D01*
X5024705Y-5415174D02*
X5024705Y-5462793D01*
X5024705Y-5462793D02*
X5015182Y-5500889D01*
X5015182Y-5500889D02*
X5005658Y-5519936D01*
X5005658Y-5519936D02*
X4996134Y-5529460D01*
X4996134Y-5529460D02*
X4977086Y-5538984D01*
X4977086Y-5538984D02*
X4958039Y-5538984D01*
X4958039Y-5538984D02*
X4938991Y-5529460D01*
X4938991Y-5529460D02*
X4929467Y-5519936D01*
X4929467Y-5519936D02*
X4919944Y-5500889D01*
X4919944Y-5500889D02*
X4910420Y-5462793D01*
X4910420Y-5462793D02*
X4910420Y-5415174D01*
X4910420Y-5415174D02*
X4919944Y-5377079D01*
X4919944Y-5377079D02*
X4929467Y-5358031D01*
X4929467Y-5358031D02*
X4938991Y-5348508D01*
X4938991Y-5348508D02*
X4958039Y-5338984D01*
X5110420Y-5538984D02*
X5110420Y-5405650D01*
X5110420Y-5424698D02*
X5119944Y-5415174D01*
X5119944Y-5415174D02*
X5138991Y-5405650D01*
X5138991Y-5405650D02*
X5167563Y-5405650D01*
X5167563Y-5405650D02*
X5186610Y-5415174D01*
X5186610Y-5415174D02*
X5196134Y-5434222D01*
X5196134Y-5434222D02*
X5196134Y-5538984D01*
X5196134Y-5434222D02*
X5205658Y-5415174D01*
X5205658Y-5415174D02*
X5224705Y-5405650D01*
X5224705Y-5405650D02*
X5253277Y-5405650D01*
X5253277Y-5405650D02*
X5272325Y-5415174D01*
X5272325Y-5415174D02*
X5281848Y-5434222D01*
X5281848Y-5434222D02*
X5281848Y-5538984D01*
X5377086Y-5538984D02*
X5377086Y-5405650D01*
X5377086Y-5424698D02*
X5386610Y-5415174D01*
X5386610Y-5415174D02*
X5405658Y-5405650D01*
X5405658Y-5405650D02*
X5434229Y-5405650D01*
X5434229Y-5405650D02*
X5453277Y-5415174D01*
X5453277Y-5415174D02*
X5462801Y-5434222D01*
X5462801Y-5434222D02*
X5462801Y-5538984D01*
X5462801Y-5434222D02*
X5472325Y-5415174D01*
X5472325Y-5415174D02*
X5491372Y-5405650D01*
X5491372Y-5405650D02*
X5519944Y-5405650D01*
X5519944Y-5405650D02*
X5538991Y-5415174D01*
X5538991Y-5415174D02*
X5548515Y-5434222D01*
X5548515Y-5434222D02*
X5548515Y-5538984D01*
X5938991Y-5329460D02*
X5767563Y-5586603D01*
X6196134Y-5338984D02*
X6215182Y-5338984D01*
X6215182Y-5338984D02*
X6234229Y-5348508D01*
X6234229Y-5348508D02*
X6243753Y-5358031D01*
X6243753Y-5358031D02*
X6253277Y-5377079D01*
X6253277Y-5377079D02*
X6262801Y-5415174D01*
X6262801Y-5415174D02*
X6262801Y-5462793D01*
X6262801Y-5462793D02*
X6253277Y-5500889D01*
X6253277Y-5500889D02*
X6243753Y-5519936D01*
X6243753Y-5519936D02*
X6234229Y-5529460D01*
X6234229Y-5529460D02*
X6215182Y-5538984D01*
X6215182Y-5538984D02*
X6196134Y-5538984D01*
X6196134Y-5538984D02*
X6177086Y-5529460D01*
X6177086Y-5529460D02*
X6167563Y-5519936D01*
X6167563Y-5519936D02*
X6158039Y-5500889D01*
X6158039Y-5500889D02*
X6148515Y-5462793D01*
X6148515Y-5462793D02*
X6148515Y-5415174D01*
X6148515Y-5415174D02*
X6158039Y-5377079D01*
X6158039Y-5377079D02*
X6167563Y-5358031D01*
X6167563Y-5358031D02*
X6177086Y-5348508D01*
X6177086Y-5348508D02*
X6196134Y-5338984D01*
X6348515Y-5519936D02*
X6358039Y-5529460D01*
X6358039Y-5529460D02*
X6348515Y-5538984D01*
X6348515Y-5538984D02*
X6338991Y-5529460D01*
X6338991Y-5529460D02*
X6348515Y-5519936D01*
X6348515Y-5519936D02*
X6348515Y-5538984D01*
X6481848Y-5338984D02*
X6500896Y-5338984D01*
X6500896Y-5338984D02*
X6519944Y-5348508D01*
X6519944Y-5348508D02*
X6529467Y-5358031D01*
X6529467Y-5358031D02*
X6538991Y-5377079D01*
X6538991Y-5377079D02*
X6548515Y-5415174D01*
X6548515Y-5415174D02*
X6548515Y-5462793D01*
X6548515Y-5462793D02*
X6538991Y-5500889D01*
X6538991Y-5500889D02*
X6529467Y-5519936D01*
X6529467Y-5519936D02*
X6519944Y-5529460D01*
X6519944Y-5529460D02*
X6500896Y-5538984D01*
X6500896Y-5538984D02*
X6481848Y-5538984D01*
X6481848Y-5538984D02*
X6462801Y-5529460D01*
X6462801Y-5529460D02*
X6453277Y-5519936D01*
X6453277Y-5519936D02*
X6443753Y-5500889D01*
X6443753Y-5500889D02*
X6434229Y-5462793D01*
X6434229Y-5462793D02*
X6434229Y-5415174D01*
X6434229Y-5415174D02*
X6443753Y-5377079D01*
X6443753Y-5377079D02*
X6453277Y-5358031D01*
X6453277Y-5358031D02*
X6462801Y-5348508D01*
X6462801Y-5348508D02*
X6481848Y-5338984D01*
X6624706Y-5358031D02*
X6634229Y-5348508D01*
X6634229Y-5348508D02*
X6653277Y-5338984D01*
X6653277Y-5338984D02*
X6700896Y-5338984D01*
X6700896Y-5338984D02*
X6719944Y-5348508D01*
X6719944Y-5348508D02*
X6729467Y-5358031D01*
X6729467Y-5358031D02*
X6738991Y-5377079D01*
X6738991Y-5377079D02*
X6738991Y-5396127D01*
X6738991Y-5396127D02*
X6729467Y-5424698D01*
X6729467Y-5424698D02*
X6615182Y-5538984D01*
X6615182Y-5538984D02*
X6738991Y-5538984D01*
X6805658Y-5338984D02*
X6938991Y-5338984D01*
X6938991Y-5338984D02*
X6853277Y-5538984D01*
X7100896Y-5338984D02*
X7062801Y-5338984D01*
X7062801Y-5338984D02*
X7043753Y-5348508D01*
X7043753Y-5348508D02*
X7034229Y-5358031D01*
X7034229Y-5358031D02*
X7015182Y-5386603D01*
X7015182Y-5386603D02*
X7005658Y-5424698D01*
X7005658Y-5424698D02*
X7005658Y-5500889D01*
X7005658Y-5500889D02*
X7015182Y-5519936D01*
X7015182Y-5519936D02*
X7024706Y-5529460D01*
X7024706Y-5529460D02*
X7043753Y-5538984D01*
X7043753Y-5538984D02*
X7081848Y-5538984D01*
X7081848Y-5538984D02*
X7100896Y-5529460D01*
X7100896Y-5529460D02*
X7110420Y-5519936D01*
X7110420Y-5519936D02*
X7119944Y-5500889D01*
X7119944Y-5500889D02*
X7119944Y-5453270D01*
X7119944Y-5453270D02*
X7110420Y-5434222D01*
X7110420Y-5434222D02*
X7100896Y-5424698D01*
X7100896Y-5424698D02*
X7081848Y-5415174D01*
X7081848Y-5415174D02*
X7043753Y-5415174D01*
X7043753Y-5415174D02*
X7024706Y-5424698D01*
X7024706Y-5424698D02*
X7015182Y-5434222D01*
X7015182Y-5434222D02*
X7005658Y-5453270D01*
X7196134Y-5338984D02*
X7196134Y-5377079D01*
X7272325Y-5338984D02*
X7272325Y-5377079D01*
X7567563Y-5615174D02*
X7558039Y-5605650D01*
X7558039Y-5605650D02*
X7538991Y-5577079D01*
X7538991Y-5577079D02*
X7529468Y-5558031D01*
X7529468Y-5558031D02*
X7519944Y-5529460D01*
X7519944Y-5529460D02*
X7510420Y-5481841D01*
X7510420Y-5481841D02*
X7510420Y-5443746D01*
X7510420Y-5443746D02*
X7519944Y-5396127D01*
X7519944Y-5396127D02*
X7529468Y-5367555D01*
X7529468Y-5367555D02*
X7538991Y-5348508D01*
X7538991Y-5348508D02*
X7558039Y-5319936D01*
X7558039Y-5319936D02*
X7567563Y-5310412D01*
X7634229Y-5358031D02*
X7643753Y-5348508D01*
X7643753Y-5348508D02*
X7662801Y-5338984D01*
X7662801Y-5338984D02*
X7710420Y-5338984D01*
X7710420Y-5338984D02*
X7729468Y-5348508D01*
X7729468Y-5348508D02*
X7738991Y-5358031D01*
X7738991Y-5358031D02*
X7748515Y-5377079D01*
X7748515Y-5377079D02*
X7748515Y-5396127D01*
X7748515Y-5396127D02*
X7738991Y-5424698D01*
X7738991Y-5424698D02*
X7624706Y-5538984D01*
X7624706Y-5538984D02*
X7748515Y-5538984D01*
X7872325Y-5338984D02*
X7891372Y-5338984D01*
X7891372Y-5338984D02*
X7910420Y-5348508D01*
X7910420Y-5348508D02*
X7919944Y-5358031D01*
X7919944Y-5358031D02*
X7929468Y-5377079D01*
X7929468Y-5377079D02*
X7938991Y-5415174D01*
X7938991Y-5415174D02*
X7938991Y-5462793D01*
X7938991Y-5462793D02*
X7929468Y-5500889D01*
X7929468Y-5500889D02*
X7919944Y-5519936D01*
X7919944Y-5519936D02*
X7910420Y-5529460D01*
X7910420Y-5529460D02*
X7891372Y-5538984D01*
X7891372Y-5538984D02*
X7872325Y-5538984D01*
X7872325Y-5538984D02*
X7853277Y-5529460D01*
X7853277Y-5529460D02*
X7843753Y-5519936D01*
X7843753Y-5519936D02*
X7834229Y-5500889D01*
X7834229Y-5500889D02*
X7824706Y-5462793D01*
X7824706Y-5462793D02*
X7824706Y-5415174D01*
X7824706Y-5415174D02*
X7834229Y-5377079D01*
X7834229Y-5377079D02*
X7843753Y-5358031D01*
X7843753Y-5358031D02*
X7853277Y-5348508D01*
X7853277Y-5348508D02*
X7872325Y-5338984D01*
X8177087Y-5538984D02*
X8177087Y-5338984D01*
X8262801Y-5538984D02*
X8262801Y-5434222D01*
X8262801Y-5434222D02*
X8253277Y-5415174D01*
X8253277Y-5415174D02*
X8234230Y-5405650D01*
X8234230Y-5405650D02*
X8205658Y-5405650D01*
X8205658Y-5405650D02*
X8186610Y-5415174D01*
X8186610Y-5415174D02*
X8177087Y-5424698D01*
X8386610Y-5538984D02*
X8367563Y-5529460D01*
X8367563Y-5529460D02*
X8358039Y-5519936D01*
X8358039Y-5519936D02*
X8348515Y-5500889D01*
X8348515Y-5500889D02*
X8348515Y-5443746D01*
X8348515Y-5443746D02*
X8358039Y-5424698D01*
X8358039Y-5424698D02*
X8367563Y-5415174D01*
X8367563Y-5415174D02*
X8386610Y-5405650D01*
X8386610Y-5405650D02*
X8415182Y-5405650D01*
X8415182Y-5405650D02*
X8434230Y-5415174D01*
X8434230Y-5415174D02*
X8443753Y-5424698D01*
X8443753Y-5424698D02*
X8453277Y-5443746D01*
X8453277Y-5443746D02*
X8453277Y-5500889D01*
X8453277Y-5500889D02*
X8443753Y-5519936D01*
X8443753Y-5519936D02*
X8434230Y-5529460D01*
X8434230Y-5529460D02*
X8415182Y-5538984D01*
X8415182Y-5538984D02*
X8386610Y-5538984D01*
X8567563Y-5538984D02*
X8548515Y-5529460D01*
X8548515Y-5529460D02*
X8538992Y-5510412D01*
X8538992Y-5510412D02*
X8538992Y-5338984D01*
X8719944Y-5529460D02*
X8700896Y-5538984D01*
X8700896Y-5538984D02*
X8662801Y-5538984D01*
X8662801Y-5538984D02*
X8643753Y-5529460D01*
X8643753Y-5529460D02*
X8634230Y-5510412D01*
X8634230Y-5510412D02*
X8634230Y-5434222D01*
X8634230Y-5434222D02*
X8643753Y-5415174D01*
X8643753Y-5415174D02*
X8662801Y-5405650D01*
X8662801Y-5405650D02*
X8700896Y-5405650D01*
X8700896Y-5405650D02*
X8719944Y-5415174D01*
X8719944Y-5415174D02*
X8729468Y-5434222D01*
X8729468Y-5434222D02*
X8729468Y-5453270D01*
X8729468Y-5453270D02*
X8634230Y-5472317D01*
X8805658Y-5529460D02*
X8824706Y-5538984D01*
X8824706Y-5538984D02*
X8862801Y-5538984D01*
X8862801Y-5538984D02*
X8881849Y-5529460D01*
X8881849Y-5529460D02*
X8891373Y-5510412D01*
X8891373Y-5510412D02*
X8891373Y-5500889D01*
X8891373Y-5500889D02*
X8881849Y-5481841D01*
X8881849Y-5481841D02*
X8862801Y-5472317D01*
X8862801Y-5472317D02*
X8834230Y-5472317D01*
X8834230Y-5472317D02*
X8815182Y-5462793D01*
X8815182Y-5462793D02*
X8805658Y-5443746D01*
X8805658Y-5443746D02*
X8805658Y-5434222D01*
X8805658Y-5434222D02*
X8815182Y-5415174D01*
X8815182Y-5415174D02*
X8834230Y-5405650D01*
X8834230Y-5405650D02*
X8862801Y-5405650D01*
X8862801Y-5405650D02*
X8881849Y-5415174D01*
X8958039Y-5615174D02*
X8967563Y-5605650D01*
X8967563Y-5605650D02*
X8986611Y-5577079D01*
X8986611Y-5577079D02*
X8996134Y-5558031D01*
X8996134Y-5558031D02*
X9005658Y-5529460D01*
X9005658Y-5529460D02*
X9015182Y-5481841D01*
X9015182Y-5481841D02*
X9015182Y-5443746D01*
X9015182Y-5443746D02*
X9005658Y-5396127D01*
X9005658Y-5396127D02*
X8996134Y-5367555D01*
X8996134Y-5367555D02*
X8986611Y-5348508D01*
X8986611Y-5348508D02*
X8967563Y-5319936D01*
X8967563Y-5319936D02*
X8958039Y-5310412D01*
D12*
X3992500Y-5711500D02*
G75*
G02*
X3912500Y-5711500I-40000J0D01*
G01*
X3912500Y-5711500D02*
G75*
G02*
X3992500Y-5711500I40000J0D01*
G01*
D11*
X4291372Y-5602984D02*
X4310420Y-5602984D01*
X4310420Y-5602984D02*
X4329467Y-5612508D01*
X4329467Y-5612508D02*
X4338991Y-5622031D01*
X4338991Y-5622031D02*
X4348515Y-5641079D01*
X4348515Y-5641079D02*
X4358039Y-5679174D01*
X4358039Y-5679174D02*
X4358039Y-5726793D01*
X4358039Y-5726793D02*
X4348515Y-5764888D01*
X4348515Y-5764888D02*
X4338991Y-5783936D01*
X4338991Y-5783936D02*
X4329467Y-5793460D01*
X4329467Y-5793460D02*
X4310420Y-5802984D01*
X4310420Y-5802984D02*
X4291372Y-5802984D01*
X4291372Y-5802984D02*
X4272324Y-5793460D01*
X4272324Y-5793460D02*
X4262801Y-5783936D01*
X4262801Y-5783936D02*
X4253277Y-5764888D01*
X4253277Y-5764888D02*
X4243753Y-5726793D01*
X4243753Y-5726793D02*
X4243753Y-5679174D01*
X4243753Y-5679174D02*
X4253277Y-5641079D01*
X4253277Y-5641079D02*
X4262801Y-5622031D01*
X4262801Y-5622031D02*
X4272324Y-5612508D01*
X4272324Y-5612508D02*
X4291372Y-5602984D01*
X4443753Y-5783936D02*
X4453277Y-5793460D01*
X4453277Y-5793460D02*
X4443753Y-5802984D01*
X4443753Y-5802984D02*
X4434229Y-5793460D01*
X4434229Y-5793460D02*
X4443753Y-5783936D01*
X4443753Y-5783936D02*
X4443753Y-5802984D01*
X4567563Y-5688698D02*
X4548515Y-5679174D01*
X4548515Y-5679174D02*
X4538991Y-5669650D01*
X4538991Y-5669650D02*
X4529467Y-5650603D01*
X4529467Y-5650603D02*
X4529467Y-5641079D01*
X4529467Y-5641079D02*
X4538991Y-5622031D01*
X4538991Y-5622031D02*
X4548515Y-5612508D01*
X4548515Y-5612508D02*
X4567563Y-5602984D01*
X4567563Y-5602984D02*
X4605658Y-5602984D01*
X4605658Y-5602984D02*
X4624705Y-5612508D01*
X4624705Y-5612508D02*
X4634229Y-5622031D01*
X4634229Y-5622031D02*
X4643753Y-5641079D01*
X4643753Y-5641079D02*
X4643753Y-5650603D01*
X4643753Y-5650603D02*
X4634229Y-5669650D01*
X4634229Y-5669650D02*
X4624705Y-5679174D01*
X4624705Y-5679174D02*
X4605658Y-5688698D01*
X4605658Y-5688698D02*
X4567563Y-5688698D01*
X4567563Y-5688698D02*
X4548515Y-5698222D01*
X4548515Y-5698222D02*
X4538991Y-5707746D01*
X4538991Y-5707746D02*
X4529467Y-5726793D01*
X4529467Y-5726793D02*
X4529467Y-5764888D01*
X4529467Y-5764888D02*
X4538991Y-5783936D01*
X4538991Y-5783936D02*
X4548515Y-5793460D01*
X4548515Y-5793460D02*
X4567563Y-5802984D01*
X4567563Y-5802984D02*
X4605658Y-5802984D01*
X4605658Y-5802984D02*
X4624705Y-5793460D01*
X4624705Y-5793460D02*
X4634229Y-5783936D01*
X4634229Y-5783936D02*
X4643753Y-5764888D01*
X4643753Y-5764888D02*
X4643753Y-5726793D01*
X4643753Y-5726793D02*
X4634229Y-5707746D01*
X4634229Y-5707746D02*
X4624705Y-5698222D01*
X4624705Y-5698222D02*
X4605658Y-5688698D01*
X4767563Y-5602984D02*
X4786610Y-5602984D01*
X4786610Y-5602984D02*
X4805658Y-5612508D01*
X4805658Y-5612508D02*
X4815182Y-5622031D01*
X4815182Y-5622031D02*
X4824705Y-5641079D01*
X4824705Y-5641079D02*
X4834229Y-5679174D01*
X4834229Y-5679174D02*
X4834229Y-5726793D01*
X4834229Y-5726793D02*
X4824705Y-5764888D01*
X4824705Y-5764888D02*
X4815182Y-5783936D01*
X4815182Y-5783936D02*
X4805658Y-5793460D01*
X4805658Y-5793460D02*
X4786610Y-5802984D01*
X4786610Y-5802984D02*
X4767563Y-5802984D01*
X4767563Y-5802984D02*
X4748515Y-5793460D01*
X4748515Y-5793460D02*
X4738991Y-5783936D01*
X4738991Y-5783936D02*
X4729467Y-5764888D01*
X4729467Y-5764888D02*
X4719944Y-5726793D01*
X4719944Y-5726793D02*
X4719944Y-5679174D01*
X4719944Y-5679174D02*
X4729467Y-5641079D01*
X4729467Y-5641079D02*
X4738991Y-5622031D01*
X4738991Y-5622031D02*
X4748515Y-5612508D01*
X4748515Y-5612508D02*
X4767563Y-5602984D01*
X4958039Y-5602984D02*
X4977086Y-5602984D01*
X4977086Y-5602984D02*
X4996134Y-5612508D01*
X4996134Y-5612508D02*
X5005658Y-5622031D01*
X5005658Y-5622031D02*
X5015182Y-5641079D01*
X5015182Y-5641079D02*
X5024705Y-5679174D01*
X5024705Y-5679174D02*
X5024705Y-5726793D01*
X5024705Y-5726793D02*
X5015182Y-5764888D01*
X5015182Y-5764888D02*
X5005658Y-5783936D01*
X5005658Y-5783936D02*
X4996134Y-5793460D01*
X4996134Y-5793460D02*
X4977086Y-5802984D01*
X4977086Y-5802984D02*
X4958039Y-5802984D01*
X4958039Y-5802984D02*
X4938991Y-5793460D01*
X4938991Y-5793460D02*
X4929467Y-5783936D01*
X4929467Y-5783936D02*
X4919944Y-5764888D01*
X4919944Y-5764888D02*
X4910420Y-5726793D01*
X4910420Y-5726793D02*
X4910420Y-5679174D01*
X4910420Y-5679174D02*
X4919944Y-5641079D01*
X4919944Y-5641079D02*
X4929467Y-5622031D01*
X4929467Y-5622031D02*
X4938991Y-5612508D01*
X4938991Y-5612508D02*
X4958039Y-5602984D01*
X5110420Y-5802984D02*
X5110420Y-5669650D01*
X5110420Y-5688698D02*
X5119944Y-5679174D01*
X5119944Y-5679174D02*
X5138991Y-5669650D01*
X5138991Y-5669650D02*
X5167563Y-5669650D01*
X5167563Y-5669650D02*
X5186610Y-5679174D01*
X5186610Y-5679174D02*
X5196134Y-5698222D01*
X5196134Y-5698222D02*
X5196134Y-5802984D01*
X5196134Y-5698222D02*
X5205658Y-5679174D01*
X5205658Y-5679174D02*
X5224705Y-5669650D01*
X5224705Y-5669650D02*
X5253277Y-5669650D01*
X5253277Y-5669650D02*
X5272325Y-5679174D01*
X5272325Y-5679174D02*
X5281848Y-5698222D01*
X5281848Y-5698222D02*
X5281848Y-5802984D01*
X5377086Y-5802984D02*
X5377086Y-5669650D01*
X5377086Y-5688698D02*
X5386610Y-5679174D01*
X5386610Y-5679174D02*
X5405658Y-5669650D01*
X5405658Y-5669650D02*
X5434229Y-5669650D01*
X5434229Y-5669650D02*
X5453277Y-5679174D01*
X5453277Y-5679174D02*
X5462801Y-5698222D01*
X5462801Y-5698222D02*
X5462801Y-5802984D01*
X5462801Y-5698222D02*
X5472325Y-5679174D01*
X5472325Y-5679174D02*
X5491372Y-5669650D01*
X5491372Y-5669650D02*
X5519944Y-5669650D01*
X5519944Y-5669650D02*
X5538991Y-5679174D01*
X5538991Y-5679174D02*
X5548515Y-5698222D01*
X5548515Y-5698222D02*
X5548515Y-5802984D01*
X5938991Y-5593460D02*
X5767563Y-5850603D01*
X6196134Y-5602984D02*
X6215182Y-5602984D01*
X6215182Y-5602984D02*
X6234229Y-5612508D01*
X6234229Y-5612508D02*
X6243753Y-5622031D01*
X6243753Y-5622031D02*
X6253277Y-5641079D01*
X6253277Y-5641079D02*
X6262801Y-5679174D01*
X6262801Y-5679174D02*
X6262801Y-5726793D01*
X6262801Y-5726793D02*
X6253277Y-5764888D01*
X6253277Y-5764888D02*
X6243753Y-5783936D01*
X6243753Y-5783936D02*
X6234229Y-5793460D01*
X6234229Y-5793460D02*
X6215182Y-5802984D01*
X6215182Y-5802984D02*
X6196134Y-5802984D01*
X6196134Y-5802984D02*
X6177086Y-5793460D01*
X6177086Y-5793460D02*
X6167563Y-5783936D01*
X6167563Y-5783936D02*
X6158039Y-5764888D01*
X6158039Y-5764888D02*
X6148515Y-5726793D01*
X6148515Y-5726793D02*
X6148515Y-5679174D01*
X6148515Y-5679174D02*
X6158039Y-5641079D01*
X6158039Y-5641079D02*
X6167563Y-5622031D01*
X6167563Y-5622031D02*
X6177086Y-5612508D01*
X6177086Y-5612508D02*
X6196134Y-5602984D01*
X6348515Y-5783936D02*
X6358039Y-5793460D01*
X6358039Y-5793460D02*
X6348515Y-5802984D01*
X6348515Y-5802984D02*
X6338991Y-5793460D01*
X6338991Y-5793460D02*
X6348515Y-5783936D01*
X6348515Y-5783936D02*
X6348515Y-5802984D01*
X6481848Y-5602984D02*
X6500896Y-5602984D01*
X6500896Y-5602984D02*
X6519944Y-5612508D01*
X6519944Y-5612508D02*
X6529467Y-5622031D01*
X6529467Y-5622031D02*
X6538991Y-5641079D01*
X6538991Y-5641079D02*
X6548515Y-5679174D01*
X6548515Y-5679174D02*
X6548515Y-5726793D01*
X6548515Y-5726793D02*
X6538991Y-5764888D01*
X6538991Y-5764888D02*
X6529467Y-5783936D01*
X6529467Y-5783936D02*
X6519944Y-5793460D01*
X6519944Y-5793460D02*
X6500896Y-5802984D01*
X6500896Y-5802984D02*
X6481848Y-5802984D01*
X6481848Y-5802984D02*
X6462801Y-5793460D01*
X6462801Y-5793460D02*
X6453277Y-5783936D01*
X6453277Y-5783936D02*
X6443753Y-5764888D01*
X6443753Y-5764888D02*
X6434229Y-5726793D01*
X6434229Y-5726793D02*
X6434229Y-5679174D01*
X6434229Y-5679174D02*
X6443753Y-5641079D01*
X6443753Y-5641079D02*
X6453277Y-5622031D01*
X6453277Y-5622031D02*
X6462801Y-5612508D01*
X6462801Y-5612508D02*
X6481848Y-5602984D01*
X6615182Y-5602984D02*
X6738991Y-5602984D01*
X6738991Y-5602984D02*
X6672325Y-5679174D01*
X6672325Y-5679174D02*
X6700896Y-5679174D01*
X6700896Y-5679174D02*
X6719944Y-5688698D01*
X6719944Y-5688698D02*
X6729467Y-5698222D01*
X6729467Y-5698222D02*
X6738991Y-5717269D01*
X6738991Y-5717269D02*
X6738991Y-5764888D01*
X6738991Y-5764888D02*
X6729467Y-5783936D01*
X6729467Y-5783936D02*
X6719944Y-5793460D01*
X6719944Y-5793460D02*
X6700896Y-5802984D01*
X6700896Y-5802984D02*
X6643753Y-5802984D01*
X6643753Y-5802984D02*
X6624706Y-5793460D01*
X6624706Y-5793460D02*
X6615182Y-5783936D01*
X6929467Y-5802984D02*
X6815182Y-5802984D01*
X6872325Y-5802984D02*
X6872325Y-5602984D01*
X6872325Y-5602984D02*
X6853277Y-5631555D01*
X6853277Y-5631555D02*
X6834229Y-5650603D01*
X6834229Y-5650603D02*
X6815182Y-5660127D01*
X7110420Y-5602984D02*
X7015182Y-5602984D01*
X7015182Y-5602984D02*
X7005658Y-5698222D01*
X7005658Y-5698222D02*
X7015182Y-5688698D01*
X7015182Y-5688698D02*
X7034229Y-5679174D01*
X7034229Y-5679174D02*
X7081848Y-5679174D01*
X7081848Y-5679174D02*
X7100896Y-5688698D01*
X7100896Y-5688698D02*
X7110420Y-5698222D01*
X7110420Y-5698222D02*
X7119944Y-5717269D01*
X7119944Y-5717269D02*
X7119944Y-5764888D01*
X7119944Y-5764888D02*
X7110420Y-5783936D01*
X7110420Y-5783936D02*
X7100896Y-5793460D01*
X7100896Y-5793460D02*
X7081848Y-5802984D01*
X7081848Y-5802984D02*
X7034229Y-5802984D01*
X7034229Y-5802984D02*
X7015182Y-5793460D01*
X7015182Y-5793460D02*
X7005658Y-5783936D01*
X7196134Y-5602984D02*
X7196134Y-5641079D01*
X7272325Y-5602984D02*
X7272325Y-5641079D01*
X7567563Y-5879174D02*
X7558039Y-5869650D01*
X7558039Y-5869650D02*
X7538991Y-5841079D01*
X7538991Y-5841079D02*
X7529468Y-5822031D01*
X7529468Y-5822031D02*
X7519944Y-5793460D01*
X7519944Y-5793460D02*
X7510420Y-5745841D01*
X7510420Y-5745841D02*
X7510420Y-5707746D01*
X7510420Y-5707746D02*
X7519944Y-5660127D01*
X7519944Y-5660127D02*
X7529468Y-5631555D01*
X7529468Y-5631555D02*
X7538991Y-5612508D01*
X7538991Y-5612508D02*
X7558039Y-5583936D01*
X7558039Y-5583936D02*
X7567563Y-5574412D01*
X7748515Y-5802984D02*
X7634229Y-5802984D01*
X7691372Y-5802984D02*
X7691372Y-5602984D01*
X7691372Y-5602984D02*
X7672325Y-5631555D01*
X7672325Y-5631555D02*
X7653277Y-5650603D01*
X7653277Y-5650603D02*
X7634229Y-5660127D01*
X7862801Y-5688698D02*
X7843753Y-5679174D01*
X7843753Y-5679174D02*
X7834229Y-5669650D01*
X7834229Y-5669650D02*
X7824706Y-5650603D01*
X7824706Y-5650603D02*
X7824706Y-5641079D01*
X7824706Y-5641079D02*
X7834229Y-5622031D01*
X7834229Y-5622031D02*
X7843753Y-5612508D01*
X7843753Y-5612508D02*
X7862801Y-5602984D01*
X7862801Y-5602984D02*
X7900896Y-5602984D01*
X7900896Y-5602984D02*
X7919944Y-5612508D01*
X7919944Y-5612508D02*
X7929468Y-5622031D01*
X7929468Y-5622031D02*
X7938991Y-5641079D01*
X7938991Y-5641079D02*
X7938991Y-5650603D01*
X7938991Y-5650603D02*
X7929468Y-5669650D01*
X7929468Y-5669650D02*
X7919944Y-5679174D01*
X7919944Y-5679174D02*
X7900896Y-5688698D01*
X7900896Y-5688698D02*
X7862801Y-5688698D01*
X7862801Y-5688698D02*
X7843753Y-5698222D01*
X7843753Y-5698222D02*
X7834229Y-5707746D01*
X7834229Y-5707746D02*
X7824706Y-5726793D01*
X7824706Y-5726793D02*
X7824706Y-5764888D01*
X7824706Y-5764888D02*
X7834229Y-5783936D01*
X7834229Y-5783936D02*
X7843753Y-5793460D01*
X7843753Y-5793460D02*
X7862801Y-5802984D01*
X7862801Y-5802984D02*
X7900896Y-5802984D01*
X7900896Y-5802984D02*
X7919944Y-5793460D01*
X7919944Y-5793460D02*
X7929468Y-5783936D01*
X7929468Y-5783936D02*
X7938991Y-5764888D01*
X7938991Y-5764888D02*
X7938991Y-5726793D01*
X7938991Y-5726793D02*
X7929468Y-5707746D01*
X7929468Y-5707746D02*
X7919944Y-5698222D01*
X7919944Y-5698222D02*
X7900896Y-5688698D01*
X8177087Y-5802984D02*
X8177087Y-5602984D01*
X8262801Y-5802984D02*
X8262801Y-5698222D01*
X8262801Y-5698222D02*
X8253277Y-5679174D01*
X8253277Y-5679174D02*
X8234230Y-5669650D01*
X8234230Y-5669650D02*
X8205658Y-5669650D01*
X8205658Y-5669650D02*
X8186610Y-5679174D01*
X8186610Y-5679174D02*
X8177087Y-5688698D01*
X8386610Y-5802984D02*
X8367563Y-5793460D01*
X8367563Y-5793460D02*
X8358039Y-5783936D01*
X8358039Y-5783936D02*
X8348515Y-5764888D01*
X8348515Y-5764888D02*
X8348515Y-5707746D01*
X8348515Y-5707746D02*
X8358039Y-5688698D01*
X8358039Y-5688698D02*
X8367563Y-5679174D01*
X8367563Y-5679174D02*
X8386610Y-5669650D01*
X8386610Y-5669650D02*
X8415182Y-5669650D01*
X8415182Y-5669650D02*
X8434230Y-5679174D01*
X8434230Y-5679174D02*
X8443753Y-5688698D01*
X8443753Y-5688698D02*
X8453277Y-5707746D01*
X8453277Y-5707746D02*
X8453277Y-5764888D01*
X8453277Y-5764888D02*
X8443753Y-5783936D01*
X8443753Y-5783936D02*
X8434230Y-5793460D01*
X8434230Y-5793460D02*
X8415182Y-5802984D01*
X8415182Y-5802984D02*
X8386610Y-5802984D01*
X8567563Y-5802984D02*
X8548515Y-5793460D01*
X8548515Y-5793460D02*
X8538992Y-5774412D01*
X8538992Y-5774412D02*
X8538992Y-5602984D01*
X8719944Y-5793460D02*
X8700896Y-5802984D01*
X8700896Y-5802984D02*
X8662801Y-5802984D01*
X8662801Y-5802984D02*
X8643753Y-5793460D01*
X8643753Y-5793460D02*
X8634230Y-5774412D01*
X8634230Y-5774412D02*
X8634230Y-5698222D01*
X8634230Y-5698222D02*
X8643753Y-5679174D01*
X8643753Y-5679174D02*
X8662801Y-5669650D01*
X8662801Y-5669650D02*
X8700896Y-5669650D01*
X8700896Y-5669650D02*
X8719944Y-5679174D01*
X8719944Y-5679174D02*
X8729468Y-5698222D01*
X8729468Y-5698222D02*
X8729468Y-5717269D01*
X8729468Y-5717269D02*
X8634230Y-5736317D01*
X8805658Y-5793460D02*
X8824706Y-5802984D01*
X8824706Y-5802984D02*
X8862801Y-5802984D01*
X8862801Y-5802984D02*
X8881849Y-5793460D01*
X8881849Y-5793460D02*
X8891373Y-5774412D01*
X8891373Y-5774412D02*
X8891373Y-5764888D01*
X8891373Y-5764888D02*
X8881849Y-5745841D01*
X8881849Y-5745841D02*
X8862801Y-5736317D01*
X8862801Y-5736317D02*
X8834230Y-5736317D01*
X8834230Y-5736317D02*
X8815182Y-5726793D01*
X8815182Y-5726793D02*
X8805658Y-5707746D01*
X8805658Y-5707746D02*
X8805658Y-5698222D01*
X8805658Y-5698222D02*
X8815182Y-5679174D01*
X8815182Y-5679174D02*
X8834230Y-5669650D01*
X8834230Y-5669650D02*
X8862801Y-5669650D01*
X8862801Y-5669650D02*
X8881849Y-5679174D01*
X8958039Y-5879174D02*
X8967563Y-5869650D01*
X8967563Y-5869650D02*
X8986611Y-5841079D01*
X8986611Y-5841079D02*
X8996134Y-5822031D01*
X8996134Y-5822031D02*
X9005658Y-5793460D01*
X9005658Y-5793460D02*
X9015182Y-5745841D01*
X9015182Y-5745841D02*
X9015182Y-5707746D01*
X9015182Y-5707746D02*
X9005658Y-5660127D01*
X9005658Y-5660127D02*
X8996134Y-5631555D01*
X8996134Y-5631555D02*
X8986611Y-5612508D01*
X8986611Y-5612508D02*
X8967563Y-5583936D01*
X8967563Y-5583936D02*
X8958039Y-5574412D01*
D12*
X3947500Y-5930500D02*
X3947500Y-6020500D01*
X3902500Y-5975500D02*
X3992500Y-5975500D01*
D11*
X4291372Y-5866984D02*
X4310420Y-5866984D01*
X4310420Y-5866984D02*
X4329467Y-5876508D01*
X4329467Y-5876508D02*
X4338991Y-5886031D01*
X4338991Y-5886031D02*
X4348515Y-5905079D01*
X4348515Y-5905079D02*
X4358039Y-5943174D01*
X4358039Y-5943174D02*
X4358039Y-5990793D01*
X4358039Y-5990793D02*
X4348515Y-6028888D01*
X4348515Y-6028888D02*
X4338991Y-6047936D01*
X4338991Y-6047936D02*
X4329467Y-6057460D01*
X4329467Y-6057460D02*
X4310420Y-6066984D01*
X4310420Y-6066984D02*
X4291372Y-6066984D01*
X4291372Y-6066984D02*
X4272324Y-6057460D01*
X4272324Y-6057460D02*
X4262801Y-6047936D01*
X4262801Y-6047936D02*
X4253277Y-6028888D01*
X4253277Y-6028888D02*
X4243753Y-5990793D01*
X4243753Y-5990793D02*
X4243753Y-5943174D01*
X4243753Y-5943174D02*
X4253277Y-5905079D01*
X4253277Y-5905079D02*
X4262801Y-5886031D01*
X4262801Y-5886031D02*
X4272324Y-5876508D01*
X4272324Y-5876508D02*
X4291372Y-5866984D01*
X4443753Y-6047936D02*
X4453277Y-6057460D01*
X4453277Y-6057460D02*
X4443753Y-6066984D01*
X4443753Y-6066984D02*
X4434229Y-6057460D01*
X4434229Y-6057460D02*
X4443753Y-6047936D01*
X4443753Y-6047936D02*
X4443753Y-6066984D01*
X4548515Y-6066984D02*
X4586610Y-6066984D01*
X4586610Y-6066984D02*
X4605658Y-6057460D01*
X4605658Y-6057460D02*
X4615182Y-6047936D01*
X4615182Y-6047936D02*
X4634229Y-6019365D01*
X4634229Y-6019365D02*
X4643753Y-5981269D01*
X4643753Y-5981269D02*
X4643753Y-5905079D01*
X4643753Y-5905079D02*
X4634229Y-5886031D01*
X4634229Y-5886031D02*
X4624705Y-5876508D01*
X4624705Y-5876508D02*
X4605658Y-5866984D01*
X4605658Y-5866984D02*
X4567563Y-5866984D01*
X4567563Y-5866984D02*
X4548515Y-5876508D01*
X4548515Y-5876508D02*
X4538991Y-5886031D01*
X4538991Y-5886031D02*
X4529467Y-5905079D01*
X4529467Y-5905079D02*
X4529467Y-5952698D01*
X4529467Y-5952698D02*
X4538991Y-5971746D01*
X4538991Y-5971746D02*
X4548515Y-5981269D01*
X4548515Y-5981269D02*
X4567563Y-5990793D01*
X4567563Y-5990793D02*
X4605658Y-5990793D01*
X4605658Y-5990793D02*
X4624705Y-5981269D01*
X4624705Y-5981269D02*
X4634229Y-5971746D01*
X4634229Y-5971746D02*
X4643753Y-5952698D01*
X4767563Y-5866984D02*
X4786610Y-5866984D01*
X4786610Y-5866984D02*
X4805658Y-5876508D01*
X4805658Y-5876508D02*
X4815182Y-5886031D01*
X4815182Y-5886031D02*
X4824705Y-5905079D01*
X4824705Y-5905079D02*
X4834229Y-5943174D01*
X4834229Y-5943174D02*
X4834229Y-5990793D01*
X4834229Y-5990793D02*
X4824705Y-6028888D01*
X4824705Y-6028888D02*
X4815182Y-6047936D01*
X4815182Y-6047936D02*
X4805658Y-6057460D01*
X4805658Y-6057460D02*
X4786610Y-6066984D01*
X4786610Y-6066984D02*
X4767563Y-6066984D01*
X4767563Y-6066984D02*
X4748515Y-6057460D01*
X4748515Y-6057460D02*
X4738991Y-6047936D01*
X4738991Y-6047936D02*
X4729467Y-6028888D01*
X4729467Y-6028888D02*
X4719944Y-5990793D01*
X4719944Y-5990793D02*
X4719944Y-5943174D01*
X4719944Y-5943174D02*
X4729467Y-5905079D01*
X4729467Y-5905079D02*
X4738991Y-5886031D01*
X4738991Y-5886031D02*
X4748515Y-5876508D01*
X4748515Y-5876508D02*
X4767563Y-5866984D01*
X4958039Y-5866984D02*
X4977086Y-5866984D01*
X4977086Y-5866984D02*
X4996134Y-5876508D01*
X4996134Y-5876508D02*
X5005658Y-5886031D01*
X5005658Y-5886031D02*
X5015182Y-5905079D01*
X5015182Y-5905079D02*
X5024705Y-5943174D01*
X5024705Y-5943174D02*
X5024705Y-5990793D01*
X5024705Y-5990793D02*
X5015182Y-6028888D01*
X5015182Y-6028888D02*
X5005658Y-6047936D01*
X5005658Y-6047936D02*
X4996134Y-6057460D01*
X4996134Y-6057460D02*
X4977086Y-6066984D01*
X4977086Y-6066984D02*
X4958039Y-6066984D01*
X4958039Y-6066984D02*
X4938991Y-6057460D01*
X4938991Y-6057460D02*
X4929467Y-6047936D01*
X4929467Y-6047936D02*
X4919944Y-6028888D01*
X4919944Y-6028888D02*
X4910420Y-5990793D01*
X4910420Y-5990793D02*
X4910420Y-5943174D01*
X4910420Y-5943174D02*
X4919944Y-5905079D01*
X4919944Y-5905079D02*
X4929467Y-5886031D01*
X4929467Y-5886031D02*
X4938991Y-5876508D01*
X4938991Y-5876508D02*
X4958039Y-5866984D01*
X5110420Y-6066984D02*
X5110420Y-5933650D01*
X5110420Y-5952698D02*
X5119944Y-5943174D01*
X5119944Y-5943174D02*
X5138991Y-5933650D01*
X5138991Y-5933650D02*
X5167563Y-5933650D01*
X5167563Y-5933650D02*
X5186610Y-5943174D01*
X5186610Y-5943174D02*
X5196134Y-5962222D01*
X5196134Y-5962222D02*
X5196134Y-6066984D01*
X5196134Y-5962222D02*
X5205658Y-5943174D01*
X5205658Y-5943174D02*
X5224705Y-5933650D01*
X5224705Y-5933650D02*
X5253277Y-5933650D01*
X5253277Y-5933650D02*
X5272325Y-5943174D01*
X5272325Y-5943174D02*
X5281848Y-5962222D01*
X5281848Y-5962222D02*
X5281848Y-6066984D01*
X5377086Y-6066984D02*
X5377086Y-5933650D01*
X5377086Y-5952698D02*
X5386610Y-5943174D01*
X5386610Y-5943174D02*
X5405658Y-5933650D01*
X5405658Y-5933650D02*
X5434229Y-5933650D01*
X5434229Y-5933650D02*
X5453277Y-5943174D01*
X5453277Y-5943174D02*
X5462801Y-5962222D01*
X5462801Y-5962222D02*
X5462801Y-6066984D01*
X5462801Y-5962222D02*
X5472325Y-5943174D01*
X5472325Y-5943174D02*
X5491372Y-5933650D01*
X5491372Y-5933650D02*
X5519944Y-5933650D01*
X5519944Y-5933650D02*
X5538991Y-5943174D01*
X5538991Y-5943174D02*
X5548515Y-5962222D01*
X5548515Y-5962222D02*
X5548515Y-6066984D01*
X5938991Y-5857460D02*
X5767563Y-6114603D01*
X6196134Y-5866984D02*
X6215182Y-5866984D01*
X6215182Y-5866984D02*
X6234229Y-5876508D01*
X6234229Y-5876508D02*
X6243753Y-5886031D01*
X6243753Y-5886031D02*
X6253277Y-5905079D01*
X6253277Y-5905079D02*
X6262801Y-5943174D01*
X6262801Y-5943174D02*
X6262801Y-5990793D01*
X6262801Y-5990793D02*
X6253277Y-6028888D01*
X6253277Y-6028888D02*
X6243753Y-6047936D01*
X6243753Y-6047936D02*
X6234229Y-6057460D01*
X6234229Y-6057460D02*
X6215182Y-6066984D01*
X6215182Y-6066984D02*
X6196134Y-6066984D01*
X6196134Y-6066984D02*
X6177086Y-6057460D01*
X6177086Y-6057460D02*
X6167563Y-6047936D01*
X6167563Y-6047936D02*
X6158039Y-6028888D01*
X6158039Y-6028888D02*
X6148515Y-5990793D01*
X6148515Y-5990793D02*
X6148515Y-5943174D01*
X6148515Y-5943174D02*
X6158039Y-5905079D01*
X6158039Y-5905079D02*
X6167563Y-5886031D01*
X6167563Y-5886031D02*
X6177086Y-5876508D01*
X6177086Y-5876508D02*
X6196134Y-5866984D01*
X6348515Y-6047936D02*
X6358039Y-6057460D01*
X6358039Y-6057460D02*
X6348515Y-6066984D01*
X6348515Y-6066984D02*
X6338991Y-6057460D01*
X6338991Y-6057460D02*
X6348515Y-6047936D01*
X6348515Y-6047936D02*
X6348515Y-6066984D01*
X6481848Y-5866984D02*
X6500896Y-5866984D01*
X6500896Y-5866984D02*
X6519944Y-5876508D01*
X6519944Y-5876508D02*
X6529467Y-5886031D01*
X6529467Y-5886031D02*
X6538991Y-5905079D01*
X6538991Y-5905079D02*
X6548515Y-5943174D01*
X6548515Y-5943174D02*
X6548515Y-5990793D01*
X6548515Y-5990793D02*
X6538991Y-6028888D01*
X6538991Y-6028888D02*
X6529467Y-6047936D01*
X6529467Y-6047936D02*
X6519944Y-6057460D01*
X6519944Y-6057460D02*
X6500896Y-6066984D01*
X6500896Y-6066984D02*
X6481848Y-6066984D01*
X6481848Y-6066984D02*
X6462801Y-6057460D01*
X6462801Y-6057460D02*
X6453277Y-6047936D01*
X6453277Y-6047936D02*
X6443753Y-6028888D01*
X6443753Y-6028888D02*
X6434229Y-5990793D01*
X6434229Y-5990793D02*
X6434229Y-5943174D01*
X6434229Y-5943174D02*
X6443753Y-5905079D01*
X6443753Y-5905079D02*
X6453277Y-5886031D01*
X6453277Y-5886031D02*
X6462801Y-5876508D01*
X6462801Y-5876508D02*
X6481848Y-5866984D01*
X6615182Y-5866984D02*
X6738991Y-5866984D01*
X6738991Y-5866984D02*
X6672325Y-5943174D01*
X6672325Y-5943174D02*
X6700896Y-5943174D01*
X6700896Y-5943174D02*
X6719944Y-5952698D01*
X6719944Y-5952698D02*
X6729467Y-5962222D01*
X6729467Y-5962222D02*
X6738991Y-5981269D01*
X6738991Y-5981269D02*
X6738991Y-6028888D01*
X6738991Y-6028888D02*
X6729467Y-6047936D01*
X6729467Y-6047936D02*
X6719944Y-6057460D01*
X6719944Y-6057460D02*
X6700896Y-6066984D01*
X6700896Y-6066984D02*
X6643753Y-6066984D01*
X6643753Y-6066984D02*
X6624706Y-6057460D01*
X6624706Y-6057460D02*
X6615182Y-6047936D01*
X6919944Y-5866984D02*
X6824706Y-5866984D01*
X6824706Y-5866984D02*
X6815182Y-5962222D01*
X6815182Y-5962222D02*
X6824706Y-5952698D01*
X6824706Y-5952698D02*
X6843753Y-5943174D01*
X6843753Y-5943174D02*
X6891372Y-5943174D01*
X6891372Y-5943174D02*
X6910420Y-5952698D01*
X6910420Y-5952698D02*
X6919944Y-5962222D01*
X6919944Y-5962222D02*
X6929467Y-5981269D01*
X6929467Y-5981269D02*
X6929467Y-6028888D01*
X6929467Y-6028888D02*
X6919944Y-6047936D01*
X6919944Y-6047936D02*
X6910420Y-6057460D01*
X6910420Y-6057460D02*
X6891372Y-6066984D01*
X6891372Y-6066984D02*
X6843753Y-6066984D01*
X6843753Y-6066984D02*
X6824706Y-6057460D01*
X6824706Y-6057460D02*
X6815182Y-6047936D01*
X7100896Y-5933650D02*
X7100896Y-6066984D01*
X7053277Y-5857460D02*
X7005658Y-6000317D01*
X7005658Y-6000317D02*
X7129467Y-6000317D01*
X7196134Y-5866984D02*
X7196134Y-5905079D01*
X7272325Y-5866984D02*
X7272325Y-5905079D01*
X7567563Y-6143174D02*
X7558039Y-6133650D01*
X7558039Y-6133650D02*
X7538991Y-6105079D01*
X7538991Y-6105079D02*
X7529468Y-6086031D01*
X7529468Y-6086031D02*
X7519944Y-6057460D01*
X7519944Y-6057460D02*
X7510420Y-6009841D01*
X7510420Y-6009841D02*
X7510420Y-5971746D01*
X7510420Y-5971746D02*
X7519944Y-5924127D01*
X7519944Y-5924127D02*
X7529468Y-5895555D01*
X7529468Y-5895555D02*
X7538991Y-5876508D01*
X7538991Y-5876508D02*
X7558039Y-5847936D01*
X7558039Y-5847936D02*
X7567563Y-5838412D01*
X7748515Y-6066984D02*
X7634229Y-6066984D01*
X7691372Y-6066984D02*
X7691372Y-5866984D01*
X7691372Y-5866984D02*
X7672325Y-5895555D01*
X7672325Y-5895555D02*
X7653277Y-5914603D01*
X7653277Y-5914603D02*
X7634229Y-5924127D01*
X7862801Y-5952698D02*
X7843753Y-5943174D01*
X7843753Y-5943174D02*
X7834229Y-5933650D01*
X7834229Y-5933650D02*
X7824706Y-5914603D01*
X7824706Y-5914603D02*
X7824706Y-5905079D01*
X7824706Y-5905079D02*
X7834229Y-5886031D01*
X7834229Y-5886031D02*
X7843753Y-5876508D01*
X7843753Y-5876508D02*
X7862801Y-5866984D01*
X7862801Y-5866984D02*
X7900896Y-5866984D01*
X7900896Y-5866984D02*
X7919944Y-5876508D01*
X7919944Y-5876508D02*
X7929468Y-5886031D01*
X7929468Y-5886031D02*
X7938991Y-5905079D01*
X7938991Y-5905079D02*
X7938991Y-5914603D01*
X7938991Y-5914603D02*
X7929468Y-5933650D01*
X7929468Y-5933650D02*
X7919944Y-5943174D01*
X7919944Y-5943174D02*
X7900896Y-5952698D01*
X7900896Y-5952698D02*
X7862801Y-5952698D01*
X7862801Y-5952698D02*
X7843753Y-5962222D01*
X7843753Y-5962222D02*
X7834229Y-5971746D01*
X7834229Y-5971746D02*
X7824706Y-5990793D01*
X7824706Y-5990793D02*
X7824706Y-6028888D01*
X7824706Y-6028888D02*
X7834229Y-6047936D01*
X7834229Y-6047936D02*
X7843753Y-6057460D01*
X7843753Y-6057460D02*
X7862801Y-6066984D01*
X7862801Y-6066984D02*
X7900896Y-6066984D01*
X7900896Y-6066984D02*
X7919944Y-6057460D01*
X7919944Y-6057460D02*
X7929468Y-6047936D01*
X7929468Y-6047936D02*
X7938991Y-6028888D01*
X7938991Y-6028888D02*
X7938991Y-5990793D01*
X7938991Y-5990793D02*
X7929468Y-5971746D01*
X7929468Y-5971746D02*
X7919944Y-5962222D01*
X7919944Y-5962222D02*
X7900896Y-5952698D01*
X8177087Y-6066984D02*
X8177087Y-5866984D01*
X8262801Y-6066984D02*
X8262801Y-5962222D01*
X8262801Y-5962222D02*
X8253277Y-5943174D01*
X8253277Y-5943174D02*
X8234230Y-5933650D01*
X8234230Y-5933650D02*
X8205658Y-5933650D01*
X8205658Y-5933650D02*
X8186610Y-5943174D01*
X8186610Y-5943174D02*
X8177087Y-5952698D01*
X8386610Y-6066984D02*
X8367563Y-6057460D01*
X8367563Y-6057460D02*
X8358039Y-6047936D01*
X8358039Y-6047936D02*
X8348515Y-6028888D01*
X8348515Y-6028888D02*
X8348515Y-5971746D01*
X8348515Y-5971746D02*
X8358039Y-5952698D01*
X8358039Y-5952698D02*
X8367563Y-5943174D01*
X8367563Y-5943174D02*
X8386610Y-5933650D01*
X8386610Y-5933650D02*
X8415182Y-5933650D01*
X8415182Y-5933650D02*
X8434230Y-5943174D01*
X8434230Y-5943174D02*
X8443753Y-5952698D01*
X8443753Y-5952698D02*
X8453277Y-5971746D01*
X8453277Y-5971746D02*
X8453277Y-6028888D01*
X8453277Y-6028888D02*
X8443753Y-6047936D01*
X8443753Y-6047936D02*
X8434230Y-6057460D01*
X8434230Y-6057460D02*
X8415182Y-6066984D01*
X8415182Y-6066984D02*
X8386610Y-6066984D01*
X8567563Y-6066984D02*
X8548515Y-6057460D01*
X8548515Y-6057460D02*
X8538992Y-6038412D01*
X8538992Y-6038412D02*
X8538992Y-5866984D01*
X8719944Y-6057460D02*
X8700896Y-6066984D01*
X8700896Y-6066984D02*
X8662801Y-6066984D01*
X8662801Y-6066984D02*
X8643753Y-6057460D01*
X8643753Y-6057460D02*
X8634230Y-6038412D01*
X8634230Y-6038412D02*
X8634230Y-5962222D01*
X8634230Y-5962222D02*
X8643753Y-5943174D01*
X8643753Y-5943174D02*
X8662801Y-5933650D01*
X8662801Y-5933650D02*
X8700896Y-5933650D01*
X8700896Y-5933650D02*
X8719944Y-5943174D01*
X8719944Y-5943174D02*
X8729468Y-5962222D01*
X8729468Y-5962222D02*
X8729468Y-5981269D01*
X8729468Y-5981269D02*
X8634230Y-6000317D01*
X8805658Y-6057460D02*
X8824706Y-6066984D01*
X8824706Y-6066984D02*
X8862801Y-6066984D01*
X8862801Y-6066984D02*
X8881849Y-6057460D01*
X8881849Y-6057460D02*
X8891373Y-6038412D01*
X8891373Y-6038412D02*
X8891373Y-6028888D01*
X8891373Y-6028888D02*
X8881849Y-6009841D01*
X8881849Y-6009841D02*
X8862801Y-6000317D01*
X8862801Y-6000317D02*
X8834230Y-6000317D01*
X8834230Y-6000317D02*
X8815182Y-5990793D01*
X8815182Y-5990793D02*
X8805658Y-5971746D01*
X8805658Y-5971746D02*
X8805658Y-5962222D01*
X8805658Y-5962222D02*
X8815182Y-5943174D01*
X8815182Y-5943174D02*
X8834230Y-5933650D01*
X8834230Y-5933650D02*
X8862801Y-5933650D01*
X8862801Y-5933650D02*
X8881849Y-5943174D01*
X8958039Y-6143174D02*
X8967563Y-6133650D01*
X8967563Y-6133650D02*
X8986611Y-6105079D01*
X8986611Y-6105079D02*
X8996134Y-6086031D01*
X8996134Y-6086031D02*
X9005658Y-6057460D01*
X9005658Y-6057460D02*
X9015182Y-6009841D01*
X9015182Y-6009841D02*
X9015182Y-5971746D01*
X9015182Y-5971746D02*
X9005658Y-5924127D01*
X9005658Y-5924127D02*
X8996134Y-5895555D01*
X8996134Y-5895555D02*
X8986611Y-5876508D01*
X8986611Y-5876508D02*
X8967563Y-5847936D01*
X8967563Y-5847936D02*
X8958039Y-5838412D01*
D12*
X3977856Y-6274856D02*
X3977856Y-6204144D01*
X3907144Y-6204144D01*
X3907144Y-6274856D01*
X3977856Y-6274856D01*
D11*
X4358039Y-6330984D02*
X4243753Y-6330984D01*
X4300896Y-6330984D02*
X4300896Y-6130984D01*
X4300896Y-6130984D02*
X4281848Y-6159555D01*
X4281848Y-6159555D02*
X4262801Y-6178603D01*
X4262801Y-6178603D02*
X4243753Y-6188127D01*
X4443753Y-6311936D02*
X4453277Y-6321460D01*
X4453277Y-6321460D02*
X4443753Y-6330984D01*
X4443753Y-6330984D02*
X4434229Y-6321460D01*
X4434229Y-6321460D02*
X4443753Y-6311936D01*
X4443753Y-6311936D02*
X4443753Y-6330984D01*
X4577086Y-6130984D02*
X4596134Y-6130984D01*
X4596134Y-6130984D02*
X4615182Y-6140508D01*
X4615182Y-6140508D02*
X4624705Y-6150031D01*
X4624705Y-6150031D02*
X4634229Y-6169079D01*
X4634229Y-6169079D02*
X4643753Y-6207174D01*
X4643753Y-6207174D02*
X4643753Y-6254793D01*
X4643753Y-6254793D02*
X4634229Y-6292888D01*
X4634229Y-6292888D02*
X4624705Y-6311936D01*
X4624705Y-6311936D02*
X4615182Y-6321460D01*
X4615182Y-6321460D02*
X4596134Y-6330984D01*
X4596134Y-6330984D02*
X4577086Y-6330984D01*
X4577086Y-6330984D02*
X4558039Y-6321460D01*
X4558039Y-6321460D02*
X4548515Y-6311936D01*
X4548515Y-6311936D02*
X4538991Y-6292888D01*
X4538991Y-6292888D02*
X4529467Y-6254793D01*
X4529467Y-6254793D02*
X4529467Y-6207174D01*
X4529467Y-6207174D02*
X4538991Y-6169079D01*
X4538991Y-6169079D02*
X4548515Y-6150031D01*
X4548515Y-6150031D02*
X4558039Y-6140508D01*
X4558039Y-6140508D02*
X4577086Y-6130984D01*
X4767563Y-6130984D02*
X4786610Y-6130984D01*
X4786610Y-6130984D02*
X4805658Y-6140508D01*
X4805658Y-6140508D02*
X4815182Y-6150031D01*
X4815182Y-6150031D02*
X4824705Y-6169079D01*
X4824705Y-6169079D02*
X4834229Y-6207174D01*
X4834229Y-6207174D02*
X4834229Y-6254793D01*
X4834229Y-6254793D02*
X4824705Y-6292888D01*
X4824705Y-6292888D02*
X4815182Y-6311936D01*
X4815182Y-6311936D02*
X4805658Y-6321460D01*
X4805658Y-6321460D02*
X4786610Y-6330984D01*
X4786610Y-6330984D02*
X4767563Y-6330984D01*
X4767563Y-6330984D02*
X4748515Y-6321460D01*
X4748515Y-6321460D02*
X4738991Y-6311936D01*
X4738991Y-6311936D02*
X4729467Y-6292888D01*
X4729467Y-6292888D02*
X4719944Y-6254793D01*
X4719944Y-6254793D02*
X4719944Y-6207174D01*
X4719944Y-6207174D02*
X4729467Y-6169079D01*
X4729467Y-6169079D02*
X4738991Y-6150031D01*
X4738991Y-6150031D02*
X4748515Y-6140508D01*
X4748515Y-6140508D02*
X4767563Y-6130984D01*
X4958039Y-6130984D02*
X4977086Y-6130984D01*
X4977086Y-6130984D02*
X4996134Y-6140508D01*
X4996134Y-6140508D02*
X5005658Y-6150031D01*
X5005658Y-6150031D02*
X5015182Y-6169079D01*
X5015182Y-6169079D02*
X5024705Y-6207174D01*
X5024705Y-6207174D02*
X5024705Y-6254793D01*
X5024705Y-6254793D02*
X5015182Y-6292888D01*
X5015182Y-6292888D02*
X5005658Y-6311936D01*
X5005658Y-6311936D02*
X4996134Y-6321460D01*
X4996134Y-6321460D02*
X4977086Y-6330984D01*
X4977086Y-6330984D02*
X4958039Y-6330984D01*
X4958039Y-6330984D02*
X4938991Y-6321460D01*
X4938991Y-6321460D02*
X4929467Y-6311936D01*
X4929467Y-6311936D02*
X4919944Y-6292888D01*
X4919944Y-6292888D02*
X4910420Y-6254793D01*
X4910420Y-6254793D02*
X4910420Y-6207174D01*
X4910420Y-6207174D02*
X4919944Y-6169079D01*
X4919944Y-6169079D02*
X4929467Y-6150031D01*
X4929467Y-6150031D02*
X4938991Y-6140508D01*
X4938991Y-6140508D02*
X4958039Y-6130984D01*
X5110420Y-6330984D02*
X5110420Y-6197650D01*
X5110420Y-6216698D02*
X5119944Y-6207174D01*
X5119944Y-6207174D02*
X5138991Y-6197650D01*
X5138991Y-6197650D02*
X5167563Y-6197650D01*
X5167563Y-6197650D02*
X5186610Y-6207174D01*
X5186610Y-6207174D02*
X5196134Y-6226222D01*
X5196134Y-6226222D02*
X5196134Y-6330984D01*
X5196134Y-6226222D02*
X5205658Y-6207174D01*
X5205658Y-6207174D02*
X5224705Y-6197650D01*
X5224705Y-6197650D02*
X5253277Y-6197650D01*
X5253277Y-6197650D02*
X5272325Y-6207174D01*
X5272325Y-6207174D02*
X5281848Y-6226222D01*
X5281848Y-6226222D02*
X5281848Y-6330984D01*
X5377086Y-6330984D02*
X5377086Y-6197650D01*
X5377086Y-6216698D02*
X5386610Y-6207174D01*
X5386610Y-6207174D02*
X5405658Y-6197650D01*
X5405658Y-6197650D02*
X5434229Y-6197650D01*
X5434229Y-6197650D02*
X5453277Y-6207174D01*
X5453277Y-6207174D02*
X5462801Y-6226222D01*
X5462801Y-6226222D02*
X5462801Y-6330984D01*
X5462801Y-6226222D02*
X5472325Y-6207174D01*
X5472325Y-6207174D02*
X5491372Y-6197650D01*
X5491372Y-6197650D02*
X5519944Y-6197650D01*
X5519944Y-6197650D02*
X5538991Y-6207174D01*
X5538991Y-6207174D02*
X5548515Y-6226222D01*
X5548515Y-6226222D02*
X5548515Y-6330984D01*
X5938991Y-6121460D02*
X5767563Y-6378603D01*
X6196134Y-6130984D02*
X6215182Y-6130984D01*
X6215182Y-6130984D02*
X6234229Y-6140508D01*
X6234229Y-6140508D02*
X6243753Y-6150031D01*
X6243753Y-6150031D02*
X6253277Y-6169079D01*
X6253277Y-6169079D02*
X6262801Y-6207174D01*
X6262801Y-6207174D02*
X6262801Y-6254793D01*
X6262801Y-6254793D02*
X6253277Y-6292888D01*
X6253277Y-6292888D02*
X6243753Y-6311936D01*
X6243753Y-6311936D02*
X6234229Y-6321460D01*
X6234229Y-6321460D02*
X6215182Y-6330984D01*
X6215182Y-6330984D02*
X6196134Y-6330984D01*
X6196134Y-6330984D02*
X6177086Y-6321460D01*
X6177086Y-6321460D02*
X6167563Y-6311936D01*
X6167563Y-6311936D02*
X6158039Y-6292888D01*
X6158039Y-6292888D02*
X6148515Y-6254793D01*
X6148515Y-6254793D02*
X6148515Y-6207174D01*
X6148515Y-6207174D02*
X6158039Y-6169079D01*
X6158039Y-6169079D02*
X6167563Y-6150031D01*
X6167563Y-6150031D02*
X6177086Y-6140508D01*
X6177086Y-6140508D02*
X6196134Y-6130984D01*
X6348515Y-6311936D02*
X6358039Y-6321460D01*
X6358039Y-6321460D02*
X6348515Y-6330984D01*
X6348515Y-6330984D02*
X6338991Y-6321460D01*
X6338991Y-6321460D02*
X6348515Y-6311936D01*
X6348515Y-6311936D02*
X6348515Y-6330984D01*
X6481848Y-6130984D02*
X6500896Y-6130984D01*
X6500896Y-6130984D02*
X6519944Y-6140508D01*
X6519944Y-6140508D02*
X6529467Y-6150031D01*
X6529467Y-6150031D02*
X6538991Y-6169079D01*
X6538991Y-6169079D02*
X6548515Y-6207174D01*
X6548515Y-6207174D02*
X6548515Y-6254793D01*
X6548515Y-6254793D02*
X6538991Y-6292888D01*
X6538991Y-6292888D02*
X6529467Y-6311936D01*
X6529467Y-6311936D02*
X6519944Y-6321460D01*
X6519944Y-6321460D02*
X6500896Y-6330984D01*
X6500896Y-6330984D02*
X6481848Y-6330984D01*
X6481848Y-6330984D02*
X6462801Y-6321460D01*
X6462801Y-6321460D02*
X6453277Y-6311936D01*
X6453277Y-6311936D02*
X6443753Y-6292888D01*
X6443753Y-6292888D02*
X6434229Y-6254793D01*
X6434229Y-6254793D02*
X6434229Y-6207174D01*
X6434229Y-6207174D02*
X6443753Y-6169079D01*
X6443753Y-6169079D02*
X6453277Y-6150031D01*
X6453277Y-6150031D02*
X6462801Y-6140508D01*
X6462801Y-6140508D02*
X6481848Y-6130984D01*
X6615182Y-6130984D02*
X6738991Y-6130984D01*
X6738991Y-6130984D02*
X6672325Y-6207174D01*
X6672325Y-6207174D02*
X6700896Y-6207174D01*
X6700896Y-6207174D02*
X6719944Y-6216698D01*
X6719944Y-6216698D02*
X6729467Y-6226222D01*
X6729467Y-6226222D02*
X6738991Y-6245269D01*
X6738991Y-6245269D02*
X6738991Y-6292888D01*
X6738991Y-6292888D02*
X6729467Y-6311936D01*
X6729467Y-6311936D02*
X6719944Y-6321460D01*
X6719944Y-6321460D02*
X6700896Y-6330984D01*
X6700896Y-6330984D02*
X6643753Y-6330984D01*
X6643753Y-6330984D02*
X6624706Y-6321460D01*
X6624706Y-6321460D02*
X6615182Y-6311936D01*
X6834229Y-6330984D02*
X6872325Y-6330984D01*
X6872325Y-6330984D02*
X6891372Y-6321460D01*
X6891372Y-6321460D02*
X6900896Y-6311936D01*
X6900896Y-6311936D02*
X6919944Y-6283365D01*
X6919944Y-6283365D02*
X6929467Y-6245269D01*
X6929467Y-6245269D02*
X6929467Y-6169079D01*
X6929467Y-6169079D02*
X6919944Y-6150031D01*
X6919944Y-6150031D02*
X6910420Y-6140508D01*
X6910420Y-6140508D02*
X6891372Y-6130984D01*
X6891372Y-6130984D02*
X6853277Y-6130984D01*
X6853277Y-6130984D02*
X6834229Y-6140508D01*
X6834229Y-6140508D02*
X6824706Y-6150031D01*
X6824706Y-6150031D02*
X6815182Y-6169079D01*
X6815182Y-6169079D02*
X6815182Y-6216698D01*
X6815182Y-6216698D02*
X6824706Y-6235746D01*
X6824706Y-6235746D02*
X6834229Y-6245269D01*
X6834229Y-6245269D02*
X6853277Y-6254793D01*
X6853277Y-6254793D02*
X6891372Y-6254793D01*
X6891372Y-6254793D02*
X6910420Y-6245269D01*
X6910420Y-6245269D02*
X6919944Y-6235746D01*
X6919944Y-6235746D02*
X6929467Y-6216698D01*
X7100896Y-6197650D02*
X7100896Y-6330984D01*
X7053277Y-6121460D02*
X7005658Y-6264317D01*
X7005658Y-6264317D02*
X7129467Y-6264317D01*
X7196134Y-6130984D02*
X7196134Y-6169079D01*
X7272325Y-6130984D02*
X7272325Y-6169079D01*
X7567563Y-6407174D02*
X7558039Y-6397650D01*
X7558039Y-6397650D02*
X7538991Y-6369079D01*
X7538991Y-6369079D02*
X7529468Y-6350031D01*
X7529468Y-6350031D02*
X7519944Y-6321460D01*
X7519944Y-6321460D02*
X7510420Y-6273841D01*
X7510420Y-6273841D02*
X7510420Y-6235746D01*
X7510420Y-6235746D02*
X7519944Y-6188127D01*
X7519944Y-6188127D02*
X7529468Y-6159555D01*
X7529468Y-6159555D02*
X7538991Y-6140508D01*
X7538991Y-6140508D02*
X7558039Y-6111936D01*
X7558039Y-6111936D02*
X7567563Y-6102412D01*
X7672325Y-6216698D02*
X7653277Y-6207174D01*
X7653277Y-6207174D02*
X7643753Y-6197650D01*
X7643753Y-6197650D02*
X7634229Y-6178603D01*
X7634229Y-6178603D02*
X7634229Y-6169079D01*
X7634229Y-6169079D02*
X7643753Y-6150031D01*
X7643753Y-6150031D02*
X7653277Y-6140508D01*
X7653277Y-6140508D02*
X7672325Y-6130984D01*
X7672325Y-6130984D02*
X7710420Y-6130984D01*
X7710420Y-6130984D02*
X7729468Y-6140508D01*
X7729468Y-6140508D02*
X7738991Y-6150031D01*
X7738991Y-6150031D02*
X7748515Y-6169079D01*
X7748515Y-6169079D02*
X7748515Y-6178603D01*
X7748515Y-6178603D02*
X7738991Y-6197650D01*
X7738991Y-6197650D02*
X7729468Y-6207174D01*
X7729468Y-6207174D02*
X7710420Y-6216698D01*
X7710420Y-6216698D02*
X7672325Y-6216698D01*
X7672325Y-6216698D02*
X7653277Y-6226222D01*
X7653277Y-6226222D02*
X7643753Y-6235746D01*
X7643753Y-6235746D02*
X7634229Y-6254793D01*
X7634229Y-6254793D02*
X7634229Y-6292888D01*
X7634229Y-6292888D02*
X7643753Y-6311936D01*
X7643753Y-6311936D02*
X7653277Y-6321460D01*
X7653277Y-6321460D02*
X7672325Y-6330984D01*
X7672325Y-6330984D02*
X7710420Y-6330984D01*
X7710420Y-6330984D02*
X7729468Y-6321460D01*
X7729468Y-6321460D02*
X7738991Y-6311936D01*
X7738991Y-6311936D02*
X7748515Y-6292888D01*
X7748515Y-6292888D02*
X7748515Y-6254793D01*
X7748515Y-6254793D02*
X7738991Y-6235746D01*
X7738991Y-6235746D02*
X7729468Y-6226222D01*
X7729468Y-6226222D02*
X7710420Y-6216698D01*
X7986610Y-6330984D02*
X7986610Y-6130984D01*
X8072325Y-6330984D02*
X8072325Y-6226222D01*
X8072325Y-6226222D02*
X8062801Y-6207174D01*
X8062801Y-6207174D02*
X8043753Y-6197650D01*
X8043753Y-6197650D02*
X8015182Y-6197650D01*
X8015182Y-6197650D02*
X7996134Y-6207174D01*
X7996134Y-6207174D02*
X7986610Y-6216698D01*
X8196134Y-6330984D02*
X8177087Y-6321460D01*
X8177087Y-6321460D02*
X8167563Y-6311936D01*
X8167563Y-6311936D02*
X8158039Y-6292888D01*
X8158039Y-6292888D02*
X8158039Y-6235746D01*
X8158039Y-6235746D02*
X8167563Y-6216698D01*
X8167563Y-6216698D02*
X8177087Y-6207174D01*
X8177087Y-6207174D02*
X8196134Y-6197650D01*
X8196134Y-6197650D02*
X8224706Y-6197650D01*
X8224706Y-6197650D02*
X8243753Y-6207174D01*
X8243753Y-6207174D02*
X8253277Y-6216698D01*
X8253277Y-6216698D02*
X8262801Y-6235746D01*
X8262801Y-6235746D02*
X8262801Y-6292888D01*
X8262801Y-6292888D02*
X8253277Y-6311936D01*
X8253277Y-6311936D02*
X8243753Y-6321460D01*
X8243753Y-6321460D02*
X8224706Y-6330984D01*
X8224706Y-6330984D02*
X8196134Y-6330984D01*
X8377087Y-6330984D02*
X8358039Y-6321460D01*
X8358039Y-6321460D02*
X8348515Y-6302412D01*
X8348515Y-6302412D02*
X8348515Y-6130984D01*
X8529468Y-6321460D02*
X8510420Y-6330984D01*
X8510420Y-6330984D02*
X8472325Y-6330984D01*
X8472325Y-6330984D02*
X8453277Y-6321460D01*
X8453277Y-6321460D02*
X8443753Y-6302412D01*
X8443753Y-6302412D02*
X8443753Y-6226222D01*
X8443753Y-6226222D02*
X8453277Y-6207174D01*
X8453277Y-6207174D02*
X8472325Y-6197650D01*
X8472325Y-6197650D02*
X8510420Y-6197650D01*
X8510420Y-6197650D02*
X8529468Y-6207174D01*
X8529468Y-6207174D02*
X8538992Y-6226222D01*
X8538992Y-6226222D02*
X8538992Y-6245269D01*
X8538992Y-6245269D02*
X8443753Y-6264317D01*
X8615182Y-6321460D02*
X8634230Y-6330984D01*
X8634230Y-6330984D02*
X8672325Y-6330984D01*
X8672325Y-6330984D02*
X8691373Y-6321460D01*
X8691373Y-6321460D02*
X8700896Y-6302412D01*
X8700896Y-6302412D02*
X8700896Y-6292888D01*
X8700896Y-6292888D02*
X8691373Y-6273841D01*
X8691373Y-6273841D02*
X8672325Y-6264317D01*
X8672325Y-6264317D02*
X8643753Y-6264317D01*
X8643753Y-6264317D02*
X8624706Y-6254793D01*
X8624706Y-6254793D02*
X8615182Y-6235746D01*
X8615182Y-6235746D02*
X8615182Y-6226222D01*
X8615182Y-6226222D02*
X8624706Y-6207174D01*
X8624706Y-6207174D02*
X8643753Y-6197650D01*
X8643753Y-6197650D02*
X8672325Y-6197650D01*
X8672325Y-6197650D02*
X8691373Y-6207174D01*
X8767563Y-6407174D02*
X8777087Y-6397650D01*
X8777087Y-6397650D02*
X8796134Y-6369079D01*
X8796134Y-6369079D02*
X8805658Y-6350031D01*
X8805658Y-6350031D02*
X8815182Y-6321460D01*
X8815182Y-6321460D02*
X8824706Y-6273841D01*
X8824706Y-6273841D02*
X8824706Y-6235746D01*
X8824706Y-6235746D02*
X8815182Y-6188127D01*
X8815182Y-6188127D02*
X8805658Y-6159555D01*
X8805658Y-6159555D02*
X8796134Y-6140508D01*
X8796134Y-6140508D02*
X8777087Y-6111936D01*
X8777087Y-6111936D02*
X8767563Y-6102412D01*
M02*
