%TF.GenerationSoftware,KiCad,Pcbnew,8.0.1*%
%TF.CreationDate,2024-05-11T19:49:48+01:00*%
%TF.ProjectId,TIMI2CLEDPanel,54494d49-3243-44c4-9544-50616e656c2e,rev?*%
%TF.SameCoordinates,Original*%
%TF.FileFunction,Drillmap*%
%TF.FilePolarity,Positive*%
%FSLAX45Y45*%
G04 Gerber Fmt 4.5, Leading zero omitted, Abs format (unit mm)*
G04 Created by KiCad (PCBNEW 8.0.1) date 2024-05-11 19:49:48*
%MOMM*%
%LPD*%
G01*
G04 APERTURE LIST*
%ADD10C,0.150000*%
%ADD11C,0.200000*%
%ADD12C,0.210000*%
G04 APERTURE END LIST*
D10*
X4000000Y-3000000D02*
X13000000Y-3000000D01*
X13000000Y-4800000D01*
X4000000Y-4800000D01*
X4000000Y-3000000D01*
D11*
D12*
X4145000Y-3145000D02*
X4355000Y-3355000D01*
X4355000Y-3145000D02*
X4145000Y-3355000D01*
X4145000Y-4445000D02*
X4355000Y-4655000D01*
X4355000Y-4445000D02*
X4145000Y-4655000D01*
X12645000Y-3145000D02*
X12855000Y-3355000D01*
X12855000Y-3145000D02*
X12645000Y-3355000D01*
X12645000Y-4445000D02*
X12855000Y-4655000D01*
X12855000Y-4445000D02*
X12645000Y-4655000D01*
D11*
X4253277Y-5118984D02*
X4253277Y-4918984D01*
X4253277Y-4918984D02*
X4300896Y-4918984D01*
X4300896Y-4918984D02*
X4329467Y-4928508D01*
X4329467Y-4928508D02*
X4348515Y-4947555D01*
X4348515Y-4947555D02*
X4358039Y-4966603D01*
X4358039Y-4966603D02*
X4367563Y-5004698D01*
X4367563Y-5004698D02*
X4367563Y-5033270D01*
X4367563Y-5033270D02*
X4358039Y-5071365D01*
X4358039Y-5071365D02*
X4348515Y-5090412D01*
X4348515Y-5090412D02*
X4329467Y-5109460D01*
X4329467Y-5109460D02*
X4300896Y-5118984D01*
X4300896Y-5118984D02*
X4253277Y-5118984D01*
X4453277Y-5118984D02*
X4453277Y-4985650D01*
X4453277Y-5023746D02*
X4462801Y-5004698D01*
X4462801Y-5004698D02*
X4472324Y-4995174D01*
X4472324Y-4995174D02*
X4491372Y-4985650D01*
X4491372Y-4985650D02*
X4510420Y-4985650D01*
X4577086Y-5118984D02*
X4577086Y-4985650D01*
X4577086Y-4918984D02*
X4567563Y-4928508D01*
X4567563Y-4928508D02*
X4577086Y-4938031D01*
X4577086Y-4938031D02*
X4586610Y-4928508D01*
X4586610Y-4928508D02*
X4577086Y-4918984D01*
X4577086Y-4918984D02*
X4577086Y-4938031D01*
X4700896Y-5118984D02*
X4681848Y-5109460D01*
X4681848Y-5109460D02*
X4672324Y-5090412D01*
X4672324Y-5090412D02*
X4672324Y-4918984D01*
X4805658Y-5118984D02*
X4786610Y-5109460D01*
X4786610Y-5109460D02*
X4777086Y-5090412D01*
X4777086Y-5090412D02*
X4777086Y-4918984D01*
X5034229Y-5118984D02*
X5034229Y-4918984D01*
X5034229Y-4918984D02*
X5100896Y-5061841D01*
X5100896Y-5061841D02*
X5167563Y-4918984D01*
X5167563Y-4918984D02*
X5167563Y-5118984D01*
X5348515Y-5118984D02*
X5348515Y-5014222D01*
X5348515Y-5014222D02*
X5338991Y-4995174D01*
X5338991Y-4995174D02*
X5319944Y-4985650D01*
X5319944Y-4985650D02*
X5281848Y-4985650D01*
X5281848Y-4985650D02*
X5262801Y-4995174D01*
X5348515Y-5109460D02*
X5329467Y-5118984D01*
X5329467Y-5118984D02*
X5281848Y-5118984D01*
X5281848Y-5118984D02*
X5262801Y-5109460D01*
X5262801Y-5109460D02*
X5253277Y-5090412D01*
X5253277Y-5090412D02*
X5253277Y-5071365D01*
X5253277Y-5071365D02*
X5262801Y-5052317D01*
X5262801Y-5052317D02*
X5281848Y-5042793D01*
X5281848Y-5042793D02*
X5329467Y-5042793D01*
X5329467Y-5042793D02*
X5348515Y-5033270D01*
X5443753Y-4985650D02*
X5443753Y-5185650D01*
X5443753Y-4995174D02*
X5462801Y-4985650D01*
X5462801Y-4985650D02*
X5500896Y-4985650D01*
X5500896Y-4985650D02*
X5519944Y-4995174D01*
X5519944Y-4995174D02*
X5529467Y-5004698D01*
X5529467Y-5004698D02*
X5538991Y-5023746D01*
X5538991Y-5023746D02*
X5538991Y-5080889D01*
X5538991Y-5080889D02*
X5529467Y-5099936D01*
X5529467Y-5099936D02*
X5519944Y-5109460D01*
X5519944Y-5109460D02*
X5500896Y-5118984D01*
X5500896Y-5118984D02*
X5462801Y-5118984D01*
X5462801Y-5118984D02*
X5443753Y-5109460D01*
X5624705Y-5099936D02*
X5634229Y-5109460D01*
X5634229Y-5109460D02*
X5624705Y-5118984D01*
X5624705Y-5118984D02*
X5615182Y-5109460D01*
X5615182Y-5109460D02*
X5624705Y-5099936D01*
X5624705Y-5099936D02*
X5624705Y-5118984D01*
X5624705Y-4995174D02*
X5634229Y-5004698D01*
X5634229Y-5004698D02*
X5624705Y-5014222D01*
X5624705Y-5014222D02*
X5615182Y-5004698D01*
X5615182Y-5004698D02*
X5624705Y-4995174D01*
X5624705Y-4995174D02*
X5624705Y-5014222D01*
X3792500Y-5347500D02*
X3992500Y-5547500D01*
X3992500Y-5347500D02*
X3792500Y-5547500D01*
X4243753Y-5358031D02*
X4253277Y-5348508D01*
X4253277Y-5348508D02*
X4272324Y-5338984D01*
X4272324Y-5338984D02*
X4319944Y-5338984D01*
X4319944Y-5338984D02*
X4338991Y-5348508D01*
X4338991Y-5348508D02*
X4348515Y-5358031D01*
X4348515Y-5358031D02*
X4358039Y-5377079D01*
X4358039Y-5377079D02*
X4358039Y-5396127D01*
X4358039Y-5396127D02*
X4348515Y-5424698D01*
X4348515Y-5424698D02*
X4234229Y-5538984D01*
X4234229Y-5538984D02*
X4358039Y-5538984D01*
X4443753Y-5519936D02*
X4453277Y-5529460D01*
X4453277Y-5529460D02*
X4443753Y-5538984D01*
X4443753Y-5538984D02*
X4434229Y-5529460D01*
X4434229Y-5529460D02*
X4443753Y-5519936D01*
X4443753Y-5519936D02*
X4443753Y-5538984D01*
X4643753Y-5538984D02*
X4529467Y-5538984D01*
X4586610Y-5538984D02*
X4586610Y-5338984D01*
X4586610Y-5338984D02*
X4567563Y-5367555D01*
X4567563Y-5367555D02*
X4548515Y-5386603D01*
X4548515Y-5386603D02*
X4529467Y-5396127D01*
X4767563Y-5338984D02*
X4786610Y-5338984D01*
X4786610Y-5338984D02*
X4805658Y-5348508D01*
X4805658Y-5348508D02*
X4815182Y-5358031D01*
X4815182Y-5358031D02*
X4824705Y-5377079D01*
X4824705Y-5377079D02*
X4834229Y-5415174D01*
X4834229Y-5415174D02*
X4834229Y-5462793D01*
X4834229Y-5462793D02*
X4824705Y-5500889D01*
X4824705Y-5500889D02*
X4815182Y-5519936D01*
X4815182Y-5519936D02*
X4805658Y-5529460D01*
X4805658Y-5529460D02*
X4786610Y-5538984D01*
X4786610Y-5538984D02*
X4767563Y-5538984D01*
X4767563Y-5538984D02*
X4748515Y-5529460D01*
X4748515Y-5529460D02*
X4738991Y-5519936D01*
X4738991Y-5519936D02*
X4729467Y-5500889D01*
X4729467Y-5500889D02*
X4719944Y-5462793D01*
X4719944Y-5462793D02*
X4719944Y-5415174D01*
X4719944Y-5415174D02*
X4729467Y-5377079D01*
X4729467Y-5377079D02*
X4738991Y-5358031D01*
X4738991Y-5358031D02*
X4748515Y-5348508D01*
X4748515Y-5348508D02*
X4767563Y-5338984D01*
X4958039Y-5338984D02*
X4977086Y-5338984D01*
X4977086Y-5338984D02*
X4996134Y-5348508D01*
X4996134Y-5348508D02*
X5005658Y-5358031D01*
X5005658Y-5358031D02*
X5015182Y-5377079D01*
X5015182Y-5377079D02*
X5024705Y-5415174D01*
X5024705Y-5415174D02*
X5024705Y-5462793D01*
X5024705Y-5462793D02*
X5015182Y-5500889D01*
X5015182Y-5500889D02*
X5005658Y-5519936D01*
X5005658Y-5519936D02*
X4996134Y-5529460D01*
X4996134Y-5529460D02*
X4977086Y-5538984D01*
X4977086Y-5538984D02*
X4958039Y-5538984D01*
X4958039Y-5538984D02*
X4938991Y-5529460D01*
X4938991Y-5529460D02*
X4929467Y-5519936D01*
X4929467Y-5519936D02*
X4919944Y-5500889D01*
X4919944Y-5500889D02*
X4910420Y-5462793D01*
X4910420Y-5462793D02*
X4910420Y-5415174D01*
X4910420Y-5415174D02*
X4919944Y-5377079D01*
X4919944Y-5377079D02*
X4929467Y-5358031D01*
X4929467Y-5358031D02*
X4938991Y-5348508D01*
X4938991Y-5348508D02*
X4958039Y-5338984D01*
X5110420Y-5538984D02*
X5110420Y-5405650D01*
X5110420Y-5424698D02*
X5119944Y-5415174D01*
X5119944Y-5415174D02*
X5138991Y-5405650D01*
X5138991Y-5405650D02*
X5167563Y-5405650D01*
X5167563Y-5405650D02*
X5186610Y-5415174D01*
X5186610Y-5415174D02*
X5196134Y-5434222D01*
X5196134Y-5434222D02*
X5196134Y-5538984D01*
X5196134Y-5434222D02*
X5205658Y-5415174D01*
X5205658Y-5415174D02*
X5224705Y-5405650D01*
X5224705Y-5405650D02*
X5253277Y-5405650D01*
X5253277Y-5405650D02*
X5272325Y-5415174D01*
X5272325Y-5415174D02*
X5281848Y-5434222D01*
X5281848Y-5434222D02*
X5281848Y-5538984D01*
X5377086Y-5538984D02*
X5377086Y-5405650D01*
X5377086Y-5424698D02*
X5386610Y-5415174D01*
X5386610Y-5415174D02*
X5405658Y-5405650D01*
X5405658Y-5405650D02*
X5434229Y-5405650D01*
X5434229Y-5405650D02*
X5453277Y-5415174D01*
X5453277Y-5415174D02*
X5462801Y-5434222D01*
X5462801Y-5434222D02*
X5462801Y-5538984D01*
X5462801Y-5434222D02*
X5472325Y-5415174D01*
X5472325Y-5415174D02*
X5491372Y-5405650D01*
X5491372Y-5405650D02*
X5519944Y-5405650D01*
X5519944Y-5405650D02*
X5538991Y-5415174D01*
X5538991Y-5415174D02*
X5548515Y-5434222D01*
X5548515Y-5434222D02*
X5548515Y-5538984D01*
X5938991Y-5329460D02*
X5767563Y-5586603D01*
X6196134Y-5338984D02*
X6215182Y-5338984D01*
X6215182Y-5338984D02*
X6234229Y-5348508D01*
X6234229Y-5348508D02*
X6243753Y-5358031D01*
X6243753Y-5358031D02*
X6253277Y-5377079D01*
X6253277Y-5377079D02*
X6262801Y-5415174D01*
X6262801Y-5415174D02*
X6262801Y-5462793D01*
X6262801Y-5462793D02*
X6253277Y-5500889D01*
X6253277Y-5500889D02*
X6243753Y-5519936D01*
X6243753Y-5519936D02*
X6234229Y-5529460D01*
X6234229Y-5529460D02*
X6215182Y-5538984D01*
X6215182Y-5538984D02*
X6196134Y-5538984D01*
X6196134Y-5538984D02*
X6177086Y-5529460D01*
X6177086Y-5529460D02*
X6167563Y-5519936D01*
X6167563Y-5519936D02*
X6158039Y-5500889D01*
X6158039Y-5500889D02*
X6148515Y-5462793D01*
X6148515Y-5462793D02*
X6148515Y-5415174D01*
X6148515Y-5415174D02*
X6158039Y-5377079D01*
X6158039Y-5377079D02*
X6167563Y-5358031D01*
X6167563Y-5358031D02*
X6177086Y-5348508D01*
X6177086Y-5348508D02*
X6196134Y-5338984D01*
X6348515Y-5519936D02*
X6358039Y-5529460D01*
X6358039Y-5529460D02*
X6348515Y-5538984D01*
X6348515Y-5538984D02*
X6338991Y-5529460D01*
X6338991Y-5529460D02*
X6348515Y-5519936D01*
X6348515Y-5519936D02*
X6348515Y-5538984D01*
X6481848Y-5338984D02*
X6500896Y-5338984D01*
X6500896Y-5338984D02*
X6519944Y-5348508D01*
X6519944Y-5348508D02*
X6529467Y-5358031D01*
X6529467Y-5358031D02*
X6538991Y-5377079D01*
X6538991Y-5377079D02*
X6548515Y-5415174D01*
X6548515Y-5415174D02*
X6548515Y-5462793D01*
X6548515Y-5462793D02*
X6538991Y-5500889D01*
X6538991Y-5500889D02*
X6529467Y-5519936D01*
X6529467Y-5519936D02*
X6519944Y-5529460D01*
X6519944Y-5529460D02*
X6500896Y-5538984D01*
X6500896Y-5538984D02*
X6481848Y-5538984D01*
X6481848Y-5538984D02*
X6462801Y-5529460D01*
X6462801Y-5529460D02*
X6453277Y-5519936D01*
X6453277Y-5519936D02*
X6443753Y-5500889D01*
X6443753Y-5500889D02*
X6434229Y-5462793D01*
X6434229Y-5462793D02*
X6434229Y-5415174D01*
X6434229Y-5415174D02*
X6443753Y-5377079D01*
X6443753Y-5377079D02*
X6453277Y-5358031D01*
X6453277Y-5358031D02*
X6462801Y-5348508D01*
X6462801Y-5348508D02*
X6481848Y-5338984D01*
X6662801Y-5424698D02*
X6643753Y-5415174D01*
X6643753Y-5415174D02*
X6634229Y-5405650D01*
X6634229Y-5405650D02*
X6624706Y-5386603D01*
X6624706Y-5386603D02*
X6624706Y-5377079D01*
X6624706Y-5377079D02*
X6634229Y-5358031D01*
X6634229Y-5358031D02*
X6643753Y-5348508D01*
X6643753Y-5348508D02*
X6662801Y-5338984D01*
X6662801Y-5338984D02*
X6700896Y-5338984D01*
X6700896Y-5338984D02*
X6719944Y-5348508D01*
X6719944Y-5348508D02*
X6729467Y-5358031D01*
X6729467Y-5358031D02*
X6738991Y-5377079D01*
X6738991Y-5377079D02*
X6738991Y-5386603D01*
X6738991Y-5386603D02*
X6729467Y-5405650D01*
X6729467Y-5405650D02*
X6719944Y-5415174D01*
X6719944Y-5415174D02*
X6700896Y-5424698D01*
X6700896Y-5424698D02*
X6662801Y-5424698D01*
X6662801Y-5424698D02*
X6643753Y-5434222D01*
X6643753Y-5434222D02*
X6634229Y-5443746D01*
X6634229Y-5443746D02*
X6624706Y-5462793D01*
X6624706Y-5462793D02*
X6624706Y-5500889D01*
X6624706Y-5500889D02*
X6634229Y-5519936D01*
X6634229Y-5519936D02*
X6643753Y-5529460D01*
X6643753Y-5529460D02*
X6662801Y-5538984D01*
X6662801Y-5538984D02*
X6700896Y-5538984D01*
X6700896Y-5538984D02*
X6719944Y-5529460D01*
X6719944Y-5529460D02*
X6729467Y-5519936D01*
X6729467Y-5519936D02*
X6738991Y-5500889D01*
X6738991Y-5500889D02*
X6738991Y-5462793D01*
X6738991Y-5462793D02*
X6729467Y-5443746D01*
X6729467Y-5443746D02*
X6719944Y-5434222D01*
X6719944Y-5434222D02*
X6700896Y-5424698D01*
X6815182Y-5358031D02*
X6824706Y-5348508D01*
X6824706Y-5348508D02*
X6843753Y-5338984D01*
X6843753Y-5338984D02*
X6891372Y-5338984D01*
X6891372Y-5338984D02*
X6910420Y-5348508D01*
X6910420Y-5348508D02*
X6919944Y-5358031D01*
X6919944Y-5358031D02*
X6929467Y-5377079D01*
X6929467Y-5377079D02*
X6929467Y-5396127D01*
X6929467Y-5396127D02*
X6919944Y-5424698D01*
X6919944Y-5424698D02*
X6805658Y-5538984D01*
X6805658Y-5538984D02*
X6929467Y-5538984D01*
X6996134Y-5338984D02*
X7129467Y-5338984D01*
X7129467Y-5338984D02*
X7043753Y-5538984D01*
X7196134Y-5338984D02*
X7196134Y-5377079D01*
X7272325Y-5338984D02*
X7272325Y-5377079D01*
X7567563Y-5615174D02*
X7558039Y-5605650D01*
X7558039Y-5605650D02*
X7538991Y-5577079D01*
X7538991Y-5577079D02*
X7529468Y-5558031D01*
X7529468Y-5558031D02*
X7519944Y-5529460D01*
X7519944Y-5529460D02*
X7510420Y-5481841D01*
X7510420Y-5481841D02*
X7510420Y-5443746D01*
X7510420Y-5443746D02*
X7519944Y-5396127D01*
X7519944Y-5396127D02*
X7529468Y-5367555D01*
X7529468Y-5367555D02*
X7538991Y-5348508D01*
X7538991Y-5348508D02*
X7558039Y-5319936D01*
X7558039Y-5319936D02*
X7567563Y-5310412D01*
X7729468Y-5405650D02*
X7729468Y-5538984D01*
X7681848Y-5329460D02*
X7634229Y-5472317D01*
X7634229Y-5472317D02*
X7758039Y-5472317D01*
X7986610Y-5538984D02*
X7986610Y-5338984D01*
X8072325Y-5538984D02*
X8072325Y-5434222D01*
X8072325Y-5434222D02*
X8062801Y-5415174D01*
X8062801Y-5415174D02*
X8043753Y-5405650D01*
X8043753Y-5405650D02*
X8015182Y-5405650D01*
X8015182Y-5405650D02*
X7996134Y-5415174D01*
X7996134Y-5415174D02*
X7986610Y-5424698D01*
X8196134Y-5538984D02*
X8177087Y-5529460D01*
X8177087Y-5529460D02*
X8167563Y-5519936D01*
X8167563Y-5519936D02*
X8158039Y-5500889D01*
X8158039Y-5500889D02*
X8158039Y-5443746D01*
X8158039Y-5443746D02*
X8167563Y-5424698D01*
X8167563Y-5424698D02*
X8177087Y-5415174D01*
X8177087Y-5415174D02*
X8196134Y-5405650D01*
X8196134Y-5405650D02*
X8224706Y-5405650D01*
X8224706Y-5405650D02*
X8243753Y-5415174D01*
X8243753Y-5415174D02*
X8253277Y-5424698D01*
X8253277Y-5424698D02*
X8262801Y-5443746D01*
X8262801Y-5443746D02*
X8262801Y-5500889D01*
X8262801Y-5500889D02*
X8253277Y-5519936D01*
X8253277Y-5519936D02*
X8243753Y-5529460D01*
X8243753Y-5529460D02*
X8224706Y-5538984D01*
X8224706Y-5538984D02*
X8196134Y-5538984D01*
X8377087Y-5538984D02*
X8358039Y-5529460D01*
X8358039Y-5529460D02*
X8348515Y-5510412D01*
X8348515Y-5510412D02*
X8348515Y-5338984D01*
X8529468Y-5529460D02*
X8510420Y-5538984D01*
X8510420Y-5538984D02*
X8472325Y-5538984D01*
X8472325Y-5538984D02*
X8453277Y-5529460D01*
X8453277Y-5529460D02*
X8443753Y-5510412D01*
X8443753Y-5510412D02*
X8443753Y-5434222D01*
X8443753Y-5434222D02*
X8453277Y-5415174D01*
X8453277Y-5415174D02*
X8472325Y-5405650D01*
X8472325Y-5405650D02*
X8510420Y-5405650D01*
X8510420Y-5405650D02*
X8529468Y-5415174D01*
X8529468Y-5415174D02*
X8538992Y-5434222D01*
X8538992Y-5434222D02*
X8538992Y-5453270D01*
X8538992Y-5453270D02*
X8443753Y-5472317D01*
X8615182Y-5529460D02*
X8634230Y-5538984D01*
X8634230Y-5538984D02*
X8672325Y-5538984D01*
X8672325Y-5538984D02*
X8691373Y-5529460D01*
X8691373Y-5529460D02*
X8700896Y-5510412D01*
X8700896Y-5510412D02*
X8700896Y-5500889D01*
X8700896Y-5500889D02*
X8691373Y-5481841D01*
X8691373Y-5481841D02*
X8672325Y-5472317D01*
X8672325Y-5472317D02*
X8643753Y-5472317D01*
X8643753Y-5472317D02*
X8624706Y-5462793D01*
X8624706Y-5462793D02*
X8615182Y-5443746D01*
X8615182Y-5443746D02*
X8615182Y-5434222D01*
X8615182Y-5434222D02*
X8624706Y-5415174D01*
X8624706Y-5415174D02*
X8643753Y-5405650D01*
X8643753Y-5405650D02*
X8672325Y-5405650D01*
X8672325Y-5405650D02*
X8691373Y-5415174D01*
X8767563Y-5615174D02*
X8777087Y-5605650D01*
X8777087Y-5605650D02*
X8796134Y-5577079D01*
X8796134Y-5577079D02*
X8805658Y-5558031D01*
X8805658Y-5558031D02*
X8815182Y-5529460D01*
X8815182Y-5529460D02*
X8824706Y-5481841D01*
X8824706Y-5481841D02*
X8824706Y-5443746D01*
X8824706Y-5443746D02*
X8815182Y-5396127D01*
X8815182Y-5396127D02*
X8805658Y-5367555D01*
X8805658Y-5367555D02*
X8796134Y-5348508D01*
X8796134Y-5348508D02*
X8777087Y-5319936D01*
X8777087Y-5319936D02*
X8767563Y-5310412D01*
X9129468Y-5615174D02*
X9119944Y-5605650D01*
X9119944Y-5605650D02*
X9100896Y-5577079D01*
X9100896Y-5577079D02*
X9091373Y-5558031D01*
X9091373Y-5558031D02*
X9081849Y-5529460D01*
X9081849Y-5529460D02*
X9072325Y-5481841D01*
X9072325Y-5481841D02*
X9072325Y-5443746D01*
X9072325Y-5443746D02*
X9081849Y-5396127D01*
X9081849Y-5396127D02*
X9091373Y-5367555D01*
X9091373Y-5367555D02*
X9100896Y-5348508D01*
X9100896Y-5348508D02*
X9119944Y-5319936D01*
X9119944Y-5319936D02*
X9129468Y-5310412D01*
X9205658Y-5405650D02*
X9205658Y-5538984D01*
X9205658Y-5424698D02*
X9215182Y-5415174D01*
X9215182Y-5415174D02*
X9234230Y-5405650D01*
X9234230Y-5405650D02*
X9262801Y-5405650D01*
X9262801Y-5405650D02*
X9281849Y-5415174D01*
X9281849Y-5415174D02*
X9291373Y-5434222D01*
X9291373Y-5434222D02*
X9291373Y-5538984D01*
X9415182Y-5538984D02*
X9396134Y-5529460D01*
X9396134Y-5529460D02*
X9386611Y-5519936D01*
X9386611Y-5519936D02*
X9377087Y-5500889D01*
X9377087Y-5500889D02*
X9377087Y-5443746D01*
X9377087Y-5443746D02*
X9386611Y-5424698D01*
X9386611Y-5424698D02*
X9396134Y-5415174D01*
X9396134Y-5415174D02*
X9415182Y-5405650D01*
X9415182Y-5405650D02*
X9443754Y-5405650D01*
X9443754Y-5405650D02*
X9462801Y-5415174D01*
X9462801Y-5415174D02*
X9472325Y-5424698D01*
X9472325Y-5424698D02*
X9481849Y-5443746D01*
X9481849Y-5443746D02*
X9481849Y-5500889D01*
X9481849Y-5500889D02*
X9472325Y-5519936D01*
X9472325Y-5519936D02*
X9462801Y-5529460D01*
X9462801Y-5529460D02*
X9443754Y-5538984D01*
X9443754Y-5538984D02*
X9415182Y-5538984D01*
X9538992Y-5405650D02*
X9615182Y-5405650D01*
X9567563Y-5338984D02*
X9567563Y-5510412D01*
X9567563Y-5510412D02*
X9577087Y-5529460D01*
X9577087Y-5529460D02*
X9596134Y-5538984D01*
X9596134Y-5538984D02*
X9615182Y-5538984D01*
X9834230Y-5405650D02*
X9834230Y-5605650D01*
X9834230Y-5415174D02*
X9853277Y-5405650D01*
X9853277Y-5405650D02*
X9891373Y-5405650D01*
X9891373Y-5405650D02*
X9910420Y-5415174D01*
X9910420Y-5415174D02*
X9919944Y-5424698D01*
X9919944Y-5424698D02*
X9929468Y-5443746D01*
X9929468Y-5443746D02*
X9929468Y-5500889D01*
X9929468Y-5500889D02*
X9919944Y-5519936D01*
X9919944Y-5519936D02*
X9910420Y-5529460D01*
X9910420Y-5529460D02*
X9891373Y-5538984D01*
X9891373Y-5538984D02*
X9853277Y-5538984D01*
X9853277Y-5538984D02*
X9834230Y-5529460D01*
X10043754Y-5538984D02*
X10024706Y-5529460D01*
X10024706Y-5529460D02*
X10015182Y-5510412D01*
X10015182Y-5510412D02*
X10015182Y-5338984D01*
X10205658Y-5538984D02*
X10205658Y-5434222D01*
X10205658Y-5434222D02*
X10196135Y-5415174D01*
X10196135Y-5415174D02*
X10177087Y-5405650D01*
X10177087Y-5405650D02*
X10138992Y-5405650D01*
X10138992Y-5405650D02*
X10119944Y-5415174D01*
X10205658Y-5529460D02*
X10186611Y-5538984D01*
X10186611Y-5538984D02*
X10138992Y-5538984D01*
X10138992Y-5538984D02*
X10119944Y-5529460D01*
X10119944Y-5529460D02*
X10110420Y-5510412D01*
X10110420Y-5510412D02*
X10110420Y-5491365D01*
X10110420Y-5491365D02*
X10119944Y-5472317D01*
X10119944Y-5472317D02*
X10138992Y-5462793D01*
X10138992Y-5462793D02*
X10186611Y-5462793D01*
X10186611Y-5462793D02*
X10205658Y-5453270D01*
X10272325Y-5405650D02*
X10348515Y-5405650D01*
X10300896Y-5338984D02*
X10300896Y-5510412D01*
X10300896Y-5510412D02*
X10310420Y-5529460D01*
X10310420Y-5529460D02*
X10329468Y-5538984D01*
X10329468Y-5538984D02*
X10348515Y-5538984D01*
X10491373Y-5529460D02*
X10472325Y-5538984D01*
X10472325Y-5538984D02*
X10434230Y-5538984D01*
X10434230Y-5538984D02*
X10415182Y-5529460D01*
X10415182Y-5529460D02*
X10405658Y-5510412D01*
X10405658Y-5510412D02*
X10405658Y-5434222D01*
X10405658Y-5434222D02*
X10415182Y-5415174D01*
X10415182Y-5415174D02*
X10434230Y-5405650D01*
X10434230Y-5405650D02*
X10472325Y-5405650D01*
X10472325Y-5405650D02*
X10491373Y-5415174D01*
X10491373Y-5415174D02*
X10500896Y-5434222D01*
X10500896Y-5434222D02*
X10500896Y-5453270D01*
X10500896Y-5453270D02*
X10405658Y-5472317D01*
X10672325Y-5538984D02*
X10672325Y-5338984D01*
X10672325Y-5529460D02*
X10653277Y-5538984D01*
X10653277Y-5538984D02*
X10615182Y-5538984D01*
X10615182Y-5538984D02*
X10596135Y-5529460D01*
X10596135Y-5529460D02*
X10586611Y-5519936D01*
X10586611Y-5519936D02*
X10577087Y-5500889D01*
X10577087Y-5500889D02*
X10577087Y-5443746D01*
X10577087Y-5443746D02*
X10586611Y-5424698D01*
X10586611Y-5424698D02*
X10596135Y-5415174D01*
X10596135Y-5415174D02*
X10615182Y-5405650D01*
X10615182Y-5405650D02*
X10653277Y-5405650D01*
X10653277Y-5405650D02*
X10672325Y-5415174D01*
X10748516Y-5615174D02*
X10758039Y-5605650D01*
X10758039Y-5605650D02*
X10777087Y-5577079D01*
X10777087Y-5577079D02*
X10786611Y-5558031D01*
X10786611Y-5558031D02*
X10796135Y-5529460D01*
X10796135Y-5529460D02*
X10805658Y-5481841D01*
X10805658Y-5481841D02*
X10805658Y-5443746D01*
X10805658Y-5443746D02*
X10796135Y-5396127D01*
X10796135Y-5396127D02*
X10786611Y-5367555D01*
X10786611Y-5367555D02*
X10777087Y-5348508D01*
X10777087Y-5348508D02*
X10758039Y-5319936D01*
X10758039Y-5319936D02*
X10748516Y-5310412D01*
M02*
