M48
; DRILL file {KiCad 8.0.1} date 2024-05-11T19:49:48+0100
; FORMAT={-:-/ absolute / inch / decimal}
; #@! TF.CreationDate,2024-05-11T19:49:48+01:00
; #@! TF.GenerationSoftware,Kicad,Pcbnew,8.0.1
; #@! TF.FileFunction,Plated,1,2,PTH
FMAT,2
INCH
; #@! TA.AperFunction,Plated,PTH,ComponentDrill
T1C0.0276
; #@! TA.AperFunction,Plated,PTH,ComponentDrill
T2C0.0315
; #@! TA.AperFunction,Plated,PTH,ComponentDrill
T3C0.0354
; #@! TA.AperFunction,Plated,PTH,ComponentDrill
T4C0.0394
%
G90
G05
T1
X1.8187Y-1.7815
X2.1187Y-1.7815
X2.2124Y-1.7815
X2.5124Y-1.7815
X2.6061Y-1.7815
X2.9061Y-1.7815
X2.9998Y-1.7815
X3.2998Y-1.7815
X3.3935Y-1.7815
X3.6935Y-1.7815
X3.7872Y-1.7815
X4.0872Y-1.7815
X4.1669Y-1.2579
X4.1809Y-1.7815
X4.4669Y-1.2579
X4.4809Y-1.7815
X4.5508Y-1.2579
X4.5746Y-1.7815
X4.8508Y-1.2579
X4.8746Y-1.7815
T2
X2.563Y-1.4409
X2.563Y-1.6378
X3.0055Y-1.3772
X3.0055Y-1.6772
X3.1055Y-1.3772
X3.1055Y-1.6772
X3.2055Y-1.3772
X3.2055Y-1.6772
X3.3055Y-1.3772
X3.3055Y-1.6772
X3.4055Y-1.3772
X3.4055Y-1.6772
X3.5055Y-1.3772
X3.5055Y-1.6772
X3.6055Y-1.3772
X3.6055Y-1.6772
X3.7055Y-1.3772
X3.7055Y-1.6772
T3
X1.9185Y-1.5354
X2.0185Y-1.5354
X2.3122Y-1.5394
X2.4122Y-1.5394
X2.7059Y-1.5295
X2.8059Y-1.5295
X3.0996Y-1.5197
X3.1996Y-1.5197
X3.4933Y-1.5276
X3.5933Y-1.5276
X3.887Y-1.5177
X3.987Y-1.5177
X4.2807Y-1.5256
X4.3807Y-1.5256
X4.6744Y-1.5256
X4.7744Y-1.5256
X4.9079Y-1.5256
X5.0079Y-1.5256
T4
X3.2057Y-1.2559
X3.3057Y-1.2559
X3.4057Y-1.2559
X3.5057Y-1.2559
X3.7472Y-1.2559
X3.8472Y-1.2559
X3.9472Y-1.2559
X4.0472Y-1.2559
M30
