M48
; DRILL file {KiCad 8.0.5} date 2024-10-27T21:26:22+0000
; FORMAT={-:-/ absolute / inch / decimal}
; #@! TF.CreationDate,2024-10-27T21:26:22+00:00
; #@! TF.GenerationSoftware,Kicad,Pcbnew,8.0.5
; #@! TF.FileFunction,Plated,1,2,PTH
FMAT,2
INCH
; #@! TA.AperFunction,Plated,PTH,ViaDrill
T1C0.0236
; #@! TA.AperFunction,Plated,PTH,ComponentDrill
T2C0.0315
; #@! TA.AperFunction,Plated,PTH,ComponentDrill
T3C0.0354
; #@! TA.AperFunction,Plated,PTH,ComponentDrill
T4C0.0390
; #@! TA.AperFunction,Plated,PTH,ComponentDrill
T5C0.0394
; #@! TA.AperFunction,Plated,PTH,ComponentDrill
T6C0.0433
; #@! TA.AperFunction,Plated,PTH,ComponentDrill
T7C0.0472
; #@! TA.AperFunction,Plated,PTH,ComponentDrill
T8C0.0512
; #@! TA.AperFunction,Plated,PTH,ComponentDrill
T9C0.0551
; #@! TA.AperFunction,Plated,PTH,ComponentDrill
T10C0.0669
; #@! TA.AperFunction,Plated,PTH,ComponentDrill
T11C0.0709
; #@! TA.AperFunction,Plated,PTH,ComponentDrill
T12C0.0984
; #@! TA.AperFunction,Plated,PTH,ComponentDrill
T13C0.1024
; #@! TA.AperFunction,Plated,PTH,ComponentDrill
T14C0.1260
%
G90
G05
T1
X3.8173Y-3.8276
X3.822Y-6.6709
X3.837Y-7.3642
X3.848Y-7.772
X3.8492Y-5.424
X3.8634Y-2.4244
X3.8933Y-7.5161
X3.9012Y-8.715
X3.9016Y-4.0035
X3.9134Y-4.9929
X3.9406Y-8.0181
X4.0717Y-2.9756
X4.1504Y-6.7713
X4.189Y-4.3799
X4.2516Y-6.3736
X4.2913Y-4.5472
X4.3331Y-3.5244
X4.3646Y-4.6075
X4.38Y-3.37
X4.3886Y-7.9181
X4.4035Y-6.6732
X4.41Y-2.84
X4.4275Y-3.9425
X4.4484Y-4.6358
X4.4516Y-5.9744
X4.4535Y-6.6213
X4.46Y-3.235
X4.4602Y-2.6815
X4.4617Y-3.1304
X4.5Y-3.03
X4.5024Y-8.3209
X4.5039Y-5.6264
X4.505Y-3.33
X4.5051Y-4.7224
X4.5516Y-6.0724
X4.5522Y-3.98
X4.555Y-2.9757
X4.6378Y-7.5713
X4.74Y-3.1787
X4.78Y-2.5304
X4.825Y-2.6787
X4.8504Y-6.478
X4.8508Y-5.8756
X4.874Y-3.078
X4.8965Y-6.4185
X4.9Y-3.28
X5.015Y-3.5683
X5.0606Y-2.785
X5.0614Y-5.2626
X5.0742Y-2.6312
X5.098Y-7.8685
X5.1508Y-8.1709
X5.1594Y-3.2839
X5.161Y-2.7807
X5.1732Y-4.1756
X5.1965Y-8.7236
X5.2004Y-8.1189
X5.202Y-3.9787
X5.3839Y-4.9539
X5.41Y-2.68
X5.41Y-3.03
X5.4417Y-4.8957
X5.4488Y-6.0287
X5.4646Y-7.5803
X5.4984Y-7.9732
X5.4996Y-6.4291
X5.5996Y-7.5213
X5.6992Y-4.7539
X5.7035Y-6.2315
X5.7067Y-3.9846
X5.7496Y-8.3189
X5.7539Y-5.6795
X5.7591Y-4.0819
X5.8043Y-5.9787
X5.8465Y-4.6858
X5.9378Y-7.7803
X5.9472Y-7.0765
X6.0445Y-4.9913
X6.0504Y-7.0256
X6.0594Y-4.2823
X6.1024Y-4.8079
X6.1098Y-4.0823
X6.111Y-3.9819
X6.1492Y-4.7173
X6.2016Y-4.1807
X6.2016Y-6.9283
X6.2547Y-6.9795
X6.2996Y-5.1764
X6.3039Y-3.5803
X6.31Y-6.325
X6.3465Y-4.9476
X6.3528Y-4.1768
X6.3579Y-3.4894
X6.3969Y-6.2965
X6.3969Y-7.08
X6.3976Y-5.0433
X6.3984Y-8.1272
X6.4339Y-7.3276
X6.4531Y-5.7299
X6.4579Y-4.2835
X6.4646Y-4.626
X6.4827Y-8.1764
X6.487Y-7.2783
X6.5063Y-3.537
X6.5063Y-4.3823
X6.5409Y-7.2299
X6.7047Y-3.3835
X6.7059Y-4.2831
X6.7343Y-7.0134
X6.7469Y-7.4843
X6.7528Y-4.3846
X6.789Y-7.1283
X6.802Y-6.0811
X6.9Y-4.9476
X6.93Y-6.2965
X6.9579Y-3.585
X6.9669Y-2.387
X6.9803Y-6.4319
X6.987Y-7.4815
X6.998Y-7.4016
X7.0004Y-2.4449
X7.0146Y-4.7315
X7.025Y-6.2965
X7.0524Y-6.3843
X7.0563Y-4.0346
X7.1024Y-5.4087
X7.1083Y-4.3315
X7.1228Y-4.8319
X7.1421Y-6.7272
X7.1429Y-7.6823
X7.1539Y-4.1831
X7.25Y-4.3362
X7.285Y-5.83
X7.3012Y-4.9547
X7.3047Y-5.585
X7.3062Y-3.7255
X7.3083Y-2.589
X7.31Y-6.4319
X7.5035Y-4.887
X7.5362Y-8.478
X7.5453Y-4.9528
X7.5547Y-2.6874
X7.5886Y-6.14
X7.5969Y-7.2819
X7.6319Y-5.585
X7.6528Y-6.38
X7.6965Y-4.9374
X7.7553Y-2.9837
X7.7906Y-6.5323
X7.7976Y-6.8795
X7.7992Y-4.5817
X7.8504Y-6.4858
X7.8571Y-3.0846
X7.8921Y-6.9791
X7.8941Y-6.4319
X7.9024Y-3.3854
X7.9957Y-7.5854
X8.0482Y-5.6378
X8.1185Y-5.2161
X8.1236Y-5.4744
X8.126Y-5.7362
X8.1594Y-3.563
X8.1846Y-7.6827
X8.1854Y-9.1354
X8.1906Y-6.3287
X8.2047Y-5.5
X8.2185Y-3.7205
X8.2496Y-3.6441
X8.2795Y-6.5157
X8.2957Y-3.7386
X8.2988Y-5.3362
X8.3012Y-6.6577
X8.3409Y-6.4727
X8.3539Y-2.9406
X8.3937Y-8.6823
X8.3996Y-3.7417
X8.4457Y-8.3929
X8.4555Y-2.9894
X8.502Y-3.4409
X8.5138Y-8.2756
X8.5461Y-4.985
X8.5535Y-3.0402
X8.576Y-8.1319
X8.5988Y-6.6343
X8.6496Y-6.3866
X8.6555Y-3.0909
X8.6984Y-6.3346
X8.6988Y-3.4193
X8.7157Y-7.8835
X8.748Y-3.1358
X8.785Y-5.95
X8.7965Y-3.4646
X8.8461Y-3.189
X8.8888Y-5.3362
X8.8972Y-3.237
X8.9449Y-6.287
X8.9509Y-5.4893
X8.9531Y-3.2909
X9.0197Y-5.1685
X9.0417Y-5.3362
X9.0417Y-5.9441
X9.0425Y-6.2386
X9.0748Y-5.0878
X9.0937Y-4.987
X9.1356Y-6.8373
X9.1413Y-4.889
X9.1618Y-2.2189
X9.1941Y-4.685
X9.1949Y-5.1244
X9.2441Y-3.3882
X9.2528Y-4.5921
X9.2555Y-8.237
X9.3Y-4.4906
X9.3031Y-6.9764
X9.3307Y-4.3933
X9.3331Y-7.1815
X9.3543Y-5.8913
X9.3657Y-8.2921
X9.3701Y-4.2874
X9.3937Y-3.3406
X9.4094Y-5.5346
X9.4358Y-7.6807
X9.4419Y-2.3947
X9.4809Y-6.9193
X9.5079Y-5.4839
X9.5638Y-2.2228
X9.5925Y-3.3441
X9.6319Y-9.1402
X9.6449Y-3.5382
X9.6953Y-3.2921
X9.7311Y-7.5803
X9.7453Y-3.2413
X9.7571Y-8.4362
X9.7886Y-7.0894
X9.789Y-7.5315
X9.7941Y-4.437
X9.802Y-3.1921
X9.8382Y-6.935
X9.8504Y-3.0909
X9.8945Y-3.1421
X9.948Y-3.0429
X9.9697Y-5.076
X9.9945Y-6.6386
X9.998Y-2.989
X10.039Y-5.2213
X10.0453Y-2.9394
X10.378Y-6.7693
X10.4843Y-6.037
X10.5004Y-4.7953
X10.5551Y-5.3465
X10.6402Y-5.0461
X10.7228Y-2.9744
X10.7465Y-4.5945
X10.815Y-5.7819
X10.85Y-4.5929
X10.8543Y-3.2776
X10.8661Y-5.8366
X10.876Y-2.6437
X10.8839Y-3.1181
X10.9079Y-3.3268
X10.9171Y-6.1572
X10.9173Y-6.7106
X10.9429Y-6.0906
X10.9465Y-4.4957
X10.9854Y-2.0698
X11.0Y-4.3941
X11.002Y-2.1476
X11.0255Y-6.9861
X11.0433Y-6.876
X11.061Y-7.4764
X11.0911Y-6.8087
X11.0941Y-6.3949
X11.0965Y-4.3429
X11.1386Y-5.9437
X11.1421Y-6.852
X11.1457Y-7.5571
X11.1461Y-5.5921
X11.1945Y-5.9937
X11.2343Y-5.8307
X11.2382Y-3.2362
X11.2461Y-6.6339
X11.2466Y-7.5827
X11.2539Y-7.1161
X11.2898Y-5.5923
X11.2902Y-4.3425
X11.3433Y-4.3921
X11.3453Y-4.0929
X11.3484Y-6.5768
X11.3751Y-7.1181
X11.4028Y-4.1988
X11.4409Y-5.7969
X11.4429Y-6.0886
X11.4429Y-6.1929
X11.4606Y-1.9902
X11.4843Y-5.9315
X11.5488Y-5.8941
X11.5831Y-5.6894
X11.6339Y-3.2441
X11.6358Y-3.1673
X11.6386Y-5.7402
X11.6465Y-6.0402
X11.7504Y-6.3941
X11.8209Y-3.0846
X11.8287Y-2.6378
X11.8524Y-3.2017
X11.8996Y-6.0039
X11.9193Y-2.8228
X11.9366Y-5.939
X11.9705Y-6.0906
X11.998Y-6.6654
X12.0177Y-3.7067
X12.128Y-8.7185
X12.1299Y-7.0906
X12.1492Y-4.1913
X12.15Y-3.9429
X12.187Y-7.1417
X12.187Y-8.7717
X12.2323Y-7.5827
X12.2441Y-8.8354
X12.2917Y-2.4413
X12.2925Y-8.885
X12.3311Y-7.5197
X12.3362Y-6.624
X12.3424Y-8.932
X12.3854Y-6.5689
X12.3906Y-8.9785
X12.3976Y-2.8996
X12.4345Y-9.0289
X12.4429Y-2.815
X12.478Y-6.8378
X12.4783Y-9.0795
X12.498Y-2.5776
X12.525Y-6.9079
X12.5433Y-2.7205
X12.5551Y-5.3484
X12.5945Y-6.4917
X12.6043Y-7.437
X12.6083Y-6.9705
T2
X3.8531Y-4.8094
X3.8531Y-4.9567
X3.8531Y-5.1035
X3.8598Y-3.9346
X3.8598Y-4.4346
X3.8752Y-3.3008
X3.8752Y-3.4579
X3.9913Y-7.8681
X3.9913Y-7.9681
X3.9913Y-8.0681
X3.9913Y-8.1681
X3.9913Y-8.2681
X3.9913Y-8.3681
X3.9913Y-8.4681
X3.9913Y-8.5681
X3.9913Y-8.6681
X3.9913Y-8.7681
X3.9953Y-6.7705
X3.9953Y-6.8705
X3.9953Y-6.9705
X3.9953Y-7.0705
X3.9953Y-7.1705
X3.9953Y-7.2705
X3.9953Y-7.3705
X3.9953Y-7.4705
X4.0098Y-5.4236
X4.0098Y-5.5236
X4.0098Y-5.6236
X4.0098Y-5.7236
X4.0098Y-5.8236
X4.0098Y-5.9236
X4.0098Y-6.0236
X4.0106Y-3.8283
X4.0106Y-3.9283
X4.0106Y-4.0283
X4.0106Y-4.1283
X4.0106Y-4.2283
X4.0106Y-4.3283
X4.0106Y-4.4283
X4.0126Y-2.5291
X4.0126Y-2.6291
X4.0126Y-2.7291
X4.0126Y-2.8291
X4.0126Y-2.9291
X4.0126Y-3.0291
X4.0126Y-3.1291
X4.0394Y-7.665
X4.0433Y-6.5669
X4.0579Y-5.2248
X4.0587Y-3.6228
X4.0606Y-2.3264
X4.2394Y-7.665
X4.2433Y-6.5669
X4.2579Y-5.2248
X4.2587Y-3.6228
X4.2606Y-2.3264
X4.2752Y-3.3008
X4.2752Y-3.4579
X4.2913Y-7.8681
X4.2913Y-7.9681
X4.2913Y-8.0681
X4.2913Y-8.1681
X4.2913Y-8.2681
X4.2913Y-8.3681
X4.2913Y-8.4681
X4.2913Y-8.5681
X4.2913Y-8.6681
X4.2913Y-8.7681
X4.2953Y-6.7705
X4.2953Y-6.8705
X4.2953Y-6.9705
X4.2953Y-7.0705
X4.2953Y-7.1705
X4.2953Y-7.2705
X4.2953Y-7.3705
X4.2953Y-7.4705
X4.3098Y-5.4236
X4.3098Y-5.5236
X4.3098Y-5.6236
X4.3098Y-5.7236
X4.3098Y-5.8236
X4.3098Y-5.9236
X4.3098Y-6.0236
X4.3106Y-3.8283
X4.3106Y-3.9283
X4.3106Y-4.0283
X4.3106Y-4.1283
X4.3106Y-4.2283
X4.3106Y-4.3283
X4.3106Y-4.4283
X4.3126Y-2.5291
X4.3126Y-2.6291
X4.3126Y-2.7291
X4.3126Y-2.8291
X4.3126Y-2.9291
X4.3126Y-3.0291
X4.3126Y-3.1291
X4.3531Y-4.8094
X4.3531Y-4.9567
X4.3531Y-5.1035
X4.5933Y-6.7724
X4.5933Y-6.9724
X4.6382Y-7.8681
X4.6382Y-7.9681
X4.6382Y-8.0681
X4.6382Y-8.1681
X4.6382Y-8.2681
X4.6382Y-8.3681
X4.6382Y-8.4681
X4.6382Y-8.5681
X4.6382Y-8.6681
X4.6382Y-8.7681
X4.6496Y-5.4232
X4.6496Y-5.5232
X4.6496Y-5.6232
X4.6496Y-5.7232
X4.6496Y-5.8232
X4.6496Y-5.9232
X4.6496Y-6.0232
X4.6496Y-6.1232
X4.6539Y-3.828
X4.6539Y-3.928
X4.6539Y-4.028
X4.6539Y-4.128
X4.6539Y-4.228
X4.6539Y-4.328
X4.6539Y-4.428
X4.6539Y-4.528
X4.6542Y-2.5304
X4.6542Y-2.6304
X4.6542Y-2.7304
X4.6542Y-2.8304
X4.6542Y-2.9304
X4.6542Y-3.0304
X4.6542Y-3.1304
X4.6542Y-3.2304
X4.6542Y-3.3304
X4.6542Y-3.4304
X4.6862Y-7.6685
X4.6976Y-5.228
X4.702Y-3.6311
X4.7059Y-2.335
X4.7906Y-6.7724
X4.7906Y-7.3724
X4.8862Y-7.6685
X4.8906Y-6.7724
X4.8906Y-7.3724
X4.8976Y-5.228
X4.902Y-3.6311
X4.9059Y-2.335
X4.9122Y-4.8094
X4.913Y-5.0102
X4.9382Y-7.8681
X4.9382Y-7.9681
X4.9382Y-8.0681
X4.9382Y-8.1681
X4.9382Y-8.2681
X4.9382Y-8.3681
X4.9382Y-8.4681
X4.9382Y-8.5681
X4.9382Y-8.6681
X4.9382Y-8.7681
X4.9496Y-5.4232
X4.9496Y-5.5232
X4.9496Y-5.6232
X4.9496Y-5.7232
X4.9496Y-5.8232
X4.9496Y-5.9232
X4.9496Y-6.0232
X4.9496Y-6.1232
X4.9539Y-3.828
X4.9539Y-3.928
X4.9539Y-4.028
X4.9539Y-4.128
X4.9539Y-4.228
X4.9539Y-4.328
X4.9539Y-4.428
X4.9539Y-4.528
X4.9542Y-2.5304
X4.9542Y-2.6304
X4.9542Y-2.7304
X4.9542Y-2.8304
X4.9542Y-2.9304
X4.9542Y-3.0304
X4.9542Y-3.1304
X4.9542Y-3.2304
X4.9542Y-3.3304
X4.9542Y-3.4304
X4.9906Y-6.7724
X4.9906Y-7.3724
X5.013Y-5.0102
X5.08Y-2.33
X5.08Y-2.53
X5.0906Y-6.7724
X5.0906Y-7.3724
X5.113Y-5.0102
X5.1906Y-6.7724
X5.1906Y-7.3724
X5.2862Y-7.8677
X5.2862Y-7.9677
X5.2862Y-8.0677
X5.2862Y-8.1677
X5.2862Y-8.2677
X5.2862Y-8.3677
X5.2862Y-8.4677
X5.2862Y-8.5677
X5.2862Y-8.6677
X5.2862Y-8.7677
X5.2906Y-6.7724
X5.2906Y-7.3724
X5.2984Y-5.4232
X5.2984Y-5.5232
X5.2984Y-5.6232
X5.2984Y-5.7232
X5.2984Y-5.8232
X5.2984Y-5.9232
X5.2984Y-6.0232
X5.2984Y-6.1232
X5.302Y-3.828
X5.302Y-3.928
X5.302Y-4.028
X5.302Y-4.128
X5.302Y-4.228
X5.302Y-4.328
X5.302Y-4.428
X5.302Y-4.528
X5.3075Y-2.5283
X5.3075Y-2.6283
X5.3075Y-2.7283
X5.3075Y-2.8283
X5.3075Y-2.9283
X5.3075Y-3.0283
X5.3075Y-3.1283
X5.3075Y-3.2283
X5.3343Y-7.6815
X5.3465Y-5.228
X5.35Y-3.6272
X5.3551Y-3.4685
X5.3555Y-2.3272
X5.3906Y-6.7724
X5.3906Y-7.3724
X5.4122Y-4.8094
X5.4906Y-6.7724
X5.4906Y-7.3724
X5.5343Y-7.6815
X5.5465Y-5.228
X5.55Y-3.6272
X5.5551Y-3.4685
X5.5555Y-2.3272
X5.5862Y-7.8677
X5.5862Y-7.9677
X5.5862Y-8.0677
X5.5862Y-8.1677
X5.5862Y-8.2677
X5.5862Y-8.3677
X5.5862Y-8.4677
X5.5862Y-8.5677
X5.5862Y-8.6677
X5.5862Y-8.7677
X5.5906Y-6.7724
X5.5906Y-7.3724
X5.5984Y-5.4232
X5.5984Y-5.5232
X5.5984Y-5.6232
X5.5984Y-5.7232
X5.5984Y-5.8232
X5.5984Y-5.9232
X5.5984Y-6.0232
X5.5984Y-6.1232
X5.602Y-3.828
X5.602Y-3.928
X5.602Y-4.028
X5.602Y-4.128
X5.602Y-4.228
X5.602Y-4.328
X5.602Y-4.428
X5.602Y-4.528
X5.6075Y-2.5283
X5.6075Y-2.6283
X5.6075Y-2.7283
X5.6075Y-2.8283
X5.6075Y-2.9283
X5.6075Y-3.0283
X5.6075Y-3.1283
X5.6075Y-3.2283
X5.6906Y-6.7724
X5.6906Y-7.3724
X5.75Y-2.6268
X5.75Y-2.8268
X5.7528Y-2.9378
X5.7528Y-3.4378
X5.7906Y-6.7724
X5.7906Y-7.3724
X5.8906Y-6.7724
X5.8906Y-7.3724
X5.948Y-5.4232
X5.948Y-5.5232
X5.948Y-5.6232
X5.948Y-5.7232
X5.948Y-5.8232
X5.948Y-5.9232
X5.948Y-6.0232
X5.948Y-6.1232
X5.9528Y-3.828
X5.9528Y-3.928
X5.9528Y-4.028
X5.9528Y-4.128
X5.9528Y-4.228
X5.9528Y-4.328
X5.9528Y-4.428
X5.9528Y-4.528
X5.9551Y-2.5287
X5.9551Y-2.6287
X5.9551Y-2.7287
X5.9551Y-2.8287
X5.9551Y-2.9287
X5.9551Y-3.0287
X5.9551Y-3.1287
X5.9551Y-3.2287
X5.9551Y-3.3287
X5.9551Y-3.4287
X5.9906Y-6.7724
X5.9906Y-7.3724
X5.9961Y-5.2319
X6.0008Y-3.6335
X6.0031Y-2.3311
X6.0346Y-7.9764
X6.0346Y-8.1764
X6.0906Y-6.7724
X6.0906Y-7.3724
X6.1961Y-5.2319
X6.2008Y-3.6335
X6.2031Y-2.3311
X6.248Y-5.4232
X6.248Y-5.5232
X6.248Y-5.6232
X6.248Y-5.7232
X6.248Y-5.8232
X6.248Y-5.9232
X6.248Y-6.0232
X6.248Y-6.1232
X6.2528Y-3.828
X6.2528Y-3.928
X6.2528Y-4.028
X6.2528Y-4.128
X6.2528Y-4.228
X6.2528Y-4.328
X6.2528Y-4.428
X6.2528Y-4.528
X6.2551Y-2.5287
X6.2551Y-2.6287
X6.2551Y-2.7287
X6.2551Y-2.8287
X6.2551Y-2.9287
X6.2551Y-3.0287
X6.2551Y-3.1287
X6.2551Y-3.2287
X6.2551Y-3.3287
X6.2551Y-3.4287
X6.285Y-7.9728
X6.285Y-8.5728
X6.385Y-7.9728
X6.385Y-8.5728
X6.4094Y-2.3315
X6.4094Y-2.5315
X6.4094Y-3.8343
X6.4094Y-4.2343
X6.485Y-7.9728
X6.485Y-8.5728
X6.585Y-7.9728
X6.585Y-8.5728
X6.5902Y-6.7811
X6.5902Y-6.8811
X6.5902Y-6.9811
X6.5902Y-7.0811
X6.5902Y-7.1811
X6.5902Y-7.2811
X6.5902Y-7.3811
X6.6Y-5.4232
X6.6Y-5.5232
X6.6Y-5.6232
X6.6Y-5.7232
X6.6Y-5.8232
X6.6Y-5.9232
X6.6Y-6.0232
X6.6Y-6.1232
X6.602Y-2.5287
X6.602Y-2.6287
X6.602Y-2.7287
X6.602Y-2.8287
X6.602Y-2.9287
X6.602Y-3.0287
X6.602Y-3.1287
X6.602Y-3.2287
X6.602Y-3.3287
X6.602Y-3.4287
X6.6031Y-3.8276
X6.6031Y-3.9276
X6.6031Y-4.0276
X6.6031Y-4.1276
X6.6031Y-4.2276
X6.6031Y-4.3276
X6.6031Y-4.4276
X6.6031Y-4.5276
X6.6031Y-4.6276
X6.6031Y-4.7276
X6.6382Y-6.5819
X6.648Y-5.2276
X6.65Y-2.3335
X6.6512Y-3.6323
X6.685Y-7.9728
X6.685Y-8.5728
X6.785Y-7.9728
X6.785Y-8.5728
X6.8382Y-6.5819
X6.848Y-5.2276
X6.85Y-2.3335
X6.8512Y-3.6323
X6.885Y-7.9728
X6.885Y-8.5728
X6.8902Y-6.7811
X6.8902Y-6.8811
X6.8902Y-6.9811
X6.8902Y-7.0811
X6.8902Y-7.1811
X6.8902Y-7.2811
X6.8902Y-7.3811
X6.9Y-5.4232
X6.9Y-5.5232
X6.9Y-5.6232
X6.9Y-5.7232
X6.9Y-5.8232
X6.9Y-5.9232
X6.9Y-6.0232
X6.9Y-6.1232
X6.902Y-2.5287
X6.902Y-2.6287
X6.902Y-2.7287
X6.902Y-2.8287
X6.902Y-2.9287
X6.902Y-3.0287
X6.902Y-3.1287
X6.902Y-3.2287
X6.902Y-3.3287
X6.902Y-3.4287
X6.9031Y-3.8276
X6.9031Y-3.9276
X6.9031Y-4.0276
X6.9031Y-4.1276
X6.9031Y-4.2276
X6.9031Y-4.3276
X6.9031Y-4.4276
X6.9031Y-4.5276
X6.9031Y-4.6276
X6.9031Y-4.7276
X6.985Y-7.9728
X6.985Y-8.5728
X7.0634Y-2.5339
X7.0634Y-3.0339
X7.085Y-7.9728
X7.085Y-8.5728
X7.1358Y-3.4311
X7.1358Y-3.9311
X7.175Y-5.5323
X7.175Y-6.0323
X7.185Y-7.9728
X7.185Y-8.5728
X7.2094Y-2.5343
X7.2094Y-3.0343
X7.285Y-7.9728
X7.285Y-8.5728
X7.385Y-7.9728
X7.385Y-8.5728
X7.3925Y-6.778
X7.3925Y-6.878
X7.3925Y-6.978
X7.3925Y-7.078
X7.3925Y-7.178
X7.3925Y-7.278
X7.3925Y-7.378
X7.3925Y-7.478
X7.4024Y-5.4327
X7.4024Y-5.5327
X7.4024Y-5.6327
X7.4024Y-5.7327
X7.4024Y-5.8327
X7.4024Y-5.9327
X7.4024Y-6.0327
X7.4031Y-2.5287
X7.4031Y-2.6287
X7.4031Y-2.7287
X7.4031Y-2.8287
X7.4031Y-2.9287
X7.4031Y-3.0287
X7.4031Y-3.1287
X7.4031Y-3.2287
X7.4031Y-3.3287
X7.4031Y-3.4287
X7.4035Y-3.8347
X7.4035Y-3.9347
X7.4035Y-4.0347
X7.4035Y-4.1347
X7.4035Y-4.2347
X7.4035Y-4.3347
X7.4035Y-4.4347
X7.4406Y-6.5858
X7.4504Y-5.2362
X7.4512Y-2.3394
X7.4516Y-3.6402
X7.4535Y-4.5837
X7.485Y-7.9728
X7.485Y-8.5728
X7.5547Y-2.0839
X7.585Y-7.9728
X7.585Y-8.5728
X7.6406Y-6.5858
X7.6504Y-5.2362
X7.6512Y-2.3394
X7.6516Y-3.6402
X7.6535Y-4.5837
X7.6547Y-2.0839
X7.685Y-7.9728
X7.685Y-8.5728
X7.6925Y-6.778
X7.6925Y-6.878
X7.6925Y-6.978
X7.6925Y-7.078
X7.6925Y-7.178
X7.6925Y-7.278
X7.6925Y-7.378
X7.6925Y-7.478
X7.7024Y-5.4327
X7.7024Y-5.5327
X7.7024Y-5.6327
X7.7024Y-5.7327
X7.7024Y-5.8327
X7.7024Y-5.9327
X7.7024Y-6.0327
X7.7031Y-2.5287
X7.7031Y-2.6287
X7.7031Y-2.7287
X7.7031Y-2.8287
X7.7031Y-2.9287
X7.7031Y-3.0287
X7.7031Y-3.1287
X7.7031Y-3.2287
X7.7031Y-3.3287
X7.7031Y-3.4287
X7.7035Y-3.8347
X7.7035Y-3.9347
X7.7035Y-4.0347
X7.7035Y-4.1347
X7.7035Y-4.2347
X7.7035Y-4.3347
X7.7035Y-4.4347
X7.7547Y-2.0839
X7.785Y-7.9728
X7.785Y-8.5728
X7.8547Y-2.0839
X7.885Y-7.9728
X7.885Y-8.5728
X7.8972Y-3.8394
X7.8972Y-4.3394
X7.9547Y-2.0839
X7.985Y-7.9728
X7.985Y-8.5728
X8.0508Y-3.8394
X8.0508Y-4.3394
X8.0547Y-2.0839
X8.085Y-7.9728
X8.085Y-8.5728
X8.1276Y-5.8303
X8.1276Y-6.3303
X8.1547Y-2.0839
X8.185Y-7.9728
X8.185Y-8.5728
X8.1894Y-6.7831
X8.1894Y-6.8831
X8.1894Y-6.9831
X8.1894Y-7.0831
X8.1894Y-7.1831
X8.1894Y-7.2831
X8.1894Y-7.3831
X8.2374Y-6.5819
X8.2547Y-2.0839
X8.2984Y-3.8374
X8.2984Y-3.9374
X8.2984Y-4.0374
X8.2984Y-4.1374
X8.2984Y-4.2374
X8.2984Y-4.3374
X8.2984Y-4.4374
X8.2984Y-4.5374
X8.2984Y-4.6374
X8.2984Y-4.7374
X8.2984Y-4.8374
X8.2984Y-4.9374
X8.2984Y-5.0374
X8.2984Y-5.1374
X8.3504Y-5.4402
X8.3504Y-5.9402
X8.3547Y-2.0839
X8.4374Y-6.5819
X8.4547Y-2.0839
X8.4894Y-6.7831
X8.4894Y-6.8831
X8.4894Y-6.9831
X8.4894Y-7.0831
X8.4894Y-7.1831
X8.4894Y-7.2831
X8.4894Y-7.3831
X8.6992Y-3.6354
X8.8075Y-8.0555
X8.8075Y-8.3555
X8.8874Y-6.7827
X8.8874Y-6.8827
X8.8874Y-6.9827
X8.8874Y-7.0827
X8.8874Y-7.1827
X8.8874Y-7.2827
X8.8874Y-7.3827
X8.8886Y-5.4366
X8.8886Y-5.5366
X8.8886Y-5.6366
X8.8886Y-5.7366
X8.8886Y-5.8366
X8.8886Y-5.9366
X8.8886Y-6.0366
X8.8984Y-3.8374
X8.8984Y-3.9374
X8.8984Y-4.0374
X8.8984Y-4.1374
X8.8984Y-4.2374
X8.8984Y-4.3374
X8.8984Y-4.4374
X8.8984Y-4.5374
X8.8984Y-4.6374
X8.8984Y-4.7374
X8.8984Y-4.8374
X8.8984Y-4.9374
X8.8984Y-5.0374
X8.8984Y-5.1374
X8.8992Y-3.6354
X9.1075Y-8.0555
X9.1075Y-8.3555
X9.1874Y-6.7827
X9.1874Y-6.8827
X9.1874Y-6.9827
X9.1874Y-7.0827
X9.1874Y-7.1827
X9.1874Y-7.2827
X9.1874Y-7.3827
X9.1886Y-5.4366
X9.1886Y-5.5366
X9.1886Y-5.6366
X9.1886Y-5.7366
X9.1886Y-5.8366
X9.1886Y-5.9366
X9.1886Y-6.0366
X9.3898Y-6.7843
X9.3898Y-6.9843
X9.6323Y-7.8315
X9.6323Y-7.9315
X9.6323Y-8.0315
X9.6323Y-8.1315
X9.6323Y-8.2315
X9.6323Y-8.3315
X9.6323Y-8.4315
X9.6323Y-8.5315
X9.6323Y-8.6315
X9.6323Y-8.7315
X9.6362Y-6.7862
X9.6362Y-6.8862
X9.6362Y-6.9862
X9.6362Y-7.0862
X9.6362Y-7.1862
X9.6362Y-7.2862
X9.6362Y-7.3862
X9.6362Y-7.4862
X9.637Y-5.4366
X9.637Y-5.5366
X9.637Y-5.6366
X9.637Y-5.7366
X9.637Y-5.8366
X9.637Y-5.9366
X9.637Y-6.0366
X9.6803Y-7.6799
X9.685Y-5.239
X9.8803Y-7.6799
X9.885Y-5.239
X9.8898Y-4.987
X9.8909Y-3.9362
X9.8909Y-4.687
X9.9323Y-7.8315
X9.9323Y-7.9315
X9.9323Y-8.0315
X9.9323Y-8.1315
X9.9323Y-8.2315
X9.9323Y-8.3315
X9.9323Y-8.4315
X9.9323Y-8.5315
X9.9323Y-8.6315
X9.9323Y-8.7315
X9.9362Y-6.7862
X9.9362Y-6.8862
X9.9362Y-6.9862
X9.9362Y-7.0862
X9.9362Y-7.1862
X9.9362Y-7.2862
X9.9362Y-7.3862
X9.9362Y-7.4862
X9.937Y-5.4366
X9.937Y-5.5366
X9.937Y-5.6366
X9.937Y-5.7366
X9.937Y-5.8366
X9.937Y-5.9366
X9.937Y-6.0366
X9.961Y-3.9362
X9.961Y-4.687
X9.9898Y-4.987
X10.0311Y-3.9362
X10.0311Y-4.687
X10.0898Y-4.987
X10.1012Y-3.9362
X10.1012Y-4.687
X10.1335Y-6.7815
X10.1335Y-6.8815
X10.1335Y-6.9815
X10.1335Y-7.0815
X10.1335Y-7.1815
X10.1335Y-7.2815
X10.1335Y-7.3815
X10.1335Y-7.4815
X10.1335Y-7.5815
X10.1335Y-7.6815
X10.1358Y-5.5382
X10.1358Y-6.0382
X10.1713Y-3.9362
X10.1713Y-4.687
X10.1898Y-4.987
X10.2413Y-3.9362
X10.2413Y-4.687
X10.2898Y-4.987
X10.3114Y-3.9362
X10.3114Y-4.687
X10.339Y-5.4366
X10.339Y-5.5366
X10.339Y-5.6366
X10.339Y-5.7366
X10.339Y-5.8366
X10.339Y-5.9366
X10.339Y-6.0366
X10.339Y-6.1366
X10.3402Y-2.5402
X10.3402Y-2.6402
X10.3402Y-2.7402
X10.3402Y-2.8402
X10.3402Y-2.9402
X10.3402Y-3.0402
X10.3402Y-3.1402
X10.3815Y-3.9362
X10.3815Y-4.687
X10.387Y-5.2409
X10.3882Y-2.3409
X10.3898Y-4.987
X10.4409Y-7.5654
X10.4409Y-7.8654
X10.4516Y-3.9362
X10.4516Y-4.687
X10.4898Y-4.987
X10.5217Y-3.9362
X10.5217Y-4.687
X10.587Y-5.2409
X10.5882Y-2.3409
X10.5898Y-4.987
X10.5917Y-3.9362
X10.5917Y-4.687
X10.639Y-5.4366
X10.639Y-5.5366
X10.639Y-5.6366
X10.639Y-5.7366
X10.639Y-5.8366
X10.639Y-5.9366
X10.639Y-6.0366
X10.639Y-6.1366
X10.6402Y-2.5402
X10.6402Y-2.6402
X10.6402Y-2.7402
X10.6402Y-2.8402
X10.6402Y-2.9402
X10.6402Y-3.0402
X10.6402Y-3.1402
X10.6618Y-3.9362
X10.6618Y-4.687
X10.6898Y-4.987
X10.7319Y-3.9362
X10.7319Y-4.687
X10.7409Y-7.5654
X10.7409Y-7.8654
X10.7898Y-4.987
X10.802Y-3.9362
X10.802Y-4.687
X10.8024Y-2.5504
X10.8024Y-3.0504
X10.872Y-3.9362
X10.872Y-4.687
X10.9421Y-3.9362
X10.9421Y-4.687
X10.9512Y-2.55
X10.9512Y-3.05
X11.0122Y-3.9362
X11.0122Y-4.687
X11.0425Y-5.4366
X11.0425Y-5.5366
X11.0425Y-5.6366
X11.0425Y-5.7366
X11.0425Y-5.8366
X11.0425Y-5.9366
X11.0425Y-6.0366
X11.0425Y-6.1366
X11.0701Y-2.5425
X11.0701Y-2.6425
X11.0701Y-2.7425
X11.0701Y-2.8425
X11.0701Y-2.9425
X11.0701Y-3.0425
X11.0701Y-3.1425
X11.0701Y-3.2425
X11.0823Y-3.9362
X11.0823Y-4.687
X11.0906Y-5.2409
X11.1181Y-2.3445
X11.1462Y-6.724
X11.1462Y-7.024
X11.1466Y-7.1902
X11.1466Y-7.4902
X11.1524Y-3.9362
X11.1524Y-4.687
X11.2224Y-3.9362
X11.2224Y-4.687
X11.2462Y-6.724
X11.2462Y-7.024
X11.2466Y-7.1902
X11.2466Y-7.4902
X11.2906Y-5.2409
X11.2925Y-3.9362
X11.2925Y-4.687
X11.3181Y-2.3445
X11.3425Y-5.4366
X11.3425Y-5.5366
X11.3425Y-5.6366
X11.3425Y-5.7366
X11.3425Y-5.8366
X11.3425Y-5.9366
X11.3425Y-6.0366
X11.3425Y-6.1366
X11.3462Y-6.724
X11.3462Y-7.024
X11.3466Y-7.1902
X11.3466Y-7.4902
X11.3626Y-3.9362
X11.3626Y-4.687
X11.3701Y-2.5425
X11.3701Y-2.6425
X11.3701Y-2.7425
X11.3701Y-2.8425
X11.3701Y-2.9425
X11.3701Y-3.0425
X11.3701Y-3.1425
X11.3701Y-3.2425
X11.4327Y-3.9362
X11.4327Y-4.687
X11.4462Y-6.724
X11.4462Y-7.024
X11.4466Y-7.1902
X11.4466Y-7.4902
X11.4535Y-2.3445
X11.5028Y-3.9362
X11.5028Y-4.687
X11.5462Y-6.724
X11.5462Y-7.024
X11.5466Y-7.1902
X11.5466Y-7.4902
X11.5728Y-3.9362
X11.5728Y-4.687
X11.6429Y-3.9362
X11.6429Y-4.687
X11.6462Y-6.724
X11.6462Y-7.024
X11.6466Y-7.1902
X11.6466Y-7.4902
X11.6535Y-2.3445
X11.713Y-3.9362
X11.713Y-4.687
X11.7315Y-2.5425
X11.7315Y-2.6425
X11.7315Y-2.7425
X11.7315Y-2.8425
X11.7315Y-2.9425
X11.7315Y-3.0425
X11.7315Y-3.1425
X11.7315Y-3.2425
X11.7421Y-5.4366
X11.7421Y-5.5366
X11.7421Y-5.6366
X11.7421Y-5.7366
X11.7421Y-5.8366
X11.7421Y-5.9366
X11.7421Y-6.0366
X11.7421Y-6.1366
X11.7462Y-6.724
X11.7462Y-7.024
X11.7466Y-7.1902
X11.7466Y-7.4902
X11.7827Y-2.3445
X11.7831Y-3.9362
X11.7831Y-4.687
X11.7902Y-5.2402
X11.8462Y-6.724
X11.8462Y-7.024
X11.8466Y-7.1902
X11.8466Y-7.4902
X11.8531Y-3.9362
X11.8531Y-4.687
X11.9232Y-3.9362
X11.9232Y-4.687
X11.9462Y-6.724
X11.9462Y-7.024
X11.9466Y-7.1902
X11.9466Y-7.4902
X11.9827Y-2.3445
X11.9902Y-5.2402
X11.9933Y-3.9362
X11.9933Y-4.687
X12.0315Y-2.5425
X12.0315Y-2.6425
X12.0315Y-2.7425
X12.0315Y-2.8425
X12.0315Y-2.9425
X12.0315Y-3.0425
X12.0315Y-3.1425
X12.0315Y-3.2425
X12.0421Y-5.4366
X12.0421Y-5.5366
X12.0421Y-5.6366
X12.0421Y-5.7366
X12.0421Y-5.8366
X12.0421Y-5.9366
X12.0421Y-6.0366
X12.0421Y-6.1366
X12.0462Y-6.724
X12.0462Y-7.024
X12.0466Y-7.1902
X12.0466Y-7.4902
X12.0634Y-3.9362
X12.0634Y-4.687
X12.2835Y-7.239
X12.2835Y-7.439
X12.285Y-6.7728
X12.285Y-6.9728
T3
X7.0758Y-2.1161
X7.1758Y-2.1161
T4
X4.222Y-1.5949
X4.3992Y-1.5949
T5
X3.863Y-3.0575
X3.863Y-3.1575
X4.9594Y-2.0291
X5.0594Y-2.0291
X5.1594Y-2.0291
X5.2594Y-2.0291
X5.3594Y-2.0291
X5.4594Y-2.0291
X5.5594Y-2.0291
X6.415Y-2.778
X6.415Y-2.965
X6.415Y-3.3681
X7.02Y-5.925
X7.02Y-6.025
X7.02Y-6.125
X7.0472Y-6.9949
X7.0472Y-7.0949
X7.0472Y-7.1949
X7.8512Y-3.7205
X7.9512Y-3.7205
X8.0512Y-3.7205
X8.1496Y-2.5366
X8.1496Y-2.6366
X8.2496Y-2.5366
X8.2496Y-2.6366
X8.3496Y-2.5366
X8.3496Y-2.6366
X8.4496Y-2.5366
X8.4496Y-2.6366
X8.5496Y-2.5366
X8.5496Y-2.6366
X8.589Y-5.4398
X8.589Y-5.8429
X8.589Y-6.0299
X8.6496Y-2.5366
X8.6496Y-2.6366
X8.7496Y-2.5366
X8.7496Y-2.6366
X8.8496Y-2.5366
X8.8496Y-2.6366
X8.9496Y-2.5366
X8.9496Y-2.6366
X9.0496Y-2.5366
X9.0496Y-2.6366
X9.1496Y-2.5366
X9.1496Y-2.6366
X9.1878Y-6.4276
X9.1878Y-6.5276
X9.2496Y-2.5366
X9.2496Y-2.6366
X9.286Y-2.0906
X9.2878Y-6.4276
X9.2878Y-6.5276
X9.3496Y-2.5366
X9.3496Y-2.6366
X9.386Y-2.0906
X9.3878Y-6.4276
X9.3878Y-6.5276
X9.4079Y-3.9272
X9.4496Y-2.5366
X9.4496Y-2.6366
X9.4878Y-6.4276
X9.4878Y-6.5276
X9.5079Y-3.9272
X9.5496Y-2.5366
X9.5496Y-2.6366
X9.5878Y-6.4276
X9.5878Y-6.5276
X9.6079Y-3.9272
X9.6496Y-2.5366
X9.6496Y-2.6366
X9.6878Y-6.4276
X9.6878Y-6.5276
X9.7496Y-2.5366
X9.7496Y-2.6366
X9.7878Y-6.4276
X9.7878Y-6.5276
X9.8496Y-2.5366
X9.8496Y-2.6366
X9.8878Y-6.4276
X9.8878Y-6.5276
X9.9496Y-2.5366
X9.9496Y-2.6366
X9.9878Y-6.4276
X9.9878Y-6.5276
X10.0496Y-2.5366
X10.0496Y-2.6366
X10.0878Y-6.4276
X10.0878Y-6.5276
X10.1878Y-6.4276
X10.1878Y-6.5276
X10.2878Y-6.4276
X10.2878Y-6.5276
X10.3878Y-6.4276
X10.3878Y-6.5276
X10.4878Y-6.4276
X10.4878Y-6.5276
X10.5878Y-6.4276
X10.5878Y-6.5276
X10.6878Y-6.4276
X10.6878Y-6.5276
X10.7878Y-6.4276
X10.7878Y-6.5276
X11.0933Y-3.374
X11.1933Y-3.374
X11.2933Y-3.374
X11.5339Y-6.3189
X11.5378Y-2.7417
X11.5378Y-2.8417
X11.5378Y-2.9417
X11.5378Y-3.0417
X11.5378Y-3.1417
X11.6339Y-6.3189
X11.6535Y-1.8898
X11.6535Y-1.9898
X11.6535Y-2.0898
X12.0044Y-2.2207
X12.1044Y-2.2207
X12.185Y-2.7537
X12.185Y-2.8537
X12.185Y-2.9537
X12.185Y-3.0537
X12.2044Y-2.2207
X12.3044Y-2.2207
T7
X5.763Y-1.6776
X6.8567Y-1.4972
X6.8567Y-1.6776
X10.0059Y-2.1004
X10.1043Y-2.1004
X10.3701Y-2.1004
X10.4685Y-2.1004
X10.7185Y-2.1004
X10.8169Y-2.1004
X11.0984Y-2.1004
X11.1969Y-2.1004
X11.8622Y-3.4567
X11.8622Y-3.5551
X12.1575Y-3.4488
X12.1575Y-3.5472
X12.4665Y-3.2539
X12.4665Y-3.3524
X12.4705Y-3.6024
X12.4705Y-3.7008
T8
X4.1728Y-1.6929
X4.4488Y-1.6929
X7.4797Y-1.8
X7.5335Y-1.689
X7.5888Y-1.8
X7.6425Y-1.689
X7.6978Y-1.8
X7.7516Y-1.689
X7.8069Y-1.8
X7.8606Y-1.689
X7.9159Y-1.8
X7.9697Y-1.689
X8.025Y-1.8
X8.0787Y-1.689
X8.1341Y-1.8
X8.1878Y-1.689
X8.2431Y-1.8
X8.2969Y-1.689
X8.3522Y-1.8
X8.4059Y-1.689
X8.4612Y-1.8
X8.515Y-1.689
X8.5703Y-1.8
X8.624Y-1.689
X8.6793Y-1.8
X8.7331Y-1.689
X8.7884Y-1.8
X10.203Y-1.7378
X10.2575Y-1.626
X10.312Y-1.7378
X10.3665Y-1.626
X10.4211Y-1.7378
X10.4756Y-1.626
X10.5301Y-1.7378
X10.5846Y-1.626
X10.6392Y-1.7378
T9
X11.8569Y-1.8073
X11.9553Y-1.4133
X11.9553Y-1.9053
X12.0539Y-1.4133
X12.1524Y-1.8073
X12.1544Y-1.4133
X12.2508Y-1.4133
X12.3494Y-1.4133
X12.3494Y-1.9053
X12.4478Y-1.8073
T10
X9.4764Y-1.6602
T11
X4.2124Y-1.9756
X4.4124Y-1.9756
X4.9732Y-1.705
X5.1291Y-1.705
X5.285Y-1.705
X5.4409Y-1.705
X5.9618Y-2.0315
X6.2626Y-2.0323
X6.463Y-2.0327
X6.663Y-2.0327
T12
X12.555Y-2.09
T13
X9.4764Y-1.4043
T14
X9.9289Y-1.6819
X10.9132Y-1.6819
T5
G00X11.1811Y-1.6969
M15
G01X11.1811Y-1.7756
M16
G05
G00X11.4055Y-1.6181
M15
G01X11.3268Y-1.6181
M16
G05
G00X11.4055Y-1.8543
M15
G01X11.3268Y-1.8543
M16
G05
T6
G00X9.2795Y-1.6248
M15
G01X9.2795Y-1.6957
M16
G05
G00X9.6732Y-1.6248
M15
G01X9.6732Y-1.6957
M16
G05
M30
