%TF.GenerationSoftware,KiCad,Pcbnew,8.0.5*%
%TF.CreationDate,2024-10-27T21:26:24+00:00*%
%TF.ProjectId,TIM-011B,54494d2d-3031-4314-922e-6b696361645f,rev?*%
%TF.SameCoordinates,Original*%
%TF.FileFunction,Legend,Bot*%
%TF.FilePolarity,Positive*%
%FSLAX46Y46*%
G04 Gerber Fmt 4.6, Leading zero omitted, Abs format (unit mm)*
G04 Created by KiCad (PCBNEW 8.0.5) date 2024-10-27 21:26:24*
%MOMM*%
%LPD*%
G01*
G04 APERTURE LIST*
%ADD10C,0.300000*%
G04 APERTURE END LIST*
D10*
X321766917Y-234300828D02*
X321766917Y-235372257D01*
X321766917Y-235372257D02*
X321838346Y-235586542D01*
X321838346Y-235586542D02*
X321981203Y-235729400D01*
X321981203Y-235729400D02*
X322195489Y-235800828D01*
X322195489Y-235800828D02*
X322338346Y-235800828D01*
X320338346Y-235800828D02*
X321052632Y-235800828D01*
X321052632Y-235800828D02*
X321052632Y-234300828D01*
X318981203Y-235657971D02*
X319052631Y-235729400D01*
X319052631Y-235729400D02*
X319266917Y-235800828D01*
X319266917Y-235800828D02*
X319409774Y-235800828D01*
X319409774Y-235800828D02*
X319624060Y-235729400D01*
X319624060Y-235729400D02*
X319766917Y-235586542D01*
X319766917Y-235586542D02*
X319838346Y-235443685D01*
X319838346Y-235443685D02*
X319909774Y-235157971D01*
X319909774Y-235157971D02*
X319909774Y-234943685D01*
X319909774Y-234943685D02*
X319838346Y-234657971D01*
X319838346Y-234657971D02*
X319766917Y-234515114D01*
X319766917Y-234515114D02*
X319624060Y-234372257D01*
X319624060Y-234372257D02*
X319409774Y-234300828D01*
X319409774Y-234300828D02*
X319266917Y-234300828D01*
X319266917Y-234300828D02*
X319052631Y-234372257D01*
X319052631Y-234372257D02*
X318981203Y-234443685D01*
X317909774Y-234300828D02*
X317909774Y-235372257D01*
X317909774Y-235372257D02*
X317981203Y-235586542D01*
X317981203Y-235586542D02*
X318124060Y-235729400D01*
X318124060Y-235729400D02*
X318338346Y-235800828D01*
X318338346Y-235800828D02*
X318481203Y-235800828D01*
X316481203Y-235800828D02*
X317195489Y-235800828D01*
X317195489Y-235800828D02*
X317195489Y-234300828D01*
X315124060Y-235657971D02*
X315195488Y-235729400D01*
X315195488Y-235729400D02*
X315409774Y-235800828D01*
X315409774Y-235800828D02*
X315552631Y-235800828D01*
X315552631Y-235800828D02*
X315766917Y-235729400D01*
X315766917Y-235729400D02*
X315909774Y-235586542D01*
X315909774Y-235586542D02*
X315981203Y-235443685D01*
X315981203Y-235443685D02*
X316052631Y-235157971D01*
X316052631Y-235157971D02*
X316052631Y-234943685D01*
X316052631Y-234943685D02*
X315981203Y-234657971D01*
X315981203Y-234657971D02*
X315909774Y-234515114D01*
X315909774Y-234515114D02*
X315766917Y-234372257D01*
X315766917Y-234372257D02*
X315552631Y-234300828D01*
X315552631Y-234300828D02*
X315409774Y-234300828D01*
X315409774Y-234300828D02*
X315195488Y-234372257D01*
X315195488Y-234372257D02*
X315124060Y-234443685D01*
X314052631Y-234300828D02*
X314052631Y-235372257D01*
X314052631Y-235372257D02*
X314124060Y-235586542D01*
X314124060Y-235586542D02*
X314266917Y-235729400D01*
X314266917Y-235729400D02*
X314481203Y-235800828D01*
X314481203Y-235800828D02*
X314624060Y-235800828D01*
X312624060Y-235800828D02*
X313338346Y-235800828D01*
X313338346Y-235800828D02*
X313338346Y-234300828D01*
X311266917Y-235657971D02*
X311338345Y-235729400D01*
X311338345Y-235729400D02*
X311552631Y-235800828D01*
X311552631Y-235800828D02*
X311695488Y-235800828D01*
X311695488Y-235800828D02*
X311909774Y-235729400D01*
X311909774Y-235729400D02*
X312052631Y-235586542D01*
X312052631Y-235586542D02*
X312124060Y-235443685D01*
X312124060Y-235443685D02*
X312195488Y-235157971D01*
X312195488Y-235157971D02*
X312195488Y-234943685D01*
X312195488Y-234943685D02*
X312124060Y-234657971D01*
X312124060Y-234657971D02*
X312052631Y-234515114D01*
X312052631Y-234515114D02*
X311909774Y-234372257D01*
X311909774Y-234372257D02*
X311695488Y-234300828D01*
X311695488Y-234300828D02*
X311552631Y-234300828D01*
X311552631Y-234300828D02*
X311338345Y-234372257D01*
X311338345Y-234372257D02*
X311266917Y-234443685D01*
X310195488Y-234300828D02*
X310195488Y-235372257D01*
X310195488Y-235372257D02*
X310266917Y-235586542D01*
X310266917Y-235586542D02*
X310409774Y-235729400D01*
X310409774Y-235729400D02*
X310624060Y-235800828D01*
X310624060Y-235800828D02*
X310766917Y-235800828D01*
X308766917Y-235800828D02*
X309481203Y-235800828D01*
X309481203Y-235800828D02*
X309481203Y-234300828D01*
X307409774Y-235657971D02*
X307481202Y-235729400D01*
X307481202Y-235729400D02*
X307695488Y-235800828D01*
X307695488Y-235800828D02*
X307838345Y-235800828D01*
X307838345Y-235800828D02*
X308052631Y-235729400D01*
X308052631Y-235729400D02*
X308195488Y-235586542D01*
X308195488Y-235586542D02*
X308266917Y-235443685D01*
X308266917Y-235443685D02*
X308338345Y-235157971D01*
X308338345Y-235157971D02*
X308338345Y-234943685D01*
X308338345Y-234943685D02*
X308266917Y-234657971D01*
X308266917Y-234657971D02*
X308195488Y-234515114D01*
X308195488Y-234515114D02*
X308052631Y-234372257D01*
X308052631Y-234372257D02*
X307838345Y-234300828D01*
X307838345Y-234300828D02*
X307695488Y-234300828D01*
X307695488Y-234300828D02*
X307481202Y-234372257D01*
X307481202Y-234372257D02*
X307409774Y-234443685D01*
X319596917Y-199336584D02*
X319596917Y-200408013D01*
X319596917Y-200408013D02*
X319668346Y-200622298D01*
X319668346Y-200622298D02*
X319811203Y-200765156D01*
X319811203Y-200765156D02*
X320025489Y-200836584D01*
X320025489Y-200836584D02*
X320168346Y-200836584D01*
X318882632Y-200836584D02*
X318882632Y-199336584D01*
X318882632Y-199336584D02*
X318382632Y-200408013D01*
X318382632Y-200408013D02*
X317882632Y-199336584D01*
X317882632Y-199336584D02*
X317882632Y-200836584D01*
X317168346Y-200836584D02*
X317168346Y-199336584D01*
X317168346Y-199336584D02*
X316596917Y-199336584D01*
X316596917Y-199336584D02*
X316454060Y-199408013D01*
X316454060Y-199408013D02*
X316382631Y-199479441D01*
X316382631Y-199479441D02*
X316311203Y-199622298D01*
X316311203Y-199622298D02*
X316311203Y-199836584D01*
X316311203Y-199836584D02*
X316382631Y-199979441D01*
X316382631Y-199979441D02*
X316454060Y-200050870D01*
X316454060Y-200050870D02*
X316596917Y-200122298D01*
X316596917Y-200122298D02*
X317168346Y-200122298D01*
X314882631Y-200836584D02*
X315739774Y-200836584D01*
X315311203Y-200836584D02*
X315311203Y-199336584D01*
X315311203Y-199336584D02*
X315454060Y-199550870D01*
X315454060Y-199550870D02*
X315596917Y-199693727D01*
X315596917Y-199693727D02*
X315739774Y-199765156D01*
X307525489Y-200693727D02*
X307596917Y-200765156D01*
X307596917Y-200765156D02*
X307811203Y-200836584D01*
X307811203Y-200836584D02*
X307954060Y-200836584D01*
X307954060Y-200836584D02*
X308168346Y-200765156D01*
X308168346Y-200765156D02*
X308311203Y-200622298D01*
X308311203Y-200622298D02*
X308382632Y-200479441D01*
X308382632Y-200479441D02*
X308454060Y-200193727D01*
X308454060Y-200193727D02*
X308454060Y-199979441D01*
X308454060Y-199979441D02*
X308382632Y-199693727D01*
X308382632Y-199693727D02*
X308311203Y-199550870D01*
X308311203Y-199550870D02*
X308168346Y-199408013D01*
X308168346Y-199408013D02*
X307954060Y-199336584D01*
X307954060Y-199336584D02*
X307811203Y-199336584D01*
X307811203Y-199336584D02*
X307596917Y-199408013D01*
X307596917Y-199408013D02*
X307525489Y-199479441D01*
X307096917Y-199336584D02*
X306239775Y-199336584D01*
X306668346Y-200836584D02*
X306668346Y-199336584D01*
X305811203Y-200765156D02*
X305596918Y-200836584D01*
X305596918Y-200836584D02*
X305239775Y-200836584D01*
X305239775Y-200836584D02*
X305096918Y-200765156D01*
X305096918Y-200765156D02*
X305025489Y-200693727D01*
X305025489Y-200693727D02*
X304954060Y-200550870D01*
X304954060Y-200550870D02*
X304954060Y-200408013D01*
X304954060Y-200408013D02*
X305025489Y-200265156D01*
X305025489Y-200265156D02*
X305096918Y-200193727D01*
X305096918Y-200193727D02*
X305239775Y-200122298D01*
X305239775Y-200122298D02*
X305525489Y-200050870D01*
X305525489Y-200050870D02*
X305668346Y-199979441D01*
X305668346Y-199979441D02*
X305739775Y-199908013D01*
X305739775Y-199908013D02*
X305811203Y-199765156D01*
X305811203Y-199765156D02*
X305811203Y-199622298D01*
X305811203Y-199622298D02*
X305739775Y-199479441D01*
X305739775Y-199479441D02*
X305668346Y-199408013D01*
X305668346Y-199408013D02*
X305525489Y-199336584D01*
X305525489Y-199336584D02*
X305168346Y-199336584D01*
X305168346Y-199336584D02*
X304954060Y-199408013D01*
X304025489Y-199336584D02*
X303882632Y-199336584D01*
X303882632Y-199336584D02*
X303739775Y-199408013D01*
X303739775Y-199408013D02*
X303668347Y-199479441D01*
X303668347Y-199479441D02*
X303596918Y-199622298D01*
X303596918Y-199622298D02*
X303525489Y-199908013D01*
X303525489Y-199908013D02*
X303525489Y-200265156D01*
X303525489Y-200265156D02*
X303596918Y-200550870D01*
X303596918Y-200550870D02*
X303668347Y-200693727D01*
X303668347Y-200693727D02*
X303739775Y-200765156D01*
X303739775Y-200765156D02*
X303882632Y-200836584D01*
X303882632Y-200836584D02*
X304025489Y-200836584D01*
X304025489Y-200836584D02*
X304168347Y-200765156D01*
X304168347Y-200765156D02*
X304239775Y-200693727D01*
X304239775Y-200693727D02*
X304311204Y-200550870D01*
X304311204Y-200550870D02*
X304382632Y-200265156D01*
X304382632Y-200265156D02*
X304382632Y-199908013D01*
X304382632Y-199908013D02*
X304311204Y-199622298D01*
X304311204Y-199622298D02*
X304239775Y-199479441D01*
X304239775Y-199479441D02*
X304168347Y-199408013D01*
X304168347Y-199408013D02*
X304025489Y-199336584D01*
X301811204Y-200765156D02*
X301596919Y-200836584D01*
X301596919Y-200836584D02*
X301239776Y-200836584D01*
X301239776Y-200836584D02*
X301096919Y-200765156D01*
X301096919Y-200765156D02*
X301025490Y-200693727D01*
X301025490Y-200693727D02*
X300954061Y-200550870D01*
X300954061Y-200550870D02*
X300954061Y-200408013D01*
X300954061Y-200408013D02*
X301025490Y-200265156D01*
X301025490Y-200265156D02*
X301096919Y-200193727D01*
X301096919Y-200193727D02*
X301239776Y-200122298D01*
X301239776Y-200122298D02*
X301525490Y-200050870D01*
X301525490Y-200050870D02*
X301668347Y-199979441D01*
X301668347Y-199979441D02*
X301739776Y-199908013D01*
X301739776Y-199908013D02*
X301811204Y-199765156D01*
X301811204Y-199765156D02*
X301811204Y-199622298D01*
X301811204Y-199622298D02*
X301739776Y-199479441D01*
X301739776Y-199479441D02*
X301668347Y-199408013D01*
X301668347Y-199408013D02*
X301525490Y-199336584D01*
X301525490Y-199336584D02*
X301168347Y-199336584D01*
X301168347Y-199336584D02*
X300954061Y-199408013D01*
X299739776Y-200765156D02*
X299882633Y-200836584D01*
X299882633Y-200836584D02*
X300168348Y-200836584D01*
X300168348Y-200836584D02*
X300311205Y-200765156D01*
X300311205Y-200765156D02*
X300382633Y-200622298D01*
X300382633Y-200622298D02*
X300382633Y-200050870D01*
X300382633Y-200050870D02*
X300311205Y-199908013D01*
X300311205Y-199908013D02*
X300168348Y-199836584D01*
X300168348Y-199836584D02*
X299882633Y-199836584D01*
X299882633Y-199836584D02*
X299739776Y-199908013D01*
X299739776Y-199908013D02*
X299668348Y-200050870D01*
X299668348Y-200050870D02*
X299668348Y-200193727D01*
X299668348Y-200193727D02*
X300382633Y-200336584D01*
X298811205Y-200836584D02*
X298954062Y-200765156D01*
X298954062Y-200765156D02*
X299025491Y-200622298D01*
X299025491Y-200622298D02*
X299025491Y-199336584D01*
X297668348Y-200765156D02*
X297811205Y-200836584D01*
X297811205Y-200836584D02*
X298096920Y-200836584D01*
X298096920Y-200836584D02*
X298239777Y-200765156D01*
X298239777Y-200765156D02*
X298311205Y-200622298D01*
X298311205Y-200622298D02*
X298311205Y-200050870D01*
X298311205Y-200050870D02*
X298239777Y-199908013D01*
X298239777Y-199908013D02*
X298096920Y-199836584D01*
X298096920Y-199836584D02*
X297811205Y-199836584D01*
X297811205Y-199836584D02*
X297668348Y-199908013D01*
X297668348Y-199908013D02*
X297596920Y-200050870D01*
X297596920Y-200050870D02*
X297596920Y-200193727D01*
X297596920Y-200193727D02*
X298311205Y-200336584D01*
X296311206Y-200765156D02*
X296454063Y-200836584D01*
X296454063Y-200836584D02*
X296739777Y-200836584D01*
X296739777Y-200836584D02*
X296882634Y-200765156D01*
X296882634Y-200765156D02*
X296954063Y-200693727D01*
X296954063Y-200693727D02*
X297025491Y-200550870D01*
X297025491Y-200550870D02*
X297025491Y-200122298D01*
X297025491Y-200122298D02*
X296954063Y-199979441D01*
X296954063Y-199979441D02*
X296882634Y-199908013D01*
X296882634Y-199908013D02*
X296739777Y-199836584D01*
X296739777Y-199836584D02*
X296454063Y-199836584D01*
X296454063Y-199836584D02*
X296311206Y-199908013D01*
X295882634Y-199836584D02*
X295311206Y-199836584D01*
X295668349Y-199336584D02*
X295668349Y-200622298D01*
X295668349Y-200622298D02*
X295596920Y-200765156D01*
X295596920Y-200765156D02*
X295454063Y-200836584D01*
X295454063Y-200836584D02*
X295311206Y-200836584D01*
X293239777Y-201408013D02*
X293311206Y-201336584D01*
X293311206Y-201336584D02*
X293454063Y-201122298D01*
X293454063Y-201122298D02*
X293525492Y-200979441D01*
X293525492Y-200979441D02*
X293596920Y-200765156D01*
X293596920Y-200765156D02*
X293668349Y-200408013D01*
X293668349Y-200408013D02*
X293668349Y-200122298D01*
X293668349Y-200122298D02*
X293596920Y-199765156D01*
X293596920Y-199765156D02*
X293525492Y-199550870D01*
X293525492Y-199550870D02*
X293454063Y-199408013D01*
X293454063Y-199408013D02*
X293311206Y-199193727D01*
X293311206Y-199193727D02*
X293239777Y-199122298D01*
X292739777Y-199479441D02*
X292668349Y-199408013D01*
X292668349Y-199408013D02*
X292525492Y-199336584D01*
X292525492Y-199336584D02*
X292168349Y-199336584D01*
X292168349Y-199336584D02*
X292025492Y-199408013D01*
X292025492Y-199408013D02*
X291954063Y-199479441D01*
X291954063Y-199479441D02*
X291882634Y-199622298D01*
X291882634Y-199622298D02*
X291882634Y-199765156D01*
X291882634Y-199765156D02*
X291954063Y-199979441D01*
X291954063Y-199979441D02*
X292811206Y-200836584D01*
X292811206Y-200836584D02*
X291882634Y-200836584D01*
X291239778Y-200265156D02*
X290096921Y-200265156D01*
X289525492Y-199336584D02*
X288596920Y-199336584D01*
X288596920Y-199336584D02*
X289096920Y-199908013D01*
X289096920Y-199908013D02*
X288882635Y-199908013D01*
X288882635Y-199908013D02*
X288739778Y-199979441D01*
X288739778Y-199979441D02*
X288668349Y-200050870D01*
X288668349Y-200050870D02*
X288596920Y-200193727D01*
X288596920Y-200193727D02*
X288596920Y-200550870D01*
X288596920Y-200550870D02*
X288668349Y-200693727D01*
X288668349Y-200693727D02*
X288739778Y-200765156D01*
X288739778Y-200765156D02*
X288882635Y-200836584D01*
X288882635Y-200836584D02*
X289311206Y-200836584D01*
X289311206Y-200836584D02*
X289454063Y-200765156D01*
X289454063Y-200765156D02*
X289525492Y-200693727D01*
X288096921Y-201408013D02*
X288025492Y-201336584D01*
X288025492Y-201336584D02*
X287882635Y-201122298D01*
X287882635Y-201122298D02*
X287811207Y-200979441D01*
X287811207Y-200979441D02*
X287739778Y-200765156D01*
X287739778Y-200765156D02*
X287668349Y-200408013D01*
X287668349Y-200408013D02*
X287668349Y-200122298D01*
X287668349Y-200122298D02*
X287739778Y-199765156D01*
X287739778Y-199765156D02*
X287811207Y-199550870D01*
X287811207Y-199550870D02*
X287882635Y-199408013D01*
X287882635Y-199408013D02*
X288025492Y-199193727D01*
X288025492Y-199193727D02*
X288096921Y-199122298D01*
X319596917Y-201751500D02*
X319596917Y-202822929D01*
X319596917Y-202822929D02*
X319668346Y-203037214D01*
X319668346Y-203037214D02*
X319811203Y-203180072D01*
X319811203Y-203180072D02*
X320025489Y-203251500D01*
X320025489Y-203251500D02*
X320168346Y-203251500D01*
X318882632Y-203251500D02*
X318882632Y-201751500D01*
X318882632Y-201751500D02*
X318382632Y-202822929D01*
X318382632Y-202822929D02*
X317882632Y-201751500D01*
X317882632Y-201751500D02*
X317882632Y-203251500D01*
X317168346Y-203251500D02*
X317168346Y-201751500D01*
X317168346Y-201751500D02*
X316596917Y-201751500D01*
X316596917Y-201751500D02*
X316454060Y-201822929D01*
X316454060Y-201822929D02*
X316382631Y-201894357D01*
X316382631Y-201894357D02*
X316311203Y-202037214D01*
X316311203Y-202037214D02*
X316311203Y-202251500D01*
X316311203Y-202251500D02*
X316382631Y-202394357D01*
X316382631Y-202394357D02*
X316454060Y-202465786D01*
X316454060Y-202465786D02*
X316596917Y-202537214D01*
X316596917Y-202537214D02*
X317168346Y-202537214D01*
X315739774Y-201894357D02*
X315668346Y-201822929D01*
X315668346Y-201822929D02*
X315525489Y-201751500D01*
X315525489Y-201751500D02*
X315168346Y-201751500D01*
X315168346Y-201751500D02*
X315025489Y-201822929D01*
X315025489Y-201822929D02*
X314954060Y-201894357D01*
X314954060Y-201894357D02*
X314882631Y-202037214D01*
X314882631Y-202037214D02*
X314882631Y-202180072D01*
X314882631Y-202180072D02*
X314954060Y-202394357D01*
X314954060Y-202394357D02*
X315811203Y-203251500D01*
X315811203Y-203251500D02*
X314882631Y-203251500D01*
X307525489Y-203108643D02*
X307596917Y-203180072D01*
X307596917Y-203180072D02*
X307811203Y-203251500D01*
X307811203Y-203251500D02*
X307954060Y-203251500D01*
X307954060Y-203251500D02*
X308168346Y-203180072D01*
X308168346Y-203180072D02*
X308311203Y-203037214D01*
X308311203Y-203037214D02*
X308382632Y-202894357D01*
X308382632Y-202894357D02*
X308454060Y-202608643D01*
X308454060Y-202608643D02*
X308454060Y-202394357D01*
X308454060Y-202394357D02*
X308382632Y-202108643D01*
X308382632Y-202108643D02*
X308311203Y-201965786D01*
X308311203Y-201965786D02*
X308168346Y-201822929D01*
X308168346Y-201822929D02*
X307954060Y-201751500D01*
X307954060Y-201751500D02*
X307811203Y-201751500D01*
X307811203Y-201751500D02*
X307596917Y-201822929D01*
X307596917Y-201822929D02*
X307525489Y-201894357D01*
X307096917Y-201751500D02*
X306239775Y-201751500D01*
X306668346Y-203251500D02*
X306668346Y-201751500D01*
X305811203Y-203180072D02*
X305596918Y-203251500D01*
X305596918Y-203251500D02*
X305239775Y-203251500D01*
X305239775Y-203251500D02*
X305096918Y-203180072D01*
X305096918Y-203180072D02*
X305025489Y-203108643D01*
X305025489Y-203108643D02*
X304954060Y-202965786D01*
X304954060Y-202965786D02*
X304954060Y-202822929D01*
X304954060Y-202822929D02*
X305025489Y-202680072D01*
X305025489Y-202680072D02*
X305096918Y-202608643D01*
X305096918Y-202608643D02*
X305239775Y-202537214D01*
X305239775Y-202537214D02*
X305525489Y-202465786D01*
X305525489Y-202465786D02*
X305668346Y-202394357D01*
X305668346Y-202394357D02*
X305739775Y-202322929D01*
X305739775Y-202322929D02*
X305811203Y-202180072D01*
X305811203Y-202180072D02*
X305811203Y-202037214D01*
X305811203Y-202037214D02*
X305739775Y-201894357D01*
X305739775Y-201894357D02*
X305668346Y-201822929D01*
X305668346Y-201822929D02*
X305525489Y-201751500D01*
X305525489Y-201751500D02*
X305168346Y-201751500D01*
X305168346Y-201751500D02*
X304954060Y-201822929D01*
X303239775Y-201680072D02*
X304525489Y-203608643D01*
X302739775Y-203251500D02*
X302739775Y-201751500D01*
X302739775Y-201751500D02*
X302382632Y-201751500D01*
X302382632Y-201751500D02*
X302168346Y-201822929D01*
X302168346Y-201822929D02*
X302025489Y-201965786D01*
X302025489Y-201965786D02*
X301954060Y-202108643D01*
X301954060Y-202108643D02*
X301882632Y-202394357D01*
X301882632Y-202394357D02*
X301882632Y-202608643D01*
X301882632Y-202608643D02*
X301954060Y-202894357D01*
X301954060Y-202894357D02*
X302025489Y-203037214D01*
X302025489Y-203037214D02*
X302168346Y-203180072D01*
X302168346Y-203180072D02*
X302382632Y-203251500D01*
X302382632Y-203251500D02*
X302739775Y-203251500D01*
X300382632Y-203108643D02*
X300454060Y-203180072D01*
X300454060Y-203180072D02*
X300668346Y-203251500D01*
X300668346Y-203251500D02*
X300811203Y-203251500D01*
X300811203Y-203251500D02*
X301025489Y-203180072D01*
X301025489Y-203180072D02*
X301168346Y-203037214D01*
X301168346Y-203037214D02*
X301239775Y-202894357D01*
X301239775Y-202894357D02*
X301311203Y-202608643D01*
X301311203Y-202608643D02*
X301311203Y-202394357D01*
X301311203Y-202394357D02*
X301239775Y-202108643D01*
X301239775Y-202108643D02*
X301168346Y-201965786D01*
X301168346Y-201965786D02*
X301025489Y-201822929D01*
X301025489Y-201822929D02*
X300811203Y-201751500D01*
X300811203Y-201751500D02*
X300668346Y-201751500D01*
X300668346Y-201751500D02*
X300454060Y-201822929D01*
X300454060Y-201822929D02*
X300382632Y-201894357D01*
X299739775Y-203251500D02*
X299739775Y-201751500D01*
X299739775Y-201751500D02*
X299382632Y-201751500D01*
X299382632Y-201751500D02*
X299168346Y-201822929D01*
X299168346Y-201822929D02*
X299025489Y-201965786D01*
X299025489Y-201965786D02*
X298954060Y-202108643D01*
X298954060Y-202108643D02*
X298882632Y-202394357D01*
X298882632Y-202394357D02*
X298882632Y-202608643D01*
X298882632Y-202608643D02*
X298954060Y-202894357D01*
X298954060Y-202894357D02*
X299025489Y-203037214D01*
X299025489Y-203037214D02*
X299168346Y-203180072D01*
X299168346Y-203180072D02*
X299382632Y-203251500D01*
X299382632Y-203251500D02*
X299739775Y-203251500D01*
X297168346Y-203180072D02*
X296954061Y-203251500D01*
X296954061Y-203251500D02*
X296596918Y-203251500D01*
X296596918Y-203251500D02*
X296454061Y-203180072D01*
X296454061Y-203180072D02*
X296382632Y-203108643D01*
X296382632Y-203108643D02*
X296311203Y-202965786D01*
X296311203Y-202965786D02*
X296311203Y-202822929D01*
X296311203Y-202822929D02*
X296382632Y-202680072D01*
X296382632Y-202680072D02*
X296454061Y-202608643D01*
X296454061Y-202608643D02*
X296596918Y-202537214D01*
X296596918Y-202537214D02*
X296882632Y-202465786D01*
X296882632Y-202465786D02*
X297025489Y-202394357D01*
X297025489Y-202394357D02*
X297096918Y-202322929D01*
X297096918Y-202322929D02*
X297168346Y-202180072D01*
X297168346Y-202180072D02*
X297168346Y-202037214D01*
X297168346Y-202037214D02*
X297096918Y-201894357D01*
X297096918Y-201894357D02*
X297025489Y-201822929D01*
X297025489Y-201822929D02*
X296882632Y-201751500D01*
X296882632Y-201751500D02*
X296525489Y-201751500D01*
X296525489Y-201751500D02*
X296311203Y-201822929D01*
X295096918Y-203180072D02*
X295239775Y-203251500D01*
X295239775Y-203251500D02*
X295525490Y-203251500D01*
X295525490Y-203251500D02*
X295668347Y-203180072D01*
X295668347Y-203180072D02*
X295739775Y-203037214D01*
X295739775Y-203037214D02*
X295739775Y-202465786D01*
X295739775Y-202465786D02*
X295668347Y-202322929D01*
X295668347Y-202322929D02*
X295525490Y-202251500D01*
X295525490Y-202251500D02*
X295239775Y-202251500D01*
X295239775Y-202251500D02*
X295096918Y-202322929D01*
X295096918Y-202322929D02*
X295025490Y-202465786D01*
X295025490Y-202465786D02*
X295025490Y-202608643D01*
X295025490Y-202608643D02*
X295739775Y-202751500D01*
X294168347Y-203251500D02*
X294311204Y-203180072D01*
X294311204Y-203180072D02*
X294382633Y-203037214D01*
X294382633Y-203037214D02*
X294382633Y-201751500D01*
X293025490Y-203180072D02*
X293168347Y-203251500D01*
X293168347Y-203251500D02*
X293454062Y-203251500D01*
X293454062Y-203251500D02*
X293596919Y-203180072D01*
X293596919Y-203180072D02*
X293668347Y-203037214D01*
X293668347Y-203037214D02*
X293668347Y-202465786D01*
X293668347Y-202465786D02*
X293596919Y-202322929D01*
X293596919Y-202322929D02*
X293454062Y-202251500D01*
X293454062Y-202251500D02*
X293168347Y-202251500D01*
X293168347Y-202251500D02*
X293025490Y-202322929D01*
X293025490Y-202322929D02*
X292954062Y-202465786D01*
X292954062Y-202465786D02*
X292954062Y-202608643D01*
X292954062Y-202608643D02*
X293668347Y-202751500D01*
X291668348Y-203180072D02*
X291811205Y-203251500D01*
X291811205Y-203251500D02*
X292096919Y-203251500D01*
X292096919Y-203251500D02*
X292239776Y-203180072D01*
X292239776Y-203180072D02*
X292311205Y-203108643D01*
X292311205Y-203108643D02*
X292382633Y-202965786D01*
X292382633Y-202965786D02*
X292382633Y-202537214D01*
X292382633Y-202537214D02*
X292311205Y-202394357D01*
X292311205Y-202394357D02*
X292239776Y-202322929D01*
X292239776Y-202322929D02*
X292096919Y-202251500D01*
X292096919Y-202251500D02*
X291811205Y-202251500D01*
X291811205Y-202251500D02*
X291668348Y-202322929D01*
X291239776Y-202251500D02*
X290668348Y-202251500D01*
X291025491Y-201751500D02*
X291025491Y-203037214D01*
X291025491Y-203037214D02*
X290954062Y-203180072D01*
X290954062Y-203180072D02*
X290811205Y-203251500D01*
X290811205Y-203251500D02*
X290668348Y-203251500D01*
X288596919Y-203822929D02*
X288668348Y-203751500D01*
X288668348Y-203751500D02*
X288811205Y-203537214D01*
X288811205Y-203537214D02*
X288882634Y-203394357D01*
X288882634Y-203394357D02*
X288954062Y-203180072D01*
X288954062Y-203180072D02*
X289025491Y-202822929D01*
X289025491Y-202822929D02*
X289025491Y-202537214D01*
X289025491Y-202537214D02*
X288954062Y-202180072D01*
X288954062Y-202180072D02*
X288882634Y-201965786D01*
X288882634Y-201965786D02*
X288811205Y-201822929D01*
X288811205Y-201822929D02*
X288668348Y-201608643D01*
X288668348Y-201608643D02*
X288596919Y-201537214D01*
X287382634Y-202251500D02*
X287382634Y-203251500D01*
X287739776Y-201680072D02*
X288096919Y-202751500D01*
X288096919Y-202751500D02*
X287168348Y-202751500D01*
X286596920Y-202680072D02*
X285454063Y-202680072D01*
X284025491Y-201751500D02*
X284739777Y-201751500D01*
X284739777Y-201751500D02*
X284811205Y-202465786D01*
X284811205Y-202465786D02*
X284739777Y-202394357D01*
X284739777Y-202394357D02*
X284596920Y-202322929D01*
X284596920Y-202322929D02*
X284239777Y-202322929D01*
X284239777Y-202322929D02*
X284096920Y-202394357D01*
X284096920Y-202394357D02*
X284025491Y-202465786D01*
X284025491Y-202465786D02*
X283954062Y-202608643D01*
X283954062Y-202608643D02*
X283954062Y-202965786D01*
X283954062Y-202965786D02*
X284025491Y-203108643D01*
X284025491Y-203108643D02*
X284096920Y-203180072D01*
X284096920Y-203180072D02*
X284239777Y-203251500D01*
X284239777Y-203251500D02*
X284596920Y-203251500D01*
X284596920Y-203251500D02*
X284739777Y-203180072D01*
X284739777Y-203180072D02*
X284811205Y-203108643D01*
X283239777Y-203180072D02*
X283239777Y-203251500D01*
X283239777Y-203251500D02*
X283311206Y-203394357D01*
X283311206Y-203394357D02*
X283382634Y-203465786D01*
X282739777Y-201751500D02*
X281739777Y-201751500D01*
X281739777Y-201751500D02*
X282382634Y-203251500D01*
X281168349Y-202680072D02*
X280025492Y-202680072D01*
X279096920Y-202394357D02*
X279239777Y-202322929D01*
X279239777Y-202322929D02*
X279311206Y-202251500D01*
X279311206Y-202251500D02*
X279382634Y-202108643D01*
X279382634Y-202108643D02*
X279382634Y-202037214D01*
X279382634Y-202037214D02*
X279311206Y-201894357D01*
X279311206Y-201894357D02*
X279239777Y-201822929D01*
X279239777Y-201822929D02*
X279096920Y-201751500D01*
X279096920Y-201751500D02*
X278811206Y-201751500D01*
X278811206Y-201751500D02*
X278668349Y-201822929D01*
X278668349Y-201822929D02*
X278596920Y-201894357D01*
X278596920Y-201894357D02*
X278525491Y-202037214D01*
X278525491Y-202037214D02*
X278525491Y-202108643D01*
X278525491Y-202108643D02*
X278596920Y-202251500D01*
X278596920Y-202251500D02*
X278668349Y-202322929D01*
X278668349Y-202322929D02*
X278811206Y-202394357D01*
X278811206Y-202394357D02*
X279096920Y-202394357D01*
X279096920Y-202394357D02*
X279239777Y-202465786D01*
X279239777Y-202465786D02*
X279311206Y-202537214D01*
X279311206Y-202537214D02*
X279382634Y-202680072D01*
X279382634Y-202680072D02*
X279382634Y-202965786D01*
X279382634Y-202965786D02*
X279311206Y-203108643D01*
X279311206Y-203108643D02*
X279239777Y-203180072D01*
X279239777Y-203180072D02*
X279096920Y-203251500D01*
X279096920Y-203251500D02*
X278811206Y-203251500D01*
X278811206Y-203251500D02*
X278668349Y-203180072D01*
X278668349Y-203180072D02*
X278596920Y-203108643D01*
X278596920Y-203108643D02*
X278525491Y-202965786D01*
X278525491Y-202965786D02*
X278525491Y-202680072D01*
X278525491Y-202680072D02*
X278596920Y-202537214D01*
X278596920Y-202537214D02*
X278668349Y-202465786D01*
X278668349Y-202465786D02*
X278811206Y-202394357D01*
X278025492Y-203822929D02*
X277954063Y-203751500D01*
X277954063Y-203751500D02*
X277811206Y-203537214D01*
X277811206Y-203537214D02*
X277739778Y-203394357D01*
X277739778Y-203394357D02*
X277668349Y-203180072D01*
X277668349Y-203180072D02*
X277596920Y-202822929D01*
X277596920Y-202822929D02*
X277596920Y-202537214D01*
X277596920Y-202537214D02*
X277668349Y-202180072D01*
X277668349Y-202180072D02*
X277739778Y-201965786D01*
X277739778Y-201965786D02*
X277811206Y-201822929D01*
X277811206Y-201822929D02*
X277954063Y-201608643D01*
X277954063Y-201608643D02*
X278025492Y-201537214D01*
X319596917Y-204166416D02*
X319596917Y-205237845D01*
X319596917Y-205237845D02*
X319668346Y-205452130D01*
X319668346Y-205452130D02*
X319811203Y-205594988D01*
X319811203Y-205594988D02*
X320025489Y-205666416D01*
X320025489Y-205666416D02*
X320168346Y-205666416D01*
X318882632Y-205666416D02*
X318882632Y-204166416D01*
X318882632Y-204166416D02*
X318382632Y-205237845D01*
X318382632Y-205237845D02*
X317882632Y-204166416D01*
X317882632Y-204166416D02*
X317882632Y-205666416D01*
X317168346Y-205666416D02*
X317168346Y-204166416D01*
X317168346Y-204166416D02*
X316596917Y-204166416D01*
X316596917Y-204166416D02*
X316454060Y-204237845D01*
X316454060Y-204237845D02*
X316382631Y-204309273D01*
X316382631Y-204309273D02*
X316311203Y-204452130D01*
X316311203Y-204452130D02*
X316311203Y-204666416D01*
X316311203Y-204666416D02*
X316382631Y-204809273D01*
X316382631Y-204809273D02*
X316454060Y-204880702D01*
X316454060Y-204880702D02*
X316596917Y-204952130D01*
X316596917Y-204952130D02*
X317168346Y-204952130D01*
X315811203Y-204166416D02*
X314882631Y-204166416D01*
X314882631Y-204166416D02*
X315382631Y-204737845D01*
X315382631Y-204737845D02*
X315168346Y-204737845D01*
X315168346Y-204737845D02*
X315025489Y-204809273D01*
X315025489Y-204809273D02*
X314954060Y-204880702D01*
X314954060Y-204880702D02*
X314882631Y-205023559D01*
X314882631Y-205023559D02*
X314882631Y-205380702D01*
X314882631Y-205380702D02*
X314954060Y-205523559D01*
X314954060Y-205523559D02*
X315025489Y-205594988D01*
X315025489Y-205594988D02*
X315168346Y-205666416D01*
X315168346Y-205666416D02*
X315596917Y-205666416D01*
X315596917Y-205666416D02*
X315739774Y-205594988D01*
X315739774Y-205594988D02*
X315811203Y-205523559D01*
X308525489Y-204166416D02*
X307525489Y-205666416D01*
X307525489Y-204166416D02*
X308525489Y-205666416D01*
X307168346Y-204166416D02*
X306311204Y-204166416D01*
X306739775Y-205666416D02*
X306739775Y-204166416D01*
X304668347Y-205666416D02*
X304668347Y-204166416D01*
X303811204Y-205666416D02*
X304454061Y-204809273D01*
X303811204Y-204166416D02*
X304668347Y-205023559D01*
X302596918Y-205594988D02*
X302739775Y-205666416D01*
X302739775Y-205666416D02*
X303025490Y-205666416D01*
X303025490Y-205666416D02*
X303168347Y-205594988D01*
X303168347Y-205594988D02*
X303239775Y-205452130D01*
X303239775Y-205452130D02*
X303239775Y-204880702D01*
X303239775Y-204880702D02*
X303168347Y-204737845D01*
X303168347Y-204737845D02*
X303025490Y-204666416D01*
X303025490Y-204666416D02*
X302739775Y-204666416D01*
X302739775Y-204666416D02*
X302596918Y-204737845D01*
X302596918Y-204737845D02*
X302525490Y-204880702D01*
X302525490Y-204880702D02*
X302525490Y-205023559D01*
X302525490Y-205023559D02*
X303239775Y-205166416D01*
X302025490Y-204666416D02*
X301668347Y-205666416D01*
X301311204Y-204666416D02*
X301668347Y-205666416D01*
X301668347Y-205666416D02*
X301811204Y-206023559D01*
X301811204Y-206023559D02*
X301882633Y-206094988D01*
X301882633Y-206094988D02*
X302025490Y-206166416D01*
X300739776Y-205666416D02*
X300739776Y-204166416D01*
X300739776Y-204737845D02*
X300596919Y-204666416D01*
X300596919Y-204666416D02*
X300311204Y-204666416D01*
X300311204Y-204666416D02*
X300168347Y-204737845D01*
X300168347Y-204737845D02*
X300096919Y-204809273D01*
X300096919Y-204809273D02*
X300025490Y-204952130D01*
X300025490Y-204952130D02*
X300025490Y-205380702D01*
X300025490Y-205380702D02*
X300096919Y-205523559D01*
X300096919Y-205523559D02*
X300168347Y-205594988D01*
X300168347Y-205594988D02*
X300311204Y-205666416D01*
X300311204Y-205666416D02*
X300596919Y-205666416D01*
X300596919Y-205666416D02*
X300739776Y-205594988D01*
X299168347Y-205666416D02*
X299311204Y-205594988D01*
X299311204Y-205594988D02*
X299382633Y-205523559D01*
X299382633Y-205523559D02*
X299454061Y-205380702D01*
X299454061Y-205380702D02*
X299454061Y-204952130D01*
X299454061Y-204952130D02*
X299382633Y-204809273D01*
X299382633Y-204809273D02*
X299311204Y-204737845D01*
X299311204Y-204737845D02*
X299168347Y-204666416D01*
X299168347Y-204666416D02*
X298954061Y-204666416D01*
X298954061Y-204666416D02*
X298811204Y-204737845D01*
X298811204Y-204737845D02*
X298739776Y-204809273D01*
X298739776Y-204809273D02*
X298668347Y-204952130D01*
X298668347Y-204952130D02*
X298668347Y-205380702D01*
X298668347Y-205380702D02*
X298739776Y-205523559D01*
X298739776Y-205523559D02*
X298811204Y-205594988D01*
X298811204Y-205594988D02*
X298954061Y-205666416D01*
X298954061Y-205666416D02*
X299168347Y-205666416D01*
X297382633Y-205666416D02*
X297382633Y-204880702D01*
X297382633Y-204880702D02*
X297454061Y-204737845D01*
X297454061Y-204737845D02*
X297596918Y-204666416D01*
X297596918Y-204666416D02*
X297882633Y-204666416D01*
X297882633Y-204666416D02*
X298025490Y-204737845D01*
X297382633Y-205594988D02*
X297525490Y-205666416D01*
X297525490Y-205666416D02*
X297882633Y-205666416D01*
X297882633Y-205666416D02*
X298025490Y-205594988D01*
X298025490Y-205594988D02*
X298096918Y-205452130D01*
X298096918Y-205452130D02*
X298096918Y-205309273D01*
X298096918Y-205309273D02*
X298025490Y-205166416D01*
X298025490Y-205166416D02*
X297882633Y-205094988D01*
X297882633Y-205094988D02*
X297525490Y-205094988D01*
X297525490Y-205094988D02*
X297382633Y-205023559D01*
X296668347Y-205666416D02*
X296668347Y-204666416D01*
X296668347Y-204952130D02*
X296596918Y-204809273D01*
X296596918Y-204809273D02*
X296525490Y-204737845D01*
X296525490Y-204737845D02*
X296382632Y-204666416D01*
X296382632Y-204666416D02*
X296239775Y-204666416D01*
X295096919Y-205666416D02*
X295096919Y-204166416D01*
X295096919Y-205594988D02*
X295239776Y-205666416D01*
X295239776Y-205666416D02*
X295525490Y-205666416D01*
X295525490Y-205666416D02*
X295668347Y-205594988D01*
X295668347Y-205594988D02*
X295739776Y-205523559D01*
X295739776Y-205523559D02*
X295811204Y-205380702D01*
X295811204Y-205380702D02*
X295811204Y-204952130D01*
X295811204Y-204952130D02*
X295739776Y-204809273D01*
X295739776Y-204809273D02*
X295668347Y-204737845D01*
X295668347Y-204737845D02*
X295525490Y-204666416D01*
X295525490Y-204666416D02*
X295239776Y-204666416D01*
X295239776Y-204666416D02*
X295096919Y-204737845D01*
X292739776Y-204880702D02*
X293239776Y-204880702D01*
X293239776Y-205666416D02*
X293239776Y-204166416D01*
X293239776Y-204166416D02*
X292525490Y-204166416D01*
X291954062Y-205666416D02*
X291954062Y-204666416D01*
X291954062Y-204166416D02*
X292025490Y-204237845D01*
X292025490Y-204237845D02*
X291954062Y-204309273D01*
X291954062Y-204309273D02*
X291882633Y-204237845D01*
X291882633Y-204237845D02*
X291954062Y-204166416D01*
X291954062Y-204166416D02*
X291954062Y-204309273D01*
X291382633Y-205666416D02*
X290596919Y-204666416D01*
X291382633Y-204666416D02*
X290596919Y-205666416D01*
X288454061Y-206237845D02*
X288525490Y-206166416D01*
X288525490Y-206166416D02*
X288668347Y-205952130D01*
X288668347Y-205952130D02*
X288739776Y-205809273D01*
X288739776Y-205809273D02*
X288811204Y-205594988D01*
X288811204Y-205594988D02*
X288882633Y-205237845D01*
X288882633Y-205237845D02*
X288882633Y-204952130D01*
X288882633Y-204952130D02*
X288811204Y-204594988D01*
X288811204Y-204594988D02*
X288739776Y-204380702D01*
X288739776Y-204380702D02*
X288668347Y-204237845D01*
X288668347Y-204237845D02*
X288525490Y-204023559D01*
X288525490Y-204023559D02*
X288454061Y-203952130D01*
X287096918Y-205666416D02*
X287954061Y-205666416D01*
X287525490Y-205666416D02*
X287525490Y-204166416D01*
X287525490Y-204166416D02*
X287668347Y-204380702D01*
X287668347Y-204380702D02*
X287811204Y-204523559D01*
X287811204Y-204523559D02*
X287954061Y-204594988D01*
X286454062Y-205094988D02*
X285311205Y-205094988D01*
X284668347Y-204309273D02*
X284596919Y-204237845D01*
X284596919Y-204237845D02*
X284454062Y-204166416D01*
X284454062Y-204166416D02*
X284096919Y-204166416D01*
X284096919Y-204166416D02*
X283954062Y-204237845D01*
X283954062Y-204237845D02*
X283882633Y-204309273D01*
X283882633Y-204309273D02*
X283811204Y-204452130D01*
X283811204Y-204452130D02*
X283811204Y-204594988D01*
X283811204Y-204594988D02*
X283882633Y-204809273D01*
X283882633Y-204809273D02*
X284739776Y-205666416D01*
X284739776Y-205666416D02*
X283811204Y-205666416D01*
X282025491Y-205666416D02*
X282025491Y-204166416D01*
X282025491Y-204166416D02*
X281668348Y-204166416D01*
X281668348Y-204166416D02*
X281454062Y-204237845D01*
X281454062Y-204237845D02*
X281311205Y-204380702D01*
X281311205Y-204380702D02*
X281239776Y-204523559D01*
X281239776Y-204523559D02*
X281168348Y-204809273D01*
X281168348Y-204809273D02*
X281168348Y-205023559D01*
X281168348Y-205023559D02*
X281239776Y-205309273D01*
X281239776Y-205309273D02*
X281311205Y-205452130D01*
X281311205Y-205452130D02*
X281454062Y-205594988D01*
X281454062Y-205594988D02*
X281668348Y-205666416D01*
X281668348Y-205666416D02*
X282025491Y-205666416D01*
X279382634Y-205666416D02*
X279382634Y-204166416D01*
X279382634Y-204166416D02*
X278525491Y-205666416D01*
X278525491Y-205666416D02*
X278525491Y-204166416D01*
X277596919Y-205666416D02*
X277739776Y-205594988D01*
X277739776Y-205594988D02*
X277811205Y-205523559D01*
X277811205Y-205523559D02*
X277882633Y-205380702D01*
X277882633Y-205380702D02*
X277882633Y-204952130D01*
X277882633Y-204952130D02*
X277811205Y-204809273D01*
X277811205Y-204809273D02*
X277739776Y-204737845D01*
X277739776Y-204737845D02*
X277596919Y-204666416D01*
X277596919Y-204666416D02*
X277382633Y-204666416D01*
X277382633Y-204666416D02*
X277239776Y-204737845D01*
X277239776Y-204737845D02*
X277168348Y-204809273D01*
X277168348Y-204809273D02*
X277096919Y-204952130D01*
X277096919Y-204952130D02*
X277096919Y-205380702D01*
X277096919Y-205380702D02*
X277168348Y-205523559D01*
X277168348Y-205523559D02*
X277239776Y-205594988D01*
X277239776Y-205594988D02*
X277382633Y-205666416D01*
X277382633Y-205666416D02*
X277596919Y-205666416D01*
X276454062Y-205666416D02*
X276454062Y-204666416D01*
X276454062Y-204952130D02*
X276382633Y-204809273D01*
X276382633Y-204809273D02*
X276311205Y-204737845D01*
X276311205Y-204737845D02*
X276168347Y-204666416D01*
X276168347Y-204666416D02*
X276025490Y-204666416D01*
X275525491Y-205666416D02*
X275525491Y-204666416D01*
X275525491Y-204809273D02*
X275454062Y-204737845D01*
X275454062Y-204737845D02*
X275311205Y-204666416D01*
X275311205Y-204666416D02*
X275096919Y-204666416D01*
X275096919Y-204666416D02*
X274954062Y-204737845D01*
X274954062Y-204737845D02*
X274882634Y-204880702D01*
X274882634Y-204880702D02*
X274882634Y-205666416D01*
X274882634Y-204880702D02*
X274811205Y-204737845D01*
X274811205Y-204737845D02*
X274668348Y-204666416D01*
X274668348Y-204666416D02*
X274454062Y-204666416D01*
X274454062Y-204666416D02*
X274311205Y-204737845D01*
X274311205Y-204737845D02*
X274239776Y-204880702D01*
X274239776Y-204880702D02*
X274239776Y-205666416D01*
X272882634Y-205666416D02*
X272882634Y-204880702D01*
X272882634Y-204880702D02*
X272954062Y-204737845D01*
X272954062Y-204737845D02*
X273096919Y-204666416D01*
X273096919Y-204666416D02*
X273382634Y-204666416D01*
X273382634Y-204666416D02*
X273525491Y-204737845D01*
X272882634Y-205594988D02*
X273025491Y-205666416D01*
X273025491Y-205666416D02*
X273382634Y-205666416D01*
X273382634Y-205666416D02*
X273525491Y-205594988D01*
X273525491Y-205594988D02*
X273596919Y-205452130D01*
X273596919Y-205452130D02*
X273596919Y-205309273D01*
X273596919Y-205309273D02*
X273525491Y-205166416D01*
X273525491Y-205166416D02*
X273382634Y-205094988D01*
X273382634Y-205094988D02*
X273025491Y-205094988D01*
X273025491Y-205094988D02*
X272882634Y-205023559D01*
X271954062Y-205666416D02*
X272096919Y-205594988D01*
X272096919Y-205594988D02*
X272168348Y-205452130D01*
X272168348Y-205452130D02*
X272168348Y-204166416D01*
X271311205Y-205594988D02*
X271311205Y-205666416D01*
X271311205Y-205666416D02*
X271382634Y-205809273D01*
X271382634Y-205809273D02*
X271454062Y-205880702D01*
X269596919Y-204309273D02*
X269525491Y-204237845D01*
X269525491Y-204237845D02*
X269382634Y-204166416D01*
X269382634Y-204166416D02*
X269025491Y-204166416D01*
X269025491Y-204166416D02*
X268882634Y-204237845D01*
X268882634Y-204237845D02*
X268811205Y-204309273D01*
X268811205Y-204309273D02*
X268739776Y-204452130D01*
X268739776Y-204452130D02*
X268739776Y-204594988D01*
X268739776Y-204594988D02*
X268811205Y-204809273D01*
X268811205Y-204809273D02*
X269668348Y-205666416D01*
X269668348Y-205666416D02*
X268739776Y-205666416D01*
X268096920Y-205094988D02*
X266954063Y-205094988D01*
X266382634Y-204166416D02*
X265454062Y-204166416D01*
X265454062Y-204166416D02*
X265954062Y-204737845D01*
X265954062Y-204737845D02*
X265739777Y-204737845D01*
X265739777Y-204737845D02*
X265596920Y-204809273D01*
X265596920Y-204809273D02*
X265525491Y-204880702D01*
X265525491Y-204880702D02*
X265454062Y-205023559D01*
X265454062Y-205023559D02*
X265454062Y-205380702D01*
X265454062Y-205380702D02*
X265525491Y-205523559D01*
X265525491Y-205523559D02*
X265596920Y-205594988D01*
X265596920Y-205594988D02*
X265739777Y-205666416D01*
X265739777Y-205666416D02*
X266168348Y-205666416D01*
X266168348Y-205666416D02*
X266311205Y-205594988D01*
X266311205Y-205594988D02*
X266382634Y-205523559D01*
X263668349Y-204166416D02*
X263668349Y-205380702D01*
X263668349Y-205380702D02*
X263596920Y-205523559D01*
X263596920Y-205523559D02*
X263525492Y-205594988D01*
X263525492Y-205594988D02*
X263382634Y-205666416D01*
X263382634Y-205666416D02*
X263096920Y-205666416D01*
X263096920Y-205666416D02*
X262954063Y-205594988D01*
X262954063Y-205594988D02*
X262882634Y-205523559D01*
X262882634Y-205523559D02*
X262811206Y-205380702D01*
X262811206Y-205380702D02*
X262811206Y-204166416D01*
X260454063Y-204880702D02*
X260954063Y-204880702D01*
X260954063Y-205666416D02*
X260954063Y-204166416D01*
X260954063Y-204166416D02*
X260239777Y-204166416D01*
X259668349Y-205666416D02*
X259668349Y-204666416D01*
X259668349Y-204166416D02*
X259739777Y-204237845D01*
X259739777Y-204237845D02*
X259668349Y-204309273D01*
X259668349Y-204309273D02*
X259596920Y-204237845D01*
X259596920Y-204237845D02*
X259668349Y-204166416D01*
X259668349Y-204166416D02*
X259668349Y-204309273D01*
X259096920Y-205666416D02*
X258311206Y-204666416D01*
X259096920Y-204666416D02*
X258311206Y-205666416D01*
X257882634Y-206237845D02*
X257811205Y-206166416D01*
X257811205Y-206166416D02*
X257668348Y-205952130D01*
X257668348Y-205952130D02*
X257596920Y-205809273D01*
X257596920Y-205809273D02*
X257525491Y-205594988D01*
X257525491Y-205594988D02*
X257454062Y-205237845D01*
X257454062Y-205237845D02*
X257454062Y-204952130D01*
X257454062Y-204952130D02*
X257525491Y-204594988D01*
X257525491Y-204594988D02*
X257596920Y-204380702D01*
X257596920Y-204380702D02*
X257668348Y-204237845D01*
X257668348Y-204237845D02*
X257811205Y-204023559D01*
X257811205Y-204023559D02*
X257882634Y-203952130D01*
X319596917Y-206581332D02*
X319596917Y-207652761D01*
X319596917Y-207652761D02*
X319668346Y-207867046D01*
X319668346Y-207867046D02*
X319811203Y-208009904D01*
X319811203Y-208009904D02*
X320025489Y-208081332D01*
X320025489Y-208081332D02*
X320168346Y-208081332D01*
X318882632Y-208081332D02*
X318882632Y-206581332D01*
X318882632Y-206581332D02*
X318382632Y-207652761D01*
X318382632Y-207652761D02*
X317882632Y-206581332D01*
X317882632Y-206581332D02*
X317882632Y-208081332D01*
X317168346Y-208081332D02*
X317168346Y-206581332D01*
X317168346Y-206581332D02*
X316596917Y-206581332D01*
X316596917Y-206581332D02*
X316454060Y-206652761D01*
X316454060Y-206652761D02*
X316382631Y-206724189D01*
X316382631Y-206724189D02*
X316311203Y-206867046D01*
X316311203Y-206867046D02*
X316311203Y-207081332D01*
X316311203Y-207081332D02*
X316382631Y-207224189D01*
X316382631Y-207224189D02*
X316454060Y-207295618D01*
X316454060Y-207295618D02*
X316596917Y-207367046D01*
X316596917Y-207367046D02*
X317168346Y-207367046D01*
X315025489Y-207081332D02*
X315025489Y-208081332D01*
X315382631Y-206509904D02*
X315739774Y-207581332D01*
X315739774Y-207581332D02*
X314811203Y-207581332D01*
X307882632Y-207295618D02*
X308382632Y-207295618D01*
X308382632Y-208081332D02*
X308382632Y-206581332D01*
X308382632Y-206581332D02*
X307668346Y-206581332D01*
X307096918Y-208081332D02*
X307096918Y-206581332D01*
X307096918Y-206581332D02*
X306739775Y-206581332D01*
X306739775Y-206581332D02*
X306525489Y-206652761D01*
X306525489Y-206652761D02*
X306382632Y-206795618D01*
X306382632Y-206795618D02*
X306311203Y-206938475D01*
X306311203Y-206938475D02*
X306239775Y-207224189D01*
X306239775Y-207224189D02*
X306239775Y-207438475D01*
X306239775Y-207438475D02*
X306311203Y-207724189D01*
X306311203Y-207724189D02*
X306382632Y-207867046D01*
X306382632Y-207867046D02*
X306525489Y-208009904D01*
X306525489Y-208009904D02*
X306739775Y-208081332D01*
X306739775Y-208081332D02*
X307096918Y-208081332D01*
X304739775Y-207938475D02*
X304811203Y-208009904D01*
X304811203Y-208009904D02*
X305025489Y-208081332D01*
X305025489Y-208081332D02*
X305168346Y-208081332D01*
X305168346Y-208081332D02*
X305382632Y-208009904D01*
X305382632Y-208009904D02*
X305525489Y-207867046D01*
X305525489Y-207867046D02*
X305596918Y-207724189D01*
X305596918Y-207724189D02*
X305668346Y-207438475D01*
X305668346Y-207438475D02*
X305668346Y-207224189D01*
X305668346Y-207224189D02*
X305596918Y-206938475D01*
X305596918Y-206938475D02*
X305525489Y-206795618D01*
X305525489Y-206795618D02*
X305382632Y-206652761D01*
X305382632Y-206652761D02*
X305168346Y-206581332D01*
X305168346Y-206581332D02*
X305025489Y-206581332D01*
X305025489Y-206581332D02*
X304811203Y-206652761D01*
X304811203Y-206652761D02*
X304739775Y-206724189D01*
X302096918Y-208081332D02*
X302596918Y-207367046D01*
X302954061Y-208081332D02*
X302954061Y-206581332D01*
X302954061Y-206581332D02*
X302382632Y-206581332D01*
X302382632Y-206581332D02*
X302239775Y-206652761D01*
X302239775Y-206652761D02*
X302168346Y-206724189D01*
X302168346Y-206724189D02*
X302096918Y-206867046D01*
X302096918Y-206867046D02*
X302096918Y-207081332D01*
X302096918Y-207081332D02*
X302168346Y-207224189D01*
X302168346Y-207224189D02*
X302239775Y-207295618D01*
X302239775Y-207295618D02*
X302382632Y-207367046D01*
X302382632Y-207367046D02*
X302954061Y-207367046D01*
X300882632Y-208009904D02*
X301025489Y-208081332D01*
X301025489Y-208081332D02*
X301311204Y-208081332D01*
X301311204Y-208081332D02*
X301454061Y-208009904D01*
X301454061Y-208009904D02*
X301525489Y-207867046D01*
X301525489Y-207867046D02*
X301525489Y-207295618D01*
X301525489Y-207295618D02*
X301454061Y-207152761D01*
X301454061Y-207152761D02*
X301311204Y-207081332D01*
X301311204Y-207081332D02*
X301025489Y-207081332D01*
X301025489Y-207081332D02*
X300882632Y-207152761D01*
X300882632Y-207152761D02*
X300811204Y-207295618D01*
X300811204Y-207295618D02*
X300811204Y-207438475D01*
X300811204Y-207438475D02*
X301525489Y-207581332D01*
X299525490Y-208081332D02*
X299525490Y-207295618D01*
X299525490Y-207295618D02*
X299596918Y-207152761D01*
X299596918Y-207152761D02*
X299739775Y-207081332D01*
X299739775Y-207081332D02*
X300025490Y-207081332D01*
X300025490Y-207081332D02*
X300168347Y-207152761D01*
X299525490Y-208009904D02*
X299668347Y-208081332D01*
X299668347Y-208081332D02*
X300025490Y-208081332D01*
X300025490Y-208081332D02*
X300168347Y-208009904D01*
X300168347Y-208009904D02*
X300239775Y-207867046D01*
X300239775Y-207867046D02*
X300239775Y-207724189D01*
X300239775Y-207724189D02*
X300168347Y-207581332D01*
X300168347Y-207581332D02*
X300025490Y-207509904D01*
X300025490Y-207509904D02*
X299668347Y-207509904D01*
X299668347Y-207509904D02*
X299525490Y-207438475D01*
X298168347Y-208081332D02*
X298168347Y-206581332D01*
X298168347Y-208009904D02*
X298311204Y-208081332D01*
X298311204Y-208081332D02*
X298596918Y-208081332D01*
X298596918Y-208081332D02*
X298739775Y-208009904D01*
X298739775Y-208009904D02*
X298811204Y-207938475D01*
X298811204Y-207938475D02*
X298882632Y-207795618D01*
X298882632Y-207795618D02*
X298882632Y-207367046D01*
X298882632Y-207367046D02*
X298811204Y-207224189D01*
X298811204Y-207224189D02*
X298739775Y-207152761D01*
X298739775Y-207152761D02*
X298596918Y-207081332D01*
X298596918Y-207081332D02*
X298311204Y-207081332D01*
X298311204Y-207081332D02*
X298168347Y-207152761D01*
X297596918Y-207081332D02*
X297239775Y-208081332D01*
X296882632Y-207081332D02*
X297239775Y-208081332D01*
X297239775Y-208081332D02*
X297382632Y-208438475D01*
X297382632Y-208438475D02*
X297454061Y-208509904D01*
X297454061Y-208509904D02*
X297596918Y-208581332D01*
X319596917Y-208996248D02*
X319596917Y-210067677D01*
X319596917Y-210067677D02*
X319668346Y-210281962D01*
X319668346Y-210281962D02*
X319811203Y-210424820D01*
X319811203Y-210424820D02*
X320025489Y-210496248D01*
X320025489Y-210496248D02*
X320168346Y-210496248D01*
X318882632Y-210496248D02*
X318882632Y-208996248D01*
X318882632Y-208996248D02*
X318382632Y-210067677D01*
X318382632Y-210067677D02*
X317882632Y-208996248D01*
X317882632Y-208996248D02*
X317882632Y-210496248D01*
X317168346Y-210496248D02*
X317168346Y-208996248D01*
X317168346Y-208996248D02*
X316596917Y-208996248D01*
X316596917Y-208996248D02*
X316454060Y-209067677D01*
X316454060Y-209067677D02*
X316382631Y-209139105D01*
X316382631Y-209139105D02*
X316311203Y-209281962D01*
X316311203Y-209281962D02*
X316311203Y-209496248D01*
X316311203Y-209496248D02*
X316382631Y-209639105D01*
X316382631Y-209639105D02*
X316454060Y-209710534D01*
X316454060Y-209710534D02*
X316596917Y-209781962D01*
X316596917Y-209781962D02*
X317168346Y-209781962D01*
X314954060Y-208996248D02*
X315668346Y-208996248D01*
X315668346Y-208996248D02*
X315739774Y-209710534D01*
X315739774Y-209710534D02*
X315668346Y-209639105D01*
X315668346Y-209639105D02*
X315525489Y-209567677D01*
X315525489Y-209567677D02*
X315168346Y-209567677D01*
X315168346Y-209567677D02*
X315025489Y-209639105D01*
X315025489Y-209639105D02*
X314954060Y-209710534D01*
X314954060Y-209710534D02*
X314882631Y-209853391D01*
X314882631Y-209853391D02*
X314882631Y-210210534D01*
X314882631Y-210210534D02*
X314954060Y-210353391D01*
X314954060Y-210353391D02*
X315025489Y-210424820D01*
X315025489Y-210424820D02*
X315168346Y-210496248D01*
X315168346Y-210496248D02*
X315525489Y-210496248D01*
X315525489Y-210496248D02*
X315668346Y-210424820D01*
X315668346Y-210424820D02*
X315739774Y-210353391D01*
X308382632Y-210496248D02*
X308382632Y-208996248D01*
X307525489Y-210496248D02*
X308168346Y-209639105D01*
X307525489Y-208996248D02*
X308382632Y-209853391D01*
X306311203Y-210424820D02*
X306454060Y-210496248D01*
X306454060Y-210496248D02*
X306739775Y-210496248D01*
X306739775Y-210496248D02*
X306882632Y-210424820D01*
X306882632Y-210424820D02*
X306954060Y-210281962D01*
X306954060Y-210281962D02*
X306954060Y-209710534D01*
X306954060Y-209710534D02*
X306882632Y-209567677D01*
X306882632Y-209567677D02*
X306739775Y-209496248D01*
X306739775Y-209496248D02*
X306454060Y-209496248D01*
X306454060Y-209496248D02*
X306311203Y-209567677D01*
X306311203Y-209567677D02*
X306239775Y-209710534D01*
X306239775Y-209710534D02*
X306239775Y-209853391D01*
X306239775Y-209853391D02*
X306954060Y-209996248D01*
X305739775Y-209496248D02*
X305382632Y-210496248D01*
X305025489Y-209496248D02*
X305382632Y-210496248D01*
X305382632Y-210496248D02*
X305525489Y-210853391D01*
X305525489Y-210853391D02*
X305596918Y-210924820D01*
X305596918Y-210924820D02*
X305739775Y-210996248D01*
X304454061Y-210496248D02*
X304454061Y-208996248D01*
X304454061Y-209567677D02*
X304311204Y-209496248D01*
X304311204Y-209496248D02*
X304025489Y-209496248D01*
X304025489Y-209496248D02*
X303882632Y-209567677D01*
X303882632Y-209567677D02*
X303811204Y-209639105D01*
X303811204Y-209639105D02*
X303739775Y-209781962D01*
X303739775Y-209781962D02*
X303739775Y-210210534D01*
X303739775Y-210210534D02*
X303811204Y-210353391D01*
X303811204Y-210353391D02*
X303882632Y-210424820D01*
X303882632Y-210424820D02*
X304025489Y-210496248D01*
X304025489Y-210496248D02*
X304311204Y-210496248D01*
X304311204Y-210496248D02*
X304454061Y-210424820D01*
X302882632Y-210496248D02*
X303025489Y-210424820D01*
X303025489Y-210424820D02*
X303096918Y-210353391D01*
X303096918Y-210353391D02*
X303168346Y-210210534D01*
X303168346Y-210210534D02*
X303168346Y-209781962D01*
X303168346Y-209781962D02*
X303096918Y-209639105D01*
X303096918Y-209639105D02*
X303025489Y-209567677D01*
X303025489Y-209567677D02*
X302882632Y-209496248D01*
X302882632Y-209496248D02*
X302668346Y-209496248D01*
X302668346Y-209496248D02*
X302525489Y-209567677D01*
X302525489Y-209567677D02*
X302454061Y-209639105D01*
X302454061Y-209639105D02*
X302382632Y-209781962D01*
X302382632Y-209781962D02*
X302382632Y-210210534D01*
X302382632Y-210210534D02*
X302454061Y-210353391D01*
X302454061Y-210353391D02*
X302525489Y-210424820D01*
X302525489Y-210424820D02*
X302668346Y-210496248D01*
X302668346Y-210496248D02*
X302882632Y-210496248D01*
X301096918Y-210496248D02*
X301096918Y-209710534D01*
X301096918Y-209710534D02*
X301168346Y-209567677D01*
X301168346Y-209567677D02*
X301311203Y-209496248D01*
X301311203Y-209496248D02*
X301596918Y-209496248D01*
X301596918Y-209496248D02*
X301739775Y-209567677D01*
X301096918Y-210424820D02*
X301239775Y-210496248D01*
X301239775Y-210496248D02*
X301596918Y-210496248D01*
X301596918Y-210496248D02*
X301739775Y-210424820D01*
X301739775Y-210424820D02*
X301811203Y-210281962D01*
X301811203Y-210281962D02*
X301811203Y-210139105D01*
X301811203Y-210139105D02*
X301739775Y-209996248D01*
X301739775Y-209996248D02*
X301596918Y-209924820D01*
X301596918Y-209924820D02*
X301239775Y-209924820D01*
X301239775Y-209924820D02*
X301096918Y-209853391D01*
X300382632Y-210496248D02*
X300382632Y-209496248D01*
X300382632Y-209781962D02*
X300311203Y-209639105D01*
X300311203Y-209639105D02*
X300239775Y-209567677D01*
X300239775Y-209567677D02*
X300096917Y-209496248D01*
X300096917Y-209496248D02*
X299954060Y-209496248D01*
X298811204Y-210496248D02*
X298811204Y-208996248D01*
X298811204Y-210424820D02*
X298954061Y-210496248D01*
X298954061Y-210496248D02*
X299239775Y-210496248D01*
X299239775Y-210496248D02*
X299382632Y-210424820D01*
X299382632Y-210424820D02*
X299454061Y-210353391D01*
X299454061Y-210353391D02*
X299525489Y-210210534D01*
X299525489Y-210210534D02*
X299525489Y-209781962D01*
X299525489Y-209781962D02*
X299454061Y-209639105D01*
X299454061Y-209639105D02*
X299382632Y-209567677D01*
X299382632Y-209567677D02*
X299239775Y-209496248D01*
X299239775Y-209496248D02*
X298954061Y-209496248D01*
X298954061Y-209496248D02*
X298811204Y-209567677D01*
X296954061Y-210496248D02*
X296954061Y-208996248D01*
X296954061Y-208996248D02*
X296382632Y-208996248D01*
X296382632Y-208996248D02*
X296239775Y-209067677D01*
X296239775Y-209067677D02*
X296168346Y-209139105D01*
X296168346Y-209139105D02*
X296096918Y-209281962D01*
X296096918Y-209281962D02*
X296096918Y-209496248D01*
X296096918Y-209496248D02*
X296168346Y-209639105D01*
X296168346Y-209639105D02*
X296239775Y-209710534D01*
X296239775Y-209710534D02*
X296382632Y-209781962D01*
X296382632Y-209781962D02*
X296954061Y-209781962D01*
X295239775Y-210496248D02*
X295382632Y-210424820D01*
X295382632Y-210424820D02*
X295454061Y-210353391D01*
X295454061Y-210353391D02*
X295525489Y-210210534D01*
X295525489Y-210210534D02*
X295525489Y-209781962D01*
X295525489Y-209781962D02*
X295454061Y-209639105D01*
X295454061Y-209639105D02*
X295382632Y-209567677D01*
X295382632Y-209567677D02*
X295239775Y-209496248D01*
X295239775Y-209496248D02*
X295025489Y-209496248D01*
X295025489Y-209496248D02*
X294882632Y-209567677D01*
X294882632Y-209567677D02*
X294811204Y-209639105D01*
X294811204Y-209639105D02*
X294739775Y-209781962D01*
X294739775Y-209781962D02*
X294739775Y-210210534D01*
X294739775Y-210210534D02*
X294811204Y-210353391D01*
X294811204Y-210353391D02*
X294882632Y-210424820D01*
X294882632Y-210424820D02*
X295025489Y-210496248D01*
X295025489Y-210496248D02*
X295239775Y-210496248D01*
X294239775Y-209496248D02*
X293954061Y-210496248D01*
X293954061Y-210496248D02*
X293668346Y-209781962D01*
X293668346Y-209781962D02*
X293382632Y-210496248D01*
X293382632Y-210496248D02*
X293096918Y-209496248D01*
X291954060Y-210424820D02*
X292096917Y-210496248D01*
X292096917Y-210496248D02*
X292382632Y-210496248D01*
X292382632Y-210496248D02*
X292525489Y-210424820D01*
X292525489Y-210424820D02*
X292596917Y-210281962D01*
X292596917Y-210281962D02*
X292596917Y-209710534D01*
X292596917Y-209710534D02*
X292525489Y-209567677D01*
X292525489Y-209567677D02*
X292382632Y-209496248D01*
X292382632Y-209496248D02*
X292096917Y-209496248D01*
X292096917Y-209496248D02*
X291954060Y-209567677D01*
X291954060Y-209567677D02*
X291882632Y-209710534D01*
X291882632Y-209710534D02*
X291882632Y-209853391D01*
X291882632Y-209853391D02*
X292596917Y-209996248D01*
X291239775Y-210496248D02*
X291239775Y-209496248D01*
X291239775Y-209781962D02*
X291168346Y-209639105D01*
X291168346Y-209639105D02*
X291096918Y-209567677D01*
X291096918Y-209567677D02*
X290954060Y-209496248D01*
X290954060Y-209496248D02*
X290811203Y-209496248D01*
X288739775Y-211067677D02*
X288811204Y-210996248D01*
X288811204Y-210996248D02*
X288954061Y-210781962D01*
X288954061Y-210781962D02*
X289025490Y-210639105D01*
X289025490Y-210639105D02*
X289096918Y-210424820D01*
X289096918Y-210424820D02*
X289168347Y-210067677D01*
X289168347Y-210067677D02*
X289168347Y-209781962D01*
X289168347Y-209781962D02*
X289096918Y-209424820D01*
X289096918Y-209424820D02*
X289025490Y-209210534D01*
X289025490Y-209210534D02*
X288954061Y-209067677D01*
X288954061Y-209067677D02*
X288811204Y-208853391D01*
X288811204Y-208853391D02*
X288739775Y-208781962D01*
X287382632Y-210496248D02*
X288239775Y-210496248D01*
X287811204Y-210496248D02*
X287811204Y-208996248D01*
X287811204Y-208996248D02*
X287954061Y-209210534D01*
X287954061Y-209210534D02*
X288096918Y-209353391D01*
X288096918Y-209353391D02*
X288239775Y-209424820D01*
X286739776Y-209924820D02*
X285596919Y-209924820D01*
X284954061Y-209139105D02*
X284882633Y-209067677D01*
X284882633Y-209067677D02*
X284739776Y-208996248D01*
X284739776Y-208996248D02*
X284382633Y-208996248D01*
X284382633Y-208996248D02*
X284239776Y-209067677D01*
X284239776Y-209067677D02*
X284168347Y-209139105D01*
X284168347Y-209139105D02*
X284096918Y-209281962D01*
X284096918Y-209281962D02*
X284096918Y-209424820D01*
X284096918Y-209424820D02*
X284168347Y-209639105D01*
X284168347Y-209639105D02*
X285025490Y-210496248D01*
X285025490Y-210496248D02*
X284096918Y-210496248D01*
X282311205Y-210496248D02*
X282311205Y-208996248D01*
X282311205Y-208996248D02*
X281954062Y-208996248D01*
X281954062Y-208996248D02*
X281739776Y-209067677D01*
X281739776Y-209067677D02*
X281596919Y-209210534D01*
X281596919Y-209210534D02*
X281525490Y-209353391D01*
X281525490Y-209353391D02*
X281454062Y-209639105D01*
X281454062Y-209639105D02*
X281454062Y-209853391D01*
X281454062Y-209853391D02*
X281525490Y-210139105D01*
X281525490Y-210139105D02*
X281596919Y-210281962D01*
X281596919Y-210281962D02*
X281739776Y-210424820D01*
X281739776Y-210424820D02*
X281954062Y-210496248D01*
X281954062Y-210496248D02*
X282311205Y-210496248D01*
X278882633Y-210496248D02*
X279739776Y-210496248D01*
X279311205Y-210496248D02*
X279311205Y-208996248D01*
X279311205Y-208996248D02*
X279454062Y-209210534D01*
X279454062Y-209210534D02*
X279596919Y-209353391D01*
X279596919Y-209353391D02*
X279739776Y-209424820D01*
X278311205Y-209139105D02*
X278239777Y-209067677D01*
X278239777Y-209067677D02*
X278096920Y-208996248D01*
X278096920Y-208996248D02*
X277739777Y-208996248D01*
X277739777Y-208996248D02*
X277596920Y-209067677D01*
X277596920Y-209067677D02*
X277525491Y-209139105D01*
X277525491Y-209139105D02*
X277454062Y-209281962D01*
X277454062Y-209281962D02*
X277454062Y-209424820D01*
X277454062Y-209424820D02*
X277525491Y-209639105D01*
X277525491Y-209639105D02*
X278382634Y-210496248D01*
X278382634Y-210496248D02*
X277454062Y-210496248D01*
X277025491Y-208996248D02*
X276525491Y-210496248D01*
X276525491Y-210496248D02*
X276025491Y-208996248D01*
X275454063Y-210424820D02*
X275454063Y-210496248D01*
X275454063Y-210496248D02*
X275525492Y-210639105D01*
X275525492Y-210639105D02*
X275596920Y-210710534D01*
X273739777Y-209139105D02*
X273668349Y-209067677D01*
X273668349Y-209067677D02*
X273525492Y-208996248D01*
X273525492Y-208996248D02*
X273168349Y-208996248D01*
X273168349Y-208996248D02*
X273025492Y-209067677D01*
X273025492Y-209067677D02*
X272954063Y-209139105D01*
X272954063Y-209139105D02*
X272882634Y-209281962D01*
X272882634Y-209281962D02*
X272882634Y-209424820D01*
X272882634Y-209424820D02*
X272954063Y-209639105D01*
X272954063Y-209639105D02*
X273811206Y-210496248D01*
X273811206Y-210496248D02*
X272882634Y-210496248D01*
X272239778Y-209924820D02*
X271096921Y-209924820D01*
X270525492Y-208996248D02*
X269596920Y-208996248D01*
X269596920Y-208996248D02*
X270096920Y-209567677D01*
X270096920Y-209567677D02*
X269882635Y-209567677D01*
X269882635Y-209567677D02*
X269739778Y-209639105D01*
X269739778Y-209639105D02*
X269668349Y-209710534D01*
X269668349Y-209710534D02*
X269596920Y-209853391D01*
X269596920Y-209853391D02*
X269596920Y-210210534D01*
X269596920Y-210210534D02*
X269668349Y-210353391D01*
X269668349Y-210353391D02*
X269739778Y-210424820D01*
X269739778Y-210424820D02*
X269882635Y-210496248D01*
X269882635Y-210496248D02*
X270311206Y-210496248D01*
X270311206Y-210496248D02*
X270454063Y-210424820D01*
X270454063Y-210424820D02*
X270525492Y-210353391D01*
X267811207Y-208996248D02*
X267811207Y-210210534D01*
X267811207Y-210210534D02*
X267739778Y-210353391D01*
X267739778Y-210353391D02*
X267668350Y-210424820D01*
X267668350Y-210424820D02*
X267525492Y-210496248D01*
X267525492Y-210496248D02*
X267239778Y-210496248D01*
X267239778Y-210496248D02*
X267096921Y-210424820D01*
X267096921Y-210424820D02*
X267025492Y-210353391D01*
X267025492Y-210353391D02*
X266954064Y-210210534D01*
X266954064Y-210210534D02*
X266954064Y-208996248D01*
X264382635Y-208996248D02*
X265096921Y-208996248D01*
X265096921Y-208996248D02*
X265168349Y-209710534D01*
X265168349Y-209710534D02*
X265096921Y-209639105D01*
X265096921Y-209639105D02*
X264954064Y-209567677D01*
X264954064Y-209567677D02*
X264596921Y-209567677D01*
X264596921Y-209567677D02*
X264454064Y-209639105D01*
X264454064Y-209639105D02*
X264382635Y-209710534D01*
X264382635Y-209710534D02*
X264311206Y-209853391D01*
X264311206Y-209853391D02*
X264311206Y-210210534D01*
X264311206Y-210210534D02*
X264382635Y-210353391D01*
X264382635Y-210353391D02*
X264454064Y-210424820D01*
X264454064Y-210424820D02*
X264596921Y-210496248D01*
X264596921Y-210496248D02*
X264954064Y-210496248D01*
X264954064Y-210496248D02*
X265096921Y-210424820D01*
X265096921Y-210424820D02*
X265168349Y-210353391D01*
X263882635Y-208996248D02*
X263382635Y-210496248D01*
X263382635Y-210496248D02*
X262882635Y-208996248D01*
X262525493Y-211067677D02*
X262454064Y-210996248D01*
X262454064Y-210996248D02*
X262311207Y-210781962D01*
X262311207Y-210781962D02*
X262239779Y-210639105D01*
X262239779Y-210639105D02*
X262168350Y-210424820D01*
X262168350Y-210424820D02*
X262096921Y-210067677D01*
X262096921Y-210067677D02*
X262096921Y-209781962D01*
X262096921Y-209781962D02*
X262168350Y-209424820D01*
X262168350Y-209424820D02*
X262239779Y-209210534D01*
X262239779Y-209210534D02*
X262311207Y-209067677D01*
X262311207Y-209067677D02*
X262454064Y-208853391D01*
X262454064Y-208853391D02*
X262525493Y-208781962D01*
X319596917Y-211411164D02*
X319596917Y-212482593D01*
X319596917Y-212482593D02*
X319668346Y-212696878D01*
X319668346Y-212696878D02*
X319811203Y-212839736D01*
X319811203Y-212839736D02*
X320025489Y-212911164D01*
X320025489Y-212911164D02*
X320168346Y-212911164D01*
X318882632Y-212911164D02*
X318882632Y-211411164D01*
X318882632Y-211411164D02*
X318382632Y-212482593D01*
X318382632Y-212482593D02*
X317882632Y-211411164D01*
X317882632Y-211411164D02*
X317882632Y-212911164D01*
X317168346Y-212911164D02*
X317168346Y-211411164D01*
X317168346Y-211411164D02*
X316596917Y-211411164D01*
X316596917Y-211411164D02*
X316454060Y-211482593D01*
X316454060Y-211482593D02*
X316382631Y-211554021D01*
X316382631Y-211554021D02*
X316311203Y-211696878D01*
X316311203Y-211696878D02*
X316311203Y-211911164D01*
X316311203Y-211911164D02*
X316382631Y-212054021D01*
X316382631Y-212054021D02*
X316454060Y-212125450D01*
X316454060Y-212125450D02*
X316596917Y-212196878D01*
X316596917Y-212196878D02*
X317168346Y-212196878D01*
X315025489Y-211411164D02*
X315311203Y-211411164D01*
X315311203Y-211411164D02*
X315454060Y-211482593D01*
X315454060Y-211482593D02*
X315525489Y-211554021D01*
X315525489Y-211554021D02*
X315668346Y-211768307D01*
X315668346Y-211768307D02*
X315739774Y-212054021D01*
X315739774Y-212054021D02*
X315739774Y-212625450D01*
X315739774Y-212625450D02*
X315668346Y-212768307D01*
X315668346Y-212768307D02*
X315596917Y-212839736D01*
X315596917Y-212839736D02*
X315454060Y-212911164D01*
X315454060Y-212911164D02*
X315168346Y-212911164D01*
X315168346Y-212911164D02*
X315025489Y-212839736D01*
X315025489Y-212839736D02*
X314954060Y-212768307D01*
X314954060Y-212768307D02*
X314882631Y-212625450D01*
X314882631Y-212625450D02*
X314882631Y-212268307D01*
X314882631Y-212268307D02*
X314954060Y-212125450D01*
X314954060Y-212125450D02*
X315025489Y-212054021D01*
X315025489Y-212054021D02*
X315168346Y-211982593D01*
X315168346Y-211982593D02*
X315454060Y-211982593D01*
X315454060Y-211982593D02*
X315596917Y-212054021D01*
X315596917Y-212054021D02*
X315668346Y-212125450D01*
X315668346Y-212125450D02*
X315739774Y-212268307D01*
X307525489Y-212911164D02*
X308025489Y-212196878D01*
X308382632Y-212911164D02*
X308382632Y-211411164D01*
X308382632Y-211411164D02*
X307811203Y-211411164D01*
X307811203Y-211411164D02*
X307668346Y-211482593D01*
X307668346Y-211482593D02*
X307596917Y-211554021D01*
X307596917Y-211554021D02*
X307525489Y-211696878D01*
X307525489Y-211696878D02*
X307525489Y-211911164D01*
X307525489Y-211911164D02*
X307596917Y-212054021D01*
X307596917Y-212054021D02*
X307668346Y-212125450D01*
X307668346Y-212125450D02*
X307811203Y-212196878D01*
X307811203Y-212196878D02*
X308382632Y-212196878D01*
X306596917Y-211411164D02*
X306311203Y-211411164D01*
X306311203Y-211411164D02*
X306168346Y-211482593D01*
X306168346Y-211482593D02*
X306025489Y-211625450D01*
X306025489Y-211625450D02*
X305954060Y-211911164D01*
X305954060Y-211911164D02*
X305954060Y-212411164D01*
X305954060Y-212411164D02*
X306025489Y-212696878D01*
X306025489Y-212696878D02*
X306168346Y-212839736D01*
X306168346Y-212839736D02*
X306311203Y-212911164D01*
X306311203Y-212911164D02*
X306596917Y-212911164D01*
X306596917Y-212911164D02*
X306739775Y-212839736D01*
X306739775Y-212839736D02*
X306882632Y-212696878D01*
X306882632Y-212696878D02*
X306954060Y-212411164D01*
X306954060Y-212411164D02*
X306954060Y-211911164D01*
X306954060Y-211911164D02*
X306882632Y-211625450D01*
X306882632Y-211625450D02*
X306739775Y-211482593D01*
X306739775Y-211482593D02*
X306596917Y-211411164D01*
X305311203Y-212911164D02*
X305311203Y-211411164D01*
X305311203Y-211411164D02*
X304811203Y-212482593D01*
X304811203Y-212482593D02*
X304311203Y-211411164D01*
X304311203Y-211411164D02*
X304311203Y-212911164D01*
X302525488Y-212482593D02*
X301811203Y-212482593D01*
X302668345Y-212911164D02*
X302168345Y-211411164D01*
X302168345Y-211411164D02*
X301668345Y-212911164D01*
X300382631Y-212911164D02*
X301239774Y-212911164D01*
X300811203Y-212911164D02*
X300811203Y-211411164D01*
X300811203Y-211411164D02*
X300954060Y-211625450D01*
X300954060Y-211625450D02*
X301096917Y-211768307D01*
X301096917Y-211768307D02*
X301239774Y-211839736D01*
X299096918Y-211911164D02*
X299096918Y-212911164D01*
X299454060Y-211339736D02*
X299811203Y-212411164D01*
X299811203Y-212411164D02*
X298882632Y-212411164D01*
X296739775Y-213482593D02*
X296811204Y-213411164D01*
X296811204Y-213411164D02*
X296954061Y-213196878D01*
X296954061Y-213196878D02*
X297025490Y-213054021D01*
X297025490Y-213054021D02*
X297096918Y-212839736D01*
X297096918Y-212839736D02*
X297168347Y-212482593D01*
X297168347Y-212482593D02*
X297168347Y-212196878D01*
X297168347Y-212196878D02*
X297096918Y-211839736D01*
X297096918Y-211839736D02*
X297025490Y-211625450D01*
X297025490Y-211625450D02*
X296954061Y-211482593D01*
X296954061Y-211482593D02*
X296811204Y-211268307D01*
X296811204Y-211268307D02*
X296739775Y-211196878D01*
X295382632Y-212911164D02*
X296239775Y-212911164D01*
X295811204Y-212911164D02*
X295811204Y-211411164D01*
X295811204Y-211411164D02*
X295954061Y-211625450D01*
X295954061Y-211625450D02*
X296096918Y-211768307D01*
X296096918Y-211768307D02*
X296239775Y-211839736D01*
X294739776Y-212339736D02*
X293596919Y-212339736D01*
X292954061Y-211554021D02*
X292882633Y-211482593D01*
X292882633Y-211482593D02*
X292739776Y-211411164D01*
X292739776Y-211411164D02*
X292382633Y-211411164D01*
X292382633Y-211411164D02*
X292239776Y-211482593D01*
X292239776Y-211482593D02*
X292168347Y-211554021D01*
X292168347Y-211554021D02*
X292096918Y-211696878D01*
X292096918Y-211696878D02*
X292096918Y-211839736D01*
X292096918Y-211839736D02*
X292168347Y-212054021D01*
X292168347Y-212054021D02*
X293025490Y-212911164D01*
X293025490Y-212911164D02*
X292096918Y-212911164D01*
X289596919Y-212911164D02*
X290311205Y-212911164D01*
X290311205Y-212911164D02*
X290311205Y-211411164D01*
X287239776Y-211411164D02*
X287954062Y-211411164D01*
X287954062Y-211411164D02*
X288025490Y-212125450D01*
X288025490Y-212125450D02*
X287954062Y-212054021D01*
X287954062Y-212054021D02*
X287811205Y-211982593D01*
X287811205Y-211982593D02*
X287454062Y-211982593D01*
X287454062Y-211982593D02*
X287311205Y-212054021D01*
X287311205Y-212054021D02*
X287239776Y-212125450D01*
X287239776Y-212125450D02*
X287168347Y-212268307D01*
X287168347Y-212268307D02*
X287168347Y-212625450D01*
X287168347Y-212625450D02*
X287239776Y-212768307D01*
X287239776Y-212768307D02*
X287311205Y-212839736D01*
X287311205Y-212839736D02*
X287454062Y-212911164D01*
X287454062Y-212911164D02*
X287811205Y-212911164D01*
X287811205Y-212911164D02*
X287954062Y-212839736D01*
X287954062Y-212839736D02*
X288025490Y-212768307D01*
X286739776Y-211411164D02*
X286239776Y-212911164D01*
X286239776Y-212911164D02*
X285739776Y-211411164D01*
X285168348Y-212839736D02*
X285168348Y-212911164D01*
X285168348Y-212911164D02*
X285239777Y-213054021D01*
X285239777Y-213054021D02*
X285311205Y-213125450D01*
X283454062Y-211554021D02*
X283382634Y-211482593D01*
X283382634Y-211482593D02*
X283239777Y-211411164D01*
X283239777Y-211411164D02*
X282882634Y-211411164D01*
X282882634Y-211411164D02*
X282739777Y-211482593D01*
X282739777Y-211482593D02*
X282668348Y-211554021D01*
X282668348Y-211554021D02*
X282596919Y-211696878D01*
X282596919Y-211696878D02*
X282596919Y-211839736D01*
X282596919Y-211839736D02*
X282668348Y-212054021D01*
X282668348Y-212054021D02*
X283525491Y-212911164D01*
X283525491Y-212911164D02*
X282596919Y-212911164D01*
X281954063Y-212339736D02*
X280811206Y-212339736D01*
X280239777Y-211411164D02*
X279311205Y-211411164D01*
X279311205Y-211411164D02*
X279811205Y-211982593D01*
X279811205Y-211982593D02*
X279596920Y-211982593D01*
X279596920Y-211982593D02*
X279454063Y-212054021D01*
X279454063Y-212054021D02*
X279382634Y-212125450D01*
X279382634Y-212125450D02*
X279311205Y-212268307D01*
X279311205Y-212268307D02*
X279311205Y-212625450D01*
X279311205Y-212625450D02*
X279382634Y-212768307D01*
X279382634Y-212768307D02*
X279454063Y-212839736D01*
X279454063Y-212839736D02*
X279596920Y-212911164D01*
X279596920Y-212911164D02*
X280025491Y-212911164D01*
X280025491Y-212911164D02*
X280168348Y-212839736D01*
X280168348Y-212839736D02*
X280239777Y-212768307D01*
X276668349Y-212911164D02*
X277168349Y-212196878D01*
X277525492Y-212911164D02*
X277525492Y-211411164D01*
X277525492Y-211411164D02*
X276954063Y-211411164D01*
X276954063Y-211411164D02*
X276811206Y-211482593D01*
X276811206Y-211482593D02*
X276739777Y-211554021D01*
X276739777Y-211554021D02*
X276668349Y-211696878D01*
X276668349Y-211696878D02*
X276668349Y-211911164D01*
X276668349Y-211911164D02*
X276739777Y-212054021D01*
X276739777Y-212054021D02*
X276811206Y-212125450D01*
X276811206Y-212125450D02*
X276954063Y-212196878D01*
X276954063Y-212196878D02*
X277525492Y-212196878D01*
X274954063Y-212482593D02*
X274239778Y-212482593D01*
X275096920Y-212911164D02*
X274596920Y-211411164D01*
X274596920Y-211411164D02*
X274096920Y-212911164D01*
X272811206Y-212911164D02*
X273668349Y-212911164D01*
X273239778Y-212911164D02*
X273239778Y-211411164D01*
X273239778Y-211411164D02*
X273382635Y-211625450D01*
X273382635Y-211625450D02*
X273525492Y-211768307D01*
X273525492Y-211768307D02*
X273668349Y-211839736D01*
X271525493Y-211911164D02*
X271525493Y-212911164D01*
X271882635Y-211339736D02*
X272239778Y-212411164D01*
X272239778Y-212411164D02*
X271311207Y-212411164D01*
X270882636Y-213482593D02*
X270811207Y-213411164D01*
X270811207Y-213411164D02*
X270668350Y-213196878D01*
X270668350Y-213196878D02*
X270596922Y-213054021D01*
X270596922Y-213054021D02*
X270525493Y-212839736D01*
X270525493Y-212839736D02*
X270454064Y-212482593D01*
X270454064Y-212482593D02*
X270454064Y-212196878D01*
X270454064Y-212196878D02*
X270525493Y-211839736D01*
X270525493Y-211839736D02*
X270596922Y-211625450D01*
X270596922Y-211625450D02*
X270668350Y-211482593D01*
X270668350Y-211482593D02*
X270811207Y-211268307D01*
X270811207Y-211268307D02*
X270882636Y-211196878D01*
X319596917Y-213826080D02*
X319596917Y-214897509D01*
X319596917Y-214897509D02*
X319668346Y-215111794D01*
X319668346Y-215111794D02*
X319811203Y-215254652D01*
X319811203Y-215254652D02*
X320025489Y-215326080D01*
X320025489Y-215326080D02*
X320168346Y-215326080D01*
X318882632Y-215326080D02*
X318882632Y-213826080D01*
X318882632Y-213826080D02*
X318382632Y-214897509D01*
X318382632Y-214897509D02*
X317882632Y-213826080D01*
X317882632Y-213826080D02*
X317882632Y-215326080D01*
X317168346Y-215326080D02*
X317168346Y-213826080D01*
X317168346Y-213826080D02*
X316596917Y-213826080D01*
X316596917Y-213826080D02*
X316454060Y-213897509D01*
X316454060Y-213897509D02*
X316382631Y-213968937D01*
X316382631Y-213968937D02*
X316311203Y-214111794D01*
X316311203Y-214111794D02*
X316311203Y-214326080D01*
X316311203Y-214326080D02*
X316382631Y-214468937D01*
X316382631Y-214468937D02*
X316454060Y-214540366D01*
X316454060Y-214540366D02*
X316596917Y-214611794D01*
X316596917Y-214611794D02*
X317168346Y-214611794D01*
X315811203Y-213826080D02*
X314811203Y-213826080D01*
X314811203Y-213826080D02*
X315454060Y-215326080D01*
X307525489Y-215326080D02*
X308025489Y-214611794D01*
X308382632Y-215326080D02*
X308382632Y-213826080D01*
X308382632Y-213826080D02*
X307811203Y-213826080D01*
X307811203Y-213826080D02*
X307668346Y-213897509D01*
X307668346Y-213897509D02*
X307596917Y-213968937D01*
X307596917Y-213968937D02*
X307525489Y-214111794D01*
X307525489Y-214111794D02*
X307525489Y-214326080D01*
X307525489Y-214326080D02*
X307596917Y-214468937D01*
X307596917Y-214468937D02*
X307668346Y-214540366D01*
X307668346Y-214540366D02*
X307811203Y-214611794D01*
X307811203Y-214611794D02*
X308382632Y-214611794D01*
X306596917Y-213826080D02*
X306311203Y-213826080D01*
X306311203Y-213826080D02*
X306168346Y-213897509D01*
X306168346Y-213897509D02*
X306025489Y-214040366D01*
X306025489Y-214040366D02*
X305954060Y-214326080D01*
X305954060Y-214326080D02*
X305954060Y-214826080D01*
X305954060Y-214826080D02*
X306025489Y-215111794D01*
X306025489Y-215111794D02*
X306168346Y-215254652D01*
X306168346Y-215254652D02*
X306311203Y-215326080D01*
X306311203Y-215326080D02*
X306596917Y-215326080D01*
X306596917Y-215326080D02*
X306739775Y-215254652D01*
X306739775Y-215254652D02*
X306882632Y-215111794D01*
X306882632Y-215111794D02*
X306954060Y-214826080D01*
X306954060Y-214826080D02*
X306954060Y-214326080D01*
X306954060Y-214326080D02*
X306882632Y-214040366D01*
X306882632Y-214040366D02*
X306739775Y-213897509D01*
X306739775Y-213897509D02*
X306596917Y-213826080D01*
X305311203Y-215326080D02*
X305311203Y-213826080D01*
X305311203Y-213826080D02*
X304811203Y-214897509D01*
X304811203Y-214897509D02*
X304311203Y-213826080D01*
X304311203Y-213826080D02*
X304311203Y-215326080D01*
X302525488Y-214897509D02*
X301811203Y-214897509D01*
X302668345Y-215326080D02*
X302168345Y-213826080D01*
X302168345Y-213826080D02*
X301668345Y-215326080D01*
X300382631Y-215326080D02*
X301239774Y-215326080D01*
X300811203Y-215326080D02*
X300811203Y-213826080D01*
X300811203Y-213826080D02*
X300954060Y-214040366D01*
X300954060Y-214040366D02*
X301096917Y-214183223D01*
X301096917Y-214183223D02*
X301239774Y-214254652D01*
X299025489Y-213826080D02*
X299739775Y-213826080D01*
X299739775Y-213826080D02*
X299811203Y-214540366D01*
X299811203Y-214540366D02*
X299739775Y-214468937D01*
X299739775Y-214468937D02*
X299596918Y-214397509D01*
X299596918Y-214397509D02*
X299239775Y-214397509D01*
X299239775Y-214397509D02*
X299096918Y-214468937D01*
X299096918Y-214468937D02*
X299025489Y-214540366D01*
X299025489Y-214540366D02*
X298954060Y-214683223D01*
X298954060Y-214683223D02*
X298954060Y-215040366D01*
X298954060Y-215040366D02*
X299025489Y-215183223D01*
X299025489Y-215183223D02*
X299096918Y-215254652D01*
X299096918Y-215254652D02*
X299239775Y-215326080D01*
X299239775Y-215326080D02*
X299596918Y-215326080D01*
X299596918Y-215326080D02*
X299739775Y-215254652D01*
X299739775Y-215254652D02*
X299811203Y-215183223D01*
X296739775Y-215897509D02*
X296811204Y-215826080D01*
X296811204Y-215826080D02*
X296954061Y-215611794D01*
X296954061Y-215611794D02*
X297025490Y-215468937D01*
X297025490Y-215468937D02*
X297096918Y-215254652D01*
X297096918Y-215254652D02*
X297168347Y-214897509D01*
X297168347Y-214897509D02*
X297168347Y-214611794D01*
X297168347Y-214611794D02*
X297096918Y-214254652D01*
X297096918Y-214254652D02*
X297025490Y-214040366D01*
X297025490Y-214040366D02*
X296954061Y-213897509D01*
X296954061Y-213897509D02*
X296811204Y-213683223D01*
X296811204Y-213683223D02*
X296739775Y-213611794D01*
X295382632Y-215326080D02*
X296239775Y-215326080D01*
X295811204Y-215326080D02*
X295811204Y-213826080D01*
X295811204Y-213826080D02*
X295954061Y-214040366D01*
X295954061Y-214040366D02*
X296096918Y-214183223D01*
X296096918Y-214183223D02*
X296239775Y-214254652D01*
X294739776Y-214754652D02*
X293596919Y-214754652D01*
X292954061Y-213968937D02*
X292882633Y-213897509D01*
X292882633Y-213897509D02*
X292739776Y-213826080D01*
X292739776Y-213826080D02*
X292382633Y-213826080D01*
X292382633Y-213826080D02*
X292239776Y-213897509D01*
X292239776Y-213897509D02*
X292168347Y-213968937D01*
X292168347Y-213968937D02*
X292096918Y-214111794D01*
X292096918Y-214111794D02*
X292096918Y-214254652D01*
X292096918Y-214254652D02*
X292168347Y-214468937D01*
X292168347Y-214468937D02*
X293025490Y-215326080D01*
X293025490Y-215326080D02*
X292096918Y-215326080D01*
X289596919Y-215326080D02*
X290311205Y-215326080D01*
X290311205Y-215326080D02*
X290311205Y-213826080D01*
X287239776Y-213826080D02*
X287954062Y-213826080D01*
X287954062Y-213826080D02*
X288025490Y-214540366D01*
X288025490Y-214540366D02*
X287954062Y-214468937D01*
X287954062Y-214468937D02*
X287811205Y-214397509D01*
X287811205Y-214397509D02*
X287454062Y-214397509D01*
X287454062Y-214397509D02*
X287311205Y-214468937D01*
X287311205Y-214468937D02*
X287239776Y-214540366D01*
X287239776Y-214540366D02*
X287168347Y-214683223D01*
X287168347Y-214683223D02*
X287168347Y-215040366D01*
X287168347Y-215040366D02*
X287239776Y-215183223D01*
X287239776Y-215183223D02*
X287311205Y-215254652D01*
X287311205Y-215254652D02*
X287454062Y-215326080D01*
X287454062Y-215326080D02*
X287811205Y-215326080D01*
X287811205Y-215326080D02*
X287954062Y-215254652D01*
X287954062Y-215254652D02*
X288025490Y-215183223D01*
X286739776Y-213826080D02*
X286239776Y-215326080D01*
X286239776Y-215326080D02*
X285739776Y-213826080D01*
X285168348Y-215254652D02*
X285168348Y-215326080D01*
X285168348Y-215326080D02*
X285239777Y-215468937D01*
X285239777Y-215468937D02*
X285311205Y-215540366D01*
X283454062Y-213968937D02*
X283382634Y-213897509D01*
X283382634Y-213897509D02*
X283239777Y-213826080D01*
X283239777Y-213826080D02*
X282882634Y-213826080D01*
X282882634Y-213826080D02*
X282739777Y-213897509D01*
X282739777Y-213897509D02*
X282668348Y-213968937D01*
X282668348Y-213968937D02*
X282596919Y-214111794D01*
X282596919Y-214111794D02*
X282596919Y-214254652D01*
X282596919Y-214254652D02*
X282668348Y-214468937D01*
X282668348Y-214468937D02*
X283525491Y-215326080D01*
X283525491Y-215326080D02*
X282596919Y-215326080D01*
X281954063Y-214754652D02*
X280811206Y-214754652D01*
X280239777Y-213826080D02*
X279311205Y-213826080D01*
X279311205Y-213826080D02*
X279811205Y-214397509D01*
X279811205Y-214397509D02*
X279596920Y-214397509D01*
X279596920Y-214397509D02*
X279454063Y-214468937D01*
X279454063Y-214468937D02*
X279382634Y-214540366D01*
X279382634Y-214540366D02*
X279311205Y-214683223D01*
X279311205Y-214683223D02*
X279311205Y-215040366D01*
X279311205Y-215040366D02*
X279382634Y-215183223D01*
X279382634Y-215183223D02*
X279454063Y-215254652D01*
X279454063Y-215254652D02*
X279596920Y-215326080D01*
X279596920Y-215326080D02*
X280025491Y-215326080D01*
X280025491Y-215326080D02*
X280168348Y-215254652D01*
X280168348Y-215254652D02*
X280239777Y-215183223D01*
X276668349Y-215326080D02*
X277168349Y-214611794D01*
X277525492Y-215326080D02*
X277525492Y-213826080D01*
X277525492Y-213826080D02*
X276954063Y-213826080D01*
X276954063Y-213826080D02*
X276811206Y-213897509D01*
X276811206Y-213897509D02*
X276739777Y-213968937D01*
X276739777Y-213968937D02*
X276668349Y-214111794D01*
X276668349Y-214111794D02*
X276668349Y-214326080D01*
X276668349Y-214326080D02*
X276739777Y-214468937D01*
X276739777Y-214468937D02*
X276811206Y-214540366D01*
X276811206Y-214540366D02*
X276954063Y-214611794D01*
X276954063Y-214611794D02*
X277525492Y-214611794D01*
X274954063Y-214897509D02*
X274239778Y-214897509D01*
X275096920Y-215326080D02*
X274596920Y-213826080D01*
X274596920Y-213826080D02*
X274096920Y-215326080D01*
X272811206Y-215326080D02*
X273668349Y-215326080D01*
X273239778Y-215326080D02*
X273239778Y-213826080D01*
X273239778Y-213826080D02*
X273382635Y-214040366D01*
X273382635Y-214040366D02*
X273525492Y-214183223D01*
X273525492Y-214183223D02*
X273668349Y-214254652D01*
X271454064Y-213826080D02*
X272168350Y-213826080D01*
X272168350Y-213826080D02*
X272239778Y-214540366D01*
X272239778Y-214540366D02*
X272168350Y-214468937D01*
X272168350Y-214468937D02*
X272025493Y-214397509D01*
X272025493Y-214397509D02*
X271668350Y-214397509D01*
X271668350Y-214397509D02*
X271525493Y-214468937D01*
X271525493Y-214468937D02*
X271454064Y-214540366D01*
X271454064Y-214540366D02*
X271382635Y-214683223D01*
X271382635Y-214683223D02*
X271382635Y-215040366D01*
X271382635Y-215040366D02*
X271454064Y-215183223D01*
X271454064Y-215183223D02*
X271525493Y-215254652D01*
X271525493Y-215254652D02*
X271668350Y-215326080D01*
X271668350Y-215326080D02*
X272025493Y-215326080D01*
X272025493Y-215326080D02*
X272168350Y-215254652D01*
X272168350Y-215254652D02*
X272239778Y-215183223D01*
X270882636Y-215897509D02*
X270811207Y-215826080D01*
X270811207Y-215826080D02*
X270668350Y-215611794D01*
X270668350Y-215611794D02*
X270596922Y-215468937D01*
X270596922Y-215468937D02*
X270525493Y-215254652D01*
X270525493Y-215254652D02*
X270454064Y-214897509D01*
X270454064Y-214897509D02*
X270454064Y-214611794D01*
X270454064Y-214611794D02*
X270525493Y-214254652D01*
X270525493Y-214254652D02*
X270596922Y-214040366D01*
X270596922Y-214040366D02*
X270668350Y-213897509D01*
X270668350Y-213897509D02*
X270811207Y-213683223D01*
X270811207Y-213683223D02*
X270882636Y-213611794D01*
X319596917Y-216240996D02*
X319596917Y-217312425D01*
X319596917Y-217312425D02*
X319668346Y-217526710D01*
X319668346Y-217526710D02*
X319811203Y-217669568D01*
X319811203Y-217669568D02*
X320025489Y-217740996D01*
X320025489Y-217740996D02*
X320168346Y-217740996D01*
X318882632Y-217740996D02*
X318882632Y-216240996D01*
X318882632Y-216240996D02*
X318382632Y-217312425D01*
X318382632Y-217312425D02*
X317882632Y-216240996D01*
X317882632Y-216240996D02*
X317882632Y-217740996D01*
X317168346Y-217740996D02*
X317168346Y-216240996D01*
X317168346Y-216240996D02*
X316596917Y-216240996D01*
X316596917Y-216240996D02*
X316454060Y-216312425D01*
X316454060Y-216312425D02*
X316382631Y-216383853D01*
X316382631Y-216383853D02*
X316311203Y-216526710D01*
X316311203Y-216526710D02*
X316311203Y-216740996D01*
X316311203Y-216740996D02*
X316382631Y-216883853D01*
X316382631Y-216883853D02*
X316454060Y-216955282D01*
X316454060Y-216955282D02*
X316596917Y-217026710D01*
X316596917Y-217026710D02*
X317168346Y-217026710D01*
X315454060Y-216883853D02*
X315596917Y-216812425D01*
X315596917Y-216812425D02*
X315668346Y-216740996D01*
X315668346Y-216740996D02*
X315739774Y-216598139D01*
X315739774Y-216598139D02*
X315739774Y-216526710D01*
X315739774Y-216526710D02*
X315668346Y-216383853D01*
X315668346Y-216383853D02*
X315596917Y-216312425D01*
X315596917Y-216312425D02*
X315454060Y-216240996D01*
X315454060Y-216240996D02*
X315168346Y-216240996D01*
X315168346Y-216240996D02*
X315025489Y-216312425D01*
X315025489Y-216312425D02*
X314954060Y-216383853D01*
X314954060Y-216383853D02*
X314882631Y-216526710D01*
X314882631Y-216526710D02*
X314882631Y-216598139D01*
X314882631Y-216598139D02*
X314954060Y-216740996D01*
X314954060Y-216740996D02*
X315025489Y-216812425D01*
X315025489Y-216812425D02*
X315168346Y-216883853D01*
X315168346Y-216883853D02*
X315454060Y-216883853D01*
X315454060Y-216883853D02*
X315596917Y-216955282D01*
X315596917Y-216955282D02*
X315668346Y-217026710D01*
X315668346Y-217026710D02*
X315739774Y-217169568D01*
X315739774Y-217169568D02*
X315739774Y-217455282D01*
X315739774Y-217455282D02*
X315668346Y-217598139D01*
X315668346Y-217598139D02*
X315596917Y-217669568D01*
X315596917Y-217669568D02*
X315454060Y-217740996D01*
X315454060Y-217740996D02*
X315168346Y-217740996D01*
X315168346Y-217740996D02*
X315025489Y-217669568D01*
X315025489Y-217669568D02*
X314954060Y-217598139D01*
X314954060Y-217598139D02*
X314882631Y-217455282D01*
X314882631Y-217455282D02*
X314882631Y-217169568D01*
X314882631Y-217169568D02*
X314954060Y-217026710D01*
X314954060Y-217026710D02*
X315025489Y-216955282D01*
X315025489Y-216955282D02*
X315168346Y-216883853D01*
X308596917Y-216240996D02*
X308096917Y-217740996D01*
X308096917Y-217740996D02*
X307596917Y-216240996D01*
X307096918Y-217740996D02*
X307096918Y-216740996D01*
X307096918Y-216240996D02*
X307168346Y-216312425D01*
X307168346Y-216312425D02*
X307096918Y-216383853D01*
X307096918Y-216383853D02*
X307025489Y-216312425D01*
X307025489Y-216312425D02*
X307096918Y-216240996D01*
X307096918Y-216240996D02*
X307096918Y-216383853D01*
X305739775Y-217740996D02*
X305739775Y-216240996D01*
X305739775Y-217669568D02*
X305882632Y-217740996D01*
X305882632Y-217740996D02*
X306168346Y-217740996D01*
X306168346Y-217740996D02*
X306311203Y-217669568D01*
X306311203Y-217669568D02*
X306382632Y-217598139D01*
X306382632Y-217598139D02*
X306454060Y-217455282D01*
X306454060Y-217455282D02*
X306454060Y-217026710D01*
X306454060Y-217026710D02*
X306382632Y-216883853D01*
X306382632Y-216883853D02*
X306311203Y-216812425D01*
X306311203Y-216812425D02*
X306168346Y-216740996D01*
X306168346Y-216740996D02*
X305882632Y-216740996D01*
X305882632Y-216740996D02*
X305739775Y-216812425D01*
X304454060Y-217669568D02*
X304596917Y-217740996D01*
X304596917Y-217740996D02*
X304882632Y-217740996D01*
X304882632Y-217740996D02*
X305025489Y-217669568D01*
X305025489Y-217669568D02*
X305096917Y-217526710D01*
X305096917Y-217526710D02*
X305096917Y-216955282D01*
X305096917Y-216955282D02*
X305025489Y-216812425D01*
X305025489Y-216812425D02*
X304882632Y-216740996D01*
X304882632Y-216740996D02*
X304596917Y-216740996D01*
X304596917Y-216740996D02*
X304454060Y-216812425D01*
X304454060Y-216812425D02*
X304382632Y-216955282D01*
X304382632Y-216955282D02*
X304382632Y-217098139D01*
X304382632Y-217098139D02*
X305096917Y-217240996D01*
X303525489Y-217740996D02*
X303668346Y-217669568D01*
X303668346Y-217669568D02*
X303739775Y-217598139D01*
X303739775Y-217598139D02*
X303811203Y-217455282D01*
X303811203Y-217455282D02*
X303811203Y-217026710D01*
X303811203Y-217026710D02*
X303739775Y-216883853D01*
X303739775Y-216883853D02*
X303668346Y-216812425D01*
X303668346Y-216812425D02*
X303525489Y-216740996D01*
X303525489Y-216740996D02*
X303311203Y-216740996D01*
X303311203Y-216740996D02*
X303168346Y-216812425D01*
X303168346Y-216812425D02*
X303096918Y-216883853D01*
X303096918Y-216883853D02*
X303025489Y-217026710D01*
X303025489Y-217026710D02*
X303025489Y-217455282D01*
X303025489Y-217455282D02*
X303096918Y-217598139D01*
X303096918Y-217598139D02*
X303168346Y-217669568D01*
X303168346Y-217669568D02*
X303311203Y-217740996D01*
X303311203Y-217740996D02*
X303525489Y-217740996D01*
X300739775Y-216955282D02*
X300525489Y-217026710D01*
X300525489Y-217026710D02*
X300454060Y-217098139D01*
X300454060Y-217098139D02*
X300382632Y-217240996D01*
X300382632Y-217240996D02*
X300382632Y-217455282D01*
X300382632Y-217455282D02*
X300454060Y-217598139D01*
X300454060Y-217598139D02*
X300525489Y-217669568D01*
X300525489Y-217669568D02*
X300668346Y-217740996D01*
X300668346Y-217740996D02*
X301239775Y-217740996D01*
X301239775Y-217740996D02*
X301239775Y-216240996D01*
X301239775Y-216240996D02*
X300739775Y-216240996D01*
X300739775Y-216240996D02*
X300596918Y-216312425D01*
X300596918Y-216312425D02*
X300525489Y-216383853D01*
X300525489Y-216383853D02*
X300454060Y-216526710D01*
X300454060Y-216526710D02*
X300454060Y-216669568D01*
X300454060Y-216669568D02*
X300525489Y-216812425D01*
X300525489Y-216812425D02*
X300596918Y-216883853D01*
X300596918Y-216883853D02*
X300739775Y-216955282D01*
X300739775Y-216955282D02*
X301239775Y-216955282D01*
X299882632Y-216740996D02*
X299525489Y-217740996D01*
X299168346Y-216740996D02*
X299525489Y-217740996D01*
X299525489Y-217740996D02*
X299668346Y-218098139D01*
X299668346Y-218098139D02*
X299739775Y-218169568D01*
X299739775Y-218169568D02*
X299882632Y-218240996D01*
X298596918Y-216740996D02*
X298596918Y-218240996D01*
X298596918Y-216812425D02*
X298454061Y-216740996D01*
X298454061Y-216740996D02*
X298168346Y-216740996D01*
X298168346Y-216740996D02*
X298025489Y-216812425D01*
X298025489Y-216812425D02*
X297954061Y-216883853D01*
X297954061Y-216883853D02*
X297882632Y-217026710D01*
X297882632Y-217026710D02*
X297882632Y-217455282D01*
X297882632Y-217455282D02*
X297954061Y-217598139D01*
X297954061Y-217598139D02*
X298025489Y-217669568D01*
X298025489Y-217669568D02*
X298168346Y-217740996D01*
X298168346Y-217740996D02*
X298454061Y-217740996D01*
X298454061Y-217740996D02*
X298596918Y-217669568D01*
X296596918Y-217740996D02*
X296596918Y-216955282D01*
X296596918Y-216955282D02*
X296668346Y-216812425D01*
X296668346Y-216812425D02*
X296811203Y-216740996D01*
X296811203Y-216740996D02*
X297096918Y-216740996D01*
X297096918Y-216740996D02*
X297239775Y-216812425D01*
X296596918Y-217669568D02*
X296739775Y-217740996D01*
X296739775Y-217740996D02*
X297096918Y-217740996D01*
X297096918Y-217740996D02*
X297239775Y-217669568D01*
X297239775Y-217669568D02*
X297311203Y-217526710D01*
X297311203Y-217526710D02*
X297311203Y-217383853D01*
X297311203Y-217383853D02*
X297239775Y-217240996D01*
X297239775Y-217240996D02*
X297096918Y-217169568D01*
X297096918Y-217169568D02*
X296739775Y-217169568D01*
X296739775Y-217169568D02*
X296596918Y-217098139D01*
X295954060Y-217669568D02*
X295811203Y-217740996D01*
X295811203Y-217740996D02*
X295525489Y-217740996D01*
X295525489Y-217740996D02*
X295382632Y-217669568D01*
X295382632Y-217669568D02*
X295311203Y-217526710D01*
X295311203Y-217526710D02*
X295311203Y-217455282D01*
X295311203Y-217455282D02*
X295382632Y-217312425D01*
X295382632Y-217312425D02*
X295525489Y-217240996D01*
X295525489Y-217240996D02*
X295739775Y-217240996D01*
X295739775Y-217240996D02*
X295882632Y-217169568D01*
X295882632Y-217169568D02*
X295954060Y-217026710D01*
X295954060Y-217026710D02*
X295954060Y-216955282D01*
X295954060Y-216955282D02*
X295882632Y-216812425D01*
X295882632Y-216812425D02*
X295739775Y-216740996D01*
X295739775Y-216740996D02*
X295525489Y-216740996D01*
X295525489Y-216740996D02*
X295382632Y-216812425D01*
X294739774Y-217669568D02*
X294596917Y-217740996D01*
X294596917Y-217740996D02*
X294311203Y-217740996D01*
X294311203Y-217740996D02*
X294168346Y-217669568D01*
X294168346Y-217669568D02*
X294096917Y-217526710D01*
X294096917Y-217526710D02*
X294096917Y-217455282D01*
X294096917Y-217455282D02*
X294168346Y-217312425D01*
X294168346Y-217312425D02*
X294311203Y-217240996D01*
X294311203Y-217240996D02*
X294525489Y-217240996D01*
X294525489Y-217240996D02*
X294668346Y-217169568D01*
X294668346Y-217169568D02*
X294739774Y-217026710D01*
X294739774Y-217026710D02*
X294739774Y-216955282D01*
X294739774Y-216955282D02*
X294668346Y-216812425D01*
X294668346Y-216812425D02*
X294525489Y-216740996D01*
X294525489Y-216740996D02*
X294311203Y-216740996D01*
X294311203Y-216740996D02*
X294168346Y-216812425D01*
X291882631Y-218312425D02*
X291954060Y-218240996D01*
X291954060Y-218240996D02*
X292096917Y-218026710D01*
X292096917Y-218026710D02*
X292168346Y-217883853D01*
X292168346Y-217883853D02*
X292239774Y-217669568D01*
X292239774Y-217669568D02*
X292311203Y-217312425D01*
X292311203Y-217312425D02*
X292311203Y-217026710D01*
X292311203Y-217026710D02*
X292239774Y-216669568D01*
X292239774Y-216669568D02*
X292168346Y-216455282D01*
X292168346Y-216455282D02*
X292096917Y-216312425D01*
X292096917Y-216312425D02*
X291954060Y-216098139D01*
X291954060Y-216098139D02*
X291882631Y-216026710D01*
X290525488Y-217740996D02*
X291382631Y-217740996D01*
X290954060Y-217740996D02*
X290954060Y-216240996D01*
X290954060Y-216240996D02*
X291096917Y-216455282D01*
X291096917Y-216455282D02*
X291239774Y-216598139D01*
X291239774Y-216598139D02*
X291382631Y-216669568D01*
X289882632Y-217169568D02*
X288739775Y-217169568D01*
X288096917Y-216383853D02*
X288025489Y-216312425D01*
X288025489Y-216312425D02*
X287882632Y-216240996D01*
X287882632Y-216240996D02*
X287525489Y-216240996D01*
X287525489Y-216240996D02*
X287382632Y-216312425D01*
X287382632Y-216312425D02*
X287311203Y-216383853D01*
X287311203Y-216383853D02*
X287239774Y-216526710D01*
X287239774Y-216526710D02*
X287239774Y-216669568D01*
X287239774Y-216669568D02*
X287311203Y-216883853D01*
X287311203Y-216883853D02*
X288168346Y-217740996D01*
X288168346Y-217740996D02*
X287239774Y-217740996D01*
X285454061Y-216240996D02*
X285454061Y-217455282D01*
X285454061Y-217455282D02*
X285382632Y-217598139D01*
X285382632Y-217598139D02*
X285311204Y-217669568D01*
X285311204Y-217669568D02*
X285168346Y-217740996D01*
X285168346Y-217740996D02*
X284882632Y-217740996D01*
X284882632Y-217740996D02*
X284739775Y-217669568D01*
X284739775Y-217669568D02*
X284668346Y-217598139D01*
X284668346Y-217598139D02*
X284596918Y-217455282D01*
X284596918Y-217455282D02*
X284596918Y-216240996D01*
X282739775Y-217740996D02*
X282739775Y-216240996D01*
X282739775Y-216240996D02*
X281882632Y-217740996D01*
X281882632Y-217740996D02*
X281882632Y-216240996D01*
X280954060Y-217740996D02*
X281096917Y-217669568D01*
X281096917Y-217669568D02*
X281168346Y-217598139D01*
X281168346Y-217598139D02*
X281239774Y-217455282D01*
X281239774Y-217455282D02*
X281239774Y-217026710D01*
X281239774Y-217026710D02*
X281168346Y-216883853D01*
X281168346Y-216883853D02*
X281096917Y-216812425D01*
X281096917Y-216812425D02*
X280954060Y-216740996D01*
X280954060Y-216740996D02*
X280739774Y-216740996D01*
X280739774Y-216740996D02*
X280596917Y-216812425D01*
X280596917Y-216812425D02*
X280525489Y-216883853D01*
X280525489Y-216883853D02*
X280454060Y-217026710D01*
X280454060Y-217026710D02*
X280454060Y-217455282D01*
X280454060Y-217455282D02*
X280525489Y-217598139D01*
X280525489Y-217598139D02*
X280596917Y-217669568D01*
X280596917Y-217669568D02*
X280739774Y-217740996D01*
X280739774Y-217740996D02*
X280954060Y-217740996D01*
X279811203Y-217740996D02*
X279811203Y-216740996D01*
X279811203Y-217026710D02*
X279739774Y-216883853D01*
X279739774Y-216883853D02*
X279668346Y-216812425D01*
X279668346Y-216812425D02*
X279525488Y-216740996D01*
X279525488Y-216740996D02*
X279382631Y-216740996D01*
X278882632Y-217740996D02*
X278882632Y-216740996D01*
X278882632Y-216883853D02*
X278811203Y-216812425D01*
X278811203Y-216812425D02*
X278668346Y-216740996D01*
X278668346Y-216740996D02*
X278454060Y-216740996D01*
X278454060Y-216740996D02*
X278311203Y-216812425D01*
X278311203Y-216812425D02*
X278239775Y-216955282D01*
X278239775Y-216955282D02*
X278239775Y-217740996D01*
X278239775Y-216955282D02*
X278168346Y-216812425D01*
X278168346Y-216812425D02*
X278025489Y-216740996D01*
X278025489Y-216740996D02*
X277811203Y-216740996D01*
X277811203Y-216740996D02*
X277668346Y-216812425D01*
X277668346Y-216812425D02*
X277596917Y-216955282D01*
X277596917Y-216955282D02*
X277596917Y-217740996D01*
X276239775Y-217740996D02*
X276239775Y-216955282D01*
X276239775Y-216955282D02*
X276311203Y-216812425D01*
X276311203Y-216812425D02*
X276454060Y-216740996D01*
X276454060Y-216740996D02*
X276739775Y-216740996D01*
X276739775Y-216740996D02*
X276882632Y-216812425D01*
X276239775Y-217669568D02*
X276382632Y-217740996D01*
X276382632Y-217740996D02*
X276739775Y-217740996D01*
X276739775Y-217740996D02*
X276882632Y-217669568D01*
X276882632Y-217669568D02*
X276954060Y-217526710D01*
X276954060Y-217526710D02*
X276954060Y-217383853D01*
X276954060Y-217383853D02*
X276882632Y-217240996D01*
X276882632Y-217240996D02*
X276739775Y-217169568D01*
X276739775Y-217169568D02*
X276382632Y-217169568D01*
X276382632Y-217169568D02*
X276239775Y-217098139D01*
X275311203Y-217740996D02*
X275454060Y-217669568D01*
X275454060Y-217669568D02*
X275525489Y-217526710D01*
X275525489Y-217526710D02*
X275525489Y-216240996D01*
X274668346Y-217669568D02*
X274668346Y-217740996D01*
X274668346Y-217740996D02*
X274739775Y-217883853D01*
X274739775Y-217883853D02*
X274811203Y-217955282D01*
X272954060Y-216383853D02*
X272882632Y-216312425D01*
X272882632Y-216312425D02*
X272739775Y-216240996D01*
X272739775Y-216240996D02*
X272382632Y-216240996D01*
X272382632Y-216240996D02*
X272239775Y-216312425D01*
X272239775Y-216312425D02*
X272168346Y-216383853D01*
X272168346Y-216383853D02*
X272096917Y-216526710D01*
X272096917Y-216526710D02*
X272096917Y-216669568D01*
X272096917Y-216669568D02*
X272168346Y-216883853D01*
X272168346Y-216883853D02*
X273025489Y-217740996D01*
X273025489Y-217740996D02*
X272096917Y-217740996D01*
X271454061Y-217169568D02*
X270311204Y-217169568D01*
X269739775Y-216240996D02*
X268811203Y-216240996D01*
X268811203Y-216240996D02*
X269311203Y-216812425D01*
X269311203Y-216812425D02*
X269096918Y-216812425D01*
X269096918Y-216812425D02*
X268954061Y-216883853D01*
X268954061Y-216883853D02*
X268882632Y-216955282D01*
X268882632Y-216955282D02*
X268811203Y-217098139D01*
X268811203Y-217098139D02*
X268811203Y-217455282D01*
X268811203Y-217455282D02*
X268882632Y-217598139D01*
X268882632Y-217598139D02*
X268954061Y-217669568D01*
X268954061Y-217669568D02*
X269096918Y-217740996D01*
X269096918Y-217740996D02*
X269525489Y-217740996D01*
X269525489Y-217740996D02*
X269668346Y-217669568D01*
X269668346Y-217669568D02*
X269739775Y-217598139D01*
X267025490Y-217740996D02*
X267025490Y-216240996D01*
X267025490Y-216240996D02*
X266668347Y-216240996D01*
X266668347Y-216240996D02*
X266454061Y-216312425D01*
X266454061Y-216312425D02*
X266311204Y-216455282D01*
X266311204Y-216455282D02*
X266239775Y-216598139D01*
X266239775Y-216598139D02*
X266168347Y-216883853D01*
X266168347Y-216883853D02*
X266168347Y-217098139D01*
X266168347Y-217098139D02*
X266239775Y-217383853D01*
X266239775Y-217383853D02*
X266311204Y-217526710D01*
X266311204Y-217526710D02*
X266454061Y-217669568D01*
X266454061Y-217669568D02*
X266668347Y-217740996D01*
X266668347Y-217740996D02*
X267025490Y-217740996D01*
X264382633Y-217740996D02*
X264382633Y-216240996D01*
X264382633Y-216240996D02*
X264025490Y-216240996D01*
X264025490Y-216240996D02*
X263811204Y-216312425D01*
X263811204Y-216312425D02*
X263668347Y-216455282D01*
X263668347Y-216455282D02*
X263596918Y-216598139D01*
X263596918Y-216598139D02*
X263525490Y-216883853D01*
X263525490Y-216883853D02*
X263525490Y-217098139D01*
X263525490Y-217098139D02*
X263596918Y-217383853D01*
X263596918Y-217383853D02*
X263668347Y-217526710D01*
X263668347Y-217526710D02*
X263811204Y-217669568D01*
X263811204Y-217669568D02*
X264025490Y-217740996D01*
X264025490Y-217740996D02*
X264382633Y-217740996D01*
X262882633Y-217740996D02*
X262882633Y-216740996D01*
X262882633Y-216240996D02*
X262954061Y-216312425D01*
X262954061Y-216312425D02*
X262882633Y-216383853D01*
X262882633Y-216383853D02*
X262811204Y-216312425D01*
X262811204Y-216312425D02*
X262882633Y-216240996D01*
X262882633Y-216240996D02*
X262882633Y-216383853D01*
X262239775Y-217669568D02*
X262096918Y-217740996D01*
X262096918Y-217740996D02*
X261811204Y-217740996D01*
X261811204Y-217740996D02*
X261668347Y-217669568D01*
X261668347Y-217669568D02*
X261596918Y-217526710D01*
X261596918Y-217526710D02*
X261596918Y-217455282D01*
X261596918Y-217455282D02*
X261668347Y-217312425D01*
X261668347Y-217312425D02*
X261811204Y-217240996D01*
X261811204Y-217240996D02*
X262025490Y-217240996D01*
X262025490Y-217240996D02*
X262168347Y-217169568D01*
X262168347Y-217169568D02*
X262239775Y-217026710D01*
X262239775Y-217026710D02*
X262239775Y-216955282D01*
X262239775Y-216955282D02*
X262168347Y-216812425D01*
X262168347Y-216812425D02*
X262025490Y-216740996D01*
X262025490Y-216740996D02*
X261811204Y-216740996D01*
X261811204Y-216740996D02*
X261668347Y-216812425D01*
X260311204Y-217740996D02*
X260311204Y-216955282D01*
X260311204Y-216955282D02*
X260382632Y-216812425D01*
X260382632Y-216812425D02*
X260525489Y-216740996D01*
X260525489Y-216740996D02*
X260811204Y-216740996D01*
X260811204Y-216740996D02*
X260954061Y-216812425D01*
X260311204Y-217669568D02*
X260454061Y-217740996D01*
X260454061Y-217740996D02*
X260811204Y-217740996D01*
X260811204Y-217740996D02*
X260954061Y-217669568D01*
X260954061Y-217669568D02*
X261025489Y-217526710D01*
X261025489Y-217526710D02*
X261025489Y-217383853D01*
X261025489Y-217383853D02*
X260954061Y-217240996D01*
X260954061Y-217240996D02*
X260811204Y-217169568D01*
X260811204Y-217169568D02*
X260454061Y-217169568D01*
X260454061Y-217169568D02*
X260311204Y-217098139D01*
X259596918Y-217740996D02*
X259596918Y-216240996D01*
X259596918Y-216812425D02*
X259454061Y-216740996D01*
X259454061Y-216740996D02*
X259168346Y-216740996D01*
X259168346Y-216740996D02*
X259025489Y-216812425D01*
X259025489Y-216812425D02*
X258954061Y-216883853D01*
X258954061Y-216883853D02*
X258882632Y-217026710D01*
X258882632Y-217026710D02*
X258882632Y-217455282D01*
X258882632Y-217455282D02*
X258954061Y-217598139D01*
X258954061Y-217598139D02*
X259025489Y-217669568D01*
X259025489Y-217669568D02*
X259168346Y-217740996D01*
X259168346Y-217740996D02*
X259454061Y-217740996D01*
X259454061Y-217740996D02*
X259596918Y-217669568D01*
X258025489Y-217740996D02*
X258168346Y-217669568D01*
X258168346Y-217669568D02*
X258239775Y-217526710D01*
X258239775Y-217526710D02*
X258239775Y-216240996D01*
X256882632Y-217669568D02*
X257025489Y-217740996D01*
X257025489Y-217740996D02*
X257311204Y-217740996D01*
X257311204Y-217740996D02*
X257454061Y-217669568D01*
X257454061Y-217669568D02*
X257525489Y-217526710D01*
X257525489Y-217526710D02*
X257525489Y-216955282D01*
X257525489Y-216955282D02*
X257454061Y-216812425D01*
X257454061Y-216812425D02*
X257311204Y-216740996D01*
X257311204Y-216740996D02*
X257025489Y-216740996D01*
X257025489Y-216740996D02*
X256882632Y-216812425D01*
X256882632Y-216812425D02*
X256811204Y-216955282D01*
X256811204Y-216955282D02*
X256811204Y-217098139D01*
X256811204Y-217098139D02*
X257525489Y-217240996D01*
X256311204Y-218312425D02*
X256239775Y-218240996D01*
X256239775Y-218240996D02*
X256096918Y-218026710D01*
X256096918Y-218026710D02*
X256025490Y-217883853D01*
X256025490Y-217883853D02*
X255954061Y-217669568D01*
X255954061Y-217669568D02*
X255882632Y-217312425D01*
X255882632Y-217312425D02*
X255882632Y-217026710D01*
X255882632Y-217026710D02*
X255954061Y-216669568D01*
X255954061Y-216669568D02*
X256025490Y-216455282D01*
X256025490Y-216455282D02*
X256096918Y-216312425D01*
X256096918Y-216312425D02*
X256239775Y-216098139D01*
X256239775Y-216098139D02*
X256311204Y-216026710D01*
X319596917Y-218655912D02*
X319596917Y-219727341D01*
X319596917Y-219727341D02*
X319668346Y-219941626D01*
X319668346Y-219941626D02*
X319811203Y-220084484D01*
X319811203Y-220084484D02*
X320025489Y-220155912D01*
X320025489Y-220155912D02*
X320168346Y-220155912D01*
X318882632Y-220155912D02*
X318882632Y-218655912D01*
X318882632Y-218655912D02*
X318382632Y-219727341D01*
X318382632Y-219727341D02*
X317882632Y-218655912D01*
X317882632Y-218655912D02*
X317882632Y-220155912D01*
X317168346Y-220155912D02*
X317168346Y-218655912D01*
X317168346Y-218655912D02*
X316596917Y-218655912D01*
X316596917Y-218655912D02*
X316454060Y-218727341D01*
X316454060Y-218727341D02*
X316382631Y-218798769D01*
X316382631Y-218798769D02*
X316311203Y-218941626D01*
X316311203Y-218941626D02*
X316311203Y-219155912D01*
X316311203Y-219155912D02*
X316382631Y-219298769D01*
X316382631Y-219298769D02*
X316454060Y-219370198D01*
X316454060Y-219370198D02*
X316596917Y-219441626D01*
X316596917Y-219441626D02*
X317168346Y-219441626D01*
X315596917Y-220155912D02*
X315311203Y-220155912D01*
X315311203Y-220155912D02*
X315168346Y-220084484D01*
X315168346Y-220084484D02*
X315096917Y-220013055D01*
X315096917Y-220013055D02*
X314954060Y-219798769D01*
X314954060Y-219798769D02*
X314882631Y-219513055D01*
X314882631Y-219513055D02*
X314882631Y-218941626D01*
X314882631Y-218941626D02*
X314954060Y-218798769D01*
X314954060Y-218798769D02*
X315025489Y-218727341D01*
X315025489Y-218727341D02*
X315168346Y-218655912D01*
X315168346Y-218655912D02*
X315454060Y-218655912D01*
X315454060Y-218655912D02*
X315596917Y-218727341D01*
X315596917Y-218727341D02*
X315668346Y-218798769D01*
X315668346Y-218798769D02*
X315739774Y-218941626D01*
X315739774Y-218941626D02*
X315739774Y-219298769D01*
X315739774Y-219298769D02*
X315668346Y-219441626D01*
X315668346Y-219441626D02*
X315596917Y-219513055D01*
X315596917Y-219513055D02*
X315454060Y-219584484D01*
X315454060Y-219584484D02*
X315168346Y-219584484D01*
X315168346Y-219584484D02*
X315025489Y-219513055D01*
X315025489Y-219513055D02*
X314954060Y-219441626D01*
X314954060Y-219441626D02*
X314882631Y-219298769D01*
X307596917Y-220155912D02*
X308454060Y-220155912D01*
X308025489Y-220155912D02*
X308025489Y-218655912D01*
X308025489Y-218655912D02*
X308168346Y-218870198D01*
X308168346Y-218870198D02*
X308311203Y-219013055D01*
X308311203Y-219013055D02*
X308454060Y-219084484D01*
X307025489Y-218798769D02*
X306954061Y-218727341D01*
X306954061Y-218727341D02*
X306811204Y-218655912D01*
X306811204Y-218655912D02*
X306454061Y-218655912D01*
X306454061Y-218655912D02*
X306311204Y-218727341D01*
X306311204Y-218727341D02*
X306239775Y-218798769D01*
X306239775Y-218798769D02*
X306168346Y-218941626D01*
X306168346Y-218941626D02*
X306168346Y-219084484D01*
X306168346Y-219084484D02*
X306239775Y-219298769D01*
X306239775Y-219298769D02*
X307096918Y-220155912D01*
X307096918Y-220155912D02*
X306168346Y-220155912D01*
X305739775Y-218655912D02*
X305239775Y-220155912D01*
X305239775Y-220155912D02*
X304739775Y-218655912D01*
X303096919Y-219370198D02*
X302596919Y-219370198D01*
X302382633Y-220155912D02*
X303096919Y-220155912D01*
X303096919Y-220155912D02*
X303096919Y-218655912D01*
X303096919Y-218655912D02*
X302382633Y-218655912D01*
X301882633Y-220155912D02*
X301096919Y-219155912D01*
X301882633Y-219155912D02*
X301096919Y-220155912D01*
X300525490Y-219155912D02*
X300525490Y-220655912D01*
X300525490Y-219227341D02*
X300382633Y-219155912D01*
X300382633Y-219155912D02*
X300096918Y-219155912D01*
X300096918Y-219155912D02*
X299954061Y-219227341D01*
X299954061Y-219227341D02*
X299882633Y-219298769D01*
X299882633Y-219298769D02*
X299811204Y-219441626D01*
X299811204Y-219441626D02*
X299811204Y-219870198D01*
X299811204Y-219870198D02*
X299882633Y-220013055D01*
X299882633Y-220013055D02*
X299954061Y-220084484D01*
X299954061Y-220084484D02*
X300096918Y-220155912D01*
X300096918Y-220155912D02*
X300382633Y-220155912D01*
X300382633Y-220155912D02*
X300525490Y-220084484D01*
X298525490Y-220155912D02*
X298525490Y-219370198D01*
X298525490Y-219370198D02*
X298596918Y-219227341D01*
X298596918Y-219227341D02*
X298739775Y-219155912D01*
X298739775Y-219155912D02*
X299025490Y-219155912D01*
X299025490Y-219155912D02*
X299168347Y-219227341D01*
X298525490Y-220084484D02*
X298668347Y-220155912D01*
X298668347Y-220155912D02*
X299025490Y-220155912D01*
X299025490Y-220155912D02*
X299168347Y-220084484D01*
X299168347Y-220084484D02*
X299239775Y-219941626D01*
X299239775Y-219941626D02*
X299239775Y-219798769D01*
X299239775Y-219798769D02*
X299168347Y-219655912D01*
X299168347Y-219655912D02*
X299025490Y-219584484D01*
X299025490Y-219584484D02*
X298668347Y-219584484D01*
X298668347Y-219584484D02*
X298525490Y-219513055D01*
X297811204Y-219155912D02*
X297811204Y-220155912D01*
X297811204Y-219298769D02*
X297739775Y-219227341D01*
X297739775Y-219227341D02*
X297596918Y-219155912D01*
X297596918Y-219155912D02*
X297382632Y-219155912D01*
X297382632Y-219155912D02*
X297239775Y-219227341D01*
X297239775Y-219227341D02*
X297168347Y-219370198D01*
X297168347Y-219370198D02*
X297168347Y-220155912D01*
X296525489Y-220084484D02*
X296382632Y-220155912D01*
X296382632Y-220155912D02*
X296096918Y-220155912D01*
X296096918Y-220155912D02*
X295954061Y-220084484D01*
X295954061Y-220084484D02*
X295882632Y-219941626D01*
X295882632Y-219941626D02*
X295882632Y-219870198D01*
X295882632Y-219870198D02*
X295954061Y-219727341D01*
X295954061Y-219727341D02*
X296096918Y-219655912D01*
X296096918Y-219655912D02*
X296311204Y-219655912D01*
X296311204Y-219655912D02*
X296454061Y-219584484D01*
X296454061Y-219584484D02*
X296525489Y-219441626D01*
X296525489Y-219441626D02*
X296525489Y-219370198D01*
X296525489Y-219370198D02*
X296454061Y-219227341D01*
X296454061Y-219227341D02*
X296311204Y-219155912D01*
X296311204Y-219155912D02*
X296096918Y-219155912D01*
X296096918Y-219155912D02*
X295954061Y-219227341D01*
X295239775Y-220155912D02*
X295239775Y-219155912D01*
X295239775Y-218655912D02*
X295311203Y-218727341D01*
X295311203Y-218727341D02*
X295239775Y-218798769D01*
X295239775Y-218798769D02*
X295168346Y-218727341D01*
X295168346Y-218727341D02*
X295239775Y-218655912D01*
X295239775Y-218655912D02*
X295239775Y-218798769D01*
X294311203Y-220155912D02*
X294454060Y-220084484D01*
X294454060Y-220084484D02*
X294525489Y-220013055D01*
X294525489Y-220013055D02*
X294596917Y-219870198D01*
X294596917Y-219870198D02*
X294596917Y-219441626D01*
X294596917Y-219441626D02*
X294525489Y-219298769D01*
X294525489Y-219298769D02*
X294454060Y-219227341D01*
X294454060Y-219227341D02*
X294311203Y-219155912D01*
X294311203Y-219155912D02*
X294096917Y-219155912D01*
X294096917Y-219155912D02*
X293954060Y-219227341D01*
X293954060Y-219227341D02*
X293882632Y-219298769D01*
X293882632Y-219298769D02*
X293811203Y-219441626D01*
X293811203Y-219441626D02*
X293811203Y-219870198D01*
X293811203Y-219870198D02*
X293882632Y-220013055D01*
X293882632Y-220013055D02*
X293954060Y-220084484D01*
X293954060Y-220084484D02*
X294096917Y-220155912D01*
X294096917Y-220155912D02*
X294311203Y-220155912D01*
X293168346Y-219155912D02*
X293168346Y-220155912D01*
X293168346Y-219298769D02*
X293096917Y-219227341D01*
X293096917Y-219227341D02*
X292954060Y-219155912D01*
X292954060Y-219155912D02*
X292739774Y-219155912D01*
X292739774Y-219155912D02*
X292596917Y-219227341D01*
X292596917Y-219227341D02*
X292525489Y-219370198D01*
X292525489Y-219370198D02*
X292525489Y-220155912D01*
X290668346Y-220155912D02*
X290668346Y-218655912D01*
X290668346Y-218655912D02*
X290096917Y-218655912D01*
X290096917Y-218655912D02*
X289954060Y-218727341D01*
X289954060Y-218727341D02*
X289882631Y-218798769D01*
X289882631Y-218798769D02*
X289811203Y-218941626D01*
X289811203Y-218941626D02*
X289811203Y-219155912D01*
X289811203Y-219155912D02*
X289882631Y-219298769D01*
X289882631Y-219298769D02*
X289954060Y-219370198D01*
X289954060Y-219370198D02*
X290096917Y-219441626D01*
X290096917Y-219441626D02*
X290668346Y-219441626D01*
X289168346Y-220155912D02*
X289168346Y-219155912D01*
X289168346Y-218655912D02*
X289239774Y-218727341D01*
X289239774Y-218727341D02*
X289168346Y-218798769D01*
X289168346Y-218798769D02*
X289096917Y-218727341D01*
X289096917Y-218727341D02*
X289168346Y-218655912D01*
X289168346Y-218655912D02*
X289168346Y-218798769D01*
X288454060Y-219155912D02*
X288454060Y-220155912D01*
X288454060Y-219298769D02*
X288382631Y-219227341D01*
X288382631Y-219227341D02*
X288239774Y-219155912D01*
X288239774Y-219155912D02*
X288025488Y-219155912D01*
X288025488Y-219155912D02*
X287882631Y-219227341D01*
X287882631Y-219227341D02*
X287811203Y-219370198D01*
X287811203Y-219370198D02*
X287811203Y-220155912D01*
X285311203Y-219155912D02*
X285311203Y-220155912D01*
X285668345Y-218584484D02*
X286025488Y-219655912D01*
X286025488Y-219655912D02*
X285096917Y-219655912D01*
X284239774Y-218655912D02*
X284096917Y-218655912D01*
X284096917Y-218655912D02*
X283954060Y-218727341D01*
X283954060Y-218727341D02*
X283882632Y-218798769D01*
X283882632Y-218798769D02*
X283811203Y-218941626D01*
X283811203Y-218941626D02*
X283739774Y-219227341D01*
X283739774Y-219227341D02*
X283739774Y-219584484D01*
X283739774Y-219584484D02*
X283811203Y-219870198D01*
X283811203Y-219870198D02*
X283882632Y-220013055D01*
X283882632Y-220013055D02*
X283954060Y-220084484D01*
X283954060Y-220084484D02*
X284096917Y-220155912D01*
X284096917Y-220155912D02*
X284239774Y-220155912D01*
X284239774Y-220155912D02*
X284382632Y-220084484D01*
X284382632Y-220084484D02*
X284454060Y-220013055D01*
X284454060Y-220013055D02*
X284525489Y-219870198D01*
X284525489Y-219870198D02*
X284596917Y-219584484D01*
X284596917Y-219584484D02*
X284596917Y-219227341D01*
X284596917Y-219227341D02*
X284525489Y-218941626D01*
X284525489Y-218941626D02*
X284454060Y-218798769D01*
X284454060Y-218798769D02*
X284382632Y-218727341D01*
X284382632Y-218727341D02*
X284239774Y-218655912D01*
X319596917Y-221070828D02*
X319596917Y-222142257D01*
X319596917Y-222142257D02*
X319668346Y-222356542D01*
X319668346Y-222356542D02*
X319811203Y-222499400D01*
X319811203Y-222499400D02*
X320025489Y-222570828D01*
X320025489Y-222570828D02*
X320168346Y-222570828D01*
X318882632Y-222570828D02*
X318882632Y-221070828D01*
X318882632Y-221070828D02*
X318382632Y-222142257D01*
X318382632Y-222142257D02*
X317882632Y-221070828D01*
X317882632Y-221070828D02*
X317882632Y-222570828D01*
X317168346Y-222570828D02*
X317168346Y-221070828D01*
X317168346Y-221070828D02*
X316596917Y-221070828D01*
X316596917Y-221070828D02*
X316454060Y-221142257D01*
X316454060Y-221142257D02*
X316382631Y-221213685D01*
X316382631Y-221213685D02*
X316311203Y-221356542D01*
X316311203Y-221356542D02*
X316311203Y-221570828D01*
X316311203Y-221570828D02*
X316382631Y-221713685D01*
X316382631Y-221713685D02*
X316454060Y-221785114D01*
X316454060Y-221785114D02*
X316596917Y-221856542D01*
X316596917Y-221856542D02*
X317168346Y-221856542D01*
X314882631Y-222570828D02*
X315739774Y-222570828D01*
X315311203Y-222570828D02*
X315311203Y-221070828D01*
X315311203Y-221070828D02*
X315454060Y-221285114D01*
X315454060Y-221285114D02*
X315596917Y-221427971D01*
X315596917Y-221427971D02*
X315739774Y-221499400D01*
X313954060Y-221070828D02*
X313811203Y-221070828D01*
X313811203Y-221070828D02*
X313668346Y-221142257D01*
X313668346Y-221142257D02*
X313596918Y-221213685D01*
X313596918Y-221213685D02*
X313525489Y-221356542D01*
X313525489Y-221356542D02*
X313454060Y-221642257D01*
X313454060Y-221642257D02*
X313454060Y-221999400D01*
X313454060Y-221999400D02*
X313525489Y-222285114D01*
X313525489Y-222285114D02*
X313596918Y-222427971D01*
X313596918Y-222427971D02*
X313668346Y-222499400D01*
X313668346Y-222499400D02*
X313811203Y-222570828D01*
X313811203Y-222570828D02*
X313954060Y-222570828D01*
X313954060Y-222570828D02*
X314096918Y-222499400D01*
X314096918Y-222499400D02*
X314168346Y-222427971D01*
X314168346Y-222427971D02*
X314239775Y-222285114D01*
X314239775Y-222285114D02*
X314311203Y-221999400D01*
X314311203Y-221999400D02*
X314311203Y-221642257D01*
X314311203Y-221642257D02*
X314239775Y-221356542D01*
X314239775Y-221356542D02*
X314168346Y-221213685D01*
X314168346Y-221213685D02*
X314096918Y-221142257D01*
X314096918Y-221142257D02*
X313954060Y-221070828D01*
X308382632Y-222570828D02*
X308382632Y-221070828D01*
X308382632Y-221070828D02*
X307811203Y-221070828D01*
X307811203Y-221070828D02*
X307668346Y-221142257D01*
X307668346Y-221142257D02*
X307596917Y-221213685D01*
X307596917Y-221213685D02*
X307525489Y-221356542D01*
X307525489Y-221356542D02*
X307525489Y-221570828D01*
X307525489Y-221570828D02*
X307596917Y-221713685D01*
X307596917Y-221713685D02*
X307668346Y-221785114D01*
X307668346Y-221785114D02*
X307811203Y-221856542D01*
X307811203Y-221856542D02*
X308382632Y-221856542D01*
X306882632Y-222570828D02*
X306882632Y-221570828D01*
X306882632Y-221856542D02*
X306811203Y-221713685D01*
X306811203Y-221713685D02*
X306739775Y-221642257D01*
X306739775Y-221642257D02*
X306596917Y-221570828D01*
X306596917Y-221570828D02*
X306454060Y-221570828D01*
X305382632Y-222499400D02*
X305525489Y-222570828D01*
X305525489Y-222570828D02*
X305811204Y-222570828D01*
X305811204Y-222570828D02*
X305954061Y-222499400D01*
X305954061Y-222499400D02*
X306025489Y-222356542D01*
X306025489Y-222356542D02*
X306025489Y-221785114D01*
X306025489Y-221785114D02*
X305954061Y-221642257D01*
X305954061Y-221642257D02*
X305811204Y-221570828D01*
X305811204Y-221570828D02*
X305525489Y-221570828D01*
X305525489Y-221570828D02*
X305382632Y-221642257D01*
X305382632Y-221642257D02*
X305311204Y-221785114D01*
X305311204Y-221785114D02*
X305311204Y-221927971D01*
X305311204Y-221927971D02*
X306025489Y-222070828D01*
X304739775Y-222499400D02*
X304596918Y-222570828D01*
X304596918Y-222570828D02*
X304311204Y-222570828D01*
X304311204Y-222570828D02*
X304168347Y-222499400D01*
X304168347Y-222499400D02*
X304096918Y-222356542D01*
X304096918Y-222356542D02*
X304096918Y-222285114D01*
X304096918Y-222285114D02*
X304168347Y-222142257D01*
X304168347Y-222142257D02*
X304311204Y-222070828D01*
X304311204Y-222070828D02*
X304525490Y-222070828D01*
X304525490Y-222070828D02*
X304668347Y-221999400D01*
X304668347Y-221999400D02*
X304739775Y-221856542D01*
X304739775Y-221856542D02*
X304739775Y-221785114D01*
X304739775Y-221785114D02*
X304668347Y-221642257D01*
X304668347Y-221642257D02*
X304525490Y-221570828D01*
X304525490Y-221570828D02*
X304311204Y-221570828D01*
X304311204Y-221570828D02*
X304168347Y-221642257D01*
X302882632Y-222499400D02*
X303025489Y-222570828D01*
X303025489Y-222570828D02*
X303311204Y-222570828D01*
X303311204Y-222570828D02*
X303454061Y-222499400D01*
X303454061Y-222499400D02*
X303525489Y-222356542D01*
X303525489Y-222356542D02*
X303525489Y-221785114D01*
X303525489Y-221785114D02*
X303454061Y-221642257D01*
X303454061Y-221642257D02*
X303311204Y-221570828D01*
X303311204Y-221570828D02*
X303025489Y-221570828D01*
X303025489Y-221570828D02*
X302882632Y-221642257D01*
X302882632Y-221642257D02*
X302811204Y-221785114D01*
X302811204Y-221785114D02*
X302811204Y-221927971D01*
X302811204Y-221927971D02*
X303525489Y-222070828D01*
X302382632Y-221570828D02*
X301811204Y-221570828D01*
X302168347Y-221070828D02*
X302168347Y-222356542D01*
X302168347Y-222356542D02*
X302096918Y-222499400D01*
X302096918Y-222499400D02*
X301954061Y-222570828D01*
X301954061Y-222570828D02*
X301811204Y-222570828D01*
X299882632Y-221070828D02*
X299596918Y-221070828D01*
X299596918Y-221070828D02*
X299454061Y-221142257D01*
X299454061Y-221142257D02*
X299311204Y-221285114D01*
X299311204Y-221285114D02*
X299239775Y-221570828D01*
X299239775Y-221570828D02*
X299239775Y-222070828D01*
X299239775Y-222070828D02*
X299311204Y-222356542D01*
X299311204Y-222356542D02*
X299454061Y-222499400D01*
X299454061Y-222499400D02*
X299596918Y-222570828D01*
X299596918Y-222570828D02*
X299882632Y-222570828D01*
X299882632Y-222570828D02*
X300025490Y-222499400D01*
X300025490Y-222499400D02*
X300168347Y-222356542D01*
X300168347Y-222356542D02*
X300239775Y-222070828D01*
X300239775Y-222070828D02*
X300239775Y-221570828D01*
X300239775Y-221570828D02*
X300168347Y-221285114D01*
X300168347Y-221285114D02*
X300025490Y-221142257D01*
X300025490Y-221142257D02*
X299882632Y-221070828D01*
X298596918Y-222570828D02*
X298596918Y-221070828D01*
X298596918Y-221070828D02*
X297739775Y-222570828D01*
X297739775Y-222570828D02*
X297739775Y-221070828D01*
X297025489Y-222427971D02*
X296954060Y-222499400D01*
X296954060Y-222499400D02*
X297025489Y-222570828D01*
X297025489Y-222570828D02*
X297096917Y-222499400D01*
X297096917Y-222499400D02*
X297025489Y-222427971D01*
X297025489Y-222427971D02*
X297025489Y-222570828D01*
X295168346Y-222570828D02*
X295168346Y-221070828D01*
X295168346Y-221785114D02*
X294311203Y-221785114D01*
X294311203Y-222570828D02*
X294311203Y-221070828D01*
X293668345Y-222499400D02*
X293454060Y-222570828D01*
X293454060Y-222570828D02*
X293096917Y-222570828D01*
X293096917Y-222570828D02*
X292954060Y-222499400D01*
X292954060Y-222499400D02*
X292882631Y-222427971D01*
X292882631Y-222427971D02*
X292811202Y-222285114D01*
X292811202Y-222285114D02*
X292811202Y-222142257D01*
X292811202Y-222142257D02*
X292882631Y-221999400D01*
X292882631Y-221999400D02*
X292954060Y-221927971D01*
X292954060Y-221927971D02*
X293096917Y-221856542D01*
X293096917Y-221856542D02*
X293382631Y-221785114D01*
X293382631Y-221785114D02*
X293525488Y-221713685D01*
X293525488Y-221713685D02*
X293596917Y-221642257D01*
X293596917Y-221642257D02*
X293668345Y-221499400D01*
X293668345Y-221499400D02*
X293668345Y-221356542D01*
X293668345Y-221356542D02*
X293596917Y-221213685D01*
X293596917Y-221213685D02*
X293525488Y-221142257D01*
X293525488Y-221142257D02*
X293382631Y-221070828D01*
X293382631Y-221070828D02*
X293025488Y-221070828D01*
X293025488Y-221070828D02*
X292811202Y-221142257D01*
X291882631Y-221856542D02*
X291882631Y-222570828D01*
X292382631Y-221070828D02*
X291882631Y-221856542D01*
X291882631Y-221856542D02*
X291382631Y-221070828D01*
X290882632Y-222570828D02*
X290882632Y-221070828D01*
X290882632Y-221070828D02*
X290025489Y-222570828D01*
X290025489Y-222570828D02*
X290025489Y-221070828D01*
X288454060Y-222427971D02*
X288525488Y-222499400D01*
X288525488Y-222499400D02*
X288739774Y-222570828D01*
X288739774Y-222570828D02*
X288882631Y-222570828D01*
X288882631Y-222570828D02*
X289096917Y-222499400D01*
X289096917Y-222499400D02*
X289239774Y-222356542D01*
X289239774Y-222356542D02*
X289311203Y-222213685D01*
X289311203Y-222213685D02*
X289382631Y-221927971D01*
X289382631Y-221927971D02*
X289382631Y-221713685D01*
X289382631Y-221713685D02*
X289311203Y-221427971D01*
X289311203Y-221427971D02*
X289239774Y-221285114D01*
X289239774Y-221285114D02*
X289096917Y-221142257D01*
X289096917Y-221142257D02*
X288882631Y-221070828D01*
X288882631Y-221070828D02*
X288739774Y-221070828D01*
X288739774Y-221070828D02*
X288525488Y-221142257D01*
X288525488Y-221142257D02*
X288454060Y-221213685D01*
X286025489Y-222499400D02*
X286168346Y-222570828D01*
X286168346Y-222570828D02*
X286454060Y-222570828D01*
X286454060Y-222570828D02*
X286596917Y-222499400D01*
X286596917Y-222499400D02*
X286668346Y-222427971D01*
X286668346Y-222427971D02*
X286739774Y-222285114D01*
X286739774Y-222285114D02*
X286739774Y-221856542D01*
X286739774Y-221856542D02*
X286668346Y-221713685D01*
X286668346Y-221713685D02*
X286596917Y-221642257D01*
X286596917Y-221642257D02*
X286454060Y-221570828D01*
X286454060Y-221570828D02*
X286168346Y-221570828D01*
X286168346Y-221570828D02*
X286025489Y-221642257D01*
X285168346Y-222570828D02*
X285311203Y-222499400D01*
X285311203Y-222499400D02*
X285382632Y-222427971D01*
X285382632Y-222427971D02*
X285454060Y-222285114D01*
X285454060Y-222285114D02*
X285454060Y-221856542D01*
X285454060Y-221856542D02*
X285382632Y-221713685D01*
X285382632Y-221713685D02*
X285311203Y-221642257D01*
X285311203Y-221642257D02*
X285168346Y-221570828D01*
X285168346Y-221570828D02*
X284954060Y-221570828D01*
X284954060Y-221570828D02*
X284811203Y-221642257D01*
X284811203Y-221642257D02*
X284739775Y-221713685D01*
X284739775Y-221713685D02*
X284668346Y-221856542D01*
X284668346Y-221856542D02*
X284668346Y-222285114D01*
X284668346Y-222285114D02*
X284739775Y-222427971D01*
X284739775Y-222427971D02*
X284811203Y-222499400D01*
X284811203Y-222499400D02*
X284954060Y-222570828D01*
X284954060Y-222570828D02*
X285168346Y-222570828D01*
X284025489Y-221570828D02*
X284025489Y-222570828D01*
X284025489Y-221713685D02*
X283954060Y-221642257D01*
X283954060Y-221642257D02*
X283811203Y-221570828D01*
X283811203Y-221570828D02*
X283596917Y-221570828D01*
X283596917Y-221570828D02*
X283454060Y-221642257D01*
X283454060Y-221642257D02*
X283382632Y-221785114D01*
X283382632Y-221785114D02*
X283382632Y-222570828D01*
X282668346Y-221570828D02*
X282668346Y-222570828D01*
X282668346Y-221713685D02*
X282596917Y-221642257D01*
X282596917Y-221642257D02*
X282454060Y-221570828D01*
X282454060Y-221570828D02*
X282239774Y-221570828D01*
X282239774Y-221570828D02*
X282096917Y-221642257D01*
X282096917Y-221642257D02*
X282025489Y-221785114D01*
X282025489Y-221785114D02*
X282025489Y-222570828D01*
X280739774Y-222499400D02*
X280882631Y-222570828D01*
X280882631Y-222570828D02*
X281168346Y-222570828D01*
X281168346Y-222570828D02*
X281311203Y-222499400D01*
X281311203Y-222499400D02*
X281382631Y-222356542D01*
X281382631Y-222356542D02*
X281382631Y-221785114D01*
X281382631Y-221785114D02*
X281311203Y-221642257D01*
X281311203Y-221642257D02*
X281168346Y-221570828D01*
X281168346Y-221570828D02*
X280882631Y-221570828D01*
X280882631Y-221570828D02*
X280739774Y-221642257D01*
X280739774Y-221642257D02*
X280668346Y-221785114D01*
X280668346Y-221785114D02*
X280668346Y-221927971D01*
X280668346Y-221927971D02*
X281382631Y-222070828D01*
X279382632Y-222499400D02*
X279525489Y-222570828D01*
X279525489Y-222570828D02*
X279811203Y-222570828D01*
X279811203Y-222570828D02*
X279954060Y-222499400D01*
X279954060Y-222499400D02*
X280025489Y-222427971D01*
X280025489Y-222427971D02*
X280096917Y-222285114D01*
X280096917Y-222285114D02*
X280096917Y-221856542D01*
X280096917Y-221856542D02*
X280025489Y-221713685D01*
X280025489Y-221713685D02*
X279954060Y-221642257D01*
X279954060Y-221642257D02*
X279811203Y-221570828D01*
X279811203Y-221570828D02*
X279525489Y-221570828D01*
X279525489Y-221570828D02*
X279382632Y-221642257D01*
X278954060Y-221570828D02*
X278382632Y-221570828D01*
X278739775Y-221070828D02*
X278739775Y-222356542D01*
X278739775Y-222356542D02*
X278668346Y-222499400D01*
X278668346Y-222499400D02*
X278525489Y-222570828D01*
X278525489Y-222570828D02*
X278382632Y-222570828D01*
X277882632Y-222570828D02*
X277882632Y-221570828D01*
X277882632Y-221070828D02*
X277954060Y-221142257D01*
X277954060Y-221142257D02*
X277882632Y-221213685D01*
X277882632Y-221213685D02*
X277811203Y-221142257D01*
X277811203Y-221142257D02*
X277882632Y-221070828D01*
X277882632Y-221070828D02*
X277882632Y-221213685D01*
X276954060Y-222570828D02*
X277096917Y-222499400D01*
X277096917Y-222499400D02*
X277168346Y-222427971D01*
X277168346Y-222427971D02*
X277239774Y-222285114D01*
X277239774Y-222285114D02*
X277239774Y-221856542D01*
X277239774Y-221856542D02*
X277168346Y-221713685D01*
X277168346Y-221713685D02*
X277096917Y-221642257D01*
X277096917Y-221642257D02*
X276954060Y-221570828D01*
X276954060Y-221570828D02*
X276739774Y-221570828D01*
X276739774Y-221570828D02*
X276596917Y-221642257D01*
X276596917Y-221642257D02*
X276525489Y-221713685D01*
X276525489Y-221713685D02*
X276454060Y-221856542D01*
X276454060Y-221856542D02*
X276454060Y-222285114D01*
X276454060Y-222285114D02*
X276525489Y-222427971D01*
X276525489Y-222427971D02*
X276596917Y-222499400D01*
X276596917Y-222499400D02*
X276739774Y-222570828D01*
X276739774Y-222570828D02*
X276954060Y-222570828D01*
X275811203Y-221570828D02*
X275811203Y-222570828D01*
X275811203Y-221713685D02*
X275739774Y-221642257D01*
X275739774Y-221642257D02*
X275596917Y-221570828D01*
X275596917Y-221570828D02*
X275382631Y-221570828D01*
X275382631Y-221570828D02*
X275239774Y-221642257D01*
X275239774Y-221642257D02*
X275168346Y-221785114D01*
X275168346Y-221785114D02*
X275168346Y-222570828D01*
X273525488Y-221570828D02*
X272954060Y-221570828D01*
X273311203Y-222570828D02*
X273311203Y-221285114D01*
X273311203Y-221285114D02*
X273239774Y-221142257D01*
X273239774Y-221142257D02*
X273096917Y-221070828D01*
X273096917Y-221070828D02*
X272954060Y-221070828D01*
X272239774Y-222570828D02*
X272382631Y-222499400D01*
X272382631Y-222499400D02*
X272454060Y-222427971D01*
X272454060Y-222427971D02*
X272525488Y-222285114D01*
X272525488Y-222285114D02*
X272525488Y-221856542D01*
X272525488Y-221856542D02*
X272454060Y-221713685D01*
X272454060Y-221713685D02*
X272382631Y-221642257D01*
X272382631Y-221642257D02*
X272239774Y-221570828D01*
X272239774Y-221570828D02*
X272025488Y-221570828D01*
X272025488Y-221570828D02*
X271882631Y-221642257D01*
X271882631Y-221642257D02*
X271811203Y-221713685D01*
X271811203Y-221713685D02*
X271739774Y-221856542D01*
X271739774Y-221856542D02*
X271739774Y-222285114D01*
X271739774Y-222285114D02*
X271811203Y-222427971D01*
X271811203Y-222427971D02*
X271882631Y-222499400D01*
X271882631Y-222499400D02*
X272025488Y-222570828D01*
X272025488Y-222570828D02*
X272239774Y-222570828D01*
X271096917Y-222570828D02*
X271096917Y-221570828D01*
X271096917Y-221856542D02*
X271025488Y-221713685D01*
X271025488Y-221713685D02*
X270954060Y-221642257D01*
X270954060Y-221642257D02*
X270811202Y-221570828D01*
X270811202Y-221570828D02*
X270668345Y-221570828D01*
X268168346Y-222427971D02*
X268239774Y-222499400D01*
X268239774Y-222499400D02*
X268454060Y-222570828D01*
X268454060Y-222570828D02*
X268596917Y-222570828D01*
X268596917Y-222570828D02*
X268811203Y-222499400D01*
X268811203Y-222499400D02*
X268954060Y-222356542D01*
X268954060Y-222356542D02*
X269025489Y-222213685D01*
X269025489Y-222213685D02*
X269096917Y-221927971D01*
X269096917Y-221927971D02*
X269096917Y-221713685D01*
X269096917Y-221713685D02*
X269025489Y-221427971D01*
X269025489Y-221427971D02*
X268954060Y-221285114D01*
X268954060Y-221285114D02*
X268811203Y-221142257D01*
X268811203Y-221142257D02*
X268596917Y-221070828D01*
X268596917Y-221070828D02*
X268454060Y-221070828D01*
X268454060Y-221070828D02*
X268239774Y-221142257D01*
X268239774Y-221142257D02*
X268168346Y-221213685D01*
X267596917Y-222499400D02*
X267382632Y-222570828D01*
X267382632Y-222570828D02*
X267025489Y-222570828D01*
X267025489Y-222570828D02*
X266882632Y-222499400D01*
X266882632Y-222499400D02*
X266811203Y-222427971D01*
X266811203Y-222427971D02*
X266739774Y-222285114D01*
X266739774Y-222285114D02*
X266739774Y-222142257D01*
X266739774Y-222142257D02*
X266811203Y-221999400D01*
X266811203Y-221999400D02*
X266882632Y-221927971D01*
X266882632Y-221927971D02*
X267025489Y-221856542D01*
X267025489Y-221856542D02*
X267311203Y-221785114D01*
X267311203Y-221785114D02*
X267454060Y-221713685D01*
X267454060Y-221713685D02*
X267525489Y-221642257D01*
X267525489Y-221642257D02*
X267596917Y-221499400D01*
X267596917Y-221499400D02*
X267596917Y-221356542D01*
X267596917Y-221356542D02*
X267525489Y-221213685D01*
X267525489Y-221213685D02*
X267454060Y-221142257D01*
X267454060Y-221142257D02*
X267311203Y-221070828D01*
X267311203Y-221070828D02*
X266954060Y-221070828D01*
X266954060Y-221070828D02*
X266739774Y-221142257D01*
X265811203Y-221856542D02*
X265811203Y-222570828D01*
X266311203Y-221070828D02*
X265811203Y-221856542D01*
X265811203Y-221856542D02*
X265311203Y-221070828D01*
X264811204Y-222570828D02*
X264811204Y-221070828D01*
X264811204Y-221070828D02*
X263954061Y-222570828D01*
X263954061Y-222570828D02*
X263954061Y-221070828D01*
X262382632Y-222427971D02*
X262454060Y-222499400D01*
X262454060Y-222499400D02*
X262668346Y-222570828D01*
X262668346Y-222570828D02*
X262811203Y-222570828D01*
X262811203Y-222570828D02*
X263025489Y-222499400D01*
X263025489Y-222499400D02*
X263168346Y-222356542D01*
X263168346Y-222356542D02*
X263239775Y-222213685D01*
X263239775Y-222213685D02*
X263311203Y-221927971D01*
X263311203Y-221927971D02*
X263311203Y-221713685D01*
X263311203Y-221713685D02*
X263239775Y-221427971D01*
X263239775Y-221427971D02*
X263168346Y-221285114D01*
X263168346Y-221285114D02*
X263025489Y-221142257D01*
X263025489Y-221142257D02*
X262811203Y-221070828D01*
X262811203Y-221070828D02*
X262668346Y-221070828D01*
X262668346Y-221070828D02*
X262454060Y-221142257D01*
X262454060Y-221142257D02*
X262382632Y-221213685D01*
M02*
