%TF.GenerationSoftware,KiCad,Pcbnew,8.0.1*%
%TF.CreationDate,2024-05-12T20:31:29+01:00*%
%TF.ProjectId,TIMPS2Key,54494d50-5332-44b6-9579-2e6b69636164,rev?*%
%TF.SameCoordinates,Original*%
%TF.FileFunction,Legend,Top*%
%TF.FilePolarity,Positive*%
%FSLAX46Y46*%
G04 Gerber Fmt 4.6, Leading zero omitted, Abs format (unit mm)*
G04 Created by KiCad (PCBNEW 8.0.1) date 2024-05-12 20:31:29*
%MOMM*%
%LPD*%
G01*
G04 APERTURE LIST*
%ADD10C,0.100000*%
%ADD11C,0.150000*%
%ADD12C,0.120000*%
%ADD13C,0.000000*%
%ADD14C,0.127000*%
G04 APERTURE END LIST*
D10*
X159741979Y-72833030D02*
X160199122Y-72833030D01*
X159970550Y-73633030D02*
X159970550Y-72833030D01*
X160465789Y-73633030D02*
X160465789Y-72833030D01*
X160846741Y-73633030D02*
X160846741Y-72833030D01*
X160846741Y-72833030D02*
X161113407Y-73404458D01*
X161113407Y-73404458D02*
X161380074Y-72833030D01*
X161380074Y-72833030D02*
X161380074Y-73633030D01*
X161761027Y-73328268D02*
X162370551Y-73328268D01*
X162903884Y-72833030D02*
X162980074Y-72833030D01*
X162980074Y-72833030D02*
X163056265Y-72871125D01*
X163056265Y-72871125D02*
X163094360Y-72909220D01*
X163094360Y-72909220D02*
X163132455Y-72985411D01*
X163132455Y-72985411D02*
X163170550Y-73137792D01*
X163170550Y-73137792D02*
X163170550Y-73328268D01*
X163170550Y-73328268D02*
X163132455Y-73480649D01*
X163132455Y-73480649D02*
X163094360Y-73556839D01*
X163094360Y-73556839D02*
X163056265Y-73594935D01*
X163056265Y-73594935D02*
X162980074Y-73633030D01*
X162980074Y-73633030D02*
X162903884Y-73633030D01*
X162903884Y-73633030D02*
X162827693Y-73594935D01*
X162827693Y-73594935D02*
X162789598Y-73556839D01*
X162789598Y-73556839D02*
X162751503Y-73480649D01*
X162751503Y-73480649D02*
X162713407Y-73328268D01*
X162713407Y-73328268D02*
X162713407Y-73137792D01*
X162713407Y-73137792D02*
X162751503Y-72985411D01*
X162751503Y-72985411D02*
X162789598Y-72909220D01*
X162789598Y-72909220D02*
X162827693Y-72871125D01*
X162827693Y-72871125D02*
X162903884Y-72833030D01*
X163932455Y-73633030D02*
X163475312Y-73633030D01*
X163703884Y-73633030D02*
X163703884Y-72833030D01*
X163703884Y-72833030D02*
X163627693Y-72947315D01*
X163627693Y-72947315D02*
X163551503Y-73023506D01*
X163551503Y-73023506D02*
X163475312Y-73061601D01*
X164694360Y-73633030D02*
X164237217Y-73633030D01*
X164465789Y-73633030D02*
X164465789Y-72833030D01*
X164465789Y-72833030D02*
X164389598Y-72947315D01*
X164389598Y-72947315D02*
X164313408Y-73023506D01*
X164313408Y-73023506D02*
X164237217Y-73061601D01*
X165608646Y-73594935D02*
X165722932Y-73633030D01*
X165722932Y-73633030D02*
X165913408Y-73633030D01*
X165913408Y-73633030D02*
X165989599Y-73594935D01*
X165989599Y-73594935D02*
X166027694Y-73556839D01*
X166027694Y-73556839D02*
X166065789Y-73480649D01*
X166065789Y-73480649D02*
X166065789Y-73404458D01*
X166065789Y-73404458D02*
X166027694Y-73328268D01*
X166027694Y-73328268D02*
X165989599Y-73290173D01*
X165989599Y-73290173D02*
X165913408Y-73252077D01*
X165913408Y-73252077D02*
X165761027Y-73213982D01*
X165761027Y-73213982D02*
X165684837Y-73175887D01*
X165684837Y-73175887D02*
X165646742Y-73137792D01*
X165646742Y-73137792D02*
X165608646Y-73061601D01*
X165608646Y-73061601D02*
X165608646Y-72985411D01*
X165608646Y-72985411D02*
X165646742Y-72909220D01*
X165646742Y-72909220D02*
X165684837Y-72871125D01*
X165684837Y-72871125D02*
X165761027Y-72833030D01*
X165761027Y-72833030D02*
X165951504Y-72833030D01*
X165951504Y-72833030D02*
X166065789Y-72871125D01*
X166713409Y-73594935D02*
X166637218Y-73633030D01*
X166637218Y-73633030D02*
X166484837Y-73633030D01*
X166484837Y-73633030D02*
X166408647Y-73594935D01*
X166408647Y-73594935D02*
X166370551Y-73518744D01*
X166370551Y-73518744D02*
X166370551Y-73213982D01*
X166370551Y-73213982D02*
X166408647Y-73137792D01*
X166408647Y-73137792D02*
X166484837Y-73099696D01*
X166484837Y-73099696D02*
X166637218Y-73099696D01*
X166637218Y-73099696D02*
X166713409Y-73137792D01*
X166713409Y-73137792D02*
X166751504Y-73213982D01*
X166751504Y-73213982D02*
X166751504Y-73290173D01*
X166751504Y-73290173D02*
X166370551Y-73366363D01*
X167094361Y-73633030D02*
X167094361Y-73099696D01*
X167094361Y-73252077D02*
X167132456Y-73175887D01*
X167132456Y-73175887D02*
X167170551Y-73137792D01*
X167170551Y-73137792D02*
X167246742Y-73099696D01*
X167246742Y-73099696D02*
X167322932Y-73099696D01*
X167589599Y-73633030D02*
X167589599Y-73099696D01*
X167589599Y-72833030D02*
X167551503Y-72871125D01*
X167551503Y-72871125D02*
X167589599Y-72909220D01*
X167589599Y-72909220D02*
X167627694Y-72871125D01*
X167627694Y-72871125D02*
X167589599Y-72833030D01*
X167589599Y-72833030D02*
X167589599Y-72909220D01*
X168313408Y-73633030D02*
X168313408Y-73213982D01*
X168313408Y-73213982D02*
X168275313Y-73137792D01*
X168275313Y-73137792D02*
X168199122Y-73099696D01*
X168199122Y-73099696D02*
X168046741Y-73099696D01*
X168046741Y-73099696D02*
X167970551Y-73137792D01*
X168313408Y-73594935D02*
X168237217Y-73633030D01*
X168237217Y-73633030D02*
X168046741Y-73633030D01*
X168046741Y-73633030D02*
X167970551Y-73594935D01*
X167970551Y-73594935D02*
X167932455Y-73518744D01*
X167932455Y-73518744D02*
X167932455Y-73442554D01*
X167932455Y-73442554D02*
X167970551Y-73366363D01*
X167970551Y-73366363D02*
X168046741Y-73328268D01*
X168046741Y-73328268D02*
X168237217Y-73328268D01*
X168237217Y-73328268D02*
X168313408Y-73290173D01*
X168808646Y-73633030D02*
X168732456Y-73594935D01*
X168732456Y-73594935D02*
X168694361Y-73518744D01*
X168694361Y-73518744D02*
X168694361Y-72833030D01*
X159856265Y-74920985D02*
X159856265Y-74120985D01*
X159856265Y-74120985D02*
X160313408Y-74920985D01*
X160313408Y-74920985D02*
X160313408Y-74120985D01*
X161037217Y-74920985D02*
X161037217Y-74501937D01*
X161037217Y-74501937D02*
X160999122Y-74425747D01*
X160999122Y-74425747D02*
X160922931Y-74387651D01*
X160922931Y-74387651D02*
X160770550Y-74387651D01*
X160770550Y-74387651D02*
X160694360Y-74425747D01*
X161037217Y-74882890D02*
X160961026Y-74920985D01*
X160961026Y-74920985D02*
X160770550Y-74920985D01*
X160770550Y-74920985D02*
X160694360Y-74882890D01*
X160694360Y-74882890D02*
X160656264Y-74806699D01*
X160656264Y-74806699D02*
X160656264Y-74730509D01*
X160656264Y-74730509D02*
X160694360Y-74654318D01*
X160694360Y-74654318D02*
X160770550Y-74616223D01*
X160770550Y-74616223D02*
X160961026Y-74616223D01*
X160961026Y-74616223D02*
X161037217Y-74578128D01*
X161418170Y-74387651D02*
X161418170Y-74920985D01*
X161418170Y-74463842D02*
X161456265Y-74425747D01*
X161456265Y-74425747D02*
X161532455Y-74387651D01*
X161532455Y-74387651D02*
X161646741Y-74387651D01*
X161646741Y-74387651D02*
X161722932Y-74425747D01*
X161722932Y-74425747D02*
X161761027Y-74501937D01*
X161761027Y-74501937D02*
X161761027Y-74920985D01*
X162256265Y-74920985D02*
X162180075Y-74882890D01*
X162180075Y-74882890D02*
X162141980Y-74844794D01*
X162141980Y-74844794D02*
X162103884Y-74768604D01*
X162103884Y-74768604D02*
X162103884Y-74540032D01*
X162103884Y-74540032D02*
X162141980Y-74463842D01*
X162141980Y-74463842D02*
X162180075Y-74425747D01*
X162180075Y-74425747D02*
X162256265Y-74387651D01*
X162256265Y-74387651D02*
X162370551Y-74387651D01*
X162370551Y-74387651D02*
X162446742Y-74425747D01*
X162446742Y-74425747D02*
X162484837Y-74463842D01*
X162484837Y-74463842D02*
X162522932Y-74540032D01*
X162522932Y-74540032D02*
X162522932Y-74768604D01*
X162522932Y-74768604D02*
X162484837Y-74844794D01*
X162484837Y-74844794D02*
X162446742Y-74882890D01*
X162446742Y-74882890D02*
X162370551Y-74920985D01*
X162370551Y-74920985D02*
X162256265Y-74920985D01*
X163475314Y-74920985D02*
X163475314Y-74120985D01*
X163475314Y-74120985D02*
X163780076Y-74120985D01*
X163780076Y-74120985D02*
X163856266Y-74159080D01*
X163856266Y-74159080D02*
X163894361Y-74197175D01*
X163894361Y-74197175D02*
X163932457Y-74273366D01*
X163932457Y-74273366D02*
X163932457Y-74387651D01*
X163932457Y-74387651D02*
X163894361Y-74463842D01*
X163894361Y-74463842D02*
X163856266Y-74501937D01*
X163856266Y-74501937D02*
X163780076Y-74540032D01*
X163780076Y-74540032D02*
X163475314Y-74540032D01*
X164237218Y-74882890D02*
X164351504Y-74920985D01*
X164351504Y-74920985D02*
X164541980Y-74920985D01*
X164541980Y-74920985D02*
X164618171Y-74882890D01*
X164618171Y-74882890D02*
X164656266Y-74844794D01*
X164656266Y-74844794D02*
X164694361Y-74768604D01*
X164694361Y-74768604D02*
X164694361Y-74692413D01*
X164694361Y-74692413D02*
X164656266Y-74616223D01*
X164656266Y-74616223D02*
X164618171Y-74578128D01*
X164618171Y-74578128D02*
X164541980Y-74540032D01*
X164541980Y-74540032D02*
X164389599Y-74501937D01*
X164389599Y-74501937D02*
X164313409Y-74463842D01*
X164313409Y-74463842D02*
X164275314Y-74425747D01*
X164275314Y-74425747D02*
X164237218Y-74349556D01*
X164237218Y-74349556D02*
X164237218Y-74273366D01*
X164237218Y-74273366D02*
X164275314Y-74197175D01*
X164275314Y-74197175D02*
X164313409Y-74159080D01*
X164313409Y-74159080D02*
X164389599Y-74120985D01*
X164389599Y-74120985D02*
X164580076Y-74120985D01*
X164580076Y-74120985D02*
X164694361Y-74159080D01*
X165608647Y-74082890D02*
X164922933Y-75111461D01*
X165837218Y-74197175D02*
X165875314Y-74159080D01*
X165875314Y-74159080D02*
X165951504Y-74120985D01*
X165951504Y-74120985D02*
X166141980Y-74120985D01*
X166141980Y-74120985D02*
X166218171Y-74159080D01*
X166218171Y-74159080D02*
X166256266Y-74197175D01*
X166256266Y-74197175D02*
X166294361Y-74273366D01*
X166294361Y-74273366D02*
X166294361Y-74349556D01*
X166294361Y-74349556D02*
X166256266Y-74463842D01*
X166256266Y-74463842D02*
X165799123Y-74920985D01*
X165799123Y-74920985D02*
X166294361Y-74920985D01*
X167170552Y-74387651D02*
X167361028Y-74920985D01*
X167361028Y-74920985D02*
X167551505Y-74387651D01*
X168275314Y-74920985D02*
X167818171Y-74920985D01*
X168046743Y-74920985D02*
X168046743Y-74120985D01*
X168046743Y-74120985D02*
X167970552Y-74235270D01*
X167970552Y-74235270D02*
X167894362Y-74311461D01*
X167894362Y-74311461D02*
X167818171Y-74349556D01*
X160351503Y-75827987D02*
X160313408Y-75789892D01*
X160313408Y-75789892D02*
X160237217Y-75751797D01*
X160237217Y-75751797D02*
X160161027Y-75751797D01*
X160161027Y-75751797D02*
X160084836Y-75789892D01*
X160084836Y-75789892D02*
X160046741Y-75827987D01*
X160046741Y-75827987D02*
X160008646Y-75904178D01*
X160008646Y-75904178D02*
X160008646Y-75980368D01*
X160008646Y-75980368D02*
X160046741Y-76056559D01*
X160046741Y-76056559D02*
X160084836Y-76094654D01*
X160084836Y-76094654D02*
X160161027Y-76132749D01*
X160161027Y-76132749D02*
X160237217Y-76132749D01*
X160237217Y-76132749D02*
X160313408Y-76094654D01*
X160313408Y-76094654D02*
X160351503Y-76056559D01*
X160351503Y-75751797D02*
X160351503Y-76056559D01*
X160351503Y-76056559D02*
X160389598Y-76094654D01*
X160389598Y-76094654D02*
X160427693Y-76094654D01*
X160427693Y-76094654D02*
X160503884Y-76056559D01*
X160503884Y-76056559D02*
X160541979Y-75980368D01*
X160541979Y-75980368D02*
X160541979Y-75789892D01*
X160541979Y-75789892D02*
X160465789Y-75675606D01*
X160465789Y-75675606D02*
X160351503Y-75599416D01*
X160351503Y-75599416D02*
X160199122Y-75561321D01*
X160199122Y-75561321D02*
X160046741Y-75599416D01*
X160046741Y-75599416D02*
X159932455Y-75675606D01*
X159932455Y-75675606D02*
X159856265Y-75789892D01*
X159856265Y-75789892D02*
X159818169Y-75942273D01*
X159818169Y-75942273D02*
X159856265Y-76094654D01*
X159856265Y-76094654D02*
X159932455Y-76208940D01*
X159932455Y-76208940D02*
X160046741Y-76285130D01*
X160046741Y-76285130D02*
X160199122Y-76323225D01*
X160199122Y-76323225D02*
X160351503Y-76285130D01*
X160351503Y-76285130D02*
X160465789Y-76208940D01*
X161227693Y-75675606D02*
X161227693Y-76323225D01*
X161227693Y-76323225D02*
X161189598Y-76399416D01*
X161189598Y-76399416D02*
X161151502Y-76437511D01*
X161151502Y-76437511D02*
X161075312Y-76475606D01*
X161075312Y-76475606D02*
X160961026Y-76475606D01*
X160961026Y-76475606D02*
X160884836Y-76437511D01*
X161227693Y-76170845D02*
X161151502Y-76208940D01*
X161151502Y-76208940D02*
X160999121Y-76208940D01*
X160999121Y-76208940D02*
X160922931Y-76170845D01*
X160922931Y-76170845D02*
X160884836Y-76132749D01*
X160884836Y-76132749D02*
X160846740Y-76056559D01*
X160846740Y-76056559D02*
X160846740Y-75827987D01*
X160846740Y-75827987D02*
X160884836Y-75751797D01*
X160884836Y-75751797D02*
X160922931Y-75713702D01*
X160922931Y-75713702D02*
X160999121Y-75675606D01*
X160999121Y-75675606D02*
X161151502Y-75675606D01*
X161151502Y-75675606D02*
X161227693Y-75713702D01*
X161608646Y-76208940D02*
X161608646Y-75675606D01*
X161608646Y-75827987D02*
X161646741Y-75751797D01*
X161646741Y-75751797D02*
X161684836Y-75713702D01*
X161684836Y-75713702D02*
X161761027Y-75675606D01*
X161761027Y-75675606D02*
X161837217Y-75675606D01*
X162446741Y-76208940D02*
X162446741Y-75789892D01*
X162446741Y-75789892D02*
X162408646Y-75713702D01*
X162408646Y-75713702D02*
X162332455Y-75675606D01*
X162332455Y-75675606D02*
X162180074Y-75675606D01*
X162180074Y-75675606D02*
X162103884Y-75713702D01*
X162446741Y-76170845D02*
X162370550Y-76208940D01*
X162370550Y-76208940D02*
X162180074Y-76208940D01*
X162180074Y-76208940D02*
X162103884Y-76170845D01*
X162103884Y-76170845D02*
X162065788Y-76094654D01*
X162065788Y-76094654D02*
X162065788Y-76018464D01*
X162065788Y-76018464D02*
X162103884Y-75942273D01*
X162103884Y-75942273D02*
X162180074Y-75904178D01*
X162180074Y-75904178D02*
X162370550Y-75904178D01*
X162370550Y-75904178D02*
X162446741Y-75866083D01*
X162827694Y-75675606D02*
X162827694Y-76208940D01*
X162827694Y-75751797D02*
X162865789Y-75713702D01*
X162865789Y-75713702D02*
X162941979Y-75675606D01*
X162941979Y-75675606D02*
X163056265Y-75675606D01*
X163056265Y-75675606D02*
X163132456Y-75713702D01*
X163132456Y-75713702D02*
X163170551Y-75789892D01*
X163170551Y-75789892D02*
X163170551Y-76208940D01*
X163894361Y-76208940D02*
X163894361Y-75408940D01*
X163894361Y-76170845D02*
X163818170Y-76208940D01*
X163818170Y-76208940D02*
X163665789Y-76208940D01*
X163665789Y-76208940D02*
X163589599Y-76170845D01*
X163589599Y-76170845D02*
X163551504Y-76132749D01*
X163551504Y-76132749D02*
X163513408Y-76056559D01*
X163513408Y-76056559D02*
X163513408Y-75827987D01*
X163513408Y-75827987D02*
X163551504Y-75751797D01*
X163551504Y-75751797D02*
X163589599Y-75713702D01*
X163589599Y-75713702D02*
X163665789Y-75675606D01*
X163665789Y-75675606D02*
X163818170Y-75675606D01*
X163818170Y-75675606D02*
X163894361Y-75713702D01*
X164389599Y-76208940D02*
X164313409Y-76170845D01*
X164313409Y-76170845D02*
X164275314Y-76132749D01*
X164275314Y-76132749D02*
X164237218Y-76056559D01*
X164237218Y-76056559D02*
X164237218Y-75827987D01*
X164237218Y-75827987D02*
X164275314Y-75751797D01*
X164275314Y-75751797D02*
X164313409Y-75713702D01*
X164313409Y-75713702D02*
X164389599Y-75675606D01*
X164389599Y-75675606D02*
X164503885Y-75675606D01*
X164503885Y-75675606D02*
X164580076Y-75713702D01*
X164580076Y-75713702D02*
X164618171Y-75751797D01*
X164618171Y-75751797D02*
X164656266Y-75827987D01*
X164656266Y-75827987D02*
X164656266Y-76056559D01*
X164656266Y-76056559D02*
X164618171Y-76132749D01*
X164618171Y-76132749D02*
X164580076Y-76170845D01*
X164580076Y-76170845D02*
X164503885Y-76208940D01*
X164503885Y-76208940D02*
X164389599Y-76208940D01*
X165113409Y-76208940D02*
X165037219Y-76170845D01*
X165037219Y-76170845D02*
X164999124Y-76094654D01*
X164999124Y-76094654D02*
X164999124Y-75408940D01*
X165761029Y-76208940D02*
X165761029Y-75408940D01*
X165761029Y-76170845D02*
X165684838Y-76208940D01*
X165684838Y-76208940D02*
X165532457Y-76208940D01*
X165532457Y-76208940D02*
X165456267Y-76170845D01*
X165456267Y-76170845D02*
X165418172Y-76132749D01*
X165418172Y-76132749D02*
X165380076Y-76056559D01*
X165380076Y-76056559D02*
X165380076Y-75827987D01*
X165380076Y-75827987D02*
X165418172Y-75751797D01*
X165418172Y-75751797D02*
X165456267Y-75713702D01*
X165456267Y-75713702D02*
X165532457Y-75675606D01*
X165532457Y-75675606D02*
X165684838Y-75675606D01*
X165684838Y-75675606D02*
X165761029Y-75713702D01*
X166141982Y-76208940D02*
X166141982Y-75675606D01*
X166141982Y-75408940D02*
X166103886Y-75447035D01*
X166103886Y-75447035D02*
X166141982Y-75485130D01*
X166141982Y-75485130D02*
X166180077Y-75447035D01*
X166180077Y-75447035D02*
X166141982Y-75408940D01*
X166141982Y-75408940D02*
X166141982Y-75485130D01*
X166865791Y-76208940D02*
X166865791Y-75789892D01*
X166865791Y-75789892D02*
X166827696Y-75713702D01*
X166827696Y-75713702D02*
X166751505Y-75675606D01*
X166751505Y-75675606D02*
X166599124Y-75675606D01*
X166599124Y-75675606D02*
X166522934Y-75713702D01*
X166865791Y-76170845D02*
X166789600Y-76208940D01*
X166789600Y-76208940D02*
X166599124Y-76208940D01*
X166599124Y-76208940D02*
X166522934Y-76170845D01*
X166522934Y-76170845D02*
X166484838Y-76094654D01*
X166484838Y-76094654D02*
X166484838Y-76018464D01*
X166484838Y-76018464D02*
X166522934Y-75942273D01*
X166522934Y-75942273D02*
X166599124Y-75904178D01*
X166599124Y-75904178D02*
X166789600Y-75904178D01*
X166789600Y-75904178D02*
X166865791Y-75866083D01*
X167246744Y-75675606D02*
X167246744Y-76208940D01*
X167246744Y-75751797D02*
X167284839Y-75713702D01*
X167284839Y-75713702D02*
X167361029Y-75675606D01*
X167361029Y-75675606D02*
X167475315Y-75675606D01*
X167475315Y-75675606D02*
X167551506Y-75713702D01*
X167551506Y-75713702D02*
X167589601Y-75789892D01*
X167589601Y-75789892D02*
X167589601Y-76208940D01*
X160008646Y-76696895D02*
X160084836Y-76696895D01*
X160084836Y-76696895D02*
X160161027Y-76734990D01*
X160161027Y-76734990D02*
X160199122Y-76773085D01*
X160199122Y-76773085D02*
X160237217Y-76849276D01*
X160237217Y-76849276D02*
X160275312Y-77001657D01*
X160275312Y-77001657D02*
X160275312Y-77192133D01*
X160275312Y-77192133D02*
X160237217Y-77344514D01*
X160237217Y-77344514D02*
X160199122Y-77420704D01*
X160199122Y-77420704D02*
X160161027Y-77458800D01*
X160161027Y-77458800D02*
X160084836Y-77496895D01*
X160084836Y-77496895D02*
X160008646Y-77496895D01*
X160008646Y-77496895D02*
X159932455Y-77458800D01*
X159932455Y-77458800D02*
X159894360Y-77420704D01*
X159894360Y-77420704D02*
X159856265Y-77344514D01*
X159856265Y-77344514D02*
X159818169Y-77192133D01*
X159818169Y-77192133D02*
X159818169Y-77001657D01*
X159818169Y-77001657D02*
X159856265Y-76849276D01*
X159856265Y-76849276D02*
X159894360Y-76773085D01*
X159894360Y-76773085D02*
X159932455Y-76734990D01*
X159932455Y-76734990D02*
X160008646Y-76696895D01*
X160999122Y-76696895D02*
X160618170Y-76696895D01*
X160618170Y-76696895D02*
X160580074Y-77077847D01*
X160580074Y-77077847D02*
X160618170Y-77039752D01*
X160618170Y-77039752D02*
X160694360Y-77001657D01*
X160694360Y-77001657D02*
X160884836Y-77001657D01*
X160884836Y-77001657D02*
X160961027Y-77039752D01*
X160961027Y-77039752D02*
X160999122Y-77077847D01*
X160999122Y-77077847D02*
X161037217Y-77154038D01*
X161037217Y-77154038D02*
X161037217Y-77344514D01*
X161037217Y-77344514D02*
X160999122Y-77420704D01*
X160999122Y-77420704D02*
X160961027Y-77458800D01*
X160961027Y-77458800D02*
X160884836Y-77496895D01*
X160884836Y-77496895D02*
X160694360Y-77496895D01*
X160694360Y-77496895D02*
X160618170Y-77458800D01*
X160618170Y-77458800D02*
X160580074Y-77420704D01*
X161951503Y-76658800D02*
X161265789Y-77687371D01*
X162180074Y-76773085D02*
X162218170Y-76734990D01*
X162218170Y-76734990D02*
X162294360Y-76696895D01*
X162294360Y-76696895D02*
X162484836Y-76696895D01*
X162484836Y-76696895D02*
X162561027Y-76734990D01*
X162561027Y-76734990D02*
X162599122Y-76773085D01*
X162599122Y-76773085D02*
X162637217Y-76849276D01*
X162637217Y-76849276D02*
X162637217Y-76925466D01*
X162637217Y-76925466D02*
X162599122Y-77039752D01*
X162599122Y-77039752D02*
X162141979Y-77496895D01*
X162141979Y-77496895D02*
X162637217Y-77496895D01*
X163132456Y-76696895D02*
X163208646Y-76696895D01*
X163208646Y-76696895D02*
X163284837Y-76734990D01*
X163284837Y-76734990D02*
X163322932Y-76773085D01*
X163322932Y-76773085D02*
X163361027Y-76849276D01*
X163361027Y-76849276D02*
X163399122Y-77001657D01*
X163399122Y-77001657D02*
X163399122Y-77192133D01*
X163399122Y-77192133D02*
X163361027Y-77344514D01*
X163361027Y-77344514D02*
X163322932Y-77420704D01*
X163322932Y-77420704D02*
X163284837Y-77458800D01*
X163284837Y-77458800D02*
X163208646Y-77496895D01*
X163208646Y-77496895D02*
X163132456Y-77496895D01*
X163132456Y-77496895D02*
X163056265Y-77458800D01*
X163056265Y-77458800D02*
X163018170Y-77420704D01*
X163018170Y-77420704D02*
X162980075Y-77344514D01*
X162980075Y-77344514D02*
X162941979Y-77192133D01*
X162941979Y-77192133D02*
X162941979Y-77001657D01*
X162941979Y-77001657D02*
X162980075Y-76849276D01*
X162980075Y-76849276D02*
X163018170Y-76773085D01*
X163018170Y-76773085D02*
X163056265Y-76734990D01*
X163056265Y-76734990D02*
X163132456Y-76696895D01*
X163703884Y-76773085D02*
X163741980Y-76734990D01*
X163741980Y-76734990D02*
X163818170Y-76696895D01*
X163818170Y-76696895D02*
X164008646Y-76696895D01*
X164008646Y-76696895D02*
X164084837Y-76734990D01*
X164084837Y-76734990D02*
X164122932Y-76773085D01*
X164122932Y-76773085D02*
X164161027Y-76849276D01*
X164161027Y-76849276D02*
X164161027Y-76925466D01*
X164161027Y-76925466D02*
X164122932Y-77039752D01*
X164122932Y-77039752D02*
X163665789Y-77496895D01*
X163665789Y-77496895D02*
X164161027Y-77496895D01*
X164846742Y-76963561D02*
X164846742Y-77496895D01*
X164656266Y-76658800D02*
X164465789Y-77230228D01*
X164465789Y-77230228D02*
X164961028Y-77230228D01*
D11*
X155009580Y-56416666D02*
X155057200Y-56464285D01*
X155057200Y-56464285D02*
X155104819Y-56607142D01*
X155104819Y-56607142D02*
X155104819Y-56702380D01*
X155104819Y-56702380D02*
X155057200Y-56845237D01*
X155057200Y-56845237D02*
X154961961Y-56940475D01*
X154961961Y-56940475D02*
X154866723Y-56988094D01*
X154866723Y-56988094D02*
X154676247Y-57035713D01*
X154676247Y-57035713D02*
X154533390Y-57035713D01*
X154533390Y-57035713D02*
X154342914Y-56988094D01*
X154342914Y-56988094D02*
X154247676Y-56940475D01*
X154247676Y-56940475D02*
X154152438Y-56845237D01*
X154152438Y-56845237D02*
X154104819Y-56702380D01*
X154104819Y-56702380D02*
X154104819Y-56607142D01*
X154104819Y-56607142D02*
X154152438Y-56464285D01*
X154152438Y-56464285D02*
X154200057Y-56416666D01*
X154533390Y-55845237D02*
X154485771Y-55940475D01*
X154485771Y-55940475D02*
X154438152Y-55988094D01*
X154438152Y-55988094D02*
X154342914Y-56035713D01*
X154342914Y-56035713D02*
X154295295Y-56035713D01*
X154295295Y-56035713D02*
X154200057Y-55988094D01*
X154200057Y-55988094D02*
X154152438Y-55940475D01*
X154152438Y-55940475D02*
X154104819Y-55845237D01*
X154104819Y-55845237D02*
X154104819Y-55654761D01*
X154104819Y-55654761D02*
X154152438Y-55559523D01*
X154152438Y-55559523D02*
X154200057Y-55511904D01*
X154200057Y-55511904D02*
X154295295Y-55464285D01*
X154295295Y-55464285D02*
X154342914Y-55464285D01*
X154342914Y-55464285D02*
X154438152Y-55511904D01*
X154438152Y-55511904D02*
X154485771Y-55559523D01*
X154485771Y-55559523D02*
X154533390Y-55654761D01*
X154533390Y-55654761D02*
X154533390Y-55845237D01*
X154533390Y-55845237D02*
X154581009Y-55940475D01*
X154581009Y-55940475D02*
X154628628Y-55988094D01*
X154628628Y-55988094D02*
X154723866Y-56035713D01*
X154723866Y-56035713D02*
X154914342Y-56035713D01*
X154914342Y-56035713D02*
X155009580Y-55988094D01*
X155009580Y-55988094D02*
X155057200Y-55940475D01*
X155057200Y-55940475D02*
X155104819Y-55845237D01*
X155104819Y-55845237D02*
X155104819Y-55654761D01*
X155104819Y-55654761D02*
X155057200Y-55559523D01*
X155057200Y-55559523D02*
X155009580Y-55511904D01*
X155009580Y-55511904D02*
X154914342Y-55464285D01*
X154914342Y-55464285D02*
X154723866Y-55464285D01*
X154723866Y-55464285D02*
X154628628Y-55511904D01*
X154628628Y-55511904D02*
X154581009Y-55559523D01*
X154581009Y-55559523D02*
X154533390Y-55654761D01*
X149304819Y-54835238D02*
X149304819Y-55406666D01*
X149304819Y-55120952D02*
X148304819Y-55120952D01*
X148304819Y-55120952D02*
X148447676Y-55216190D01*
X148447676Y-55216190D02*
X148542914Y-55311428D01*
X148542914Y-55311428D02*
X148590533Y-55406666D01*
X148638152Y-53978095D02*
X149304819Y-53978095D01*
X148638152Y-54406666D02*
X149161961Y-54406666D01*
X149161961Y-54406666D02*
X149257200Y-54359047D01*
X149257200Y-54359047D02*
X149304819Y-54263809D01*
X149304819Y-54263809D02*
X149304819Y-54120952D01*
X149304819Y-54120952D02*
X149257200Y-54025714D01*
X149257200Y-54025714D02*
X149209580Y-53978095D01*
X148781009Y-53168571D02*
X148781009Y-53501904D01*
X149304819Y-53501904D02*
X148304819Y-53501904D01*
X148304819Y-53501904D02*
X148304819Y-53025714D01*
X98274819Y-66561428D02*
X97274819Y-66561428D01*
X97274819Y-66561428D02*
X97274819Y-66323333D01*
X97274819Y-66323333D02*
X97322438Y-66180476D01*
X97322438Y-66180476D02*
X97417676Y-66085238D01*
X97417676Y-66085238D02*
X97512914Y-66037619D01*
X97512914Y-66037619D02*
X97703390Y-65990000D01*
X97703390Y-65990000D02*
X97846247Y-65990000D01*
X97846247Y-65990000D02*
X98036723Y-66037619D01*
X98036723Y-66037619D02*
X98131961Y-66085238D01*
X98131961Y-66085238D02*
X98227200Y-66180476D01*
X98227200Y-66180476D02*
X98274819Y-66323333D01*
X98274819Y-66323333D02*
X98274819Y-66561428D01*
X98274819Y-65561428D02*
X97274819Y-65561428D01*
X98274819Y-65085238D02*
X97274819Y-65085238D01*
X97274819Y-65085238D02*
X98274819Y-64513810D01*
X98274819Y-64513810D02*
X97274819Y-64513810D01*
X98227200Y-63323333D02*
X98274819Y-63180476D01*
X98274819Y-63180476D02*
X98274819Y-62942381D01*
X98274819Y-62942381D02*
X98227200Y-62847143D01*
X98227200Y-62847143D02*
X98179580Y-62799524D01*
X98179580Y-62799524D02*
X98084342Y-62751905D01*
X98084342Y-62751905D02*
X97989104Y-62751905D01*
X97989104Y-62751905D02*
X97893866Y-62799524D01*
X97893866Y-62799524D02*
X97846247Y-62847143D01*
X97846247Y-62847143D02*
X97798628Y-62942381D01*
X97798628Y-62942381D02*
X97751009Y-63132857D01*
X97751009Y-63132857D02*
X97703390Y-63228095D01*
X97703390Y-63228095D02*
X97655771Y-63275714D01*
X97655771Y-63275714D02*
X97560533Y-63323333D01*
X97560533Y-63323333D02*
X97465295Y-63323333D01*
X97465295Y-63323333D02*
X97370057Y-63275714D01*
X97370057Y-63275714D02*
X97322438Y-63228095D01*
X97322438Y-63228095D02*
X97274819Y-63132857D01*
X97274819Y-63132857D02*
X97274819Y-62894762D01*
X97274819Y-62894762D02*
X97322438Y-62751905D01*
X98227200Y-61942381D02*
X98274819Y-62037619D01*
X98274819Y-62037619D02*
X98274819Y-62228095D01*
X98274819Y-62228095D02*
X98227200Y-62323333D01*
X98227200Y-62323333D02*
X98131961Y-62370952D01*
X98131961Y-62370952D02*
X97751009Y-62370952D01*
X97751009Y-62370952D02*
X97655771Y-62323333D01*
X97655771Y-62323333D02*
X97608152Y-62228095D01*
X97608152Y-62228095D02*
X97608152Y-62037619D01*
X97608152Y-62037619D02*
X97655771Y-61942381D01*
X97655771Y-61942381D02*
X97751009Y-61894762D01*
X97751009Y-61894762D02*
X97846247Y-61894762D01*
X97846247Y-61894762D02*
X97941485Y-62370952D01*
X98274819Y-61466190D02*
X97608152Y-61466190D01*
X97798628Y-61466190D02*
X97703390Y-61418571D01*
X97703390Y-61418571D02*
X97655771Y-61370952D01*
X97655771Y-61370952D02*
X97608152Y-61275714D01*
X97608152Y-61275714D02*
X97608152Y-61180476D01*
X98274819Y-60847142D02*
X97608152Y-60847142D01*
X97274819Y-60847142D02*
X97322438Y-60894761D01*
X97322438Y-60894761D02*
X97370057Y-60847142D01*
X97370057Y-60847142D02*
X97322438Y-60799523D01*
X97322438Y-60799523D02*
X97274819Y-60847142D01*
X97274819Y-60847142D02*
X97370057Y-60847142D01*
X98274819Y-59942381D02*
X97751009Y-59942381D01*
X97751009Y-59942381D02*
X97655771Y-59990000D01*
X97655771Y-59990000D02*
X97608152Y-60085238D01*
X97608152Y-60085238D02*
X97608152Y-60275714D01*
X97608152Y-60275714D02*
X97655771Y-60370952D01*
X98227200Y-59942381D02*
X98274819Y-60037619D01*
X98274819Y-60037619D02*
X98274819Y-60275714D01*
X98274819Y-60275714D02*
X98227200Y-60370952D01*
X98227200Y-60370952D02*
X98131961Y-60418571D01*
X98131961Y-60418571D02*
X98036723Y-60418571D01*
X98036723Y-60418571D02*
X97941485Y-60370952D01*
X97941485Y-60370952D02*
X97893866Y-60275714D01*
X97893866Y-60275714D02*
X97893866Y-60037619D01*
X97893866Y-60037619D02*
X97846247Y-59942381D01*
X98274819Y-59323333D02*
X98227200Y-59418571D01*
X98227200Y-59418571D02*
X98131961Y-59466190D01*
X98131961Y-59466190D02*
X97274819Y-59466190D01*
X171761905Y-54384819D02*
X171761905Y-53384819D01*
X171761905Y-53384819D02*
X172142857Y-53384819D01*
X172142857Y-53384819D02*
X172238095Y-53432438D01*
X172238095Y-53432438D02*
X172285714Y-53480057D01*
X172285714Y-53480057D02*
X172333333Y-53575295D01*
X172333333Y-53575295D02*
X172333333Y-53718152D01*
X172333333Y-53718152D02*
X172285714Y-53813390D01*
X172285714Y-53813390D02*
X172238095Y-53861009D01*
X172238095Y-53861009D02*
X172142857Y-53908628D01*
X172142857Y-53908628D02*
X171761905Y-53908628D01*
X172714286Y-54337200D02*
X172857143Y-54384819D01*
X172857143Y-54384819D02*
X173095238Y-54384819D01*
X173095238Y-54384819D02*
X173190476Y-54337200D01*
X173190476Y-54337200D02*
X173238095Y-54289580D01*
X173238095Y-54289580D02*
X173285714Y-54194342D01*
X173285714Y-54194342D02*
X173285714Y-54099104D01*
X173285714Y-54099104D02*
X173238095Y-54003866D01*
X173238095Y-54003866D02*
X173190476Y-53956247D01*
X173190476Y-53956247D02*
X173095238Y-53908628D01*
X173095238Y-53908628D02*
X172904762Y-53861009D01*
X172904762Y-53861009D02*
X172809524Y-53813390D01*
X172809524Y-53813390D02*
X172761905Y-53765771D01*
X172761905Y-53765771D02*
X172714286Y-53670533D01*
X172714286Y-53670533D02*
X172714286Y-53575295D01*
X172714286Y-53575295D02*
X172761905Y-53480057D01*
X172761905Y-53480057D02*
X172809524Y-53432438D01*
X172809524Y-53432438D02*
X172904762Y-53384819D01*
X172904762Y-53384819D02*
X173142857Y-53384819D01*
X173142857Y-53384819D02*
X173285714Y-53432438D01*
X174428571Y-53337200D02*
X173571429Y-54622914D01*
X174714286Y-53480057D02*
X174761905Y-53432438D01*
X174761905Y-53432438D02*
X174857143Y-53384819D01*
X174857143Y-53384819D02*
X175095238Y-53384819D01*
X175095238Y-53384819D02*
X175190476Y-53432438D01*
X175190476Y-53432438D02*
X175238095Y-53480057D01*
X175238095Y-53480057D02*
X175285714Y-53575295D01*
X175285714Y-53575295D02*
X175285714Y-53670533D01*
X175285714Y-53670533D02*
X175238095Y-53813390D01*
X175238095Y-53813390D02*
X174666667Y-54384819D01*
X174666667Y-54384819D02*
X175285714Y-54384819D01*
X102363333Y-53904819D02*
X102030000Y-53428628D01*
X101791905Y-53904819D02*
X101791905Y-52904819D01*
X101791905Y-52904819D02*
X102172857Y-52904819D01*
X102172857Y-52904819D02*
X102268095Y-52952438D01*
X102268095Y-52952438D02*
X102315714Y-53000057D01*
X102315714Y-53000057D02*
X102363333Y-53095295D01*
X102363333Y-53095295D02*
X102363333Y-53238152D01*
X102363333Y-53238152D02*
X102315714Y-53333390D01*
X102315714Y-53333390D02*
X102268095Y-53381009D01*
X102268095Y-53381009D02*
X102172857Y-53428628D01*
X102172857Y-53428628D02*
X101791905Y-53428628D01*
X102744286Y-53000057D02*
X102791905Y-52952438D01*
X102791905Y-52952438D02*
X102887143Y-52904819D01*
X102887143Y-52904819D02*
X103125238Y-52904819D01*
X103125238Y-52904819D02*
X103220476Y-52952438D01*
X103220476Y-52952438D02*
X103268095Y-53000057D01*
X103268095Y-53000057D02*
X103315714Y-53095295D01*
X103315714Y-53095295D02*
X103315714Y-53190533D01*
X103315714Y-53190533D02*
X103268095Y-53333390D01*
X103268095Y-53333390D02*
X102696667Y-53904819D01*
X102696667Y-53904819D02*
X103315714Y-53904819D01*
X101799523Y-57724819D02*
X101228095Y-57724819D01*
X101513809Y-57724819D02*
X101513809Y-56724819D01*
X101513809Y-56724819D02*
X101418571Y-56867676D01*
X101418571Y-56867676D02*
X101323333Y-56962914D01*
X101323333Y-56962914D02*
X101228095Y-57010533D01*
X102418571Y-56724819D02*
X102513809Y-56724819D01*
X102513809Y-56724819D02*
X102609047Y-56772438D01*
X102609047Y-56772438D02*
X102656666Y-56820057D01*
X102656666Y-56820057D02*
X102704285Y-56915295D01*
X102704285Y-56915295D02*
X102751904Y-57105771D01*
X102751904Y-57105771D02*
X102751904Y-57343866D01*
X102751904Y-57343866D02*
X102704285Y-57534342D01*
X102704285Y-57534342D02*
X102656666Y-57629580D01*
X102656666Y-57629580D02*
X102609047Y-57677200D01*
X102609047Y-57677200D02*
X102513809Y-57724819D01*
X102513809Y-57724819D02*
X102418571Y-57724819D01*
X102418571Y-57724819D02*
X102323333Y-57677200D01*
X102323333Y-57677200D02*
X102275714Y-57629580D01*
X102275714Y-57629580D02*
X102228095Y-57534342D01*
X102228095Y-57534342D02*
X102180476Y-57343866D01*
X102180476Y-57343866D02*
X102180476Y-57105771D01*
X102180476Y-57105771D02*
X102228095Y-56915295D01*
X102228095Y-56915295D02*
X102275714Y-56820057D01*
X102275714Y-56820057D02*
X102323333Y-56772438D01*
X102323333Y-56772438D02*
X102418571Y-56724819D01*
X103751904Y-57724819D02*
X103418571Y-57248628D01*
X103180476Y-57724819D02*
X103180476Y-56724819D01*
X103180476Y-56724819D02*
X103561428Y-56724819D01*
X103561428Y-56724819D02*
X103656666Y-56772438D01*
X103656666Y-56772438D02*
X103704285Y-56820057D01*
X103704285Y-56820057D02*
X103751904Y-56915295D01*
X103751904Y-56915295D02*
X103751904Y-57058152D01*
X103751904Y-57058152D02*
X103704285Y-57153390D01*
X103704285Y-57153390D02*
X103656666Y-57201009D01*
X103656666Y-57201009D02*
X103561428Y-57248628D01*
X103561428Y-57248628D02*
X103180476Y-57248628D01*
X158904819Y-55496666D02*
X158428628Y-55829999D01*
X158904819Y-56068094D02*
X157904819Y-56068094D01*
X157904819Y-56068094D02*
X157904819Y-55687142D01*
X157904819Y-55687142D02*
X157952438Y-55591904D01*
X157952438Y-55591904D02*
X158000057Y-55544285D01*
X158000057Y-55544285D02*
X158095295Y-55496666D01*
X158095295Y-55496666D02*
X158238152Y-55496666D01*
X158238152Y-55496666D02*
X158333390Y-55544285D01*
X158333390Y-55544285D02*
X158381009Y-55591904D01*
X158381009Y-55591904D02*
X158428628Y-55687142D01*
X158428628Y-55687142D02*
X158428628Y-56068094D01*
X158238152Y-54639523D02*
X158904819Y-54639523D01*
X157857200Y-54877618D02*
X158571485Y-55115713D01*
X158571485Y-55115713D02*
X158571485Y-54496666D01*
X158854819Y-49730476D02*
X158854819Y-50301904D01*
X158854819Y-50016190D02*
X157854819Y-50016190D01*
X157854819Y-50016190D02*
X157997676Y-50111428D01*
X157997676Y-50111428D02*
X158092914Y-50206666D01*
X158092914Y-50206666D02*
X158140533Y-50301904D01*
X157854819Y-49111428D02*
X157854819Y-49016190D01*
X157854819Y-49016190D02*
X157902438Y-48920952D01*
X157902438Y-48920952D02*
X157950057Y-48873333D01*
X157950057Y-48873333D02*
X158045295Y-48825714D01*
X158045295Y-48825714D02*
X158235771Y-48778095D01*
X158235771Y-48778095D02*
X158473866Y-48778095D01*
X158473866Y-48778095D02*
X158664342Y-48825714D01*
X158664342Y-48825714D02*
X158759580Y-48873333D01*
X158759580Y-48873333D02*
X158807200Y-48920952D01*
X158807200Y-48920952D02*
X158854819Y-49016190D01*
X158854819Y-49016190D02*
X158854819Y-49111428D01*
X158854819Y-49111428D02*
X158807200Y-49206666D01*
X158807200Y-49206666D02*
X158759580Y-49254285D01*
X158759580Y-49254285D02*
X158664342Y-49301904D01*
X158664342Y-49301904D02*
X158473866Y-49349523D01*
X158473866Y-49349523D02*
X158235771Y-49349523D01*
X158235771Y-49349523D02*
X158045295Y-49301904D01*
X158045295Y-49301904D02*
X157950057Y-49254285D01*
X157950057Y-49254285D02*
X157902438Y-49206666D01*
X157902438Y-49206666D02*
X157854819Y-49111428D01*
X158854819Y-48349523D02*
X157854819Y-48349523D01*
X158854819Y-47778095D02*
X158283390Y-48206666D01*
X157854819Y-47778095D02*
X158426247Y-48349523D01*
X147619580Y-49606666D02*
X147667200Y-49654285D01*
X147667200Y-49654285D02*
X147714819Y-49797142D01*
X147714819Y-49797142D02*
X147714819Y-49892380D01*
X147714819Y-49892380D02*
X147667200Y-50035237D01*
X147667200Y-50035237D02*
X147571961Y-50130475D01*
X147571961Y-50130475D02*
X147476723Y-50178094D01*
X147476723Y-50178094D02*
X147286247Y-50225713D01*
X147286247Y-50225713D02*
X147143390Y-50225713D01*
X147143390Y-50225713D02*
X146952914Y-50178094D01*
X146952914Y-50178094D02*
X146857676Y-50130475D01*
X146857676Y-50130475D02*
X146762438Y-50035237D01*
X146762438Y-50035237D02*
X146714819Y-49892380D01*
X146714819Y-49892380D02*
X146714819Y-49797142D01*
X146714819Y-49797142D02*
X146762438Y-49654285D01*
X146762438Y-49654285D02*
X146810057Y-49606666D01*
X146714819Y-49273332D02*
X146714819Y-48606666D01*
X146714819Y-48606666D02*
X147714819Y-49035237D01*
X141374819Y-50095238D02*
X141374819Y-50666666D01*
X141374819Y-50380952D02*
X140374819Y-50380952D01*
X140374819Y-50380952D02*
X140517676Y-50476190D01*
X140517676Y-50476190D02*
X140612914Y-50571428D01*
X140612914Y-50571428D02*
X140660533Y-50666666D01*
X140708152Y-49238095D02*
X141374819Y-49238095D01*
X140708152Y-49666666D02*
X141231961Y-49666666D01*
X141231961Y-49666666D02*
X141327200Y-49619047D01*
X141327200Y-49619047D02*
X141374819Y-49523809D01*
X141374819Y-49523809D02*
X141374819Y-49380952D01*
X141374819Y-49380952D02*
X141327200Y-49285714D01*
X141327200Y-49285714D02*
X141279580Y-49238095D01*
X140851009Y-48428571D02*
X140851009Y-48761904D01*
X141374819Y-48761904D02*
X140374819Y-48761904D01*
X140374819Y-48761904D02*
X140374819Y-48285714D01*
X156754819Y-55496666D02*
X156278628Y-55829999D01*
X156754819Y-56068094D02*
X155754819Y-56068094D01*
X155754819Y-56068094D02*
X155754819Y-55687142D01*
X155754819Y-55687142D02*
X155802438Y-55591904D01*
X155802438Y-55591904D02*
X155850057Y-55544285D01*
X155850057Y-55544285D02*
X155945295Y-55496666D01*
X155945295Y-55496666D02*
X156088152Y-55496666D01*
X156088152Y-55496666D02*
X156183390Y-55544285D01*
X156183390Y-55544285D02*
X156231009Y-55591904D01*
X156231009Y-55591904D02*
X156278628Y-55687142D01*
X156278628Y-55687142D02*
X156278628Y-56068094D01*
X155754819Y-54591904D02*
X155754819Y-55068094D01*
X155754819Y-55068094D02*
X156231009Y-55115713D01*
X156231009Y-55115713D02*
X156183390Y-55068094D01*
X156183390Y-55068094D02*
X156135771Y-54972856D01*
X156135771Y-54972856D02*
X156135771Y-54734761D01*
X156135771Y-54734761D02*
X156183390Y-54639523D01*
X156183390Y-54639523D02*
X156231009Y-54591904D01*
X156231009Y-54591904D02*
X156326247Y-54544285D01*
X156326247Y-54544285D02*
X156564342Y-54544285D01*
X156564342Y-54544285D02*
X156659580Y-54591904D01*
X156659580Y-54591904D02*
X156707200Y-54639523D01*
X156707200Y-54639523D02*
X156754819Y-54734761D01*
X156754819Y-54734761D02*
X156754819Y-54972856D01*
X156754819Y-54972856D02*
X156707200Y-55068094D01*
X156707200Y-55068094D02*
X156659580Y-55115713D01*
X156754819Y-49730476D02*
X156754819Y-50301904D01*
X156754819Y-50016190D02*
X155754819Y-50016190D01*
X155754819Y-50016190D02*
X155897676Y-50111428D01*
X155897676Y-50111428D02*
X155992914Y-50206666D01*
X155992914Y-50206666D02*
X156040533Y-50301904D01*
X155754819Y-49111428D02*
X155754819Y-49016190D01*
X155754819Y-49016190D02*
X155802438Y-48920952D01*
X155802438Y-48920952D02*
X155850057Y-48873333D01*
X155850057Y-48873333D02*
X155945295Y-48825714D01*
X155945295Y-48825714D02*
X156135771Y-48778095D01*
X156135771Y-48778095D02*
X156373866Y-48778095D01*
X156373866Y-48778095D02*
X156564342Y-48825714D01*
X156564342Y-48825714D02*
X156659580Y-48873333D01*
X156659580Y-48873333D02*
X156707200Y-48920952D01*
X156707200Y-48920952D02*
X156754819Y-49016190D01*
X156754819Y-49016190D02*
X156754819Y-49111428D01*
X156754819Y-49111428D02*
X156707200Y-49206666D01*
X156707200Y-49206666D02*
X156659580Y-49254285D01*
X156659580Y-49254285D02*
X156564342Y-49301904D01*
X156564342Y-49301904D02*
X156373866Y-49349523D01*
X156373866Y-49349523D02*
X156135771Y-49349523D01*
X156135771Y-49349523D02*
X155945295Y-49301904D01*
X155945295Y-49301904D02*
X155850057Y-49254285D01*
X155850057Y-49254285D02*
X155802438Y-49206666D01*
X155802438Y-49206666D02*
X155754819Y-49111428D01*
X156754819Y-48349523D02*
X155754819Y-48349523D01*
X156754819Y-47778095D02*
X156183390Y-48206666D01*
X155754819Y-47778095D02*
X156326247Y-48349523D01*
X141254819Y-58783333D02*
X141969104Y-58783333D01*
X141969104Y-58783333D02*
X142111961Y-58830952D01*
X142111961Y-58830952D02*
X142207200Y-58926190D01*
X142207200Y-58926190D02*
X142254819Y-59069047D01*
X142254819Y-59069047D02*
X142254819Y-59164285D01*
X141588152Y-57878571D02*
X142254819Y-57878571D01*
X141207200Y-58116666D02*
X141921485Y-58354761D01*
X141921485Y-58354761D02*
X141921485Y-57735714D01*
X154534819Y-59426189D02*
X153534819Y-59426189D01*
X153630057Y-58997618D02*
X153582438Y-58949999D01*
X153582438Y-58949999D02*
X153534819Y-58854761D01*
X153534819Y-58854761D02*
X153534819Y-58616666D01*
X153534819Y-58616666D02*
X153582438Y-58521428D01*
X153582438Y-58521428D02*
X153630057Y-58473809D01*
X153630057Y-58473809D02*
X153725295Y-58426190D01*
X153725295Y-58426190D02*
X153820533Y-58426190D01*
X153820533Y-58426190D02*
X153963390Y-58473809D01*
X153963390Y-58473809D02*
X154534819Y-59045237D01*
X154534819Y-59045237D02*
X154534819Y-58426190D01*
X154439580Y-57426190D02*
X154487200Y-57473809D01*
X154487200Y-57473809D02*
X154534819Y-57616666D01*
X154534819Y-57616666D02*
X154534819Y-57711904D01*
X154534819Y-57711904D02*
X154487200Y-57854761D01*
X154487200Y-57854761D02*
X154391961Y-57949999D01*
X154391961Y-57949999D02*
X154296723Y-57997618D01*
X154296723Y-57997618D02*
X154106247Y-58045237D01*
X154106247Y-58045237D02*
X153963390Y-58045237D01*
X153963390Y-58045237D02*
X153772914Y-57997618D01*
X153772914Y-57997618D02*
X153677676Y-57949999D01*
X153677676Y-57949999D02*
X153582438Y-57854761D01*
X153582438Y-57854761D02*
X153534819Y-57711904D01*
X153534819Y-57711904D02*
X153534819Y-57616666D01*
X153534819Y-57616666D02*
X153582438Y-57473809D01*
X153582438Y-57473809D02*
X153630057Y-57426190D01*
X162894819Y-51348094D02*
X161894819Y-51348094D01*
X161894819Y-51348094D02*
X161894819Y-51109999D01*
X161894819Y-51109999D02*
X161942438Y-50967142D01*
X161942438Y-50967142D02*
X162037676Y-50871904D01*
X162037676Y-50871904D02*
X162132914Y-50824285D01*
X162132914Y-50824285D02*
X162323390Y-50776666D01*
X162323390Y-50776666D02*
X162466247Y-50776666D01*
X162466247Y-50776666D02*
X162656723Y-50824285D01*
X162656723Y-50824285D02*
X162751961Y-50871904D01*
X162751961Y-50871904D02*
X162847200Y-50967142D01*
X162847200Y-50967142D02*
X162894819Y-51109999D01*
X162894819Y-51109999D02*
X162894819Y-51348094D01*
X162894819Y-49824285D02*
X162894819Y-50395713D01*
X162894819Y-50109999D02*
X161894819Y-50109999D01*
X161894819Y-50109999D02*
X162037676Y-50205237D01*
X162037676Y-50205237D02*
X162132914Y-50300475D01*
X162132914Y-50300475D02*
X162180533Y-50395713D01*
X168814819Y-52919523D02*
X167814819Y-52919523D01*
X167814819Y-52919523D02*
X167814819Y-52538571D01*
X167814819Y-52538571D02*
X167862438Y-52443333D01*
X167862438Y-52443333D02*
X167910057Y-52395714D01*
X167910057Y-52395714D02*
X168005295Y-52348095D01*
X168005295Y-52348095D02*
X168148152Y-52348095D01*
X168148152Y-52348095D02*
X168243390Y-52395714D01*
X168243390Y-52395714D02*
X168291009Y-52443333D01*
X168291009Y-52443333D02*
X168338628Y-52538571D01*
X168338628Y-52538571D02*
X168338628Y-52919523D01*
X167814819Y-51729047D02*
X167814819Y-51538571D01*
X167814819Y-51538571D02*
X167862438Y-51443333D01*
X167862438Y-51443333D02*
X167957676Y-51348095D01*
X167957676Y-51348095D02*
X168148152Y-51300476D01*
X168148152Y-51300476D02*
X168481485Y-51300476D01*
X168481485Y-51300476D02*
X168671961Y-51348095D01*
X168671961Y-51348095D02*
X168767200Y-51443333D01*
X168767200Y-51443333D02*
X168814819Y-51538571D01*
X168814819Y-51538571D02*
X168814819Y-51729047D01*
X168814819Y-51729047D02*
X168767200Y-51824285D01*
X168767200Y-51824285D02*
X168671961Y-51919523D01*
X168671961Y-51919523D02*
X168481485Y-51967142D01*
X168481485Y-51967142D02*
X168148152Y-51967142D01*
X168148152Y-51967142D02*
X167957676Y-51919523D01*
X167957676Y-51919523D02*
X167862438Y-51824285D01*
X167862438Y-51824285D02*
X167814819Y-51729047D01*
X167814819Y-50967142D02*
X168814819Y-50729047D01*
X168814819Y-50729047D02*
X168100533Y-50538571D01*
X168100533Y-50538571D02*
X168814819Y-50348095D01*
X168814819Y-50348095D02*
X167814819Y-50110000D01*
X168291009Y-49729047D02*
X168291009Y-49395714D01*
X168814819Y-49252857D02*
X168814819Y-49729047D01*
X168814819Y-49729047D02*
X167814819Y-49729047D01*
X167814819Y-49729047D02*
X167814819Y-49252857D01*
X168814819Y-48252857D02*
X168338628Y-48586190D01*
X168814819Y-48824285D02*
X167814819Y-48824285D01*
X167814819Y-48824285D02*
X167814819Y-48443333D01*
X167814819Y-48443333D02*
X167862438Y-48348095D01*
X167862438Y-48348095D02*
X167910057Y-48300476D01*
X167910057Y-48300476D02*
X168005295Y-48252857D01*
X168005295Y-48252857D02*
X168148152Y-48252857D01*
X168148152Y-48252857D02*
X168243390Y-48300476D01*
X168243390Y-48300476D02*
X168291009Y-48348095D01*
X168291009Y-48348095D02*
X168338628Y-48443333D01*
X168338628Y-48443333D02*
X168338628Y-48824285D01*
X116259580Y-53326666D02*
X116307200Y-53374285D01*
X116307200Y-53374285D02*
X116354819Y-53517142D01*
X116354819Y-53517142D02*
X116354819Y-53612380D01*
X116354819Y-53612380D02*
X116307200Y-53755237D01*
X116307200Y-53755237D02*
X116211961Y-53850475D01*
X116211961Y-53850475D02*
X116116723Y-53898094D01*
X116116723Y-53898094D02*
X115926247Y-53945713D01*
X115926247Y-53945713D02*
X115783390Y-53945713D01*
X115783390Y-53945713D02*
X115592914Y-53898094D01*
X115592914Y-53898094D02*
X115497676Y-53850475D01*
X115497676Y-53850475D02*
X115402438Y-53755237D01*
X115402438Y-53755237D02*
X115354819Y-53612380D01*
X115354819Y-53612380D02*
X115354819Y-53517142D01*
X115354819Y-53517142D02*
X115402438Y-53374285D01*
X115402438Y-53374285D02*
X115450057Y-53326666D01*
X115688152Y-52469523D02*
X116354819Y-52469523D01*
X115307200Y-52707618D02*
X116021485Y-52945713D01*
X116021485Y-52945713D02*
X116021485Y-52326666D01*
X113600057Y-55169047D02*
X113552438Y-55121428D01*
X113552438Y-55121428D02*
X113504819Y-55026190D01*
X113504819Y-55026190D02*
X113504819Y-54788095D01*
X113504819Y-54788095D02*
X113552438Y-54692857D01*
X113552438Y-54692857D02*
X113600057Y-54645238D01*
X113600057Y-54645238D02*
X113695295Y-54597619D01*
X113695295Y-54597619D02*
X113790533Y-54597619D01*
X113790533Y-54597619D02*
X113933390Y-54645238D01*
X113933390Y-54645238D02*
X114504819Y-55216666D01*
X114504819Y-55216666D02*
X114504819Y-54597619D01*
X113600057Y-54216666D02*
X113552438Y-54169047D01*
X113552438Y-54169047D02*
X113504819Y-54073809D01*
X113504819Y-54073809D02*
X113504819Y-53835714D01*
X113504819Y-53835714D02*
X113552438Y-53740476D01*
X113552438Y-53740476D02*
X113600057Y-53692857D01*
X113600057Y-53692857D02*
X113695295Y-53645238D01*
X113695295Y-53645238D02*
X113790533Y-53645238D01*
X113790533Y-53645238D02*
X113933390Y-53692857D01*
X113933390Y-53692857D02*
X114504819Y-54264285D01*
X114504819Y-54264285D02*
X114504819Y-53645238D01*
X113504819Y-53026190D02*
X113504819Y-52930952D01*
X113504819Y-52930952D02*
X113552438Y-52835714D01*
X113552438Y-52835714D02*
X113600057Y-52788095D01*
X113600057Y-52788095D02*
X113695295Y-52740476D01*
X113695295Y-52740476D02*
X113885771Y-52692857D01*
X113885771Y-52692857D02*
X114123866Y-52692857D01*
X114123866Y-52692857D02*
X114314342Y-52740476D01*
X114314342Y-52740476D02*
X114409580Y-52788095D01*
X114409580Y-52788095D02*
X114457200Y-52835714D01*
X114457200Y-52835714D02*
X114504819Y-52930952D01*
X114504819Y-52930952D02*
X114504819Y-53026190D01*
X114504819Y-53026190D02*
X114457200Y-53121428D01*
X114457200Y-53121428D02*
X114409580Y-53169047D01*
X114409580Y-53169047D02*
X114314342Y-53216666D01*
X114314342Y-53216666D02*
X114123866Y-53264285D01*
X114123866Y-53264285D02*
X113885771Y-53264285D01*
X113885771Y-53264285D02*
X113695295Y-53216666D01*
X113695295Y-53216666D02*
X113600057Y-53169047D01*
X113600057Y-53169047D02*
X113552438Y-53121428D01*
X113552438Y-53121428D02*
X113504819Y-53026190D01*
X113838152Y-52264285D02*
X114504819Y-52264285D01*
X113933390Y-52264285D02*
X113885771Y-52216666D01*
X113885771Y-52216666D02*
X113838152Y-52121428D01*
X113838152Y-52121428D02*
X113838152Y-51978571D01*
X113838152Y-51978571D02*
X113885771Y-51883333D01*
X113885771Y-51883333D02*
X113981009Y-51835714D01*
X113981009Y-51835714D02*
X114504819Y-51835714D01*
X113981009Y-51026190D02*
X113981009Y-51359523D01*
X114504819Y-51359523D02*
X113504819Y-51359523D01*
X113504819Y-51359523D02*
X113504819Y-50883333D01*
X109733333Y-56084819D02*
X109400000Y-55608628D01*
X109161905Y-56084819D02*
X109161905Y-55084819D01*
X109161905Y-55084819D02*
X109542857Y-55084819D01*
X109542857Y-55084819D02*
X109638095Y-55132438D01*
X109638095Y-55132438D02*
X109685714Y-55180057D01*
X109685714Y-55180057D02*
X109733333Y-55275295D01*
X109733333Y-55275295D02*
X109733333Y-55418152D01*
X109733333Y-55418152D02*
X109685714Y-55513390D01*
X109685714Y-55513390D02*
X109638095Y-55561009D01*
X109638095Y-55561009D02*
X109542857Y-55608628D01*
X109542857Y-55608628D02*
X109161905Y-55608628D01*
X110066667Y-55084819D02*
X110685714Y-55084819D01*
X110685714Y-55084819D02*
X110352381Y-55465771D01*
X110352381Y-55465771D02*
X110495238Y-55465771D01*
X110495238Y-55465771D02*
X110590476Y-55513390D01*
X110590476Y-55513390D02*
X110638095Y-55561009D01*
X110638095Y-55561009D02*
X110685714Y-55656247D01*
X110685714Y-55656247D02*
X110685714Y-55894342D01*
X110685714Y-55894342D02*
X110638095Y-55989580D01*
X110638095Y-55989580D02*
X110590476Y-56037200D01*
X110590476Y-56037200D02*
X110495238Y-56084819D01*
X110495238Y-56084819D02*
X110209524Y-56084819D01*
X110209524Y-56084819D02*
X110114286Y-56037200D01*
X110114286Y-56037200D02*
X110066667Y-55989580D01*
X108733333Y-59924819D02*
X108161905Y-59924819D01*
X108447619Y-59924819D02*
X108447619Y-58924819D01*
X108447619Y-58924819D02*
X108352381Y-59067676D01*
X108352381Y-59067676D02*
X108257143Y-59162914D01*
X108257143Y-59162914D02*
X108161905Y-59210533D01*
X109638095Y-58924819D02*
X109161905Y-58924819D01*
X109161905Y-58924819D02*
X109114286Y-59401009D01*
X109114286Y-59401009D02*
X109161905Y-59353390D01*
X109161905Y-59353390D02*
X109257143Y-59305771D01*
X109257143Y-59305771D02*
X109495238Y-59305771D01*
X109495238Y-59305771D02*
X109590476Y-59353390D01*
X109590476Y-59353390D02*
X109638095Y-59401009D01*
X109638095Y-59401009D02*
X109685714Y-59496247D01*
X109685714Y-59496247D02*
X109685714Y-59734342D01*
X109685714Y-59734342D02*
X109638095Y-59829580D01*
X109638095Y-59829580D02*
X109590476Y-59877200D01*
X109590476Y-59877200D02*
X109495238Y-59924819D01*
X109495238Y-59924819D02*
X109257143Y-59924819D01*
X109257143Y-59924819D02*
X109161905Y-59877200D01*
X109161905Y-59877200D02*
X109114286Y-59829580D01*
X110304762Y-58924819D02*
X110400000Y-58924819D01*
X110400000Y-58924819D02*
X110495238Y-58972438D01*
X110495238Y-58972438D02*
X110542857Y-59020057D01*
X110542857Y-59020057D02*
X110590476Y-59115295D01*
X110590476Y-59115295D02*
X110638095Y-59305771D01*
X110638095Y-59305771D02*
X110638095Y-59543866D01*
X110638095Y-59543866D02*
X110590476Y-59734342D01*
X110590476Y-59734342D02*
X110542857Y-59829580D01*
X110542857Y-59829580D02*
X110495238Y-59877200D01*
X110495238Y-59877200D02*
X110400000Y-59924819D01*
X110400000Y-59924819D02*
X110304762Y-59924819D01*
X110304762Y-59924819D02*
X110209524Y-59877200D01*
X110209524Y-59877200D02*
X110161905Y-59829580D01*
X110161905Y-59829580D02*
X110114286Y-59734342D01*
X110114286Y-59734342D02*
X110066667Y-59543866D01*
X110066667Y-59543866D02*
X110066667Y-59305771D01*
X110066667Y-59305771D02*
X110114286Y-59115295D01*
X110114286Y-59115295D02*
X110161905Y-59020057D01*
X110161905Y-59020057D02*
X110209524Y-58972438D01*
X110209524Y-58972438D02*
X110304762Y-58924819D01*
X111638095Y-59924819D02*
X111304762Y-59448628D01*
X111066667Y-59924819D02*
X111066667Y-58924819D01*
X111066667Y-58924819D02*
X111447619Y-58924819D01*
X111447619Y-58924819D02*
X111542857Y-58972438D01*
X111542857Y-58972438D02*
X111590476Y-59020057D01*
X111590476Y-59020057D02*
X111638095Y-59115295D01*
X111638095Y-59115295D02*
X111638095Y-59258152D01*
X111638095Y-59258152D02*
X111590476Y-59353390D01*
X111590476Y-59353390D02*
X111542857Y-59401009D01*
X111542857Y-59401009D02*
X111447619Y-59448628D01*
X111447619Y-59448628D02*
X111066667Y-59448628D01*
X109194761Y-48240057D02*
X109099523Y-48192438D01*
X109099523Y-48192438D02*
X109004285Y-48097200D01*
X109004285Y-48097200D02*
X108861428Y-47954342D01*
X108861428Y-47954342D02*
X108766190Y-47906723D01*
X108766190Y-47906723D02*
X108670952Y-47906723D01*
X108718571Y-48144819D02*
X108623333Y-48097200D01*
X108623333Y-48097200D02*
X108528095Y-48001961D01*
X108528095Y-48001961D02*
X108480476Y-47811485D01*
X108480476Y-47811485D02*
X108480476Y-47478152D01*
X108480476Y-47478152D02*
X108528095Y-47287676D01*
X108528095Y-47287676D02*
X108623333Y-47192438D01*
X108623333Y-47192438D02*
X108718571Y-47144819D01*
X108718571Y-47144819D02*
X108909047Y-47144819D01*
X108909047Y-47144819D02*
X109004285Y-47192438D01*
X109004285Y-47192438D02*
X109099523Y-47287676D01*
X109099523Y-47287676D02*
X109147142Y-47478152D01*
X109147142Y-47478152D02*
X109147142Y-47811485D01*
X109147142Y-47811485D02*
X109099523Y-48001961D01*
X109099523Y-48001961D02*
X109004285Y-48097200D01*
X109004285Y-48097200D02*
X108909047Y-48144819D01*
X108909047Y-48144819D02*
X108718571Y-48144819D01*
X110099523Y-48144819D02*
X109528095Y-48144819D01*
X109813809Y-48144819D02*
X109813809Y-47144819D01*
X109813809Y-47144819D02*
X109718571Y-47287676D01*
X109718571Y-47287676D02*
X109623333Y-47382914D01*
X109623333Y-47382914D02*
X109528095Y-47430533D01*
X107432857Y-53971009D02*
X107575714Y-54018628D01*
X107575714Y-54018628D02*
X107623333Y-54066247D01*
X107623333Y-54066247D02*
X107670952Y-54161485D01*
X107670952Y-54161485D02*
X107670952Y-54304342D01*
X107670952Y-54304342D02*
X107623333Y-54399580D01*
X107623333Y-54399580D02*
X107575714Y-54447200D01*
X107575714Y-54447200D02*
X107480476Y-54494819D01*
X107480476Y-54494819D02*
X107099524Y-54494819D01*
X107099524Y-54494819D02*
X107099524Y-53494819D01*
X107099524Y-53494819D02*
X107432857Y-53494819D01*
X107432857Y-53494819D02*
X107528095Y-53542438D01*
X107528095Y-53542438D02*
X107575714Y-53590057D01*
X107575714Y-53590057D02*
X107623333Y-53685295D01*
X107623333Y-53685295D02*
X107623333Y-53780533D01*
X107623333Y-53780533D02*
X107575714Y-53875771D01*
X107575714Y-53875771D02*
X107528095Y-53923390D01*
X107528095Y-53923390D02*
X107432857Y-53971009D01*
X107432857Y-53971009D02*
X107099524Y-53971009D01*
X108670952Y-54399580D02*
X108623333Y-54447200D01*
X108623333Y-54447200D02*
X108480476Y-54494819D01*
X108480476Y-54494819D02*
X108385238Y-54494819D01*
X108385238Y-54494819D02*
X108242381Y-54447200D01*
X108242381Y-54447200D02*
X108147143Y-54351961D01*
X108147143Y-54351961D02*
X108099524Y-54256723D01*
X108099524Y-54256723D02*
X108051905Y-54066247D01*
X108051905Y-54066247D02*
X108051905Y-53923390D01*
X108051905Y-53923390D02*
X108099524Y-53732914D01*
X108099524Y-53732914D02*
X108147143Y-53637676D01*
X108147143Y-53637676D02*
X108242381Y-53542438D01*
X108242381Y-53542438D02*
X108385238Y-53494819D01*
X108385238Y-53494819D02*
X108480476Y-53494819D01*
X108480476Y-53494819D02*
X108623333Y-53542438D01*
X108623333Y-53542438D02*
X108670952Y-53590057D01*
X109575714Y-53494819D02*
X109099524Y-53494819D01*
X109099524Y-53494819D02*
X109051905Y-53971009D01*
X109051905Y-53971009D02*
X109099524Y-53923390D01*
X109099524Y-53923390D02*
X109194762Y-53875771D01*
X109194762Y-53875771D02*
X109432857Y-53875771D01*
X109432857Y-53875771D02*
X109528095Y-53923390D01*
X109528095Y-53923390D02*
X109575714Y-53971009D01*
X109575714Y-53971009D02*
X109623333Y-54066247D01*
X109623333Y-54066247D02*
X109623333Y-54304342D01*
X109623333Y-54304342D02*
X109575714Y-54399580D01*
X109575714Y-54399580D02*
X109528095Y-54447200D01*
X109528095Y-54447200D02*
X109432857Y-54494819D01*
X109432857Y-54494819D02*
X109194762Y-54494819D01*
X109194762Y-54494819D02*
X109099524Y-54447200D01*
X109099524Y-54447200D02*
X109051905Y-54399580D01*
X110528095Y-53494819D02*
X110051905Y-53494819D01*
X110051905Y-53494819D02*
X110004286Y-53971009D01*
X110004286Y-53971009D02*
X110051905Y-53923390D01*
X110051905Y-53923390D02*
X110147143Y-53875771D01*
X110147143Y-53875771D02*
X110385238Y-53875771D01*
X110385238Y-53875771D02*
X110480476Y-53923390D01*
X110480476Y-53923390D02*
X110528095Y-53971009D01*
X110528095Y-53971009D02*
X110575714Y-54066247D01*
X110575714Y-54066247D02*
X110575714Y-54304342D01*
X110575714Y-54304342D02*
X110528095Y-54399580D01*
X110528095Y-54399580D02*
X110480476Y-54447200D01*
X110480476Y-54447200D02*
X110385238Y-54494819D01*
X110385238Y-54494819D02*
X110147143Y-54494819D01*
X110147143Y-54494819D02*
X110051905Y-54447200D01*
X110051905Y-54447200D02*
X110004286Y-54399580D01*
X111194762Y-53494819D02*
X111290000Y-53494819D01*
X111290000Y-53494819D02*
X111385238Y-53542438D01*
X111385238Y-53542438D02*
X111432857Y-53590057D01*
X111432857Y-53590057D02*
X111480476Y-53685295D01*
X111480476Y-53685295D02*
X111528095Y-53875771D01*
X111528095Y-53875771D02*
X111528095Y-54113866D01*
X111528095Y-54113866D02*
X111480476Y-54304342D01*
X111480476Y-54304342D02*
X111432857Y-54399580D01*
X111432857Y-54399580D02*
X111385238Y-54447200D01*
X111385238Y-54447200D02*
X111290000Y-54494819D01*
X111290000Y-54494819D02*
X111194762Y-54494819D01*
X111194762Y-54494819D02*
X111099524Y-54447200D01*
X111099524Y-54447200D02*
X111051905Y-54399580D01*
X111051905Y-54399580D02*
X111004286Y-54304342D01*
X111004286Y-54304342D02*
X110956667Y-54113866D01*
X110956667Y-54113866D02*
X110956667Y-53875771D01*
X110956667Y-53875771D02*
X111004286Y-53685295D01*
X111004286Y-53685295D02*
X111051905Y-53590057D01*
X111051905Y-53590057D02*
X111099524Y-53542438D01*
X111099524Y-53542438D02*
X111194762Y-53494819D01*
X94784819Y-50263333D02*
X95499104Y-50263333D01*
X95499104Y-50263333D02*
X95641961Y-50310952D01*
X95641961Y-50310952D02*
X95737200Y-50406190D01*
X95737200Y-50406190D02*
X95784819Y-50549047D01*
X95784819Y-50549047D02*
X95784819Y-50644285D01*
X94784819Y-49882380D02*
X94784819Y-49263333D01*
X94784819Y-49263333D02*
X95165771Y-49596666D01*
X95165771Y-49596666D02*
X95165771Y-49453809D01*
X95165771Y-49453809D02*
X95213390Y-49358571D01*
X95213390Y-49358571D02*
X95261009Y-49310952D01*
X95261009Y-49310952D02*
X95356247Y-49263333D01*
X95356247Y-49263333D02*
X95594342Y-49263333D01*
X95594342Y-49263333D02*
X95689580Y-49310952D01*
X95689580Y-49310952D02*
X95737200Y-49358571D01*
X95737200Y-49358571D02*
X95784819Y-49453809D01*
X95784819Y-49453809D02*
X95784819Y-49739523D01*
X95784819Y-49739523D02*
X95737200Y-49834761D01*
X95737200Y-49834761D02*
X95689580Y-49882380D01*
X87584819Y-51263333D02*
X87584819Y-51739523D01*
X87584819Y-51739523D02*
X88061009Y-51787142D01*
X88061009Y-51787142D02*
X88013390Y-51739523D01*
X88013390Y-51739523D02*
X87965771Y-51644285D01*
X87965771Y-51644285D02*
X87965771Y-51406190D01*
X87965771Y-51406190D02*
X88013390Y-51310952D01*
X88013390Y-51310952D02*
X88061009Y-51263333D01*
X88061009Y-51263333D02*
X88156247Y-51215714D01*
X88156247Y-51215714D02*
X88394342Y-51215714D01*
X88394342Y-51215714D02*
X88489580Y-51263333D01*
X88489580Y-51263333D02*
X88537200Y-51310952D01*
X88537200Y-51310952D02*
X88584819Y-51406190D01*
X88584819Y-51406190D02*
X88584819Y-51644285D01*
X88584819Y-51644285D02*
X88537200Y-51739523D01*
X88537200Y-51739523D02*
X88489580Y-51787142D01*
X87584819Y-50929999D02*
X88584819Y-50596666D01*
X88584819Y-50596666D02*
X87584819Y-50263333D01*
X88584819Y-49168094D02*
X87584819Y-49168094D01*
X88584819Y-48691904D02*
X87584819Y-48691904D01*
X87584819Y-48691904D02*
X88584819Y-48120476D01*
X88584819Y-48120476D02*
X87584819Y-48120476D01*
X104519047Y-61581009D02*
X104661904Y-61628628D01*
X104661904Y-61628628D02*
X104709523Y-61676247D01*
X104709523Y-61676247D02*
X104757142Y-61771485D01*
X104757142Y-61771485D02*
X104757142Y-61914342D01*
X104757142Y-61914342D02*
X104709523Y-62009580D01*
X104709523Y-62009580D02*
X104661904Y-62057200D01*
X104661904Y-62057200D02*
X104566666Y-62104819D01*
X104566666Y-62104819D02*
X104185714Y-62104819D01*
X104185714Y-62104819D02*
X104185714Y-61104819D01*
X104185714Y-61104819D02*
X104519047Y-61104819D01*
X104519047Y-61104819D02*
X104614285Y-61152438D01*
X104614285Y-61152438D02*
X104661904Y-61200057D01*
X104661904Y-61200057D02*
X104709523Y-61295295D01*
X104709523Y-61295295D02*
X104709523Y-61390533D01*
X104709523Y-61390533D02*
X104661904Y-61485771D01*
X104661904Y-61485771D02*
X104614285Y-61533390D01*
X104614285Y-61533390D02*
X104519047Y-61581009D01*
X104519047Y-61581009D02*
X104185714Y-61581009D01*
X105090476Y-61104819D02*
X105757142Y-61104819D01*
X105757142Y-61104819D02*
X105090476Y-62104819D01*
X105090476Y-62104819D02*
X105757142Y-62104819D01*
X106661904Y-62104819D02*
X106090476Y-62104819D01*
X106376190Y-62104819D02*
X106376190Y-61104819D01*
X106376190Y-61104819D02*
X106280952Y-61247676D01*
X106280952Y-61247676D02*
X106185714Y-61342914D01*
X106185714Y-61342914D02*
X106090476Y-61390533D01*
X103471428Y-69981009D02*
X103614285Y-70028628D01*
X103614285Y-70028628D02*
X103661904Y-70076247D01*
X103661904Y-70076247D02*
X103709523Y-70171485D01*
X103709523Y-70171485D02*
X103709523Y-70314342D01*
X103709523Y-70314342D02*
X103661904Y-70409580D01*
X103661904Y-70409580D02*
X103614285Y-70457200D01*
X103614285Y-70457200D02*
X103519047Y-70504819D01*
X103519047Y-70504819D02*
X103138095Y-70504819D01*
X103138095Y-70504819D02*
X103138095Y-69504819D01*
X103138095Y-69504819D02*
X103471428Y-69504819D01*
X103471428Y-69504819D02*
X103566666Y-69552438D01*
X103566666Y-69552438D02*
X103614285Y-69600057D01*
X103614285Y-69600057D02*
X103661904Y-69695295D01*
X103661904Y-69695295D02*
X103661904Y-69790533D01*
X103661904Y-69790533D02*
X103614285Y-69885771D01*
X103614285Y-69885771D02*
X103566666Y-69933390D01*
X103566666Y-69933390D02*
X103471428Y-69981009D01*
X103471428Y-69981009D02*
X103138095Y-69981009D01*
X104566666Y-69838152D02*
X104566666Y-70504819D01*
X104138095Y-69838152D02*
X104138095Y-70361961D01*
X104138095Y-70361961D02*
X104185714Y-70457200D01*
X104185714Y-70457200D02*
X104280952Y-70504819D01*
X104280952Y-70504819D02*
X104423809Y-70504819D01*
X104423809Y-70504819D02*
X104519047Y-70457200D01*
X104519047Y-70457200D02*
X104566666Y-70409580D01*
X104947619Y-69838152D02*
X105471428Y-69838152D01*
X105471428Y-69838152D02*
X104947619Y-70504819D01*
X104947619Y-70504819D02*
X105471428Y-70504819D01*
X105757143Y-69838152D02*
X106280952Y-69838152D01*
X106280952Y-69838152D02*
X105757143Y-70504819D01*
X105757143Y-70504819D02*
X106280952Y-70504819D01*
X107042857Y-70457200D02*
X106947619Y-70504819D01*
X106947619Y-70504819D02*
X106757143Y-70504819D01*
X106757143Y-70504819D02*
X106661905Y-70457200D01*
X106661905Y-70457200D02*
X106614286Y-70361961D01*
X106614286Y-70361961D02*
X106614286Y-69981009D01*
X106614286Y-69981009D02*
X106661905Y-69885771D01*
X106661905Y-69885771D02*
X106757143Y-69838152D01*
X106757143Y-69838152D02*
X106947619Y-69838152D01*
X106947619Y-69838152D02*
X107042857Y-69885771D01*
X107042857Y-69885771D02*
X107090476Y-69981009D01*
X107090476Y-69981009D02*
X107090476Y-70076247D01*
X107090476Y-70076247D02*
X106614286Y-70171485D01*
X107519048Y-70504819D02*
X107519048Y-69838152D01*
X107519048Y-70028628D02*
X107566667Y-69933390D01*
X107566667Y-69933390D02*
X107614286Y-69885771D01*
X107614286Y-69885771D02*
X107709524Y-69838152D01*
X107709524Y-69838152D02*
X107804762Y-69838152D01*
X101769048Y-64173866D02*
X102530953Y-64173866D01*
X102150000Y-64554819D02*
X102150000Y-63792914D01*
X96203333Y-48459580D02*
X96155714Y-48507200D01*
X96155714Y-48507200D02*
X96012857Y-48554819D01*
X96012857Y-48554819D02*
X95917619Y-48554819D01*
X95917619Y-48554819D02*
X95774762Y-48507200D01*
X95774762Y-48507200D02*
X95679524Y-48411961D01*
X95679524Y-48411961D02*
X95631905Y-48316723D01*
X95631905Y-48316723D02*
X95584286Y-48126247D01*
X95584286Y-48126247D02*
X95584286Y-47983390D01*
X95584286Y-47983390D02*
X95631905Y-47792914D01*
X95631905Y-47792914D02*
X95679524Y-47697676D01*
X95679524Y-47697676D02*
X95774762Y-47602438D01*
X95774762Y-47602438D02*
X95917619Y-47554819D01*
X95917619Y-47554819D02*
X96012857Y-47554819D01*
X96012857Y-47554819D02*
X96155714Y-47602438D01*
X96155714Y-47602438D02*
X96203333Y-47650057D01*
X97155714Y-48554819D02*
X96584286Y-48554819D01*
X96870000Y-48554819D02*
X96870000Y-47554819D01*
X96870000Y-47554819D02*
X96774762Y-47697676D01*
X96774762Y-47697676D02*
X96679524Y-47792914D01*
X96679524Y-47792914D02*
X96584286Y-47840533D01*
X104454819Y-51747619D02*
X104454819Y-52319047D01*
X104454819Y-52033333D02*
X103454819Y-52033333D01*
X103454819Y-52033333D02*
X103597676Y-52128571D01*
X103597676Y-52128571D02*
X103692914Y-52223809D01*
X103692914Y-52223809D02*
X103740533Y-52319047D01*
X103454819Y-51128571D02*
X103454819Y-51033333D01*
X103454819Y-51033333D02*
X103502438Y-50938095D01*
X103502438Y-50938095D02*
X103550057Y-50890476D01*
X103550057Y-50890476D02*
X103645295Y-50842857D01*
X103645295Y-50842857D02*
X103835771Y-50795238D01*
X103835771Y-50795238D02*
X104073866Y-50795238D01*
X104073866Y-50795238D02*
X104264342Y-50842857D01*
X104264342Y-50842857D02*
X104359580Y-50890476D01*
X104359580Y-50890476D02*
X104407200Y-50938095D01*
X104407200Y-50938095D02*
X104454819Y-51033333D01*
X104454819Y-51033333D02*
X104454819Y-51128571D01*
X104454819Y-51128571D02*
X104407200Y-51223809D01*
X104407200Y-51223809D02*
X104359580Y-51271428D01*
X104359580Y-51271428D02*
X104264342Y-51319047D01*
X104264342Y-51319047D02*
X104073866Y-51366666D01*
X104073866Y-51366666D02*
X103835771Y-51366666D01*
X103835771Y-51366666D02*
X103645295Y-51319047D01*
X103645295Y-51319047D02*
X103550057Y-51271428D01*
X103550057Y-51271428D02*
X103502438Y-51223809D01*
X103502438Y-51223809D02*
X103454819Y-51128571D01*
X103454819Y-50176190D02*
X103454819Y-50080952D01*
X103454819Y-50080952D02*
X103502438Y-49985714D01*
X103502438Y-49985714D02*
X103550057Y-49938095D01*
X103550057Y-49938095D02*
X103645295Y-49890476D01*
X103645295Y-49890476D02*
X103835771Y-49842857D01*
X103835771Y-49842857D02*
X104073866Y-49842857D01*
X104073866Y-49842857D02*
X104264342Y-49890476D01*
X104264342Y-49890476D02*
X104359580Y-49938095D01*
X104359580Y-49938095D02*
X104407200Y-49985714D01*
X104407200Y-49985714D02*
X104454819Y-50080952D01*
X104454819Y-50080952D02*
X104454819Y-50176190D01*
X104454819Y-50176190D02*
X104407200Y-50271428D01*
X104407200Y-50271428D02*
X104359580Y-50319047D01*
X104359580Y-50319047D02*
X104264342Y-50366666D01*
X104264342Y-50366666D02*
X104073866Y-50414285D01*
X104073866Y-50414285D02*
X103835771Y-50414285D01*
X103835771Y-50414285D02*
X103645295Y-50366666D01*
X103645295Y-50366666D02*
X103550057Y-50319047D01*
X103550057Y-50319047D02*
X103502438Y-50271428D01*
X103502438Y-50271428D02*
X103454819Y-50176190D01*
X103788152Y-48985714D02*
X104454819Y-48985714D01*
X103788152Y-49414285D02*
X104311961Y-49414285D01*
X104311961Y-49414285D02*
X104407200Y-49366666D01*
X104407200Y-49366666D02*
X104454819Y-49271428D01*
X104454819Y-49271428D02*
X104454819Y-49128571D01*
X104454819Y-49128571D02*
X104407200Y-49033333D01*
X104407200Y-49033333D02*
X104359580Y-48985714D01*
X103931009Y-48176190D02*
X103931009Y-48509523D01*
X104454819Y-48509523D02*
X103454819Y-48509523D01*
X103454819Y-48509523D02*
X103454819Y-48033333D01*
X147779580Y-54406666D02*
X147827200Y-54454285D01*
X147827200Y-54454285D02*
X147874819Y-54597142D01*
X147874819Y-54597142D02*
X147874819Y-54692380D01*
X147874819Y-54692380D02*
X147827200Y-54835237D01*
X147827200Y-54835237D02*
X147731961Y-54930475D01*
X147731961Y-54930475D02*
X147636723Y-54978094D01*
X147636723Y-54978094D02*
X147446247Y-55025713D01*
X147446247Y-55025713D02*
X147303390Y-55025713D01*
X147303390Y-55025713D02*
X147112914Y-54978094D01*
X147112914Y-54978094D02*
X147017676Y-54930475D01*
X147017676Y-54930475D02*
X146922438Y-54835237D01*
X146922438Y-54835237D02*
X146874819Y-54692380D01*
X146874819Y-54692380D02*
X146874819Y-54597142D01*
X146874819Y-54597142D02*
X146922438Y-54454285D01*
X146922438Y-54454285D02*
X146970057Y-54406666D01*
X146874819Y-53501904D02*
X146874819Y-53978094D01*
X146874819Y-53978094D02*
X147351009Y-54025713D01*
X147351009Y-54025713D02*
X147303390Y-53978094D01*
X147303390Y-53978094D02*
X147255771Y-53882856D01*
X147255771Y-53882856D02*
X147255771Y-53644761D01*
X147255771Y-53644761D02*
X147303390Y-53549523D01*
X147303390Y-53549523D02*
X147351009Y-53501904D01*
X147351009Y-53501904D02*
X147446247Y-53454285D01*
X147446247Y-53454285D02*
X147684342Y-53454285D01*
X147684342Y-53454285D02*
X147779580Y-53501904D01*
X147779580Y-53501904D02*
X147827200Y-53549523D01*
X147827200Y-53549523D02*
X147874819Y-53644761D01*
X147874819Y-53644761D02*
X147874819Y-53882856D01*
X147874819Y-53882856D02*
X147827200Y-53978094D01*
X147827200Y-53978094D02*
X147779580Y-54025713D01*
X141374819Y-54835238D02*
X141374819Y-55406666D01*
X141374819Y-55120952D02*
X140374819Y-55120952D01*
X140374819Y-55120952D02*
X140517676Y-55216190D01*
X140517676Y-55216190D02*
X140612914Y-55311428D01*
X140612914Y-55311428D02*
X140660533Y-55406666D01*
X140708152Y-53978095D02*
X141374819Y-53978095D01*
X140708152Y-54406666D02*
X141231961Y-54406666D01*
X141231961Y-54406666D02*
X141327200Y-54359047D01*
X141327200Y-54359047D02*
X141374819Y-54263809D01*
X141374819Y-54263809D02*
X141374819Y-54120952D01*
X141374819Y-54120952D02*
X141327200Y-54025714D01*
X141327200Y-54025714D02*
X141279580Y-53978095D01*
X140851009Y-53168571D02*
X140851009Y-53501904D01*
X141374819Y-53501904D02*
X140374819Y-53501904D01*
X140374819Y-53501904D02*
X140374819Y-53025714D01*
X99843333Y-71489580D02*
X99795714Y-71537200D01*
X99795714Y-71537200D02*
X99652857Y-71584819D01*
X99652857Y-71584819D02*
X99557619Y-71584819D01*
X99557619Y-71584819D02*
X99414762Y-71537200D01*
X99414762Y-71537200D02*
X99319524Y-71441961D01*
X99319524Y-71441961D02*
X99271905Y-71346723D01*
X99271905Y-71346723D02*
X99224286Y-71156247D01*
X99224286Y-71156247D02*
X99224286Y-71013390D01*
X99224286Y-71013390D02*
X99271905Y-70822914D01*
X99271905Y-70822914D02*
X99319524Y-70727676D01*
X99319524Y-70727676D02*
X99414762Y-70632438D01*
X99414762Y-70632438D02*
X99557619Y-70584819D01*
X99557619Y-70584819D02*
X99652857Y-70584819D01*
X99652857Y-70584819D02*
X99795714Y-70632438D01*
X99795714Y-70632438D02*
X99843333Y-70680057D01*
X100176667Y-70584819D02*
X100795714Y-70584819D01*
X100795714Y-70584819D02*
X100462381Y-70965771D01*
X100462381Y-70965771D02*
X100605238Y-70965771D01*
X100605238Y-70965771D02*
X100700476Y-71013390D01*
X100700476Y-71013390D02*
X100748095Y-71061009D01*
X100748095Y-71061009D02*
X100795714Y-71156247D01*
X100795714Y-71156247D02*
X100795714Y-71394342D01*
X100795714Y-71394342D02*
X100748095Y-71489580D01*
X100748095Y-71489580D02*
X100700476Y-71537200D01*
X100700476Y-71537200D02*
X100605238Y-71584819D01*
X100605238Y-71584819D02*
X100319524Y-71584819D01*
X100319524Y-71584819D02*
X100224286Y-71537200D01*
X100224286Y-71537200D02*
X100176667Y-71489580D01*
X100333333Y-77938152D02*
X100333333Y-78604819D01*
X100095238Y-77557200D02*
X99857143Y-78271485D01*
X99857143Y-78271485D02*
X100476190Y-78271485D01*
X100761905Y-77604819D02*
X101428571Y-77604819D01*
X101428571Y-77604819D02*
X101000000Y-78604819D01*
X102238095Y-77938152D02*
X102238095Y-78604819D01*
X101809524Y-77938152D02*
X101809524Y-78461961D01*
X101809524Y-78461961D02*
X101857143Y-78557200D01*
X101857143Y-78557200D02*
X101952381Y-78604819D01*
X101952381Y-78604819D02*
X102095238Y-78604819D01*
X102095238Y-78604819D02*
X102190476Y-78557200D01*
X102190476Y-78557200D02*
X102238095Y-78509580D01*
X103047619Y-78081009D02*
X102714286Y-78081009D01*
X102714286Y-78604819D02*
X102714286Y-77604819D01*
X102714286Y-77604819D02*
X103190476Y-77604819D01*
X138304819Y-53931904D02*
X139114342Y-53931904D01*
X139114342Y-53931904D02*
X139209580Y-53884285D01*
X139209580Y-53884285D02*
X139257200Y-53836666D01*
X139257200Y-53836666D02*
X139304819Y-53741428D01*
X139304819Y-53741428D02*
X139304819Y-53550952D01*
X139304819Y-53550952D02*
X139257200Y-53455714D01*
X139257200Y-53455714D02*
X139209580Y-53408095D01*
X139209580Y-53408095D02*
X139114342Y-53360476D01*
X139114342Y-53360476D02*
X138304819Y-53360476D01*
X138400057Y-52931904D02*
X138352438Y-52884285D01*
X138352438Y-52884285D02*
X138304819Y-52789047D01*
X138304819Y-52789047D02*
X138304819Y-52550952D01*
X138304819Y-52550952D02*
X138352438Y-52455714D01*
X138352438Y-52455714D02*
X138400057Y-52408095D01*
X138400057Y-52408095D02*
X138495295Y-52360476D01*
X138495295Y-52360476D02*
X138590533Y-52360476D01*
X138590533Y-52360476D02*
X138733390Y-52408095D01*
X138733390Y-52408095D02*
X139304819Y-52979523D01*
X139304819Y-52979523D02*
X139304819Y-52360476D01*
X117823333Y-55554819D02*
X117823333Y-54554819D01*
X117823333Y-54554819D02*
X118156666Y-55269104D01*
X118156666Y-55269104D02*
X118489999Y-54554819D01*
X118489999Y-54554819D02*
X118489999Y-55554819D01*
X118918571Y-55269104D02*
X119394761Y-55269104D01*
X118823333Y-55554819D02*
X119156666Y-54554819D01*
X119156666Y-54554819D02*
X119489999Y-55554819D01*
X119728095Y-54554819D02*
X120394761Y-55554819D01*
X120394761Y-54554819D02*
X119728095Y-55554819D01*
X120728095Y-54650057D02*
X120775714Y-54602438D01*
X120775714Y-54602438D02*
X120870952Y-54554819D01*
X120870952Y-54554819D02*
X121109047Y-54554819D01*
X121109047Y-54554819D02*
X121204285Y-54602438D01*
X121204285Y-54602438D02*
X121251904Y-54650057D01*
X121251904Y-54650057D02*
X121299523Y-54745295D01*
X121299523Y-54745295D02*
X121299523Y-54840533D01*
X121299523Y-54840533D02*
X121251904Y-54983390D01*
X121251904Y-54983390D02*
X120680476Y-55554819D01*
X120680476Y-55554819D02*
X121299523Y-55554819D01*
X121632857Y-54554819D02*
X122251904Y-54554819D01*
X122251904Y-54554819D02*
X121918571Y-54935771D01*
X121918571Y-54935771D02*
X122061428Y-54935771D01*
X122061428Y-54935771D02*
X122156666Y-54983390D01*
X122156666Y-54983390D02*
X122204285Y-55031009D01*
X122204285Y-55031009D02*
X122251904Y-55126247D01*
X122251904Y-55126247D02*
X122251904Y-55364342D01*
X122251904Y-55364342D02*
X122204285Y-55459580D01*
X122204285Y-55459580D02*
X122156666Y-55507200D01*
X122156666Y-55507200D02*
X122061428Y-55554819D01*
X122061428Y-55554819D02*
X121775714Y-55554819D01*
X121775714Y-55554819D02*
X121680476Y-55507200D01*
X121680476Y-55507200D02*
X121632857Y-55459580D01*
X122632857Y-54650057D02*
X122680476Y-54602438D01*
X122680476Y-54602438D02*
X122775714Y-54554819D01*
X122775714Y-54554819D02*
X123013809Y-54554819D01*
X123013809Y-54554819D02*
X123109047Y-54602438D01*
X123109047Y-54602438D02*
X123156666Y-54650057D01*
X123156666Y-54650057D02*
X123204285Y-54745295D01*
X123204285Y-54745295D02*
X123204285Y-54840533D01*
X123204285Y-54840533D02*
X123156666Y-54983390D01*
X123156666Y-54983390D02*
X122585238Y-55554819D01*
X122585238Y-55554819D02*
X123204285Y-55554819D01*
X155009580Y-51966666D02*
X155057200Y-52014285D01*
X155057200Y-52014285D02*
X155104819Y-52157142D01*
X155104819Y-52157142D02*
X155104819Y-52252380D01*
X155104819Y-52252380D02*
X155057200Y-52395237D01*
X155057200Y-52395237D02*
X154961961Y-52490475D01*
X154961961Y-52490475D02*
X154866723Y-52538094D01*
X154866723Y-52538094D02*
X154676247Y-52585713D01*
X154676247Y-52585713D02*
X154533390Y-52585713D01*
X154533390Y-52585713D02*
X154342914Y-52538094D01*
X154342914Y-52538094D02*
X154247676Y-52490475D01*
X154247676Y-52490475D02*
X154152438Y-52395237D01*
X154152438Y-52395237D02*
X154104819Y-52252380D01*
X154104819Y-52252380D02*
X154104819Y-52157142D01*
X154104819Y-52157142D02*
X154152438Y-52014285D01*
X154152438Y-52014285D02*
X154200057Y-51966666D01*
X154104819Y-51109523D02*
X154104819Y-51299999D01*
X154104819Y-51299999D02*
X154152438Y-51395237D01*
X154152438Y-51395237D02*
X154200057Y-51442856D01*
X154200057Y-51442856D02*
X154342914Y-51538094D01*
X154342914Y-51538094D02*
X154533390Y-51585713D01*
X154533390Y-51585713D02*
X154914342Y-51585713D01*
X154914342Y-51585713D02*
X155009580Y-51538094D01*
X155009580Y-51538094D02*
X155057200Y-51490475D01*
X155057200Y-51490475D02*
X155104819Y-51395237D01*
X155104819Y-51395237D02*
X155104819Y-51204761D01*
X155104819Y-51204761D02*
X155057200Y-51109523D01*
X155057200Y-51109523D02*
X155009580Y-51061904D01*
X155009580Y-51061904D02*
X154914342Y-51014285D01*
X154914342Y-51014285D02*
X154676247Y-51014285D01*
X154676247Y-51014285D02*
X154581009Y-51061904D01*
X154581009Y-51061904D02*
X154533390Y-51109523D01*
X154533390Y-51109523D02*
X154485771Y-51204761D01*
X154485771Y-51204761D02*
X154485771Y-51395237D01*
X154485771Y-51395237D02*
X154533390Y-51490475D01*
X154533390Y-51490475D02*
X154581009Y-51538094D01*
X154581009Y-51538094D02*
X154676247Y-51585713D01*
X149304819Y-50095238D02*
X149304819Y-50666666D01*
X149304819Y-50380952D02*
X148304819Y-50380952D01*
X148304819Y-50380952D02*
X148447676Y-50476190D01*
X148447676Y-50476190D02*
X148542914Y-50571428D01*
X148542914Y-50571428D02*
X148590533Y-50666666D01*
X148638152Y-49238095D02*
X149304819Y-49238095D01*
X148638152Y-49666666D02*
X149161961Y-49666666D01*
X149161961Y-49666666D02*
X149257200Y-49619047D01*
X149257200Y-49619047D02*
X149304819Y-49523809D01*
X149304819Y-49523809D02*
X149304819Y-49380952D01*
X149304819Y-49380952D02*
X149257200Y-49285714D01*
X149257200Y-49285714D02*
X149209580Y-49238095D01*
X148781009Y-48428571D02*
X148781009Y-48761904D01*
X149304819Y-48761904D02*
X148304819Y-48761904D01*
X148304819Y-48761904D02*
X148304819Y-48285714D01*
X161054819Y-55506666D02*
X160578628Y-55839999D01*
X161054819Y-56078094D02*
X160054819Y-56078094D01*
X160054819Y-56078094D02*
X160054819Y-55697142D01*
X160054819Y-55697142D02*
X160102438Y-55601904D01*
X160102438Y-55601904D02*
X160150057Y-55554285D01*
X160150057Y-55554285D02*
X160245295Y-55506666D01*
X160245295Y-55506666D02*
X160388152Y-55506666D01*
X160388152Y-55506666D02*
X160483390Y-55554285D01*
X160483390Y-55554285D02*
X160531009Y-55601904D01*
X160531009Y-55601904D02*
X160578628Y-55697142D01*
X160578628Y-55697142D02*
X160578628Y-56078094D01*
X161054819Y-54554285D02*
X161054819Y-55125713D01*
X161054819Y-54839999D02*
X160054819Y-54839999D01*
X160054819Y-54839999D02*
X160197676Y-54935237D01*
X160197676Y-54935237D02*
X160292914Y-55030475D01*
X160292914Y-55030475D02*
X160340533Y-55125713D01*
X161054819Y-49730476D02*
X161054819Y-50301904D01*
X161054819Y-50016190D02*
X160054819Y-50016190D01*
X160054819Y-50016190D02*
X160197676Y-50111428D01*
X160197676Y-50111428D02*
X160292914Y-50206666D01*
X160292914Y-50206666D02*
X160340533Y-50301904D01*
X161054819Y-49301904D02*
X160054819Y-49301904D01*
X161054819Y-48730476D02*
X160483390Y-49159047D01*
X160054819Y-48730476D02*
X160626247Y-49301904D01*
D12*
%TO.C,C8*%
X151260000Y-54440000D02*
X150029000Y-54440000D01*
X151260000Y-54480000D02*
X150033000Y-54480000D01*
X151260000Y-54520000D02*
X150038000Y-54520000D01*
X151260000Y-54560000D02*
X150044000Y-54560000D01*
X151260000Y-54600000D02*
X150050000Y-54600000D01*
X151260000Y-54640000D02*
X150058000Y-54640000D01*
X151260000Y-54680000D02*
X150066000Y-54680000D01*
X151260000Y-54720000D02*
X150075000Y-54720000D01*
X151260000Y-54760000D02*
X150084000Y-54760000D01*
X151260000Y-54800000D02*
X150095000Y-54800000D01*
X151260000Y-54840000D02*
X150106000Y-54840000D01*
X151260000Y-54880000D02*
X150118000Y-54880000D01*
X151260000Y-54920000D02*
X150132000Y-54920000D01*
X151260000Y-54961000D02*
X150146000Y-54961000D01*
X151260000Y-55001000D02*
X150160000Y-55001000D01*
X151260000Y-55041000D02*
X150176000Y-55041000D01*
X151260000Y-55081000D02*
X150193000Y-55081000D01*
X151260000Y-55121000D02*
X150211000Y-55121000D01*
X151260000Y-55161000D02*
X150230000Y-55161000D01*
X151260000Y-55201000D02*
X150249000Y-55201000D01*
X151260000Y-55241000D02*
X150270000Y-55241000D01*
X151260000Y-55281000D02*
X150292000Y-55281000D01*
X151260000Y-55321000D02*
X150315000Y-55321000D01*
X151260000Y-55361000D02*
X150340000Y-55361000D01*
X151260000Y-55401000D02*
X150365000Y-55401000D01*
X151260000Y-55441000D02*
X150392000Y-55441000D01*
X151260000Y-55481000D02*
X150420000Y-55481000D01*
X151260000Y-55521000D02*
X150450000Y-55521000D01*
X151260000Y-55561000D02*
X150481000Y-55561000D01*
X151260000Y-55601000D02*
X150513000Y-55601000D01*
X151260000Y-55641000D02*
X150548000Y-55641000D01*
X151260000Y-55681000D02*
X150584000Y-55681000D01*
X151260000Y-55721000D02*
X150622000Y-55721000D01*
X151260000Y-55761000D02*
X150662000Y-55761000D01*
X151260000Y-55801000D02*
X150704000Y-55801000D01*
X151260000Y-55841000D02*
X150749000Y-55841000D01*
X151260000Y-55881000D02*
X150796000Y-55881000D01*
X151260000Y-55921000D02*
X150846000Y-55921000D01*
X151260000Y-55961000D02*
X150900000Y-55961000D01*
X151260000Y-56001000D02*
X150958000Y-56001000D01*
X151260000Y-56041000D02*
X151020000Y-56041000D01*
X152470000Y-56321000D02*
X151730000Y-56321000D01*
X152637000Y-56281000D02*
X151563000Y-56281000D01*
X152764000Y-56241000D02*
X151436000Y-56241000D01*
X152868000Y-56201000D02*
X151332000Y-56201000D01*
X152959000Y-56161000D02*
X151241000Y-56161000D01*
X153040000Y-56121000D02*
X151160000Y-56121000D01*
X153113000Y-56081000D02*
X151087000Y-56081000D01*
X153180000Y-56041000D02*
X152940000Y-56041000D01*
X153242000Y-56001000D02*
X152940000Y-56001000D01*
X153295000Y-51970199D02*
X153295000Y-52370199D01*
X153300000Y-55961000D02*
X152940000Y-55961000D01*
X153354000Y-55921000D02*
X152940000Y-55921000D01*
X153404000Y-55881000D02*
X152940000Y-55881000D01*
X153451000Y-55841000D02*
X152940000Y-55841000D01*
X153495000Y-52170199D02*
X153095000Y-52170199D01*
X153496000Y-55801000D02*
X152940000Y-55801000D01*
X153538000Y-55761000D02*
X152940000Y-55761000D01*
X153578000Y-55721000D02*
X152940000Y-55721000D01*
X153616000Y-55681000D02*
X152940000Y-55681000D01*
X153652000Y-55641000D02*
X152940000Y-55641000D01*
X153687000Y-55601000D02*
X152940000Y-55601000D01*
X153719000Y-55561000D02*
X152940000Y-55561000D01*
X153750000Y-55521000D02*
X152940000Y-55521000D01*
X153780000Y-55481000D02*
X152940000Y-55481000D01*
X153808000Y-55441000D02*
X152940000Y-55441000D01*
X153835000Y-55401000D02*
X152940000Y-55401000D01*
X153860000Y-55361000D02*
X152940000Y-55361000D01*
X153885000Y-55321000D02*
X152940000Y-55321000D01*
X153908000Y-55281000D02*
X152940000Y-55281000D01*
X153930000Y-55241000D02*
X152940000Y-55241000D01*
X153951000Y-55201000D02*
X152940000Y-55201000D01*
X153970000Y-55161000D02*
X152940000Y-55161000D01*
X153989000Y-55121000D02*
X152940000Y-55121000D01*
X154007000Y-55081000D02*
X152940000Y-55081000D01*
X154024000Y-55041000D02*
X152940000Y-55041000D01*
X154040000Y-55001000D02*
X152940000Y-55001000D01*
X154054000Y-54961000D02*
X152940000Y-54961000D01*
X154068000Y-54920000D02*
X152940000Y-54920000D01*
X154082000Y-54880000D02*
X152940000Y-54880000D01*
X154094000Y-54840000D02*
X152940000Y-54840000D01*
X154105000Y-54800000D02*
X152940000Y-54800000D01*
X154116000Y-54760000D02*
X152940000Y-54760000D01*
X154125000Y-54720000D02*
X152940000Y-54720000D01*
X154134000Y-54680000D02*
X152940000Y-54680000D01*
X154142000Y-54640000D02*
X152940000Y-54640000D01*
X154150000Y-54600000D02*
X152940000Y-54600000D01*
X154156000Y-54560000D02*
X152940000Y-54560000D01*
X154162000Y-54520000D02*
X152940000Y-54520000D01*
X154167000Y-54480000D02*
X152940000Y-54480000D01*
X154171000Y-54440000D02*
X152940000Y-54440000D01*
X154174000Y-54400000D02*
X150026000Y-54400000D01*
X154177000Y-54360000D02*
X150023000Y-54360000D01*
X154179000Y-54320000D02*
X150021000Y-54320000D01*
X154180000Y-54240000D02*
X150020000Y-54240000D01*
X154180000Y-54280000D02*
X150020000Y-54280000D01*
X154220000Y-54240000D02*
G75*
G02*
X149980000Y-54240000I-2120000J0D01*
G01*
X149980000Y-54240000D02*
G75*
G02*
X154220000Y-54240000I2120000J0D01*
G01*
D13*
%TO.C,G1*%
G36*
X111288969Y-73226727D02*
G01*
X111299454Y-73226772D01*
X111337151Y-73227102D01*
X111367686Y-73227429D01*
X111392016Y-73227821D01*
X111411098Y-73228344D01*
X111425888Y-73229064D01*
X111437344Y-73230048D01*
X111446421Y-73231363D01*
X111454077Y-73233075D01*
X111461269Y-73235250D01*
X111468952Y-73237956D01*
X111471022Y-73238709D01*
X111499787Y-73250254D01*
X111523848Y-73262727D01*
X111546012Y-73277876D01*
X111569091Y-73297452D01*
X111576702Y-73304534D01*
X111613789Y-73342099D01*
X111644151Y-73378615D01*
X111668798Y-73415502D01*
X111688740Y-73454178D01*
X111696687Y-73473155D01*
X111702754Y-73488590D01*
X111708361Y-73502746D01*
X111711956Y-73511720D01*
X111715570Y-73520718D01*
X111717554Y-73525832D01*
X111717588Y-73525928D01*
X111719648Y-73531001D01*
X111720971Y-73534047D01*
X111722681Y-73538802D01*
X111726775Y-73550632D01*
X111733044Y-73568918D01*
X111741277Y-73593040D01*
X111751263Y-73622380D01*
X111762792Y-73656320D01*
X111775654Y-73694240D01*
X111789638Y-73735523D01*
X111804534Y-73779548D01*
X111818972Y-73822268D01*
X111835386Y-73870838D01*
X111851727Y-73919160D01*
X111867702Y-73966371D01*
X111883019Y-74011606D01*
X111897385Y-74054002D01*
X111910506Y-74092694D01*
X111922091Y-74126819D01*
X111931846Y-74155511D01*
X111939479Y-74177909D01*
X111943002Y-74188212D01*
X111956696Y-74229697D01*
X111967013Y-74264951D01*
X111974034Y-74295087D01*
X111977846Y-74321218D01*
X111978530Y-74344455D01*
X111976171Y-74365912D01*
X111970853Y-74386702D01*
X111962659Y-74407937D01*
X111959981Y-74413855D01*
X111948103Y-74432951D01*
X111930383Y-74453138D01*
X111908618Y-74472757D01*
X111884606Y-74490148D01*
X111865476Y-74501099D01*
X111855294Y-74506224D01*
X111846180Y-74510698D01*
X111837530Y-74514573D01*
X111828743Y-74517898D01*
X111819214Y-74520723D01*
X111808342Y-74523098D01*
X111795525Y-74525075D01*
X111780158Y-74526702D01*
X111761641Y-74528029D01*
X111739370Y-74529108D01*
X111712742Y-74529988D01*
X111681155Y-74530719D01*
X111644007Y-74531351D01*
X111600695Y-74531935D01*
X111550615Y-74532520D01*
X111493166Y-74533158D01*
X111478070Y-74533325D01*
X111439474Y-74533722D01*
X111393439Y-74534137D01*
X111340644Y-74534566D01*
X111281768Y-74535004D01*
X111217492Y-74535449D01*
X111148495Y-74535896D01*
X111075457Y-74536341D01*
X110999056Y-74536781D01*
X110919972Y-74537210D01*
X110838886Y-74537627D01*
X110756476Y-74538025D01*
X110673422Y-74538402D01*
X110590403Y-74538754D01*
X110508100Y-74539076D01*
X110451961Y-74539280D01*
X110356290Y-74539629D01*
X110268507Y-74539980D01*
X110188379Y-74540335D01*
X110115674Y-74540697D01*
X110050162Y-74541067D01*
X109991610Y-74541449D01*
X109939787Y-74541843D01*
X109894460Y-74542254D01*
X109855399Y-74542682D01*
X109822372Y-74543130D01*
X109795146Y-74543601D01*
X109773490Y-74544097D01*
X109757173Y-74544620D01*
X109745962Y-74545172D01*
X109739627Y-74545756D01*
X109737927Y-74546366D01*
X109739790Y-74550933D01*
X109743954Y-74562549D01*
X109750194Y-74580546D01*
X109758284Y-74604258D01*
X109767999Y-74633018D01*
X109779115Y-74666158D01*
X109791406Y-74703012D01*
X109804647Y-74742912D01*
X109818613Y-74785192D01*
X109821533Y-74794057D01*
X109901583Y-75037175D01*
X110675618Y-75035595D01*
X110768796Y-75035406D01*
X110854206Y-75035240D01*
X110932199Y-75035097D01*
X111003126Y-75034982D01*
X111067340Y-75034897D01*
X111125190Y-75034844D01*
X111177027Y-75034826D01*
X111223204Y-75034847D01*
X111264071Y-75034908D01*
X111299978Y-75035012D01*
X111331278Y-75035163D01*
X111358322Y-75035362D01*
X111381459Y-75035612D01*
X111401043Y-75035917D01*
X111417423Y-75036279D01*
X111430951Y-75036701D01*
X111441977Y-75037184D01*
X111450854Y-75037733D01*
X111457932Y-75038350D01*
X111463562Y-75039037D01*
X111468096Y-75039797D01*
X111471884Y-75040633D01*
X111475278Y-75041548D01*
X111476040Y-75041770D01*
X111512892Y-75055286D01*
X111547599Y-75073879D01*
X111581758Y-75098519D01*
X111609372Y-75122867D01*
X111627396Y-75142406D01*
X111645444Y-75167103D01*
X111663818Y-75197505D01*
X111682817Y-75234156D01*
X111702744Y-75277601D01*
X111723898Y-75328387D01*
X111727105Y-75336444D01*
X111736771Y-75360663D01*
X111746192Y-75383920D01*
X111754662Y-75404505D01*
X111761481Y-75420706D01*
X111765479Y-75429812D01*
X111771370Y-75443180D01*
X111779050Y-75461346D01*
X111787362Y-75481542D01*
X111792679Y-75494763D01*
X111799863Y-75512354D01*
X111806344Y-75527381D01*
X111811341Y-75538086D01*
X111813833Y-75542461D01*
X111816154Y-75546801D01*
X111815408Y-75547536D01*
X111815327Y-75550417D01*
X111818573Y-75556670D01*
X111821546Y-75562743D01*
X111827143Y-75575512D01*
X111835020Y-75594115D01*
X111844829Y-75617691D01*
X111856226Y-75645379D01*
X111868864Y-75676319D01*
X111882397Y-75709649D01*
X111896480Y-75744508D01*
X111910767Y-75780036D01*
X111924911Y-75815372D01*
X111938568Y-75849654D01*
X111951391Y-75882022D01*
X111963034Y-75911614D01*
X111973151Y-75937571D01*
X111981397Y-75959031D01*
X111987426Y-75975132D01*
X111990892Y-75985015D01*
X111991514Y-75987163D01*
X111995148Y-76011906D01*
X111995780Y-76039186D01*
X111993563Y-76065981D01*
X111988649Y-76089268D01*
X111985986Y-76096865D01*
X111969690Y-76126266D01*
X111946560Y-76151790D01*
X111917083Y-76173067D01*
X111881747Y-76189726D01*
X111851539Y-76199004D01*
X111841585Y-76200724D01*
X111826078Y-76202319D01*
X111804843Y-76203790D01*
X111777708Y-76205141D01*
X111744498Y-76206374D01*
X111705039Y-76207493D01*
X111659158Y-76208498D01*
X111606681Y-76209394D01*
X111547434Y-76210184D01*
X111481244Y-76210869D01*
X111407936Y-76211452D01*
X111327337Y-76211936D01*
X111239272Y-76212325D01*
X111143569Y-76212620D01*
X111040054Y-76212824D01*
X110956070Y-76212920D01*
X110894630Y-76212995D01*
X110834108Y-76213115D01*
X110775165Y-76213276D01*
X110718460Y-76213476D01*
X110664655Y-76213709D01*
X110614410Y-76213973D01*
X110568385Y-76214264D01*
X110527242Y-76214577D01*
X110491641Y-76214909D01*
X110462242Y-76215256D01*
X110439706Y-76215615D01*
X110425825Y-76215945D01*
X110340451Y-76218604D01*
X110392683Y-76375278D01*
X110404095Y-76409463D01*
X110414779Y-76441372D01*
X110424447Y-76470154D01*
X110432811Y-76494957D01*
X110439585Y-76514931D01*
X110444481Y-76529224D01*
X110447212Y-76536986D01*
X110447621Y-76538042D01*
X110450518Y-76545181D01*
X110451185Y-76547176D01*
X110453058Y-76552250D01*
X110454914Y-76557672D01*
X110455087Y-76558340D01*
X110456972Y-76565072D01*
X110457090Y-76565444D01*
X110457598Y-76571533D01*
X110460246Y-76574428D01*
X110461611Y-76574577D01*
X110464325Y-76577530D01*
X110463768Y-76580667D01*
X110463887Y-76585883D01*
X110465798Y-76586756D01*
X110468458Y-76589692D01*
X110467928Y-76592583D01*
X110467663Y-76598400D01*
X110468911Y-76599687D01*
X110470733Y-76603661D01*
X110474882Y-76614679D01*
X110481129Y-76632080D01*
X110489245Y-76655201D01*
X110499001Y-76683382D01*
X110510168Y-76715959D01*
X110522517Y-76752272D01*
X110535819Y-76791659D01*
X110549846Y-76833457D01*
X110551513Y-76838442D01*
X110575379Y-76909821D01*
X110598677Y-76979464D01*
X110621269Y-77046965D01*
X110643021Y-77111917D01*
X110663794Y-77173916D01*
X110683454Y-77232555D01*
X110701863Y-77287428D01*
X110718885Y-77338128D01*
X110734385Y-77384250D01*
X110748224Y-77425388D01*
X110760268Y-77461136D01*
X110770379Y-77491087D01*
X110778422Y-77514836D01*
X110784260Y-77531976D01*
X110787756Y-77542102D01*
X110788733Y-77544787D01*
X110791410Y-77551291D01*
X110792022Y-77552906D01*
X110793934Y-77558055D01*
X110795071Y-77561025D01*
X110797726Y-77568418D01*
X110801689Y-77579974D01*
X110803503Y-77585381D01*
X110807970Y-77598496D01*
X110813937Y-77615636D01*
X110820147Y-77633190D01*
X110820412Y-77633933D01*
X110834365Y-77678952D01*
X110844601Y-77724732D01*
X110850611Y-77768653D01*
X110852032Y-77796968D01*
X110851984Y-77817039D01*
X110851232Y-77831366D01*
X110849387Y-77842321D01*
X110846055Y-77852272D01*
X110841117Y-77863038D01*
X110833330Y-77877561D01*
X110825054Y-77890885D01*
X110820023Y-77897713D01*
X110804946Y-77911128D01*
X110783085Y-77924188D01*
X110755767Y-77936197D01*
X110730599Y-77944661D01*
X110721685Y-77947241D01*
X110713426Y-77949386D01*
X110704954Y-77951155D01*
X110695403Y-77952607D01*
X110683906Y-77953800D01*
X110669596Y-77954793D01*
X110651607Y-77955644D01*
X110629071Y-77956413D01*
X110601123Y-77957158D01*
X110566894Y-77957938D01*
X110525519Y-77958811D01*
X110520039Y-77958925D01*
X110501891Y-77959229D01*
X110475987Y-77959554D01*
X110442692Y-77959898D01*
X110402367Y-77960258D01*
X110355377Y-77960633D01*
X110302085Y-77961020D01*
X110242854Y-77961419D01*
X110178047Y-77961826D01*
X110108028Y-77962240D01*
X110033160Y-77962659D01*
X109953806Y-77963080D01*
X109870330Y-77963503D01*
X109783095Y-77963925D01*
X109692464Y-77964343D01*
X109598801Y-77964757D01*
X109502469Y-77965164D01*
X109403831Y-77965562D01*
X109303251Y-77965949D01*
X109201091Y-77966323D01*
X109097716Y-77966683D01*
X109060665Y-77966807D01*
X108954051Y-77967162D01*
X108847108Y-77967522D01*
X108740280Y-77967884D01*
X108634014Y-77968246D01*
X108528755Y-77968608D01*
X108424951Y-77968968D01*
X108323047Y-77969324D01*
X108223488Y-77969674D01*
X108126722Y-77970018D01*
X108033193Y-77970352D01*
X107943349Y-77970677D01*
X107857634Y-77970989D01*
X107776496Y-77971288D01*
X107700379Y-77971572D01*
X107629731Y-77971839D01*
X107564997Y-77972088D01*
X107506623Y-77972317D01*
X107455055Y-77972524D01*
X107410740Y-77972708D01*
X107375992Y-77972859D01*
X107316521Y-77973087D01*
X107259507Y-77973230D01*
X107205505Y-77973290D01*
X107155068Y-77973271D01*
X107108753Y-77973174D01*
X107067112Y-77973002D01*
X107030702Y-77972757D01*
X107000076Y-77972441D01*
X106975789Y-77972058D01*
X106958396Y-77971610D01*
X106948451Y-77971098D01*
X106947367Y-77970984D01*
X106901060Y-77962093D01*
X106852331Y-77947340D01*
X106803241Y-77927632D01*
X106755850Y-77903878D01*
X106712221Y-77876982D01*
X106681825Y-77854157D01*
X106639538Y-77816476D01*
X106602168Y-77777047D01*
X106567280Y-77733210D01*
X106554245Y-77714957D01*
X106541152Y-77695672D01*
X106529704Y-77677586D01*
X106519355Y-77659522D01*
X106509559Y-77640307D01*
X106499769Y-77618763D01*
X106489439Y-77593716D01*
X106478023Y-77563990D01*
X106464975Y-77528409D01*
X106456288Y-77504192D01*
X106444046Y-77469863D01*
X106430259Y-77431189D01*
X106415932Y-77390987D01*
X106402068Y-77352074D01*
X106389671Y-77317268D01*
X106386848Y-77309339D01*
X106377428Y-77282886D01*
X106368863Y-77258839D01*
X106361543Y-77238296D01*
X106355861Y-77222358D01*
X106352209Y-77212124D01*
X106351027Y-77208824D01*
X106349669Y-77203498D01*
X106349747Y-77202735D01*
X106348437Y-77198922D01*
X106344706Y-77191614D01*
X106340467Y-77183598D01*
X106338595Y-77179436D01*
X106336741Y-77174358D01*
X106335471Y-77171317D01*
X106334898Y-77169903D01*
X106333928Y-77167352D01*
X106332433Y-77163301D01*
X106330281Y-77157386D01*
X106327346Y-77149244D01*
X106323496Y-77138513D01*
X106318603Y-77124829D01*
X106312538Y-77107829D01*
X106305172Y-77087150D01*
X106296374Y-77062429D01*
X106286017Y-77033303D01*
X106273971Y-76999408D01*
X106260106Y-76960382D01*
X106244294Y-76915862D01*
X106226404Y-76865483D01*
X106206309Y-76808884D01*
X106183879Y-76745701D01*
X106158983Y-76675571D01*
X106133221Y-76602994D01*
X106116786Y-76556542D01*
X106100881Y-76511303D01*
X106085763Y-76468019D01*
X106071685Y-76427434D01*
X106058903Y-76390289D01*
X106047671Y-76357328D01*
X106038244Y-76329293D01*
X106030878Y-76306927D01*
X106025826Y-76290972D01*
X106023886Y-76284327D01*
X106016596Y-76256343D01*
X106012604Y-76239711D01*
X107579828Y-76239711D01*
X107580534Y-76243819D01*
X107583478Y-76254653D01*
X107588347Y-76271228D01*
X107594826Y-76292564D01*
X107602602Y-76317677D01*
X107611359Y-76345586D01*
X107620784Y-76375308D01*
X107630562Y-76405861D01*
X107640378Y-76436263D01*
X107649919Y-76465531D01*
X107658870Y-76492684D01*
X107666917Y-76516738D01*
X107673746Y-76536711D01*
X107679041Y-76551622D01*
X107682438Y-76560369D01*
X107685228Y-76567867D01*
X107689951Y-76581751D01*
X107696155Y-76600648D01*
X107703392Y-76623184D01*
X107711211Y-76647983D01*
X107713006Y-76653737D01*
X107738272Y-76734926D01*
X108234046Y-76733697D01*
X108299964Y-76733513D01*
X108365685Y-76733288D01*
X108430518Y-76733027D01*
X108493770Y-76732735D01*
X108554747Y-76732416D01*
X108612756Y-76732075D01*
X108667106Y-76731715D01*
X108717102Y-76731342D01*
X108762052Y-76730960D01*
X108801264Y-76730573D01*
X108834043Y-76730185D01*
X108859698Y-76729802D01*
X108868458Y-76729638D01*
X109007096Y-76726807D01*
X108929465Y-76480232D01*
X108851835Y-76233658D01*
X108216415Y-76236214D01*
X108145244Y-76236506D01*
X108076298Y-76236801D01*
X108010013Y-76237095D01*
X107946825Y-76237387D01*
X107887168Y-76237675D01*
X107831479Y-76237955D01*
X107780193Y-76238225D01*
X107733745Y-76238484D01*
X107692570Y-76238728D01*
X107657105Y-76238955D01*
X107627784Y-76239164D01*
X107605044Y-76239350D01*
X107589318Y-76239513D01*
X107581044Y-76239650D01*
X107579828Y-76239711D01*
X106012604Y-76239711D01*
X106010483Y-76230875D01*
X106005773Y-76209029D01*
X106002693Y-76191916D01*
X106001470Y-76180644D01*
X106001929Y-76176651D01*
X106001192Y-76171786D01*
X105999903Y-76170703D01*
X105998155Y-76165687D01*
X105996814Y-76153908D01*
X105995990Y-76136713D01*
X105995778Y-76120244D01*
X105997694Y-76078277D01*
X106003166Y-76037091D01*
X106011784Y-75998938D01*
X106023134Y-75966073D01*
X106024558Y-75962818D01*
X106030447Y-75948927D01*
X106034680Y-75937482D01*
X106036370Y-75930891D01*
X106036372Y-75930776D01*
X106038690Y-75925621D01*
X106040432Y-75925065D01*
X106044081Y-75921798D01*
X106044491Y-75919266D01*
X106047103Y-75911456D01*
X106049586Y-75908102D01*
X106054354Y-75902157D01*
X106061976Y-75891703D01*
X106070812Y-75878994D01*
X106070898Y-75878868D01*
X106090067Y-75855112D01*
X106115018Y-75830896D01*
X106143708Y-75807931D01*
X106174095Y-75787925D01*
X106190010Y-75779197D01*
X106199900Y-75773787D01*
X106205620Y-75769889D01*
X106206245Y-75768828D01*
X106201965Y-75767738D01*
X106191038Y-75765629D01*
X106174836Y-75762750D01*
X106154734Y-75759345D01*
X106139885Y-75756912D01*
X106115828Y-75752759D01*
X106092738Y-75748305D01*
X106072639Y-75743973D01*
X106057557Y-75740186D01*
X106052610Y-75738657D01*
X106034947Y-75732720D01*
X106015812Y-75726566D01*
X106007956Y-75724137D01*
X105977560Y-75712528D01*
X105944226Y-75695684D01*
X105909898Y-75674856D01*
X105876524Y-75651293D01*
X105846051Y-75626246D01*
X105826809Y-75607798D01*
X105809074Y-75587663D01*
X105790166Y-75563235D01*
X105771670Y-75536816D01*
X105755168Y-75510708D01*
X105742244Y-75487212D01*
X105738751Y-75479790D01*
X105734798Y-75469919D01*
X105728694Y-75453451D01*
X105720830Y-75431499D01*
X105711598Y-75405175D01*
X105701389Y-75375592D01*
X105690594Y-75343863D01*
X105683066Y-75321471D01*
X105672568Y-75290098D01*
X105662865Y-75261125D01*
X105654263Y-75235462D01*
X105647069Y-75214022D01*
X105641588Y-75197719D01*
X105638128Y-75187463D01*
X105637015Y-75184215D01*
X105635386Y-75177066D01*
X105635350Y-75176550D01*
X105632226Y-75171247D01*
X105631137Y-75170445D01*
X105629251Y-75166299D01*
X105624992Y-75155026D01*
X105618561Y-75137201D01*
X105610154Y-75113398D01*
X105599973Y-75084192D01*
X105588214Y-75050158D01*
X105575077Y-75011870D01*
X105560762Y-74969902D01*
X105545466Y-74924829D01*
X105529389Y-74877225D01*
X105520673Y-74851324D01*
X105503575Y-74800516D01*
X105486669Y-74750396D01*
X105470212Y-74701719D01*
X105454462Y-74655244D01*
X105439676Y-74611726D01*
X105426112Y-74571924D01*
X105421594Y-74558713D01*
X106925106Y-74558713D01*
X106928790Y-74564701D01*
X106929218Y-74566120D01*
X106929280Y-74566736D01*
X106929337Y-74567269D01*
X106929589Y-74568340D01*
X106930237Y-74570567D01*
X106931480Y-74574572D01*
X106933519Y-74580973D01*
X106936553Y-74590391D01*
X106940783Y-74603445D01*
X106946408Y-74620756D01*
X106953630Y-74642943D01*
X106962648Y-74670626D01*
X106973662Y-74704424D01*
X106986872Y-74744958D01*
X106995743Y-74772180D01*
X107008626Y-74811724D01*
X107021181Y-74850281D01*
X107033096Y-74886890D01*
X107044057Y-74920592D01*
X107053754Y-74950425D01*
X107061873Y-74975430D01*
X107068103Y-74994646D01*
X107072132Y-75007114D01*
X107072161Y-75007206D01*
X107085741Y-75049408D01*
X107716986Y-75046441D01*
X107787919Y-75046101D01*
X107856625Y-75045757D01*
X107922667Y-75045413D01*
X107985607Y-75045072D01*
X108045010Y-75044735D01*
X108100439Y-75044407D01*
X108151456Y-75044090D01*
X108197624Y-75043786D01*
X108238507Y-75043499D01*
X108273668Y-75043232D01*
X108302670Y-75042987D01*
X108325076Y-75042766D01*
X108340449Y-75042574D01*
X108348353Y-75042413D01*
X108349366Y-75042346D01*
X108348452Y-75038354D01*
X108345338Y-75027535D01*
X108340300Y-75010794D01*
X108333617Y-74989036D01*
X108325565Y-74963166D01*
X108316422Y-74934088D01*
X108309350Y-74911773D01*
X108297141Y-74873347D01*
X108283609Y-74830729D01*
X108269511Y-74786299D01*
X108255602Y-74742439D01*
X108242636Y-74701529D01*
X108231370Y-74665950D01*
X108231265Y-74665620D01*
X108194330Y-74548910D01*
X107938405Y-74548913D01*
X107863550Y-74548952D01*
X107788627Y-74549064D01*
X107714070Y-74549246D01*
X107640317Y-74549493D01*
X107567803Y-74549802D01*
X107496965Y-74550167D01*
X107428239Y-74550584D01*
X107362062Y-74551050D01*
X107298868Y-74551560D01*
X107239095Y-74552110D01*
X107183179Y-74552696D01*
X107131556Y-74553313D01*
X107084662Y-74553957D01*
X107042932Y-74554625D01*
X107006805Y-74555311D01*
X106976715Y-74556012D01*
X106953098Y-74556723D01*
X106936392Y-74557440D01*
X106927032Y-74558159D01*
X106925106Y-74558713D01*
X105421594Y-74558713D01*
X105414029Y-74536593D01*
X105403682Y-74506490D01*
X105395331Y-74482373D01*
X105389232Y-74464998D01*
X105388031Y-74461632D01*
X105379110Y-74436612D01*
X105368306Y-74406049D01*
X105356366Y-74372077D01*
X105344041Y-74336833D01*
X105332080Y-74302451D01*
X105325407Y-74283174D01*
X105315683Y-74255281D01*
X105306621Y-74229777D01*
X105298608Y-74207712D01*
X105292031Y-74190134D01*
X105287274Y-74178093D01*
X105284726Y-74172636D01*
X105284663Y-74172554D01*
X105282405Y-74168134D01*
X105283344Y-74167322D01*
X105283709Y-74164824D01*
X105281314Y-74161232D01*
X105278480Y-74156323D01*
X105279284Y-74155143D01*
X105279979Y-74152640D01*
X105278438Y-74150069D01*
X105275497Y-74144029D01*
X105270657Y-74131663D01*
X105264405Y-74114407D01*
X105257226Y-74093696D01*
X105249604Y-74070965D01*
X105242028Y-74047649D01*
X105234981Y-74025183D01*
X105228950Y-74005003D01*
X105226899Y-73997778D01*
X105221380Y-73974492D01*
X105216061Y-73945906D01*
X105211313Y-73914706D01*
X105207510Y-73883580D01*
X105205024Y-73855214D01*
X105204221Y-73834278D01*
X105205024Y-73815319D01*
X105207267Y-73790830D01*
X105210623Y-73763203D01*
X105214768Y-73734833D01*
X105219376Y-73708113D01*
X105224120Y-73685438D01*
X105224902Y-73682217D01*
X105241276Y-73629292D01*
X105263959Y-73575329D01*
X105291865Y-73522641D01*
X105320564Y-73478203D01*
X105359118Y-73430712D01*
X105404027Y-73387443D01*
X105454396Y-73348963D01*
X105509329Y-73315844D01*
X105567930Y-73288653D01*
X105629305Y-73267961D01*
X105664855Y-73259361D01*
X105713646Y-73249223D01*
X108435509Y-73237395D01*
X108584920Y-73236748D01*
X108732710Y-73236114D01*
X108878653Y-73235493D01*
X109022526Y-73234886D01*
X109164103Y-73234294D01*
X109303160Y-73233718D01*
X109439471Y-73233158D01*
X109572814Y-73232616D01*
X109702961Y-73232092D01*
X109829689Y-73231587D01*
X109952774Y-73231102D01*
X110071989Y-73230638D01*
X110187112Y-73230195D01*
X110297915Y-73229775D01*
X110404177Y-73229378D01*
X110505670Y-73229005D01*
X110602171Y-73228657D01*
X110693455Y-73228335D01*
X110779297Y-73228039D01*
X110859472Y-73227771D01*
X110933756Y-73227531D01*
X111001923Y-73227320D01*
X111063750Y-73227138D01*
X111119012Y-73226988D01*
X111167483Y-73226869D01*
X111208939Y-73226783D01*
X111243155Y-73226730D01*
X111269907Y-73226711D01*
X111288969Y-73226727D01*
G37*
D14*
%TO.C,J1*%
X80700000Y-52975000D02*
X96200000Y-52975000D01*
X80700000Y-72975000D02*
X80700000Y-52975000D01*
X96200000Y-52975000D02*
X96200000Y-56525000D01*
X96200000Y-59475000D02*
X96200000Y-66475000D01*
X96200000Y-69425000D02*
X96200000Y-72975000D01*
X96200000Y-72975000D02*
X80700000Y-72975000D01*
D12*
%TO.C,J2*%
X162500000Y-54855000D02*
X175500000Y-54855000D01*
X162500000Y-71055000D02*
X162500000Y-54855000D01*
X162500000Y-71055000D02*
X175500000Y-71055000D01*
X175500000Y-71055000D02*
X175500000Y-54855000D01*
%TO.C,R2*%
X99620000Y-55350000D02*
X100570000Y-55350000D01*
X100570000Y-54430000D02*
X100570000Y-56270000D01*
X100570000Y-56270000D02*
X104410000Y-56270000D01*
X104410000Y-54430000D02*
X100570000Y-54430000D01*
X104410000Y-56270000D02*
X104410000Y-54430000D01*
X105360000Y-55350000D02*
X104410000Y-55350000D01*
%TO.C,R4*%
X157530000Y-53410000D02*
X157530000Y-57250000D01*
X157530000Y-57250000D02*
X159370000Y-57250000D01*
X158450000Y-52460000D02*
X158450000Y-53410000D01*
X158450000Y-58200000D02*
X158450000Y-57250000D01*
X159370000Y-53410000D02*
X157530000Y-53410000D01*
X159370000Y-57250000D02*
X159370000Y-53410000D01*
%TO.C,C7*%
X143330000Y-49700000D02*
X142099000Y-49700000D01*
X143330000Y-49740000D02*
X142103000Y-49740000D01*
X143330000Y-49780000D02*
X142108000Y-49780000D01*
X143330000Y-49820000D02*
X142114000Y-49820000D01*
X143330000Y-49860000D02*
X142120000Y-49860000D01*
X143330000Y-49900000D02*
X142128000Y-49900000D01*
X143330000Y-49940000D02*
X142136000Y-49940000D01*
X143330000Y-49980000D02*
X142145000Y-49980000D01*
X143330000Y-50020000D02*
X142154000Y-50020000D01*
X143330000Y-50060000D02*
X142165000Y-50060000D01*
X143330000Y-50100000D02*
X142176000Y-50100000D01*
X143330000Y-50140000D02*
X142188000Y-50140000D01*
X143330000Y-50180000D02*
X142202000Y-50180000D01*
X143330000Y-50221000D02*
X142216000Y-50221000D01*
X143330000Y-50261000D02*
X142230000Y-50261000D01*
X143330000Y-50301000D02*
X142246000Y-50301000D01*
X143330000Y-50341000D02*
X142263000Y-50341000D01*
X143330000Y-50381000D02*
X142281000Y-50381000D01*
X143330000Y-50421000D02*
X142300000Y-50421000D01*
X143330000Y-50461000D02*
X142319000Y-50461000D01*
X143330000Y-50501000D02*
X142340000Y-50501000D01*
X143330000Y-50541000D02*
X142362000Y-50541000D01*
X143330000Y-50581000D02*
X142385000Y-50581000D01*
X143330000Y-50621000D02*
X142410000Y-50621000D01*
X143330000Y-50661000D02*
X142435000Y-50661000D01*
X143330000Y-50701000D02*
X142462000Y-50701000D01*
X143330000Y-50741000D02*
X142490000Y-50741000D01*
X143330000Y-50781000D02*
X142520000Y-50781000D01*
X143330000Y-50821000D02*
X142551000Y-50821000D01*
X143330000Y-50861000D02*
X142583000Y-50861000D01*
X143330000Y-50901000D02*
X142618000Y-50901000D01*
X143330000Y-50941000D02*
X142654000Y-50941000D01*
X143330000Y-50981000D02*
X142692000Y-50981000D01*
X143330000Y-51021000D02*
X142732000Y-51021000D01*
X143330000Y-51061000D02*
X142774000Y-51061000D01*
X143330000Y-51101000D02*
X142819000Y-51101000D01*
X143330000Y-51141000D02*
X142866000Y-51141000D01*
X143330000Y-51181000D02*
X142916000Y-51181000D01*
X143330000Y-51221000D02*
X142970000Y-51221000D01*
X143330000Y-51261000D02*
X143028000Y-51261000D01*
X143330000Y-51301000D02*
X143090000Y-51301000D01*
X144540000Y-51581000D02*
X143800000Y-51581000D01*
X144707000Y-51541000D02*
X143633000Y-51541000D01*
X144834000Y-51501000D02*
X143506000Y-51501000D01*
X144938000Y-51461000D02*
X143402000Y-51461000D01*
X145029000Y-51421000D02*
X143311000Y-51421000D01*
X145110000Y-51381000D02*
X143230000Y-51381000D01*
X145183000Y-51341000D02*
X143157000Y-51341000D01*
X145250000Y-51301000D02*
X145010000Y-51301000D01*
X145312000Y-51261000D02*
X145010000Y-51261000D01*
X145365000Y-47230199D02*
X145365000Y-47630199D01*
X145370000Y-51221000D02*
X145010000Y-51221000D01*
X145424000Y-51181000D02*
X145010000Y-51181000D01*
X145474000Y-51141000D02*
X145010000Y-51141000D01*
X145521000Y-51101000D02*
X145010000Y-51101000D01*
X145565000Y-47430199D02*
X145165000Y-47430199D01*
X145566000Y-51061000D02*
X145010000Y-51061000D01*
X145608000Y-51021000D02*
X145010000Y-51021000D01*
X145648000Y-50981000D02*
X145010000Y-50981000D01*
X145686000Y-50941000D02*
X145010000Y-50941000D01*
X145722000Y-50901000D02*
X145010000Y-50901000D01*
X145757000Y-50861000D02*
X145010000Y-50861000D01*
X145789000Y-50821000D02*
X145010000Y-50821000D01*
X145820000Y-50781000D02*
X145010000Y-50781000D01*
X145850000Y-50741000D02*
X145010000Y-50741000D01*
X145878000Y-50701000D02*
X145010000Y-50701000D01*
X145905000Y-50661000D02*
X145010000Y-50661000D01*
X145930000Y-50621000D02*
X145010000Y-50621000D01*
X145955000Y-50581000D02*
X145010000Y-50581000D01*
X145978000Y-50541000D02*
X145010000Y-50541000D01*
X146000000Y-50501000D02*
X145010000Y-50501000D01*
X146021000Y-50461000D02*
X145010000Y-50461000D01*
X146040000Y-50421000D02*
X145010000Y-50421000D01*
X146059000Y-50381000D02*
X145010000Y-50381000D01*
X146077000Y-50341000D02*
X145010000Y-50341000D01*
X146094000Y-50301000D02*
X145010000Y-50301000D01*
X146110000Y-50261000D02*
X145010000Y-50261000D01*
X146124000Y-50221000D02*
X145010000Y-50221000D01*
X146138000Y-50180000D02*
X145010000Y-50180000D01*
X146152000Y-50140000D02*
X145010000Y-50140000D01*
X146164000Y-50100000D02*
X145010000Y-50100000D01*
X146175000Y-50060000D02*
X145010000Y-50060000D01*
X146186000Y-50020000D02*
X145010000Y-50020000D01*
X146195000Y-49980000D02*
X145010000Y-49980000D01*
X146204000Y-49940000D02*
X145010000Y-49940000D01*
X146212000Y-49900000D02*
X145010000Y-49900000D01*
X146220000Y-49860000D02*
X145010000Y-49860000D01*
X146226000Y-49820000D02*
X145010000Y-49820000D01*
X146232000Y-49780000D02*
X145010000Y-49780000D01*
X146237000Y-49740000D02*
X145010000Y-49740000D01*
X146241000Y-49700000D02*
X145010000Y-49700000D01*
X146244000Y-49660000D02*
X142096000Y-49660000D01*
X146247000Y-49620000D02*
X142093000Y-49620000D01*
X146249000Y-49580000D02*
X142091000Y-49580000D01*
X146250000Y-49500000D02*
X142090000Y-49500000D01*
X146250000Y-49540000D02*
X142090000Y-49540000D01*
X146290000Y-49500000D02*
G75*
G02*
X142050000Y-49500000I-2120000J0D01*
G01*
X142050000Y-49500000D02*
G75*
G02*
X146290000Y-49500000I2120000J0D01*
G01*
%TO.C,R5*%
X155380000Y-53410000D02*
X155380000Y-57250000D01*
X155380000Y-57250000D02*
X157220000Y-57250000D01*
X156300000Y-52460000D02*
X156300000Y-53410000D01*
X156300000Y-58200000D02*
X156300000Y-57250000D01*
X157220000Y-53410000D02*
X155380000Y-53410000D01*
X157220000Y-57250000D02*
X157220000Y-53410000D01*
%TO.C,J4*%
X142800000Y-59780000D02*
X142800000Y-58450000D01*
X144130000Y-59780000D02*
X142800000Y-59780000D01*
X145400000Y-57120000D02*
X153080000Y-57120000D01*
X145400000Y-59780000D02*
X145400000Y-57120000D01*
X145400000Y-59780000D02*
X153080000Y-59780000D01*
X153080000Y-59780000D02*
X153080000Y-57120000D01*
%TO.C,D1*%
X164164000Y-52170000D02*
X164320000Y-52170000D01*
X166480000Y-52170000D02*
X166636000Y-52170000D01*
X164164485Y-52169999D02*
G75*
G02*
X164321392Y-48937666I1235515J1559999D01*
G01*
X164320001Y-51650960D02*
G75*
G02*
X164320164Y-49568871I1079999J1040960D01*
G01*
X166478608Y-48937666D02*
G75*
G02*
X166635515Y-52169999I-1078608J-1672334D01*
G01*
X166479836Y-49568871D02*
G75*
G02*
X166479999Y-51650960I-1079836J-1041129D01*
G01*
%TO.C,C4*%
X114830000Y-50890000D02*
X114830000Y-55430000D01*
X114845000Y-50890000D02*
X114830000Y-50890000D01*
X114845000Y-55430000D02*
X114830000Y-55430000D01*
X116970000Y-50890000D02*
X116955000Y-50890000D01*
X116970000Y-50890000D02*
X116970000Y-55430000D01*
X116970000Y-55430000D02*
X116955000Y-55430000D01*
%TO.C,R3*%
X107030000Y-57550000D02*
X107980000Y-57550000D01*
X107980000Y-56630000D02*
X107980000Y-58470000D01*
X107980000Y-58470000D02*
X111820000Y-58470000D01*
X111820000Y-56630000D02*
X107980000Y-56630000D01*
X111820000Y-58470000D02*
X111820000Y-56630000D01*
X112770000Y-57550000D02*
X111820000Y-57550000D01*
%TO.C,Q1*%
X107490000Y-53100000D02*
X111090000Y-53100000D01*
X106933601Y-50151193D02*
G75*
G02*
X109290000Y-48650001I2356399J-1098807D01*
G01*
X107490001Y-53099999D02*
G75*
G02*
X106965817Y-52372795I1799999J1849999D01*
G01*
X109290000Y-48650000D02*
G75*
G02*
X111646400Y-50151193I0J-2600000D01*
G01*
X111614183Y-52372795D02*
G75*
G02*
X111089999Y-53099999I-2324183J1122795D01*
G01*
%TO.C,J3*%
X89130000Y-48600000D02*
X89130000Y-51260000D01*
X91730000Y-48600000D02*
X89130000Y-48600000D01*
X91730000Y-48600000D02*
X91730000Y-51260000D01*
X91730000Y-51260000D02*
X89130000Y-51260000D01*
X93000000Y-48600000D02*
X94330000Y-48600000D01*
X94330000Y-48600000D02*
X94330000Y-49930000D01*
%TO.C,BZ1*%
X111500000Y-65900000D02*
G75*
G02*
X99300000Y-65900000I-6100000J0D01*
G01*
X99300000Y-65900000D02*
G75*
G02*
X111500000Y-65900000I6100000J0D01*
G01*
%TO.C,U1*%
X112960000Y-60520000D02*
X112960000Y-78560000D01*
X112960000Y-78560000D02*
X115630000Y-78560000D01*
X115630000Y-63190000D02*
X115630000Y-60520000D01*
X115630000Y-63190000D02*
X153730000Y-63190000D01*
X115630000Y-75890000D02*
X115630000Y-78560000D01*
X118170000Y-75890000D02*
X115630000Y-75890000D01*
X118170000Y-75890000D02*
X118170000Y-78560000D01*
X118170000Y-75890000D02*
X153730000Y-75890000D01*
X118170000Y-78560000D02*
X156400000Y-78560000D01*
D10*
X148650000Y-65730000D02*
X158810000Y-65730000D01*
X148650000Y-73350000D02*
X148650000Y-65730000D01*
D12*
X153730000Y-63190000D02*
X153730000Y-60520000D01*
X153730000Y-75890000D02*
X153730000Y-78560000D01*
X156400000Y-60520000D02*
X112960000Y-60520000D01*
X156400000Y-78560000D02*
X156400000Y-60520000D01*
D10*
X158810000Y-65730000D02*
X158810000Y-73350000D01*
X158810000Y-73350000D02*
X148650000Y-73350000D01*
D12*
%TO.C,C1*%
X97565225Y-48785000D02*
X98065225Y-48785000D01*
X97815225Y-48535000D02*
X97815225Y-49035000D01*
X100370000Y-47680000D02*
X100370000Y-49220000D01*
X100370000Y-51300000D02*
X100370000Y-52840000D01*
X100410000Y-47680000D02*
X100410000Y-49220000D01*
X100410000Y-51300000D02*
X100410000Y-52840000D01*
X100450000Y-47681000D02*
X100450000Y-49220000D01*
X100450000Y-51300000D02*
X100450000Y-52839000D01*
X100490000Y-47682000D02*
X100490000Y-49220000D01*
X100490000Y-51300000D02*
X100490000Y-52838000D01*
X100530000Y-47684000D02*
X100530000Y-49220000D01*
X100530000Y-51300000D02*
X100530000Y-52836000D01*
X100570000Y-47687000D02*
X100570000Y-49220000D01*
X100570000Y-51300000D02*
X100570000Y-52833000D01*
X100610000Y-47691000D02*
X100610000Y-49220000D01*
X100610000Y-51300000D02*
X100610000Y-52829000D01*
X100650000Y-47695000D02*
X100650000Y-49220000D01*
X100650000Y-51300000D02*
X100650000Y-52825000D01*
X100690000Y-47699000D02*
X100690000Y-49220000D01*
X100690000Y-51300000D02*
X100690000Y-52821000D01*
X100730000Y-47704000D02*
X100730000Y-49220000D01*
X100730000Y-51300000D02*
X100730000Y-52816000D01*
X100770000Y-47710000D02*
X100770000Y-49220000D01*
X100770000Y-51300000D02*
X100770000Y-52810000D01*
X100810000Y-47717000D02*
X100810000Y-49220000D01*
X100810000Y-51300000D02*
X100810000Y-52803000D01*
X100850000Y-47724000D02*
X100850000Y-49220000D01*
X100850000Y-51300000D02*
X100850000Y-52796000D01*
X100890000Y-47732000D02*
X100890000Y-49220000D01*
X100890000Y-51300000D02*
X100890000Y-52788000D01*
X100930000Y-47740000D02*
X100930000Y-49220000D01*
X100930000Y-51300000D02*
X100930000Y-52780000D01*
X100970000Y-47749000D02*
X100970000Y-49220000D01*
X100970000Y-51300000D02*
X100970000Y-52771000D01*
X101010000Y-47759000D02*
X101010000Y-49220000D01*
X101010000Y-51300000D02*
X101010000Y-52761000D01*
X101050000Y-47769000D02*
X101050000Y-49220000D01*
X101050000Y-51300000D02*
X101050000Y-52751000D01*
X101091000Y-47780000D02*
X101091000Y-49220000D01*
X101091000Y-51300000D02*
X101091000Y-52740000D01*
X101131000Y-47792000D02*
X101131000Y-49220000D01*
X101131000Y-51300000D02*
X101131000Y-52728000D01*
X101171000Y-47805000D02*
X101171000Y-49220000D01*
X101171000Y-51300000D02*
X101171000Y-52715000D01*
X101211000Y-47818000D02*
X101211000Y-49220000D01*
X101211000Y-51300000D02*
X101211000Y-52702000D01*
X101251000Y-47832000D02*
X101251000Y-49220000D01*
X101251000Y-51300000D02*
X101251000Y-52688000D01*
X101291000Y-47846000D02*
X101291000Y-49220000D01*
X101291000Y-51300000D02*
X101291000Y-52674000D01*
X101331000Y-47862000D02*
X101331000Y-49220000D01*
X101331000Y-51300000D02*
X101331000Y-52658000D01*
X101371000Y-47878000D02*
X101371000Y-49220000D01*
X101371000Y-51300000D02*
X101371000Y-52642000D01*
X101411000Y-47895000D02*
X101411000Y-49220000D01*
X101411000Y-51300000D02*
X101411000Y-52625000D01*
X101451000Y-47912000D02*
X101451000Y-49220000D01*
X101451000Y-51300000D02*
X101451000Y-52608000D01*
X101491000Y-47931000D02*
X101491000Y-49220000D01*
X101491000Y-51300000D02*
X101491000Y-52589000D01*
X101531000Y-47950000D02*
X101531000Y-49220000D01*
X101531000Y-51300000D02*
X101531000Y-52570000D01*
X101571000Y-47970000D02*
X101571000Y-49220000D01*
X101571000Y-51300000D02*
X101571000Y-52550000D01*
X101611000Y-47992000D02*
X101611000Y-49220000D01*
X101611000Y-51300000D02*
X101611000Y-52528000D01*
X101651000Y-48013000D02*
X101651000Y-49220000D01*
X101651000Y-51300000D02*
X101651000Y-52507000D01*
X101691000Y-48036000D02*
X101691000Y-49220000D01*
X101691000Y-51300000D02*
X101691000Y-52484000D01*
X101731000Y-48060000D02*
X101731000Y-49220000D01*
X101731000Y-51300000D02*
X101731000Y-52460000D01*
X101771000Y-48085000D02*
X101771000Y-49220000D01*
X101771000Y-51300000D02*
X101771000Y-52435000D01*
X101811000Y-48111000D02*
X101811000Y-49220000D01*
X101811000Y-51300000D02*
X101811000Y-52409000D01*
X101851000Y-48138000D02*
X101851000Y-49220000D01*
X101851000Y-51300000D02*
X101851000Y-52382000D01*
X101891000Y-48165000D02*
X101891000Y-49220000D01*
X101891000Y-51300000D02*
X101891000Y-52355000D01*
X101931000Y-48195000D02*
X101931000Y-49220000D01*
X101931000Y-51300000D02*
X101931000Y-52325000D01*
X101971000Y-48225000D02*
X101971000Y-49220000D01*
X101971000Y-51300000D02*
X101971000Y-52295000D01*
X102011000Y-48256000D02*
X102011000Y-49220000D01*
X102011000Y-51300000D02*
X102011000Y-52264000D01*
X102051000Y-48289000D02*
X102051000Y-49220000D01*
X102051000Y-51300000D02*
X102051000Y-52231000D01*
X102091000Y-48323000D02*
X102091000Y-49220000D01*
X102091000Y-51300000D02*
X102091000Y-52197000D01*
X102131000Y-48359000D02*
X102131000Y-49220000D01*
X102131000Y-51300000D02*
X102131000Y-52161000D01*
X102171000Y-48396000D02*
X102171000Y-49220000D01*
X102171000Y-51300000D02*
X102171000Y-52124000D01*
X102211000Y-48434000D02*
X102211000Y-49220000D01*
X102211000Y-51300000D02*
X102211000Y-52086000D01*
X102251000Y-48475000D02*
X102251000Y-49220000D01*
X102251000Y-51300000D02*
X102251000Y-52045000D01*
X102291000Y-48517000D02*
X102291000Y-49220000D01*
X102291000Y-51300000D02*
X102291000Y-52003000D01*
X102331000Y-48561000D02*
X102331000Y-49220000D01*
X102331000Y-51300000D02*
X102331000Y-51959000D01*
X102371000Y-48607000D02*
X102371000Y-49220000D01*
X102371000Y-51300000D02*
X102371000Y-51913000D01*
X102411000Y-48655000D02*
X102411000Y-51865000D01*
X102451000Y-48706000D02*
X102451000Y-51814000D01*
X102491000Y-48760000D02*
X102491000Y-51760000D01*
X102531000Y-48817000D02*
X102531000Y-51703000D01*
X102571000Y-48877000D02*
X102571000Y-51643000D01*
X102611000Y-48941000D02*
X102611000Y-51579000D01*
X102651000Y-49009000D02*
X102651000Y-51511000D01*
X102691000Y-49082000D02*
X102691000Y-51438000D01*
X102731000Y-49162000D02*
X102731000Y-51358000D01*
X102771000Y-49249000D02*
X102771000Y-51271000D01*
X102811000Y-49345000D02*
X102811000Y-51175000D01*
X102851000Y-49455000D02*
X102851000Y-51065000D01*
X102891000Y-49583000D02*
X102891000Y-50937000D01*
X102931000Y-49742000D02*
X102931000Y-50778000D01*
X102971000Y-49976000D02*
X102971000Y-50544000D01*
X102990000Y-50260000D02*
G75*
G02*
X97750000Y-50260000I-2620000J0D01*
G01*
X97750000Y-50260000D02*
G75*
G02*
X102990000Y-50260000I2620000J0D01*
G01*
%TO.C,U3*%
X87700000Y-73380000D02*
X87700000Y-78021000D01*
X87700000Y-73380000D02*
X97940000Y-73380000D01*
X87700000Y-74890000D02*
X97940000Y-74890000D01*
X87700000Y-78021000D02*
X97940000Y-78021000D01*
X90970000Y-73380000D02*
X90970000Y-74890000D01*
X94671000Y-73380000D02*
X94671000Y-74890000D01*
X97940000Y-73380000D02*
X97940000Y-78021000D01*
%TO.C,C5*%
X143330000Y-54440000D02*
X142099000Y-54440000D01*
X143330000Y-54480000D02*
X142103000Y-54480000D01*
X143330000Y-54520000D02*
X142108000Y-54520000D01*
X143330000Y-54560000D02*
X142114000Y-54560000D01*
X143330000Y-54600000D02*
X142120000Y-54600000D01*
X143330000Y-54640000D02*
X142128000Y-54640000D01*
X143330000Y-54680000D02*
X142136000Y-54680000D01*
X143330000Y-54720000D02*
X142145000Y-54720000D01*
X143330000Y-54760000D02*
X142154000Y-54760000D01*
X143330000Y-54800000D02*
X142165000Y-54800000D01*
X143330000Y-54840000D02*
X142176000Y-54840000D01*
X143330000Y-54880000D02*
X142188000Y-54880000D01*
X143330000Y-54920000D02*
X142202000Y-54920000D01*
X143330000Y-54961000D02*
X142216000Y-54961000D01*
X143330000Y-55001000D02*
X142230000Y-55001000D01*
X143330000Y-55041000D02*
X142246000Y-55041000D01*
X143330000Y-55081000D02*
X142263000Y-55081000D01*
X143330000Y-55121000D02*
X142281000Y-55121000D01*
X143330000Y-55161000D02*
X142300000Y-55161000D01*
X143330000Y-55201000D02*
X142319000Y-55201000D01*
X143330000Y-55241000D02*
X142340000Y-55241000D01*
X143330000Y-55281000D02*
X142362000Y-55281000D01*
X143330000Y-55321000D02*
X142385000Y-55321000D01*
X143330000Y-55361000D02*
X142410000Y-55361000D01*
X143330000Y-55401000D02*
X142435000Y-55401000D01*
X143330000Y-55441000D02*
X142462000Y-55441000D01*
X143330000Y-55481000D02*
X142490000Y-55481000D01*
X143330000Y-55521000D02*
X142520000Y-55521000D01*
X143330000Y-55561000D02*
X142551000Y-55561000D01*
X143330000Y-55601000D02*
X142583000Y-55601000D01*
X143330000Y-55641000D02*
X142618000Y-55641000D01*
X143330000Y-55681000D02*
X142654000Y-55681000D01*
X143330000Y-55721000D02*
X142692000Y-55721000D01*
X143330000Y-55761000D02*
X142732000Y-55761000D01*
X143330000Y-55801000D02*
X142774000Y-55801000D01*
X143330000Y-55841000D02*
X142819000Y-55841000D01*
X143330000Y-55881000D02*
X142866000Y-55881000D01*
X143330000Y-55921000D02*
X142916000Y-55921000D01*
X143330000Y-55961000D02*
X142970000Y-55961000D01*
X143330000Y-56001000D02*
X143028000Y-56001000D01*
X143330000Y-56041000D02*
X143090000Y-56041000D01*
X144540000Y-56321000D02*
X143800000Y-56321000D01*
X144707000Y-56281000D02*
X143633000Y-56281000D01*
X144834000Y-56241000D02*
X143506000Y-56241000D01*
X144938000Y-56201000D02*
X143402000Y-56201000D01*
X145029000Y-56161000D02*
X143311000Y-56161000D01*
X145110000Y-56121000D02*
X143230000Y-56121000D01*
X145183000Y-56081000D02*
X143157000Y-56081000D01*
X145250000Y-56041000D02*
X145010000Y-56041000D01*
X145312000Y-56001000D02*
X145010000Y-56001000D01*
X145365000Y-51970199D02*
X145365000Y-52370199D01*
X145370000Y-55961000D02*
X145010000Y-55961000D01*
X145424000Y-55921000D02*
X145010000Y-55921000D01*
X145474000Y-55881000D02*
X145010000Y-55881000D01*
X145521000Y-55841000D02*
X145010000Y-55841000D01*
X145565000Y-52170199D02*
X145165000Y-52170199D01*
X145566000Y-55801000D02*
X145010000Y-55801000D01*
X145608000Y-55761000D02*
X145010000Y-55761000D01*
X145648000Y-55721000D02*
X145010000Y-55721000D01*
X145686000Y-55681000D02*
X145010000Y-55681000D01*
X145722000Y-55641000D02*
X145010000Y-55641000D01*
X145757000Y-55601000D02*
X145010000Y-55601000D01*
X145789000Y-55561000D02*
X145010000Y-55561000D01*
X145820000Y-55521000D02*
X145010000Y-55521000D01*
X145850000Y-55481000D02*
X145010000Y-55481000D01*
X145878000Y-55441000D02*
X145010000Y-55441000D01*
X145905000Y-55401000D02*
X145010000Y-55401000D01*
X145930000Y-55361000D02*
X145010000Y-55361000D01*
X145955000Y-55321000D02*
X145010000Y-55321000D01*
X145978000Y-55281000D02*
X145010000Y-55281000D01*
X146000000Y-55241000D02*
X145010000Y-55241000D01*
X146021000Y-55201000D02*
X145010000Y-55201000D01*
X146040000Y-55161000D02*
X145010000Y-55161000D01*
X146059000Y-55121000D02*
X145010000Y-55121000D01*
X146077000Y-55081000D02*
X145010000Y-55081000D01*
X146094000Y-55041000D02*
X145010000Y-55041000D01*
X146110000Y-55001000D02*
X145010000Y-55001000D01*
X146124000Y-54961000D02*
X145010000Y-54961000D01*
X146138000Y-54920000D02*
X145010000Y-54920000D01*
X146152000Y-54880000D02*
X145010000Y-54880000D01*
X146164000Y-54840000D02*
X145010000Y-54840000D01*
X146175000Y-54800000D02*
X145010000Y-54800000D01*
X146186000Y-54760000D02*
X145010000Y-54760000D01*
X146195000Y-54720000D02*
X145010000Y-54720000D01*
X146204000Y-54680000D02*
X145010000Y-54680000D01*
X146212000Y-54640000D02*
X145010000Y-54640000D01*
X146220000Y-54600000D02*
X145010000Y-54600000D01*
X146226000Y-54560000D02*
X145010000Y-54560000D01*
X146232000Y-54520000D02*
X145010000Y-54520000D01*
X146237000Y-54480000D02*
X145010000Y-54480000D01*
X146241000Y-54440000D02*
X145010000Y-54440000D01*
X146244000Y-54400000D02*
X142096000Y-54400000D01*
X146247000Y-54360000D02*
X142093000Y-54360000D01*
X146249000Y-54320000D02*
X142091000Y-54320000D01*
X146250000Y-54240000D02*
X142090000Y-54240000D01*
X146250000Y-54280000D02*
X142090000Y-54280000D01*
X146290000Y-54240000D02*
G75*
G02*
X142050000Y-54240000I-2120000J0D01*
G01*
X142050000Y-54240000D02*
G75*
G02*
X146290000Y-54240000I2120000J0D01*
G01*
%TO.C,C3*%
X98695225Y-72925000D02*
X99195225Y-72925000D01*
X98945225Y-72675000D02*
X98945225Y-73175000D01*
X101500000Y-71820000D02*
X101500000Y-73360000D01*
X101500000Y-75440000D02*
X101500000Y-76980000D01*
X101540000Y-71820000D02*
X101540000Y-73360000D01*
X101540000Y-75440000D02*
X101540000Y-76980000D01*
X101580000Y-71821000D02*
X101580000Y-73360000D01*
X101580000Y-75440000D02*
X101580000Y-76979000D01*
X101620000Y-71822000D02*
X101620000Y-73360000D01*
X101620000Y-75440000D02*
X101620000Y-76978000D01*
X101660000Y-71824000D02*
X101660000Y-73360000D01*
X101660000Y-75440000D02*
X101660000Y-76976000D01*
X101700000Y-71827000D02*
X101700000Y-73360000D01*
X101700000Y-75440000D02*
X101700000Y-76973000D01*
X101740000Y-71831000D02*
X101740000Y-73360000D01*
X101740000Y-75440000D02*
X101740000Y-76969000D01*
X101780000Y-71835000D02*
X101780000Y-73360000D01*
X101780000Y-75440000D02*
X101780000Y-76965000D01*
X101820000Y-71839000D02*
X101820000Y-73360000D01*
X101820000Y-75440000D02*
X101820000Y-76961000D01*
X101860000Y-71844000D02*
X101860000Y-73360000D01*
X101860000Y-75440000D02*
X101860000Y-76956000D01*
X101900000Y-71850000D02*
X101900000Y-73360000D01*
X101900000Y-75440000D02*
X101900000Y-76950000D01*
X101940000Y-71857000D02*
X101940000Y-73360000D01*
X101940000Y-75440000D02*
X101940000Y-76943000D01*
X101980000Y-71864000D02*
X101980000Y-73360000D01*
X101980000Y-75440000D02*
X101980000Y-76936000D01*
X102020000Y-71872000D02*
X102020000Y-73360000D01*
X102020000Y-75440000D02*
X102020000Y-76928000D01*
X102060000Y-71880000D02*
X102060000Y-73360000D01*
X102060000Y-75440000D02*
X102060000Y-76920000D01*
X102100000Y-71889000D02*
X102100000Y-73360000D01*
X102100000Y-75440000D02*
X102100000Y-76911000D01*
X102140000Y-71899000D02*
X102140000Y-73360000D01*
X102140000Y-75440000D02*
X102140000Y-76901000D01*
X102180000Y-71909000D02*
X102180000Y-73360000D01*
X102180000Y-75440000D02*
X102180000Y-76891000D01*
X102221000Y-71920000D02*
X102221000Y-73360000D01*
X102221000Y-75440000D02*
X102221000Y-76880000D01*
X102261000Y-71932000D02*
X102261000Y-73360000D01*
X102261000Y-75440000D02*
X102261000Y-76868000D01*
X102301000Y-71945000D02*
X102301000Y-73360000D01*
X102301000Y-75440000D02*
X102301000Y-76855000D01*
X102341000Y-71958000D02*
X102341000Y-73360000D01*
X102341000Y-75440000D02*
X102341000Y-76842000D01*
X102381000Y-71972000D02*
X102381000Y-73360000D01*
X102381000Y-75440000D02*
X102381000Y-76828000D01*
X102421000Y-71986000D02*
X102421000Y-73360000D01*
X102421000Y-75440000D02*
X102421000Y-76814000D01*
X102461000Y-72002000D02*
X102461000Y-73360000D01*
X102461000Y-75440000D02*
X102461000Y-76798000D01*
X102501000Y-72018000D02*
X102501000Y-73360000D01*
X102501000Y-75440000D02*
X102501000Y-76782000D01*
X102541000Y-72035000D02*
X102541000Y-73360000D01*
X102541000Y-75440000D02*
X102541000Y-76765000D01*
X102581000Y-72052000D02*
X102581000Y-73360000D01*
X102581000Y-75440000D02*
X102581000Y-76748000D01*
X102621000Y-72071000D02*
X102621000Y-73360000D01*
X102621000Y-75440000D02*
X102621000Y-76729000D01*
X102661000Y-72090000D02*
X102661000Y-73360000D01*
X102661000Y-75440000D02*
X102661000Y-76710000D01*
X102701000Y-72110000D02*
X102701000Y-73360000D01*
X102701000Y-75440000D02*
X102701000Y-76690000D01*
X102741000Y-72132000D02*
X102741000Y-73360000D01*
X102741000Y-75440000D02*
X102741000Y-76668000D01*
X102781000Y-72153000D02*
X102781000Y-73360000D01*
X102781000Y-75440000D02*
X102781000Y-76647000D01*
X102821000Y-72176000D02*
X102821000Y-73360000D01*
X102821000Y-75440000D02*
X102821000Y-76624000D01*
X102861000Y-72200000D02*
X102861000Y-73360000D01*
X102861000Y-75440000D02*
X102861000Y-76600000D01*
X102901000Y-72225000D02*
X102901000Y-73360000D01*
X102901000Y-75440000D02*
X102901000Y-76575000D01*
X102941000Y-72251000D02*
X102941000Y-73360000D01*
X102941000Y-75440000D02*
X102941000Y-76549000D01*
X102981000Y-72278000D02*
X102981000Y-73360000D01*
X102981000Y-75440000D02*
X102981000Y-76522000D01*
X103021000Y-72305000D02*
X103021000Y-73360000D01*
X103021000Y-75440000D02*
X103021000Y-76495000D01*
X103061000Y-72335000D02*
X103061000Y-73360000D01*
X103061000Y-75440000D02*
X103061000Y-76465000D01*
X103101000Y-72365000D02*
X103101000Y-73360000D01*
X103101000Y-75440000D02*
X103101000Y-76435000D01*
X103141000Y-72396000D02*
X103141000Y-73360000D01*
X103141000Y-75440000D02*
X103141000Y-76404000D01*
X103181000Y-72429000D02*
X103181000Y-73360000D01*
X103181000Y-75440000D02*
X103181000Y-76371000D01*
X103221000Y-72463000D02*
X103221000Y-73360000D01*
X103221000Y-75440000D02*
X103221000Y-76337000D01*
X103261000Y-72499000D02*
X103261000Y-73360000D01*
X103261000Y-75440000D02*
X103261000Y-76301000D01*
X103301000Y-72536000D02*
X103301000Y-73360000D01*
X103301000Y-75440000D02*
X103301000Y-76264000D01*
X103341000Y-72574000D02*
X103341000Y-73360000D01*
X103341000Y-75440000D02*
X103341000Y-76226000D01*
X103381000Y-72615000D02*
X103381000Y-73360000D01*
X103381000Y-75440000D02*
X103381000Y-76185000D01*
X103421000Y-72657000D02*
X103421000Y-73360000D01*
X103421000Y-75440000D02*
X103421000Y-76143000D01*
X103461000Y-72701000D02*
X103461000Y-73360000D01*
X103461000Y-75440000D02*
X103461000Y-76099000D01*
X103501000Y-72747000D02*
X103501000Y-73360000D01*
X103501000Y-75440000D02*
X103501000Y-76053000D01*
X103541000Y-72795000D02*
X103541000Y-76005000D01*
X103581000Y-72846000D02*
X103581000Y-75954000D01*
X103621000Y-72900000D02*
X103621000Y-75900000D01*
X103661000Y-72957000D02*
X103661000Y-75843000D01*
X103701000Y-73017000D02*
X103701000Y-75783000D01*
X103741000Y-73081000D02*
X103741000Y-75719000D01*
X103781000Y-73149000D02*
X103781000Y-75651000D01*
X103821000Y-73222000D02*
X103821000Y-75578000D01*
X103861000Y-73302000D02*
X103861000Y-75498000D01*
X103901000Y-73389000D02*
X103901000Y-75411000D01*
X103941000Y-73485000D02*
X103941000Y-75315000D01*
X103981000Y-73595000D02*
X103981000Y-75205000D01*
X104021000Y-73723000D02*
X104021000Y-75077000D01*
X104061000Y-73882000D02*
X104061000Y-74918000D01*
X104101000Y-74116000D02*
X104101000Y-74684000D01*
X104120000Y-74400000D02*
G75*
G02*
X98880000Y-74400000I-2620000J0D01*
G01*
X98880000Y-74400000D02*
G75*
G02*
X104120000Y-74400000I2620000J0D01*
G01*
%TO.C,U2*%
X117410000Y-50520000D02*
X117410000Y-55820000D01*
X117410000Y-55820000D02*
X137850000Y-55820000D01*
X137850000Y-50520000D02*
X117410000Y-50520000D01*
X137850000Y-52170000D02*
X137850000Y-50520000D01*
X137850000Y-55820000D02*
X137850000Y-54170000D01*
X137850000Y-54170000D02*
G75*
G02*
X137850000Y-52170000I0J1000000D01*
G01*
%TO.C,C6*%
X151260000Y-49700000D02*
X150029000Y-49700000D01*
X151260000Y-49740000D02*
X150033000Y-49740000D01*
X151260000Y-49780000D02*
X150038000Y-49780000D01*
X151260000Y-49820000D02*
X150044000Y-49820000D01*
X151260000Y-49860000D02*
X150050000Y-49860000D01*
X151260000Y-49900000D02*
X150058000Y-49900000D01*
X151260000Y-49940000D02*
X150066000Y-49940000D01*
X151260000Y-49980000D02*
X150075000Y-49980000D01*
X151260000Y-50020000D02*
X150084000Y-50020000D01*
X151260000Y-50060000D02*
X150095000Y-50060000D01*
X151260000Y-50100000D02*
X150106000Y-50100000D01*
X151260000Y-50140000D02*
X150118000Y-50140000D01*
X151260000Y-50180000D02*
X150132000Y-50180000D01*
X151260000Y-50221000D02*
X150146000Y-50221000D01*
X151260000Y-50261000D02*
X150160000Y-50261000D01*
X151260000Y-50301000D02*
X150176000Y-50301000D01*
X151260000Y-50341000D02*
X150193000Y-50341000D01*
X151260000Y-50381000D02*
X150211000Y-50381000D01*
X151260000Y-50421000D02*
X150230000Y-50421000D01*
X151260000Y-50461000D02*
X150249000Y-50461000D01*
X151260000Y-50501000D02*
X150270000Y-50501000D01*
X151260000Y-50541000D02*
X150292000Y-50541000D01*
X151260000Y-50581000D02*
X150315000Y-50581000D01*
X151260000Y-50621000D02*
X150340000Y-50621000D01*
X151260000Y-50661000D02*
X150365000Y-50661000D01*
X151260000Y-50701000D02*
X150392000Y-50701000D01*
X151260000Y-50741000D02*
X150420000Y-50741000D01*
X151260000Y-50781000D02*
X150450000Y-50781000D01*
X151260000Y-50821000D02*
X150481000Y-50821000D01*
X151260000Y-50861000D02*
X150513000Y-50861000D01*
X151260000Y-50901000D02*
X150548000Y-50901000D01*
X151260000Y-50941000D02*
X150584000Y-50941000D01*
X151260000Y-50981000D02*
X150622000Y-50981000D01*
X151260000Y-51021000D02*
X150662000Y-51021000D01*
X151260000Y-51061000D02*
X150704000Y-51061000D01*
X151260000Y-51101000D02*
X150749000Y-51101000D01*
X151260000Y-51141000D02*
X150796000Y-51141000D01*
X151260000Y-51181000D02*
X150846000Y-51181000D01*
X151260000Y-51221000D02*
X150900000Y-51221000D01*
X151260000Y-51261000D02*
X150958000Y-51261000D01*
X151260000Y-51301000D02*
X151020000Y-51301000D01*
X152470000Y-51581000D02*
X151730000Y-51581000D01*
X152637000Y-51541000D02*
X151563000Y-51541000D01*
X152764000Y-51501000D02*
X151436000Y-51501000D01*
X152868000Y-51461000D02*
X151332000Y-51461000D01*
X152959000Y-51421000D02*
X151241000Y-51421000D01*
X153040000Y-51381000D02*
X151160000Y-51381000D01*
X153113000Y-51341000D02*
X151087000Y-51341000D01*
X153180000Y-51301000D02*
X152940000Y-51301000D01*
X153242000Y-51261000D02*
X152940000Y-51261000D01*
X153295000Y-47230199D02*
X153295000Y-47630199D01*
X153300000Y-51221000D02*
X152940000Y-51221000D01*
X153354000Y-51181000D02*
X152940000Y-51181000D01*
X153404000Y-51141000D02*
X152940000Y-51141000D01*
X153451000Y-51101000D02*
X152940000Y-51101000D01*
X153495000Y-47430199D02*
X153095000Y-47430199D01*
X153496000Y-51061000D02*
X152940000Y-51061000D01*
X153538000Y-51021000D02*
X152940000Y-51021000D01*
X153578000Y-50981000D02*
X152940000Y-50981000D01*
X153616000Y-50941000D02*
X152940000Y-50941000D01*
X153652000Y-50901000D02*
X152940000Y-50901000D01*
X153687000Y-50861000D02*
X152940000Y-50861000D01*
X153719000Y-50821000D02*
X152940000Y-50821000D01*
X153750000Y-50781000D02*
X152940000Y-50781000D01*
X153780000Y-50741000D02*
X152940000Y-50741000D01*
X153808000Y-50701000D02*
X152940000Y-50701000D01*
X153835000Y-50661000D02*
X152940000Y-50661000D01*
X153860000Y-50621000D02*
X152940000Y-50621000D01*
X153885000Y-50581000D02*
X152940000Y-50581000D01*
X153908000Y-50541000D02*
X152940000Y-50541000D01*
X153930000Y-50501000D02*
X152940000Y-50501000D01*
X153951000Y-50461000D02*
X152940000Y-50461000D01*
X153970000Y-50421000D02*
X152940000Y-50421000D01*
X153989000Y-50381000D02*
X152940000Y-50381000D01*
X154007000Y-50341000D02*
X152940000Y-50341000D01*
X154024000Y-50301000D02*
X152940000Y-50301000D01*
X154040000Y-50261000D02*
X152940000Y-50261000D01*
X154054000Y-50221000D02*
X152940000Y-50221000D01*
X154068000Y-50180000D02*
X152940000Y-50180000D01*
X154082000Y-50140000D02*
X152940000Y-50140000D01*
X154094000Y-50100000D02*
X152940000Y-50100000D01*
X154105000Y-50060000D02*
X152940000Y-50060000D01*
X154116000Y-50020000D02*
X152940000Y-50020000D01*
X154125000Y-49980000D02*
X152940000Y-49980000D01*
X154134000Y-49940000D02*
X152940000Y-49940000D01*
X154142000Y-49900000D02*
X152940000Y-49900000D01*
X154150000Y-49860000D02*
X152940000Y-49860000D01*
X154156000Y-49820000D02*
X152940000Y-49820000D01*
X154162000Y-49780000D02*
X152940000Y-49780000D01*
X154167000Y-49740000D02*
X152940000Y-49740000D01*
X154171000Y-49700000D02*
X152940000Y-49700000D01*
X154174000Y-49660000D02*
X150026000Y-49660000D01*
X154177000Y-49620000D02*
X150023000Y-49620000D01*
X154179000Y-49580000D02*
X150021000Y-49580000D01*
X154180000Y-49500000D02*
X150020000Y-49500000D01*
X154180000Y-49540000D02*
X150020000Y-49540000D01*
X154220000Y-49500000D02*
G75*
G02*
X149980000Y-49500000I-2120000J0D01*
G01*
X149980000Y-49500000D02*
G75*
G02*
X154220000Y-49500000I2120000J0D01*
G01*
%TO.C,R1*%
X159680000Y-53420000D02*
X159680000Y-57260000D01*
X159680000Y-57260000D02*
X161520000Y-57260000D01*
X160600000Y-52470000D02*
X160600000Y-53420000D01*
X160600000Y-58210000D02*
X160600000Y-57260000D01*
X161520000Y-53420000D02*
X159680000Y-53420000D01*
X161520000Y-57260000D02*
X161520000Y-53420000D01*
%TD*%
M02*
