%TF.GenerationSoftware,KiCad,Pcbnew,8.0.1*%
%TF.CreationDate,2024-05-12T20:31:25+01:00*%
%TF.ProjectId,TIMPS2Key,54494d50-5332-44b6-9579-2e6b69636164,rev?*%
%TF.SameCoordinates,Original*%
%TF.FileFunction,Drillmap*%
%TF.FilePolarity,Positive*%
%FSLAX45Y45*%
G04 Gerber Fmt 4.5, Leading zero omitted, Abs format (unit mm)*
G04 Created by KiCad (PCBNEW 8.0.1) date 2024-05-12 20:31:25*
%MOMM*%
%LPD*%
G01*
G04 APERTURE LIST*
%ADD10C,0.100000*%
%ADD11C,0.200000*%
%ADD12C,0.110000*%
%ADD13C,0.140000*%
G04 APERTURE END LIST*
D10*
X8070000Y-4675000D02*
X17554000Y-4675000D01*
X17554000Y-7893000D01*
X8070000Y-7893000D01*
X8070000Y-4675000D01*
D11*
D10*
X11200000Y-6060000D02*
X11240000Y-6100000D01*
X11240000Y-6060000D02*
X11200000Y-6100000D01*
X14447000Y-4850000D02*
G75*
G02*
X14387000Y-4850000I-30000J0D01*
G01*
X14387000Y-4850000D02*
G75*
G02*
X14447000Y-4850000I30000J0D01*
G01*
X14447000Y-5050000D02*
G75*
G02*
X14387000Y-5050000I-30000J0D01*
G01*
X14387000Y-5050000D02*
G75*
G02*
X14447000Y-5050000I30000J0D01*
G01*
X14447000Y-5324000D02*
G75*
G02*
X14387000Y-5324000I-30000J0D01*
G01*
X14387000Y-5324000D02*
G75*
G02*
X14447000Y-5324000I30000J0D01*
G01*
X14447000Y-5524000D02*
G75*
G02*
X14387000Y-5524000I-30000J0D01*
G01*
X14387000Y-5524000D02*
G75*
G02*
X14447000Y-5524000I30000J0D01*
G01*
X15240000Y-4850000D02*
G75*
G02*
X15180000Y-4850000I-30000J0D01*
G01*
X15180000Y-4850000D02*
G75*
G02*
X15240000Y-4850000I30000J0D01*
G01*
X15240000Y-5050000D02*
G75*
G02*
X15180000Y-5050000I-30000J0D01*
G01*
X15180000Y-5050000D02*
G75*
G02*
X15240000Y-5050000I30000J0D01*
G01*
X15240000Y-5324000D02*
G75*
G02*
X15180000Y-5324000I-30000J0D01*
G01*
X15180000Y-5324000D02*
G75*
G02*
X15240000Y-5324000I30000J0D01*
G01*
X15240000Y-5524000D02*
G75*
G02*
X15180000Y-5524000I-30000J0D01*
G01*
X15180000Y-5524000D02*
G75*
G02*
X15240000Y-5524000I30000J0D01*
G01*
X9868000Y-5500000D02*
X9868000Y-5570000D01*
X9833000Y-5535000D02*
X9903000Y-5535000D01*
X10609000Y-5720000D02*
X10609000Y-5790000D01*
X10574000Y-5755000D02*
X10644000Y-5755000D01*
X10630000Y-5500000D02*
X10630000Y-5570000D01*
X10595000Y-5535000D02*
X10665000Y-5535000D01*
X11371000Y-5720000D02*
X11371000Y-5790000D01*
X11336000Y-5755000D02*
X11406000Y-5755000D01*
X15630000Y-5117000D02*
X15630000Y-5187000D01*
X15595000Y-5152000D02*
X15665000Y-5152000D01*
X15630000Y-5879000D02*
X15630000Y-5949000D01*
X15595000Y-5914000D02*
X15665000Y-5914000D01*
X15845000Y-5117000D02*
X15845000Y-5187000D01*
X15810000Y-5152000D02*
X15880000Y-5152000D01*
X15845000Y-5879000D02*
X15845000Y-5949000D01*
X15810000Y-5914000D02*
X15880000Y-5914000D01*
X16060000Y-5118000D02*
X16060000Y-5188000D01*
X16025000Y-5153000D02*
X16095000Y-5153000D01*
X16060000Y-5880000D02*
X16060000Y-5950000D01*
X16025000Y-5915000D02*
X16095000Y-5915000D01*
X9965285Y-5054285D02*
X9965285Y-4997716D01*
X9908716Y-4997716D01*
X9908716Y-5054285D01*
X9965285Y-5054285D01*
X10078285Y-7468284D02*
X10078285Y-7411715D01*
X10021716Y-7411715D01*
X10021716Y-7468284D01*
X10078285Y-7468284D01*
X10165285Y-5054285D02*
X10165285Y-4997716D01*
X10108716Y-4997716D01*
X10108716Y-5054285D01*
X10165285Y-5054285D01*
X10278285Y-7468284D02*
X10278285Y-7411715D01*
X10221716Y-7411715D01*
X10221716Y-7468284D01*
X10278285Y-7468284D01*
X10703285Y-5153285D02*
X10703285Y-5096716D01*
X10646716Y-5096716D01*
X10646716Y-5153285D01*
X10703285Y-5153285D01*
X10957285Y-5153285D02*
X10957285Y-5096716D01*
X10900716Y-5096716D01*
X10900716Y-5153285D01*
X10957285Y-5153285D01*
X11211284Y-5153285D02*
X11211284Y-5096716D01*
X11154716Y-5096716D01*
X11154716Y-5153285D01*
X11211284Y-5153285D01*
X11618284Y-5094285D02*
X11618284Y-5037716D01*
X11561715Y-5037716D01*
X11561715Y-5094285D01*
X11618284Y-5094285D01*
X11618284Y-5594284D02*
X11618284Y-5537716D01*
X11561715Y-5537716D01*
X11561715Y-5594284D01*
X11618284Y-5594284D01*
X11902284Y-4964285D02*
X11902284Y-4907716D01*
X11845715Y-4907716D01*
X11845715Y-4964285D01*
X11902284Y-4964285D01*
X11902284Y-5726284D02*
X11902284Y-5669715D01*
X11845715Y-5669715D01*
X11845715Y-5726284D01*
X11902284Y-5726284D01*
X12156284Y-4964285D02*
X12156284Y-4907716D01*
X12099715Y-4907716D01*
X12099715Y-4964285D01*
X12156284Y-4964285D01*
X12156284Y-5726284D02*
X12156284Y-5669715D01*
X12099715Y-5669715D01*
X12099715Y-5726284D01*
X12156284Y-5726284D01*
X12410284Y-4964285D02*
X12410284Y-4907716D01*
X12353715Y-4907716D01*
X12353715Y-4964285D01*
X12410284Y-4964285D01*
X12410284Y-5726284D02*
X12410284Y-5669715D01*
X12353715Y-5669715D01*
X12353715Y-5726284D01*
X12410284Y-5726284D01*
X12664284Y-4964285D02*
X12664284Y-4907716D01*
X12607715Y-4907716D01*
X12607715Y-4964285D01*
X12664284Y-4964285D01*
X12664284Y-5726284D02*
X12664284Y-5669715D01*
X12607715Y-5669715D01*
X12607715Y-5726284D01*
X12664284Y-5726284D01*
X12918284Y-4964285D02*
X12918284Y-4907716D01*
X12861715Y-4907716D01*
X12861715Y-4964285D01*
X12918284Y-4964285D01*
X12918284Y-5726284D02*
X12918284Y-5669715D01*
X12861715Y-5669715D01*
X12861715Y-5726284D01*
X12918284Y-5726284D01*
X13172284Y-4964285D02*
X13172284Y-4907716D01*
X13115715Y-4907716D01*
X13115715Y-4964285D01*
X13172284Y-4964285D01*
X13172284Y-5726284D02*
X13172284Y-5669715D01*
X13115715Y-5669715D01*
X13115715Y-5726284D01*
X13172284Y-5726284D01*
X13426284Y-4964285D02*
X13426284Y-4907716D01*
X13369715Y-4907716D01*
X13369715Y-4964285D01*
X13426284Y-4964285D01*
X13426284Y-5726284D02*
X13426284Y-5669715D01*
X13369715Y-5669715D01*
X13369715Y-5726284D01*
X13426284Y-5726284D01*
X13680284Y-4964285D02*
X13680284Y-4907716D01*
X13623715Y-4907716D01*
X13623715Y-4964285D01*
X13680284Y-4964285D01*
X13680284Y-5726284D02*
X13680284Y-5669715D01*
X13623715Y-5669715D01*
X13623715Y-5726284D01*
X13680284Y-5726284D01*
X16438284Y-5983784D02*
X16438284Y-5927215D01*
X16381715Y-5927215D01*
X16381715Y-5983784D01*
X16438284Y-5983784D01*
X16438284Y-6663784D02*
X16438284Y-6607215D01*
X16381715Y-6607215D01*
X16381715Y-6663784D01*
X16438284Y-6663784D01*
X16718284Y-5983784D02*
X16718284Y-5927215D01*
X16661715Y-5927215D01*
X16661715Y-5983784D01*
X16718284Y-5983784D01*
X16718284Y-6193784D02*
X16718284Y-6137215D01*
X16661715Y-6137215D01*
X16661715Y-6193784D01*
X16718284Y-6193784D01*
X16718284Y-6453784D02*
X16718284Y-6397215D01*
X16661715Y-6397215D01*
X16661715Y-6453784D01*
X16718284Y-6453784D01*
X16718284Y-6663784D02*
X16718284Y-6607215D01*
X16661715Y-6607215D01*
X16661715Y-6663784D01*
X16718284Y-6663784D01*
X16540000Y-4979000D02*
X16585000Y-4934000D01*
X16540000Y-4889000D01*
X16495000Y-4934000D01*
X16540000Y-4979000D01*
X16540000Y-5233000D02*
X16585000Y-5188000D01*
X16540000Y-5143000D01*
X16495000Y-5188000D01*
X16540000Y-5233000D01*
X8996000Y-4943000D02*
X9096000Y-5043000D01*
X9096000Y-4943000D02*
X8996000Y-5043000D01*
X9096000Y-4993000D02*
G75*
G02*
X8996000Y-4993000I-50000J0D01*
G01*
X8996000Y-4993000D02*
G75*
G02*
X9096000Y-4993000I50000J0D01*
G01*
X9250000Y-4943000D02*
X9350000Y-5043000D01*
X9350000Y-4943000D02*
X9250000Y-5043000D01*
X9350000Y-4993000D02*
G75*
G02*
X9250000Y-4993000I-50000J0D01*
G01*
X9250000Y-4993000D02*
G75*
G02*
X9350000Y-4993000I50000J0D01*
G01*
X10165000Y-6540000D02*
X10265000Y-6640000D01*
X10265000Y-6540000D02*
X10165000Y-6640000D01*
X10265000Y-6590000D02*
G75*
G02*
X10165000Y-6590000I-50000J0D01*
G01*
X10165000Y-6590000D02*
G75*
G02*
X10265000Y-6590000I50000J0D01*
G01*
X10815000Y-6540000D02*
X10915000Y-6640000D01*
X10915000Y-6540000D02*
X10815000Y-6640000D01*
X10915000Y-6590000D02*
G75*
G02*
X10815000Y-6590000I-50000J0D01*
G01*
X10815000Y-6590000D02*
G75*
G02*
X10915000Y-6590000I50000J0D01*
G01*
X11640000Y-6142000D02*
X11740000Y-6242000D01*
X11740000Y-6142000D02*
X11640000Y-6242000D01*
X11740000Y-6192000D02*
G75*
G02*
X11640000Y-6192000I-50000J0D01*
G01*
X11640000Y-6192000D02*
G75*
G02*
X11740000Y-6192000I50000J0D01*
G01*
X11640000Y-7666000D02*
X11740000Y-7766000D01*
X11740000Y-7666000D02*
X11640000Y-7766000D01*
X11740000Y-7716000D02*
G75*
G02*
X11640000Y-7716000I-50000J0D01*
G01*
X11640000Y-7716000D02*
G75*
G02*
X11740000Y-7716000I50000J0D01*
G01*
X11894000Y-6142000D02*
X11994000Y-6242000D01*
X11994000Y-6142000D02*
X11894000Y-6242000D01*
X11994000Y-6192000D02*
G75*
G02*
X11894000Y-6192000I-50000J0D01*
G01*
X11894000Y-6192000D02*
G75*
G02*
X11994000Y-6192000I50000J0D01*
G01*
X11894000Y-7666000D02*
X11994000Y-7766000D01*
X11994000Y-7666000D02*
X11894000Y-7766000D01*
X11994000Y-7716000D02*
G75*
G02*
X11894000Y-7716000I-50000J0D01*
G01*
X11894000Y-7716000D02*
G75*
G02*
X11994000Y-7716000I50000J0D01*
G01*
X12148000Y-6142000D02*
X12248000Y-6242000D01*
X12248000Y-6142000D02*
X12148000Y-6242000D01*
X12248000Y-6192000D02*
G75*
G02*
X12148000Y-6192000I-50000J0D01*
G01*
X12148000Y-6192000D02*
G75*
G02*
X12248000Y-6192000I50000J0D01*
G01*
X12148000Y-7666000D02*
X12248000Y-7766000D01*
X12248000Y-7666000D02*
X12148000Y-7766000D01*
X12248000Y-7716000D02*
G75*
G02*
X12148000Y-7716000I-50000J0D01*
G01*
X12148000Y-7716000D02*
G75*
G02*
X12248000Y-7716000I50000J0D01*
G01*
X12402000Y-6142000D02*
X12502000Y-6242000D01*
X12502000Y-6142000D02*
X12402000Y-6242000D01*
X12502000Y-6192000D02*
G75*
G02*
X12402000Y-6192000I-50000J0D01*
G01*
X12402000Y-6192000D02*
G75*
G02*
X12502000Y-6192000I50000J0D01*
G01*
X12402000Y-7666000D02*
X12502000Y-7766000D01*
X12502000Y-7666000D02*
X12402000Y-7766000D01*
X12502000Y-7716000D02*
G75*
G02*
X12402000Y-7716000I-50000J0D01*
G01*
X12402000Y-7716000D02*
G75*
G02*
X12502000Y-7716000I50000J0D01*
G01*
X12656000Y-6142000D02*
X12756000Y-6242000D01*
X12756000Y-6142000D02*
X12656000Y-6242000D01*
X12756000Y-6192000D02*
G75*
G02*
X12656000Y-6192000I-50000J0D01*
G01*
X12656000Y-6192000D02*
G75*
G02*
X12756000Y-6192000I50000J0D01*
G01*
X12656000Y-7666000D02*
X12756000Y-7766000D01*
X12756000Y-7666000D02*
X12656000Y-7766000D01*
X12756000Y-7716000D02*
G75*
G02*
X12656000Y-7716000I-50000J0D01*
G01*
X12656000Y-7716000D02*
G75*
G02*
X12756000Y-7716000I50000J0D01*
G01*
X12910000Y-6142000D02*
X13010000Y-6242000D01*
X13010000Y-6142000D02*
X12910000Y-6242000D01*
X13010000Y-6192000D02*
G75*
G02*
X12910000Y-6192000I-50000J0D01*
G01*
X12910000Y-6192000D02*
G75*
G02*
X13010000Y-6192000I50000J0D01*
G01*
X12910000Y-7666000D02*
X13010000Y-7766000D01*
X13010000Y-7666000D02*
X12910000Y-7766000D01*
X13010000Y-7716000D02*
G75*
G02*
X12910000Y-7716000I-50000J0D01*
G01*
X12910000Y-7716000D02*
G75*
G02*
X13010000Y-7716000I50000J0D01*
G01*
X13164000Y-6142000D02*
X13264000Y-6242000D01*
X13264000Y-6142000D02*
X13164000Y-6242000D01*
X13264000Y-6192000D02*
G75*
G02*
X13164000Y-6192000I-50000J0D01*
G01*
X13164000Y-6192000D02*
G75*
G02*
X13264000Y-6192000I50000J0D01*
G01*
X13164000Y-7666000D02*
X13264000Y-7766000D01*
X13264000Y-7666000D02*
X13164000Y-7766000D01*
X13264000Y-7716000D02*
G75*
G02*
X13164000Y-7716000I-50000J0D01*
G01*
X13164000Y-7716000D02*
G75*
G02*
X13264000Y-7716000I50000J0D01*
G01*
X13418000Y-6142000D02*
X13518000Y-6242000D01*
X13518000Y-6142000D02*
X13418000Y-6242000D01*
X13518000Y-6192000D02*
G75*
G02*
X13418000Y-6192000I-50000J0D01*
G01*
X13418000Y-6192000D02*
G75*
G02*
X13518000Y-6192000I50000J0D01*
G01*
X13418000Y-7666000D02*
X13518000Y-7766000D01*
X13518000Y-7666000D02*
X13418000Y-7766000D01*
X13518000Y-7716000D02*
G75*
G02*
X13418000Y-7716000I-50000J0D01*
G01*
X13418000Y-7716000D02*
G75*
G02*
X13518000Y-7716000I50000J0D01*
G01*
X13672000Y-6142000D02*
X13772000Y-6242000D01*
X13772000Y-6142000D02*
X13672000Y-6242000D01*
X13772000Y-6192000D02*
G75*
G02*
X13672000Y-6192000I-50000J0D01*
G01*
X13672000Y-6192000D02*
G75*
G02*
X13772000Y-6192000I50000J0D01*
G01*
X13672000Y-7666000D02*
X13772000Y-7766000D01*
X13772000Y-7666000D02*
X13672000Y-7766000D01*
X13772000Y-7716000D02*
G75*
G02*
X13672000Y-7716000I-50000J0D01*
G01*
X13672000Y-7716000D02*
G75*
G02*
X13772000Y-7716000I50000J0D01*
G01*
X13926000Y-6142000D02*
X14026000Y-6242000D01*
X14026000Y-6142000D02*
X13926000Y-6242000D01*
X14026000Y-6192000D02*
G75*
G02*
X13926000Y-6192000I-50000J0D01*
G01*
X13926000Y-6192000D02*
G75*
G02*
X14026000Y-6192000I50000J0D01*
G01*
X13926000Y-7666000D02*
X14026000Y-7766000D01*
X14026000Y-7666000D02*
X13926000Y-7766000D01*
X14026000Y-7716000D02*
G75*
G02*
X13926000Y-7716000I-50000J0D01*
G01*
X13926000Y-7716000D02*
G75*
G02*
X14026000Y-7716000I50000J0D01*
G01*
X14180000Y-6142000D02*
X14280000Y-6242000D01*
X14280000Y-6142000D02*
X14180000Y-6242000D01*
X14280000Y-6192000D02*
G75*
G02*
X14180000Y-6192000I-50000J0D01*
G01*
X14180000Y-6192000D02*
G75*
G02*
X14280000Y-6192000I50000J0D01*
G01*
X14180000Y-7666000D02*
X14280000Y-7766000D01*
X14280000Y-7666000D02*
X14180000Y-7766000D01*
X14280000Y-7716000D02*
G75*
G02*
X14180000Y-7716000I-50000J0D01*
G01*
X14180000Y-7716000D02*
G75*
G02*
X14280000Y-7716000I50000J0D01*
G01*
X14363000Y-5795000D02*
X14463000Y-5895000D01*
X14463000Y-5795000D02*
X14363000Y-5895000D01*
X14463000Y-5845000D02*
G75*
G02*
X14363000Y-5845000I-50000J0D01*
G01*
X14363000Y-5845000D02*
G75*
G02*
X14463000Y-5845000I50000J0D01*
G01*
X14434000Y-6142000D02*
X14534000Y-6242000D01*
X14534000Y-6142000D02*
X14434000Y-6242000D01*
X14534000Y-6192000D02*
G75*
G02*
X14434000Y-6192000I-50000J0D01*
G01*
X14434000Y-6192000D02*
G75*
G02*
X14534000Y-6192000I50000J0D01*
G01*
X14434000Y-7666000D02*
X14534000Y-7766000D01*
X14534000Y-7666000D02*
X14434000Y-7766000D01*
X14534000Y-7716000D02*
G75*
G02*
X14434000Y-7716000I-50000J0D01*
G01*
X14434000Y-7716000D02*
G75*
G02*
X14534000Y-7716000I50000J0D01*
G01*
X14617000Y-5795000D02*
X14717000Y-5895000D01*
X14717000Y-5795000D02*
X14617000Y-5895000D01*
X14717000Y-5845000D02*
G75*
G02*
X14617000Y-5845000I-50000J0D01*
G01*
X14617000Y-5845000D02*
G75*
G02*
X14717000Y-5845000I50000J0D01*
G01*
X14688000Y-6142000D02*
X14788000Y-6242000D01*
X14788000Y-6142000D02*
X14688000Y-6242000D01*
X14788000Y-6192000D02*
G75*
G02*
X14688000Y-6192000I-50000J0D01*
G01*
X14688000Y-6192000D02*
G75*
G02*
X14788000Y-6192000I50000J0D01*
G01*
X14688000Y-7666000D02*
X14788000Y-7766000D01*
X14788000Y-7666000D02*
X14688000Y-7766000D01*
X14788000Y-7716000D02*
G75*
G02*
X14688000Y-7716000I-50000J0D01*
G01*
X14688000Y-7716000D02*
G75*
G02*
X14788000Y-7716000I50000J0D01*
G01*
X14871000Y-5795000D02*
X14971000Y-5895000D01*
X14971000Y-5795000D02*
X14871000Y-5895000D01*
X14971000Y-5845000D02*
G75*
G02*
X14871000Y-5845000I-50000J0D01*
G01*
X14871000Y-5845000D02*
G75*
G02*
X14971000Y-5845000I50000J0D01*
G01*
X14942000Y-6142000D02*
X15042000Y-6242000D01*
X15042000Y-6142000D02*
X14942000Y-6242000D01*
X15042000Y-6192000D02*
G75*
G02*
X14942000Y-6192000I-50000J0D01*
G01*
X14942000Y-6192000D02*
G75*
G02*
X15042000Y-6192000I50000J0D01*
G01*
X14942000Y-7666000D02*
X15042000Y-7766000D01*
X15042000Y-7666000D02*
X14942000Y-7766000D01*
X15042000Y-7716000D02*
G75*
G02*
X14942000Y-7716000I-50000J0D01*
G01*
X14942000Y-7716000D02*
G75*
G02*
X15042000Y-7716000I50000J0D01*
G01*
X15125000Y-5795000D02*
X15225000Y-5895000D01*
X15225000Y-5795000D02*
X15125000Y-5895000D01*
X15225000Y-5845000D02*
G75*
G02*
X15125000Y-5845000I-50000J0D01*
G01*
X15125000Y-5845000D02*
G75*
G02*
X15225000Y-5845000I50000J0D01*
G01*
X15196000Y-6142000D02*
X15296000Y-6242000D01*
X15296000Y-6142000D02*
X15196000Y-6242000D01*
X15296000Y-6192000D02*
G75*
G02*
X15196000Y-6192000I-50000J0D01*
G01*
X15196000Y-6192000D02*
G75*
G02*
X15296000Y-6192000I50000J0D01*
G01*
X15196000Y-7666000D02*
X15296000Y-7766000D01*
X15296000Y-7666000D02*
X15196000Y-7766000D01*
X15296000Y-7716000D02*
G75*
G02*
X15196000Y-7716000I-50000J0D01*
G01*
X15196000Y-7716000D02*
G75*
G02*
X15296000Y-7716000I50000J0D01*
G01*
X16925000Y-5560500D02*
X17025000Y-5660500D01*
X17025000Y-5560500D02*
X16925000Y-5660500D01*
X17025000Y-5610500D02*
G75*
G02*
X16925000Y-5610500I-50000J0D01*
G01*
X16925000Y-5610500D02*
G75*
G02*
X17025000Y-5610500I50000J0D01*
G01*
X16900000Y-5660500D02*
X17050000Y-5660500D01*
X17050000Y-5560500D02*
G75*
G02*
X17050000Y-5660500I0J-50000D01*
G01*
X17050000Y-5560500D02*
X16900000Y-5560500D01*
X16900000Y-5560500D02*
G75*
G03*
X16900000Y-5660500I0J-50000D01*
G01*
X16925000Y-6930500D02*
X17025000Y-7030500D01*
X17025000Y-6930500D02*
X16925000Y-7030500D01*
X17025000Y-6980500D02*
G75*
G02*
X16925000Y-6980500I-50000J0D01*
G01*
X16925000Y-6980500D02*
G75*
G02*
X17025000Y-6980500I50000J0D01*
G01*
X16900000Y-7030500D02*
X17050000Y-7030500D01*
X17050000Y-6930500D02*
G75*
G02*
X17050000Y-7030500I0J-50000D01*
G01*
X17050000Y-6930500D02*
X16900000Y-6930500D01*
X16900000Y-6930500D02*
G75*
G03*
X16900000Y-7030500I0J-50000D01*
G01*
X17005000Y-6245500D02*
X17105000Y-6345500D01*
X17105000Y-6245500D02*
X17005000Y-6345500D01*
X17105000Y-6295500D02*
G75*
G02*
X17005000Y-6295500I-50000J0D01*
G01*
X17005000Y-6295500D02*
G75*
G02*
X17105000Y-6295500I50000J0D01*
G01*
X17105000Y-6395500D02*
X17105000Y-6195500D01*
X17005000Y-6195500D02*
G75*
G02*
X17105000Y-6195500I50000J0D01*
G01*
X17005000Y-6195500D02*
X17005000Y-6395500D01*
X17005000Y-6395500D02*
G75*
G03*
X17105000Y-6395500I50000J0D01*
G01*
D12*
X8973000Y-7610000D02*
X9083000Y-7720000D01*
X9083000Y-7610000D02*
X8973000Y-7720000D01*
X9028000Y-7610000D02*
X9028000Y-7720000D01*
X8973000Y-7665000D02*
X9083000Y-7665000D01*
X9227000Y-7610000D02*
X9337000Y-7720000D01*
X9337000Y-7610000D02*
X9227000Y-7720000D01*
X9282000Y-7610000D02*
X9282000Y-7720000D01*
X9227000Y-7665000D02*
X9337000Y-7665000D01*
X9481000Y-7610000D02*
X9591000Y-7720000D01*
X9591000Y-7610000D02*
X9481000Y-7720000D01*
X9536000Y-7610000D02*
X9536000Y-7720000D01*
X9481000Y-7665000D02*
X9591000Y-7665000D01*
D13*
X8249320Y-5727000D02*
X8389320Y-5867000D01*
X8389320Y-5727000D02*
X8249320Y-5867000D01*
X8368818Y-5846498D02*
X8368818Y-5747502D01*
X8269822Y-5747502D01*
X8269822Y-5846498D01*
X8368818Y-5846498D01*
X8249320Y-5977500D02*
X8389320Y-6117500D01*
X8389320Y-5977500D02*
X8249320Y-6117500D01*
X8368818Y-6096998D02*
X8368818Y-5998002D01*
X8269822Y-5998002D01*
X8269822Y-6096998D01*
X8368818Y-6096998D01*
X8249320Y-6222420D02*
X8389320Y-6362420D01*
X8389320Y-6222420D02*
X8249320Y-6362420D01*
X8368818Y-6341918D02*
X8368818Y-6242922D01*
X8269822Y-6242922D01*
X8269822Y-6341918D01*
X8368818Y-6341918D01*
X8249320Y-6477500D02*
X8389320Y-6617500D01*
X8389320Y-6477500D02*
X8249320Y-6617500D01*
X8368818Y-6596998D02*
X8368818Y-6498002D01*
X8269822Y-6498002D01*
X8269822Y-6596998D01*
X8368818Y-6596998D01*
X8249320Y-6728000D02*
X8389320Y-6868000D01*
X8389320Y-6728000D02*
X8249320Y-6868000D01*
X8368818Y-6847498D02*
X8368818Y-6748502D01*
X8269822Y-6748502D01*
X8269822Y-6847498D01*
X8368818Y-6847498D01*
X9250000Y-5477000D02*
X9390000Y-5617000D01*
X9390000Y-5477000D02*
X9250000Y-5617000D01*
X9369498Y-5596498D02*
X9369498Y-5497502D01*
X9270502Y-5497502D01*
X9270502Y-5596498D01*
X9369498Y-5596498D01*
X9250000Y-6227500D02*
X9390000Y-6367500D01*
X9390000Y-6227500D02*
X9250000Y-6367500D01*
X9369498Y-6346998D02*
X9369498Y-6248002D01*
X9270502Y-6248002D01*
X9270502Y-6346998D01*
X9369498Y-6346998D01*
X9250000Y-6978000D02*
X9390000Y-7118000D01*
X9390000Y-6978000D02*
X9250000Y-7118000D01*
X9369498Y-7097498D02*
X9369498Y-6998502D01*
X9270502Y-6998502D01*
X9270502Y-7097498D01*
X9369498Y-7097498D01*
X9499000Y-5727000D02*
X9639000Y-5867000D01*
X9639000Y-5727000D02*
X9499000Y-5867000D01*
X9618498Y-5846498D02*
X9618498Y-5747502D01*
X9519502Y-5747502D01*
X9519502Y-5846498D01*
X9618498Y-5846498D01*
X9499000Y-6728000D02*
X9639000Y-6868000D01*
X9639000Y-6728000D02*
X9499000Y-6868000D01*
X9618498Y-6847498D02*
X9618498Y-6748502D01*
X9519502Y-6748502D01*
X9519502Y-6847498D01*
X9618498Y-6847498D01*
D11*
X8325777Y-8209484D02*
X8325777Y-8009484D01*
X8325777Y-8009484D02*
X8373396Y-8009484D01*
X8373396Y-8009484D02*
X8401967Y-8019008D01*
X8401967Y-8019008D02*
X8421015Y-8038055D01*
X8421015Y-8038055D02*
X8430539Y-8057103D01*
X8430539Y-8057103D02*
X8440063Y-8095198D01*
X8440063Y-8095198D02*
X8440063Y-8123769D01*
X8440063Y-8123769D02*
X8430539Y-8161865D01*
X8430539Y-8161865D02*
X8421015Y-8180912D01*
X8421015Y-8180912D02*
X8401967Y-8199960D01*
X8401967Y-8199960D02*
X8373396Y-8209484D01*
X8373396Y-8209484D02*
X8325777Y-8209484D01*
X8525777Y-8209484D02*
X8525777Y-8076150D01*
X8525777Y-8114246D02*
X8535301Y-8095198D01*
X8535301Y-8095198D02*
X8544824Y-8085674D01*
X8544824Y-8085674D02*
X8563872Y-8076150D01*
X8563872Y-8076150D02*
X8582920Y-8076150D01*
X8649586Y-8209484D02*
X8649586Y-8076150D01*
X8649586Y-8009484D02*
X8640063Y-8019008D01*
X8640063Y-8019008D02*
X8649586Y-8028531D01*
X8649586Y-8028531D02*
X8659110Y-8019008D01*
X8659110Y-8019008D02*
X8649586Y-8009484D01*
X8649586Y-8009484D02*
X8649586Y-8028531D01*
X8773396Y-8209484D02*
X8754348Y-8199960D01*
X8754348Y-8199960D02*
X8744824Y-8180912D01*
X8744824Y-8180912D02*
X8744824Y-8009484D01*
X8878158Y-8209484D02*
X8859110Y-8199960D01*
X8859110Y-8199960D02*
X8849586Y-8180912D01*
X8849586Y-8180912D02*
X8849586Y-8009484D01*
X9106729Y-8209484D02*
X9106729Y-8009484D01*
X9106729Y-8009484D02*
X9173396Y-8152341D01*
X9173396Y-8152341D02*
X9240063Y-8009484D01*
X9240063Y-8009484D02*
X9240063Y-8209484D01*
X9421015Y-8209484D02*
X9421015Y-8104722D01*
X9421015Y-8104722D02*
X9411491Y-8085674D01*
X9411491Y-8085674D02*
X9392444Y-8076150D01*
X9392444Y-8076150D02*
X9354348Y-8076150D01*
X9354348Y-8076150D02*
X9335301Y-8085674D01*
X9421015Y-8199960D02*
X9401967Y-8209484D01*
X9401967Y-8209484D02*
X9354348Y-8209484D01*
X9354348Y-8209484D02*
X9335301Y-8199960D01*
X9335301Y-8199960D02*
X9325777Y-8180912D01*
X9325777Y-8180912D02*
X9325777Y-8161865D01*
X9325777Y-8161865D02*
X9335301Y-8142817D01*
X9335301Y-8142817D02*
X9354348Y-8133293D01*
X9354348Y-8133293D02*
X9401967Y-8133293D01*
X9401967Y-8133293D02*
X9421015Y-8123769D01*
X9516253Y-8076150D02*
X9516253Y-8276150D01*
X9516253Y-8085674D02*
X9535301Y-8076150D01*
X9535301Y-8076150D02*
X9573396Y-8076150D01*
X9573396Y-8076150D02*
X9592444Y-8085674D01*
X9592444Y-8085674D02*
X9601967Y-8095198D01*
X9601967Y-8095198D02*
X9611491Y-8114246D01*
X9611491Y-8114246D02*
X9611491Y-8171388D01*
X9611491Y-8171388D02*
X9601967Y-8190436D01*
X9601967Y-8190436D02*
X9592444Y-8199960D01*
X9592444Y-8199960D02*
X9573396Y-8209484D01*
X9573396Y-8209484D02*
X9535301Y-8209484D01*
X9535301Y-8209484D02*
X9516253Y-8199960D01*
X9697205Y-8190436D02*
X9706729Y-8199960D01*
X9706729Y-8199960D02*
X9697205Y-8209484D01*
X9697205Y-8209484D02*
X9687682Y-8199960D01*
X9687682Y-8199960D02*
X9697205Y-8190436D01*
X9697205Y-8190436D02*
X9697205Y-8209484D01*
X9697205Y-8085674D02*
X9706729Y-8095198D01*
X9706729Y-8095198D02*
X9697205Y-8104722D01*
X9697205Y-8104722D02*
X9687682Y-8095198D01*
X9687682Y-8095198D02*
X9697205Y-8085674D01*
X9697205Y-8085674D02*
X9697205Y-8104722D01*
D10*
X8025000Y-8518000D02*
X8065000Y-8558000D01*
X8065000Y-8518000D02*
X8025000Y-8558000D01*
D11*
X8363872Y-8429484D02*
X8382920Y-8429484D01*
X8382920Y-8429484D02*
X8401967Y-8439008D01*
X8401967Y-8439008D02*
X8411491Y-8448531D01*
X8411491Y-8448531D02*
X8421015Y-8467579D01*
X8421015Y-8467579D02*
X8430539Y-8505674D01*
X8430539Y-8505674D02*
X8430539Y-8553293D01*
X8430539Y-8553293D02*
X8421015Y-8591389D01*
X8421015Y-8591389D02*
X8411491Y-8610436D01*
X8411491Y-8610436D02*
X8401967Y-8619960D01*
X8401967Y-8619960D02*
X8382920Y-8629484D01*
X8382920Y-8629484D02*
X8363872Y-8629484D01*
X8363872Y-8629484D02*
X8344824Y-8619960D01*
X8344824Y-8619960D02*
X8335301Y-8610436D01*
X8335301Y-8610436D02*
X8325777Y-8591389D01*
X8325777Y-8591389D02*
X8316253Y-8553293D01*
X8316253Y-8553293D02*
X8316253Y-8505674D01*
X8316253Y-8505674D02*
X8325777Y-8467579D01*
X8325777Y-8467579D02*
X8335301Y-8448531D01*
X8335301Y-8448531D02*
X8344824Y-8439008D01*
X8344824Y-8439008D02*
X8363872Y-8429484D01*
X8516253Y-8610436D02*
X8525777Y-8619960D01*
X8525777Y-8619960D02*
X8516253Y-8629484D01*
X8516253Y-8629484D02*
X8506729Y-8619960D01*
X8506729Y-8619960D02*
X8516253Y-8610436D01*
X8516253Y-8610436D02*
X8516253Y-8629484D01*
X8697205Y-8496150D02*
X8697205Y-8629484D01*
X8649586Y-8419960D02*
X8601967Y-8562817D01*
X8601967Y-8562817D02*
X8725777Y-8562817D01*
X8840063Y-8429484D02*
X8859110Y-8429484D01*
X8859110Y-8429484D02*
X8878158Y-8439008D01*
X8878158Y-8439008D02*
X8887682Y-8448531D01*
X8887682Y-8448531D02*
X8897205Y-8467579D01*
X8897205Y-8467579D02*
X8906729Y-8505674D01*
X8906729Y-8505674D02*
X8906729Y-8553293D01*
X8906729Y-8553293D02*
X8897205Y-8591389D01*
X8897205Y-8591389D02*
X8887682Y-8610436D01*
X8887682Y-8610436D02*
X8878158Y-8619960D01*
X8878158Y-8619960D02*
X8859110Y-8629484D01*
X8859110Y-8629484D02*
X8840063Y-8629484D01*
X8840063Y-8629484D02*
X8821015Y-8619960D01*
X8821015Y-8619960D02*
X8811491Y-8610436D01*
X8811491Y-8610436D02*
X8801967Y-8591389D01*
X8801967Y-8591389D02*
X8792444Y-8553293D01*
X8792444Y-8553293D02*
X8792444Y-8505674D01*
X8792444Y-8505674D02*
X8801967Y-8467579D01*
X8801967Y-8467579D02*
X8811491Y-8448531D01*
X8811491Y-8448531D02*
X8821015Y-8439008D01*
X8821015Y-8439008D02*
X8840063Y-8429484D01*
X9030539Y-8429484D02*
X9049586Y-8429484D01*
X9049586Y-8429484D02*
X9068634Y-8439008D01*
X9068634Y-8439008D02*
X9078158Y-8448531D01*
X9078158Y-8448531D02*
X9087682Y-8467579D01*
X9087682Y-8467579D02*
X9097205Y-8505674D01*
X9097205Y-8505674D02*
X9097205Y-8553293D01*
X9097205Y-8553293D02*
X9087682Y-8591389D01*
X9087682Y-8591389D02*
X9078158Y-8610436D01*
X9078158Y-8610436D02*
X9068634Y-8619960D01*
X9068634Y-8619960D02*
X9049586Y-8629484D01*
X9049586Y-8629484D02*
X9030539Y-8629484D01*
X9030539Y-8629484D02*
X9011491Y-8619960D01*
X9011491Y-8619960D02*
X9001967Y-8610436D01*
X9001967Y-8610436D02*
X8992444Y-8591389D01*
X8992444Y-8591389D02*
X8982920Y-8553293D01*
X8982920Y-8553293D02*
X8982920Y-8505674D01*
X8982920Y-8505674D02*
X8992444Y-8467579D01*
X8992444Y-8467579D02*
X9001967Y-8448531D01*
X9001967Y-8448531D02*
X9011491Y-8439008D01*
X9011491Y-8439008D02*
X9030539Y-8429484D01*
X9182920Y-8629484D02*
X9182920Y-8496150D01*
X9182920Y-8515198D02*
X9192444Y-8505674D01*
X9192444Y-8505674D02*
X9211491Y-8496150D01*
X9211491Y-8496150D02*
X9240063Y-8496150D01*
X9240063Y-8496150D02*
X9259110Y-8505674D01*
X9259110Y-8505674D02*
X9268634Y-8524722D01*
X9268634Y-8524722D02*
X9268634Y-8629484D01*
X9268634Y-8524722D02*
X9278158Y-8505674D01*
X9278158Y-8505674D02*
X9297205Y-8496150D01*
X9297205Y-8496150D02*
X9325777Y-8496150D01*
X9325777Y-8496150D02*
X9344825Y-8505674D01*
X9344825Y-8505674D02*
X9354348Y-8524722D01*
X9354348Y-8524722D02*
X9354348Y-8629484D01*
X9449586Y-8629484D02*
X9449586Y-8496150D01*
X9449586Y-8515198D02*
X9459110Y-8505674D01*
X9459110Y-8505674D02*
X9478158Y-8496150D01*
X9478158Y-8496150D02*
X9506729Y-8496150D01*
X9506729Y-8496150D02*
X9525777Y-8505674D01*
X9525777Y-8505674D02*
X9535301Y-8524722D01*
X9535301Y-8524722D02*
X9535301Y-8629484D01*
X9535301Y-8524722D02*
X9544825Y-8505674D01*
X9544825Y-8505674D02*
X9563872Y-8496150D01*
X9563872Y-8496150D02*
X9592444Y-8496150D01*
X9592444Y-8496150D02*
X9611491Y-8505674D01*
X9611491Y-8505674D02*
X9621015Y-8524722D01*
X9621015Y-8524722D02*
X9621015Y-8629484D01*
X10011491Y-8419960D02*
X9840063Y-8677103D01*
X10268634Y-8429484D02*
X10287682Y-8429484D01*
X10287682Y-8429484D02*
X10306729Y-8439008D01*
X10306729Y-8439008D02*
X10316253Y-8448531D01*
X10316253Y-8448531D02*
X10325777Y-8467579D01*
X10325777Y-8467579D02*
X10335301Y-8505674D01*
X10335301Y-8505674D02*
X10335301Y-8553293D01*
X10335301Y-8553293D02*
X10325777Y-8591389D01*
X10325777Y-8591389D02*
X10316253Y-8610436D01*
X10316253Y-8610436D02*
X10306729Y-8619960D01*
X10306729Y-8619960D02*
X10287682Y-8629484D01*
X10287682Y-8629484D02*
X10268634Y-8629484D01*
X10268634Y-8629484D02*
X10249587Y-8619960D01*
X10249587Y-8619960D02*
X10240063Y-8610436D01*
X10240063Y-8610436D02*
X10230539Y-8591389D01*
X10230539Y-8591389D02*
X10221015Y-8553293D01*
X10221015Y-8553293D02*
X10221015Y-8505674D01*
X10221015Y-8505674D02*
X10230539Y-8467579D01*
X10230539Y-8467579D02*
X10240063Y-8448531D01*
X10240063Y-8448531D02*
X10249587Y-8439008D01*
X10249587Y-8439008D02*
X10268634Y-8429484D01*
X10421015Y-8610436D02*
X10430539Y-8619960D01*
X10430539Y-8619960D02*
X10421015Y-8629484D01*
X10421015Y-8629484D02*
X10411491Y-8619960D01*
X10411491Y-8619960D02*
X10421015Y-8610436D01*
X10421015Y-8610436D02*
X10421015Y-8629484D01*
X10554348Y-8429484D02*
X10573396Y-8429484D01*
X10573396Y-8429484D02*
X10592444Y-8439008D01*
X10592444Y-8439008D02*
X10601968Y-8448531D01*
X10601968Y-8448531D02*
X10611491Y-8467579D01*
X10611491Y-8467579D02*
X10621015Y-8505674D01*
X10621015Y-8505674D02*
X10621015Y-8553293D01*
X10621015Y-8553293D02*
X10611491Y-8591389D01*
X10611491Y-8591389D02*
X10601968Y-8610436D01*
X10601968Y-8610436D02*
X10592444Y-8619960D01*
X10592444Y-8619960D02*
X10573396Y-8629484D01*
X10573396Y-8629484D02*
X10554348Y-8629484D01*
X10554348Y-8629484D02*
X10535301Y-8619960D01*
X10535301Y-8619960D02*
X10525777Y-8610436D01*
X10525777Y-8610436D02*
X10516253Y-8591389D01*
X10516253Y-8591389D02*
X10506729Y-8553293D01*
X10506729Y-8553293D02*
X10506729Y-8505674D01*
X10506729Y-8505674D02*
X10516253Y-8467579D01*
X10516253Y-8467579D02*
X10525777Y-8448531D01*
X10525777Y-8448531D02*
X10535301Y-8439008D01*
X10535301Y-8439008D02*
X10554348Y-8429484D01*
X10811491Y-8629484D02*
X10697206Y-8629484D01*
X10754348Y-8629484D02*
X10754348Y-8429484D01*
X10754348Y-8429484D02*
X10735301Y-8458055D01*
X10735301Y-8458055D02*
X10716253Y-8477103D01*
X10716253Y-8477103D02*
X10697206Y-8486627D01*
X10992444Y-8429484D02*
X10897206Y-8429484D01*
X10897206Y-8429484D02*
X10887682Y-8524722D01*
X10887682Y-8524722D02*
X10897206Y-8515198D01*
X10897206Y-8515198D02*
X10916253Y-8505674D01*
X10916253Y-8505674D02*
X10963872Y-8505674D01*
X10963872Y-8505674D02*
X10982920Y-8515198D01*
X10982920Y-8515198D02*
X10992444Y-8524722D01*
X10992444Y-8524722D02*
X11001968Y-8543770D01*
X11001968Y-8543770D02*
X11001968Y-8591389D01*
X11001968Y-8591389D02*
X10992444Y-8610436D01*
X10992444Y-8610436D02*
X10982920Y-8619960D01*
X10982920Y-8619960D02*
X10963872Y-8629484D01*
X10963872Y-8629484D02*
X10916253Y-8629484D01*
X10916253Y-8629484D02*
X10897206Y-8619960D01*
X10897206Y-8619960D02*
X10887682Y-8610436D01*
X11068634Y-8429484D02*
X11201967Y-8429484D01*
X11201967Y-8429484D02*
X11116253Y-8629484D01*
X11268634Y-8429484D02*
X11268634Y-8467579D01*
X11344825Y-8429484D02*
X11344825Y-8467579D01*
X11640063Y-8705674D02*
X11630539Y-8696150D01*
X11630539Y-8696150D02*
X11611491Y-8667579D01*
X11611491Y-8667579D02*
X11601968Y-8648531D01*
X11601968Y-8648531D02*
X11592444Y-8619960D01*
X11592444Y-8619960D02*
X11582920Y-8572341D01*
X11582920Y-8572341D02*
X11582920Y-8534246D01*
X11582920Y-8534246D02*
X11592444Y-8486627D01*
X11592444Y-8486627D02*
X11601968Y-8458055D01*
X11601968Y-8458055D02*
X11611491Y-8439008D01*
X11611491Y-8439008D02*
X11630539Y-8410436D01*
X11630539Y-8410436D02*
X11640063Y-8400912D01*
X11821015Y-8629484D02*
X11706729Y-8629484D01*
X11763872Y-8629484D02*
X11763872Y-8429484D01*
X11763872Y-8429484D02*
X11744825Y-8458055D01*
X11744825Y-8458055D02*
X11725777Y-8477103D01*
X11725777Y-8477103D02*
X11706729Y-8486627D01*
X12059110Y-8629484D02*
X12059110Y-8429484D01*
X12144825Y-8629484D02*
X12144825Y-8524722D01*
X12144825Y-8524722D02*
X12135301Y-8505674D01*
X12135301Y-8505674D02*
X12116253Y-8496150D01*
X12116253Y-8496150D02*
X12087682Y-8496150D01*
X12087682Y-8496150D02*
X12068634Y-8505674D01*
X12068634Y-8505674D02*
X12059110Y-8515198D01*
X12268634Y-8629484D02*
X12249587Y-8619960D01*
X12249587Y-8619960D02*
X12240063Y-8610436D01*
X12240063Y-8610436D02*
X12230539Y-8591389D01*
X12230539Y-8591389D02*
X12230539Y-8534246D01*
X12230539Y-8534246D02*
X12240063Y-8515198D01*
X12240063Y-8515198D02*
X12249587Y-8505674D01*
X12249587Y-8505674D02*
X12268634Y-8496150D01*
X12268634Y-8496150D02*
X12297206Y-8496150D01*
X12297206Y-8496150D02*
X12316253Y-8505674D01*
X12316253Y-8505674D02*
X12325777Y-8515198D01*
X12325777Y-8515198D02*
X12335301Y-8534246D01*
X12335301Y-8534246D02*
X12335301Y-8591389D01*
X12335301Y-8591389D02*
X12325777Y-8610436D01*
X12325777Y-8610436D02*
X12316253Y-8619960D01*
X12316253Y-8619960D02*
X12297206Y-8629484D01*
X12297206Y-8629484D02*
X12268634Y-8629484D01*
X12449587Y-8629484D02*
X12430539Y-8619960D01*
X12430539Y-8619960D02*
X12421015Y-8600912D01*
X12421015Y-8600912D02*
X12421015Y-8429484D01*
X12601968Y-8619960D02*
X12582920Y-8629484D01*
X12582920Y-8629484D02*
X12544825Y-8629484D01*
X12544825Y-8629484D02*
X12525777Y-8619960D01*
X12525777Y-8619960D02*
X12516253Y-8600912D01*
X12516253Y-8600912D02*
X12516253Y-8524722D01*
X12516253Y-8524722D02*
X12525777Y-8505674D01*
X12525777Y-8505674D02*
X12544825Y-8496150D01*
X12544825Y-8496150D02*
X12582920Y-8496150D01*
X12582920Y-8496150D02*
X12601968Y-8505674D01*
X12601968Y-8505674D02*
X12611491Y-8524722D01*
X12611491Y-8524722D02*
X12611491Y-8543770D01*
X12611491Y-8543770D02*
X12516253Y-8562817D01*
X12678158Y-8705674D02*
X12687682Y-8696150D01*
X12687682Y-8696150D02*
X12706730Y-8667579D01*
X12706730Y-8667579D02*
X12716253Y-8648531D01*
X12716253Y-8648531D02*
X12725777Y-8619960D01*
X12725777Y-8619960D02*
X12735301Y-8572341D01*
X12735301Y-8572341D02*
X12735301Y-8534246D01*
X12735301Y-8534246D02*
X12725777Y-8486627D01*
X12725777Y-8486627D02*
X12716253Y-8458055D01*
X12716253Y-8458055D02*
X12706730Y-8439008D01*
X12706730Y-8439008D02*
X12687682Y-8410436D01*
X12687682Y-8410436D02*
X12678158Y-8400912D01*
D10*
X8065000Y-8802000D02*
G75*
G02*
X8005000Y-8802000I-30000J0D01*
G01*
X8005000Y-8802000D02*
G75*
G02*
X8065000Y-8802000I30000J0D01*
G01*
D11*
X8363872Y-8693484D02*
X8382920Y-8693484D01*
X8382920Y-8693484D02*
X8401967Y-8703008D01*
X8401967Y-8703008D02*
X8411491Y-8712531D01*
X8411491Y-8712531D02*
X8421015Y-8731579D01*
X8421015Y-8731579D02*
X8430539Y-8769674D01*
X8430539Y-8769674D02*
X8430539Y-8817293D01*
X8430539Y-8817293D02*
X8421015Y-8855389D01*
X8421015Y-8855389D02*
X8411491Y-8874436D01*
X8411491Y-8874436D02*
X8401967Y-8883960D01*
X8401967Y-8883960D02*
X8382920Y-8893484D01*
X8382920Y-8893484D02*
X8363872Y-8893484D01*
X8363872Y-8893484D02*
X8344824Y-8883960D01*
X8344824Y-8883960D02*
X8335301Y-8874436D01*
X8335301Y-8874436D02*
X8325777Y-8855389D01*
X8325777Y-8855389D02*
X8316253Y-8817293D01*
X8316253Y-8817293D02*
X8316253Y-8769674D01*
X8316253Y-8769674D02*
X8325777Y-8731579D01*
X8325777Y-8731579D02*
X8335301Y-8712531D01*
X8335301Y-8712531D02*
X8344824Y-8703008D01*
X8344824Y-8703008D02*
X8363872Y-8693484D01*
X8516253Y-8874436D02*
X8525777Y-8883960D01*
X8525777Y-8883960D02*
X8516253Y-8893484D01*
X8516253Y-8893484D02*
X8506729Y-8883960D01*
X8506729Y-8883960D02*
X8516253Y-8874436D01*
X8516253Y-8874436D02*
X8516253Y-8893484D01*
X8697205Y-8693484D02*
X8659110Y-8693484D01*
X8659110Y-8693484D02*
X8640063Y-8703008D01*
X8640063Y-8703008D02*
X8630539Y-8712531D01*
X8630539Y-8712531D02*
X8611491Y-8741103D01*
X8611491Y-8741103D02*
X8601967Y-8779198D01*
X8601967Y-8779198D02*
X8601967Y-8855389D01*
X8601967Y-8855389D02*
X8611491Y-8874436D01*
X8611491Y-8874436D02*
X8621015Y-8883960D01*
X8621015Y-8883960D02*
X8640063Y-8893484D01*
X8640063Y-8893484D02*
X8678158Y-8893484D01*
X8678158Y-8893484D02*
X8697205Y-8883960D01*
X8697205Y-8883960D02*
X8706729Y-8874436D01*
X8706729Y-8874436D02*
X8716253Y-8855389D01*
X8716253Y-8855389D02*
X8716253Y-8807770D01*
X8716253Y-8807770D02*
X8706729Y-8788722D01*
X8706729Y-8788722D02*
X8697205Y-8779198D01*
X8697205Y-8779198D02*
X8678158Y-8769674D01*
X8678158Y-8769674D02*
X8640063Y-8769674D01*
X8640063Y-8769674D02*
X8621015Y-8779198D01*
X8621015Y-8779198D02*
X8611491Y-8788722D01*
X8611491Y-8788722D02*
X8601967Y-8807770D01*
X8840063Y-8693484D02*
X8859110Y-8693484D01*
X8859110Y-8693484D02*
X8878158Y-8703008D01*
X8878158Y-8703008D02*
X8887682Y-8712531D01*
X8887682Y-8712531D02*
X8897205Y-8731579D01*
X8897205Y-8731579D02*
X8906729Y-8769674D01*
X8906729Y-8769674D02*
X8906729Y-8817293D01*
X8906729Y-8817293D02*
X8897205Y-8855389D01*
X8897205Y-8855389D02*
X8887682Y-8874436D01*
X8887682Y-8874436D02*
X8878158Y-8883960D01*
X8878158Y-8883960D02*
X8859110Y-8893484D01*
X8859110Y-8893484D02*
X8840063Y-8893484D01*
X8840063Y-8893484D02*
X8821015Y-8883960D01*
X8821015Y-8883960D02*
X8811491Y-8874436D01*
X8811491Y-8874436D02*
X8801967Y-8855389D01*
X8801967Y-8855389D02*
X8792444Y-8817293D01*
X8792444Y-8817293D02*
X8792444Y-8769674D01*
X8792444Y-8769674D02*
X8801967Y-8731579D01*
X8801967Y-8731579D02*
X8811491Y-8712531D01*
X8811491Y-8712531D02*
X8821015Y-8703008D01*
X8821015Y-8703008D02*
X8840063Y-8693484D01*
X9030539Y-8693484D02*
X9049586Y-8693484D01*
X9049586Y-8693484D02*
X9068634Y-8703008D01*
X9068634Y-8703008D02*
X9078158Y-8712531D01*
X9078158Y-8712531D02*
X9087682Y-8731579D01*
X9087682Y-8731579D02*
X9097205Y-8769674D01*
X9097205Y-8769674D02*
X9097205Y-8817293D01*
X9097205Y-8817293D02*
X9087682Y-8855389D01*
X9087682Y-8855389D02*
X9078158Y-8874436D01*
X9078158Y-8874436D02*
X9068634Y-8883960D01*
X9068634Y-8883960D02*
X9049586Y-8893484D01*
X9049586Y-8893484D02*
X9030539Y-8893484D01*
X9030539Y-8893484D02*
X9011491Y-8883960D01*
X9011491Y-8883960D02*
X9001967Y-8874436D01*
X9001967Y-8874436D02*
X8992444Y-8855389D01*
X8992444Y-8855389D02*
X8982920Y-8817293D01*
X8982920Y-8817293D02*
X8982920Y-8769674D01*
X8982920Y-8769674D02*
X8992444Y-8731579D01*
X8992444Y-8731579D02*
X9001967Y-8712531D01*
X9001967Y-8712531D02*
X9011491Y-8703008D01*
X9011491Y-8703008D02*
X9030539Y-8693484D01*
X9182920Y-8893484D02*
X9182920Y-8760150D01*
X9182920Y-8779198D02*
X9192444Y-8769674D01*
X9192444Y-8769674D02*
X9211491Y-8760150D01*
X9211491Y-8760150D02*
X9240063Y-8760150D01*
X9240063Y-8760150D02*
X9259110Y-8769674D01*
X9259110Y-8769674D02*
X9268634Y-8788722D01*
X9268634Y-8788722D02*
X9268634Y-8893484D01*
X9268634Y-8788722D02*
X9278158Y-8769674D01*
X9278158Y-8769674D02*
X9297205Y-8760150D01*
X9297205Y-8760150D02*
X9325777Y-8760150D01*
X9325777Y-8760150D02*
X9344825Y-8769674D01*
X9344825Y-8769674D02*
X9354348Y-8788722D01*
X9354348Y-8788722D02*
X9354348Y-8893484D01*
X9449586Y-8893484D02*
X9449586Y-8760150D01*
X9449586Y-8779198D02*
X9459110Y-8769674D01*
X9459110Y-8769674D02*
X9478158Y-8760150D01*
X9478158Y-8760150D02*
X9506729Y-8760150D01*
X9506729Y-8760150D02*
X9525777Y-8769674D01*
X9525777Y-8769674D02*
X9535301Y-8788722D01*
X9535301Y-8788722D02*
X9535301Y-8893484D01*
X9535301Y-8788722D02*
X9544825Y-8769674D01*
X9544825Y-8769674D02*
X9563872Y-8760150D01*
X9563872Y-8760150D02*
X9592444Y-8760150D01*
X9592444Y-8760150D02*
X9611491Y-8769674D01*
X9611491Y-8769674D02*
X9621015Y-8788722D01*
X9621015Y-8788722D02*
X9621015Y-8893484D01*
X10011491Y-8683960D02*
X9840063Y-8941103D01*
X10268634Y-8693484D02*
X10287682Y-8693484D01*
X10287682Y-8693484D02*
X10306729Y-8703008D01*
X10306729Y-8703008D02*
X10316253Y-8712531D01*
X10316253Y-8712531D02*
X10325777Y-8731579D01*
X10325777Y-8731579D02*
X10335301Y-8769674D01*
X10335301Y-8769674D02*
X10335301Y-8817293D01*
X10335301Y-8817293D02*
X10325777Y-8855389D01*
X10325777Y-8855389D02*
X10316253Y-8874436D01*
X10316253Y-8874436D02*
X10306729Y-8883960D01*
X10306729Y-8883960D02*
X10287682Y-8893484D01*
X10287682Y-8893484D02*
X10268634Y-8893484D01*
X10268634Y-8893484D02*
X10249587Y-8883960D01*
X10249587Y-8883960D02*
X10240063Y-8874436D01*
X10240063Y-8874436D02*
X10230539Y-8855389D01*
X10230539Y-8855389D02*
X10221015Y-8817293D01*
X10221015Y-8817293D02*
X10221015Y-8769674D01*
X10221015Y-8769674D02*
X10230539Y-8731579D01*
X10230539Y-8731579D02*
X10240063Y-8712531D01*
X10240063Y-8712531D02*
X10249587Y-8703008D01*
X10249587Y-8703008D02*
X10268634Y-8693484D01*
X10421015Y-8874436D02*
X10430539Y-8883960D01*
X10430539Y-8883960D02*
X10421015Y-8893484D01*
X10421015Y-8893484D02*
X10411491Y-8883960D01*
X10411491Y-8883960D02*
X10421015Y-8874436D01*
X10421015Y-8874436D02*
X10421015Y-8893484D01*
X10554348Y-8693484D02*
X10573396Y-8693484D01*
X10573396Y-8693484D02*
X10592444Y-8703008D01*
X10592444Y-8703008D02*
X10601968Y-8712531D01*
X10601968Y-8712531D02*
X10611491Y-8731579D01*
X10611491Y-8731579D02*
X10621015Y-8769674D01*
X10621015Y-8769674D02*
X10621015Y-8817293D01*
X10621015Y-8817293D02*
X10611491Y-8855389D01*
X10611491Y-8855389D02*
X10601968Y-8874436D01*
X10601968Y-8874436D02*
X10592444Y-8883960D01*
X10592444Y-8883960D02*
X10573396Y-8893484D01*
X10573396Y-8893484D02*
X10554348Y-8893484D01*
X10554348Y-8893484D02*
X10535301Y-8883960D01*
X10535301Y-8883960D02*
X10525777Y-8874436D01*
X10525777Y-8874436D02*
X10516253Y-8855389D01*
X10516253Y-8855389D02*
X10506729Y-8817293D01*
X10506729Y-8817293D02*
X10506729Y-8769674D01*
X10506729Y-8769674D02*
X10516253Y-8731579D01*
X10516253Y-8731579D02*
X10525777Y-8712531D01*
X10525777Y-8712531D02*
X10535301Y-8703008D01*
X10535301Y-8703008D02*
X10554348Y-8693484D01*
X10697206Y-8712531D02*
X10706729Y-8703008D01*
X10706729Y-8703008D02*
X10725777Y-8693484D01*
X10725777Y-8693484D02*
X10773396Y-8693484D01*
X10773396Y-8693484D02*
X10792444Y-8703008D01*
X10792444Y-8703008D02*
X10801968Y-8712531D01*
X10801968Y-8712531D02*
X10811491Y-8731579D01*
X10811491Y-8731579D02*
X10811491Y-8750627D01*
X10811491Y-8750627D02*
X10801968Y-8779198D01*
X10801968Y-8779198D02*
X10687682Y-8893484D01*
X10687682Y-8893484D02*
X10811491Y-8893484D01*
X10878158Y-8693484D02*
X11001968Y-8693484D01*
X11001968Y-8693484D02*
X10935301Y-8769674D01*
X10935301Y-8769674D02*
X10963872Y-8769674D01*
X10963872Y-8769674D02*
X10982920Y-8779198D01*
X10982920Y-8779198D02*
X10992444Y-8788722D01*
X10992444Y-8788722D02*
X11001968Y-8807770D01*
X11001968Y-8807770D02*
X11001968Y-8855389D01*
X11001968Y-8855389D02*
X10992444Y-8874436D01*
X10992444Y-8874436D02*
X10982920Y-8883960D01*
X10982920Y-8883960D02*
X10963872Y-8893484D01*
X10963872Y-8893484D02*
X10906729Y-8893484D01*
X10906729Y-8893484D02*
X10887682Y-8883960D01*
X10887682Y-8883960D02*
X10878158Y-8874436D01*
X11173396Y-8693484D02*
X11135301Y-8693484D01*
X11135301Y-8693484D02*
X11116253Y-8703008D01*
X11116253Y-8703008D02*
X11106729Y-8712531D01*
X11106729Y-8712531D02*
X11087682Y-8741103D01*
X11087682Y-8741103D02*
X11078158Y-8779198D01*
X11078158Y-8779198D02*
X11078158Y-8855389D01*
X11078158Y-8855389D02*
X11087682Y-8874436D01*
X11087682Y-8874436D02*
X11097206Y-8883960D01*
X11097206Y-8883960D02*
X11116253Y-8893484D01*
X11116253Y-8893484D02*
X11154349Y-8893484D01*
X11154349Y-8893484D02*
X11173396Y-8883960D01*
X11173396Y-8883960D02*
X11182920Y-8874436D01*
X11182920Y-8874436D02*
X11192444Y-8855389D01*
X11192444Y-8855389D02*
X11192444Y-8807770D01*
X11192444Y-8807770D02*
X11182920Y-8788722D01*
X11182920Y-8788722D02*
X11173396Y-8779198D01*
X11173396Y-8779198D02*
X11154349Y-8769674D01*
X11154349Y-8769674D02*
X11116253Y-8769674D01*
X11116253Y-8769674D02*
X11097206Y-8779198D01*
X11097206Y-8779198D02*
X11087682Y-8788722D01*
X11087682Y-8788722D02*
X11078158Y-8807770D01*
X11268634Y-8693484D02*
X11268634Y-8731579D01*
X11344825Y-8693484D02*
X11344825Y-8731579D01*
X11640063Y-8969674D02*
X11630539Y-8960150D01*
X11630539Y-8960150D02*
X11611491Y-8931579D01*
X11611491Y-8931579D02*
X11601968Y-8912531D01*
X11601968Y-8912531D02*
X11592444Y-8883960D01*
X11592444Y-8883960D02*
X11582920Y-8836341D01*
X11582920Y-8836341D02*
X11582920Y-8798246D01*
X11582920Y-8798246D02*
X11592444Y-8750627D01*
X11592444Y-8750627D02*
X11601968Y-8722055D01*
X11601968Y-8722055D02*
X11611491Y-8703008D01*
X11611491Y-8703008D02*
X11630539Y-8674436D01*
X11630539Y-8674436D02*
X11640063Y-8664912D01*
X11744825Y-8779198D02*
X11725777Y-8769674D01*
X11725777Y-8769674D02*
X11716253Y-8760150D01*
X11716253Y-8760150D02*
X11706729Y-8741103D01*
X11706729Y-8741103D02*
X11706729Y-8731579D01*
X11706729Y-8731579D02*
X11716253Y-8712531D01*
X11716253Y-8712531D02*
X11725777Y-8703008D01*
X11725777Y-8703008D02*
X11744825Y-8693484D01*
X11744825Y-8693484D02*
X11782920Y-8693484D01*
X11782920Y-8693484D02*
X11801968Y-8703008D01*
X11801968Y-8703008D02*
X11811491Y-8712531D01*
X11811491Y-8712531D02*
X11821015Y-8731579D01*
X11821015Y-8731579D02*
X11821015Y-8741103D01*
X11821015Y-8741103D02*
X11811491Y-8760150D01*
X11811491Y-8760150D02*
X11801968Y-8769674D01*
X11801968Y-8769674D02*
X11782920Y-8779198D01*
X11782920Y-8779198D02*
X11744825Y-8779198D01*
X11744825Y-8779198D02*
X11725777Y-8788722D01*
X11725777Y-8788722D02*
X11716253Y-8798246D01*
X11716253Y-8798246D02*
X11706729Y-8817293D01*
X11706729Y-8817293D02*
X11706729Y-8855389D01*
X11706729Y-8855389D02*
X11716253Y-8874436D01*
X11716253Y-8874436D02*
X11725777Y-8883960D01*
X11725777Y-8883960D02*
X11744825Y-8893484D01*
X11744825Y-8893484D02*
X11782920Y-8893484D01*
X11782920Y-8893484D02*
X11801968Y-8883960D01*
X11801968Y-8883960D02*
X11811491Y-8874436D01*
X11811491Y-8874436D02*
X11821015Y-8855389D01*
X11821015Y-8855389D02*
X11821015Y-8817293D01*
X11821015Y-8817293D02*
X11811491Y-8798246D01*
X11811491Y-8798246D02*
X11801968Y-8788722D01*
X11801968Y-8788722D02*
X11782920Y-8779198D01*
X12059110Y-8893484D02*
X12059110Y-8693484D01*
X12144825Y-8893484D02*
X12144825Y-8788722D01*
X12144825Y-8788722D02*
X12135301Y-8769674D01*
X12135301Y-8769674D02*
X12116253Y-8760150D01*
X12116253Y-8760150D02*
X12087682Y-8760150D01*
X12087682Y-8760150D02*
X12068634Y-8769674D01*
X12068634Y-8769674D02*
X12059110Y-8779198D01*
X12268634Y-8893484D02*
X12249587Y-8883960D01*
X12249587Y-8883960D02*
X12240063Y-8874436D01*
X12240063Y-8874436D02*
X12230539Y-8855389D01*
X12230539Y-8855389D02*
X12230539Y-8798246D01*
X12230539Y-8798246D02*
X12240063Y-8779198D01*
X12240063Y-8779198D02*
X12249587Y-8769674D01*
X12249587Y-8769674D02*
X12268634Y-8760150D01*
X12268634Y-8760150D02*
X12297206Y-8760150D01*
X12297206Y-8760150D02*
X12316253Y-8769674D01*
X12316253Y-8769674D02*
X12325777Y-8779198D01*
X12325777Y-8779198D02*
X12335301Y-8798246D01*
X12335301Y-8798246D02*
X12335301Y-8855389D01*
X12335301Y-8855389D02*
X12325777Y-8874436D01*
X12325777Y-8874436D02*
X12316253Y-8883960D01*
X12316253Y-8883960D02*
X12297206Y-8893484D01*
X12297206Y-8893484D02*
X12268634Y-8893484D01*
X12449587Y-8893484D02*
X12430539Y-8883960D01*
X12430539Y-8883960D02*
X12421015Y-8864912D01*
X12421015Y-8864912D02*
X12421015Y-8693484D01*
X12601968Y-8883960D02*
X12582920Y-8893484D01*
X12582920Y-8893484D02*
X12544825Y-8893484D01*
X12544825Y-8893484D02*
X12525777Y-8883960D01*
X12525777Y-8883960D02*
X12516253Y-8864912D01*
X12516253Y-8864912D02*
X12516253Y-8788722D01*
X12516253Y-8788722D02*
X12525777Y-8769674D01*
X12525777Y-8769674D02*
X12544825Y-8760150D01*
X12544825Y-8760150D02*
X12582920Y-8760150D01*
X12582920Y-8760150D02*
X12601968Y-8769674D01*
X12601968Y-8769674D02*
X12611491Y-8788722D01*
X12611491Y-8788722D02*
X12611491Y-8807770D01*
X12611491Y-8807770D02*
X12516253Y-8826817D01*
X12687682Y-8883960D02*
X12706730Y-8893484D01*
X12706730Y-8893484D02*
X12744825Y-8893484D01*
X12744825Y-8893484D02*
X12763872Y-8883960D01*
X12763872Y-8883960D02*
X12773396Y-8864912D01*
X12773396Y-8864912D02*
X12773396Y-8855389D01*
X12773396Y-8855389D02*
X12763872Y-8836341D01*
X12763872Y-8836341D02*
X12744825Y-8826817D01*
X12744825Y-8826817D02*
X12716253Y-8826817D01*
X12716253Y-8826817D02*
X12697206Y-8817293D01*
X12697206Y-8817293D02*
X12687682Y-8798246D01*
X12687682Y-8798246D02*
X12687682Y-8788722D01*
X12687682Y-8788722D02*
X12697206Y-8769674D01*
X12697206Y-8769674D02*
X12716253Y-8760150D01*
X12716253Y-8760150D02*
X12744825Y-8760150D01*
X12744825Y-8760150D02*
X12763872Y-8769674D01*
X12840063Y-8969674D02*
X12849587Y-8960150D01*
X12849587Y-8960150D02*
X12868634Y-8931579D01*
X12868634Y-8931579D02*
X12878158Y-8912531D01*
X12878158Y-8912531D02*
X12887682Y-8883960D01*
X12887682Y-8883960D02*
X12897206Y-8836341D01*
X12897206Y-8836341D02*
X12897206Y-8798246D01*
X12897206Y-8798246D02*
X12887682Y-8750627D01*
X12887682Y-8750627D02*
X12878158Y-8722055D01*
X12878158Y-8722055D02*
X12868634Y-8703008D01*
X12868634Y-8703008D02*
X12849587Y-8674436D01*
X12849587Y-8674436D02*
X12840063Y-8664912D01*
D10*
X8030000Y-9031000D02*
X8030000Y-9101000D01*
X7995000Y-9066000D02*
X8065000Y-9066000D01*
D11*
X8363872Y-8957484D02*
X8382920Y-8957484D01*
X8382920Y-8957484D02*
X8401967Y-8967008D01*
X8401967Y-8967008D02*
X8411491Y-8976531D01*
X8411491Y-8976531D02*
X8421015Y-8995579D01*
X8421015Y-8995579D02*
X8430539Y-9033674D01*
X8430539Y-9033674D02*
X8430539Y-9081293D01*
X8430539Y-9081293D02*
X8421015Y-9119389D01*
X8421015Y-9119389D02*
X8411491Y-9138436D01*
X8411491Y-9138436D02*
X8401967Y-9147960D01*
X8401967Y-9147960D02*
X8382920Y-9157484D01*
X8382920Y-9157484D02*
X8363872Y-9157484D01*
X8363872Y-9157484D02*
X8344824Y-9147960D01*
X8344824Y-9147960D02*
X8335301Y-9138436D01*
X8335301Y-9138436D02*
X8325777Y-9119389D01*
X8325777Y-9119389D02*
X8316253Y-9081293D01*
X8316253Y-9081293D02*
X8316253Y-9033674D01*
X8316253Y-9033674D02*
X8325777Y-8995579D01*
X8325777Y-8995579D02*
X8335301Y-8976531D01*
X8335301Y-8976531D02*
X8344824Y-8967008D01*
X8344824Y-8967008D02*
X8363872Y-8957484D01*
X8516253Y-9138436D02*
X8525777Y-9147960D01*
X8525777Y-9147960D02*
X8516253Y-9157484D01*
X8516253Y-9157484D02*
X8506729Y-9147960D01*
X8506729Y-9147960D02*
X8516253Y-9138436D01*
X8516253Y-9138436D02*
X8516253Y-9157484D01*
X8592444Y-8957484D02*
X8725777Y-8957484D01*
X8725777Y-8957484D02*
X8640063Y-9157484D01*
X8840063Y-8957484D02*
X8859110Y-8957484D01*
X8859110Y-8957484D02*
X8878158Y-8967008D01*
X8878158Y-8967008D02*
X8887682Y-8976531D01*
X8887682Y-8976531D02*
X8897205Y-8995579D01*
X8897205Y-8995579D02*
X8906729Y-9033674D01*
X8906729Y-9033674D02*
X8906729Y-9081293D01*
X8906729Y-9081293D02*
X8897205Y-9119389D01*
X8897205Y-9119389D02*
X8887682Y-9138436D01*
X8887682Y-9138436D02*
X8878158Y-9147960D01*
X8878158Y-9147960D02*
X8859110Y-9157484D01*
X8859110Y-9157484D02*
X8840063Y-9157484D01*
X8840063Y-9157484D02*
X8821015Y-9147960D01*
X8821015Y-9147960D02*
X8811491Y-9138436D01*
X8811491Y-9138436D02*
X8801967Y-9119389D01*
X8801967Y-9119389D02*
X8792444Y-9081293D01*
X8792444Y-9081293D02*
X8792444Y-9033674D01*
X8792444Y-9033674D02*
X8801967Y-8995579D01*
X8801967Y-8995579D02*
X8811491Y-8976531D01*
X8811491Y-8976531D02*
X8821015Y-8967008D01*
X8821015Y-8967008D02*
X8840063Y-8957484D01*
X9030539Y-8957484D02*
X9049586Y-8957484D01*
X9049586Y-8957484D02*
X9068634Y-8967008D01*
X9068634Y-8967008D02*
X9078158Y-8976531D01*
X9078158Y-8976531D02*
X9087682Y-8995579D01*
X9087682Y-8995579D02*
X9097205Y-9033674D01*
X9097205Y-9033674D02*
X9097205Y-9081293D01*
X9097205Y-9081293D02*
X9087682Y-9119389D01*
X9087682Y-9119389D02*
X9078158Y-9138436D01*
X9078158Y-9138436D02*
X9068634Y-9147960D01*
X9068634Y-9147960D02*
X9049586Y-9157484D01*
X9049586Y-9157484D02*
X9030539Y-9157484D01*
X9030539Y-9157484D02*
X9011491Y-9147960D01*
X9011491Y-9147960D02*
X9001967Y-9138436D01*
X9001967Y-9138436D02*
X8992444Y-9119389D01*
X8992444Y-9119389D02*
X8982920Y-9081293D01*
X8982920Y-9081293D02*
X8982920Y-9033674D01*
X8982920Y-9033674D02*
X8992444Y-8995579D01*
X8992444Y-8995579D02*
X9001967Y-8976531D01*
X9001967Y-8976531D02*
X9011491Y-8967008D01*
X9011491Y-8967008D02*
X9030539Y-8957484D01*
X9182920Y-9157484D02*
X9182920Y-9024150D01*
X9182920Y-9043198D02*
X9192444Y-9033674D01*
X9192444Y-9033674D02*
X9211491Y-9024150D01*
X9211491Y-9024150D02*
X9240063Y-9024150D01*
X9240063Y-9024150D02*
X9259110Y-9033674D01*
X9259110Y-9033674D02*
X9268634Y-9052722D01*
X9268634Y-9052722D02*
X9268634Y-9157484D01*
X9268634Y-9052722D02*
X9278158Y-9033674D01*
X9278158Y-9033674D02*
X9297205Y-9024150D01*
X9297205Y-9024150D02*
X9325777Y-9024150D01*
X9325777Y-9024150D02*
X9344825Y-9033674D01*
X9344825Y-9033674D02*
X9354348Y-9052722D01*
X9354348Y-9052722D02*
X9354348Y-9157484D01*
X9449586Y-9157484D02*
X9449586Y-9024150D01*
X9449586Y-9043198D02*
X9459110Y-9033674D01*
X9459110Y-9033674D02*
X9478158Y-9024150D01*
X9478158Y-9024150D02*
X9506729Y-9024150D01*
X9506729Y-9024150D02*
X9525777Y-9033674D01*
X9525777Y-9033674D02*
X9535301Y-9052722D01*
X9535301Y-9052722D02*
X9535301Y-9157484D01*
X9535301Y-9052722D02*
X9544825Y-9033674D01*
X9544825Y-9033674D02*
X9563872Y-9024150D01*
X9563872Y-9024150D02*
X9592444Y-9024150D01*
X9592444Y-9024150D02*
X9611491Y-9033674D01*
X9611491Y-9033674D02*
X9621015Y-9052722D01*
X9621015Y-9052722D02*
X9621015Y-9157484D01*
X10011491Y-8947960D02*
X9840063Y-9205103D01*
X10268634Y-8957484D02*
X10287682Y-8957484D01*
X10287682Y-8957484D02*
X10306729Y-8967008D01*
X10306729Y-8967008D02*
X10316253Y-8976531D01*
X10316253Y-8976531D02*
X10325777Y-8995579D01*
X10325777Y-8995579D02*
X10335301Y-9033674D01*
X10335301Y-9033674D02*
X10335301Y-9081293D01*
X10335301Y-9081293D02*
X10325777Y-9119389D01*
X10325777Y-9119389D02*
X10316253Y-9138436D01*
X10316253Y-9138436D02*
X10306729Y-9147960D01*
X10306729Y-9147960D02*
X10287682Y-9157484D01*
X10287682Y-9157484D02*
X10268634Y-9157484D01*
X10268634Y-9157484D02*
X10249587Y-9147960D01*
X10249587Y-9147960D02*
X10240063Y-9138436D01*
X10240063Y-9138436D02*
X10230539Y-9119389D01*
X10230539Y-9119389D02*
X10221015Y-9081293D01*
X10221015Y-9081293D02*
X10221015Y-9033674D01*
X10221015Y-9033674D02*
X10230539Y-8995579D01*
X10230539Y-8995579D02*
X10240063Y-8976531D01*
X10240063Y-8976531D02*
X10249587Y-8967008D01*
X10249587Y-8967008D02*
X10268634Y-8957484D01*
X10421015Y-9138436D02*
X10430539Y-9147960D01*
X10430539Y-9147960D02*
X10421015Y-9157484D01*
X10421015Y-9157484D02*
X10411491Y-9147960D01*
X10411491Y-9147960D02*
X10421015Y-9138436D01*
X10421015Y-9138436D02*
X10421015Y-9157484D01*
X10554348Y-8957484D02*
X10573396Y-8957484D01*
X10573396Y-8957484D02*
X10592444Y-8967008D01*
X10592444Y-8967008D02*
X10601968Y-8976531D01*
X10601968Y-8976531D02*
X10611491Y-8995579D01*
X10611491Y-8995579D02*
X10621015Y-9033674D01*
X10621015Y-9033674D02*
X10621015Y-9081293D01*
X10621015Y-9081293D02*
X10611491Y-9119389D01*
X10611491Y-9119389D02*
X10601968Y-9138436D01*
X10601968Y-9138436D02*
X10592444Y-9147960D01*
X10592444Y-9147960D02*
X10573396Y-9157484D01*
X10573396Y-9157484D02*
X10554348Y-9157484D01*
X10554348Y-9157484D02*
X10535301Y-9147960D01*
X10535301Y-9147960D02*
X10525777Y-9138436D01*
X10525777Y-9138436D02*
X10516253Y-9119389D01*
X10516253Y-9119389D02*
X10506729Y-9081293D01*
X10506729Y-9081293D02*
X10506729Y-9033674D01*
X10506729Y-9033674D02*
X10516253Y-8995579D01*
X10516253Y-8995579D02*
X10525777Y-8976531D01*
X10525777Y-8976531D02*
X10535301Y-8967008D01*
X10535301Y-8967008D02*
X10554348Y-8957484D01*
X10697206Y-8976531D02*
X10706729Y-8967008D01*
X10706729Y-8967008D02*
X10725777Y-8957484D01*
X10725777Y-8957484D02*
X10773396Y-8957484D01*
X10773396Y-8957484D02*
X10792444Y-8967008D01*
X10792444Y-8967008D02*
X10801968Y-8976531D01*
X10801968Y-8976531D02*
X10811491Y-8995579D01*
X10811491Y-8995579D02*
X10811491Y-9014627D01*
X10811491Y-9014627D02*
X10801968Y-9043198D01*
X10801968Y-9043198D02*
X10687682Y-9157484D01*
X10687682Y-9157484D02*
X10811491Y-9157484D01*
X10878158Y-8957484D02*
X11011491Y-8957484D01*
X11011491Y-8957484D02*
X10925777Y-9157484D01*
X11173396Y-8957484D02*
X11135301Y-8957484D01*
X11135301Y-8957484D02*
X11116253Y-8967008D01*
X11116253Y-8967008D02*
X11106729Y-8976531D01*
X11106729Y-8976531D02*
X11087682Y-9005103D01*
X11087682Y-9005103D02*
X11078158Y-9043198D01*
X11078158Y-9043198D02*
X11078158Y-9119389D01*
X11078158Y-9119389D02*
X11087682Y-9138436D01*
X11087682Y-9138436D02*
X11097206Y-9147960D01*
X11097206Y-9147960D02*
X11116253Y-9157484D01*
X11116253Y-9157484D02*
X11154349Y-9157484D01*
X11154349Y-9157484D02*
X11173396Y-9147960D01*
X11173396Y-9147960D02*
X11182920Y-9138436D01*
X11182920Y-9138436D02*
X11192444Y-9119389D01*
X11192444Y-9119389D02*
X11192444Y-9071770D01*
X11192444Y-9071770D02*
X11182920Y-9052722D01*
X11182920Y-9052722D02*
X11173396Y-9043198D01*
X11173396Y-9043198D02*
X11154349Y-9033674D01*
X11154349Y-9033674D02*
X11116253Y-9033674D01*
X11116253Y-9033674D02*
X11097206Y-9043198D01*
X11097206Y-9043198D02*
X11087682Y-9052722D01*
X11087682Y-9052722D02*
X11078158Y-9071770D01*
X11268634Y-8957484D02*
X11268634Y-8995579D01*
X11344825Y-8957484D02*
X11344825Y-8995579D01*
X11640063Y-9233674D02*
X11630539Y-9224150D01*
X11630539Y-9224150D02*
X11611491Y-9195579D01*
X11611491Y-9195579D02*
X11601968Y-9176531D01*
X11601968Y-9176531D02*
X11592444Y-9147960D01*
X11592444Y-9147960D02*
X11582920Y-9100341D01*
X11582920Y-9100341D02*
X11582920Y-9062246D01*
X11582920Y-9062246D02*
X11592444Y-9014627D01*
X11592444Y-9014627D02*
X11601968Y-8986055D01*
X11601968Y-8986055D02*
X11611491Y-8967008D01*
X11611491Y-8967008D02*
X11630539Y-8938436D01*
X11630539Y-8938436D02*
X11640063Y-8928912D01*
X11821015Y-9157484D02*
X11706729Y-9157484D01*
X11763872Y-9157484D02*
X11763872Y-8957484D01*
X11763872Y-8957484D02*
X11744825Y-8986055D01*
X11744825Y-8986055D02*
X11725777Y-9005103D01*
X11725777Y-9005103D02*
X11706729Y-9014627D01*
X11944825Y-8957484D02*
X11963872Y-8957484D01*
X11963872Y-8957484D02*
X11982920Y-8967008D01*
X11982920Y-8967008D02*
X11992444Y-8976531D01*
X11992444Y-8976531D02*
X12001968Y-8995579D01*
X12001968Y-8995579D02*
X12011491Y-9033674D01*
X12011491Y-9033674D02*
X12011491Y-9081293D01*
X12011491Y-9081293D02*
X12001968Y-9119389D01*
X12001968Y-9119389D02*
X11992444Y-9138436D01*
X11992444Y-9138436D02*
X11982920Y-9147960D01*
X11982920Y-9147960D02*
X11963872Y-9157484D01*
X11963872Y-9157484D02*
X11944825Y-9157484D01*
X11944825Y-9157484D02*
X11925777Y-9147960D01*
X11925777Y-9147960D02*
X11916253Y-9138436D01*
X11916253Y-9138436D02*
X11906729Y-9119389D01*
X11906729Y-9119389D02*
X11897206Y-9081293D01*
X11897206Y-9081293D02*
X11897206Y-9033674D01*
X11897206Y-9033674D02*
X11906729Y-8995579D01*
X11906729Y-8995579D02*
X11916253Y-8976531D01*
X11916253Y-8976531D02*
X11925777Y-8967008D01*
X11925777Y-8967008D02*
X11944825Y-8957484D01*
X12249587Y-9157484D02*
X12249587Y-8957484D01*
X12335301Y-9157484D02*
X12335301Y-9052722D01*
X12335301Y-9052722D02*
X12325777Y-9033674D01*
X12325777Y-9033674D02*
X12306730Y-9024150D01*
X12306730Y-9024150D02*
X12278158Y-9024150D01*
X12278158Y-9024150D02*
X12259110Y-9033674D01*
X12259110Y-9033674D02*
X12249587Y-9043198D01*
X12459110Y-9157484D02*
X12440063Y-9147960D01*
X12440063Y-9147960D02*
X12430539Y-9138436D01*
X12430539Y-9138436D02*
X12421015Y-9119389D01*
X12421015Y-9119389D02*
X12421015Y-9062246D01*
X12421015Y-9062246D02*
X12430539Y-9043198D01*
X12430539Y-9043198D02*
X12440063Y-9033674D01*
X12440063Y-9033674D02*
X12459110Y-9024150D01*
X12459110Y-9024150D02*
X12487682Y-9024150D01*
X12487682Y-9024150D02*
X12506730Y-9033674D01*
X12506730Y-9033674D02*
X12516253Y-9043198D01*
X12516253Y-9043198D02*
X12525777Y-9062246D01*
X12525777Y-9062246D02*
X12525777Y-9119389D01*
X12525777Y-9119389D02*
X12516253Y-9138436D01*
X12516253Y-9138436D02*
X12506730Y-9147960D01*
X12506730Y-9147960D02*
X12487682Y-9157484D01*
X12487682Y-9157484D02*
X12459110Y-9157484D01*
X12640063Y-9157484D02*
X12621015Y-9147960D01*
X12621015Y-9147960D02*
X12611491Y-9128912D01*
X12611491Y-9128912D02*
X12611491Y-8957484D01*
X12792444Y-9147960D02*
X12773396Y-9157484D01*
X12773396Y-9157484D02*
X12735301Y-9157484D01*
X12735301Y-9157484D02*
X12716253Y-9147960D01*
X12716253Y-9147960D02*
X12706730Y-9128912D01*
X12706730Y-9128912D02*
X12706730Y-9052722D01*
X12706730Y-9052722D02*
X12716253Y-9033674D01*
X12716253Y-9033674D02*
X12735301Y-9024150D01*
X12735301Y-9024150D02*
X12773396Y-9024150D01*
X12773396Y-9024150D02*
X12792444Y-9033674D01*
X12792444Y-9033674D02*
X12801968Y-9052722D01*
X12801968Y-9052722D02*
X12801968Y-9071770D01*
X12801968Y-9071770D02*
X12706730Y-9090817D01*
X12878158Y-9147960D02*
X12897206Y-9157484D01*
X12897206Y-9157484D02*
X12935301Y-9157484D01*
X12935301Y-9157484D02*
X12954349Y-9147960D01*
X12954349Y-9147960D02*
X12963872Y-9128912D01*
X12963872Y-9128912D02*
X12963872Y-9119389D01*
X12963872Y-9119389D02*
X12954349Y-9100341D01*
X12954349Y-9100341D02*
X12935301Y-9090817D01*
X12935301Y-9090817D02*
X12906730Y-9090817D01*
X12906730Y-9090817D02*
X12887682Y-9081293D01*
X12887682Y-9081293D02*
X12878158Y-9062246D01*
X12878158Y-9062246D02*
X12878158Y-9052722D01*
X12878158Y-9052722D02*
X12887682Y-9033674D01*
X12887682Y-9033674D02*
X12906730Y-9024150D01*
X12906730Y-9024150D02*
X12935301Y-9024150D01*
X12935301Y-9024150D02*
X12954349Y-9033674D01*
X13030539Y-9233674D02*
X13040063Y-9224150D01*
X13040063Y-9224150D02*
X13059111Y-9195579D01*
X13059111Y-9195579D02*
X13068634Y-9176531D01*
X13068634Y-9176531D02*
X13078158Y-9147960D01*
X13078158Y-9147960D02*
X13087682Y-9100341D01*
X13087682Y-9100341D02*
X13087682Y-9062246D01*
X13087682Y-9062246D02*
X13078158Y-9014627D01*
X13078158Y-9014627D02*
X13068634Y-8986055D01*
X13068634Y-8986055D02*
X13059111Y-8967008D01*
X13059111Y-8967008D02*
X13040063Y-8938436D01*
X13040063Y-8938436D02*
X13030539Y-8928912D01*
D10*
X8053284Y-9358285D02*
X8053284Y-9301716D01*
X7996715Y-9301716D01*
X7996715Y-9358285D01*
X8053284Y-9358285D01*
D11*
X8363872Y-9221484D02*
X8382920Y-9221484D01*
X8382920Y-9221484D02*
X8401967Y-9231008D01*
X8401967Y-9231008D02*
X8411491Y-9240531D01*
X8411491Y-9240531D02*
X8421015Y-9259579D01*
X8421015Y-9259579D02*
X8430539Y-9297674D01*
X8430539Y-9297674D02*
X8430539Y-9345293D01*
X8430539Y-9345293D02*
X8421015Y-9383389D01*
X8421015Y-9383389D02*
X8411491Y-9402436D01*
X8411491Y-9402436D02*
X8401967Y-9411960D01*
X8401967Y-9411960D02*
X8382920Y-9421484D01*
X8382920Y-9421484D02*
X8363872Y-9421484D01*
X8363872Y-9421484D02*
X8344824Y-9411960D01*
X8344824Y-9411960D02*
X8335301Y-9402436D01*
X8335301Y-9402436D02*
X8325777Y-9383389D01*
X8325777Y-9383389D02*
X8316253Y-9345293D01*
X8316253Y-9345293D02*
X8316253Y-9297674D01*
X8316253Y-9297674D02*
X8325777Y-9259579D01*
X8325777Y-9259579D02*
X8335301Y-9240531D01*
X8335301Y-9240531D02*
X8344824Y-9231008D01*
X8344824Y-9231008D02*
X8363872Y-9221484D01*
X8516253Y-9402436D02*
X8525777Y-9411960D01*
X8525777Y-9411960D02*
X8516253Y-9421484D01*
X8516253Y-9421484D02*
X8506729Y-9411960D01*
X8506729Y-9411960D02*
X8516253Y-9402436D01*
X8516253Y-9402436D02*
X8516253Y-9421484D01*
X8640063Y-9307198D02*
X8621015Y-9297674D01*
X8621015Y-9297674D02*
X8611491Y-9288150D01*
X8611491Y-9288150D02*
X8601967Y-9269103D01*
X8601967Y-9269103D02*
X8601967Y-9259579D01*
X8601967Y-9259579D02*
X8611491Y-9240531D01*
X8611491Y-9240531D02*
X8621015Y-9231008D01*
X8621015Y-9231008D02*
X8640063Y-9221484D01*
X8640063Y-9221484D02*
X8678158Y-9221484D01*
X8678158Y-9221484D02*
X8697205Y-9231008D01*
X8697205Y-9231008D02*
X8706729Y-9240531D01*
X8706729Y-9240531D02*
X8716253Y-9259579D01*
X8716253Y-9259579D02*
X8716253Y-9269103D01*
X8716253Y-9269103D02*
X8706729Y-9288150D01*
X8706729Y-9288150D02*
X8697205Y-9297674D01*
X8697205Y-9297674D02*
X8678158Y-9307198D01*
X8678158Y-9307198D02*
X8640063Y-9307198D01*
X8640063Y-9307198D02*
X8621015Y-9316722D01*
X8621015Y-9316722D02*
X8611491Y-9326246D01*
X8611491Y-9326246D02*
X8601967Y-9345293D01*
X8601967Y-9345293D02*
X8601967Y-9383389D01*
X8601967Y-9383389D02*
X8611491Y-9402436D01*
X8611491Y-9402436D02*
X8621015Y-9411960D01*
X8621015Y-9411960D02*
X8640063Y-9421484D01*
X8640063Y-9421484D02*
X8678158Y-9421484D01*
X8678158Y-9421484D02*
X8697205Y-9411960D01*
X8697205Y-9411960D02*
X8706729Y-9402436D01*
X8706729Y-9402436D02*
X8716253Y-9383389D01*
X8716253Y-9383389D02*
X8716253Y-9345293D01*
X8716253Y-9345293D02*
X8706729Y-9326246D01*
X8706729Y-9326246D02*
X8697205Y-9316722D01*
X8697205Y-9316722D02*
X8678158Y-9307198D01*
X8840063Y-9221484D02*
X8859110Y-9221484D01*
X8859110Y-9221484D02*
X8878158Y-9231008D01*
X8878158Y-9231008D02*
X8887682Y-9240531D01*
X8887682Y-9240531D02*
X8897205Y-9259579D01*
X8897205Y-9259579D02*
X8906729Y-9297674D01*
X8906729Y-9297674D02*
X8906729Y-9345293D01*
X8906729Y-9345293D02*
X8897205Y-9383389D01*
X8897205Y-9383389D02*
X8887682Y-9402436D01*
X8887682Y-9402436D02*
X8878158Y-9411960D01*
X8878158Y-9411960D02*
X8859110Y-9421484D01*
X8859110Y-9421484D02*
X8840063Y-9421484D01*
X8840063Y-9421484D02*
X8821015Y-9411960D01*
X8821015Y-9411960D02*
X8811491Y-9402436D01*
X8811491Y-9402436D02*
X8801967Y-9383389D01*
X8801967Y-9383389D02*
X8792444Y-9345293D01*
X8792444Y-9345293D02*
X8792444Y-9297674D01*
X8792444Y-9297674D02*
X8801967Y-9259579D01*
X8801967Y-9259579D02*
X8811491Y-9240531D01*
X8811491Y-9240531D02*
X8821015Y-9231008D01*
X8821015Y-9231008D02*
X8840063Y-9221484D01*
X9030539Y-9221484D02*
X9049586Y-9221484D01*
X9049586Y-9221484D02*
X9068634Y-9231008D01*
X9068634Y-9231008D02*
X9078158Y-9240531D01*
X9078158Y-9240531D02*
X9087682Y-9259579D01*
X9087682Y-9259579D02*
X9097205Y-9297674D01*
X9097205Y-9297674D02*
X9097205Y-9345293D01*
X9097205Y-9345293D02*
X9087682Y-9383389D01*
X9087682Y-9383389D02*
X9078158Y-9402436D01*
X9078158Y-9402436D02*
X9068634Y-9411960D01*
X9068634Y-9411960D02*
X9049586Y-9421484D01*
X9049586Y-9421484D02*
X9030539Y-9421484D01*
X9030539Y-9421484D02*
X9011491Y-9411960D01*
X9011491Y-9411960D02*
X9001967Y-9402436D01*
X9001967Y-9402436D02*
X8992444Y-9383389D01*
X8992444Y-9383389D02*
X8982920Y-9345293D01*
X8982920Y-9345293D02*
X8982920Y-9297674D01*
X8982920Y-9297674D02*
X8992444Y-9259579D01*
X8992444Y-9259579D02*
X9001967Y-9240531D01*
X9001967Y-9240531D02*
X9011491Y-9231008D01*
X9011491Y-9231008D02*
X9030539Y-9221484D01*
X9182920Y-9421484D02*
X9182920Y-9288150D01*
X9182920Y-9307198D02*
X9192444Y-9297674D01*
X9192444Y-9297674D02*
X9211491Y-9288150D01*
X9211491Y-9288150D02*
X9240063Y-9288150D01*
X9240063Y-9288150D02*
X9259110Y-9297674D01*
X9259110Y-9297674D02*
X9268634Y-9316722D01*
X9268634Y-9316722D02*
X9268634Y-9421484D01*
X9268634Y-9316722D02*
X9278158Y-9297674D01*
X9278158Y-9297674D02*
X9297205Y-9288150D01*
X9297205Y-9288150D02*
X9325777Y-9288150D01*
X9325777Y-9288150D02*
X9344825Y-9297674D01*
X9344825Y-9297674D02*
X9354348Y-9316722D01*
X9354348Y-9316722D02*
X9354348Y-9421484D01*
X9449586Y-9421484D02*
X9449586Y-9288150D01*
X9449586Y-9307198D02*
X9459110Y-9297674D01*
X9459110Y-9297674D02*
X9478158Y-9288150D01*
X9478158Y-9288150D02*
X9506729Y-9288150D01*
X9506729Y-9288150D02*
X9525777Y-9297674D01*
X9525777Y-9297674D02*
X9535301Y-9316722D01*
X9535301Y-9316722D02*
X9535301Y-9421484D01*
X9535301Y-9316722D02*
X9544825Y-9297674D01*
X9544825Y-9297674D02*
X9563872Y-9288150D01*
X9563872Y-9288150D02*
X9592444Y-9288150D01*
X9592444Y-9288150D02*
X9611491Y-9297674D01*
X9611491Y-9297674D02*
X9621015Y-9316722D01*
X9621015Y-9316722D02*
X9621015Y-9421484D01*
X10011491Y-9211960D02*
X9840063Y-9469103D01*
X10268634Y-9221484D02*
X10287682Y-9221484D01*
X10287682Y-9221484D02*
X10306729Y-9231008D01*
X10306729Y-9231008D02*
X10316253Y-9240531D01*
X10316253Y-9240531D02*
X10325777Y-9259579D01*
X10325777Y-9259579D02*
X10335301Y-9297674D01*
X10335301Y-9297674D02*
X10335301Y-9345293D01*
X10335301Y-9345293D02*
X10325777Y-9383389D01*
X10325777Y-9383389D02*
X10316253Y-9402436D01*
X10316253Y-9402436D02*
X10306729Y-9411960D01*
X10306729Y-9411960D02*
X10287682Y-9421484D01*
X10287682Y-9421484D02*
X10268634Y-9421484D01*
X10268634Y-9421484D02*
X10249587Y-9411960D01*
X10249587Y-9411960D02*
X10240063Y-9402436D01*
X10240063Y-9402436D02*
X10230539Y-9383389D01*
X10230539Y-9383389D02*
X10221015Y-9345293D01*
X10221015Y-9345293D02*
X10221015Y-9297674D01*
X10221015Y-9297674D02*
X10230539Y-9259579D01*
X10230539Y-9259579D02*
X10240063Y-9240531D01*
X10240063Y-9240531D02*
X10249587Y-9231008D01*
X10249587Y-9231008D02*
X10268634Y-9221484D01*
X10421015Y-9402436D02*
X10430539Y-9411960D01*
X10430539Y-9411960D02*
X10421015Y-9421484D01*
X10421015Y-9421484D02*
X10411491Y-9411960D01*
X10411491Y-9411960D02*
X10421015Y-9402436D01*
X10421015Y-9402436D02*
X10421015Y-9421484D01*
X10554348Y-9221484D02*
X10573396Y-9221484D01*
X10573396Y-9221484D02*
X10592444Y-9231008D01*
X10592444Y-9231008D02*
X10601968Y-9240531D01*
X10601968Y-9240531D02*
X10611491Y-9259579D01*
X10611491Y-9259579D02*
X10621015Y-9297674D01*
X10621015Y-9297674D02*
X10621015Y-9345293D01*
X10621015Y-9345293D02*
X10611491Y-9383389D01*
X10611491Y-9383389D02*
X10601968Y-9402436D01*
X10601968Y-9402436D02*
X10592444Y-9411960D01*
X10592444Y-9411960D02*
X10573396Y-9421484D01*
X10573396Y-9421484D02*
X10554348Y-9421484D01*
X10554348Y-9421484D02*
X10535301Y-9411960D01*
X10535301Y-9411960D02*
X10525777Y-9402436D01*
X10525777Y-9402436D02*
X10516253Y-9383389D01*
X10516253Y-9383389D02*
X10506729Y-9345293D01*
X10506729Y-9345293D02*
X10506729Y-9297674D01*
X10506729Y-9297674D02*
X10516253Y-9259579D01*
X10516253Y-9259579D02*
X10525777Y-9240531D01*
X10525777Y-9240531D02*
X10535301Y-9231008D01*
X10535301Y-9231008D02*
X10554348Y-9221484D01*
X10687682Y-9221484D02*
X10811491Y-9221484D01*
X10811491Y-9221484D02*
X10744825Y-9297674D01*
X10744825Y-9297674D02*
X10773396Y-9297674D01*
X10773396Y-9297674D02*
X10792444Y-9307198D01*
X10792444Y-9307198D02*
X10801968Y-9316722D01*
X10801968Y-9316722D02*
X10811491Y-9335770D01*
X10811491Y-9335770D02*
X10811491Y-9383389D01*
X10811491Y-9383389D02*
X10801968Y-9402436D01*
X10801968Y-9402436D02*
X10792444Y-9411960D01*
X10792444Y-9411960D02*
X10773396Y-9421484D01*
X10773396Y-9421484D02*
X10716253Y-9421484D01*
X10716253Y-9421484D02*
X10697206Y-9411960D01*
X10697206Y-9411960D02*
X10687682Y-9402436D01*
X11001968Y-9421484D02*
X10887682Y-9421484D01*
X10944825Y-9421484D02*
X10944825Y-9221484D01*
X10944825Y-9221484D02*
X10925777Y-9250055D01*
X10925777Y-9250055D02*
X10906729Y-9269103D01*
X10906729Y-9269103D02*
X10887682Y-9278627D01*
X11182920Y-9221484D02*
X11087682Y-9221484D01*
X11087682Y-9221484D02*
X11078158Y-9316722D01*
X11078158Y-9316722D02*
X11087682Y-9307198D01*
X11087682Y-9307198D02*
X11106729Y-9297674D01*
X11106729Y-9297674D02*
X11154349Y-9297674D01*
X11154349Y-9297674D02*
X11173396Y-9307198D01*
X11173396Y-9307198D02*
X11182920Y-9316722D01*
X11182920Y-9316722D02*
X11192444Y-9335770D01*
X11192444Y-9335770D02*
X11192444Y-9383389D01*
X11192444Y-9383389D02*
X11182920Y-9402436D01*
X11182920Y-9402436D02*
X11173396Y-9411960D01*
X11173396Y-9411960D02*
X11154349Y-9421484D01*
X11154349Y-9421484D02*
X11106729Y-9421484D01*
X11106729Y-9421484D02*
X11087682Y-9411960D01*
X11087682Y-9411960D02*
X11078158Y-9402436D01*
X11268634Y-9221484D02*
X11268634Y-9259579D01*
X11344825Y-9221484D02*
X11344825Y-9259579D01*
X11640063Y-9497674D02*
X11630539Y-9488150D01*
X11630539Y-9488150D02*
X11611491Y-9459579D01*
X11611491Y-9459579D02*
X11601968Y-9440531D01*
X11601968Y-9440531D02*
X11592444Y-9411960D01*
X11592444Y-9411960D02*
X11582920Y-9364341D01*
X11582920Y-9364341D02*
X11582920Y-9326246D01*
X11582920Y-9326246D02*
X11592444Y-9278627D01*
X11592444Y-9278627D02*
X11601968Y-9250055D01*
X11601968Y-9250055D02*
X11611491Y-9231008D01*
X11611491Y-9231008D02*
X11630539Y-9202436D01*
X11630539Y-9202436D02*
X11640063Y-9192912D01*
X11697206Y-9221484D02*
X11821015Y-9221484D01*
X11821015Y-9221484D02*
X11754348Y-9297674D01*
X11754348Y-9297674D02*
X11782920Y-9297674D01*
X11782920Y-9297674D02*
X11801968Y-9307198D01*
X11801968Y-9307198D02*
X11811491Y-9316722D01*
X11811491Y-9316722D02*
X11821015Y-9335770D01*
X11821015Y-9335770D02*
X11821015Y-9383389D01*
X11821015Y-9383389D02*
X11811491Y-9402436D01*
X11811491Y-9402436D02*
X11801968Y-9411960D01*
X11801968Y-9411960D02*
X11782920Y-9421484D01*
X11782920Y-9421484D02*
X11725777Y-9421484D01*
X11725777Y-9421484D02*
X11706729Y-9411960D01*
X11706729Y-9411960D02*
X11697206Y-9402436D01*
X12011491Y-9421484D02*
X11897206Y-9421484D01*
X11954348Y-9421484D02*
X11954348Y-9221484D01*
X11954348Y-9221484D02*
X11935301Y-9250055D01*
X11935301Y-9250055D02*
X11916253Y-9269103D01*
X11916253Y-9269103D02*
X11897206Y-9278627D01*
X12249587Y-9421484D02*
X12249587Y-9221484D01*
X12335301Y-9421484D02*
X12335301Y-9316722D01*
X12335301Y-9316722D02*
X12325777Y-9297674D01*
X12325777Y-9297674D02*
X12306730Y-9288150D01*
X12306730Y-9288150D02*
X12278158Y-9288150D01*
X12278158Y-9288150D02*
X12259110Y-9297674D01*
X12259110Y-9297674D02*
X12249587Y-9307198D01*
X12459110Y-9421484D02*
X12440063Y-9411960D01*
X12440063Y-9411960D02*
X12430539Y-9402436D01*
X12430539Y-9402436D02*
X12421015Y-9383389D01*
X12421015Y-9383389D02*
X12421015Y-9326246D01*
X12421015Y-9326246D02*
X12430539Y-9307198D01*
X12430539Y-9307198D02*
X12440063Y-9297674D01*
X12440063Y-9297674D02*
X12459110Y-9288150D01*
X12459110Y-9288150D02*
X12487682Y-9288150D01*
X12487682Y-9288150D02*
X12506730Y-9297674D01*
X12506730Y-9297674D02*
X12516253Y-9307198D01*
X12516253Y-9307198D02*
X12525777Y-9326246D01*
X12525777Y-9326246D02*
X12525777Y-9383389D01*
X12525777Y-9383389D02*
X12516253Y-9402436D01*
X12516253Y-9402436D02*
X12506730Y-9411960D01*
X12506730Y-9411960D02*
X12487682Y-9421484D01*
X12487682Y-9421484D02*
X12459110Y-9421484D01*
X12640063Y-9421484D02*
X12621015Y-9411960D01*
X12621015Y-9411960D02*
X12611491Y-9392912D01*
X12611491Y-9392912D02*
X12611491Y-9221484D01*
X12792444Y-9411960D02*
X12773396Y-9421484D01*
X12773396Y-9421484D02*
X12735301Y-9421484D01*
X12735301Y-9421484D02*
X12716253Y-9411960D01*
X12716253Y-9411960D02*
X12706730Y-9392912D01*
X12706730Y-9392912D02*
X12706730Y-9316722D01*
X12706730Y-9316722D02*
X12716253Y-9297674D01*
X12716253Y-9297674D02*
X12735301Y-9288150D01*
X12735301Y-9288150D02*
X12773396Y-9288150D01*
X12773396Y-9288150D02*
X12792444Y-9297674D01*
X12792444Y-9297674D02*
X12801968Y-9316722D01*
X12801968Y-9316722D02*
X12801968Y-9335770D01*
X12801968Y-9335770D02*
X12706730Y-9354817D01*
X12878158Y-9411960D02*
X12897206Y-9421484D01*
X12897206Y-9421484D02*
X12935301Y-9421484D01*
X12935301Y-9421484D02*
X12954349Y-9411960D01*
X12954349Y-9411960D02*
X12963872Y-9392912D01*
X12963872Y-9392912D02*
X12963872Y-9383389D01*
X12963872Y-9383389D02*
X12954349Y-9364341D01*
X12954349Y-9364341D02*
X12935301Y-9354817D01*
X12935301Y-9354817D02*
X12906730Y-9354817D01*
X12906730Y-9354817D02*
X12887682Y-9345293D01*
X12887682Y-9345293D02*
X12878158Y-9326246D01*
X12878158Y-9326246D02*
X12878158Y-9316722D01*
X12878158Y-9316722D02*
X12887682Y-9297674D01*
X12887682Y-9297674D02*
X12906730Y-9288150D01*
X12906730Y-9288150D02*
X12935301Y-9288150D01*
X12935301Y-9288150D02*
X12954349Y-9297674D01*
X13030539Y-9497674D02*
X13040063Y-9488150D01*
X13040063Y-9488150D02*
X13059111Y-9459579D01*
X13059111Y-9459579D02*
X13068634Y-9440531D01*
X13068634Y-9440531D02*
X13078158Y-9411960D01*
X13078158Y-9411960D02*
X13087682Y-9364341D01*
X13087682Y-9364341D02*
X13087682Y-9326246D01*
X13087682Y-9326246D02*
X13078158Y-9278627D01*
X13078158Y-9278627D02*
X13068634Y-9250055D01*
X13068634Y-9250055D02*
X13059111Y-9231008D01*
X13059111Y-9231008D02*
X13040063Y-9202436D01*
X13040063Y-9202436D02*
X13030539Y-9192912D01*
D10*
X8020000Y-9639000D02*
X8065000Y-9594000D01*
X8020000Y-9549000D01*
X7975000Y-9594000D01*
X8020000Y-9639000D01*
D11*
X8363872Y-9485484D02*
X8382920Y-9485484D01*
X8382920Y-9485484D02*
X8401967Y-9495008D01*
X8401967Y-9495008D02*
X8411491Y-9504531D01*
X8411491Y-9504531D02*
X8421015Y-9523579D01*
X8421015Y-9523579D02*
X8430539Y-9561674D01*
X8430539Y-9561674D02*
X8430539Y-9609293D01*
X8430539Y-9609293D02*
X8421015Y-9647389D01*
X8421015Y-9647389D02*
X8411491Y-9666436D01*
X8411491Y-9666436D02*
X8401967Y-9675960D01*
X8401967Y-9675960D02*
X8382920Y-9685484D01*
X8382920Y-9685484D02*
X8363872Y-9685484D01*
X8363872Y-9685484D02*
X8344824Y-9675960D01*
X8344824Y-9675960D02*
X8335301Y-9666436D01*
X8335301Y-9666436D02*
X8325777Y-9647389D01*
X8325777Y-9647389D02*
X8316253Y-9609293D01*
X8316253Y-9609293D02*
X8316253Y-9561674D01*
X8316253Y-9561674D02*
X8325777Y-9523579D01*
X8325777Y-9523579D02*
X8335301Y-9504531D01*
X8335301Y-9504531D02*
X8344824Y-9495008D01*
X8344824Y-9495008D02*
X8363872Y-9485484D01*
X8516253Y-9666436D02*
X8525777Y-9675960D01*
X8525777Y-9675960D02*
X8516253Y-9685484D01*
X8516253Y-9685484D02*
X8506729Y-9675960D01*
X8506729Y-9675960D02*
X8516253Y-9666436D01*
X8516253Y-9666436D02*
X8516253Y-9685484D01*
X8621015Y-9685484D02*
X8659110Y-9685484D01*
X8659110Y-9685484D02*
X8678158Y-9675960D01*
X8678158Y-9675960D02*
X8687682Y-9666436D01*
X8687682Y-9666436D02*
X8706729Y-9637865D01*
X8706729Y-9637865D02*
X8716253Y-9599770D01*
X8716253Y-9599770D02*
X8716253Y-9523579D01*
X8716253Y-9523579D02*
X8706729Y-9504531D01*
X8706729Y-9504531D02*
X8697205Y-9495008D01*
X8697205Y-9495008D02*
X8678158Y-9485484D01*
X8678158Y-9485484D02*
X8640063Y-9485484D01*
X8640063Y-9485484D02*
X8621015Y-9495008D01*
X8621015Y-9495008D02*
X8611491Y-9504531D01*
X8611491Y-9504531D02*
X8601967Y-9523579D01*
X8601967Y-9523579D02*
X8601967Y-9571198D01*
X8601967Y-9571198D02*
X8611491Y-9590246D01*
X8611491Y-9590246D02*
X8621015Y-9599770D01*
X8621015Y-9599770D02*
X8640063Y-9609293D01*
X8640063Y-9609293D02*
X8678158Y-9609293D01*
X8678158Y-9609293D02*
X8697205Y-9599770D01*
X8697205Y-9599770D02*
X8706729Y-9590246D01*
X8706729Y-9590246D02*
X8716253Y-9571198D01*
X8840063Y-9485484D02*
X8859110Y-9485484D01*
X8859110Y-9485484D02*
X8878158Y-9495008D01*
X8878158Y-9495008D02*
X8887682Y-9504531D01*
X8887682Y-9504531D02*
X8897205Y-9523579D01*
X8897205Y-9523579D02*
X8906729Y-9561674D01*
X8906729Y-9561674D02*
X8906729Y-9609293D01*
X8906729Y-9609293D02*
X8897205Y-9647389D01*
X8897205Y-9647389D02*
X8887682Y-9666436D01*
X8887682Y-9666436D02*
X8878158Y-9675960D01*
X8878158Y-9675960D02*
X8859110Y-9685484D01*
X8859110Y-9685484D02*
X8840063Y-9685484D01*
X8840063Y-9685484D02*
X8821015Y-9675960D01*
X8821015Y-9675960D02*
X8811491Y-9666436D01*
X8811491Y-9666436D02*
X8801967Y-9647389D01*
X8801967Y-9647389D02*
X8792444Y-9609293D01*
X8792444Y-9609293D02*
X8792444Y-9561674D01*
X8792444Y-9561674D02*
X8801967Y-9523579D01*
X8801967Y-9523579D02*
X8811491Y-9504531D01*
X8811491Y-9504531D02*
X8821015Y-9495008D01*
X8821015Y-9495008D02*
X8840063Y-9485484D01*
X9030539Y-9485484D02*
X9049586Y-9485484D01*
X9049586Y-9485484D02*
X9068634Y-9495008D01*
X9068634Y-9495008D02*
X9078158Y-9504531D01*
X9078158Y-9504531D02*
X9087682Y-9523579D01*
X9087682Y-9523579D02*
X9097205Y-9561674D01*
X9097205Y-9561674D02*
X9097205Y-9609293D01*
X9097205Y-9609293D02*
X9087682Y-9647389D01*
X9087682Y-9647389D02*
X9078158Y-9666436D01*
X9078158Y-9666436D02*
X9068634Y-9675960D01*
X9068634Y-9675960D02*
X9049586Y-9685484D01*
X9049586Y-9685484D02*
X9030539Y-9685484D01*
X9030539Y-9685484D02*
X9011491Y-9675960D01*
X9011491Y-9675960D02*
X9001967Y-9666436D01*
X9001967Y-9666436D02*
X8992444Y-9647389D01*
X8992444Y-9647389D02*
X8982920Y-9609293D01*
X8982920Y-9609293D02*
X8982920Y-9561674D01*
X8982920Y-9561674D02*
X8992444Y-9523579D01*
X8992444Y-9523579D02*
X9001967Y-9504531D01*
X9001967Y-9504531D02*
X9011491Y-9495008D01*
X9011491Y-9495008D02*
X9030539Y-9485484D01*
X9182920Y-9685484D02*
X9182920Y-9552150D01*
X9182920Y-9571198D02*
X9192444Y-9561674D01*
X9192444Y-9561674D02*
X9211491Y-9552150D01*
X9211491Y-9552150D02*
X9240063Y-9552150D01*
X9240063Y-9552150D02*
X9259110Y-9561674D01*
X9259110Y-9561674D02*
X9268634Y-9580722D01*
X9268634Y-9580722D02*
X9268634Y-9685484D01*
X9268634Y-9580722D02*
X9278158Y-9561674D01*
X9278158Y-9561674D02*
X9297205Y-9552150D01*
X9297205Y-9552150D02*
X9325777Y-9552150D01*
X9325777Y-9552150D02*
X9344825Y-9561674D01*
X9344825Y-9561674D02*
X9354348Y-9580722D01*
X9354348Y-9580722D02*
X9354348Y-9685484D01*
X9449586Y-9685484D02*
X9449586Y-9552150D01*
X9449586Y-9571198D02*
X9459110Y-9561674D01*
X9459110Y-9561674D02*
X9478158Y-9552150D01*
X9478158Y-9552150D02*
X9506729Y-9552150D01*
X9506729Y-9552150D02*
X9525777Y-9561674D01*
X9525777Y-9561674D02*
X9535301Y-9580722D01*
X9535301Y-9580722D02*
X9535301Y-9685484D01*
X9535301Y-9580722D02*
X9544825Y-9561674D01*
X9544825Y-9561674D02*
X9563872Y-9552150D01*
X9563872Y-9552150D02*
X9592444Y-9552150D01*
X9592444Y-9552150D02*
X9611491Y-9561674D01*
X9611491Y-9561674D02*
X9621015Y-9580722D01*
X9621015Y-9580722D02*
X9621015Y-9685484D01*
X10011491Y-9475960D02*
X9840063Y-9733103D01*
X10268634Y-9485484D02*
X10287682Y-9485484D01*
X10287682Y-9485484D02*
X10306729Y-9495008D01*
X10306729Y-9495008D02*
X10316253Y-9504531D01*
X10316253Y-9504531D02*
X10325777Y-9523579D01*
X10325777Y-9523579D02*
X10335301Y-9561674D01*
X10335301Y-9561674D02*
X10335301Y-9609293D01*
X10335301Y-9609293D02*
X10325777Y-9647389D01*
X10325777Y-9647389D02*
X10316253Y-9666436D01*
X10316253Y-9666436D02*
X10306729Y-9675960D01*
X10306729Y-9675960D02*
X10287682Y-9685484D01*
X10287682Y-9685484D02*
X10268634Y-9685484D01*
X10268634Y-9685484D02*
X10249587Y-9675960D01*
X10249587Y-9675960D02*
X10240063Y-9666436D01*
X10240063Y-9666436D02*
X10230539Y-9647389D01*
X10230539Y-9647389D02*
X10221015Y-9609293D01*
X10221015Y-9609293D02*
X10221015Y-9561674D01*
X10221015Y-9561674D02*
X10230539Y-9523579D01*
X10230539Y-9523579D02*
X10240063Y-9504531D01*
X10240063Y-9504531D02*
X10249587Y-9495008D01*
X10249587Y-9495008D02*
X10268634Y-9485484D01*
X10421015Y-9666436D02*
X10430539Y-9675960D01*
X10430539Y-9675960D02*
X10421015Y-9685484D01*
X10421015Y-9685484D02*
X10411491Y-9675960D01*
X10411491Y-9675960D02*
X10421015Y-9666436D01*
X10421015Y-9666436D02*
X10421015Y-9685484D01*
X10554348Y-9485484D02*
X10573396Y-9485484D01*
X10573396Y-9485484D02*
X10592444Y-9495008D01*
X10592444Y-9495008D02*
X10601968Y-9504531D01*
X10601968Y-9504531D02*
X10611491Y-9523579D01*
X10611491Y-9523579D02*
X10621015Y-9561674D01*
X10621015Y-9561674D02*
X10621015Y-9609293D01*
X10621015Y-9609293D02*
X10611491Y-9647389D01*
X10611491Y-9647389D02*
X10601968Y-9666436D01*
X10601968Y-9666436D02*
X10592444Y-9675960D01*
X10592444Y-9675960D02*
X10573396Y-9685484D01*
X10573396Y-9685484D02*
X10554348Y-9685484D01*
X10554348Y-9685484D02*
X10535301Y-9675960D01*
X10535301Y-9675960D02*
X10525777Y-9666436D01*
X10525777Y-9666436D02*
X10516253Y-9647389D01*
X10516253Y-9647389D02*
X10506729Y-9609293D01*
X10506729Y-9609293D02*
X10506729Y-9561674D01*
X10506729Y-9561674D02*
X10516253Y-9523579D01*
X10516253Y-9523579D02*
X10525777Y-9504531D01*
X10525777Y-9504531D02*
X10535301Y-9495008D01*
X10535301Y-9495008D02*
X10554348Y-9485484D01*
X10687682Y-9485484D02*
X10811491Y-9485484D01*
X10811491Y-9485484D02*
X10744825Y-9561674D01*
X10744825Y-9561674D02*
X10773396Y-9561674D01*
X10773396Y-9561674D02*
X10792444Y-9571198D01*
X10792444Y-9571198D02*
X10801968Y-9580722D01*
X10801968Y-9580722D02*
X10811491Y-9599770D01*
X10811491Y-9599770D02*
X10811491Y-9647389D01*
X10811491Y-9647389D02*
X10801968Y-9666436D01*
X10801968Y-9666436D02*
X10792444Y-9675960D01*
X10792444Y-9675960D02*
X10773396Y-9685484D01*
X10773396Y-9685484D02*
X10716253Y-9685484D01*
X10716253Y-9685484D02*
X10697206Y-9675960D01*
X10697206Y-9675960D02*
X10687682Y-9666436D01*
X10992444Y-9485484D02*
X10897206Y-9485484D01*
X10897206Y-9485484D02*
X10887682Y-9580722D01*
X10887682Y-9580722D02*
X10897206Y-9571198D01*
X10897206Y-9571198D02*
X10916253Y-9561674D01*
X10916253Y-9561674D02*
X10963872Y-9561674D01*
X10963872Y-9561674D02*
X10982920Y-9571198D01*
X10982920Y-9571198D02*
X10992444Y-9580722D01*
X10992444Y-9580722D02*
X11001968Y-9599770D01*
X11001968Y-9599770D02*
X11001968Y-9647389D01*
X11001968Y-9647389D02*
X10992444Y-9666436D01*
X10992444Y-9666436D02*
X10982920Y-9675960D01*
X10982920Y-9675960D02*
X10963872Y-9685484D01*
X10963872Y-9685484D02*
X10916253Y-9685484D01*
X10916253Y-9685484D02*
X10897206Y-9675960D01*
X10897206Y-9675960D02*
X10887682Y-9666436D01*
X11173396Y-9552150D02*
X11173396Y-9685484D01*
X11125777Y-9475960D02*
X11078158Y-9618817D01*
X11078158Y-9618817D02*
X11201967Y-9618817D01*
X11268634Y-9485484D02*
X11268634Y-9523579D01*
X11344825Y-9485484D02*
X11344825Y-9523579D01*
X11640063Y-9761674D02*
X11630539Y-9752150D01*
X11630539Y-9752150D02*
X11611491Y-9723579D01*
X11611491Y-9723579D02*
X11601968Y-9704531D01*
X11601968Y-9704531D02*
X11592444Y-9675960D01*
X11592444Y-9675960D02*
X11582920Y-9628341D01*
X11582920Y-9628341D02*
X11582920Y-9590246D01*
X11582920Y-9590246D02*
X11592444Y-9542627D01*
X11592444Y-9542627D02*
X11601968Y-9514055D01*
X11601968Y-9514055D02*
X11611491Y-9495008D01*
X11611491Y-9495008D02*
X11630539Y-9466436D01*
X11630539Y-9466436D02*
X11640063Y-9456912D01*
X11706729Y-9504531D02*
X11716253Y-9495008D01*
X11716253Y-9495008D02*
X11735301Y-9485484D01*
X11735301Y-9485484D02*
X11782920Y-9485484D01*
X11782920Y-9485484D02*
X11801968Y-9495008D01*
X11801968Y-9495008D02*
X11811491Y-9504531D01*
X11811491Y-9504531D02*
X11821015Y-9523579D01*
X11821015Y-9523579D02*
X11821015Y-9542627D01*
X11821015Y-9542627D02*
X11811491Y-9571198D01*
X11811491Y-9571198D02*
X11697206Y-9685484D01*
X11697206Y-9685484D02*
X11821015Y-9685484D01*
X12059110Y-9685484D02*
X12059110Y-9485484D01*
X12144825Y-9685484D02*
X12144825Y-9580722D01*
X12144825Y-9580722D02*
X12135301Y-9561674D01*
X12135301Y-9561674D02*
X12116253Y-9552150D01*
X12116253Y-9552150D02*
X12087682Y-9552150D01*
X12087682Y-9552150D02*
X12068634Y-9561674D01*
X12068634Y-9561674D02*
X12059110Y-9571198D01*
X12268634Y-9685484D02*
X12249587Y-9675960D01*
X12249587Y-9675960D02*
X12240063Y-9666436D01*
X12240063Y-9666436D02*
X12230539Y-9647389D01*
X12230539Y-9647389D02*
X12230539Y-9590246D01*
X12230539Y-9590246D02*
X12240063Y-9571198D01*
X12240063Y-9571198D02*
X12249587Y-9561674D01*
X12249587Y-9561674D02*
X12268634Y-9552150D01*
X12268634Y-9552150D02*
X12297206Y-9552150D01*
X12297206Y-9552150D02*
X12316253Y-9561674D01*
X12316253Y-9561674D02*
X12325777Y-9571198D01*
X12325777Y-9571198D02*
X12335301Y-9590246D01*
X12335301Y-9590246D02*
X12335301Y-9647389D01*
X12335301Y-9647389D02*
X12325777Y-9666436D01*
X12325777Y-9666436D02*
X12316253Y-9675960D01*
X12316253Y-9675960D02*
X12297206Y-9685484D01*
X12297206Y-9685484D02*
X12268634Y-9685484D01*
X12449587Y-9685484D02*
X12430539Y-9675960D01*
X12430539Y-9675960D02*
X12421015Y-9656912D01*
X12421015Y-9656912D02*
X12421015Y-9485484D01*
X12601968Y-9675960D02*
X12582920Y-9685484D01*
X12582920Y-9685484D02*
X12544825Y-9685484D01*
X12544825Y-9685484D02*
X12525777Y-9675960D01*
X12525777Y-9675960D02*
X12516253Y-9656912D01*
X12516253Y-9656912D02*
X12516253Y-9580722D01*
X12516253Y-9580722D02*
X12525777Y-9561674D01*
X12525777Y-9561674D02*
X12544825Y-9552150D01*
X12544825Y-9552150D02*
X12582920Y-9552150D01*
X12582920Y-9552150D02*
X12601968Y-9561674D01*
X12601968Y-9561674D02*
X12611491Y-9580722D01*
X12611491Y-9580722D02*
X12611491Y-9599770D01*
X12611491Y-9599770D02*
X12516253Y-9618817D01*
X12687682Y-9675960D02*
X12706730Y-9685484D01*
X12706730Y-9685484D02*
X12744825Y-9685484D01*
X12744825Y-9685484D02*
X12763872Y-9675960D01*
X12763872Y-9675960D02*
X12773396Y-9656912D01*
X12773396Y-9656912D02*
X12773396Y-9647389D01*
X12773396Y-9647389D02*
X12763872Y-9628341D01*
X12763872Y-9628341D02*
X12744825Y-9618817D01*
X12744825Y-9618817D02*
X12716253Y-9618817D01*
X12716253Y-9618817D02*
X12697206Y-9609293D01*
X12697206Y-9609293D02*
X12687682Y-9590246D01*
X12687682Y-9590246D02*
X12687682Y-9580722D01*
X12687682Y-9580722D02*
X12697206Y-9561674D01*
X12697206Y-9561674D02*
X12716253Y-9552150D01*
X12716253Y-9552150D02*
X12744825Y-9552150D01*
X12744825Y-9552150D02*
X12763872Y-9561674D01*
X12840063Y-9761674D02*
X12849587Y-9752150D01*
X12849587Y-9752150D02*
X12868634Y-9723579D01*
X12868634Y-9723579D02*
X12878158Y-9704531D01*
X12878158Y-9704531D02*
X12887682Y-9675960D01*
X12887682Y-9675960D02*
X12897206Y-9628341D01*
X12897206Y-9628341D02*
X12897206Y-9590246D01*
X12897206Y-9590246D02*
X12887682Y-9542627D01*
X12887682Y-9542627D02*
X12878158Y-9514055D01*
X12878158Y-9514055D02*
X12868634Y-9495008D01*
X12868634Y-9495008D02*
X12849587Y-9466436D01*
X12849587Y-9466436D02*
X12840063Y-9456912D01*
D10*
X7965000Y-9808000D02*
X8065000Y-9908000D01*
X8065000Y-9808000D02*
X7965000Y-9908000D01*
X8065000Y-9858000D02*
G75*
G02*
X7965000Y-9858000I-50000J0D01*
G01*
X7965000Y-9858000D02*
G75*
G02*
X8065000Y-9858000I50000J0D01*
G01*
D11*
X8430539Y-9949484D02*
X8316253Y-9949484D01*
X8373396Y-9949484D02*
X8373396Y-9749484D01*
X8373396Y-9749484D02*
X8354348Y-9778055D01*
X8354348Y-9778055D02*
X8335301Y-9797103D01*
X8335301Y-9797103D02*
X8316253Y-9806627D01*
X8516253Y-9930436D02*
X8525777Y-9939960D01*
X8525777Y-9939960D02*
X8516253Y-9949484D01*
X8516253Y-9949484D02*
X8506729Y-9939960D01*
X8506729Y-9939960D02*
X8516253Y-9930436D01*
X8516253Y-9930436D02*
X8516253Y-9949484D01*
X8649586Y-9749484D02*
X8668634Y-9749484D01*
X8668634Y-9749484D02*
X8687682Y-9759008D01*
X8687682Y-9759008D02*
X8697205Y-9768531D01*
X8697205Y-9768531D02*
X8706729Y-9787579D01*
X8706729Y-9787579D02*
X8716253Y-9825674D01*
X8716253Y-9825674D02*
X8716253Y-9873293D01*
X8716253Y-9873293D02*
X8706729Y-9911389D01*
X8706729Y-9911389D02*
X8697205Y-9930436D01*
X8697205Y-9930436D02*
X8687682Y-9939960D01*
X8687682Y-9939960D02*
X8668634Y-9949484D01*
X8668634Y-9949484D02*
X8649586Y-9949484D01*
X8649586Y-9949484D02*
X8630539Y-9939960D01*
X8630539Y-9939960D02*
X8621015Y-9930436D01*
X8621015Y-9930436D02*
X8611491Y-9911389D01*
X8611491Y-9911389D02*
X8601967Y-9873293D01*
X8601967Y-9873293D02*
X8601967Y-9825674D01*
X8601967Y-9825674D02*
X8611491Y-9787579D01*
X8611491Y-9787579D02*
X8621015Y-9768531D01*
X8621015Y-9768531D02*
X8630539Y-9759008D01*
X8630539Y-9759008D02*
X8649586Y-9749484D01*
X8840063Y-9749484D02*
X8859110Y-9749484D01*
X8859110Y-9749484D02*
X8878158Y-9759008D01*
X8878158Y-9759008D02*
X8887682Y-9768531D01*
X8887682Y-9768531D02*
X8897205Y-9787579D01*
X8897205Y-9787579D02*
X8906729Y-9825674D01*
X8906729Y-9825674D02*
X8906729Y-9873293D01*
X8906729Y-9873293D02*
X8897205Y-9911389D01*
X8897205Y-9911389D02*
X8887682Y-9930436D01*
X8887682Y-9930436D02*
X8878158Y-9939960D01*
X8878158Y-9939960D02*
X8859110Y-9949484D01*
X8859110Y-9949484D02*
X8840063Y-9949484D01*
X8840063Y-9949484D02*
X8821015Y-9939960D01*
X8821015Y-9939960D02*
X8811491Y-9930436D01*
X8811491Y-9930436D02*
X8801967Y-9911389D01*
X8801967Y-9911389D02*
X8792444Y-9873293D01*
X8792444Y-9873293D02*
X8792444Y-9825674D01*
X8792444Y-9825674D02*
X8801967Y-9787579D01*
X8801967Y-9787579D02*
X8811491Y-9768531D01*
X8811491Y-9768531D02*
X8821015Y-9759008D01*
X8821015Y-9759008D02*
X8840063Y-9749484D01*
X9030539Y-9749484D02*
X9049586Y-9749484D01*
X9049586Y-9749484D02*
X9068634Y-9759008D01*
X9068634Y-9759008D02*
X9078158Y-9768531D01*
X9078158Y-9768531D02*
X9087682Y-9787579D01*
X9087682Y-9787579D02*
X9097205Y-9825674D01*
X9097205Y-9825674D02*
X9097205Y-9873293D01*
X9097205Y-9873293D02*
X9087682Y-9911389D01*
X9087682Y-9911389D02*
X9078158Y-9930436D01*
X9078158Y-9930436D02*
X9068634Y-9939960D01*
X9068634Y-9939960D02*
X9049586Y-9949484D01*
X9049586Y-9949484D02*
X9030539Y-9949484D01*
X9030539Y-9949484D02*
X9011491Y-9939960D01*
X9011491Y-9939960D02*
X9001967Y-9930436D01*
X9001967Y-9930436D02*
X8992444Y-9911389D01*
X8992444Y-9911389D02*
X8982920Y-9873293D01*
X8982920Y-9873293D02*
X8982920Y-9825674D01*
X8982920Y-9825674D02*
X8992444Y-9787579D01*
X8992444Y-9787579D02*
X9001967Y-9768531D01*
X9001967Y-9768531D02*
X9011491Y-9759008D01*
X9011491Y-9759008D02*
X9030539Y-9749484D01*
X9182920Y-9949484D02*
X9182920Y-9816150D01*
X9182920Y-9835198D02*
X9192444Y-9825674D01*
X9192444Y-9825674D02*
X9211491Y-9816150D01*
X9211491Y-9816150D02*
X9240063Y-9816150D01*
X9240063Y-9816150D02*
X9259110Y-9825674D01*
X9259110Y-9825674D02*
X9268634Y-9844722D01*
X9268634Y-9844722D02*
X9268634Y-9949484D01*
X9268634Y-9844722D02*
X9278158Y-9825674D01*
X9278158Y-9825674D02*
X9297205Y-9816150D01*
X9297205Y-9816150D02*
X9325777Y-9816150D01*
X9325777Y-9816150D02*
X9344825Y-9825674D01*
X9344825Y-9825674D02*
X9354348Y-9844722D01*
X9354348Y-9844722D02*
X9354348Y-9949484D01*
X9449586Y-9949484D02*
X9449586Y-9816150D01*
X9449586Y-9835198D02*
X9459110Y-9825674D01*
X9459110Y-9825674D02*
X9478158Y-9816150D01*
X9478158Y-9816150D02*
X9506729Y-9816150D01*
X9506729Y-9816150D02*
X9525777Y-9825674D01*
X9525777Y-9825674D02*
X9535301Y-9844722D01*
X9535301Y-9844722D02*
X9535301Y-9949484D01*
X9535301Y-9844722D02*
X9544825Y-9825674D01*
X9544825Y-9825674D02*
X9563872Y-9816150D01*
X9563872Y-9816150D02*
X9592444Y-9816150D01*
X9592444Y-9816150D02*
X9611491Y-9825674D01*
X9611491Y-9825674D02*
X9621015Y-9844722D01*
X9621015Y-9844722D02*
X9621015Y-9949484D01*
X10011491Y-9739960D02*
X9840063Y-9997103D01*
X10268634Y-9749484D02*
X10287682Y-9749484D01*
X10287682Y-9749484D02*
X10306729Y-9759008D01*
X10306729Y-9759008D02*
X10316253Y-9768531D01*
X10316253Y-9768531D02*
X10325777Y-9787579D01*
X10325777Y-9787579D02*
X10335301Y-9825674D01*
X10335301Y-9825674D02*
X10335301Y-9873293D01*
X10335301Y-9873293D02*
X10325777Y-9911389D01*
X10325777Y-9911389D02*
X10316253Y-9930436D01*
X10316253Y-9930436D02*
X10306729Y-9939960D01*
X10306729Y-9939960D02*
X10287682Y-9949484D01*
X10287682Y-9949484D02*
X10268634Y-9949484D01*
X10268634Y-9949484D02*
X10249587Y-9939960D01*
X10249587Y-9939960D02*
X10240063Y-9930436D01*
X10240063Y-9930436D02*
X10230539Y-9911389D01*
X10230539Y-9911389D02*
X10221015Y-9873293D01*
X10221015Y-9873293D02*
X10221015Y-9825674D01*
X10221015Y-9825674D02*
X10230539Y-9787579D01*
X10230539Y-9787579D02*
X10240063Y-9768531D01*
X10240063Y-9768531D02*
X10249587Y-9759008D01*
X10249587Y-9759008D02*
X10268634Y-9749484D01*
X10421015Y-9930436D02*
X10430539Y-9939960D01*
X10430539Y-9939960D02*
X10421015Y-9949484D01*
X10421015Y-9949484D02*
X10411491Y-9939960D01*
X10411491Y-9939960D02*
X10421015Y-9930436D01*
X10421015Y-9930436D02*
X10421015Y-9949484D01*
X10554348Y-9749484D02*
X10573396Y-9749484D01*
X10573396Y-9749484D02*
X10592444Y-9759008D01*
X10592444Y-9759008D02*
X10601968Y-9768531D01*
X10601968Y-9768531D02*
X10611491Y-9787579D01*
X10611491Y-9787579D02*
X10621015Y-9825674D01*
X10621015Y-9825674D02*
X10621015Y-9873293D01*
X10621015Y-9873293D02*
X10611491Y-9911389D01*
X10611491Y-9911389D02*
X10601968Y-9930436D01*
X10601968Y-9930436D02*
X10592444Y-9939960D01*
X10592444Y-9939960D02*
X10573396Y-9949484D01*
X10573396Y-9949484D02*
X10554348Y-9949484D01*
X10554348Y-9949484D02*
X10535301Y-9939960D01*
X10535301Y-9939960D02*
X10525777Y-9930436D01*
X10525777Y-9930436D02*
X10516253Y-9911389D01*
X10516253Y-9911389D02*
X10506729Y-9873293D01*
X10506729Y-9873293D02*
X10506729Y-9825674D01*
X10506729Y-9825674D02*
X10516253Y-9787579D01*
X10516253Y-9787579D02*
X10525777Y-9768531D01*
X10525777Y-9768531D02*
X10535301Y-9759008D01*
X10535301Y-9759008D02*
X10554348Y-9749484D01*
X10687682Y-9749484D02*
X10811491Y-9749484D01*
X10811491Y-9749484D02*
X10744825Y-9825674D01*
X10744825Y-9825674D02*
X10773396Y-9825674D01*
X10773396Y-9825674D02*
X10792444Y-9835198D01*
X10792444Y-9835198D02*
X10801968Y-9844722D01*
X10801968Y-9844722D02*
X10811491Y-9863770D01*
X10811491Y-9863770D02*
X10811491Y-9911389D01*
X10811491Y-9911389D02*
X10801968Y-9930436D01*
X10801968Y-9930436D02*
X10792444Y-9939960D01*
X10792444Y-9939960D02*
X10773396Y-9949484D01*
X10773396Y-9949484D02*
X10716253Y-9949484D01*
X10716253Y-9949484D02*
X10697206Y-9939960D01*
X10697206Y-9939960D02*
X10687682Y-9930436D01*
X10906729Y-9949484D02*
X10944825Y-9949484D01*
X10944825Y-9949484D02*
X10963872Y-9939960D01*
X10963872Y-9939960D02*
X10973396Y-9930436D01*
X10973396Y-9930436D02*
X10992444Y-9901865D01*
X10992444Y-9901865D02*
X11001968Y-9863770D01*
X11001968Y-9863770D02*
X11001968Y-9787579D01*
X11001968Y-9787579D02*
X10992444Y-9768531D01*
X10992444Y-9768531D02*
X10982920Y-9759008D01*
X10982920Y-9759008D02*
X10963872Y-9749484D01*
X10963872Y-9749484D02*
X10925777Y-9749484D01*
X10925777Y-9749484D02*
X10906729Y-9759008D01*
X10906729Y-9759008D02*
X10897206Y-9768531D01*
X10897206Y-9768531D02*
X10887682Y-9787579D01*
X10887682Y-9787579D02*
X10887682Y-9835198D01*
X10887682Y-9835198D02*
X10897206Y-9854246D01*
X10897206Y-9854246D02*
X10906729Y-9863770D01*
X10906729Y-9863770D02*
X10925777Y-9873293D01*
X10925777Y-9873293D02*
X10963872Y-9873293D01*
X10963872Y-9873293D02*
X10982920Y-9863770D01*
X10982920Y-9863770D02*
X10992444Y-9854246D01*
X10992444Y-9854246D02*
X11001968Y-9835198D01*
X11173396Y-9816150D02*
X11173396Y-9949484D01*
X11125777Y-9739960D02*
X11078158Y-9882817D01*
X11078158Y-9882817D02*
X11201967Y-9882817D01*
X11268634Y-9749484D02*
X11268634Y-9787579D01*
X11344825Y-9749484D02*
X11344825Y-9787579D01*
X11640063Y-10025674D02*
X11630539Y-10016150D01*
X11630539Y-10016150D02*
X11611491Y-9987579D01*
X11611491Y-9987579D02*
X11601968Y-9968531D01*
X11601968Y-9968531D02*
X11592444Y-9939960D01*
X11592444Y-9939960D02*
X11582920Y-9892341D01*
X11582920Y-9892341D02*
X11582920Y-9854246D01*
X11582920Y-9854246D02*
X11592444Y-9806627D01*
X11592444Y-9806627D02*
X11601968Y-9778055D01*
X11601968Y-9778055D02*
X11611491Y-9759008D01*
X11611491Y-9759008D02*
X11630539Y-9730436D01*
X11630539Y-9730436D02*
X11640063Y-9720912D01*
X11697206Y-9749484D02*
X11821015Y-9749484D01*
X11821015Y-9749484D02*
X11754348Y-9825674D01*
X11754348Y-9825674D02*
X11782920Y-9825674D01*
X11782920Y-9825674D02*
X11801968Y-9835198D01*
X11801968Y-9835198D02*
X11811491Y-9844722D01*
X11811491Y-9844722D02*
X11821015Y-9863770D01*
X11821015Y-9863770D02*
X11821015Y-9911389D01*
X11821015Y-9911389D02*
X11811491Y-9930436D01*
X11811491Y-9930436D02*
X11801968Y-9939960D01*
X11801968Y-9939960D02*
X11782920Y-9949484D01*
X11782920Y-9949484D02*
X11725777Y-9949484D01*
X11725777Y-9949484D02*
X11706729Y-9939960D01*
X11706729Y-9939960D02*
X11697206Y-9930436D01*
X11935301Y-9835198D02*
X11916253Y-9825674D01*
X11916253Y-9825674D02*
X11906729Y-9816150D01*
X11906729Y-9816150D02*
X11897206Y-9797103D01*
X11897206Y-9797103D02*
X11897206Y-9787579D01*
X11897206Y-9787579D02*
X11906729Y-9768531D01*
X11906729Y-9768531D02*
X11916253Y-9759008D01*
X11916253Y-9759008D02*
X11935301Y-9749484D01*
X11935301Y-9749484D02*
X11973396Y-9749484D01*
X11973396Y-9749484D02*
X11992444Y-9759008D01*
X11992444Y-9759008D02*
X12001968Y-9768531D01*
X12001968Y-9768531D02*
X12011491Y-9787579D01*
X12011491Y-9787579D02*
X12011491Y-9797103D01*
X12011491Y-9797103D02*
X12001968Y-9816150D01*
X12001968Y-9816150D02*
X11992444Y-9825674D01*
X11992444Y-9825674D02*
X11973396Y-9835198D01*
X11973396Y-9835198D02*
X11935301Y-9835198D01*
X11935301Y-9835198D02*
X11916253Y-9844722D01*
X11916253Y-9844722D02*
X11906729Y-9854246D01*
X11906729Y-9854246D02*
X11897206Y-9873293D01*
X11897206Y-9873293D02*
X11897206Y-9911389D01*
X11897206Y-9911389D02*
X11906729Y-9930436D01*
X11906729Y-9930436D02*
X11916253Y-9939960D01*
X11916253Y-9939960D02*
X11935301Y-9949484D01*
X11935301Y-9949484D02*
X11973396Y-9949484D01*
X11973396Y-9949484D02*
X11992444Y-9939960D01*
X11992444Y-9939960D02*
X12001968Y-9930436D01*
X12001968Y-9930436D02*
X12011491Y-9911389D01*
X12011491Y-9911389D02*
X12011491Y-9873293D01*
X12011491Y-9873293D02*
X12001968Y-9854246D01*
X12001968Y-9854246D02*
X11992444Y-9844722D01*
X11992444Y-9844722D02*
X11973396Y-9835198D01*
X12249587Y-9949484D02*
X12249587Y-9749484D01*
X12335301Y-9949484D02*
X12335301Y-9844722D01*
X12335301Y-9844722D02*
X12325777Y-9825674D01*
X12325777Y-9825674D02*
X12306730Y-9816150D01*
X12306730Y-9816150D02*
X12278158Y-9816150D01*
X12278158Y-9816150D02*
X12259110Y-9825674D01*
X12259110Y-9825674D02*
X12249587Y-9835198D01*
X12459110Y-9949484D02*
X12440063Y-9939960D01*
X12440063Y-9939960D02*
X12430539Y-9930436D01*
X12430539Y-9930436D02*
X12421015Y-9911389D01*
X12421015Y-9911389D02*
X12421015Y-9854246D01*
X12421015Y-9854246D02*
X12430539Y-9835198D01*
X12430539Y-9835198D02*
X12440063Y-9825674D01*
X12440063Y-9825674D02*
X12459110Y-9816150D01*
X12459110Y-9816150D02*
X12487682Y-9816150D01*
X12487682Y-9816150D02*
X12506730Y-9825674D01*
X12506730Y-9825674D02*
X12516253Y-9835198D01*
X12516253Y-9835198D02*
X12525777Y-9854246D01*
X12525777Y-9854246D02*
X12525777Y-9911389D01*
X12525777Y-9911389D02*
X12516253Y-9930436D01*
X12516253Y-9930436D02*
X12506730Y-9939960D01*
X12506730Y-9939960D02*
X12487682Y-9949484D01*
X12487682Y-9949484D02*
X12459110Y-9949484D01*
X12640063Y-9949484D02*
X12621015Y-9939960D01*
X12621015Y-9939960D02*
X12611491Y-9920912D01*
X12611491Y-9920912D02*
X12611491Y-9749484D01*
X12792444Y-9939960D02*
X12773396Y-9949484D01*
X12773396Y-9949484D02*
X12735301Y-9949484D01*
X12735301Y-9949484D02*
X12716253Y-9939960D01*
X12716253Y-9939960D02*
X12706730Y-9920912D01*
X12706730Y-9920912D02*
X12706730Y-9844722D01*
X12706730Y-9844722D02*
X12716253Y-9825674D01*
X12716253Y-9825674D02*
X12735301Y-9816150D01*
X12735301Y-9816150D02*
X12773396Y-9816150D01*
X12773396Y-9816150D02*
X12792444Y-9825674D01*
X12792444Y-9825674D02*
X12801968Y-9844722D01*
X12801968Y-9844722D02*
X12801968Y-9863770D01*
X12801968Y-9863770D02*
X12706730Y-9882817D01*
X12878158Y-9939960D02*
X12897206Y-9949484D01*
X12897206Y-9949484D02*
X12935301Y-9949484D01*
X12935301Y-9949484D02*
X12954349Y-9939960D01*
X12954349Y-9939960D02*
X12963872Y-9920912D01*
X12963872Y-9920912D02*
X12963872Y-9911389D01*
X12963872Y-9911389D02*
X12954349Y-9892341D01*
X12954349Y-9892341D02*
X12935301Y-9882817D01*
X12935301Y-9882817D02*
X12906730Y-9882817D01*
X12906730Y-9882817D02*
X12887682Y-9873293D01*
X12887682Y-9873293D02*
X12878158Y-9854246D01*
X12878158Y-9854246D02*
X12878158Y-9844722D01*
X12878158Y-9844722D02*
X12887682Y-9825674D01*
X12887682Y-9825674D02*
X12906730Y-9816150D01*
X12906730Y-9816150D02*
X12935301Y-9816150D01*
X12935301Y-9816150D02*
X12954349Y-9825674D01*
X13201968Y-9873293D02*
X13354349Y-9873293D01*
X13278158Y-9949484D02*
X13278158Y-9797103D01*
X13582920Y-9749484D02*
X13706730Y-9749484D01*
X13706730Y-9749484D02*
X13640063Y-9825674D01*
X13640063Y-9825674D02*
X13668634Y-9825674D01*
X13668634Y-9825674D02*
X13687682Y-9835198D01*
X13687682Y-9835198D02*
X13697206Y-9844722D01*
X13697206Y-9844722D02*
X13706730Y-9863770D01*
X13706730Y-9863770D02*
X13706730Y-9911389D01*
X13706730Y-9911389D02*
X13697206Y-9930436D01*
X13697206Y-9930436D02*
X13687682Y-9939960D01*
X13687682Y-9939960D02*
X13668634Y-9949484D01*
X13668634Y-9949484D02*
X13611492Y-9949484D01*
X13611492Y-9949484D02*
X13592444Y-9939960D01*
X13592444Y-9939960D02*
X13582920Y-9930436D01*
X13935301Y-9939960D02*
X13954349Y-9949484D01*
X13954349Y-9949484D02*
X13992444Y-9949484D01*
X13992444Y-9949484D02*
X14011492Y-9939960D01*
X14011492Y-9939960D02*
X14021015Y-9920912D01*
X14021015Y-9920912D02*
X14021015Y-9911389D01*
X14021015Y-9911389D02*
X14011492Y-9892341D01*
X14011492Y-9892341D02*
X13992444Y-9882817D01*
X13992444Y-9882817D02*
X13963873Y-9882817D01*
X13963873Y-9882817D02*
X13944825Y-9873293D01*
X13944825Y-9873293D02*
X13935301Y-9854246D01*
X13935301Y-9854246D02*
X13935301Y-9844722D01*
X13935301Y-9844722D02*
X13944825Y-9825674D01*
X13944825Y-9825674D02*
X13963873Y-9816150D01*
X13963873Y-9816150D02*
X13992444Y-9816150D01*
X13992444Y-9816150D02*
X14011492Y-9825674D01*
X14135301Y-9949484D02*
X14116254Y-9939960D01*
X14116254Y-9939960D02*
X14106730Y-9920912D01*
X14106730Y-9920912D02*
X14106730Y-9749484D01*
X14240063Y-9949484D02*
X14221015Y-9939960D01*
X14221015Y-9939960D02*
X14211492Y-9930436D01*
X14211492Y-9930436D02*
X14201968Y-9911389D01*
X14201968Y-9911389D02*
X14201968Y-9854246D01*
X14201968Y-9854246D02*
X14211492Y-9835198D01*
X14211492Y-9835198D02*
X14221015Y-9825674D01*
X14221015Y-9825674D02*
X14240063Y-9816150D01*
X14240063Y-9816150D02*
X14268635Y-9816150D01*
X14268635Y-9816150D02*
X14287682Y-9825674D01*
X14287682Y-9825674D02*
X14297206Y-9835198D01*
X14297206Y-9835198D02*
X14306730Y-9854246D01*
X14306730Y-9854246D02*
X14306730Y-9911389D01*
X14306730Y-9911389D02*
X14297206Y-9930436D01*
X14297206Y-9930436D02*
X14287682Y-9939960D01*
X14287682Y-9939960D02*
X14268635Y-9949484D01*
X14268635Y-9949484D02*
X14240063Y-9949484D01*
X14363873Y-9816150D02*
X14440063Y-9816150D01*
X14392444Y-9749484D02*
X14392444Y-9920912D01*
X14392444Y-9920912D02*
X14401968Y-9939960D01*
X14401968Y-9939960D02*
X14421015Y-9949484D01*
X14421015Y-9949484D02*
X14440063Y-9949484D01*
X14497206Y-9939960D02*
X14516254Y-9949484D01*
X14516254Y-9949484D02*
X14554349Y-9949484D01*
X14554349Y-9949484D02*
X14573396Y-9939960D01*
X14573396Y-9939960D02*
X14582920Y-9920912D01*
X14582920Y-9920912D02*
X14582920Y-9911389D01*
X14582920Y-9911389D02*
X14573396Y-9892341D01*
X14573396Y-9892341D02*
X14554349Y-9882817D01*
X14554349Y-9882817D02*
X14525777Y-9882817D01*
X14525777Y-9882817D02*
X14506730Y-9873293D01*
X14506730Y-9873293D02*
X14497206Y-9854246D01*
X14497206Y-9854246D02*
X14497206Y-9844722D01*
X14497206Y-9844722D02*
X14506730Y-9825674D01*
X14506730Y-9825674D02*
X14525777Y-9816150D01*
X14525777Y-9816150D02*
X14554349Y-9816150D01*
X14554349Y-9816150D02*
X14573396Y-9825674D01*
X14649587Y-10025674D02*
X14659111Y-10016150D01*
X14659111Y-10016150D02*
X14678158Y-9987579D01*
X14678158Y-9987579D02*
X14687682Y-9968531D01*
X14687682Y-9968531D02*
X14697206Y-9939960D01*
X14697206Y-9939960D02*
X14706730Y-9892341D01*
X14706730Y-9892341D02*
X14706730Y-9854246D01*
X14706730Y-9854246D02*
X14697206Y-9806627D01*
X14697206Y-9806627D02*
X14687682Y-9778055D01*
X14687682Y-9778055D02*
X14678158Y-9759008D01*
X14678158Y-9759008D02*
X14659111Y-9730436D01*
X14659111Y-9730436D02*
X14649587Y-9720912D01*
D12*
X7955000Y-10067000D02*
X8065000Y-10177000D01*
X8065000Y-10067000D02*
X7955000Y-10177000D01*
X8010000Y-10067000D02*
X8010000Y-10177000D01*
X7955000Y-10122000D02*
X8065000Y-10122000D01*
D11*
X8430539Y-10213484D02*
X8316253Y-10213484D01*
X8373396Y-10213484D02*
X8373396Y-10013484D01*
X8373396Y-10013484D02*
X8354348Y-10042055D01*
X8354348Y-10042055D02*
X8335301Y-10061103D01*
X8335301Y-10061103D02*
X8316253Y-10070627D01*
X8516253Y-10194436D02*
X8525777Y-10203960D01*
X8525777Y-10203960D02*
X8516253Y-10213484D01*
X8516253Y-10213484D02*
X8506729Y-10203960D01*
X8506729Y-10203960D02*
X8516253Y-10194436D01*
X8516253Y-10194436D02*
X8516253Y-10213484D01*
X8716253Y-10213484D02*
X8601967Y-10213484D01*
X8659110Y-10213484D02*
X8659110Y-10013484D01*
X8659110Y-10013484D02*
X8640063Y-10042055D01*
X8640063Y-10042055D02*
X8621015Y-10061103D01*
X8621015Y-10061103D02*
X8601967Y-10070627D01*
X8840063Y-10013484D02*
X8859110Y-10013484D01*
X8859110Y-10013484D02*
X8878158Y-10023008D01*
X8878158Y-10023008D02*
X8887682Y-10032531D01*
X8887682Y-10032531D02*
X8897205Y-10051579D01*
X8897205Y-10051579D02*
X8906729Y-10089674D01*
X8906729Y-10089674D02*
X8906729Y-10137293D01*
X8906729Y-10137293D02*
X8897205Y-10175389D01*
X8897205Y-10175389D02*
X8887682Y-10194436D01*
X8887682Y-10194436D02*
X8878158Y-10203960D01*
X8878158Y-10203960D02*
X8859110Y-10213484D01*
X8859110Y-10213484D02*
X8840063Y-10213484D01*
X8840063Y-10213484D02*
X8821015Y-10203960D01*
X8821015Y-10203960D02*
X8811491Y-10194436D01*
X8811491Y-10194436D02*
X8801967Y-10175389D01*
X8801967Y-10175389D02*
X8792444Y-10137293D01*
X8792444Y-10137293D02*
X8792444Y-10089674D01*
X8792444Y-10089674D02*
X8801967Y-10051579D01*
X8801967Y-10051579D02*
X8811491Y-10032531D01*
X8811491Y-10032531D02*
X8821015Y-10023008D01*
X8821015Y-10023008D02*
X8840063Y-10013484D01*
X9030539Y-10013484D02*
X9049586Y-10013484D01*
X9049586Y-10013484D02*
X9068634Y-10023008D01*
X9068634Y-10023008D02*
X9078158Y-10032531D01*
X9078158Y-10032531D02*
X9087682Y-10051579D01*
X9087682Y-10051579D02*
X9097205Y-10089674D01*
X9097205Y-10089674D02*
X9097205Y-10137293D01*
X9097205Y-10137293D02*
X9087682Y-10175389D01*
X9087682Y-10175389D02*
X9078158Y-10194436D01*
X9078158Y-10194436D02*
X9068634Y-10203960D01*
X9068634Y-10203960D02*
X9049586Y-10213484D01*
X9049586Y-10213484D02*
X9030539Y-10213484D01*
X9030539Y-10213484D02*
X9011491Y-10203960D01*
X9011491Y-10203960D02*
X9001967Y-10194436D01*
X9001967Y-10194436D02*
X8992444Y-10175389D01*
X8992444Y-10175389D02*
X8982920Y-10137293D01*
X8982920Y-10137293D02*
X8982920Y-10089674D01*
X8982920Y-10089674D02*
X8992444Y-10051579D01*
X8992444Y-10051579D02*
X9001967Y-10032531D01*
X9001967Y-10032531D02*
X9011491Y-10023008D01*
X9011491Y-10023008D02*
X9030539Y-10013484D01*
X9182920Y-10213484D02*
X9182920Y-10080150D01*
X9182920Y-10099198D02*
X9192444Y-10089674D01*
X9192444Y-10089674D02*
X9211491Y-10080150D01*
X9211491Y-10080150D02*
X9240063Y-10080150D01*
X9240063Y-10080150D02*
X9259110Y-10089674D01*
X9259110Y-10089674D02*
X9268634Y-10108722D01*
X9268634Y-10108722D02*
X9268634Y-10213484D01*
X9268634Y-10108722D02*
X9278158Y-10089674D01*
X9278158Y-10089674D02*
X9297205Y-10080150D01*
X9297205Y-10080150D02*
X9325777Y-10080150D01*
X9325777Y-10080150D02*
X9344825Y-10089674D01*
X9344825Y-10089674D02*
X9354348Y-10108722D01*
X9354348Y-10108722D02*
X9354348Y-10213484D01*
X9449586Y-10213484D02*
X9449586Y-10080150D01*
X9449586Y-10099198D02*
X9459110Y-10089674D01*
X9459110Y-10089674D02*
X9478158Y-10080150D01*
X9478158Y-10080150D02*
X9506729Y-10080150D01*
X9506729Y-10080150D02*
X9525777Y-10089674D01*
X9525777Y-10089674D02*
X9535301Y-10108722D01*
X9535301Y-10108722D02*
X9535301Y-10213484D01*
X9535301Y-10108722D02*
X9544825Y-10089674D01*
X9544825Y-10089674D02*
X9563872Y-10080150D01*
X9563872Y-10080150D02*
X9592444Y-10080150D01*
X9592444Y-10080150D02*
X9611491Y-10089674D01*
X9611491Y-10089674D02*
X9621015Y-10108722D01*
X9621015Y-10108722D02*
X9621015Y-10213484D01*
X10011491Y-10003960D02*
X9840063Y-10261103D01*
X10268634Y-10013484D02*
X10287682Y-10013484D01*
X10287682Y-10013484D02*
X10306729Y-10023008D01*
X10306729Y-10023008D02*
X10316253Y-10032531D01*
X10316253Y-10032531D02*
X10325777Y-10051579D01*
X10325777Y-10051579D02*
X10335301Y-10089674D01*
X10335301Y-10089674D02*
X10335301Y-10137293D01*
X10335301Y-10137293D02*
X10325777Y-10175389D01*
X10325777Y-10175389D02*
X10316253Y-10194436D01*
X10316253Y-10194436D02*
X10306729Y-10203960D01*
X10306729Y-10203960D02*
X10287682Y-10213484D01*
X10287682Y-10213484D02*
X10268634Y-10213484D01*
X10268634Y-10213484D02*
X10249587Y-10203960D01*
X10249587Y-10203960D02*
X10240063Y-10194436D01*
X10240063Y-10194436D02*
X10230539Y-10175389D01*
X10230539Y-10175389D02*
X10221015Y-10137293D01*
X10221015Y-10137293D02*
X10221015Y-10089674D01*
X10221015Y-10089674D02*
X10230539Y-10051579D01*
X10230539Y-10051579D02*
X10240063Y-10032531D01*
X10240063Y-10032531D02*
X10249587Y-10023008D01*
X10249587Y-10023008D02*
X10268634Y-10013484D01*
X10421015Y-10194436D02*
X10430539Y-10203960D01*
X10430539Y-10203960D02*
X10421015Y-10213484D01*
X10421015Y-10213484D02*
X10411491Y-10203960D01*
X10411491Y-10203960D02*
X10421015Y-10194436D01*
X10421015Y-10194436D02*
X10421015Y-10213484D01*
X10554348Y-10013484D02*
X10573396Y-10013484D01*
X10573396Y-10013484D02*
X10592444Y-10023008D01*
X10592444Y-10023008D02*
X10601968Y-10032531D01*
X10601968Y-10032531D02*
X10611491Y-10051579D01*
X10611491Y-10051579D02*
X10621015Y-10089674D01*
X10621015Y-10089674D02*
X10621015Y-10137293D01*
X10621015Y-10137293D02*
X10611491Y-10175389D01*
X10611491Y-10175389D02*
X10601968Y-10194436D01*
X10601968Y-10194436D02*
X10592444Y-10203960D01*
X10592444Y-10203960D02*
X10573396Y-10213484D01*
X10573396Y-10213484D02*
X10554348Y-10213484D01*
X10554348Y-10213484D02*
X10535301Y-10203960D01*
X10535301Y-10203960D02*
X10525777Y-10194436D01*
X10525777Y-10194436D02*
X10516253Y-10175389D01*
X10516253Y-10175389D02*
X10506729Y-10137293D01*
X10506729Y-10137293D02*
X10506729Y-10089674D01*
X10506729Y-10089674D02*
X10516253Y-10051579D01*
X10516253Y-10051579D02*
X10525777Y-10032531D01*
X10525777Y-10032531D02*
X10535301Y-10023008D01*
X10535301Y-10023008D02*
X10554348Y-10013484D01*
X10792444Y-10080150D02*
X10792444Y-10213484D01*
X10744825Y-10003960D02*
X10697206Y-10146817D01*
X10697206Y-10146817D02*
X10821015Y-10146817D01*
X10878158Y-10013484D02*
X11001968Y-10013484D01*
X11001968Y-10013484D02*
X10935301Y-10089674D01*
X10935301Y-10089674D02*
X10963872Y-10089674D01*
X10963872Y-10089674D02*
X10982920Y-10099198D01*
X10982920Y-10099198D02*
X10992444Y-10108722D01*
X10992444Y-10108722D02*
X11001968Y-10127770D01*
X11001968Y-10127770D02*
X11001968Y-10175389D01*
X11001968Y-10175389D02*
X10992444Y-10194436D01*
X10992444Y-10194436D02*
X10982920Y-10203960D01*
X10982920Y-10203960D02*
X10963872Y-10213484D01*
X10963872Y-10213484D02*
X10906729Y-10213484D01*
X10906729Y-10213484D02*
X10887682Y-10203960D01*
X10887682Y-10203960D02*
X10878158Y-10194436D01*
X11068634Y-10013484D02*
X11192444Y-10013484D01*
X11192444Y-10013484D02*
X11125777Y-10089674D01*
X11125777Y-10089674D02*
X11154349Y-10089674D01*
X11154349Y-10089674D02*
X11173396Y-10099198D01*
X11173396Y-10099198D02*
X11182920Y-10108722D01*
X11182920Y-10108722D02*
X11192444Y-10127770D01*
X11192444Y-10127770D02*
X11192444Y-10175389D01*
X11192444Y-10175389D02*
X11182920Y-10194436D01*
X11182920Y-10194436D02*
X11173396Y-10203960D01*
X11173396Y-10203960D02*
X11154349Y-10213484D01*
X11154349Y-10213484D02*
X11097206Y-10213484D01*
X11097206Y-10213484D02*
X11078158Y-10203960D01*
X11078158Y-10203960D02*
X11068634Y-10194436D01*
X11268634Y-10013484D02*
X11268634Y-10051579D01*
X11344825Y-10013484D02*
X11344825Y-10051579D01*
X11640063Y-10289674D02*
X11630539Y-10280150D01*
X11630539Y-10280150D02*
X11611491Y-10251579D01*
X11611491Y-10251579D02*
X11601968Y-10232531D01*
X11601968Y-10232531D02*
X11592444Y-10203960D01*
X11592444Y-10203960D02*
X11582920Y-10156341D01*
X11582920Y-10156341D02*
X11582920Y-10118246D01*
X11582920Y-10118246D02*
X11592444Y-10070627D01*
X11592444Y-10070627D02*
X11601968Y-10042055D01*
X11601968Y-10042055D02*
X11611491Y-10023008D01*
X11611491Y-10023008D02*
X11630539Y-9994436D01*
X11630539Y-9994436D02*
X11640063Y-9984912D01*
X11697206Y-10013484D02*
X11821015Y-10013484D01*
X11821015Y-10013484D02*
X11754348Y-10089674D01*
X11754348Y-10089674D02*
X11782920Y-10089674D01*
X11782920Y-10089674D02*
X11801968Y-10099198D01*
X11801968Y-10099198D02*
X11811491Y-10108722D01*
X11811491Y-10108722D02*
X11821015Y-10127770D01*
X11821015Y-10127770D02*
X11821015Y-10175389D01*
X11821015Y-10175389D02*
X11811491Y-10194436D01*
X11811491Y-10194436D02*
X11801968Y-10203960D01*
X11801968Y-10203960D02*
X11782920Y-10213484D01*
X11782920Y-10213484D02*
X11725777Y-10213484D01*
X11725777Y-10213484D02*
X11706729Y-10203960D01*
X11706729Y-10203960D02*
X11697206Y-10194436D01*
X12059110Y-10213484D02*
X12059110Y-10013484D01*
X12144825Y-10213484D02*
X12144825Y-10108722D01*
X12144825Y-10108722D02*
X12135301Y-10089674D01*
X12135301Y-10089674D02*
X12116253Y-10080150D01*
X12116253Y-10080150D02*
X12087682Y-10080150D01*
X12087682Y-10080150D02*
X12068634Y-10089674D01*
X12068634Y-10089674D02*
X12059110Y-10099198D01*
X12268634Y-10213484D02*
X12249587Y-10203960D01*
X12249587Y-10203960D02*
X12240063Y-10194436D01*
X12240063Y-10194436D02*
X12230539Y-10175389D01*
X12230539Y-10175389D02*
X12230539Y-10118246D01*
X12230539Y-10118246D02*
X12240063Y-10099198D01*
X12240063Y-10099198D02*
X12249587Y-10089674D01*
X12249587Y-10089674D02*
X12268634Y-10080150D01*
X12268634Y-10080150D02*
X12297206Y-10080150D01*
X12297206Y-10080150D02*
X12316253Y-10089674D01*
X12316253Y-10089674D02*
X12325777Y-10099198D01*
X12325777Y-10099198D02*
X12335301Y-10118246D01*
X12335301Y-10118246D02*
X12335301Y-10175389D01*
X12335301Y-10175389D02*
X12325777Y-10194436D01*
X12325777Y-10194436D02*
X12316253Y-10203960D01*
X12316253Y-10203960D02*
X12297206Y-10213484D01*
X12297206Y-10213484D02*
X12268634Y-10213484D01*
X12449587Y-10213484D02*
X12430539Y-10203960D01*
X12430539Y-10203960D02*
X12421015Y-10184912D01*
X12421015Y-10184912D02*
X12421015Y-10013484D01*
X12601968Y-10203960D02*
X12582920Y-10213484D01*
X12582920Y-10213484D02*
X12544825Y-10213484D01*
X12544825Y-10213484D02*
X12525777Y-10203960D01*
X12525777Y-10203960D02*
X12516253Y-10184912D01*
X12516253Y-10184912D02*
X12516253Y-10108722D01*
X12516253Y-10108722D02*
X12525777Y-10089674D01*
X12525777Y-10089674D02*
X12544825Y-10080150D01*
X12544825Y-10080150D02*
X12582920Y-10080150D01*
X12582920Y-10080150D02*
X12601968Y-10089674D01*
X12601968Y-10089674D02*
X12611491Y-10108722D01*
X12611491Y-10108722D02*
X12611491Y-10127770D01*
X12611491Y-10127770D02*
X12516253Y-10146817D01*
X12687682Y-10203960D02*
X12706730Y-10213484D01*
X12706730Y-10213484D02*
X12744825Y-10213484D01*
X12744825Y-10213484D02*
X12763872Y-10203960D01*
X12763872Y-10203960D02*
X12773396Y-10184912D01*
X12773396Y-10184912D02*
X12773396Y-10175389D01*
X12773396Y-10175389D02*
X12763872Y-10156341D01*
X12763872Y-10156341D02*
X12744825Y-10146817D01*
X12744825Y-10146817D02*
X12716253Y-10146817D01*
X12716253Y-10146817D02*
X12697206Y-10137293D01*
X12697206Y-10137293D02*
X12687682Y-10118246D01*
X12687682Y-10118246D02*
X12687682Y-10108722D01*
X12687682Y-10108722D02*
X12697206Y-10089674D01*
X12697206Y-10089674D02*
X12716253Y-10080150D01*
X12716253Y-10080150D02*
X12744825Y-10080150D01*
X12744825Y-10080150D02*
X12763872Y-10089674D01*
X12840063Y-10289674D02*
X12849587Y-10280150D01*
X12849587Y-10280150D02*
X12868634Y-10251579D01*
X12868634Y-10251579D02*
X12878158Y-10232531D01*
X12878158Y-10232531D02*
X12887682Y-10203960D01*
X12887682Y-10203960D02*
X12897206Y-10156341D01*
X12897206Y-10156341D02*
X12897206Y-10118246D01*
X12897206Y-10118246D02*
X12887682Y-10070627D01*
X12887682Y-10070627D02*
X12878158Y-10042055D01*
X12878158Y-10042055D02*
X12868634Y-10023008D01*
X12868634Y-10023008D02*
X12849587Y-9994436D01*
X12849587Y-9994436D02*
X12840063Y-9984912D01*
D13*
X7925000Y-10316000D02*
X8065000Y-10456000D01*
X8065000Y-10316000D02*
X7925000Y-10456000D01*
X8044498Y-10435498D02*
X8044498Y-10336502D01*
X7945502Y-10336502D01*
X7945502Y-10435498D01*
X8044498Y-10435498D01*
D11*
X8430539Y-10477484D02*
X8316253Y-10477484D01*
X8373396Y-10477484D02*
X8373396Y-10277484D01*
X8373396Y-10277484D02*
X8354348Y-10306055D01*
X8354348Y-10306055D02*
X8335301Y-10325103D01*
X8335301Y-10325103D02*
X8316253Y-10334627D01*
X8516253Y-10458436D02*
X8525777Y-10467960D01*
X8525777Y-10467960D02*
X8516253Y-10477484D01*
X8516253Y-10477484D02*
X8506729Y-10467960D01*
X8506729Y-10467960D02*
X8516253Y-10458436D01*
X8516253Y-10458436D02*
X8516253Y-10477484D01*
X8697205Y-10344150D02*
X8697205Y-10477484D01*
X8649586Y-10267960D02*
X8601967Y-10410817D01*
X8601967Y-10410817D02*
X8725777Y-10410817D01*
X8840063Y-10277484D02*
X8859110Y-10277484D01*
X8859110Y-10277484D02*
X8878158Y-10287008D01*
X8878158Y-10287008D02*
X8887682Y-10296531D01*
X8887682Y-10296531D02*
X8897205Y-10315579D01*
X8897205Y-10315579D02*
X8906729Y-10353674D01*
X8906729Y-10353674D02*
X8906729Y-10401293D01*
X8906729Y-10401293D02*
X8897205Y-10439389D01*
X8897205Y-10439389D02*
X8887682Y-10458436D01*
X8887682Y-10458436D02*
X8878158Y-10467960D01*
X8878158Y-10467960D02*
X8859110Y-10477484D01*
X8859110Y-10477484D02*
X8840063Y-10477484D01*
X8840063Y-10477484D02*
X8821015Y-10467960D01*
X8821015Y-10467960D02*
X8811491Y-10458436D01*
X8811491Y-10458436D02*
X8801967Y-10439389D01*
X8801967Y-10439389D02*
X8792444Y-10401293D01*
X8792444Y-10401293D02*
X8792444Y-10353674D01*
X8792444Y-10353674D02*
X8801967Y-10315579D01*
X8801967Y-10315579D02*
X8811491Y-10296531D01*
X8811491Y-10296531D02*
X8821015Y-10287008D01*
X8821015Y-10287008D02*
X8840063Y-10277484D01*
X9030539Y-10277484D02*
X9049586Y-10277484D01*
X9049586Y-10277484D02*
X9068634Y-10287008D01*
X9068634Y-10287008D02*
X9078158Y-10296531D01*
X9078158Y-10296531D02*
X9087682Y-10315579D01*
X9087682Y-10315579D02*
X9097205Y-10353674D01*
X9097205Y-10353674D02*
X9097205Y-10401293D01*
X9097205Y-10401293D02*
X9087682Y-10439389D01*
X9087682Y-10439389D02*
X9078158Y-10458436D01*
X9078158Y-10458436D02*
X9068634Y-10467960D01*
X9068634Y-10467960D02*
X9049586Y-10477484D01*
X9049586Y-10477484D02*
X9030539Y-10477484D01*
X9030539Y-10477484D02*
X9011491Y-10467960D01*
X9011491Y-10467960D02*
X9001967Y-10458436D01*
X9001967Y-10458436D02*
X8992444Y-10439389D01*
X8992444Y-10439389D02*
X8982920Y-10401293D01*
X8982920Y-10401293D02*
X8982920Y-10353674D01*
X8982920Y-10353674D02*
X8992444Y-10315579D01*
X8992444Y-10315579D02*
X9001967Y-10296531D01*
X9001967Y-10296531D02*
X9011491Y-10287008D01*
X9011491Y-10287008D02*
X9030539Y-10277484D01*
X9182920Y-10477484D02*
X9182920Y-10344150D01*
X9182920Y-10363198D02*
X9192444Y-10353674D01*
X9192444Y-10353674D02*
X9211491Y-10344150D01*
X9211491Y-10344150D02*
X9240063Y-10344150D01*
X9240063Y-10344150D02*
X9259110Y-10353674D01*
X9259110Y-10353674D02*
X9268634Y-10372722D01*
X9268634Y-10372722D02*
X9268634Y-10477484D01*
X9268634Y-10372722D02*
X9278158Y-10353674D01*
X9278158Y-10353674D02*
X9297205Y-10344150D01*
X9297205Y-10344150D02*
X9325777Y-10344150D01*
X9325777Y-10344150D02*
X9344825Y-10353674D01*
X9344825Y-10353674D02*
X9354348Y-10372722D01*
X9354348Y-10372722D02*
X9354348Y-10477484D01*
X9449586Y-10477484D02*
X9449586Y-10344150D01*
X9449586Y-10363198D02*
X9459110Y-10353674D01*
X9459110Y-10353674D02*
X9478158Y-10344150D01*
X9478158Y-10344150D02*
X9506729Y-10344150D01*
X9506729Y-10344150D02*
X9525777Y-10353674D01*
X9525777Y-10353674D02*
X9535301Y-10372722D01*
X9535301Y-10372722D02*
X9535301Y-10477484D01*
X9535301Y-10372722D02*
X9544825Y-10353674D01*
X9544825Y-10353674D02*
X9563872Y-10344150D01*
X9563872Y-10344150D02*
X9592444Y-10344150D01*
X9592444Y-10344150D02*
X9611491Y-10353674D01*
X9611491Y-10353674D02*
X9621015Y-10372722D01*
X9621015Y-10372722D02*
X9621015Y-10477484D01*
X10011491Y-10267960D02*
X9840063Y-10525103D01*
X10268634Y-10277484D02*
X10287682Y-10277484D01*
X10287682Y-10277484D02*
X10306729Y-10287008D01*
X10306729Y-10287008D02*
X10316253Y-10296531D01*
X10316253Y-10296531D02*
X10325777Y-10315579D01*
X10325777Y-10315579D02*
X10335301Y-10353674D01*
X10335301Y-10353674D02*
X10335301Y-10401293D01*
X10335301Y-10401293D02*
X10325777Y-10439389D01*
X10325777Y-10439389D02*
X10316253Y-10458436D01*
X10316253Y-10458436D02*
X10306729Y-10467960D01*
X10306729Y-10467960D02*
X10287682Y-10477484D01*
X10287682Y-10477484D02*
X10268634Y-10477484D01*
X10268634Y-10477484D02*
X10249587Y-10467960D01*
X10249587Y-10467960D02*
X10240063Y-10458436D01*
X10240063Y-10458436D02*
X10230539Y-10439389D01*
X10230539Y-10439389D02*
X10221015Y-10401293D01*
X10221015Y-10401293D02*
X10221015Y-10353674D01*
X10221015Y-10353674D02*
X10230539Y-10315579D01*
X10230539Y-10315579D02*
X10240063Y-10296531D01*
X10240063Y-10296531D02*
X10249587Y-10287008D01*
X10249587Y-10287008D02*
X10268634Y-10277484D01*
X10421015Y-10458436D02*
X10430539Y-10467960D01*
X10430539Y-10467960D02*
X10421015Y-10477484D01*
X10421015Y-10477484D02*
X10411491Y-10467960D01*
X10411491Y-10467960D02*
X10421015Y-10458436D01*
X10421015Y-10458436D02*
X10421015Y-10477484D01*
X10554348Y-10277484D02*
X10573396Y-10277484D01*
X10573396Y-10277484D02*
X10592444Y-10287008D01*
X10592444Y-10287008D02*
X10601968Y-10296531D01*
X10601968Y-10296531D02*
X10611491Y-10315579D01*
X10611491Y-10315579D02*
X10621015Y-10353674D01*
X10621015Y-10353674D02*
X10621015Y-10401293D01*
X10621015Y-10401293D02*
X10611491Y-10439389D01*
X10611491Y-10439389D02*
X10601968Y-10458436D01*
X10601968Y-10458436D02*
X10592444Y-10467960D01*
X10592444Y-10467960D02*
X10573396Y-10477484D01*
X10573396Y-10477484D02*
X10554348Y-10477484D01*
X10554348Y-10477484D02*
X10535301Y-10467960D01*
X10535301Y-10467960D02*
X10525777Y-10458436D01*
X10525777Y-10458436D02*
X10516253Y-10439389D01*
X10516253Y-10439389D02*
X10506729Y-10401293D01*
X10506729Y-10401293D02*
X10506729Y-10353674D01*
X10506729Y-10353674D02*
X10516253Y-10315579D01*
X10516253Y-10315579D02*
X10525777Y-10296531D01*
X10525777Y-10296531D02*
X10535301Y-10287008D01*
X10535301Y-10287008D02*
X10554348Y-10277484D01*
X10801968Y-10277484D02*
X10706729Y-10277484D01*
X10706729Y-10277484D02*
X10697206Y-10372722D01*
X10697206Y-10372722D02*
X10706729Y-10363198D01*
X10706729Y-10363198D02*
X10725777Y-10353674D01*
X10725777Y-10353674D02*
X10773396Y-10353674D01*
X10773396Y-10353674D02*
X10792444Y-10363198D01*
X10792444Y-10363198D02*
X10801968Y-10372722D01*
X10801968Y-10372722D02*
X10811491Y-10391770D01*
X10811491Y-10391770D02*
X10811491Y-10439389D01*
X10811491Y-10439389D02*
X10801968Y-10458436D01*
X10801968Y-10458436D02*
X10792444Y-10467960D01*
X10792444Y-10467960D02*
X10773396Y-10477484D01*
X10773396Y-10477484D02*
X10725777Y-10477484D01*
X10725777Y-10477484D02*
X10706729Y-10467960D01*
X10706729Y-10467960D02*
X10697206Y-10458436D01*
X10992444Y-10277484D02*
X10897206Y-10277484D01*
X10897206Y-10277484D02*
X10887682Y-10372722D01*
X10887682Y-10372722D02*
X10897206Y-10363198D01*
X10897206Y-10363198D02*
X10916253Y-10353674D01*
X10916253Y-10353674D02*
X10963872Y-10353674D01*
X10963872Y-10353674D02*
X10982920Y-10363198D01*
X10982920Y-10363198D02*
X10992444Y-10372722D01*
X10992444Y-10372722D02*
X11001968Y-10391770D01*
X11001968Y-10391770D02*
X11001968Y-10439389D01*
X11001968Y-10439389D02*
X10992444Y-10458436D01*
X10992444Y-10458436D02*
X10982920Y-10467960D01*
X10982920Y-10467960D02*
X10963872Y-10477484D01*
X10963872Y-10477484D02*
X10916253Y-10477484D01*
X10916253Y-10477484D02*
X10897206Y-10467960D01*
X10897206Y-10467960D02*
X10887682Y-10458436D01*
X11192444Y-10477484D02*
X11078158Y-10477484D01*
X11135301Y-10477484D02*
X11135301Y-10277484D01*
X11135301Y-10277484D02*
X11116253Y-10306055D01*
X11116253Y-10306055D02*
X11097206Y-10325103D01*
X11097206Y-10325103D02*
X11078158Y-10334627D01*
X11268634Y-10277484D02*
X11268634Y-10315579D01*
X11344825Y-10277484D02*
X11344825Y-10315579D01*
X11640063Y-10553674D02*
X11630539Y-10544150D01*
X11630539Y-10544150D02*
X11611491Y-10515579D01*
X11611491Y-10515579D02*
X11601968Y-10496531D01*
X11601968Y-10496531D02*
X11592444Y-10467960D01*
X11592444Y-10467960D02*
X11582920Y-10420341D01*
X11582920Y-10420341D02*
X11582920Y-10382246D01*
X11582920Y-10382246D02*
X11592444Y-10334627D01*
X11592444Y-10334627D02*
X11601968Y-10306055D01*
X11601968Y-10306055D02*
X11611491Y-10287008D01*
X11611491Y-10287008D02*
X11630539Y-10258436D01*
X11630539Y-10258436D02*
X11640063Y-10248912D01*
X11821015Y-10477484D02*
X11706729Y-10477484D01*
X11763872Y-10477484D02*
X11763872Y-10277484D01*
X11763872Y-10277484D02*
X11744825Y-10306055D01*
X11744825Y-10306055D02*
X11725777Y-10325103D01*
X11725777Y-10325103D02*
X11706729Y-10334627D01*
X11944825Y-10277484D02*
X11963872Y-10277484D01*
X11963872Y-10277484D02*
X11982920Y-10287008D01*
X11982920Y-10287008D02*
X11992444Y-10296531D01*
X11992444Y-10296531D02*
X12001968Y-10315579D01*
X12001968Y-10315579D02*
X12011491Y-10353674D01*
X12011491Y-10353674D02*
X12011491Y-10401293D01*
X12011491Y-10401293D02*
X12001968Y-10439389D01*
X12001968Y-10439389D02*
X11992444Y-10458436D01*
X11992444Y-10458436D02*
X11982920Y-10467960D01*
X11982920Y-10467960D02*
X11963872Y-10477484D01*
X11963872Y-10477484D02*
X11944825Y-10477484D01*
X11944825Y-10477484D02*
X11925777Y-10467960D01*
X11925777Y-10467960D02*
X11916253Y-10458436D01*
X11916253Y-10458436D02*
X11906729Y-10439389D01*
X11906729Y-10439389D02*
X11897206Y-10401293D01*
X11897206Y-10401293D02*
X11897206Y-10353674D01*
X11897206Y-10353674D02*
X11906729Y-10315579D01*
X11906729Y-10315579D02*
X11916253Y-10296531D01*
X11916253Y-10296531D02*
X11925777Y-10287008D01*
X11925777Y-10287008D02*
X11944825Y-10277484D01*
X12249587Y-10477484D02*
X12249587Y-10277484D01*
X12335301Y-10477484D02*
X12335301Y-10372722D01*
X12335301Y-10372722D02*
X12325777Y-10353674D01*
X12325777Y-10353674D02*
X12306730Y-10344150D01*
X12306730Y-10344150D02*
X12278158Y-10344150D01*
X12278158Y-10344150D02*
X12259110Y-10353674D01*
X12259110Y-10353674D02*
X12249587Y-10363198D01*
X12459110Y-10477484D02*
X12440063Y-10467960D01*
X12440063Y-10467960D02*
X12430539Y-10458436D01*
X12430539Y-10458436D02*
X12421015Y-10439389D01*
X12421015Y-10439389D02*
X12421015Y-10382246D01*
X12421015Y-10382246D02*
X12430539Y-10363198D01*
X12430539Y-10363198D02*
X12440063Y-10353674D01*
X12440063Y-10353674D02*
X12459110Y-10344150D01*
X12459110Y-10344150D02*
X12487682Y-10344150D01*
X12487682Y-10344150D02*
X12506730Y-10353674D01*
X12506730Y-10353674D02*
X12516253Y-10363198D01*
X12516253Y-10363198D02*
X12525777Y-10382246D01*
X12525777Y-10382246D02*
X12525777Y-10439389D01*
X12525777Y-10439389D02*
X12516253Y-10458436D01*
X12516253Y-10458436D02*
X12506730Y-10467960D01*
X12506730Y-10467960D02*
X12487682Y-10477484D01*
X12487682Y-10477484D02*
X12459110Y-10477484D01*
X12640063Y-10477484D02*
X12621015Y-10467960D01*
X12621015Y-10467960D02*
X12611491Y-10448912D01*
X12611491Y-10448912D02*
X12611491Y-10277484D01*
X12792444Y-10467960D02*
X12773396Y-10477484D01*
X12773396Y-10477484D02*
X12735301Y-10477484D01*
X12735301Y-10477484D02*
X12716253Y-10467960D01*
X12716253Y-10467960D02*
X12706730Y-10448912D01*
X12706730Y-10448912D02*
X12706730Y-10372722D01*
X12706730Y-10372722D02*
X12716253Y-10353674D01*
X12716253Y-10353674D02*
X12735301Y-10344150D01*
X12735301Y-10344150D02*
X12773396Y-10344150D01*
X12773396Y-10344150D02*
X12792444Y-10353674D01*
X12792444Y-10353674D02*
X12801968Y-10372722D01*
X12801968Y-10372722D02*
X12801968Y-10391770D01*
X12801968Y-10391770D02*
X12706730Y-10410817D01*
X12878158Y-10467960D02*
X12897206Y-10477484D01*
X12897206Y-10477484D02*
X12935301Y-10477484D01*
X12935301Y-10477484D02*
X12954349Y-10467960D01*
X12954349Y-10467960D02*
X12963872Y-10448912D01*
X12963872Y-10448912D02*
X12963872Y-10439389D01*
X12963872Y-10439389D02*
X12954349Y-10420341D01*
X12954349Y-10420341D02*
X12935301Y-10410817D01*
X12935301Y-10410817D02*
X12906730Y-10410817D01*
X12906730Y-10410817D02*
X12887682Y-10401293D01*
X12887682Y-10401293D02*
X12878158Y-10382246D01*
X12878158Y-10382246D02*
X12878158Y-10372722D01*
X12878158Y-10372722D02*
X12887682Y-10353674D01*
X12887682Y-10353674D02*
X12906730Y-10344150D01*
X12906730Y-10344150D02*
X12935301Y-10344150D01*
X12935301Y-10344150D02*
X12954349Y-10353674D01*
X13030539Y-10553674D02*
X13040063Y-10544150D01*
X13040063Y-10544150D02*
X13059111Y-10515579D01*
X13059111Y-10515579D02*
X13068634Y-10496531D01*
X13068634Y-10496531D02*
X13078158Y-10467960D01*
X13078158Y-10467960D02*
X13087682Y-10420341D01*
X13087682Y-10420341D02*
X13087682Y-10382246D01*
X13087682Y-10382246D02*
X13078158Y-10334627D01*
X13078158Y-10334627D02*
X13068634Y-10306055D01*
X13068634Y-10306055D02*
X13059111Y-10287008D01*
X13059111Y-10287008D02*
X13040063Y-10258436D01*
X13040063Y-10258436D02*
X13030539Y-10248912D01*
M02*
