%TF.GenerationSoftware,KiCad,Pcbnew,8.0.1*%
%TF.CreationDate,2024-05-12T20:31:28+01:00*%
%TF.ProjectId,TIMPS2Key,54494d50-5332-44b6-9579-2e6b69636164,rev?*%
%TF.SameCoordinates,Original*%
%TF.FileFunction,Copper,L1,Top*%
%TF.FilePolarity,Positive*%
%FSLAX46Y46*%
G04 Gerber Fmt 4.6, Leading zero omitted, Abs format (unit mm)*
G04 Created by KiCad (PCBNEW 8.0.1) date 2024-05-12 20:31:28*
%MOMM*%
%LPD*%
G01*
G04 APERTURE LIST*
%TA.AperFunction,ComponentPad*%
%ADD10R,1.200000X1.200000*%
%TD*%
%TA.AperFunction,ComponentPad*%
%ADD11C,1.200000*%
%TD*%
%TA.AperFunction,ComponentPad*%
%ADD12R,2.100000X2.100000*%
%TD*%
%TA.AperFunction,ComponentPad*%
%ADD13C,2.100000*%
%TD*%
%TA.AperFunction,ComponentPad*%
%ADD14R,1.600000X1.600000*%
%TD*%
%TA.AperFunction,ComponentPad*%
%ADD15C,1.600000*%
%TD*%
%TA.AperFunction,ComponentPad*%
%ADD16O,3.500000X2.000000*%
%TD*%
%TA.AperFunction,ComponentPad*%
%ADD17O,2.000000X4.000000*%
%TD*%
%TA.AperFunction,ComponentPad*%
%ADD18C,1.400000*%
%TD*%
%TA.AperFunction,ComponentPad*%
%ADD19O,1.400000X1.400000*%
%TD*%
%TA.AperFunction,ComponentPad*%
%ADD20R,1.700000X1.700000*%
%TD*%
%TA.AperFunction,ComponentPad*%
%ADD21O,1.700000X1.700000*%
%TD*%
%TA.AperFunction,ComponentPad*%
%ADD22R,1.800000X1.800000*%
%TD*%
%TA.AperFunction,ComponentPad*%
%ADD23C,1.800000*%
%TD*%
%TA.AperFunction,ComponentPad*%
%ADD24R,1.500000X1.500000*%
%TD*%
%TA.AperFunction,ComponentPad*%
%ADD25C,1.500000*%
%TD*%
%TA.AperFunction,ComponentPad*%
%ADD26O,1.600000X1.600000*%
%TD*%
%TA.AperFunction,ComponentPad*%
%ADD27R,1.905000X2.000000*%
%TD*%
%TA.AperFunction,ComponentPad*%
%ADD28O,1.905000X2.000000*%
%TD*%
%TA.AperFunction,ViaPad*%
%ADD29C,0.800000*%
%TD*%
%TA.AperFunction,Conductor*%
%ADD30C,0.800000*%
%TD*%
%TA.AperFunction,Conductor*%
%ADD31C,0.400000*%
%TD*%
G04 APERTURE END LIST*
D10*
%TO.P,C8,1*%
%TO.N,Net-(U2-C2+)*%
X152100000Y-53240000D03*
D11*
%TO.P,C8,2*%
%TO.N,Net-(U2-C2-)*%
X152100000Y-55240000D03*
%TD*%
D12*
%TO.P,J1,1*%
%TO.N,GND*%
X93200000Y-70480000D03*
D13*
%TO.P,J1,2*%
%TO.N,S_TX*%
X93200000Y-62975000D03*
%TO.P,J1,3*%
%TO.N,S_RX*%
X93200000Y-55470000D03*
%TO.P,J1,4*%
%TO.N,+12V*%
X95690000Y-67980000D03*
%TO.P,J1,5*%
X95690000Y-57970000D03*
%TO.P,J1,G*%
%TO.N,GND*%
X83193200Y-67980000D03*
X83193200Y-65475000D03*
X83193200Y-62924200D03*
X83193200Y-60475000D03*
X83193200Y-57970000D03*
%TD*%
D14*
%TO.P,J2,1*%
%TO.N,PS2-DATA*%
X166900000Y-61655000D03*
D15*
%TO.P,J2,2*%
%TO.N,unconnected-(J2-Pad2)*%
X166900000Y-64255000D03*
%TO.P,J2,3*%
%TO.N,GND*%
X166900000Y-59555000D03*
%TO.P,J2,4*%
%TO.N,+5V*%
X166900000Y-66355000D03*
%TO.P,J2,5*%
%TO.N,PS2-CLK*%
X164100000Y-59555000D03*
%TO.P,J2,6*%
%TO.N,unconnected-(J2-Pad6)*%
X164100000Y-66355000D03*
D16*
%TO.P,J2,7*%
%TO.N,GND*%
X169750000Y-69805000D03*
D17*
X170550000Y-62955000D03*
D16*
X169750000Y-56105000D03*
%TD*%
D18*
%TO.P,R2,1*%
%TO.N,GND*%
X98680000Y-55350000D03*
D19*
%TO.P,R2,2*%
%TO.N,Net-(Q1-E)*%
X106300000Y-55350000D03*
%TD*%
D18*
%TO.P,R4,1*%
%TO.N,+5V*%
X158450000Y-51520000D03*
D19*
%TO.P,R4,2*%
%TO.N,N_SCL*%
X158450000Y-59140000D03*
%TD*%
D10*
%TO.P,C7,1*%
%TO.N,Net-(U2-C1+)*%
X144170000Y-48500000D03*
D11*
%TO.P,C7,2*%
%TO.N,Net-(U2-C1-)*%
X144170000Y-50500000D03*
%TD*%
D18*
%TO.P,R5,1*%
%TO.N,+5V*%
X156300000Y-51520000D03*
D19*
%TO.P,R5,2*%
%TO.N,N_SDA*%
X156300000Y-59140000D03*
%TD*%
D20*
%TO.P,J4,1,Pin_1*%
%TO.N,+5V*%
X144130000Y-58450000D03*
D21*
%TO.P,J4,2,Pin_2*%
%TO.N,GND*%
X146670000Y-58450000D03*
%TO.P,J4,3,Pin_3*%
%TO.N,N_SDA*%
X149210000Y-58450000D03*
%TO.P,J4,4,Pin_4*%
%TO.N,N_SCL*%
X151750000Y-58450000D03*
%TD*%
D22*
%TO.P,D1,1,K*%
%TO.N,GND*%
X165400000Y-51880000D03*
D23*
%TO.P,D1,2,A*%
%TO.N,Net-(D1-A)*%
X165400000Y-49340000D03*
%TD*%
D15*
%TO.P,C4,1*%
%TO.N,GND*%
X115900000Y-50660000D03*
%TO.P,C4,2*%
%TO.N,+5V*%
X115900000Y-55660000D03*
%TD*%
D18*
%TO.P,R3,1*%
%TO.N,Net-(Q1-B)*%
X106090000Y-57550000D03*
D19*
%TO.P,R3,2*%
%TO.N,SOUND*%
X113710000Y-57550000D03*
%TD*%
D24*
%TO.P,Q1,1,C*%
%TO.N,Net-(BZ1--)*%
X106750000Y-51250000D03*
D25*
%TO.P,Q1,2,B*%
%TO.N,Net-(Q1-B)*%
X109290000Y-51250000D03*
%TO.P,Q1,3,E*%
%TO.N,Net-(Q1-E)*%
X111830000Y-51250000D03*
%TD*%
D20*
%TO.P,J3,1,Pin_1*%
%TO.N,+5V*%
X93000000Y-49930000D03*
D21*
%TO.P,J3,2,Pin_2*%
%TO.N,GND*%
X90460000Y-49930000D03*
%TD*%
D14*
%TO.P,BZ1,1,+*%
%TO.N,+5V*%
X102150000Y-65900000D03*
D15*
%TO.P,BZ1,2,-*%
%TO.N,Net-(BZ1--)*%
X108650000Y-65900000D03*
%TD*%
D14*
%TO.P,U1,1,Pin_1*%
%TO.N,N_TX*%
X116900000Y-77160000D03*
D26*
%TO.P,U1,2,Pin_2*%
%TO.N,N_RX*%
X119440000Y-77160000D03*
%TO.P,U1,3,Pin_3*%
%TO.N,unconnected-(U1-Pin_3-Pad3)*%
X121980000Y-77160000D03*
%TO.P,U1,4,Pin_4*%
%TO.N,GND*%
X124520000Y-77160000D03*
%TO.P,U1,5,Pin_5*%
%TO.N,unconnected-(U1-Pin_5-Pad5)*%
X127060000Y-77160000D03*
%TO.P,U1,6,Pin_6*%
%TO.N,PS2-CLK*%
X129600000Y-77160000D03*
%TO.P,U1,7,Pin_7*%
%TO.N,unconnected-(U1-Pin_7-Pad7)*%
X132140000Y-77160000D03*
%TO.P,U1,8,Pin_8*%
%TO.N,unconnected-(U1-Pin_8-Pad8)*%
X134680000Y-77160000D03*
%TO.P,U1,9,Pin_9*%
%TO.N,unconnected-(U1-Pin_9-Pad9)*%
X137220000Y-77160000D03*
%TO.P,U1,10,Pin_10*%
%TO.N,unconnected-(U1-Pin_10-Pad10)*%
X139760000Y-77160000D03*
%TO.P,U1,11,Pin_11*%
%TO.N,unconnected-(U1-Pin_11-Pad11)*%
X142300000Y-77160000D03*
%TO.P,U1,12,Pin_12*%
%TO.N,unconnected-(U1-Pin_12-Pad12)*%
X144840000Y-77160000D03*
%TO.P,U1,13,Pin_13*%
%TO.N,unconnected-(U1-Pin_13-Pad13)*%
X147380000Y-77160000D03*
%TO.P,U1,14,Pin_14*%
%TO.N,unconnected-(U1-Pin_14-Pad14)*%
X149920000Y-77160000D03*
%TO.P,U1,15,Pin_15*%
%TO.N,PS2-DATA*%
X152460000Y-77160000D03*
%TO.P,U1,16,Pin_16*%
%TO.N,unconnected-(U1-Pin_16-Pad16)*%
X152460000Y-61920000D03*
%TO.P,U1,17,Pin_17*%
%TO.N,unconnected-(U1-Pin_17-Pad17)*%
X149920000Y-61920000D03*
%TO.P,U1,18,Pin_18*%
%TO.N,unconnected-(U1-Pin_18-Pad18)*%
X147380000Y-61920000D03*
%TO.P,U1,19,Pin_19*%
%TO.N,SOUND*%
X144840000Y-61920000D03*
%TO.P,U1,20,Pin_20*%
%TO.N,unconnected-(U1-Pin_20-Pad20)*%
X142300000Y-61920000D03*
%TO.P,U1,21,Pin_21*%
%TO.N,unconnected-(U1-Pin_21-Pad21)*%
X139760000Y-61920000D03*
%TO.P,U1,22,Pin_22*%
%TO.N,unconnected-(U1-Pin_22-Pad22)*%
X137220000Y-61920000D03*
%TO.P,U1,23,Pin_23*%
%TO.N,N_SDA*%
X134680000Y-61920000D03*
%TO.P,U1,24,Pin_24*%
%TO.N,N_SCL*%
X132140000Y-61920000D03*
%TO.P,U1,25,Pin_25*%
%TO.N,unconnected-(U1-Pin_25-Pad25)*%
X129600000Y-61920000D03*
%TO.P,U1,26,Pin_26*%
%TO.N,unconnected-(U1-Pin_26-Pad26)*%
X127060000Y-61920000D03*
%TO.P,U1,27,Pin_27*%
%TO.N,+5V*%
X124520000Y-61920000D03*
%TO.P,U1,28,Pin_28*%
%TO.N,unconnected-(U1-Pin_28-Pad28)*%
X121980000Y-61920000D03*
%TO.P,U1,29,Pin_29*%
%TO.N,GND*%
X119440000Y-61920000D03*
%TO.P,U1,30,Pin_30*%
%TO.N,unconnected-(U1-Pin_30-Pad30)*%
X116900000Y-61920000D03*
%TD*%
D14*
%TO.P,C1,1*%
%TO.N,+5V*%
X99370000Y-50260000D03*
D15*
%TO.P,C1,2*%
%TO.N,GND*%
X101370000Y-50260000D03*
%TD*%
D27*
%TO.P,U3,1,VI*%
%TO.N,+12V*%
X90280000Y-76650000D03*
D28*
%TO.P,U3,2,GND*%
%TO.N,GND*%
X92820000Y-76650000D03*
%TO.P,U3,3,VO*%
%TO.N,+5V*%
X95360000Y-76650000D03*
%TD*%
D10*
%TO.P,C5,1*%
%TO.N,Net-(U2-VS+)*%
X144170000Y-53240000D03*
D11*
%TO.P,C5,2*%
%TO.N,+5V*%
X144170000Y-55240000D03*
%TD*%
D14*
%TO.P,C3,1*%
%TO.N,+12V*%
X100500000Y-74400000D03*
D15*
%TO.P,C3,2*%
%TO.N,GND*%
X102500000Y-74400000D03*
%TD*%
D14*
%TO.P,U2,1,C1+*%
%TO.N,Net-(U2-C1+)*%
X136520000Y-49360000D03*
D26*
%TO.P,U2,2,VS+*%
%TO.N,Net-(U2-VS+)*%
X133980000Y-49360000D03*
%TO.P,U2,3,C1-*%
%TO.N,Net-(U2-C1-)*%
X131440000Y-49360000D03*
%TO.P,U2,4,C2+*%
%TO.N,Net-(U2-C2+)*%
X128900000Y-49360000D03*
%TO.P,U2,5,C2-*%
%TO.N,Net-(U2-C2-)*%
X126360000Y-49360000D03*
%TO.P,U2,6,VS-*%
%TO.N,Net-(U2-VS-)*%
X123820000Y-49360000D03*
%TO.P,U2,7,T2OUT*%
%TO.N,unconnected-(U2-T2OUT-Pad7)*%
X121280000Y-49360000D03*
%TO.P,U2,8,R2IN*%
%TO.N,GND*%
X118740000Y-49360000D03*
%TO.P,U2,9,R2OUT*%
%TO.N,unconnected-(U2-R2OUT-Pad9)*%
X118740000Y-56980000D03*
%TO.P,U2,10,T2IN*%
%TO.N,GND*%
X121280000Y-56980000D03*
%TO.P,U2,11,T1IN*%
%TO.N,N_TX*%
X123820000Y-56980000D03*
%TO.P,U2,12,R1OUT*%
%TO.N,N_RX*%
X126360000Y-56980000D03*
%TO.P,U2,13,R1IN*%
%TO.N,S_RX*%
X128900000Y-56980000D03*
%TO.P,U2,14,T1OUT*%
%TO.N,S_TX*%
X131440000Y-56980000D03*
%TO.P,U2,15,GND*%
%TO.N,GND*%
X133980000Y-56980000D03*
%TO.P,U2,16,VCC*%
%TO.N,+5V*%
X136520000Y-56980000D03*
%TD*%
D10*
%TO.P,C6,1*%
%TO.N,GND*%
X152100000Y-48500000D03*
D11*
%TO.P,C6,2*%
%TO.N,Net-(U2-VS-)*%
X152100000Y-50500000D03*
%TD*%
D18*
%TO.P,R1,1*%
%TO.N,+5V*%
X160600000Y-59150000D03*
D19*
%TO.P,R1,2*%
%TO.N,Net-(D1-A)*%
X160600000Y-51530000D03*
%TD*%
D29*
%TO.N,SOUND*%
X112200000Y-60800000D03*
%TD*%
D30*
%TO.N,+5V*%
X115900000Y-55660000D02*
X113750000Y-53510000D01*
D31*
X158450000Y-47250000D02*
X158350000Y-47150000D01*
D30*
X142660000Y-56980000D02*
X144130000Y-58450000D01*
X175140000Y-65710000D02*
X174495000Y-66355000D01*
X162600000Y-54250000D02*
X175140000Y-54250000D01*
X145580000Y-57000000D02*
X159140000Y-57000000D01*
X99370000Y-47220000D02*
X99300000Y-47150000D01*
X115980000Y-55580000D02*
X115900000Y-55660000D01*
X81100000Y-78530000D02*
X81100000Y-47150000D01*
X136520000Y-56980000D02*
X136520000Y-57830000D01*
X133950000Y-60400000D02*
X126040000Y-60400000D01*
X93100000Y-47150000D02*
X99300000Y-47150000D01*
X175140000Y-54250000D02*
X175140000Y-65710000D01*
X113750000Y-47150000D02*
X158350000Y-47150000D01*
X174495000Y-66355000D02*
X166900000Y-66355000D01*
X175140000Y-47150000D02*
X175140000Y-54250000D01*
X99370000Y-50260000D02*
X99370000Y-47220000D01*
X102150000Y-69860000D02*
X102150000Y-65900000D01*
X95360000Y-78450000D02*
X95280000Y-78530000D01*
X136520000Y-56980000D02*
X135120000Y-55580000D01*
X136520000Y-57830000D02*
X133950000Y-60400000D01*
X126040000Y-60400000D02*
X124520000Y-61920000D01*
X135120000Y-55580000D02*
X115980000Y-55580000D01*
X95280000Y-78530000D02*
X81100000Y-78530000D01*
X136520000Y-56980000D02*
X142660000Y-56980000D01*
X81100000Y-47150000D02*
X93100000Y-47150000D01*
X158350000Y-47150000D02*
X175140000Y-47150000D01*
D31*
X158450000Y-51520000D02*
X158450000Y-47250000D01*
D30*
X95360000Y-76650000D02*
X95360000Y-78450000D01*
X93000000Y-49930000D02*
X93000000Y-47250000D01*
D31*
X156300000Y-51520000D02*
X158450000Y-51520000D01*
D30*
X159140000Y-57000000D02*
X160600000Y-58460000D01*
X99300000Y-47150000D02*
X113750000Y-47150000D01*
X95360000Y-76650000D02*
X102150000Y-69860000D01*
X144170000Y-58410000D02*
X144130000Y-58450000D01*
X144170000Y-55240000D02*
X144170000Y-58410000D01*
X113750000Y-53510000D02*
X113750000Y-47150000D01*
X93000000Y-47250000D02*
X93100000Y-47150000D01*
X144130000Y-58450000D02*
X145580000Y-57000000D01*
%TO.N,+12V*%
X90330000Y-76650000D02*
X90280000Y-76650000D01*
X95690000Y-67980000D02*
X95690000Y-71290000D01*
X95690000Y-71290000D02*
X90330000Y-76650000D01*
D31*
%TO.N,Net-(U2-VS-)*%
X153700000Y-53850000D02*
X153700000Y-52100000D01*
X123820000Y-49360000D02*
X123820000Y-53170000D01*
X124890000Y-54240000D02*
X153310000Y-54240000D01*
X153700000Y-52100000D02*
X152100000Y-50500000D01*
X153310000Y-54240000D02*
X153700000Y-53850000D01*
X123820000Y-53170000D02*
X124890000Y-54240000D01*
%TO.N,Net-(U2-C1-)*%
X131440000Y-50540000D02*
X131800000Y-50900000D01*
X131800000Y-50900000D02*
X143770000Y-50900000D01*
X143770000Y-50900000D02*
X144170000Y-50500000D01*
X131440000Y-49360000D02*
X131440000Y-50540000D01*
%TO.N,Net-(U2-C2+)*%
X152100000Y-53240000D02*
X150360000Y-51500000D01*
X128900000Y-51100000D02*
X128900000Y-49360000D01*
X150360000Y-51500000D02*
X129300000Y-51500000D01*
X129300000Y-51500000D02*
X128900000Y-51100000D01*
%TO.N,Net-(U2-C2-)*%
X154300000Y-50900000D02*
X152900000Y-49500000D01*
X154300000Y-54098528D02*
X154300000Y-50900000D01*
X142600000Y-49500000D02*
X141050000Y-47950000D01*
X153158528Y-55240000D02*
X154300000Y-54098528D01*
X152100000Y-55240000D02*
X153158528Y-55240000D01*
X152900000Y-49500000D02*
X142600000Y-49500000D01*
X127770000Y-47950000D02*
X126360000Y-49360000D01*
X141050000Y-47950000D02*
X127770000Y-47950000D01*
%TO.N,Net-(D1-A)*%
X160600000Y-51530000D02*
X163210000Y-51530000D01*
X163210000Y-51530000D02*
X165400000Y-49340000D01*
%TO.N,S_TX*%
X131440000Y-59160000D02*
X131440000Y-56980000D01*
X96625000Y-59550000D02*
X131050000Y-59550000D01*
X93200000Y-62975000D02*
X96625000Y-59550000D01*
X131050000Y-59550000D02*
X131440000Y-59160000D01*
%TO.N,S_RX*%
X96320000Y-55470000D02*
X99800000Y-58950000D01*
X128450000Y-58950000D02*
X128900000Y-58500000D01*
X128900000Y-58500000D02*
X128900000Y-56980000D01*
X93200000Y-55470000D02*
X96320000Y-55470000D01*
X99800000Y-58950000D02*
X128450000Y-58950000D01*
%TO.N,PS2-DATA*%
X161500000Y-75550000D02*
X162550000Y-74500000D01*
X153300000Y-75550000D02*
X161500000Y-75550000D01*
X163545000Y-61655000D02*
X166900000Y-61655000D01*
X152460000Y-76390000D02*
X153300000Y-75550000D01*
X162550000Y-62650000D02*
X163545000Y-61655000D01*
X152460000Y-77160000D02*
X152460000Y-76390000D01*
X162550000Y-74500000D02*
X162550000Y-62650000D01*
%TO.N,PS2-CLK*%
X160500000Y-74700000D02*
X161400000Y-73800000D01*
X161400000Y-73800000D02*
X161400000Y-61650000D01*
X130400000Y-74700000D02*
X160500000Y-74700000D01*
X161400000Y-61650000D02*
X163495000Y-59555000D01*
X129600000Y-77160000D02*
X129600000Y-75500000D01*
X129600000Y-75500000D02*
X130400000Y-74700000D01*
X163495000Y-59555000D02*
X164100000Y-59555000D01*
%TO.N,N_SDA*%
X136600000Y-60000000D02*
X148550000Y-60000000D01*
X148550000Y-60000000D02*
X149210000Y-59340000D01*
X149210000Y-58450000D02*
X149210000Y-59310000D01*
X134680000Y-61920000D02*
X136600000Y-60000000D01*
X149210000Y-59310000D02*
X149900000Y-60000000D01*
X149210000Y-59340000D02*
X149210000Y-58450000D01*
X149900000Y-60000000D02*
X155440000Y-60000000D01*
X155440000Y-60000000D02*
X156300000Y-59140000D01*
%TO.N,Net-(Q1-E)*%
X109700000Y-55350000D02*
X111830000Y-53220000D01*
X106300000Y-55350000D02*
X109700000Y-55350000D01*
X111830000Y-53220000D02*
X111830000Y-51250000D01*
%TO.N,Net-(Q1-B)*%
X104800000Y-56260000D02*
X106090000Y-57550000D01*
X104800000Y-54000000D02*
X104800000Y-56260000D01*
X109290000Y-52910000D02*
X108900000Y-53300000D01*
X109290000Y-51250000D02*
X109290000Y-52910000D01*
X105500000Y-53300000D02*
X104800000Y-54000000D01*
X108900000Y-53300000D02*
X105500000Y-53300000D01*
%TO.N,SOUND*%
X144840000Y-64510000D02*
X143750000Y-65600000D01*
X144840000Y-61920000D02*
X144840000Y-64510000D01*
X113050000Y-65600000D02*
X112200000Y-64750000D01*
X112200000Y-64750000D02*
X112200000Y-60800000D01*
X143750000Y-65600000D02*
X113050000Y-65600000D01*
%TO.N,N_RX*%
X119550000Y-77050000D02*
X119440000Y-77160000D01*
%TD*%
%TA.AperFunction,Conductor*%
%TO.N,+5V*%
G36*
X165542540Y-62375185D02*
G01*
X165588295Y-62427989D01*
X165599501Y-62479500D01*
X165599501Y-62502876D01*
X165605908Y-62562483D01*
X165656202Y-62697328D01*
X165656206Y-62697335D01*
X165742452Y-62812544D01*
X165742455Y-62812547D01*
X165857664Y-62898793D01*
X165857671Y-62898797D01*
X165992517Y-62949091D01*
X165992516Y-62949091D01*
X165999444Y-62949835D01*
X166052127Y-62955500D01*
X166095247Y-62955499D01*
X166162284Y-62975182D01*
X166208040Y-63027985D01*
X166217985Y-63097143D01*
X166188962Y-63160700D01*
X166166371Y-63181074D01*
X166060856Y-63254956D01*
X165899954Y-63415858D01*
X165769432Y-63602265D01*
X165769431Y-63602267D01*
X165673261Y-63808502D01*
X165673258Y-63808511D01*
X165614366Y-64028302D01*
X165614364Y-64028313D01*
X165594532Y-64254998D01*
X165594532Y-64255001D01*
X165614364Y-64481686D01*
X165614366Y-64481697D01*
X165673258Y-64701488D01*
X165673261Y-64701497D01*
X165769431Y-64907732D01*
X165769432Y-64907734D01*
X165899954Y-65094141D01*
X166060858Y-65255045D01*
X166060861Y-65255047D01*
X166247266Y-65385568D01*
X166296504Y-65408528D01*
X166296506Y-65408529D01*
X166331783Y-65433230D01*
X166853553Y-65955000D01*
X166847339Y-65955000D01*
X166745606Y-65982259D01*
X166654394Y-66034920D01*
X166579920Y-66109394D01*
X166527259Y-66200606D01*
X166500000Y-66302339D01*
X166500000Y-66308552D01*
X165820974Y-65629526D01*
X165820973Y-65629526D01*
X165769868Y-65702512D01*
X165769866Y-65702516D01*
X165673734Y-65908673D01*
X165673731Y-65908680D01*
X165620033Y-66109084D01*
X165583668Y-66168744D01*
X165520821Y-66199273D01*
X165451445Y-66190978D01*
X165397567Y-66146493D01*
X165380484Y-66109086D01*
X165326739Y-65908504D01*
X165230568Y-65702266D01*
X165100047Y-65515861D01*
X165100045Y-65515858D01*
X164939141Y-65354954D01*
X164752734Y-65224432D01*
X164752732Y-65224431D01*
X164546497Y-65128261D01*
X164546488Y-65128258D01*
X164326697Y-65069366D01*
X164326693Y-65069365D01*
X164326692Y-65069365D01*
X164326691Y-65069364D01*
X164326686Y-65069364D01*
X164100002Y-65049532D01*
X164099998Y-65049532D01*
X163873313Y-65069364D01*
X163873302Y-65069366D01*
X163653511Y-65128258D01*
X163653502Y-65128261D01*
X163447267Y-65224431D01*
X163447266Y-65224432D01*
X163445614Y-65225589D01*
X163444770Y-65225873D01*
X163442580Y-65227138D01*
X163442325Y-65226697D01*
X163379406Y-65247910D01*
X163311640Y-65230893D01*
X163263832Y-65179940D01*
X163250500Y-65124007D01*
X163250500Y-62991518D01*
X163270185Y-62924479D01*
X163286819Y-62903837D01*
X163798837Y-62391819D01*
X163860160Y-62358334D01*
X163886518Y-62355500D01*
X165475501Y-62355500D01*
X165542540Y-62375185D01*
G37*
%TD.AperFunction*%
%TA.AperFunction,Conductor*%
G36*
X175482984Y-46769714D02*
G01*
X175528767Y-46822494D01*
X175540000Y-46874065D01*
X175540000Y-78806000D01*
X175520315Y-78873039D01*
X175467511Y-78918794D01*
X175416000Y-78930000D01*
X80824000Y-78930000D01*
X80756961Y-78910315D01*
X80711206Y-78857511D01*
X80700000Y-78806000D01*
X80700000Y-77697870D01*
X88827000Y-77697870D01*
X88827001Y-77697876D01*
X88833408Y-77757483D01*
X88883702Y-77892328D01*
X88883706Y-77892335D01*
X88969952Y-78007544D01*
X88969955Y-78007547D01*
X89085164Y-78093793D01*
X89085171Y-78093797D01*
X89220017Y-78144091D01*
X89220016Y-78144091D01*
X89226944Y-78144835D01*
X89279627Y-78150500D01*
X91280372Y-78150499D01*
X91339983Y-78144091D01*
X91474831Y-78093796D01*
X91590046Y-78007546D01*
X91676296Y-77892331D01*
X91686690Y-77864460D01*
X91728560Y-77808527D01*
X91794023Y-77784108D01*
X91862297Y-77798958D01*
X91875746Y-77807465D01*
X92058462Y-77940217D01*
X92234524Y-78029925D01*
X92262244Y-78044049D01*
X92479751Y-78114721D01*
X92479752Y-78114721D01*
X92479755Y-78114722D01*
X92705646Y-78150500D01*
X92705647Y-78150500D01*
X92934353Y-78150500D01*
X92934354Y-78150500D01*
X93160245Y-78114722D01*
X93160248Y-78114721D01*
X93160249Y-78114721D01*
X93377755Y-78044049D01*
X93377755Y-78044048D01*
X93377758Y-78044048D01*
X93581538Y-77940217D01*
X93766566Y-77805786D01*
X93928286Y-77644066D01*
X93989992Y-77559134D01*
X94045319Y-77516470D01*
X94114932Y-77510491D01*
X94176727Y-77543096D01*
X94190626Y-77559135D01*
X94252097Y-77643741D01*
X94252097Y-77643742D01*
X94413757Y-77805402D01*
X94598723Y-77939788D01*
X94802429Y-78043582D01*
X95019871Y-78114234D01*
X95110000Y-78128509D01*
X95110000Y-77140747D01*
X95147708Y-77162518D01*
X95287591Y-77200000D01*
X95432409Y-77200000D01*
X95572292Y-77162518D01*
X95610000Y-77140747D01*
X95610000Y-78128508D01*
X95700128Y-78114234D01*
X95917570Y-78043582D01*
X96121276Y-77939788D01*
X96306242Y-77805402D01*
X96467902Y-77643742D01*
X96602288Y-77458776D01*
X96706082Y-77255070D01*
X96707808Y-77249759D01*
X113219500Y-77249759D01*
X113229120Y-77310500D01*
X113247583Y-77427069D01*
X113303055Y-77597797D01*
X113332028Y-77654658D01*
X113354046Y-77697872D01*
X113384559Y-77757755D01*
X113490069Y-77902980D01*
X113617019Y-78029930D01*
X113733056Y-78114234D01*
X113762248Y-78135443D01*
X113922200Y-78216943D01*
X113922202Y-78216944D01*
X114007566Y-78244680D01*
X114092932Y-78272417D01*
X114270241Y-78300500D01*
X114270242Y-78300500D01*
X114449758Y-78300500D01*
X114449759Y-78300500D01*
X114627068Y-78272417D01*
X114797800Y-78216943D01*
X114957752Y-78135443D01*
X115039293Y-78076200D01*
X115102980Y-78029930D01*
X115102982Y-78029927D01*
X115102986Y-78029925D01*
X115229925Y-77902986D01*
X115229927Y-77902982D01*
X115229930Y-77902980D01*
X115335442Y-77757753D01*
X115360094Y-77709372D01*
X115365016Y-77699711D01*
X115412989Y-77648917D01*
X115480809Y-77632121D01*
X115546945Y-77654658D01*
X115590397Y-77709372D01*
X115599500Y-77756007D01*
X115599500Y-78007869D01*
X115599501Y-78007876D01*
X115605908Y-78067483D01*
X115656202Y-78202328D01*
X115656206Y-78202335D01*
X115742452Y-78317544D01*
X115742455Y-78317547D01*
X115857664Y-78403793D01*
X115857671Y-78403797D01*
X115992517Y-78454091D01*
X115992516Y-78454091D01*
X115999444Y-78454835D01*
X116052127Y-78460500D01*
X117747872Y-78460499D01*
X117807483Y-78454091D01*
X117942331Y-78403796D01*
X118057546Y-78317546D01*
X118143796Y-78202331D01*
X118194091Y-78067483D01*
X118197862Y-78032401D01*
X118224599Y-77967855D01*
X118281990Y-77928006D01*
X118351816Y-77925511D01*
X118411905Y-77961163D01*
X118422726Y-77974536D01*
X118439956Y-77999143D01*
X118600858Y-78160045D01*
X118600861Y-78160047D01*
X118787266Y-78290568D01*
X118993504Y-78386739D01*
X119213308Y-78445635D01*
X119375230Y-78459801D01*
X119439998Y-78465468D01*
X119440000Y-78465468D01*
X119440002Y-78465468D01*
X119496807Y-78460498D01*
X119666692Y-78445635D01*
X119886496Y-78386739D01*
X120092734Y-78290568D01*
X120279139Y-78160047D01*
X120440047Y-77999139D01*
X120570568Y-77812734D01*
X120597618Y-77754724D01*
X120643790Y-77702285D01*
X120710983Y-77683133D01*
X120777865Y-77703348D01*
X120822381Y-77754724D01*
X120823794Y-77757753D01*
X120849429Y-77812728D01*
X120849432Y-77812734D01*
X120979954Y-77999141D01*
X121140858Y-78160045D01*
X121140861Y-78160047D01*
X121327266Y-78290568D01*
X121533504Y-78386739D01*
X121753308Y-78445635D01*
X121915230Y-78459801D01*
X121979998Y-78465468D01*
X121980000Y-78465468D01*
X121980002Y-78465468D01*
X122036807Y-78460498D01*
X122206692Y-78445635D01*
X122426496Y-78386739D01*
X122632734Y-78290568D01*
X122819139Y-78160047D01*
X122980047Y-77999139D01*
X123110568Y-77812734D01*
X123137618Y-77754724D01*
X123183790Y-77702285D01*
X123250983Y-77683133D01*
X123317865Y-77703348D01*
X123362381Y-77754724D01*
X123363794Y-77757753D01*
X123389429Y-77812728D01*
X123389432Y-77812734D01*
X123519954Y-77999141D01*
X123680858Y-78160045D01*
X123680861Y-78160047D01*
X123867266Y-78290568D01*
X124073504Y-78386739D01*
X124293308Y-78445635D01*
X124455230Y-78459801D01*
X124519998Y-78465468D01*
X124520000Y-78465468D01*
X124520002Y-78465468D01*
X124576807Y-78460498D01*
X124746692Y-78445635D01*
X124966496Y-78386739D01*
X125172734Y-78290568D01*
X125359139Y-78160047D01*
X125520047Y-77999139D01*
X125650568Y-77812734D01*
X125677618Y-77754724D01*
X125723790Y-77702285D01*
X125790983Y-77683133D01*
X125857865Y-77703348D01*
X125902381Y-77754724D01*
X125903794Y-77757753D01*
X125929429Y-77812728D01*
X125929432Y-77812734D01*
X126059954Y-77999141D01*
X126220858Y-78160045D01*
X126220861Y-78160047D01*
X126407266Y-78290568D01*
X126613504Y-78386739D01*
X126833308Y-78445635D01*
X126995230Y-78459801D01*
X127059998Y-78465468D01*
X127060000Y-78465468D01*
X127060002Y-78465468D01*
X127116807Y-78460498D01*
X127286692Y-78445635D01*
X127506496Y-78386739D01*
X127712734Y-78290568D01*
X127899139Y-78160047D01*
X128060047Y-77999139D01*
X128190568Y-77812734D01*
X128217618Y-77754724D01*
X128263790Y-77702285D01*
X128330983Y-77683133D01*
X128397865Y-77703348D01*
X128442381Y-77754724D01*
X128443794Y-77757753D01*
X128469429Y-77812728D01*
X128469432Y-77812734D01*
X128599954Y-77999141D01*
X128760858Y-78160045D01*
X128760861Y-78160047D01*
X128947266Y-78290568D01*
X129153504Y-78386739D01*
X129373308Y-78445635D01*
X129535230Y-78459801D01*
X129599998Y-78465468D01*
X129600000Y-78465468D01*
X129600002Y-78465468D01*
X129656807Y-78460498D01*
X129826692Y-78445635D01*
X130046496Y-78386739D01*
X130252734Y-78290568D01*
X130439139Y-78160047D01*
X130600047Y-77999139D01*
X130730568Y-77812734D01*
X130757618Y-77754724D01*
X130803790Y-77702285D01*
X130870983Y-77683133D01*
X130937865Y-77703348D01*
X130982381Y-77754724D01*
X130983794Y-77757753D01*
X131009429Y-77812728D01*
X131009432Y-77812734D01*
X131139954Y-77999141D01*
X131300858Y-78160045D01*
X131300861Y-78160047D01*
X131487266Y-78290568D01*
X131693504Y-78386739D01*
X131913308Y-78445635D01*
X132075230Y-78459801D01*
X132139998Y-78465468D01*
X132140000Y-78465468D01*
X132140002Y-78465468D01*
X132196807Y-78460498D01*
X132366692Y-78445635D01*
X132586496Y-78386739D01*
X132792734Y-78290568D01*
X132979139Y-78160047D01*
X133140047Y-77999139D01*
X133270568Y-77812734D01*
X133297618Y-77754724D01*
X133343790Y-77702285D01*
X133410983Y-77683133D01*
X133477865Y-77703348D01*
X133522381Y-77754724D01*
X133523794Y-77757753D01*
X133549429Y-77812728D01*
X133549432Y-77812734D01*
X133679954Y-77999141D01*
X133840858Y-78160045D01*
X133840861Y-78160047D01*
X134027266Y-78290568D01*
X134233504Y-78386739D01*
X134453308Y-78445635D01*
X134615230Y-78459801D01*
X134679998Y-78465468D01*
X134680000Y-78465468D01*
X134680002Y-78465468D01*
X134736807Y-78460498D01*
X134906692Y-78445635D01*
X135126496Y-78386739D01*
X135332734Y-78290568D01*
X135519139Y-78160047D01*
X135680047Y-77999139D01*
X135810568Y-77812734D01*
X135837618Y-77754724D01*
X135883790Y-77702285D01*
X135950983Y-77683133D01*
X136017865Y-77703348D01*
X136062381Y-77754724D01*
X136063794Y-77757753D01*
X136089429Y-77812728D01*
X136089432Y-77812734D01*
X136219954Y-77999141D01*
X136380858Y-78160045D01*
X136380861Y-78160047D01*
X136567266Y-78290568D01*
X136773504Y-78386739D01*
X136993308Y-78445635D01*
X137155230Y-78459801D01*
X137219998Y-78465468D01*
X137220000Y-78465468D01*
X137220002Y-78465468D01*
X137276807Y-78460498D01*
X137446692Y-78445635D01*
X137666496Y-78386739D01*
X137872734Y-78290568D01*
X138059139Y-78160047D01*
X138220047Y-77999139D01*
X138350568Y-77812734D01*
X138377618Y-77754724D01*
X138423790Y-77702285D01*
X138490983Y-77683133D01*
X138557865Y-77703348D01*
X138602381Y-77754724D01*
X138603794Y-77757753D01*
X138629429Y-77812728D01*
X138629432Y-77812734D01*
X138759954Y-77999141D01*
X138920858Y-78160045D01*
X138920861Y-78160047D01*
X139107266Y-78290568D01*
X139313504Y-78386739D01*
X139533308Y-78445635D01*
X139695230Y-78459801D01*
X139759998Y-78465468D01*
X139760000Y-78465468D01*
X139760002Y-78465468D01*
X139816807Y-78460498D01*
X139986692Y-78445635D01*
X140206496Y-78386739D01*
X140412734Y-78290568D01*
X140599139Y-78160047D01*
X140760047Y-77999139D01*
X140890568Y-77812734D01*
X140917618Y-77754724D01*
X140963790Y-77702285D01*
X141030983Y-77683133D01*
X141097865Y-77703348D01*
X141142381Y-77754724D01*
X141143794Y-77757753D01*
X141169429Y-77812728D01*
X141169432Y-77812734D01*
X141299954Y-77999141D01*
X141460858Y-78160045D01*
X141460861Y-78160047D01*
X141647266Y-78290568D01*
X141853504Y-78386739D01*
X142073308Y-78445635D01*
X142235230Y-78459801D01*
X142299998Y-78465468D01*
X142300000Y-78465468D01*
X142300002Y-78465468D01*
X142356807Y-78460498D01*
X142526692Y-78445635D01*
X142746496Y-78386739D01*
X142952734Y-78290568D01*
X143139139Y-78160047D01*
X143300047Y-77999139D01*
X143430568Y-77812734D01*
X143457618Y-77754724D01*
X143503790Y-77702285D01*
X143570983Y-77683133D01*
X143637865Y-77703348D01*
X143682381Y-77754724D01*
X143683794Y-77757753D01*
X143709429Y-77812728D01*
X143709432Y-77812734D01*
X143839954Y-77999141D01*
X144000858Y-78160045D01*
X144000861Y-78160047D01*
X144187266Y-78290568D01*
X144393504Y-78386739D01*
X144613308Y-78445635D01*
X144775230Y-78459801D01*
X144839998Y-78465468D01*
X144840000Y-78465468D01*
X144840002Y-78465468D01*
X144896807Y-78460498D01*
X145066692Y-78445635D01*
X145286496Y-78386739D01*
X145492734Y-78290568D01*
X145679139Y-78160047D01*
X145840047Y-77999139D01*
X145970568Y-77812734D01*
X145997618Y-77754724D01*
X146043790Y-77702285D01*
X146110983Y-77683133D01*
X146177865Y-77703348D01*
X146222381Y-77754724D01*
X146223794Y-77757753D01*
X146249429Y-77812728D01*
X146249432Y-77812734D01*
X146379954Y-77999141D01*
X146540858Y-78160045D01*
X146540861Y-78160047D01*
X146727266Y-78290568D01*
X146933504Y-78386739D01*
X147153308Y-78445635D01*
X147315230Y-78459801D01*
X147379998Y-78465468D01*
X147380000Y-78465468D01*
X147380002Y-78465468D01*
X147436807Y-78460498D01*
X147606692Y-78445635D01*
X147826496Y-78386739D01*
X148032734Y-78290568D01*
X148219139Y-78160047D01*
X148380047Y-77999139D01*
X148510568Y-77812734D01*
X148537618Y-77754724D01*
X148583790Y-77702285D01*
X148650983Y-77683133D01*
X148717865Y-77703348D01*
X148762381Y-77754724D01*
X148763794Y-77757753D01*
X148789429Y-77812728D01*
X148789432Y-77812734D01*
X148919954Y-77999141D01*
X149080858Y-78160045D01*
X149080861Y-78160047D01*
X149267266Y-78290568D01*
X149473504Y-78386739D01*
X149693308Y-78445635D01*
X149855230Y-78459801D01*
X149919998Y-78465468D01*
X149920000Y-78465468D01*
X149920002Y-78465468D01*
X149976807Y-78460498D01*
X150146692Y-78445635D01*
X150366496Y-78386739D01*
X150572734Y-78290568D01*
X150759139Y-78160047D01*
X150920047Y-77999139D01*
X151050568Y-77812734D01*
X151077618Y-77754724D01*
X151123790Y-77702285D01*
X151190983Y-77683133D01*
X151257865Y-77703348D01*
X151302381Y-77754724D01*
X151303794Y-77757753D01*
X151329429Y-77812728D01*
X151329432Y-77812734D01*
X151459954Y-77999141D01*
X151620858Y-78160045D01*
X151620861Y-78160047D01*
X151807266Y-78290568D01*
X152013504Y-78386739D01*
X152233308Y-78445635D01*
X152395230Y-78459801D01*
X152459998Y-78465468D01*
X152460000Y-78465468D01*
X152460002Y-78465468D01*
X152516807Y-78460498D01*
X152686692Y-78445635D01*
X152906496Y-78386739D01*
X153112734Y-78290568D01*
X153299139Y-78160047D01*
X153460047Y-77999139D01*
X153590568Y-77812734D01*
X153686739Y-77606496D01*
X153695513Y-77573751D01*
X153731877Y-77514090D01*
X153794723Y-77483560D01*
X153864099Y-77491854D01*
X153917977Y-77536338D01*
X153933219Y-77567524D01*
X153943056Y-77597797D01*
X153943057Y-77597800D01*
X153994046Y-77697872D01*
X154024559Y-77757755D01*
X154130069Y-77902980D01*
X154257019Y-78029930D01*
X154373056Y-78114234D01*
X154402248Y-78135443D01*
X154562200Y-78216943D01*
X154562202Y-78216944D01*
X154647566Y-78244680D01*
X154732932Y-78272417D01*
X154910241Y-78300500D01*
X154910242Y-78300500D01*
X155089758Y-78300500D01*
X155089759Y-78300500D01*
X155267068Y-78272417D01*
X155437800Y-78216943D01*
X155597752Y-78135443D01*
X155679293Y-78076200D01*
X155742980Y-78029930D01*
X155742982Y-78029927D01*
X155742986Y-78029925D01*
X155869925Y-77902986D01*
X155869927Y-77902982D01*
X155869930Y-77902980D01*
X155940544Y-77805786D01*
X155975443Y-77757752D01*
X156056943Y-77597800D01*
X156112417Y-77427068D01*
X156140500Y-77249759D01*
X156140500Y-77070241D01*
X156112417Y-76892932D01*
X156075134Y-76778187D01*
X156056944Y-76722202D01*
X155975443Y-76562248D01*
X155891991Y-76447385D01*
X155868512Y-76381578D01*
X155884338Y-76313524D01*
X155934444Y-76264830D01*
X155992310Y-76250500D01*
X161568996Y-76250500D01*
X161660040Y-76232389D01*
X161704328Y-76223580D01*
X161768069Y-76197177D01*
X161831807Y-76170777D01*
X161831808Y-76170776D01*
X161831811Y-76170775D01*
X161919248Y-76112352D01*
X171249500Y-76112352D01*
X171253480Y-76137482D01*
X171281522Y-76314534D01*
X171344781Y-76509223D01*
X171406846Y-76631030D01*
X171430159Y-76676785D01*
X171437715Y-76691613D01*
X171558028Y-76857213D01*
X171702786Y-77001971D01*
X171857749Y-77114556D01*
X171868390Y-77122287D01*
X171947348Y-77162518D01*
X172050776Y-77215218D01*
X172050778Y-77215218D01*
X172050781Y-77215220D01*
X172155137Y-77249127D01*
X172245465Y-77278477D01*
X172346557Y-77294488D01*
X172447648Y-77310500D01*
X172447649Y-77310500D01*
X172652351Y-77310500D01*
X172652352Y-77310500D01*
X172854534Y-77278477D01*
X173049219Y-77215220D01*
X173231610Y-77122287D01*
X173348134Y-77037628D01*
X173397213Y-77001971D01*
X173397215Y-77001968D01*
X173397219Y-77001966D01*
X173541966Y-76857219D01*
X173541968Y-76857215D01*
X173541971Y-76857213D01*
X173611777Y-76761131D01*
X173662287Y-76691610D01*
X173755220Y-76509219D01*
X173818477Y-76314534D01*
X173850500Y-76112352D01*
X173850500Y-75907648D01*
X173826624Y-75756902D01*
X173818477Y-75705465D01*
X173784900Y-75602127D01*
X173755220Y-75510781D01*
X173755218Y-75510778D01*
X173755218Y-75510776D01*
X173714573Y-75431007D01*
X173662287Y-75328390D01*
X173636177Y-75292452D01*
X173541971Y-75162786D01*
X173397213Y-75018028D01*
X173231613Y-74897715D01*
X173231612Y-74897714D01*
X173231610Y-74897713D01*
X173174653Y-74868691D01*
X173049223Y-74804781D01*
X172854534Y-74741522D01*
X172679995Y-74713878D01*
X172652352Y-74709500D01*
X172447648Y-74709500D01*
X172423329Y-74713351D01*
X172245465Y-74741522D01*
X172050776Y-74804781D01*
X171868386Y-74897715D01*
X171702786Y-75018028D01*
X171558028Y-75162786D01*
X171437715Y-75328386D01*
X171344781Y-75510776D01*
X171281522Y-75705465D01*
X171254771Y-75874366D01*
X171249500Y-75907648D01*
X171249500Y-76112352D01*
X161919248Y-76112352D01*
X161946543Y-76094114D01*
X163094114Y-74946543D01*
X163170775Y-74831811D01*
X163223580Y-74704329D01*
X163231867Y-74662666D01*
X163250500Y-74568993D01*
X163250500Y-69923097D01*
X167499500Y-69923097D01*
X167536446Y-70156368D01*
X167609433Y-70380996D01*
X167716657Y-70591433D01*
X167855483Y-70782510D01*
X168022490Y-70949517D01*
X168213567Y-71088343D01*
X168312991Y-71139002D01*
X168424003Y-71195566D01*
X168424005Y-71195566D01*
X168424008Y-71195568D01*
X168544412Y-71234689D01*
X168648631Y-71268553D01*
X168881903Y-71305500D01*
X168881908Y-71305500D01*
X170618097Y-71305500D01*
X170851368Y-71268553D01*
X171075992Y-71195568D01*
X171286433Y-71088343D01*
X171477510Y-70949517D01*
X171644517Y-70782510D01*
X171783343Y-70591433D01*
X171890568Y-70380992D01*
X171963553Y-70156368D01*
X171965906Y-70141509D01*
X172000500Y-69923097D01*
X172000500Y-69686902D01*
X171963553Y-69453631D01*
X171896297Y-69246641D01*
X171890568Y-69229008D01*
X171890566Y-69229005D01*
X171890566Y-69229003D01*
X171791461Y-69034500D01*
X171783343Y-69018567D01*
X171644517Y-68827490D01*
X171477510Y-68660483D01*
X171286433Y-68521657D01*
X171075996Y-68414433D01*
X170851368Y-68341446D01*
X170618097Y-68304500D01*
X170618092Y-68304500D01*
X168881908Y-68304500D01*
X168881903Y-68304500D01*
X168648631Y-68341446D01*
X168424003Y-68414433D01*
X168213566Y-68521657D01*
X168104550Y-68600862D01*
X168022490Y-68660483D01*
X168022488Y-68660485D01*
X168022487Y-68660485D01*
X167855485Y-68827487D01*
X167855485Y-68827488D01*
X167855483Y-68827490D01*
X167795862Y-68909550D01*
X167716657Y-69018566D01*
X167609433Y-69229003D01*
X167536446Y-69453631D01*
X167499500Y-69686902D01*
X167499500Y-69923097D01*
X163250500Y-69923097D01*
X163250500Y-67585992D01*
X163270185Y-67518953D01*
X163322989Y-67473198D01*
X163392147Y-67463254D01*
X163442415Y-67483147D01*
X163442580Y-67482862D01*
X163444512Y-67483977D01*
X163445621Y-67484416D01*
X163447266Y-67485568D01*
X163653504Y-67581739D01*
X163873308Y-67640635D01*
X164035230Y-67654801D01*
X164099998Y-67660468D01*
X164100000Y-67660468D01*
X164100002Y-67660468D01*
X164156673Y-67655509D01*
X164326692Y-67640635D01*
X164546496Y-67581739D01*
X164752734Y-67485568D01*
X164939139Y-67355047D01*
X165100047Y-67194139D01*
X165230568Y-67007734D01*
X165326739Y-66801496D01*
X165380484Y-66600913D01*
X165416847Y-66541256D01*
X165479694Y-66510726D01*
X165549070Y-66519020D01*
X165602948Y-66563505D01*
X165620033Y-66600915D01*
X165673731Y-66801320D01*
X165673735Y-66801331D01*
X165769863Y-67007478D01*
X165820974Y-67080472D01*
X166500000Y-66401446D01*
X166500000Y-66407661D01*
X166527259Y-66509394D01*
X166579920Y-66600606D01*
X166654394Y-66675080D01*
X166745606Y-66727741D01*
X166847339Y-66755000D01*
X166853553Y-66755000D01*
X166174526Y-67434025D01*
X166247513Y-67485132D01*
X166247521Y-67485136D01*
X166453668Y-67581264D01*
X166453682Y-67581269D01*
X166673389Y-67640139D01*
X166673400Y-67640141D01*
X166899998Y-67659966D01*
X166900002Y-67659966D01*
X167126599Y-67640141D01*
X167126610Y-67640139D01*
X167346317Y-67581269D01*
X167346331Y-67581264D01*
X167552478Y-67485136D01*
X167625471Y-67434024D01*
X166946447Y-66755000D01*
X166952661Y-66755000D01*
X167054394Y-66727741D01*
X167145606Y-66675080D01*
X167220080Y-66600606D01*
X167272741Y-66509394D01*
X167300000Y-66407661D01*
X167300000Y-66401447D01*
X167979024Y-67080471D01*
X168030136Y-67007478D01*
X168126264Y-66801331D01*
X168126269Y-66801317D01*
X168185139Y-66581610D01*
X168185141Y-66581599D01*
X168204966Y-66355002D01*
X168204966Y-66354997D01*
X168185141Y-66128400D01*
X168185139Y-66128389D01*
X168126269Y-65908682D01*
X168126264Y-65908668D01*
X168030136Y-65702521D01*
X168030132Y-65702513D01*
X167979025Y-65629526D01*
X167300000Y-66308551D01*
X167300000Y-66302339D01*
X167272741Y-66200606D01*
X167220080Y-66109394D01*
X167145606Y-66034920D01*
X167054394Y-65982259D01*
X166952661Y-65955000D01*
X166946448Y-65955000D01*
X167468215Y-65433230D01*
X167503486Y-65408532D01*
X167552734Y-65385568D01*
X167739139Y-65255047D01*
X167900047Y-65094139D01*
X168030568Y-64907734D01*
X168126739Y-64701496D01*
X168185635Y-64481692D01*
X168205468Y-64255000D01*
X168189554Y-64073097D01*
X169049500Y-64073097D01*
X169086446Y-64306368D01*
X169159433Y-64530996D01*
X169252843Y-64714322D01*
X169266657Y-64741433D01*
X169405483Y-64932510D01*
X169572490Y-65099517D01*
X169763567Y-65238343D01*
X169862991Y-65289002D01*
X169974003Y-65345566D01*
X169974005Y-65345566D01*
X169974008Y-65345568D01*
X170034780Y-65365314D01*
X170198631Y-65418553D01*
X170431903Y-65455500D01*
X170431908Y-65455500D01*
X170668097Y-65455500D01*
X170901368Y-65418553D01*
X171125992Y-65345568D01*
X171336433Y-65238343D01*
X171527510Y-65099517D01*
X171694517Y-64932510D01*
X171833343Y-64741433D01*
X171940568Y-64530992D01*
X172013553Y-64306368D01*
X172027257Y-64219843D01*
X172050500Y-64073097D01*
X172050500Y-61836902D01*
X172013553Y-61603631D01*
X171974099Y-61482205D01*
X171940568Y-61379008D01*
X171940566Y-61379005D01*
X171940566Y-61379003D01*
X171851120Y-61203457D01*
X171833343Y-61168567D01*
X171694517Y-60977490D01*
X171527510Y-60810483D01*
X171336433Y-60671657D01*
X171291564Y-60648795D01*
X171125996Y-60564433D01*
X170901368Y-60491446D01*
X170668097Y-60454500D01*
X170668092Y-60454500D01*
X170431908Y-60454500D01*
X170431903Y-60454500D01*
X170198631Y-60491446D01*
X169974003Y-60564433D01*
X169763566Y-60671657D01*
X169696774Y-60720185D01*
X169572490Y-60810483D01*
X169572488Y-60810485D01*
X169572487Y-60810485D01*
X169405485Y-60977487D01*
X169405485Y-60977488D01*
X169405483Y-60977490D01*
X169352751Y-61050069D01*
X169266657Y-61168566D01*
X169159433Y-61379003D01*
X169086446Y-61603631D01*
X169049500Y-61836902D01*
X169049500Y-64073097D01*
X168189554Y-64073097D01*
X168185635Y-64028308D01*
X168126739Y-63808504D01*
X168030568Y-63602266D01*
X167900047Y-63415861D01*
X167900045Y-63415858D01*
X167739141Y-63254954D01*
X167633628Y-63181074D01*
X167590003Y-63126498D01*
X167582809Y-63056999D01*
X167614331Y-62994644D01*
X167674561Y-62959230D01*
X167704751Y-62955499D01*
X167747871Y-62955499D01*
X167747872Y-62955499D01*
X167807483Y-62949091D01*
X167942331Y-62898796D01*
X168057546Y-62812546D01*
X168143796Y-62697331D01*
X168194091Y-62562483D01*
X168200500Y-62502873D01*
X168200499Y-60807128D01*
X168194091Y-60747517D01*
X168190070Y-60736737D01*
X168143797Y-60612671D01*
X168143793Y-60612664D01*
X168057547Y-60497455D01*
X168057544Y-60497452D01*
X168002913Y-60456555D01*
X167961042Y-60400621D01*
X167956058Y-60330930D01*
X167975647Y-60286169D01*
X168030568Y-60207734D01*
X168126739Y-60001496D01*
X168185635Y-59781692D01*
X168205468Y-59555000D01*
X168203636Y-59534065D01*
X168191033Y-59390012D01*
X168185635Y-59328308D01*
X168137858Y-59150000D01*
X168126741Y-59108511D01*
X168126738Y-59108503D01*
X168030568Y-58902266D01*
X167900047Y-58715861D01*
X167900045Y-58715858D01*
X167739141Y-58554954D01*
X167552734Y-58424432D01*
X167552732Y-58424431D01*
X167346497Y-58328261D01*
X167346488Y-58328258D01*
X167126697Y-58269366D01*
X167126693Y-58269365D01*
X167126692Y-58269365D01*
X167126691Y-58269364D01*
X167126686Y-58269364D01*
X166900002Y-58249532D01*
X166899998Y-58249532D01*
X166673313Y-58269364D01*
X166673302Y-58269366D01*
X166453511Y-58328258D01*
X166453502Y-58328261D01*
X166247267Y-58424431D01*
X166247265Y-58424432D01*
X166060858Y-58554954D01*
X165899954Y-58715858D01*
X165769432Y-58902265D01*
X165769431Y-58902267D01*
X165673261Y-59108502D01*
X165673258Y-59108511D01*
X165619775Y-59308117D01*
X165583410Y-59367778D01*
X165520563Y-59398307D01*
X165451188Y-59390012D01*
X165397310Y-59345527D01*
X165380225Y-59308117D01*
X165326741Y-59108511D01*
X165326738Y-59108503D01*
X165230568Y-58902266D01*
X165100047Y-58715861D01*
X165100045Y-58715858D01*
X164939141Y-58554954D01*
X164752734Y-58424432D01*
X164752732Y-58424431D01*
X164546497Y-58328261D01*
X164546488Y-58328258D01*
X164326697Y-58269366D01*
X164326693Y-58269365D01*
X164326692Y-58269365D01*
X164326691Y-58269364D01*
X164326686Y-58269364D01*
X164100002Y-58249532D01*
X164099998Y-58249532D01*
X163873313Y-58269364D01*
X163873302Y-58269366D01*
X163653511Y-58328258D01*
X163653502Y-58328261D01*
X163447267Y-58424431D01*
X163447265Y-58424432D01*
X163260858Y-58554954D01*
X163099954Y-58715858D01*
X162969432Y-58902265D01*
X162969431Y-58902267D01*
X162873261Y-59108503D01*
X162853463Y-59182387D01*
X162821370Y-59237972D01*
X160855888Y-61203453D01*
X160855887Y-61203454D01*
X160779222Y-61318192D01*
X160726421Y-61445667D01*
X160726418Y-61445679D01*
X160702424Y-61566306D01*
X160702423Y-61566311D01*
X160699500Y-61581002D01*
X160699500Y-73458481D01*
X160679815Y-73525520D01*
X160663181Y-73546162D01*
X160246162Y-73963181D01*
X160184839Y-73996666D01*
X160158481Y-73999500D01*
X130331004Y-73999500D01*
X130195677Y-74026418D01*
X130195667Y-74026421D01*
X130068192Y-74079222D01*
X129953454Y-74155887D01*
X129055887Y-75053454D01*
X128979222Y-75168192D01*
X128926421Y-75295667D01*
X128926418Y-75295677D01*
X128899500Y-75431004D01*
X128899500Y-75998326D01*
X128879815Y-76065365D01*
X128846624Y-76099901D01*
X128760863Y-76159951D01*
X128599951Y-76320862D01*
X128469432Y-76507265D01*
X128469431Y-76507267D01*
X128442382Y-76565275D01*
X128396209Y-76617714D01*
X128329016Y-76636866D01*
X128262135Y-76616650D01*
X128217618Y-76565275D01*
X128217019Y-76563991D01*
X128190568Y-76507266D01*
X128060047Y-76320861D01*
X128060045Y-76320858D01*
X127899141Y-76159954D01*
X127712734Y-76029432D01*
X127712732Y-76029431D01*
X127506497Y-75933261D01*
X127506488Y-75933258D01*
X127286697Y-75874366D01*
X127286693Y-75874365D01*
X127286692Y-75874365D01*
X127286691Y-75874364D01*
X127286686Y-75874364D01*
X127060002Y-75854532D01*
X127059998Y-75854532D01*
X126833313Y-75874364D01*
X126833302Y-75874366D01*
X126613511Y-75933258D01*
X126613502Y-75933261D01*
X126407267Y-76029431D01*
X126407265Y-76029432D01*
X126220858Y-76159954D01*
X126059954Y-76320858D01*
X125929432Y-76507265D01*
X125929431Y-76507267D01*
X125902382Y-76565275D01*
X125856209Y-76617714D01*
X125789016Y-76636866D01*
X125722135Y-76616650D01*
X125677618Y-76565275D01*
X125677019Y-76563991D01*
X125650568Y-76507266D01*
X125520047Y-76320861D01*
X125520045Y-76320858D01*
X125359141Y-76159954D01*
X125172734Y-76029432D01*
X125172732Y-76029431D01*
X124966497Y-75933261D01*
X124966488Y-75933258D01*
X124746697Y-75874366D01*
X124746693Y-75874365D01*
X124746692Y-75874365D01*
X124746691Y-75874364D01*
X124746686Y-75874364D01*
X124520002Y-75854532D01*
X124519998Y-75854532D01*
X124293313Y-75874364D01*
X124293302Y-75874366D01*
X124073511Y-75933258D01*
X124073502Y-75933261D01*
X123867267Y-76029431D01*
X123867265Y-76029432D01*
X123680858Y-76159954D01*
X123519954Y-76320858D01*
X123389432Y-76507265D01*
X123389431Y-76507267D01*
X123362382Y-76565275D01*
X123316209Y-76617714D01*
X123249016Y-76636866D01*
X123182135Y-76616650D01*
X123137618Y-76565275D01*
X123137019Y-76563991D01*
X123110568Y-76507266D01*
X122980047Y-76320861D01*
X122980045Y-76320858D01*
X122819141Y-76159954D01*
X122632734Y-76029432D01*
X122632732Y-76029431D01*
X122426497Y-75933261D01*
X122426488Y-75933258D01*
X122206697Y-75874366D01*
X122206693Y-75874365D01*
X122206692Y-75874365D01*
X122206691Y-75874364D01*
X122206686Y-75874364D01*
X121980002Y-75854532D01*
X121979998Y-75854532D01*
X121753313Y-75874364D01*
X121753302Y-75874366D01*
X121533511Y-75933258D01*
X121533502Y-75933261D01*
X121327267Y-76029431D01*
X121327265Y-76029432D01*
X121140858Y-76159954D01*
X120979954Y-76320858D01*
X120849432Y-76507265D01*
X120849431Y-76507267D01*
X120822382Y-76565275D01*
X120776209Y-76617714D01*
X120709016Y-76636866D01*
X120642135Y-76616650D01*
X120597618Y-76565275D01*
X120597019Y-76563991D01*
X120570568Y-76507266D01*
X120440047Y-76320861D01*
X120440045Y-76320858D01*
X120279141Y-76159954D01*
X120092734Y-76029432D01*
X120092732Y-76029431D01*
X119886497Y-75933261D01*
X119886488Y-75933258D01*
X119666697Y-75874366D01*
X119666693Y-75874365D01*
X119666692Y-75874365D01*
X119666691Y-75874364D01*
X119666686Y-75874364D01*
X119440002Y-75854532D01*
X119439998Y-75854532D01*
X119213313Y-75874364D01*
X119213302Y-75874366D01*
X118993511Y-75933258D01*
X118993502Y-75933261D01*
X118787267Y-76029431D01*
X118787265Y-76029432D01*
X118600858Y-76159954D01*
X118439954Y-76320858D01*
X118422725Y-76345464D01*
X118368147Y-76389088D01*
X118298648Y-76396280D01*
X118236294Y-76364757D01*
X118200882Y-76304526D01*
X118197861Y-76287591D01*
X118194091Y-76252516D01*
X118143797Y-76117671D01*
X118143793Y-76117664D01*
X118057547Y-76002455D01*
X118057544Y-76002452D01*
X117942335Y-75916206D01*
X117942328Y-75916202D01*
X117807482Y-75865908D01*
X117807483Y-75865908D01*
X117747883Y-75859501D01*
X117747881Y-75859500D01*
X117747873Y-75859500D01*
X117747864Y-75859500D01*
X116052129Y-75859500D01*
X116052123Y-75859501D01*
X115992516Y-75865908D01*
X115857671Y-75916202D01*
X115857664Y-75916206D01*
X115742455Y-76002452D01*
X115742452Y-76002455D01*
X115656206Y-76117664D01*
X115656202Y-76117671D01*
X115605908Y-76252517D01*
X115599501Y-76312116D01*
X115599500Y-76312135D01*
X115599500Y-76563991D01*
X115579815Y-76631030D01*
X115527011Y-76676785D01*
X115457853Y-76686729D01*
X115394297Y-76657704D01*
X115365015Y-76620286D01*
X115363162Y-76616650D01*
X115335443Y-76562248D01*
X115328663Y-76552916D01*
X115229930Y-76417019D01*
X115102980Y-76290069D01*
X114957755Y-76184559D01*
X114957754Y-76184558D01*
X114957752Y-76184557D01*
X114865363Y-76137482D01*
X114797797Y-76103055D01*
X114627069Y-76047583D01*
X114512461Y-76029431D01*
X114449759Y-76019500D01*
X114270241Y-76019500D01*
X114211138Y-76028861D01*
X114092930Y-76047583D01*
X113922202Y-76103055D01*
X113762244Y-76184559D01*
X113617019Y-76290069D01*
X113490069Y-76417019D01*
X113384559Y-76562244D01*
X113303055Y-76722202D01*
X113247583Y-76892930D01*
X113241188Y-76933308D01*
X113219500Y-77070241D01*
X113219500Y-77249759D01*
X96707808Y-77249759D01*
X96776734Y-77037628D01*
X96798532Y-76900000D01*
X95850748Y-76900000D01*
X95872518Y-76862292D01*
X95910000Y-76722409D01*
X95910000Y-76577591D01*
X95872518Y-76437708D01*
X95850748Y-76400000D01*
X96798532Y-76400000D01*
X96776734Y-76262371D01*
X96706082Y-76044929D01*
X96602288Y-75841223D01*
X96467902Y-75656257D01*
X96306242Y-75494597D01*
X96121276Y-75360211D01*
X95917568Y-75256417D01*
X95891263Y-75247870D01*
X99199500Y-75247870D01*
X99199501Y-75247876D01*
X99205908Y-75307483D01*
X99256202Y-75442328D01*
X99256206Y-75442335D01*
X99342452Y-75557544D01*
X99342455Y-75557547D01*
X99457664Y-75643793D01*
X99457671Y-75643797D01*
X99592517Y-75694091D01*
X99592516Y-75694091D01*
X99599444Y-75694835D01*
X99652127Y-75700500D01*
X101347872Y-75700499D01*
X101407483Y-75694091D01*
X101542331Y-75643796D01*
X101657546Y-75557546D01*
X101664051Y-75548856D01*
X101719982Y-75506984D01*
X101789673Y-75501997D01*
X101834442Y-75521589D01*
X101847264Y-75530567D01*
X101847266Y-75530568D01*
X102053504Y-75626739D01*
X102273308Y-75685635D01*
X102435230Y-75699801D01*
X102499998Y-75705468D01*
X102500000Y-75705468D01*
X102500002Y-75705468D01*
X102556807Y-75700498D01*
X102726692Y-75685635D01*
X102946496Y-75626739D01*
X103152734Y-75530568D01*
X103339139Y-75400047D01*
X103500047Y-75239139D01*
X103630568Y-75052734D01*
X103726739Y-74846496D01*
X103785635Y-74626692D01*
X103805468Y-74400000D01*
X103785635Y-74173308D01*
X103726739Y-73953504D01*
X103630568Y-73747266D01*
X103500047Y-73560861D01*
X103500045Y-73560858D01*
X103339141Y-73399954D01*
X103152734Y-73269432D01*
X103152732Y-73269431D01*
X102946497Y-73173261D01*
X102946488Y-73173258D01*
X102726697Y-73114366D01*
X102726693Y-73114365D01*
X102726692Y-73114365D01*
X102726691Y-73114364D01*
X102726686Y-73114364D01*
X102500002Y-73094532D01*
X102499998Y-73094532D01*
X102273313Y-73114364D01*
X102273302Y-73114366D01*
X102053511Y-73173258D01*
X102053502Y-73173261D01*
X101847267Y-73269431D01*
X101847262Y-73269434D01*
X101834435Y-73278415D01*
X101768227Y-73300738D01*
X101700461Y-73283722D01*
X101664052Y-73251145D01*
X101657546Y-73242454D01*
X101657545Y-73242453D01*
X101657544Y-73242452D01*
X101542335Y-73156206D01*
X101542328Y-73156202D01*
X101407482Y-73105908D01*
X101407483Y-73105908D01*
X101347883Y-73099501D01*
X101347881Y-73099500D01*
X101347873Y-73099500D01*
X101347864Y-73099500D01*
X99652129Y-73099500D01*
X99652123Y-73099501D01*
X99592516Y-73105908D01*
X99457671Y-73156202D01*
X99457664Y-73156206D01*
X99342455Y-73242452D01*
X99342452Y-73242455D01*
X99256206Y-73357664D01*
X99256202Y-73357671D01*
X99205908Y-73492517D01*
X99199501Y-73552116D01*
X99199500Y-73552135D01*
X99199500Y-75247870D01*
X95891263Y-75247870D01*
X95700124Y-75185765D01*
X95610000Y-75171490D01*
X95610000Y-76159252D01*
X95572292Y-76137482D01*
X95432409Y-76100000D01*
X95287591Y-76100000D01*
X95147708Y-76137482D01*
X95110000Y-76159252D01*
X95110000Y-75171490D01*
X95109999Y-75171490D01*
X95019875Y-75185765D01*
X94802431Y-75256417D01*
X94598723Y-75360211D01*
X94413757Y-75494597D01*
X94252097Y-75656257D01*
X94190627Y-75740864D01*
X94135297Y-75783529D01*
X94065684Y-75789508D01*
X94003889Y-75756902D01*
X93989991Y-75740864D01*
X93928286Y-75655934D01*
X93766566Y-75494214D01*
X93581538Y-75359783D01*
X93377758Y-75255952D01*
X93377757Y-75255951D01*
X93377752Y-75255949D01*
X93377754Y-75255949D01*
X93283234Y-75225239D01*
X93225558Y-75185802D01*
X93198359Y-75121444D01*
X93210273Y-75052597D01*
X93233867Y-75019630D01*
X96389464Y-71864035D01*
X96450739Y-71772331D01*
X96488013Y-71716547D01*
X96488114Y-71716303D01*
X96520762Y-71637484D01*
X96520762Y-71637483D01*
X96555895Y-71552666D01*
X96590500Y-71378691D01*
X96590500Y-71201308D01*
X96590500Y-69307106D01*
X96610185Y-69240067D01*
X96633965Y-69212818D01*
X96789759Y-69079759D01*
X96948259Y-68894179D01*
X97075777Y-68686089D01*
X97169172Y-68460612D01*
X97226146Y-68223302D01*
X97245294Y-67980000D01*
X97226146Y-67736698D01*
X97169172Y-67499388D01*
X97163448Y-67485568D01*
X97075777Y-67273910D01*
X96948262Y-67065826D01*
X96948261Y-67065823D01*
X96898429Y-67007478D01*
X96789759Y-66880241D01*
X96650829Y-66761584D01*
X96634742Y-66747844D01*
X100850000Y-66747844D01*
X100856401Y-66807372D01*
X100856403Y-66807379D01*
X100906645Y-66942086D01*
X100906649Y-66942093D01*
X100992809Y-67057187D01*
X100992812Y-67057190D01*
X101107906Y-67143350D01*
X101107913Y-67143354D01*
X101242620Y-67193596D01*
X101242627Y-67193598D01*
X101302155Y-67199999D01*
X101302172Y-67200000D01*
X101900000Y-67200000D01*
X101900000Y-66333012D01*
X101957007Y-66365925D01*
X102084174Y-66400000D01*
X102215826Y-66400000D01*
X102342993Y-66365925D01*
X102400000Y-66333012D01*
X102400000Y-67200000D01*
X102997828Y-67200000D01*
X102997844Y-67199999D01*
X103057372Y-67193598D01*
X103057379Y-67193596D01*
X103192086Y-67143354D01*
X103192093Y-67143350D01*
X103307187Y-67057190D01*
X103307190Y-67057187D01*
X103393350Y-66942093D01*
X103393354Y-66942086D01*
X103443596Y-66807379D01*
X103443598Y-66807372D01*
X103449999Y-66747844D01*
X103450000Y-66747827D01*
X103450000Y-66150000D01*
X102583012Y-66150000D01*
X102615925Y-66092993D01*
X102650000Y-65965826D01*
X102650000Y-65900001D01*
X107344532Y-65900001D01*
X107364364Y-66126686D01*
X107364366Y-66126697D01*
X107423258Y-66346488D01*
X107423261Y-66346497D01*
X107519431Y-66552732D01*
X107519432Y-66552734D01*
X107649954Y-66739141D01*
X107810858Y-66900045D01*
X107810861Y-66900047D01*
X107997266Y-67030568D01*
X108203504Y-67126739D01*
X108423308Y-67185635D01*
X108585230Y-67199801D01*
X108649998Y-67205468D01*
X108650000Y-67205468D01*
X108650002Y-67205468D01*
X108712511Y-67199999D01*
X108876692Y-67185635D01*
X109096496Y-67126739D01*
X109302734Y-67030568D01*
X109489139Y-66900047D01*
X109650047Y-66739139D01*
X109780568Y-66552734D01*
X109876739Y-66346496D01*
X109935635Y-66126692D01*
X109955468Y-65900000D01*
X109935635Y-65673308D01*
X109876739Y-65453504D01*
X109780568Y-65247266D01*
X109650047Y-65060861D01*
X109650045Y-65060858D01*
X109489141Y-64899954D01*
X109302734Y-64769432D01*
X109302732Y-64769431D01*
X109096497Y-64673261D01*
X109096488Y-64673258D01*
X108876697Y-64614366D01*
X108876693Y-64614365D01*
X108876692Y-64614365D01*
X108876691Y-64614364D01*
X108876686Y-64614364D01*
X108650002Y-64594532D01*
X108649998Y-64594532D01*
X108423313Y-64614364D01*
X108423302Y-64614366D01*
X108203511Y-64673258D01*
X108203502Y-64673261D01*
X107997267Y-64769431D01*
X107997265Y-64769432D01*
X107810858Y-64899954D01*
X107649954Y-65060858D01*
X107519432Y-65247265D01*
X107519431Y-65247267D01*
X107423261Y-65453502D01*
X107423258Y-65453511D01*
X107364366Y-65673302D01*
X107364364Y-65673313D01*
X107344532Y-65899998D01*
X107344532Y-65900001D01*
X102650000Y-65900001D01*
X102650000Y-65834174D01*
X102615925Y-65707007D01*
X102583012Y-65650000D01*
X103450000Y-65650000D01*
X103450000Y-65052172D01*
X103449999Y-65052155D01*
X103443598Y-64992627D01*
X103443596Y-64992620D01*
X103393354Y-64857913D01*
X103393350Y-64857906D01*
X103307190Y-64742812D01*
X103307187Y-64742809D01*
X103192093Y-64656649D01*
X103192086Y-64656645D01*
X103057379Y-64606403D01*
X103057372Y-64606401D01*
X102997844Y-64600000D01*
X102400000Y-64600000D01*
X102400000Y-65466988D01*
X102342993Y-65434075D01*
X102215826Y-65400000D01*
X102084174Y-65400000D01*
X101957007Y-65434075D01*
X101900000Y-65466988D01*
X101900000Y-64600000D01*
X101302155Y-64600000D01*
X101242627Y-64606401D01*
X101242620Y-64606403D01*
X101107913Y-64656645D01*
X101107906Y-64656649D01*
X100992812Y-64742809D01*
X100992809Y-64742812D01*
X100906649Y-64857906D01*
X100906645Y-64857913D01*
X100856403Y-64992620D01*
X100856401Y-64992627D01*
X100850000Y-65052155D01*
X100850000Y-65650000D01*
X101716988Y-65650000D01*
X101684075Y-65707007D01*
X101650000Y-65834174D01*
X101650000Y-65965826D01*
X101684075Y-66092993D01*
X101716988Y-66150000D01*
X100850000Y-66150000D01*
X100850000Y-66747844D01*
X96634742Y-66747844D01*
X96604176Y-66721738D01*
X96604173Y-66721737D01*
X96396089Y-66594222D01*
X96170618Y-66500830D01*
X96170621Y-66500830D01*
X96064992Y-66475470D01*
X95933302Y-66443854D01*
X95933300Y-66443853D01*
X95933297Y-66443853D01*
X95690000Y-66424706D01*
X95446702Y-66443853D01*
X95209380Y-66500830D01*
X94983910Y-66594222D01*
X94775826Y-66721737D01*
X94775823Y-66721738D01*
X94590241Y-66880241D01*
X94431738Y-67065823D01*
X94431737Y-67065826D01*
X94304222Y-67273910D01*
X94210830Y-67499380D01*
X94210828Y-67499387D01*
X94210828Y-67499388D01*
X94190036Y-67585992D01*
X94153853Y-67736702D01*
X94134706Y-67980000D01*
X94153853Y-68223297D01*
X94153853Y-68223300D01*
X94153854Y-68223302D01*
X94199741Y-68414433D01*
X94210830Y-68460619D01*
X94304221Y-68686087D01*
X94337695Y-68740711D01*
X94355939Y-68808156D01*
X94334822Y-68874759D01*
X94281050Y-68919372D01*
X94231967Y-68929500D01*
X92102129Y-68929500D01*
X92102123Y-68929501D01*
X92042516Y-68935908D01*
X91907671Y-68986202D01*
X91907664Y-68986206D01*
X91792455Y-69072452D01*
X91792452Y-69072455D01*
X91706206Y-69187664D01*
X91706202Y-69187671D01*
X91655908Y-69322517D01*
X91649501Y-69382116D01*
X91649500Y-69382135D01*
X91649500Y-71577870D01*
X91649501Y-71577876D01*
X91655908Y-71637483D01*
X91706202Y-71772328D01*
X91706206Y-71772335D01*
X91792452Y-71887544D01*
X91792455Y-71887547D01*
X91907664Y-71973793D01*
X91907671Y-71973797D01*
X92042517Y-72024091D01*
X92042516Y-72024091D01*
X92049444Y-72024835D01*
X92102127Y-72030500D01*
X93376638Y-72030499D01*
X93443677Y-72050184D01*
X93489432Y-72102987D01*
X93499376Y-72172146D01*
X93470351Y-72235702D01*
X93464319Y-72242180D01*
X90593317Y-75113181D01*
X90531994Y-75146666D01*
X90505636Y-75149500D01*
X89279629Y-75149500D01*
X89279623Y-75149501D01*
X89220016Y-75155908D01*
X89085171Y-75206202D01*
X89085164Y-75206206D01*
X88969955Y-75292452D01*
X88969952Y-75292455D01*
X88883706Y-75407664D01*
X88883702Y-75407671D01*
X88833408Y-75542517D01*
X88827001Y-75602116D01*
X88827000Y-75602135D01*
X88827000Y-77697870D01*
X80700000Y-77697870D01*
X80700000Y-76112352D01*
X82729500Y-76112352D01*
X82733480Y-76137482D01*
X82761522Y-76314534D01*
X82824781Y-76509223D01*
X82886846Y-76631030D01*
X82910159Y-76676785D01*
X82917715Y-76691613D01*
X83038028Y-76857213D01*
X83182786Y-77001971D01*
X83337749Y-77114556D01*
X83348390Y-77122287D01*
X83427348Y-77162518D01*
X83530776Y-77215218D01*
X83530778Y-77215218D01*
X83530781Y-77215220D01*
X83635137Y-77249127D01*
X83725465Y-77278477D01*
X83826557Y-77294488D01*
X83927648Y-77310500D01*
X83927649Y-77310500D01*
X84132351Y-77310500D01*
X84132352Y-77310500D01*
X84334534Y-77278477D01*
X84529219Y-77215220D01*
X84711610Y-77122287D01*
X84828134Y-77037628D01*
X84877213Y-77001971D01*
X84877215Y-77001968D01*
X84877219Y-77001966D01*
X85021966Y-76857219D01*
X85021968Y-76857215D01*
X85021971Y-76857213D01*
X85091777Y-76761131D01*
X85142287Y-76691610D01*
X85235220Y-76509219D01*
X85298477Y-76314534D01*
X85330500Y-76112352D01*
X85330500Y-75907648D01*
X85306624Y-75756902D01*
X85298477Y-75705465D01*
X85264900Y-75602127D01*
X85235220Y-75510781D01*
X85235218Y-75510778D01*
X85235218Y-75510776D01*
X85194573Y-75431007D01*
X85142287Y-75328390D01*
X85116177Y-75292452D01*
X85021971Y-75162786D01*
X84877213Y-75018028D01*
X84711613Y-74897715D01*
X84711612Y-74897714D01*
X84711610Y-74897713D01*
X84654653Y-74868691D01*
X84529223Y-74804781D01*
X84334534Y-74741522D01*
X84159995Y-74713878D01*
X84132352Y-74709500D01*
X83927648Y-74709500D01*
X83903329Y-74713351D01*
X83725465Y-74741522D01*
X83530776Y-74804781D01*
X83348386Y-74897715D01*
X83182786Y-75018028D01*
X83038028Y-75162786D01*
X82917715Y-75328386D01*
X82824781Y-75510776D01*
X82761522Y-75705465D01*
X82734771Y-75874366D01*
X82729500Y-75907648D01*
X82729500Y-76112352D01*
X80700000Y-76112352D01*
X80700000Y-70593768D01*
X86744500Y-70593768D01*
X86780093Y-70818490D01*
X86850400Y-71034876D01*
X86850401Y-71034879D01*
X86877643Y-71088343D01*
X86953697Y-71237607D01*
X87087434Y-71421680D01*
X87248320Y-71582566D01*
X87432393Y-71716303D01*
X87531825Y-71766966D01*
X87635120Y-71819598D01*
X87635123Y-71819599D01*
X87743316Y-71854752D01*
X87851511Y-71889907D01*
X87955591Y-71906391D01*
X88076232Y-71925500D01*
X88076237Y-71925500D01*
X88303768Y-71925500D01*
X88412710Y-71908244D01*
X88528489Y-71889907D01*
X88744879Y-71819598D01*
X88947607Y-71716303D01*
X89131680Y-71582566D01*
X89292566Y-71421680D01*
X89426303Y-71237607D01*
X89529598Y-71034879D01*
X89599907Y-70818489D01*
X89618244Y-70702710D01*
X89635500Y-70593768D01*
X89635500Y-70366231D01*
X89602260Y-70156368D01*
X89599907Y-70141511D01*
X89529598Y-69925121D01*
X89529598Y-69925120D01*
X89426302Y-69722392D01*
X89292566Y-69538320D01*
X89131680Y-69377434D01*
X88947607Y-69243697D01*
X88918778Y-69229008D01*
X88744879Y-69140401D01*
X88744876Y-69140400D01*
X88528490Y-69070093D01*
X88303768Y-69034500D01*
X88303763Y-69034500D01*
X88076237Y-69034500D01*
X88076232Y-69034500D01*
X87851509Y-69070093D01*
X87635123Y-69140400D01*
X87635120Y-69140401D01*
X87432392Y-69243697D01*
X87345118Y-69307106D01*
X87248320Y-69377434D01*
X87248318Y-69377436D01*
X87248317Y-69377436D01*
X87087436Y-69538317D01*
X87087436Y-69538318D01*
X87087434Y-69538320D01*
X87029998Y-69617372D01*
X86953697Y-69722392D01*
X86850401Y-69925120D01*
X86850400Y-69925123D01*
X86780093Y-70141509D01*
X86744500Y-70366231D01*
X86744500Y-70593768D01*
X80700000Y-70593768D01*
X80700000Y-67980000D01*
X81637906Y-67980000D01*
X81657053Y-68223297D01*
X81657053Y-68223300D01*
X81657054Y-68223302D01*
X81702941Y-68414433D01*
X81714030Y-68460619D01*
X81807422Y-68686089D01*
X81934937Y-68894173D01*
X81934938Y-68894176D01*
X81934941Y-68894179D01*
X82093441Y-69079759D01*
X82219782Y-69187664D01*
X82279023Y-69238261D01*
X82279026Y-69238262D01*
X82487110Y-69365777D01*
X82712581Y-69459169D01*
X82712578Y-69459169D01*
X82712584Y-69459170D01*
X82712588Y-69459172D01*
X82949898Y-69516146D01*
X83193200Y-69535294D01*
X83436502Y-69516146D01*
X83673812Y-69459172D01*
X83899289Y-69365777D01*
X84107379Y-69238259D01*
X84292959Y-69079759D01*
X84451459Y-68894179D01*
X84578977Y-68686089D01*
X84672372Y-68460612D01*
X84729346Y-68223302D01*
X84748494Y-67980000D01*
X84729346Y-67736698D01*
X84672372Y-67499388D01*
X84666648Y-67485568D01*
X84578977Y-67273910D01*
X84451462Y-67065826D01*
X84451461Y-67065823D01*
X84292959Y-66880241D01*
X84292955Y-66880238D01*
X84224519Y-66821788D01*
X84186328Y-66763284D01*
X84185828Y-66693416D01*
X84223182Y-66634370D01*
X84224431Y-66633286D01*
X84292959Y-66574759D01*
X84451459Y-66389179D01*
X84578977Y-66181089D01*
X84672372Y-65955612D01*
X84729346Y-65718302D01*
X84748494Y-65475000D01*
X84729346Y-65231698D01*
X84672372Y-64994388D01*
X84656697Y-64956545D01*
X84578977Y-64768910D01*
X84451462Y-64560826D01*
X84451461Y-64560823D01*
X84383881Y-64481697D01*
X84292959Y-64375241D01*
X84197708Y-64293889D01*
X84159516Y-64235383D01*
X84159018Y-64165515D01*
X84196371Y-64106469D01*
X84197709Y-64105310D01*
X84292959Y-64023959D01*
X84451459Y-63838379D01*
X84578977Y-63630289D01*
X84672372Y-63404812D01*
X84729346Y-63167502D01*
X84744496Y-62975000D01*
X91644706Y-62975000D01*
X91663853Y-63218297D01*
X91663853Y-63218300D01*
X91663854Y-63218302D01*
X91711284Y-63415861D01*
X91720830Y-63455619D01*
X91814222Y-63681089D01*
X91941737Y-63889173D01*
X91941738Y-63889176D01*
X91941741Y-63889179D01*
X92100241Y-64074759D01*
X92204515Y-64163817D01*
X92285823Y-64233261D01*
X92285826Y-64233262D01*
X92493910Y-64360777D01*
X92719381Y-64454169D01*
X92719378Y-64454169D01*
X92719384Y-64454170D01*
X92719388Y-64454172D01*
X92956698Y-64511146D01*
X93200000Y-64530294D01*
X93443302Y-64511146D01*
X93680612Y-64454172D01*
X93906089Y-64360777D01*
X94114179Y-64233259D01*
X94299759Y-64074759D01*
X94458259Y-63889179D01*
X94585777Y-63681089D01*
X94679172Y-63455612D01*
X94736146Y-63218302D01*
X94755294Y-62975000D01*
X94736146Y-62731698D01*
X94693852Y-62555534D01*
X94697342Y-62485757D01*
X94726743Y-62438912D01*
X96878837Y-60286819D01*
X96940160Y-60253334D01*
X96966518Y-60250500D01*
X111262672Y-60250500D01*
X111329711Y-60270185D01*
X111375466Y-60322989D01*
X111385410Y-60392147D01*
X111373997Y-60425134D01*
X111375462Y-60425786D01*
X111372818Y-60431722D01*
X111318476Y-60598972D01*
X111314326Y-60611744D01*
X111294540Y-60800000D01*
X111314326Y-60988256D01*
X111314327Y-60988259D01*
X111372818Y-61168277D01*
X111372821Y-61168284D01*
X111467466Y-61332215D01*
X111467648Y-61332417D01*
X111467716Y-61332559D01*
X111471285Y-61337471D01*
X111470386Y-61338123D01*
X111497879Y-61395408D01*
X111499500Y-61415391D01*
X111499500Y-64681006D01*
X111499500Y-64818994D01*
X111499500Y-64818996D01*
X111499499Y-64818996D01*
X111526418Y-64954322D01*
X111526421Y-64954332D01*
X111579222Y-65081807D01*
X111655887Y-65196545D01*
X112603453Y-66144111D01*
X112603457Y-66144114D01*
X112674877Y-66191835D01*
X112718189Y-66220775D01*
X112718190Y-66220775D01*
X112718191Y-66220776D01*
X112845667Y-66273578D01*
X112845672Y-66273580D01*
X112845676Y-66273580D01*
X112845677Y-66273581D01*
X112981004Y-66300500D01*
X112981007Y-66300500D01*
X143818996Y-66300500D01*
X143910040Y-66282389D01*
X143954328Y-66273580D01*
X144018069Y-66247177D01*
X144081807Y-66220777D01*
X144081808Y-66220776D01*
X144081811Y-66220775D01*
X144196543Y-66144114D01*
X145384114Y-64956543D01*
X145460775Y-64841811D01*
X145513580Y-64714328D01*
X145533464Y-64614365D01*
X145540500Y-64578996D01*
X145540500Y-63081672D01*
X145560185Y-63014633D01*
X145593375Y-62980098D01*
X145679139Y-62920047D01*
X145840047Y-62759139D01*
X145970568Y-62572734D01*
X145997618Y-62514724D01*
X146043790Y-62462285D01*
X146110983Y-62443133D01*
X146177865Y-62463348D01*
X146222381Y-62514724D01*
X146223795Y-62517755D01*
X146249429Y-62572728D01*
X146249432Y-62572734D01*
X146379954Y-62759141D01*
X146540858Y-62920045D01*
X146587693Y-62952839D01*
X146727266Y-63050568D01*
X146933504Y-63146739D01*
X147153308Y-63205635D01*
X147315230Y-63219801D01*
X147379998Y-63225468D01*
X147380000Y-63225468D01*
X147380002Y-63225468D01*
X147436673Y-63220509D01*
X147606692Y-63205635D01*
X147826496Y-63146739D01*
X148032734Y-63050568D01*
X148219139Y-62920047D01*
X148380047Y-62759139D01*
X148510568Y-62572734D01*
X148537618Y-62514724D01*
X148583790Y-62462285D01*
X148650983Y-62443133D01*
X148717865Y-62463348D01*
X148762381Y-62514724D01*
X148763795Y-62517755D01*
X148789429Y-62572728D01*
X148789432Y-62572734D01*
X148919954Y-62759141D01*
X149080858Y-62920045D01*
X149127693Y-62952839D01*
X149267266Y-63050568D01*
X149473504Y-63146739D01*
X149693308Y-63205635D01*
X149855230Y-63219801D01*
X149919998Y-63225468D01*
X149920000Y-63225468D01*
X149920002Y-63225468D01*
X149976673Y-63220509D01*
X150146692Y-63205635D01*
X150366496Y-63146739D01*
X150572734Y-63050568D01*
X150759139Y-62920047D01*
X150920047Y-62759139D01*
X151050568Y-62572734D01*
X151077618Y-62514724D01*
X151123790Y-62462285D01*
X151190983Y-62443133D01*
X151257865Y-62463348D01*
X151302381Y-62514724D01*
X151303795Y-62517755D01*
X151329429Y-62572728D01*
X151329432Y-62572734D01*
X151459954Y-62759141D01*
X151620858Y-62920045D01*
X151667693Y-62952839D01*
X151807266Y-63050568D01*
X152013504Y-63146739D01*
X152233308Y-63205635D01*
X152395230Y-63219801D01*
X152459998Y-63225468D01*
X152460000Y-63225468D01*
X152460002Y-63225468D01*
X152516673Y-63220509D01*
X152686692Y-63205635D01*
X152906496Y-63146739D01*
X153112734Y-63050568D01*
X153299139Y-62920047D01*
X153460047Y-62759139D01*
X153590568Y-62572734D01*
X153686739Y-62366496D01*
X153689070Y-62357799D01*
X153695513Y-62333751D01*
X153731877Y-62274090D01*
X153794723Y-62243560D01*
X153864099Y-62251854D01*
X153917977Y-62296338D01*
X153933219Y-62327524D01*
X153943056Y-62357797D01*
X153943057Y-62357800D01*
X154016977Y-62502876D01*
X154024559Y-62517755D01*
X154130069Y-62662980D01*
X154257019Y-62789930D01*
X154392916Y-62888663D01*
X154402248Y-62895443D01*
X154558387Y-62975000D01*
X154562202Y-62976944D01*
X154607057Y-62991518D01*
X154732932Y-63032417D01*
X154910241Y-63060500D01*
X154910242Y-63060500D01*
X155089758Y-63060500D01*
X155089759Y-63060500D01*
X155267068Y-63032417D01*
X155437800Y-62976943D01*
X155597752Y-62895443D01*
X155679293Y-62836200D01*
X155742980Y-62789930D01*
X155742982Y-62789927D01*
X155742986Y-62789925D01*
X155869925Y-62662986D01*
X155869927Y-62662982D01*
X155869930Y-62662980D01*
X155935678Y-62572484D01*
X155975443Y-62517752D01*
X156056943Y-62357800D01*
X156112417Y-62187068D01*
X156140500Y-62009759D01*
X156140500Y-61830241D01*
X156112417Y-61652932D01*
X156056945Y-61482205D01*
X156056944Y-61482202D01*
X156052511Y-61473502D01*
X155975443Y-61322248D01*
X155935680Y-61267518D01*
X155869930Y-61177019D01*
X155742980Y-61050069D01*
X155597755Y-60944559D01*
X155597754Y-60944558D01*
X155597752Y-60944557D01*
X155546941Y-60918667D01*
X155496146Y-60870693D01*
X155479351Y-60802872D01*
X155501889Y-60736737D01*
X155556604Y-60693286D01*
X155579046Y-60686566D01*
X155605885Y-60681226D01*
X155644328Y-60673580D01*
X155737906Y-60634819D01*
X155771807Y-60620777D01*
X155771808Y-60620776D01*
X155771811Y-60620775D01*
X155886543Y-60544114D01*
X156059468Y-60371187D01*
X156120789Y-60337703D01*
X156169932Y-60336981D01*
X156188757Y-60340500D01*
X156188759Y-60340500D01*
X156411241Y-60340500D01*
X156411243Y-60340500D01*
X156629940Y-60299618D01*
X156837401Y-60219247D01*
X157026562Y-60102124D01*
X157190981Y-59952236D01*
X157240207Y-59887049D01*
X157276046Y-59839592D01*
X157332155Y-59797955D01*
X157401866Y-59793263D01*
X157463049Y-59827006D01*
X157473954Y-59839592D01*
X157559017Y-59952234D01*
X157559019Y-59952237D01*
X157723437Y-60102123D01*
X157723439Y-60102125D01*
X157912595Y-60219245D01*
X157912596Y-60219245D01*
X157912599Y-60219247D01*
X158120060Y-60299618D01*
X158338757Y-60340500D01*
X158338759Y-60340500D01*
X158561241Y-60340500D01*
X158561243Y-60340500D01*
X158779940Y-60299618D01*
X158987401Y-60219247D01*
X159088128Y-60156880D01*
X159946672Y-60156880D01*
X160062821Y-60228797D01*
X160062822Y-60228798D01*
X160270195Y-60309134D01*
X160488807Y-60350000D01*
X160711193Y-60350000D01*
X160929809Y-60309133D01*
X161137168Y-60228801D01*
X161137181Y-60228795D01*
X161253326Y-60156879D01*
X160600001Y-59503553D01*
X160600000Y-59503553D01*
X159946672Y-60156879D01*
X159946672Y-60156880D01*
X159088128Y-60156880D01*
X159176562Y-60102124D01*
X159340981Y-59952236D01*
X159422584Y-59844175D01*
X159478690Y-59802542D01*
X159548402Y-59797849D01*
X159557721Y-59802988D01*
X159591138Y-59805308D01*
X160200369Y-59196078D01*
X160250000Y-59196078D01*
X160273852Y-59285095D01*
X160319930Y-59364905D01*
X160385095Y-59430070D01*
X160464905Y-59476148D01*
X160553922Y-59500000D01*
X160646078Y-59500000D01*
X160735095Y-59476148D01*
X160814905Y-59430070D01*
X160880070Y-59364905D01*
X160926148Y-59285095D01*
X160950000Y-59196078D01*
X160950000Y-59150000D01*
X160953553Y-59150000D01*
X161608861Y-59805308D01*
X161624631Y-59784425D01*
X161624633Y-59784422D01*
X161723759Y-59585350D01*
X161784621Y-59371439D01*
X161805141Y-59150000D01*
X161805141Y-59149999D01*
X161784621Y-58928560D01*
X161723759Y-58714649D01*
X161624635Y-58515580D01*
X161624630Y-58515572D01*
X161608860Y-58494690D01*
X160953553Y-59149999D01*
X160953553Y-59150000D01*
X160950000Y-59150000D01*
X160950000Y-59103922D01*
X160926148Y-59014905D01*
X160880070Y-58935095D01*
X160814905Y-58869930D01*
X160735095Y-58823852D01*
X160646078Y-58800000D01*
X160553922Y-58800000D01*
X160464905Y-58823852D01*
X160385095Y-58869930D01*
X160319930Y-58935095D01*
X160273852Y-59014905D01*
X160250000Y-59103922D01*
X160250000Y-59196078D01*
X160200369Y-59196078D01*
X160246447Y-59150000D01*
X159591137Y-58494690D01*
X159540262Y-58498222D01*
X159472020Y-58483227D01*
X159432721Y-58449247D01*
X159340979Y-58327761D01*
X159176562Y-58177876D01*
X159176560Y-58177874D01*
X159120429Y-58143119D01*
X159946671Y-58143119D01*
X160600000Y-58796447D01*
X160600001Y-58796447D01*
X161253327Y-58143119D01*
X161137178Y-58071202D01*
X161137177Y-58071201D01*
X160929804Y-57990865D01*
X160711193Y-57950000D01*
X160488807Y-57950000D01*
X160270195Y-57990865D01*
X160062824Y-58071200D01*
X160062823Y-58071201D01*
X159946671Y-58143119D01*
X159120429Y-58143119D01*
X158987404Y-58060754D01*
X158987398Y-58060752D01*
X158779940Y-57980382D01*
X158561243Y-57939500D01*
X158338757Y-57939500D01*
X158120060Y-57980382D01*
X157988864Y-58031207D01*
X157912601Y-58060752D01*
X157912595Y-58060754D01*
X157723439Y-58177874D01*
X157723437Y-58177876D01*
X157559020Y-58327761D01*
X157473954Y-58440408D01*
X157417845Y-58482044D01*
X157348133Y-58486735D01*
X157286951Y-58452993D01*
X157276046Y-58440408D01*
X157190979Y-58327761D01*
X157026562Y-58177876D01*
X157026560Y-58177874D01*
X156837404Y-58060754D01*
X156837398Y-58060752D01*
X156629940Y-57980382D01*
X156411243Y-57939500D01*
X156188757Y-57939500D01*
X155970060Y-57980382D01*
X155838864Y-58031207D01*
X155762601Y-58060752D01*
X155762595Y-58060754D01*
X155573439Y-58177874D01*
X155573437Y-58177876D01*
X155409020Y-58327761D01*
X155274943Y-58505308D01*
X155274938Y-58505316D01*
X155175775Y-58704461D01*
X155175769Y-58704476D01*
X155114885Y-58918462D01*
X155114884Y-58918464D01*
X155094357Y-59139999D01*
X155094357Y-59140002D01*
X155096586Y-59164060D01*
X155083170Y-59232630D01*
X155034813Y-59283061D01*
X154973115Y-59299500D01*
X153038625Y-59299500D01*
X152971586Y-59279815D01*
X152925831Y-59227011D01*
X152915887Y-59157853D01*
X152926243Y-59123095D01*
X152933048Y-59108502D01*
X153023903Y-58913663D01*
X153085063Y-58685408D01*
X153105659Y-58450000D01*
X153085063Y-58214592D01*
X153023903Y-57986337D01*
X152924035Y-57772171D01*
X152923591Y-57771536D01*
X152788494Y-57578597D01*
X152621402Y-57411506D01*
X152621395Y-57411501D01*
X152620972Y-57411205D01*
X152576407Y-57380000D01*
X152427834Y-57275967D01*
X152427830Y-57275965D01*
X152427828Y-57275964D01*
X152213663Y-57176097D01*
X152213659Y-57176096D01*
X152213655Y-57176094D01*
X151985413Y-57114938D01*
X151985403Y-57114936D01*
X151750001Y-57094341D01*
X151749999Y-57094341D01*
X151514596Y-57114936D01*
X151514586Y-57114938D01*
X151286344Y-57176094D01*
X151286335Y-57176098D01*
X151072171Y-57275964D01*
X151072169Y-57275965D01*
X150878597Y-57411505D01*
X150711505Y-57578597D01*
X150581575Y-57764158D01*
X150526998Y-57807783D01*
X150457500Y-57814977D01*
X150395145Y-57783454D01*
X150378425Y-57764158D01*
X150248494Y-57578597D01*
X150081402Y-57411506D01*
X150081395Y-57411501D01*
X150080972Y-57411205D01*
X150036407Y-57380000D01*
X149887834Y-57275967D01*
X149887830Y-57275965D01*
X149887828Y-57275964D01*
X149673663Y-57176097D01*
X149673659Y-57176096D01*
X149673655Y-57176094D01*
X149445413Y-57114938D01*
X149445403Y-57114936D01*
X149210001Y-57094341D01*
X149209999Y-57094341D01*
X148974596Y-57114936D01*
X148974586Y-57114938D01*
X148746344Y-57176094D01*
X148746335Y-57176098D01*
X148532171Y-57275964D01*
X148532169Y-57275965D01*
X148338597Y-57411505D01*
X148171505Y-57578597D01*
X148041575Y-57764158D01*
X147986998Y-57807783D01*
X147917500Y-57814977D01*
X147855145Y-57783454D01*
X147838425Y-57764158D01*
X147708494Y-57578597D01*
X147541402Y-57411506D01*
X147541395Y-57411501D01*
X147540972Y-57411205D01*
X147496407Y-57380000D01*
X147347834Y-57275967D01*
X147347830Y-57275965D01*
X147347828Y-57275964D01*
X147133663Y-57176097D01*
X147133659Y-57176096D01*
X147133655Y-57176094D01*
X146905413Y-57114938D01*
X146905403Y-57114936D01*
X146670001Y-57094341D01*
X146669999Y-57094341D01*
X146434596Y-57114936D01*
X146434586Y-57114938D01*
X146206344Y-57176094D01*
X146206335Y-57176098D01*
X145992171Y-57275964D01*
X145992169Y-57275965D01*
X145798600Y-57411503D01*
X145676284Y-57533819D01*
X145614961Y-57567303D01*
X145545269Y-57562319D01*
X145489336Y-57520447D01*
X145472421Y-57489470D01*
X145423354Y-57357913D01*
X145423350Y-57357906D01*
X145337190Y-57242812D01*
X145337187Y-57242809D01*
X145222093Y-57156649D01*
X145222086Y-57156645D01*
X145087379Y-57106403D01*
X145087372Y-57106401D01*
X145027844Y-57100000D01*
X144380000Y-57100000D01*
X144380000Y-58016988D01*
X144322993Y-57984075D01*
X144195826Y-57950000D01*
X144064174Y-57950000D01*
X143937007Y-57984075D01*
X143880000Y-58016988D01*
X143880000Y-57100000D01*
X143232155Y-57100000D01*
X143172627Y-57106401D01*
X143172620Y-57106403D01*
X143037913Y-57156645D01*
X143037906Y-57156649D01*
X142922812Y-57242809D01*
X142922809Y-57242812D01*
X142836649Y-57357906D01*
X142836645Y-57357913D01*
X142786403Y-57492620D01*
X142786401Y-57492627D01*
X142780000Y-57552155D01*
X142780000Y-58200000D01*
X143696988Y-58200000D01*
X143664075Y-58257007D01*
X143630000Y-58384174D01*
X143630000Y-58515826D01*
X143664075Y-58642993D01*
X143696988Y-58700000D01*
X142780000Y-58700000D01*
X142780000Y-59175500D01*
X142760315Y-59242539D01*
X142707511Y-59288294D01*
X142656000Y-59299500D01*
X136531004Y-59299500D01*
X136395677Y-59326418D01*
X136395667Y-59326421D01*
X136268192Y-59379222D01*
X136153454Y-59455887D01*
X135010369Y-60598972D01*
X134949046Y-60632457D01*
X134911881Y-60634819D01*
X134906680Y-60634364D01*
X134887171Y-60632657D01*
X134680002Y-60614532D01*
X134679998Y-60614532D01*
X134453313Y-60634364D01*
X134453302Y-60634366D01*
X134233511Y-60693258D01*
X134233502Y-60693261D01*
X134027267Y-60789431D01*
X134027265Y-60789432D01*
X133840858Y-60919954D01*
X133679954Y-61080858D01*
X133549432Y-61267265D01*
X133549431Y-61267267D01*
X133522382Y-61325275D01*
X133476209Y-61377714D01*
X133409016Y-61396866D01*
X133342135Y-61376650D01*
X133297618Y-61325275D01*
X133270568Y-61267266D01*
X133140047Y-61080861D01*
X133140045Y-61080858D01*
X132979141Y-60919954D01*
X132792734Y-60789432D01*
X132792732Y-60789431D01*
X132586497Y-60693261D01*
X132586488Y-60693258D01*
X132366697Y-60634366D01*
X132366693Y-60634365D01*
X132366692Y-60634365D01*
X132366691Y-60634364D01*
X132366686Y-60634364D01*
X132140002Y-60614532D01*
X132139998Y-60614532D01*
X131913313Y-60634364D01*
X131913302Y-60634366D01*
X131693511Y-60693258D01*
X131693502Y-60693261D01*
X131487267Y-60789431D01*
X131487265Y-60789432D01*
X131300858Y-60919954D01*
X131139954Y-61080858D01*
X131009432Y-61267265D01*
X131009431Y-61267267D01*
X130982382Y-61325275D01*
X130936209Y-61377714D01*
X130869016Y-61396866D01*
X130802135Y-61376650D01*
X130757618Y-61325275D01*
X130730568Y-61267266D01*
X130600047Y-61080861D01*
X130600045Y-61080858D01*
X130439141Y-60919954D01*
X130252734Y-60789432D01*
X130252732Y-60789431D01*
X130046497Y-60693261D01*
X130046488Y-60693258D01*
X129826697Y-60634366D01*
X129826693Y-60634365D01*
X129826692Y-60634365D01*
X129826691Y-60634364D01*
X129826686Y-60634364D01*
X129600002Y-60614532D01*
X129599998Y-60614532D01*
X129373313Y-60634364D01*
X129373302Y-60634366D01*
X129153511Y-60693258D01*
X129153502Y-60693261D01*
X128947267Y-60789431D01*
X128947265Y-60789432D01*
X128760858Y-60919954D01*
X128599954Y-61080858D01*
X128469432Y-61267265D01*
X128469431Y-61267267D01*
X128442382Y-61325275D01*
X128396209Y-61377714D01*
X128329016Y-61396866D01*
X128262135Y-61376650D01*
X128217618Y-61325275D01*
X128190568Y-61267266D01*
X128060047Y-61080861D01*
X128060045Y-61080858D01*
X127899141Y-60919954D01*
X127712734Y-60789432D01*
X127712732Y-60789431D01*
X127506497Y-60693261D01*
X127506488Y-60693258D01*
X127286697Y-60634366D01*
X127286693Y-60634365D01*
X127286692Y-60634365D01*
X127286691Y-60634364D01*
X127286686Y-60634364D01*
X127060002Y-60614532D01*
X127059998Y-60614532D01*
X126833313Y-60634364D01*
X126833302Y-60634366D01*
X126613511Y-60693258D01*
X126613502Y-60693261D01*
X126407267Y-60789431D01*
X126407265Y-60789432D01*
X126220858Y-60919954D01*
X126059954Y-61080858D01*
X125929433Y-61267264D01*
X125929432Y-61267266D01*
X125903794Y-61322248D01*
X125902106Y-61325867D01*
X125855933Y-61378306D01*
X125788739Y-61397457D01*
X125721858Y-61377241D01*
X125677342Y-61325865D01*
X125650135Y-61267520D01*
X125650134Y-61267518D01*
X125519657Y-61081179D01*
X125358820Y-60920342D01*
X125172482Y-60789865D01*
X124966328Y-60693734D01*
X124770000Y-60641127D01*
X124770000Y-61486988D01*
X124712993Y-61454075D01*
X124585826Y-61420000D01*
X124454174Y-61420000D01*
X124327007Y-61454075D01*
X124270000Y-61486988D01*
X124270000Y-60641127D01*
X124073671Y-60693734D01*
X123867517Y-60789865D01*
X123681179Y-60920342D01*
X123520342Y-61081179D01*
X123389867Y-61267515D01*
X123362657Y-61325867D01*
X123316484Y-61378306D01*
X123249290Y-61397457D01*
X123182409Y-61377241D01*
X123137893Y-61325865D01*
X123136206Y-61322248D01*
X123110568Y-61267266D01*
X122980047Y-61080861D01*
X122980045Y-61080858D01*
X122819141Y-60919954D01*
X122632734Y-60789432D01*
X122632732Y-60789431D01*
X122426497Y-60693261D01*
X122426488Y-60693258D01*
X122206697Y-60634366D01*
X122206693Y-60634365D01*
X122206692Y-60634365D01*
X122206691Y-60634364D01*
X122206686Y-60634364D01*
X121980002Y-60614532D01*
X121979998Y-60614532D01*
X121753313Y-60634364D01*
X121753302Y-60634366D01*
X121533511Y-60693258D01*
X121533502Y-60693261D01*
X121327267Y-60789431D01*
X121327265Y-60789432D01*
X121140858Y-60919954D01*
X120979954Y-61080858D01*
X120849432Y-61267265D01*
X120849431Y-61267267D01*
X120822382Y-61325275D01*
X120776209Y-61377714D01*
X120709016Y-61396866D01*
X120642135Y-61376650D01*
X120597618Y-61325275D01*
X120570568Y-61267266D01*
X120440047Y-61080861D01*
X120440045Y-61080858D01*
X120279141Y-60919954D01*
X120092734Y-60789432D01*
X120092732Y-60789431D01*
X119886497Y-60693261D01*
X119886488Y-60693258D01*
X119666697Y-60634366D01*
X119666693Y-60634365D01*
X119666692Y-60634365D01*
X119666691Y-60634364D01*
X119666686Y-60634364D01*
X119440002Y-60614532D01*
X119439998Y-60614532D01*
X119213313Y-60634364D01*
X119213302Y-60634366D01*
X118993511Y-60693258D01*
X118993502Y-60693261D01*
X118787267Y-60789431D01*
X118787265Y-60789432D01*
X118600858Y-60919954D01*
X118439954Y-61080858D01*
X118309432Y-61267265D01*
X118309431Y-61267267D01*
X118282382Y-61325275D01*
X118236209Y-61377714D01*
X118169016Y-61396866D01*
X118102135Y-61376650D01*
X118057618Y-61325275D01*
X118030568Y-61267266D01*
X117900047Y-61080861D01*
X117900045Y-61080858D01*
X117739141Y-60919954D01*
X117552734Y-60789432D01*
X117552732Y-60789431D01*
X117346497Y-60693261D01*
X117346488Y-60693258D01*
X117126697Y-60634366D01*
X117126693Y-60634365D01*
X117126692Y-60634365D01*
X117126691Y-60634364D01*
X117126686Y-60634364D01*
X116900002Y-60614532D01*
X116899998Y-60614532D01*
X116673313Y-60634364D01*
X116673302Y-60634366D01*
X116453511Y-60693258D01*
X116453502Y-60693261D01*
X116247267Y-60789431D01*
X116247265Y-60789432D01*
X116060858Y-60919954D01*
X115899954Y-61080858D01*
X115769432Y-61267265D01*
X115769431Y-61267267D01*
X115673261Y-61473502D01*
X115673256Y-61473517D01*
X115664485Y-61506251D01*
X115628119Y-61565911D01*
X115565272Y-61596439D01*
X115495897Y-61588144D01*
X115442019Y-61543657D01*
X115426780Y-61512473D01*
X115416945Y-61482204D01*
X115412511Y-61473502D01*
X115335443Y-61322248D01*
X115295680Y-61267518D01*
X115229930Y-61177019D01*
X115102980Y-61050069D01*
X114957755Y-60944559D01*
X114957754Y-60944558D01*
X114957752Y-60944557D01*
X114877776Y-60903807D01*
X114797797Y-60863055D01*
X114627069Y-60807583D01*
X114463895Y-60781739D01*
X114449759Y-60779500D01*
X114270241Y-60779500D01*
X114256105Y-60781739D01*
X114092930Y-60807583D01*
X113922202Y-60863055D01*
X113762244Y-60944559D01*
X113617019Y-61050069D01*
X113490069Y-61177019D01*
X113384559Y-61322244D01*
X113303055Y-61482202D01*
X113247583Y-61652930D01*
X113234793Y-61733685D01*
X113219500Y-61830241D01*
X113219500Y-62009759D01*
X113219542Y-62010023D01*
X113247583Y-62187069D01*
X113303055Y-62357797D01*
X113334750Y-62420000D01*
X113376977Y-62502876D01*
X113384559Y-62517755D01*
X113490069Y-62662980D01*
X113617019Y-62789930D01*
X113752916Y-62888663D01*
X113762248Y-62895443D01*
X113918387Y-62975000D01*
X113922202Y-62976944D01*
X113967057Y-62991518D01*
X114092932Y-63032417D01*
X114270241Y-63060500D01*
X114270242Y-63060500D01*
X114449758Y-63060500D01*
X114449759Y-63060500D01*
X114627068Y-63032417D01*
X114797800Y-62976943D01*
X114957752Y-62895443D01*
X115039293Y-62836200D01*
X115102980Y-62789930D01*
X115102982Y-62789927D01*
X115102986Y-62789925D01*
X115229925Y-62662986D01*
X115229927Y-62662982D01*
X115229930Y-62662980D01*
X115295678Y-62572484D01*
X115335443Y-62517752D01*
X115416943Y-62357800D01*
X115426779Y-62327526D01*
X115466216Y-62269851D01*
X115530574Y-62242651D01*
X115599421Y-62254565D01*
X115650897Y-62301808D01*
X115664486Y-62333748D01*
X115673260Y-62366493D01*
X115673261Y-62366497D01*
X115769431Y-62572732D01*
X115769432Y-62572734D01*
X115899954Y-62759141D01*
X116060858Y-62920045D01*
X116107693Y-62952839D01*
X116247266Y-63050568D01*
X116453504Y-63146739D01*
X116673308Y-63205635D01*
X116835230Y-63219801D01*
X116899998Y-63225468D01*
X116900000Y-63225468D01*
X116900002Y-63225468D01*
X116956673Y-63220509D01*
X117126692Y-63205635D01*
X117346496Y-63146739D01*
X117552734Y-63050568D01*
X117739139Y-62920047D01*
X117900047Y-62759139D01*
X118030568Y-62572734D01*
X118057618Y-62514724D01*
X118103790Y-62462285D01*
X118170983Y-62443133D01*
X118237865Y-62463348D01*
X118282381Y-62514724D01*
X118283795Y-62517755D01*
X118309429Y-62572728D01*
X118309432Y-62572734D01*
X118439954Y-62759141D01*
X118600858Y-62920045D01*
X118647693Y-62952839D01*
X118787266Y-63050568D01*
X118993504Y-63146739D01*
X119213308Y-63205635D01*
X119375230Y-63219801D01*
X119439998Y-63225468D01*
X119440000Y-63225468D01*
X119440002Y-63225468D01*
X119496673Y-63220509D01*
X119666692Y-63205635D01*
X119886496Y-63146739D01*
X120092734Y-63050568D01*
X120279139Y-62920047D01*
X120440047Y-62759139D01*
X120570568Y-62572734D01*
X120597618Y-62514724D01*
X120643790Y-62462285D01*
X120710983Y-62443133D01*
X120777865Y-62463348D01*
X120822381Y-62514724D01*
X120823795Y-62517755D01*
X120849429Y-62572728D01*
X120849432Y-62572734D01*
X120979954Y-62759141D01*
X121140858Y-62920045D01*
X121187693Y-62952839D01*
X121327266Y-63050568D01*
X121533504Y-63146739D01*
X121753308Y-63205635D01*
X121915230Y-63219801D01*
X121979998Y-63225468D01*
X121980000Y-63225468D01*
X121980002Y-63225468D01*
X122036673Y-63220509D01*
X122206692Y-63205635D01*
X122426496Y-63146739D01*
X122632734Y-63050568D01*
X122819139Y-62920047D01*
X122980047Y-62759139D01*
X123110568Y-62572734D01*
X123137895Y-62514129D01*
X123184064Y-62461695D01*
X123251257Y-62442542D01*
X123318139Y-62462757D01*
X123362657Y-62514133D01*
X123389865Y-62572482D01*
X123520342Y-62758820D01*
X123681179Y-62919657D01*
X123867517Y-63050134D01*
X124073673Y-63146265D01*
X124073682Y-63146269D01*
X124269999Y-63198872D01*
X124270000Y-63198871D01*
X124270000Y-62353012D01*
X124327007Y-62385925D01*
X124454174Y-62420000D01*
X124585826Y-62420000D01*
X124712993Y-62385925D01*
X124770000Y-62353012D01*
X124770000Y-63198872D01*
X124966317Y-63146269D01*
X124966326Y-63146265D01*
X125172482Y-63050134D01*
X125358820Y-62919657D01*
X125519657Y-62758820D01*
X125650132Y-62572484D01*
X125677341Y-62514134D01*
X125723513Y-62461695D01*
X125790707Y-62442542D01*
X125857588Y-62462757D01*
X125902105Y-62514132D01*
X125903795Y-62517755D01*
X125929431Y-62572732D01*
X125929432Y-62572734D01*
X126059954Y-62759141D01*
X126220858Y-62920045D01*
X126267693Y-62952839D01*
X126407266Y-63050568D01*
X126613504Y-63146739D01*
X126833308Y-63205635D01*
X126995230Y-63219801D01*
X127059998Y-63225468D01*
X127060000Y-63225468D01*
X127060002Y-63225468D01*
X127116673Y-63220509D01*
X127286692Y-63205635D01*
X127506496Y-63146739D01*
X127712734Y-63050568D01*
X127899139Y-62920047D01*
X128060047Y-62759139D01*
X128190568Y-62572734D01*
X128217618Y-62514724D01*
X128263790Y-62462285D01*
X128330983Y-62443133D01*
X128397865Y-62463348D01*
X128442381Y-62514724D01*
X128443795Y-62517755D01*
X128469429Y-62572728D01*
X128469432Y-62572734D01*
X128599954Y-62759141D01*
X128760858Y-62920045D01*
X128807693Y-62952839D01*
X128947266Y-63050568D01*
X129153504Y-63146739D01*
X129373308Y-63205635D01*
X129535230Y-63219801D01*
X129599998Y-63225468D01*
X129600000Y-63225468D01*
X129600002Y-63225468D01*
X129656673Y-63220509D01*
X129826692Y-63205635D01*
X130046496Y-63146739D01*
X130252734Y-63050568D01*
X130439139Y-62920047D01*
X130600047Y-62759139D01*
X130730568Y-62572734D01*
X130757618Y-62514724D01*
X130803790Y-62462285D01*
X130870983Y-62443133D01*
X130937865Y-62463348D01*
X130982381Y-62514724D01*
X130983795Y-62517755D01*
X131009429Y-62572728D01*
X131009432Y-62572734D01*
X131139954Y-62759141D01*
X131300858Y-62920045D01*
X131347693Y-62952839D01*
X131487266Y-63050568D01*
X131693504Y-63146739D01*
X131913308Y-63205635D01*
X132075230Y-63219801D01*
X132139998Y-63225468D01*
X132140000Y-63225468D01*
X132140002Y-63225468D01*
X132196673Y-63220509D01*
X132366692Y-63205635D01*
X132586496Y-63146739D01*
X132792734Y-63050568D01*
X132979139Y-62920047D01*
X133140047Y-62759139D01*
X133270568Y-62572734D01*
X133297618Y-62514724D01*
X133343790Y-62462285D01*
X133410983Y-62443133D01*
X133477865Y-62463348D01*
X133522381Y-62514724D01*
X133523795Y-62517755D01*
X133549429Y-62572728D01*
X133549432Y-62572734D01*
X133679954Y-62759141D01*
X133840858Y-62920045D01*
X133887693Y-62952839D01*
X134027266Y-63050568D01*
X134233504Y-63146739D01*
X134453308Y-63205635D01*
X134615230Y-63219801D01*
X134679998Y-63225468D01*
X134680000Y-63225468D01*
X134680002Y-63225468D01*
X134736673Y-63220509D01*
X134906692Y-63205635D01*
X135126496Y-63146739D01*
X135332734Y-63050568D01*
X135519139Y-62920047D01*
X135680047Y-62759139D01*
X135810568Y-62572734D01*
X135837618Y-62514724D01*
X135883790Y-62462285D01*
X135950983Y-62443133D01*
X136017865Y-62463348D01*
X136062381Y-62514724D01*
X136063795Y-62517755D01*
X136089429Y-62572728D01*
X136089432Y-62572734D01*
X136219954Y-62759141D01*
X136380858Y-62920045D01*
X136427693Y-62952839D01*
X136567266Y-63050568D01*
X136773504Y-63146739D01*
X136993308Y-63205635D01*
X137155230Y-63219801D01*
X137219998Y-63225468D01*
X137220000Y-63225468D01*
X137220002Y-63225468D01*
X137276673Y-63220509D01*
X137446692Y-63205635D01*
X137666496Y-63146739D01*
X137872734Y-63050568D01*
X138059139Y-62920047D01*
X138220047Y-62759139D01*
X138350568Y-62572734D01*
X138377618Y-62514724D01*
X138423790Y-62462285D01*
X138490983Y-62443133D01*
X138557865Y-62463348D01*
X138602381Y-62514724D01*
X138603795Y-62517755D01*
X138629429Y-62572728D01*
X138629432Y-62572734D01*
X138759954Y-62759141D01*
X138920858Y-62920045D01*
X138967693Y-62952839D01*
X139107266Y-63050568D01*
X139313504Y-63146739D01*
X139533308Y-63205635D01*
X139695230Y-63219801D01*
X139759998Y-63225468D01*
X139760000Y-63225468D01*
X139760002Y-63225468D01*
X139816673Y-63220509D01*
X139986692Y-63205635D01*
X140206496Y-63146739D01*
X140412734Y-63050568D01*
X140599139Y-62920047D01*
X140760047Y-62759139D01*
X140890568Y-62572734D01*
X140917618Y-62514724D01*
X140963790Y-62462285D01*
X141030983Y-62443133D01*
X141097865Y-62463348D01*
X141142381Y-62514724D01*
X141143795Y-62517755D01*
X141169429Y-62572728D01*
X141169432Y-62572734D01*
X141299954Y-62759141D01*
X141460858Y-62920045D01*
X141507693Y-62952839D01*
X141647266Y-63050568D01*
X141853504Y-63146739D01*
X142073308Y-63205635D01*
X142235230Y-63219801D01*
X142299998Y-63225468D01*
X142300000Y-63225468D01*
X142300002Y-63225468D01*
X142356673Y-63220509D01*
X142526692Y-63205635D01*
X142746496Y-63146739D01*
X142952734Y-63050568D01*
X143139139Y-62920047D01*
X143300047Y-62759139D01*
X143430568Y-62572734D01*
X143457618Y-62514724D01*
X143503790Y-62462285D01*
X143570983Y-62443133D01*
X143637865Y-62463348D01*
X143682381Y-62514724D01*
X143683795Y-62517755D01*
X143709429Y-62572728D01*
X143709432Y-62572734D01*
X143839954Y-62759141D01*
X144000857Y-62920044D01*
X144000860Y-62920046D01*
X144000861Y-62920047D01*
X144086623Y-62980097D01*
X144130248Y-63034673D01*
X144139500Y-63081672D01*
X144139500Y-64168481D01*
X144119815Y-64235520D01*
X144103181Y-64256162D01*
X143496162Y-64863181D01*
X143434839Y-64896666D01*
X143408481Y-64899500D01*
X113391519Y-64899500D01*
X113324480Y-64879815D01*
X113303838Y-64863181D01*
X112936819Y-64496162D01*
X112903334Y-64434839D01*
X112900500Y-64408481D01*
X112900500Y-61415391D01*
X112920185Y-61348352D01*
X112932352Y-61332417D01*
X112932533Y-61332216D01*
X113027179Y-61168284D01*
X113085674Y-60988256D01*
X113105460Y-60800000D01*
X113085674Y-60611744D01*
X113027179Y-60431716D01*
X113027176Y-60431710D01*
X113024538Y-60425786D01*
X113027062Y-60424661D01*
X113013470Y-60368569D01*
X113036339Y-60302547D01*
X113091271Y-60259371D01*
X113137328Y-60250500D01*
X131118996Y-60250500D01*
X131210040Y-60232389D01*
X131254328Y-60223580D01*
X131318069Y-60197177D01*
X131381807Y-60170777D01*
X131381808Y-60170776D01*
X131381811Y-60170775D01*
X131496543Y-60094114D01*
X131984114Y-59606543D01*
X132018553Y-59555001D01*
X132038402Y-59525295D01*
X132051196Y-59506146D01*
X132060775Y-59491811D01*
X132103741Y-59388082D01*
X132113580Y-59364329D01*
X132126475Y-59299500D01*
X132135012Y-59256584D01*
X132140500Y-59228995D01*
X132140500Y-58141672D01*
X132160185Y-58074633D01*
X132193375Y-58040098D01*
X132279139Y-57980047D01*
X132440047Y-57819139D01*
X132570568Y-57632734D01*
X132597618Y-57574724D01*
X132643790Y-57522285D01*
X132710983Y-57503133D01*
X132777865Y-57523348D01*
X132822381Y-57574724D01*
X132824188Y-57578599D01*
X132849429Y-57632728D01*
X132849432Y-57632734D01*
X132979954Y-57819141D01*
X133140858Y-57980045D01*
X133148689Y-57985528D01*
X133327266Y-58110568D01*
X133533504Y-58206739D01*
X133533509Y-58206740D01*
X133533511Y-58206741D01*
X133562812Y-58214592D01*
X133753308Y-58265635D01*
X133915230Y-58279801D01*
X133979998Y-58285468D01*
X133980000Y-58285468D01*
X133980002Y-58285468D01*
X134036673Y-58280509D01*
X134206692Y-58265635D01*
X134426496Y-58206739D01*
X134632734Y-58110568D01*
X134819139Y-57980047D01*
X134980047Y-57819139D01*
X135110568Y-57632734D01*
X135137895Y-57574129D01*
X135184064Y-57521695D01*
X135251257Y-57502542D01*
X135318139Y-57522757D01*
X135362657Y-57574133D01*
X135389865Y-57632482D01*
X135520342Y-57818820D01*
X135681179Y-57979657D01*
X135867517Y-58110134D01*
X136073673Y-58206265D01*
X136073682Y-58206269D01*
X136269999Y-58258872D01*
X136270000Y-58258871D01*
X136270000Y-57295686D01*
X136274394Y-57300080D01*
X136365606Y-57352741D01*
X136467339Y-57380000D01*
X136572661Y-57380000D01*
X136674394Y-57352741D01*
X136765606Y-57300080D01*
X136770000Y-57295686D01*
X136770000Y-58258872D01*
X136966317Y-58206269D01*
X136966326Y-58206265D01*
X137172482Y-58110134D01*
X137358820Y-57979657D01*
X137519657Y-57818820D01*
X137650134Y-57632482D01*
X137746265Y-57426326D01*
X137746269Y-57426317D01*
X137798872Y-57230000D01*
X136835686Y-57230000D01*
X136840080Y-57225606D01*
X136892741Y-57134394D01*
X136920000Y-57032661D01*
X136920000Y-56927339D01*
X136892741Y-56825606D01*
X136840080Y-56734394D01*
X136835686Y-56730000D01*
X137798872Y-56730000D01*
X137798872Y-56729999D01*
X137746269Y-56533682D01*
X137746265Y-56533673D01*
X137650134Y-56327517D01*
X137542807Y-56174240D01*
X143589311Y-56174240D01*
X143677585Y-56228897D01*
X143867678Y-56302539D01*
X144068072Y-56340000D01*
X144271928Y-56340000D01*
X144472322Y-56302539D01*
X144662412Y-56228899D01*
X144662416Y-56228897D01*
X144750686Y-56174241D01*
X144750686Y-56174240D01*
X144170001Y-55593553D01*
X144170000Y-55593553D01*
X143589311Y-56174240D01*
X137542807Y-56174240D01*
X137519657Y-56141179D01*
X137358820Y-55980342D01*
X137172482Y-55849865D01*
X136966328Y-55753734D01*
X136770000Y-55701127D01*
X136770000Y-56664314D01*
X136765606Y-56659920D01*
X136674394Y-56607259D01*
X136572661Y-56580000D01*
X136467339Y-56580000D01*
X136365606Y-56607259D01*
X136274394Y-56659920D01*
X136270000Y-56664314D01*
X136270000Y-55701127D01*
X136073671Y-55753734D01*
X135867517Y-55849865D01*
X135681179Y-55980342D01*
X135520342Y-56141179D01*
X135389867Y-56327515D01*
X135362657Y-56385867D01*
X135316484Y-56438306D01*
X135249290Y-56457457D01*
X135182409Y-56437241D01*
X135137893Y-56385865D01*
X135137709Y-56385471D01*
X135110568Y-56327266D01*
X134980047Y-56140861D01*
X134980045Y-56140858D01*
X134819141Y-55979954D01*
X134632734Y-55849432D01*
X134632732Y-55849431D01*
X134426497Y-55753261D01*
X134426488Y-55753258D01*
X134206697Y-55694366D01*
X134206693Y-55694365D01*
X134206692Y-55694365D01*
X134206691Y-55694364D01*
X134206686Y-55694364D01*
X133980002Y-55674532D01*
X133979998Y-55674532D01*
X133753313Y-55694364D01*
X133753302Y-55694366D01*
X133533511Y-55753258D01*
X133533502Y-55753261D01*
X133327267Y-55849431D01*
X133327265Y-55849432D01*
X133140858Y-55979954D01*
X132979954Y-56140858D01*
X132849432Y-56327265D01*
X132849431Y-56327267D01*
X132822382Y-56385275D01*
X132776209Y-56437714D01*
X132709016Y-56456866D01*
X132642135Y-56436650D01*
X132597618Y-56385275D01*
X132576506Y-56340000D01*
X132570568Y-56327266D01*
X132440047Y-56140861D01*
X132440045Y-56140858D01*
X132279141Y-55979954D01*
X132092734Y-55849432D01*
X132092732Y-55849431D01*
X131886497Y-55753261D01*
X131886488Y-55753258D01*
X131666697Y-55694366D01*
X131666693Y-55694365D01*
X131666692Y-55694365D01*
X131666691Y-55694364D01*
X131666686Y-55694364D01*
X131440002Y-55674532D01*
X131439998Y-55674532D01*
X131213313Y-55694364D01*
X131213302Y-55694366D01*
X130993511Y-55753258D01*
X130993502Y-55753261D01*
X130787267Y-55849431D01*
X130787265Y-55849432D01*
X130600858Y-55979954D01*
X130439954Y-56140858D01*
X130309432Y-56327265D01*
X130309431Y-56327267D01*
X130282382Y-56385275D01*
X130236209Y-56437714D01*
X130169016Y-56456866D01*
X130102135Y-56436650D01*
X130057618Y-56385275D01*
X130036506Y-56340000D01*
X130030568Y-56327266D01*
X129900047Y-56140861D01*
X129900045Y-56140858D01*
X129739141Y-55979954D01*
X129552734Y-55849432D01*
X129552732Y-55849431D01*
X129346497Y-55753261D01*
X129346488Y-55753258D01*
X129126697Y-55694366D01*
X129126693Y-55694365D01*
X129126692Y-55694365D01*
X129126691Y-55694364D01*
X129126686Y-55694364D01*
X128900002Y-55674532D01*
X128899998Y-55674532D01*
X128673313Y-55694364D01*
X128673302Y-55694366D01*
X128453511Y-55753258D01*
X128453502Y-55753261D01*
X128247267Y-55849431D01*
X128247265Y-55849432D01*
X128060858Y-55979954D01*
X127899954Y-56140858D01*
X127769432Y-56327265D01*
X127769431Y-56327267D01*
X127742382Y-56385275D01*
X127696209Y-56437714D01*
X127629016Y-56456866D01*
X127562135Y-56436650D01*
X127517618Y-56385275D01*
X127496506Y-56340000D01*
X127490568Y-56327266D01*
X127360047Y-56140861D01*
X127360045Y-56140858D01*
X127199141Y-55979954D01*
X127012734Y-55849432D01*
X127012732Y-55849431D01*
X126806497Y-55753261D01*
X126806488Y-55753258D01*
X126586697Y-55694366D01*
X126586693Y-55694365D01*
X126586692Y-55694365D01*
X126586691Y-55694364D01*
X126586686Y-55694364D01*
X126360002Y-55674532D01*
X126359998Y-55674532D01*
X126133313Y-55694364D01*
X126133302Y-55694366D01*
X125913511Y-55753258D01*
X125913502Y-55753261D01*
X125707267Y-55849431D01*
X125707265Y-55849432D01*
X125520858Y-55979954D01*
X125359954Y-56140858D01*
X125229432Y-56327265D01*
X125229431Y-56327267D01*
X125202382Y-56385275D01*
X125156209Y-56437714D01*
X125089016Y-56456866D01*
X125022135Y-56436650D01*
X124977618Y-56385275D01*
X124956506Y-56340000D01*
X124950568Y-56327266D01*
X124820047Y-56140861D01*
X124820045Y-56140858D01*
X124659141Y-55979954D01*
X124472734Y-55849432D01*
X124472732Y-55849431D01*
X124266497Y-55753261D01*
X124266488Y-55753258D01*
X124046697Y-55694366D01*
X124046693Y-55694365D01*
X124046692Y-55694365D01*
X124046691Y-55694364D01*
X124046686Y-55694364D01*
X123820002Y-55674532D01*
X123819998Y-55674532D01*
X123593313Y-55694364D01*
X123593302Y-55694366D01*
X123373511Y-55753258D01*
X123373502Y-55753261D01*
X123167267Y-55849431D01*
X123167265Y-55849432D01*
X122980858Y-55979954D01*
X122819954Y-56140858D01*
X122689432Y-56327265D01*
X122689431Y-56327267D01*
X122662382Y-56385275D01*
X122616209Y-56437714D01*
X122549016Y-56456866D01*
X122482135Y-56436650D01*
X122437618Y-56385275D01*
X122416506Y-56340000D01*
X122410568Y-56327266D01*
X122280047Y-56140861D01*
X122280045Y-56140858D01*
X122119141Y-55979954D01*
X121932734Y-55849432D01*
X121932732Y-55849431D01*
X121726497Y-55753261D01*
X121726488Y-55753258D01*
X121506697Y-55694366D01*
X121506693Y-55694365D01*
X121506692Y-55694365D01*
X121506691Y-55694364D01*
X121506686Y-55694364D01*
X121280002Y-55674532D01*
X121279998Y-55674532D01*
X121053313Y-55694364D01*
X121053302Y-55694366D01*
X120833511Y-55753258D01*
X120833502Y-55753261D01*
X120627267Y-55849431D01*
X120627265Y-55849432D01*
X120440858Y-55979954D01*
X120279954Y-56140858D01*
X120149432Y-56327265D01*
X120149431Y-56327267D01*
X120122382Y-56385275D01*
X120076209Y-56437714D01*
X120009016Y-56456866D01*
X119942135Y-56436650D01*
X119897618Y-56385275D01*
X119876506Y-56340000D01*
X119870568Y-56327266D01*
X119740047Y-56140861D01*
X119740045Y-56140858D01*
X119579141Y-55979954D01*
X119392734Y-55849432D01*
X119392732Y-55849431D01*
X119186497Y-55753261D01*
X119186488Y-55753258D01*
X118966697Y-55694366D01*
X118966693Y-55694365D01*
X118966692Y-55694365D01*
X118966691Y-55694364D01*
X118966686Y-55694364D01*
X118740002Y-55674532D01*
X118739998Y-55674532D01*
X118513313Y-55694364D01*
X118513302Y-55694366D01*
X118293511Y-55753258D01*
X118293502Y-55753261D01*
X118087267Y-55849431D01*
X118087265Y-55849432D01*
X117900858Y-55979954D01*
X117739954Y-56140858D01*
X117609432Y-56327265D01*
X117609431Y-56327267D01*
X117513261Y-56533502D01*
X117513258Y-56533511D01*
X117454366Y-56753302D01*
X117454364Y-56753313D01*
X117434532Y-56979998D01*
X117434532Y-56980001D01*
X117454364Y-57206686D01*
X117454366Y-57206697D01*
X117513258Y-57426488D01*
X117513261Y-57426497D01*
X117609431Y-57632732D01*
X117609432Y-57632734D01*
X117739954Y-57819141D01*
X117900855Y-57980042D01*
X117900858Y-57980044D01*
X117900861Y-57980047D01*
X117963528Y-58023926D01*
X118007151Y-58078501D01*
X118014345Y-58147999D01*
X117982823Y-58210354D01*
X117922593Y-58245769D01*
X117892403Y-58249500D01*
X114903054Y-58249500D01*
X114836015Y-58229815D01*
X114790260Y-58177011D01*
X114780316Y-58107853D01*
X114792054Y-58070228D01*
X114834224Y-57985538D01*
X114834223Y-57985538D01*
X114834229Y-57985528D01*
X114895115Y-57771536D01*
X114915643Y-57550000D01*
X114911245Y-57502542D01*
X114895115Y-57328464D01*
X114895114Y-57328462D01*
X114880177Y-57275965D01*
X114834229Y-57114472D01*
X114834224Y-57114461D01*
X114735061Y-56915316D01*
X114735056Y-56915308D01*
X114600979Y-56737761D01*
X114436562Y-56587876D01*
X114436560Y-56587874D01*
X114247404Y-56470754D01*
X114247398Y-56470752D01*
X114039940Y-56390382D01*
X113821243Y-56349500D01*
X113598757Y-56349500D01*
X113380060Y-56390382D01*
X113279743Y-56429245D01*
X113172601Y-56470752D01*
X113172595Y-56470754D01*
X112983439Y-56587874D01*
X112983437Y-56587876D01*
X112819020Y-56737761D01*
X112684943Y-56915308D01*
X112684938Y-56915316D01*
X112585775Y-57114461D01*
X112585769Y-57114476D01*
X112524885Y-57328462D01*
X112524884Y-57328464D01*
X112504357Y-57549999D01*
X112504357Y-57550000D01*
X112524884Y-57771535D01*
X112524885Y-57771537D01*
X112585769Y-57985523D01*
X112585775Y-57985538D01*
X112627946Y-58070228D01*
X112640207Y-58139014D01*
X112613334Y-58203509D01*
X112555858Y-58243236D01*
X112516946Y-58249500D01*
X107283054Y-58249500D01*
X107216015Y-58229815D01*
X107170260Y-58177011D01*
X107160316Y-58107853D01*
X107172054Y-58070228D01*
X107214224Y-57985538D01*
X107214223Y-57985538D01*
X107214229Y-57985528D01*
X107275115Y-57771536D01*
X107295643Y-57550000D01*
X107291245Y-57502542D01*
X107275115Y-57328464D01*
X107275114Y-57328462D01*
X107260177Y-57275965D01*
X107214229Y-57114472D01*
X107214224Y-57114461D01*
X107115061Y-56915316D01*
X107115056Y-56915308D01*
X106980979Y-56737761D01*
X106842713Y-56611715D01*
X106806431Y-56552004D01*
X106808192Y-56482156D01*
X106847436Y-56424349D01*
X106860974Y-56414651D01*
X106862871Y-56413477D01*
X107026562Y-56312124D01*
X107190981Y-56162236D01*
X107224780Y-56117478D01*
X107238151Y-56099773D01*
X107294260Y-56058137D01*
X107337105Y-56050500D01*
X109768996Y-56050500D01*
X109860040Y-56032389D01*
X109904328Y-56023580D01*
X109968069Y-55997177D01*
X110031807Y-55970777D01*
X110031808Y-55970776D01*
X110031811Y-55970775D01*
X110146543Y-55894114D01*
X110380655Y-55660002D01*
X114595034Y-55660002D01*
X114614858Y-55886599D01*
X114614860Y-55886610D01*
X114673730Y-56106317D01*
X114673735Y-56106331D01*
X114769863Y-56312478D01*
X114820974Y-56385472D01*
X115500000Y-55706446D01*
X115500000Y-55712661D01*
X115527259Y-55814394D01*
X115579920Y-55905606D01*
X115654394Y-55980080D01*
X115745606Y-56032741D01*
X115847339Y-56060000D01*
X115853553Y-56060000D01*
X115174526Y-56739025D01*
X115247513Y-56790132D01*
X115247521Y-56790136D01*
X115453668Y-56886264D01*
X115453682Y-56886269D01*
X115673389Y-56945139D01*
X115673400Y-56945141D01*
X115899998Y-56964966D01*
X115900002Y-56964966D01*
X116126599Y-56945141D01*
X116126610Y-56945139D01*
X116346317Y-56886269D01*
X116346331Y-56886264D01*
X116552478Y-56790136D01*
X116625471Y-56739024D01*
X115946447Y-56060000D01*
X115952661Y-56060000D01*
X116054394Y-56032741D01*
X116145606Y-55980080D01*
X116220080Y-55905606D01*
X116272741Y-55814394D01*
X116300000Y-55712661D01*
X116300000Y-55706447D01*
X116979024Y-56385471D01*
X117030136Y-56312478D01*
X117126264Y-56106331D01*
X117126269Y-56106317D01*
X117185139Y-55886610D01*
X117185141Y-55886599D01*
X117204966Y-55660002D01*
X117204966Y-55659997D01*
X117185141Y-55433400D01*
X117185139Y-55433389D01*
X117126269Y-55213682D01*
X117126264Y-55213668D01*
X117030136Y-55007521D01*
X117030132Y-55007513D01*
X116979025Y-54934526D01*
X116300000Y-55613551D01*
X116300000Y-55607339D01*
X116272741Y-55505606D01*
X116220080Y-55414394D01*
X116145606Y-55339920D01*
X116054394Y-55287259D01*
X115952661Y-55260000D01*
X115946448Y-55260000D01*
X116625472Y-54580974D01*
X116552478Y-54529863D01*
X116346331Y-54433735D01*
X116346317Y-54433730D01*
X116126610Y-54374860D01*
X116126599Y-54374858D01*
X115900002Y-54355034D01*
X115899998Y-54355034D01*
X115673400Y-54374858D01*
X115673389Y-54374860D01*
X115453682Y-54433730D01*
X115453673Y-54433734D01*
X115247516Y-54529866D01*
X115247512Y-54529868D01*
X115174526Y-54580973D01*
X115174526Y-54580974D01*
X115853553Y-55260000D01*
X115847339Y-55260000D01*
X115745606Y-55287259D01*
X115654394Y-55339920D01*
X115579920Y-55414394D01*
X115527259Y-55505606D01*
X115500000Y-55607339D01*
X115500000Y-55613552D01*
X114820974Y-54934526D01*
X114820973Y-54934526D01*
X114769868Y-55007512D01*
X114769866Y-55007516D01*
X114673734Y-55213673D01*
X114673730Y-55213682D01*
X114614860Y-55433389D01*
X114614858Y-55433400D01*
X114595034Y-55659997D01*
X114595034Y-55660002D01*
X110380655Y-55660002D01*
X112374114Y-53666543D01*
X112450775Y-53551811D01*
X112455875Y-53539500D01*
X112503578Y-53424332D01*
X112503580Y-53424328D01*
X112517063Y-53356545D01*
X112530500Y-53288996D01*
X112530500Y-52350634D01*
X112550185Y-52283595D01*
X112583377Y-52249059D01*
X112592980Y-52242335D01*
X112636877Y-52211598D01*
X112791598Y-52056877D01*
X112917102Y-51877639D01*
X113009575Y-51679330D01*
X113066207Y-51467977D01*
X113082805Y-51278254D01*
X113085277Y-51250002D01*
X113085277Y-51249997D01*
X113077967Y-51166447D01*
X113066207Y-51032023D01*
X113031548Y-50902675D01*
X113009577Y-50820677D01*
X113009576Y-50820676D01*
X113009575Y-50820670D01*
X112934653Y-50660001D01*
X114594532Y-50660001D01*
X114614364Y-50886686D01*
X114614366Y-50886697D01*
X114673258Y-51106488D01*
X114673261Y-51106497D01*
X114769431Y-51312732D01*
X114769432Y-51312734D01*
X114899954Y-51499141D01*
X115060858Y-51660045D01*
X115060861Y-51660047D01*
X115247266Y-51790568D01*
X115453504Y-51886739D01*
X115673308Y-51945635D01*
X115835230Y-51959801D01*
X115899998Y-51965468D01*
X115900000Y-51965468D01*
X115900002Y-51965468D01*
X115956673Y-51960509D01*
X116126692Y-51945635D01*
X116346496Y-51886739D01*
X116552734Y-51790568D01*
X116739139Y-51660047D01*
X116900047Y-51499139D01*
X117030568Y-51312734D01*
X117126739Y-51106496D01*
X117185635Y-50886692D01*
X117205468Y-50660000D01*
X117185635Y-50433308D01*
X117126739Y-50213504D01*
X117030568Y-50007266D01*
X116900047Y-49820861D01*
X116900045Y-49820858D01*
X116739141Y-49659954D01*
X116552734Y-49529432D01*
X116552732Y-49529431D01*
X116346497Y-49433261D01*
X116346488Y-49433258D01*
X116126697Y-49374366D01*
X116126693Y-49374365D01*
X116126692Y-49374365D01*
X116126691Y-49374364D01*
X116126686Y-49374364D01*
X115962514Y-49360001D01*
X117434532Y-49360001D01*
X117454364Y-49586686D01*
X117454366Y-49586697D01*
X117513258Y-49806488D01*
X117513261Y-49806497D01*
X117609431Y-50012732D01*
X117609432Y-50012734D01*
X117739954Y-50199141D01*
X117900858Y-50360045D01*
X117900861Y-50360047D01*
X118087266Y-50490568D01*
X118293504Y-50586739D01*
X118513308Y-50645635D01*
X118675230Y-50659801D01*
X118739998Y-50665468D01*
X118740000Y-50665468D01*
X118740002Y-50665468D01*
X118802522Y-50659998D01*
X118966692Y-50645635D01*
X119186496Y-50586739D01*
X119392734Y-50490568D01*
X119579139Y-50360047D01*
X119740047Y-50199139D01*
X119870568Y-50012734D01*
X119897618Y-49954724D01*
X119943790Y-49902285D01*
X120010983Y-49883133D01*
X120077865Y-49903348D01*
X120122382Y-49954725D01*
X120149429Y-50012728D01*
X120149432Y-50012734D01*
X120279954Y-50199141D01*
X120440858Y-50360045D01*
X120440861Y-50360047D01*
X120627266Y-50490568D01*
X120833504Y-50586739D01*
X121053308Y-50645635D01*
X121215230Y-50659801D01*
X121279998Y-50665468D01*
X121280000Y-50665468D01*
X121280002Y-50665468D01*
X121342522Y-50659998D01*
X121506692Y-50645635D01*
X121726496Y-50586739D01*
X121932734Y-50490568D01*
X122119139Y-50360047D01*
X122280047Y-50199139D01*
X122410568Y-50012734D01*
X122437618Y-49954724D01*
X122483790Y-49902285D01*
X122550983Y-49883133D01*
X122617865Y-49903348D01*
X122662382Y-49954725D01*
X122689429Y-50012728D01*
X122689432Y-50012734D01*
X122819954Y-50199141D01*
X122980857Y-50360044D01*
X122980860Y-50360046D01*
X122980861Y-50360047D01*
X123066623Y-50420097D01*
X123110248Y-50474673D01*
X123119500Y-50521672D01*
X123119500Y-53101006D01*
X123119500Y-53238994D01*
X123119500Y-53238996D01*
X123119499Y-53238996D01*
X123146418Y-53374322D01*
X123146421Y-53374332D01*
X123199222Y-53501807D01*
X123275887Y-53616545D01*
X124443454Y-54784112D01*
X124558192Y-54860777D01*
X124685667Y-54913578D01*
X124685672Y-54913580D01*
X124685676Y-54913580D01*
X124685677Y-54913581D01*
X124821004Y-54940500D01*
X124821007Y-54940500D01*
X124958994Y-54940500D01*
X142957018Y-54940500D01*
X143024057Y-54960185D01*
X143069812Y-55012989D01*
X143080489Y-55075941D01*
X143065287Y-55239999D01*
X143065287Y-55240000D01*
X143084096Y-55442989D01*
X143084097Y-55442992D01*
X143139883Y-55639063D01*
X143139886Y-55639069D01*
X143230751Y-55821551D01*
X143232533Y-55823911D01*
X143875145Y-55181300D01*
X143870000Y-55200504D01*
X143870000Y-55279496D01*
X143890444Y-55355796D01*
X143929940Y-55424205D01*
X143985795Y-55480060D01*
X144054204Y-55519556D01*
X144130504Y-55540000D01*
X144209496Y-55540000D01*
X144285796Y-55519556D01*
X144354205Y-55480060D01*
X144410060Y-55424205D01*
X144449556Y-55355796D01*
X144470000Y-55279496D01*
X144470000Y-55200504D01*
X144464854Y-55181301D01*
X145107465Y-55823912D01*
X145109247Y-55821553D01*
X145109248Y-55821551D01*
X145200113Y-55639069D01*
X145200116Y-55639063D01*
X145255902Y-55442992D01*
X145255903Y-55442989D01*
X145274713Y-55240000D01*
X145274713Y-55239999D01*
X145259511Y-55075941D01*
X145272926Y-55007371D01*
X145321283Y-54956940D01*
X145382982Y-54940500D01*
X150886516Y-54940500D01*
X150953555Y-54960185D01*
X150999310Y-55012989D01*
X151009987Y-55075941D01*
X150994785Y-55239999D01*
X150994785Y-55240000D01*
X151013602Y-55443082D01*
X151069417Y-55639247D01*
X151069422Y-55639260D01*
X151160327Y-55821821D01*
X151283237Y-55984581D01*
X151433958Y-56121980D01*
X151433960Y-56121982D01*
X151498973Y-56162236D01*
X151607363Y-56229348D01*
X151797544Y-56303024D01*
X151998024Y-56340500D01*
X151998026Y-56340500D01*
X152201974Y-56340500D01*
X152201976Y-56340500D01*
X152402456Y-56303024D01*
X152592637Y-56229348D01*
X152602733Y-56223097D01*
X167499500Y-56223097D01*
X167536446Y-56456368D01*
X167609433Y-56680996D01*
X167683116Y-56825606D01*
X167716657Y-56891433D01*
X167855483Y-57082510D01*
X168022490Y-57249517D01*
X168213567Y-57388343D01*
X168312991Y-57439002D01*
X168424003Y-57495566D01*
X168424005Y-57495566D01*
X168424008Y-57495568D01*
X168541732Y-57533819D01*
X168648631Y-57568553D01*
X168881903Y-57605500D01*
X168881908Y-57605500D01*
X170618097Y-57605500D01*
X170851368Y-57568553D01*
X170896080Y-57554025D01*
X171075992Y-57495568D01*
X171286433Y-57388343D01*
X171477510Y-57249517D01*
X171644517Y-57082510D01*
X171783343Y-56891433D01*
X171890568Y-56680992D01*
X171963553Y-56456368D01*
X171966414Y-56438306D01*
X172000500Y-56223097D01*
X172000500Y-55986902D01*
X171963553Y-55753631D01*
X171911540Y-55593553D01*
X171890568Y-55529008D01*
X171890566Y-55529005D01*
X171890566Y-55529003D01*
X171802537Y-55356237D01*
X171783343Y-55318567D01*
X171644517Y-55127490D01*
X171477510Y-54960483D01*
X171286433Y-54821657D01*
X171212747Y-54784112D01*
X171075996Y-54714433D01*
X170851368Y-54641446D01*
X170618097Y-54604500D01*
X170618092Y-54604500D01*
X168881908Y-54604500D01*
X168881903Y-54604500D01*
X168648631Y-54641446D01*
X168424003Y-54714433D01*
X168213566Y-54821657D01*
X168159723Y-54860777D01*
X168022490Y-54960483D01*
X168022488Y-54960485D01*
X168022487Y-54960485D01*
X167855485Y-55127487D01*
X167855485Y-55127488D01*
X167855483Y-55127490D01*
X167852562Y-55131511D01*
X167716657Y-55318566D01*
X167609433Y-55529003D01*
X167536446Y-55753631D01*
X167499500Y-55986902D01*
X167499500Y-56223097D01*
X152602733Y-56223097D01*
X152766041Y-56121981D01*
X152916764Y-55984579D01*
X152916765Y-55984578D01*
X152920063Y-55980961D01*
X152979774Y-55944680D01*
X153011699Y-55940500D01*
X153227524Y-55940500D01*
X153318568Y-55922389D01*
X153362856Y-55913580D01*
X153427994Y-55886599D01*
X153490335Y-55860777D01*
X153490336Y-55860776D01*
X153490339Y-55860775D01*
X153605071Y-55784114D01*
X154844114Y-54545071D01*
X154920775Y-54430339D01*
X154973580Y-54302857D01*
X154983964Y-54250652D01*
X155000500Y-54167521D01*
X155000500Y-52526880D01*
X155646672Y-52526880D01*
X155762821Y-52598797D01*
X155762822Y-52598798D01*
X155970195Y-52679134D01*
X156188807Y-52720000D01*
X156411193Y-52720000D01*
X156629809Y-52679133D01*
X156837168Y-52598801D01*
X156837181Y-52598795D01*
X156953324Y-52526880D01*
X157796672Y-52526880D01*
X157912821Y-52598797D01*
X157912822Y-52598798D01*
X158120195Y-52679134D01*
X158338807Y-52720000D01*
X158561193Y-52720000D01*
X158779809Y-52679133D01*
X158987168Y-52598801D01*
X158987181Y-52598795D01*
X159103326Y-52526879D01*
X158450001Y-51873553D01*
X158450000Y-51873553D01*
X157796672Y-52526879D01*
X157796672Y-52526880D01*
X156953324Y-52526880D01*
X156953326Y-52526879D01*
X156300001Y-51873553D01*
X156300000Y-51873553D01*
X155646672Y-52526879D01*
X155646672Y-52526880D01*
X155000500Y-52526880D01*
X155000500Y-52129631D01*
X155020185Y-52062592D01*
X155072989Y-52016837D01*
X155142147Y-52006893D01*
X155205703Y-52035918D01*
X155235500Y-52074360D01*
X155275368Y-52154425D01*
X155275369Y-52154427D01*
X155291137Y-52175308D01*
X155291138Y-52175308D01*
X155900369Y-51566078D01*
X155950000Y-51566078D01*
X155973852Y-51655095D01*
X156019930Y-51734905D01*
X156085095Y-51800070D01*
X156164905Y-51846148D01*
X156253922Y-51870000D01*
X156346078Y-51870000D01*
X156435095Y-51846148D01*
X156514905Y-51800070D01*
X156580070Y-51734905D01*
X156626148Y-51655095D01*
X156650000Y-51566078D01*
X156650000Y-51520000D01*
X156653553Y-51520000D01*
X157308861Y-52175308D01*
X157365196Y-52171399D01*
X157365437Y-52174885D01*
X157384650Y-52173584D01*
X157384802Y-52171398D01*
X157400669Y-52172499D01*
X157401813Y-52172422D01*
X157402138Y-52172601D01*
X157441138Y-52175308D01*
X158050369Y-51566078D01*
X158100000Y-51566078D01*
X158123852Y-51655095D01*
X158169930Y-51734905D01*
X158235095Y-51800070D01*
X158314905Y-51846148D01*
X158403922Y-51870000D01*
X158496078Y-51870000D01*
X158585095Y-51846148D01*
X158664905Y-51800070D01*
X158730070Y-51734905D01*
X158776148Y-51655095D01*
X158800000Y-51566078D01*
X158800000Y-51520000D01*
X158803553Y-51520000D01*
X159458861Y-52175308D01*
X159509740Y-52171777D01*
X159577981Y-52186772D01*
X159617278Y-52220751D01*
X159638655Y-52249059D01*
X159709020Y-52342238D01*
X159873437Y-52492123D01*
X159873439Y-52492125D01*
X160062595Y-52609245D01*
X160062596Y-52609245D01*
X160062599Y-52609247D01*
X160270060Y-52689618D01*
X160488757Y-52730500D01*
X160488759Y-52730500D01*
X160711241Y-52730500D01*
X160711243Y-52730500D01*
X160929940Y-52689618D01*
X161137401Y-52609247D01*
X161326562Y-52492124D01*
X161490981Y-52342236D01*
X161538151Y-52279773D01*
X161594260Y-52238137D01*
X161637105Y-52230500D01*
X163278996Y-52230500D01*
X163374029Y-52211596D01*
X163414328Y-52203580D01*
X163489118Y-52172601D01*
X163541807Y-52150777D01*
X163541808Y-52150776D01*
X163541811Y-52150775D01*
X163656543Y-52074114D01*
X163787821Y-51942835D01*
X163849141Y-51909352D01*
X163918833Y-51914336D01*
X163974767Y-51956207D01*
X163999184Y-52021671D01*
X163999500Y-52030518D01*
X163999500Y-52827870D01*
X163999501Y-52827876D01*
X164005908Y-52887483D01*
X164056202Y-53022328D01*
X164056206Y-53022335D01*
X164142452Y-53137544D01*
X164142455Y-53137547D01*
X164257664Y-53223793D01*
X164257671Y-53223797D01*
X164392517Y-53274091D01*
X164392516Y-53274091D01*
X164399444Y-53274835D01*
X164452127Y-53280500D01*
X166347872Y-53280499D01*
X166407483Y-53274091D01*
X166542331Y-53223796D01*
X166657546Y-53137546D01*
X166743796Y-53022331D01*
X166794091Y-52887483D01*
X166800500Y-52827873D01*
X166800499Y-50932128D01*
X166794091Y-50872517D01*
X166792630Y-50868601D01*
X166743797Y-50737671D01*
X166743793Y-50737664D01*
X166657547Y-50622455D01*
X166657544Y-50622452D01*
X166542335Y-50536206D01*
X166542328Y-50536202D01*
X166462094Y-50506277D01*
X166406160Y-50464406D01*
X166381743Y-50398941D01*
X166396595Y-50330668D01*
X166414190Y-50306121D01*
X166508979Y-50203153D01*
X166635924Y-50008849D01*
X166678252Y-49912351D01*
X171249500Y-49912351D01*
X171281522Y-50114534D01*
X171344781Y-50309223D01*
X171398369Y-50414394D01*
X171437182Y-50490568D01*
X171437715Y-50491613D01*
X171558028Y-50657213D01*
X171702786Y-50801971D01*
X171824677Y-50890528D01*
X171868390Y-50922287D01*
X171959084Y-50968498D01*
X172050776Y-51015218D01*
X172050778Y-51015218D01*
X172050781Y-51015220D01*
X172137553Y-51043414D01*
X172245465Y-51078477D01*
X172346453Y-51094472D01*
X172447648Y-51110500D01*
X172447649Y-51110500D01*
X172652351Y-51110500D01*
X172652352Y-51110500D01*
X172854534Y-51078477D01*
X173049219Y-51015220D01*
X173231610Y-50922287D01*
X173337748Y-50845174D01*
X173397213Y-50801971D01*
X173397215Y-50801968D01*
X173397219Y-50801966D01*
X173541966Y-50657219D01*
X173541968Y-50657215D01*
X173541971Y-50657213D01*
X173606647Y-50568192D01*
X173662287Y-50491610D01*
X173755220Y-50309219D01*
X173818477Y-50114534D01*
X173850500Y-49912352D01*
X173850500Y-49707648D01*
X173828905Y-49571305D01*
X173818477Y-49505465D01*
X173775879Y-49374364D01*
X173755220Y-49310781D01*
X173755218Y-49310778D01*
X173755218Y-49310776D01*
X173678915Y-49161025D01*
X173662287Y-49128390D01*
X173643704Y-49102812D01*
X173541971Y-48962786D01*
X173397213Y-48818028D01*
X173231613Y-48697715D01*
X173231612Y-48697714D01*
X173231610Y-48697713D01*
X173174653Y-48668691D01*
X173049223Y-48604781D01*
X172854534Y-48541522D01*
X172679995Y-48513878D01*
X172652352Y-48509500D01*
X172447648Y-48509500D01*
X172423329Y-48513351D01*
X172245465Y-48541522D01*
X172050776Y-48604781D01*
X171868386Y-48697715D01*
X171702786Y-48818028D01*
X171558028Y-48962786D01*
X171437715Y-49128386D01*
X171344781Y-49310776D01*
X171281522Y-49505465D01*
X171249500Y-49707648D01*
X171249500Y-49912351D01*
X166678252Y-49912351D01*
X166729157Y-49796300D01*
X166786134Y-49571305D01*
X166789604Y-49529431D01*
X166805300Y-49340006D01*
X166805300Y-49339993D01*
X166786135Y-49108702D01*
X166786133Y-49108691D01*
X166729157Y-48883699D01*
X166635924Y-48671151D01*
X166508983Y-48476852D01*
X166508980Y-48476849D01*
X166508979Y-48476847D01*
X166351784Y-48306087D01*
X166351779Y-48306083D01*
X166351777Y-48306081D01*
X166168634Y-48163535D01*
X166168628Y-48163531D01*
X165964504Y-48053064D01*
X165964495Y-48053061D01*
X165744984Y-47977702D01*
X165573282Y-47949050D01*
X165516049Y-47939500D01*
X165283951Y-47939500D01*
X165238164Y-47947140D01*
X165055015Y-47977702D01*
X164835504Y-48053061D01*
X164835495Y-48053064D01*
X164631371Y-48163531D01*
X164631365Y-48163535D01*
X164448222Y-48306081D01*
X164448219Y-48306084D01*
X164291016Y-48476852D01*
X164164075Y-48671151D01*
X164070842Y-48883699D01*
X164013866Y-49108691D01*
X164013864Y-49108702D01*
X163994700Y-49339993D01*
X163994700Y-49340006D01*
X164013865Y-49571301D01*
X164013865Y-49571304D01*
X164013866Y-49571305D01*
X164017762Y-49586692D01*
X164029743Y-49634002D01*
X164027118Y-49703822D01*
X163997218Y-49752123D01*
X162956162Y-50793181D01*
X162894839Y-50826666D01*
X162868481Y-50829500D01*
X161637105Y-50829500D01*
X161570066Y-50809815D01*
X161538151Y-50780227D01*
X161490979Y-50717761D01*
X161326562Y-50567876D01*
X161326560Y-50567874D01*
X161137404Y-50450754D01*
X161137398Y-50450752D01*
X161117708Y-50443124D01*
X160929940Y-50370382D01*
X160711243Y-50329500D01*
X160488757Y-50329500D01*
X160270060Y-50370382D01*
X160196341Y-50398941D01*
X160062601Y-50450752D01*
X160062595Y-50450754D01*
X159873439Y-50567874D01*
X159873437Y-50567876D01*
X159709019Y-50717762D01*
X159627415Y-50825823D01*
X159571306Y-50867458D01*
X159501594Y-50872149D01*
X159492276Y-50867010D01*
X159458860Y-50864690D01*
X158803553Y-51519999D01*
X158803553Y-51520000D01*
X158800000Y-51520000D01*
X158800000Y-51473922D01*
X158776148Y-51384905D01*
X158730070Y-51305095D01*
X158664905Y-51239930D01*
X158585095Y-51193852D01*
X158496078Y-51170000D01*
X158403922Y-51170000D01*
X158314905Y-51193852D01*
X158235095Y-51239930D01*
X158169930Y-51305095D01*
X158123852Y-51384905D01*
X158100000Y-51473922D01*
X158100000Y-51566078D01*
X158050369Y-51566078D01*
X158096447Y-51520000D01*
X157441138Y-50864691D01*
X157384801Y-50868602D01*
X157384558Y-50865111D01*
X157365348Y-50866398D01*
X157365196Y-50868601D01*
X157349130Y-50867485D01*
X157348098Y-50867555D01*
X157347806Y-50867393D01*
X157308860Y-50864690D01*
X156653553Y-51519999D01*
X156653553Y-51520000D01*
X156650000Y-51520000D01*
X156650000Y-51473922D01*
X156626148Y-51384905D01*
X156580070Y-51305095D01*
X156514905Y-51239930D01*
X156435095Y-51193852D01*
X156346078Y-51170000D01*
X156253922Y-51170000D01*
X156164905Y-51193852D01*
X156085095Y-51239930D01*
X156019930Y-51305095D01*
X155973852Y-51384905D01*
X155950000Y-51473922D01*
X155950000Y-51566078D01*
X155900369Y-51566078D01*
X155946447Y-51520000D01*
X155291138Y-50864691D01*
X155291137Y-50864691D01*
X155275368Y-50885574D01*
X155235500Y-50965640D01*
X155187997Y-51016877D01*
X155120334Y-51034298D01*
X155053994Y-51012372D01*
X155010039Y-50958061D01*
X155000500Y-50910368D01*
X155000500Y-50831005D01*
X154998997Y-50823451D01*
X154998996Y-50823446D01*
X154981933Y-50737664D01*
X154973580Y-50695672D01*
X154958804Y-50660000D01*
X154920777Y-50568192D01*
X154883979Y-50513119D01*
X155646671Y-50513119D01*
X156300000Y-51166447D01*
X156300001Y-51166447D01*
X156953327Y-50513119D01*
X157796671Y-50513119D01*
X158450000Y-51166447D01*
X158450001Y-51166447D01*
X159103327Y-50513119D01*
X158987178Y-50441202D01*
X158987177Y-50441201D01*
X158779804Y-50360865D01*
X158561193Y-50320000D01*
X158338807Y-50320000D01*
X158120195Y-50360865D01*
X157912824Y-50441200D01*
X157912823Y-50441201D01*
X157796671Y-50513119D01*
X156953327Y-50513119D01*
X156837178Y-50441202D01*
X156837177Y-50441201D01*
X156629804Y-50360865D01*
X156411193Y-50320000D01*
X156188807Y-50320000D01*
X155970195Y-50360865D01*
X155762824Y-50441200D01*
X155762823Y-50441201D01*
X155646671Y-50513119D01*
X154883979Y-50513119D01*
X154844112Y-50453454D01*
X153346543Y-48955885D01*
X153255608Y-48895125D01*
X153210803Y-48841513D01*
X153200499Y-48792023D01*
X153200499Y-47852129D01*
X153200498Y-47852123D01*
X153200497Y-47852116D01*
X153194091Y-47792517D01*
X153143796Y-47657669D01*
X153143795Y-47657668D01*
X153143793Y-47657664D01*
X153057547Y-47542455D01*
X153057544Y-47542452D01*
X152942335Y-47456206D01*
X152942328Y-47456202D01*
X152807482Y-47405908D01*
X152807483Y-47405908D01*
X152747883Y-47399501D01*
X152747881Y-47399500D01*
X152747873Y-47399500D01*
X152747864Y-47399500D01*
X151452129Y-47399500D01*
X151452123Y-47399501D01*
X151392516Y-47405908D01*
X151257671Y-47456202D01*
X151257664Y-47456206D01*
X151142455Y-47542452D01*
X151142452Y-47542455D01*
X151056206Y-47657664D01*
X151056202Y-47657671D01*
X151005908Y-47792517D01*
X150999501Y-47852116D01*
X150999500Y-47852127D01*
X150999500Y-48306087D01*
X150999501Y-48675500D01*
X150979817Y-48742539D01*
X150927013Y-48788294D01*
X150875501Y-48799500D01*
X145394500Y-48799500D01*
X145327461Y-48779815D01*
X145281706Y-48727011D01*
X145270500Y-48675500D01*
X145270499Y-47852129D01*
X145270498Y-47852123D01*
X145270497Y-47852116D01*
X145264091Y-47792517D01*
X145213796Y-47657669D01*
X145213795Y-47657668D01*
X145213793Y-47657664D01*
X145127547Y-47542455D01*
X145127544Y-47542452D01*
X145012335Y-47456206D01*
X145012328Y-47456202D01*
X144877482Y-47405908D01*
X144877483Y-47405908D01*
X144817883Y-47399501D01*
X144817881Y-47399500D01*
X144817873Y-47399500D01*
X144817864Y-47399500D01*
X143522129Y-47399500D01*
X143522123Y-47399501D01*
X143462516Y-47405908D01*
X143327671Y-47456202D01*
X143327664Y-47456206D01*
X143212455Y-47542452D01*
X143212452Y-47542455D01*
X143126206Y-47657664D01*
X143126202Y-47657671D01*
X143075908Y-47792517D01*
X143069501Y-47852116D01*
X143069500Y-47852127D01*
X143069500Y-48306087D01*
X143069501Y-48675500D01*
X143049817Y-48742539D01*
X142997013Y-48788294D01*
X142945501Y-48799500D01*
X142941519Y-48799500D01*
X142874480Y-48779815D01*
X142853838Y-48763181D01*
X141496546Y-47405888D01*
X141496545Y-47405887D01*
X141381807Y-47329222D01*
X141254332Y-47276421D01*
X141254322Y-47276418D01*
X141118996Y-47249500D01*
X141118994Y-47249500D01*
X141118993Y-47249500D01*
X127701007Y-47249500D01*
X127701005Y-47249500D01*
X127565677Y-47276418D01*
X127565667Y-47276421D01*
X127438192Y-47329222D01*
X127323454Y-47405887D01*
X126690369Y-48038972D01*
X126629046Y-48072457D01*
X126591881Y-48074819D01*
X126586680Y-48074364D01*
X126567171Y-48072657D01*
X126360002Y-48054532D01*
X126359998Y-48054532D01*
X126133313Y-48074364D01*
X126133302Y-48074366D01*
X125913511Y-48133258D01*
X125913502Y-48133261D01*
X125707267Y-48229431D01*
X125707265Y-48229432D01*
X125520858Y-48359954D01*
X125359954Y-48520858D01*
X125229432Y-48707265D01*
X125229431Y-48707267D01*
X125202382Y-48765275D01*
X125156209Y-48817714D01*
X125089016Y-48836866D01*
X125022135Y-48816650D01*
X124977618Y-48765275D01*
X124957817Y-48722812D01*
X124950568Y-48707266D01*
X124820047Y-48520861D01*
X124820045Y-48520858D01*
X124659141Y-48359954D01*
X124472734Y-48229432D01*
X124472732Y-48229431D01*
X124266497Y-48133261D01*
X124266488Y-48133258D01*
X124046697Y-48074366D01*
X124046693Y-48074365D01*
X124046692Y-48074365D01*
X124046691Y-48074364D01*
X124046686Y-48074364D01*
X123820002Y-48054532D01*
X123819998Y-48054532D01*
X123593313Y-48074364D01*
X123593302Y-48074366D01*
X123373511Y-48133258D01*
X123373502Y-48133261D01*
X123167267Y-48229431D01*
X123167265Y-48229432D01*
X122980858Y-48359954D01*
X122819954Y-48520858D01*
X122689432Y-48707265D01*
X122689431Y-48707267D01*
X122662382Y-48765275D01*
X122616209Y-48817714D01*
X122549016Y-48836866D01*
X122482135Y-48816650D01*
X122437618Y-48765275D01*
X122417817Y-48722812D01*
X122410568Y-48707266D01*
X122280047Y-48520861D01*
X122280045Y-48520858D01*
X122119141Y-48359954D01*
X121932734Y-48229432D01*
X121932732Y-48229431D01*
X121726497Y-48133261D01*
X121726488Y-48133258D01*
X121506697Y-48074366D01*
X121506693Y-48074365D01*
X121506692Y-48074365D01*
X121506691Y-48074364D01*
X121506686Y-48074364D01*
X121280002Y-48054532D01*
X121279998Y-48054532D01*
X121053313Y-48074364D01*
X121053302Y-48074366D01*
X120833511Y-48133258D01*
X120833502Y-48133261D01*
X120627267Y-48229431D01*
X120627265Y-48229432D01*
X120440858Y-48359954D01*
X120279954Y-48520858D01*
X120149432Y-48707265D01*
X120149431Y-48707267D01*
X120122382Y-48765275D01*
X120076209Y-48817714D01*
X120009016Y-48836866D01*
X119942135Y-48816650D01*
X119897618Y-48765275D01*
X119877817Y-48722812D01*
X119870568Y-48707266D01*
X119740047Y-48520861D01*
X119740045Y-48520858D01*
X119579141Y-48359954D01*
X119392734Y-48229432D01*
X119392732Y-48229431D01*
X119186497Y-48133261D01*
X119186488Y-48133258D01*
X118966697Y-48074366D01*
X118966693Y-48074365D01*
X118966692Y-48074365D01*
X118966691Y-48074364D01*
X118966686Y-48074364D01*
X118740002Y-48054532D01*
X118739998Y-48054532D01*
X118513313Y-48074364D01*
X118513302Y-48074366D01*
X118293511Y-48133258D01*
X118293502Y-48133261D01*
X118087267Y-48229431D01*
X118087265Y-48229432D01*
X117900858Y-48359954D01*
X117739954Y-48520858D01*
X117609432Y-48707265D01*
X117609431Y-48707267D01*
X117513261Y-48913502D01*
X117513258Y-48913511D01*
X117454366Y-49133302D01*
X117454364Y-49133313D01*
X117434532Y-49359998D01*
X117434532Y-49360001D01*
X115962514Y-49360001D01*
X115900002Y-49354532D01*
X115899998Y-49354532D01*
X115673313Y-49374364D01*
X115673302Y-49374366D01*
X115453511Y-49433258D01*
X115453502Y-49433261D01*
X115247267Y-49529431D01*
X115247265Y-49529432D01*
X115060858Y-49659954D01*
X114899954Y-49820858D01*
X114769432Y-50007265D01*
X114769431Y-50007267D01*
X114673261Y-50213502D01*
X114673258Y-50213511D01*
X114614366Y-50433302D01*
X114614364Y-50433313D01*
X114594532Y-50659998D01*
X114594532Y-50660001D01*
X112934653Y-50660001D01*
X112917102Y-50622362D01*
X112917100Y-50622359D01*
X112917099Y-50622357D01*
X112791599Y-50443124D01*
X112718857Y-50370382D01*
X112636877Y-50288402D01*
X112474590Y-50174767D01*
X112457638Y-50162897D01*
X112334776Y-50105606D01*
X112259330Y-50070425D01*
X112259326Y-50070424D01*
X112259322Y-50070422D01*
X112047977Y-50013793D01*
X111830002Y-49994723D01*
X111829998Y-49994723D01*
X111702151Y-50005908D01*
X111612023Y-50013793D01*
X111612020Y-50013793D01*
X111400677Y-50070422D01*
X111400668Y-50070426D01*
X111202361Y-50162898D01*
X111202357Y-50162900D01*
X111023121Y-50288402D01*
X110868402Y-50443121D01*
X110742900Y-50622357D01*
X110742898Y-50622361D01*
X110672382Y-50773583D01*
X110626209Y-50826022D01*
X110559016Y-50845174D01*
X110492135Y-50824958D01*
X110447618Y-50773583D01*
X110421588Y-50717762D01*
X110377102Y-50622362D01*
X110377100Y-50622359D01*
X110377099Y-50622357D01*
X110251599Y-50443124D01*
X110178857Y-50370382D01*
X110096877Y-50288402D01*
X109934590Y-50174767D01*
X109917638Y-50162897D01*
X109794776Y-50105606D01*
X109719330Y-50070425D01*
X109719326Y-50070424D01*
X109719322Y-50070422D01*
X109507977Y-50013793D01*
X109290002Y-49994723D01*
X109289998Y-49994723D01*
X109162151Y-50005908D01*
X109072023Y-50013793D01*
X109072020Y-50013793D01*
X108860677Y-50070422D01*
X108860668Y-50070426D01*
X108662361Y-50162898D01*
X108662357Y-50162900D01*
X108483121Y-50288402D01*
X108328402Y-50443121D01*
X108226074Y-50589262D01*
X108171497Y-50632887D01*
X108101999Y-50640081D01*
X108039644Y-50608558D01*
X108004230Y-50548328D01*
X108000499Y-50518139D01*
X108000499Y-50452129D01*
X108000498Y-50452123D01*
X108000497Y-50452116D01*
X107994091Y-50392517D01*
X107987152Y-50373913D01*
X107943797Y-50257671D01*
X107943793Y-50257664D01*
X107857547Y-50142455D01*
X107857544Y-50142452D01*
X107742335Y-50056206D01*
X107742328Y-50056202D01*
X107607482Y-50005908D01*
X107607483Y-50005908D01*
X107547883Y-49999501D01*
X107547881Y-49999500D01*
X107547873Y-49999500D01*
X107547864Y-49999500D01*
X105952129Y-49999500D01*
X105952123Y-49999501D01*
X105892516Y-50005908D01*
X105757671Y-50056202D01*
X105757664Y-50056206D01*
X105642455Y-50142452D01*
X105642452Y-50142455D01*
X105556206Y-50257664D01*
X105556202Y-50257671D01*
X105505908Y-50392517D01*
X105499501Y-50452116D01*
X105499501Y-50452123D01*
X105499500Y-50452135D01*
X105499500Y-52047870D01*
X105499501Y-52047876D01*
X105505908Y-52107483D01*
X105556202Y-52242328D01*
X105556206Y-52242335D01*
X105642452Y-52357544D01*
X105642453Y-52357544D01*
X105642454Y-52357546D01*
X105667418Y-52376234D01*
X105709288Y-52432168D01*
X105714272Y-52501860D01*
X105680786Y-52563182D01*
X105619462Y-52596667D01*
X105593106Y-52599500D01*
X105431005Y-52599500D01*
X105382016Y-52609245D01*
X105336484Y-52618302D01*
X105295671Y-52626420D01*
X105295666Y-52626421D01*
X105252953Y-52644113D01*
X105252954Y-52644114D01*
X105168191Y-52679223D01*
X105101992Y-52723457D01*
X105101991Y-52723458D01*
X105053454Y-52755888D01*
X105053453Y-52755889D01*
X104255888Y-53553453D01*
X104255887Y-53553454D01*
X104179222Y-53668192D01*
X104126421Y-53795667D01*
X104126420Y-53795671D01*
X104126420Y-53795672D01*
X104101890Y-53918994D01*
X104099500Y-53931007D01*
X104099500Y-56191006D01*
X104099500Y-56328994D01*
X104099500Y-56328996D01*
X104099499Y-56328996D01*
X104126418Y-56464322D01*
X104126421Y-56464332D01*
X104179222Y-56591807D01*
X104255887Y-56706545D01*
X104255888Y-56706546D01*
X104861427Y-57312084D01*
X104894912Y-57373407D01*
X104897217Y-57411205D01*
X104884357Y-57549998D01*
X104884357Y-57550000D01*
X104904884Y-57771535D01*
X104904885Y-57771537D01*
X104965769Y-57985523D01*
X104965775Y-57985538D01*
X105007946Y-58070228D01*
X105020207Y-58139014D01*
X104993334Y-58203509D01*
X104935858Y-58243236D01*
X104896946Y-58249500D01*
X100141519Y-58249500D01*
X100074480Y-58229815D01*
X100053838Y-58213181D01*
X98602838Y-56762181D01*
X98569353Y-56700858D01*
X98574337Y-56631166D01*
X98616209Y-56575233D01*
X98681673Y-56550816D01*
X98690519Y-56550500D01*
X98791241Y-56550500D01*
X98791243Y-56550500D01*
X99009940Y-56509618D01*
X99217401Y-56429247D01*
X99406562Y-56312124D01*
X99570981Y-56162236D01*
X99705058Y-55984689D01*
X99804229Y-55785528D01*
X99865115Y-55571536D01*
X99885643Y-55350000D01*
X99873011Y-55213682D01*
X99865115Y-55128464D01*
X99865114Y-55128462D01*
X99864837Y-55127490D01*
X99804229Y-54914472D01*
X99804224Y-54914461D01*
X99705061Y-54715316D01*
X99705056Y-54715308D01*
X99570979Y-54537761D01*
X99406562Y-54387876D01*
X99406560Y-54387874D01*
X99217404Y-54270754D01*
X99217398Y-54270752D01*
X99217393Y-54270750D01*
X99009940Y-54190382D01*
X98791243Y-54149500D01*
X98568757Y-54149500D01*
X98350060Y-54190382D01*
X98238251Y-54233697D01*
X98142601Y-54270752D01*
X98142595Y-54270754D01*
X97953439Y-54387874D01*
X97953437Y-54387876D01*
X97789020Y-54537761D01*
X97654943Y-54715308D01*
X97654938Y-54715316D01*
X97555775Y-54914461D01*
X97555769Y-54914476D01*
X97494885Y-55128462D01*
X97494884Y-55128464D01*
X97474670Y-55346620D01*
X97448884Y-55411557D01*
X97392083Y-55452245D01*
X97322302Y-55455765D01*
X97263518Y-55422860D01*
X96766545Y-54925887D01*
X96651807Y-54849222D01*
X96524332Y-54796421D01*
X96524322Y-54796418D01*
X96388996Y-54769500D01*
X96388994Y-54769500D01*
X96388993Y-54769500D01*
X94658645Y-54769500D01*
X94591606Y-54749815D01*
X94552918Y-54710290D01*
X94458262Y-54555825D01*
X94458261Y-54555823D01*
X94371609Y-54454367D01*
X94299759Y-54370241D01*
X94147415Y-54240127D01*
X94114176Y-54211738D01*
X94114173Y-54211737D01*
X93906089Y-54084222D01*
X93680618Y-53990830D01*
X93680621Y-53990830D01*
X93574992Y-53965470D01*
X93443302Y-53933854D01*
X93443300Y-53933853D01*
X93443297Y-53933853D01*
X93200000Y-53914706D01*
X92956702Y-53933853D01*
X92719380Y-53990830D01*
X92493910Y-54084222D01*
X92285826Y-54211737D01*
X92285823Y-54211738D01*
X92100241Y-54370241D01*
X91941738Y-54555823D01*
X91941737Y-54555826D01*
X91814222Y-54763910D01*
X91720830Y-54989380D01*
X91663853Y-55226702D01*
X91644706Y-55470000D01*
X91663853Y-55713297D01*
X91663853Y-55713300D01*
X91663854Y-55713302D01*
X91718400Y-55940500D01*
X91720830Y-55950619D01*
X91814222Y-56176089D01*
X91941737Y-56384173D01*
X91941738Y-56384176D01*
X91984167Y-56433854D01*
X92100241Y-56569759D01*
X92205153Y-56659362D01*
X92285823Y-56728261D01*
X92285825Y-56728261D01*
X92288662Y-56730000D01*
X92493910Y-56855777D01*
X92637640Y-56915311D01*
X92709651Y-56945139D01*
X92719381Y-56949169D01*
X92719378Y-56949169D01*
X92719384Y-56949170D01*
X92719388Y-56949172D01*
X92956698Y-57006146D01*
X93200000Y-57025294D01*
X93443302Y-57006146D01*
X93680612Y-56949172D01*
X93906089Y-56855777D01*
X94114179Y-56728259D01*
X94299759Y-56569759D01*
X94458259Y-56384179D01*
X94552918Y-56229710D01*
X94604729Y-56182835D01*
X94658645Y-56170500D01*
X95636919Y-56170500D01*
X95692254Y-56186748D01*
X95717588Y-56173149D01*
X95743081Y-56170500D01*
X95978481Y-56170500D01*
X96045520Y-56190185D01*
X96066162Y-56206819D01*
X96096003Y-56236660D01*
X96129488Y-56297983D01*
X96124504Y-56367675D01*
X96082632Y-56423608D01*
X96017168Y-56448025D01*
X95979376Y-56444915D01*
X95933300Y-56433853D01*
X95767570Y-56420810D01*
X95733351Y-56418117D01*
X95690215Y-56401676D01*
X95671854Y-56413477D01*
X95646649Y-56418117D01*
X95606161Y-56421304D01*
X95446702Y-56433853D01*
X95209380Y-56490830D01*
X94983910Y-56584222D01*
X94775826Y-56711737D01*
X94775823Y-56711738D01*
X94590241Y-56870241D01*
X94431738Y-57055823D01*
X94431737Y-57055826D01*
X94304222Y-57263910D01*
X94210830Y-57489380D01*
X94210828Y-57489387D01*
X94210828Y-57489388D01*
X94189410Y-57578599D01*
X94153853Y-57726702D01*
X94134706Y-57970000D01*
X94153853Y-58213297D01*
X94153853Y-58213300D01*
X94153854Y-58213302D01*
X94210500Y-58449247D01*
X94210830Y-58450619D01*
X94304222Y-58676089D01*
X94431737Y-58884173D01*
X94431738Y-58884176D01*
X94461021Y-58918462D01*
X94590241Y-59069759D01*
X94714048Y-59175500D01*
X94775823Y-59228261D01*
X94775826Y-59228262D01*
X94983910Y-59355777D01*
X95061905Y-59388083D01*
X95209388Y-59449172D01*
X95418080Y-59499275D01*
X95478670Y-59534065D01*
X95510834Y-59596091D01*
X95504358Y-59665660D01*
X95476812Y-59707529D01*
X93736088Y-61448253D01*
X93674765Y-61481738D01*
X93619460Y-61481146D01*
X93443298Y-61438853D01*
X93443299Y-61438853D01*
X93200000Y-61419706D01*
X92956702Y-61438853D01*
X92956698Y-61438854D01*
X92776144Y-61482202D01*
X92719380Y-61495830D01*
X92493910Y-61589222D01*
X92285826Y-61716737D01*
X92285823Y-61716738D01*
X92100241Y-61875241D01*
X91941738Y-62060823D01*
X91941737Y-62060826D01*
X91814222Y-62268910D01*
X91720830Y-62494380D01*
X91720828Y-62494387D01*
X91720828Y-62494388D01*
X91702018Y-62572736D01*
X91663853Y-62731702D01*
X91644706Y-62975000D01*
X84744496Y-62975000D01*
X84748494Y-62924200D01*
X84729346Y-62680898D01*
X84672372Y-62443588D01*
X84671939Y-62442542D01*
X84578977Y-62218110D01*
X84451462Y-62010026D01*
X84451461Y-62010023D01*
X84318353Y-61854174D01*
X84292959Y-61824441D01*
X84257186Y-61793888D01*
X84218995Y-61735385D01*
X84218495Y-61665517D01*
X84255848Y-61606470D01*
X84257097Y-61605387D01*
X84292959Y-61574759D01*
X84451459Y-61389179D01*
X84578977Y-61181089D01*
X84672372Y-60955612D01*
X84729346Y-60718302D01*
X84748494Y-60475000D01*
X84729346Y-60231698D01*
X84672372Y-59994388D01*
X84654913Y-59952237D01*
X84578977Y-59768910D01*
X84451462Y-59560826D01*
X84451461Y-59560823D01*
X84292959Y-59375241D01*
X84280857Y-59364905D01*
X84224519Y-59316788D01*
X84186328Y-59258284D01*
X84185828Y-59188416D01*
X84223182Y-59129370D01*
X84224431Y-59128286D01*
X84292959Y-59069759D01*
X84451459Y-58884179D01*
X84578977Y-58676089D01*
X84672372Y-58450612D01*
X84729346Y-58213302D01*
X84748494Y-57970000D01*
X84729346Y-57726698D01*
X84672372Y-57489388D01*
X84646322Y-57426497D01*
X84578977Y-57263910D01*
X84451462Y-57055826D01*
X84451461Y-57055823D01*
X84409033Y-57006146D01*
X84292959Y-56870241D01*
X84139325Y-56739025D01*
X84107376Y-56711738D01*
X84107373Y-56711737D01*
X83899289Y-56584222D01*
X83673818Y-56490830D01*
X83673821Y-56490830D01*
X83530278Y-56456368D01*
X83436502Y-56433854D01*
X83436500Y-56433853D01*
X83436497Y-56433853D01*
X83193200Y-56414706D01*
X82949902Y-56433853D01*
X82712580Y-56490830D01*
X82487110Y-56584222D01*
X82279026Y-56711737D01*
X82279023Y-56711738D01*
X82093441Y-56870241D01*
X81934938Y-57055823D01*
X81934937Y-57055826D01*
X81807422Y-57263910D01*
X81714030Y-57489380D01*
X81714028Y-57489387D01*
X81714028Y-57489388D01*
X81692610Y-57578599D01*
X81657053Y-57726702D01*
X81637906Y-57970000D01*
X81657053Y-58213297D01*
X81657053Y-58213300D01*
X81657054Y-58213302D01*
X81713700Y-58449247D01*
X81714030Y-58450619D01*
X81807422Y-58676089D01*
X81934937Y-58884173D01*
X81934938Y-58884176D01*
X82093443Y-59069761D01*
X82161878Y-59128210D01*
X82200072Y-59186716D01*
X82200571Y-59256584D01*
X82163217Y-59315631D01*
X82161878Y-59316790D01*
X82093443Y-59375238D01*
X81934938Y-59560823D01*
X81934937Y-59560826D01*
X81807422Y-59768910D01*
X81714030Y-59994380D01*
X81714028Y-59994387D01*
X81714028Y-59994388D01*
X81712321Y-60001497D01*
X81657053Y-60231702D01*
X81637906Y-60475000D01*
X81657053Y-60718297D01*
X81657053Y-60718300D01*
X81657054Y-60718302D01*
X81711374Y-60944559D01*
X81714030Y-60955619D01*
X81807422Y-61181089D01*
X81934937Y-61389173D01*
X81934938Y-61389176D01*
X81977367Y-61438854D01*
X82093441Y-61574759D01*
X82129212Y-61605310D01*
X82167405Y-61663817D01*
X82167903Y-61733685D01*
X82130550Y-61792731D01*
X82129238Y-61793866D01*
X82093441Y-61824441D01*
X81934938Y-62010023D01*
X81934937Y-62010026D01*
X81807422Y-62218110D01*
X81714030Y-62443580D01*
X81657053Y-62680902D01*
X81637906Y-62924200D01*
X81657053Y-63167497D01*
X81657053Y-63167500D01*
X81657054Y-63167502D01*
X81678049Y-63254953D01*
X81714030Y-63404819D01*
X81807422Y-63630289D01*
X81934937Y-63838373D01*
X81934938Y-63838376D01*
X81934941Y-63838379D01*
X82093441Y-64023959D01*
X82188691Y-64105310D01*
X82226884Y-64163817D01*
X82227382Y-64233685D01*
X82190029Y-64292731D01*
X82188691Y-64293890D01*
X82093441Y-64375241D01*
X81934938Y-64560823D01*
X81934937Y-64560826D01*
X81807422Y-64768910D01*
X81714030Y-64994380D01*
X81657053Y-65231702D01*
X81637906Y-65475000D01*
X81657053Y-65718297D01*
X81657053Y-65718300D01*
X81657054Y-65718302D01*
X81702760Y-65908680D01*
X81714030Y-65955619D01*
X81807422Y-66181089D01*
X81934937Y-66389173D01*
X81934938Y-66389176D01*
X81934941Y-66389179D01*
X82045835Y-66519020D01*
X82093443Y-66574761D01*
X82161878Y-66633210D01*
X82200072Y-66691716D01*
X82200571Y-66761584D01*
X82163217Y-66820631D01*
X82161878Y-66821790D01*
X82093443Y-66880238D01*
X81934938Y-67065823D01*
X81934937Y-67065826D01*
X81807422Y-67273910D01*
X81714030Y-67499380D01*
X81714028Y-67499387D01*
X81714028Y-67499388D01*
X81693236Y-67585992D01*
X81657053Y-67736702D01*
X81637906Y-67980000D01*
X80700000Y-67980000D01*
X80700000Y-55583768D01*
X86744500Y-55583768D01*
X86780093Y-55808490D01*
X86850400Y-56024876D01*
X86850401Y-56024879D01*
X86935048Y-56191006D01*
X86953697Y-56227607D01*
X87087434Y-56411680D01*
X87248320Y-56572566D01*
X87432393Y-56706303D01*
X87487525Y-56734394D01*
X87635120Y-56809598D01*
X87635123Y-56809599D01*
X87743316Y-56844752D01*
X87851511Y-56879907D01*
X87955591Y-56896391D01*
X88076232Y-56915500D01*
X88076237Y-56915500D01*
X88303768Y-56915500D01*
X88412710Y-56898244D01*
X88528489Y-56879907D01*
X88744879Y-56809598D01*
X88947607Y-56706303D01*
X89131680Y-56572566D01*
X89292566Y-56411680D01*
X89426303Y-56227607D01*
X89529598Y-56024879D01*
X89599907Y-55808489D01*
X89623425Y-55660002D01*
X89635500Y-55583768D01*
X89635500Y-55356231D01*
X89614793Y-55225499D01*
X89599907Y-55131511D01*
X89559618Y-55007513D01*
X89529599Y-54915123D01*
X89529598Y-54915120D01*
X89462847Y-54784114D01*
X89426303Y-54712393D01*
X89292566Y-54528320D01*
X89131680Y-54367434D01*
X88947607Y-54233697D01*
X88904508Y-54211737D01*
X88744879Y-54130401D01*
X88744876Y-54130400D01*
X88528490Y-54060093D01*
X88303768Y-54024500D01*
X88303763Y-54024500D01*
X88076237Y-54024500D01*
X88076232Y-54024500D01*
X87851509Y-54060093D01*
X87635123Y-54130400D01*
X87635120Y-54130401D01*
X87432392Y-54233697D01*
X87327372Y-54309998D01*
X87248320Y-54367434D01*
X87248318Y-54367436D01*
X87248317Y-54367436D01*
X87087436Y-54528317D01*
X87087436Y-54528318D01*
X87087434Y-54528320D01*
X87032086Y-54604500D01*
X86953697Y-54712392D01*
X86850401Y-54915120D01*
X86850400Y-54915123D01*
X86780093Y-55131509D01*
X86744500Y-55356231D01*
X86744500Y-55583768D01*
X80700000Y-55583768D01*
X80700000Y-49912351D01*
X82729500Y-49912351D01*
X82761522Y-50114534D01*
X82824781Y-50309223D01*
X82878369Y-50414394D01*
X82917182Y-50490568D01*
X82917715Y-50491613D01*
X83038028Y-50657213D01*
X83182786Y-50801971D01*
X83304677Y-50890528D01*
X83348390Y-50922287D01*
X83439084Y-50968498D01*
X83530776Y-51015218D01*
X83530778Y-51015218D01*
X83530781Y-51015220D01*
X83617553Y-51043414D01*
X83725465Y-51078477D01*
X83826453Y-51094472D01*
X83927648Y-51110500D01*
X83927649Y-51110500D01*
X84132351Y-51110500D01*
X84132352Y-51110500D01*
X84334534Y-51078477D01*
X84529219Y-51015220D01*
X84711610Y-50922287D01*
X84817748Y-50845174D01*
X84877213Y-50801971D01*
X84877215Y-50801968D01*
X84877219Y-50801966D01*
X85021966Y-50657219D01*
X85021968Y-50657215D01*
X85021971Y-50657213D01*
X85086647Y-50568192D01*
X85142287Y-50491610D01*
X85235220Y-50309219D01*
X85298477Y-50114534D01*
X85327705Y-49930000D01*
X89104341Y-49930000D01*
X89124936Y-50165403D01*
X89124938Y-50165413D01*
X89186094Y-50393655D01*
X89186096Y-50393659D01*
X89186097Y-50393663D01*
X89273025Y-50580080D01*
X89285965Y-50607830D01*
X89285967Y-50607834D01*
X89376876Y-50737664D01*
X89421505Y-50801401D01*
X89588599Y-50968495D01*
X89655329Y-51015220D01*
X89782165Y-51104032D01*
X89782167Y-51104033D01*
X89782170Y-51104035D01*
X89996337Y-51203903D01*
X90224592Y-51265063D01*
X90395319Y-51280000D01*
X90459999Y-51285659D01*
X90460000Y-51285659D01*
X90460001Y-51285659D01*
X90524681Y-51280000D01*
X90695408Y-51265063D01*
X90923663Y-51203903D01*
X91137830Y-51104035D01*
X91331401Y-50968495D01*
X91453717Y-50846178D01*
X91515036Y-50812696D01*
X91584728Y-50817680D01*
X91640662Y-50859551D01*
X91657577Y-50890528D01*
X91706646Y-51022088D01*
X91706649Y-51022093D01*
X91792809Y-51137187D01*
X91792812Y-51137190D01*
X91907906Y-51223350D01*
X91907913Y-51223354D01*
X92042620Y-51273596D01*
X92042627Y-51273598D01*
X92102155Y-51279999D01*
X92102172Y-51280000D01*
X92750000Y-51280000D01*
X92750000Y-50363012D01*
X92807007Y-50395925D01*
X92934174Y-50430000D01*
X93065826Y-50430000D01*
X93192993Y-50395925D01*
X93250000Y-50363012D01*
X93250000Y-51280000D01*
X93897828Y-51280000D01*
X93897844Y-51279999D01*
X93957372Y-51273598D01*
X93957379Y-51273596D01*
X94092086Y-51223354D01*
X94092093Y-51223350D01*
X94207187Y-51137190D01*
X94207190Y-51137187D01*
X94229156Y-51107844D01*
X98070000Y-51107844D01*
X98076401Y-51167372D01*
X98076403Y-51167379D01*
X98126645Y-51302086D01*
X98126649Y-51302093D01*
X98212809Y-51417187D01*
X98212812Y-51417190D01*
X98327906Y-51503350D01*
X98327913Y-51503354D01*
X98462620Y-51553596D01*
X98462627Y-51553598D01*
X98522155Y-51559999D01*
X98522172Y-51560000D01*
X99120000Y-51560000D01*
X99120000Y-50575686D01*
X99124394Y-50580080D01*
X99215606Y-50632741D01*
X99317339Y-50660000D01*
X99422661Y-50660000D01*
X99524394Y-50632741D01*
X99615606Y-50580080D01*
X99620000Y-50575686D01*
X99620000Y-51560000D01*
X100217828Y-51560000D01*
X100217844Y-51559999D01*
X100277372Y-51553598D01*
X100277379Y-51553596D01*
X100412086Y-51503354D01*
X100412088Y-51503352D01*
X100527186Y-51417190D01*
X100527188Y-51417188D01*
X100533642Y-51408568D01*
X100589575Y-51366696D01*
X100659266Y-51361710D01*
X100704029Y-51381300D01*
X100717266Y-51390568D01*
X100923504Y-51486739D01*
X101143308Y-51545635D01*
X101305230Y-51559801D01*
X101369998Y-51565468D01*
X101370000Y-51565468D01*
X101370002Y-51565468D01*
X101432511Y-51559999D01*
X101596692Y-51545635D01*
X101816496Y-51486739D01*
X102022734Y-51390568D01*
X102209139Y-51260047D01*
X102370047Y-51099139D01*
X102500568Y-50912734D01*
X102596739Y-50706496D01*
X102655635Y-50486692D01*
X102675468Y-50260000D01*
X102655635Y-50033308D01*
X102598710Y-49820861D01*
X102596741Y-49813511D01*
X102596738Y-49813502D01*
X102500568Y-49607266D01*
X102401888Y-49466335D01*
X102370045Y-49420858D01*
X102209141Y-49259954D01*
X102022734Y-49129432D01*
X102022732Y-49129431D01*
X101816497Y-49033261D01*
X101816488Y-49033258D01*
X101596697Y-48974366D01*
X101596693Y-48974365D01*
X101596692Y-48974365D01*
X101596691Y-48974364D01*
X101596686Y-48974364D01*
X101370002Y-48954532D01*
X101369998Y-48954532D01*
X101143313Y-48974364D01*
X101143302Y-48974366D01*
X100923511Y-49033258D01*
X100923502Y-49033261D01*
X100717261Y-49129434D01*
X100717260Y-49129434D01*
X100704029Y-49138699D01*
X100637822Y-49161025D01*
X100570055Y-49144012D01*
X100533640Y-49111430D01*
X100527186Y-49102808D01*
X100412093Y-49016649D01*
X100412086Y-49016645D01*
X100277379Y-48966403D01*
X100277372Y-48966401D01*
X100217844Y-48960000D01*
X99620000Y-48960000D01*
X99620000Y-49944314D01*
X99615606Y-49939920D01*
X99524394Y-49887259D01*
X99422661Y-49860000D01*
X99317339Y-49860000D01*
X99215606Y-49887259D01*
X99124394Y-49939920D01*
X99120000Y-49944314D01*
X99120000Y-48960000D01*
X98522155Y-48960000D01*
X98462627Y-48966401D01*
X98462620Y-48966403D01*
X98327913Y-49016645D01*
X98327906Y-49016649D01*
X98212812Y-49102809D01*
X98212809Y-49102812D01*
X98126649Y-49217906D01*
X98126645Y-49217913D01*
X98076403Y-49352620D01*
X98076401Y-49352627D01*
X98070000Y-49412155D01*
X98070000Y-50010000D01*
X99054314Y-50010000D01*
X99049920Y-50014394D01*
X98997259Y-50105606D01*
X98970000Y-50207339D01*
X98970000Y-50312661D01*
X98997259Y-50414394D01*
X99049920Y-50505606D01*
X99054314Y-50510000D01*
X98070000Y-50510000D01*
X98070000Y-51107844D01*
X94229156Y-51107844D01*
X94293350Y-51022093D01*
X94293354Y-51022086D01*
X94343596Y-50887379D01*
X94343598Y-50887372D01*
X94349999Y-50827844D01*
X94350000Y-50827827D01*
X94350000Y-50180000D01*
X93433012Y-50180000D01*
X93465925Y-50122993D01*
X93500000Y-49995826D01*
X93500000Y-49864174D01*
X93465925Y-49737007D01*
X93433012Y-49680000D01*
X94350000Y-49680000D01*
X94350000Y-49032172D01*
X94349999Y-49032155D01*
X94343598Y-48972627D01*
X94343596Y-48972620D01*
X94293354Y-48837913D01*
X94293350Y-48837906D01*
X94207190Y-48722812D01*
X94207187Y-48722809D01*
X94092093Y-48636649D01*
X94092086Y-48636645D01*
X93957379Y-48586403D01*
X93957372Y-48586401D01*
X93897844Y-48580000D01*
X93250000Y-48580000D01*
X93250000Y-49496988D01*
X93192993Y-49464075D01*
X93065826Y-49430000D01*
X92934174Y-49430000D01*
X92807007Y-49464075D01*
X92750000Y-49496988D01*
X92750000Y-48580000D01*
X92102155Y-48580000D01*
X92042627Y-48586401D01*
X92042620Y-48586403D01*
X91907913Y-48636645D01*
X91907906Y-48636649D01*
X91792812Y-48722809D01*
X91792809Y-48722812D01*
X91706649Y-48837906D01*
X91706645Y-48837913D01*
X91657578Y-48969470D01*
X91615707Y-49025404D01*
X91550242Y-49049821D01*
X91481969Y-49034969D01*
X91453715Y-49013819D01*
X91394428Y-48954532D01*
X91331401Y-48891505D01*
X91331397Y-48891502D01*
X91331396Y-48891501D01*
X91137834Y-48755967D01*
X91137830Y-48755965D01*
X91033397Y-48707267D01*
X90923663Y-48656097D01*
X90923659Y-48656096D01*
X90923655Y-48656094D01*
X90695413Y-48594938D01*
X90695403Y-48594936D01*
X90460001Y-48574341D01*
X90459999Y-48574341D01*
X90224596Y-48594936D01*
X90224586Y-48594938D01*
X89996344Y-48656094D01*
X89996335Y-48656098D01*
X89782171Y-48755964D01*
X89782169Y-48755965D01*
X89588597Y-48891505D01*
X89421505Y-49058597D01*
X89285965Y-49252169D01*
X89285964Y-49252171D01*
X89186098Y-49466335D01*
X89186094Y-49466344D01*
X89124938Y-49694586D01*
X89124936Y-49694596D01*
X89104341Y-49929999D01*
X89104341Y-49930000D01*
X85327705Y-49930000D01*
X85330500Y-49912352D01*
X85330500Y-49707648D01*
X85308905Y-49571305D01*
X85298477Y-49505465D01*
X85255879Y-49374364D01*
X85235220Y-49310781D01*
X85235218Y-49310778D01*
X85235218Y-49310776D01*
X85158915Y-49161025D01*
X85142287Y-49128390D01*
X85123704Y-49102812D01*
X85021971Y-48962786D01*
X84877213Y-48818028D01*
X84711613Y-48697715D01*
X84711612Y-48697714D01*
X84711610Y-48697713D01*
X84654653Y-48668691D01*
X84529223Y-48604781D01*
X84334534Y-48541522D01*
X84159995Y-48513878D01*
X84132352Y-48509500D01*
X83927648Y-48509500D01*
X83903329Y-48513351D01*
X83725465Y-48541522D01*
X83530776Y-48604781D01*
X83348386Y-48697715D01*
X83182786Y-48818028D01*
X83038028Y-48962786D01*
X82917715Y-49128386D01*
X82824781Y-49310776D01*
X82761522Y-49505465D01*
X82729500Y-49707648D01*
X82729500Y-49912351D01*
X80700000Y-49912351D01*
X80700000Y-46923923D01*
X80719685Y-46856884D01*
X80772489Y-46811129D01*
X80823931Y-46799923D01*
X175415936Y-46750065D01*
X175482984Y-46769714D01*
G37*
%TD.AperFunction*%
%TD*%
M02*
