%TF.GenerationSoftware,KiCad,Pcbnew,8.0.1*%
%TF.CreationDate,2024-05-12T20:31:29+01:00*%
%TF.ProjectId,TIMPS2Key,54494d50-5332-44b6-9579-2e6b69636164,rev?*%
%TF.SameCoordinates,Original*%
%TF.FileFunction,Soldermask,Bot*%
%TF.FilePolarity,Negative*%
%FSLAX46Y46*%
G04 Gerber Fmt 4.6, Leading zero omitted, Abs format (unit mm)*
G04 Created by KiCad (PCBNEW 8.0.1) date 2024-05-12 20:31:29*
%MOMM*%
%LPD*%
G01*
G04 APERTURE LIST*
%ADD10C,1.449000*%
%ADD11R,1.200000X1.200000*%
%ADD12C,1.200000*%
%ADD13C,2.390000*%
%ADD14R,2.100000X2.100000*%
%ADD15C,2.100000*%
%ADD16R,1.600000X1.600000*%
%ADD17C,1.600000*%
%ADD18O,3.500000X2.000000*%
%ADD19O,2.000000X4.000000*%
%ADD20C,1.400000*%
%ADD21O,1.400000X1.400000*%
%ADD22R,1.700000X1.700000*%
%ADD23O,1.700000X1.700000*%
%ADD24R,1.800000X1.800000*%
%ADD25C,1.800000*%
%ADD26R,1.500000X1.500000*%
%ADD27C,1.500000*%
%ADD28C,1.780000*%
%ADD29O,1.600000X1.600000*%
%ADD30R,1.905000X2.000000*%
%ADD31O,1.905000X2.000000*%
G04 APERTURE END LIST*
D10*
%TO.C,J1*%
X88914500Y-55470000D02*
G75*
G02*
X87465500Y-55470000I-724500J0D01*
G01*
X87465500Y-55470000D02*
G75*
G02*
X88914500Y-55470000I724500J0D01*
G01*
X88914500Y-70480000D02*
G75*
G02*
X87465500Y-70480000I-724500J0D01*
G01*
X87465500Y-70480000D02*
G75*
G02*
X88914500Y-70480000I724500J0D01*
G01*
%TD*%
D11*
%TO.C,C8*%
X152100000Y-53240000D03*
D12*
X152100000Y-55240000D03*
%TD*%
D13*
%TO.C,J1*%
X88190000Y-70480000D03*
X88190000Y-55470000D03*
D14*
X93200000Y-70480000D03*
D15*
X93200000Y-62975000D03*
X93200000Y-55470000D03*
X95690000Y-67980000D03*
X95690000Y-57970000D03*
X83193200Y-67980000D03*
X83193200Y-65475000D03*
X83193200Y-62924200D03*
X83193200Y-60475000D03*
X83193200Y-57970000D03*
%TD*%
D16*
%TO.C,J2*%
X166900000Y-61655000D03*
D17*
X166900000Y-64255000D03*
X166900000Y-59555000D03*
X166900000Y-66355000D03*
X164100000Y-59555000D03*
X164100000Y-66355000D03*
D18*
X169750000Y-69805000D03*
D19*
X170550000Y-62955000D03*
D18*
X169750000Y-56105000D03*
%TD*%
D20*
%TO.C,R2*%
X98680000Y-55350000D03*
D21*
X106300000Y-55350000D03*
%TD*%
D20*
%TO.C,R4*%
X158450000Y-51520000D03*
D21*
X158450000Y-59140000D03*
%TD*%
D11*
%TO.C,C7*%
X144170000Y-48500000D03*
D12*
X144170000Y-50500000D03*
%TD*%
D20*
%TO.C,R5*%
X156300000Y-51520000D03*
D21*
X156300000Y-59140000D03*
%TD*%
D22*
%TO.C,J4*%
X144130000Y-58450000D03*
D23*
X146670000Y-58450000D03*
X149210000Y-58450000D03*
X151750000Y-58450000D03*
%TD*%
D15*
%TO.C,H3*%
X172550000Y-49810000D03*
%TD*%
D24*
%TO.C,D1*%
X165400000Y-51880000D03*
D25*
X165400000Y-49340000D03*
%TD*%
D17*
%TO.C,C4*%
X115900000Y-50660000D03*
X115900000Y-55660000D03*
%TD*%
D20*
%TO.C,R3*%
X106090000Y-57550000D03*
D21*
X113710000Y-57550000D03*
%TD*%
D26*
%TO.C,Q1*%
X106750000Y-51250000D03*
D27*
X109290000Y-51250000D03*
X111830000Y-51250000D03*
%TD*%
D22*
%TO.C,J3*%
X93000000Y-49930000D03*
D23*
X90460000Y-49930000D03*
%TD*%
D16*
%TO.C,BZ1*%
X102150000Y-65900000D03*
D17*
X108650000Y-65900000D03*
%TD*%
D15*
%TO.C,H2*%
X84030000Y-49810000D03*
%TD*%
%TO.C,H5*%
X172550000Y-76010000D03*
%TD*%
%TO.C,H4*%
X84030000Y-76010000D03*
%TD*%
D28*
%TO.C,U1*%
X114360000Y-77160000D03*
X155000000Y-77160000D03*
X114360000Y-61920000D03*
X155000000Y-61920000D03*
D16*
X116900000Y-77160000D03*
D29*
X119440000Y-77160000D03*
X121980000Y-77160000D03*
X124520000Y-77160000D03*
X127060000Y-77160000D03*
X129600000Y-77160000D03*
X132140000Y-77160000D03*
X134680000Y-77160000D03*
X137220000Y-77160000D03*
X139760000Y-77160000D03*
X142300000Y-77160000D03*
X144840000Y-77160000D03*
X147380000Y-77160000D03*
X149920000Y-77160000D03*
X152460000Y-77160000D03*
X152460000Y-61920000D03*
X149920000Y-61920000D03*
X147380000Y-61920000D03*
X144840000Y-61920000D03*
X142300000Y-61920000D03*
X139760000Y-61920000D03*
X137220000Y-61920000D03*
X134680000Y-61920000D03*
X132140000Y-61920000D03*
X129600000Y-61920000D03*
X127060000Y-61920000D03*
X124520000Y-61920000D03*
X121980000Y-61920000D03*
X119440000Y-61920000D03*
X116900000Y-61920000D03*
%TD*%
D16*
%TO.C,C1*%
X99370000Y-50260000D03*
D17*
X101370000Y-50260000D03*
%TD*%
D30*
%TO.C,U3*%
X90280000Y-76650000D03*
D31*
X92820000Y-76650000D03*
X95360000Y-76650000D03*
%TD*%
D11*
%TO.C,C5*%
X144170000Y-53240000D03*
D12*
X144170000Y-55240000D03*
%TD*%
D16*
%TO.C,C3*%
X100500000Y-74400000D03*
D17*
X102500000Y-74400000D03*
%TD*%
D16*
%TO.C,U2*%
X136520000Y-49360000D03*
D29*
X133980000Y-49360000D03*
X131440000Y-49360000D03*
X128900000Y-49360000D03*
X126360000Y-49360000D03*
X123820000Y-49360000D03*
X121280000Y-49360000D03*
X118740000Y-49360000D03*
X118740000Y-56980000D03*
X121280000Y-56980000D03*
X123820000Y-56980000D03*
X126360000Y-56980000D03*
X128900000Y-56980000D03*
X131440000Y-56980000D03*
X133980000Y-56980000D03*
X136520000Y-56980000D03*
%TD*%
D11*
%TO.C,C6*%
X152100000Y-48500000D03*
D12*
X152100000Y-50500000D03*
%TD*%
D20*
%TO.C,R1*%
X160600000Y-59150000D03*
D21*
X160600000Y-51530000D03*
%TD*%
M02*
