M48
; DRILL file {KiCad 8.0.1} date 2024-05-12T20:31:26+0100
; FORMAT={-:-/ absolute / inch / decimal}
; #@! TF.CreationDate,2024-05-12T20:31:26+01:00
; #@! TF.GenerationSoftware,Kicad,Pcbnew,8.0.1
; #@! TF.FileFunction,Plated,1,2,PTH
FMAT,2
INCH
; #@! TA.AperFunction,Plated,PTH,ViaDrill
T1C0.0157
; #@! TA.AperFunction,Plated,PTH,ComponentDrill
T2C0.0236
; #@! TA.AperFunction,Plated,PTH,ComponentDrill
T3C0.0276
; #@! TA.AperFunction,Plated,PTH,ComponentDrill
T4C0.0315
; #@! TA.AperFunction,Plated,PTH,ComponentDrill
T5C0.0354
; #@! TA.AperFunction,Plated,PTH,ComponentDrill
T6C0.0394
; #@! TA.AperFunction,Plated,PTH,ComponentDrill
T7C0.0433
; #@! TA.AperFunction,Plated,PTH,ComponentDrill
T8C0.0551
%
G90
G05
T1
X4.4173Y-2.3937
T2
X5.676Y-1.9094
X5.676Y-1.9882
X5.676Y-2.0961
X5.676Y-2.1748
X5.9882Y-1.9094
X5.9882Y-1.9882
X5.9882Y-2.0961
X5.9882Y-2.1748
T3
X3.885Y-2.1791
X4.1768Y-2.2657
X4.185Y-2.1791
X4.4768Y-2.2657
X6.1535Y-2.0283
X6.1535Y-2.3283
X6.2382Y-2.0283
X6.2382Y-2.3283
X6.3228Y-2.0287
X6.3228Y-2.3287
T4
X3.9122Y-1.9787
X3.9567Y-2.9291
X3.9909Y-1.9787
X4.0354Y-2.9291
X4.2028Y-2.0177
X4.3028Y-2.0177
X4.4028Y-2.0177
X4.563Y-1.9945
X4.563Y-2.1913
X4.6748Y-1.9433
X4.6748Y-2.2433
X4.7748Y-1.9433
X4.7748Y-2.2433
X4.8748Y-1.9433
X4.8748Y-2.2433
X4.9748Y-1.9433
X4.9748Y-2.2433
X5.0748Y-1.9433
X5.0748Y-2.2433
X5.1748Y-1.9433
X5.1748Y-2.2433
X5.2748Y-1.9433
X5.2748Y-2.2433
X5.3748Y-1.9433
X5.3748Y-2.2433
X6.4606Y-2.3447
X6.4606Y-2.6124
X6.5709Y-2.3447
X6.5709Y-2.4274
X6.5709Y-2.5297
X6.5709Y-2.6124
T5
X6.5118Y-1.9425
X6.5118Y-2.0425
T6
X3.5614Y-1.9657
X3.6614Y-1.9657
X4.0217Y-2.5945
X4.2776Y-2.5945
X4.6024Y-2.4378
X4.6024Y-3.0378
X4.7024Y-2.4378
X4.7024Y-3.0378
X4.8024Y-2.4378
X4.8024Y-3.0378
X4.9024Y-2.4378
X4.9024Y-3.0378
X5.0024Y-2.4378
X5.0024Y-3.0378
X5.1024Y-2.4378
X5.1024Y-3.0378
X5.2024Y-2.4378
X5.2024Y-3.0378
X5.3024Y-2.4378
X5.3024Y-3.0378
X5.4024Y-2.4378
X5.4024Y-3.0378
X5.5024Y-2.4378
X5.5024Y-3.0378
X5.6024Y-2.4378
X5.6024Y-3.0378
X5.6744Y-2.3012
X5.7024Y-2.4378
X5.7024Y-3.0378
X5.7744Y-2.3012
X5.8024Y-2.4378
X5.8024Y-3.0378
X5.8744Y-2.3012
X5.9024Y-2.4378
X5.9024Y-3.0378
X5.9744Y-2.3012
X6.0024Y-2.4378
X6.0024Y-3.0378
T7
X3.5543Y-3.0177
X3.6543Y-3.0177
X3.7543Y-3.0177
T8
X3.2753Y-2.2823
X3.2753Y-2.3809
X3.2753Y-2.4773
X3.2753Y-2.5778
X3.2753Y-2.6764
X3.6693Y-2.1839
X3.6693Y-2.4793
X3.6693Y-2.7748
X3.7673Y-2.2823
X3.7673Y-2.6764
T6
G00X6.6535Y-2.2089
M15
G01X6.7126Y-2.2089
M16
G05
G00X6.6535Y-2.7482
M15
G01X6.7126Y-2.7482
M16
G05
G00X6.7146Y-2.5179
M15
G01X6.7146Y-2.4392
M16
G05
M30
