%TF.GenerationSoftware,KiCad,Pcbnew,8.0.5*%
%TF.CreationDate,2024-11-15T12:40:46+00:00*%
%TF.ProjectId,TIMPS2KeyMini,54494d50-5332-44b6-9579-4d696e692e6b,rev?*%
%TF.SameCoordinates,Original*%
%TF.FileFunction,Drillmap*%
%TF.FilePolarity,Positive*%
%FSLAX45Y45*%
G04 Gerber Fmt 4.5, Leading zero omitted, Abs format (unit mm)*
G04 Created by KiCad (PCBNEW 8.0.5) date 2024-11-15 12:40:46*
%MOMM*%
%LPD*%
G01*
G04 APERTURE LIST*
%ADD10C,0.100000*%
%ADD11C,0.200000*%
%ADD12C,0.270000*%
G04 APERTURE END LIST*
D10*
X11192500Y-3921000D02*
X13937500Y-3921000D01*
X13937500Y-10376000D01*
X11192500Y-10376000D01*
X11192500Y-3921000D01*
D11*
D12*
X12430000Y-8701500D02*
X12700000Y-8971500D01*
X12700000Y-8701500D02*
X12430000Y-8971500D01*
X13448000Y-5771000D02*
X13718000Y-6041000D01*
X13718000Y-5771000D02*
X13448000Y-6041000D01*
D11*
X11448277Y-10692484D02*
X11448277Y-10492484D01*
X11448277Y-10492484D02*
X11495896Y-10492484D01*
X11495896Y-10492484D02*
X11524467Y-10502008D01*
X11524467Y-10502008D02*
X11543515Y-10521055D01*
X11543515Y-10521055D02*
X11553039Y-10540103D01*
X11553039Y-10540103D02*
X11562562Y-10578198D01*
X11562562Y-10578198D02*
X11562562Y-10606770D01*
X11562562Y-10606770D02*
X11553039Y-10644865D01*
X11553039Y-10644865D02*
X11543515Y-10663912D01*
X11543515Y-10663912D02*
X11524467Y-10682960D01*
X11524467Y-10682960D02*
X11495896Y-10692484D01*
X11495896Y-10692484D02*
X11448277Y-10692484D01*
X11648277Y-10692484D02*
X11648277Y-10559150D01*
X11648277Y-10597246D02*
X11657801Y-10578198D01*
X11657801Y-10578198D02*
X11667324Y-10568674D01*
X11667324Y-10568674D02*
X11686372Y-10559150D01*
X11686372Y-10559150D02*
X11705420Y-10559150D01*
X11772086Y-10692484D02*
X11772086Y-10559150D01*
X11772086Y-10492484D02*
X11762562Y-10502008D01*
X11762562Y-10502008D02*
X11772086Y-10511531D01*
X11772086Y-10511531D02*
X11781610Y-10502008D01*
X11781610Y-10502008D02*
X11772086Y-10492484D01*
X11772086Y-10492484D02*
X11772086Y-10511531D01*
X11895896Y-10692484D02*
X11876848Y-10682960D01*
X11876848Y-10682960D02*
X11867324Y-10663912D01*
X11867324Y-10663912D02*
X11867324Y-10492484D01*
X12000658Y-10692484D02*
X11981610Y-10682960D01*
X11981610Y-10682960D02*
X11972086Y-10663912D01*
X11972086Y-10663912D02*
X11972086Y-10492484D01*
X12229229Y-10692484D02*
X12229229Y-10492484D01*
X12229229Y-10492484D02*
X12295896Y-10635341D01*
X12295896Y-10635341D02*
X12362562Y-10492484D01*
X12362562Y-10492484D02*
X12362562Y-10692484D01*
X12543515Y-10692484D02*
X12543515Y-10587722D01*
X12543515Y-10587722D02*
X12533991Y-10568674D01*
X12533991Y-10568674D02*
X12514943Y-10559150D01*
X12514943Y-10559150D02*
X12476848Y-10559150D01*
X12476848Y-10559150D02*
X12457801Y-10568674D01*
X12543515Y-10682960D02*
X12524467Y-10692484D01*
X12524467Y-10692484D02*
X12476848Y-10692484D01*
X12476848Y-10692484D02*
X12457801Y-10682960D01*
X12457801Y-10682960D02*
X12448277Y-10663912D01*
X12448277Y-10663912D02*
X12448277Y-10644865D01*
X12448277Y-10644865D02*
X12457801Y-10625817D01*
X12457801Y-10625817D02*
X12476848Y-10616293D01*
X12476848Y-10616293D02*
X12524467Y-10616293D01*
X12524467Y-10616293D02*
X12543515Y-10606770D01*
X12638753Y-10559150D02*
X12638753Y-10759150D01*
X12638753Y-10568674D02*
X12657801Y-10559150D01*
X12657801Y-10559150D02*
X12695896Y-10559150D01*
X12695896Y-10559150D02*
X12714943Y-10568674D01*
X12714943Y-10568674D02*
X12724467Y-10578198D01*
X12724467Y-10578198D02*
X12733991Y-10597246D01*
X12733991Y-10597246D02*
X12733991Y-10654389D01*
X12733991Y-10654389D02*
X12724467Y-10673436D01*
X12724467Y-10673436D02*
X12714943Y-10682960D01*
X12714943Y-10682960D02*
X12695896Y-10692484D01*
X12695896Y-10692484D02*
X12657801Y-10692484D01*
X12657801Y-10692484D02*
X12638753Y-10682960D01*
X12819705Y-10673436D02*
X12829229Y-10682960D01*
X12829229Y-10682960D02*
X12819705Y-10692484D01*
X12819705Y-10692484D02*
X12810182Y-10682960D01*
X12810182Y-10682960D02*
X12819705Y-10673436D01*
X12819705Y-10673436D02*
X12819705Y-10692484D01*
X12819705Y-10568674D02*
X12829229Y-10578198D01*
X12829229Y-10578198D02*
X12819705Y-10587722D01*
X12819705Y-10587722D02*
X12810182Y-10578198D01*
X12810182Y-10578198D02*
X12819705Y-10568674D01*
X12819705Y-10568674D02*
X12819705Y-10587722D01*
X10987500Y-10921000D02*
X11187500Y-11121000D01*
X11187500Y-10921000D02*
X10987500Y-11121000D01*
X11438753Y-10931531D02*
X11448277Y-10922008D01*
X11448277Y-10922008D02*
X11467324Y-10912484D01*
X11467324Y-10912484D02*
X11514943Y-10912484D01*
X11514943Y-10912484D02*
X11533991Y-10922008D01*
X11533991Y-10922008D02*
X11543515Y-10931531D01*
X11543515Y-10931531D02*
X11553039Y-10950579D01*
X11553039Y-10950579D02*
X11553039Y-10969627D01*
X11553039Y-10969627D02*
X11543515Y-10998198D01*
X11543515Y-10998198D02*
X11429229Y-11112484D01*
X11429229Y-11112484D02*
X11553039Y-11112484D01*
X11638753Y-11093436D02*
X11648277Y-11102960D01*
X11648277Y-11102960D02*
X11638753Y-11112484D01*
X11638753Y-11112484D02*
X11629229Y-11102960D01*
X11629229Y-11102960D02*
X11638753Y-11093436D01*
X11638753Y-11093436D02*
X11638753Y-11112484D01*
X11714943Y-10912484D02*
X11848277Y-10912484D01*
X11848277Y-10912484D02*
X11762562Y-11112484D01*
X11962562Y-10912484D02*
X11981610Y-10912484D01*
X11981610Y-10912484D02*
X12000658Y-10922008D01*
X12000658Y-10922008D02*
X12010182Y-10931531D01*
X12010182Y-10931531D02*
X12019705Y-10950579D01*
X12019705Y-10950579D02*
X12029229Y-10988674D01*
X12029229Y-10988674D02*
X12029229Y-11036293D01*
X12029229Y-11036293D02*
X12019705Y-11074389D01*
X12019705Y-11074389D02*
X12010182Y-11093436D01*
X12010182Y-11093436D02*
X12000658Y-11102960D01*
X12000658Y-11102960D02*
X11981610Y-11112484D01*
X11981610Y-11112484D02*
X11962562Y-11112484D01*
X11962562Y-11112484D02*
X11943515Y-11102960D01*
X11943515Y-11102960D02*
X11933991Y-11093436D01*
X11933991Y-11093436D02*
X11924467Y-11074389D01*
X11924467Y-11074389D02*
X11914943Y-11036293D01*
X11914943Y-11036293D02*
X11914943Y-10988674D01*
X11914943Y-10988674D02*
X11924467Y-10950579D01*
X11924467Y-10950579D02*
X11933991Y-10931531D01*
X11933991Y-10931531D02*
X11943515Y-10922008D01*
X11943515Y-10922008D02*
X11962562Y-10912484D01*
X12153039Y-10912484D02*
X12172086Y-10912484D01*
X12172086Y-10912484D02*
X12191134Y-10922008D01*
X12191134Y-10922008D02*
X12200658Y-10931531D01*
X12200658Y-10931531D02*
X12210182Y-10950579D01*
X12210182Y-10950579D02*
X12219705Y-10988674D01*
X12219705Y-10988674D02*
X12219705Y-11036293D01*
X12219705Y-11036293D02*
X12210182Y-11074389D01*
X12210182Y-11074389D02*
X12200658Y-11093436D01*
X12200658Y-11093436D02*
X12191134Y-11102960D01*
X12191134Y-11102960D02*
X12172086Y-11112484D01*
X12172086Y-11112484D02*
X12153039Y-11112484D01*
X12153039Y-11112484D02*
X12133991Y-11102960D01*
X12133991Y-11102960D02*
X12124467Y-11093436D01*
X12124467Y-11093436D02*
X12114943Y-11074389D01*
X12114943Y-11074389D02*
X12105420Y-11036293D01*
X12105420Y-11036293D02*
X12105420Y-10988674D01*
X12105420Y-10988674D02*
X12114943Y-10950579D01*
X12114943Y-10950579D02*
X12124467Y-10931531D01*
X12124467Y-10931531D02*
X12133991Y-10922008D01*
X12133991Y-10922008D02*
X12153039Y-10912484D01*
X12305420Y-11112484D02*
X12305420Y-10979150D01*
X12305420Y-10998198D02*
X12314943Y-10988674D01*
X12314943Y-10988674D02*
X12333991Y-10979150D01*
X12333991Y-10979150D02*
X12362563Y-10979150D01*
X12362563Y-10979150D02*
X12381610Y-10988674D01*
X12381610Y-10988674D02*
X12391134Y-11007722D01*
X12391134Y-11007722D02*
X12391134Y-11112484D01*
X12391134Y-11007722D02*
X12400658Y-10988674D01*
X12400658Y-10988674D02*
X12419705Y-10979150D01*
X12419705Y-10979150D02*
X12448277Y-10979150D01*
X12448277Y-10979150D02*
X12467324Y-10988674D01*
X12467324Y-10988674D02*
X12476848Y-11007722D01*
X12476848Y-11007722D02*
X12476848Y-11112484D01*
X12572086Y-11112484D02*
X12572086Y-10979150D01*
X12572086Y-10998198D02*
X12581610Y-10988674D01*
X12581610Y-10988674D02*
X12600658Y-10979150D01*
X12600658Y-10979150D02*
X12629229Y-10979150D01*
X12629229Y-10979150D02*
X12648277Y-10988674D01*
X12648277Y-10988674D02*
X12657801Y-11007722D01*
X12657801Y-11007722D02*
X12657801Y-11112484D01*
X12657801Y-11007722D02*
X12667324Y-10988674D01*
X12667324Y-10988674D02*
X12686372Y-10979150D01*
X12686372Y-10979150D02*
X12714943Y-10979150D01*
X12714943Y-10979150D02*
X12733991Y-10988674D01*
X12733991Y-10988674D02*
X12743515Y-11007722D01*
X12743515Y-11007722D02*
X12743515Y-11112484D01*
X13133991Y-10902960D02*
X12962563Y-11160103D01*
X13391134Y-10912484D02*
X13410182Y-10912484D01*
X13410182Y-10912484D02*
X13429229Y-10922008D01*
X13429229Y-10922008D02*
X13438753Y-10931531D01*
X13438753Y-10931531D02*
X13448277Y-10950579D01*
X13448277Y-10950579D02*
X13457801Y-10988674D01*
X13457801Y-10988674D02*
X13457801Y-11036293D01*
X13457801Y-11036293D02*
X13448277Y-11074389D01*
X13448277Y-11074389D02*
X13438753Y-11093436D01*
X13438753Y-11093436D02*
X13429229Y-11102960D01*
X13429229Y-11102960D02*
X13410182Y-11112484D01*
X13410182Y-11112484D02*
X13391134Y-11112484D01*
X13391134Y-11112484D02*
X13372086Y-11102960D01*
X13372086Y-11102960D02*
X13362563Y-11093436D01*
X13362563Y-11093436D02*
X13353039Y-11074389D01*
X13353039Y-11074389D02*
X13343515Y-11036293D01*
X13343515Y-11036293D02*
X13343515Y-10988674D01*
X13343515Y-10988674D02*
X13353039Y-10950579D01*
X13353039Y-10950579D02*
X13362563Y-10931531D01*
X13362563Y-10931531D02*
X13372086Y-10922008D01*
X13372086Y-10922008D02*
X13391134Y-10912484D01*
X13543515Y-11093436D02*
X13553039Y-11102960D01*
X13553039Y-11102960D02*
X13543515Y-11112484D01*
X13543515Y-11112484D02*
X13533991Y-11102960D01*
X13533991Y-11102960D02*
X13543515Y-11093436D01*
X13543515Y-11093436D02*
X13543515Y-11112484D01*
X13743515Y-11112484D02*
X13629229Y-11112484D01*
X13686372Y-11112484D02*
X13686372Y-10912484D01*
X13686372Y-10912484D02*
X13667325Y-10941055D01*
X13667325Y-10941055D02*
X13648277Y-10960103D01*
X13648277Y-10960103D02*
X13629229Y-10969627D01*
X13867325Y-10912484D02*
X13886372Y-10912484D01*
X13886372Y-10912484D02*
X13905420Y-10922008D01*
X13905420Y-10922008D02*
X13914944Y-10931531D01*
X13914944Y-10931531D02*
X13924467Y-10950579D01*
X13924467Y-10950579D02*
X13933991Y-10988674D01*
X13933991Y-10988674D02*
X13933991Y-11036293D01*
X13933991Y-11036293D02*
X13924467Y-11074389D01*
X13924467Y-11074389D02*
X13914944Y-11093436D01*
X13914944Y-11093436D02*
X13905420Y-11102960D01*
X13905420Y-11102960D02*
X13886372Y-11112484D01*
X13886372Y-11112484D02*
X13867325Y-11112484D01*
X13867325Y-11112484D02*
X13848277Y-11102960D01*
X13848277Y-11102960D02*
X13838753Y-11093436D01*
X13838753Y-11093436D02*
X13829229Y-11074389D01*
X13829229Y-11074389D02*
X13819706Y-11036293D01*
X13819706Y-11036293D02*
X13819706Y-10988674D01*
X13819706Y-10988674D02*
X13829229Y-10950579D01*
X13829229Y-10950579D02*
X13838753Y-10931531D01*
X13838753Y-10931531D02*
X13848277Y-10922008D01*
X13848277Y-10922008D02*
X13867325Y-10912484D01*
X14105420Y-10912484D02*
X14067325Y-10912484D01*
X14067325Y-10912484D02*
X14048277Y-10922008D01*
X14048277Y-10922008D02*
X14038753Y-10931531D01*
X14038753Y-10931531D02*
X14019706Y-10960103D01*
X14019706Y-10960103D02*
X14010182Y-10998198D01*
X14010182Y-10998198D02*
X14010182Y-11074389D01*
X14010182Y-11074389D02*
X14019706Y-11093436D01*
X14019706Y-11093436D02*
X14029229Y-11102960D01*
X14029229Y-11102960D02*
X14048277Y-11112484D01*
X14048277Y-11112484D02*
X14086372Y-11112484D01*
X14086372Y-11112484D02*
X14105420Y-11102960D01*
X14105420Y-11102960D02*
X14114944Y-11093436D01*
X14114944Y-11093436D02*
X14124467Y-11074389D01*
X14124467Y-11074389D02*
X14124467Y-11026770D01*
X14124467Y-11026770D02*
X14114944Y-11007722D01*
X14114944Y-11007722D02*
X14105420Y-10998198D01*
X14105420Y-10998198D02*
X14086372Y-10988674D01*
X14086372Y-10988674D02*
X14048277Y-10988674D01*
X14048277Y-10988674D02*
X14029229Y-10998198D01*
X14029229Y-10998198D02*
X14019706Y-11007722D01*
X14019706Y-11007722D02*
X14010182Y-11026770D01*
X14191134Y-10912484D02*
X14314944Y-10912484D01*
X14314944Y-10912484D02*
X14248277Y-10988674D01*
X14248277Y-10988674D02*
X14276848Y-10988674D01*
X14276848Y-10988674D02*
X14295896Y-10998198D01*
X14295896Y-10998198D02*
X14305420Y-11007722D01*
X14305420Y-11007722D02*
X14314944Y-11026770D01*
X14314944Y-11026770D02*
X14314944Y-11074389D01*
X14314944Y-11074389D02*
X14305420Y-11093436D01*
X14305420Y-11093436D02*
X14295896Y-11102960D01*
X14295896Y-11102960D02*
X14276848Y-11112484D01*
X14276848Y-11112484D02*
X14219706Y-11112484D01*
X14219706Y-11112484D02*
X14200658Y-11102960D01*
X14200658Y-11102960D02*
X14191134Y-11093436D01*
X14391134Y-10912484D02*
X14391134Y-10950579D01*
X14467325Y-10912484D02*
X14467325Y-10950579D01*
X14762563Y-11188674D02*
X14753039Y-11179150D01*
X14753039Y-11179150D02*
X14733991Y-11150579D01*
X14733991Y-11150579D02*
X14724468Y-11131531D01*
X14724468Y-11131531D02*
X14714944Y-11102960D01*
X14714944Y-11102960D02*
X14705420Y-11055341D01*
X14705420Y-11055341D02*
X14705420Y-11017246D01*
X14705420Y-11017246D02*
X14714944Y-10969627D01*
X14714944Y-10969627D02*
X14724468Y-10941055D01*
X14724468Y-10941055D02*
X14733991Y-10922008D01*
X14733991Y-10922008D02*
X14753039Y-10893436D01*
X14753039Y-10893436D02*
X14762563Y-10883912D01*
X14829229Y-10931531D02*
X14838753Y-10922008D01*
X14838753Y-10922008D02*
X14857801Y-10912484D01*
X14857801Y-10912484D02*
X14905420Y-10912484D01*
X14905420Y-10912484D02*
X14924468Y-10922008D01*
X14924468Y-10922008D02*
X14933991Y-10931531D01*
X14933991Y-10931531D02*
X14943515Y-10950579D01*
X14943515Y-10950579D02*
X14943515Y-10969627D01*
X14943515Y-10969627D02*
X14933991Y-10998198D01*
X14933991Y-10998198D02*
X14819706Y-11112484D01*
X14819706Y-11112484D02*
X14943515Y-11112484D01*
X15181610Y-11112484D02*
X15181610Y-10912484D01*
X15267325Y-11112484D02*
X15267325Y-11007722D01*
X15267325Y-11007722D02*
X15257801Y-10988674D01*
X15257801Y-10988674D02*
X15238753Y-10979150D01*
X15238753Y-10979150D02*
X15210182Y-10979150D01*
X15210182Y-10979150D02*
X15191134Y-10988674D01*
X15191134Y-10988674D02*
X15181610Y-10998198D01*
X15391134Y-11112484D02*
X15372087Y-11102960D01*
X15372087Y-11102960D02*
X15362563Y-11093436D01*
X15362563Y-11093436D02*
X15353039Y-11074389D01*
X15353039Y-11074389D02*
X15353039Y-11017246D01*
X15353039Y-11017246D02*
X15362563Y-10998198D01*
X15362563Y-10998198D02*
X15372087Y-10988674D01*
X15372087Y-10988674D02*
X15391134Y-10979150D01*
X15391134Y-10979150D02*
X15419706Y-10979150D01*
X15419706Y-10979150D02*
X15438753Y-10988674D01*
X15438753Y-10988674D02*
X15448277Y-10998198D01*
X15448277Y-10998198D02*
X15457801Y-11017246D01*
X15457801Y-11017246D02*
X15457801Y-11074389D01*
X15457801Y-11074389D02*
X15448277Y-11093436D01*
X15448277Y-11093436D02*
X15438753Y-11102960D01*
X15438753Y-11102960D02*
X15419706Y-11112484D01*
X15419706Y-11112484D02*
X15391134Y-11112484D01*
X15572087Y-11112484D02*
X15553039Y-11102960D01*
X15553039Y-11102960D02*
X15543515Y-11083912D01*
X15543515Y-11083912D02*
X15543515Y-10912484D01*
X15724468Y-11102960D02*
X15705420Y-11112484D01*
X15705420Y-11112484D02*
X15667325Y-11112484D01*
X15667325Y-11112484D02*
X15648277Y-11102960D01*
X15648277Y-11102960D02*
X15638753Y-11083912D01*
X15638753Y-11083912D02*
X15638753Y-11007722D01*
X15638753Y-11007722D02*
X15648277Y-10988674D01*
X15648277Y-10988674D02*
X15667325Y-10979150D01*
X15667325Y-10979150D02*
X15705420Y-10979150D01*
X15705420Y-10979150D02*
X15724468Y-10988674D01*
X15724468Y-10988674D02*
X15733991Y-11007722D01*
X15733991Y-11007722D02*
X15733991Y-11026770D01*
X15733991Y-11026770D02*
X15638753Y-11045817D01*
X15810182Y-11102960D02*
X15829230Y-11112484D01*
X15829230Y-11112484D02*
X15867325Y-11112484D01*
X15867325Y-11112484D02*
X15886372Y-11102960D01*
X15886372Y-11102960D02*
X15895896Y-11083912D01*
X15895896Y-11083912D02*
X15895896Y-11074389D01*
X15895896Y-11074389D02*
X15886372Y-11055341D01*
X15886372Y-11055341D02*
X15867325Y-11045817D01*
X15867325Y-11045817D02*
X15838753Y-11045817D01*
X15838753Y-11045817D02*
X15819706Y-11036293D01*
X15819706Y-11036293D02*
X15810182Y-11017246D01*
X15810182Y-11017246D02*
X15810182Y-11007722D01*
X15810182Y-11007722D02*
X15819706Y-10988674D01*
X15819706Y-10988674D02*
X15838753Y-10979150D01*
X15838753Y-10979150D02*
X15867325Y-10979150D01*
X15867325Y-10979150D02*
X15886372Y-10988674D01*
X15962563Y-11188674D02*
X15972087Y-11179150D01*
X15972087Y-11179150D02*
X15991134Y-11150579D01*
X15991134Y-11150579D02*
X16000658Y-11131531D01*
X16000658Y-11131531D02*
X16010182Y-11102960D01*
X16010182Y-11102960D02*
X16019706Y-11055341D01*
X16019706Y-11055341D02*
X16019706Y-11017246D01*
X16019706Y-11017246D02*
X16010182Y-10969627D01*
X16010182Y-10969627D02*
X16000658Y-10941055D01*
X16000658Y-10941055D02*
X15991134Y-10922008D01*
X15991134Y-10922008D02*
X15972087Y-10893436D01*
X15972087Y-10893436D02*
X15962563Y-10883912D01*
X16324468Y-11188674D02*
X16314944Y-11179150D01*
X16314944Y-11179150D02*
X16295896Y-11150579D01*
X16295896Y-11150579D02*
X16286372Y-11131531D01*
X16286372Y-11131531D02*
X16276849Y-11102960D01*
X16276849Y-11102960D02*
X16267325Y-11055341D01*
X16267325Y-11055341D02*
X16267325Y-11017246D01*
X16267325Y-11017246D02*
X16276849Y-10969627D01*
X16276849Y-10969627D02*
X16286372Y-10941055D01*
X16286372Y-10941055D02*
X16295896Y-10922008D01*
X16295896Y-10922008D02*
X16314944Y-10893436D01*
X16314944Y-10893436D02*
X16324468Y-10883912D01*
X16400658Y-10979150D02*
X16400658Y-11112484D01*
X16400658Y-10998198D02*
X16410182Y-10988674D01*
X16410182Y-10988674D02*
X16429230Y-10979150D01*
X16429230Y-10979150D02*
X16457801Y-10979150D01*
X16457801Y-10979150D02*
X16476849Y-10988674D01*
X16476849Y-10988674D02*
X16486372Y-11007722D01*
X16486372Y-11007722D02*
X16486372Y-11112484D01*
X16610182Y-11112484D02*
X16591134Y-11102960D01*
X16591134Y-11102960D02*
X16581611Y-11093436D01*
X16581611Y-11093436D02*
X16572087Y-11074389D01*
X16572087Y-11074389D02*
X16572087Y-11017246D01*
X16572087Y-11017246D02*
X16581611Y-10998198D01*
X16581611Y-10998198D02*
X16591134Y-10988674D01*
X16591134Y-10988674D02*
X16610182Y-10979150D01*
X16610182Y-10979150D02*
X16638753Y-10979150D01*
X16638753Y-10979150D02*
X16657801Y-10988674D01*
X16657801Y-10988674D02*
X16667325Y-10998198D01*
X16667325Y-10998198D02*
X16676849Y-11017246D01*
X16676849Y-11017246D02*
X16676849Y-11074389D01*
X16676849Y-11074389D02*
X16667325Y-11093436D01*
X16667325Y-11093436D02*
X16657801Y-11102960D01*
X16657801Y-11102960D02*
X16638753Y-11112484D01*
X16638753Y-11112484D02*
X16610182Y-11112484D01*
X16733992Y-10979150D02*
X16810182Y-10979150D01*
X16762563Y-10912484D02*
X16762563Y-11083912D01*
X16762563Y-11083912D02*
X16772087Y-11102960D01*
X16772087Y-11102960D02*
X16791134Y-11112484D01*
X16791134Y-11112484D02*
X16810182Y-11112484D01*
X17029230Y-10979150D02*
X17029230Y-11179150D01*
X17029230Y-10988674D02*
X17048277Y-10979150D01*
X17048277Y-10979150D02*
X17086373Y-10979150D01*
X17086373Y-10979150D02*
X17105420Y-10988674D01*
X17105420Y-10988674D02*
X17114944Y-10998198D01*
X17114944Y-10998198D02*
X17124468Y-11017246D01*
X17124468Y-11017246D02*
X17124468Y-11074389D01*
X17124468Y-11074389D02*
X17114944Y-11093436D01*
X17114944Y-11093436D02*
X17105420Y-11102960D01*
X17105420Y-11102960D02*
X17086373Y-11112484D01*
X17086373Y-11112484D02*
X17048277Y-11112484D01*
X17048277Y-11112484D02*
X17029230Y-11102960D01*
X17238754Y-11112484D02*
X17219706Y-11102960D01*
X17219706Y-11102960D02*
X17210182Y-11083912D01*
X17210182Y-11083912D02*
X17210182Y-10912484D01*
X17400658Y-11112484D02*
X17400658Y-11007722D01*
X17400658Y-11007722D02*
X17391135Y-10988674D01*
X17391135Y-10988674D02*
X17372087Y-10979150D01*
X17372087Y-10979150D02*
X17333992Y-10979150D01*
X17333992Y-10979150D02*
X17314944Y-10988674D01*
X17400658Y-11102960D02*
X17381611Y-11112484D01*
X17381611Y-11112484D02*
X17333992Y-11112484D01*
X17333992Y-11112484D02*
X17314944Y-11102960D01*
X17314944Y-11102960D02*
X17305420Y-11083912D01*
X17305420Y-11083912D02*
X17305420Y-11064865D01*
X17305420Y-11064865D02*
X17314944Y-11045817D01*
X17314944Y-11045817D02*
X17333992Y-11036293D01*
X17333992Y-11036293D02*
X17381611Y-11036293D01*
X17381611Y-11036293D02*
X17400658Y-11026770D01*
X17467325Y-10979150D02*
X17543515Y-10979150D01*
X17495896Y-10912484D02*
X17495896Y-11083912D01*
X17495896Y-11083912D02*
X17505420Y-11102960D01*
X17505420Y-11102960D02*
X17524468Y-11112484D01*
X17524468Y-11112484D02*
X17543515Y-11112484D01*
X17686373Y-11102960D02*
X17667325Y-11112484D01*
X17667325Y-11112484D02*
X17629230Y-11112484D01*
X17629230Y-11112484D02*
X17610182Y-11102960D01*
X17610182Y-11102960D02*
X17600658Y-11083912D01*
X17600658Y-11083912D02*
X17600658Y-11007722D01*
X17600658Y-11007722D02*
X17610182Y-10988674D01*
X17610182Y-10988674D02*
X17629230Y-10979150D01*
X17629230Y-10979150D02*
X17667325Y-10979150D01*
X17667325Y-10979150D02*
X17686373Y-10988674D01*
X17686373Y-10988674D02*
X17695896Y-11007722D01*
X17695896Y-11007722D02*
X17695896Y-11026770D01*
X17695896Y-11026770D02*
X17600658Y-11045817D01*
X17867325Y-11112484D02*
X17867325Y-10912484D01*
X17867325Y-11102960D02*
X17848277Y-11112484D01*
X17848277Y-11112484D02*
X17810182Y-11112484D01*
X17810182Y-11112484D02*
X17791135Y-11102960D01*
X17791135Y-11102960D02*
X17781611Y-11093436D01*
X17781611Y-11093436D02*
X17772087Y-11074389D01*
X17772087Y-11074389D02*
X17772087Y-11017246D01*
X17772087Y-11017246D02*
X17781611Y-10998198D01*
X17781611Y-10998198D02*
X17791135Y-10988674D01*
X17791135Y-10988674D02*
X17810182Y-10979150D01*
X17810182Y-10979150D02*
X17848277Y-10979150D01*
X17848277Y-10979150D02*
X17867325Y-10988674D01*
X17943516Y-11188674D02*
X17953039Y-11179150D01*
X17953039Y-11179150D02*
X17972087Y-11150579D01*
X17972087Y-11150579D02*
X17981611Y-11131531D01*
X17981611Y-11131531D02*
X17991135Y-11102960D01*
X17991135Y-11102960D02*
X18000658Y-11055341D01*
X18000658Y-11055341D02*
X18000658Y-11017246D01*
X18000658Y-11017246D02*
X17991135Y-10969627D01*
X17991135Y-10969627D02*
X17981611Y-10941055D01*
X17981611Y-10941055D02*
X17972087Y-10922008D01*
X17972087Y-10922008D02*
X17953039Y-10893436D01*
X17953039Y-10893436D02*
X17943516Y-10883912D01*
M02*
