%TF.GenerationSoftware,KiCad,Pcbnew,8.0.5*%
%TF.CreationDate,2024-11-15T12:40:48+00:00*%
%TF.ProjectId,TIMPS2KeyMini,54494d50-5332-44b6-9579-4d696e692e6b,rev?*%
%TF.SameCoordinates,Original*%
%TF.FileFunction,Copper,L1,Top*%
%TF.FilePolarity,Positive*%
%FSLAX46Y46*%
G04 Gerber Fmt 4.6, Leading zero omitted, Abs format (unit mm)*
G04 Created by KiCad (PCBNEW 8.0.5) date 2024-11-15 12:40:48*
%MOMM*%
%LPD*%
G01*
G04 APERTURE LIST*
%TA.AperFunction,ComponentPad*%
%ADD10R,1.600000X1.600000*%
%TD*%
%TA.AperFunction,ComponentPad*%
%ADD11C,1.600000*%
%TD*%
%TA.AperFunction,ComponentPad*%
%ADD12R,1.700000X1.700000*%
%TD*%
%TA.AperFunction,ComponentPad*%
%ADD13O,1.700000X1.700000*%
%TD*%
%TA.AperFunction,ComponentPad*%
%ADD14R,1.500000X1.500000*%
%TD*%
%TA.AperFunction,ComponentPad*%
%ADD15C,1.500000*%
%TD*%
%TA.AperFunction,ComponentPad*%
%ADD16R,1.800000X1.800000*%
%TD*%
%TA.AperFunction,ComponentPad*%
%ADD17C,1.800000*%
%TD*%
%TA.AperFunction,ComponentPad*%
%ADD18O,1.600000X1.600000*%
%TD*%
%TA.AperFunction,ComponentPad*%
%ADD19O,2.000000X3.500000*%
%TD*%
%TA.AperFunction,ComponentPad*%
%ADD20O,4.000000X2.000000*%
%TD*%
%TA.AperFunction,ViaPad*%
%ADD21C,0.800000*%
%TD*%
%TA.AperFunction,Conductor*%
%ADD22C,0.600000*%
%TD*%
%TA.AperFunction,Conductor*%
%ADD23C,0.400000*%
%TD*%
G04 APERTURE END LIST*
D10*
%TO.P,BZ1,1,+*%
%TO.N,+5V*%
X129040000Y-70680000D03*
D11*
%TO.P,BZ1,2,-*%
%TO.N,Net-(BZ1--)*%
X135540000Y-70680000D03*
%TD*%
%TO.P,C2,1*%
%TO.N,Net-(U4-AREF)*%
X124140000Y-85310000D03*
%TO.P,C2,2*%
%TO.N,GND*%
X124140000Y-80230000D03*
%TD*%
D12*
%TO.P,J5,1,Pin_1*%
%TO.N,+5V*%
X121845000Y-62365000D03*
D13*
%TO.P,J5,2,Pin_2*%
%TO.N,N_RX*%
X124385000Y-62365000D03*
%TO.P,J5,3,Pin_3*%
%TO.N,N_TX*%
X126925000Y-62365000D03*
%TO.P,J5,4,Pin_4*%
%TO.N,GND*%
X129465000Y-62365000D03*
%TD*%
D14*
%TO.P,Q1,1,C*%
%TO.N,Net-(BZ1--)*%
X129920000Y-87450000D03*
D15*
%TO.P,Q1,2,B*%
%TO.N,Net-(Q1-B)*%
X132460000Y-87450000D03*
%TO.P,Q1,3,E*%
%TO.N,Net-(Q1-E)*%
X135000000Y-87450000D03*
%TD*%
%TO.P,Y1,1,1*%
%TO.N,Net-(U4-PB6)*%
X128520000Y-94030000D03*
%TO.P,Y1,2,2*%
%TO.N,Net-(U4-PB7)*%
X133400000Y-94030000D03*
%TD*%
D16*
%TO.P,D1,1,K*%
%TO.N,GND*%
X133745000Y-53690000D03*
D17*
%TO.P,D1,2,A*%
%TO.N,Net-(D1-A)*%
X136285000Y-53690000D03*
%TD*%
D11*
%TO.P,R1,1*%
%TO.N,+5V*%
X121910000Y-54640000D03*
D18*
%TO.P,R1,2*%
%TO.N,Net-(D1-A)*%
X129530000Y-54640000D03*
%TD*%
D11*
%TO.P,C9,1*%
%TO.N,Net-(U4-PB6)*%
X124770000Y-98310000D03*
%TO.P,C9,2*%
%TO.N,GND*%
X129850000Y-98310000D03*
%TD*%
%TO.P,R2,1*%
%TO.N,GND*%
X134480000Y-79340000D03*
D18*
%TO.P,R2,2*%
%TO.N,Net-(Q1-E)*%
X126860000Y-79340000D03*
%TD*%
D10*
%TO.P,U4,1,PC6*%
%TO.N,ADRESET*%
X113620000Y-67650000D03*
D18*
%TO.P,U4,2,PD0*%
%TO.N,/AD0*%
X113620000Y-70190000D03*
%TO.P,U4,3,PD1*%
%TO.N,/AD1*%
X113620000Y-72730000D03*
%TO.P,U4,4,PD2*%
%TO.N,/AD2*%
X113620000Y-75270000D03*
%TO.P,U4,5,PD3*%
%TO.N,PS2-CLK*%
X113620000Y-77810000D03*
%TO.P,U4,6,PD4*%
%TO.N,/AD4*%
X113620000Y-80350000D03*
%TO.P,U4,7,VCC*%
%TO.N,+5V*%
X113620000Y-82890000D03*
%TO.P,U4,8,GND*%
%TO.N,GND*%
X113620000Y-85430000D03*
%TO.P,U4,9,PB6*%
%TO.N,Net-(U4-PB6)*%
X113620000Y-87970000D03*
%TO.P,U4,10,PB7*%
%TO.N,Net-(U4-PB7)*%
X113620000Y-90510000D03*
%TO.P,U4,11,PD5*%
%TO.N,/AD5*%
X113620000Y-93050000D03*
%TO.P,U4,12,PD6*%
%TO.N,/AD6*%
X113620000Y-95590000D03*
%TO.P,U4,13,PD7*%
%TO.N,/AD7*%
X113620000Y-98130000D03*
%TO.P,U4,14,PB0*%
%TO.N,/AD8*%
X113620000Y-100670000D03*
%TO.P,U4,15,PB1*%
%TO.N,/AD9*%
X121230000Y-100670000D03*
%TO.P,U4,16,PB2*%
%TO.N,/AD10*%
X121230000Y-98130000D03*
%TO.P,U4,17,PB3*%
%TO.N,/AD11*%
X121230000Y-95590000D03*
%TO.P,U4,18,PB4*%
%TO.N,PS2-DATA*%
X121230000Y-93050000D03*
%TO.P,U4,19,PB5*%
%TO.N,/AD13*%
X121230000Y-90510000D03*
%TO.P,U4,20,AVCC*%
%TO.N,+5V*%
X121230000Y-87970000D03*
%TO.P,U4,21,AREF*%
%TO.N,Net-(U4-AREF)*%
X121230000Y-85430000D03*
%TO.P,U4,22,GND*%
%TO.N,GND*%
X121230000Y-82890000D03*
%TO.P,U4,23,PC0*%
%TO.N,SOUND*%
X121230000Y-80350000D03*
%TO.P,U4,24,PC1*%
%TO.N,/AA1*%
X121230000Y-77810000D03*
%TO.P,U4,25,PC2*%
%TO.N,/AA2*%
X121230000Y-75270000D03*
%TO.P,U4,26,PC3*%
%TO.N,/AA3*%
X121230000Y-72730000D03*
%TO.P,U4,27,PC4*%
%TO.N,N_SDA*%
X121230000Y-70190000D03*
%TO.P,U4,28,PC5*%
%TO.N,N_SCL*%
X121230000Y-67650000D03*
%TD*%
D11*
%TO.P,R8,1*%
%TO.N,/AD1*%
X121910000Y-58900000D03*
D18*
%TO.P,R8,2*%
%TO.N,N_TX*%
X129530000Y-58900000D03*
%TD*%
D12*
%TO.P,J4,1,Pin_1*%
%TO.N,+5V*%
X114440000Y-62350000D03*
D13*
%TO.P,J4,2,Pin_2*%
%TO.N,GND*%
X114440000Y-59810000D03*
%TO.P,J4,3,Pin_3*%
%TO.N,N_SDA*%
X114440000Y-57270000D03*
%TO.P,J4,4,Pin_4*%
%TO.N,N_SCL*%
X114440000Y-54730000D03*
%TD*%
D11*
%TO.P,C10,1*%
%TO.N,Net-(U4-PB7)*%
X124770000Y-100750000D03*
%TO.P,C10,2*%
%TO.N,GND*%
X129850000Y-100750000D03*
%TD*%
%TO.P,R7,1*%
%TO.N,/AD0*%
X121910000Y-56770000D03*
D18*
%TO.P,R7,2*%
%TO.N,N_RX*%
X129530000Y-56770000D03*
%TD*%
D11*
%TO.P,R6,1*%
%TO.N,+5V*%
X123970000Y-76580000D03*
D18*
%TO.P,R6,2*%
%TO.N,ADRESET*%
X123970000Y-68960000D03*
%TD*%
D11*
%TO.P,R3,1*%
%TO.N,Net-(Q1-B)*%
X134480000Y-81480000D03*
D18*
%TO.P,R3,2*%
%TO.N,SOUND*%
X126860000Y-81480000D03*
%TD*%
D10*
%TO.P,J2,1*%
%TO.N,PS2-DATA*%
X126960000Y-47850000D03*
D11*
%TO.P,J2,2*%
%TO.N,unconnected-(J2-Pad2)*%
X124360000Y-47850000D03*
%TO.P,J2,3*%
%TO.N,GND*%
X129060000Y-47850000D03*
%TO.P,J2,4*%
%TO.N,+5V*%
X122260000Y-47850000D03*
%TO.P,J2,5*%
%TO.N,PS2-CLK*%
X129060000Y-50650000D03*
%TO.P,J2,6*%
%TO.N,unconnected-(J2-Pad6)*%
X122260000Y-50650000D03*
D19*
%TO.P,J2,7*%
%TO.N,GND*%
X118810000Y-45000000D03*
D20*
X125660000Y-44200000D03*
D19*
X132510000Y-45000000D03*
%TD*%
D21*
%TO.N,N_SCL*%
X116810000Y-67550000D03*
%TO.N,/AD0*%
X117410000Y-56770000D03*
%TO.N,/AD1*%
X118210000Y-58940000D03*
%TO.N,N_SDA*%
X116010000Y-70190000D03*
%TD*%
D22*
%TO.N,+5V*%
X120800000Y-49310000D02*
X122260000Y-47850000D01*
X120800000Y-53530000D02*
X120800000Y-49310000D01*
X121910000Y-54640000D02*
X120800000Y-53530000D01*
D23*
%TO.N,PS2-DATA*%
X121350000Y-46350000D02*
X126625000Y-46350000D01*
X119760000Y-47940000D02*
X121350000Y-46350000D01*
X119760000Y-92330000D02*
X119760000Y-47940000D01*
X120480000Y-93050000D02*
X119760000Y-92330000D01*
X126625000Y-46350000D02*
X126960000Y-46685000D01*
X121230000Y-93050000D02*
X120480000Y-93050000D01*
X126960000Y-46685000D02*
X126960000Y-47850000D01*
%TO.N,PS2-CLK*%
X130575000Y-50650000D02*
X129060000Y-50650000D01*
X120925000Y-45750000D02*
X129475000Y-45750000D01*
X129475000Y-45750000D02*
X131125000Y-47400000D01*
X119010000Y-47665000D02*
X120925000Y-45750000D01*
X131125000Y-47400000D02*
X131125000Y-50100000D01*
X131125000Y-50100000D02*
X130575000Y-50650000D01*
X119010000Y-77070000D02*
X119010000Y-47665000D01*
X118270000Y-77810000D02*
X119010000Y-77070000D01*
X113620000Y-77810000D02*
X118270000Y-77810000D01*
D22*
%TO.N,+5V*%
X139040000Y-90265000D02*
X139075000Y-90300000D01*
X112225000Y-103460000D02*
X139075000Y-103460000D01*
X129040000Y-70680000D02*
X130720000Y-69000000D01*
X112225000Y-83030000D02*
X112225000Y-103460000D01*
X112225000Y-62350000D02*
X112225000Y-83030000D01*
X139075000Y-69000000D02*
X139075000Y-44495000D01*
X121845000Y-62365000D02*
X123340000Y-60870000D01*
X114455000Y-62365000D02*
X114440000Y-62350000D01*
X139075000Y-90300000D02*
X139075000Y-69000000D01*
X121910000Y-54640000D02*
X122780000Y-54640000D01*
X123970000Y-76580000D02*
X129040000Y-71510000D01*
X139075000Y-39510000D02*
X139075000Y-43670000D01*
X130720000Y-69000000D02*
X139075000Y-69000000D01*
X123525000Y-90265000D02*
X139040000Y-90265000D01*
X113620000Y-82890000D02*
X112365000Y-82890000D01*
X123340000Y-60870000D02*
X123340000Y-55200000D01*
X122780000Y-54640000D02*
X123340000Y-55200000D01*
X139075000Y-43670000D02*
X139075000Y-46010000D01*
X121230000Y-87970000D02*
X123525000Y-90265000D01*
X139075000Y-103460000D02*
X139075000Y-90300000D01*
X112225000Y-62350000D02*
X112225000Y-39510000D01*
X129040000Y-71510000D02*
X129040000Y-70680000D01*
X114440000Y-62350000D02*
X112225000Y-62350000D01*
X139065000Y-43660000D02*
X139075000Y-43670000D01*
X112225000Y-39510000D02*
X139075000Y-39510000D01*
X112365000Y-82890000D02*
X112225000Y-83030000D01*
D23*
%TO.N,Net-(D1-A)*%
X131190000Y-54640000D02*
X132020000Y-55470000D01*
X136285000Y-53690000D02*
X136285000Y-54635000D01*
X132020000Y-55470000D02*
X135450000Y-55470000D01*
X136285000Y-54635000D02*
X135450000Y-55470000D01*
X129530000Y-54640000D02*
X131190000Y-54640000D01*
%TO.N,Net-(U4-AREF)*%
X124020000Y-85430000D02*
X124140000Y-85310000D01*
X121230000Y-85430000D02*
X124020000Y-85430000D01*
%TO.N,Net-(BZ1--)*%
X135540000Y-72220000D02*
X135540000Y-70680000D01*
X135150000Y-72610000D02*
X135540000Y-72220000D01*
X129920000Y-75260000D02*
X132540000Y-72640000D01*
X132540000Y-72640000D02*
X135150000Y-72640000D01*
X129920000Y-87450000D02*
X129920000Y-75260000D01*
X135150000Y-72640000D02*
X135150000Y-72610000D01*
%TO.N,N_SCL*%
X115950000Y-54730000D02*
X116430000Y-55210000D01*
X116610000Y-55390000D02*
X116610000Y-58430000D01*
X116610000Y-67350000D02*
X116810000Y-67550000D01*
X114440000Y-54730000D02*
X115950000Y-54730000D01*
X116610000Y-58430000D02*
X116610000Y-67350000D01*
X116430000Y-55210000D02*
X116610000Y-55390000D01*
%TO.N,Net-(U4-PB6)*%
X124770000Y-98310000D02*
X128520000Y-94560000D01*
X117100000Y-87970000D02*
X113620000Y-87970000D01*
X119320000Y-94330000D02*
X118210000Y-93220000D01*
X118210000Y-89080000D02*
X117100000Y-87970000D01*
X128220000Y-94330000D02*
X119320000Y-94330000D01*
X128520000Y-94560000D02*
X128520000Y-94030000D01*
X128520000Y-94030000D02*
X128220000Y-94330000D01*
X118210000Y-93220000D02*
X118210000Y-89080000D01*
%TO.N,Net-(U4-PB7)*%
X116810000Y-91120000D02*
X116200000Y-90510000D01*
X116810000Y-95510000D02*
X116810000Y-91120000D01*
X124770000Y-100750000D02*
X131490000Y-94030000D01*
X116200000Y-90510000D02*
X113620000Y-90510000D01*
X122480000Y-96930000D02*
X118230000Y-96930000D01*
X131490000Y-94030000D02*
X133400000Y-94030000D01*
X118230000Y-96930000D02*
X116810000Y-95510000D01*
X124770000Y-100750000D02*
X123610000Y-100750000D01*
X123610000Y-100750000D02*
X123130000Y-100270000D01*
X123130000Y-97580000D02*
X122480000Y-96930000D01*
X123130000Y-100270000D02*
X123130000Y-97580000D01*
%TO.N,/AD0*%
X117610000Y-69850000D02*
X116470000Y-70990000D01*
X116470000Y-70990000D02*
X114420000Y-70990000D01*
X117610000Y-67218629D02*
X117610000Y-69850000D01*
X114420000Y-70990000D02*
X113620000Y-70190000D01*
X117410000Y-67018629D02*
X117610000Y-67218629D01*
X117410000Y-56770000D02*
X117410000Y-67018629D01*
%TO.N,/AD1*%
X118210000Y-58940000D02*
X118210000Y-71620000D01*
X117100000Y-72730000D02*
X113620000Y-72730000D01*
X118210000Y-71620000D02*
X117100000Y-72730000D01*
%TO.N,N_SDA*%
X116010000Y-57590000D02*
X116010000Y-70190000D01*
X116010000Y-57470000D02*
X116010000Y-57590000D01*
X114440000Y-57270000D02*
X115810000Y-57270000D01*
X115810000Y-57270000D02*
X116010000Y-57470000D01*
%TO.N,Net-(Q1-B)*%
X132460000Y-81850000D02*
X132830000Y-81480000D01*
X132460000Y-87450000D02*
X132460000Y-81850000D01*
X132830000Y-81480000D02*
X134480000Y-81480000D01*
%TO.N,SOUND*%
X122360000Y-81480000D02*
X126860000Y-81480000D01*
X121230000Y-80350000D02*
X122360000Y-81480000D01*
%TO.N,N_TX*%
X126925000Y-59625000D02*
X127650000Y-58900000D01*
X126925000Y-62365000D02*
X126925000Y-59625000D01*
X127650000Y-58900000D02*
X129530000Y-58900000D01*
%TO.N,N_RX*%
X125410000Y-56770000D02*
X129530000Y-56770000D01*
X124385000Y-57775000D02*
X125400000Y-56760000D01*
X124385000Y-62365000D02*
X124385000Y-57775000D01*
X125400000Y-56760000D02*
X125410000Y-56770000D01*
%TD*%
%TA.AperFunction,Conductor*%
%TO.N,+5V*%
G36*
X118978833Y-78194337D02*
G01*
X119034767Y-78236208D01*
X119059184Y-78301672D01*
X119059500Y-78310519D01*
X119059500Y-88681726D01*
X119039815Y-88748765D01*
X118987011Y-88794520D01*
X118917853Y-88804464D01*
X118854297Y-88775439D01*
X118832398Y-88750617D01*
X118754114Y-88633456D01*
X117546545Y-87425887D01*
X117431807Y-87349222D01*
X117304332Y-87296421D01*
X117304322Y-87296418D01*
X117168996Y-87269500D01*
X117168994Y-87269500D01*
X117168993Y-87269500D01*
X114781673Y-87269500D01*
X114714634Y-87249815D01*
X114680098Y-87216623D01*
X114620045Y-87130858D01*
X114459141Y-86969954D01*
X114272734Y-86839432D01*
X114272728Y-86839429D01*
X114245038Y-86826517D01*
X114214724Y-86812381D01*
X114162285Y-86766210D01*
X114143133Y-86699017D01*
X114163348Y-86632135D01*
X114214725Y-86587618D01*
X114272734Y-86560568D01*
X114459139Y-86430047D01*
X114620047Y-86269139D01*
X114750568Y-86082734D01*
X114846739Y-85876496D01*
X114905635Y-85656692D01*
X114925468Y-85430000D01*
X114905635Y-85203308D01*
X114846739Y-84983504D01*
X114750568Y-84777266D01*
X114620047Y-84590861D01*
X114620045Y-84590858D01*
X114459141Y-84429954D01*
X114272734Y-84299432D01*
X114272732Y-84299431D01*
X114214725Y-84272382D01*
X114214132Y-84272105D01*
X114161694Y-84225934D01*
X114142542Y-84158740D01*
X114162758Y-84091859D01*
X114214134Y-84047341D01*
X114272484Y-84020132D01*
X114458820Y-83889657D01*
X114619657Y-83728820D01*
X114750134Y-83542482D01*
X114846265Y-83336326D01*
X114846269Y-83336317D01*
X114898872Y-83140000D01*
X113935686Y-83140000D01*
X113940080Y-83135606D01*
X113992741Y-83044394D01*
X114020000Y-82942661D01*
X114020000Y-82837339D01*
X113992741Y-82735606D01*
X113940080Y-82644394D01*
X113935686Y-82640000D01*
X114898872Y-82640000D01*
X114898872Y-82639999D01*
X114846269Y-82443682D01*
X114846265Y-82443673D01*
X114750134Y-82237517D01*
X114619657Y-82051179D01*
X114458820Y-81890342D01*
X114272482Y-81759865D01*
X114214133Y-81732657D01*
X114161694Y-81686484D01*
X114142542Y-81619291D01*
X114162758Y-81552410D01*
X114214129Y-81507895D01*
X114272734Y-81480568D01*
X114459139Y-81350047D01*
X114620047Y-81189139D01*
X114750568Y-81002734D01*
X114846739Y-80796496D01*
X114905635Y-80576692D01*
X114925468Y-80350000D01*
X114905635Y-80123308D01*
X114846739Y-79903504D01*
X114750568Y-79697266D01*
X114620047Y-79510861D01*
X114620045Y-79510858D01*
X114459141Y-79349954D01*
X114272734Y-79219432D01*
X114272728Y-79219429D01*
X114214725Y-79192382D01*
X114162285Y-79146210D01*
X114143133Y-79079017D01*
X114163348Y-79012135D01*
X114214725Y-78967618D01*
X114272734Y-78940568D01*
X114459139Y-78810047D01*
X114620047Y-78649139D01*
X114680098Y-78563377D01*
X114734675Y-78519752D01*
X114781673Y-78510500D01*
X118338996Y-78510500D01*
X118430040Y-78492389D01*
X118474328Y-78483580D01*
X118538069Y-78457177D01*
X118601807Y-78430777D01*
X118601808Y-78430776D01*
X118601811Y-78430775D01*
X118716543Y-78354114D01*
X118847820Y-78222836D01*
X118909141Y-78189353D01*
X118978833Y-78194337D01*
G37*
%TD.AperFunction*%
%TA.AperFunction,Conductor*%
G36*
X121510000Y-54692661D02*
G01*
X121537259Y-54794394D01*
X121589920Y-54885606D01*
X121664394Y-54960080D01*
X121755606Y-55012741D01*
X121857339Y-55040000D01*
X121863553Y-55040000D01*
X121285027Y-55618524D01*
X121259357Y-55638224D01*
X121257267Y-55639430D01*
X121070858Y-55769954D01*
X120909954Y-55930858D01*
X120779432Y-56117265D01*
X120779431Y-56117267D01*
X120696882Y-56294294D01*
X120650709Y-56346733D01*
X120583516Y-56365885D01*
X120516635Y-56345669D01*
X120471300Y-56292504D01*
X120460500Y-56241889D01*
X120460500Y-55166927D01*
X120480185Y-55099888D01*
X120532989Y-55054133D01*
X120602147Y-55044189D01*
X120665703Y-55073214D01*
X120696882Y-55114523D01*
X120779863Y-55292478D01*
X120830974Y-55365472D01*
X121510000Y-54686446D01*
X121510000Y-54692661D01*
G37*
%TD.AperFunction*%
%TA.AperFunction,Conductor*%
G36*
X139318039Y-39229685D02*
G01*
X139363794Y-39282489D01*
X139375000Y-39334000D01*
X139375000Y-103636000D01*
X139355315Y-103703039D01*
X139302511Y-103748794D01*
X139251000Y-103760000D01*
X112049000Y-103760000D01*
X111981961Y-103740315D01*
X111936206Y-103687511D01*
X111925000Y-103636000D01*
X111925000Y-70189998D01*
X112314532Y-70189998D01*
X112314532Y-70190001D01*
X112334364Y-70416686D01*
X112334366Y-70416697D01*
X112393258Y-70636488D01*
X112393261Y-70636497D01*
X112489431Y-70842732D01*
X112489432Y-70842734D01*
X112619954Y-71029141D01*
X112780858Y-71190045D01*
X112780861Y-71190047D01*
X112967266Y-71320568D01*
X113025275Y-71347618D01*
X113077714Y-71393791D01*
X113096866Y-71460984D01*
X113076650Y-71527865D01*
X113025275Y-71572382D01*
X112967267Y-71599431D01*
X112967265Y-71599432D01*
X112780858Y-71729954D01*
X112619954Y-71890858D01*
X112489432Y-72077265D01*
X112489431Y-72077267D01*
X112393261Y-72283502D01*
X112393258Y-72283511D01*
X112334366Y-72503302D01*
X112334364Y-72503313D01*
X112314532Y-72729998D01*
X112314532Y-72730001D01*
X112334364Y-72956686D01*
X112334366Y-72956697D01*
X112393258Y-73176488D01*
X112393261Y-73176497D01*
X112489431Y-73382732D01*
X112489432Y-73382734D01*
X112619954Y-73569141D01*
X112780858Y-73730045D01*
X112780861Y-73730047D01*
X112967266Y-73860568D01*
X113025275Y-73887618D01*
X113077714Y-73933791D01*
X113096866Y-74000984D01*
X113076650Y-74067865D01*
X113025275Y-74112382D01*
X112967267Y-74139431D01*
X112967265Y-74139432D01*
X112780858Y-74269954D01*
X112619954Y-74430858D01*
X112489432Y-74617265D01*
X112489431Y-74617267D01*
X112393261Y-74823502D01*
X112393258Y-74823511D01*
X112334366Y-75043302D01*
X112334364Y-75043313D01*
X112314532Y-75269998D01*
X112314532Y-75270001D01*
X112334364Y-75496686D01*
X112334366Y-75496697D01*
X112393258Y-75716488D01*
X112393261Y-75716497D01*
X112489431Y-75922732D01*
X112489432Y-75922734D01*
X112619954Y-76109141D01*
X112780858Y-76270045D01*
X112780861Y-76270047D01*
X112967266Y-76400568D01*
X113020960Y-76425606D01*
X113025275Y-76427618D01*
X113077714Y-76473791D01*
X113096866Y-76540984D01*
X113076650Y-76607865D01*
X113025275Y-76652382D01*
X112967267Y-76679431D01*
X112967265Y-76679432D01*
X112780858Y-76809954D01*
X112619954Y-76970858D01*
X112489432Y-77157265D01*
X112489431Y-77157267D01*
X112393261Y-77363502D01*
X112393258Y-77363511D01*
X112334366Y-77583302D01*
X112334364Y-77583313D01*
X112314532Y-77809998D01*
X112314532Y-77810001D01*
X112334364Y-78036686D01*
X112334366Y-78036697D01*
X112393258Y-78256488D01*
X112393261Y-78256497D01*
X112489431Y-78462732D01*
X112489432Y-78462734D01*
X112619954Y-78649141D01*
X112780858Y-78810045D01*
X112780861Y-78810047D01*
X112967266Y-78940568D01*
X113025275Y-78967618D01*
X113077714Y-79013791D01*
X113096866Y-79080984D01*
X113076650Y-79147865D01*
X113025275Y-79192382D01*
X112967267Y-79219431D01*
X112967265Y-79219432D01*
X112780858Y-79349954D01*
X112619954Y-79510858D01*
X112489432Y-79697265D01*
X112489431Y-79697267D01*
X112393261Y-79903502D01*
X112393258Y-79903511D01*
X112334366Y-80123302D01*
X112334364Y-80123313D01*
X112314532Y-80349998D01*
X112314532Y-80350001D01*
X112334364Y-80576686D01*
X112334366Y-80576697D01*
X112393258Y-80796488D01*
X112393261Y-80796497D01*
X112489431Y-81002732D01*
X112489432Y-81002734D01*
X112619954Y-81189141D01*
X112780858Y-81350045D01*
X112780861Y-81350047D01*
X112967266Y-81480568D01*
X113025865Y-81507893D01*
X113078305Y-81554065D01*
X113097457Y-81621258D01*
X113077242Y-81688139D01*
X113025867Y-81732657D01*
X112967515Y-81759867D01*
X112781179Y-81890342D01*
X112620342Y-82051179D01*
X112489865Y-82237517D01*
X112393734Y-82443673D01*
X112393730Y-82443682D01*
X112341127Y-82639999D01*
X112341128Y-82640000D01*
X113304314Y-82640000D01*
X113299920Y-82644394D01*
X113247259Y-82735606D01*
X113220000Y-82837339D01*
X113220000Y-82942661D01*
X113247259Y-83044394D01*
X113299920Y-83135606D01*
X113304314Y-83140000D01*
X112341128Y-83140000D01*
X112393730Y-83336317D01*
X112393734Y-83336326D01*
X112489865Y-83542482D01*
X112620342Y-83728820D01*
X112781179Y-83889657D01*
X112967518Y-84020134D01*
X112967520Y-84020135D01*
X113025865Y-84047342D01*
X113078305Y-84093514D01*
X113097457Y-84160707D01*
X113077242Y-84227589D01*
X113025867Y-84272105D01*
X112967268Y-84299431D01*
X112967264Y-84299433D01*
X112780858Y-84429954D01*
X112619954Y-84590858D01*
X112489432Y-84777265D01*
X112489431Y-84777267D01*
X112393261Y-84983502D01*
X112393258Y-84983511D01*
X112334366Y-85203302D01*
X112334364Y-85203313D01*
X112314532Y-85429998D01*
X112314532Y-85430001D01*
X112334364Y-85656686D01*
X112334366Y-85656697D01*
X112393258Y-85876488D01*
X112393261Y-85876497D01*
X112489431Y-86082732D01*
X112489432Y-86082734D01*
X112619954Y-86269141D01*
X112780858Y-86430045D01*
X112827693Y-86462839D01*
X112967266Y-86560568D01*
X113025275Y-86587618D01*
X113077714Y-86633791D01*
X113096866Y-86700984D01*
X113076650Y-86767865D01*
X113025275Y-86812382D01*
X112967267Y-86839431D01*
X112967265Y-86839432D01*
X112780858Y-86969954D01*
X112619954Y-87130858D01*
X112489432Y-87317265D01*
X112489431Y-87317267D01*
X112393261Y-87523502D01*
X112393258Y-87523511D01*
X112334366Y-87743302D01*
X112334364Y-87743313D01*
X112314532Y-87969998D01*
X112314532Y-87970001D01*
X112334364Y-88196686D01*
X112334366Y-88196697D01*
X112393258Y-88416488D01*
X112393261Y-88416497D01*
X112489431Y-88622732D01*
X112489432Y-88622734D01*
X112619954Y-88809141D01*
X112780858Y-88970045D01*
X112794194Y-88979383D01*
X112967266Y-89100568D01*
X113024681Y-89127341D01*
X113025275Y-89127618D01*
X113077714Y-89173791D01*
X113096866Y-89240984D01*
X113076650Y-89307865D01*
X113025275Y-89352382D01*
X112967267Y-89379431D01*
X112967265Y-89379432D01*
X112780858Y-89509954D01*
X112619954Y-89670858D01*
X112489432Y-89857265D01*
X112489431Y-89857267D01*
X112393261Y-90063502D01*
X112393258Y-90063511D01*
X112334366Y-90283302D01*
X112334364Y-90283313D01*
X112314532Y-90509998D01*
X112314532Y-90510001D01*
X112334364Y-90736686D01*
X112334366Y-90736697D01*
X112393258Y-90956488D01*
X112393261Y-90956497D01*
X112489431Y-91162732D01*
X112489432Y-91162734D01*
X112619954Y-91349141D01*
X112780858Y-91510045D01*
X112780861Y-91510047D01*
X112967266Y-91640568D01*
X113025275Y-91667618D01*
X113077714Y-91713791D01*
X113096866Y-91780984D01*
X113076650Y-91847865D01*
X113025275Y-91892382D01*
X112967267Y-91919431D01*
X112967265Y-91919432D01*
X112780858Y-92049954D01*
X112619954Y-92210858D01*
X112489432Y-92397265D01*
X112489431Y-92397267D01*
X112393261Y-92603502D01*
X112393258Y-92603511D01*
X112334366Y-92823302D01*
X112334364Y-92823313D01*
X112314532Y-93049998D01*
X112314532Y-93050001D01*
X112334364Y-93276686D01*
X112334366Y-93276697D01*
X112393258Y-93496488D01*
X112393261Y-93496497D01*
X112489431Y-93702732D01*
X112489432Y-93702734D01*
X112619954Y-93889141D01*
X112780858Y-94050045D01*
X112780861Y-94050047D01*
X112967266Y-94180568D01*
X113025275Y-94207618D01*
X113077714Y-94253791D01*
X113096866Y-94320984D01*
X113076650Y-94387865D01*
X113025275Y-94432382D01*
X112967267Y-94459431D01*
X112967265Y-94459432D01*
X112780858Y-94589954D01*
X112619954Y-94750858D01*
X112489432Y-94937265D01*
X112489431Y-94937267D01*
X112393261Y-95143502D01*
X112393258Y-95143511D01*
X112334366Y-95363302D01*
X112334364Y-95363313D01*
X112314532Y-95589998D01*
X112314532Y-95590001D01*
X112334364Y-95816686D01*
X112334366Y-95816697D01*
X112393258Y-96036488D01*
X112393261Y-96036497D01*
X112489431Y-96242732D01*
X112489432Y-96242734D01*
X112619954Y-96429141D01*
X112780858Y-96590045D01*
X112780861Y-96590047D01*
X112967266Y-96720568D01*
X113025275Y-96747618D01*
X113077714Y-96793791D01*
X113096866Y-96860984D01*
X113076650Y-96927865D01*
X113025275Y-96972382D01*
X112967267Y-96999431D01*
X112967265Y-96999432D01*
X112780858Y-97129954D01*
X112619954Y-97290858D01*
X112489432Y-97477265D01*
X112489431Y-97477267D01*
X112393261Y-97683502D01*
X112393258Y-97683511D01*
X112334366Y-97903302D01*
X112334364Y-97903313D01*
X112314532Y-98129998D01*
X112314532Y-98130001D01*
X112334364Y-98356686D01*
X112334366Y-98356697D01*
X112393258Y-98576488D01*
X112393261Y-98576497D01*
X112489431Y-98782732D01*
X112489432Y-98782734D01*
X112619954Y-98969141D01*
X112780858Y-99130045D01*
X112780861Y-99130047D01*
X112967266Y-99260568D01*
X113025275Y-99287618D01*
X113077714Y-99333791D01*
X113096866Y-99400984D01*
X113076650Y-99467865D01*
X113025275Y-99512382D01*
X112967267Y-99539431D01*
X112967265Y-99539432D01*
X112780858Y-99669954D01*
X112619954Y-99830858D01*
X112489432Y-100017265D01*
X112489431Y-100017267D01*
X112393261Y-100223502D01*
X112393258Y-100223511D01*
X112334366Y-100443302D01*
X112334364Y-100443313D01*
X112314532Y-100669998D01*
X112314532Y-100670001D01*
X112334364Y-100896686D01*
X112334366Y-100896697D01*
X112393258Y-101116488D01*
X112393261Y-101116497D01*
X112489431Y-101322732D01*
X112489432Y-101322734D01*
X112619954Y-101509141D01*
X112780858Y-101670045D01*
X112780861Y-101670047D01*
X112967266Y-101800568D01*
X113173504Y-101896739D01*
X113393308Y-101955635D01*
X113555230Y-101969801D01*
X113619998Y-101975468D01*
X113620000Y-101975468D01*
X113620002Y-101975468D01*
X113676673Y-101970509D01*
X113846692Y-101955635D01*
X114066496Y-101896739D01*
X114272734Y-101800568D01*
X114459139Y-101670047D01*
X114620047Y-101509139D01*
X114750568Y-101322734D01*
X114846739Y-101116496D01*
X114905635Y-100896692D01*
X114925468Y-100670000D01*
X114905635Y-100443308D01*
X114846739Y-100223504D01*
X114750568Y-100017266D01*
X114620047Y-99830861D01*
X114620045Y-99830858D01*
X114459141Y-99669954D01*
X114272734Y-99539432D01*
X114272728Y-99539429D01*
X114214725Y-99512382D01*
X114162285Y-99466210D01*
X114143133Y-99399017D01*
X114163348Y-99332135D01*
X114214725Y-99287618D01*
X114272734Y-99260568D01*
X114459139Y-99130047D01*
X114620047Y-98969139D01*
X114750568Y-98782734D01*
X114846739Y-98576496D01*
X114905635Y-98356692D01*
X114925468Y-98130000D01*
X114905635Y-97903308D01*
X114846739Y-97683504D01*
X114750568Y-97477266D01*
X114620047Y-97290861D01*
X114620045Y-97290858D01*
X114459141Y-97129954D01*
X114272734Y-96999432D01*
X114272728Y-96999429D01*
X114214725Y-96972382D01*
X114162285Y-96926210D01*
X114143133Y-96859017D01*
X114163348Y-96792135D01*
X114214725Y-96747618D01*
X114272734Y-96720568D01*
X114459139Y-96590047D01*
X114620047Y-96429139D01*
X114750568Y-96242734D01*
X114846739Y-96036496D01*
X114905635Y-95816692D01*
X114925468Y-95590000D01*
X114905635Y-95363308D01*
X114846739Y-95143504D01*
X114750568Y-94937266D01*
X114620047Y-94750861D01*
X114620045Y-94750858D01*
X114459141Y-94589954D01*
X114272734Y-94459432D01*
X114272728Y-94459429D01*
X114214725Y-94432382D01*
X114162285Y-94386210D01*
X114143133Y-94319017D01*
X114163348Y-94252135D01*
X114214725Y-94207618D01*
X114272734Y-94180568D01*
X114459139Y-94050047D01*
X114620047Y-93889139D01*
X114750568Y-93702734D01*
X114846739Y-93496496D01*
X114905635Y-93276692D01*
X114925468Y-93050000D01*
X114905635Y-92823308D01*
X114846739Y-92603504D01*
X114750568Y-92397266D01*
X114620047Y-92210861D01*
X114620045Y-92210858D01*
X114459141Y-92049954D01*
X114272734Y-91919432D01*
X114272728Y-91919429D01*
X114214725Y-91892382D01*
X114162285Y-91846210D01*
X114143133Y-91779017D01*
X114163348Y-91712135D01*
X114214725Y-91667618D01*
X114272734Y-91640568D01*
X114459139Y-91510047D01*
X114620047Y-91349139D01*
X114680098Y-91263377D01*
X114734675Y-91219752D01*
X114781673Y-91210500D01*
X115858481Y-91210500D01*
X115925520Y-91230185D01*
X115946162Y-91246819D01*
X116073181Y-91373838D01*
X116106666Y-91435161D01*
X116109500Y-91461519D01*
X116109500Y-95441006D01*
X116109500Y-95578994D01*
X116109500Y-95578996D01*
X116109499Y-95578996D01*
X116136418Y-95714322D01*
X116136421Y-95714332D01*
X116189222Y-95841807D01*
X116265887Y-95956545D01*
X117783454Y-97474112D01*
X117898190Y-97550776D01*
X117996790Y-97591617D01*
X118025671Y-97603580D01*
X118025672Y-97603580D01*
X118025677Y-97603582D01*
X118052545Y-97608925D01*
X118052551Y-97608926D01*
X118052591Y-97608934D01*
X118142937Y-97626905D01*
X118161006Y-97630500D01*
X118161007Y-97630500D01*
X119855863Y-97630500D01*
X119922902Y-97650185D01*
X119968657Y-97702989D01*
X119978601Y-97772147D01*
X119975638Y-97786593D01*
X119944366Y-97903302D01*
X119944364Y-97903313D01*
X119924532Y-98129998D01*
X119924532Y-98130001D01*
X119944364Y-98356686D01*
X119944366Y-98356697D01*
X120003258Y-98576488D01*
X120003261Y-98576497D01*
X120099431Y-98782732D01*
X120099432Y-98782734D01*
X120229954Y-98969141D01*
X120390858Y-99130045D01*
X120390861Y-99130047D01*
X120577266Y-99260568D01*
X120635275Y-99287618D01*
X120687714Y-99333791D01*
X120706866Y-99400984D01*
X120686650Y-99467865D01*
X120635275Y-99512382D01*
X120577267Y-99539431D01*
X120577265Y-99539432D01*
X120390858Y-99669954D01*
X120229954Y-99830858D01*
X120099432Y-100017265D01*
X120099431Y-100017267D01*
X120003261Y-100223502D01*
X120003258Y-100223511D01*
X119944366Y-100443302D01*
X119944364Y-100443313D01*
X119924532Y-100669998D01*
X119924532Y-100670001D01*
X119944364Y-100896686D01*
X119944366Y-100896697D01*
X120003258Y-101116488D01*
X120003261Y-101116497D01*
X120099431Y-101322732D01*
X120099432Y-101322734D01*
X120229954Y-101509141D01*
X120390858Y-101670045D01*
X120390861Y-101670047D01*
X120577266Y-101800568D01*
X120783504Y-101896739D01*
X121003308Y-101955635D01*
X121165230Y-101969801D01*
X121229998Y-101975468D01*
X121230000Y-101975468D01*
X121230002Y-101975468D01*
X121286673Y-101970509D01*
X121456692Y-101955635D01*
X121676496Y-101896739D01*
X121882734Y-101800568D01*
X122069139Y-101670047D01*
X122230047Y-101509139D01*
X122360568Y-101322734D01*
X122456739Y-101116496D01*
X122512963Y-100906661D01*
X122549326Y-100847004D01*
X122612173Y-100816474D01*
X122681549Y-100824768D01*
X122720418Y-100851076D01*
X123163454Y-101294112D01*
X123278192Y-101370777D01*
X123405667Y-101423578D01*
X123405672Y-101423580D01*
X123405676Y-101423580D01*
X123405677Y-101423581D01*
X123541004Y-101450500D01*
X123541007Y-101450500D01*
X123608327Y-101450500D01*
X123675366Y-101470185D01*
X123709902Y-101503377D01*
X123769954Y-101589141D01*
X123930858Y-101750045D01*
X123930861Y-101750047D01*
X124117266Y-101880568D01*
X124323504Y-101976739D01*
X124543308Y-102035635D01*
X124705230Y-102049801D01*
X124769998Y-102055468D01*
X124770000Y-102055468D01*
X124770002Y-102055468D01*
X124826673Y-102050509D01*
X124996692Y-102035635D01*
X125216496Y-101976739D01*
X125422734Y-101880568D01*
X125609139Y-101750047D01*
X125770047Y-101589139D01*
X125900568Y-101402734D01*
X125996739Y-101196496D01*
X126055635Y-100976692D01*
X126075468Y-100750000D01*
X126055635Y-100523308D01*
X126055633Y-100523303D01*
X126055180Y-100518117D01*
X126068946Y-100449617D01*
X126091024Y-100419631D01*
X128336601Y-98174054D01*
X128397922Y-98140571D01*
X128467614Y-98145555D01*
X128523547Y-98187427D01*
X128547964Y-98252891D01*
X128547808Y-98272542D01*
X128544532Y-98309994D01*
X128544532Y-98310001D01*
X128564364Y-98536686D01*
X128564366Y-98536697D01*
X128623258Y-98756488D01*
X128623261Y-98756497D01*
X128719431Y-98962732D01*
X128719432Y-98962734D01*
X128849954Y-99149141D01*
X129010858Y-99310045D01*
X129010861Y-99310047D01*
X129137924Y-99399017D01*
X129179924Y-99428425D01*
X129223549Y-99483001D01*
X129230743Y-99552500D01*
X129199221Y-99614855D01*
X129179924Y-99631575D01*
X129010858Y-99749954D01*
X128849954Y-99910858D01*
X128719432Y-100097265D01*
X128719431Y-100097267D01*
X128623261Y-100303502D01*
X128623258Y-100303511D01*
X128564366Y-100523302D01*
X128564364Y-100523313D01*
X128544532Y-100749998D01*
X128544532Y-100750001D01*
X128564364Y-100976686D01*
X128564366Y-100976697D01*
X128623258Y-101196488D01*
X128623261Y-101196497D01*
X128719431Y-101402732D01*
X128719432Y-101402734D01*
X128849954Y-101589141D01*
X129010858Y-101750045D01*
X129010861Y-101750047D01*
X129197266Y-101880568D01*
X129403504Y-101976739D01*
X129623308Y-102035635D01*
X129785230Y-102049801D01*
X129849998Y-102055468D01*
X129850000Y-102055468D01*
X129850002Y-102055468D01*
X129906673Y-102050509D01*
X130076692Y-102035635D01*
X130296496Y-101976739D01*
X130502734Y-101880568D01*
X130689139Y-101750047D01*
X130850047Y-101589139D01*
X130980568Y-101402734D01*
X131076739Y-101196496D01*
X131135635Y-100976692D01*
X131155468Y-100750000D01*
X131135635Y-100523308D01*
X131076739Y-100303504D01*
X130980568Y-100097266D01*
X130850047Y-99910861D01*
X130850045Y-99910858D01*
X130689141Y-99749954D01*
X130633279Y-99710840D01*
X130520073Y-99631573D01*
X130476450Y-99576999D01*
X130469256Y-99507501D01*
X130500778Y-99445146D01*
X130520070Y-99428429D01*
X130689139Y-99310047D01*
X130850047Y-99149139D01*
X130980568Y-98962734D01*
X131076739Y-98756496D01*
X131135635Y-98536692D01*
X131155468Y-98310000D01*
X131155467Y-98309994D01*
X131135635Y-98083313D01*
X131135635Y-98083308D01*
X131076739Y-97863504D01*
X130980568Y-97657266D01*
X130893843Y-97533409D01*
X130850045Y-97470858D01*
X130689141Y-97309954D01*
X130502734Y-97179432D01*
X130502732Y-97179431D01*
X130296497Y-97083261D01*
X130296488Y-97083258D01*
X130076697Y-97024366D01*
X130076693Y-97024365D01*
X130076692Y-97024365D01*
X130076691Y-97024364D01*
X130076686Y-97024364D01*
X129850002Y-97004532D01*
X129849995Y-97004532D01*
X129812542Y-97007808D01*
X129744042Y-96994040D01*
X129693860Y-96945424D01*
X129677928Y-96877395D01*
X129701305Y-96811552D01*
X129714049Y-96796606D01*
X131743838Y-94766819D01*
X131805161Y-94733334D01*
X131831519Y-94730500D01*
X132299366Y-94730500D01*
X132366405Y-94750185D01*
X132400940Y-94783376D01*
X132438402Y-94836877D01*
X132593123Y-94991598D01*
X132772361Y-95117102D01*
X132970670Y-95209575D01*
X133182023Y-95266207D01*
X133364926Y-95282208D01*
X133399998Y-95285277D01*
X133400000Y-95285277D01*
X133400002Y-95285277D01*
X133428254Y-95282805D01*
X133617977Y-95266207D01*
X133829330Y-95209575D01*
X134027639Y-95117102D01*
X134206877Y-94991598D01*
X134361598Y-94836877D01*
X134487102Y-94657639D01*
X134579575Y-94459330D01*
X134636207Y-94247977D01*
X134655277Y-94030000D01*
X134636207Y-93812023D01*
X134582167Y-93610344D01*
X134579577Y-93600677D01*
X134579576Y-93600676D01*
X134579575Y-93600670D01*
X134487102Y-93402362D01*
X134487100Y-93402359D01*
X134487099Y-93402357D01*
X134361599Y-93223124D01*
X134361596Y-93223121D01*
X134206877Y-93068402D01*
X134027639Y-92942898D01*
X134027640Y-92942898D01*
X134027638Y-92942897D01*
X133889496Y-92878481D01*
X133829330Y-92850425D01*
X133829326Y-92850424D01*
X133829322Y-92850422D01*
X133617977Y-92793793D01*
X133400002Y-92774723D01*
X133399998Y-92774723D01*
X133254682Y-92787436D01*
X133182023Y-92793793D01*
X133182020Y-92793793D01*
X132970677Y-92850422D01*
X132970668Y-92850426D01*
X132772361Y-92942898D01*
X132772357Y-92942900D01*
X132593124Y-93068400D01*
X132438398Y-93223127D01*
X132400941Y-93276623D01*
X132346365Y-93320248D01*
X132299366Y-93329500D01*
X131421003Y-93329500D01*
X131312590Y-93351065D01*
X131312589Y-93351065D01*
X131285671Y-93356420D01*
X131158190Y-93409224D01*
X131043454Y-93485887D01*
X129873173Y-94656168D01*
X129811850Y-94689653D01*
X129742158Y-94684669D01*
X129686225Y-94642797D01*
X129661808Y-94577333D01*
X129673108Y-94516086D01*
X129699575Y-94459330D01*
X129756207Y-94247977D01*
X129775277Y-94030000D01*
X129756207Y-93812023D01*
X129702167Y-93610344D01*
X129699577Y-93600677D01*
X129699576Y-93600676D01*
X129699575Y-93600670D01*
X129607102Y-93402362D01*
X129607100Y-93402359D01*
X129607099Y-93402357D01*
X129481599Y-93223124D01*
X129481596Y-93223121D01*
X129326877Y-93068402D01*
X129147639Y-92942898D01*
X129147640Y-92942898D01*
X129147638Y-92942897D01*
X129009496Y-92878481D01*
X128949330Y-92850425D01*
X128949326Y-92850424D01*
X128949322Y-92850422D01*
X128737977Y-92793793D01*
X128520002Y-92774723D01*
X128519998Y-92774723D01*
X128374682Y-92787436D01*
X128302023Y-92793793D01*
X128302020Y-92793793D01*
X128090677Y-92850422D01*
X128090668Y-92850426D01*
X127892361Y-92942898D01*
X127892357Y-92942900D01*
X127713121Y-93068402D01*
X127558402Y-93223121D01*
X127432900Y-93402357D01*
X127432898Y-93402361D01*
X127425690Y-93417819D01*
X127363209Y-93551811D01*
X127360367Y-93557905D01*
X127314195Y-93610344D01*
X127247985Y-93629500D01*
X122582701Y-93629500D01*
X122515662Y-93609815D01*
X122469907Y-93557011D01*
X122459963Y-93487853D01*
X122462926Y-93473407D01*
X122494272Y-93356420D01*
X122515635Y-93276692D01*
X122535468Y-93050000D01*
X122515635Y-92823308D01*
X122456739Y-92603504D01*
X122360568Y-92397266D01*
X122230047Y-92210861D01*
X122230045Y-92210858D01*
X122069141Y-92049954D01*
X121882734Y-91919432D01*
X121882728Y-91919429D01*
X121824725Y-91892382D01*
X121772285Y-91846210D01*
X121753133Y-91779017D01*
X121773348Y-91712135D01*
X121824725Y-91667618D01*
X121882734Y-91640568D01*
X122069139Y-91510047D01*
X122230047Y-91349139D01*
X122360568Y-91162734D01*
X122456739Y-90956496D01*
X122515635Y-90736692D01*
X122535468Y-90510000D01*
X122515635Y-90283308D01*
X122456739Y-90063504D01*
X122360568Y-89857266D01*
X122230047Y-89670861D01*
X122230045Y-89670858D01*
X122069141Y-89509954D01*
X121882734Y-89379432D01*
X121882732Y-89379431D01*
X121824725Y-89352382D01*
X121824132Y-89352105D01*
X121771694Y-89305934D01*
X121752542Y-89238740D01*
X121772758Y-89171859D01*
X121824134Y-89127341D01*
X121882484Y-89100132D01*
X122068820Y-88969657D01*
X122229657Y-88808820D01*
X122360134Y-88622482D01*
X122456265Y-88416326D01*
X122456269Y-88416317D01*
X122503771Y-88239038D01*
X124049500Y-88239038D01*
X124049500Y-88490962D01*
X124070371Y-88622734D01*
X124088910Y-88739785D01*
X124166760Y-88979383D01*
X124228507Y-89100567D01*
X124277509Y-89196739D01*
X124281132Y-89203848D01*
X124429201Y-89407649D01*
X124429205Y-89407654D01*
X124607345Y-89585794D01*
X124607350Y-89585798D01*
X124724426Y-89670858D01*
X124811155Y-89733870D01*
X124954184Y-89806747D01*
X125035616Y-89848239D01*
X125035618Y-89848239D01*
X125035621Y-89848241D01*
X125275215Y-89926090D01*
X125524038Y-89965500D01*
X125524039Y-89965500D01*
X125775961Y-89965500D01*
X125775962Y-89965500D01*
X126024785Y-89926090D01*
X126264379Y-89848241D01*
X126488845Y-89733870D01*
X126692656Y-89585793D01*
X126870793Y-89407656D01*
X127018870Y-89203845D01*
X127133241Y-88979379D01*
X127211090Y-88739785D01*
X127250500Y-88490962D01*
X127250500Y-88239038D01*
X127211090Y-87990215D01*
X127133241Y-87750621D01*
X127133239Y-87750618D01*
X127133239Y-87750616D01*
X127055099Y-87597259D01*
X127018870Y-87526155D01*
X126946021Y-87425887D01*
X126870798Y-87322350D01*
X126870794Y-87322345D01*
X126692654Y-87144205D01*
X126692649Y-87144201D01*
X126488848Y-86996132D01*
X126488847Y-86996131D01*
X126488845Y-86996130D01*
X126418747Y-86960413D01*
X126264383Y-86881760D01*
X126024785Y-86803910D01*
X125932302Y-86789262D01*
X125775962Y-86764500D01*
X125524038Y-86764500D01*
X125399626Y-86784205D01*
X125275214Y-86803910D01*
X125035616Y-86881760D01*
X124811151Y-86996132D01*
X124607350Y-87144201D01*
X124607345Y-87144205D01*
X124429205Y-87322345D01*
X124429201Y-87322350D01*
X124281132Y-87526151D01*
X124166760Y-87750616D01*
X124095479Y-87969998D01*
X124088910Y-87990215D01*
X124049500Y-88239038D01*
X122503771Y-88239038D01*
X122508872Y-88220000D01*
X121545686Y-88220000D01*
X121550080Y-88215606D01*
X121602741Y-88124394D01*
X121630000Y-88022661D01*
X121630000Y-87917339D01*
X121602741Y-87815606D01*
X121550080Y-87724394D01*
X121545686Y-87720000D01*
X122508872Y-87720000D01*
X122508872Y-87719999D01*
X122456269Y-87523682D01*
X122456265Y-87523673D01*
X122360134Y-87317517D01*
X122229657Y-87131179D01*
X122068820Y-86970342D01*
X121882482Y-86839865D01*
X121824133Y-86812657D01*
X121771694Y-86766484D01*
X121752542Y-86699291D01*
X121766796Y-86652135D01*
X128669500Y-86652135D01*
X128669500Y-88247870D01*
X128669501Y-88247876D01*
X128675908Y-88307483D01*
X128726202Y-88442328D01*
X128726206Y-88442335D01*
X128812452Y-88557544D01*
X128812455Y-88557547D01*
X128927664Y-88643793D01*
X128927671Y-88643797D01*
X129062517Y-88694091D01*
X129062516Y-88694091D01*
X129069444Y-88694835D01*
X129122127Y-88700500D01*
X130717872Y-88700499D01*
X130777483Y-88694091D01*
X130912331Y-88643796D01*
X131027546Y-88557546D01*
X131113796Y-88442331D01*
X131164091Y-88307483D01*
X131170500Y-88247873D01*
X131170499Y-88181860D01*
X131190183Y-88114824D01*
X131242986Y-88069068D01*
X131312144Y-88059124D01*
X131375700Y-88088148D01*
X131396073Y-88110738D01*
X131472580Y-88220000D01*
X131498402Y-88256877D01*
X131653123Y-88411598D01*
X131832361Y-88537102D01*
X132030670Y-88629575D01*
X132242023Y-88686207D01*
X132424926Y-88702208D01*
X132459998Y-88705277D01*
X132460000Y-88705277D01*
X132460002Y-88705277D01*
X132488254Y-88702805D01*
X132677977Y-88686207D01*
X132889330Y-88629575D01*
X133087639Y-88537102D01*
X133266877Y-88411598D01*
X133421598Y-88256877D01*
X133547102Y-88077639D01*
X133617618Y-87926414D01*
X133663790Y-87873977D01*
X133730984Y-87854825D01*
X133797865Y-87875041D01*
X133842381Y-87926414D01*
X133912898Y-88077639D01*
X134038402Y-88256877D01*
X134193123Y-88411598D01*
X134372361Y-88537102D01*
X134570670Y-88629575D01*
X134782023Y-88686207D01*
X134964926Y-88702208D01*
X134999998Y-88705277D01*
X135000000Y-88705277D01*
X135000002Y-88705277D01*
X135028254Y-88702805D01*
X135217977Y-88686207D01*
X135429330Y-88629575D01*
X135627639Y-88537102D01*
X135806877Y-88411598D01*
X135961598Y-88256877D01*
X136087102Y-88077639D01*
X136179575Y-87879330D01*
X136236207Y-87667977D01*
X136255277Y-87450000D01*
X136253167Y-87425887D01*
X136251569Y-87407618D01*
X136236207Y-87232023D01*
X136179575Y-87020670D01*
X136087102Y-86822362D01*
X136087100Y-86822359D01*
X136087099Y-86822357D01*
X135961599Y-86643124D01*
X135906093Y-86587618D01*
X135806877Y-86488402D01*
X135627639Y-86362898D01*
X135627640Y-86362898D01*
X135627638Y-86362897D01*
X135528484Y-86316661D01*
X135429330Y-86270425D01*
X135429326Y-86270424D01*
X135429322Y-86270422D01*
X135217977Y-86213793D01*
X135000002Y-86194723D01*
X134999998Y-86194723D01*
X134872151Y-86205908D01*
X134782023Y-86213793D01*
X134782020Y-86213793D01*
X134570677Y-86270422D01*
X134570668Y-86270426D01*
X134372361Y-86362898D01*
X134372357Y-86362900D01*
X134193121Y-86488402D01*
X134038402Y-86643121D01*
X133912900Y-86822357D01*
X133912898Y-86822361D01*
X133842382Y-86973583D01*
X133796209Y-87026022D01*
X133729016Y-87045174D01*
X133662135Y-87024958D01*
X133617618Y-86973583D01*
X133574799Y-86881759D01*
X133547102Y-86822362D01*
X133547100Y-86822359D01*
X133547099Y-86822357D01*
X133421599Y-86643124D01*
X133366093Y-86587618D01*
X133266877Y-86488402D01*
X133266872Y-86488399D01*
X133266869Y-86488396D01*
X133213376Y-86450939D01*
X133169751Y-86396362D01*
X133160500Y-86349365D01*
X133160500Y-82304500D01*
X133180185Y-82237461D01*
X133232989Y-82191706D01*
X133284500Y-82180500D01*
X133318327Y-82180500D01*
X133385366Y-82200185D01*
X133419902Y-82233377D01*
X133479954Y-82319141D01*
X133640858Y-82480045D01*
X133640861Y-82480047D01*
X133827266Y-82610568D01*
X134033504Y-82706739D01*
X134253308Y-82765635D01*
X134415230Y-82779801D01*
X134479998Y-82785468D01*
X134480000Y-82785468D01*
X134480002Y-82785468D01*
X134536673Y-82780509D01*
X134706692Y-82765635D01*
X134926496Y-82706739D01*
X135132734Y-82610568D01*
X135319139Y-82480047D01*
X135480047Y-82319139D01*
X135610568Y-82132734D01*
X135706739Y-81926496D01*
X135765635Y-81706692D01*
X135785418Y-81480567D01*
X135785468Y-81480001D01*
X135785468Y-81479998D01*
X135778365Y-81398808D01*
X135765635Y-81253308D01*
X135706739Y-81033504D01*
X135610568Y-80827266D01*
X135480047Y-80640861D01*
X135480045Y-80640858D01*
X135336868Y-80497681D01*
X135303383Y-80436358D01*
X135308367Y-80366666D01*
X135336868Y-80322319D01*
X135480045Y-80179141D01*
X135480047Y-80179139D01*
X135610568Y-79992734D01*
X135706739Y-79786496D01*
X135765635Y-79566692D01*
X135785468Y-79340000D01*
X135765635Y-79113308D01*
X135706739Y-78893504D01*
X135610568Y-78687266D01*
X135480047Y-78500861D01*
X135480045Y-78500858D01*
X135319141Y-78339954D01*
X135132734Y-78209432D01*
X135132732Y-78209431D01*
X134926497Y-78113261D01*
X134926488Y-78113258D01*
X134706697Y-78054366D01*
X134706693Y-78054365D01*
X134706692Y-78054365D01*
X134706691Y-78054364D01*
X134706686Y-78054364D01*
X134480002Y-78034532D01*
X134479998Y-78034532D01*
X134253313Y-78054364D01*
X134253302Y-78054366D01*
X134033511Y-78113258D01*
X134033502Y-78113261D01*
X133827267Y-78209431D01*
X133827265Y-78209432D01*
X133640858Y-78339954D01*
X133479954Y-78500858D01*
X133349432Y-78687265D01*
X133349431Y-78687267D01*
X133253261Y-78893502D01*
X133253258Y-78893511D01*
X133194366Y-79113302D01*
X133194364Y-79113313D01*
X133174532Y-79339998D01*
X133174532Y-79340001D01*
X133194364Y-79566686D01*
X133194366Y-79566697D01*
X133253258Y-79786488D01*
X133253261Y-79786497D01*
X133349431Y-79992732D01*
X133349432Y-79992734D01*
X133479954Y-80179141D01*
X133623132Y-80322319D01*
X133656617Y-80383642D01*
X133651633Y-80453334D01*
X133623132Y-80497681D01*
X133479954Y-80640858D01*
X133419902Y-80726623D01*
X133365325Y-80770248D01*
X133318327Y-80779500D01*
X132761004Y-80779500D01*
X132625677Y-80806418D01*
X132625667Y-80806421D01*
X132498192Y-80859222D01*
X132383454Y-80935887D01*
X131915887Y-81403454D01*
X131839222Y-81518192D01*
X131786421Y-81645667D01*
X131786418Y-81645679D01*
X131763792Y-81759429D01*
X131763792Y-81759432D01*
X131759500Y-81781006D01*
X131759500Y-86349365D01*
X131739815Y-86416404D01*
X131706624Y-86450939D01*
X131653130Y-86488396D01*
X131653127Y-86488398D01*
X131498400Y-86643124D01*
X131396074Y-86789262D01*
X131341497Y-86832887D01*
X131271999Y-86840081D01*
X131209644Y-86808558D01*
X131174230Y-86748328D01*
X131170499Y-86718139D01*
X131170499Y-86652129D01*
X131170498Y-86652123D01*
X131170497Y-86652116D01*
X131164091Y-86592517D01*
X131152174Y-86560567D01*
X131113797Y-86457671D01*
X131113793Y-86457664D01*
X131027547Y-86342455D01*
X131027544Y-86342452D01*
X130912335Y-86256206D01*
X130912328Y-86256202D01*
X130777483Y-86205908D01*
X130731243Y-86200937D01*
X130666693Y-86174199D01*
X130626845Y-86116806D01*
X130620500Y-86077648D01*
X130620500Y-75601519D01*
X130640185Y-75534480D01*
X130656819Y-75513838D01*
X132793838Y-73376819D01*
X132855161Y-73343334D01*
X132881519Y-73340500D01*
X135218995Y-73340500D01*
X135310041Y-73322389D01*
X135354328Y-73313580D01*
X135481811Y-73260775D01*
X135596542Y-73184114D01*
X135694114Y-73086542D01*
X135747742Y-73006280D01*
X135763149Y-72987506D01*
X136084114Y-72666543D01*
X136114819Y-72620587D01*
X136160775Y-72551811D01*
X136213580Y-72424328D01*
X136240500Y-72288993D01*
X136240500Y-71841672D01*
X136260185Y-71774633D01*
X136293375Y-71740098D01*
X136379139Y-71680047D01*
X136540047Y-71519139D01*
X136670568Y-71332734D01*
X136766739Y-71126496D01*
X136825635Y-70906692D01*
X136845468Y-70680000D01*
X136825635Y-70453308D01*
X136775304Y-70265468D01*
X136766741Y-70233511D01*
X136766738Y-70233502D01*
X136746453Y-70190001D01*
X136670568Y-70027266D01*
X136540047Y-69840861D01*
X136540045Y-69840858D01*
X136379141Y-69679954D01*
X136192734Y-69549432D01*
X136192732Y-69549431D01*
X135986497Y-69453261D01*
X135986488Y-69453258D01*
X135766697Y-69394366D01*
X135766693Y-69394365D01*
X135766692Y-69394365D01*
X135766691Y-69394364D01*
X135766686Y-69394364D01*
X135540002Y-69374532D01*
X135539998Y-69374532D01*
X135313313Y-69394364D01*
X135313302Y-69394366D01*
X135093511Y-69453258D01*
X135093502Y-69453261D01*
X134887267Y-69549431D01*
X134887265Y-69549432D01*
X134700858Y-69679954D01*
X134539954Y-69840858D01*
X134409432Y-70027265D01*
X134409431Y-70027267D01*
X134313261Y-70233502D01*
X134313258Y-70233511D01*
X134254366Y-70453302D01*
X134254364Y-70453313D01*
X134234532Y-70679998D01*
X134234532Y-70680001D01*
X134254364Y-70906686D01*
X134254366Y-70906697D01*
X134313258Y-71126488D01*
X134313261Y-71126497D01*
X134409431Y-71332732D01*
X134409432Y-71332734D01*
X134539954Y-71519141D01*
X134700858Y-71680045D01*
X134749244Y-71713925D01*
X134792869Y-71768501D01*
X134800063Y-71838000D01*
X134768541Y-71900355D01*
X134708311Y-71935769D01*
X134678121Y-71939500D01*
X132471005Y-71939500D01*
X132335677Y-71966418D01*
X132335667Y-71966421D01*
X132208192Y-72019222D01*
X132093454Y-72095887D01*
X129375887Y-74813454D01*
X129299222Y-74928192D01*
X129246421Y-75055667D01*
X129246418Y-75055677D01*
X129219500Y-75191004D01*
X129219500Y-86077648D01*
X129199815Y-86144687D01*
X129147011Y-86190442D01*
X129108755Y-86200938D01*
X129062516Y-86205909D01*
X128927671Y-86256202D01*
X128927664Y-86256206D01*
X128812455Y-86342452D01*
X128812452Y-86342455D01*
X128726206Y-86457664D01*
X128726202Y-86457671D01*
X128675908Y-86592517D01*
X128671471Y-86633791D01*
X128669501Y-86652123D01*
X128669500Y-86652135D01*
X121766796Y-86652135D01*
X121772758Y-86632410D01*
X121824129Y-86587895D01*
X121882734Y-86560568D01*
X122069139Y-86430047D01*
X122230047Y-86269139D01*
X122274321Y-86205909D01*
X122290098Y-86183377D01*
X122344675Y-86139752D01*
X122391673Y-86130500D01*
X123069951Y-86130500D01*
X123136990Y-86150185D01*
X123157632Y-86166819D01*
X123300858Y-86310045D01*
X123300861Y-86310047D01*
X123487266Y-86440568D01*
X123693504Y-86536739D01*
X123913308Y-86595635D01*
X124075230Y-86609801D01*
X124139998Y-86615468D01*
X124140000Y-86615468D01*
X124140002Y-86615468D01*
X124196673Y-86610509D01*
X124366692Y-86595635D01*
X124586496Y-86536739D01*
X124792734Y-86440568D01*
X124979139Y-86310047D01*
X125140047Y-86149139D01*
X125270568Y-85962734D01*
X125366739Y-85756496D01*
X125425635Y-85536692D01*
X125445468Y-85310000D01*
X125425635Y-85083308D01*
X125366739Y-84863504D01*
X125270568Y-84657266D01*
X125140047Y-84470861D01*
X125140045Y-84470858D01*
X124979141Y-84309954D01*
X124792734Y-84179432D01*
X124792732Y-84179431D01*
X124586497Y-84083261D01*
X124586488Y-84083258D01*
X124366697Y-84024366D01*
X124366693Y-84024365D01*
X124366692Y-84024365D01*
X124366691Y-84024364D01*
X124366686Y-84024364D01*
X124140002Y-84004532D01*
X124139998Y-84004532D01*
X123913313Y-84024364D01*
X123913302Y-84024366D01*
X123693511Y-84083258D01*
X123693502Y-84083261D01*
X123487267Y-84179431D01*
X123487265Y-84179432D01*
X123300858Y-84309954D01*
X123139954Y-84470858D01*
X123009432Y-84657265D01*
X123009431Y-84657266D01*
X123009132Y-84657910D01*
X123008924Y-84658145D01*
X123006724Y-84661957D01*
X123005957Y-84661514D01*
X122962957Y-84710347D01*
X122896752Y-84729500D01*
X122391673Y-84729500D01*
X122324634Y-84709815D01*
X122290098Y-84676623D01*
X122230045Y-84590858D01*
X122069141Y-84429954D01*
X121882734Y-84299432D01*
X121882728Y-84299429D01*
X121824725Y-84272382D01*
X121772285Y-84226210D01*
X121753133Y-84159017D01*
X121773348Y-84092135D01*
X121824725Y-84047618D01*
X121825319Y-84047341D01*
X121882734Y-84020568D01*
X122069139Y-83890047D01*
X122230047Y-83729139D01*
X122360568Y-83542734D01*
X122456739Y-83336496D01*
X122515635Y-83116692D01*
X122535468Y-82890000D01*
X122515635Y-82663308D01*
X122456739Y-82443504D01*
X122416357Y-82356905D01*
X122405865Y-82287827D01*
X122434385Y-82224043D01*
X122492861Y-82185804D01*
X122528739Y-82180500D01*
X125698327Y-82180500D01*
X125765366Y-82200185D01*
X125799902Y-82233377D01*
X125859954Y-82319141D01*
X126020858Y-82480045D01*
X126020861Y-82480047D01*
X126207266Y-82610568D01*
X126413504Y-82706739D01*
X126633308Y-82765635D01*
X126795230Y-82779801D01*
X126859998Y-82785468D01*
X126860000Y-82785468D01*
X126860002Y-82785468D01*
X126916673Y-82780509D01*
X127086692Y-82765635D01*
X127306496Y-82706739D01*
X127512734Y-82610568D01*
X127699139Y-82480047D01*
X127860047Y-82319139D01*
X127990568Y-82132734D01*
X128086739Y-81926496D01*
X128145635Y-81706692D01*
X128165418Y-81480567D01*
X128165468Y-81480001D01*
X128165468Y-81479998D01*
X128158365Y-81398808D01*
X128145635Y-81253308D01*
X128086739Y-81033504D01*
X127990568Y-80827266D01*
X127860047Y-80640861D01*
X127860045Y-80640858D01*
X127716868Y-80497681D01*
X127683383Y-80436358D01*
X127688367Y-80366666D01*
X127716868Y-80322319D01*
X127860045Y-80179141D01*
X127860047Y-80179139D01*
X127990568Y-79992734D01*
X128086739Y-79786496D01*
X128145635Y-79566692D01*
X128165468Y-79340000D01*
X128145635Y-79113308D01*
X128086739Y-78893504D01*
X127990568Y-78687266D01*
X127860047Y-78500861D01*
X127860045Y-78500858D01*
X127699141Y-78339954D01*
X127512734Y-78209432D01*
X127512732Y-78209431D01*
X127306497Y-78113261D01*
X127306488Y-78113258D01*
X127086697Y-78054366D01*
X127086693Y-78054365D01*
X127086692Y-78054365D01*
X127086691Y-78054364D01*
X127086686Y-78054364D01*
X126860002Y-78034532D01*
X126859998Y-78034532D01*
X126633313Y-78054364D01*
X126633302Y-78054366D01*
X126413511Y-78113258D01*
X126413502Y-78113261D01*
X126207267Y-78209431D01*
X126207265Y-78209432D01*
X126020858Y-78339954D01*
X125859954Y-78500858D01*
X125729432Y-78687265D01*
X125729431Y-78687267D01*
X125633261Y-78893502D01*
X125633258Y-78893511D01*
X125574366Y-79113302D01*
X125574364Y-79113313D01*
X125554532Y-79339998D01*
X125554532Y-79340001D01*
X125574364Y-79566686D01*
X125574366Y-79566697D01*
X125633258Y-79786488D01*
X125633261Y-79786497D01*
X125729431Y-79992732D01*
X125729432Y-79992734D01*
X125859954Y-80179141D01*
X126003132Y-80322319D01*
X126036617Y-80383642D01*
X126031633Y-80453334D01*
X126003132Y-80497681D01*
X125859954Y-80640858D01*
X125799902Y-80726623D01*
X125745325Y-80770248D01*
X125698327Y-80779500D01*
X125500739Y-80779500D01*
X125433700Y-80759815D01*
X125387945Y-80707011D01*
X125378001Y-80637853D01*
X125380964Y-80623407D01*
X125382132Y-80619048D01*
X125425635Y-80456692D01*
X125445468Y-80230000D01*
X125425635Y-80003308D01*
X125366739Y-79783504D01*
X125270568Y-79577266D01*
X125140047Y-79390861D01*
X125140045Y-79390858D01*
X124979141Y-79229954D01*
X124792734Y-79099432D01*
X124792732Y-79099431D01*
X124586497Y-79003261D01*
X124586488Y-79003258D01*
X124366697Y-78944366D01*
X124366693Y-78944365D01*
X124366692Y-78944365D01*
X124366691Y-78944364D01*
X124366686Y-78944364D01*
X124140002Y-78924532D01*
X124139998Y-78924532D01*
X123913313Y-78944364D01*
X123913302Y-78944366D01*
X123693511Y-79003258D01*
X123693502Y-79003261D01*
X123487267Y-79099431D01*
X123487265Y-79099432D01*
X123300858Y-79229954D01*
X123139954Y-79390858D01*
X123009432Y-79577265D01*
X123009431Y-79577267D01*
X122913261Y-79783502D01*
X122913258Y-79783511D01*
X122854366Y-80003302D01*
X122854364Y-80003313D01*
X122834532Y-80229998D01*
X122834532Y-80230001D01*
X122854364Y-80456686D01*
X122854366Y-80456697D01*
X122899036Y-80623407D01*
X122897373Y-80693256D01*
X122858210Y-80751119D01*
X122793982Y-80778623D01*
X122779261Y-80779500D01*
X122701518Y-80779500D01*
X122634479Y-80759815D01*
X122613837Y-80743181D01*
X122551027Y-80680371D01*
X122517542Y-80619048D01*
X122515180Y-80581882D01*
X122515633Y-80576697D01*
X122515635Y-80576692D01*
X122535468Y-80350000D01*
X122515635Y-80123308D01*
X122456739Y-79903504D01*
X122360568Y-79697266D01*
X122230047Y-79510861D01*
X122230045Y-79510858D01*
X122069141Y-79349954D01*
X121882734Y-79219432D01*
X121882728Y-79219429D01*
X121824725Y-79192382D01*
X121772285Y-79146210D01*
X121753133Y-79079017D01*
X121773348Y-79012135D01*
X121824725Y-78967618D01*
X121882734Y-78940568D01*
X122069139Y-78810047D01*
X122230047Y-78649139D01*
X122360568Y-78462734D01*
X122456739Y-78256496D01*
X122515635Y-78036692D01*
X122535468Y-77810000D01*
X122515635Y-77583308D01*
X122456739Y-77363504D01*
X122360568Y-77157266D01*
X122230047Y-76970861D01*
X122230045Y-76970858D01*
X122069141Y-76809954D01*
X121882734Y-76679432D01*
X121882728Y-76679429D01*
X121824725Y-76652382D01*
X121772285Y-76606210D01*
X121764814Y-76579997D01*
X122665034Y-76579997D01*
X122665034Y-76580002D01*
X122684858Y-76806599D01*
X122684860Y-76806610D01*
X122743730Y-77026317D01*
X122743735Y-77026331D01*
X122839863Y-77232478D01*
X122890974Y-77305472D01*
X123570000Y-76626446D01*
X123570000Y-76632661D01*
X123597259Y-76734394D01*
X123649920Y-76825606D01*
X123724394Y-76900080D01*
X123815606Y-76952741D01*
X123917339Y-76980000D01*
X123923553Y-76980000D01*
X123244526Y-77659025D01*
X123317513Y-77710132D01*
X123317521Y-77710136D01*
X123523668Y-77806264D01*
X123523682Y-77806269D01*
X123743389Y-77865139D01*
X123743400Y-77865141D01*
X123969998Y-77884966D01*
X123970002Y-77884966D01*
X124196599Y-77865141D01*
X124196610Y-77865139D01*
X124416317Y-77806269D01*
X124416331Y-77806264D01*
X124622478Y-77710136D01*
X124695471Y-77659024D01*
X124016447Y-76980000D01*
X124022661Y-76980000D01*
X124124394Y-76952741D01*
X124215606Y-76900080D01*
X124290080Y-76825606D01*
X124342741Y-76734394D01*
X124370000Y-76632661D01*
X124370000Y-76626447D01*
X125049024Y-77305471D01*
X125100136Y-77232478D01*
X125196264Y-77026331D01*
X125196269Y-77026317D01*
X125255139Y-76806610D01*
X125255141Y-76806599D01*
X125274966Y-76580002D01*
X125274966Y-76579997D01*
X125255141Y-76353400D01*
X125255139Y-76353389D01*
X125196269Y-76133682D01*
X125196264Y-76133668D01*
X125100136Y-75927521D01*
X125100132Y-75927513D01*
X125049025Y-75854526D01*
X124370000Y-76533551D01*
X124370000Y-76527339D01*
X124342741Y-76425606D01*
X124290080Y-76334394D01*
X124215606Y-76259920D01*
X124124394Y-76207259D01*
X124022661Y-76180000D01*
X124016448Y-76180000D01*
X124695472Y-75500974D01*
X124622478Y-75449863D01*
X124416331Y-75353735D01*
X124416317Y-75353730D01*
X124196610Y-75294860D01*
X124196599Y-75294858D01*
X123970002Y-75275034D01*
X123969998Y-75275034D01*
X123743400Y-75294858D01*
X123743389Y-75294860D01*
X123523682Y-75353730D01*
X123523673Y-75353734D01*
X123317516Y-75449866D01*
X123317512Y-75449868D01*
X123244526Y-75500973D01*
X123244526Y-75500974D01*
X123923553Y-76180000D01*
X123917339Y-76180000D01*
X123815606Y-76207259D01*
X123724394Y-76259920D01*
X123649920Y-76334394D01*
X123597259Y-76425606D01*
X123570000Y-76527339D01*
X123570000Y-76533552D01*
X122890974Y-75854526D01*
X122890973Y-75854526D01*
X122839868Y-75927512D01*
X122839866Y-75927516D01*
X122743734Y-76133673D01*
X122743730Y-76133682D01*
X122684860Y-76353389D01*
X122684858Y-76353400D01*
X122665034Y-76579997D01*
X121764814Y-76579997D01*
X121753133Y-76539017D01*
X121773348Y-76472135D01*
X121824725Y-76427618D01*
X121829040Y-76425606D01*
X121882734Y-76400568D01*
X122069139Y-76270047D01*
X122230047Y-76109139D01*
X122360568Y-75922734D01*
X122456739Y-75716496D01*
X122515635Y-75496692D01*
X122535468Y-75270000D01*
X122515635Y-75043308D01*
X122456739Y-74823504D01*
X122360568Y-74617266D01*
X122230047Y-74430861D01*
X122230045Y-74430858D01*
X122069141Y-74269954D01*
X121882734Y-74139432D01*
X121882728Y-74139429D01*
X121824725Y-74112382D01*
X121772285Y-74066210D01*
X121753133Y-73999017D01*
X121773348Y-73932135D01*
X121824725Y-73887618D01*
X121882734Y-73860568D01*
X122069139Y-73730047D01*
X122230047Y-73569139D01*
X122360568Y-73382734D01*
X122456739Y-73176496D01*
X122515635Y-72956692D01*
X122535468Y-72730000D01*
X122534841Y-72722838D01*
X122525896Y-72620590D01*
X122515635Y-72503308D01*
X122456739Y-72283504D01*
X122360568Y-72077266D01*
X122230047Y-71890861D01*
X122230045Y-71890858D01*
X122069141Y-71729954D01*
X121882734Y-71599432D01*
X121882728Y-71599429D01*
X121824725Y-71572382D01*
X121772285Y-71526210D01*
X121753133Y-71459017D01*
X121773348Y-71392135D01*
X121824725Y-71347618D01*
X121882734Y-71320568D01*
X122069139Y-71190047D01*
X122230047Y-71029139D01*
X122360568Y-70842734D01*
X122456739Y-70636496D01*
X122515635Y-70416692D01*
X122535468Y-70190000D01*
X122515635Y-69963308D01*
X122456739Y-69743504D01*
X122360568Y-69537266D01*
X122250450Y-69380000D01*
X122230045Y-69350858D01*
X122069141Y-69189954D01*
X121882734Y-69059432D01*
X121882728Y-69059429D01*
X121824725Y-69032382D01*
X121772285Y-68986210D01*
X121764814Y-68959998D01*
X122664532Y-68959998D01*
X122664532Y-68960001D01*
X122684364Y-69186686D01*
X122684366Y-69186697D01*
X122743258Y-69406488D01*
X122743261Y-69406497D01*
X122839431Y-69612732D01*
X122839432Y-69612734D01*
X122969954Y-69799141D01*
X123130858Y-69960045D01*
X123130861Y-69960047D01*
X123317266Y-70090568D01*
X123523504Y-70186739D01*
X123523509Y-70186740D01*
X123523511Y-70186741D01*
X123535674Y-70190000D01*
X123743308Y-70245635D01*
X123905230Y-70259801D01*
X123969998Y-70265468D01*
X123970000Y-70265468D01*
X123970002Y-70265468D01*
X124026673Y-70260509D01*
X124196692Y-70245635D01*
X124416496Y-70186739D01*
X124622734Y-70090568D01*
X124809139Y-69960047D01*
X124937031Y-69832155D01*
X127740000Y-69832155D01*
X127740000Y-70430000D01*
X128606988Y-70430000D01*
X128574075Y-70487007D01*
X128540000Y-70614174D01*
X128540000Y-70745826D01*
X128574075Y-70872993D01*
X128606988Y-70930000D01*
X127740000Y-70930000D01*
X127740000Y-71527844D01*
X127746401Y-71587372D01*
X127746403Y-71587379D01*
X127796645Y-71722086D01*
X127796649Y-71722093D01*
X127882809Y-71837187D01*
X127882812Y-71837190D01*
X127997906Y-71923350D01*
X127997913Y-71923354D01*
X128132620Y-71973596D01*
X128132627Y-71973598D01*
X128192155Y-71979999D01*
X128192172Y-71980000D01*
X128790000Y-71980000D01*
X128790000Y-71113012D01*
X128847007Y-71145925D01*
X128974174Y-71180000D01*
X129105826Y-71180000D01*
X129232993Y-71145925D01*
X129290000Y-71113012D01*
X129290000Y-71980000D01*
X129887828Y-71980000D01*
X129887844Y-71979999D01*
X129947372Y-71973598D01*
X129947379Y-71973596D01*
X130082086Y-71923354D01*
X130082093Y-71923350D01*
X130197187Y-71837190D01*
X130197190Y-71837187D01*
X130283350Y-71722093D01*
X130283354Y-71722086D01*
X130333596Y-71587379D01*
X130333598Y-71587372D01*
X130339999Y-71527844D01*
X130340000Y-71527827D01*
X130340000Y-70930000D01*
X129473012Y-70930000D01*
X129505925Y-70872993D01*
X129540000Y-70745826D01*
X129540000Y-70614174D01*
X129505925Y-70487007D01*
X129473012Y-70430000D01*
X130340000Y-70430000D01*
X130340000Y-69832172D01*
X130339999Y-69832155D01*
X130333598Y-69772627D01*
X130333596Y-69772620D01*
X130283354Y-69637913D01*
X130283350Y-69637906D01*
X130197190Y-69522812D01*
X130197187Y-69522809D01*
X130082093Y-69436649D01*
X130082086Y-69436645D01*
X129947379Y-69386403D01*
X129947372Y-69386401D01*
X129887844Y-69380000D01*
X129290000Y-69380000D01*
X129290000Y-70246988D01*
X129232993Y-70214075D01*
X129105826Y-70180000D01*
X128974174Y-70180000D01*
X128847007Y-70214075D01*
X128790000Y-70246988D01*
X128790000Y-69380000D01*
X128192155Y-69380000D01*
X128132627Y-69386401D01*
X128132620Y-69386403D01*
X127997913Y-69436645D01*
X127997906Y-69436649D01*
X127882812Y-69522809D01*
X127882809Y-69522812D01*
X127796649Y-69637906D01*
X127796645Y-69637913D01*
X127746403Y-69772620D01*
X127746401Y-69772627D01*
X127740000Y-69832155D01*
X124937031Y-69832155D01*
X124970047Y-69799139D01*
X125100568Y-69612734D01*
X125196739Y-69406496D01*
X125255635Y-69186692D01*
X125275468Y-68960000D01*
X125271968Y-68920000D01*
X125259770Y-68780570D01*
X125255635Y-68733308D01*
X125196739Y-68513504D01*
X125100568Y-68307266D01*
X124970047Y-68120861D01*
X124970045Y-68120858D01*
X124809141Y-67959954D01*
X124622734Y-67829432D01*
X124622732Y-67829431D01*
X124416497Y-67733261D01*
X124416488Y-67733258D01*
X124196697Y-67674366D01*
X124196693Y-67674365D01*
X124196692Y-67674365D01*
X124196691Y-67674364D01*
X124196686Y-67674364D01*
X123970002Y-67654532D01*
X123969998Y-67654532D01*
X123743313Y-67674364D01*
X123743302Y-67674366D01*
X123523511Y-67733258D01*
X123523502Y-67733261D01*
X123317267Y-67829431D01*
X123317265Y-67829432D01*
X123130858Y-67959954D01*
X122969954Y-68120858D01*
X122839432Y-68307265D01*
X122839431Y-68307267D01*
X122743261Y-68513502D01*
X122743258Y-68513511D01*
X122684366Y-68733302D01*
X122684364Y-68733313D01*
X122664532Y-68959998D01*
X121764814Y-68959998D01*
X121753133Y-68919017D01*
X121773348Y-68852135D01*
X121824725Y-68807618D01*
X121882734Y-68780568D01*
X122069139Y-68650047D01*
X122230047Y-68489139D01*
X122360568Y-68302734D01*
X122456739Y-68096496D01*
X122515635Y-67876692D01*
X122535468Y-67650000D01*
X122515635Y-67423308D01*
X122456739Y-67203504D01*
X122360568Y-66997266D01*
X122230047Y-66810861D01*
X122230045Y-66810858D01*
X122069141Y-66649954D01*
X121882734Y-66519432D01*
X121882732Y-66519431D01*
X121676497Y-66423261D01*
X121676488Y-66423258D01*
X121456697Y-66364366D01*
X121456693Y-66364365D01*
X121456692Y-66364365D01*
X121456691Y-66364364D01*
X121456686Y-66364364D01*
X121230002Y-66344532D01*
X121229998Y-66344532D01*
X121003313Y-66364364D01*
X121003302Y-66364366D01*
X120783511Y-66423258D01*
X120783497Y-66423263D01*
X120636904Y-66491621D01*
X120567827Y-66502113D01*
X120504043Y-66473593D01*
X120465804Y-66415116D01*
X120460500Y-66379239D01*
X120460500Y-63687176D01*
X120480185Y-63620137D01*
X120532989Y-63574382D01*
X120602147Y-63564438D01*
X120658811Y-63587910D01*
X120752906Y-63658350D01*
X120752913Y-63658354D01*
X120887620Y-63708596D01*
X120887627Y-63708598D01*
X120947155Y-63714999D01*
X120947172Y-63715000D01*
X121595000Y-63715000D01*
X121595000Y-62798012D01*
X121652007Y-62830925D01*
X121779174Y-62865000D01*
X121910826Y-62865000D01*
X122037993Y-62830925D01*
X122095000Y-62798012D01*
X122095000Y-63715000D01*
X122742828Y-63715000D01*
X122742844Y-63714999D01*
X122802372Y-63708598D01*
X122802379Y-63708596D01*
X122937086Y-63658354D01*
X122937093Y-63658350D01*
X123052187Y-63572190D01*
X123052190Y-63572187D01*
X123138350Y-63457093D01*
X123138354Y-63457086D01*
X123187422Y-63325529D01*
X123229293Y-63269595D01*
X123294757Y-63245178D01*
X123363030Y-63260030D01*
X123391285Y-63281181D01*
X123513599Y-63403495D01*
X123568713Y-63442086D01*
X123707165Y-63539032D01*
X123707167Y-63539033D01*
X123707170Y-63539035D01*
X123921337Y-63638903D01*
X123921343Y-63638904D01*
X123921344Y-63638905D01*
X123976285Y-63653626D01*
X124149592Y-63700063D01*
X124320319Y-63715000D01*
X124384999Y-63720659D01*
X124385000Y-63720659D01*
X124385001Y-63720659D01*
X124449681Y-63715000D01*
X124620408Y-63700063D01*
X124848663Y-63638903D01*
X125062830Y-63539035D01*
X125256401Y-63403495D01*
X125423495Y-63236401D01*
X125553425Y-63050842D01*
X125608002Y-63007217D01*
X125677500Y-63000023D01*
X125739855Y-63031546D01*
X125756575Y-63050842D01*
X125886500Y-63236395D01*
X125886505Y-63236401D01*
X126053599Y-63403495D01*
X126108713Y-63442086D01*
X126247165Y-63539032D01*
X126247167Y-63539033D01*
X126247170Y-63539035D01*
X126461337Y-63638903D01*
X126461343Y-63638904D01*
X126461344Y-63638905D01*
X126516285Y-63653626D01*
X126689592Y-63700063D01*
X126860319Y-63715000D01*
X126924999Y-63720659D01*
X126925000Y-63720659D01*
X126925001Y-63720659D01*
X126989681Y-63715000D01*
X127160408Y-63700063D01*
X127388663Y-63638903D01*
X127602830Y-63539035D01*
X127796401Y-63403495D01*
X127963495Y-63236401D01*
X128093425Y-63050842D01*
X128148002Y-63007217D01*
X128217500Y-63000023D01*
X128279855Y-63031546D01*
X128296575Y-63050842D01*
X128426500Y-63236395D01*
X128426505Y-63236401D01*
X128593599Y-63403495D01*
X128648713Y-63442086D01*
X128787165Y-63539032D01*
X128787167Y-63539033D01*
X128787170Y-63539035D01*
X129001337Y-63638903D01*
X129001343Y-63638904D01*
X129001344Y-63638905D01*
X129056285Y-63653626D01*
X129229592Y-63700063D01*
X129400319Y-63715000D01*
X129464999Y-63720659D01*
X129465000Y-63720659D01*
X129465001Y-63720659D01*
X129529681Y-63715000D01*
X129700408Y-63700063D01*
X129928663Y-63638903D01*
X130142830Y-63539035D01*
X130336401Y-63403495D01*
X130503495Y-63236401D01*
X130639035Y-63042830D01*
X130738903Y-62828663D01*
X130800063Y-62600408D01*
X130820659Y-62365000D01*
X130800063Y-62129592D01*
X130738903Y-61901337D01*
X130639035Y-61687171D01*
X130633425Y-61679158D01*
X130503494Y-61493597D01*
X130336402Y-61326506D01*
X130336395Y-61326501D01*
X130142834Y-61190967D01*
X130142830Y-61190965D01*
X130071727Y-61157809D01*
X129928663Y-61091097D01*
X129928659Y-61091096D01*
X129928655Y-61091094D01*
X129700413Y-61029938D01*
X129700403Y-61029936D01*
X129465001Y-61009341D01*
X129464999Y-61009341D01*
X129229596Y-61029936D01*
X129229586Y-61029938D01*
X129001344Y-61091094D01*
X129001335Y-61091098D01*
X128787171Y-61190964D01*
X128787169Y-61190965D01*
X128593597Y-61326505D01*
X128426505Y-61493597D01*
X128296575Y-61679158D01*
X128241998Y-61722783D01*
X128172500Y-61729977D01*
X128110145Y-61698454D01*
X128093425Y-61679158D01*
X127963494Y-61493597D01*
X127796404Y-61326508D01*
X127796402Y-61326506D01*
X127796401Y-61326505D01*
X127796396Y-61326501D01*
X127796393Y-61326499D01*
X127678376Y-61243861D01*
X127634751Y-61189284D01*
X127625500Y-61142287D01*
X127625500Y-59966519D01*
X127645185Y-59899480D01*
X127661819Y-59878838D01*
X127903838Y-59636819D01*
X127965161Y-59603334D01*
X127991519Y-59600500D01*
X128368327Y-59600500D01*
X128435366Y-59620185D01*
X128469902Y-59653377D01*
X128529954Y-59739141D01*
X128690858Y-59900045D01*
X128737693Y-59932839D01*
X128877266Y-60030568D01*
X129083504Y-60126739D01*
X129303308Y-60185635D01*
X129465230Y-60199801D01*
X129529998Y-60205468D01*
X129530000Y-60205468D01*
X129530002Y-60205468D01*
X129586673Y-60200509D01*
X129756692Y-60185635D01*
X129976496Y-60126739D01*
X130182734Y-60030568D01*
X130369139Y-59900047D01*
X130530047Y-59739139D01*
X130660568Y-59552734D01*
X130756739Y-59346496D01*
X130815635Y-59126692D01*
X130832490Y-58934038D01*
X134229500Y-58934038D01*
X134229500Y-59185962D01*
X134267853Y-59428110D01*
X134268910Y-59434785D01*
X134346760Y-59674383D01*
X134461132Y-59898848D01*
X134609201Y-60102649D01*
X134609205Y-60102654D01*
X134787345Y-60280794D01*
X134787350Y-60280798D01*
X134965117Y-60409952D01*
X134991155Y-60428870D01*
X135106871Y-60487830D01*
X135215616Y-60543239D01*
X135215618Y-60543239D01*
X135215621Y-60543241D01*
X135455215Y-60621090D01*
X135704038Y-60660500D01*
X135704039Y-60660500D01*
X135955961Y-60660500D01*
X135955962Y-60660500D01*
X136204785Y-60621090D01*
X136444379Y-60543241D01*
X136668845Y-60428870D01*
X136872656Y-60280793D01*
X137050793Y-60102656D01*
X137198870Y-59898845D01*
X137313241Y-59674379D01*
X137391090Y-59434785D01*
X137430500Y-59185962D01*
X137430500Y-58934038D01*
X137391090Y-58685215D01*
X137313241Y-58445621D01*
X137313239Y-58445618D01*
X137313239Y-58445616D01*
X137228458Y-58279225D01*
X137198870Y-58221155D01*
X137176415Y-58190248D01*
X137050798Y-58017350D01*
X137050794Y-58017345D01*
X136872654Y-57839205D01*
X136872649Y-57839201D01*
X136668848Y-57691132D01*
X136668847Y-57691131D01*
X136668845Y-57691130D01*
X136598747Y-57655413D01*
X136444383Y-57576760D01*
X136204785Y-57498910D01*
X136149698Y-57490185D01*
X135955962Y-57459500D01*
X135704038Y-57459500D01*
X135579626Y-57479205D01*
X135455214Y-57498910D01*
X135215616Y-57576760D01*
X134991151Y-57691132D01*
X134787350Y-57839201D01*
X134787345Y-57839205D01*
X134609205Y-58017345D01*
X134609201Y-58017350D01*
X134461132Y-58221151D01*
X134346760Y-58445616D01*
X134272777Y-58673313D01*
X134268910Y-58685215D01*
X134229500Y-58934038D01*
X130832490Y-58934038D01*
X130835468Y-58900000D01*
X130815635Y-58673308D01*
X130756739Y-58453504D01*
X130660568Y-58247266D01*
X130530047Y-58060861D01*
X130530045Y-58060858D01*
X130391868Y-57922681D01*
X130358383Y-57861358D01*
X130363367Y-57791666D01*
X130391868Y-57747319D01*
X130530045Y-57609141D01*
X130530047Y-57609139D01*
X130660568Y-57422734D01*
X130756739Y-57216496D01*
X130815635Y-56996692D01*
X130835468Y-56770000D01*
X130815635Y-56543308D01*
X130756739Y-56323504D01*
X130660568Y-56117266D01*
X130530047Y-55930861D01*
X130530045Y-55930858D01*
X130391868Y-55792681D01*
X130358383Y-55731358D01*
X130363367Y-55661666D01*
X130391868Y-55617319D01*
X130530045Y-55479141D01*
X130530047Y-55479139D01*
X130590098Y-55393377D01*
X130644675Y-55349752D01*
X130691673Y-55340500D01*
X130848481Y-55340500D01*
X130915520Y-55360185D01*
X130936162Y-55376819D01*
X131573453Y-56014111D01*
X131573454Y-56014112D01*
X131688190Y-56090776D01*
X131752146Y-56117267D01*
X131815671Y-56143580D01*
X131815672Y-56143580D01*
X131815677Y-56143582D01*
X131842545Y-56148925D01*
X131842551Y-56148926D01*
X131842591Y-56148934D01*
X131932937Y-56166905D01*
X131951006Y-56170500D01*
X131951007Y-56170500D01*
X135518996Y-56170500D01*
X135627457Y-56148925D01*
X135654328Y-56143580D01*
X135718069Y-56117177D01*
X135781807Y-56090777D01*
X135781808Y-56090776D01*
X135781811Y-56090775D01*
X135896543Y-56014114D01*
X136829113Y-55081543D01*
X136836972Y-55069781D01*
X136844721Y-55058186D01*
X136875086Y-55012741D01*
X136905775Y-54966811D01*
X136905776Y-54966807D01*
X136909159Y-54961745D01*
X136911275Y-54963159D01*
X136952440Y-54921240D01*
X136953837Y-54920472D01*
X137053626Y-54866470D01*
X137236784Y-54723913D01*
X137393979Y-54553153D01*
X137520924Y-54358849D01*
X137614157Y-54146300D01*
X137671134Y-53921305D01*
X137671135Y-53921297D01*
X137690300Y-53690006D01*
X137690300Y-53689993D01*
X137671135Y-53458702D01*
X137671133Y-53458691D01*
X137614157Y-53233699D01*
X137520924Y-53021151D01*
X137393983Y-52826852D01*
X137393980Y-52826849D01*
X137393979Y-52826847D01*
X137236784Y-52656087D01*
X137236779Y-52656083D01*
X137236777Y-52656081D01*
X137053634Y-52513535D01*
X137053628Y-52513531D01*
X136849504Y-52403064D01*
X136849495Y-52403061D01*
X136629984Y-52327702D01*
X136439450Y-52295908D01*
X136401049Y-52289500D01*
X136168951Y-52289500D01*
X136130550Y-52295908D01*
X135940015Y-52327702D01*
X135720504Y-52403061D01*
X135720495Y-52403064D01*
X135516371Y-52513531D01*
X135516365Y-52513535D01*
X135333222Y-52656081D01*
X135333218Y-52656085D01*
X135324866Y-52665158D01*
X135264979Y-52701148D01*
X135195141Y-52699047D01*
X135137525Y-52659522D01*
X135117455Y-52624507D01*
X135088797Y-52547671D01*
X135088793Y-52547664D01*
X135002547Y-52432455D01*
X135002544Y-52432452D01*
X134887335Y-52346206D01*
X134887328Y-52346202D01*
X134752482Y-52295908D01*
X134752483Y-52295908D01*
X134692883Y-52289501D01*
X134692881Y-52289500D01*
X134692873Y-52289500D01*
X134692864Y-52289500D01*
X132797129Y-52289500D01*
X132797123Y-52289501D01*
X132737516Y-52295908D01*
X132602671Y-52346202D01*
X132602664Y-52346206D01*
X132487455Y-52432452D01*
X132487452Y-52432455D01*
X132401206Y-52547664D01*
X132401202Y-52547671D01*
X132350908Y-52682517D01*
X132344501Y-52742116D01*
X132344500Y-52742135D01*
X132344500Y-54504481D01*
X132324815Y-54571520D01*
X132272011Y-54617275D01*
X132202853Y-54627219D01*
X132139297Y-54598194D01*
X132132819Y-54592162D01*
X131636546Y-54095888D01*
X131636545Y-54095887D01*
X131521807Y-54019222D01*
X131394332Y-53966421D01*
X131394322Y-53966418D01*
X131258996Y-53939500D01*
X131258994Y-53939500D01*
X131258993Y-53939500D01*
X130691673Y-53939500D01*
X130624634Y-53919815D01*
X130590098Y-53886623D01*
X130530045Y-53800858D01*
X130369141Y-53639954D01*
X130182734Y-53509432D01*
X130182732Y-53509431D01*
X129976497Y-53413261D01*
X129976488Y-53413258D01*
X129756697Y-53354366D01*
X129756693Y-53354365D01*
X129756692Y-53354365D01*
X129756691Y-53354364D01*
X129756686Y-53354364D01*
X129530002Y-53334532D01*
X129529998Y-53334532D01*
X129303313Y-53354364D01*
X129303302Y-53354366D01*
X129083511Y-53413258D01*
X129083502Y-53413261D01*
X128877267Y-53509431D01*
X128877265Y-53509432D01*
X128690858Y-53639954D01*
X128529954Y-53800858D01*
X128399432Y-53987265D01*
X128399431Y-53987267D01*
X128303261Y-54193502D01*
X128303258Y-54193511D01*
X128244366Y-54413302D01*
X128244364Y-54413313D01*
X128224532Y-54639998D01*
X128224532Y-54640001D01*
X128244364Y-54866686D01*
X128244366Y-54866697D01*
X128303258Y-55086488D01*
X128303261Y-55086497D01*
X128399431Y-55292732D01*
X128399432Y-55292734D01*
X128529954Y-55479141D01*
X128668132Y-55617319D01*
X128701617Y-55678642D01*
X128696633Y-55748334D01*
X128668132Y-55792681D01*
X128529954Y-55930858D01*
X128469902Y-56016623D01*
X128415325Y-56060248D01*
X128368327Y-56069500D01*
X125531479Y-56069500D01*
X125507287Y-56067117D01*
X125488691Y-56063418D01*
X125468995Y-56059500D01*
X125468994Y-56059500D01*
X125331006Y-56059500D01*
X125331004Y-56059500D01*
X125195677Y-56086418D01*
X125195667Y-56086421D01*
X125068192Y-56139222D01*
X124953454Y-56215887D01*
X123840887Y-57328454D01*
X123764222Y-57443192D01*
X123711421Y-57570667D01*
X123711418Y-57570679D01*
X123691014Y-57673259D01*
X123691014Y-57673262D01*
X123684500Y-57706006D01*
X123684500Y-61142288D01*
X123664815Y-61209327D01*
X123631624Y-61243863D01*
X123513597Y-61326505D01*
X123391284Y-61448819D01*
X123329961Y-61482303D01*
X123260269Y-61477319D01*
X123204336Y-61435447D01*
X123187421Y-61404470D01*
X123138354Y-61272913D01*
X123138350Y-61272906D01*
X123052190Y-61157812D01*
X123052187Y-61157809D01*
X122937093Y-61071649D01*
X122937086Y-61071645D01*
X122802379Y-61021403D01*
X122802372Y-61021401D01*
X122742844Y-61015000D01*
X122095000Y-61015000D01*
X122095000Y-61931988D01*
X122037993Y-61899075D01*
X121910826Y-61865000D01*
X121779174Y-61865000D01*
X121652007Y-61899075D01*
X121595000Y-61931988D01*
X121595000Y-61015000D01*
X120947155Y-61015000D01*
X120887627Y-61021401D01*
X120887620Y-61021403D01*
X120752913Y-61071645D01*
X120752910Y-61071647D01*
X120658811Y-61142090D01*
X120593347Y-61166507D01*
X120525074Y-61151655D01*
X120475668Y-61102250D01*
X120460500Y-61042823D01*
X120460500Y-59428110D01*
X120480185Y-59361071D01*
X120532989Y-59315316D01*
X120602147Y-59305372D01*
X120665703Y-59334397D01*
X120696880Y-59375703D01*
X120724431Y-59434785D01*
X120779431Y-59552732D01*
X120779432Y-59552734D01*
X120909954Y-59739141D01*
X121070858Y-59900045D01*
X121117693Y-59932839D01*
X121257266Y-60030568D01*
X121463504Y-60126739D01*
X121683308Y-60185635D01*
X121845230Y-60199801D01*
X121909998Y-60205468D01*
X121910000Y-60205468D01*
X121910002Y-60205468D01*
X121966673Y-60200509D01*
X122136692Y-60185635D01*
X122356496Y-60126739D01*
X122562734Y-60030568D01*
X122749139Y-59900047D01*
X122910047Y-59739139D01*
X123040568Y-59552734D01*
X123136739Y-59346496D01*
X123195635Y-59126692D01*
X123215468Y-58900000D01*
X123195635Y-58673308D01*
X123136739Y-58453504D01*
X123040568Y-58247266D01*
X122910047Y-58060861D01*
X122910045Y-58060858D01*
X122771868Y-57922681D01*
X122738383Y-57861358D01*
X122743367Y-57791666D01*
X122771868Y-57747319D01*
X122910045Y-57609141D01*
X122910047Y-57609139D01*
X123040568Y-57422734D01*
X123136739Y-57216496D01*
X123195635Y-56996692D01*
X123215468Y-56770000D01*
X123195635Y-56543308D01*
X123136739Y-56323504D01*
X123040568Y-56117266D01*
X122910047Y-55930861D01*
X122910045Y-55930858D01*
X122749141Y-55769954D01*
X122562735Y-55639432D01*
X122560649Y-55638228D01*
X122534970Y-55618523D01*
X121956448Y-55040000D01*
X121962661Y-55040000D01*
X122064394Y-55012741D01*
X122155606Y-54960080D01*
X122230080Y-54885606D01*
X122282741Y-54794394D01*
X122310000Y-54692661D01*
X122310000Y-54686447D01*
X122989024Y-55365471D01*
X123040136Y-55292478D01*
X123136264Y-55086331D01*
X123136269Y-55086317D01*
X123195139Y-54866610D01*
X123195141Y-54866599D01*
X123214966Y-54640002D01*
X123214966Y-54639997D01*
X123195141Y-54413400D01*
X123195139Y-54413389D01*
X123136269Y-54193682D01*
X123136264Y-54193668D01*
X123040136Y-53987521D01*
X123040132Y-53987513D01*
X122989025Y-53914526D01*
X122310000Y-54593551D01*
X122310000Y-54587339D01*
X122282741Y-54485606D01*
X122230080Y-54394394D01*
X122155606Y-54319920D01*
X122064394Y-54267259D01*
X121962661Y-54240000D01*
X121956448Y-54240000D01*
X122635472Y-53560974D01*
X122562478Y-53509863D01*
X122356331Y-53413735D01*
X122356317Y-53413730D01*
X122136610Y-53354860D01*
X122136599Y-53354858D01*
X121910002Y-53335034D01*
X121909998Y-53335034D01*
X121683400Y-53354858D01*
X121683389Y-53354860D01*
X121463682Y-53413730D01*
X121463673Y-53413734D01*
X121257516Y-53509866D01*
X121257512Y-53509868D01*
X121184526Y-53560973D01*
X121184526Y-53560974D01*
X121863553Y-54240000D01*
X121857339Y-54240000D01*
X121755606Y-54267259D01*
X121664394Y-54319920D01*
X121589920Y-54394394D01*
X121537259Y-54485606D01*
X121510000Y-54587339D01*
X121510000Y-54593552D01*
X120830974Y-53914526D01*
X120830973Y-53914526D01*
X120779868Y-53987512D01*
X120779866Y-53987516D01*
X120696882Y-54165477D01*
X120650710Y-54217916D01*
X120583516Y-54237068D01*
X120516635Y-54216852D01*
X120471300Y-54163687D01*
X120460500Y-54113072D01*
X120460500Y-48281518D01*
X120480185Y-48214479D01*
X120496814Y-48193842D01*
X120757801Y-47932855D01*
X120819122Y-47899372D01*
X120888814Y-47904356D01*
X120944747Y-47946228D01*
X120969008Y-48009730D01*
X120974858Y-48076600D01*
X120974860Y-48076610D01*
X121033730Y-48296317D01*
X121033735Y-48296331D01*
X121129863Y-48502478D01*
X121180974Y-48575472D01*
X121860000Y-47896446D01*
X121860000Y-47902661D01*
X121887259Y-48004394D01*
X121939920Y-48095606D01*
X122014394Y-48170080D01*
X122105606Y-48222741D01*
X122207339Y-48250000D01*
X122213553Y-48250000D01*
X121534526Y-48929025D01*
X121607513Y-48980132D01*
X121607521Y-48980136D01*
X121813668Y-49076264D01*
X121813682Y-49076269D01*
X122014083Y-49129966D01*
X122073744Y-49166331D01*
X122104273Y-49229178D01*
X122095978Y-49298553D01*
X122051493Y-49352431D01*
X122014083Y-49369516D01*
X121813511Y-49423258D01*
X121813502Y-49423261D01*
X121607267Y-49519431D01*
X121607265Y-49519432D01*
X121420858Y-49649954D01*
X121259954Y-49810858D01*
X121129432Y-49997265D01*
X121129431Y-49997267D01*
X121033261Y-50203502D01*
X121033258Y-50203511D01*
X120974366Y-50423302D01*
X120974364Y-50423313D01*
X120954532Y-50649998D01*
X120954532Y-50650001D01*
X120974364Y-50876686D01*
X120974366Y-50876697D01*
X121033258Y-51096488D01*
X121033261Y-51096497D01*
X121129431Y-51302732D01*
X121129432Y-51302734D01*
X121259954Y-51489141D01*
X121420858Y-51650045D01*
X121420861Y-51650047D01*
X121607266Y-51780568D01*
X121813504Y-51876739D01*
X122033308Y-51935635D01*
X122195230Y-51949801D01*
X122259998Y-51955468D01*
X122260000Y-51955468D01*
X122260002Y-51955468D01*
X122316673Y-51950509D01*
X122486692Y-51935635D01*
X122706496Y-51876739D01*
X122912734Y-51780568D01*
X123099139Y-51650047D01*
X123260047Y-51489139D01*
X123390568Y-51302734D01*
X123486739Y-51096496D01*
X123545635Y-50876692D01*
X123565468Y-50650000D01*
X123545635Y-50423308D01*
X123486739Y-50203504D01*
X123390568Y-49997266D01*
X123260047Y-49810861D01*
X123260045Y-49810858D01*
X123099141Y-49649954D01*
X122912734Y-49519432D01*
X122912732Y-49519431D01*
X122706497Y-49423261D01*
X122706488Y-49423258D01*
X122505916Y-49369516D01*
X122446255Y-49333151D01*
X122415726Y-49270304D01*
X122424021Y-49200929D01*
X122468506Y-49147051D01*
X122505916Y-49129966D01*
X122706317Y-49076269D01*
X122706331Y-49076264D01*
X122912478Y-48980136D01*
X122985471Y-48929024D01*
X122306447Y-48250000D01*
X122312661Y-48250000D01*
X122414394Y-48222741D01*
X122505606Y-48170080D01*
X122580080Y-48095606D01*
X122632741Y-48004394D01*
X122660000Y-47902661D01*
X122660000Y-47896447D01*
X123181767Y-48418214D01*
X123206467Y-48453489D01*
X123229428Y-48502728D01*
X123229432Y-48502735D01*
X123359954Y-48689141D01*
X123520858Y-48850045D01*
X123520861Y-48850047D01*
X123707266Y-48980568D01*
X123913504Y-49076739D01*
X124133308Y-49135635D01*
X124295230Y-49149801D01*
X124359998Y-49155468D01*
X124360000Y-49155468D01*
X124360002Y-49155468D01*
X124416807Y-49150498D01*
X124586692Y-49135635D01*
X124806496Y-49076739D01*
X125012734Y-48980568D01*
X125199139Y-48850047D01*
X125360047Y-48689139D01*
X125433928Y-48583624D01*
X125488500Y-48540002D01*
X125557998Y-48532808D01*
X125620354Y-48564330D01*
X125655768Y-48624559D01*
X125659500Y-48654747D01*
X125659500Y-48697868D01*
X125659501Y-48697876D01*
X125665908Y-48757483D01*
X125716202Y-48892328D01*
X125716206Y-48892335D01*
X125802452Y-49007544D01*
X125802455Y-49007547D01*
X125917664Y-49093793D01*
X125917671Y-49093797D01*
X126052517Y-49144091D01*
X126052516Y-49144091D01*
X126059444Y-49144835D01*
X126112127Y-49150500D01*
X127807872Y-49150499D01*
X127867483Y-49144091D01*
X128002331Y-49093796D01*
X128117546Y-49007546D01*
X128158444Y-48952913D01*
X128214376Y-48911042D01*
X128284068Y-48906058D01*
X128328832Y-48925648D01*
X128407266Y-48980568D01*
X128613504Y-49076739D01*
X128613509Y-49076740D01*
X128613511Y-49076741D01*
X128813117Y-49130225D01*
X128872778Y-49166590D01*
X128903307Y-49229437D01*
X128895012Y-49298812D01*
X128850527Y-49352690D01*
X128813117Y-49369775D01*
X128613511Y-49423258D01*
X128613502Y-49423261D01*
X128407267Y-49519431D01*
X128407265Y-49519432D01*
X128220858Y-49649954D01*
X128059954Y-49810858D01*
X127929432Y-49997265D01*
X127929431Y-49997267D01*
X127833261Y-50203502D01*
X127833258Y-50203511D01*
X127774366Y-50423302D01*
X127774364Y-50423313D01*
X127754532Y-50649998D01*
X127754532Y-50650001D01*
X127774364Y-50876686D01*
X127774366Y-50876697D01*
X127833258Y-51096488D01*
X127833261Y-51096497D01*
X127929431Y-51302732D01*
X127929432Y-51302734D01*
X128059954Y-51489141D01*
X128220858Y-51650045D01*
X128220861Y-51650047D01*
X128407266Y-51780568D01*
X128613504Y-51876739D01*
X128833308Y-51935635D01*
X128995230Y-51949801D01*
X129059998Y-51955468D01*
X129060000Y-51955468D01*
X129060002Y-51955468D01*
X129116673Y-51950509D01*
X129286692Y-51935635D01*
X129506496Y-51876739D01*
X129712734Y-51780568D01*
X129899139Y-51650047D01*
X130060047Y-51489139D01*
X130120098Y-51403377D01*
X130174675Y-51359752D01*
X130221673Y-51350500D01*
X130643996Y-51350500D01*
X130735040Y-51332389D01*
X130779328Y-51323580D01*
X130843069Y-51297177D01*
X130906807Y-51270777D01*
X130906808Y-51270776D01*
X130906811Y-51270775D01*
X131021543Y-51194114D01*
X131669113Y-50546543D01*
X131745774Y-50431812D01*
X131745775Y-50431811D01*
X131798580Y-50304328D01*
X131818634Y-50203511D01*
X131825500Y-50168995D01*
X131825500Y-47331004D01*
X131825499Y-47331002D01*
X131818779Y-47297215D01*
X131825006Y-47227624D01*
X131867869Y-47172446D01*
X131933759Y-47149202D01*
X131978708Y-47155092D01*
X132108506Y-47197266D01*
X132158631Y-47213553D01*
X132391903Y-47250500D01*
X132391908Y-47250500D01*
X132628097Y-47250500D01*
X132861368Y-47213553D01*
X132911494Y-47197266D01*
X133085992Y-47140568D01*
X133296433Y-47033343D01*
X133487510Y-46894517D01*
X133654517Y-46727510D01*
X133793343Y-46536433D01*
X133900568Y-46325992D01*
X133973553Y-46101368D01*
X133979103Y-46066325D01*
X134010500Y-45868097D01*
X134010500Y-44131902D01*
X133973553Y-43898631D01*
X133900566Y-43674003D01*
X133793342Y-43463566D01*
X133654517Y-43272490D01*
X133487510Y-43105483D01*
X133296433Y-42966657D01*
X133085996Y-42859433D01*
X132861368Y-42786446D01*
X132628097Y-42749500D01*
X132628092Y-42749500D01*
X132391908Y-42749500D01*
X132391903Y-42749500D01*
X132158631Y-42786446D01*
X131934003Y-42859433D01*
X131723566Y-42966657D01*
X131614550Y-43045862D01*
X131532490Y-43105483D01*
X131532488Y-43105485D01*
X131532487Y-43105485D01*
X131365485Y-43272487D01*
X131365485Y-43272488D01*
X131365483Y-43272490D01*
X131305862Y-43354550D01*
X131226657Y-43463566D01*
X131119433Y-43674003D01*
X131046446Y-43898631D01*
X131009500Y-44131902D01*
X131009500Y-45868097D01*
X131029921Y-45997031D01*
X131020966Y-46066325D01*
X130975970Y-46119777D01*
X130909219Y-46140416D01*
X130841905Y-46121691D01*
X130819767Y-46104110D01*
X129921546Y-45205888D01*
X129921545Y-45205887D01*
X129806807Y-45129222D01*
X129679332Y-45076421D01*
X129679322Y-45076418D01*
X129543996Y-45049500D01*
X129543994Y-45049500D01*
X129543993Y-45049500D01*
X128113559Y-45049500D01*
X128046520Y-45029815D01*
X128000765Y-44977011D01*
X127990821Y-44907853D01*
X128003074Y-44869205D01*
X128016414Y-44843022D01*
X128050568Y-44775992D01*
X128123553Y-44551368D01*
X128160500Y-44318097D01*
X128160500Y-44081902D01*
X128123553Y-43848631D01*
X128050566Y-43624003D01*
X127943342Y-43413566D01*
X127804517Y-43222490D01*
X127637510Y-43055483D01*
X127446433Y-42916657D01*
X127235996Y-42809433D01*
X127011368Y-42736446D01*
X126778097Y-42699500D01*
X126778092Y-42699500D01*
X124541908Y-42699500D01*
X124541903Y-42699500D01*
X124308631Y-42736446D01*
X124084003Y-42809433D01*
X123873566Y-42916657D01*
X123804748Y-42966657D01*
X123682490Y-43055483D01*
X123682488Y-43055485D01*
X123682487Y-43055485D01*
X123515485Y-43222487D01*
X123515485Y-43222488D01*
X123515483Y-43222490D01*
X123479158Y-43272487D01*
X123376657Y-43413566D01*
X123269433Y-43624003D01*
X123196446Y-43848631D01*
X123159500Y-44081902D01*
X123159500Y-44318097D01*
X123196446Y-44551368D01*
X123239372Y-44683477D01*
X123269432Y-44775992D01*
X123269433Y-44775995D01*
X123269434Y-44775996D01*
X123316926Y-44869205D01*
X123329822Y-44937875D01*
X123303545Y-45002615D01*
X123246439Y-45042872D01*
X123206441Y-45049500D01*
X120856004Y-45049500D01*
X120720677Y-45076418D01*
X120720667Y-45076421D01*
X120593192Y-45129223D01*
X120503390Y-45189226D01*
X120436712Y-45210103D01*
X120369332Y-45191618D01*
X120322643Y-45139639D01*
X120310500Y-45086123D01*
X120310500Y-44131902D01*
X120273553Y-43898631D01*
X120200566Y-43674003D01*
X120093342Y-43463566D01*
X119954517Y-43272490D01*
X119787510Y-43105483D01*
X119596433Y-42966657D01*
X119385996Y-42859433D01*
X119161368Y-42786446D01*
X118928097Y-42749500D01*
X118928092Y-42749500D01*
X118691908Y-42749500D01*
X118691903Y-42749500D01*
X118458631Y-42786446D01*
X118234003Y-42859433D01*
X118023566Y-42966657D01*
X117914550Y-43045862D01*
X117832490Y-43105483D01*
X117832488Y-43105485D01*
X117832487Y-43105485D01*
X117665485Y-43272487D01*
X117665485Y-43272488D01*
X117665483Y-43272490D01*
X117605862Y-43354550D01*
X117526657Y-43463566D01*
X117419433Y-43674003D01*
X117346446Y-43898631D01*
X117309500Y-44131902D01*
X117309500Y-45868097D01*
X117346446Y-46101368D01*
X117419433Y-46325996D01*
X117501377Y-46486818D01*
X117526657Y-46536433D01*
X117665483Y-46727510D01*
X117832490Y-46894517D01*
X118023567Y-47033343D01*
X118234008Y-47140568D01*
X118313557Y-47166415D01*
X118371233Y-47205853D01*
X118398431Y-47270211D01*
X118389800Y-47331798D01*
X118336421Y-47460667D01*
X118336418Y-47460677D01*
X118309500Y-47596004D01*
X118309500Y-56100188D01*
X118289815Y-56167227D01*
X118237011Y-56212982D01*
X118167853Y-56222926D01*
X118104297Y-56193901D01*
X118093351Y-56183161D01*
X118015871Y-56097112D01*
X118015870Y-56097111D01*
X117862734Y-55985851D01*
X117862729Y-55985848D01*
X117689807Y-55908857D01*
X117689802Y-55908855D01*
X117544001Y-55877865D01*
X117504646Y-55869500D01*
X117434500Y-55869500D01*
X117367461Y-55849815D01*
X117321706Y-55797011D01*
X117310500Y-55745500D01*
X117310500Y-55321004D01*
X117310499Y-55321002D01*
X117283581Y-55185677D01*
X117283579Y-55185669D01*
X117279800Y-55176547D01*
X117279797Y-55176540D01*
X117261707Y-55132867D01*
X117261707Y-55132866D01*
X117230778Y-55058194D01*
X117230771Y-55058182D01*
X117154114Y-54943458D01*
X117154111Y-54943454D01*
X117115130Y-54904474D01*
X117115127Y-54904469D01*
X116876543Y-54665886D01*
X116396546Y-54185888D01*
X116396545Y-54185887D01*
X116281807Y-54109222D01*
X116154332Y-54056421D01*
X116154322Y-54056418D01*
X116018996Y-54029500D01*
X116018994Y-54029500D01*
X116018993Y-54029500D01*
X115662711Y-54029500D01*
X115595672Y-54009815D01*
X115561136Y-53976623D01*
X115553990Y-53966418D01*
X115521359Y-53919815D01*
X115478494Y-53858597D01*
X115311402Y-53691506D01*
X115311395Y-53691501D01*
X115309251Y-53690000D01*
X115237777Y-53639953D01*
X115117834Y-53555967D01*
X115117830Y-53555965D01*
X115117828Y-53555964D01*
X114903663Y-53456097D01*
X114903659Y-53456096D01*
X114903655Y-53456094D01*
X114675413Y-53394938D01*
X114675403Y-53394936D01*
X114440001Y-53374341D01*
X114439999Y-53374341D01*
X114204596Y-53394936D01*
X114204586Y-53394938D01*
X113976344Y-53456094D01*
X113976335Y-53456098D01*
X113762171Y-53555964D01*
X113762169Y-53555965D01*
X113568597Y-53691505D01*
X113401505Y-53858597D01*
X113265965Y-54052169D01*
X113265964Y-54052171D01*
X113166098Y-54266335D01*
X113166094Y-54266344D01*
X113104938Y-54494586D01*
X113104936Y-54494596D01*
X113084341Y-54729999D01*
X113084341Y-54730000D01*
X113104936Y-54965403D01*
X113104938Y-54965413D01*
X113166094Y-55193655D01*
X113166096Y-55193659D01*
X113166097Y-55193663D01*
X113238883Y-55349752D01*
X113265965Y-55407830D01*
X113265967Y-55407834D01*
X113401501Y-55601395D01*
X113401506Y-55601402D01*
X113568597Y-55768493D01*
X113568603Y-55768498D01*
X113754158Y-55898425D01*
X113797783Y-55953002D01*
X113804977Y-56022500D01*
X113773454Y-56084855D01*
X113754158Y-56101575D01*
X113568597Y-56231505D01*
X113401505Y-56398597D01*
X113265965Y-56592169D01*
X113265964Y-56592171D01*
X113166098Y-56806335D01*
X113166094Y-56806344D01*
X113104938Y-57034586D01*
X113104936Y-57034596D01*
X113084341Y-57269999D01*
X113084341Y-57270000D01*
X113104936Y-57505403D01*
X113104938Y-57505413D01*
X113166094Y-57733655D01*
X113166096Y-57733659D01*
X113166097Y-57733663D01*
X113243640Y-57899953D01*
X113265965Y-57947830D01*
X113265967Y-57947834D01*
X113401501Y-58141395D01*
X113401506Y-58141402D01*
X113568597Y-58308493D01*
X113568603Y-58308498D01*
X113754158Y-58438425D01*
X113797783Y-58493002D01*
X113804977Y-58562500D01*
X113773454Y-58624855D01*
X113754158Y-58641575D01*
X113568597Y-58771505D01*
X113401505Y-58938597D01*
X113265965Y-59132169D01*
X113265964Y-59132171D01*
X113166098Y-59346335D01*
X113166094Y-59346344D01*
X113104938Y-59574586D01*
X113104936Y-59574596D01*
X113084341Y-59809999D01*
X113084341Y-59810000D01*
X113104936Y-60045403D01*
X113104938Y-60045413D01*
X113166094Y-60273655D01*
X113166096Y-60273659D01*
X113166097Y-60273663D01*
X113265965Y-60487830D01*
X113265967Y-60487834D01*
X113401501Y-60681395D01*
X113401506Y-60681402D01*
X113523818Y-60803714D01*
X113557303Y-60865037D01*
X113552319Y-60934729D01*
X113510447Y-60990662D01*
X113479471Y-61007577D01*
X113347912Y-61056646D01*
X113347906Y-61056649D01*
X113232812Y-61142809D01*
X113232809Y-61142812D01*
X113146649Y-61257906D01*
X113146645Y-61257913D01*
X113096403Y-61392620D01*
X113096401Y-61392627D01*
X113090000Y-61452155D01*
X113090000Y-62100000D01*
X114006988Y-62100000D01*
X113974075Y-62157007D01*
X113940000Y-62284174D01*
X113940000Y-62415826D01*
X113974075Y-62542993D01*
X114006988Y-62600000D01*
X113090000Y-62600000D01*
X113090000Y-63247844D01*
X113096401Y-63307372D01*
X113096403Y-63307379D01*
X113146645Y-63442086D01*
X113146649Y-63442093D01*
X113232809Y-63557187D01*
X113232812Y-63557190D01*
X113347906Y-63643350D01*
X113347913Y-63643354D01*
X113482620Y-63693596D01*
X113482627Y-63693598D01*
X113542155Y-63699999D01*
X113542172Y-63700000D01*
X114190000Y-63700000D01*
X114190000Y-62783012D01*
X114247007Y-62815925D01*
X114374174Y-62850000D01*
X114505826Y-62850000D01*
X114632993Y-62815925D01*
X114690000Y-62783012D01*
X114690000Y-63700000D01*
X115185500Y-63700000D01*
X115252539Y-63719685D01*
X115298294Y-63772489D01*
X115309500Y-63824000D01*
X115309500Y-69574608D01*
X115289815Y-69641647D01*
X115277656Y-69657574D01*
X115277468Y-69657782D01*
X115277464Y-69657787D01*
X115182821Y-69821715D01*
X115182818Y-69821722D01*
X115139477Y-69955113D01*
X115100039Y-70012789D01*
X115035681Y-70039987D01*
X114966834Y-70028072D01*
X114915359Y-69980828D01*
X114901771Y-69948888D01*
X114846741Y-69743511D01*
X114846738Y-69743502D01*
X114797501Y-69637913D01*
X114750568Y-69537266D01*
X114640450Y-69380000D01*
X114620045Y-69350858D01*
X114459143Y-69189956D01*
X114434536Y-69172726D01*
X114390912Y-69118149D01*
X114383719Y-69048650D01*
X114415241Y-68986296D01*
X114475471Y-68950882D01*
X114492404Y-68947861D01*
X114527483Y-68944091D01*
X114662331Y-68893796D01*
X114777546Y-68807546D01*
X114863796Y-68692331D01*
X114914091Y-68557483D01*
X114920500Y-68497873D01*
X114920499Y-66802128D01*
X114914091Y-66742517D01*
X114879567Y-66649954D01*
X114863797Y-66607671D01*
X114863793Y-66607664D01*
X114777547Y-66492455D01*
X114777544Y-66492452D01*
X114662335Y-66406206D01*
X114662328Y-66406202D01*
X114527482Y-66355908D01*
X114527483Y-66355908D01*
X114467883Y-66349501D01*
X114467881Y-66349500D01*
X114467873Y-66349500D01*
X114467864Y-66349500D01*
X112772129Y-66349500D01*
X112772123Y-66349501D01*
X112712516Y-66355908D01*
X112577671Y-66406202D01*
X112577664Y-66406206D01*
X112462455Y-66492452D01*
X112462452Y-66492455D01*
X112376206Y-66607664D01*
X112376202Y-66607671D01*
X112325908Y-66742517D01*
X112319501Y-66802116D01*
X112319501Y-66802123D01*
X112319500Y-66802135D01*
X112319500Y-68497870D01*
X112319501Y-68497876D01*
X112325908Y-68557483D01*
X112376202Y-68692328D01*
X112376206Y-68692335D01*
X112462452Y-68807544D01*
X112462455Y-68807547D01*
X112577664Y-68893793D01*
X112577671Y-68893797D01*
X112622618Y-68910561D01*
X112712517Y-68944091D01*
X112747596Y-68947862D01*
X112812144Y-68974599D01*
X112851993Y-69031991D01*
X112854488Y-69101816D01*
X112818836Y-69161905D01*
X112805464Y-69172725D01*
X112780858Y-69189954D01*
X112619954Y-69350858D01*
X112489432Y-69537265D01*
X112489431Y-69537267D01*
X112393261Y-69743502D01*
X112393258Y-69743511D01*
X112334366Y-69963302D01*
X112334364Y-69963313D01*
X112314532Y-70189998D01*
X111925000Y-70189998D01*
X111925000Y-39334000D01*
X111944685Y-39266961D01*
X111997489Y-39221206D01*
X112049000Y-39210000D01*
X139251000Y-39210000D01*
X139318039Y-39229685D01*
G37*
%TD.AperFunction*%
%TD*%
M02*
