%TF.GenerationSoftware,KiCad,Pcbnew,8.0.5*%
%TF.CreationDate,2024-11-15T12:40:48+00:00*%
%TF.ProjectId,TIMPS2KeyMini,54494d50-5332-44b6-9579-4d696e692e6b,rev?*%
%TF.SameCoordinates,Original*%
%TF.FileFunction,Legend,Top*%
%TF.FilePolarity,Positive*%
%FSLAX46Y46*%
G04 Gerber Fmt 4.6, Leading zero omitted, Abs format (unit mm)*
G04 Created by KiCad (PCBNEW 8.0.5) date 2024-11-15 12:40:48*
%MOMM*%
%LPD*%
G01*
G04 APERTURE LIST*
%ADD10C,0.240000*%
%ADD11C,0.200000*%
%ADD12C,0.300000*%
%ADD13C,0.400000*%
%ADD14C,0.120000*%
%ADD15C,0.000000*%
G04 APERTURE END LIST*
D10*
X119435713Y-39508729D02*
X120464285Y-39508729D01*
X119949999Y-40708729D02*
X119949999Y-39508729D01*
X121064285Y-40708729D02*
X121064285Y-39508729D01*
X121921428Y-40708729D02*
X121921428Y-39508729D01*
X121921428Y-39508729D02*
X122521428Y-40365872D01*
X122521428Y-40365872D02*
X123121428Y-39508729D01*
X123121428Y-39508729D02*
X123121428Y-40708729D01*
X125350000Y-40708729D02*
X125350000Y-39508729D01*
X125350000Y-39508729D02*
X126035714Y-39508729D01*
X126035714Y-39508729D02*
X126207143Y-39565872D01*
X126207143Y-39565872D02*
X126292857Y-39623015D01*
X126292857Y-39623015D02*
X126378571Y-39737301D01*
X126378571Y-39737301D02*
X126378571Y-39908729D01*
X126378571Y-39908729D02*
X126292857Y-40023015D01*
X126292857Y-40023015D02*
X126207143Y-40080158D01*
X126207143Y-40080158D02*
X126035714Y-40137301D01*
X126035714Y-40137301D02*
X125350000Y-40137301D01*
X127064286Y-40651587D02*
X127321429Y-40708729D01*
X127321429Y-40708729D02*
X127750000Y-40708729D01*
X127750000Y-40708729D02*
X127921429Y-40651587D01*
X127921429Y-40651587D02*
X128007143Y-40594444D01*
X128007143Y-40594444D02*
X128092857Y-40480158D01*
X128092857Y-40480158D02*
X128092857Y-40365872D01*
X128092857Y-40365872D02*
X128007143Y-40251587D01*
X128007143Y-40251587D02*
X127921429Y-40194444D01*
X127921429Y-40194444D02*
X127750000Y-40137301D01*
X127750000Y-40137301D02*
X127407143Y-40080158D01*
X127407143Y-40080158D02*
X127235714Y-40023015D01*
X127235714Y-40023015D02*
X127150000Y-39965872D01*
X127150000Y-39965872D02*
X127064286Y-39851587D01*
X127064286Y-39851587D02*
X127064286Y-39737301D01*
X127064286Y-39737301D02*
X127150000Y-39623015D01*
X127150000Y-39623015D02*
X127235714Y-39565872D01*
X127235714Y-39565872D02*
X127407143Y-39508729D01*
X127407143Y-39508729D02*
X127835714Y-39508729D01*
X127835714Y-39508729D02*
X128092857Y-39565872D01*
X130150000Y-39451587D02*
X128607143Y-40994444D01*
X130664286Y-39623015D02*
X130750000Y-39565872D01*
X130750000Y-39565872D02*
X130921429Y-39508729D01*
X130921429Y-39508729D02*
X131350000Y-39508729D01*
X131350000Y-39508729D02*
X131521429Y-39565872D01*
X131521429Y-39565872D02*
X131607143Y-39623015D01*
X131607143Y-39623015D02*
X131692857Y-39737301D01*
X131692857Y-39737301D02*
X131692857Y-39851587D01*
X131692857Y-39851587D02*
X131607143Y-40023015D01*
X131607143Y-40023015D02*
X130578571Y-40708729D01*
X130578571Y-40708729D02*
X131692857Y-40708729D01*
X119864285Y-42640662D02*
X119864285Y-41440662D01*
X119864285Y-41440662D02*
X120464285Y-42297805D01*
X120464285Y-42297805D02*
X121064285Y-41440662D01*
X121064285Y-41440662D02*
X121064285Y-42640662D01*
X121921428Y-42640662D02*
X121921428Y-41840662D01*
X121921428Y-41440662D02*
X121835714Y-41497805D01*
X121835714Y-41497805D02*
X121921428Y-41554948D01*
X121921428Y-41554948D02*
X122007142Y-41497805D01*
X122007142Y-41497805D02*
X121921428Y-41440662D01*
X121921428Y-41440662D02*
X121921428Y-41554948D01*
X122778571Y-41840662D02*
X122778571Y-42640662D01*
X122778571Y-41954948D02*
X122864285Y-41897805D01*
X122864285Y-41897805D02*
X123035714Y-41840662D01*
X123035714Y-41840662D02*
X123292857Y-41840662D01*
X123292857Y-41840662D02*
X123464285Y-41897805D01*
X123464285Y-41897805D02*
X123550000Y-42012091D01*
X123550000Y-42012091D02*
X123550000Y-42640662D01*
X124407142Y-42640662D02*
X124407142Y-41840662D01*
X124407142Y-41440662D02*
X124321428Y-41497805D01*
X124321428Y-41497805D02*
X124407142Y-41554948D01*
X124407142Y-41554948D02*
X124492856Y-41497805D01*
X124492856Y-41497805D02*
X124407142Y-41440662D01*
X124407142Y-41440662D02*
X124407142Y-41554948D01*
X126464285Y-41840662D02*
X126892857Y-42640662D01*
X126892857Y-42640662D02*
X127321428Y-41840662D01*
X128950000Y-42640662D02*
X127921429Y-42640662D01*
X128435714Y-42640662D02*
X128435714Y-41440662D01*
X128435714Y-41440662D02*
X128264286Y-41612091D01*
X128264286Y-41612091D02*
X128092857Y-41726377D01*
X128092857Y-41726377D02*
X127921429Y-41783520D01*
X129721429Y-42526377D02*
X129807143Y-42583520D01*
X129807143Y-42583520D02*
X129721429Y-42640662D01*
X129721429Y-42640662D02*
X129635715Y-42583520D01*
X129635715Y-42583520D02*
X129721429Y-42526377D01*
X129721429Y-42526377D02*
X129721429Y-42640662D01*
X131521429Y-42640662D02*
X130492858Y-42640662D01*
X131007143Y-42640662D02*
X131007143Y-41440662D01*
X131007143Y-41440662D02*
X130835715Y-41612091D01*
X130835715Y-41612091D02*
X130664286Y-41726377D01*
X130664286Y-41726377D02*
X130492858Y-41783520D01*
D11*
X131352857Y-66310647D02*
X131524285Y-66348742D01*
X131524285Y-66348742D02*
X131581428Y-66386838D01*
X131581428Y-66386838D02*
X131638571Y-66463028D01*
X131638571Y-66463028D02*
X131638571Y-66577314D01*
X131638571Y-66577314D02*
X131581428Y-66653504D01*
X131581428Y-66653504D02*
X131524285Y-66691600D01*
X131524285Y-66691600D02*
X131410000Y-66729695D01*
X131410000Y-66729695D02*
X130952857Y-66729695D01*
X130952857Y-66729695D02*
X130952857Y-65929695D01*
X130952857Y-65929695D02*
X131352857Y-65929695D01*
X131352857Y-65929695D02*
X131467143Y-65967790D01*
X131467143Y-65967790D02*
X131524285Y-66005885D01*
X131524285Y-66005885D02*
X131581428Y-66082076D01*
X131581428Y-66082076D02*
X131581428Y-66158266D01*
X131581428Y-66158266D02*
X131524285Y-66234457D01*
X131524285Y-66234457D02*
X131467143Y-66272552D01*
X131467143Y-66272552D02*
X131352857Y-66310647D01*
X131352857Y-66310647D02*
X130952857Y-66310647D01*
X132038571Y-65929695D02*
X132838571Y-65929695D01*
X132838571Y-65929695D02*
X132038571Y-66729695D01*
X132038571Y-66729695D02*
X132838571Y-66729695D01*
X133924285Y-66729695D02*
X133238571Y-66729695D01*
X133581428Y-66729695D02*
X133581428Y-65929695D01*
X133581428Y-65929695D02*
X133467142Y-66043980D01*
X133467142Y-66043980D02*
X133352857Y-66120171D01*
X133352857Y-66120171D02*
X133238571Y-66158266D01*
X129915714Y-74260647D02*
X130087142Y-74298742D01*
X130087142Y-74298742D02*
X130144285Y-74336838D01*
X130144285Y-74336838D02*
X130201428Y-74413028D01*
X130201428Y-74413028D02*
X130201428Y-74527314D01*
X130201428Y-74527314D02*
X130144285Y-74603504D01*
X130144285Y-74603504D02*
X130087142Y-74641600D01*
X130087142Y-74641600D02*
X129972857Y-74679695D01*
X129972857Y-74679695D02*
X129515714Y-74679695D01*
X129515714Y-74679695D02*
X129515714Y-73879695D01*
X129515714Y-73879695D02*
X129915714Y-73879695D01*
X129915714Y-73879695D02*
X130030000Y-73917790D01*
X130030000Y-73917790D02*
X130087142Y-73955885D01*
X130087142Y-73955885D02*
X130144285Y-74032076D01*
X130144285Y-74032076D02*
X130144285Y-74108266D01*
X130144285Y-74108266D02*
X130087142Y-74184457D01*
X130087142Y-74184457D02*
X130030000Y-74222552D01*
X130030000Y-74222552D02*
X129915714Y-74260647D01*
X129915714Y-74260647D02*
X129515714Y-74260647D01*
X131230000Y-74146361D02*
X131230000Y-74679695D01*
X130715714Y-74146361D02*
X130715714Y-74565409D01*
X130715714Y-74565409D02*
X130772857Y-74641600D01*
X130772857Y-74641600D02*
X130887142Y-74679695D01*
X130887142Y-74679695D02*
X131058571Y-74679695D01*
X131058571Y-74679695D02*
X131172857Y-74641600D01*
X131172857Y-74641600D02*
X131230000Y-74603504D01*
X131687142Y-74146361D02*
X132315714Y-74146361D01*
X132315714Y-74146361D02*
X131687142Y-74679695D01*
X131687142Y-74679695D02*
X132315714Y-74679695D01*
X132658571Y-74146361D02*
X133287143Y-74146361D01*
X133287143Y-74146361D02*
X132658571Y-74679695D01*
X132658571Y-74679695D02*
X133287143Y-74679695D01*
X134201429Y-74641600D02*
X134087143Y-74679695D01*
X134087143Y-74679695D02*
X133858572Y-74679695D01*
X133858572Y-74679695D02*
X133744286Y-74641600D01*
X133744286Y-74641600D02*
X133687143Y-74565409D01*
X133687143Y-74565409D02*
X133687143Y-74260647D01*
X133687143Y-74260647D02*
X133744286Y-74184457D01*
X133744286Y-74184457D02*
X133858572Y-74146361D01*
X133858572Y-74146361D02*
X134087143Y-74146361D01*
X134087143Y-74146361D02*
X134201429Y-74184457D01*
X134201429Y-74184457D02*
X134258572Y-74260647D01*
X134258572Y-74260647D02*
X134258572Y-74336838D01*
X134258572Y-74336838D02*
X133687143Y-74413028D01*
X134772857Y-74679695D02*
X134772857Y-74146361D01*
X134772857Y-74298742D02*
X134830000Y-74222552D01*
X134830000Y-74222552D02*
X134887143Y-74184457D01*
X134887143Y-74184457D02*
X135001428Y-74146361D01*
X135001428Y-74146361D02*
X135115714Y-74146361D01*
D12*
X128496667Y-68308733D02*
X129563334Y-68308733D01*
X129030000Y-68842066D02*
X129030000Y-67775400D01*
D11*
X132235714Y-84115885D02*
X132121428Y-84077790D01*
X132121428Y-84077790D02*
X132007142Y-84001600D01*
X132007142Y-84001600D02*
X131835714Y-83887314D01*
X131835714Y-83887314D02*
X131721428Y-83849219D01*
X131721428Y-83849219D02*
X131607142Y-83849219D01*
X131664285Y-84039695D02*
X131550000Y-84001600D01*
X131550000Y-84001600D02*
X131435714Y-83925409D01*
X131435714Y-83925409D02*
X131378571Y-83773028D01*
X131378571Y-83773028D02*
X131378571Y-83506361D01*
X131378571Y-83506361D02*
X131435714Y-83353980D01*
X131435714Y-83353980D02*
X131550000Y-83277790D01*
X131550000Y-83277790D02*
X131664285Y-83239695D01*
X131664285Y-83239695D02*
X131892857Y-83239695D01*
X131892857Y-83239695D02*
X132007142Y-83277790D01*
X132007142Y-83277790D02*
X132121428Y-83353980D01*
X132121428Y-83353980D02*
X132178571Y-83506361D01*
X132178571Y-83506361D02*
X132178571Y-83773028D01*
X132178571Y-83773028D02*
X132121428Y-83925409D01*
X132121428Y-83925409D02*
X132007142Y-84001600D01*
X132007142Y-84001600D02*
X131892857Y-84039695D01*
X131892857Y-84039695D02*
X131664285Y-84039695D01*
X133321428Y-84039695D02*
X132635714Y-84039695D01*
X132978571Y-84039695D02*
X132978571Y-83239695D01*
X132978571Y-83239695D02*
X132864285Y-83353980D01*
X132864285Y-83353980D02*
X132750000Y-83430171D01*
X132750000Y-83430171D02*
X132635714Y-83468266D01*
X130221429Y-90380647D02*
X130392857Y-90418742D01*
X130392857Y-90418742D02*
X130450000Y-90456838D01*
X130450000Y-90456838D02*
X130507143Y-90533028D01*
X130507143Y-90533028D02*
X130507143Y-90647314D01*
X130507143Y-90647314D02*
X130450000Y-90723504D01*
X130450000Y-90723504D02*
X130392857Y-90761600D01*
X130392857Y-90761600D02*
X130278572Y-90799695D01*
X130278572Y-90799695D02*
X129821429Y-90799695D01*
X129821429Y-90799695D02*
X129821429Y-89999695D01*
X129821429Y-89999695D02*
X130221429Y-89999695D01*
X130221429Y-89999695D02*
X130335715Y-90037790D01*
X130335715Y-90037790D02*
X130392857Y-90075885D01*
X130392857Y-90075885D02*
X130450000Y-90152076D01*
X130450000Y-90152076D02*
X130450000Y-90228266D01*
X130450000Y-90228266D02*
X130392857Y-90304457D01*
X130392857Y-90304457D02*
X130335715Y-90342552D01*
X130335715Y-90342552D02*
X130221429Y-90380647D01*
X130221429Y-90380647D02*
X129821429Y-90380647D01*
X131707143Y-90723504D02*
X131650000Y-90761600D01*
X131650000Y-90761600D02*
X131478572Y-90799695D01*
X131478572Y-90799695D02*
X131364286Y-90799695D01*
X131364286Y-90799695D02*
X131192857Y-90761600D01*
X131192857Y-90761600D02*
X131078572Y-90685409D01*
X131078572Y-90685409D02*
X131021429Y-90609219D01*
X131021429Y-90609219D02*
X130964286Y-90456838D01*
X130964286Y-90456838D02*
X130964286Y-90342552D01*
X130964286Y-90342552D02*
X131021429Y-90190171D01*
X131021429Y-90190171D02*
X131078572Y-90113980D01*
X131078572Y-90113980D02*
X131192857Y-90037790D01*
X131192857Y-90037790D02*
X131364286Y-89999695D01*
X131364286Y-89999695D02*
X131478572Y-89999695D01*
X131478572Y-89999695D02*
X131650000Y-90037790D01*
X131650000Y-90037790D02*
X131707143Y-90075885D01*
X132792857Y-89999695D02*
X132221429Y-89999695D01*
X132221429Y-89999695D02*
X132164286Y-90380647D01*
X132164286Y-90380647D02*
X132221429Y-90342552D01*
X132221429Y-90342552D02*
X132335715Y-90304457D01*
X132335715Y-90304457D02*
X132621429Y-90304457D01*
X132621429Y-90304457D02*
X132735715Y-90342552D01*
X132735715Y-90342552D02*
X132792857Y-90380647D01*
X132792857Y-90380647D02*
X132850000Y-90456838D01*
X132850000Y-90456838D02*
X132850000Y-90647314D01*
X132850000Y-90647314D02*
X132792857Y-90723504D01*
X132792857Y-90723504D02*
X132735715Y-90761600D01*
X132735715Y-90761600D02*
X132621429Y-90799695D01*
X132621429Y-90799695D02*
X132335715Y-90799695D01*
X132335715Y-90799695D02*
X132221429Y-90761600D01*
X132221429Y-90761600D02*
X132164286Y-90723504D01*
X133935714Y-89999695D02*
X133364286Y-89999695D01*
X133364286Y-89999695D02*
X133307143Y-90380647D01*
X133307143Y-90380647D02*
X133364286Y-90342552D01*
X133364286Y-90342552D02*
X133478572Y-90304457D01*
X133478572Y-90304457D02*
X133764286Y-90304457D01*
X133764286Y-90304457D02*
X133878572Y-90342552D01*
X133878572Y-90342552D02*
X133935714Y-90380647D01*
X133935714Y-90380647D02*
X133992857Y-90456838D01*
X133992857Y-90456838D02*
X133992857Y-90647314D01*
X133992857Y-90647314D02*
X133935714Y-90723504D01*
X133935714Y-90723504D02*
X133878572Y-90761600D01*
X133878572Y-90761600D02*
X133764286Y-90799695D01*
X133764286Y-90799695D02*
X133478572Y-90799695D01*
X133478572Y-90799695D02*
X133364286Y-90761600D01*
X133364286Y-90761600D02*
X133307143Y-90723504D01*
X134735714Y-89999695D02*
X134850000Y-89999695D01*
X134850000Y-89999695D02*
X134964286Y-90037790D01*
X134964286Y-90037790D02*
X135021429Y-90075885D01*
X135021429Y-90075885D02*
X135078571Y-90152076D01*
X135078571Y-90152076D02*
X135135714Y-90304457D01*
X135135714Y-90304457D02*
X135135714Y-90494933D01*
X135135714Y-90494933D02*
X135078571Y-90647314D01*
X135078571Y-90647314D02*
X135021429Y-90723504D01*
X135021429Y-90723504D02*
X134964286Y-90761600D01*
X134964286Y-90761600D02*
X134850000Y-90799695D01*
X134850000Y-90799695D02*
X134735714Y-90799695D01*
X134735714Y-90799695D02*
X134621429Y-90761600D01*
X134621429Y-90761600D02*
X134564286Y-90723504D01*
X134564286Y-90723504D02*
X134507143Y-90647314D01*
X134507143Y-90647314D02*
X134450000Y-90494933D01*
X134450000Y-90494933D02*
X134450000Y-90304457D01*
X134450000Y-90304457D02*
X134507143Y-90152076D01*
X134507143Y-90152076D02*
X134564286Y-90075885D01*
X134564286Y-90075885D02*
X134621429Y-90037790D01*
X134621429Y-90037790D02*
X134735714Y-89999695D01*
X130368571Y-92788742D02*
X130368571Y-93169695D01*
X129968571Y-92369695D02*
X130368571Y-92788742D01*
X130368571Y-92788742D02*
X130768571Y-92369695D01*
X131797142Y-93169695D02*
X131111428Y-93169695D01*
X131454285Y-93169695D02*
X131454285Y-92369695D01*
X131454285Y-92369695D02*
X131339999Y-92483980D01*
X131339999Y-92483980D02*
X131225714Y-92560171D01*
X131225714Y-92560171D02*
X131111428Y-92598266D01*
X128851428Y-95839695D02*
X128165714Y-95839695D01*
X128508571Y-95839695D02*
X128508571Y-95039695D01*
X128508571Y-95039695D02*
X128394285Y-95153980D01*
X128394285Y-95153980D02*
X128280000Y-95230171D01*
X128280000Y-95230171D02*
X128165714Y-95268266D01*
X129880000Y-95039695D02*
X129651428Y-95039695D01*
X129651428Y-95039695D02*
X129537142Y-95077790D01*
X129537142Y-95077790D02*
X129480000Y-95115885D01*
X129480000Y-95115885D02*
X129365714Y-95230171D01*
X129365714Y-95230171D02*
X129308571Y-95382552D01*
X129308571Y-95382552D02*
X129308571Y-95687314D01*
X129308571Y-95687314D02*
X129365714Y-95763504D01*
X129365714Y-95763504D02*
X129422857Y-95801600D01*
X129422857Y-95801600D02*
X129537142Y-95839695D01*
X129537142Y-95839695D02*
X129765714Y-95839695D01*
X129765714Y-95839695D02*
X129880000Y-95801600D01*
X129880000Y-95801600D02*
X129937142Y-95763504D01*
X129937142Y-95763504D02*
X129994285Y-95687314D01*
X129994285Y-95687314D02*
X129994285Y-95496838D01*
X129994285Y-95496838D02*
X129937142Y-95420647D01*
X129937142Y-95420647D02*
X129880000Y-95382552D01*
X129880000Y-95382552D02*
X129765714Y-95344457D01*
X129765714Y-95344457D02*
X129537142Y-95344457D01*
X129537142Y-95344457D02*
X129422857Y-95382552D01*
X129422857Y-95382552D02*
X129365714Y-95420647D01*
X129365714Y-95420647D02*
X129308571Y-95496838D01*
X130508571Y-95839695D02*
X130508571Y-95039695D01*
X130508571Y-95039695D02*
X130908571Y-95611123D01*
X130908571Y-95611123D02*
X131308571Y-95039695D01*
X131308571Y-95039695D02*
X131308571Y-95839695D01*
X131880000Y-95839695D02*
X131880000Y-95039695D01*
X131880000Y-95420647D02*
X132565714Y-95420647D01*
X132565714Y-95839695D02*
X132565714Y-95039695D01*
X133022857Y-95306361D02*
X133651429Y-95306361D01*
X133651429Y-95306361D02*
X133022857Y-95839695D01*
X133022857Y-95839695D02*
X133651429Y-95839695D01*
X134129286Y-51089695D02*
X134129286Y-50289695D01*
X134129286Y-50289695D02*
X134415000Y-50289695D01*
X134415000Y-50289695D02*
X134586429Y-50327790D01*
X134586429Y-50327790D02*
X134700714Y-50403980D01*
X134700714Y-50403980D02*
X134757857Y-50480171D01*
X134757857Y-50480171D02*
X134815000Y-50632552D01*
X134815000Y-50632552D02*
X134815000Y-50746838D01*
X134815000Y-50746838D02*
X134757857Y-50899219D01*
X134757857Y-50899219D02*
X134700714Y-50975409D01*
X134700714Y-50975409D02*
X134586429Y-51051600D01*
X134586429Y-51051600D02*
X134415000Y-51089695D01*
X134415000Y-51089695D02*
X134129286Y-51089695D01*
X135957857Y-51089695D02*
X135272143Y-51089695D01*
X135615000Y-51089695D02*
X135615000Y-50289695D01*
X135615000Y-50289695D02*
X135500714Y-50403980D01*
X135500714Y-50403980D02*
X135386429Y-50480171D01*
X135386429Y-50480171D02*
X135272143Y-50518266D01*
X132243571Y-57009695D02*
X132243571Y-56209695D01*
X132243571Y-56209695D02*
X132700714Y-56209695D01*
X132700714Y-56209695D02*
X132814999Y-56247790D01*
X132814999Y-56247790D02*
X132872142Y-56285885D01*
X132872142Y-56285885D02*
X132929285Y-56362076D01*
X132929285Y-56362076D02*
X132929285Y-56476361D01*
X132929285Y-56476361D02*
X132872142Y-56552552D01*
X132872142Y-56552552D02*
X132814999Y-56590647D01*
X132814999Y-56590647D02*
X132700714Y-56628742D01*
X132700714Y-56628742D02*
X132243571Y-56628742D01*
X133672142Y-56209695D02*
X133900714Y-56209695D01*
X133900714Y-56209695D02*
X134014999Y-56247790D01*
X134014999Y-56247790D02*
X134129285Y-56323980D01*
X134129285Y-56323980D02*
X134186428Y-56476361D01*
X134186428Y-56476361D02*
X134186428Y-56743028D01*
X134186428Y-56743028D02*
X134129285Y-56895409D01*
X134129285Y-56895409D02*
X134014999Y-56971600D01*
X134014999Y-56971600D02*
X133900714Y-57009695D01*
X133900714Y-57009695D02*
X133672142Y-57009695D01*
X133672142Y-57009695D02*
X133557857Y-56971600D01*
X133557857Y-56971600D02*
X133443571Y-56895409D01*
X133443571Y-56895409D02*
X133386428Y-56743028D01*
X133386428Y-56743028D02*
X133386428Y-56476361D01*
X133386428Y-56476361D02*
X133443571Y-56323980D01*
X133443571Y-56323980D02*
X133557857Y-56247790D01*
X133557857Y-56247790D02*
X133672142Y-56209695D01*
X134586428Y-56209695D02*
X134872142Y-57009695D01*
X134872142Y-57009695D02*
X135100714Y-56438266D01*
X135100714Y-56438266D02*
X135329285Y-57009695D01*
X135329285Y-57009695D02*
X135615000Y-56209695D01*
X136072143Y-56590647D02*
X136472143Y-56590647D01*
X136643571Y-57009695D02*
X136072143Y-57009695D01*
X136072143Y-57009695D02*
X136072143Y-56209695D01*
X136072143Y-56209695D02*
X136643571Y-56209695D01*
X137843571Y-57009695D02*
X137443571Y-56628742D01*
X137157857Y-57009695D02*
X137157857Y-56209695D01*
X137157857Y-56209695D02*
X137615000Y-56209695D01*
X137615000Y-56209695D02*
X137729285Y-56247790D01*
X137729285Y-56247790D02*
X137786428Y-56285885D01*
X137786428Y-56285885D02*
X137843571Y-56362076D01*
X137843571Y-56362076D02*
X137843571Y-56476361D01*
X137843571Y-56476361D02*
X137786428Y-56552552D01*
X137786428Y-56552552D02*
X137729285Y-56590647D01*
X137729285Y-56590647D02*
X137615000Y-56628742D01*
X137615000Y-56628742D02*
X137157857Y-56628742D01*
X119450000Y-55069695D02*
X119050000Y-54688742D01*
X118764286Y-55069695D02*
X118764286Y-54269695D01*
X118764286Y-54269695D02*
X119221429Y-54269695D01*
X119221429Y-54269695D02*
X119335714Y-54307790D01*
X119335714Y-54307790D02*
X119392857Y-54345885D01*
X119392857Y-54345885D02*
X119450000Y-54422076D01*
X119450000Y-54422076D02*
X119450000Y-54536361D01*
X119450000Y-54536361D02*
X119392857Y-54612552D01*
X119392857Y-54612552D02*
X119335714Y-54650647D01*
X119335714Y-54650647D02*
X119221429Y-54688742D01*
X119221429Y-54688742D02*
X118764286Y-54688742D01*
X120592857Y-55069695D02*
X119907143Y-55069695D01*
X120250000Y-55069695D02*
X120250000Y-54269695D01*
X120250000Y-54269695D02*
X120135714Y-54383980D01*
X120135714Y-54383980D02*
X120021429Y-54460171D01*
X120021429Y-54460171D02*
X119907143Y-54498266D01*
X136900000Y-79739695D02*
X136500000Y-79358742D01*
X136214286Y-79739695D02*
X136214286Y-78939695D01*
X136214286Y-78939695D02*
X136671429Y-78939695D01*
X136671429Y-78939695D02*
X136785714Y-78977790D01*
X136785714Y-78977790D02*
X136842857Y-79015885D01*
X136842857Y-79015885D02*
X136900000Y-79092076D01*
X136900000Y-79092076D02*
X136900000Y-79206361D01*
X136900000Y-79206361D02*
X136842857Y-79282552D01*
X136842857Y-79282552D02*
X136785714Y-79320647D01*
X136785714Y-79320647D02*
X136671429Y-79358742D01*
X136671429Y-79358742D02*
X136214286Y-79358742D01*
X137357143Y-79015885D02*
X137414286Y-78977790D01*
X137414286Y-78977790D02*
X137528572Y-78939695D01*
X137528572Y-78939695D02*
X137814286Y-78939695D01*
X137814286Y-78939695D02*
X137928572Y-78977790D01*
X137928572Y-78977790D02*
X137985714Y-79015885D01*
X137985714Y-79015885D02*
X138042857Y-79092076D01*
X138042857Y-79092076D02*
X138042857Y-79168266D01*
X138042857Y-79168266D02*
X137985714Y-79282552D01*
X137985714Y-79282552D02*
X137300000Y-79739695D01*
X137300000Y-79739695D02*
X138042857Y-79739695D01*
X112760000Y-103161123D02*
X113331429Y-103161123D01*
X112645714Y-103389695D02*
X113045714Y-102589695D01*
X113045714Y-102589695D02*
X113445714Y-103389695D01*
X113674285Y-102589695D02*
X114360000Y-102589695D01*
X114017142Y-103389695D02*
X114017142Y-102589695D01*
X114760000Y-103389695D02*
X114760000Y-102589695D01*
X114760000Y-102589695D02*
X115160000Y-103161123D01*
X115160000Y-103161123D02*
X115560000Y-102589695D01*
X115560000Y-102589695D02*
X115560000Y-103389695D01*
X116131429Y-102970647D02*
X116531429Y-102970647D01*
X116702857Y-103389695D02*
X116131429Y-103389695D01*
X116131429Y-103389695D02*
X116131429Y-102589695D01*
X116131429Y-102589695D02*
X116702857Y-102589695D01*
X117845714Y-102627790D02*
X117731429Y-102589695D01*
X117731429Y-102589695D02*
X117560000Y-102589695D01*
X117560000Y-102589695D02*
X117388571Y-102627790D01*
X117388571Y-102627790D02*
X117274286Y-102703980D01*
X117274286Y-102703980D02*
X117217143Y-102780171D01*
X117217143Y-102780171D02*
X117160000Y-102932552D01*
X117160000Y-102932552D02*
X117160000Y-103046838D01*
X117160000Y-103046838D02*
X117217143Y-103199219D01*
X117217143Y-103199219D02*
X117274286Y-103275409D01*
X117274286Y-103275409D02*
X117388571Y-103351600D01*
X117388571Y-103351600D02*
X117560000Y-103389695D01*
X117560000Y-103389695D02*
X117674286Y-103389695D01*
X117674286Y-103389695D02*
X117845714Y-103351600D01*
X117845714Y-103351600D02*
X117902857Y-103313504D01*
X117902857Y-103313504D02*
X117902857Y-103046838D01*
X117902857Y-103046838D02*
X117674286Y-103046838D01*
X118360000Y-103161123D02*
X118931429Y-103161123D01*
X118245714Y-103389695D02*
X118645714Y-102589695D01*
X118645714Y-102589695D02*
X119045714Y-103389695D01*
X119331428Y-102589695D02*
X120074285Y-102589695D01*
X120074285Y-102589695D02*
X119674285Y-102894457D01*
X119674285Y-102894457D02*
X119845714Y-102894457D01*
X119845714Y-102894457D02*
X119960000Y-102932552D01*
X119960000Y-102932552D02*
X120017142Y-102970647D01*
X120017142Y-102970647D02*
X120074285Y-103046838D01*
X120074285Y-103046838D02*
X120074285Y-103237314D01*
X120074285Y-103237314D02*
X120017142Y-103313504D01*
X120017142Y-103313504D02*
X119960000Y-103351600D01*
X119960000Y-103351600D02*
X119845714Y-103389695D01*
X119845714Y-103389695D02*
X119502857Y-103389695D01*
X119502857Y-103389695D02*
X119388571Y-103351600D01*
X119388571Y-103351600D02*
X119331428Y-103313504D01*
X120531428Y-102665885D02*
X120588571Y-102627790D01*
X120588571Y-102627790D02*
X120702857Y-102589695D01*
X120702857Y-102589695D02*
X120988571Y-102589695D01*
X120988571Y-102589695D02*
X121102857Y-102627790D01*
X121102857Y-102627790D02*
X121159999Y-102665885D01*
X121159999Y-102665885D02*
X121217142Y-102742076D01*
X121217142Y-102742076D02*
X121217142Y-102818266D01*
X121217142Y-102818266D02*
X121159999Y-102932552D01*
X121159999Y-102932552D02*
X120474285Y-103389695D01*
X120474285Y-103389695D02*
X121217142Y-103389695D01*
X121902856Y-102932552D02*
X121788571Y-102894457D01*
X121788571Y-102894457D02*
X121731428Y-102856361D01*
X121731428Y-102856361D02*
X121674285Y-102780171D01*
X121674285Y-102780171D02*
X121674285Y-102742076D01*
X121674285Y-102742076D02*
X121731428Y-102665885D01*
X121731428Y-102665885D02*
X121788571Y-102627790D01*
X121788571Y-102627790D02*
X121902856Y-102589695D01*
X121902856Y-102589695D02*
X122131428Y-102589695D01*
X122131428Y-102589695D02*
X122245714Y-102627790D01*
X122245714Y-102627790D02*
X122302856Y-102665885D01*
X122302856Y-102665885D02*
X122359999Y-102742076D01*
X122359999Y-102742076D02*
X122359999Y-102780171D01*
X122359999Y-102780171D02*
X122302856Y-102856361D01*
X122302856Y-102856361D02*
X122245714Y-102894457D01*
X122245714Y-102894457D02*
X122131428Y-102932552D01*
X122131428Y-102932552D02*
X121902856Y-102932552D01*
X121902856Y-102932552D02*
X121788571Y-102970647D01*
X121788571Y-102970647D02*
X121731428Y-103008742D01*
X121731428Y-103008742D02*
X121674285Y-103084933D01*
X121674285Y-103084933D02*
X121674285Y-103237314D01*
X121674285Y-103237314D02*
X121731428Y-103313504D01*
X121731428Y-103313504D02*
X121788571Y-103351600D01*
X121788571Y-103351600D02*
X121902856Y-103389695D01*
X121902856Y-103389695D02*
X122131428Y-103389695D01*
X122131428Y-103389695D02*
X122245714Y-103351600D01*
X122245714Y-103351600D02*
X122302856Y-103313504D01*
X122302856Y-103313504D02*
X122359999Y-103237314D01*
X122359999Y-103237314D02*
X122359999Y-103084933D01*
X122359999Y-103084933D02*
X122302856Y-103008742D01*
X122302856Y-103008742D02*
X122245714Y-102970647D01*
X122245714Y-102970647D02*
X122131428Y-102932552D01*
X119360000Y-59429695D02*
X118960000Y-59048742D01*
X118674286Y-59429695D02*
X118674286Y-58629695D01*
X118674286Y-58629695D02*
X119131429Y-58629695D01*
X119131429Y-58629695D02*
X119245714Y-58667790D01*
X119245714Y-58667790D02*
X119302857Y-58705885D01*
X119302857Y-58705885D02*
X119360000Y-58782076D01*
X119360000Y-58782076D02*
X119360000Y-58896361D01*
X119360000Y-58896361D02*
X119302857Y-58972552D01*
X119302857Y-58972552D02*
X119245714Y-59010647D01*
X119245714Y-59010647D02*
X119131429Y-59048742D01*
X119131429Y-59048742D02*
X118674286Y-59048742D01*
X120045714Y-58972552D02*
X119931429Y-58934457D01*
X119931429Y-58934457D02*
X119874286Y-58896361D01*
X119874286Y-58896361D02*
X119817143Y-58820171D01*
X119817143Y-58820171D02*
X119817143Y-58782076D01*
X119817143Y-58782076D02*
X119874286Y-58705885D01*
X119874286Y-58705885D02*
X119931429Y-58667790D01*
X119931429Y-58667790D02*
X120045714Y-58629695D01*
X120045714Y-58629695D02*
X120274286Y-58629695D01*
X120274286Y-58629695D02*
X120388572Y-58667790D01*
X120388572Y-58667790D02*
X120445714Y-58705885D01*
X120445714Y-58705885D02*
X120502857Y-58782076D01*
X120502857Y-58782076D02*
X120502857Y-58820171D01*
X120502857Y-58820171D02*
X120445714Y-58896361D01*
X120445714Y-58896361D02*
X120388572Y-58934457D01*
X120388572Y-58934457D02*
X120274286Y-58972552D01*
X120274286Y-58972552D02*
X120045714Y-58972552D01*
X120045714Y-58972552D02*
X119931429Y-59010647D01*
X119931429Y-59010647D02*
X119874286Y-59048742D01*
X119874286Y-59048742D02*
X119817143Y-59124933D01*
X119817143Y-59124933D02*
X119817143Y-59277314D01*
X119817143Y-59277314D02*
X119874286Y-59353504D01*
X119874286Y-59353504D02*
X119931429Y-59391600D01*
X119931429Y-59391600D02*
X120045714Y-59429695D01*
X120045714Y-59429695D02*
X120274286Y-59429695D01*
X120274286Y-59429695D02*
X120388572Y-59391600D01*
X120388572Y-59391600D02*
X120445714Y-59353504D01*
X120445714Y-59353504D02*
X120502857Y-59277314D01*
X120502857Y-59277314D02*
X120502857Y-59124933D01*
X120502857Y-59124933D02*
X120445714Y-59048742D01*
X120445714Y-59048742D02*
X120388572Y-59010647D01*
X120388572Y-59010647D02*
X120274286Y-58972552D01*
X117289695Y-63501428D02*
X116489695Y-63501428D01*
X116565885Y-62987142D02*
X116527790Y-62929999D01*
X116527790Y-62929999D02*
X116489695Y-62815714D01*
X116489695Y-62815714D02*
X116489695Y-62529999D01*
X116489695Y-62529999D02*
X116527790Y-62415714D01*
X116527790Y-62415714D02*
X116565885Y-62358571D01*
X116565885Y-62358571D02*
X116642076Y-62301428D01*
X116642076Y-62301428D02*
X116718266Y-62301428D01*
X116718266Y-62301428D02*
X116832552Y-62358571D01*
X116832552Y-62358571D02*
X117289695Y-63044285D01*
X117289695Y-63044285D02*
X117289695Y-62301428D01*
X117213504Y-61101428D02*
X117251600Y-61158571D01*
X117251600Y-61158571D02*
X117289695Y-61329999D01*
X117289695Y-61329999D02*
X117289695Y-61444285D01*
X117289695Y-61444285D02*
X117251600Y-61615714D01*
X117251600Y-61615714D02*
X117175409Y-61729999D01*
X117175409Y-61729999D02*
X117099219Y-61787142D01*
X117099219Y-61787142D02*
X116946838Y-61844285D01*
X116946838Y-61844285D02*
X116832552Y-61844285D01*
X116832552Y-61844285D02*
X116680171Y-61787142D01*
X116680171Y-61787142D02*
X116603980Y-61729999D01*
X116603980Y-61729999D02*
X116527790Y-61615714D01*
X116527790Y-61615714D02*
X116489695Y-61444285D01*
X116489695Y-61444285D02*
X116489695Y-61329999D01*
X116489695Y-61329999D02*
X116527790Y-61158571D01*
X116527790Y-61158571D02*
X116565885Y-61101428D01*
X119390000Y-57259695D02*
X118990000Y-56878742D01*
X118704286Y-57259695D02*
X118704286Y-56459695D01*
X118704286Y-56459695D02*
X119161429Y-56459695D01*
X119161429Y-56459695D02*
X119275714Y-56497790D01*
X119275714Y-56497790D02*
X119332857Y-56535885D01*
X119332857Y-56535885D02*
X119390000Y-56612076D01*
X119390000Y-56612076D02*
X119390000Y-56726361D01*
X119390000Y-56726361D02*
X119332857Y-56802552D01*
X119332857Y-56802552D02*
X119275714Y-56840647D01*
X119275714Y-56840647D02*
X119161429Y-56878742D01*
X119161429Y-56878742D02*
X118704286Y-56878742D01*
X119790000Y-56459695D02*
X120590000Y-56459695D01*
X120590000Y-56459695D02*
X120075714Y-57259695D01*
X123780000Y-78559695D02*
X123380000Y-78178742D01*
X123094286Y-78559695D02*
X123094286Y-77759695D01*
X123094286Y-77759695D02*
X123551429Y-77759695D01*
X123551429Y-77759695D02*
X123665714Y-77797790D01*
X123665714Y-77797790D02*
X123722857Y-77835885D01*
X123722857Y-77835885D02*
X123780000Y-77912076D01*
X123780000Y-77912076D02*
X123780000Y-78026361D01*
X123780000Y-78026361D02*
X123722857Y-78102552D01*
X123722857Y-78102552D02*
X123665714Y-78140647D01*
X123665714Y-78140647D02*
X123551429Y-78178742D01*
X123551429Y-78178742D02*
X123094286Y-78178742D01*
X124808572Y-77759695D02*
X124580000Y-77759695D01*
X124580000Y-77759695D02*
X124465714Y-77797790D01*
X124465714Y-77797790D02*
X124408572Y-77835885D01*
X124408572Y-77835885D02*
X124294286Y-77950171D01*
X124294286Y-77950171D02*
X124237143Y-78102552D01*
X124237143Y-78102552D02*
X124237143Y-78407314D01*
X124237143Y-78407314D02*
X124294286Y-78483504D01*
X124294286Y-78483504D02*
X124351429Y-78521600D01*
X124351429Y-78521600D02*
X124465714Y-78559695D01*
X124465714Y-78559695D02*
X124694286Y-78559695D01*
X124694286Y-78559695D02*
X124808572Y-78521600D01*
X124808572Y-78521600D02*
X124865714Y-78483504D01*
X124865714Y-78483504D02*
X124922857Y-78407314D01*
X124922857Y-78407314D02*
X124922857Y-78216838D01*
X124922857Y-78216838D02*
X124865714Y-78140647D01*
X124865714Y-78140647D02*
X124808572Y-78102552D01*
X124808572Y-78102552D02*
X124694286Y-78064457D01*
X124694286Y-78064457D02*
X124465714Y-78064457D01*
X124465714Y-78064457D02*
X124351429Y-78102552D01*
X124351429Y-78102552D02*
X124294286Y-78140647D01*
X124294286Y-78140647D02*
X124237143Y-78216838D01*
X136920000Y-81919695D02*
X136520000Y-81538742D01*
X136234286Y-81919695D02*
X136234286Y-81119695D01*
X136234286Y-81119695D02*
X136691429Y-81119695D01*
X136691429Y-81119695D02*
X136805714Y-81157790D01*
X136805714Y-81157790D02*
X136862857Y-81195885D01*
X136862857Y-81195885D02*
X136920000Y-81272076D01*
X136920000Y-81272076D02*
X136920000Y-81386361D01*
X136920000Y-81386361D02*
X136862857Y-81462552D01*
X136862857Y-81462552D02*
X136805714Y-81500647D01*
X136805714Y-81500647D02*
X136691429Y-81538742D01*
X136691429Y-81538742D02*
X136234286Y-81538742D01*
X137320000Y-81119695D02*
X138062857Y-81119695D01*
X138062857Y-81119695D02*
X137662857Y-81424457D01*
X137662857Y-81424457D02*
X137834286Y-81424457D01*
X137834286Y-81424457D02*
X137948572Y-81462552D01*
X137948572Y-81462552D02*
X138005714Y-81500647D01*
X138005714Y-81500647D02*
X138062857Y-81576838D01*
X138062857Y-81576838D02*
X138062857Y-81767314D01*
X138062857Y-81767314D02*
X138005714Y-81843504D01*
X138005714Y-81843504D02*
X137948572Y-81881600D01*
X137948572Y-81881600D02*
X137834286Y-81919695D01*
X137834286Y-81919695D02*
X137491429Y-81919695D01*
X137491429Y-81919695D02*
X137377143Y-81881600D01*
X137377143Y-81881600D02*
X137320000Y-81843504D01*
D13*
%TO.C,BZ1*%
X138390000Y-70680000D02*
G75*
G02*
X126190000Y-70680000I-6100000J0D01*
G01*
X126190000Y-70680000D02*
G75*
G02*
X138390000Y-70680000I6100000J0D01*
G01*
%TO.C,C2*%
X123340000Y-82110000D02*
X123340000Y-83449433D01*
X124940068Y-82110051D02*
X124940000Y-83479717D01*
X123340000Y-82099484D02*
G75*
G02*
X124940070Y-82110051I800000J-10566D01*
G01*
X124940000Y-83420516D02*
G75*
G02*
X123339930Y-83409949I-800000J10566D01*
G01*
%TO.C,J5*%
X120585000Y-61045000D02*
X130795000Y-61045000D01*
X120585000Y-63705000D02*
X120585000Y-61045000D01*
X120585000Y-63705000D02*
X130795000Y-63695000D01*
X130795000Y-63695000D02*
X130795000Y-61045000D01*
%TO.C,Q1*%
X130660000Y-89300000D02*
X134260000Y-89300000D01*
X130103600Y-86351193D02*
G75*
G02*
X132460000Y-84850000I2356400J-1098807D01*
G01*
X130660000Y-89300000D02*
G75*
G02*
X130135816Y-88572795I1800000J1850000D01*
G01*
X132460000Y-84850000D02*
G75*
G02*
X134816400Y-86351193I0J-2600000D01*
G01*
X134784184Y-88572795D02*
G75*
G02*
X134260000Y-89300000I-2324184J1122795D01*
G01*
%TO.C,Y1*%
X127835000Y-91505000D02*
X134085000Y-91505000D01*
X127835000Y-96555000D02*
X134085000Y-96555000D01*
X127835000Y-96555000D02*
G75*
G02*
X127835000Y-91505000I0J2525000D01*
G01*
X134085000Y-91505000D02*
G75*
G02*
X134085000Y-96555000I0J-2525000D01*
G01*
D14*
%TO.C,D1*%
X133455000Y-52454000D02*
X133455000Y-52610000D01*
X133455000Y-54770000D02*
X133455000Y-54926000D01*
X133455000Y-52454484D02*
G75*
G02*
X136687335Y-52611392I1560000J-1235516D01*
G01*
X133974039Y-52610000D02*
G75*
G02*
X136056130Y-52610163I1040961J-1080000D01*
G01*
X136056130Y-54769837D02*
G75*
G02*
X133974039Y-54770000I-1041130J1079837D01*
G01*
X136687335Y-54768608D02*
G75*
G02*
X133455000Y-54925516I-1672335J1078608D01*
G01*
D13*
%TO.C,R1*%
X122950000Y-54645000D02*
X123660000Y-54645000D01*
X123660000Y-54645000D02*
X124452199Y-55437199D01*
X123660000Y-54645000D02*
X124477688Y-53827312D01*
X124495000Y-53820000D02*
X126145000Y-53820000D01*
X124500000Y-55440000D02*
X126140000Y-55440000D01*
X126960000Y-53820000D02*
X125320000Y-53820000D01*
X126965000Y-55440000D02*
X125315000Y-55440000D01*
X127800000Y-54615000D02*
X126982312Y-55432688D01*
X127800000Y-54615000D02*
X127007801Y-53822801D01*
X128510000Y-54615000D02*
X127800000Y-54615000D01*
D12*
X124300000Y-55285000D02*
X123660000Y-54645000D01*
X124300000Y-54005000D01*
X124300000Y-55285000D01*
G36*
X124300000Y-55285000D02*
G01*
X123660000Y-54645000D01*
X124300000Y-54005000D01*
X124300000Y-55285000D01*
G37*
X127800000Y-54615000D02*
X127160000Y-55255000D01*
X127160000Y-53975000D01*
X127800000Y-54615000D01*
G36*
X127800000Y-54615000D02*
G01*
X127160000Y-55255000D01*
X127160000Y-53975000D01*
X127800000Y-54615000D01*
G37*
D13*
%TO.C,C9*%
X127969949Y-99110068D02*
X126600283Y-99110000D01*
X127970000Y-97510000D02*
X126630567Y-97510000D01*
X126659484Y-99110000D02*
G75*
G02*
X126670051Y-97509930I10566J800000D01*
G01*
X127980516Y-97510000D02*
G75*
G02*
X127969949Y-99110070I-10566J-800000D01*
G01*
%TO.C,R2*%
X127880000Y-79365000D02*
X128590000Y-79365000D01*
X128590000Y-79365000D02*
X129382199Y-80157199D01*
X128590000Y-79365000D02*
X129407688Y-78547312D01*
X129425000Y-78540000D02*
X131075000Y-78540000D01*
X129430000Y-80160000D02*
X131070000Y-80160000D01*
X131890000Y-78540000D02*
X130250000Y-78540000D01*
X131895000Y-80160000D02*
X130245000Y-80160000D01*
X132730000Y-79335000D02*
X131912312Y-80152688D01*
X132730000Y-79335000D02*
X131937801Y-78542801D01*
X133440000Y-79335000D02*
X132730000Y-79335000D01*
D12*
X129230000Y-80005000D02*
X128590000Y-79365000D01*
X129230000Y-78725000D01*
X129230000Y-80005000D01*
G36*
X129230000Y-80005000D02*
G01*
X128590000Y-79365000D01*
X129230000Y-78725000D01*
X129230000Y-80005000D01*
G37*
X132730000Y-79335000D02*
X132090000Y-79975000D01*
X132090000Y-78695000D01*
X132730000Y-79335000D01*
G36*
X132730000Y-79335000D02*
G01*
X132090000Y-79975000D01*
X132090000Y-78695000D01*
X132730000Y-79335000D01*
G37*
D13*
%TO.C,U4*%
X112290000Y-65470000D02*
X112920000Y-64840000D01*
X112290000Y-66260000D02*
X112290000Y-65470000D01*
X112290000Y-66260000D02*
X112290000Y-102060000D01*
X112290000Y-102060000D02*
X122550000Y-102060000D01*
X112920000Y-64840000D02*
X115510000Y-64840000D01*
X114780000Y-66320000D02*
X114780000Y-64850000D01*
X114780000Y-66320000D02*
X114780000Y-102000000D01*
X115460000Y-64880000D02*
X116670000Y-66090000D01*
X116670000Y-66090000D02*
X118050000Y-66090000D01*
X119260000Y-64880000D02*
X118050000Y-66090000D01*
X120060000Y-102000000D02*
X120060000Y-66320000D01*
X120070000Y-66320000D02*
X120070000Y-64850000D01*
X121930000Y-64840000D02*
X115510000Y-64840000D01*
X122550000Y-102060000D02*
X122550000Y-66260000D01*
X122560000Y-65470000D02*
X121930000Y-64840000D01*
X122560000Y-66260000D02*
X122560000Y-65470000D01*
%TO.C,R8*%
X122950000Y-58905000D02*
X123660000Y-58905000D01*
X123660000Y-58905000D02*
X124452199Y-59697199D01*
X123660000Y-58905000D02*
X124477688Y-58087312D01*
X124495000Y-58080000D02*
X126145000Y-58080000D01*
X124500000Y-59700000D02*
X126140000Y-59700000D01*
X126960000Y-58080000D02*
X125320000Y-58080000D01*
X126965000Y-59700000D02*
X125315000Y-59700000D01*
X127800000Y-58875000D02*
X126982312Y-59692688D01*
X127800000Y-58875000D02*
X127007801Y-58082801D01*
X128510000Y-58875000D02*
X127800000Y-58875000D01*
D12*
X124300000Y-59545000D02*
X123660000Y-58905000D01*
X124300000Y-58265000D01*
X124300000Y-59545000D01*
G36*
X124300000Y-59545000D02*
G01*
X123660000Y-58905000D01*
X124300000Y-58265000D01*
X124300000Y-59545000D01*
G37*
X127800000Y-58875000D02*
X127160000Y-59515000D01*
X127160000Y-58235000D01*
X127800000Y-58875000D01*
G36*
X127800000Y-58875000D02*
G01*
X127160000Y-59515000D01*
X127160000Y-58235000D01*
X127800000Y-58875000D01*
G37*
D13*
%TO.C,J4*%
X113120000Y-63610000D02*
X113120000Y-53400000D01*
X115770000Y-53400000D02*
X113120000Y-53400000D01*
X115780000Y-63610000D02*
X113120000Y-63610000D01*
X115780000Y-63610000D02*
X115770000Y-53400000D01*
%TO.C,C10*%
X127969949Y-101550068D02*
X126600283Y-101550000D01*
X127970000Y-99950000D02*
X126630567Y-99950000D01*
X126659484Y-101550000D02*
G75*
G02*
X126670051Y-99949930I10566J800000D01*
G01*
X127980516Y-99950000D02*
G75*
G02*
X127969949Y-101550070I-10566J-800000D01*
G01*
%TO.C,R7*%
X122950000Y-56775000D02*
X123660000Y-56775000D01*
X123660000Y-56775000D02*
X124452199Y-57567199D01*
X123660000Y-56775000D02*
X124477688Y-55957312D01*
X124495000Y-55950000D02*
X126145000Y-55950000D01*
X124500000Y-57570000D02*
X126140000Y-57570000D01*
X126960000Y-55950000D02*
X125320000Y-55950000D01*
X126965000Y-57570000D02*
X125315000Y-57570000D01*
X127800000Y-56745000D02*
X126982312Y-57562688D01*
X127800000Y-56745000D02*
X127007801Y-55952801D01*
X128510000Y-56745000D02*
X127800000Y-56745000D01*
D12*
X124300000Y-57415000D02*
X123660000Y-56775000D01*
X124300000Y-56135000D01*
X124300000Y-57415000D01*
G36*
X124300000Y-57415000D02*
G01*
X123660000Y-56775000D01*
X124300000Y-56135000D01*
X124300000Y-57415000D01*
G37*
X127800000Y-56745000D02*
X127160000Y-57385000D01*
X127160000Y-56105000D01*
X127800000Y-56745000D01*
G36*
X127800000Y-56745000D02*
G01*
X127160000Y-57385000D01*
X127160000Y-56105000D01*
X127800000Y-56745000D01*
G37*
D13*
%TO.C,R6*%
X123150000Y-71530000D02*
X123150000Y-73170000D01*
X123150000Y-73995000D02*
X123150000Y-72345000D01*
X123945000Y-69980000D02*
X123945000Y-70690000D01*
X123945000Y-70690000D02*
X123152801Y-71482199D01*
X123945000Y-70690000D02*
X124762688Y-71507688D01*
X123975000Y-74830000D02*
X123157312Y-74012312D01*
X123975000Y-74830000D02*
X124767199Y-74037801D01*
X123975000Y-75540000D02*
X123975000Y-74830000D01*
X124770000Y-71525000D02*
X124770000Y-73175000D01*
X124770000Y-73990000D02*
X124770000Y-72350000D01*
D12*
X124585000Y-71330000D02*
X123305000Y-71330000D01*
X123945000Y-70690000D01*
X124585000Y-71330000D01*
G36*
X124585000Y-71330000D02*
G01*
X123305000Y-71330000D01*
X123945000Y-70690000D01*
X124585000Y-71330000D01*
G37*
X123975000Y-74830000D02*
X123335000Y-74190000D01*
X124615000Y-74190000D01*
X123975000Y-74830000D01*
G36*
X123975000Y-74830000D02*
G01*
X123335000Y-74190000D01*
X124615000Y-74190000D01*
X123975000Y-74830000D01*
G37*
D13*
%TO.C,R3*%
X127880000Y-81505000D02*
X128590000Y-81505000D01*
X128590000Y-81505000D02*
X129382199Y-82297199D01*
X128590000Y-81505000D02*
X129407688Y-80687312D01*
X129425000Y-80680000D02*
X131075000Y-80680000D01*
X129430000Y-82300000D02*
X131070000Y-82300000D01*
X131890000Y-80680000D02*
X130250000Y-80680000D01*
X131895000Y-82300000D02*
X130245000Y-82300000D01*
X132730000Y-81475000D02*
X131912312Y-82292688D01*
X132730000Y-81475000D02*
X131937801Y-80682801D01*
X133440000Y-81475000D02*
X132730000Y-81475000D01*
D12*
X129230000Y-82145000D02*
X128590000Y-81505000D01*
X129230000Y-80865000D01*
X129230000Y-82145000D01*
G36*
X129230000Y-82145000D02*
G01*
X128590000Y-81505000D01*
X129230000Y-80865000D01*
X129230000Y-82145000D01*
G37*
X132730000Y-81475000D02*
X132090000Y-82115000D01*
X132090000Y-80835000D01*
X132730000Y-81475000D01*
G36*
X132730000Y-81475000D02*
G01*
X132090000Y-82115000D01*
X132090000Y-80835000D01*
X132730000Y-81475000D01*
G37*
D15*
%TO.C,G1*%
G36*
X137812071Y-97891467D02*
G01*
X137822556Y-97891512D01*
X137860253Y-97891842D01*
X137890788Y-97892169D01*
X137915118Y-97892561D01*
X137934200Y-97893084D01*
X137948990Y-97893804D01*
X137960446Y-97894788D01*
X137969523Y-97896103D01*
X137977179Y-97897815D01*
X137984371Y-97899990D01*
X137992054Y-97902696D01*
X137994124Y-97903449D01*
X138022889Y-97914994D01*
X138046950Y-97927467D01*
X138069114Y-97942616D01*
X138092193Y-97962192D01*
X138099804Y-97969274D01*
X138136891Y-98006839D01*
X138167253Y-98043355D01*
X138191900Y-98080242D01*
X138211842Y-98118918D01*
X138219789Y-98137895D01*
X138225856Y-98153330D01*
X138231463Y-98167486D01*
X138235058Y-98176460D01*
X138238672Y-98185458D01*
X138240656Y-98190572D01*
X138240690Y-98190668D01*
X138242750Y-98195741D01*
X138244073Y-98198787D01*
X138245783Y-98203542D01*
X138249877Y-98215372D01*
X138256146Y-98233658D01*
X138264379Y-98257780D01*
X138274365Y-98287120D01*
X138285894Y-98321060D01*
X138298756Y-98358980D01*
X138312740Y-98400263D01*
X138327636Y-98444288D01*
X138342074Y-98487008D01*
X138358488Y-98535578D01*
X138374829Y-98583900D01*
X138390804Y-98631111D01*
X138406121Y-98676346D01*
X138420487Y-98718742D01*
X138433608Y-98757434D01*
X138445193Y-98791559D01*
X138454948Y-98820251D01*
X138462581Y-98842649D01*
X138466104Y-98852952D01*
X138479798Y-98894437D01*
X138490115Y-98929691D01*
X138497136Y-98959827D01*
X138500948Y-98985958D01*
X138501632Y-99009195D01*
X138499273Y-99030652D01*
X138493955Y-99051442D01*
X138485761Y-99072677D01*
X138483083Y-99078595D01*
X138471205Y-99097691D01*
X138453485Y-99117878D01*
X138431720Y-99137497D01*
X138407708Y-99154888D01*
X138388578Y-99165839D01*
X138378396Y-99170964D01*
X138369282Y-99175438D01*
X138360632Y-99179313D01*
X138351845Y-99182638D01*
X138342316Y-99185463D01*
X138331444Y-99187838D01*
X138318627Y-99189815D01*
X138303260Y-99191442D01*
X138284743Y-99192769D01*
X138262472Y-99193848D01*
X138235844Y-99194728D01*
X138204257Y-99195459D01*
X138167109Y-99196091D01*
X138123797Y-99196675D01*
X138073717Y-99197260D01*
X138016268Y-99197898D01*
X138001172Y-99198065D01*
X137962576Y-99198462D01*
X137916541Y-99198877D01*
X137863746Y-99199306D01*
X137804870Y-99199744D01*
X137740594Y-99200189D01*
X137671597Y-99200636D01*
X137598559Y-99201081D01*
X137522158Y-99201521D01*
X137443074Y-99201950D01*
X137361988Y-99202367D01*
X137279578Y-99202765D01*
X137196524Y-99203142D01*
X137113505Y-99203494D01*
X137031202Y-99203816D01*
X136975063Y-99204020D01*
X136879392Y-99204369D01*
X136791609Y-99204720D01*
X136711481Y-99205075D01*
X136638776Y-99205437D01*
X136573264Y-99205807D01*
X136514712Y-99206189D01*
X136462889Y-99206583D01*
X136417562Y-99206994D01*
X136378501Y-99207422D01*
X136345474Y-99207870D01*
X136318248Y-99208341D01*
X136296592Y-99208837D01*
X136280275Y-99209360D01*
X136269064Y-99209912D01*
X136262729Y-99210496D01*
X136261029Y-99211106D01*
X136262892Y-99215673D01*
X136267056Y-99227289D01*
X136273296Y-99245286D01*
X136281386Y-99268998D01*
X136291101Y-99297758D01*
X136302217Y-99330898D01*
X136314508Y-99367752D01*
X136327749Y-99407652D01*
X136341715Y-99449932D01*
X136344635Y-99458797D01*
X136424685Y-99701915D01*
X137198720Y-99700335D01*
X137291898Y-99700146D01*
X137377308Y-99699980D01*
X137455301Y-99699837D01*
X137526228Y-99699722D01*
X137590442Y-99699637D01*
X137648292Y-99699584D01*
X137700129Y-99699566D01*
X137746306Y-99699587D01*
X137787173Y-99699648D01*
X137823080Y-99699752D01*
X137854380Y-99699903D01*
X137881424Y-99700102D01*
X137904561Y-99700352D01*
X137924145Y-99700657D01*
X137940525Y-99701019D01*
X137954053Y-99701441D01*
X137965079Y-99701924D01*
X137973956Y-99702473D01*
X137981034Y-99703090D01*
X137986664Y-99703777D01*
X137991198Y-99704537D01*
X137994986Y-99705373D01*
X137998380Y-99706288D01*
X137999142Y-99706510D01*
X138035994Y-99720026D01*
X138070701Y-99738619D01*
X138104860Y-99763259D01*
X138132474Y-99787607D01*
X138150498Y-99807146D01*
X138168546Y-99831843D01*
X138186920Y-99862245D01*
X138205919Y-99898896D01*
X138225846Y-99942341D01*
X138247000Y-99993127D01*
X138250207Y-100001184D01*
X138259873Y-100025403D01*
X138269294Y-100048660D01*
X138277764Y-100069245D01*
X138284583Y-100085446D01*
X138288581Y-100094552D01*
X138294472Y-100107920D01*
X138302152Y-100126086D01*
X138310464Y-100146282D01*
X138315781Y-100159503D01*
X138322965Y-100177094D01*
X138329446Y-100192121D01*
X138334443Y-100202826D01*
X138336935Y-100207201D01*
X138339256Y-100211541D01*
X138338510Y-100212276D01*
X138338429Y-100215157D01*
X138341675Y-100221410D01*
X138344648Y-100227483D01*
X138350245Y-100240252D01*
X138358122Y-100258855D01*
X138367931Y-100282431D01*
X138379328Y-100310119D01*
X138391966Y-100341059D01*
X138405499Y-100374389D01*
X138419582Y-100409248D01*
X138433869Y-100444776D01*
X138448013Y-100480112D01*
X138461670Y-100514394D01*
X138474493Y-100546762D01*
X138486136Y-100576354D01*
X138496253Y-100602311D01*
X138504499Y-100623771D01*
X138510528Y-100639872D01*
X138513994Y-100649755D01*
X138514616Y-100651903D01*
X138518250Y-100676646D01*
X138518882Y-100703926D01*
X138516665Y-100730721D01*
X138511751Y-100754008D01*
X138509088Y-100761605D01*
X138492792Y-100791006D01*
X138469662Y-100816530D01*
X138440185Y-100837807D01*
X138404849Y-100854466D01*
X138374641Y-100863744D01*
X138364687Y-100865464D01*
X138349180Y-100867059D01*
X138327945Y-100868530D01*
X138300810Y-100869881D01*
X138267600Y-100871114D01*
X138228141Y-100872233D01*
X138182260Y-100873238D01*
X138129783Y-100874134D01*
X138070536Y-100874924D01*
X138004346Y-100875609D01*
X137931038Y-100876192D01*
X137850439Y-100876676D01*
X137762374Y-100877065D01*
X137666671Y-100877360D01*
X137563156Y-100877564D01*
X137479172Y-100877660D01*
X137417732Y-100877735D01*
X137357210Y-100877855D01*
X137298267Y-100878016D01*
X137241562Y-100878216D01*
X137187757Y-100878449D01*
X137137512Y-100878713D01*
X137091487Y-100879004D01*
X137050344Y-100879317D01*
X137014743Y-100879649D01*
X136985344Y-100879996D01*
X136962808Y-100880355D01*
X136948927Y-100880685D01*
X136863553Y-100883344D01*
X136915785Y-101040018D01*
X136927197Y-101074203D01*
X136937881Y-101106112D01*
X136947549Y-101134894D01*
X136955913Y-101159697D01*
X136962687Y-101179671D01*
X136967583Y-101193964D01*
X136970314Y-101201726D01*
X136970723Y-101202782D01*
X136973620Y-101209921D01*
X136974287Y-101211916D01*
X136976160Y-101216990D01*
X136978016Y-101222412D01*
X136978189Y-101223080D01*
X136980074Y-101229812D01*
X136980192Y-101230184D01*
X136980700Y-101236273D01*
X136983348Y-101239168D01*
X136984713Y-101239317D01*
X136987427Y-101242270D01*
X136986870Y-101245407D01*
X136986989Y-101250623D01*
X136988900Y-101251496D01*
X136991560Y-101254432D01*
X136991030Y-101257323D01*
X136990765Y-101263140D01*
X136992013Y-101264427D01*
X136993835Y-101268401D01*
X136997984Y-101279419D01*
X137004231Y-101296820D01*
X137012347Y-101319941D01*
X137022103Y-101348122D01*
X137033270Y-101380699D01*
X137045619Y-101417012D01*
X137058921Y-101456399D01*
X137072948Y-101498197D01*
X137074615Y-101503182D01*
X137098481Y-101574561D01*
X137121779Y-101644204D01*
X137144371Y-101711705D01*
X137166123Y-101776657D01*
X137186896Y-101838656D01*
X137206556Y-101897295D01*
X137224965Y-101952168D01*
X137241987Y-102002868D01*
X137257487Y-102048990D01*
X137271326Y-102090128D01*
X137283370Y-102125876D01*
X137293481Y-102155827D01*
X137301524Y-102179576D01*
X137307362Y-102196716D01*
X137310858Y-102206842D01*
X137311835Y-102209527D01*
X137314512Y-102216031D01*
X137315124Y-102217646D01*
X137317036Y-102222795D01*
X137318173Y-102225765D01*
X137320828Y-102233158D01*
X137324791Y-102244714D01*
X137326605Y-102250121D01*
X137331072Y-102263236D01*
X137337039Y-102280376D01*
X137343249Y-102297930D01*
X137343514Y-102298673D01*
X137357467Y-102343692D01*
X137367703Y-102389472D01*
X137373713Y-102433393D01*
X137375134Y-102461708D01*
X137375086Y-102481779D01*
X137374334Y-102496106D01*
X137372489Y-102507061D01*
X137369157Y-102517012D01*
X137364219Y-102527778D01*
X137356432Y-102542301D01*
X137348156Y-102555625D01*
X137343125Y-102562453D01*
X137328048Y-102575868D01*
X137306187Y-102588928D01*
X137278869Y-102600937D01*
X137253701Y-102609401D01*
X137244787Y-102611981D01*
X137236528Y-102614126D01*
X137228056Y-102615895D01*
X137218505Y-102617347D01*
X137207008Y-102618540D01*
X137192698Y-102619533D01*
X137174709Y-102620384D01*
X137152173Y-102621153D01*
X137124225Y-102621898D01*
X137089996Y-102622678D01*
X137048621Y-102623551D01*
X137043141Y-102623665D01*
X137024993Y-102623969D01*
X136999089Y-102624294D01*
X136965794Y-102624638D01*
X136925469Y-102624998D01*
X136878479Y-102625373D01*
X136825187Y-102625760D01*
X136765956Y-102626159D01*
X136701149Y-102626566D01*
X136631130Y-102626980D01*
X136556262Y-102627399D01*
X136476908Y-102627820D01*
X136393432Y-102628243D01*
X136306197Y-102628665D01*
X136215566Y-102629083D01*
X136121903Y-102629497D01*
X136025571Y-102629904D01*
X135926933Y-102630302D01*
X135826353Y-102630689D01*
X135724193Y-102631063D01*
X135620818Y-102631423D01*
X135583767Y-102631547D01*
X135477153Y-102631902D01*
X135370210Y-102632262D01*
X135263382Y-102632624D01*
X135157116Y-102632986D01*
X135051857Y-102633348D01*
X134948053Y-102633708D01*
X134846149Y-102634064D01*
X134746590Y-102634414D01*
X134649824Y-102634758D01*
X134556295Y-102635092D01*
X134466451Y-102635417D01*
X134380736Y-102635729D01*
X134299598Y-102636028D01*
X134223481Y-102636312D01*
X134152833Y-102636579D01*
X134088099Y-102636828D01*
X134029725Y-102637057D01*
X133978157Y-102637264D01*
X133933842Y-102637448D01*
X133899094Y-102637599D01*
X133839623Y-102637827D01*
X133782609Y-102637970D01*
X133728607Y-102638030D01*
X133678170Y-102638011D01*
X133631855Y-102637914D01*
X133590214Y-102637742D01*
X133553804Y-102637497D01*
X133523178Y-102637181D01*
X133498891Y-102636798D01*
X133481498Y-102636350D01*
X133471553Y-102635838D01*
X133470469Y-102635724D01*
X133424162Y-102626833D01*
X133375433Y-102612080D01*
X133326343Y-102592372D01*
X133278952Y-102568618D01*
X133235323Y-102541722D01*
X133204927Y-102518897D01*
X133162640Y-102481216D01*
X133125270Y-102441787D01*
X133090382Y-102397950D01*
X133077347Y-102379697D01*
X133064254Y-102360412D01*
X133052806Y-102342326D01*
X133042457Y-102324262D01*
X133032661Y-102305047D01*
X133022871Y-102283503D01*
X133012541Y-102258456D01*
X133001125Y-102228730D01*
X132988077Y-102193149D01*
X132979390Y-102168932D01*
X132967148Y-102134603D01*
X132953361Y-102095929D01*
X132939034Y-102055727D01*
X132925170Y-102016814D01*
X132912773Y-101982008D01*
X132909950Y-101974079D01*
X132900530Y-101947626D01*
X132891965Y-101923579D01*
X132884645Y-101903036D01*
X132878963Y-101887098D01*
X132875311Y-101876864D01*
X132874129Y-101873564D01*
X132872771Y-101868238D01*
X132872849Y-101867475D01*
X132871539Y-101863662D01*
X132867808Y-101856354D01*
X132863569Y-101848338D01*
X132861697Y-101844176D01*
X132859843Y-101839098D01*
X132858573Y-101836057D01*
X132858000Y-101834643D01*
X132857030Y-101832092D01*
X132855535Y-101828041D01*
X132853383Y-101822126D01*
X132850448Y-101813984D01*
X132846598Y-101803253D01*
X132841705Y-101789569D01*
X132835640Y-101772569D01*
X132828274Y-101751890D01*
X132819476Y-101727169D01*
X132809119Y-101698043D01*
X132797073Y-101664148D01*
X132783208Y-101625122D01*
X132767396Y-101580602D01*
X132749506Y-101530223D01*
X132729411Y-101473624D01*
X132706981Y-101410441D01*
X132682085Y-101340311D01*
X132656323Y-101267734D01*
X132639888Y-101221282D01*
X132623983Y-101176043D01*
X132608865Y-101132759D01*
X132594787Y-101092174D01*
X132582005Y-101055029D01*
X132570773Y-101022068D01*
X132561346Y-100994033D01*
X132553980Y-100971667D01*
X132548928Y-100955712D01*
X132546988Y-100949067D01*
X132539698Y-100921083D01*
X132535706Y-100904451D01*
X134102930Y-100904451D01*
X134103636Y-100908559D01*
X134106580Y-100919393D01*
X134111449Y-100935968D01*
X134117928Y-100957304D01*
X134125704Y-100982417D01*
X134134461Y-101010326D01*
X134143886Y-101040048D01*
X134153664Y-101070601D01*
X134163480Y-101101003D01*
X134173021Y-101130271D01*
X134181972Y-101157424D01*
X134190019Y-101181478D01*
X134196848Y-101201451D01*
X134202143Y-101216362D01*
X134205540Y-101225109D01*
X134208330Y-101232607D01*
X134213053Y-101246491D01*
X134219257Y-101265388D01*
X134226494Y-101287924D01*
X134234313Y-101312723D01*
X134236108Y-101318477D01*
X134261374Y-101399666D01*
X134757148Y-101398437D01*
X134823066Y-101398253D01*
X134888787Y-101398028D01*
X134953620Y-101397767D01*
X135016872Y-101397475D01*
X135077849Y-101397156D01*
X135135858Y-101396815D01*
X135190208Y-101396455D01*
X135240204Y-101396082D01*
X135285154Y-101395700D01*
X135324366Y-101395313D01*
X135357145Y-101394925D01*
X135382800Y-101394542D01*
X135391560Y-101394378D01*
X135530198Y-101391547D01*
X135452567Y-101144972D01*
X135374937Y-100898398D01*
X134739517Y-100900954D01*
X134668346Y-100901246D01*
X134599400Y-100901541D01*
X134533115Y-100901835D01*
X134469927Y-100902127D01*
X134410270Y-100902415D01*
X134354581Y-100902695D01*
X134303295Y-100902965D01*
X134256847Y-100903224D01*
X134215672Y-100903468D01*
X134180207Y-100903695D01*
X134150886Y-100903904D01*
X134128146Y-100904090D01*
X134112420Y-100904253D01*
X134104146Y-100904390D01*
X134102930Y-100904451D01*
X132535706Y-100904451D01*
X132533585Y-100895615D01*
X132528875Y-100873769D01*
X132525795Y-100856656D01*
X132524572Y-100845384D01*
X132525031Y-100841391D01*
X132524294Y-100836526D01*
X132523005Y-100835443D01*
X132521257Y-100830427D01*
X132519916Y-100818648D01*
X132519092Y-100801453D01*
X132518880Y-100784984D01*
X132520796Y-100743017D01*
X132526268Y-100701831D01*
X132534886Y-100663678D01*
X132546236Y-100630813D01*
X132547660Y-100627558D01*
X132553549Y-100613667D01*
X132557782Y-100602222D01*
X132559472Y-100595631D01*
X132559474Y-100595516D01*
X132561792Y-100590361D01*
X132563534Y-100589805D01*
X132567183Y-100586538D01*
X132567593Y-100584006D01*
X132570205Y-100576196D01*
X132572688Y-100572842D01*
X132577456Y-100566897D01*
X132585078Y-100556443D01*
X132593914Y-100543734D01*
X132594000Y-100543608D01*
X132613169Y-100519852D01*
X132638120Y-100495636D01*
X132666810Y-100472671D01*
X132697197Y-100452665D01*
X132713112Y-100443937D01*
X132723002Y-100438527D01*
X132728722Y-100434629D01*
X132729347Y-100433568D01*
X132725067Y-100432478D01*
X132714140Y-100430369D01*
X132697938Y-100427490D01*
X132677836Y-100424085D01*
X132662987Y-100421652D01*
X132638930Y-100417499D01*
X132615840Y-100413045D01*
X132595741Y-100408713D01*
X132580659Y-100404926D01*
X132575712Y-100403397D01*
X132558049Y-100397460D01*
X132538914Y-100391306D01*
X132531058Y-100388877D01*
X132500662Y-100377268D01*
X132467328Y-100360424D01*
X132433000Y-100339596D01*
X132399626Y-100316033D01*
X132369153Y-100290986D01*
X132349911Y-100272538D01*
X132332176Y-100252403D01*
X132313268Y-100227975D01*
X132294772Y-100201556D01*
X132278270Y-100175448D01*
X132265346Y-100151952D01*
X132261853Y-100144530D01*
X132257900Y-100134659D01*
X132251796Y-100118191D01*
X132243932Y-100096239D01*
X132234700Y-100069915D01*
X132224491Y-100040332D01*
X132213696Y-100008603D01*
X132206168Y-99986211D01*
X132195670Y-99954838D01*
X132185967Y-99925865D01*
X132177365Y-99900202D01*
X132170171Y-99878762D01*
X132164690Y-99862459D01*
X132161230Y-99852203D01*
X132160117Y-99848955D01*
X132158488Y-99841806D01*
X132158452Y-99841290D01*
X132155328Y-99835987D01*
X132154239Y-99835185D01*
X132152353Y-99831039D01*
X132148094Y-99819766D01*
X132141663Y-99801941D01*
X132133256Y-99778138D01*
X132123075Y-99748932D01*
X132111316Y-99714898D01*
X132098179Y-99676610D01*
X132083864Y-99634642D01*
X132068568Y-99589569D01*
X132052491Y-99541965D01*
X132043775Y-99516064D01*
X132026677Y-99465256D01*
X132009771Y-99415136D01*
X131993314Y-99366459D01*
X131977564Y-99319984D01*
X131962778Y-99276466D01*
X131949214Y-99236664D01*
X131944696Y-99223453D01*
X133448208Y-99223453D01*
X133451892Y-99229441D01*
X133452320Y-99230860D01*
X133452382Y-99231476D01*
X133452439Y-99232009D01*
X133452691Y-99233080D01*
X133453339Y-99235307D01*
X133454582Y-99239312D01*
X133456621Y-99245713D01*
X133459655Y-99255131D01*
X133463885Y-99268185D01*
X133469510Y-99285496D01*
X133476732Y-99307683D01*
X133485750Y-99335366D01*
X133496764Y-99369164D01*
X133509974Y-99409698D01*
X133518845Y-99436920D01*
X133531728Y-99476464D01*
X133544283Y-99515021D01*
X133556198Y-99551630D01*
X133567159Y-99585332D01*
X133576856Y-99615165D01*
X133584975Y-99640170D01*
X133591205Y-99659386D01*
X133595234Y-99671854D01*
X133595263Y-99671946D01*
X133608843Y-99714148D01*
X134240088Y-99711181D01*
X134311021Y-99710841D01*
X134379727Y-99710497D01*
X134445769Y-99710153D01*
X134508709Y-99709812D01*
X134568112Y-99709475D01*
X134623541Y-99709147D01*
X134674558Y-99708830D01*
X134720726Y-99708526D01*
X134761609Y-99708239D01*
X134796770Y-99707972D01*
X134825772Y-99707727D01*
X134848178Y-99707506D01*
X134863551Y-99707314D01*
X134871455Y-99707153D01*
X134872468Y-99707086D01*
X134871554Y-99703094D01*
X134868440Y-99692275D01*
X134863402Y-99675534D01*
X134856719Y-99653776D01*
X134848667Y-99627906D01*
X134839524Y-99598828D01*
X134832452Y-99576513D01*
X134820243Y-99538087D01*
X134806711Y-99495469D01*
X134792613Y-99451039D01*
X134778704Y-99407179D01*
X134765738Y-99366269D01*
X134754472Y-99330690D01*
X134754367Y-99330360D01*
X134717432Y-99213650D01*
X134461507Y-99213653D01*
X134386652Y-99213692D01*
X134311729Y-99213804D01*
X134237172Y-99213986D01*
X134163419Y-99214233D01*
X134090905Y-99214542D01*
X134020067Y-99214907D01*
X133951341Y-99215324D01*
X133885164Y-99215790D01*
X133821970Y-99216300D01*
X133762197Y-99216850D01*
X133706281Y-99217436D01*
X133654658Y-99218053D01*
X133607764Y-99218697D01*
X133566034Y-99219365D01*
X133529907Y-99220051D01*
X133499817Y-99220752D01*
X133476200Y-99221463D01*
X133459494Y-99222180D01*
X133450134Y-99222899D01*
X133448208Y-99223453D01*
X131944696Y-99223453D01*
X131937131Y-99201333D01*
X131926784Y-99171230D01*
X131918433Y-99147113D01*
X131912334Y-99129738D01*
X131911133Y-99126372D01*
X131902212Y-99101352D01*
X131891408Y-99070789D01*
X131879468Y-99036817D01*
X131867143Y-99001573D01*
X131855182Y-98967191D01*
X131848509Y-98947914D01*
X131838785Y-98920021D01*
X131829723Y-98894517D01*
X131821710Y-98872452D01*
X131815133Y-98854874D01*
X131810376Y-98842833D01*
X131807828Y-98837376D01*
X131807765Y-98837294D01*
X131805507Y-98832874D01*
X131806446Y-98832062D01*
X131806811Y-98829564D01*
X131804416Y-98825972D01*
X131801582Y-98821063D01*
X131802386Y-98819883D01*
X131803081Y-98817380D01*
X131801540Y-98814809D01*
X131798599Y-98808769D01*
X131793759Y-98796403D01*
X131787507Y-98779147D01*
X131780328Y-98758436D01*
X131772706Y-98735705D01*
X131765130Y-98712389D01*
X131758083Y-98689923D01*
X131752052Y-98669743D01*
X131750001Y-98662518D01*
X131744482Y-98639232D01*
X131739163Y-98610646D01*
X131734415Y-98579446D01*
X131730612Y-98548320D01*
X131728126Y-98519954D01*
X131727323Y-98499018D01*
X131728126Y-98480059D01*
X131730369Y-98455570D01*
X131733725Y-98427943D01*
X131737870Y-98399573D01*
X131742478Y-98372853D01*
X131747222Y-98350178D01*
X131748004Y-98346957D01*
X131764378Y-98294032D01*
X131787061Y-98240069D01*
X131814967Y-98187381D01*
X131843666Y-98142943D01*
X131882220Y-98095452D01*
X131927129Y-98052183D01*
X131977498Y-98013703D01*
X132032431Y-97980584D01*
X132091032Y-97953393D01*
X132152407Y-97932701D01*
X132187957Y-97924101D01*
X132236748Y-97913963D01*
X134958611Y-97902135D01*
X135108022Y-97901488D01*
X135255812Y-97900854D01*
X135401755Y-97900233D01*
X135545628Y-97899626D01*
X135687205Y-97899034D01*
X135826262Y-97898458D01*
X135962573Y-97897898D01*
X136095916Y-97897356D01*
X136226063Y-97896832D01*
X136352791Y-97896327D01*
X136475876Y-97895842D01*
X136595091Y-97895378D01*
X136710214Y-97894935D01*
X136821017Y-97894515D01*
X136927279Y-97894118D01*
X137028772Y-97893745D01*
X137125273Y-97893397D01*
X137216557Y-97893075D01*
X137302399Y-97892779D01*
X137382574Y-97892511D01*
X137456858Y-97892271D01*
X137525025Y-97892060D01*
X137586852Y-97891878D01*
X137642114Y-97891728D01*
X137690585Y-97891609D01*
X137732041Y-97891523D01*
X137766257Y-97891470D01*
X137793009Y-97891451D01*
X137812071Y-97891467D01*
G37*
%TD*%
M02*
