%TF.GenerationSoftware,KiCad,Pcbnew,8.0.5*%
%TF.CreationDate,2024-11-15T12:40:48+00:00*%
%TF.ProjectId,TIMPS2KeyMini,54494d50-5332-44b6-9579-4d696e692e6b,rev?*%
%TF.SameCoordinates,Original*%
%TF.FileFunction,Copper,L2,Bot*%
%TF.FilePolarity,Positive*%
%FSLAX46Y46*%
G04 Gerber Fmt 4.6, Leading zero omitted, Abs format (unit mm)*
G04 Created by KiCad (PCBNEW 8.0.5) date 2024-11-15 12:40:48*
%MOMM*%
%LPD*%
G01*
G04 APERTURE LIST*
%TA.AperFunction,ComponentPad*%
%ADD10R,1.600000X1.600000*%
%TD*%
%TA.AperFunction,ComponentPad*%
%ADD11C,1.600000*%
%TD*%
%TA.AperFunction,ComponentPad*%
%ADD12R,1.700000X1.700000*%
%TD*%
%TA.AperFunction,ComponentPad*%
%ADD13O,1.700000X1.700000*%
%TD*%
%TA.AperFunction,ComponentPad*%
%ADD14R,1.500000X1.500000*%
%TD*%
%TA.AperFunction,ComponentPad*%
%ADD15C,1.500000*%
%TD*%
%TA.AperFunction,ComponentPad*%
%ADD16R,1.800000X1.800000*%
%TD*%
%TA.AperFunction,ComponentPad*%
%ADD17C,1.800000*%
%TD*%
%TA.AperFunction,ComponentPad*%
%ADD18O,1.600000X1.600000*%
%TD*%
%TA.AperFunction,ComponentPad*%
%ADD19O,2.000000X3.500000*%
%TD*%
%TA.AperFunction,ComponentPad*%
%ADD20O,4.000000X2.000000*%
%TD*%
%TA.AperFunction,ViaPad*%
%ADD21C,0.800000*%
%TD*%
%TA.AperFunction,Conductor*%
%ADD22C,0.600000*%
%TD*%
%TA.AperFunction,Conductor*%
%ADD23C,0.400000*%
%TD*%
G04 APERTURE END LIST*
D10*
%TO.P,BZ1,1,+*%
%TO.N,+5V*%
X129040000Y-70680000D03*
D11*
%TO.P,BZ1,2,-*%
%TO.N,Net-(BZ1--)*%
X135540000Y-70680000D03*
%TD*%
%TO.P,C2,1*%
%TO.N,Net-(U4-AREF)*%
X124140000Y-85310000D03*
%TO.P,C2,2*%
%TO.N,GND*%
X124140000Y-80230000D03*
%TD*%
D12*
%TO.P,J5,1,Pin_1*%
%TO.N,+5V*%
X121845000Y-62365000D03*
D13*
%TO.P,J5,2,Pin_2*%
%TO.N,N_RX*%
X124385000Y-62365000D03*
%TO.P,J5,3,Pin_3*%
%TO.N,N_TX*%
X126925000Y-62365000D03*
%TO.P,J5,4,Pin_4*%
%TO.N,GND*%
X129465000Y-62365000D03*
%TD*%
D14*
%TO.P,Q1,1,C*%
%TO.N,Net-(BZ1--)*%
X129920000Y-87450000D03*
D15*
%TO.P,Q1,2,B*%
%TO.N,Net-(Q1-B)*%
X132460000Y-87450000D03*
%TO.P,Q1,3,E*%
%TO.N,Net-(Q1-E)*%
X135000000Y-87450000D03*
%TD*%
%TO.P,Y1,1,1*%
%TO.N,Net-(U4-PB6)*%
X128520000Y-94030000D03*
%TO.P,Y1,2,2*%
%TO.N,Net-(U4-PB7)*%
X133400000Y-94030000D03*
%TD*%
D16*
%TO.P,D1,1,K*%
%TO.N,GND*%
X133745000Y-53690000D03*
D17*
%TO.P,D1,2,A*%
%TO.N,Net-(D1-A)*%
X136285000Y-53690000D03*
%TD*%
D11*
%TO.P,R1,1*%
%TO.N,+5V*%
X121910000Y-54640000D03*
D18*
%TO.P,R1,2*%
%TO.N,Net-(D1-A)*%
X129530000Y-54640000D03*
%TD*%
D11*
%TO.P,C9,1*%
%TO.N,Net-(U4-PB6)*%
X124770000Y-98310000D03*
%TO.P,C9,2*%
%TO.N,GND*%
X129850000Y-98310000D03*
%TD*%
%TO.P,R2,1*%
%TO.N,GND*%
X134480000Y-79340000D03*
D18*
%TO.P,R2,2*%
%TO.N,Net-(Q1-E)*%
X126860000Y-79340000D03*
%TD*%
D10*
%TO.P,U4,1,PC6*%
%TO.N,ADRESET*%
X113620000Y-67650000D03*
D18*
%TO.P,U4,2,PD0*%
%TO.N,/AD0*%
X113620000Y-70190000D03*
%TO.P,U4,3,PD1*%
%TO.N,/AD1*%
X113620000Y-72730000D03*
%TO.P,U4,4,PD2*%
%TO.N,/AD2*%
X113620000Y-75270000D03*
%TO.P,U4,5,PD3*%
%TO.N,PS2-CLK*%
X113620000Y-77810000D03*
%TO.P,U4,6,PD4*%
%TO.N,/AD4*%
X113620000Y-80350000D03*
%TO.P,U4,7,VCC*%
%TO.N,+5V*%
X113620000Y-82890000D03*
%TO.P,U4,8,GND*%
%TO.N,GND*%
X113620000Y-85430000D03*
%TO.P,U4,9,PB6*%
%TO.N,Net-(U4-PB6)*%
X113620000Y-87970000D03*
%TO.P,U4,10,PB7*%
%TO.N,Net-(U4-PB7)*%
X113620000Y-90510000D03*
%TO.P,U4,11,PD5*%
%TO.N,/AD5*%
X113620000Y-93050000D03*
%TO.P,U4,12,PD6*%
%TO.N,/AD6*%
X113620000Y-95590000D03*
%TO.P,U4,13,PD7*%
%TO.N,/AD7*%
X113620000Y-98130000D03*
%TO.P,U4,14,PB0*%
%TO.N,/AD8*%
X113620000Y-100670000D03*
%TO.P,U4,15,PB1*%
%TO.N,/AD9*%
X121230000Y-100670000D03*
%TO.P,U4,16,PB2*%
%TO.N,/AD10*%
X121230000Y-98130000D03*
%TO.P,U4,17,PB3*%
%TO.N,/AD11*%
X121230000Y-95590000D03*
%TO.P,U4,18,PB4*%
%TO.N,PS2-DATA*%
X121230000Y-93050000D03*
%TO.P,U4,19,PB5*%
%TO.N,/AD13*%
X121230000Y-90510000D03*
%TO.P,U4,20,AVCC*%
%TO.N,+5V*%
X121230000Y-87970000D03*
%TO.P,U4,21,AREF*%
%TO.N,Net-(U4-AREF)*%
X121230000Y-85430000D03*
%TO.P,U4,22,GND*%
%TO.N,GND*%
X121230000Y-82890000D03*
%TO.P,U4,23,PC0*%
%TO.N,SOUND*%
X121230000Y-80350000D03*
%TO.P,U4,24,PC1*%
%TO.N,/AA1*%
X121230000Y-77810000D03*
%TO.P,U4,25,PC2*%
%TO.N,/AA2*%
X121230000Y-75270000D03*
%TO.P,U4,26,PC3*%
%TO.N,/AA3*%
X121230000Y-72730000D03*
%TO.P,U4,27,PC4*%
%TO.N,N_SDA*%
X121230000Y-70190000D03*
%TO.P,U4,28,PC5*%
%TO.N,N_SCL*%
X121230000Y-67650000D03*
%TD*%
D11*
%TO.P,R8,1*%
%TO.N,/AD1*%
X121910000Y-58900000D03*
D18*
%TO.P,R8,2*%
%TO.N,N_TX*%
X129530000Y-58900000D03*
%TD*%
D12*
%TO.P,J4,1,Pin_1*%
%TO.N,+5V*%
X114440000Y-62350000D03*
D13*
%TO.P,J4,2,Pin_2*%
%TO.N,GND*%
X114440000Y-59810000D03*
%TO.P,J4,3,Pin_3*%
%TO.N,N_SDA*%
X114440000Y-57270000D03*
%TO.P,J4,4,Pin_4*%
%TO.N,N_SCL*%
X114440000Y-54730000D03*
%TD*%
D11*
%TO.P,C10,1*%
%TO.N,Net-(U4-PB7)*%
X124770000Y-100750000D03*
%TO.P,C10,2*%
%TO.N,GND*%
X129850000Y-100750000D03*
%TD*%
%TO.P,R7,1*%
%TO.N,/AD0*%
X121910000Y-56770000D03*
D18*
%TO.P,R7,2*%
%TO.N,N_RX*%
X129530000Y-56770000D03*
%TD*%
D11*
%TO.P,R6,1*%
%TO.N,+5V*%
X123970000Y-76580000D03*
D18*
%TO.P,R6,2*%
%TO.N,ADRESET*%
X123970000Y-68960000D03*
%TD*%
D11*
%TO.P,R3,1*%
%TO.N,Net-(Q1-B)*%
X134480000Y-81480000D03*
D18*
%TO.P,R3,2*%
%TO.N,SOUND*%
X126860000Y-81480000D03*
%TD*%
D10*
%TO.P,J2,1*%
%TO.N,PS2-DATA*%
X126960000Y-47850000D03*
D11*
%TO.P,J2,2*%
%TO.N,unconnected-(J2-Pad2)*%
X124360000Y-47850000D03*
%TO.P,J2,3*%
%TO.N,GND*%
X129060000Y-47850000D03*
%TO.P,J2,4*%
%TO.N,+5V*%
X122260000Y-47850000D03*
%TO.P,J2,5*%
%TO.N,PS2-CLK*%
X129060000Y-50650000D03*
%TO.P,J2,6*%
%TO.N,unconnected-(J2-Pad6)*%
X122260000Y-50650000D03*
D19*
%TO.P,J2,7*%
%TO.N,GND*%
X118810000Y-45000000D03*
D20*
X125660000Y-44200000D03*
D19*
X132510000Y-45000000D03*
%TD*%
D21*
%TO.N,N_SCL*%
X116810000Y-67550000D03*
%TO.N,/AD0*%
X117410000Y-56770000D03*
%TO.N,/AD1*%
X118210000Y-58940000D03*
%TO.N,N_SDA*%
X116010000Y-70190000D03*
%TD*%
D22*
%TO.N,GND*%
X136890000Y-45000000D02*
X132510000Y-45000000D01*
X139075000Y-47185000D02*
X136890000Y-45000000D01*
X139075000Y-51720000D02*
X139075000Y-47185000D01*
X129060000Y-44210000D02*
X129050000Y-44200000D01*
X129060000Y-47850000D02*
X129060000Y-44210000D01*
X129050000Y-44200000D02*
X131710000Y-44200000D01*
X125660000Y-44200000D02*
X129050000Y-44200000D01*
X131710000Y-44200000D02*
X132510000Y-45000000D01*
X119610000Y-44200000D02*
X118810000Y-45000000D01*
X125660000Y-44200000D02*
X119610000Y-44200000D01*
X114585000Y-45000000D02*
X118810000Y-45000000D01*
X112225000Y-47360000D02*
X114585000Y-45000000D01*
X112225000Y-59780000D02*
X112225000Y-47360000D01*
%TO.N,+5V*%
X114440000Y-62350000D02*
X121830000Y-62350000D01*
X121830000Y-62350000D02*
X121845000Y-62365000D01*
%TO.N,GND*%
X114440000Y-59810000D02*
X112255000Y-59810000D01*
X129850000Y-98310000D02*
X129850000Y-100750000D01*
X129740000Y-103460000D02*
X139075000Y-103460000D01*
X129850000Y-103350000D02*
X129740000Y-103460000D01*
X124140000Y-80230000D02*
X124140000Y-79098630D01*
D23*
X134080000Y-51690000D02*
X133745000Y-52025000D01*
D22*
X139075000Y-79110000D02*
X139075000Y-62280000D01*
X134480000Y-79340000D02*
X138845000Y-79340000D01*
X138845000Y-79340000D02*
X139075000Y-79110000D01*
X129850000Y-100750000D02*
X129850000Y-103350000D01*
X129465000Y-62365000D02*
X138990000Y-62365000D01*
D23*
X134080000Y-51690000D02*
X139045000Y-51690000D01*
D22*
X139075000Y-103460000D02*
X139075000Y-79110000D01*
X113620000Y-85430000D02*
X112295000Y-85430000D01*
X121480000Y-82890000D02*
X124140000Y-80230000D01*
X124140000Y-79098630D02*
X125198630Y-78040000D01*
D23*
X133745000Y-52025000D02*
X133745000Y-53690000D01*
D22*
X133180000Y-78040000D02*
X134480000Y-79340000D01*
X112225000Y-85500000D02*
X112225000Y-103460000D01*
X125198630Y-78040000D02*
X133180000Y-78040000D01*
D23*
X139045000Y-51690000D02*
X139075000Y-51720000D01*
D22*
X118690000Y-85430000D02*
X121230000Y-82890000D01*
X121230000Y-82890000D02*
X121480000Y-82890000D01*
X112225000Y-103460000D02*
X129740000Y-103460000D01*
X112225000Y-59780000D02*
X112225000Y-90570000D01*
X112255000Y-59810000D02*
X112225000Y-59780000D01*
X138990000Y-62365000D02*
X139075000Y-62280000D01*
X112295000Y-85430000D02*
X112225000Y-85500000D01*
X113620000Y-85430000D02*
X118690000Y-85430000D01*
X139075000Y-62280000D02*
X139075000Y-51720000D01*
D23*
%TO.N,N_SCL*%
X116910000Y-67650000D02*
X121230000Y-67650000D01*
X116810000Y-67550000D02*
X116910000Y-67650000D01*
%TO.N,ADRESET*%
X113620000Y-67650000D02*
X114930000Y-68960000D01*
X114930000Y-68960000D02*
X123970000Y-68960000D01*
%TO.N,/AD0*%
X117410000Y-56770000D02*
X121910000Y-56770000D01*
%TO.N,/AD1*%
X121900000Y-58890000D02*
X121910000Y-58900000D01*
X118210000Y-58940000D02*
X118260000Y-58890000D01*
X118260000Y-58890000D02*
X121900000Y-58890000D01*
%TO.N,N_SDA*%
X116010000Y-70190000D02*
X121230000Y-70190000D01*
%TO.N,Net-(Q1-E)*%
X132330000Y-79340000D02*
X126860000Y-79340000D01*
X133080000Y-85530000D02*
X133080000Y-80090000D01*
X133080000Y-80090000D02*
X132330000Y-79340000D01*
X135000000Y-87450000D02*
X133080000Y-85530000D01*
%TD*%
%TA.AperFunction,Conductor*%
%TO.N,GND*%
G36*
X139318039Y-39229685D02*
G01*
X139363794Y-39282489D01*
X139375000Y-39334000D01*
X139375000Y-103636000D01*
X139355315Y-103703039D01*
X139302511Y-103748794D01*
X139251000Y-103760000D01*
X112049000Y-103760000D01*
X111981961Y-103740315D01*
X111936206Y-103687511D01*
X111925000Y-103636000D01*
X111925000Y-70189998D01*
X112314532Y-70189998D01*
X112314532Y-70190001D01*
X112334364Y-70416686D01*
X112334366Y-70416697D01*
X112393258Y-70636488D01*
X112393261Y-70636497D01*
X112489431Y-70842732D01*
X112489432Y-70842734D01*
X112619954Y-71029141D01*
X112780858Y-71190045D01*
X112780861Y-71190047D01*
X112967266Y-71320568D01*
X113025275Y-71347618D01*
X113077714Y-71393791D01*
X113096866Y-71460984D01*
X113076650Y-71527865D01*
X113025275Y-71572382D01*
X112967267Y-71599431D01*
X112967265Y-71599432D01*
X112780858Y-71729954D01*
X112619954Y-71890858D01*
X112489432Y-72077265D01*
X112489431Y-72077267D01*
X112393261Y-72283502D01*
X112393258Y-72283511D01*
X112334366Y-72503302D01*
X112334364Y-72503313D01*
X112314532Y-72729998D01*
X112314532Y-72730001D01*
X112334364Y-72956686D01*
X112334366Y-72956697D01*
X112393258Y-73176488D01*
X112393261Y-73176497D01*
X112489431Y-73382732D01*
X112489432Y-73382734D01*
X112619954Y-73569141D01*
X112780858Y-73730045D01*
X112780861Y-73730047D01*
X112967266Y-73860568D01*
X113025275Y-73887618D01*
X113077714Y-73933791D01*
X113096866Y-74000984D01*
X113076650Y-74067865D01*
X113025275Y-74112382D01*
X112967267Y-74139431D01*
X112967265Y-74139432D01*
X112780858Y-74269954D01*
X112619954Y-74430858D01*
X112489432Y-74617265D01*
X112489431Y-74617267D01*
X112393261Y-74823502D01*
X112393258Y-74823511D01*
X112334366Y-75043302D01*
X112334364Y-75043313D01*
X112314532Y-75269998D01*
X112314532Y-75270001D01*
X112334364Y-75496686D01*
X112334366Y-75496697D01*
X112393258Y-75716488D01*
X112393261Y-75716497D01*
X112489431Y-75922732D01*
X112489432Y-75922734D01*
X112619954Y-76109141D01*
X112780858Y-76270045D01*
X112780861Y-76270047D01*
X112967266Y-76400568D01*
X113025275Y-76427618D01*
X113077714Y-76473791D01*
X113096866Y-76540984D01*
X113076650Y-76607865D01*
X113025275Y-76652382D01*
X112967267Y-76679431D01*
X112967265Y-76679432D01*
X112780858Y-76809954D01*
X112619954Y-76970858D01*
X112489432Y-77157265D01*
X112489431Y-77157267D01*
X112393261Y-77363502D01*
X112393258Y-77363511D01*
X112334366Y-77583302D01*
X112334364Y-77583313D01*
X112314532Y-77809998D01*
X112314532Y-77810001D01*
X112334364Y-78036686D01*
X112334366Y-78036697D01*
X112393258Y-78256488D01*
X112393261Y-78256497D01*
X112489431Y-78462732D01*
X112489432Y-78462734D01*
X112619954Y-78649141D01*
X112780858Y-78810045D01*
X112780861Y-78810047D01*
X112967266Y-78940568D01*
X113024505Y-78967259D01*
X113025275Y-78967618D01*
X113077714Y-79013791D01*
X113096866Y-79080984D01*
X113076650Y-79147865D01*
X113025275Y-79192382D01*
X112967267Y-79219431D01*
X112967265Y-79219432D01*
X112780858Y-79349954D01*
X112619954Y-79510858D01*
X112489432Y-79697265D01*
X112489431Y-79697267D01*
X112393261Y-79903502D01*
X112393258Y-79903511D01*
X112334366Y-80123302D01*
X112334364Y-80123313D01*
X112314532Y-80349998D01*
X112314532Y-80350001D01*
X112334364Y-80576686D01*
X112334366Y-80576697D01*
X112393258Y-80796488D01*
X112393261Y-80796497D01*
X112489431Y-81002732D01*
X112489432Y-81002734D01*
X112619954Y-81189141D01*
X112780858Y-81350045D01*
X112780861Y-81350047D01*
X112967266Y-81480568D01*
X113025275Y-81507618D01*
X113077714Y-81553791D01*
X113096866Y-81620984D01*
X113076650Y-81687865D01*
X113025275Y-81732382D01*
X112967267Y-81759431D01*
X112967265Y-81759432D01*
X112780858Y-81889954D01*
X112619954Y-82050858D01*
X112489432Y-82237265D01*
X112489431Y-82237267D01*
X112393261Y-82443502D01*
X112393258Y-82443511D01*
X112334366Y-82663302D01*
X112334364Y-82663313D01*
X112314532Y-82889998D01*
X112314532Y-82890001D01*
X112334364Y-83116686D01*
X112334366Y-83116697D01*
X112393258Y-83336488D01*
X112393261Y-83336497D01*
X112489431Y-83542732D01*
X112489432Y-83542734D01*
X112619954Y-83729141D01*
X112780858Y-83890045D01*
X112780861Y-83890047D01*
X112967266Y-84020568D01*
X113025865Y-84047893D01*
X113078305Y-84094065D01*
X113097457Y-84161258D01*
X113077242Y-84228139D01*
X113025867Y-84272657D01*
X112967515Y-84299867D01*
X112781179Y-84430342D01*
X112620342Y-84591179D01*
X112489865Y-84777517D01*
X112393734Y-84983673D01*
X112393730Y-84983682D01*
X112341127Y-85179999D01*
X112341128Y-85180000D01*
X113304314Y-85180000D01*
X113299920Y-85184394D01*
X113247259Y-85275606D01*
X113220000Y-85377339D01*
X113220000Y-85482661D01*
X113247259Y-85584394D01*
X113299920Y-85675606D01*
X113304314Y-85680000D01*
X112341128Y-85680000D01*
X112393730Y-85876317D01*
X112393734Y-85876326D01*
X112489865Y-86082482D01*
X112620342Y-86268820D01*
X112781179Y-86429657D01*
X112967518Y-86560134D01*
X112967520Y-86560135D01*
X113025865Y-86587342D01*
X113078305Y-86633514D01*
X113097457Y-86700707D01*
X113077242Y-86767589D01*
X113025867Y-86812105D01*
X112967268Y-86839431D01*
X112967264Y-86839433D01*
X112780858Y-86969954D01*
X112619954Y-87130858D01*
X112489432Y-87317265D01*
X112489431Y-87317267D01*
X112393261Y-87523502D01*
X112393258Y-87523511D01*
X112334366Y-87743302D01*
X112334364Y-87743313D01*
X112314532Y-87969998D01*
X112314532Y-87970001D01*
X112334364Y-88196686D01*
X112334366Y-88196697D01*
X112393258Y-88416488D01*
X112393261Y-88416497D01*
X112489431Y-88622732D01*
X112489432Y-88622734D01*
X112619954Y-88809141D01*
X112780858Y-88970045D01*
X112794194Y-88979383D01*
X112967266Y-89100568D01*
X113025275Y-89127618D01*
X113077714Y-89173791D01*
X113096866Y-89240984D01*
X113076650Y-89307865D01*
X113025275Y-89352382D01*
X112967267Y-89379431D01*
X112967265Y-89379432D01*
X112780858Y-89509954D01*
X112619954Y-89670858D01*
X112489432Y-89857265D01*
X112489431Y-89857267D01*
X112393261Y-90063502D01*
X112393258Y-90063511D01*
X112334366Y-90283302D01*
X112334364Y-90283313D01*
X112314532Y-90509998D01*
X112314532Y-90510001D01*
X112334364Y-90736686D01*
X112334366Y-90736697D01*
X112393258Y-90956488D01*
X112393261Y-90956497D01*
X112489431Y-91162732D01*
X112489432Y-91162734D01*
X112619954Y-91349141D01*
X112780858Y-91510045D01*
X112780861Y-91510047D01*
X112967266Y-91640568D01*
X113025275Y-91667618D01*
X113077714Y-91713791D01*
X113096866Y-91780984D01*
X113076650Y-91847865D01*
X113025275Y-91892382D01*
X112967267Y-91919431D01*
X112967265Y-91919432D01*
X112780858Y-92049954D01*
X112619954Y-92210858D01*
X112489432Y-92397265D01*
X112489431Y-92397267D01*
X112393261Y-92603502D01*
X112393258Y-92603511D01*
X112334366Y-92823302D01*
X112334364Y-92823313D01*
X112314532Y-93049998D01*
X112314532Y-93050001D01*
X112334364Y-93276686D01*
X112334366Y-93276697D01*
X112393258Y-93496488D01*
X112393261Y-93496497D01*
X112489431Y-93702732D01*
X112489432Y-93702734D01*
X112619954Y-93889141D01*
X112780858Y-94050045D01*
X112780861Y-94050047D01*
X112967266Y-94180568D01*
X113025275Y-94207618D01*
X113077714Y-94253791D01*
X113096866Y-94320984D01*
X113076650Y-94387865D01*
X113025275Y-94432382D01*
X112967267Y-94459431D01*
X112967265Y-94459432D01*
X112780858Y-94589954D01*
X112619954Y-94750858D01*
X112489432Y-94937265D01*
X112489431Y-94937267D01*
X112393261Y-95143502D01*
X112393258Y-95143511D01*
X112334366Y-95363302D01*
X112334364Y-95363313D01*
X112314532Y-95589998D01*
X112314532Y-95590001D01*
X112334364Y-95816686D01*
X112334366Y-95816697D01*
X112393258Y-96036488D01*
X112393261Y-96036497D01*
X112489431Y-96242732D01*
X112489432Y-96242734D01*
X112619954Y-96429141D01*
X112780858Y-96590045D01*
X112780861Y-96590047D01*
X112967266Y-96720568D01*
X113025275Y-96747618D01*
X113077714Y-96793791D01*
X113096866Y-96860984D01*
X113076650Y-96927865D01*
X113025275Y-96972382D01*
X112967267Y-96999431D01*
X112967265Y-96999432D01*
X112780858Y-97129954D01*
X112619954Y-97290858D01*
X112489432Y-97477265D01*
X112489431Y-97477267D01*
X112393261Y-97683502D01*
X112393258Y-97683511D01*
X112334366Y-97903302D01*
X112334364Y-97903313D01*
X112314532Y-98129998D01*
X112314532Y-98130001D01*
X112334364Y-98356686D01*
X112334366Y-98356697D01*
X112393258Y-98576488D01*
X112393261Y-98576497D01*
X112489431Y-98782732D01*
X112489432Y-98782734D01*
X112619954Y-98969141D01*
X112780858Y-99130045D01*
X112780861Y-99130047D01*
X112967266Y-99260568D01*
X113025275Y-99287618D01*
X113077714Y-99333791D01*
X113096866Y-99400984D01*
X113076650Y-99467865D01*
X113025275Y-99512382D01*
X112967267Y-99539431D01*
X112967265Y-99539432D01*
X112780858Y-99669954D01*
X112619954Y-99830858D01*
X112489432Y-100017265D01*
X112489431Y-100017267D01*
X112393261Y-100223502D01*
X112393258Y-100223511D01*
X112334366Y-100443302D01*
X112334364Y-100443313D01*
X112314532Y-100669998D01*
X112314532Y-100670001D01*
X112334364Y-100896686D01*
X112334366Y-100896697D01*
X112393258Y-101116488D01*
X112393261Y-101116497D01*
X112489431Y-101322732D01*
X112489432Y-101322734D01*
X112619954Y-101509141D01*
X112780858Y-101670045D01*
X112780861Y-101670047D01*
X112967266Y-101800568D01*
X113173504Y-101896739D01*
X113393308Y-101955635D01*
X113555230Y-101969801D01*
X113619998Y-101975468D01*
X113620000Y-101975468D01*
X113620002Y-101975468D01*
X113676673Y-101970509D01*
X113846692Y-101955635D01*
X114066496Y-101896739D01*
X114272734Y-101800568D01*
X114459139Y-101670047D01*
X114620047Y-101509139D01*
X114750568Y-101322734D01*
X114846739Y-101116496D01*
X114905635Y-100896692D01*
X114925468Y-100670000D01*
X114905635Y-100443308D01*
X114846739Y-100223504D01*
X114750568Y-100017266D01*
X114620047Y-99830861D01*
X114620045Y-99830858D01*
X114459141Y-99669954D01*
X114272734Y-99539432D01*
X114272728Y-99539429D01*
X114214725Y-99512382D01*
X114162285Y-99466210D01*
X114143133Y-99399017D01*
X114163348Y-99332135D01*
X114214725Y-99287618D01*
X114272734Y-99260568D01*
X114459139Y-99130047D01*
X114620047Y-98969139D01*
X114750568Y-98782734D01*
X114846739Y-98576496D01*
X114905635Y-98356692D01*
X114925468Y-98130000D01*
X114905635Y-97903308D01*
X114846739Y-97683504D01*
X114750568Y-97477266D01*
X114620047Y-97290861D01*
X114620045Y-97290858D01*
X114459141Y-97129954D01*
X114272734Y-96999432D01*
X114272728Y-96999429D01*
X114214725Y-96972382D01*
X114162285Y-96926210D01*
X114143133Y-96859017D01*
X114163348Y-96792135D01*
X114214725Y-96747618D01*
X114272734Y-96720568D01*
X114459139Y-96590047D01*
X114620047Y-96429139D01*
X114750568Y-96242734D01*
X114846739Y-96036496D01*
X114905635Y-95816692D01*
X114925468Y-95590000D01*
X114905635Y-95363308D01*
X114846739Y-95143504D01*
X114750568Y-94937266D01*
X114620047Y-94750861D01*
X114620045Y-94750858D01*
X114459141Y-94589954D01*
X114272734Y-94459432D01*
X114272728Y-94459429D01*
X114214725Y-94432382D01*
X114162285Y-94386210D01*
X114143133Y-94319017D01*
X114163348Y-94252135D01*
X114214725Y-94207618D01*
X114272734Y-94180568D01*
X114459139Y-94050047D01*
X114620047Y-93889139D01*
X114750568Y-93702734D01*
X114846739Y-93496496D01*
X114905635Y-93276692D01*
X114925468Y-93050000D01*
X114905635Y-92823308D01*
X114846739Y-92603504D01*
X114750568Y-92397266D01*
X114620047Y-92210861D01*
X114620045Y-92210858D01*
X114459141Y-92049954D01*
X114272734Y-91919432D01*
X114272728Y-91919429D01*
X114214725Y-91892382D01*
X114162285Y-91846210D01*
X114143133Y-91779017D01*
X114163348Y-91712135D01*
X114214725Y-91667618D01*
X114272734Y-91640568D01*
X114459139Y-91510047D01*
X114620047Y-91349139D01*
X114750568Y-91162734D01*
X114846739Y-90956496D01*
X114905635Y-90736692D01*
X114925468Y-90510000D01*
X114905635Y-90283308D01*
X114846739Y-90063504D01*
X114750568Y-89857266D01*
X114620047Y-89670861D01*
X114620045Y-89670858D01*
X114459141Y-89509954D01*
X114272734Y-89379432D01*
X114272728Y-89379429D01*
X114214725Y-89352382D01*
X114162285Y-89306210D01*
X114143133Y-89239017D01*
X114163348Y-89172135D01*
X114214725Y-89127618D01*
X114272734Y-89100568D01*
X114459139Y-88970047D01*
X114620047Y-88809139D01*
X114750568Y-88622734D01*
X114846739Y-88416496D01*
X114905635Y-88196692D01*
X114925468Y-87970000D01*
X114905635Y-87743308D01*
X114846739Y-87523504D01*
X114750568Y-87317266D01*
X114629392Y-87144207D01*
X114620045Y-87130858D01*
X114459141Y-86969954D01*
X114272734Y-86839432D01*
X114272732Y-86839431D01*
X114258698Y-86832887D01*
X114214132Y-86812105D01*
X114161694Y-86765934D01*
X114142542Y-86698740D01*
X114162758Y-86631859D01*
X114214134Y-86587341D01*
X114272484Y-86560132D01*
X114458820Y-86429657D01*
X114619657Y-86268820D01*
X114750134Y-86082482D01*
X114846265Y-85876326D01*
X114846269Y-85876317D01*
X114898872Y-85680000D01*
X113935686Y-85680000D01*
X113940080Y-85675606D01*
X113992741Y-85584394D01*
X114020000Y-85482661D01*
X114020000Y-85377339D01*
X113992741Y-85275606D01*
X113940080Y-85184394D01*
X113935686Y-85180000D01*
X114898872Y-85180000D01*
X114898872Y-85179999D01*
X114846269Y-84983682D01*
X114846265Y-84983673D01*
X114750134Y-84777517D01*
X114619657Y-84591179D01*
X114458820Y-84430342D01*
X114272482Y-84299865D01*
X114214133Y-84272657D01*
X114161694Y-84226484D01*
X114142542Y-84159291D01*
X114162758Y-84092410D01*
X114214129Y-84047895D01*
X114272734Y-84020568D01*
X114459139Y-83890047D01*
X114620047Y-83729139D01*
X114750568Y-83542734D01*
X114846739Y-83336496D01*
X114905635Y-83116692D01*
X114925468Y-82890000D01*
X114905635Y-82663308D01*
X114846739Y-82443504D01*
X114750568Y-82237266D01*
X114620047Y-82050861D01*
X114620045Y-82050858D01*
X114459141Y-81889954D01*
X114272734Y-81759432D01*
X114272728Y-81759429D01*
X114214725Y-81732382D01*
X114162285Y-81686210D01*
X114143133Y-81619017D01*
X114163348Y-81552135D01*
X114214725Y-81507618D01*
X114272734Y-81480568D01*
X114459139Y-81350047D01*
X114620047Y-81189139D01*
X114750568Y-81002734D01*
X114846739Y-80796496D01*
X114905635Y-80576692D01*
X114925468Y-80350000D01*
X114905635Y-80123308D01*
X114846739Y-79903504D01*
X114750568Y-79697266D01*
X114620047Y-79510861D01*
X114620045Y-79510858D01*
X114459141Y-79349954D01*
X114272734Y-79219432D01*
X114272728Y-79219429D01*
X114214725Y-79192382D01*
X114162285Y-79146210D01*
X114143133Y-79079017D01*
X114163348Y-79012135D01*
X114214725Y-78967618D01*
X114215495Y-78967259D01*
X114272734Y-78940568D01*
X114459139Y-78810047D01*
X114620047Y-78649139D01*
X114750568Y-78462734D01*
X114846739Y-78256496D01*
X114905635Y-78036692D01*
X114925468Y-77810000D01*
X114905635Y-77583308D01*
X114846739Y-77363504D01*
X114750568Y-77157266D01*
X114620047Y-76970861D01*
X114620045Y-76970858D01*
X114459141Y-76809954D01*
X114272734Y-76679432D01*
X114272728Y-76679429D01*
X114214725Y-76652382D01*
X114162285Y-76606210D01*
X114143133Y-76539017D01*
X114163348Y-76472135D01*
X114214725Y-76427618D01*
X114272734Y-76400568D01*
X114459139Y-76270047D01*
X114620047Y-76109139D01*
X114750568Y-75922734D01*
X114846739Y-75716496D01*
X114905635Y-75496692D01*
X114925468Y-75270000D01*
X114905635Y-75043308D01*
X114846739Y-74823504D01*
X114750568Y-74617266D01*
X114620047Y-74430861D01*
X114620045Y-74430858D01*
X114459141Y-74269954D01*
X114272734Y-74139432D01*
X114272728Y-74139429D01*
X114214725Y-74112382D01*
X114162285Y-74066210D01*
X114143133Y-73999017D01*
X114163348Y-73932135D01*
X114214725Y-73887618D01*
X114272734Y-73860568D01*
X114459139Y-73730047D01*
X114620047Y-73569139D01*
X114750568Y-73382734D01*
X114846739Y-73176496D01*
X114905635Y-72956692D01*
X114925468Y-72730000D01*
X114905635Y-72503308D01*
X114846739Y-72283504D01*
X114750568Y-72077266D01*
X114620047Y-71890861D01*
X114620045Y-71890858D01*
X114459141Y-71729954D01*
X114272734Y-71599432D01*
X114272728Y-71599429D01*
X114214725Y-71572382D01*
X114162285Y-71526210D01*
X114143133Y-71459017D01*
X114163348Y-71392135D01*
X114214725Y-71347618D01*
X114272734Y-71320568D01*
X114459139Y-71190047D01*
X114620047Y-71029139D01*
X114750568Y-70842734D01*
X114846739Y-70636496D01*
X114901771Y-70431109D01*
X114938136Y-70371450D01*
X115000982Y-70340921D01*
X115070358Y-70349215D01*
X115124236Y-70393701D01*
X115139477Y-70424886D01*
X115182818Y-70558277D01*
X115182821Y-70558284D01*
X115277467Y-70722216D01*
X115385982Y-70842734D01*
X115404129Y-70862888D01*
X115557265Y-70974148D01*
X115557270Y-70974151D01*
X115730192Y-71051142D01*
X115730197Y-71051144D01*
X115915354Y-71090500D01*
X115915355Y-71090500D01*
X116104644Y-71090500D01*
X116104646Y-71090500D01*
X116289803Y-71051144D01*
X116462730Y-70974151D01*
X116505087Y-70943377D01*
X116545271Y-70914182D01*
X116611077Y-70890702D01*
X116618156Y-70890500D01*
X120068327Y-70890500D01*
X120135366Y-70910185D01*
X120169902Y-70943377D01*
X120229954Y-71029141D01*
X120390858Y-71190045D01*
X120390861Y-71190047D01*
X120577266Y-71320568D01*
X120635275Y-71347618D01*
X120687714Y-71393791D01*
X120706866Y-71460984D01*
X120686650Y-71527865D01*
X120635275Y-71572382D01*
X120577267Y-71599431D01*
X120577265Y-71599432D01*
X120390858Y-71729954D01*
X120229954Y-71890858D01*
X120099432Y-72077265D01*
X120099431Y-72077267D01*
X120003261Y-72283502D01*
X120003258Y-72283511D01*
X119944366Y-72503302D01*
X119944364Y-72503313D01*
X119924532Y-72729998D01*
X119924532Y-72730001D01*
X119944364Y-72956686D01*
X119944366Y-72956697D01*
X120003258Y-73176488D01*
X120003261Y-73176497D01*
X120099431Y-73382732D01*
X120099432Y-73382734D01*
X120229954Y-73569141D01*
X120390858Y-73730045D01*
X120390861Y-73730047D01*
X120577266Y-73860568D01*
X120635275Y-73887618D01*
X120687714Y-73933791D01*
X120706866Y-74000984D01*
X120686650Y-74067865D01*
X120635275Y-74112382D01*
X120577267Y-74139431D01*
X120577265Y-74139432D01*
X120390858Y-74269954D01*
X120229954Y-74430858D01*
X120099432Y-74617265D01*
X120099431Y-74617267D01*
X120003261Y-74823502D01*
X120003258Y-74823511D01*
X119944366Y-75043302D01*
X119944364Y-75043313D01*
X119924532Y-75269998D01*
X119924532Y-75270001D01*
X119944364Y-75496686D01*
X119944366Y-75496697D01*
X120003258Y-75716488D01*
X120003261Y-75716497D01*
X120099431Y-75922732D01*
X120099432Y-75922734D01*
X120229954Y-76109141D01*
X120390858Y-76270045D01*
X120390861Y-76270047D01*
X120577266Y-76400568D01*
X120635275Y-76427618D01*
X120687714Y-76473791D01*
X120706866Y-76540984D01*
X120686650Y-76607865D01*
X120635275Y-76652382D01*
X120577267Y-76679431D01*
X120577265Y-76679432D01*
X120390858Y-76809954D01*
X120229954Y-76970858D01*
X120099432Y-77157265D01*
X120099431Y-77157267D01*
X120003261Y-77363502D01*
X120003258Y-77363511D01*
X119944366Y-77583302D01*
X119944364Y-77583313D01*
X119924532Y-77809998D01*
X119924532Y-77810001D01*
X119944364Y-78036686D01*
X119944366Y-78036697D01*
X120003258Y-78256488D01*
X120003261Y-78256497D01*
X120099431Y-78462732D01*
X120099432Y-78462734D01*
X120229954Y-78649141D01*
X120390858Y-78810045D01*
X120390861Y-78810047D01*
X120577266Y-78940568D01*
X120634505Y-78967259D01*
X120635275Y-78967618D01*
X120687714Y-79013791D01*
X120706866Y-79080984D01*
X120686650Y-79147865D01*
X120635275Y-79192382D01*
X120577267Y-79219431D01*
X120577265Y-79219432D01*
X120390858Y-79349954D01*
X120229954Y-79510858D01*
X120099432Y-79697265D01*
X120099431Y-79697267D01*
X120003261Y-79903502D01*
X120003258Y-79903511D01*
X119944366Y-80123302D01*
X119944364Y-80123313D01*
X119924532Y-80349998D01*
X119924532Y-80350001D01*
X119944364Y-80576686D01*
X119944366Y-80576697D01*
X120003258Y-80796488D01*
X120003261Y-80796497D01*
X120099431Y-81002732D01*
X120099432Y-81002734D01*
X120229954Y-81189141D01*
X120390858Y-81350045D01*
X120390861Y-81350047D01*
X120577266Y-81480568D01*
X120635865Y-81507893D01*
X120688305Y-81554065D01*
X120707457Y-81621258D01*
X120687242Y-81688139D01*
X120635867Y-81732657D01*
X120577515Y-81759867D01*
X120391179Y-81890342D01*
X120230342Y-82051179D01*
X120099865Y-82237517D01*
X120003734Y-82443673D01*
X120003730Y-82443682D01*
X119951127Y-82639999D01*
X119951128Y-82640000D01*
X120914314Y-82640000D01*
X120909920Y-82644394D01*
X120857259Y-82735606D01*
X120830000Y-82837339D01*
X120830000Y-82942661D01*
X120857259Y-83044394D01*
X120909920Y-83135606D01*
X120914314Y-83140000D01*
X119951128Y-83140000D01*
X120003730Y-83336317D01*
X120003734Y-83336326D01*
X120099865Y-83542482D01*
X120230342Y-83728820D01*
X120391179Y-83889657D01*
X120577518Y-84020134D01*
X120577520Y-84020135D01*
X120635865Y-84047342D01*
X120688305Y-84093514D01*
X120707457Y-84160707D01*
X120687242Y-84227589D01*
X120635867Y-84272105D01*
X120634685Y-84272657D01*
X120577264Y-84299433D01*
X120390858Y-84429954D01*
X120229954Y-84590858D01*
X120099432Y-84777265D01*
X120099431Y-84777267D01*
X120003261Y-84983502D01*
X120003258Y-84983511D01*
X119944366Y-85203302D01*
X119944364Y-85203313D01*
X119924532Y-85429998D01*
X119924532Y-85430001D01*
X119944364Y-85656686D01*
X119944366Y-85656697D01*
X120003258Y-85876488D01*
X120003261Y-85876497D01*
X120099431Y-86082732D01*
X120099432Y-86082734D01*
X120229954Y-86269141D01*
X120390858Y-86430045D01*
X120437693Y-86462839D01*
X120577266Y-86560568D01*
X120634681Y-86587341D01*
X120635275Y-86587618D01*
X120687714Y-86633791D01*
X120706866Y-86700984D01*
X120686650Y-86767865D01*
X120635275Y-86812382D01*
X120577267Y-86839431D01*
X120577265Y-86839432D01*
X120390858Y-86969954D01*
X120229954Y-87130858D01*
X120099432Y-87317265D01*
X120099431Y-87317267D01*
X120003261Y-87523502D01*
X120003258Y-87523511D01*
X119944366Y-87743302D01*
X119944364Y-87743313D01*
X119924532Y-87969998D01*
X119924532Y-87970001D01*
X119944364Y-88196686D01*
X119944366Y-88196697D01*
X120003258Y-88416488D01*
X120003261Y-88416497D01*
X120099431Y-88622732D01*
X120099432Y-88622734D01*
X120229954Y-88809141D01*
X120390858Y-88970045D01*
X120404194Y-88979383D01*
X120577266Y-89100568D01*
X120635275Y-89127618D01*
X120687714Y-89173791D01*
X120706866Y-89240984D01*
X120686650Y-89307865D01*
X120635275Y-89352382D01*
X120577267Y-89379431D01*
X120577265Y-89379432D01*
X120390858Y-89509954D01*
X120229954Y-89670858D01*
X120099432Y-89857265D01*
X120099431Y-89857267D01*
X120003261Y-90063502D01*
X120003258Y-90063511D01*
X119944366Y-90283302D01*
X119944364Y-90283313D01*
X119924532Y-90509998D01*
X119924532Y-90510001D01*
X119944364Y-90736686D01*
X119944366Y-90736697D01*
X120003258Y-90956488D01*
X120003261Y-90956497D01*
X120099431Y-91162732D01*
X120099432Y-91162734D01*
X120229954Y-91349141D01*
X120390858Y-91510045D01*
X120390861Y-91510047D01*
X120577266Y-91640568D01*
X120635275Y-91667618D01*
X120687714Y-91713791D01*
X120706866Y-91780984D01*
X120686650Y-91847865D01*
X120635275Y-91892382D01*
X120577267Y-91919431D01*
X120577265Y-91919432D01*
X120390858Y-92049954D01*
X120229954Y-92210858D01*
X120099432Y-92397265D01*
X120099431Y-92397267D01*
X120003261Y-92603502D01*
X120003258Y-92603511D01*
X119944366Y-92823302D01*
X119944364Y-92823313D01*
X119924532Y-93049998D01*
X119924532Y-93050001D01*
X119944364Y-93276686D01*
X119944366Y-93276697D01*
X120003258Y-93496488D01*
X120003261Y-93496497D01*
X120099431Y-93702732D01*
X120099432Y-93702734D01*
X120229954Y-93889141D01*
X120390858Y-94050045D01*
X120390861Y-94050047D01*
X120577266Y-94180568D01*
X120635275Y-94207618D01*
X120687714Y-94253791D01*
X120706866Y-94320984D01*
X120686650Y-94387865D01*
X120635275Y-94432382D01*
X120577267Y-94459431D01*
X120577265Y-94459432D01*
X120390858Y-94589954D01*
X120229954Y-94750858D01*
X120099432Y-94937265D01*
X120099431Y-94937267D01*
X120003261Y-95143502D01*
X120003258Y-95143511D01*
X119944366Y-95363302D01*
X119944364Y-95363313D01*
X119924532Y-95589998D01*
X119924532Y-95590001D01*
X119944364Y-95816686D01*
X119944366Y-95816697D01*
X120003258Y-96036488D01*
X120003261Y-96036497D01*
X120099431Y-96242732D01*
X120099432Y-96242734D01*
X120229954Y-96429141D01*
X120390858Y-96590045D01*
X120390861Y-96590047D01*
X120577266Y-96720568D01*
X120635275Y-96747618D01*
X120687714Y-96793791D01*
X120706866Y-96860984D01*
X120686650Y-96927865D01*
X120635275Y-96972382D01*
X120577267Y-96999431D01*
X120577265Y-96999432D01*
X120390858Y-97129954D01*
X120229954Y-97290858D01*
X120099432Y-97477265D01*
X120099431Y-97477267D01*
X120003261Y-97683502D01*
X120003258Y-97683511D01*
X119944366Y-97903302D01*
X119944364Y-97903313D01*
X119924532Y-98129998D01*
X119924532Y-98130001D01*
X119944364Y-98356686D01*
X119944366Y-98356697D01*
X120003258Y-98576488D01*
X120003261Y-98576497D01*
X120099431Y-98782732D01*
X120099432Y-98782734D01*
X120229954Y-98969141D01*
X120390858Y-99130045D01*
X120390861Y-99130047D01*
X120577266Y-99260568D01*
X120635275Y-99287618D01*
X120687714Y-99333791D01*
X120706866Y-99400984D01*
X120686650Y-99467865D01*
X120635275Y-99512382D01*
X120577267Y-99539431D01*
X120577265Y-99539432D01*
X120390858Y-99669954D01*
X120229954Y-99830858D01*
X120099432Y-100017265D01*
X120099431Y-100017267D01*
X120003261Y-100223502D01*
X120003258Y-100223511D01*
X119944366Y-100443302D01*
X119944364Y-100443313D01*
X119924532Y-100669998D01*
X119924532Y-100670001D01*
X119944364Y-100896686D01*
X119944366Y-100896697D01*
X120003258Y-101116488D01*
X120003261Y-101116497D01*
X120099431Y-101322732D01*
X120099432Y-101322734D01*
X120229954Y-101509141D01*
X120390858Y-101670045D01*
X120390861Y-101670047D01*
X120577266Y-101800568D01*
X120783504Y-101896739D01*
X121003308Y-101955635D01*
X121165230Y-101969801D01*
X121229998Y-101975468D01*
X121230000Y-101975468D01*
X121230002Y-101975468D01*
X121286673Y-101970509D01*
X121456692Y-101955635D01*
X121676496Y-101896739D01*
X121882734Y-101800568D01*
X122069139Y-101670047D01*
X122230047Y-101509139D01*
X122360568Y-101322734D01*
X122456739Y-101116496D01*
X122515635Y-100896692D01*
X122535468Y-100670000D01*
X122515635Y-100443308D01*
X122456739Y-100223504D01*
X122360568Y-100017266D01*
X122230047Y-99830861D01*
X122230045Y-99830858D01*
X122069141Y-99669954D01*
X121882734Y-99539432D01*
X121882728Y-99539429D01*
X121824725Y-99512382D01*
X121772285Y-99466210D01*
X121753133Y-99399017D01*
X121773348Y-99332135D01*
X121824725Y-99287618D01*
X121882734Y-99260568D01*
X122069139Y-99130047D01*
X122230047Y-98969139D01*
X122360568Y-98782734D01*
X122456739Y-98576496D01*
X122515635Y-98356692D01*
X122519720Y-98309998D01*
X123464532Y-98309998D01*
X123464532Y-98310001D01*
X123484364Y-98536686D01*
X123484366Y-98536697D01*
X123543258Y-98756488D01*
X123543261Y-98756497D01*
X123639431Y-98962732D01*
X123639432Y-98962734D01*
X123769954Y-99149141D01*
X123930858Y-99310045D01*
X123930861Y-99310047D01*
X124099922Y-99428424D01*
X124099924Y-99428425D01*
X124143549Y-99483001D01*
X124150743Y-99552500D01*
X124119221Y-99614855D01*
X124099924Y-99631575D01*
X123930858Y-99749954D01*
X123769954Y-99910858D01*
X123639432Y-100097265D01*
X123639431Y-100097267D01*
X123543261Y-100303502D01*
X123543258Y-100303511D01*
X123484366Y-100523302D01*
X123484364Y-100523313D01*
X123464532Y-100749998D01*
X123464532Y-100750001D01*
X123484364Y-100976686D01*
X123484366Y-100976697D01*
X123543258Y-101196488D01*
X123543261Y-101196497D01*
X123639431Y-101402732D01*
X123639432Y-101402734D01*
X123769954Y-101589141D01*
X123930858Y-101750045D01*
X123930861Y-101750047D01*
X124117266Y-101880568D01*
X124323504Y-101976739D01*
X124543308Y-102035635D01*
X124705230Y-102049801D01*
X124769998Y-102055468D01*
X124770000Y-102055468D01*
X124770002Y-102055468D01*
X124826673Y-102050509D01*
X124996692Y-102035635D01*
X125216496Y-101976739D01*
X125422734Y-101880568D01*
X125609139Y-101750047D01*
X125770047Y-101589139D01*
X125900568Y-101402734D01*
X125996739Y-101196496D01*
X126055635Y-100976692D01*
X126075468Y-100750000D01*
X126055635Y-100523308D01*
X125996739Y-100303504D01*
X125900568Y-100097266D01*
X125770047Y-99910861D01*
X125770045Y-99910858D01*
X125609141Y-99749954D01*
X125496344Y-99670974D01*
X125440073Y-99631573D01*
X125396450Y-99576999D01*
X125389256Y-99507501D01*
X125420778Y-99445146D01*
X125440070Y-99428429D01*
X125609139Y-99310047D01*
X125770047Y-99149139D01*
X125900568Y-98962734D01*
X125996739Y-98756496D01*
X126055635Y-98536692D01*
X126075468Y-98310000D01*
X126075468Y-98309997D01*
X128545034Y-98309997D01*
X128545034Y-98310002D01*
X128564858Y-98536599D01*
X128564860Y-98536610D01*
X128623730Y-98756317D01*
X128623735Y-98756331D01*
X128719863Y-98962478D01*
X128770974Y-99035472D01*
X129450000Y-98356446D01*
X129450000Y-98362661D01*
X129477259Y-98464394D01*
X129529920Y-98555606D01*
X129604394Y-98630080D01*
X129695606Y-98682741D01*
X129797339Y-98710000D01*
X129803553Y-98710000D01*
X129124527Y-99389024D01*
X129180795Y-99428424D01*
X129224420Y-99483001D01*
X129231612Y-99552500D01*
X129200090Y-99614854D01*
X129180795Y-99631574D01*
X129124526Y-99670973D01*
X129124526Y-99670974D01*
X129803553Y-100350000D01*
X129797339Y-100350000D01*
X129695606Y-100377259D01*
X129604394Y-100429920D01*
X129529920Y-100504394D01*
X129477259Y-100595606D01*
X129450000Y-100697339D01*
X129450000Y-100703552D01*
X128770974Y-100024526D01*
X128770973Y-100024526D01*
X128719868Y-100097512D01*
X128719866Y-100097516D01*
X128623734Y-100303673D01*
X128623730Y-100303682D01*
X128564860Y-100523389D01*
X128564858Y-100523400D01*
X128545034Y-100749997D01*
X128545034Y-100750002D01*
X128564858Y-100976599D01*
X128564860Y-100976610D01*
X128623730Y-101196317D01*
X128623735Y-101196331D01*
X128719863Y-101402478D01*
X128770974Y-101475472D01*
X129450000Y-100796446D01*
X129450000Y-100802661D01*
X129477259Y-100904394D01*
X129529920Y-100995606D01*
X129604394Y-101070080D01*
X129695606Y-101122741D01*
X129797339Y-101150000D01*
X129803553Y-101150000D01*
X129124526Y-101829025D01*
X129197513Y-101880132D01*
X129197521Y-101880136D01*
X129403668Y-101976264D01*
X129403682Y-101976269D01*
X129623389Y-102035139D01*
X129623400Y-102035141D01*
X129849998Y-102054966D01*
X129850002Y-102054966D01*
X130076599Y-102035141D01*
X130076610Y-102035139D01*
X130296317Y-101976269D01*
X130296331Y-101976264D01*
X130502478Y-101880136D01*
X130575471Y-101829024D01*
X129896447Y-101150000D01*
X129902661Y-101150000D01*
X130004394Y-101122741D01*
X130095606Y-101070080D01*
X130170080Y-100995606D01*
X130222741Y-100904394D01*
X130250000Y-100802661D01*
X130250000Y-100796447D01*
X130929024Y-101475471D01*
X130980136Y-101402478D01*
X131076264Y-101196331D01*
X131076269Y-101196317D01*
X131135139Y-100976610D01*
X131135141Y-100976599D01*
X131154966Y-100750002D01*
X131154966Y-100749997D01*
X131135141Y-100523400D01*
X131135139Y-100523389D01*
X131076269Y-100303682D01*
X131076264Y-100303668D01*
X130980136Y-100097521D01*
X130980132Y-100097513D01*
X130929025Y-100024526D01*
X130250000Y-100703551D01*
X130250000Y-100697339D01*
X130222741Y-100595606D01*
X130170080Y-100504394D01*
X130095606Y-100429920D01*
X130004394Y-100377259D01*
X129902661Y-100350000D01*
X129896448Y-100350000D01*
X130575472Y-99670974D01*
X130519204Y-99631575D01*
X130475579Y-99576998D01*
X130468387Y-99507499D01*
X130499909Y-99445145D01*
X130519203Y-99428426D01*
X130575471Y-99389024D01*
X129896447Y-98710000D01*
X129902661Y-98710000D01*
X130004394Y-98682741D01*
X130095606Y-98630080D01*
X130170080Y-98555606D01*
X130222741Y-98464394D01*
X130250000Y-98362661D01*
X130250000Y-98356447D01*
X130929024Y-99035471D01*
X130980136Y-98962478D01*
X131076264Y-98756331D01*
X131076269Y-98756317D01*
X131135139Y-98536610D01*
X131135141Y-98536599D01*
X131154966Y-98310002D01*
X131154966Y-98309997D01*
X131135141Y-98083400D01*
X131135139Y-98083389D01*
X131076269Y-97863682D01*
X131076264Y-97863668D01*
X130980136Y-97657521D01*
X130980132Y-97657513D01*
X130929025Y-97584526D01*
X130250000Y-98263551D01*
X130250000Y-98257339D01*
X130222741Y-98155606D01*
X130170080Y-98064394D01*
X130095606Y-97989920D01*
X130004394Y-97937259D01*
X129902661Y-97910000D01*
X129896448Y-97910000D01*
X130575472Y-97230974D01*
X130502478Y-97179863D01*
X130296331Y-97083735D01*
X130296317Y-97083730D01*
X130076610Y-97024860D01*
X130076599Y-97024858D01*
X129850002Y-97005034D01*
X129849998Y-97005034D01*
X129623400Y-97024858D01*
X129623389Y-97024860D01*
X129403682Y-97083730D01*
X129403673Y-97083734D01*
X129197516Y-97179866D01*
X129197512Y-97179868D01*
X129124526Y-97230973D01*
X129124526Y-97230974D01*
X129803553Y-97910000D01*
X129797339Y-97910000D01*
X129695606Y-97937259D01*
X129604394Y-97989920D01*
X129529920Y-98064394D01*
X129477259Y-98155606D01*
X129450000Y-98257339D01*
X129450000Y-98263552D01*
X128770974Y-97584526D01*
X128770973Y-97584526D01*
X128719868Y-97657512D01*
X128719866Y-97657516D01*
X128623734Y-97863673D01*
X128623730Y-97863682D01*
X128564860Y-98083389D01*
X128564858Y-98083400D01*
X128545034Y-98309997D01*
X126075468Y-98309997D01*
X126055635Y-98083308D01*
X125996739Y-97863504D01*
X125900568Y-97657266D01*
X125802839Y-97517693D01*
X125770045Y-97470858D01*
X125609141Y-97309954D01*
X125422734Y-97179432D01*
X125422732Y-97179431D01*
X125216497Y-97083261D01*
X125216488Y-97083258D01*
X124996697Y-97024366D01*
X124996693Y-97024365D01*
X124996692Y-97024365D01*
X124996691Y-97024364D01*
X124996686Y-97024364D01*
X124770002Y-97004532D01*
X124769998Y-97004532D01*
X124543313Y-97024364D01*
X124543302Y-97024366D01*
X124323511Y-97083258D01*
X124323502Y-97083261D01*
X124117267Y-97179431D01*
X124117265Y-97179432D01*
X123930858Y-97309954D01*
X123769954Y-97470858D01*
X123639432Y-97657265D01*
X123639431Y-97657267D01*
X123543261Y-97863502D01*
X123543258Y-97863511D01*
X123484366Y-98083302D01*
X123484364Y-98083313D01*
X123464532Y-98309998D01*
X122519720Y-98309998D01*
X122535468Y-98130000D01*
X122515635Y-97903308D01*
X122456739Y-97683504D01*
X122360568Y-97477266D01*
X122230047Y-97290861D01*
X122230045Y-97290858D01*
X122069141Y-97129954D01*
X121882734Y-96999432D01*
X121882728Y-96999429D01*
X121824725Y-96972382D01*
X121772285Y-96926210D01*
X121753133Y-96859017D01*
X121773348Y-96792135D01*
X121824725Y-96747618D01*
X121882734Y-96720568D01*
X122069139Y-96590047D01*
X122230047Y-96429139D01*
X122360568Y-96242734D01*
X122456739Y-96036496D01*
X122515635Y-95816692D01*
X122535468Y-95590000D01*
X122515635Y-95363308D01*
X122456739Y-95143504D01*
X122360568Y-94937266D01*
X122230047Y-94750861D01*
X122230045Y-94750858D01*
X122069141Y-94589954D01*
X121882734Y-94459432D01*
X121882728Y-94459429D01*
X121824725Y-94432382D01*
X121772285Y-94386210D01*
X121753133Y-94319017D01*
X121773348Y-94252135D01*
X121824725Y-94207618D01*
X121882734Y-94180568D01*
X122069139Y-94050047D01*
X122089189Y-94029997D01*
X127264723Y-94029997D01*
X127264723Y-94030002D01*
X127283793Y-94247975D01*
X127283793Y-94247979D01*
X127340422Y-94459322D01*
X127340424Y-94459326D01*
X127340425Y-94459330D01*
X127340473Y-94459432D01*
X127432897Y-94657638D01*
X127432898Y-94657639D01*
X127558402Y-94836877D01*
X127713123Y-94991598D01*
X127892361Y-95117102D01*
X128090670Y-95209575D01*
X128302023Y-95266207D01*
X128484926Y-95282208D01*
X128519998Y-95285277D01*
X128520000Y-95285277D01*
X128520002Y-95285277D01*
X128548254Y-95282805D01*
X128737977Y-95266207D01*
X128949330Y-95209575D01*
X129147639Y-95117102D01*
X129326877Y-94991598D01*
X129481598Y-94836877D01*
X129607102Y-94657639D01*
X129699575Y-94459330D01*
X129756207Y-94247977D01*
X129775277Y-94030000D01*
X129775277Y-94029997D01*
X132144723Y-94029997D01*
X132144723Y-94030002D01*
X132163793Y-94247975D01*
X132163793Y-94247979D01*
X132220422Y-94459322D01*
X132220424Y-94459326D01*
X132220425Y-94459330D01*
X132220473Y-94459432D01*
X132312897Y-94657638D01*
X132312898Y-94657639D01*
X132438402Y-94836877D01*
X132593123Y-94991598D01*
X132772361Y-95117102D01*
X132970670Y-95209575D01*
X133182023Y-95266207D01*
X133364926Y-95282208D01*
X133399998Y-95285277D01*
X133400000Y-95285277D01*
X133400002Y-95285277D01*
X133428254Y-95282805D01*
X133617977Y-95266207D01*
X133829330Y-95209575D01*
X134027639Y-95117102D01*
X134206877Y-94991598D01*
X134361598Y-94836877D01*
X134487102Y-94657639D01*
X134579575Y-94459330D01*
X134636207Y-94247977D01*
X134655277Y-94030000D01*
X134636207Y-93812023D01*
X134579575Y-93600670D01*
X134487102Y-93402362D01*
X134487100Y-93402359D01*
X134487099Y-93402357D01*
X134361599Y-93223124D01*
X134361596Y-93223121D01*
X134206877Y-93068402D01*
X134027639Y-92942898D01*
X134027640Y-92942898D01*
X134027638Y-92942897D01*
X133928484Y-92896661D01*
X133829330Y-92850425D01*
X133829326Y-92850424D01*
X133829322Y-92850422D01*
X133617977Y-92793793D01*
X133400002Y-92774723D01*
X133399998Y-92774723D01*
X133254682Y-92787436D01*
X133182023Y-92793793D01*
X133182020Y-92793793D01*
X132970677Y-92850422D01*
X132970668Y-92850426D01*
X132772361Y-92942898D01*
X132772357Y-92942900D01*
X132593121Y-93068402D01*
X132438402Y-93223121D01*
X132312900Y-93402357D01*
X132312898Y-93402361D01*
X132220426Y-93600668D01*
X132220422Y-93600677D01*
X132163793Y-93812020D01*
X132163793Y-93812024D01*
X132144723Y-94029997D01*
X129775277Y-94029997D01*
X129756207Y-93812023D01*
X129699575Y-93600670D01*
X129607102Y-93402362D01*
X129607100Y-93402359D01*
X129607099Y-93402357D01*
X129481599Y-93223124D01*
X129481596Y-93223121D01*
X129326877Y-93068402D01*
X129147639Y-92942898D01*
X129147640Y-92942898D01*
X129147638Y-92942897D01*
X129048484Y-92896661D01*
X128949330Y-92850425D01*
X128949326Y-92850424D01*
X128949322Y-92850422D01*
X128737977Y-92793793D01*
X128520002Y-92774723D01*
X128519998Y-92774723D01*
X128374682Y-92787436D01*
X128302023Y-92793793D01*
X128302020Y-92793793D01*
X128090677Y-92850422D01*
X128090668Y-92850426D01*
X127892361Y-92942898D01*
X127892357Y-92942900D01*
X127713121Y-93068402D01*
X127558402Y-93223121D01*
X127432900Y-93402357D01*
X127432898Y-93402361D01*
X127340426Y-93600668D01*
X127340422Y-93600677D01*
X127283793Y-93812020D01*
X127283793Y-93812024D01*
X127264723Y-94029997D01*
X122089189Y-94029997D01*
X122230047Y-93889139D01*
X122360568Y-93702734D01*
X122456739Y-93496496D01*
X122515635Y-93276692D01*
X122535468Y-93050000D01*
X122515635Y-92823308D01*
X122456739Y-92603504D01*
X122360568Y-92397266D01*
X122230047Y-92210861D01*
X122230045Y-92210858D01*
X122069141Y-92049954D01*
X121882734Y-91919432D01*
X121882728Y-91919429D01*
X121824725Y-91892382D01*
X121772285Y-91846210D01*
X121753133Y-91779017D01*
X121773348Y-91712135D01*
X121824725Y-91667618D01*
X121882734Y-91640568D01*
X122069139Y-91510047D01*
X122230047Y-91349139D01*
X122360568Y-91162734D01*
X122456739Y-90956496D01*
X122515635Y-90736692D01*
X122535468Y-90510000D01*
X122515635Y-90283308D01*
X122456739Y-90063504D01*
X122360568Y-89857266D01*
X122230047Y-89670861D01*
X122230045Y-89670858D01*
X122069141Y-89509954D01*
X121882734Y-89379432D01*
X121882728Y-89379429D01*
X121824725Y-89352382D01*
X121772285Y-89306210D01*
X121753133Y-89239017D01*
X121773348Y-89172135D01*
X121824725Y-89127618D01*
X121882734Y-89100568D01*
X122069139Y-88970047D01*
X122230047Y-88809139D01*
X122360568Y-88622734D01*
X122456739Y-88416496D01*
X122504288Y-88239038D01*
X124049500Y-88239038D01*
X124049500Y-88490962D01*
X124070371Y-88622734D01*
X124088910Y-88739785D01*
X124166760Y-88979383D01*
X124228507Y-89100567D01*
X124277509Y-89196739D01*
X124281132Y-89203848D01*
X124429201Y-89407649D01*
X124429205Y-89407654D01*
X124607345Y-89585794D01*
X124607350Y-89585798D01*
X124724426Y-89670858D01*
X124811155Y-89733870D01*
X124954184Y-89806747D01*
X125035616Y-89848239D01*
X125035618Y-89848239D01*
X125035621Y-89848241D01*
X125275215Y-89926090D01*
X125524038Y-89965500D01*
X125524039Y-89965500D01*
X125775961Y-89965500D01*
X125775962Y-89965500D01*
X126024785Y-89926090D01*
X126264379Y-89848241D01*
X126488845Y-89733870D01*
X126692656Y-89585793D01*
X126870793Y-89407656D01*
X127018870Y-89203845D01*
X127133241Y-88979379D01*
X127211090Y-88739785D01*
X127250500Y-88490962D01*
X127250500Y-88239038D01*
X127211090Y-87990215D01*
X127133241Y-87750621D01*
X127133239Y-87750618D01*
X127133239Y-87750616D01*
X127091131Y-87667975D01*
X127018870Y-87526155D01*
X126963538Y-87449997D01*
X126870798Y-87322350D01*
X126870794Y-87322345D01*
X126692654Y-87144205D01*
X126692649Y-87144201D01*
X126488848Y-86996132D01*
X126488847Y-86996131D01*
X126488845Y-86996130D01*
X126418747Y-86960413D01*
X126264383Y-86881760D01*
X126024785Y-86803910D01*
X125932302Y-86789262D01*
X125775962Y-86764500D01*
X125524038Y-86764500D01*
X125399626Y-86784205D01*
X125275214Y-86803910D01*
X125035616Y-86881760D01*
X124811151Y-86996132D01*
X124607350Y-87144201D01*
X124607345Y-87144205D01*
X124429205Y-87322345D01*
X124429201Y-87322350D01*
X124281132Y-87526151D01*
X124166760Y-87750616D01*
X124095479Y-87969998D01*
X124088910Y-87990215D01*
X124049500Y-88239038D01*
X122504288Y-88239038D01*
X122515635Y-88196692D01*
X122535468Y-87970000D01*
X122515635Y-87743308D01*
X122456739Y-87523504D01*
X122360568Y-87317266D01*
X122239392Y-87144207D01*
X122230045Y-87130858D01*
X122069141Y-86969954D01*
X121882734Y-86839432D01*
X121882728Y-86839429D01*
X121855038Y-86826517D01*
X121824724Y-86812381D01*
X121772285Y-86766210D01*
X121753133Y-86699017D01*
X121773348Y-86632135D01*
X121824725Y-86587618D01*
X121825319Y-86587341D01*
X121882734Y-86560568D01*
X122069139Y-86430047D01*
X122230047Y-86269139D01*
X122360568Y-86082734D01*
X122456739Y-85876496D01*
X122515635Y-85656692D01*
X122535468Y-85430000D01*
X122524969Y-85309998D01*
X122834532Y-85309998D01*
X122834532Y-85310001D01*
X122854364Y-85536686D01*
X122854366Y-85536697D01*
X122913258Y-85756488D01*
X122913261Y-85756497D01*
X123009431Y-85962732D01*
X123009432Y-85962734D01*
X123139954Y-86149141D01*
X123300858Y-86310045D01*
X123300861Y-86310047D01*
X123487266Y-86440568D01*
X123693504Y-86536739D01*
X123913308Y-86595635D01*
X124075230Y-86609801D01*
X124139998Y-86615468D01*
X124140000Y-86615468D01*
X124140002Y-86615468D01*
X124196673Y-86610509D01*
X124366692Y-86595635D01*
X124586496Y-86536739D01*
X124792734Y-86440568D01*
X124979139Y-86310047D01*
X125140047Y-86149139D01*
X125270568Y-85962734D01*
X125366739Y-85756496D01*
X125425635Y-85536692D01*
X125445468Y-85310000D01*
X125425635Y-85083308D01*
X125366739Y-84863504D01*
X125270568Y-84657266D01*
X125140047Y-84470861D01*
X125140045Y-84470858D01*
X124979141Y-84309954D01*
X124792734Y-84179432D01*
X124792732Y-84179431D01*
X124586497Y-84083261D01*
X124586488Y-84083258D01*
X124366697Y-84024366D01*
X124366693Y-84024365D01*
X124366692Y-84024365D01*
X124366691Y-84024364D01*
X124366686Y-84024364D01*
X124140002Y-84004532D01*
X124139998Y-84004532D01*
X123913313Y-84024364D01*
X123913302Y-84024366D01*
X123693511Y-84083258D01*
X123693502Y-84083261D01*
X123487267Y-84179431D01*
X123487265Y-84179432D01*
X123300858Y-84309954D01*
X123139954Y-84470858D01*
X123009432Y-84657265D01*
X123009431Y-84657267D01*
X122913261Y-84863502D01*
X122913258Y-84863511D01*
X122854366Y-85083302D01*
X122854364Y-85083313D01*
X122834532Y-85309998D01*
X122524969Y-85309998D01*
X122515635Y-85203308D01*
X122456739Y-84983504D01*
X122360568Y-84777266D01*
X122230047Y-84590861D01*
X122230045Y-84590858D01*
X122069141Y-84429954D01*
X121882734Y-84299432D01*
X121882732Y-84299431D01*
X121825315Y-84272657D01*
X121824132Y-84272105D01*
X121771694Y-84225934D01*
X121752542Y-84158740D01*
X121772758Y-84091859D01*
X121824134Y-84047341D01*
X121882484Y-84020132D01*
X122068820Y-83889657D01*
X122229657Y-83728820D01*
X122360134Y-83542482D01*
X122456265Y-83336326D01*
X122456269Y-83336317D01*
X122508872Y-83140000D01*
X121545686Y-83140000D01*
X121550080Y-83135606D01*
X121602741Y-83044394D01*
X121630000Y-82942661D01*
X121630000Y-82837339D01*
X121602741Y-82735606D01*
X121550080Y-82644394D01*
X121545686Y-82640000D01*
X122508872Y-82640000D01*
X122508872Y-82639999D01*
X122456269Y-82443682D01*
X122456265Y-82443673D01*
X122360134Y-82237517D01*
X122229657Y-82051179D01*
X122068820Y-81890342D01*
X121882482Y-81759865D01*
X121824133Y-81732657D01*
X121771694Y-81686484D01*
X121752542Y-81619291D01*
X121772758Y-81552410D01*
X121824129Y-81507895D01*
X121882734Y-81480568D01*
X122069139Y-81350047D01*
X122230047Y-81189139D01*
X122360568Y-81002734D01*
X122456739Y-80796496D01*
X122515635Y-80576692D01*
X122535468Y-80350000D01*
X122524969Y-80229997D01*
X122835034Y-80229997D01*
X122835034Y-80230002D01*
X122854858Y-80456599D01*
X122854860Y-80456610D01*
X122913730Y-80676317D01*
X122913735Y-80676331D01*
X123009863Y-80882478D01*
X123060974Y-80955472D01*
X123740000Y-80276446D01*
X123740000Y-80282661D01*
X123767259Y-80384394D01*
X123819920Y-80475606D01*
X123894394Y-80550080D01*
X123985606Y-80602741D01*
X124087339Y-80630000D01*
X124093553Y-80630000D01*
X123414526Y-81309025D01*
X123487513Y-81360132D01*
X123487521Y-81360136D01*
X123693668Y-81456264D01*
X123693682Y-81456269D01*
X123913389Y-81515139D01*
X123913400Y-81515141D01*
X124139998Y-81534966D01*
X124140002Y-81534966D01*
X124366599Y-81515141D01*
X124366610Y-81515139D01*
X124586317Y-81456269D01*
X124586331Y-81456264D01*
X124792478Y-81360136D01*
X124865471Y-81309024D01*
X124186447Y-80630000D01*
X124192661Y-80630000D01*
X124294394Y-80602741D01*
X124385606Y-80550080D01*
X124460080Y-80475606D01*
X124512741Y-80384394D01*
X124540000Y-80282661D01*
X124540000Y-80276447D01*
X125219024Y-80955471D01*
X125270136Y-80882478D01*
X125366264Y-80676331D01*
X125366269Y-80676317D01*
X125425139Y-80456610D01*
X125425141Y-80456599D01*
X125444966Y-80230002D01*
X125444966Y-80229997D01*
X125425141Y-80003400D01*
X125425139Y-80003389D01*
X125366269Y-79783682D01*
X125366264Y-79783668D01*
X125270136Y-79577521D01*
X125270132Y-79577513D01*
X125219025Y-79504526D01*
X124540000Y-80183551D01*
X124540000Y-80177339D01*
X124512741Y-80075606D01*
X124460080Y-79984394D01*
X124385606Y-79909920D01*
X124294394Y-79857259D01*
X124192661Y-79830000D01*
X124186448Y-79830000D01*
X124676449Y-79339998D01*
X125554532Y-79339998D01*
X125554532Y-79340001D01*
X125574364Y-79566686D01*
X125574366Y-79566697D01*
X125633258Y-79786488D01*
X125633261Y-79786497D01*
X125729431Y-79992732D01*
X125729432Y-79992734D01*
X125859954Y-80179141D01*
X126003132Y-80322319D01*
X126036617Y-80383642D01*
X126031633Y-80453334D01*
X126003132Y-80497681D01*
X125859954Y-80640858D01*
X125729432Y-80827265D01*
X125729431Y-80827267D01*
X125633261Y-81033502D01*
X125633258Y-81033511D01*
X125574366Y-81253302D01*
X125574364Y-81253313D01*
X125554532Y-81479998D01*
X125554532Y-81480001D01*
X125574364Y-81706686D01*
X125574366Y-81706697D01*
X125633258Y-81926488D01*
X125633261Y-81926497D01*
X125729431Y-82132732D01*
X125729432Y-82132734D01*
X125859954Y-82319141D01*
X126020858Y-82480045D01*
X126020861Y-82480047D01*
X126207266Y-82610568D01*
X126413504Y-82706739D01*
X126633308Y-82765635D01*
X126795230Y-82779801D01*
X126859998Y-82785468D01*
X126860000Y-82785468D01*
X126860002Y-82785468D01*
X126916673Y-82780509D01*
X127086692Y-82765635D01*
X127306496Y-82706739D01*
X127512734Y-82610568D01*
X127699139Y-82480047D01*
X127860047Y-82319139D01*
X127990568Y-82132734D01*
X128086739Y-81926496D01*
X128145635Y-81706692D01*
X128165418Y-81480567D01*
X128165468Y-81480001D01*
X128165468Y-81479998D01*
X128154981Y-81360132D01*
X128145635Y-81253308D01*
X128086739Y-81033504D01*
X127990568Y-80827266D01*
X127860047Y-80640861D01*
X127860045Y-80640858D01*
X127716868Y-80497681D01*
X127683383Y-80436358D01*
X127688367Y-80366666D01*
X127716868Y-80322319D01*
X127860045Y-80179141D01*
X127860047Y-80179139D01*
X127920098Y-80093377D01*
X127974675Y-80049752D01*
X128021673Y-80040500D01*
X131988481Y-80040500D01*
X132055520Y-80060185D01*
X132076162Y-80076819D01*
X132343181Y-80343838D01*
X132376666Y-80405161D01*
X132379500Y-80431519D01*
X132379500Y-85461006D01*
X132379500Y-85598994D01*
X132379500Y-85598996D01*
X132379499Y-85598996D01*
X132406418Y-85734322D01*
X132406421Y-85734332D01*
X132459222Y-85861807D01*
X132535887Y-85976545D01*
X132542384Y-85983042D01*
X132575869Y-86044365D01*
X132570885Y-86114057D01*
X132529013Y-86169990D01*
X132465347Y-86193736D01*
X132465393Y-86194251D01*
X132332151Y-86205908D01*
X132242023Y-86213793D01*
X132242020Y-86213793D01*
X132030677Y-86270422D01*
X132030668Y-86270426D01*
X131832361Y-86362898D01*
X131832357Y-86362900D01*
X131653121Y-86488402D01*
X131498402Y-86643121D01*
X131396074Y-86789262D01*
X131341497Y-86832887D01*
X131271999Y-86840081D01*
X131209644Y-86808558D01*
X131174230Y-86748328D01*
X131170499Y-86718139D01*
X131170499Y-86652129D01*
X131170498Y-86652123D01*
X131170497Y-86652116D01*
X131164091Y-86592517D01*
X131162160Y-86587341D01*
X131113797Y-86457671D01*
X131113793Y-86457664D01*
X131027547Y-86342455D01*
X131027544Y-86342452D01*
X130912335Y-86256206D01*
X130912328Y-86256202D01*
X130777482Y-86205908D01*
X130777483Y-86205908D01*
X130717883Y-86199501D01*
X130717881Y-86199500D01*
X130717873Y-86199500D01*
X130717864Y-86199500D01*
X129122129Y-86199500D01*
X129122123Y-86199501D01*
X129062516Y-86205908D01*
X128927671Y-86256202D01*
X128927664Y-86256206D01*
X128812455Y-86342452D01*
X128812452Y-86342455D01*
X128726206Y-86457664D01*
X128726202Y-86457671D01*
X128675908Y-86592517D01*
X128673441Y-86615468D01*
X128669501Y-86652123D01*
X128669500Y-86652135D01*
X128669500Y-88247870D01*
X128669501Y-88247876D01*
X128675908Y-88307483D01*
X128726202Y-88442328D01*
X128726206Y-88442335D01*
X128812452Y-88557544D01*
X128812455Y-88557547D01*
X128927664Y-88643793D01*
X128927671Y-88643797D01*
X129062517Y-88694091D01*
X129062516Y-88694091D01*
X129069444Y-88694835D01*
X129122127Y-88700500D01*
X130717872Y-88700499D01*
X130777483Y-88694091D01*
X130912331Y-88643796D01*
X131027546Y-88557546D01*
X131113796Y-88442331D01*
X131164091Y-88307483D01*
X131170500Y-88247873D01*
X131170499Y-88181860D01*
X131190183Y-88114824D01*
X131242986Y-88069068D01*
X131312144Y-88059124D01*
X131375700Y-88088148D01*
X131396073Y-88110738D01*
X131456263Y-88196697D01*
X131498402Y-88256877D01*
X131653123Y-88411598D01*
X131832361Y-88537102D01*
X132030670Y-88629575D01*
X132242023Y-88686207D01*
X132424926Y-88702208D01*
X132459998Y-88705277D01*
X132460000Y-88705277D01*
X132460002Y-88705277D01*
X132488254Y-88702805D01*
X132677977Y-88686207D01*
X132889330Y-88629575D01*
X133087639Y-88537102D01*
X133266877Y-88411598D01*
X133421598Y-88256877D01*
X133547102Y-88077639D01*
X133617618Y-87926414D01*
X133663790Y-87873977D01*
X133730984Y-87854825D01*
X133797865Y-87875041D01*
X133842381Y-87926414D01*
X133912898Y-88077639D01*
X134038402Y-88256877D01*
X134193123Y-88411598D01*
X134372361Y-88537102D01*
X134570670Y-88629575D01*
X134782023Y-88686207D01*
X134964926Y-88702208D01*
X134999998Y-88705277D01*
X135000000Y-88705277D01*
X135000002Y-88705277D01*
X135028254Y-88702805D01*
X135217977Y-88686207D01*
X135429330Y-88629575D01*
X135627639Y-88537102D01*
X135806877Y-88411598D01*
X135961598Y-88256877D01*
X136087102Y-88077639D01*
X136179575Y-87879330D01*
X136236207Y-87667977D01*
X136255277Y-87450000D01*
X136236207Y-87232023D01*
X136179575Y-87020670D01*
X136087102Y-86822362D01*
X136087100Y-86822359D01*
X136087099Y-86822357D01*
X135961599Y-86643124D01*
X135905816Y-86587341D01*
X135806877Y-86488402D01*
X135627639Y-86362898D01*
X135627640Y-86362898D01*
X135627638Y-86362897D01*
X135528484Y-86316661D01*
X135429330Y-86270425D01*
X135429326Y-86270424D01*
X135429322Y-86270422D01*
X135217977Y-86213793D01*
X135000002Y-86194723D01*
X134999998Y-86194723D01*
X134905941Y-86202951D01*
X134814269Y-86210971D01*
X134745770Y-86197205D01*
X134715782Y-86175125D01*
X133816819Y-85276162D01*
X133783334Y-85214839D01*
X133780500Y-85188481D01*
X133780500Y-82783402D01*
X133800185Y-82716363D01*
X133852989Y-82670608D01*
X133922147Y-82660664D01*
X133956904Y-82671019D01*
X134033504Y-82706739D01*
X134253308Y-82765635D01*
X134415230Y-82779801D01*
X134479998Y-82785468D01*
X134480000Y-82785468D01*
X134480002Y-82785468D01*
X134536673Y-82780509D01*
X134706692Y-82765635D01*
X134926496Y-82706739D01*
X135132734Y-82610568D01*
X135319139Y-82480047D01*
X135480047Y-82319139D01*
X135610568Y-82132734D01*
X135706739Y-81926496D01*
X135765635Y-81706692D01*
X135785418Y-81480567D01*
X135785468Y-81480001D01*
X135785468Y-81479998D01*
X135774981Y-81360132D01*
X135765635Y-81253308D01*
X135706739Y-81033504D01*
X135610568Y-80827266D01*
X135480047Y-80640861D01*
X135480045Y-80640858D01*
X135319141Y-80479954D01*
X135152109Y-80362998D01*
X135135551Y-80349104D01*
X134526447Y-79740000D01*
X134532661Y-79740000D01*
X134634394Y-79712741D01*
X134725606Y-79660080D01*
X134800080Y-79585606D01*
X134852741Y-79494394D01*
X134880000Y-79392661D01*
X134880000Y-79386447D01*
X135559024Y-80065471D01*
X135610136Y-79992478D01*
X135706264Y-79786331D01*
X135706269Y-79786317D01*
X135765139Y-79566610D01*
X135765141Y-79566599D01*
X135784966Y-79340002D01*
X135784966Y-79339997D01*
X135765141Y-79113400D01*
X135765139Y-79113389D01*
X135706269Y-78893682D01*
X135706264Y-78893668D01*
X135610136Y-78687521D01*
X135610132Y-78687513D01*
X135559025Y-78614526D01*
X134880000Y-79293551D01*
X134880000Y-79287339D01*
X134852741Y-79185606D01*
X134800080Y-79094394D01*
X134725606Y-79019920D01*
X134634394Y-78967259D01*
X134532661Y-78940000D01*
X134526448Y-78940000D01*
X135205472Y-78260974D01*
X135132478Y-78209863D01*
X134926331Y-78113735D01*
X134926317Y-78113730D01*
X134706610Y-78054860D01*
X134706599Y-78054858D01*
X134480002Y-78035034D01*
X134479998Y-78035034D01*
X134253400Y-78054858D01*
X134253389Y-78054860D01*
X134033682Y-78113730D01*
X134033673Y-78113734D01*
X133827516Y-78209866D01*
X133827512Y-78209868D01*
X133754526Y-78260973D01*
X133754526Y-78260974D01*
X134433553Y-78940000D01*
X134427339Y-78940000D01*
X134325606Y-78967259D01*
X134234394Y-79019920D01*
X134159920Y-79094394D01*
X134107259Y-79185606D01*
X134080000Y-79287339D01*
X134080000Y-79293552D01*
X133400974Y-78614526D01*
X133400973Y-78614526D01*
X133349868Y-78687512D01*
X133349866Y-78687516D01*
X133253734Y-78893673D01*
X133253731Y-78893680D01*
X133229143Y-78985443D01*
X133192777Y-79045104D01*
X133129930Y-79075632D01*
X133060555Y-79067337D01*
X133021687Y-79041030D01*
X132776546Y-78795888D01*
X132776545Y-78795887D01*
X132661807Y-78719222D01*
X132534332Y-78666421D01*
X132534322Y-78666418D01*
X132398996Y-78639500D01*
X132398994Y-78639500D01*
X132398993Y-78639500D01*
X128021673Y-78639500D01*
X127954634Y-78619815D01*
X127920098Y-78586623D01*
X127860045Y-78500858D01*
X127699141Y-78339954D01*
X127512734Y-78209432D01*
X127512732Y-78209431D01*
X127306497Y-78113261D01*
X127306488Y-78113258D01*
X127086697Y-78054366D01*
X127086693Y-78054365D01*
X127086692Y-78054365D01*
X127086691Y-78054364D01*
X127086686Y-78054364D01*
X126860002Y-78034532D01*
X126859998Y-78034532D01*
X126633313Y-78054364D01*
X126633302Y-78054366D01*
X126413511Y-78113258D01*
X126413502Y-78113261D01*
X126207267Y-78209431D01*
X126207265Y-78209432D01*
X126020858Y-78339954D01*
X125859954Y-78500858D01*
X125729432Y-78687265D01*
X125729431Y-78687267D01*
X125633261Y-78893502D01*
X125633258Y-78893511D01*
X125574366Y-79113302D01*
X125574364Y-79113313D01*
X125554532Y-79339998D01*
X124676449Y-79339998D01*
X124865472Y-79150974D01*
X124792478Y-79099863D01*
X124586331Y-79003735D01*
X124586317Y-79003730D01*
X124366610Y-78944860D01*
X124366599Y-78944858D01*
X124140002Y-78925034D01*
X124139998Y-78925034D01*
X123913400Y-78944858D01*
X123913389Y-78944860D01*
X123693682Y-79003730D01*
X123693673Y-79003734D01*
X123487516Y-79099866D01*
X123487512Y-79099868D01*
X123414526Y-79150973D01*
X123414526Y-79150974D01*
X124093553Y-79830000D01*
X124087339Y-79830000D01*
X123985606Y-79857259D01*
X123894394Y-79909920D01*
X123819920Y-79984394D01*
X123767259Y-80075606D01*
X123740000Y-80177339D01*
X123740000Y-80183552D01*
X123060974Y-79504526D01*
X123060973Y-79504526D01*
X123009868Y-79577512D01*
X123009866Y-79577516D01*
X122913734Y-79783673D01*
X122913730Y-79783682D01*
X122854860Y-80003389D01*
X122854858Y-80003400D01*
X122835034Y-80229997D01*
X122524969Y-80229997D01*
X122515635Y-80123308D01*
X122456739Y-79903504D01*
X122360568Y-79697266D01*
X122230047Y-79510861D01*
X122230045Y-79510858D01*
X122069141Y-79349954D01*
X121882734Y-79219432D01*
X121882728Y-79219429D01*
X121824725Y-79192382D01*
X121772285Y-79146210D01*
X121753133Y-79079017D01*
X121773348Y-79012135D01*
X121824725Y-78967618D01*
X121825495Y-78967259D01*
X121882734Y-78940568D01*
X122069139Y-78810047D01*
X122230047Y-78649139D01*
X122360568Y-78462734D01*
X122456739Y-78256496D01*
X122515635Y-78036692D01*
X122535468Y-77810000D01*
X122515635Y-77583308D01*
X122456739Y-77363504D01*
X122360568Y-77157266D01*
X122230047Y-76970861D01*
X122230045Y-76970858D01*
X122069141Y-76809954D01*
X121882734Y-76679432D01*
X121882728Y-76679429D01*
X121824725Y-76652382D01*
X121772285Y-76606210D01*
X121764814Y-76579998D01*
X122664532Y-76579998D01*
X122664532Y-76580001D01*
X122684364Y-76806686D01*
X122684366Y-76806697D01*
X122743258Y-77026488D01*
X122743261Y-77026497D01*
X122839431Y-77232732D01*
X122839432Y-77232734D01*
X122969954Y-77419141D01*
X123130858Y-77580045D01*
X123130861Y-77580047D01*
X123317266Y-77710568D01*
X123523504Y-77806739D01*
X123523509Y-77806740D01*
X123523511Y-77806741D01*
X123535674Y-77810000D01*
X123743308Y-77865635D01*
X123905230Y-77879801D01*
X123969998Y-77885468D01*
X123970000Y-77885468D01*
X123970002Y-77885468D01*
X124026673Y-77880509D01*
X124196692Y-77865635D01*
X124416496Y-77806739D01*
X124622734Y-77710568D01*
X124809139Y-77580047D01*
X124970047Y-77419139D01*
X125100568Y-77232734D01*
X125196739Y-77026496D01*
X125255635Y-76806692D01*
X125275468Y-76580000D01*
X125271968Y-76540000D01*
X125259770Y-76400570D01*
X125255635Y-76353308D01*
X125196739Y-76133504D01*
X125100568Y-75927266D01*
X124970047Y-75740861D01*
X124970045Y-75740858D01*
X124809141Y-75579954D01*
X124622734Y-75449432D01*
X124622732Y-75449431D01*
X124416497Y-75353261D01*
X124416488Y-75353258D01*
X124196697Y-75294366D01*
X124196693Y-75294365D01*
X124196692Y-75294365D01*
X124196691Y-75294364D01*
X124196686Y-75294364D01*
X123970002Y-75274532D01*
X123969998Y-75274532D01*
X123743313Y-75294364D01*
X123743302Y-75294366D01*
X123523511Y-75353258D01*
X123523502Y-75353261D01*
X123317267Y-75449431D01*
X123317265Y-75449432D01*
X123130858Y-75579954D01*
X122969954Y-75740858D01*
X122839432Y-75927265D01*
X122839431Y-75927267D01*
X122743261Y-76133502D01*
X122743258Y-76133511D01*
X122684366Y-76353302D01*
X122684364Y-76353313D01*
X122664532Y-76579998D01*
X121764814Y-76579998D01*
X121753133Y-76539017D01*
X121773348Y-76472135D01*
X121824725Y-76427618D01*
X121882734Y-76400568D01*
X122069139Y-76270047D01*
X122230047Y-76109139D01*
X122360568Y-75922734D01*
X122456739Y-75716496D01*
X122515635Y-75496692D01*
X122535468Y-75270000D01*
X122515635Y-75043308D01*
X122456739Y-74823504D01*
X122360568Y-74617266D01*
X122230047Y-74430861D01*
X122230045Y-74430858D01*
X122069141Y-74269954D01*
X121882734Y-74139432D01*
X121882728Y-74139429D01*
X121824725Y-74112382D01*
X121772285Y-74066210D01*
X121753133Y-73999017D01*
X121773348Y-73932135D01*
X121824725Y-73887618D01*
X121882734Y-73860568D01*
X122069139Y-73730047D01*
X122230047Y-73569139D01*
X122360568Y-73382734D01*
X122456739Y-73176496D01*
X122515635Y-72956692D01*
X122535468Y-72730000D01*
X122515635Y-72503308D01*
X122456739Y-72283504D01*
X122360568Y-72077266D01*
X122230047Y-71890861D01*
X122230045Y-71890858D01*
X122069141Y-71729954D01*
X121882734Y-71599432D01*
X121882728Y-71599429D01*
X121824725Y-71572382D01*
X121772285Y-71526210D01*
X121753133Y-71459017D01*
X121773348Y-71392135D01*
X121824725Y-71347618D01*
X121882734Y-71320568D01*
X122069139Y-71190047D01*
X122230047Y-71029139D01*
X122360568Y-70842734D01*
X122456739Y-70636496D01*
X122515635Y-70416692D01*
X122535468Y-70190000D01*
X122515635Y-69963308D01*
X122476323Y-69816592D01*
X122477986Y-69746743D01*
X122517149Y-69688881D01*
X122581377Y-69661377D01*
X122596098Y-69660500D01*
X122808327Y-69660500D01*
X122875366Y-69680185D01*
X122909902Y-69713377D01*
X122969954Y-69799141D01*
X123130858Y-69960045D01*
X123130861Y-69960047D01*
X123317266Y-70090568D01*
X123523504Y-70186739D01*
X123523509Y-70186740D01*
X123523511Y-70186741D01*
X123535674Y-70190000D01*
X123743308Y-70245635D01*
X123905230Y-70259801D01*
X123969998Y-70265468D01*
X123970000Y-70265468D01*
X123970002Y-70265468D01*
X124026673Y-70260509D01*
X124196692Y-70245635D01*
X124416496Y-70186739D01*
X124622734Y-70090568D01*
X124809139Y-69960047D01*
X124937051Y-69832135D01*
X127739500Y-69832135D01*
X127739501Y-71527865D01*
X127739501Y-71527876D01*
X127745908Y-71587483D01*
X127796202Y-71722328D01*
X127796206Y-71722335D01*
X127882452Y-71837544D01*
X127882455Y-71837547D01*
X127997664Y-71923793D01*
X127997671Y-71923797D01*
X128132517Y-71974091D01*
X128132516Y-71974091D01*
X128139444Y-71974835D01*
X128192127Y-71980500D01*
X129887872Y-71980499D01*
X129947483Y-71974091D01*
X130082331Y-71923796D01*
X130197546Y-71837546D01*
X130283796Y-71722331D01*
X130334091Y-71587483D01*
X130340500Y-71527873D01*
X130340499Y-70679998D01*
X134234532Y-70679998D01*
X134234532Y-70680001D01*
X134254364Y-70906686D01*
X134254366Y-70906697D01*
X134313258Y-71126488D01*
X134313261Y-71126497D01*
X134409431Y-71332732D01*
X134409432Y-71332734D01*
X134539954Y-71519141D01*
X134700858Y-71680045D01*
X134700861Y-71680047D01*
X134887266Y-71810568D01*
X135093504Y-71906739D01*
X135313308Y-71965635D01*
X135475230Y-71979801D01*
X135539998Y-71985468D01*
X135540000Y-71985468D01*
X135540002Y-71985468D01*
X135596807Y-71980498D01*
X135766692Y-71965635D01*
X135986496Y-71906739D01*
X136192734Y-71810568D01*
X136379139Y-71680047D01*
X136540047Y-71519139D01*
X136670568Y-71332734D01*
X136766739Y-71126496D01*
X136825635Y-70906692D01*
X136845468Y-70680000D01*
X136825635Y-70453308D01*
X136775304Y-70265468D01*
X136766741Y-70233511D01*
X136766738Y-70233502D01*
X136746453Y-70190001D01*
X136670568Y-70027266D01*
X136540047Y-69840861D01*
X136540045Y-69840858D01*
X136379141Y-69679954D01*
X136192734Y-69549432D01*
X136192732Y-69549431D01*
X135986497Y-69453261D01*
X135986488Y-69453258D01*
X135766697Y-69394366D01*
X135766693Y-69394365D01*
X135766692Y-69394365D01*
X135766691Y-69394364D01*
X135766686Y-69394364D01*
X135540002Y-69374532D01*
X135539998Y-69374532D01*
X135313313Y-69394364D01*
X135313302Y-69394366D01*
X135093511Y-69453258D01*
X135093502Y-69453261D01*
X134887267Y-69549431D01*
X134887265Y-69549432D01*
X134700858Y-69679954D01*
X134539954Y-69840858D01*
X134409432Y-70027265D01*
X134409431Y-70027267D01*
X134313261Y-70233502D01*
X134313258Y-70233511D01*
X134254366Y-70453302D01*
X134254364Y-70453313D01*
X134234532Y-70679998D01*
X130340499Y-70679998D01*
X130340499Y-69832128D01*
X130334091Y-69772517D01*
X130323272Y-69743511D01*
X130283797Y-69637671D01*
X130283793Y-69637664D01*
X130197547Y-69522455D01*
X130197544Y-69522452D01*
X130082335Y-69436206D01*
X130082328Y-69436202D01*
X129947482Y-69385908D01*
X129947483Y-69385908D01*
X129887883Y-69379501D01*
X129887881Y-69379500D01*
X129887873Y-69379500D01*
X129887864Y-69379500D01*
X128192129Y-69379500D01*
X128192123Y-69379501D01*
X128132516Y-69385908D01*
X127997671Y-69436202D01*
X127997664Y-69436206D01*
X127882455Y-69522452D01*
X127882452Y-69522455D01*
X127796206Y-69637664D01*
X127796202Y-69637671D01*
X127745908Y-69772517D01*
X127741170Y-69816593D01*
X127739501Y-69832123D01*
X127739500Y-69832135D01*
X124937051Y-69832135D01*
X124970047Y-69799139D01*
X125100568Y-69612734D01*
X125196739Y-69406496D01*
X125255635Y-69186692D01*
X125275468Y-68960000D01*
X125255635Y-68733308D01*
X125196739Y-68513504D01*
X125100568Y-68307266D01*
X124970047Y-68120861D01*
X124970045Y-68120858D01*
X124809141Y-67959954D01*
X124622734Y-67829432D01*
X124622732Y-67829431D01*
X124416497Y-67733261D01*
X124416488Y-67733258D01*
X124196697Y-67674366D01*
X124196693Y-67674365D01*
X124196692Y-67674365D01*
X124196691Y-67674364D01*
X124196686Y-67674364D01*
X123970002Y-67654532D01*
X123969998Y-67654532D01*
X123743313Y-67674364D01*
X123743302Y-67674366D01*
X123523511Y-67733258D01*
X123523502Y-67733261D01*
X123317267Y-67829431D01*
X123317265Y-67829432D01*
X123130858Y-67959954D01*
X122969954Y-68120858D01*
X122909902Y-68206623D01*
X122855325Y-68250248D01*
X122808327Y-68259500D01*
X122574501Y-68259500D01*
X122507462Y-68239815D01*
X122461707Y-68187011D01*
X122451763Y-68117853D01*
X122455782Y-68101845D01*
X122455338Y-68101726D01*
X122476880Y-68021326D01*
X122515635Y-67876692D01*
X122535468Y-67650000D01*
X122515635Y-67423308D01*
X122456739Y-67203504D01*
X122360568Y-66997266D01*
X122230047Y-66810861D01*
X122230045Y-66810858D01*
X122069141Y-66649954D01*
X121882734Y-66519432D01*
X121882732Y-66519431D01*
X121676497Y-66423261D01*
X121676488Y-66423258D01*
X121456697Y-66364366D01*
X121456693Y-66364365D01*
X121456692Y-66364365D01*
X121456691Y-66364364D01*
X121456686Y-66364364D01*
X121230002Y-66344532D01*
X121229998Y-66344532D01*
X121003313Y-66364364D01*
X121003302Y-66364366D01*
X120783511Y-66423258D01*
X120783502Y-66423261D01*
X120577267Y-66519431D01*
X120577265Y-66519432D01*
X120390858Y-66649954D01*
X120229954Y-66810858D01*
X120169902Y-66896623D01*
X120115325Y-66940248D01*
X120068327Y-66949500D01*
X117536258Y-66949500D01*
X117469219Y-66929815D01*
X117444109Y-66908473D01*
X117415871Y-66877112D01*
X117415864Y-66877106D01*
X117262734Y-66765851D01*
X117262729Y-66765848D01*
X117089807Y-66688857D01*
X117089802Y-66688855D01*
X116944001Y-66657865D01*
X116904646Y-66649500D01*
X116715354Y-66649500D01*
X116682897Y-66656398D01*
X116530197Y-66688855D01*
X116530192Y-66688857D01*
X116357270Y-66765848D01*
X116357265Y-66765851D01*
X116204129Y-66877111D01*
X116077466Y-67017785D01*
X115982821Y-67181715D01*
X115982818Y-67181722D01*
X115924327Y-67361740D01*
X115924326Y-67361744D01*
X115904540Y-67550000D01*
X115924326Y-67738256D01*
X115924327Y-67738259D01*
X115982818Y-67918277D01*
X115982821Y-67918284D01*
X116006814Y-67959842D01*
X116072435Y-68073500D01*
X116088908Y-68141400D01*
X116066055Y-68207427D01*
X116011134Y-68250618D01*
X115965048Y-68259500D01*
X115271519Y-68259500D01*
X115204480Y-68239815D01*
X115183838Y-68223181D01*
X114956818Y-67996161D01*
X114923333Y-67934838D01*
X114920499Y-67908480D01*
X114920499Y-66802129D01*
X114920498Y-66802123D01*
X114920497Y-66802116D01*
X114914091Y-66742517D01*
X114894076Y-66688855D01*
X114863797Y-66607671D01*
X114863793Y-66607664D01*
X114777547Y-66492455D01*
X114777544Y-66492452D01*
X114662335Y-66406206D01*
X114662328Y-66406202D01*
X114527482Y-66355908D01*
X114527483Y-66355908D01*
X114467883Y-66349501D01*
X114467881Y-66349500D01*
X114467873Y-66349500D01*
X114467864Y-66349500D01*
X112772129Y-66349500D01*
X112772123Y-66349501D01*
X112712516Y-66355908D01*
X112577671Y-66406202D01*
X112577664Y-66406206D01*
X112462455Y-66492452D01*
X112462452Y-66492455D01*
X112376206Y-66607664D01*
X112376202Y-66607671D01*
X112325908Y-66742517D01*
X112323400Y-66765849D01*
X112319501Y-66802123D01*
X112319500Y-66802135D01*
X112319500Y-68497870D01*
X112319501Y-68497876D01*
X112325908Y-68557483D01*
X112376202Y-68692328D01*
X112376206Y-68692335D01*
X112462452Y-68807544D01*
X112462455Y-68807547D01*
X112577664Y-68893793D01*
X112577671Y-68893797D01*
X112622618Y-68910561D01*
X112712517Y-68944091D01*
X112747596Y-68947862D01*
X112812144Y-68974599D01*
X112851993Y-69031991D01*
X112854488Y-69101816D01*
X112818836Y-69161905D01*
X112805464Y-69172725D01*
X112780858Y-69189954D01*
X112619954Y-69350858D01*
X112489432Y-69537265D01*
X112489431Y-69537267D01*
X112393261Y-69743502D01*
X112393258Y-69743511D01*
X112334366Y-69963302D01*
X112334364Y-69963313D01*
X112314532Y-70189998D01*
X111925000Y-70189998D01*
X111925000Y-54729999D01*
X113084341Y-54729999D01*
X113084341Y-54730000D01*
X113104936Y-54965403D01*
X113104938Y-54965413D01*
X113166094Y-55193655D01*
X113166096Y-55193659D01*
X113166097Y-55193663D01*
X113212294Y-55292732D01*
X113265965Y-55407830D01*
X113265967Y-55407834D01*
X113401501Y-55601395D01*
X113401506Y-55601402D01*
X113568597Y-55768493D01*
X113568603Y-55768498D01*
X113754158Y-55898425D01*
X113797783Y-55953002D01*
X113804977Y-56022500D01*
X113773454Y-56084855D01*
X113754158Y-56101575D01*
X113568597Y-56231505D01*
X113401505Y-56398597D01*
X113265965Y-56592169D01*
X113265964Y-56592171D01*
X113166098Y-56806335D01*
X113166094Y-56806344D01*
X113104938Y-57034586D01*
X113104936Y-57034596D01*
X113084341Y-57269999D01*
X113084341Y-57270000D01*
X113104936Y-57505403D01*
X113104938Y-57505413D01*
X113166094Y-57733655D01*
X113166096Y-57733659D01*
X113166097Y-57733663D01*
X113243640Y-57899953D01*
X113265965Y-57947830D01*
X113265967Y-57947834D01*
X113314639Y-58017344D01*
X113398159Y-58136623D01*
X113401501Y-58141395D01*
X113401506Y-58141402D01*
X113568597Y-58308493D01*
X113568603Y-58308498D01*
X113754594Y-58438730D01*
X113798219Y-58493307D01*
X113805413Y-58562805D01*
X113773890Y-58625160D01*
X113754595Y-58641880D01*
X113568922Y-58771890D01*
X113568920Y-58771891D01*
X113401891Y-58938920D01*
X113401886Y-58938926D01*
X113266400Y-59132420D01*
X113266399Y-59132422D01*
X113166570Y-59346507D01*
X113166567Y-59346513D01*
X113109364Y-59559999D01*
X113109364Y-59560000D01*
X114006988Y-59560000D01*
X113974075Y-59617007D01*
X113940000Y-59744174D01*
X113940000Y-59875826D01*
X113974075Y-60002993D01*
X114006988Y-60060000D01*
X113109364Y-60060000D01*
X113166567Y-60273486D01*
X113166570Y-60273492D01*
X113266399Y-60487578D01*
X113401894Y-60681082D01*
X113523946Y-60803134D01*
X113557431Y-60864457D01*
X113552447Y-60934149D01*
X113510575Y-60990082D01*
X113479598Y-61006997D01*
X113347671Y-61056202D01*
X113347664Y-61056206D01*
X113232455Y-61142452D01*
X113232452Y-61142455D01*
X113146206Y-61257664D01*
X113146202Y-61257671D01*
X113095908Y-61392517D01*
X113089501Y-61452116D01*
X113089500Y-61452135D01*
X113089500Y-63247870D01*
X113089501Y-63247876D01*
X113095908Y-63307483D01*
X113146202Y-63442328D01*
X113146206Y-63442335D01*
X113232452Y-63557544D01*
X113232455Y-63557547D01*
X113347664Y-63643793D01*
X113347671Y-63643797D01*
X113482517Y-63694091D01*
X113482516Y-63694091D01*
X113489444Y-63694835D01*
X113542127Y-63700500D01*
X115337872Y-63700499D01*
X115397483Y-63694091D01*
X115532331Y-63643796D01*
X115647546Y-63557546D01*
X115733796Y-63442331D01*
X115784091Y-63307483D01*
X115789062Y-63261242D01*
X115815799Y-63196694D01*
X115873191Y-63156846D01*
X115912351Y-63150500D01*
X120371036Y-63150500D01*
X120438075Y-63170185D01*
X120483830Y-63222989D01*
X120494326Y-63261246D01*
X120500909Y-63322483D01*
X120551202Y-63457328D01*
X120551206Y-63457335D01*
X120637452Y-63572544D01*
X120637455Y-63572547D01*
X120752664Y-63658793D01*
X120752671Y-63658797D01*
X120887517Y-63709091D01*
X120887516Y-63709091D01*
X120894444Y-63709835D01*
X120947127Y-63715500D01*
X122742872Y-63715499D01*
X122802483Y-63709091D01*
X122937331Y-63658796D01*
X123052546Y-63572546D01*
X123138796Y-63457331D01*
X123187810Y-63325916D01*
X123229681Y-63269984D01*
X123295145Y-63245566D01*
X123363418Y-63260417D01*
X123391673Y-63281569D01*
X123513599Y-63403495D01*
X123610384Y-63471265D01*
X123707165Y-63539032D01*
X123707167Y-63539033D01*
X123707170Y-63539035D01*
X123921337Y-63638903D01*
X124149592Y-63700063D01*
X124326034Y-63715500D01*
X124384999Y-63720659D01*
X124385000Y-63720659D01*
X124385001Y-63720659D01*
X124443966Y-63715500D01*
X124620408Y-63700063D01*
X124848663Y-63638903D01*
X125062830Y-63539035D01*
X125256401Y-63403495D01*
X125423495Y-63236401D01*
X125553425Y-63050842D01*
X125608002Y-63007217D01*
X125677500Y-63000023D01*
X125739855Y-63031546D01*
X125756575Y-63050842D01*
X125886281Y-63236082D01*
X125886505Y-63236401D01*
X126053599Y-63403495D01*
X126150384Y-63471265D01*
X126247165Y-63539032D01*
X126247167Y-63539033D01*
X126247170Y-63539035D01*
X126461337Y-63638903D01*
X126689592Y-63700063D01*
X126866034Y-63715500D01*
X126924999Y-63720659D01*
X126925000Y-63720659D01*
X126925001Y-63720659D01*
X126983966Y-63715500D01*
X127160408Y-63700063D01*
X127388663Y-63638903D01*
X127602830Y-63539035D01*
X127796401Y-63403495D01*
X127963495Y-63236401D01*
X128093730Y-63050405D01*
X128148307Y-63006781D01*
X128217805Y-62999587D01*
X128280160Y-63031110D01*
X128296879Y-63050405D01*
X128426890Y-63236078D01*
X128593917Y-63403105D01*
X128787421Y-63538600D01*
X129001507Y-63638429D01*
X129001516Y-63638433D01*
X129215000Y-63695634D01*
X129215000Y-62798012D01*
X129272007Y-62830925D01*
X129399174Y-62865000D01*
X129530826Y-62865000D01*
X129657993Y-62830925D01*
X129715000Y-62798012D01*
X129715000Y-63695633D01*
X129928483Y-63638433D01*
X129928492Y-63638429D01*
X130142578Y-63538600D01*
X130336082Y-63403105D01*
X130503105Y-63236082D01*
X130638600Y-63042578D01*
X130738429Y-62828492D01*
X130738432Y-62828486D01*
X130795636Y-62615000D01*
X129898012Y-62615000D01*
X129930925Y-62557993D01*
X129965000Y-62430826D01*
X129965000Y-62299174D01*
X129930925Y-62172007D01*
X129898012Y-62115000D01*
X130795636Y-62115000D01*
X130795635Y-62114999D01*
X130738432Y-61901513D01*
X130738429Y-61901507D01*
X130638600Y-61687422D01*
X130638599Y-61687420D01*
X130503113Y-61493926D01*
X130503108Y-61493920D01*
X130336082Y-61326894D01*
X130142578Y-61191399D01*
X129928492Y-61091570D01*
X129928486Y-61091567D01*
X129715000Y-61034364D01*
X129715000Y-61931988D01*
X129657993Y-61899075D01*
X129530826Y-61865000D01*
X129399174Y-61865000D01*
X129272007Y-61899075D01*
X129215000Y-61931988D01*
X129215000Y-61034364D01*
X129214999Y-61034364D01*
X129001513Y-61091567D01*
X129001507Y-61091570D01*
X128787422Y-61191399D01*
X128787420Y-61191400D01*
X128593926Y-61326886D01*
X128593920Y-61326891D01*
X128426891Y-61493920D01*
X128426890Y-61493922D01*
X128296880Y-61679595D01*
X128242303Y-61723219D01*
X128172804Y-61730412D01*
X128110450Y-61698890D01*
X128093730Y-61679594D01*
X127963494Y-61493597D01*
X127796402Y-61326506D01*
X127796395Y-61326501D01*
X127602834Y-61190967D01*
X127602830Y-61190965D01*
X127602828Y-61190964D01*
X127388663Y-61091097D01*
X127388659Y-61091096D01*
X127388655Y-61091094D01*
X127160413Y-61029938D01*
X127160403Y-61029936D01*
X126925001Y-61009341D01*
X126924999Y-61009341D01*
X126689596Y-61029936D01*
X126689586Y-61029938D01*
X126461344Y-61091094D01*
X126461335Y-61091098D01*
X126247171Y-61190964D01*
X126247169Y-61190965D01*
X126053597Y-61326505D01*
X125886505Y-61493597D01*
X125756575Y-61679158D01*
X125701998Y-61722783D01*
X125632500Y-61729977D01*
X125570145Y-61698454D01*
X125553425Y-61679158D01*
X125423494Y-61493597D01*
X125256402Y-61326506D01*
X125256395Y-61326501D01*
X125062834Y-61190967D01*
X125062830Y-61190965D01*
X125062828Y-61190964D01*
X124848663Y-61091097D01*
X124848659Y-61091096D01*
X124848655Y-61091094D01*
X124620413Y-61029938D01*
X124620403Y-61029936D01*
X124385001Y-61009341D01*
X124384999Y-61009341D01*
X124149596Y-61029936D01*
X124149586Y-61029938D01*
X123921344Y-61091094D01*
X123921335Y-61091098D01*
X123707171Y-61190964D01*
X123707169Y-61190965D01*
X123513600Y-61326503D01*
X123391673Y-61448430D01*
X123330350Y-61481914D01*
X123260658Y-61476930D01*
X123204725Y-61435058D01*
X123187810Y-61404081D01*
X123138797Y-61272671D01*
X123138793Y-61272664D01*
X123052547Y-61157455D01*
X123052544Y-61157452D01*
X122937335Y-61071206D01*
X122937328Y-61071202D01*
X122802482Y-61020908D01*
X122802483Y-61020908D01*
X122742883Y-61014501D01*
X122742881Y-61014500D01*
X122742873Y-61014500D01*
X122742864Y-61014500D01*
X120947129Y-61014500D01*
X120947123Y-61014501D01*
X120887516Y-61020908D01*
X120752671Y-61071202D01*
X120752664Y-61071206D01*
X120637455Y-61157452D01*
X120637452Y-61157455D01*
X120551206Y-61272664D01*
X120551202Y-61272671D01*
X120500908Y-61407516D01*
X120497550Y-61438756D01*
X120470812Y-61503307D01*
X120413419Y-61543155D01*
X120374261Y-61549500D01*
X115912351Y-61549500D01*
X115845312Y-61529815D01*
X115799557Y-61477011D01*
X115789061Y-61438752D01*
X115784091Y-61392516D01*
X115733797Y-61257671D01*
X115733793Y-61257664D01*
X115647547Y-61142455D01*
X115647544Y-61142452D01*
X115532335Y-61056206D01*
X115532328Y-61056202D01*
X115400401Y-61006997D01*
X115344467Y-60965126D01*
X115320050Y-60899662D01*
X115334902Y-60831389D01*
X115356053Y-60803133D01*
X115478108Y-60681078D01*
X115613600Y-60487578D01*
X115713429Y-60273492D01*
X115713432Y-60273486D01*
X115770636Y-60060000D01*
X114873012Y-60060000D01*
X114905925Y-60002993D01*
X114940000Y-59875826D01*
X114940000Y-59744174D01*
X114905925Y-59617007D01*
X114873012Y-59560000D01*
X115770636Y-59560000D01*
X115770635Y-59559999D01*
X115713432Y-59346513D01*
X115713429Y-59346507D01*
X115613600Y-59132422D01*
X115613599Y-59132420D01*
X115478113Y-58938926D01*
X115478108Y-58938920D01*
X115311078Y-58771890D01*
X115125405Y-58641879D01*
X115081780Y-58587302D01*
X115074588Y-58517804D01*
X115106110Y-58455449D01*
X115125406Y-58438730D01*
X115169600Y-58407785D01*
X115311401Y-58308495D01*
X115478495Y-58141401D01*
X115614035Y-57947830D01*
X115713903Y-57733663D01*
X115775063Y-57505408D01*
X115795659Y-57270000D01*
X115775063Y-57034592D01*
X115713903Y-56806337D01*
X115696959Y-56770000D01*
X116504540Y-56770000D01*
X116524326Y-56958256D01*
X116524327Y-56958259D01*
X116582818Y-57138277D01*
X116582821Y-57138284D01*
X116677467Y-57302216D01*
X116785982Y-57422734D01*
X116804129Y-57442888D01*
X116957265Y-57554148D01*
X116957270Y-57554151D01*
X117130192Y-57631142D01*
X117130197Y-57631144D01*
X117315354Y-57670500D01*
X117315355Y-57670500D01*
X117504644Y-57670500D01*
X117504646Y-57670500D01*
X117689803Y-57631144D01*
X117862730Y-57554151D01*
X117905087Y-57523377D01*
X117945271Y-57494182D01*
X118011077Y-57470702D01*
X118018156Y-57470500D01*
X120748327Y-57470500D01*
X120815366Y-57490185D01*
X120849902Y-57523377D01*
X120909954Y-57609141D01*
X121048132Y-57747319D01*
X121081617Y-57808642D01*
X121076633Y-57878334D01*
X121048132Y-57922681D01*
X120909954Y-58060858D01*
X120856904Y-58136623D01*
X120802327Y-58180248D01*
X120755329Y-58189500D01*
X118749337Y-58189500D01*
X118682298Y-58169815D01*
X118676452Y-58165818D01*
X118662734Y-58155851D01*
X118662729Y-58155848D01*
X118489807Y-58078857D01*
X118489802Y-58078855D01*
X118344001Y-58047865D01*
X118304646Y-58039500D01*
X118115354Y-58039500D01*
X118082897Y-58046398D01*
X117930197Y-58078855D01*
X117930192Y-58078857D01*
X117757270Y-58155848D01*
X117757265Y-58155851D01*
X117604129Y-58267111D01*
X117477466Y-58407785D01*
X117382821Y-58571715D01*
X117382818Y-58571722D01*
X117324327Y-58751740D01*
X117324326Y-58751744D01*
X117304540Y-58940000D01*
X117324326Y-59128256D01*
X117324327Y-59128259D01*
X117382818Y-59308277D01*
X117382821Y-59308284D01*
X117477467Y-59472216D01*
X117583971Y-59590500D01*
X117604129Y-59612888D01*
X117757265Y-59724148D01*
X117757270Y-59724151D01*
X117930192Y-59801142D01*
X117930197Y-59801144D01*
X118115354Y-59840500D01*
X118115355Y-59840500D01*
X118304644Y-59840500D01*
X118304646Y-59840500D01*
X118489803Y-59801144D01*
X118662730Y-59724151D01*
X118814090Y-59614182D01*
X118879896Y-59590702D01*
X118886975Y-59590500D01*
X120741325Y-59590500D01*
X120808364Y-59610185D01*
X120842900Y-59643377D01*
X120909954Y-59739141D01*
X121070858Y-59900045D01*
X121070861Y-59900047D01*
X121257266Y-60030568D01*
X121463504Y-60126739D01*
X121683308Y-60185635D01*
X121845230Y-60199801D01*
X121909998Y-60205468D01*
X121910000Y-60205468D01*
X121910002Y-60205468D01*
X121966673Y-60200509D01*
X122136692Y-60185635D01*
X122356496Y-60126739D01*
X122562734Y-60030568D01*
X122749139Y-59900047D01*
X122910047Y-59739139D01*
X123040568Y-59552734D01*
X123136739Y-59346496D01*
X123195635Y-59126692D01*
X123215468Y-58900000D01*
X123195635Y-58673308D01*
X123136739Y-58453504D01*
X123040568Y-58247266D01*
X122910047Y-58060861D01*
X122910045Y-58060858D01*
X122771868Y-57922681D01*
X122738383Y-57861358D01*
X122743367Y-57791666D01*
X122771868Y-57747319D01*
X122910045Y-57609141D01*
X122910047Y-57609139D01*
X123040568Y-57422734D01*
X123136739Y-57216496D01*
X123195635Y-56996692D01*
X123215468Y-56770000D01*
X123195635Y-56543308D01*
X123136739Y-56323504D01*
X123040568Y-56117266D01*
X122910047Y-55930861D01*
X122910045Y-55930858D01*
X122771868Y-55792681D01*
X122738383Y-55731358D01*
X122743367Y-55661666D01*
X122771868Y-55617319D01*
X122910045Y-55479141D01*
X122910047Y-55479139D01*
X123040568Y-55292734D01*
X123136739Y-55086496D01*
X123195635Y-54866692D01*
X123215468Y-54640000D01*
X123215468Y-54639998D01*
X128224532Y-54639998D01*
X128224532Y-54640001D01*
X128244364Y-54866686D01*
X128244366Y-54866697D01*
X128303258Y-55086488D01*
X128303261Y-55086497D01*
X128399431Y-55292732D01*
X128399432Y-55292734D01*
X128529954Y-55479141D01*
X128668132Y-55617319D01*
X128701617Y-55678642D01*
X128696633Y-55748334D01*
X128668132Y-55792681D01*
X128529954Y-55930858D01*
X128399432Y-56117265D01*
X128399431Y-56117267D01*
X128303261Y-56323502D01*
X128303258Y-56323511D01*
X128244366Y-56543302D01*
X128244364Y-56543313D01*
X128224532Y-56769998D01*
X128224532Y-56770001D01*
X128244364Y-56996686D01*
X128244366Y-56996697D01*
X128303258Y-57216488D01*
X128303261Y-57216497D01*
X128399431Y-57422732D01*
X128399432Y-57422734D01*
X128529954Y-57609141D01*
X128668132Y-57747319D01*
X128701617Y-57808642D01*
X128696633Y-57878334D01*
X128668132Y-57922681D01*
X128529954Y-58060858D01*
X128399432Y-58247265D01*
X128399431Y-58247267D01*
X128303261Y-58453502D01*
X128303258Y-58453511D01*
X128244366Y-58673302D01*
X128244364Y-58673313D01*
X128224532Y-58899998D01*
X128224532Y-58900001D01*
X128244364Y-59126686D01*
X128244366Y-59126697D01*
X128303258Y-59346488D01*
X128303261Y-59346497D01*
X128399431Y-59552732D01*
X128399432Y-59552734D01*
X128529954Y-59739141D01*
X128690858Y-59900045D01*
X128690861Y-59900047D01*
X128877266Y-60030568D01*
X129083504Y-60126739D01*
X129303308Y-60185635D01*
X129465230Y-60199801D01*
X129529998Y-60205468D01*
X129530000Y-60205468D01*
X129530002Y-60205468D01*
X129586673Y-60200509D01*
X129756692Y-60185635D01*
X129976496Y-60126739D01*
X130182734Y-60030568D01*
X130369139Y-59900047D01*
X130530047Y-59739139D01*
X130660568Y-59552734D01*
X130756739Y-59346496D01*
X130815635Y-59126692D01*
X130832490Y-58934038D01*
X134229500Y-58934038D01*
X134229500Y-59185962D01*
X134254928Y-59346507D01*
X134268910Y-59434785D01*
X134346760Y-59674383D01*
X134382321Y-59744174D01*
X134449401Y-59875826D01*
X134461132Y-59898848D01*
X134609201Y-60102649D01*
X134609205Y-60102654D01*
X134787345Y-60280794D01*
X134787350Y-60280798D01*
X134965117Y-60409952D01*
X134991155Y-60428870D01*
X135106376Y-60487578D01*
X135215616Y-60543239D01*
X135215618Y-60543239D01*
X135215621Y-60543241D01*
X135455215Y-60621090D01*
X135704038Y-60660500D01*
X135704039Y-60660500D01*
X135955961Y-60660500D01*
X135955962Y-60660500D01*
X136204785Y-60621090D01*
X136444379Y-60543241D01*
X136668845Y-60428870D01*
X136872656Y-60280793D01*
X137050793Y-60102656D01*
X137198870Y-59898845D01*
X137313241Y-59674379D01*
X137391090Y-59434785D01*
X137430500Y-59185962D01*
X137430500Y-58934038D01*
X137391090Y-58685215D01*
X137313241Y-58445621D01*
X137313239Y-58445618D01*
X137313239Y-58445616D01*
X137222286Y-58267112D01*
X137198870Y-58221155D01*
X137161569Y-58169815D01*
X137050798Y-58017350D01*
X137050794Y-58017345D01*
X136872654Y-57839205D01*
X136872649Y-57839201D01*
X136668848Y-57691132D01*
X136668847Y-57691131D01*
X136668845Y-57691130D01*
X136551112Y-57631142D01*
X136444383Y-57576760D01*
X136204785Y-57498910D01*
X136149698Y-57490185D01*
X135955962Y-57459500D01*
X135704038Y-57459500D01*
X135633312Y-57470702D01*
X135455214Y-57498910D01*
X135215616Y-57576760D01*
X134991151Y-57691132D01*
X134787350Y-57839201D01*
X134787345Y-57839205D01*
X134609205Y-58017345D01*
X134609201Y-58017350D01*
X134461132Y-58221151D01*
X134346760Y-58445616D01*
X134272777Y-58673313D01*
X134268910Y-58685215D01*
X134229500Y-58934038D01*
X130832490Y-58934038D01*
X130835468Y-58900000D01*
X130815635Y-58673308D01*
X130756739Y-58453504D01*
X130660568Y-58247266D01*
X130530047Y-58060861D01*
X130530045Y-58060858D01*
X130391868Y-57922681D01*
X130358383Y-57861358D01*
X130363367Y-57791666D01*
X130391868Y-57747319D01*
X130530045Y-57609141D01*
X130530047Y-57609139D01*
X130660568Y-57422734D01*
X130756739Y-57216496D01*
X130815635Y-56996692D01*
X130835468Y-56770000D01*
X130815635Y-56543308D01*
X130756739Y-56323504D01*
X130660568Y-56117266D01*
X130530047Y-55930861D01*
X130530045Y-55930858D01*
X130391868Y-55792681D01*
X130358383Y-55731358D01*
X130363367Y-55661666D01*
X130391868Y-55617319D01*
X130530045Y-55479141D01*
X130530047Y-55479139D01*
X130660568Y-55292734D01*
X130756739Y-55086496D01*
X130815635Y-54866692D01*
X130835468Y-54640000D01*
X130835279Y-54637844D01*
X130815635Y-54413313D01*
X130815635Y-54413308D01*
X130756739Y-54193504D01*
X130660568Y-53987266D01*
X130530047Y-53800861D01*
X130530045Y-53800858D01*
X130369141Y-53639954D01*
X130182734Y-53509432D01*
X130182732Y-53509431D01*
X129976497Y-53413261D01*
X129976488Y-53413258D01*
X129756697Y-53354366D01*
X129756693Y-53354365D01*
X129756692Y-53354365D01*
X129756691Y-53354364D01*
X129756686Y-53354364D01*
X129530002Y-53334532D01*
X129529998Y-53334532D01*
X129303313Y-53354364D01*
X129303302Y-53354366D01*
X129083511Y-53413258D01*
X129083502Y-53413261D01*
X128877267Y-53509431D01*
X128877265Y-53509432D01*
X128690858Y-53639954D01*
X128529954Y-53800858D01*
X128399432Y-53987265D01*
X128399431Y-53987267D01*
X128303261Y-54193502D01*
X128303258Y-54193511D01*
X128244366Y-54413302D01*
X128244364Y-54413313D01*
X128224532Y-54639998D01*
X123215468Y-54639998D01*
X123215279Y-54637844D01*
X123195635Y-54413313D01*
X123195635Y-54413308D01*
X123136739Y-54193504D01*
X123040568Y-53987266D01*
X122910047Y-53800861D01*
X122910045Y-53800858D01*
X122749141Y-53639954D01*
X122562734Y-53509432D01*
X122562732Y-53509431D01*
X122356497Y-53413261D01*
X122356488Y-53413258D01*
X122136697Y-53354366D01*
X122136693Y-53354365D01*
X122136692Y-53354365D01*
X122136691Y-53354364D01*
X122136686Y-53354364D01*
X121910002Y-53334532D01*
X121909998Y-53334532D01*
X121683313Y-53354364D01*
X121683302Y-53354366D01*
X121463511Y-53413258D01*
X121463502Y-53413261D01*
X121257267Y-53509431D01*
X121257265Y-53509432D01*
X121070858Y-53639954D01*
X120909954Y-53800858D01*
X120779432Y-53987265D01*
X120779431Y-53987267D01*
X120683261Y-54193502D01*
X120683258Y-54193511D01*
X120624366Y-54413302D01*
X120624364Y-54413313D01*
X120604532Y-54639998D01*
X120604532Y-54640001D01*
X120624364Y-54866686D01*
X120624366Y-54866697D01*
X120683258Y-55086488D01*
X120683261Y-55086497D01*
X120779431Y-55292732D01*
X120779432Y-55292734D01*
X120909954Y-55479141D01*
X121048132Y-55617319D01*
X121081617Y-55678642D01*
X121076633Y-55748334D01*
X121048132Y-55792681D01*
X120909954Y-55930858D01*
X120849902Y-56016623D01*
X120795325Y-56060248D01*
X120748327Y-56069500D01*
X118018156Y-56069500D01*
X117951117Y-56049815D01*
X117945271Y-56045818D01*
X117862734Y-55985851D01*
X117862729Y-55985848D01*
X117689807Y-55908857D01*
X117689802Y-55908855D01*
X117544001Y-55877865D01*
X117504646Y-55869500D01*
X117315354Y-55869500D01*
X117282897Y-55876398D01*
X117130197Y-55908855D01*
X117130192Y-55908857D01*
X116957270Y-55985848D01*
X116957265Y-55985851D01*
X116804129Y-56097111D01*
X116677466Y-56237785D01*
X116582821Y-56401715D01*
X116582818Y-56401722D01*
X116536813Y-56543313D01*
X116524326Y-56581744D01*
X116504540Y-56770000D01*
X115696959Y-56770000D01*
X115614035Y-56592171D01*
X115606732Y-56581740D01*
X115478494Y-56398597D01*
X115311402Y-56231506D01*
X115311396Y-56231501D01*
X115125842Y-56101575D01*
X115082217Y-56046998D01*
X115075023Y-55977500D01*
X115106546Y-55915145D01*
X115125842Y-55898425D01*
X115167151Y-55869500D01*
X115311401Y-55768495D01*
X115478495Y-55601401D01*
X115614035Y-55407830D01*
X115713903Y-55193663D01*
X115775063Y-54965408D01*
X115795659Y-54730000D01*
X115795126Y-54723913D01*
X115787596Y-54637844D01*
X115775063Y-54494592D01*
X115713903Y-54266337D01*
X115614035Y-54052171D01*
X115568589Y-53987266D01*
X115478494Y-53858597D01*
X115311402Y-53691506D01*
X115311395Y-53691501D01*
X115309251Y-53690000D01*
X115224643Y-53630756D01*
X115117834Y-53555967D01*
X115117830Y-53555965D01*
X115032781Y-53516306D01*
X114903663Y-53456097D01*
X114903659Y-53456096D01*
X114903655Y-53456094D01*
X114675413Y-53394938D01*
X114675403Y-53394936D01*
X114440001Y-53374341D01*
X114439999Y-53374341D01*
X114204596Y-53394936D01*
X114204586Y-53394938D01*
X113976344Y-53456094D01*
X113976335Y-53456098D01*
X113762171Y-53555964D01*
X113762169Y-53555965D01*
X113568597Y-53691505D01*
X113401505Y-53858597D01*
X113265965Y-54052169D01*
X113265964Y-54052171D01*
X113166098Y-54266335D01*
X113166094Y-54266344D01*
X113104938Y-54494586D01*
X113104936Y-54494596D01*
X113084341Y-54729999D01*
X111925000Y-54729999D01*
X111925000Y-52742155D01*
X132345000Y-52742155D01*
X132345000Y-53440000D01*
X133369722Y-53440000D01*
X133325667Y-53516306D01*
X133295000Y-53630756D01*
X133295000Y-53749244D01*
X133325667Y-53863694D01*
X133369722Y-53940000D01*
X132345000Y-53940000D01*
X132345000Y-54637844D01*
X132351401Y-54697372D01*
X132351403Y-54697379D01*
X132401645Y-54832086D01*
X132401649Y-54832093D01*
X132487809Y-54947187D01*
X132487812Y-54947190D01*
X132602906Y-55033350D01*
X132602913Y-55033354D01*
X132737620Y-55083596D01*
X132737627Y-55083598D01*
X132797155Y-55089999D01*
X132797172Y-55090000D01*
X133495000Y-55090000D01*
X133495000Y-54065277D01*
X133571306Y-54109333D01*
X133685756Y-54140000D01*
X133804244Y-54140000D01*
X133918694Y-54109333D01*
X133995000Y-54065277D01*
X133995000Y-55090000D01*
X134692828Y-55090000D01*
X134692844Y-55089999D01*
X134752372Y-55083598D01*
X134752379Y-55083596D01*
X134887086Y-55033354D01*
X134887093Y-55033350D01*
X135002187Y-54947190D01*
X135002190Y-54947187D01*
X135088350Y-54832093D01*
X135088355Y-54832084D01*
X135117075Y-54755081D01*
X135158945Y-54699147D01*
X135224409Y-54674729D01*
X135292682Y-54689580D01*
X135324484Y-54714428D01*
X135333216Y-54723913D01*
X135333219Y-54723915D01*
X135333222Y-54723918D01*
X135516365Y-54866464D01*
X135516371Y-54866468D01*
X135516374Y-54866470D01*
X135720497Y-54976936D01*
X135834487Y-55016068D01*
X135940015Y-55052297D01*
X135940017Y-55052297D01*
X135940019Y-55052298D01*
X136168951Y-55090500D01*
X136168952Y-55090500D01*
X136401048Y-55090500D01*
X136401049Y-55090500D01*
X136629981Y-55052298D01*
X136849503Y-54976936D01*
X137053626Y-54866470D01*
X137236784Y-54723913D01*
X137393979Y-54553153D01*
X137520924Y-54358849D01*
X137614157Y-54146300D01*
X137671134Y-53921305D01*
X137681114Y-53800861D01*
X137690300Y-53690006D01*
X137690300Y-53689993D01*
X137671135Y-53458702D01*
X137671133Y-53458691D01*
X137614157Y-53233699D01*
X137520924Y-53021151D01*
X137393983Y-52826852D01*
X137393980Y-52826849D01*
X137393979Y-52826847D01*
X137236784Y-52656087D01*
X137236779Y-52656083D01*
X137236777Y-52656081D01*
X137053634Y-52513535D01*
X137053628Y-52513531D01*
X136849504Y-52403064D01*
X136849495Y-52403061D01*
X136629984Y-52327702D01*
X136442404Y-52296401D01*
X136401049Y-52289500D01*
X136168951Y-52289500D01*
X136127596Y-52296401D01*
X135940015Y-52327702D01*
X135720504Y-52403061D01*
X135720495Y-52403064D01*
X135516371Y-52513531D01*
X135516365Y-52513535D01*
X135333222Y-52656081D01*
X135333215Y-52656087D01*
X135324484Y-52665572D01*
X135264595Y-52701561D01*
X135194757Y-52699458D01*
X135137143Y-52659932D01*
X135117075Y-52624918D01*
X135088355Y-52547915D01*
X135088350Y-52547906D01*
X135002190Y-52432812D01*
X135002187Y-52432809D01*
X134887093Y-52346649D01*
X134887086Y-52346645D01*
X134752379Y-52296403D01*
X134752372Y-52296401D01*
X134692844Y-52290000D01*
X133995000Y-52290000D01*
X133995000Y-53314722D01*
X133918694Y-53270667D01*
X133804244Y-53240000D01*
X133685756Y-53240000D01*
X133571306Y-53270667D01*
X133495000Y-53314722D01*
X133495000Y-52290000D01*
X132797155Y-52290000D01*
X132737627Y-52296401D01*
X132737620Y-52296403D01*
X132602913Y-52346645D01*
X132602906Y-52346649D01*
X132487812Y-52432809D01*
X132487809Y-52432812D01*
X132401649Y-52547906D01*
X132401645Y-52547913D01*
X132351403Y-52682620D01*
X132351401Y-52682627D01*
X132345000Y-52742155D01*
X111925000Y-52742155D01*
X111925000Y-47849998D01*
X120954532Y-47849998D01*
X120954532Y-47850001D01*
X120974364Y-48076686D01*
X120974366Y-48076697D01*
X121033258Y-48296488D01*
X121033261Y-48296497D01*
X121129431Y-48502732D01*
X121129432Y-48502734D01*
X121259954Y-48689141D01*
X121420858Y-48850045D01*
X121420861Y-48850047D01*
X121607266Y-48980568D01*
X121813504Y-49076739D01*
X121813509Y-49076740D01*
X121813511Y-49076741D01*
X122013117Y-49130225D01*
X122072778Y-49166590D01*
X122103307Y-49229437D01*
X122095012Y-49298812D01*
X122050527Y-49352690D01*
X122013117Y-49369775D01*
X121813511Y-49423258D01*
X121813502Y-49423261D01*
X121607267Y-49519431D01*
X121607265Y-49519432D01*
X121420858Y-49649954D01*
X121259954Y-49810858D01*
X121129432Y-49997265D01*
X121129431Y-49997267D01*
X121033261Y-50203502D01*
X121033258Y-50203511D01*
X120974366Y-50423302D01*
X120974364Y-50423313D01*
X120954532Y-50649998D01*
X120954532Y-50650001D01*
X120974364Y-50876686D01*
X120974366Y-50876697D01*
X121033258Y-51096488D01*
X121033261Y-51096497D01*
X121129431Y-51302732D01*
X121129432Y-51302734D01*
X121259954Y-51489141D01*
X121420858Y-51650045D01*
X121420861Y-51650047D01*
X121607266Y-51780568D01*
X121813504Y-51876739D01*
X122033308Y-51935635D01*
X122195230Y-51949801D01*
X122259998Y-51955468D01*
X122260000Y-51955468D01*
X122260002Y-51955468D01*
X122316673Y-51950509D01*
X122486692Y-51935635D01*
X122706496Y-51876739D01*
X122912734Y-51780568D01*
X123099139Y-51650047D01*
X123260047Y-51489139D01*
X123390568Y-51302734D01*
X123486739Y-51096496D01*
X123545635Y-50876692D01*
X123565468Y-50650000D01*
X123545635Y-50423308D01*
X123486739Y-50203504D01*
X123390568Y-49997266D01*
X123260047Y-49810861D01*
X123260045Y-49810858D01*
X123099141Y-49649954D01*
X122912734Y-49519432D01*
X122912732Y-49519431D01*
X122706497Y-49423261D01*
X122706488Y-49423258D01*
X122506882Y-49369775D01*
X122447221Y-49333410D01*
X122416692Y-49270563D01*
X122424987Y-49201188D01*
X122469472Y-49147310D01*
X122506882Y-49130225D01*
X122642849Y-49093793D01*
X122706496Y-49076739D01*
X122912734Y-48980568D01*
X123099139Y-48850047D01*
X123099141Y-48850045D01*
X123222319Y-48726868D01*
X123283642Y-48693383D01*
X123353334Y-48698367D01*
X123397681Y-48726868D01*
X123520858Y-48850045D01*
X123520861Y-48850047D01*
X123707266Y-48980568D01*
X123913504Y-49076739D01*
X124133308Y-49135635D01*
X124295230Y-49149801D01*
X124359998Y-49155468D01*
X124360000Y-49155468D01*
X124360002Y-49155468D01*
X124416807Y-49150498D01*
X124586692Y-49135635D01*
X124806496Y-49076739D01*
X125012734Y-48980568D01*
X125199139Y-48850047D01*
X125360047Y-48689139D01*
X125433928Y-48583624D01*
X125488500Y-48540002D01*
X125557998Y-48532808D01*
X125620354Y-48564330D01*
X125655768Y-48624559D01*
X125659500Y-48654747D01*
X125659500Y-48697868D01*
X125659501Y-48697876D01*
X125665908Y-48757483D01*
X125716202Y-48892328D01*
X125716206Y-48892335D01*
X125802452Y-49007544D01*
X125802455Y-49007547D01*
X125917664Y-49093793D01*
X125917671Y-49093797D01*
X126052517Y-49144091D01*
X126052516Y-49144091D01*
X126059444Y-49144835D01*
X126112127Y-49150500D01*
X127807872Y-49150499D01*
X127867483Y-49144091D01*
X128002331Y-49093796D01*
X128117546Y-49007546D01*
X128158744Y-48952511D01*
X128214676Y-48910641D01*
X128284368Y-48905657D01*
X128329134Y-48925249D01*
X128407510Y-48980130D01*
X128407516Y-48980133D01*
X128613673Y-49076265D01*
X128613682Y-49076269D01*
X128814083Y-49129966D01*
X128873744Y-49166331D01*
X128904273Y-49229178D01*
X128895978Y-49298553D01*
X128851493Y-49352431D01*
X128814083Y-49369516D01*
X128613511Y-49423258D01*
X128613502Y-49423261D01*
X128407267Y-49519431D01*
X128407265Y-49519432D01*
X128220858Y-49649954D01*
X128059954Y-49810858D01*
X127929432Y-49997265D01*
X127929431Y-49997267D01*
X127833261Y-50203502D01*
X127833258Y-50203511D01*
X127774366Y-50423302D01*
X127774364Y-50423313D01*
X127754532Y-50649998D01*
X127754532Y-50650001D01*
X127774364Y-50876686D01*
X127774366Y-50876697D01*
X127833258Y-51096488D01*
X127833261Y-51096497D01*
X127929431Y-51302732D01*
X127929432Y-51302734D01*
X128059954Y-51489141D01*
X128220858Y-51650045D01*
X128220861Y-51650047D01*
X128407266Y-51780568D01*
X128613504Y-51876739D01*
X128833308Y-51935635D01*
X128995230Y-51949801D01*
X129059998Y-51955468D01*
X129060000Y-51955468D01*
X129060002Y-51955468D01*
X129116673Y-51950509D01*
X129286692Y-51935635D01*
X129506496Y-51876739D01*
X129712734Y-51780568D01*
X129899139Y-51650047D01*
X130060047Y-51489139D01*
X130190568Y-51302734D01*
X130286739Y-51096496D01*
X130345635Y-50876692D01*
X130365468Y-50650000D01*
X130345635Y-50423308D01*
X130286739Y-50203504D01*
X130190568Y-49997266D01*
X130060047Y-49810861D01*
X130060045Y-49810858D01*
X129899141Y-49649954D01*
X129712734Y-49519432D01*
X129712732Y-49519431D01*
X129506497Y-49423261D01*
X129506488Y-49423258D01*
X129305916Y-49369516D01*
X129246255Y-49333151D01*
X129215726Y-49270304D01*
X129224021Y-49200929D01*
X129268506Y-49147051D01*
X129305916Y-49129966D01*
X129506317Y-49076269D01*
X129506331Y-49076264D01*
X129712478Y-48980136D01*
X129785471Y-48929024D01*
X129106447Y-48250000D01*
X129112661Y-48250000D01*
X129214394Y-48222741D01*
X129305606Y-48170080D01*
X129380080Y-48095606D01*
X129432741Y-48004394D01*
X129460000Y-47902661D01*
X129460000Y-47896447D01*
X130139024Y-48575471D01*
X130190136Y-48502478D01*
X130286264Y-48296331D01*
X130286269Y-48296317D01*
X130345139Y-48076610D01*
X130345141Y-48076599D01*
X130364966Y-47850002D01*
X130364966Y-47849997D01*
X130345141Y-47623400D01*
X130345139Y-47623389D01*
X130286269Y-47403682D01*
X130286264Y-47403668D01*
X130190136Y-47197521D01*
X130190132Y-47197513D01*
X130139025Y-47124526D01*
X129460000Y-47803551D01*
X129460000Y-47797339D01*
X129432741Y-47695606D01*
X129380080Y-47604394D01*
X129305606Y-47529920D01*
X129214394Y-47477259D01*
X129112661Y-47450000D01*
X129106447Y-47450000D01*
X129785472Y-46770974D01*
X129712478Y-46719863D01*
X129506331Y-46623735D01*
X129506317Y-46623730D01*
X129286610Y-46564860D01*
X129286599Y-46564858D01*
X129060002Y-46545034D01*
X129059998Y-46545034D01*
X128833400Y-46564858D01*
X128833389Y-46564860D01*
X128613682Y-46623730D01*
X128613673Y-46623734D01*
X128407516Y-46719866D01*
X128407512Y-46719869D01*
X128329133Y-46774750D01*
X128262927Y-46797077D01*
X128195159Y-46780067D01*
X128158744Y-46747487D01*
X128137741Y-46719431D01*
X128117546Y-46692454D01*
X128117544Y-46692453D01*
X128117544Y-46692452D01*
X128002335Y-46606206D01*
X128002328Y-46606202D01*
X127867482Y-46555908D01*
X127867483Y-46555908D01*
X127807883Y-46549501D01*
X127807881Y-46549500D01*
X127807873Y-46549500D01*
X127807864Y-46549500D01*
X126112129Y-46549500D01*
X126112123Y-46549501D01*
X126052516Y-46555908D01*
X125917671Y-46606202D01*
X125917664Y-46606206D01*
X125802455Y-46692452D01*
X125802452Y-46692455D01*
X125716206Y-46807664D01*
X125716202Y-46807671D01*
X125665908Y-46942517D01*
X125659501Y-47002116D01*
X125659500Y-47002135D01*
X125659500Y-47045247D01*
X125639815Y-47112286D01*
X125587011Y-47158041D01*
X125517853Y-47167985D01*
X125454297Y-47138960D01*
X125433925Y-47116370D01*
X125360045Y-47010858D01*
X125199141Y-46849954D01*
X125012734Y-46719432D01*
X125012732Y-46719431D01*
X124806497Y-46623261D01*
X124806488Y-46623258D01*
X124586697Y-46564366D01*
X124586693Y-46564365D01*
X124586692Y-46564365D01*
X124586691Y-46564364D01*
X124586686Y-46564364D01*
X124360002Y-46544532D01*
X124359998Y-46544532D01*
X124133313Y-46564364D01*
X124133302Y-46564366D01*
X123913511Y-46623258D01*
X123913502Y-46623261D01*
X123707267Y-46719431D01*
X123707265Y-46719432D01*
X123520858Y-46849954D01*
X123397681Y-46973132D01*
X123336358Y-47006617D01*
X123266666Y-47001633D01*
X123222319Y-46973132D01*
X123099141Y-46849954D01*
X122912734Y-46719432D01*
X122912732Y-46719431D01*
X122706497Y-46623261D01*
X122706488Y-46623258D01*
X122486697Y-46564366D01*
X122486693Y-46564365D01*
X122486692Y-46564365D01*
X122486691Y-46564364D01*
X122486686Y-46564364D01*
X122260002Y-46544532D01*
X122259998Y-46544532D01*
X122033313Y-46564364D01*
X122033302Y-46564366D01*
X121813511Y-46623258D01*
X121813502Y-46623261D01*
X121607267Y-46719431D01*
X121607265Y-46719432D01*
X121420858Y-46849954D01*
X121259954Y-47010858D01*
X121129432Y-47197265D01*
X121129431Y-47197267D01*
X121033261Y-47403502D01*
X121033258Y-47403511D01*
X120974366Y-47623302D01*
X120974364Y-47623313D01*
X120954532Y-47849998D01*
X111925000Y-47849998D01*
X111925000Y-44131947D01*
X117310000Y-44131947D01*
X117310000Y-44750000D01*
X118310000Y-44750000D01*
X118310000Y-45250000D01*
X117310000Y-45250000D01*
X117310000Y-45868052D01*
X117346934Y-46101247D01*
X117419897Y-46325802D01*
X117527085Y-46536171D01*
X117665866Y-46727186D01*
X117832813Y-46894133D01*
X118023828Y-47032914D01*
X118234195Y-47140102D01*
X118458744Y-47213063D01*
X118458750Y-47213065D01*
X118560000Y-47229101D01*
X118560000Y-46183012D01*
X118617007Y-46215925D01*
X118744174Y-46250000D01*
X118875826Y-46250000D01*
X119002993Y-46215925D01*
X119060000Y-46183012D01*
X119060000Y-47229100D01*
X119161249Y-47213065D01*
X119161255Y-47213063D01*
X119385804Y-47140102D01*
X119596171Y-47032914D01*
X119787186Y-46894133D01*
X119954133Y-46727186D01*
X120092914Y-46536171D01*
X120200102Y-46325802D01*
X120273065Y-46101247D01*
X120310000Y-45868052D01*
X120310000Y-45250000D01*
X119310000Y-45250000D01*
X119310000Y-44750000D01*
X120310000Y-44750000D01*
X120310000Y-44131947D01*
X120281182Y-43950000D01*
X123180898Y-43950000D01*
X124226988Y-43950000D01*
X124194075Y-44007007D01*
X124160000Y-44134174D01*
X124160000Y-44265826D01*
X124194075Y-44392993D01*
X124226988Y-44450000D01*
X123180898Y-44450000D01*
X123196934Y-44551247D01*
X123269897Y-44775802D01*
X123377085Y-44986171D01*
X123515866Y-45177186D01*
X123682813Y-45344133D01*
X123873828Y-45482914D01*
X124084197Y-45590102D01*
X124308752Y-45663065D01*
X124308751Y-45663065D01*
X124541948Y-45700000D01*
X125410000Y-45700000D01*
X125410000Y-44700000D01*
X125910000Y-44700000D01*
X125910000Y-45700000D01*
X126778052Y-45700000D01*
X127011247Y-45663065D01*
X127235802Y-45590102D01*
X127446171Y-45482914D01*
X127637186Y-45344133D01*
X127804133Y-45177186D01*
X127942914Y-44986171D01*
X128050102Y-44775802D01*
X128123065Y-44551247D01*
X128139102Y-44450000D01*
X127093012Y-44450000D01*
X127125925Y-44392993D01*
X127160000Y-44265826D01*
X127160000Y-44134174D01*
X127159403Y-44131947D01*
X131010000Y-44131947D01*
X131010000Y-44750000D01*
X132010000Y-44750000D01*
X132010000Y-45250000D01*
X131010000Y-45250000D01*
X131010000Y-45868052D01*
X131046934Y-46101247D01*
X131119897Y-46325802D01*
X131227085Y-46536171D01*
X131365866Y-46727186D01*
X131532813Y-46894133D01*
X131723828Y-47032914D01*
X131934195Y-47140102D01*
X132158744Y-47213063D01*
X132158750Y-47213065D01*
X132260000Y-47229101D01*
X132260000Y-46183012D01*
X132317007Y-46215925D01*
X132444174Y-46250000D01*
X132575826Y-46250000D01*
X132702993Y-46215925D01*
X132760000Y-46183012D01*
X132760000Y-47229100D01*
X132861249Y-47213065D01*
X132861255Y-47213063D01*
X133085804Y-47140102D01*
X133296171Y-47032914D01*
X133487186Y-46894133D01*
X133654133Y-46727186D01*
X133792914Y-46536171D01*
X133900102Y-46325802D01*
X133973065Y-46101247D01*
X134010000Y-45868052D01*
X134010000Y-45250000D01*
X133010000Y-45250000D01*
X133010000Y-44750000D01*
X134010000Y-44750000D01*
X134010000Y-44131947D01*
X133973065Y-43898752D01*
X133900102Y-43674197D01*
X133792914Y-43463828D01*
X133654133Y-43272813D01*
X133487186Y-43105866D01*
X133296171Y-42967085D01*
X133085802Y-42859897D01*
X132861247Y-42786934D01*
X132760000Y-42770897D01*
X132760000Y-43816988D01*
X132702993Y-43784075D01*
X132575826Y-43750000D01*
X132444174Y-43750000D01*
X132317007Y-43784075D01*
X132260000Y-43816988D01*
X132260000Y-42770897D01*
X132158752Y-42786934D01*
X131934197Y-42859897D01*
X131723828Y-42967085D01*
X131532813Y-43105866D01*
X131365866Y-43272813D01*
X131227085Y-43463828D01*
X131119897Y-43674197D01*
X131046934Y-43898752D01*
X131010000Y-44131947D01*
X127159403Y-44131947D01*
X127125925Y-44007007D01*
X127093012Y-43950000D01*
X128139102Y-43950000D01*
X128123065Y-43848752D01*
X128050102Y-43624197D01*
X127942914Y-43413828D01*
X127804133Y-43222813D01*
X127637186Y-43055866D01*
X127446171Y-42917085D01*
X127235802Y-42809897D01*
X127011247Y-42736934D01*
X127011248Y-42736934D01*
X126778052Y-42700000D01*
X125910000Y-42700000D01*
X125910000Y-43700000D01*
X125410000Y-43700000D01*
X125410000Y-42700000D01*
X124541948Y-42700000D01*
X124308752Y-42736934D01*
X124084197Y-42809897D01*
X123873828Y-42917085D01*
X123682813Y-43055866D01*
X123515866Y-43222813D01*
X123377085Y-43413828D01*
X123269897Y-43624197D01*
X123196934Y-43848752D01*
X123180898Y-43950000D01*
X120281182Y-43950000D01*
X120273065Y-43898752D01*
X120200102Y-43674197D01*
X120092914Y-43463828D01*
X119954133Y-43272813D01*
X119787186Y-43105866D01*
X119596171Y-42967085D01*
X119385802Y-42859897D01*
X119161247Y-42786934D01*
X119060000Y-42770897D01*
X119060000Y-43816988D01*
X119002993Y-43784075D01*
X118875826Y-43750000D01*
X118744174Y-43750000D01*
X118617007Y-43784075D01*
X118560000Y-43816988D01*
X118560000Y-42770897D01*
X118458752Y-42786934D01*
X118234197Y-42859897D01*
X118023828Y-42967085D01*
X117832813Y-43105866D01*
X117665866Y-43272813D01*
X117527085Y-43463828D01*
X117419897Y-43674197D01*
X117346934Y-43898752D01*
X117310000Y-44131947D01*
X111925000Y-44131947D01*
X111925000Y-39334000D01*
X111944685Y-39266961D01*
X111997489Y-39221206D01*
X112049000Y-39210000D01*
X139251000Y-39210000D01*
X139318039Y-39229685D01*
G37*
%TD.AperFunction*%
%TD*%
M02*
