%TF.GenerationSoftware,KiCad,Pcbnew,8.0.5*%
%TF.CreationDate,2024-11-15T12:40:48+00:00*%
%TF.ProjectId,TIMPS2KeyMini,54494d50-5332-44b6-9579-4d696e692e6b,rev?*%
%TF.SameCoordinates,Original*%
%TF.FileFunction,Legend,Bot*%
%TF.FilePolarity,Positive*%
%FSLAX46Y46*%
G04 Gerber Fmt 4.6, Leading zero omitted, Abs format (unit mm)*
G04 Created by KiCad (PCBNEW 8.0.5) date 2024-11-15 12:40:48*
%MOMM*%
%LPD*%
G01*
G04 APERTURE LIST*
%ADD10C,0.300000*%
%ADD11C,0.150000*%
%ADD12C,0.120000*%
G04 APERTURE END LIST*
D10*
X138013457Y-102276917D02*
X138084885Y-102348346D01*
X138084885Y-102348346D02*
X138156314Y-102491203D01*
X138156314Y-102491203D02*
X138156314Y-102634060D01*
X138156314Y-102634060D02*
X138084885Y-102776917D01*
X138084885Y-102776917D02*
X138013457Y-102848346D01*
X138013457Y-102848346D02*
X137870600Y-102919774D01*
X137870600Y-102919774D02*
X137727742Y-102919774D01*
X137727742Y-102919774D02*
X137584885Y-102848346D01*
X137584885Y-102848346D02*
X137513457Y-102776917D01*
X137513457Y-102776917D02*
X137442028Y-102634060D01*
X137442028Y-102634060D02*
X137442028Y-102491203D01*
X137442028Y-102491203D02*
X137513457Y-102348346D01*
X137513457Y-102348346D02*
X137584885Y-102276917D01*
X138156314Y-102276917D02*
X137584885Y-102276917D01*
X137584885Y-102276917D02*
X137513457Y-102205489D01*
X137513457Y-102205489D02*
X137513457Y-102134060D01*
X137513457Y-102134060D02*
X137584885Y-101991203D01*
X137584885Y-101991203D02*
X137727742Y-101919774D01*
X137727742Y-101919774D02*
X138084885Y-101919774D01*
X138084885Y-101919774D02*
X138299171Y-102062632D01*
X138299171Y-102062632D02*
X138442028Y-102276917D01*
X138442028Y-102276917D02*
X138513457Y-102562632D01*
X138513457Y-102562632D02*
X138442028Y-102848346D01*
X138442028Y-102848346D02*
X138299171Y-103062632D01*
X138299171Y-103062632D02*
X138084885Y-103205489D01*
X138084885Y-103205489D02*
X137799171Y-103276917D01*
X137799171Y-103276917D02*
X137513457Y-103205489D01*
X137513457Y-103205489D02*
X137299171Y-103062632D01*
X137299171Y-103062632D02*
X137156314Y-102848346D01*
X137156314Y-102848346D02*
X137084885Y-102562632D01*
X137084885Y-102562632D02*
X137156314Y-102276917D01*
X137156314Y-102276917D02*
X137299171Y-102062632D01*
X138299171Y-100634061D02*
X137084885Y-100634061D01*
X137084885Y-100634061D02*
X136942028Y-100705489D01*
X136942028Y-100705489D02*
X136870600Y-100776918D01*
X136870600Y-100776918D02*
X136799171Y-100919775D01*
X136799171Y-100919775D02*
X136799171Y-101134061D01*
X136799171Y-101134061D02*
X136870600Y-101276918D01*
X137370600Y-100634061D02*
X137299171Y-100776918D01*
X137299171Y-100776918D02*
X137299171Y-101062632D01*
X137299171Y-101062632D02*
X137370600Y-101205489D01*
X137370600Y-101205489D02*
X137442028Y-101276918D01*
X137442028Y-101276918D02*
X137584885Y-101348346D01*
X137584885Y-101348346D02*
X138013457Y-101348346D01*
X138013457Y-101348346D02*
X138156314Y-101276918D01*
X138156314Y-101276918D02*
X138227742Y-101205489D01*
X138227742Y-101205489D02*
X138299171Y-101062632D01*
X138299171Y-101062632D02*
X138299171Y-100776918D01*
X138299171Y-100776918D02*
X138227742Y-100634061D01*
X137299171Y-99919775D02*
X138299171Y-99919775D01*
X138013457Y-99919775D02*
X138156314Y-99848346D01*
X138156314Y-99848346D02*
X138227742Y-99776918D01*
X138227742Y-99776918D02*
X138299171Y-99634060D01*
X138299171Y-99634060D02*
X138299171Y-99491203D01*
X137299171Y-98348347D02*
X138084885Y-98348347D01*
X138084885Y-98348347D02*
X138227742Y-98419775D01*
X138227742Y-98419775D02*
X138299171Y-98562632D01*
X138299171Y-98562632D02*
X138299171Y-98848347D01*
X138299171Y-98848347D02*
X138227742Y-98991204D01*
X137370600Y-98348347D02*
X137299171Y-98491204D01*
X137299171Y-98491204D02*
X137299171Y-98848347D01*
X137299171Y-98848347D02*
X137370600Y-98991204D01*
X137370600Y-98991204D02*
X137513457Y-99062632D01*
X137513457Y-99062632D02*
X137656314Y-99062632D01*
X137656314Y-99062632D02*
X137799171Y-98991204D01*
X137799171Y-98991204D02*
X137870600Y-98848347D01*
X137870600Y-98848347D02*
X137870600Y-98491204D01*
X137870600Y-98491204D02*
X137942028Y-98348347D01*
X138299171Y-97634061D02*
X137299171Y-97634061D01*
X138156314Y-97634061D02*
X138227742Y-97562632D01*
X138227742Y-97562632D02*
X138299171Y-97419775D01*
X138299171Y-97419775D02*
X138299171Y-97205489D01*
X138299171Y-97205489D02*
X138227742Y-97062632D01*
X138227742Y-97062632D02*
X138084885Y-96991204D01*
X138084885Y-96991204D02*
X137299171Y-96991204D01*
X137299171Y-95634061D02*
X138799171Y-95634061D01*
X137370600Y-95634061D02*
X137299171Y-95776918D01*
X137299171Y-95776918D02*
X137299171Y-96062632D01*
X137299171Y-96062632D02*
X137370600Y-96205489D01*
X137370600Y-96205489D02*
X137442028Y-96276918D01*
X137442028Y-96276918D02*
X137584885Y-96348346D01*
X137584885Y-96348346D02*
X138013457Y-96348346D01*
X138013457Y-96348346D02*
X138156314Y-96276918D01*
X138156314Y-96276918D02*
X138227742Y-96205489D01*
X138227742Y-96205489D02*
X138299171Y-96062632D01*
X138299171Y-96062632D02*
X138299171Y-95776918D01*
X138299171Y-95776918D02*
X138227742Y-95634061D01*
X137299171Y-94705489D02*
X137370600Y-94848346D01*
X137370600Y-94848346D02*
X137442028Y-94919775D01*
X137442028Y-94919775D02*
X137584885Y-94991203D01*
X137584885Y-94991203D02*
X138013457Y-94991203D01*
X138013457Y-94991203D02*
X138156314Y-94919775D01*
X138156314Y-94919775D02*
X138227742Y-94848346D01*
X138227742Y-94848346D02*
X138299171Y-94705489D01*
X138299171Y-94705489D02*
X138299171Y-94491203D01*
X138299171Y-94491203D02*
X138227742Y-94348346D01*
X138227742Y-94348346D02*
X138156314Y-94276918D01*
X138156314Y-94276918D02*
X138013457Y-94205489D01*
X138013457Y-94205489D02*
X137584885Y-94205489D01*
X137584885Y-94205489D02*
X137442028Y-94276918D01*
X137442028Y-94276918D02*
X137370600Y-94348346D01*
X137370600Y-94348346D02*
X137299171Y-94491203D01*
X137299171Y-94491203D02*
X137299171Y-94705489D01*
X137299171Y-93348346D02*
X137370600Y-93491203D01*
X137370600Y-93491203D02*
X137513457Y-93562632D01*
X137513457Y-93562632D02*
X138799171Y-93562632D01*
X137299171Y-92134061D02*
X138799171Y-92134061D01*
X137370600Y-92134061D02*
X137299171Y-92276918D01*
X137299171Y-92276918D02*
X137299171Y-92562632D01*
X137299171Y-92562632D02*
X137370600Y-92705489D01*
X137370600Y-92705489D02*
X137442028Y-92776918D01*
X137442028Y-92776918D02*
X137584885Y-92848346D01*
X137584885Y-92848346D02*
X138013457Y-92848346D01*
X138013457Y-92848346D02*
X138156314Y-92776918D01*
X138156314Y-92776918D02*
X138227742Y-92705489D01*
X138227742Y-92705489D02*
X138299171Y-92562632D01*
X138299171Y-92562632D02*
X138299171Y-92276918D01*
X138299171Y-92276918D02*
X138227742Y-92134061D01*
X137299171Y-91419775D02*
X138299171Y-91419775D01*
X138799171Y-91419775D02*
X138727742Y-91491203D01*
X138727742Y-91491203D02*
X138656314Y-91419775D01*
X138656314Y-91419775D02*
X138727742Y-91348346D01*
X138727742Y-91348346D02*
X138799171Y-91419775D01*
X138799171Y-91419775D02*
X138656314Y-91419775D01*
X137299171Y-90062632D02*
X138084885Y-90062632D01*
X138084885Y-90062632D02*
X138227742Y-90134060D01*
X138227742Y-90134060D02*
X138299171Y-90276917D01*
X138299171Y-90276917D02*
X138299171Y-90562632D01*
X138299171Y-90562632D02*
X138227742Y-90705489D01*
X137370600Y-90062632D02*
X137299171Y-90205489D01*
X137299171Y-90205489D02*
X137299171Y-90562632D01*
X137299171Y-90562632D02*
X137370600Y-90705489D01*
X137370600Y-90705489D02*
X137513457Y-90776917D01*
X137513457Y-90776917D02*
X137656314Y-90776917D01*
X137656314Y-90776917D02*
X137799171Y-90705489D01*
X137799171Y-90705489D02*
X137870600Y-90562632D01*
X137870600Y-90562632D02*
X137870600Y-90205489D01*
X137870600Y-90205489D02*
X137942028Y-90062632D01*
X138299171Y-89348346D02*
X137299171Y-89348346D01*
X138156314Y-89348346D02*
X138227742Y-89276917D01*
X138227742Y-89276917D02*
X138299171Y-89134060D01*
X138299171Y-89134060D02*
X138299171Y-88919774D01*
X138299171Y-88919774D02*
X138227742Y-88776917D01*
X138227742Y-88776917D02*
X138084885Y-88705489D01*
X138084885Y-88705489D02*
X137299171Y-88705489D01*
X137299171Y-86062631D02*
X137299171Y-86919774D01*
X137299171Y-86491203D02*
X138799171Y-86491203D01*
X138799171Y-86491203D02*
X138584885Y-86634060D01*
X138584885Y-86634060D02*
X138442028Y-86776917D01*
X138442028Y-86776917D02*
X138370600Y-86919774D01*
X137299171Y-84634060D02*
X137299171Y-85491203D01*
X137299171Y-85062632D02*
X138799171Y-85062632D01*
X138799171Y-85062632D02*
X138584885Y-85205489D01*
X138584885Y-85205489D02*
X138442028Y-85348346D01*
X138442028Y-85348346D02*
X138370600Y-85491203D01*
X138870600Y-82919775D02*
X136942028Y-84205489D01*
X138656314Y-82491203D02*
X138727742Y-82419775D01*
X138727742Y-82419775D02*
X138799171Y-82276918D01*
X138799171Y-82276918D02*
X138799171Y-81919775D01*
X138799171Y-81919775D02*
X138727742Y-81776918D01*
X138727742Y-81776918D02*
X138656314Y-81705489D01*
X138656314Y-81705489D02*
X138513457Y-81634060D01*
X138513457Y-81634060D02*
X138370600Y-81634060D01*
X138370600Y-81634060D02*
X138156314Y-81705489D01*
X138156314Y-81705489D02*
X137299171Y-82562632D01*
X137299171Y-82562632D02*
X137299171Y-81634060D01*
X138799171Y-80705489D02*
X138799171Y-80562632D01*
X138799171Y-80562632D02*
X138727742Y-80419775D01*
X138727742Y-80419775D02*
X138656314Y-80348347D01*
X138656314Y-80348347D02*
X138513457Y-80276918D01*
X138513457Y-80276918D02*
X138227742Y-80205489D01*
X138227742Y-80205489D02*
X137870600Y-80205489D01*
X137870600Y-80205489D02*
X137584885Y-80276918D01*
X137584885Y-80276918D02*
X137442028Y-80348347D01*
X137442028Y-80348347D02*
X137370600Y-80419775D01*
X137370600Y-80419775D02*
X137299171Y-80562632D01*
X137299171Y-80562632D02*
X137299171Y-80705489D01*
X137299171Y-80705489D02*
X137370600Y-80848347D01*
X137370600Y-80848347D02*
X137442028Y-80919775D01*
X137442028Y-80919775D02*
X137584885Y-80991204D01*
X137584885Y-80991204D02*
X137870600Y-81062632D01*
X137870600Y-81062632D02*
X138227742Y-81062632D01*
X138227742Y-81062632D02*
X138513457Y-80991204D01*
X138513457Y-80991204D02*
X138656314Y-80919775D01*
X138656314Y-80919775D02*
X138727742Y-80848347D01*
X138727742Y-80848347D02*
X138799171Y-80705489D01*
X138656314Y-79634061D02*
X138727742Y-79562633D01*
X138727742Y-79562633D02*
X138799171Y-79419776D01*
X138799171Y-79419776D02*
X138799171Y-79062633D01*
X138799171Y-79062633D02*
X138727742Y-78919776D01*
X138727742Y-78919776D02*
X138656314Y-78848347D01*
X138656314Y-78848347D02*
X138513457Y-78776918D01*
X138513457Y-78776918D02*
X138370600Y-78776918D01*
X138370600Y-78776918D02*
X138156314Y-78848347D01*
X138156314Y-78848347D02*
X137299171Y-79705490D01*
X137299171Y-79705490D02*
X137299171Y-78776918D01*
X138299171Y-77491205D02*
X137299171Y-77491205D01*
X138870600Y-77848347D02*
X137799171Y-78205490D01*
X137799171Y-78205490D02*
X137799171Y-77276919D01*
D11*
X127463094Y-51229819D02*
X127463094Y-50229819D01*
X127463094Y-50229819D02*
X127082142Y-50229819D01*
X127082142Y-50229819D02*
X126986904Y-50277438D01*
X126986904Y-50277438D02*
X126939285Y-50325057D01*
X126939285Y-50325057D02*
X126891666Y-50420295D01*
X126891666Y-50420295D02*
X126891666Y-50563152D01*
X126891666Y-50563152D02*
X126939285Y-50658390D01*
X126939285Y-50658390D02*
X126986904Y-50706009D01*
X126986904Y-50706009D02*
X127082142Y-50753628D01*
X127082142Y-50753628D02*
X127463094Y-50753628D01*
X126510713Y-51182200D02*
X126367856Y-51229819D01*
X126367856Y-51229819D02*
X126129761Y-51229819D01*
X126129761Y-51229819D02*
X126034523Y-51182200D01*
X126034523Y-51182200D02*
X125986904Y-51134580D01*
X125986904Y-51134580D02*
X125939285Y-51039342D01*
X125939285Y-51039342D02*
X125939285Y-50944104D01*
X125939285Y-50944104D02*
X125986904Y-50848866D01*
X125986904Y-50848866D02*
X126034523Y-50801247D01*
X126034523Y-50801247D02*
X126129761Y-50753628D01*
X126129761Y-50753628D02*
X126320237Y-50706009D01*
X126320237Y-50706009D02*
X126415475Y-50658390D01*
X126415475Y-50658390D02*
X126463094Y-50610771D01*
X126463094Y-50610771D02*
X126510713Y-50515533D01*
X126510713Y-50515533D02*
X126510713Y-50420295D01*
X126510713Y-50420295D02*
X126463094Y-50325057D01*
X126463094Y-50325057D02*
X126415475Y-50277438D01*
X126415475Y-50277438D02*
X126320237Y-50229819D01*
X126320237Y-50229819D02*
X126082142Y-50229819D01*
X126082142Y-50229819D02*
X125939285Y-50277438D01*
X124796428Y-50182200D02*
X125653570Y-51467914D01*
X124510713Y-50325057D02*
X124463094Y-50277438D01*
X124463094Y-50277438D02*
X124367856Y-50229819D01*
X124367856Y-50229819D02*
X124129761Y-50229819D01*
X124129761Y-50229819D02*
X124034523Y-50277438D01*
X124034523Y-50277438D02*
X123986904Y-50325057D01*
X123986904Y-50325057D02*
X123939285Y-50420295D01*
X123939285Y-50420295D02*
X123939285Y-50515533D01*
X123939285Y-50515533D02*
X123986904Y-50658390D01*
X123986904Y-50658390D02*
X124558332Y-51229819D01*
X124558332Y-51229819D02*
X123939285Y-51229819D01*
D12*
%TO.C,J2*%
X133760000Y-52250000D02*
X117560000Y-52250000D01*
X133760000Y-39250000D02*
X133760000Y-52250000D01*
X133760000Y-39250000D02*
X117560000Y-39250000D01*
X117560000Y-39250000D02*
X117560000Y-52250000D01*
%TD*%
M02*
