M48
; DRILL file {KiCad 8.0.5} date 2024-11-15T12:40:47+0000
; FORMAT={-:-/ absolute / inch / decimal}
; #@! TF.CreationDate,2024-11-15T12:40:47+00:00
; #@! TF.GenerationSoftware,Kicad,Pcbnew,8.0.5
; #@! TF.FileFunction,Plated,1,2,PTH
FMAT,2
INCH
; #@! TA.AperFunction,Plated,PTH,ViaDrill
T1C0.0157
; #@! TA.AperFunction,Plated,PTH,ComponentDrill
T2C0.0315
; #@! TA.AperFunction,Plated,PTH,ComponentDrill
T3C0.0354
; #@! TA.AperFunction,Plated,PTH,ComponentDrill
T4C0.0394
%
G90
G05
T1
X4.5673Y-2.7634
X4.5988Y-2.6594
X4.6224Y-2.235
X4.6539Y-2.3205
T2
X4.4732Y-2.6634
X4.4732Y-2.7634
X4.4732Y-2.8634
X4.4732Y-2.9634
X4.4732Y-3.0634
X4.4732Y-3.1634
X4.4732Y-3.2634
X4.4732Y-3.3634
X4.4732Y-3.4634
X4.4732Y-3.5634
X4.4732Y-3.6634
X4.4732Y-3.7634
X4.4732Y-3.8634
X4.4732Y-3.9634
X4.7728Y-2.6634
X4.7728Y-2.7634
X4.7728Y-2.8634
X4.7728Y-2.9634
X4.7728Y-3.0634
X4.7728Y-3.1634
X4.7728Y-3.2634
X4.7728Y-3.3634
X4.7728Y-3.4634
X4.7728Y-3.5634
X4.7728Y-3.6634
X4.7728Y-3.7634
X4.7728Y-3.8634
X4.7728Y-3.9634
X4.7996Y-2.1512
X4.7996Y-2.235
X4.7996Y-2.3189
X4.8134Y-1.8839
X4.8134Y-1.9941
X4.8807Y-2.715
X4.8807Y-3.015
X4.8874Y-3.1587
X4.8874Y-3.3587
X4.8961Y-1.8839
X4.9122Y-3.8705
X4.9122Y-3.9665
X4.9945Y-3.1236
X4.9945Y-3.2079
X4.9984Y-1.8839
X5.0598Y-3.702
X5.0811Y-1.8839
X5.0811Y-1.9941
X5.0996Y-2.1512
X5.0996Y-2.235
X5.0996Y-2.3189
X5.1122Y-3.8705
X5.1122Y-3.9665
X5.115Y-3.4429
X5.215Y-3.4429
X5.252Y-3.702
X5.2945Y-3.1236
X5.2945Y-3.2079
X5.315Y-3.4429
T3
X5.2656Y-2.1138
X5.3656Y-2.1138
T4
X4.5055Y-2.1547
X4.5055Y-2.2547
X4.5055Y-2.3547
X4.5055Y-2.4547
X4.797Y-2.4553
X4.897Y-2.4553
X4.997Y-2.4553
X5.0803Y-2.7827
X5.097Y-2.4553
X5.3362Y-2.7827
T4
G00X4.6776Y-1.7421
M15
G01X4.6776Y-1.8012
M16
G05
G00X4.9079Y-1.7402
M15
G01X4.9866Y-1.7402
M16
G05
G00X5.2169Y-1.7421
M15
G01X5.2169Y-1.8012
M16
G05
M30
