%TF.GenerationSoftware,KiCad,Pcbnew,8.0.1*%
%TF.CreationDate,2024-04-11T22:34:35+01:00*%
%TF.ProjectId,TIMAYSound,54494d41-5953-46f7-956e-642e6b696361,rev?*%
%TF.SameCoordinates,Original*%
%TF.FileFunction,Soldermask,Top*%
%TF.FilePolarity,Negative*%
%FSLAX46Y46*%
G04 Gerber Fmt 4.6, Leading zero omitted, Abs format (unit mm)*
G04 Created by KiCad (PCBNEW 8.0.1) date 2024-04-11 22:34:35*
%MOMM*%
%LPD*%
G01*
G04 APERTURE LIST*
%ADD10C,1.600000*%
%ADD11C,1.200000*%
%ADD12O,1.308000X2.616000*%
%ADD13O,2.616000X1.308000*%
%ADD14R,1.700000X1.700000*%
%ADD15O,1.700000X1.700000*%
%ADD16O,1.600000X1.600000*%
%ADD17R,1.600000X1.600000*%
%ADD18C,1.500000*%
%ADD19C,4.000000*%
G04 APERTURE END LIST*
D10*
%TO.C,C204*%
X77010000Y-87930000D03*
X77010000Y-82930000D03*
%TD*%
%TO.C,C203*%
X120680000Y-87930000D03*
X120680000Y-82930000D03*
%TD*%
D11*
%TO.C,J201*%
X52590000Y-90802500D03*
X52590000Y-100802500D03*
X55090000Y-90802500D03*
X55090000Y-100802500D03*
X60090000Y-95802500D03*
D12*
X55090000Y-95802500D03*
D13*
X60090000Y-100802500D03*
X60090000Y-90802500D03*
X60090000Y-98302500D03*
X60090000Y-93302500D03*
%TD*%
D10*
%TO.C,C202*%
X97730000Y-98930000D03*
X102730000Y-98930000D03*
%TD*%
D14*
%TO.C,P2*%
X59916000Y-49879000D03*
D15*
X59916000Y-47339000D03*
X62456000Y-49879000D03*
X62456000Y-47339000D03*
X64996000Y-49879000D03*
X64996000Y-47339000D03*
X67536000Y-49879000D03*
X67536000Y-47339000D03*
X70076000Y-49879000D03*
X70076000Y-47339000D03*
X72616000Y-49879000D03*
X72616000Y-47339000D03*
X75156000Y-49879000D03*
X75156000Y-47339000D03*
X77696000Y-49879000D03*
X77696000Y-47339000D03*
X80236000Y-49879000D03*
X80236000Y-47339000D03*
X82776000Y-49879000D03*
X82776000Y-47339000D03*
X85316000Y-49879000D03*
X85316000Y-47339000D03*
X87856000Y-49879000D03*
X87856000Y-47339000D03*
X90396000Y-49879000D03*
X90396000Y-47339000D03*
X92936000Y-49879000D03*
X92936000Y-47339000D03*
X95476000Y-49879000D03*
X95476000Y-47339000D03*
X98016000Y-49879000D03*
X98016000Y-47339000D03*
X100556000Y-49879000D03*
X100556000Y-47339000D03*
X103096000Y-49879000D03*
X103096000Y-47339000D03*
X105636000Y-49879000D03*
X105636000Y-47339000D03*
X108176000Y-49879000D03*
X108176000Y-47339000D03*
%TD*%
D10*
%TO.C,R201*%
X66070000Y-87730000D03*
D16*
X66070000Y-75030000D03*
%TD*%
D17*
%TO.C,U202*%
X116880000Y-57030000D03*
D16*
X114340000Y-57030000D03*
X111800000Y-57030000D03*
X109260000Y-57030000D03*
X106720000Y-57030000D03*
X104180000Y-57030000D03*
X101640000Y-57030000D03*
X99100000Y-57030000D03*
X96560000Y-57030000D03*
X94020000Y-57030000D03*
X91480000Y-57030000D03*
X88940000Y-57030000D03*
X86400000Y-57030000D03*
X83860000Y-57030000D03*
X81320000Y-57030000D03*
X78780000Y-57030000D03*
X76240000Y-57030000D03*
X73700000Y-57030000D03*
X71160000Y-57030000D03*
X68620000Y-57030000D03*
X68620000Y-72270000D03*
X71160000Y-72270000D03*
X73700000Y-72270000D03*
X76240000Y-72270000D03*
X78780000Y-72270000D03*
X81320000Y-72270000D03*
X83860000Y-72270000D03*
X86400000Y-72270000D03*
X88940000Y-72270000D03*
X91480000Y-72270000D03*
X94020000Y-72270000D03*
X96560000Y-72270000D03*
X99100000Y-72270000D03*
X101640000Y-72270000D03*
X104180000Y-72270000D03*
X106720000Y-72270000D03*
X109260000Y-72270000D03*
X111800000Y-72270000D03*
X114340000Y-72270000D03*
X116880000Y-72270000D03*
%TD*%
D10*
%TO.C,R207*%
X81810000Y-99920000D03*
D16*
X69110000Y-99920000D03*
%TD*%
D10*
%TO.C,R209*%
X81810000Y-96190000D03*
D16*
X69110000Y-96190000D03*
%TD*%
D10*
%TO.C,R211*%
X102800000Y-93200000D03*
D16*
X90100000Y-93200000D03*
%TD*%
D18*
%TO.C,Y201*%
X105137500Y-95410000D03*
X105137500Y-100310000D03*
%TD*%
D10*
%TO.C,C205*%
X120770000Y-67155000D03*
X120770000Y-62155000D03*
%TD*%
D14*
%TO.C,P1*%
X59910000Y-44790000D03*
D15*
X59910000Y-42250000D03*
X62450000Y-44790000D03*
X62450000Y-42250000D03*
X64990000Y-44790000D03*
X64990000Y-42250000D03*
X67530000Y-44790000D03*
X67530000Y-42250000D03*
X70070000Y-44790000D03*
X70070000Y-42250000D03*
X72610000Y-44790000D03*
X72610000Y-42250000D03*
X75150000Y-44790000D03*
X75150000Y-42250000D03*
X77690000Y-44790000D03*
X77690000Y-42250000D03*
X80230000Y-44790000D03*
X80230000Y-42250000D03*
X82770000Y-44790000D03*
X82770000Y-42250000D03*
X85310000Y-44790000D03*
X85310000Y-42250000D03*
X87850000Y-44790000D03*
X87850000Y-42250000D03*
X90390000Y-44790000D03*
X90390000Y-42250000D03*
X92930000Y-44790000D03*
X92930000Y-42250000D03*
X95470000Y-44790000D03*
X95470000Y-42250000D03*
X98010000Y-44790000D03*
X98010000Y-42250000D03*
X100550000Y-44790000D03*
X100550000Y-42250000D03*
X103090000Y-44790000D03*
X103090000Y-42250000D03*
X105630000Y-44790000D03*
X105630000Y-42250000D03*
X108170000Y-44790000D03*
X108170000Y-42250000D03*
%TD*%
D10*
%TO.C,R202*%
X69860000Y-87730000D03*
D16*
X69860000Y-75030000D03*
%TD*%
D10*
%TO.C,R203*%
X73570000Y-87730000D03*
D16*
X73570000Y-75030000D03*
%TD*%
D17*
%TO.C,NR201*%
X86410000Y-53570000D03*
D16*
X83870000Y-53570000D03*
X81330000Y-53570000D03*
X78790000Y-53570000D03*
X76250000Y-53570000D03*
X73710000Y-53570000D03*
X71170000Y-53570000D03*
X68630000Y-53570000D03*
X66090000Y-53570000D03*
%TD*%
D19*
%TO.C,J202*%
X59840000Y-59995000D03*
X59840000Y-84995000D03*
D17*
X61260000Y-66955000D03*
D10*
X61260000Y-69725000D03*
X61260000Y-72495000D03*
X61260000Y-75265000D03*
X61260000Y-78035000D03*
X58420000Y-68340000D03*
X58420000Y-71110000D03*
X58420000Y-73880000D03*
X58420000Y-76650000D03*
%TD*%
%TO.C,C201*%
X97730000Y-96480000D03*
X102730000Y-96480000D03*
%TD*%
%TO.C,R212*%
X90100000Y-102280000D03*
D16*
X102800000Y-102280000D03*
%TD*%
D10*
%TO.C,R205*%
X66090000Y-102610000D03*
D16*
X66090000Y-89910000D03*
%TD*%
D17*
%TO.C,U204*%
X116860000Y-81630000D03*
D16*
X114320000Y-81630000D03*
X111780000Y-81630000D03*
X109240000Y-81630000D03*
X106700000Y-81630000D03*
X104160000Y-81630000D03*
X101620000Y-81630000D03*
X101620000Y-89250000D03*
X104160000Y-89250000D03*
X106700000Y-89250000D03*
X109240000Y-89250000D03*
X111780000Y-89250000D03*
X114320000Y-89250000D03*
X116860000Y-89250000D03*
%TD*%
D17*
%TO.C,U201*%
X112120000Y-60590000D03*
D16*
X109580000Y-60590000D03*
X107040000Y-60590000D03*
X104500000Y-60590000D03*
X101960000Y-60590000D03*
X99420000Y-60590000D03*
X96880000Y-60590000D03*
X94340000Y-60590000D03*
X91800000Y-60590000D03*
X89260000Y-60590000D03*
X86720000Y-60590000D03*
X84180000Y-60590000D03*
X81640000Y-60590000D03*
X79100000Y-60590000D03*
X79100000Y-75830000D03*
X81640000Y-75830000D03*
X84180000Y-75830000D03*
X86720000Y-75830000D03*
X89260000Y-75830000D03*
X91800000Y-75830000D03*
X94340000Y-75830000D03*
X96880000Y-75830000D03*
X99420000Y-75830000D03*
X101960000Y-75830000D03*
X104500000Y-75830000D03*
X107040000Y-75830000D03*
X109580000Y-75830000D03*
X112120000Y-75830000D03*
%TD*%
D10*
%TO.C,R210*%
X81810000Y-92470000D03*
D16*
X69110000Y-92470000D03*
%TD*%
D17*
%TO.C,U203*%
X95212500Y-81630000D03*
D16*
X92672500Y-81630000D03*
X90132500Y-81630000D03*
X87592500Y-81630000D03*
X85052500Y-81630000D03*
X82512500Y-81630000D03*
X79972500Y-81630000D03*
X79972500Y-89250000D03*
X82512500Y-89250000D03*
X85052500Y-89250000D03*
X87592500Y-89250000D03*
X90132500Y-89250000D03*
X92672500Y-89250000D03*
X95212500Y-89250000D03*
%TD*%
M02*
