M48
; DRILL file {KiCad 8.0.1} date 2024-04-11T22:34:32+0100
; FORMAT={-:-/ absolute / inch / decimal}
; #@! TF.CreationDate,2024-04-11T22:34:32+01:00
; #@! TF.GenerationSoftware,Kicad,Pcbnew,8.0.1
; #@! TF.FileFunction,Plated,1,2,PTH
FMAT,2
INCH
; #@! TA.AperFunction,Plated,PTH,ViaDrill
T1C0.0315
; #@! TA.AperFunction,Plated,PTH,ComponentDrill
T2C0.0315
; #@! TA.AperFunction,Plated,PTH,ComponentDrill
T3C0.0394
; #@! TA.AperFunction,Plated,PTH,ComponentDrill
T4C0.1260
%
G90
G05
T1
X2.5072Y-2.228
X2.5328Y-2.1169
X2.9723Y-2.7082
X3.2323Y-2.6663
X3.3642Y-2.4966
X3.8232Y-2.4722
X4.0595Y-2.5488
X4.2016Y-2.548
X4.2571Y-2.4401
X4.4837Y-2.4178
X4.5562Y-2.4403
X4.5654Y-2.0476
T2
X2.6012Y-2.9539
X2.6012Y-3.4539
X2.602Y-2.1091
X2.602Y-3.5398
X2.602Y-4.0398
X2.7016Y-2.2453
X2.7016Y-2.8453
X2.702Y-2.1091
X2.7209Y-3.6406
X2.7209Y-3.787
X2.7209Y-3.9339
X2.7504Y-2.9539
X2.7504Y-3.4539
X2.8016Y-2.2453
X2.8016Y-2.8453
X2.802Y-2.1091
X2.8965Y-2.9539
X2.8965Y-3.4539
X2.9016Y-2.2453
X2.9016Y-2.8453
X2.902Y-2.1091
X3.0016Y-2.2453
X3.0016Y-2.8453
X3.002Y-2.1091
X3.0319Y-3.265
X3.0319Y-3.4618
X3.1016Y-2.2453
X3.1016Y-2.8453
X3.102Y-2.1091
X3.1142Y-2.3854
X3.1142Y-2.9854
X3.1485Y-3.2138
X3.1485Y-3.5138
X3.2016Y-2.2453
X3.2016Y-2.8453
X3.202Y-2.1091
X3.2142Y-2.3854
X3.2142Y-2.9854
X3.2209Y-3.6406
X3.2209Y-3.787
X3.2209Y-3.9339
X3.2485Y-3.2138
X3.2485Y-3.5138
X3.3016Y-2.2453
X3.3016Y-2.8453
X3.302Y-2.1091
X3.3142Y-2.3854
X3.3142Y-2.9854
X3.3485Y-3.2138
X3.3485Y-3.5138
X3.4016Y-2.2453
X3.4016Y-2.8453
X3.402Y-2.1091
X3.4142Y-2.3854
X3.4142Y-2.9854
X3.4485Y-3.2138
X3.4485Y-3.5138
X3.5016Y-2.2453
X3.5016Y-2.8453
X3.5142Y-2.3854
X3.5142Y-2.9854
X3.5472Y-3.6693
X3.5472Y-4.0268
X3.5485Y-3.2138
X3.5485Y-3.5138
X3.6016Y-2.2453
X3.6016Y-2.8453
X3.6142Y-2.3854
X3.6142Y-2.9854
X3.6485Y-3.2138
X3.6485Y-3.5138
X3.7016Y-2.2453
X3.7016Y-2.8453
X3.7142Y-2.3854
X3.7142Y-2.9854
X3.7485Y-3.2138
X3.7485Y-3.5138
X3.8016Y-2.2453
X3.8016Y-2.8453
X3.8142Y-2.3854
X3.8142Y-2.9854
X3.8476Y-3.7984
X3.8476Y-3.8949
X3.9016Y-2.2453
X3.9016Y-2.8453
X3.9142Y-2.3854
X3.9142Y-2.9854
X4.0008Y-3.2138
X4.0008Y-3.5138
X4.0016Y-2.2453
X4.0016Y-2.8453
X4.0142Y-2.3854
X4.0142Y-2.9854
X4.0445Y-3.7984
X4.0445Y-3.8949
X4.0472Y-3.6693
X4.0472Y-4.0268
X4.1008Y-3.2138
X4.1008Y-3.5138
X4.1016Y-2.2453
X4.1016Y-2.8453
X4.1142Y-2.3854
X4.1142Y-2.9854
X4.1393Y-3.7563
X4.1393Y-3.9492
X4.2008Y-3.2138
X4.2008Y-3.5138
X4.2016Y-2.2453
X4.2016Y-2.8453
X4.2142Y-2.3854
X4.2142Y-2.9854
X4.3008Y-3.2138
X4.3008Y-3.5138
X4.3016Y-2.2453
X4.3016Y-2.8453
X4.3142Y-2.3854
X4.3142Y-2.9854
X4.4008Y-3.2138
X4.4008Y-3.5138
X4.4016Y-2.2453
X4.4016Y-2.8453
X4.4142Y-2.3854
X4.4142Y-2.9854
X4.5008Y-3.2138
X4.5008Y-3.5138
X4.5016Y-2.2453
X4.5016Y-2.8453
X4.6008Y-3.2138
X4.6008Y-3.5138
X4.6016Y-2.2453
X4.6016Y-2.8453
X4.7512Y-3.265
X4.7512Y-3.4618
X4.7547Y-2.447
X4.7547Y-2.6439
T3
X2.3Y-2.6906
X2.3Y-2.7996
X2.3Y-2.9087
X2.3Y-3.0177
X2.3587Y-1.6634
X2.3587Y-1.7634
X2.3589Y-1.8637
X2.3589Y-1.9637
X2.4118Y-2.636
X2.4118Y-2.7451
X2.4118Y-2.8541
X2.4118Y-2.9632
X2.4118Y-3.0722
X2.4587Y-1.6634
X2.4587Y-1.7634
X2.4589Y-1.8637
X2.4589Y-1.9637
X2.5587Y-1.6634
X2.5587Y-1.7634
X2.5589Y-1.8637
X2.5589Y-1.9637
X2.6587Y-1.6634
X2.6587Y-1.7634
X2.6589Y-1.8637
X2.6589Y-1.9637
X2.7587Y-1.6634
X2.7587Y-1.7634
X2.7589Y-1.8637
X2.7589Y-1.9637
X2.8587Y-1.6634
X2.8587Y-1.7634
X2.8589Y-1.8637
X2.8589Y-1.9637
X2.9587Y-1.6634
X2.9587Y-1.7634
X2.9589Y-1.8637
X2.9589Y-1.9637
X3.0587Y-1.6634
X3.0587Y-1.7634
X3.0589Y-1.8637
X3.0589Y-1.9637
X3.1587Y-1.6634
X3.1587Y-1.7634
X3.1589Y-1.8637
X3.1589Y-1.9637
X3.2587Y-1.6634
X3.2587Y-1.7634
X3.2589Y-1.8637
X3.2589Y-1.9637
X3.3587Y-1.6634
X3.3587Y-1.7634
X3.3589Y-1.8637
X3.3589Y-1.9637
X3.4587Y-1.6634
X3.4587Y-1.7634
X3.4589Y-1.8637
X3.4589Y-1.9637
X3.5587Y-1.6634
X3.5587Y-1.7634
X3.5589Y-1.8637
X3.5589Y-1.9637
X3.6587Y-1.6634
X3.6587Y-1.7634
X3.6589Y-1.8637
X3.6589Y-1.9637
X3.7587Y-1.6634
X3.7587Y-1.7634
X3.7589Y-1.8637
X3.7589Y-1.9637
X3.8587Y-1.6634
X3.8587Y-1.7634
X3.8589Y-1.8637
X3.8589Y-1.9637
X3.9587Y-1.6634
X3.9587Y-1.7634
X3.9589Y-1.8637
X3.9589Y-1.9637
X4.0587Y-1.6634
X4.0587Y-1.7634
X4.0589Y-1.8637
X4.0589Y-1.9637
X4.1587Y-1.6634
X4.1587Y-1.7634
X4.1589Y-1.8637
X4.1589Y-1.9637
X4.2587Y-1.6634
X4.2587Y-1.7634
X4.2589Y-1.8637
X4.2589Y-1.9637
T4
X2.3559Y-2.362
X2.3559Y-3.3463
T2
G00X2.1689Y-3.758
M15
G01X2.1689Y-3.7855
M16
G05
G00X2.352Y-3.5749
M15
G01X2.3795Y-3.5749
M16
G05
G00X2.352Y-3.6733
M15
G01X2.3795Y-3.6733
M16
G05
G00X2.352Y-3.8702
M15
G01X2.3795Y-3.8702
M16
G05
G00X2.352Y-3.9686
M15
G01X2.3795Y-3.9686
M16
G05
M30
