%TF.GenerationSoftware,KiCad,Pcbnew,8.0.1*%
%TF.CreationDate,2024-04-11T22:34:34+01:00*%
%TF.ProjectId,TIMAYSound,54494d41-5953-46f7-956e-642e6b696361,rev?*%
%TF.SameCoordinates,Original*%
%TF.FileFunction,Copper,L1,Top*%
%TF.FilePolarity,Positive*%
%FSLAX46Y46*%
G04 Gerber Fmt 4.6, Leading zero omitted, Abs format (unit mm)*
G04 Created by KiCad (PCBNEW 8.0.1) date 2024-04-11 22:34:34*
%MOMM*%
%LPD*%
G01*
G04 APERTURE LIST*
%TA.AperFunction,ComponentPad*%
%ADD10C,1.600000*%
%TD*%
%TA.AperFunction,ComponentPad*%
%ADD11O,1.308000X2.616000*%
%TD*%
%TA.AperFunction,ComponentPad*%
%ADD12O,2.616000X1.308000*%
%TD*%
%TA.AperFunction,ComponentPad*%
%ADD13R,1.700000X1.700000*%
%TD*%
%TA.AperFunction,ComponentPad*%
%ADD14O,1.700000X1.700000*%
%TD*%
%TA.AperFunction,ComponentPad*%
%ADD15O,1.600000X1.600000*%
%TD*%
%TA.AperFunction,ComponentPad*%
%ADD16R,1.600000X1.600000*%
%TD*%
%TA.AperFunction,ComponentPad*%
%ADD17C,1.500000*%
%TD*%
%TA.AperFunction,ComponentPad*%
%ADD18C,4.000000*%
%TD*%
%TA.AperFunction,ViaPad*%
%ADD19C,1.500000*%
%TD*%
%TA.AperFunction,Conductor*%
%ADD20C,0.300000*%
%TD*%
%TA.AperFunction,Conductor*%
%ADD21C,0.800000*%
%TD*%
%TA.AperFunction,Conductor*%
%ADD22C,1.400000*%
%TD*%
G04 APERTURE END LIST*
D10*
%TO.P,C204,1*%
%TO.N,+5V*%
X77010000Y-87930000D03*
%TO.P,C204,2*%
%TO.N,GND*%
X77010000Y-82930000D03*
%TD*%
%TO.P,C203,1*%
%TO.N,+5V*%
X120680000Y-87930000D03*
%TO.P,C203,2*%
%TO.N,GND*%
X120680000Y-82930000D03*
%TD*%
D11*
%TO.P,J201,1,1*%
%TO.N,GND*%
X55090000Y-95802500D03*
D12*
%TO.P,J201,2,2*%
%TO.N,Net-(J201-Pad2)*%
X60090000Y-100802500D03*
%TO.P,J201,3,Ground*%
%TO.N,Net-(J201-Ground)*%
X60090000Y-90802500D03*
%TO.P,J201,10,10*%
%TO.N,unconnected-(J201-Pad10)*%
X60090000Y-98302500D03*
%TO.P,J201,11,11*%
%TO.N,unconnected-(J201-Pad11)*%
X60090000Y-93302500D03*
%TD*%
D10*
%TO.P,C202,1*%
%TO.N,GND*%
X97730000Y-98930000D03*
%TO.P,C202,2*%
%TO.N,Net-(C202-Pad2)*%
X102730000Y-98930000D03*
%TD*%
D13*
%TO.P,P2,1,Pin_1*%
%TO.N,+5V*%
X59916000Y-49879000D03*
D14*
%TO.P,P2,2,Pin_2*%
X59916000Y-47339000D03*
%TO.P,P2,3,Pin_3*%
%TO.N,GND*%
X62456000Y-49879000D03*
%TO.P,P2,4,Pin_4*%
X62456000Y-47339000D03*
%TO.P,P2,5,Pin_5*%
%TO.N,~{RD}*%
X64996000Y-49879000D03*
%TO.P,P2,6,Pin_6*%
%TO.N,FI*%
X64996000Y-47339000D03*
%TO.P,P2,7,Pin_7*%
%TO.N,~{WR}*%
X67536000Y-49879000D03*
%TO.P,P2,8,Pin_8*%
%TO.N,~{RESET}*%
X67536000Y-47339000D03*
%TO.P,P2,9,Pin_9*%
%TO.N,E*%
X70076000Y-49879000D03*
%TO.P,P2,10,Pin_10*%
%TO.N,~{LIR}*%
X70076000Y-47339000D03*
%TO.P,P2,11,Pin_11*%
%TO.N,~{NMI}*%
X72616000Y-49879000D03*
%TO.P,P2,12,Pin_12*%
%TO.N,EXPSEL_O*%
X72616000Y-47339000D03*
%TO.P,P2,13,Pin_13*%
%TO.N,~{WAIT}*%
X75156000Y-49879000D03*
%TO.P,P2,14,Pin_14*%
%TO.N,unconnected-(P2-Pin_14-Pad14)*%
X75156000Y-47339000D03*
%TO.P,P2,15,Pin_15*%
%TO.N,~{INT0}*%
X77696000Y-49879000D03*
%TO.P,P2,16,Pin_16*%
%TO.N,~{HALT}*%
X77696000Y-47339000D03*
%TO.P,P2,17,Pin_17*%
%TO.N,ST*%
X80236000Y-49879000D03*
%TO.P,P2,18,Pin_18*%
%TO.N,unconnected-(P2-Pin_18-Pad18)*%
X80236000Y-47339000D03*
%TO.P,P2,19,Pin_19*%
%TO.N,/A0*%
X82776000Y-49879000D03*
%TO.P,P2,20,Pin_20*%
%TO.N,/A1*%
X82776000Y-47339000D03*
%TO.P,P2,21,Pin_21*%
%TO.N,~{TEND0}*%
X85316000Y-49879000D03*
%TO.P,P2,22,Pin_22*%
%TO.N,/A2*%
X85316000Y-47339000D03*
%TO.P,P2,23,Pin_23*%
%TO.N,/A3*%
X87856000Y-49879000D03*
%TO.P,P2,24,Pin_24*%
%TO.N,/A4*%
X87856000Y-47339000D03*
%TO.P,P2,25,Pin_25*%
%TO.N,~{DREQ0}*%
X90396000Y-49879000D03*
%TO.P,P2,26,Pin_26*%
%TO.N,~{IOE}*%
X90396000Y-47339000D03*
%TO.P,P2,27,Pin_27*%
%TO.N,unconnected-(P2-Pin_27-Pad27)*%
X92936000Y-49879000D03*
%TO.P,P2,28,Pin_28*%
%TO.N,RESET*%
X92936000Y-47339000D03*
%TO.P,P2,29,Pin_29*%
%TO.N,/D7*%
X95476000Y-49879000D03*
%TO.P,P2,30,Pin_30*%
%TO.N,/D6*%
X95476000Y-47339000D03*
%TO.P,P2,31,Pin_31*%
%TO.N,/D5*%
X98016000Y-49879000D03*
%TO.P,P2,32,Pin_32*%
%TO.N,/D3*%
X98016000Y-47339000D03*
%TO.P,P2,33,Pin_33*%
%TO.N,/D4*%
X100556000Y-49879000D03*
%TO.P,P2,34,Pin_34*%
%TO.N,/D2*%
X100556000Y-47339000D03*
%TO.P,P2,35,Pin_35*%
%TO.N,/D1*%
X103096000Y-49879000D03*
%TO.P,P2,36,Pin_36*%
%TO.N,/D0*%
X103096000Y-47339000D03*
%TO.P,P2,37,Pin_37*%
%TO.N,GND*%
X105636000Y-49879000D03*
%TO.P,P2,38,Pin_38*%
X105636000Y-47339000D03*
%TO.P,P2,39,Pin_39*%
%TO.N,unconnected-(P2-Pin_39-Pad39)*%
X108176000Y-49879000D03*
%TO.P,P2,40,Pin_40*%
%TO.N,unconnected-(P2-Pin_40-Pad40)*%
X108176000Y-47339000D03*
%TD*%
D10*
%TO.P,R201,1*%
%TO.N,GND*%
X66070000Y-87730000D03*
D15*
%TO.P,R201,2*%
%TO.N,AYC*%
X66070000Y-75030000D03*
%TD*%
D16*
%TO.P,U202,1,GND*%
%TO.N,GND*%
X116880000Y-57030000D03*
D15*
%TO.P,U202,2,n/c*%
%TO.N,unconnected-(U202-n{slash}c-Pad2)*%
X114340000Y-57030000D03*
%TO.P,U202,3,B*%
%TO.N,AYB*%
X111800000Y-57030000D03*
%TO.P,U202,4,A*%
%TO.N,AYA*%
X109260000Y-57030000D03*
%TO.P,U202,5,n/c*%
%TO.N,unconnected-(U202-n{slash}c-Pad5)*%
X106720000Y-57030000D03*
%TO.P,U202,6,IOB7*%
%TO.N,unconnected-(U202-IOB7-Pad6)*%
X104180000Y-57030000D03*
%TO.P,U202,7,IOB6*%
%TO.N,unconnected-(U202-IOB6-Pad7)*%
X101640000Y-57030000D03*
%TO.P,U202,8,IOB5*%
%TO.N,unconnected-(U202-IOB5-Pad8)*%
X99100000Y-57030000D03*
%TO.P,U202,9,IOB4*%
%TO.N,unconnected-(U202-IOB4-Pad9)*%
X96560000Y-57030000D03*
%TO.P,U202,10,IOB3*%
%TO.N,unconnected-(U202-IOB3-Pad10)*%
X94020000Y-57030000D03*
%TO.P,U202,11,IOB2*%
%TO.N,unconnected-(U202-IOB2-Pad11)*%
X91480000Y-57030000D03*
%TO.P,U202,12,IOB1*%
%TO.N,unconnected-(U202-IOB1-Pad12)*%
X88940000Y-57030000D03*
%TO.P,U202,13,IOB0*%
%TO.N,unconnected-(U202-IOB0-Pad13)*%
X86400000Y-57030000D03*
%TO.P,U202,14,IOA7*%
%TO.N,/AYIO7*%
X83860000Y-57030000D03*
%TO.P,U202,15,IOA6*%
%TO.N,/AYIO6*%
X81320000Y-57030000D03*
%TO.P,U202,16,IOA5*%
%TO.N,/AYIO5*%
X78780000Y-57030000D03*
%TO.P,U202,17,IOA4*%
%TO.N,/AYIO4*%
X76240000Y-57030000D03*
%TO.P,U202,18,IOA3*%
%TO.N,/AYIO3*%
X73700000Y-57030000D03*
%TO.P,U202,19,IOA2*%
%TO.N,/AYIO2*%
X71160000Y-57030000D03*
%TO.P,U202,20,IOA1*%
%TO.N,/AYIO1*%
X68620000Y-57030000D03*
%TO.P,U202,21,IOA0*%
%TO.N,/AYIO0*%
X68620000Y-72270000D03*
%TO.P,U202,22,CLOCK*%
%TO.N,AYCLK*%
X71160000Y-72270000D03*
%TO.P,U202,23,~{RESET}*%
%TO.N,~{RESET}*%
X73700000Y-72270000D03*
%TO.P,U202,24,~{A9}*%
%TO.N,GND*%
X76240000Y-72270000D03*
%TO.P,U202,25,A8*%
%TO.N,+5V*%
X78780000Y-72270000D03*
%TO.P,U202,26,TEST_2*%
%TO.N,unconnected-(U202-TEST_2-Pad26)*%
X81320000Y-72270000D03*
%TO.P,U202,27,BDIR*%
%TO.N,AYBDIR*%
X83860000Y-72270000D03*
%TO.P,U202,28,BC2*%
%TO.N,+5V*%
X86400000Y-72270000D03*
%TO.P,U202,29,BC1*%
%TO.N,AYBC1*%
X88940000Y-72270000D03*
%TO.P,U202,30,DA7*%
%TO.N,/D7*%
X91480000Y-72270000D03*
%TO.P,U202,31,DA6*%
%TO.N,/D6*%
X94020000Y-72270000D03*
%TO.P,U202,32,DA5*%
%TO.N,/D5*%
X96560000Y-72270000D03*
%TO.P,U202,33,DA4*%
%TO.N,/D4*%
X99100000Y-72270000D03*
%TO.P,U202,34,DA3*%
%TO.N,/D3*%
X101640000Y-72270000D03*
%TO.P,U202,35,DA2*%
%TO.N,/D2*%
X104180000Y-72270000D03*
%TO.P,U202,36,DA1*%
%TO.N,/D1*%
X106720000Y-72270000D03*
%TO.P,U202,37,DA0*%
%TO.N,/D0*%
X109260000Y-72270000D03*
%TO.P,U202,38,C*%
%TO.N,AYC*%
X111800000Y-72270000D03*
%TO.P,U202,39,TEST_1*%
%TO.N,unconnected-(U202-TEST_1-Pad39)*%
X114340000Y-72270000D03*
%TO.P,U202,40,VCC*%
%TO.N,+5V*%
X116880000Y-72270000D03*
%TD*%
D10*
%TO.P,R207,1*%
%TO.N,Net-(J201-Pad2)*%
X81810000Y-99920000D03*
D15*
%TO.P,R207,2*%
%TO.N,AYA*%
X69110000Y-99920000D03*
%TD*%
D10*
%TO.P,R209,1*%
%TO.N,Net-(J201-Ground)*%
X81810000Y-96190000D03*
D15*
%TO.P,R209,2*%
%TO.N,AYA*%
X69110000Y-96190000D03*
%TD*%
D10*
%TO.P,R211,1*%
%TO.N,Net-(R211-Pad1)*%
X102800000Y-93200000D03*
D15*
%TO.P,R211,2*%
%TO.N,Net-(C201-Pad2)*%
X90100000Y-93200000D03*
%TD*%
D17*
%TO.P,Y201,1,1*%
%TO.N,Net-(C201-Pad2)*%
X105137500Y-95410000D03*
%TO.P,Y201,2,2*%
%TO.N,Net-(C202-Pad2)*%
X105137500Y-100310000D03*
%TD*%
D10*
%TO.P,C205,1*%
%TO.N,+5V*%
X120770000Y-67155000D03*
%TO.P,C205,2*%
%TO.N,GND*%
X120770000Y-62155000D03*
%TD*%
D13*
%TO.P,P1,1,Pin_1*%
%TO.N,+5V*%
X59910000Y-44790000D03*
D14*
%TO.P,P1,2,Pin_2*%
X59910000Y-42250000D03*
%TO.P,P1,3,Pin_3*%
%TO.N,GND*%
X62450000Y-44790000D03*
%TO.P,P1,4,Pin_4*%
X62450000Y-42250000D03*
%TO.P,P1,5,Pin_5*%
%TO.N,~{RD}*%
X64990000Y-44790000D03*
%TO.P,P1,6,Pin_6*%
%TO.N,FI*%
X64990000Y-42250000D03*
%TO.P,P1,7,Pin_7*%
%TO.N,~{WR}*%
X67530000Y-44790000D03*
%TO.P,P1,8,Pin_8*%
%TO.N,~{RESET}*%
X67530000Y-42250000D03*
%TO.P,P1,9,Pin_9*%
%TO.N,E*%
X70070000Y-44790000D03*
%TO.P,P1,10,Pin_10*%
%TO.N,~{LIR}*%
X70070000Y-42250000D03*
%TO.P,P1,11,Pin_11*%
%TO.N,~{NMI}*%
X72610000Y-44790000D03*
%TO.P,P1,12,Pin_12*%
%TO.N,EXPSEL_O*%
X72610000Y-42250000D03*
%TO.P,P1,13,Pin_13*%
%TO.N,~{WAIT}*%
X75150000Y-44790000D03*
%TO.P,P1,14,Pin_14*%
%TO.N,unconnected-(P1-Pin_14-Pad14)*%
X75150000Y-42250000D03*
%TO.P,P1,15,Pin_15*%
%TO.N,~{INT0}*%
X77690000Y-44790000D03*
%TO.P,P1,16,Pin_16*%
%TO.N,~{HALT}*%
X77690000Y-42250000D03*
%TO.P,P1,17,Pin_17*%
%TO.N,ST*%
X80230000Y-44790000D03*
%TO.P,P1,18,Pin_18*%
%TO.N,unconnected-(P1-Pin_18-Pad18)*%
X80230000Y-42250000D03*
%TO.P,P1,19,Pin_19*%
%TO.N,/A0*%
X82770000Y-44790000D03*
%TO.P,P1,20,Pin_20*%
%TO.N,/A1*%
X82770000Y-42250000D03*
%TO.P,P1,21,Pin_21*%
%TO.N,~{TEND0}*%
X85310000Y-44790000D03*
%TO.P,P1,22,Pin_22*%
%TO.N,/A2*%
X85310000Y-42250000D03*
%TO.P,P1,23,Pin_23*%
%TO.N,/A3*%
X87850000Y-44790000D03*
%TO.P,P1,24,Pin_24*%
%TO.N,/A4*%
X87850000Y-42250000D03*
%TO.P,P1,25,Pin_25*%
%TO.N,~{DREQ0}*%
X90390000Y-44790000D03*
%TO.P,P1,26,Pin_26*%
%TO.N,~{IOE}*%
X90390000Y-42250000D03*
%TO.P,P1,27,Pin_27*%
%TO.N,unconnected-(P1-Pin_27-Pad27)*%
X92930000Y-44790000D03*
%TO.P,P1,28,Pin_28*%
%TO.N,RESET*%
X92930000Y-42250000D03*
%TO.P,P1,29,Pin_29*%
%TO.N,/D7*%
X95470000Y-44790000D03*
%TO.P,P1,30,Pin_30*%
%TO.N,/D6*%
X95470000Y-42250000D03*
%TO.P,P1,31,Pin_31*%
%TO.N,/D5*%
X98010000Y-44790000D03*
%TO.P,P1,32,Pin_32*%
%TO.N,/D3*%
X98010000Y-42250000D03*
%TO.P,P1,33,Pin_33*%
%TO.N,/D4*%
X100550000Y-44790000D03*
%TO.P,P1,34,Pin_34*%
%TO.N,/D2*%
X100550000Y-42250000D03*
%TO.P,P1,35,Pin_35*%
%TO.N,/D1*%
X103090000Y-44790000D03*
%TO.P,P1,36,Pin_36*%
%TO.N,/D0*%
X103090000Y-42250000D03*
%TO.P,P1,37,Pin_37*%
%TO.N,GND*%
X105630000Y-44790000D03*
%TO.P,P1,38,Pin_38*%
X105630000Y-42250000D03*
%TO.P,P1,39,Pin_39*%
%TO.N,unconnected-(P1-Pin_39-Pad39)*%
X108170000Y-44790000D03*
%TO.P,P1,40,Pin_40*%
%TO.N,unconnected-(P1-Pin_40-Pad40)*%
X108170000Y-42250000D03*
%TD*%
D10*
%TO.P,R202,1*%
%TO.N,GND*%
X69860000Y-87730000D03*
D15*
%TO.P,R202,2*%
%TO.N,AYA*%
X69860000Y-75030000D03*
%TD*%
D10*
%TO.P,R203,1*%
%TO.N,GND*%
X73570000Y-87730000D03*
D15*
%TO.P,R203,2*%
%TO.N,AYB*%
X73570000Y-75030000D03*
%TD*%
D16*
%TO.P,NR201,1,common*%
%TO.N,+5V*%
X86410000Y-53570000D03*
D15*
%TO.P,NR201,2,R1*%
%TO.N,/AYIO7*%
X83870000Y-53570000D03*
%TO.P,NR201,3,R2*%
%TO.N,/AYIO6*%
X81330000Y-53570000D03*
%TO.P,NR201,4,R3*%
%TO.N,/AYIO5*%
X78790000Y-53570000D03*
%TO.P,NR201,5,R4*%
%TO.N,/AYIO4*%
X76250000Y-53570000D03*
%TO.P,NR201,6,R5*%
%TO.N,/AYIO3*%
X73710000Y-53570000D03*
%TO.P,NR201,7,R6*%
%TO.N,/AYIO2*%
X71170000Y-53570000D03*
%TO.P,NR201,8,R7*%
%TO.N,/AYIO1*%
X68630000Y-53570000D03*
%TO.P,NR201,9,R8*%
%TO.N,/AYIO0*%
X66090000Y-53570000D03*
%TD*%
D18*
%TO.P,J202,0,PAD*%
%TO.N,GND*%
X59840000Y-59995000D03*
X59840000Y-84995000D03*
D16*
%TO.P,J202,1,1*%
%TO.N,/AYIO3*%
X61260000Y-66955000D03*
D10*
%TO.P,J202,2,2*%
%TO.N,/AYIO2*%
X61260000Y-69725000D03*
%TO.P,J202,3,3*%
%TO.N,/AYIO1*%
X61260000Y-72495000D03*
%TO.P,J202,4,4*%
%TO.N,/AYIO0*%
X61260000Y-75265000D03*
%TO.P,J202,5,5*%
%TO.N,/AYIO5*%
X61260000Y-78035000D03*
%TO.P,J202,6,6*%
%TO.N,/AYIO4*%
X58420000Y-68340000D03*
%TO.P,J202,7,7*%
%TO.N,+5V*%
X58420000Y-71110000D03*
%TO.P,J202,8,8*%
%TO.N,GND*%
X58420000Y-73880000D03*
%TO.P,J202,9,9*%
%TO.N,/AYIO7*%
X58420000Y-76650000D03*
%TD*%
%TO.P,C201,1*%
%TO.N,GND*%
X97730000Y-96480000D03*
%TO.P,C201,2*%
%TO.N,Net-(C201-Pad2)*%
X102730000Y-96480000D03*
%TD*%
%TO.P,R212,1*%
%TO.N,Net-(R211-Pad1)*%
X90100000Y-102280000D03*
D15*
%TO.P,R212,2*%
%TO.N,Net-(C202-Pad2)*%
X102800000Y-102280000D03*
%TD*%
D10*
%TO.P,R205,1*%
%TO.N,Net-(J201-Pad2)*%
X66090000Y-102610000D03*
D15*
%TO.P,R205,2*%
%TO.N,AYC*%
X66090000Y-89910000D03*
%TD*%
D16*
%TO.P,U204,1*%
%TO.N,/A4*%
X116860000Y-81630000D03*
D15*
%TO.P,U204,2*%
%TO.N,Net-(U203-Pad2)*%
X114320000Y-81630000D03*
%TO.P,U204,3*%
%TO.N,Net-(U204-Pad12)*%
X111780000Y-81630000D03*
%TO.P,U204,4*%
%TO.N,/A3*%
X109240000Y-81630000D03*
%TO.P,U204,5*%
%TO.N,Net-(U204-Pad12)*%
X106700000Y-81630000D03*
%TO.P,U204,6*%
%TO.N,AYBC1*%
X104160000Y-81630000D03*
%TO.P,U204,7,GND*%
%TO.N,GND*%
X101620000Y-81630000D03*
%TO.P,U204,8*%
%TO.N,unconnected-(U204-Pad8)*%
X101620000Y-89250000D03*
%TO.P,U204,9*%
%TO.N,GND*%
X104160000Y-89250000D03*
%TO.P,U204,10*%
X106700000Y-89250000D03*
%TO.P,U204,11*%
%TO.N,AYBDIR*%
X109240000Y-89250000D03*
%TO.P,U204,12*%
%TO.N,Net-(U204-Pad12)*%
X111780000Y-89250000D03*
%TO.P,U204,13*%
%TO.N,~{RD}*%
X114320000Y-89250000D03*
%TO.P,U204,14,VCC*%
%TO.N,+5V*%
X116860000Y-89250000D03*
%TD*%
D16*
%TO.P,U201,1,C*%
%TO.N,AYC*%
X112120000Y-60590000D03*
D15*
%TO.P,U201,2,TEST_1*%
%TO.N,unconnected-(U201-TEST_1-Pad2)*%
X109580000Y-60590000D03*
%TO.P,U201,3,VCC*%
%TO.N,+5V*%
X107040000Y-60590000D03*
%TO.P,U201,4,A*%
%TO.N,AYA*%
X104500000Y-60590000D03*
%TO.P,U201,5,B*%
%TO.N,AYB*%
X101960000Y-60590000D03*
%TO.P,U201,6,GND*%
%TO.N,GND*%
X99420000Y-60590000D03*
%TO.P,U201,7,IOA7*%
%TO.N,/AYIO7*%
X96880000Y-60590000D03*
%TO.P,U201,8,IOA6*%
%TO.N,/AYIO6*%
X94340000Y-60590000D03*
%TO.P,U201,9,IOA5*%
%TO.N,/AYIO5*%
X91800000Y-60590000D03*
%TO.P,U201,10,IOA4*%
%TO.N,/AYIO4*%
X89260000Y-60590000D03*
%TO.P,U201,11,IOA3*%
%TO.N,/AYIO3*%
X86720000Y-60590000D03*
%TO.P,U201,12,IOA2*%
%TO.N,/AYIO2*%
X84180000Y-60590000D03*
%TO.P,U201,13,IOA1*%
%TO.N,/AYIO1*%
X81640000Y-60590000D03*
%TO.P,U201,14,IOA0*%
%TO.N,/AYIO0*%
X79100000Y-60590000D03*
%TO.P,U201,15,CLOCK*%
%TO.N,AYCLK*%
X79100000Y-75830000D03*
%TO.P,U201,16,~{RESET}*%
%TO.N,~{RESET}*%
X81640000Y-75830000D03*
%TO.P,U201,17,A8*%
%TO.N,+5V*%
X84180000Y-75830000D03*
%TO.P,U201,18,BDIR*%
%TO.N,AYBDIR*%
X86720000Y-75830000D03*
%TO.P,U201,19,BC2*%
%TO.N,+5V*%
X89260000Y-75830000D03*
%TO.P,U201,20,BC1*%
%TO.N,AYBC1*%
X91800000Y-75830000D03*
%TO.P,U201,21,DA7*%
%TO.N,/D7*%
X94340000Y-75830000D03*
%TO.P,U201,22,DA6*%
%TO.N,/D6*%
X96880000Y-75830000D03*
%TO.P,U201,23,DA5*%
%TO.N,/D5*%
X99420000Y-75830000D03*
%TO.P,U201,24,DA4*%
%TO.N,/D4*%
X101960000Y-75830000D03*
%TO.P,U201,25,DA3*%
%TO.N,/D3*%
X104500000Y-75830000D03*
%TO.P,U201,26,DA2*%
%TO.N,/D2*%
X107040000Y-75830000D03*
%TO.P,U201,27,DA1*%
%TO.N,/D1*%
X109580000Y-75830000D03*
%TO.P,U201,28,DA0*%
%TO.N,/D0*%
X112120000Y-75830000D03*
%TD*%
D10*
%TO.P,R210,1*%
%TO.N,Net-(J201-Ground)*%
X81810000Y-92470000D03*
D15*
%TO.P,R210,2*%
%TO.N,AYB*%
X69110000Y-92470000D03*
%TD*%
D16*
%TO.P,U203,1*%
%TO.N,EXPSEL_O*%
X95212500Y-81630000D03*
D15*
%TO.P,U203,2*%
%TO.N,Net-(U203-Pad2)*%
X92672500Y-81630000D03*
%TO.P,U203,3*%
%TO.N,Net-(U203-Pad10)*%
X90132500Y-81630000D03*
%TO.P,U203,4*%
%TO.N,AYCLK*%
X87592500Y-81630000D03*
%TO.P,U203,5*%
%TO.N,GND*%
X85052500Y-81630000D03*
%TO.P,U203,6*%
%TO.N,unconnected-(U203-Pad6)*%
X82512500Y-81630000D03*
%TO.P,U203,7,GND*%
%TO.N,GND*%
X79972500Y-81630000D03*
%TO.P,U203,8*%
%TO.N,Net-(R211-Pad1)*%
X79972500Y-89250000D03*
%TO.P,U203,9*%
%TO.N,Net-(C201-Pad2)*%
X82512500Y-89250000D03*
%TO.P,U203,10*%
%TO.N,Net-(U203-Pad10)*%
X85052500Y-89250000D03*
%TO.P,U203,11*%
%TO.N,Net-(R211-Pad1)*%
X87592500Y-89250000D03*
%TO.P,U203,12*%
%TO.N,unconnected-(U203-Pad12)*%
X90132500Y-89250000D03*
%TO.P,U203,13*%
%TO.N,GND*%
X92672500Y-89250000D03*
%TO.P,U203,14,VCC*%
%TO.N,+5V*%
X95212500Y-89250000D03*
%TD*%
D19*
%TO.N,/AYIO7*%
X85450000Y-63414000D03*
%TO.N,~{RESET}*%
X64333400Y-53768400D03*
%TO.N,/D3*%
X115726600Y-61982900D03*
X115960000Y-52010000D03*
%TO.N,/D0*%
X113884900Y-61412100D03*
%TO.N,/D2*%
X103111700Y-64739900D03*
%TO.N,/D1*%
X106720000Y-64718400D03*
X108129600Y-61978500D03*
%TO.N,/A4*%
X97109500Y-62793400D03*
%TO.N,~{RD}*%
X63682400Y-56590000D03*
%TO.N,AYA*%
X75497400Y-68788500D03*
%TO.N,AYB*%
X82099700Y-67723400D03*
%TD*%
D20*
%TO.N,Net-(C201-Pad2)*%
X90100000Y-93200000D02*
X100500000Y-93200000D01*
X100500000Y-93200000D02*
X102730000Y-95430000D01*
X82512500Y-91072500D02*
X84640000Y-93200000D01*
X82512500Y-89250000D02*
X82512500Y-91072500D01*
X84640000Y-93200000D02*
X90100000Y-93200000D01*
X102730000Y-95430000D02*
X102730000Y-96480000D01*
D21*
%TO.N,GND*%
X79972500Y-83667500D02*
X79840000Y-83800000D01*
X119810000Y-83800000D02*
X120680000Y-82930000D01*
X101570000Y-83800000D02*
X119810000Y-83800000D01*
X101620000Y-83750000D02*
X101570000Y-83800000D01*
X79840000Y-83800000D02*
X85060000Y-83800000D01*
X79972500Y-81630000D02*
X79972500Y-83667500D01*
X101620000Y-81630000D02*
X101620000Y-83750000D01*
X77880000Y-83800000D02*
X79840000Y-83800000D01*
X85060000Y-83800000D02*
X101570000Y-83800000D01*
X85052500Y-81630000D02*
X85052500Y-83792500D01*
X77010000Y-82930000D02*
X77880000Y-83800000D01*
X85052500Y-83792500D02*
X85060000Y-83800000D01*
D20*
%TO.N,+5V*%
X86410000Y-54600000D02*
X85520000Y-55490000D01*
D21*
X86400000Y-74010000D02*
X86420000Y-74030000D01*
X92050000Y-78620000D02*
X99960000Y-78620000D01*
X107040000Y-60590000D02*
X108910000Y-58720000D01*
D22*
X123465000Y-106220000D02*
X123465000Y-87980000D01*
D21*
X50980000Y-71110000D02*
X50970000Y-71100000D01*
X116860000Y-89250000D02*
X116860000Y-86960000D01*
X95212500Y-86962500D02*
X95190000Y-86940000D01*
X120770000Y-67155000D02*
X123340000Y-67155000D01*
D20*
X86410000Y-53570000D02*
X86410000Y-54600000D01*
D22*
X123465000Y-78640000D02*
X123465000Y-67280000D01*
D21*
X95212500Y-89250000D02*
X95212500Y-86962500D01*
D22*
X123465000Y-82660000D02*
X123465000Y-81930000D01*
X51101000Y-49879000D02*
X50970000Y-50010000D01*
D21*
X116880000Y-86940000D02*
X119690000Y-86940000D01*
X86400000Y-72270000D02*
X86400000Y-74010000D01*
X58420000Y-71110000D02*
X50980000Y-71110000D01*
X78780000Y-72270000D02*
X79340100Y-72270000D01*
D20*
X85520000Y-55490000D02*
X51120000Y-55490000D01*
D22*
X50970000Y-50010000D02*
X50970000Y-55340000D01*
D20*
X51120000Y-55490000D02*
X50970000Y-55340000D01*
D21*
X89260000Y-75830000D02*
X92050000Y-78620000D01*
X99980000Y-78640000D02*
X123465000Y-78640000D01*
D22*
X59916000Y-49879000D02*
X51101000Y-49879000D01*
D21*
X123340000Y-67155000D02*
X123465000Y-67280000D01*
X119690000Y-86940000D02*
X120680000Y-87930000D01*
D22*
X123465000Y-82660000D02*
X123465000Y-81930000D01*
D21*
X108910000Y-58720000D02*
X123445000Y-58720000D01*
X77960000Y-86940000D02*
X95190000Y-86940000D01*
X95190000Y-86940000D02*
X116880000Y-86940000D01*
D22*
X123465000Y-67280000D02*
X123465000Y-58700000D01*
D21*
X123415000Y-87930000D02*
X123465000Y-87980000D01*
X116860000Y-86960000D02*
X116880000Y-86940000D01*
X86420000Y-74030000D02*
X87460000Y-74030000D01*
D22*
X123465000Y-87980000D02*
X123465000Y-82660000D01*
X59900000Y-38550000D02*
X50970000Y-38550000D01*
X123465000Y-58700000D02*
X123465000Y-38550000D01*
D21*
X123445000Y-58720000D02*
X123465000Y-58700000D01*
X116880000Y-72270000D02*
X116880000Y-71045000D01*
D22*
X50970000Y-71100000D02*
X50970000Y-106220000D01*
X50970000Y-106220000D02*
X123465000Y-106220000D01*
D21*
X116880000Y-71045000D02*
X120770000Y-67155000D01*
X77010000Y-87930000D02*
X77010000Y-87890000D01*
X81100100Y-74030000D02*
X84170000Y-74030000D01*
D22*
X59910000Y-38560000D02*
X59900000Y-38550000D01*
D21*
X77010000Y-87890000D02*
X77960000Y-86940000D01*
X87460000Y-74030000D02*
X89260000Y-75830000D01*
D22*
X50970000Y-38550000D02*
X50970000Y-50010000D01*
D21*
X84180000Y-75830000D02*
X84180000Y-74040000D01*
D22*
X59910000Y-42250000D02*
X59910000Y-38560000D01*
D21*
X120680000Y-87930000D02*
X123415000Y-87930000D01*
D22*
X123465000Y-81930000D02*
X123465000Y-78640000D01*
D21*
X99960000Y-78620000D02*
X99980000Y-78640000D01*
X79340100Y-72270000D02*
X81100100Y-74030000D01*
D22*
X123465000Y-38550000D02*
X59900000Y-38550000D01*
X50970000Y-55340000D02*
X50970000Y-71100000D01*
D21*
X84180000Y-74040000D02*
X84170000Y-74030000D01*
X84170000Y-74030000D02*
X86420000Y-74030000D01*
D20*
%TO.N,Net-(J201-Ground)*%
X81810000Y-92470000D02*
X81810000Y-96190000D01*
%TO.N,Net-(J201-Pad2)*%
X60090500Y-100802000D02*
X64282500Y-100802000D01*
X66090000Y-102610000D02*
X67310000Y-101390000D01*
X80340000Y-101390000D02*
X81810000Y-99920000D01*
X60090000Y-100802000D02*
X60090500Y-100802000D01*
X60090500Y-100802000D02*
X60090000Y-100802500D01*
X67310000Y-101390000D02*
X80340000Y-101390000D01*
X64282500Y-100802000D02*
X66090000Y-102610000D01*
%TO.N,/AYIO5*%
X90210000Y-54482200D02*
X87640100Y-51912300D01*
X80447700Y-51912300D02*
X78790000Y-53570000D01*
X91800000Y-59438300D02*
X90210000Y-57848300D01*
X78790000Y-57020000D02*
X78780000Y-57030000D01*
X91800000Y-60590000D02*
X91800000Y-59438300D01*
X87640100Y-51912300D02*
X80447700Y-51912300D01*
X90210000Y-57848300D02*
X90210000Y-54482200D01*
%TO.N,/AYIO7*%
X58420000Y-76433600D02*
X58420000Y-76650000D01*
X84851200Y-63414000D02*
X81606900Y-66658300D01*
X60973600Y-73880000D02*
X58420000Y-76433600D01*
X94066000Y-63414000D02*
X85450000Y-63414000D01*
X62519300Y-73880000D02*
X60973600Y-73880000D01*
X81606900Y-66658300D02*
X69741000Y-66658300D01*
X85450000Y-63414000D02*
X84851200Y-63414000D01*
X83870000Y-57020000D02*
X83860000Y-57030000D01*
X96880000Y-60590000D02*
X96880000Y-60600000D01*
X69741000Y-66658300D02*
X62519300Y-73880000D01*
X96880000Y-60600000D02*
X94066000Y-63414000D01*
%TO.N,/AYIO4*%
X89260000Y-60560000D02*
X89260000Y-60590000D01*
X86881700Y-58181700D02*
X89260000Y-60560000D01*
X76240000Y-57030000D02*
X77391700Y-58181700D01*
X76250000Y-57020000D02*
X76240000Y-57030000D01*
X77391700Y-58181700D02*
X86881700Y-58181700D01*
%TO.N,/AYIO3*%
X63563400Y-65803300D02*
X80623500Y-65803300D01*
X86720000Y-60590000D02*
X86144200Y-60590000D01*
X73710000Y-57020000D02*
X73700000Y-57030000D01*
X86144200Y-60590000D02*
X84474700Y-58920500D01*
X85836800Y-60590000D02*
X86144200Y-60590000D01*
X61260000Y-66955000D02*
X62411700Y-66955000D01*
X84474700Y-58920500D02*
X75590500Y-58920500D01*
X75590500Y-58920500D02*
X73700000Y-57030000D01*
X80623500Y-65803300D02*
X85836800Y-60590000D01*
X62411700Y-66955000D02*
X63563400Y-65803300D01*
%TO.N,/AYIO2*%
X83012200Y-59422200D02*
X84180000Y-60590000D01*
X71170000Y-57020000D02*
X71160000Y-57030000D01*
X73572200Y-59422200D02*
X83012200Y-59422200D01*
X71160000Y-57030000D02*
X71180000Y-57030000D01*
X71180000Y-57030000D02*
X73572200Y-59422200D01*
%TO.N,/AYIO1*%
X68620000Y-57040000D02*
X73357400Y-61777400D01*
X68620000Y-57030000D02*
X68620000Y-57040000D01*
X80452600Y-61777400D02*
X81640000Y-60590000D01*
X73357400Y-61777400D02*
X80452600Y-61777400D01*
X68630000Y-57020000D02*
X68620000Y-57030000D01*
%TO.N,/AYIO0*%
X64964300Y-72270000D02*
X68620000Y-72270000D01*
X61969300Y-75265000D02*
X64964300Y-72270000D01*
X61260000Y-75265000D02*
X61969300Y-75265000D01*
%TO.N,/AYIO6*%
X92980000Y-61950000D02*
X94340000Y-60590000D01*
X90530000Y-59450000D02*
X90530000Y-61190000D01*
X81330000Y-53570000D02*
X82481700Y-52418300D01*
X91290000Y-61950000D02*
X92980000Y-61950000D01*
X90530000Y-61190000D02*
X91290000Y-61950000D01*
X82481700Y-52418300D02*
X87355700Y-52418300D01*
X87670000Y-58050000D02*
X88403900Y-58783900D01*
X81330000Y-57020000D02*
X81320000Y-57030000D01*
X87670000Y-52732600D02*
X87670000Y-58050000D01*
X89863900Y-58783900D02*
X90530000Y-59450000D01*
X88403900Y-58783900D02*
X89863900Y-58783900D01*
X87355700Y-52418300D02*
X87670000Y-52732600D01*
%TO.N,~{RESET}*%
X73700000Y-72270000D02*
X75430000Y-74000000D01*
X75430000Y-74000000D02*
X79810000Y-74000000D01*
X67536000Y-47339000D02*
X68790000Y-48593000D01*
X79810000Y-74000000D02*
X81640000Y-75830000D01*
X68790000Y-51830000D02*
X65650000Y-51830000D01*
X65650000Y-51830000D02*
X64333400Y-53146600D01*
X68790000Y-48593000D02*
X68790000Y-51830000D01*
X64333400Y-53146600D02*
X64333400Y-53768400D01*
%TO.N,/D3*%
X99286000Y-50365500D02*
X99286000Y-48926000D01*
X99286000Y-48926000D02*
X98016000Y-47656000D01*
X104500000Y-75830000D02*
X105675400Y-77005400D01*
X105675400Y-77005400D02*
X112584200Y-77005400D01*
X112584200Y-77005400D02*
X115726600Y-73863000D01*
X102287200Y-53366700D02*
X99286000Y-50365500D01*
X114603300Y-53366700D02*
X102287200Y-53366700D01*
X115960000Y-52010000D02*
X114603300Y-53366700D01*
X98016000Y-47656000D02*
X98016000Y-47339000D01*
X115726600Y-73863000D02*
X115726600Y-61982900D01*
%TO.N,/D5*%
X96560000Y-72490000D02*
X99420000Y-75350000D01*
X99420000Y-75350000D02*
X99420000Y-75830000D01*
X96560000Y-72270000D02*
X96560000Y-72490000D01*
%TO.N,/D0*%
X111418700Y-74552800D02*
X111418700Y-74293400D01*
X111418700Y-74293400D02*
X110131700Y-74293400D01*
X112120000Y-75830000D02*
X112120000Y-75254100D01*
X109260000Y-72270000D02*
X109260000Y-73421700D01*
X110131700Y-74293400D02*
X109260000Y-73421700D01*
X113884900Y-61412100D02*
X113070000Y-62227000D01*
X112120000Y-75254100D02*
X111418700Y-74552800D01*
X113070000Y-73060000D02*
X111836600Y-74293400D01*
X111836600Y-74293400D02*
X111418700Y-74293400D01*
X113070000Y-62227000D02*
X113070000Y-73060000D01*
%TO.N,/D2*%
X103111700Y-60058200D02*
X103111700Y-64739900D01*
X100556000Y-47339000D02*
X100556000Y-47296000D01*
X101556400Y-58600000D02*
X101653500Y-58600000D01*
X96746000Y-46870800D02*
X96746000Y-53023000D01*
X101653500Y-58600000D02*
X103111700Y-60058200D01*
X96746000Y-53023000D02*
X100370000Y-56647000D01*
X100556000Y-47296000D02*
X99397300Y-46137300D01*
X97479500Y-46137300D02*
X96746000Y-46870800D01*
X100370000Y-56647000D02*
X100370000Y-57413600D01*
X99397300Y-46137300D02*
X97479500Y-46137300D01*
X100370000Y-57413600D02*
X101556400Y-58600000D01*
%TO.N,/D1*%
X108129600Y-63308800D02*
X106720000Y-64718400D01*
X108129600Y-61978500D02*
X108129600Y-63308800D01*
%TO.N,/D7*%
X91480000Y-72520000D02*
X94340000Y-75380000D01*
X94340000Y-75380000D02*
X94340000Y-75830000D01*
X91480000Y-72270000D02*
X91480000Y-72520000D01*
%TO.N,/A4*%
X89056000Y-50496000D02*
X89056000Y-49256000D01*
X93750000Y-52180000D02*
X97830000Y-56260000D01*
X97830000Y-59740000D02*
X98031700Y-59941700D01*
X98031700Y-59941700D02*
X98031700Y-61871200D01*
X98031700Y-61871200D02*
X97109500Y-62793400D01*
X93750000Y-52180000D02*
X93397000Y-51827000D01*
X97830000Y-56260000D02*
X97830000Y-59740000D01*
X87856000Y-48056000D02*
X87856000Y-47339000D01*
X93397000Y-51827000D02*
X92720000Y-51150000D01*
X92720000Y-51150000D02*
X89710000Y-51150000D01*
X89710000Y-51150000D02*
X89056000Y-50496000D01*
X89056000Y-49256000D02*
X87856000Y-48056000D01*
%TO.N,/D4*%
X101960000Y-75260000D02*
X99100000Y-72400000D01*
X101960000Y-75830000D02*
X101960000Y-75260000D01*
X99100000Y-72400000D02*
X99100000Y-72270000D01*
%TO.N,~{RD}*%
X56790000Y-73080000D02*
X56790000Y-99637300D01*
X59195000Y-72495000D02*
X57375000Y-72495000D01*
X63682400Y-56590000D02*
X63674500Y-56597900D01*
X60953100Y-103800400D02*
X84475800Y-103800400D01*
X63674500Y-56597900D02*
X63674500Y-60510300D01*
X105835000Y-97705000D02*
X114290000Y-89250000D01*
X90571200Y-97705000D02*
X105835000Y-97705000D01*
X84475800Y-103800400D02*
X90571200Y-97705000D01*
X56790000Y-99637300D02*
X60953100Y-103800400D01*
X63674500Y-60510300D02*
X59590500Y-64594300D01*
X57375000Y-72495000D02*
X56790000Y-73080000D01*
X59590500Y-72099500D02*
X59195000Y-72495000D01*
X114290000Y-89250000D02*
X114320000Y-89250000D01*
X59590500Y-64594300D02*
X59590500Y-72099500D01*
%TO.N,/D6*%
X94020000Y-72460000D02*
X96880000Y-75320000D01*
X96880000Y-75320000D02*
X96880000Y-75830000D01*
X94020000Y-72270000D02*
X94020000Y-72460000D01*
%TO.N,AYC*%
X112120000Y-60590000D02*
X112120000Y-61741700D01*
X111800000Y-72270000D02*
X111800000Y-71220000D01*
X69843200Y-71953700D02*
X69843200Y-72698800D01*
X69843200Y-72698800D02*
X67211400Y-75330600D01*
X66070000Y-75030000D02*
X66070000Y-75317900D01*
X67211400Y-75330600D02*
X67224200Y-75343400D01*
X111800000Y-71083600D02*
X111800000Y-62061700D01*
X66070000Y-75317900D02*
X67198700Y-75317900D01*
X67224200Y-88775800D02*
X66090000Y-89910000D01*
X111800000Y-62061700D02*
X112120000Y-61741700D01*
X111800000Y-71220000D02*
X111800000Y-71083600D01*
X70713300Y-71083600D02*
X69843200Y-71953700D01*
X67198700Y-75317900D02*
X67211400Y-75330600D01*
X111800000Y-71083600D02*
X70713300Y-71083600D01*
X67224200Y-75343400D02*
X67224200Y-88775800D01*
%TO.N,AYA*%
X69110000Y-96190000D02*
X69110000Y-99920000D01*
X104500000Y-64924100D02*
X104500000Y-60590000D01*
X107160000Y-58860000D02*
X106230000Y-58860000D01*
X108990000Y-57030000D02*
X107160000Y-58860000D01*
X109260000Y-57030000D02*
X108990000Y-57030000D01*
X71760000Y-93540000D02*
X71760000Y-75620000D01*
X71760000Y-75620000D02*
X71170000Y-75030000D01*
X75534000Y-68825100D02*
X100599000Y-68825100D01*
X106230000Y-58860000D02*
X104500000Y-60590000D01*
X100599000Y-68825100D02*
X104500000Y-64924100D01*
X71170000Y-75030000D02*
X69860000Y-75030000D01*
X69110000Y-96190000D02*
X71760000Y-93540000D01*
X75497400Y-68788500D02*
X75534000Y-68825100D01*
%TO.N,AYB*%
X94846600Y-67723400D02*
X101960000Y-60610000D01*
X101960000Y-60610000D02*
X101960000Y-60590000D01*
X82099700Y-67723400D02*
X94846600Y-67723400D01*
%TO.N,Net-(R211-Pad1)*%
X86252500Y-87910000D02*
X87592500Y-89250000D01*
X101210000Y-91610000D02*
X102800000Y-93200000D01*
X87592500Y-89250000D02*
X89952500Y-91610000D01*
X79972500Y-89250000D02*
X81312500Y-87910000D01*
X81312500Y-87910000D02*
X86252500Y-87910000D01*
X89952500Y-91610000D02*
X101210000Y-91610000D01*
%TO.N,AYCLK*%
X86222500Y-80260000D02*
X87592500Y-81630000D01*
X73401900Y-73628700D02*
X72311700Y-72538500D01*
X83710000Y-80260000D02*
X86222500Y-80260000D01*
X76524800Y-75830000D02*
X74323500Y-73628700D01*
X79100000Y-75830000D02*
X79280000Y-75830000D01*
X74323500Y-73628700D02*
X73401900Y-73628700D01*
X71160000Y-72270000D02*
X72311700Y-72270000D01*
X79100000Y-75830000D02*
X76524800Y-75830000D01*
X72311700Y-72538500D02*
X72311700Y-72270000D01*
X79280000Y-75830000D02*
X83710000Y-80260000D01*
%TO.N,AYBC1*%
X91800000Y-74678300D02*
X90091700Y-72970000D01*
X91800000Y-75830000D02*
X91800000Y-74678300D01*
X90091700Y-72970000D02*
X90091700Y-72270000D01*
X88940000Y-72270000D02*
X90091700Y-72270000D01*
%TO.N,Net-(U203-Pad2)*%
X92672500Y-81630000D02*
X94370700Y-79931800D01*
X94370700Y-79931800D02*
X112621800Y-79931800D01*
X112621800Y-79931800D02*
X114320000Y-81630000D01*
%TO.N,Net-(U204-Pad12)*%
X111780000Y-81630000D02*
X110621800Y-80471800D01*
X107858200Y-80471800D02*
X106700000Y-81630000D01*
X110621800Y-80471800D02*
X107858200Y-80471800D01*
%TD*%
%TA.AperFunction,Conductor*%
%TO.N,+5V*%
G36*
X86650000Y-73548872D02*
G01*
X86846317Y-73496269D01*
X86846326Y-73496265D01*
X87052482Y-73400134D01*
X87238820Y-73269657D01*
X87399657Y-73108820D01*
X87530132Y-72922484D01*
X87557341Y-72864134D01*
X87603513Y-72811695D01*
X87670707Y-72792542D01*
X87737588Y-72812757D01*
X87782105Y-72864132D01*
X87804088Y-72911275D01*
X87809431Y-72922732D01*
X87809432Y-72922734D01*
X87939954Y-73109141D01*
X88100858Y-73270045D01*
X88100861Y-73270047D01*
X88287266Y-73400568D01*
X88493504Y-73496739D01*
X88713308Y-73555635D01*
X88875230Y-73569801D01*
X88939998Y-73575468D01*
X88940000Y-73575468D01*
X88940002Y-73575468D01*
X88996673Y-73570509D01*
X89166692Y-73555635D01*
X89386496Y-73496739D01*
X89520586Y-73434210D01*
X89589657Y-73423720D01*
X89653442Y-73452239D01*
X89660667Y-73458913D01*
X90908602Y-74706848D01*
X90942087Y-74768171D01*
X90937103Y-74837863D01*
X90908603Y-74882210D01*
X90799951Y-74990862D01*
X90672867Y-75172360D01*
X90669432Y-75177266D01*
X90669315Y-75177518D01*
X90642106Y-75235867D01*
X90595933Y-75288306D01*
X90528739Y-75307457D01*
X90461858Y-75287241D01*
X90417342Y-75235865D01*
X90390135Y-75177520D01*
X90390134Y-75177518D01*
X90259657Y-74991179D01*
X90098820Y-74830342D01*
X89912482Y-74699865D01*
X89706328Y-74603734D01*
X89510000Y-74551127D01*
X89510000Y-75514314D01*
X89505606Y-75509920D01*
X89414394Y-75457259D01*
X89312661Y-75430000D01*
X89207339Y-75430000D01*
X89105606Y-75457259D01*
X89014394Y-75509920D01*
X89010000Y-75514314D01*
X89010000Y-74551127D01*
X88813671Y-74603734D01*
X88607517Y-74699865D01*
X88421179Y-74830342D01*
X88260342Y-74991179D01*
X88129867Y-75177515D01*
X88102657Y-75235867D01*
X88056484Y-75288306D01*
X87989290Y-75307457D01*
X87922409Y-75287241D01*
X87877893Y-75235865D01*
X87875374Y-75230464D01*
X87850568Y-75177266D01*
X87720047Y-74990861D01*
X87720045Y-74990858D01*
X87559141Y-74829954D01*
X87372734Y-74699432D01*
X87372732Y-74699431D01*
X87166497Y-74603261D01*
X87166488Y-74603258D01*
X86946697Y-74544366D01*
X86946693Y-74544365D01*
X86946692Y-74544365D01*
X86946691Y-74544364D01*
X86946686Y-74544364D01*
X86720002Y-74524532D01*
X86719998Y-74524532D01*
X86493313Y-74544364D01*
X86493302Y-74544366D01*
X86273511Y-74603258D01*
X86273502Y-74603261D01*
X86067267Y-74699431D01*
X86067265Y-74699432D01*
X85880858Y-74829954D01*
X85719954Y-74990858D01*
X85592867Y-75172360D01*
X85589432Y-75177266D01*
X85589315Y-75177518D01*
X85562106Y-75235867D01*
X85515933Y-75288306D01*
X85448739Y-75307457D01*
X85381858Y-75287241D01*
X85337342Y-75235865D01*
X85310135Y-75177520D01*
X85310134Y-75177518D01*
X85179657Y-74991179D01*
X85018820Y-74830342D01*
X84832482Y-74699865D01*
X84626328Y-74603734D01*
X84430000Y-74551127D01*
X84430000Y-75514314D01*
X84425606Y-75509920D01*
X84334394Y-75457259D01*
X84232661Y-75430000D01*
X84127339Y-75430000D01*
X84025606Y-75457259D01*
X83934394Y-75509920D01*
X83930000Y-75514314D01*
X83930000Y-74551127D01*
X83733671Y-74603734D01*
X83527517Y-74699865D01*
X83341179Y-74830342D01*
X83180342Y-74991179D01*
X83049867Y-75177515D01*
X83022657Y-75235867D01*
X82976484Y-75288306D01*
X82909290Y-75307457D01*
X82842409Y-75287241D01*
X82797893Y-75235865D01*
X82795374Y-75230464D01*
X82770568Y-75177266D01*
X82640047Y-74990861D01*
X82640045Y-74990858D01*
X82479141Y-74829954D01*
X82292734Y-74699432D01*
X82292732Y-74699431D01*
X82086497Y-74603261D01*
X82086488Y-74603258D01*
X81866697Y-74544366D01*
X81866693Y-74544365D01*
X81866692Y-74544365D01*
X81866691Y-74544364D01*
X81866686Y-74544364D01*
X81640002Y-74524532D01*
X81639998Y-74524532D01*
X81413313Y-74544364D01*
X81413299Y-74544367D01*
X81372834Y-74555209D01*
X81302984Y-74553545D01*
X81253061Y-74523115D01*
X80224674Y-73494727D01*
X80224673Y-73494726D01*
X80198985Y-73477562D01*
X80118127Y-73423535D01*
X80114421Y-73422000D01*
X79999744Y-73374499D01*
X79999738Y-73374497D01*
X79874071Y-73349500D01*
X79874069Y-73349500D01*
X79838340Y-73349500D01*
X79771301Y-73329815D01*
X79725546Y-73277011D01*
X79715602Y-73207853D01*
X79744627Y-73144297D01*
X79750659Y-73137819D01*
X79779657Y-73108820D01*
X79910132Y-72922484D01*
X79937341Y-72864134D01*
X79983513Y-72811695D01*
X80050707Y-72792542D01*
X80117588Y-72812757D01*
X80162105Y-72864132D01*
X80184088Y-72911275D01*
X80189431Y-72922732D01*
X80189432Y-72922734D01*
X80319954Y-73109141D01*
X80480858Y-73270045D01*
X80480861Y-73270047D01*
X80667266Y-73400568D01*
X80873504Y-73496739D01*
X81093308Y-73555635D01*
X81255230Y-73569801D01*
X81319998Y-73575468D01*
X81320000Y-73575468D01*
X81320002Y-73575468D01*
X81376673Y-73570509D01*
X81546692Y-73555635D01*
X81766496Y-73496739D01*
X81972734Y-73400568D01*
X82159139Y-73270047D01*
X82320047Y-73109139D01*
X82450568Y-72922734D01*
X82477618Y-72864724D01*
X82523790Y-72812285D01*
X82590983Y-72793133D01*
X82657865Y-72813348D01*
X82702381Y-72864724D01*
X82716517Y-72895038D01*
X82729429Y-72922728D01*
X82729432Y-72922734D01*
X82859954Y-73109141D01*
X83020858Y-73270045D01*
X83020861Y-73270047D01*
X83207266Y-73400568D01*
X83413504Y-73496739D01*
X83633308Y-73555635D01*
X83795230Y-73569801D01*
X83859998Y-73575468D01*
X83860000Y-73575468D01*
X83860002Y-73575468D01*
X83916673Y-73570509D01*
X84086692Y-73555635D01*
X84306496Y-73496739D01*
X84512734Y-73400568D01*
X84699139Y-73270047D01*
X84860047Y-73109139D01*
X84990568Y-72922734D01*
X85017895Y-72864129D01*
X85064064Y-72811695D01*
X85131257Y-72792542D01*
X85198139Y-72812757D01*
X85242657Y-72864133D01*
X85269865Y-72922482D01*
X85400342Y-73108820D01*
X85561179Y-73269657D01*
X85747517Y-73400134D01*
X85953673Y-73496265D01*
X85953682Y-73496269D01*
X86149999Y-73548872D01*
X86150000Y-73548871D01*
X86150000Y-72585686D01*
X86154394Y-72590080D01*
X86245606Y-72642741D01*
X86347339Y-72670000D01*
X86452661Y-72670000D01*
X86554394Y-72642741D01*
X86645606Y-72590080D01*
X86650000Y-72585686D01*
X86650000Y-73548872D01*
G37*
%TD.AperFunction*%
%TA.AperFunction,Conductor*%
G36*
X60166000Y-49445988D02*
G01*
X60108993Y-49413075D01*
X59981826Y-49379000D01*
X59850174Y-49379000D01*
X59723007Y-49413075D01*
X59666000Y-49445988D01*
X59666000Y-47772012D01*
X59723007Y-47804925D01*
X59850174Y-47839000D01*
X59981826Y-47839000D01*
X60108993Y-47804925D01*
X60166000Y-47772012D01*
X60166000Y-49445988D01*
G37*
%TD.AperFunction*%
%TA.AperFunction,Conductor*%
G36*
X60160000Y-45971205D02*
G01*
X60163166Y-45977004D01*
X60166000Y-46003362D01*
X60166000Y-46905988D01*
X60108993Y-46873075D01*
X59981826Y-46839000D01*
X59850174Y-46839000D01*
X59723007Y-46873075D01*
X59666000Y-46905988D01*
X59666000Y-46157794D01*
X59662834Y-46151996D01*
X59660000Y-46125638D01*
X59660000Y-45223012D01*
X59717007Y-45255925D01*
X59844174Y-45290000D01*
X59975826Y-45290000D01*
X60102993Y-45255925D01*
X60160000Y-45223012D01*
X60160000Y-45971205D01*
G37*
%TD.AperFunction*%
%TA.AperFunction,Conductor*%
G36*
X60160000Y-44356988D02*
G01*
X60102993Y-44324075D01*
X59975826Y-44290000D01*
X59844174Y-44290000D01*
X59717007Y-44324075D01*
X59660000Y-44356988D01*
X59660000Y-42683012D01*
X59717007Y-42715925D01*
X59844174Y-42750000D01*
X59975826Y-42750000D01*
X60102993Y-42715925D01*
X60160000Y-42683012D01*
X60160000Y-44356988D01*
G37*
%TD.AperFunction*%
%TA.AperFunction,Conductor*%
G36*
X124107539Y-37870185D02*
G01*
X124153294Y-37922989D01*
X124164500Y-37974500D01*
X124164500Y-106795500D01*
X124144815Y-106862539D01*
X124092011Y-106908294D01*
X124040500Y-106919500D01*
X50394500Y-106919500D01*
X50327461Y-106899815D01*
X50281706Y-106847011D01*
X50270500Y-106795500D01*
X50270500Y-100886271D01*
X51739500Y-100886271D01*
X51772182Y-101050574D01*
X51772184Y-101050582D01*
X51836295Y-101205360D01*
X51929373Y-101344662D01*
X52047837Y-101463126D01*
X52108432Y-101503614D01*
X52187137Y-101556203D01*
X52341918Y-101620316D01*
X52506228Y-101652999D01*
X52506232Y-101653000D01*
X52506233Y-101653000D01*
X52673768Y-101653000D01*
X52673769Y-101652999D01*
X52838082Y-101620316D01*
X52992863Y-101556203D01*
X53132162Y-101463126D01*
X53250626Y-101344662D01*
X53343703Y-101205363D01*
X53407816Y-101050582D01*
X53440499Y-100886271D01*
X54239500Y-100886271D01*
X54272182Y-101050574D01*
X54272184Y-101050582D01*
X54336295Y-101205360D01*
X54429373Y-101344662D01*
X54547837Y-101463126D01*
X54608432Y-101503614D01*
X54687137Y-101556203D01*
X54841918Y-101620316D01*
X55006228Y-101652999D01*
X55006232Y-101653000D01*
X55006233Y-101653000D01*
X55173768Y-101653000D01*
X55173769Y-101652999D01*
X55338082Y-101620316D01*
X55492863Y-101556203D01*
X55632162Y-101463126D01*
X55750626Y-101344662D01*
X55843703Y-101205363D01*
X55907816Y-101050582D01*
X55940500Y-100886267D01*
X55940500Y-100718733D01*
X55907816Y-100554418D01*
X55843703Y-100399637D01*
X55806381Y-100343781D01*
X55750626Y-100260337D01*
X55632162Y-100141873D01*
X55492860Y-100048795D01*
X55338082Y-99984684D01*
X55338074Y-99984682D01*
X55173771Y-99952000D01*
X55173767Y-99952000D01*
X55006233Y-99952000D01*
X55006228Y-99952000D01*
X54841925Y-99984682D01*
X54841917Y-99984684D01*
X54687139Y-100048795D01*
X54547837Y-100141873D01*
X54429373Y-100260337D01*
X54336295Y-100399639D01*
X54272184Y-100554417D01*
X54272182Y-100554425D01*
X54239500Y-100718728D01*
X54239500Y-100886271D01*
X53440499Y-100886271D01*
X53440500Y-100886267D01*
X53440500Y-100718733D01*
X53407816Y-100554418D01*
X53343703Y-100399637D01*
X53306381Y-100343781D01*
X53250626Y-100260337D01*
X53132162Y-100141873D01*
X52992860Y-100048795D01*
X52838082Y-99984684D01*
X52838074Y-99984682D01*
X52673771Y-99952000D01*
X52673767Y-99952000D01*
X52506233Y-99952000D01*
X52506228Y-99952000D01*
X52341925Y-99984682D01*
X52341917Y-99984684D01*
X52187139Y-100048795D01*
X52047837Y-100141873D01*
X51929373Y-100260337D01*
X51836295Y-100399639D01*
X51772184Y-100554417D01*
X51772182Y-100554425D01*
X51739500Y-100718728D01*
X51739500Y-100886271D01*
X50270500Y-100886271D01*
X50270500Y-96547361D01*
X53935500Y-96547361D01*
X53947055Y-96620315D01*
X53963928Y-96726847D01*
X53963928Y-96726850D01*
X54020081Y-96899671D01*
X54020083Y-96899674D01*
X54102583Y-97061590D01*
X54209397Y-97208606D01*
X54337894Y-97337103D01*
X54484910Y-97443917D01*
X54646826Y-97526417D01*
X54646828Y-97526418D01*
X54808029Y-97578794D01*
X54819654Y-97582572D01*
X54999139Y-97611000D01*
X54999140Y-97611000D01*
X55180860Y-97611000D01*
X55180861Y-97611000D01*
X55360346Y-97582572D01*
X55360349Y-97582571D01*
X55360350Y-97582571D01*
X55533171Y-97526418D01*
X55533171Y-97526417D01*
X55533174Y-97526417D01*
X55695090Y-97443917D01*
X55842106Y-97337103D01*
X55927819Y-97251390D01*
X55989142Y-97217905D01*
X56058834Y-97222889D01*
X56114767Y-97264761D01*
X56139184Y-97330225D01*
X56139500Y-97339071D01*
X56139500Y-99701369D01*
X56146382Y-99735964D01*
X56146382Y-99735967D01*
X56164497Y-99827036D01*
X56164499Y-99827044D01*
X56207163Y-99930045D01*
X56213535Y-99945427D01*
X56283671Y-100050394D01*
X56284726Y-100051973D01*
X60538424Y-104305671D01*
X60538431Y-104305677D01*
X60644971Y-104376864D01*
X60644970Y-104376864D01*
X60679644Y-104391226D01*
X60763356Y-104425901D01*
X60763360Y-104425901D01*
X60763361Y-104425902D01*
X60889028Y-104450900D01*
X60889031Y-104450900D01*
X84539871Y-104450900D01*
X84624415Y-104434082D01*
X84665544Y-104425901D01*
X84783927Y-104376865D01*
X84890469Y-104305677D01*
X86916145Y-102280001D01*
X88794532Y-102280001D01*
X88814364Y-102506686D01*
X88814366Y-102506697D01*
X88873258Y-102726488D01*
X88873261Y-102726497D01*
X88969431Y-102932732D01*
X88969432Y-102932734D01*
X89099954Y-103119141D01*
X89260858Y-103280045D01*
X89260861Y-103280047D01*
X89447266Y-103410568D01*
X89653504Y-103506739D01*
X89873308Y-103565635D01*
X90035230Y-103579801D01*
X90099998Y-103585468D01*
X90100000Y-103585468D01*
X90100002Y-103585468D01*
X90156673Y-103580509D01*
X90326692Y-103565635D01*
X90546496Y-103506739D01*
X90752734Y-103410568D01*
X90939139Y-103280047D01*
X91100047Y-103119139D01*
X91230568Y-102932734D01*
X91326739Y-102726496D01*
X91385635Y-102506692D01*
X91405468Y-102280001D01*
X101494532Y-102280001D01*
X101514364Y-102506686D01*
X101514366Y-102506697D01*
X101573258Y-102726488D01*
X101573261Y-102726497D01*
X101669431Y-102932732D01*
X101669432Y-102932734D01*
X101799954Y-103119141D01*
X101960858Y-103280045D01*
X101960861Y-103280047D01*
X102147266Y-103410568D01*
X102353504Y-103506739D01*
X102573308Y-103565635D01*
X102735230Y-103579801D01*
X102799998Y-103585468D01*
X102800000Y-103585468D01*
X102800002Y-103585468D01*
X102856673Y-103580509D01*
X103026692Y-103565635D01*
X103246496Y-103506739D01*
X103452734Y-103410568D01*
X103639139Y-103280047D01*
X103800047Y-103119139D01*
X103930568Y-102932734D01*
X104026739Y-102726496D01*
X104085635Y-102506692D01*
X104105468Y-102280000D01*
X104104915Y-102273684D01*
X104095729Y-102168681D01*
X104085635Y-102053308D01*
X104026739Y-101833504D01*
X103930568Y-101627266D01*
X103800047Y-101440861D01*
X103800045Y-101440858D01*
X103639141Y-101279954D01*
X103452734Y-101149432D01*
X103452732Y-101149431D01*
X103246497Y-101053261D01*
X103246488Y-101053258D01*
X103026697Y-100994366D01*
X103026693Y-100994365D01*
X103026692Y-100994365D01*
X103026691Y-100994364D01*
X103026686Y-100994364D01*
X102800002Y-100974532D01*
X102799998Y-100974532D01*
X102573313Y-100994364D01*
X102573302Y-100994366D01*
X102353511Y-101053258D01*
X102353502Y-101053261D01*
X102147267Y-101149431D01*
X102147265Y-101149432D01*
X101960858Y-101279954D01*
X101799954Y-101440858D01*
X101669432Y-101627265D01*
X101669431Y-101627267D01*
X101573261Y-101833502D01*
X101573258Y-101833511D01*
X101514366Y-102053302D01*
X101514364Y-102053313D01*
X101494532Y-102279998D01*
X101494532Y-102280001D01*
X91405468Y-102280001D01*
X91405468Y-102280000D01*
X91404915Y-102273684D01*
X91395729Y-102168681D01*
X91385635Y-102053308D01*
X91326739Y-101833504D01*
X91230568Y-101627266D01*
X91100047Y-101440861D01*
X91100045Y-101440858D01*
X90939141Y-101279954D01*
X90752734Y-101149432D01*
X90752732Y-101149431D01*
X90546497Y-101053261D01*
X90546488Y-101053258D01*
X90326697Y-100994366D01*
X90326693Y-100994365D01*
X90326692Y-100994365D01*
X90326691Y-100994364D01*
X90326686Y-100994364D01*
X90100002Y-100974532D01*
X90099998Y-100974532D01*
X89873313Y-100994364D01*
X89873302Y-100994366D01*
X89653511Y-101053258D01*
X89653502Y-101053261D01*
X89447267Y-101149431D01*
X89447265Y-101149432D01*
X89260858Y-101279954D01*
X89099954Y-101440858D01*
X88969432Y-101627265D01*
X88969431Y-101627267D01*
X88873261Y-101833502D01*
X88873258Y-101833511D01*
X88814366Y-102053302D01*
X88814364Y-102053313D01*
X88794532Y-102279998D01*
X88794532Y-102280001D01*
X86916145Y-102280001D01*
X90804327Y-98391819D01*
X90865650Y-98358334D01*
X90892008Y-98355500D01*
X96375959Y-98355500D01*
X96442998Y-98375185D01*
X96488753Y-98427989D01*
X96498697Y-98497147D01*
X96495734Y-98511593D01*
X96444366Y-98703302D01*
X96444364Y-98703313D01*
X96424532Y-98929998D01*
X96424532Y-98930001D01*
X96444364Y-99156686D01*
X96444366Y-99156697D01*
X96503258Y-99376488D01*
X96503261Y-99376497D01*
X96599431Y-99582732D01*
X96599432Y-99582734D01*
X96729954Y-99769141D01*
X96890858Y-99930045D01*
X96890861Y-99930047D01*
X97077266Y-100060568D01*
X97283504Y-100156739D01*
X97283509Y-100156740D01*
X97283511Y-100156741D01*
X97336415Y-100170916D01*
X97503308Y-100215635D01*
X97665230Y-100229801D01*
X97729998Y-100235468D01*
X97730000Y-100235468D01*
X97730002Y-100235468D01*
X97786673Y-100230509D01*
X97956692Y-100215635D01*
X98176496Y-100156739D01*
X98382734Y-100060568D01*
X98569139Y-99930047D01*
X98730047Y-99769139D01*
X98860568Y-99582734D01*
X98956739Y-99376496D01*
X99015635Y-99156692D01*
X99035468Y-98930000D01*
X99015635Y-98703308D01*
X98980679Y-98572850D01*
X98964266Y-98511593D01*
X98965929Y-98441743D01*
X99005092Y-98383881D01*
X99069320Y-98356377D01*
X99084041Y-98355500D01*
X101375959Y-98355500D01*
X101442998Y-98375185D01*
X101488753Y-98427989D01*
X101498697Y-98497147D01*
X101495734Y-98511593D01*
X101444366Y-98703302D01*
X101444364Y-98703313D01*
X101424532Y-98929998D01*
X101424532Y-98930001D01*
X101444364Y-99156686D01*
X101444366Y-99156697D01*
X101503258Y-99376488D01*
X101503261Y-99376497D01*
X101599431Y-99582732D01*
X101599432Y-99582734D01*
X101729954Y-99769141D01*
X101890858Y-99930045D01*
X101890861Y-99930047D01*
X102077266Y-100060568D01*
X102283504Y-100156739D01*
X102283509Y-100156740D01*
X102283511Y-100156741D01*
X102336415Y-100170916D01*
X102503308Y-100215635D01*
X102665230Y-100229801D01*
X102729998Y-100235468D01*
X102730000Y-100235468D01*
X102730002Y-100235468D01*
X102786673Y-100230509D01*
X102956692Y-100215635D01*
X103176496Y-100156739D01*
X103382734Y-100060568D01*
X103569139Y-99930047D01*
X103730047Y-99769139D01*
X103754975Y-99733537D01*
X103809548Y-99689914D01*
X103879046Y-99682719D01*
X103941402Y-99714240D01*
X103976817Y-99774469D01*
X103974048Y-99844284D01*
X103968933Y-99857063D01*
X103957924Y-99880672D01*
X103957922Y-99880677D01*
X103901293Y-100092020D01*
X103901293Y-100092024D01*
X103882223Y-100309997D01*
X103882223Y-100310002D01*
X103901293Y-100527975D01*
X103901293Y-100527979D01*
X103957922Y-100739322D01*
X103957924Y-100739326D01*
X103957925Y-100739330D01*
X103969662Y-100764500D01*
X104050397Y-100937638D01*
X104050398Y-100937639D01*
X104175902Y-101116877D01*
X104330623Y-101271598D01*
X104509861Y-101397102D01*
X104708170Y-101489575D01*
X104919523Y-101546207D01*
X105102426Y-101562208D01*
X105137498Y-101565277D01*
X105137500Y-101565277D01*
X105137502Y-101565277D01*
X105165754Y-101562805D01*
X105355477Y-101546207D01*
X105566830Y-101489575D01*
X105765139Y-101397102D01*
X105944377Y-101271598D01*
X106099098Y-101116877D01*
X106224602Y-100937639D01*
X106317075Y-100739330D01*
X106373707Y-100527977D01*
X106392777Y-100310000D01*
X106373707Y-100092023D01*
X106327614Y-99920001D01*
X106317077Y-99880677D01*
X106317076Y-99880676D01*
X106317075Y-99880670D01*
X106224602Y-99682362D01*
X106224600Y-99682359D01*
X106224599Y-99682357D01*
X106099099Y-99503124D01*
X106024546Y-99428571D01*
X105944377Y-99348402D01*
X105765139Y-99222898D01*
X105765140Y-99222898D01*
X105765138Y-99222897D01*
X105623170Y-99156697D01*
X105566830Y-99130425D01*
X105566826Y-99130424D01*
X105566822Y-99130422D01*
X105355477Y-99073793D01*
X105137502Y-99054723D01*
X105137498Y-99054723D01*
X104992182Y-99067436D01*
X104919523Y-99073793D01*
X104919520Y-99073793D01*
X104708177Y-99130422D01*
X104708168Y-99130426D01*
X104509861Y-99222898D01*
X104509857Y-99222900D01*
X104330621Y-99348402D01*
X104175902Y-99503121D01*
X104155988Y-99531561D01*
X104101410Y-99575185D01*
X104031912Y-99582376D01*
X103969558Y-99550852D01*
X103934145Y-99490621D01*
X103936918Y-99420807D01*
X103942023Y-99408053D01*
X103956739Y-99376496D01*
X104015635Y-99156692D01*
X104035468Y-98930000D01*
X104015635Y-98703308D01*
X103980679Y-98572850D01*
X103964266Y-98511593D01*
X103965929Y-98441743D01*
X104005092Y-98383881D01*
X104069320Y-98356377D01*
X104084041Y-98355500D01*
X105899071Y-98355500D01*
X105983615Y-98338682D01*
X106024744Y-98330501D01*
X106143127Y-98281465D01*
X106149411Y-98277266D01*
X106249669Y-98210277D01*
X113909402Y-90550542D01*
X113970723Y-90517059D01*
X114029173Y-90518449D01*
X114093308Y-90535635D01*
X114286239Y-90552514D01*
X114319998Y-90555468D01*
X114320000Y-90555468D01*
X114320002Y-90555468D01*
X114376673Y-90550509D01*
X114546692Y-90535635D01*
X114766496Y-90476739D01*
X114972734Y-90380568D01*
X115159139Y-90250047D01*
X115320047Y-90089139D01*
X115450568Y-89902734D01*
X115477895Y-89844129D01*
X115524064Y-89791695D01*
X115591257Y-89772542D01*
X115658139Y-89792757D01*
X115702657Y-89844133D01*
X115729865Y-89902482D01*
X115860342Y-90088820D01*
X116021179Y-90249657D01*
X116207517Y-90380134D01*
X116413673Y-90476265D01*
X116413682Y-90476269D01*
X116609999Y-90528872D01*
X116610000Y-90528871D01*
X116610000Y-89565686D01*
X116614394Y-89570080D01*
X116705606Y-89622741D01*
X116807339Y-89650000D01*
X116912661Y-89650000D01*
X117014394Y-89622741D01*
X117105606Y-89570080D01*
X117110000Y-89565686D01*
X117110000Y-90528872D01*
X117306317Y-90476269D01*
X117306326Y-90476265D01*
X117512482Y-90380134D01*
X117698820Y-90249657D01*
X117859657Y-90088820D01*
X117990134Y-89902482D01*
X118086265Y-89696326D01*
X118086269Y-89696317D01*
X118138872Y-89500000D01*
X117175686Y-89500000D01*
X117180080Y-89495606D01*
X117232741Y-89404394D01*
X117260000Y-89302661D01*
X117260000Y-89197339D01*
X117232741Y-89095606D01*
X117180080Y-89004394D01*
X117175686Y-89000000D01*
X118138872Y-89000000D01*
X118138872Y-88999999D01*
X118086269Y-88803682D01*
X118086265Y-88803673D01*
X117990134Y-88597517D01*
X117859657Y-88411179D01*
X117698820Y-88250342D01*
X117512482Y-88119865D01*
X117306328Y-88023734D01*
X117110000Y-87971127D01*
X117110000Y-88934314D01*
X117105606Y-88929920D01*
X117014394Y-88877259D01*
X116912661Y-88850000D01*
X116807339Y-88850000D01*
X116705606Y-88877259D01*
X116614394Y-88929920D01*
X116610000Y-88934314D01*
X116610000Y-87971127D01*
X116413671Y-88023734D01*
X116207517Y-88119865D01*
X116021179Y-88250342D01*
X115860342Y-88411179D01*
X115729867Y-88597515D01*
X115702657Y-88655867D01*
X115656484Y-88708306D01*
X115589290Y-88727457D01*
X115522409Y-88707241D01*
X115477893Y-88655865D01*
X115477709Y-88655471D01*
X115450568Y-88597266D01*
X115320047Y-88410861D01*
X115320045Y-88410858D01*
X115159141Y-88249954D01*
X114972734Y-88119432D01*
X114972732Y-88119431D01*
X114766497Y-88023261D01*
X114766488Y-88023258D01*
X114546697Y-87964366D01*
X114546693Y-87964365D01*
X114546692Y-87964365D01*
X114546691Y-87964364D01*
X114546686Y-87964364D01*
X114320002Y-87944532D01*
X114319998Y-87944532D01*
X114093313Y-87964364D01*
X114093302Y-87964366D01*
X113873511Y-88023258D01*
X113873502Y-88023261D01*
X113667267Y-88119431D01*
X113667265Y-88119432D01*
X113480858Y-88249954D01*
X113319954Y-88410858D01*
X113189432Y-88597265D01*
X113189431Y-88597267D01*
X113162382Y-88655275D01*
X113116209Y-88707714D01*
X113049016Y-88726866D01*
X112982135Y-88706650D01*
X112937618Y-88655275D01*
X112910568Y-88597266D01*
X112780047Y-88410861D01*
X112780045Y-88410858D01*
X112619141Y-88249954D01*
X112432734Y-88119432D01*
X112432732Y-88119431D01*
X112226497Y-88023261D01*
X112226488Y-88023258D01*
X112006697Y-87964366D01*
X112006693Y-87964365D01*
X112006692Y-87964365D01*
X112006691Y-87964364D01*
X112006686Y-87964364D01*
X111780002Y-87944532D01*
X111779998Y-87944532D01*
X111553313Y-87964364D01*
X111553302Y-87964366D01*
X111333511Y-88023258D01*
X111333502Y-88023261D01*
X111127267Y-88119431D01*
X111127265Y-88119432D01*
X110940858Y-88249954D01*
X110779954Y-88410858D01*
X110649432Y-88597265D01*
X110649431Y-88597267D01*
X110622382Y-88655275D01*
X110576209Y-88707714D01*
X110509016Y-88726866D01*
X110442135Y-88706650D01*
X110397618Y-88655275D01*
X110370568Y-88597266D01*
X110240047Y-88410861D01*
X110240045Y-88410858D01*
X110079141Y-88249954D01*
X109892734Y-88119432D01*
X109892732Y-88119431D01*
X109686497Y-88023261D01*
X109686488Y-88023258D01*
X109466697Y-87964366D01*
X109466693Y-87964365D01*
X109466692Y-87964365D01*
X109466691Y-87964364D01*
X109466686Y-87964364D01*
X109240002Y-87944532D01*
X109239998Y-87944532D01*
X109013313Y-87964364D01*
X109013302Y-87964366D01*
X108793511Y-88023258D01*
X108793502Y-88023261D01*
X108587267Y-88119431D01*
X108587265Y-88119432D01*
X108400858Y-88249954D01*
X108239954Y-88410858D01*
X108109432Y-88597265D01*
X108109431Y-88597267D01*
X108082382Y-88655275D01*
X108036209Y-88707714D01*
X107969016Y-88726866D01*
X107902135Y-88706650D01*
X107857618Y-88655275D01*
X107830568Y-88597266D01*
X107700047Y-88410861D01*
X107700045Y-88410858D01*
X107539141Y-88249954D01*
X107352734Y-88119432D01*
X107352732Y-88119431D01*
X107146497Y-88023261D01*
X107146488Y-88023258D01*
X106926697Y-87964366D01*
X106926693Y-87964365D01*
X106926692Y-87964365D01*
X106926691Y-87964364D01*
X106926686Y-87964364D01*
X106700002Y-87944532D01*
X106699998Y-87944532D01*
X106473313Y-87964364D01*
X106473302Y-87964366D01*
X106253511Y-88023258D01*
X106253502Y-88023261D01*
X106047267Y-88119431D01*
X106047265Y-88119432D01*
X105860858Y-88249954D01*
X105699954Y-88410858D01*
X105569432Y-88597265D01*
X105569431Y-88597267D01*
X105542382Y-88655275D01*
X105496209Y-88707714D01*
X105429016Y-88726866D01*
X105362135Y-88706650D01*
X105317618Y-88655275D01*
X105290568Y-88597266D01*
X105160047Y-88410861D01*
X105160045Y-88410858D01*
X104999141Y-88249954D01*
X104812734Y-88119432D01*
X104812732Y-88119431D01*
X104606497Y-88023261D01*
X104606488Y-88023258D01*
X104386697Y-87964366D01*
X104386693Y-87964365D01*
X104386692Y-87964365D01*
X104386691Y-87964364D01*
X104386686Y-87964364D01*
X104160002Y-87944532D01*
X104159998Y-87944532D01*
X103933313Y-87964364D01*
X103933302Y-87964366D01*
X103713511Y-88023258D01*
X103713502Y-88023261D01*
X103507267Y-88119431D01*
X103507265Y-88119432D01*
X103320858Y-88249954D01*
X103159954Y-88410858D01*
X103029432Y-88597265D01*
X103029431Y-88597267D01*
X103002382Y-88655275D01*
X102956209Y-88707714D01*
X102889016Y-88726866D01*
X102822135Y-88706650D01*
X102777618Y-88655275D01*
X102750568Y-88597266D01*
X102620047Y-88410861D01*
X102620045Y-88410858D01*
X102459141Y-88249954D01*
X102272734Y-88119432D01*
X102272732Y-88119431D01*
X102066497Y-88023261D01*
X102066488Y-88023258D01*
X101846697Y-87964366D01*
X101846693Y-87964365D01*
X101846692Y-87964365D01*
X101846691Y-87964364D01*
X101846686Y-87964364D01*
X101620002Y-87944532D01*
X101619998Y-87944532D01*
X101393313Y-87964364D01*
X101393302Y-87964366D01*
X101173511Y-88023258D01*
X101173502Y-88023261D01*
X100967267Y-88119431D01*
X100967265Y-88119432D01*
X100780858Y-88249954D01*
X100619954Y-88410858D01*
X100489432Y-88597265D01*
X100489431Y-88597267D01*
X100393261Y-88803502D01*
X100393258Y-88803511D01*
X100334366Y-89023302D01*
X100334364Y-89023313D01*
X100314532Y-89249998D01*
X100314532Y-89250001D01*
X100334364Y-89476686D01*
X100334366Y-89476697D01*
X100393258Y-89696488D01*
X100393261Y-89696497D01*
X100489431Y-89902732D01*
X100489432Y-89902734D01*
X100619954Y-90089141D01*
X100780858Y-90250045D01*
X100780861Y-90250047D01*
X100967266Y-90380568D01*
X101173504Y-90476739D01*
X101393308Y-90535635D01*
X101555230Y-90549801D01*
X101619998Y-90555468D01*
X101620000Y-90555468D01*
X101620002Y-90555468D01*
X101676673Y-90550509D01*
X101846692Y-90535635D01*
X102066496Y-90476739D01*
X102272734Y-90380568D01*
X102459139Y-90250047D01*
X102620047Y-90089139D01*
X102750568Y-89902734D01*
X102777618Y-89844724D01*
X102823790Y-89792285D01*
X102890983Y-89773133D01*
X102957865Y-89793348D01*
X103002382Y-89844725D01*
X103029429Y-89902728D01*
X103029432Y-89902734D01*
X103159954Y-90089141D01*
X103320858Y-90250045D01*
X103320861Y-90250047D01*
X103507266Y-90380568D01*
X103713504Y-90476739D01*
X103933308Y-90535635D01*
X104095230Y-90549801D01*
X104159998Y-90555468D01*
X104160000Y-90555468D01*
X104160002Y-90555468D01*
X104216673Y-90550509D01*
X104386692Y-90535635D01*
X104606496Y-90476739D01*
X104812734Y-90380568D01*
X104999139Y-90250047D01*
X105160047Y-90089139D01*
X105290568Y-89902734D01*
X105317618Y-89844724D01*
X105363790Y-89792285D01*
X105430983Y-89773133D01*
X105497865Y-89793348D01*
X105542382Y-89844725D01*
X105569429Y-89902728D01*
X105569432Y-89902734D01*
X105699954Y-90089141D01*
X105860858Y-90250045D01*
X105860861Y-90250047D01*
X106047266Y-90380568D01*
X106253504Y-90476739D01*
X106473308Y-90535635D01*
X106635230Y-90549801D01*
X106699998Y-90555468D01*
X106700000Y-90555468D01*
X106700002Y-90555468D01*
X106756673Y-90550509D01*
X106926692Y-90535635D01*
X107146496Y-90476739D01*
X107352734Y-90380568D01*
X107539139Y-90250047D01*
X107700047Y-90089139D01*
X107830568Y-89902734D01*
X107857618Y-89844724D01*
X107903790Y-89792285D01*
X107970983Y-89773133D01*
X108037865Y-89793348D01*
X108082382Y-89844725D01*
X108109429Y-89902728D01*
X108109432Y-89902734D01*
X108239954Y-90089141D01*
X108400858Y-90250045D01*
X108400861Y-90250047D01*
X108587266Y-90380568D01*
X108793504Y-90476739D01*
X109013308Y-90535635D01*
X109175230Y-90549801D01*
X109239998Y-90555468D01*
X109240000Y-90555468D01*
X109240002Y-90555468D01*
X109296673Y-90550509D01*
X109466692Y-90535635D01*
X109686496Y-90476739D01*
X109892734Y-90380568D01*
X110079139Y-90250047D01*
X110240047Y-90089139D01*
X110370568Y-89902734D01*
X110397618Y-89844724D01*
X110443790Y-89792285D01*
X110510983Y-89773133D01*
X110577865Y-89793348D01*
X110622382Y-89844725D01*
X110649429Y-89902728D01*
X110649432Y-89902734D01*
X110779954Y-90089141D01*
X110940858Y-90250045D01*
X110940861Y-90250047D01*
X111127266Y-90380568D01*
X111333504Y-90476739D01*
X111553308Y-90535635D01*
X111776784Y-90555186D01*
X111841852Y-90580638D01*
X111882831Y-90637229D01*
X111886709Y-90706991D01*
X111853657Y-90766395D01*
X106391079Y-96228974D01*
X106329756Y-96262459D01*
X106260064Y-96257475D01*
X106204131Y-96215603D01*
X106179714Y-96150139D01*
X106194566Y-96081866D01*
X106201816Y-96070179D01*
X106224602Y-96037639D01*
X106317075Y-95839330D01*
X106373707Y-95627977D01*
X106392777Y-95410000D01*
X106391870Y-95399637D01*
X106384809Y-95318924D01*
X106373707Y-95192023D01*
X106326361Y-95015324D01*
X106317077Y-94980677D01*
X106317076Y-94980676D01*
X106317075Y-94980670D01*
X106224602Y-94782362D01*
X106224600Y-94782359D01*
X106224599Y-94782357D01*
X106099099Y-94603124D01*
X106039384Y-94543409D01*
X105944377Y-94448402D01*
X105806478Y-94351844D01*
X105765138Y-94322897D01*
X105647189Y-94267897D01*
X105566830Y-94230425D01*
X105566826Y-94230424D01*
X105566822Y-94230422D01*
X105355477Y-94173793D01*
X105137502Y-94154723D01*
X105137498Y-94154723D01*
X104992182Y-94167436D01*
X104919523Y-94173793D01*
X104919520Y-94173793D01*
X104708177Y-94230422D01*
X104708168Y-94230426D01*
X104509861Y-94322898D01*
X104509857Y-94322900D01*
X104330621Y-94448402D01*
X104175902Y-94603121D01*
X104050400Y-94782357D01*
X104050398Y-94782361D01*
X103957926Y-94980668D01*
X103957922Y-94980677D01*
X103901293Y-95192020D01*
X103901293Y-95192024D01*
X103882223Y-95409997D01*
X103882223Y-95410002D01*
X103889254Y-95490370D01*
X103875487Y-95558870D01*
X103826872Y-95609053D01*
X103758843Y-95624986D01*
X103693000Y-95601610D01*
X103678045Y-95588858D01*
X103569141Y-95479954D01*
X103513066Y-95440691D01*
X103417104Y-95373498D01*
X103373481Y-95318924D01*
X103366615Y-95296128D01*
X103355501Y-95240256D01*
X103306465Y-95121873D01*
X103306464Y-95121870D01*
X103235277Y-95015331D01*
X103235271Y-95015324D01*
X102919447Y-94699501D01*
X102885962Y-94638178D01*
X102890946Y-94568487D01*
X102932817Y-94512553D01*
X102996320Y-94488292D01*
X103026692Y-94485635D01*
X103246496Y-94426739D01*
X103452734Y-94330568D01*
X103639139Y-94200047D01*
X103800047Y-94039139D01*
X103930568Y-93852734D01*
X104026739Y-93646496D01*
X104085635Y-93426692D01*
X104105468Y-93200000D01*
X104085635Y-92973308D01*
X104026739Y-92753504D01*
X103930568Y-92547266D01*
X103800047Y-92360861D01*
X103800045Y-92360858D01*
X103639141Y-92199954D01*
X103452734Y-92069432D01*
X103452732Y-92069431D01*
X103246497Y-91973261D01*
X103246488Y-91973258D01*
X103026697Y-91914366D01*
X103026693Y-91914365D01*
X103026692Y-91914365D01*
X103026691Y-91914364D01*
X103026686Y-91914364D01*
X102800002Y-91894532D01*
X102799998Y-91894532D01*
X102573313Y-91914364D01*
X102573299Y-91914367D01*
X102532834Y-91925209D01*
X102462984Y-91923545D01*
X102413061Y-91893115D01*
X101624674Y-91104727D01*
X101624673Y-91104726D01*
X101624669Y-91104723D01*
X101518127Y-91033535D01*
X101399744Y-90984499D01*
X101399738Y-90984497D01*
X101274071Y-90959500D01*
X101274069Y-90959500D01*
X90273308Y-90959500D01*
X90206269Y-90939815D01*
X90185627Y-90923181D01*
X90028654Y-90766208D01*
X89995169Y-90704885D01*
X90000153Y-90635193D01*
X90042025Y-90579260D01*
X90107489Y-90554843D01*
X90127138Y-90554998D01*
X90132500Y-90555468D01*
X90359192Y-90535635D01*
X90578996Y-90476739D01*
X90785234Y-90380568D01*
X90971639Y-90250047D01*
X91132547Y-90089139D01*
X91263068Y-89902734D01*
X91290118Y-89844724D01*
X91336290Y-89792285D01*
X91403483Y-89773133D01*
X91470365Y-89793348D01*
X91514882Y-89844725D01*
X91541929Y-89902728D01*
X91541932Y-89902734D01*
X91672454Y-90089141D01*
X91833358Y-90250045D01*
X91833361Y-90250047D01*
X92019766Y-90380568D01*
X92226004Y-90476739D01*
X92445808Y-90535635D01*
X92607730Y-90549801D01*
X92672498Y-90555468D01*
X92672500Y-90555468D01*
X92672502Y-90555468D01*
X92729173Y-90550509D01*
X92899192Y-90535635D01*
X93118996Y-90476739D01*
X93325234Y-90380568D01*
X93511639Y-90250047D01*
X93672547Y-90089139D01*
X93803068Y-89902734D01*
X93830395Y-89844129D01*
X93876564Y-89791695D01*
X93943757Y-89772542D01*
X94010639Y-89792757D01*
X94055157Y-89844133D01*
X94082365Y-89902482D01*
X94212842Y-90088820D01*
X94373679Y-90249657D01*
X94560017Y-90380134D01*
X94766173Y-90476265D01*
X94766182Y-90476269D01*
X94962499Y-90528872D01*
X94962500Y-90528871D01*
X94962500Y-89565686D01*
X94966894Y-89570080D01*
X95058106Y-89622741D01*
X95159839Y-89650000D01*
X95265161Y-89650000D01*
X95366894Y-89622741D01*
X95458106Y-89570080D01*
X95462500Y-89565686D01*
X95462500Y-90528872D01*
X95658817Y-90476269D01*
X95658826Y-90476265D01*
X95864982Y-90380134D01*
X96051320Y-90249657D01*
X96212157Y-90088820D01*
X96342634Y-89902482D01*
X96438765Y-89696326D01*
X96438769Y-89696317D01*
X96491372Y-89500000D01*
X95528186Y-89500000D01*
X95532580Y-89495606D01*
X95585241Y-89404394D01*
X95612500Y-89302661D01*
X95612500Y-89197339D01*
X95585241Y-89095606D01*
X95532580Y-89004394D01*
X95528186Y-89000000D01*
X96491372Y-89000000D01*
X96491372Y-88999999D01*
X96438769Y-88803682D01*
X96438765Y-88803673D01*
X96342634Y-88597517D01*
X96212157Y-88411179D01*
X96051320Y-88250342D01*
X95864982Y-88119865D01*
X95658828Y-88023734D01*
X95462500Y-87971127D01*
X95462500Y-88934314D01*
X95458106Y-88929920D01*
X95366894Y-88877259D01*
X95265161Y-88850000D01*
X95159839Y-88850000D01*
X95058106Y-88877259D01*
X94966894Y-88929920D01*
X94962500Y-88934314D01*
X94962500Y-87971127D01*
X94766171Y-88023734D01*
X94560017Y-88119865D01*
X94373679Y-88250342D01*
X94212842Y-88411179D01*
X94082367Y-88597515D01*
X94055157Y-88655867D01*
X94008984Y-88708306D01*
X93941790Y-88727457D01*
X93874909Y-88707241D01*
X93830393Y-88655865D01*
X93830209Y-88655471D01*
X93803068Y-88597266D01*
X93672547Y-88410861D01*
X93672545Y-88410858D01*
X93511641Y-88249954D01*
X93325234Y-88119432D01*
X93325232Y-88119431D01*
X93118997Y-88023261D01*
X93118988Y-88023258D01*
X92899197Y-87964366D01*
X92899193Y-87964365D01*
X92899192Y-87964365D01*
X92899191Y-87964364D01*
X92899186Y-87964364D01*
X92672502Y-87944532D01*
X92672498Y-87944532D01*
X92445813Y-87964364D01*
X92445802Y-87964366D01*
X92226011Y-88023258D01*
X92226002Y-88023261D01*
X92019767Y-88119431D01*
X92019765Y-88119432D01*
X91833358Y-88249954D01*
X91672454Y-88410858D01*
X91541932Y-88597265D01*
X91541931Y-88597267D01*
X91514882Y-88655275D01*
X91468709Y-88707714D01*
X91401516Y-88726866D01*
X91334635Y-88706650D01*
X91290118Y-88655275D01*
X91263068Y-88597266D01*
X91132547Y-88410861D01*
X91132545Y-88410858D01*
X90971641Y-88249954D01*
X90785234Y-88119432D01*
X90785232Y-88119431D01*
X90578997Y-88023261D01*
X90578988Y-88023258D01*
X90359197Y-87964366D01*
X90359193Y-87964365D01*
X90359192Y-87964365D01*
X90359191Y-87964364D01*
X90359186Y-87964364D01*
X90132502Y-87944532D01*
X90132498Y-87944532D01*
X89905813Y-87964364D01*
X89905802Y-87964366D01*
X89686011Y-88023258D01*
X89686002Y-88023261D01*
X89479767Y-88119431D01*
X89479765Y-88119432D01*
X89293358Y-88249954D01*
X89132454Y-88410858D01*
X89001932Y-88597265D01*
X89001931Y-88597267D01*
X88974882Y-88655275D01*
X88928709Y-88707714D01*
X88861516Y-88726866D01*
X88794635Y-88706650D01*
X88750118Y-88655275D01*
X88723068Y-88597266D01*
X88592547Y-88410861D01*
X88592545Y-88410858D01*
X88431641Y-88249954D01*
X88245234Y-88119432D01*
X88245232Y-88119431D01*
X88038997Y-88023261D01*
X88038988Y-88023258D01*
X87819197Y-87964366D01*
X87819193Y-87964365D01*
X87819192Y-87964365D01*
X87819191Y-87964364D01*
X87819186Y-87964364D01*
X87592502Y-87944532D01*
X87592498Y-87944532D01*
X87365813Y-87964364D01*
X87365799Y-87964367D01*
X87325334Y-87975209D01*
X87255484Y-87973545D01*
X87205561Y-87943115D01*
X87192448Y-87930002D01*
X119375034Y-87930002D01*
X119394858Y-88156599D01*
X119394860Y-88156610D01*
X119453730Y-88376317D01*
X119453735Y-88376331D01*
X119549863Y-88582478D01*
X119600974Y-88655472D01*
X120280000Y-87976446D01*
X120280000Y-87982661D01*
X120307259Y-88084394D01*
X120359920Y-88175606D01*
X120434394Y-88250080D01*
X120525606Y-88302741D01*
X120627339Y-88330000D01*
X120633553Y-88330000D01*
X119954526Y-89009025D01*
X120027513Y-89060132D01*
X120027521Y-89060136D01*
X120233668Y-89156264D01*
X120233682Y-89156269D01*
X120453389Y-89215139D01*
X120453400Y-89215141D01*
X120679998Y-89234966D01*
X120680002Y-89234966D01*
X120906599Y-89215141D01*
X120906610Y-89215139D01*
X121126317Y-89156269D01*
X121126331Y-89156264D01*
X121332478Y-89060136D01*
X121405471Y-89009024D01*
X120726447Y-88330000D01*
X120732661Y-88330000D01*
X120834394Y-88302741D01*
X120925606Y-88250080D01*
X121000080Y-88175606D01*
X121052741Y-88084394D01*
X121080000Y-87982661D01*
X121080000Y-87976447D01*
X121759024Y-88655471D01*
X121810136Y-88582478D01*
X121906264Y-88376331D01*
X121906269Y-88376317D01*
X121965139Y-88156610D01*
X121965141Y-88156599D01*
X121984966Y-87930002D01*
X121984966Y-87929997D01*
X121965141Y-87703400D01*
X121965139Y-87703389D01*
X121906269Y-87483682D01*
X121906264Y-87483668D01*
X121810136Y-87277521D01*
X121810132Y-87277513D01*
X121759025Y-87204526D01*
X121080000Y-87883551D01*
X121080000Y-87877339D01*
X121052741Y-87775606D01*
X121000080Y-87684394D01*
X120925606Y-87609920D01*
X120834394Y-87557259D01*
X120732661Y-87530000D01*
X120726448Y-87530000D01*
X121405472Y-86850974D01*
X121332478Y-86799863D01*
X121126331Y-86703735D01*
X121126317Y-86703730D01*
X120906610Y-86644860D01*
X120906599Y-86644858D01*
X120680002Y-86625034D01*
X120679998Y-86625034D01*
X120453400Y-86644858D01*
X120453389Y-86644860D01*
X120233682Y-86703730D01*
X120233673Y-86703734D01*
X120027516Y-86799866D01*
X120027512Y-86799868D01*
X119954526Y-86850973D01*
X119954526Y-86850974D01*
X120633553Y-87530000D01*
X120627339Y-87530000D01*
X120525606Y-87557259D01*
X120434394Y-87609920D01*
X120359920Y-87684394D01*
X120307259Y-87775606D01*
X120280000Y-87877339D01*
X120280000Y-87883552D01*
X119600974Y-87204526D01*
X119600973Y-87204526D01*
X119549868Y-87277512D01*
X119549866Y-87277516D01*
X119453734Y-87483673D01*
X119453730Y-87483682D01*
X119394860Y-87703389D01*
X119394858Y-87703400D01*
X119375034Y-87929997D01*
X119375034Y-87930002D01*
X87192448Y-87930002D01*
X86667174Y-87404727D01*
X86667173Y-87404726D01*
X86667169Y-87404723D01*
X86560627Y-87333535D01*
X86560623Y-87333533D01*
X86442242Y-87284498D01*
X86442239Y-87284497D01*
X86437248Y-87283505D01*
X86437242Y-87283504D01*
X86316571Y-87259500D01*
X86316569Y-87259500D01*
X81248431Y-87259500D01*
X81248429Y-87259500D01*
X81127758Y-87283504D01*
X81127752Y-87283505D01*
X81122760Y-87284497D01*
X81122757Y-87284498D01*
X81004375Y-87333533D01*
X81004366Y-87333538D01*
X80897831Y-87404723D01*
X80897827Y-87404726D01*
X80359438Y-87943115D01*
X80298115Y-87976600D01*
X80239665Y-87975209D01*
X80199200Y-87964367D01*
X80199197Y-87964366D01*
X80199192Y-87964365D01*
X80199189Y-87964364D01*
X80199186Y-87964364D01*
X79972502Y-87944532D01*
X79972498Y-87944532D01*
X79745813Y-87964364D01*
X79745802Y-87964366D01*
X79526011Y-88023258D01*
X79526002Y-88023261D01*
X79319767Y-88119431D01*
X79319765Y-88119432D01*
X79133358Y-88249954D01*
X78972454Y-88410858D01*
X78841932Y-88597265D01*
X78841931Y-88597267D01*
X78745761Y-88803502D01*
X78745758Y-88803511D01*
X78686866Y-89023302D01*
X78686864Y-89023313D01*
X78667032Y-89249998D01*
X78667032Y-89250001D01*
X78686864Y-89476686D01*
X78686866Y-89476697D01*
X78745758Y-89696488D01*
X78745761Y-89696497D01*
X78841931Y-89902732D01*
X78841932Y-89902734D01*
X78972454Y-90089141D01*
X79133358Y-90250045D01*
X79133361Y-90250047D01*
X79319766Y-90380568D01*
X79526004Y-90476739D01*
X79745808Y-90535635D01*
X79907730Y-90549801D01*
X79972498Y-90555468D01*
X79972500Y-90555468D01*
X79972502Y-90555468D01*
X80029173Y-90550509D01*
X80199192Y-90535635D01*
X80418996Y-90476739D01*
X80625234Y-90380568D01*
X80811639Y-90250047D01*
X80972547Y-90089139D01*
X81103068Y-89902734D01*
X81130118Y-89844724D01*
X81176290Y-89792285D01*
X81243483Y-89773133D01*
X81310365Y-89793348D01*
X81354882Y-89844725D01*
X81381929Y-89902728D01*
X81381932Y-89902734D01*
X81512454Y-90089141D01*
X81673355Y-90250042D01*
X81673358Y-90250044D01*
X81673361Y-90250047D01*
X81809126Y-90345109D01*
X81852748Y-90399683D01*
X81862000Y-90446682D01*
X81862000Y-91046357D01*
X81842315Y-91113396D01*
X81789511Y-91159151D01*
X81748808Y-91169885D01*
X81583312Y-91184364D01*
X81583302Y-91184366D01*
X81363511Y-91243258D01*
X81363502Y-91243261D01*
X81157267Y-91339431D01*
X81157265Y-91339432D01*
X80970858Y-91469954D01*
X80809954Y-91630858D01*
X80679432Y-91817265D01*
X80679431Y-91817267D01*
X80583261Y-92023502D01*
X80583258Y-92023511D01*
X80524366Y-92243302D01*
X80524364Y-92243313D01*
X80504532Y-92469998D01*
X80504532Y-92470001D01*
X80524364Y-92696686D01*
X80524366Y-92696697D01*
X80583258Y-92916488D01*
X80583261Y-92916497D01*
X80679431Y-93122732D01*
X80679432Y-93122734D01*
X80809954Y-93309141D01*
X80970855Y-93470042D01*
X80970858Y-93470044D01*
X80970861Y-93470047D01*
X81106626Y-93565109D01*
X81150248Y-93619683D01*
X81159500Y-93666682D01*
X81159500Y-94993316D01*
X81139815Y-95060355D01*
X81106623Y-95094891D01*
X80970859Y-95189953D01*
X80809954Y-95350858D01*
X80679432Y-95537265D01*
X80679431Y-95537267D01*
X80583261Y-95743502D01*
X80583258Y-95743511D01*
X80524366Y-95963302D01*
X80524364Y-95963313D01*
X80504532Y-96189998D01*
X80504532Y-96190001D01*
X80524364Y-96416686D01*
X80524366Y-96416697D01*
X80583258Y-96636488D01*
X80583261Y-96636497D01*
X80679431Y-96842732D01*
X80679432Y-96842734D01*
X80809954Y-97029141D01*
X80970858Y-97190045D01*
X80970861Y-97190047D01*
X81157266Y-97320568D01*
X81363504Y-97416739D01*
X81583308Y-97475635D01*
X81745230Y-97489801D01*
X81809998Y-97495468D01*
X81810000Y-97495468D01*
X81810002Y-97495468D01*
X81866673Y-97490509D01*
X82036692Y-97475635D01*
X82256496Y-97416739D01*
X82462734Y-97320568D01*
X82649139Y-97190047D01*
X82810047Y-97029139D01*
X82940568Y-96842734D01*
X83036739Y-96636496D01*
X83095635Y-96416692D01*
X83115468Y-96190000D01*
X83095635Y-95963308D01*
X83036739Y-95743504D01*
X82940568Y-95537266D01*
X82810047Y-95350861D01*
X82810045Y-95350858D01*
X82649140Y-95189953D01*
X82513377Y-95094891D01*
X82469752Y-95040314D01*
X82460500Y-94993316D01*
X82460500Y-93666682D01*
X82480185Y-93599643D01*
X82513371Y-93565111D01*
X82649139Y-93470047D01*
X82810047Y-93309139D01*
X82940568Y-93122734D01*
X83036739Y-92916496D01*
X83065641Y-92808630D01*
X83102006Y-92748971D01*
X83164852Y-92718441D01*
X83234228Y-92726735D01*
X83273097Y-92753043D01*
X84225326Y-93705273D01*
X84225327Y-93705274D01*
X84225330Y-93705276D01*
X84328236Y-93774035D01*
X84331871Y-93776464D01*
X84331872Y-93776464D01*
X84331873Y-93776465D01*
X84450256Y-93825501D01*
X84450260Y-93825501D01*
X84450261Y-93825502D01*
X84575928Y-93850500D01*
X84575931Y-93850500D01*
X88903317Y-93850500D01*
X88970356Y-93870185D01*
X89004892Y-93903377D01*
X89099954Y-94039141D01*
X89260858Y-94200045D01*
X89260861Y-94200047D01*
X89447266Y-94330568D01*
X89653504Y-94426739D01*
X89653509Y-94426740D01*
X89653511Y-94426741D01*
X89706415Y-94440916D01*
X89873308Y-94485635D01*
X90035230Y-94499801D01*
X90099998Y-94505468D01*
X90100000Y-94505468D01*
X90100002Y-94505468D01*
X90156673Y-94500509D01*
X90326692Y-94485635D01*
X90546496Y-94426739D01*
X90752734Y-94330568D01*
X90939139Y-94200047D01*
X91100047Y-94039139D01*
X91195108Y-93903377D01*
X91249685Y-93859752D01*
X91296683Y-93850500D01*
X100179192Y-93850500D01*
X100246231Y-93870185D01*
X100266873Y-93886819D01*
X101787752Y-95407698D01*
X101821237Y-95469021D01*
X101816253Y-95538713D01*
X101787753Y-95583060D01*
X101729951Y-95640862D01*
X101599432Y-95827265D01*
X101599431Y-95827267D01*
X101503261Y-96033502D01*
X101503258Y-96033511D01*
X101444366Y-96253302D01*
X101444364Y-96253313D01*
X101424532Y-96479998D01*
X101424532Y-96480001D01*
X101444364Y-96706686D01*
X101444366Y-96706697D01*
X101495734Y-96898407D01*
X101494071Y-96968257D01*
X101454908Y-97026119D01*
X101390680Y-97053623D01*
X101375959Y-97054500D01*
X99084041Y-97054500D01*
X99017002Y-97034815D01*
X98971247Y-96982011D01*
X98961303Y-96912853D01*
X98964266Y-96898407D01*
X98989017Y-96806030D01*
X99015635Y-96706692D01*
X99035468Y-96480000D01*
X99034971Y-96474324D01*
X99025984Y-96371598D01*
X99015635Y-96253308D01*
X98970916Y-96086415D01*
X98956741Y-96033511D01*
X98956738Y-96033502D01*
X98905132Y-95922834D01*
X98860568Y-95827266D01*
X98730047Y-95640861D01*
X98730045Y-95640858D01*
X98569141Y-95479954D01*
X98382734Y-95349432D01*
X98382732Y-95349431D01*
X98176497Y-95253261D01*
X98176488Y-95253258D01*
X97956697Y-95194366D01*
X97956693Y-95194365D01*
X97956692Y-95194365D01*
X97956691Y-95194364D01*
X97956686Y-95194364D01*
X97730002Y-95174532D01*
X97729998Y-95174532D01*
X97503313Y-95194364D01*
X97503302Y-95194366D01*
X97283511Y-95253258D01*
X97283502Y-95253261D01*
X97077267Y-95349431D01*
X97077265Y-95349432D01*
X96890858Y-95479954D01*
X96729954Y-95640858D01*
X96599432Y-95827265D01*
X96599431Y-95827267D01*
X96503261Y-96033502D01*
X96503258Y-96033511D01*
X96444366Y-96253302D01*
X96444364Y-96253313D01*
X96424532Y-96479998D01*
X96424532Y-96480001D01*
X96444364Y-96706686D01*
X96444366Y-96706697D01*
X96495734Y-96898407D01*
X96494071Y-96968257D01*
X96454908Y-97026119D01*
X96390680Y-97053623D01*
X96375959Y-97054500D01*
X90507129Y-97054500D01*
X90381461Y-97079497D01*
X90381455Y-97079499D01*
X90263070Y-97128535D01*
X90156531Y-97199722D01*
X90156524Y-97199728D01*
X84242673Y-103113581D01*
X84181350Y-103147066D01*
X84154992Y-103149900D01*
X67453312Y-103149900D01*
X67386273Y-103130215D01*
X67340518Y-103077411D01*
X67330574Y-103008253D01*
X67333537Y-102993807D01*
X67353920Y-102917731D01*
X67375635Y-102836692D01*
X67395468Y-102610000D01*
X67375635Y-102383308D01*
X67364790Y-102342834D01*
X67366453Y-102272986D01*
X67396882Y-102223063D01*
X67543128Y-102076816D01*
X67604450Y-102043334D01*
X67630808Y-102040500D01*
X80404071Y-102040500D01*
X80488615Y-102023682D01*
X80529744Y-102015501D01*
X80648127Y-101966465D01*
X80661894Y-101957266D01*
X80754669Y-101895277D01*
X81423062Y-101226882D01*
X81484383Y-101193399D01*
X81542834Y-101194790D01*
X81583308Y-101205635D01*
X81745230Y-101219801D01*
X81809998Y-101225468D01*
X81810000Y-101225468D01*
X81810002Y-101225468D01*
X81866673Y-101220509D01*
X82036692Y-101205635D01*
X82256496Y-101146739D01*
X82462734Y-101050568D01*
X82649139Y-100920047D01*
X82810047Y-100759139D01*
X82940568Y-100572734D01*
X83036739Y-100366496D01*
X83095635Y-100146692D01*
X83115468Y-99920000D01*
X83095635Y-99693308D01*
X83044675Y-99503121D01*
X83036741Y-99473511D01*
X83036738Y-99473502D01*
X83004409Y-99404173D01*
X82940568Y-99267266D01*
X82810047Y-99080861D01*
X82810045Y-99080858D01*
X82649141Y-98919954D01*
X82462734Y-98789432D01*
X82462732Y-98789431D01*
X82256497Y-98693261D01*
X82256488Y-98693258D01*
X82036697Y-98634366D01*
X82036693Y-98634365D01*
X82036692Y-98634365D01*
X82036691Y-98634364D01*
X82036686Y-98634364D01*
X81810002Y-98614532D01*
X81809998Y-98614532D01*
X81583313Y-98634364D01*
X81583302Y-98634366D01*
X81363511Y-98693258D01*
X81363502Y-98693261D01*
X81157267Y-98789431D01*
X81157265Y-98789432D01*
X80970858Y-98919954D01*
X80809954Y-99080858D01*
X80679432Y-99267265D01*
X80679431Y-99267267D01*
X80583261Y-99473502D01*
X80583258Y-99473511D01*
X80524366Y-99693302D01*
X80524364Y-99693313D01*
X80504532Y-99919998D01*
X80504532Y-99920001D01*
X80524364Y-100146686D01*
X80524366Y-100146697D01*
X80535209Y-100187163D01*
X80533546Y-100257013D01*
X80503115Y-100306937D01*
X80106873Y-100703181D01*
X80045550Y-100736666D01*
X80019192Y-100739500D01*
X70357444Y-100739500D01*
X70290405Y-100719815D01*
X70244650Y-100667011D01*
X70234706Y-100597853D01*
X70245060Y-100563099D01*
X70336739Y-100366496D01*
X70395635Y-100146692D01*
X70415468Y-99920000D01*
X70395635Y-99693308D01*
X70344675Y-99503121D01*
X70336741Y-99473511D01*
X70336738Y-99473502D01*
X70304409Y-99404173D01*
X70240568Y-99267266D01*
X70110047Y-99080861D01*
X70110045Y-99080858D01*
X69949140Y-98919953D01*
X69813377Y-98824891D01*
X69769752Y-98770314D01*
X69760500Y-98723316D01*
X69760500Y-97386682D01*
X69780185Y-97319643D01*
X69813371Y-97285111D01*
X69949139Y-97190047D01*
X70110047Y-97029139D01*
X70240568Y-96842734D01*
X70336739Y-96636496D01*
X70395635Y-96416692D01*
X70415468Y-96190000D01*
X70395635Y-95963308D01*
X70384790Y-95922834D01*
X70386453Y-95852984D01*
X70416882Y-95803062D01*
X72265277Y-93954669D01*
X72336465Y-93848127D01*
X72385501Y-93729744D01*
X72392066Y-93696739D01*
X72410500Y-93604069D01*
X72410500Y-88709049D01*
X72430185Y-88642010D01*
X72482989Y-88596255D01*
X72552147Y-88586311D01*
X72615703Y-88615336D01*
X72622181Y-88621368D01*
X72730858Y-88730045D01*
X72738362Y-88735299D01*
X72917266Y-88860568D01*
X73123504Y-88956739D01*
X73123509Y-88956740D01*
X73123511Y-88956741D01*
X73154174Y-88964957D01*
X73343308Y-89015635D01*
X73505230Y-89029801D01*
X73569998Y-89035468D01*
X73570000Y-89035468D01*
X73570002Y-89035468D01*
X73626673Y-89030509D01*
X73796692Y-89015635D01*
X74016496Y-88956739D01*
X74222734Y-88860568D01*
X74409139Y-88730047D01*
X74570047Y-88569139D01*
X74700568Y-88382734D01*
X74796739Y-88176496D01*
X74855635Y-87956692D01*
X74857970Y-87930002D01*
X75705034Y-87930002D01*
X75724858Y-88156599D01*
X75724860Y-88156610D01*
X75783730Y-88376317D01*
X75783735Y-88376331D01*
X75879863Y-88582478D01*
X75930974Y-88655472D01*
X76610000Y-87976446D01*
X76610000Y-87982661D01*
X76637259Y-88084394D01*
X76689920Y-88175606D01*
X76764394Y-88250080D01*
X76855606Y-88302741D01*
X76957339Y-88330000D01*
X76963553Y-88330000D01*
X76284526Y-89009025D01*
X76357513Y-89060132D01*
X76357521Y-89060136D01*
X76563668Y-89156264D01*
X76563682Y-89156269D01*
X76783389Y-89215139D01*
X76783400Y-89215141D01*
X77009998Y-89234966D01*
X77010002Y-89234966D01*
X77236599Y-89215141D01*
X77236610Y-89215139D01*
X77456317Y-89156269D01*
X77456331Y-89156264D01*
X77662478Y-89060136D01*
X77735471Y-89009024D01*
X77056447Y-88330000D01*
X77062661Y-88330000D01*
X77164394Y-88302741D01*
X77255606Y-88250080D01*
X77330080Y-88175606D01*
X77382741Y-88084394D01*
X77410000Y-87982661D01*
X77410000Y-87976447D01*
X78089024Y-88655471D01*
X78140136Y-88582478D01*
X78236264Y-88376331D01*
X78236269Y-88376317D01*
X78295139Y-88156610D01*
X78295141Y-88156599D01*
X78314966Y-87930002D01*
X78314966Y-87929997D01*
X78295141Y-87703400D01*
X78295139Y-87703389D01*
X78236269Y-87483682D01*
X78236264Y-87483668D01*
X78140136Y-87277521D01*
X78140132Y-87277513D01*
X78089025Y-87204526D01*
X77410000Y-87883551D01*
X77410000Y-87877339D01*
X77382741Y-87775606D01*
X77330080Y-87684394D01*
X77255606Y-87609920D01*
X77164394Y-87557259D01*
X77062661Y-87530000D01*
X77056448Y-87530000D01*
X77735472Y-86850974D01*
X77662478Y-86799863D01*
X77456331Y-86703735D01*
X77456317Y-86703730D01*
X77236610Y-86644860D01*
X77236599Y-86644858D01*
X77010002Y-86625034D01*
X77009998Y-86625034D01*
X76783400Y-86644858D01*
X76783389Y-86644860D01*
X76563682Y-86703730D01*
X76563673Y-86703734D01*
X76357516Y-86799866D01*
X76357512Y-86799868D01*
X76284526Y-86850973D01*
X76284526Y-86850974D01*
X76963553Y-87530000D01*
X76957339Y-87530000D01*
X76855606Y-87557259D01*
X76764394Y-87609920D01*
X76689920Y-87684394D01*
X76637259Y-87775606D01*
X76610000Y-87877339D01*
X76610000Y-87883552D01*
X75930974Y-87204526D01*
X75930973Y-87204526D01*
X75879868Y-87277512D01*
X75879866Y-87277516D01*
X75783734Y-87483673D01*
X75783730Y-87483682D01*
X75724860Y-87703389D01*
X75724858Y-87703400D01*
X75705034Y-87929997D01*
X75705034Y-87930002D01*
X74857970Y-87930002D01*
X74875468Y-87730000D01*
X74855635Y-87503308D01*
X74796739Y-87283504D01*
X74700568Y-87077266D01*
X74570047Y-86890861D01*
X74570045Y-86890858D01*
X74409141Y-86729954D01*
X74222734Y-86599432D01*
X74222732Y-86599431D01*
X74016497Y-86503261D01*
X74016488Y-86503258D01*
X73796697Y-86444366D01*
X73796693Y-86444365D01*
X73796692Y-86444365D01*
X73796691Y-86444364D01*
X73796686Y-86444364D01*
X73570002Y-86424532D01*
X73569998Y-86424532D01*
X73343313Y-86444364D01*
X73343302Y-86444366D01*
X73123511Y-86503258D01*
X73123502Y-86503261D01*
X72917267Y-86599431D01*
X72917265Y-86599432D01*
X72730858Y-86729954D01*
X72622181Y-86838632D01*
X72560858Y-86872117D01*
X72491166Y-86867133D01*
X72435233Y-86825261D01*
X72410816Y-86759797D01*
X72410500Y-86750951D01*
X72410500Y-76009049D01*
X72430185Y-75942010D01*
X72482989Y-75896255D01*
X72552147Y-75886311D01*
X72615703Y-75915336D01*
X72622181Y-75921368D01*
X72730858Y-76030045D01*
X72730861Y-76030047D01*
X72917266Y-76160568D01*
X73123504Y-76256739D01*
X73123509Y-76256740D01*
X73123511Y-76256741D01*
X73154510Y-76265047D01*
X73343308Y-76315635D01*
X73505230Y-76329801D01*
X73569998Y-76335468D01*
X73570000Y-76335468D01*
X73570002Y-76335468D01*
X73626673Y-76330509D01*
X73796692Y-76315635D01*
X74016496Y-76256739D01*
X74222734Y-76160568D01*
X74409139Y-76030047D01*
X74570047Y-75869139D01*
X74700568Y-75682734D01*
X74796739Y-75476496D01*
X74837222Y-75325408D01*
X74873585Y-75265751D01*
X74936432Y-75235221D01*
X75005808Y-75243515D01*
X75044677Y-75269823D01*
X76110124Y-76335271D01*
X76110127Y-76335274D01*
X76110130Y-76335276D01*
X76161397Y-76369531D01*
X76216673Y-76406465D01*
X76335056Y-76455501D01*
X76335060Y-76455501D01*
X76335061Y-76455502D01*
X76460728Y-76480500D01*
X76460731Y-76480500D01*
X77903317Y-76480500D01*
X77970356Y-76500185D01*
X78004892Y-76533377D01*
X78099954Y-76669141D01*
X78260858Y-76830045D01*
X78260861Y-76830047D01*
X78447266Y-76960568D01*
X78653504Y-77056739D01*
X78873308Y-77115635D01*
X79035230Y-77129801D01*
X79099998Y-77135468D01*
X79100000Y-77135468D01*
X79100002Y-77135468D01*
X79156673Y-77130509D01*
X79326692Y-77115635D01*
X79509129Y-77066751D01*
X79578974Y-77068414D01*
X79628899Y-77098845D01*
X82646482Y-80116428D01*
X82679967Y-80177751D01*
X82674983Y-80247443D01*
X82633111Y-80303376D01*
X82567647Y-80327793D01*
X82547994Y-80327637D01*
X82512502Y-80324532D01*
X82512498Y-80324532D01*
X82285813Y-80344364D01*
X82285802Y-80344366D01*
X82066011Y-80403258D01*
X82066002Y-80403261D01*
X81859767Y-80499431D01*
X81859765Y-80499432D01*
X81673358Y-80629954D01*
X81512454Y-80790858D01*
X81381932Y-80977265D01*
X81381931Y-80977267D01*
X81354882Y-81035275D01*
X81308709Y-81087714D01*
X81241516Y-81106866D01*
X81174635Y-81086650D01*
X81130118Y-81035275D01*
X81103068Y-80977267D01*
X81103067Y-80977265D01*
X80972545Y-80790858D01*
X80811641Y-80629954D01*
X80625234Y-80499432D01*
X80625232Y-80499431D01*
X80418997Y-80403261D01*
X80418988Y-80403258D01*
X80199197Y-80344366D01*
X80199193Y-80344365D01*
X80199192Y-80344365D01*
X80199191Y-80344364D01*
X80199186Y-80344364D01*
X79972502Y-80324532D01*
X79972498Y-80324532D01*
X79745813Y-80344364D01*
X79745802Y-80344366D01*
X79526011Y-80403258D01*
X79526002Y-80403261D01*
X79319767Y-80499431D01*
X79319765Y-80499432D01*
X79133358Y-80629954D01*
X78972454Y-80790858D01*
X78841932Y-80977265D01*
X78841931Y-80977267D01*
X78745761Y-81183502D01*
X78745758Y-81183511D01*
X78686866Y-81403302D01*
X78686864Y-81403313D01*
X78667032Y-81629998D01*
X78667032Y-81630001D01*
X78686864Y-81856686D01*
X78686866Y-81856697D01*
X78745758Y-82076488D01*
X78745761Y-82076497D01*
X78841931Y-82282732D01*
X78841932Y-82282734D01*
X78972451Y-82469137D01*
X78972452Y-82469138D01*
X78972453Y-82469139D01*
X79035682Y-82532368D01*
X79069166Y-82593689D01*
X79072000Y-82620048D01*
X79072000Y-82775500D01*
X79052315Y-82842539D01*
X78999511Y-82888294D01*
X78948000Y-82899500D01*
X78426425Y-82899500D01*
X78359386Y-82879815D01*
X78313631Y-82827011D01*
X78302897Y-82786308D01*
X78295635Y-82703312D01*
X78295635Y-82703308D01*
X78236739Y-82483504D01*
X78140568Y-82277266D01*
X78010047Y-82090861D01*
X78010045Y-82090858D01*
X77849141Y-81929954D01*
X77662734Y-81799432D01*
X77662732Y-81799431D01*
X77456497Y-81703261D01*
X77456488Y-81703258D01*
X77236697Y-81644366D01*
X77236693Y-81644365D01*
X77236692Y-81644365D01*
X77236691Y-81644364D01*
X77236686Y-81644364D01*
X77010002Y-81624532D01*
X77009998Y-81624532D01*
X76783313Y-81644364D01*
X76783302Y-81644366D01*
X76563511Y-81703258D01*
X76563502Y-81703261D01*
X76357267Y-81799431D01*
X76357265Y-81799432D01*
X76170858Y-81929954D01*
X76009954Y-82090858D01*
X75879432Y-82277265D01*
X75879431Y-82277267D01*
X75783261Y-82483502D01*
X75783258Y-82483511D01*
X75724366Y-82703302D01*
X75724364Y-82703313D01*
X75704532Y-82929998D01*
X75704532Y-82930001D01*
X75724364Y-83156686D01*
X75724366Y-83156697D01*
X75783258Y-83376488D01*
X75783261Y-83376497D01*
X75879431Y-83582732D01*
X75879432Y-83582734D01*
X76009954Y-83769141D01*
X76170858Y-83930045D01*
X76170861Y-83930047D01*
X76357266Y-84060568D01*
X76563504Y-84156739D01*
X76783308Y-84215635D01*
X77000073Y-84234599D01*
X77065141Y-84260051D01*
X77076946Y-84270446D01*
X77305960Y-84499461D01*
X77305961Y-84499462D01*
X77356743Y-84533393D01*
X77356744Y-84533394D01*
X77453448Y-84598010D01*
X77453449Y-84598010D01*
X77453453Y-84598013D01*
X77496622Y-84615894D01*
X77617334Y-84665895D01*
X77791303Y-84700499D01*
X77791307Y-84700500D01*
X77791308Y-84700500D01*
X119898693Y-84700500D01*
X119898694Y-84700499D01*
X120072666Y-84665895D01*
X120154606Y-84631953D01*
X120236547Y-84598013D01*
X120333256Y-84533394D01*
X120384036Y-84499464D01*
X120613055Y-84270443D01*
X120674374Y-84236961D01*
X120689916Y-84234600D01*
X120906692Y-84215635D01*
X121126496Y-84156739D01*
X121332734Y-84060568D01*
X121519139Y-83930047D01*
X121680047Y-83769139D01*
X121810568Y-83582734D01*
X121906739Y-83376496D01*
X121965635Y-83156692D01*
X121985468Y-82930000D01*
X121982174Y-82892355D01*
X121973005Y-82787546D01*
X121965635Y-82703308D01*
X121906739Y-82483504D01*
X121810568Y-82277266D01*
X121680047Y-82090861D01*
X121680045Y-82090858D01*
X121519141Y-81929954D01*
X121332734Y-81799432D01*
X121332732Y-81799431D01*
X121126497Y-81703261D01*
X121126488Y-81703258D01*
X120906697Y-81644366D01*
X120906693Y-81644365D01*
X120906692Y-81644365D01*
X120906691Y-81644364D01*
X120906686Y-81644364D01*
X120680002Y-81624532D01*
X120679998Y-81624532D01*
X120453313Y-81644364D01*
X120453302Y-81644366D01*
X120233511Y-81703258D01*
X120233502Y-81703261D01*
X120027267Y-81799431D01*
X120027265Y-81799432D01*
X119840858Y-81929954D01*
X119679954Y-82090858D01*
X119549432Y-82277265D01*
X119549431Y-82277267D01*
X119453261Y-82483502D01*
X119453258Y-82483511D01*
X119394366Y-82703302D01*
X119394364Y-82703312D01*
X119387103Y-82786308D01*
X119361650Y-82851377D01*
X119305059Y-82892355D01*
X119263575Y-82899500D01*
X118181460Y-82899500D01*
X118114421Y-82879815D01*
X118068666Y-82827011D01*
X118058722Y-82757853D01*
X118082193Y-82701189D01*
X118102603Y-82673924D01*
X118103796Y-82672331D01*
X118154091Y-82537483D01*
X118160500Y-82477873D01*
X118160499Y-80782128D01*
X118154091Y-80722517D01*
X118119567Y-80629954D01*
X118103797Y-80587671D01*
X118103793Y-80587664D01*
X118017547Y-80472455D01*
X118017544Y-80472452D01*
X117902335Y-80386206D01*
X117902328Y-80386202D01*
X117767482Y-80335908D01*
X117767483Y-80335908D01*
X117707883Y-80329501D01*
X117707881Y-80329500D01*
X117707873Y-80329500D01*
X117707864Y-80329500D01*
X116012129Y-80329500D01*
X116012123Y-80329501D01*
X115952516Y-80335908D01*
X115817671Y-80386202D01*
X115817664Y-80386206D01*
X115702455Y-80472452D01*
X115702452Y-80472455D01*
X115616206Y-80587664D01*
X115616202Y-80587671D01*
X115565908Y-80722516D01*
X115562137Y-80757596D01*
X115535398Y-80822146D01*
X115478006Y-80861994D01*
X115408180Y-80864487D01*
X115348092Y-80828834D01*
X115337273Y-80815462D01*
X115320045Y-80790858D01*
X115159141Y-80629954D01*
X114972734Y-80499432D01*
X114972732Y-80499431D01*
X114766497Y-80403261D01*
X114766488Y-80403258D01*
X114546697Y-80344366D01*
X114546693Y-80344365D01*
X114546692Y-80344365D01*
X114546691Y-80344364D01*
X114546686Y-80344364D01*
X114320002Y-80324532D01*
X114319998Y-80324532D01*
X114093313Y-80344364D01*
X114093299Y-80344367D01*
X114052834Y-80355209D01*
X113982984Y-80353545D01*
X113933061Y-80323115D01*
X113036474Y-79426527D01*
X113036473Y-79426526D01*
X113036469Y-79426523D01*
X112929927Y-79355335D01*
X112811544Y-79306299D01*
X112811538Y-79306297D01*
X112685871Y-79281300D01*
X112685869Y-79281300D01*
X94306631Y-79281300D01*
X94306629Y-79281300D01*
X94180961Y-79306297D01*
X94180955Y-79306299D01*
X94062570Y-79355335D01*
X93956031Y-79426522D01*
X93956024Y-79426528D01*
X93059437Y-80323115D01*
X92998114Y-80356600D01*
X92939663Y-80355209D01*
X92899197Y-80344366D01*
X92899193Y-80344365D01*
X92899192Y-80344365D01*
X92899191Y-80344364D01*
X92899186Y-80344364D01*
X92672502Y-80324532D01*
X92672498Y-80324532D01*
X92445813Y-80344364D01*
X92445802Y-80344366D01*
X92226011Y-80403258D01*
X92226002Y-80403261D01*
X92019767Y-80499431D01*
X92019765Y-80499432D01*
X91833358Y-80629954D01*
X91672454Y-80790858D01*
X91541932Y-80977265D01*
X91541931Y-80977267D01*
X91514882Y-81035275D01*
X91468709Y-81087714D01*
X91401516Y-81106866D01*
X91334635Y-81086650D01*
X91290118Y-81035275D01*
X91263068Y-80977267D01*
X91263067Y-80977265D01*
X91132545Y-80790858D01*
X90971641Y-80629954D01*
X90785234Y-80499432D01*
X90785232Y-80499431D01*
X90578997Y-80403261D01*
X90578988Y-80403258D01*
X90359197Y-80344366D01*
X90359193Y-80344365D01*
X90359192Y-80344365D01*
X90359191Y-80344364D01*
X90359186Y-80344364D01*
X90132502Y-80324532D01*
X90132498Y-80324532D01*
X89905813Y-80344364D01*
X89905802Y-80344366D01*
X89686011Y-80403258D01*
X89686002Y-80403261D01*
X89479767Y-80499431D01*
X89479765Y-80499432D01*
X89293358Y-80629954D01*
X89132454Y-80790858D01*
X89001932Y-80977265D01*
X89001931Y-80977267D01*
X88974882Y-81035275D01*
X88928709Y-81087714D01*
X88861516Y-81106866D01*
X88794635Y-81086650D01*
X88750118Y-81035275D01*
X88723068Y-80977267D01*
X88723067Y-80977265D01*
X88592545Y-80790858D01*
X88431641Y-80629954D01*
X88245234Y-80499432D01*
X88245232Y-80499431D01*
X88038997Y-80403261D01*
X88038988Y-80403258D01*
X87819197Y-80344366D01*
X87819193Y-80344365D01*
X87819192Y-80344365D01*
X87819191Y-80344364D01*
X87819186Y-80344364D01*
X87592502Y-80324532D01*
X87592498Y-80324532D01*
X87365813Y-80344364D01*
X87365799Y-80344367D01*
X87325334Y-80355209D01*
X87255484Y-80353545D01*
X87205561Y-80323115D01*
X86637174Y-79754727D01*
X86637173Y-79754726D01*
X86637169Y-79754723D01*
X86530627Y-79683535D01*
X86412244Y-79634499D01*
X86412238Y-79634497D01*
X86286571Y-79609500D01*
X86286569Y-79609500D01*
X84030808Y-79609500D01*
X83963769Y-79589815D01*
X83943127Y-79573181D01*
X81704274Y-77334328D01*
X81670789Y-77273005D01*
X81675773Y-77203313D01*
X81717645Y-77147380D01*
X81781147Y-77123119D01*
X81866692Y-77115635D01*
X82086496Y-77056739D01*
X82292734Y-76960568D01*
X82479139Y-76830047D01*
X82640047Y-76669139D01*
X82770568Y-76482734D01*
X82797895Y-76424129D01*
X82844064Y-76371695D01*
X82911257Y-76352542D01*
X82978139Y-76372757D01*
X83022657Y-76424133D01*
X83049865Y-76482482D01*
X83180342Y-76668820D01*
X83341179Y-76829657D01*
X83527517Y-76960134D01*
X83733673Y-77056265D01*
X83733682Y-77056269D01*
X83929999Y-77108872D01*
X83930000Y-77108871D01*
X83930000Y-76145686D01*
X83934394Y-76150080D01*
X84025606Y-76202741D01*
X84127339Y-76230000D01*
X84232661Y-76230000D01*
X84334394Y-76202741D01*
X84425606Y-76150080D01*
X84430000Y-76145686D01*
X84430000Y-77108872D01*
X84626317Y-77056269D01*
X84626326Y-77056265D01*
X84832482Y-76960134D01*
X85018820Y-76829657D01*
X85179657Y-76668820D01*
X85310132Y-76482484D01*
X85337341Y-76424134D01*
X85383513Y-76371695D01*
X85450707Y-76352542D01*
X85517588Y-76372757D01*
X85562105Y-76424132D01*
X85584088Y-76471275D01*
X85589431Y-76482732D01*
X85589432Y-76482734D01*
X85719954Y-76669141D01*
X85880858Y-76830045D01*
X85880861Y-76830047D01*
X86067266Y-76960568D01*
X86273504Y-77056739D01*
X86493308Y-77115635D01*
X86655230Y-77129801D01*
X86719998Y-77135468D01*
X86720000Y-77135468D01*
X86720002Y-77135468D01*
X86776673Y-77130509D01*
X86946692Y-77115635D01*
X87166496Y-77056739D01*
X87372734Y-76960568D01*
X87559139Y-76830047D01*
X87720047Y-76669139D01*
X87850568Y-76482734D01*
X87877895Y-76424129D01*
X87924064Y-76371695D01*
X87991257Y-76352542D01*
X88058139Y-76372757D01*
X88102657Y-76424133D01*
X88129865Y-76482482D01*
X88260342Y-76668820D01*
X88421179Y-76829657D01*
X88607517Y-76960134D01*
X88813673Y-77056265D01*
X88813682Y-77056269D01*
X89009999Y-77108872D01*
X89010000Y-77108871D01*
X89010000Y-76145686D01*
X89014394Y-76150080D01*
X89105606Y-76202741D01*
X89207339Y-76230000D01*
X89312661Y-76230000D01*
X89414394Y-76202741D01*
X89505606Y-76150080D01*
X89510000Y-76145686D01*
X89510000Y-77108872D01*
X89706317Y-77056269D01*
X89706326Y-77056265D01*
X89912482Y-76960134D01*
X90098820Y-76829657D01*
X90259657Y-76668820D01*
X90390132Y-76482484D01*
X90417341Y-76424134D01*
X90463513Y-76371695D01*
X90530707Y-76352542D01*
X90597588Y-76372757D01*
X90642105Y-76424132D01*
X90664088Y-76471275D01*
X90669431Y-76482732D01*
X90669432Y-76482734D01*
X90799954Y-76669141D01*
X90960858Y-76830045D01*
X90960861Y-76830047D01*
X91147266Y-76960568D01*
X91353504Y-77056739D01*
X91573308Y-77115635D01*
X91735230Y-77129801D01*
X91799998Y-77135468D01*
X91800000Y-77135468D01*
X91800002Y-77135468D01*
X91856673Y-77130509D01*
X92026692Y-77115635D01*
X92246496Y-77056739D01*
X92452734Y-76960568D01*
X92639139Y-76830047D01*
X92800047Y-76669139D01*
X92930568Y-76482734D01*
X92957618Y-76424724D01*
X93003790Y-76372285D01*
X93070983Y-76353133D01*
X93137865Y-76373348D01*
X93182382Y-76424725D01*
X93209429Y-76482728D01*
X93209432Y-76482734D01*
X93339954Y-76669141D01*
X93500858Y-76830045D01*
X93500861Y-76830047D01*
X93687266Y-76960568D01*
X93893504Y-77056739D01*
X94113308Y-77115635D01*
X94275230Y-77129801D01*
X94339998Y-77135468D01*
X94340000Y-77135468D01*
X94340002Y-77135468D01*
X94396673Y-77130509D01*
X94566692Y-77115635D01*
X94786496Y-77056739D01*
X94992734Y-76960568D01*
X95179139Y-76830047D01*
X95340047Y-76669139D01*
X95470568Y-76482734D01*
X95497618Y-76424724D01*
X95543790Y-76372285D01*
X95610983Y-76353133D01*
X95677865Y-76373348D01*
X95722382Y-76424725D01*
X95749429Y-76482728D01*
X95749432Y-76482734D01*
X95879954Y-76669141D01*
X96040858Y-76830045D01*
X96040861Y-76830047D01*
X96227266Y-76960568D01*
X96433504Y-77056739D01*
X96653308Y-77115635D01*
X96815230Y-77129801D01*
X96879998Y-77135468D01*
X96880000Y-77135468D01*
X96880002Y-77135468D01*
X96936673Y-77130509D01*
X97106692Y-77115635D01*
X97326496Y-77056739D01*
X97532734Y-76960568D01*
X97719139Y-76830047D01*
X97880047Y-76669139D01*
X98010568Y-76482734D01*
X98037618Y-76424724D01*
X98083790Y-76372285D01*
X98150983Y-76353133D01*
X98217865Y-76373348D01*
X98262382Y-76424725D01*
X98289429Y-76482728D01*
X98289432Y-76482734D01*
X98419954Y-76669141D01*
X98580858Y-76830045D01*
X98580861Y-76830047D01*
X98767266Y-76960568D01*
X98973504Y-77056739D01*
X99193308Y-77115635D01*
X99355230Y-77129801D01*
X99419998Y-77135468D01*
X99420000Y-77135468D01*
X99420002Y-77135468D01*
X99476673Y-77130509D01*
X99646692Y-77115635D01*
X99866496Y-77056739D01*
X100072734Y-76960568D01*
X100259139Y-76830047D01*
X100420047Y-76669139D01*
X100550568Y-76482734D01*
X100577618Y-76424724D01*
X100623790Y-76372285D01*
X100690983Y-76353133D01*
X100757865Y-76373348D01*
X100802382Y-76424725D01*
X100829429Y-76482728D01*
X100829432Y-76482734D01*
X100959954Y-76669141D01*
X101120858Y-76830045D01*
X101120861Y-76830047D01*
X101307266Y-76960568D01*
X101513504Y-77056739D01*
X101733308Y-77115635D01*
X101895230Y-77129801D01*
X101959998Y-77135468D01*
X101960000Y-77135468D01*
X101960002Y-77135468D01*
X102016673Y-77130509D01*
X102186692Y-77115635D01*
X102406496Y-77056739D01*
X102612734Y-76960568D01*
X102799139Y-76830047D01*
X102960047Y-76669139D01*
X103090568Y-76482734D01*
X103117618Y-76424724D01*
X103163790Y-76372285D01*
X103230983Y-76353133D01*
X103297865Y-76373348D01*
X103342382Y-76424725D01*
X103369429Y-76482728D01*
X103369432Y-76482734D01*
X103499954Y-76669141D01*
X103660858Y-76830045D01*
X103660861Y-76830047D01*
X103847266Y-76960568D01*
X104053504Y-77056739D01*
X104273308Y-77115635D01*
X104435230Y-77129801D01*
X104499998Y-77135468D01*
X104500000Y-77135468D01*
X104500002Y-77135468D01*
X104531421Y-77132719D01*
X104726692Y-77115635D01*
X104767162Y-77104791D01*
X104837012Y-77106452D01*
X104886938Y-77136884D01*
X105260725Y-77510672D01*
X105260731Y-77510677D01*
X105367274Y-77581866D01*
X105436621Y-77610589D01*
X105485656Y-77630901D01*
X105485659Y-77630901D01*
X105485660Y-77630902D01*
X105611328Y-77655900D01*
X105611331Y-77655900D01*
X112648271Y-77655900D01*
X112732815Y-77639082D01*
X112773944Y-77630901D01*
X112892327Y-77581865D01*
X112923424Y-77561087D01*
X112923425Y-77561087D01*
X112979879Y-77523365D01*
X112998869Y-77510677D01*
X116231877Y-74277669D01*
X116303065Y-74171127D01*
X116316732Y-74138131D01*
X116352101Y-74052744D01*
X116363167Y-73997113D01*
X116377100Y-73927071D01*
X116377100Y-73642708D01*
X116396785Y-73575669D01*
X116449589Y-73529914D01*
X116518747Y-73519970D01*
X116533194Y-73522933D01*
X116629999Y-73548871D01*
X116630000Y-73548871D01*
X116630000Y-72585686D01*
X116634394Y-72590080D01*
X116725606Y-72642741D01*
X116827339Y-72670000D01*
X116932661Y-72670000D01*
X117034394Y-72642741D01*
X117125606Y-72590080D01*
X117130000Y-72585686D01*
X117130000Y-73548872D01*
X117326317Y-73496269D01*
X117326326Y-73496265D01*
X117532482Y-73400134D01*
X117718820Y-73269657D01*
X117879657Y-73108820D01*
X118010134Y-72922482D01*
X118106265Y-72716326D01*
X118106269Y-72716317D01*
X118158872Y-72520000D01*
X117195686Y-72520000D01*
X117200080Y-72515606D01*
X117252741Y-72424394D01*
X117280000Y-72322661D01*
X117280000Y-72217339D01*
X117252741Y-72115606D01*
X117200080Y-72024394D01*
X117195686Y-72020000D01*
X118158872Y-72020000D01*
X118158872Y-72019999D01*
X118106269Y-71823682D01*
X118106265Y-71823673D01*
X118010134Y-71617517D01*
X117879657Y-71431179D01*
X117718820Y-71270342D01*
X117532482Y-71139865D01*
X117326328Y-71043734D01*
X117130000Y-70991127D01*
X117130000Y-71954314D01*
X117125606Y-71949920D01*
X117034394Y-71897259D01*
X116932661Y-71870000D01*
X116827339Y-71870000D01*
X116725606Y-71897259D01*
X116634394Y-71949920D01*
X116630000Y-71954314D01*
X116630000Y-70991127D01*
X116533194Y-71017067D01*
X116463345Y-71015404D01*
X116405482Y-70976242D01*
X116377977Y-70912014D01*
X116377100Y-70897292D01*
X116377100Y-67155002D01*
X119465034Y-67155002D01*
X119484858Y-67381599D01*
X119484860Y-67381610D01*
X119543730Y-67601317D01*
X119543735Y-67601331D01*
X119639863Y-67807478D01*
X119690974Y-67880472D01*
X120370000Y-67201446D01*
X120370000Y-67207661D01*
X120397259Y-67309394D01*
X120449920Y-67400606D01*
X120524394Y-67475080D01*
X120615606Y-67527741D01*
X120717339Y-67555000D01*
X120723553Y-67555000D01*
X120044526Y-68234025D01*
X120117513Y-68285132D01*
X120117521Y-68285136D01*
X120323668Y-68381264D01*
X120323682Y-68381269D01*
X120543389Y-68440139D01*
X120543400Y-68440141D01*
X120769998Y-68459966D01*
X120770002Y-68459966D01*
X120996599Y-68440141D01*
X120996610Y-68440139D01*
X121216317Y-68381269D01*
X121216331Y-68381264D01*
X121422478Y-68285136D01*
X121495471Y-68234024D01*
X120816447Y-67555000D01*
X120822661Y-67555000D01*
X120924394Y-67527741D01*
X121015606Y-67475080D01*
X121090080Y-67400606D01*
X121142741Y-67309394D01*
X121170000Y-67207661D01*
X121170000Y-67201447D01*
X121849024Y-67880471D01*
X121900136Y-67807478D01*
X121996264Y-67601331D01*
X121996269Y-67601317D01*
X122055139Y-67381610D01*
X122055141Y-67381599D01*
X122074966Y-67155002D01*
X122074966Y-67154997D01*
X122055141Y-66928400D01*
X122055139Y-66928389D01*
X121996269Y-66708682D01*
X121996264Y-66708668D01*
X121900136Y-66502521D01*
X121900132Y-66502513D01*
X121849025Y-66429526D01*
X121170000Y-67108551D01*
X121170000Y-67102339D01*
X121142741Y-67000606D01*
X121090080Y-66909394D01*
X121015606Y-66834920D01*
X120924394Y-66782259D01*
X120822661Y-66755000D01*
X120816448Y-66755000D01*
X121495472Y-66075974D01*
X121422478Y-66024863D01*
X121216331Y-65928735D01*
X121216317Y-65928730D01*
X120996610Y-65869860D01*
X120996599Y-65869858D01*
X120770002Y-65850034D01*
X120769998Y-65850034D01*
X120543400Y-65869858D01*
X120543389Y-65869860D01*
X120323682Y-65928730D01*
X120323673Y-65928734D01*
X120117516Y-66024866D01*
X120117512Y-66024868D01*
X120044526Y-66075973D01*
X120044526Y-66075974D01*
X120723553Y-66755000D01*
X120717339Y-66755000D01*
X120615606Y-66782259D01*
X120524394Y-66834920D01*
X120449920Y-66909394D01*
X120397259Y-67000606D01*
X120370000Y-67102339D01*
X120370000Y-67108552D01*
X119690974Y-66429526D01*
X119690973Y-66429526D01*
X119639868Y-66502512D01*
X119639866Y-66502516D01*
X119543734Y-66708673D01*
X119543730Y-66708682D01*
X119484860Y-66928389D01*
X119484858Y-66928400D01*
X119465034Y-67154997D01*
X119465034Y-67155002D01*
X116377100Y-67155002D01*
X116377100Y-63118544D01*
X116396785Y-63051505D01*
X116429977Y-63016969D01*
X116436261Y-63012569D01*
X116533477Y-62944498D01*
X116688198Y-62789777D01*
X116813702Y-62610539D01*
X116906175Y-62412230D01*
X116962807Y-62200877D01*
X116966821Y-62155001D01*
X119464532Y-62155001D01*
X119484364Y-62381686D01*
X119484366Y-62381697D01*
X119543258Y-62601488D01*
X119543261Y-62601497D01*
X119639431Y-62807732D01*
X119639432Y-62807734D01*
X119769954Y-62994141D01*
X119930858Y-63155045D01*
X119930861Y-63155047D01*
X120117266Y-63285568D01*
X120323504Y-63381739D01*
X120543308Y-63440635D01*
X120705230Y-63454801D01*
X120769998Y-63460468D01*
X120770000Y-63460468D01*
X120770002Y-63460468D01*
X120826673Y-63455509D01*
X120996692Y-63440635D01*
X121216496Y-63381739D01*
X121422734Y-63285568D01*
X121609139Y-63155047D01*
X121770047Y-62994139D01*
X121900568Y-62807734D01*
X121996739Y-62601496D01*
X122055635Y-62381692D01*
X122075468Y-62155000D01*
X122074563Y-62144660D01*
X122061700Y-61997631D01*
X122055635Y-61928308D01*
X122008609Y-61752804D01*
X121996741Y-61708511D01*
X121996738Y-61708502D01*
X121983949Y-61681076D01*
X121900568Y-61502266D01*
X121770047Y-61315861D01*
X121770045Y-61315858D01*
X121609141Y-61154954D01*
X121422734Y-61024432D01*
X121422732Y-61024431D01*
X121216497Y-60928261D01*
X121216488Y-60928258D01*
X120996697Y-60869366D01*
X120996693Y-60869365D01*
X120996692Y-60869365D01*
X120996691Y-60869364D01*
X120996686Y-60869364D01*
X120770002Y-60849532D01*
X120769998Y-60849532D01*
X120543313Y-60869364D01*
X120543302Y-60869366D01*
X120323511Y-60928258D01*
X120323502Y-60928261D01*
X120117267Y-61024431D01*
X120117265Y-61024432D01*
X119930858Y-61154954D01*
X119769954Y-61315858D01*
X119639432Y-61502265D01*
X119639431Y-61502267D01*
X119543261Y-61708502D01*
X119543258Y-61708511D01*
X119484366Y-61928302D01*
X119484364Y-61928313D01*
X119464532Y-62154998D01*
X119464532Y-62155001D01*
X116966821Y-62155001D01*
X116981877Y-61982900D01*
X116962807Y-61764923D01*
X116915949Y-61590047D01*
X116906177Y-61553577D01*
X116906176Y-61553576D01*
X116906175Y-61553570D01*
X116813702Y-61355262D01*
X116813700Y-61355259D01*
X116813699Y-61355257D01*
X116688199Y-61176024D01*
X116619390Y-61107215D01*
X116533477Y-61021302D01*
X116384970Y-60917316D01*
X116354238Y-60895797D01*
X116243850Y-60844323D01*
X116155930Y-60803325D01*
X116155926Y-60803324D01*
X116155922Y-60803322D01*
X115944577Y-60746693D01*
X115726602Y-60727623D01*
X115726598Y-60727623D01*
X115581282Y-60740336D01*
X115508623Y-60746693D01*
X115508620Y-60746693D01*
X115297277Y-60803322D01*
X115297263Y-60803327D01*
X115149703Y-60872136D01*
X115080626Y-60882628D01*
X115016842Y-60854108D01*
X114984917Y-60812159D01*
X114980798Y-60803325D01*
X114972002Y-60784462D01*
X114972000Y-60784459D01*
X114971999Y-60784457D01*
X114846499Y-60605224D01*
X114778614Y-60537339D01*
X114691777Y-60450502D01*
X114512539Y-60324998D01*
X114512540Y-60324998D01*
X114512538Y-60324997D01*
X114394424Y-60269920D01*
X114314230Y-60232525D01*
X114314226Y-60232524D01*
X114314222Y-60232522D01*
X114102877Y-60175893D01*
X113884902Y-60156823D01*
X113884898Y-60156823D01*
X113739582Y-60169536D01*
X113666923Y-60175893D01*
X113666920Y-60175893D01*
X113576592Y-60200097D01*
X113506742Y-60198434D01*
X113448880Y-60159271D01*
X113421376Y-60095043D01*
X113420499Y-60080322D01*
X113420499Y-59742129D01*
X113420498Y-59742123D01*
X113414091Y-59682516D01*
X113363797Y-59547671D01*
X113363793Y-59547664D01*
X113277547Y-59432455D01*
X113277544Y-59432452D01*
X113162335Y-59346206D01*
X113162328Y-59346202D01*
X113027482Y-59295908D01*
X113027483Y-59295908D01*
X112967883Y-59289501D01*
X112967881Y-59289500D01*
X112967873Y-59289500D01*
X112967864Y-59289500D01*
X111272129Y-59289500D01*
X111272123Y-59289501D01*
X111212516Y-59295908D01*
X111077671Y-59346202D01*
X111077664Y-59346206D01*
X110962455Y-59432452D01*
X110962452Y-59432455D01*
X110876206Y-59547664D01*
X110876202Y-59547671D01*
X110825908Y-59682516D01*
X110822137Y-59717596D01*
X110795398Y-59782146D01*
X110738006Y-59821994D01*
X110668180Y-59824487D01*
X110608092Y-59788834D01*
X110597273Y-59775462D01*
X110580045Y-59750858D01*
X110419141Y-59589954D01*
X110232734Y-59459432D01*
X110232732Y-59459431D01*
X110026497Y-59363261D01*
X110026488Y-59363258D01*
X109806697Y-59304366D01*
X109806693Y-59304365D01*
X109806692Y-59304365D01*
X109806691Y-59304364D01*
X109806686Y-59304364D01*
X109580002Y-59284532D01*
X109579998Y-59284532D01*
X109353313Y-59304364D01*
X109353302Y-59304366D01*
X109133511Y-59363258D01*
X109133502Y-59363261D01*
X108927267Y-59459431D01*
X108927265Y-59459432D01*
X108740858Y-59589954D01*
X108579954Y-59750858D01*
X108456286Y-59927477D01*
X108449432Y-59937266D01*
X108427857Y-59983535D01*
X108422106Y-59995867D01*
X108375933Y-60048306D01*
X108308739Y-60067457D01*
X108241858Y-60047241D01*
X108197342Y-59995865D01*
X108170135Y-59937520D01*
X108170134Y-59937518D01*
X108039657Y-59751179D01*
X107878820Y-59590342D01*
X107688606Y-59457152D01*
X107644981Y-59402575D01*
X107637789Y-59333076D01*
X107669311Y-59270722D01*
X107672020Y-59267925D01*
X108663249Y-58276695D01*
X108724570Y-58243212D01*
X108794261Y-58248196D01*
X108803330Y-58251994D01*
X108813504Y-58256739D01*
X108813510Y-58256740D01*
X108813511Y-58256741D01*
X108859655Y-58269105D01*
X109033308Y-58315635D01*
X109195230Y-58329801D01*
X109259998Y-58335468D01*
X109260000Y-58335468D01*
X109260002Y-58335468D01*
X109317607Y-58330428D01*
X109486692Y-58315635D01*
X109706496Y-58256739D01*
X109912734Y-58160568D01*
X110099139Y-58030047D01*
X110260047Y-57869139D01*
X110390568Y-57682734D01*
X110417618Y-57624724D01*
X110463790Y-57572285D01*
X110530983Y-57553133D01*
X110597865Y-57573348D01*
X110642382Y-57624725D01*
X110669429Y-57682728D01*
X110669432Y-57682734D01*
X110799954Y-57869141D01*
X110960858Y-58030045D01*
X110960861Y-58030047D01*
X111147266Y-58160568D01*
X111353504Y-58256739D01*
X111353509Y-58256740D01*
X111353511Y-58256741D01*
X111399655Y-58269105D01*
X111573308Y-58315635D01*
X111735230Y-58329801D01*
X111799998Y-58335468D01*
X111800000Y-58335468D01*
X111800002Y-58335468D01*
X111857607Y-58330428D01*
X112026692Y-58315635D01*
X112246496Y-58256739D01*
X112452734Y-58160568D01*
X112639139Y-58030047D01*
X112800047Y-57869139D01*
X112930568Y-57682734D01*
X112957618Y-57624724D01*
X113003790Y-57572285D01*
X113070983Y-57553133D01*
X113137865Y-57573348D01*
X113182382Y-57624725D01*
X113209429Y-57682728D01*
X113209432Y-57682734D01*
X113339954Y-57869141D01*
X113500858Y-58030045D01*
X113500861Y-58030047D01*
X113687266Y-58160568D01*
X113893504Y-58256739D01*
X113893509Y-58256740D01*
X113893511Y-58256741D01*
X113939655Y-58269105D01*
X114113308Y-58315635D01*
X114275230Y-58329801D01*
X114339998Y-58335468D01*
X114340000Y-58335468D01*
X114340002Y-58335468D01*
X114397607Y-58330428D01*
X114566692Y-58315635D01*
X114786496Y-58256739D01*
X114992734Y-58160568D01*
X115179139Y-58030047D01*
X115340047Y-57869139D01*
X115357272Y-57844539D01*
X115411848Y-57800913D01*
X115481346Y-57793718D01*
X115543701Y-57825239D01*
X115579116Y-57885468D01*
X115582138Y-57902406D01*
X115585908Y-57937483D01*
X115636202Y-58072328D01*
X115636206Y-58072335D01*
X115722452Y-58187544D01*
X115722455Y-58187547D01*
X115837664Y-58273793D01*
X115837671Y-58273797D01*
X115972517Y-58324091D01*
X115972516Y-58324091D01*
X115975735Y-58324437D01*
X116032127Y-58330500D01*
X117727872Y-58330499D01*
X117787483Y-58324091D01*
X117922331Y-58273796D01*
X118037546Y-58187546D01*
X118123796Y-58072331D01*
X118174091Y-57937483D01*
X118180500Y-57877873D01*
X118180499Y-56182128D01*
X118174091Y-56122517D01*
X118163430Y-56093934D01*
X118123797Y-55987671D01*
X118123793Y-55987664D01*
X118037547Y-55872455D01*
X118037544Y-55872452D01*
X117922335Y-55786206D01*
X117922328Y-55786202D01*
X117787482Y-55735908D01*
X117787483Y-55735908D01*
X117727883Y-55729501D01*
X117727881Y-55729500D01*
X117727873Y-55729500D01*
X117727864Y-55729500D01*
X116032129Y-55729500D01*
X116032123Y-55729501D01*
X115972516Y-55735908D01*
X115837671Y-55786202D01*
X115837664Y-55786206D01*
X115722455Y-55872452D01*
X115722452Y-55872455D01*
X115636206Y-55987664D01*
X115636202Y-55987671D01*
X115585908Y-56122516D01*
X115582137Y-56157596D01*
X115555398Y-56222146D01*
X115498006Y-56261994D01*
X115428180Y-56264487D01*
X115368092Y-56228834D01*
X115357273Y-56215462D01*
X115340045Y-56190858D01*
X115179141Y-56029954D01*
X114992734Y-55899432D01*
X114992732Y-55899431D01*
X114786497Y-55803261D01*
X114786488Y-55803258D01*
X114566697Y-55744366D01*
X114566693Y-55744365D01*
X114566692Y-55744365D01*
X114566691Y-55744364D01*
X114566686Y-55744364D01*
X114340002Y-55724532D01*
X114339998Y-55724532D01*
X114113313Y-55744364D01*
X114113302Y-55744366D01*
X113893511Y-55803258D01*
X113893502Y-55803261D01*
X113687267Y-55899431D01*
X113687265Y-55899432D01*
X113500858Y-56029954D01*
X113339954Y-56190858D01*
X113209432Y-56377265D01*
X113209431Y-56377267D01*
X113182382Y-56435275D01*
X113136209Y-56487714D01*
X113069016Y-56506866D01*
X113002135Y-56486650D01*
X112957618Y-56435275D01*
X112930568Y-56377267D01*
X112930567Y-56377265D01*
X112926897Y-56372024D01*
X112800047Y-56190861D01*
X112800045Y-56190858D01*
X112639141Y-56029954D01*
X112452734Y-55899432D01*
X112452732Y-55899431D01*
X112246497Y-55803261D01*
X112246488Y-55803258D01*
X112026697Y-55744366D01*
X112026693Y-55744365D01*
X112026692Y-55744365D01*
X112026691Y-55744364D01*
X112026686Y-55744364D01*
X111800002Y-55724532D01*
X111799998Y-55724532D01*
X111573313Y-55744364D01*
X111573302Y-55744366D01*
X111353511Y-55803258D01*
X111353502Y-55803261D01*
X111147267Y-55899431D01*
X111147265Y-55899432D01*
X110960858Y-56029954D01*
X110799954Y-56190858D01*
X110669432Y-56377265D01*
X110669431Y-56377267D01*
X110642382Y-56435275D01*
X110596209Y-56487714D01*
X110529016Y-56506866D01*
X110462135Y-56486650D01*
X110417618Y-56435275D01*
X110390568Y-56377267D01*
X110390567Y-56377265D01*
X110386897Y-56372024D01*
X110260047Y-56190861D01*
X110260045Y-56190858D01*
X110099141Y-56029954D01*
X109912734Y-55899432D01*
X109912732Y-55899431D01*
X109706497Y-55803261D01*
X109706488Y-55803258D01*
X109486697Y-55744366D01*
X109486693Y-55744365D01*
X109486692Y-55744365D01*
X109486691Y-55744364D01*
X109486686Y-55744364D01*
X109260002Y-55724532D01*
X109259998Y-55724532D01*
X109033313Y-55744364D01*
X109033302Y-55744366D01*
X108813511Y-55803258D01*
X108813502Y-55803261D01*
X108607267Y-55899431D01*
X108607265Y-55899432D01*
X108420858Y-56029954D01*
X108259954Y-56190858D01*
X108129432Y-56377265D01*
X108129431Y-56377267D01*
X108102382Y-56435275D01*
X108056209Y-56487714D01*
X107989016Y-56506866D01*
X107922135Y-56486650D01*
X107877618Y-56435275D01*
X107850568Y-56377267D01*
X107850567Y-56377265D01*
X107846897Y-56372024D01*
X107720047Y-56190861D01*
X107720045Y-56190858D01*
X107559141Y-56029954D01*
X107372734Y-55899432D01*
X107372732Y-55899431D01*
X107166497Y-55803261D01*
X107166488Y-55803258D01*
X106946697Y-55744366D01*
X106946693Y-55744365D01*
X106946692Y-55744365D01*
X106946691Y-55744364D01*
X106946686Y-55744364D01*
X106720002Y-55724532D01*
X106719998Y-55724532D01*
X106493313Y-55744364D01*
X106493302Y-55744366D01*
X106273511Y-55803258D01*
X106273502Y-55803261D01*
X106067267Y-55899431D01*
X106067265Y-55899432D01*
X105880858Y-56029954D01*
X105719954Y-56190858D01*
X105589432Y-56377265D01*
X105589431Y-56377267D01*
X105562382Y-56435275D01*
X105516209Y-56487714D01*
X105449016Y-56506866D01*
X105382135Y-56486650D01*
X105337618Y-56435275D01*
X105310568Y-56377267D01*
X105310567Y-56377265D01*
X105306897Y-56372024D01*
X105180047Y-56190861D01*
X105180045Y-56190858D01*
X105019141Y-56029954D01*
X104832734Y-55899432D01*
X104832732Y-55899431D01*
X104626497Y-55803261D01*
X104626488Y-55803258D01*
X104406697Y-55744366D01*
X104406693Y-55744365D01*
X104406692Y-55744365D01*
X104406691Y-55744364D01*
X104406686Y-55744364D01*
X104180002Y-55724532D01*
X104179998Y-55724532D01*
X103953313Y-55744364D01*
X103953302Y-55744366D01*
X103733511Y-55803258D01*
X103733502Y-55803261D01*
X103527267Y-55899431D01*
X103527265Y-55899432D01*
X103340858Y-56029954D01*
X103179954Y-56190858D01*
X103049432Y-56377265D01*
X103049431Y-56377267D01*
X103022382Y-56435275D01*
X102976209Y-56487714D01*
X102909016Y-56506866D01*
X102842135Y-56486650D01*
X102797618Y-56435275D01*
X102770568Y-56377267D01*
X102770567Y-56377265D01*
X102766897Y-56372024D01*
X102640047Y-56190861D01*
X102640045Y-56190858D01*
X102479141Y-56029954D01*
X102292734Y-55899432D01*
X102292732Y-55899431D01*
X102086497Y-55803261D01*
X102086488Y-55803258D01*
X101866697Y-55744366D01*
X101866693Y-55744365D01*
X101866692Y-55744365D01*
X101866691Y-55744364D01*
X101866686Y-55744364D01*
X101640002Y-55724532D01*
X101639998Y-55724532D01*
X101413313Y-55744364D01*
X101413302Y-55744366D01*
X101193511Y-55803258D01*
X101193502Y-55803261D01*
X100987267Y-55899431D01*
X100987265Y-55899432D01*
X100810829Y-56022973D01*
X100744622Y-56045300D01*
X100676855Y-56028289D01*
X100652025Y-56009079D01*
X97432819Y-52789873D01*
X97399334Y-52728550D01*
X97396500Y-52702192D01*
X97396500Y-51272746D01*
X97416185Y-51205707D01*
X97468989Y-51159952D01*
X97538147Y-51150008D01*
X97552583Y-51152969D01*
X97780592Y-51214063D01*
X97951319Y-51229000D01*
X98015999Y-51234659D01*
X98016000Y-51234659D01*
X98016001Y-51234659D01*
X98080681Y-51229000D01*
X98251408Y-51214063D01*
X98479663Y-51152903D01*
X98693830Y-51053035D01*
X98820198Y-50964550D01*
X98886401Y-50942225D01*
X98954169Y-50959235D01*
X98979000Y-50978446D01*
X101872525Y-53871972D01*
X101872526Y-53871973D01*
X101872529Y-53871975D01*
X101872531Y-53871977D01*
X101979073Y-53943165D01*
X102097456Y-53992201D01*
X102097460Y-53992201D01*
X102097461Y-53992202D01*
X102223128Y-54017200D01*
X102223131Y-54017200D01*
X114667371Y-54017200D01*
X114751915Y-54000382D01*
X114793044Y-53992201D01*
X114911427Y-53943165D01*
X115017969Y-53871977D01*
X115613887Y-53276057D01*
X115675208Y-53242574D01*
X115733662Y-53243966D01*
X115742023Y-53246207D01*
X115927537Y-53262437D01*
X115959998Y-53265277D01*
X115960000Y-53265277D01*
X115960002Y-53265277D01*
X115988254Y-53262805D01*
X116177977Y-53246207D01*
X116389330Y-53189575D01*
X116587639Y-53097102D01*
X116766877Y-52971598D01*
X116921598Y-52816877D01*
X117047102Y-52637639D01*
X117139575Y-52439330D01*
X117196207Y-52227977D01*
X117215277Y-52010000D01*
X117196207Y-51792023D01*
X117139575Y-51580670D01*
X117047102Y-51382362D01*
X117047100Y-51382359D01*
X117047099Y-51382357D01*
X116921599Y-51203124D01*
X116858830Y-51140355D01*
X116766877Y-51048402D01*
X116587639Y-50922898D01*
X116587640Y-50922898D01*
X116587638Y-50922897D01*
X116488484Y-50876661D01*
X116389330Y-50830425D01*
X116389326Y-50830424D01*
X116389322Y-50830422D01*
X116177977Y-50773793D01*
X115960002Y-50754723D01*
X115959998Y-50754723D01*
X115814682Y-50767436D01*
X115742023Y-50773793D01*
X115742020Y-50773793D01*
X115530677Y-50830422D01*
X115530668Y-50830426D01*
X115332361Y-50922898D01*
X115332357Y-50922900D01*
X115153121Y-51048402D01*
X114998402Y-51203121D01*
X114872900Y-51382357D01*
X114872898Y-51382361D01*
X114780426Y-51580668D01*
X114780422Y-51580677D01*
X114723793Y-51792020D01*
X114723793Y-51792024D01*
X114704723Y-52009997D01*
X114704723Y-52010002D01*
X114723792Y-52227970D01*
X114723794Y-52227983D01*
X114726035Y-52236346D01*
X114724368Y-52306196D01*
X114693939Y-52356113D01*
X114370171Y-52679882D01*
X114308850Y-52713366D01*
X114282492Y-52716200D01*
X102608008Y-52716200D01*
X102540969Y-52696515D01*
X102520327Y-52679881D01*
X101126938Y-51286492D01*
X101093453Y-51225169D01*
X101098437Y-51155477D01*
X101140309Y-51099544D01*
X101162202Y-51086435D01*
X101233830Y-51053035D01*
X101427401Y-50917495D01*
X101594495Y-50750401D01*
X101724425Y-50564842D01*
X101779002Y-50521217D01*
X101848500Y-50514023D01*
X101910855Y-50545546D01*
X101927575Y-50564842D01*
X102057500Y-50750395D01*
X102057505Y-50750401D01*
X102224599Y-50917495D01*
X102301135Y-50971086D01*
X102418165Y-51053032D01*
X102418167Y-51053033D01*
X102418170Y-51053035D01*
X102632337Y-51152903D01*
X102632343Y-51152904D01*
X102632344Y-51152905D01*
X102659947Y-51160301D01*
X102860592Y-51214063D01*
X103031319Y-51229000D01*
X103095999Y-51234659D01*
X103096000Y-51234659D01*
X103096001Y-51234659D01*
X103160681Y-51229000D01*
X103331408Y-51214063D01*
X103559663Y-51152903D01*
X103773830Y-51053035D01*
X103967401Y-50917495D01*
X104134495Y-50750401D01*
X104264425Y-50564842D01*
X104319002Y-50521217D01*
X104388500Y-50514023D01*
X104450855Y-50545546D01*
X104467575Y-50564842D01*
X104597500Y-50750395D01*
X104597505Y-50750401D01*
X104764599Y-50917495D01*
X104841135Y-50971086D01*
X104958165Y-51053032D01*
X104958167Y-51053033D01*
X104958170Y-51053035D01*
X105172337Y-51152903D01*
X105172343Y-51152904D01*
X105172344Y-51152905D01*
X105199947Y-51160301D01*
X105400592Y-51214063D01*
X105571319Y-51229000D01*
X105635999Y-51234659D01*
X105636000Y-51234659D01*
X105636001Y-51234659D01*
X105700681Y-51229000D01*
X105871408Y-51214063D01*
X106099663Y-51152903D01*
X106313830Y-51053035D01*
X106507401Y-50917495D01*
X106674495Y-50750401D01*
X106804425Y-50564842D01*
X106859002Y-50521217D01*
X106928500Y-50514023D01*
X106990855Y-50545546D01*
X107007575Y-50564842D01*
X107137500Y-50750395D01*
X107137505Y-50750401D01*
X107304599Y-50917495D01*
X107381135Y-50971086D01*
X107498165Y-51053032D01*
X107498167Y-51053033D01*
X107498170Y-51053035D01*
X107712337Y-51152903D01*
X107712343Y-51152904D01*
X107712344Y-51152905D01*
X107739947Y-51160301D01*
X107940592Y-51214063D01*
X108111319Y-51229000D01*
X108175999Y-51234659D01*
X108176000Y-51234659D01*
X108176001Y-51234659D01*
X108240681Y-51229000D01*
X108411408Y-51214063D01*
X108639663Y-51152903D01*
X108853830Y-51053035D01*
X109047401Y-50917495D01*
X109214495Y-50750401D01*
X109350035Y-50556830D01*
X109449903Y-50342663D01*
X109511063Y-50114408D01*
X109531659Y-49879000D01*
X109511063Y-49643592D01*
X109449903Y-49415337D01*
X109350035Y-49201171D01*
X109344425Y-49193158D01*
X109214494Y-49007597D01*
X109047402Y-48840506D01*
X109047396Y-48840501D01*
X108861842Y-48710575D01*
X108818217Y-48655998D01*
X108811023Y-48586500D01*
X108842546Y-48524145D01*
X108861842Y-48507425D01*
X108973774Y-48429049D01*
X109047401Y-48377495D01*
X109214495Y-48210401D01*
X109350035Y-48016830D01*
X109449903Y-47802663D01*
X109511063Y-47574408D01*
X109531659Y-47339000D01*
X109511063Y-47103592D01*
X109449903Y-46875337D01*
X109350035Y-46661171D01*
X109344731Y-46653595D01*
X109214494Y-46467597D01*
X109047402Y-46300506D01*
X109047396Y-46300501D01*
X108852415Y-46163974D01*
X108808790Y-46109397D01*
X108801596Y-46039899D01*
X108833119Y-45977544D01*
X108852411Y-45960826D01*
X109041401Y-45828495D01*
X109208495Y-45661401D01*
X109344035Y-45467830D01*
X109443903Y-45253663D01*
X109505063Y-45025408D01*
X109525659Y-44790000D01*
X109505063Y-44554592D01*
X109443903Y-44326337D01*
X109344035Y-44112171D01*
X109338425Y-44104158D01*
X109208494Y-43918597D01*
X109041402Y-43751506D01*
X109041396Y-43751501D01*
X108855842Y-43621575D01*
X108812217Y-43566998D01*
X108805023Y-43497500D01*
X108836546Y-43435145D01*
X108855842Y-43418425D01*
X108967774Y-43340049D01*
X109041401Y-43288495D01*
X109208495Y-43121401D01*
X109344035Y-42927830D01*
X109443903Y-42713663D01*
X109505063Y-42485408D01*
X109525659Y-42250000D01*
X109505063Y-42014592D01*
X109443903Y-41786337D01*
X109344035Y-41572171D01*
X109338731Y-41564595D01*
X109208494Y-41378597D01*
X109041402Y-41211506D01*
X109041395Y-41211501D01*
X108847834Y-41075967D01*
X108847830Y-41075965D01*
X108847828Y-41075964D01*
X108633663Y-40976097D01*
X108633659Y-40976096D01*
X108633655Y-40976094D01*
X108405413Y-40914938D01*
X108405403Y-40914936D01*
X108170001Y-40894341D01*
X108169999Y-40894341D01*
X107934596Y-40914936D01*
X107934586Y-40914938D01*
X107706344Y-40976094D01*
X107706335Y-40976098D01*
X107492171Y-41075964D01*
X107492169Y-41075965D01*
X107298597Y-41211505D01*
X107131505Y-41378597D01*
X107001575Y-41564158D01*
X106946998Y-41607783D01*
X106877500Y-41614977D01*
X106815145Y-41583454D01*
X106798425Y-41564158D01*
X106668494Y-41378597D01*
X106501402Y-41211506D01*
X106501395Y-41211501D01*
X106307834Y-41075967D01*
X106307830Y-41075965D01*
X106307828Y-41075964D01*
X106093663Y-40976097D01*
X106093659Y-40976096D01*
X106093655Y-40976094D01*
X105865413Y-40914938D01*
X105865403Y-40914936D01*
X105630001Y-40894341D01*
X105629999Y-40894341D01*
X105394596Y-40914936D01*
X105394586Y-40914938D01*
X105166344Y-40976094D01*
X105166335Y-40976098D01*
X104952171Y-41075964D01*
X104952169Y-41075965D01*
X104758597Y-41211505D01*
X104591505Y-41378597D01*
X104461575Y-41564158D01*
X104406998Y-41607783D01*
X104337500Y-41614977D01*
X104275145Y-41583454D01*
X104258425Y-41564158D01*
X104128494Y-41378597D01*
X103961402Y-41211506D01*
X103961395Y-41211501D01*
X103767834Y-41075967D01*
X103767830Y-41075965D01*
X103767828Y-41075964D01*
X103553663Y-40976097D01*
X103553659Y-40976096D01*
X103553655Y-40976094D01*
X103325413Y-40914938D01*
X103325403Y-40914936D01*
X103090001Y-40894341D01*
X103089999Y-40894341D01*
X102854596Y-40914936D01*
X102854586Y-40914938D01*
X102626344Y-40976094D01*
X102626335Y-40976098D01*
X102412171Y-41075964D01*
X102412169Y-41075965D01*
X102218597Y-41211505D01*
X102051505Y-41378597D01*
X101921575Y-41564158D01*
X101866998Y-41607783D01*
X101797500Y-41614977D01*
X101735145Y-41583454D01*
X101718425Y-41564158D01*
X101588494Y-41378597D01*
X101421402Y-41211506D01*
X101421395Y-41211501D01*
X101227834Y-41075967D01*
X101227830Y-41075965D01*
X101227828Y-41075964D01*
X101013663Y-40976097D01*
X101013659Y-40976096D01*
X101013655Y-40976094D01*
X100785413Y-40914938D01*
X100785403Y-40914936D01*
X100550001Y-40894341D01*
X100549999Y-40894341D01*
X100314596Y-40914936D01*
X100314586Y-40914938D01*
X100086344Y-40976094D01*
X100086335Y-40976098D01*
X99872171Y-41075964D01*
X99872169Y-41075965D01*
X99678597Y-41211505D01*
X99511505Y-41378597D01*
X99381575Y-41564158D01*
X99326998Y-41607783D01*
X99257500Y-41614977D01*
X99195145Y-41583454D01*
X99178425Y-41564158D01*
X99048494Y-41378597D01*
X98881402Y-41211506D01*
X98881395Y-41211501D01*
X98687834Y-41075967D01*
X98687830Y-41075965D01*
X98687828Y-41075964D01*
X98473663Y-40976097D01*
X98473659Y-40976096D01*
X98473655Y-40976094D01*
X98245413Y-40914938D01*
X98245403Y-40914936D01*
X98010001Y-40894341D01*
X98009999Y-40894341D01*
X97774596Y-40914936D01*
X97774586Y-40914938D01*
X97546344Y-40976094D01*
X97546335Y-40976098D01*
X97332171Y-41075964D01*
X97332169Y-41075965D01*
X97138597Y-41211505D01*
X96971505Y-41378597D01*
X96841575Y-41564158D01*
X96786998Y-41607783D01*
X96717500Y-41614977D01*
X96655145Y-41583454D01*
X96638425Y-41564158D01*
X96508494Y-41378597D01*
X96341402Y-41211506D01*
X96341395Y-41211501D01*
X96147834Y-41075967D01*
X96147830Y-41075965D01*
X96147828Y-41075964D01*
X95933663Y-40976097D01*
X95933659Y-40976096D01*
X95933655Y-40976094D01*
X95705413Y-40914938D01*
X95705403Y-40914936D01*
X95470001Y-40894341D01*
X95469999Y-40894341D01*
X95234596Y-40914936D01*
X95234586Y-40914938D01*
X95006344Y-40976094D01*
X95006335Y-40976098D01*
X94792171Y-41075964D01*
X94792169Y-41075965D01*
X94598597Y-41211505D01*
X94431505Y-41378597D01*
X94301575Y-41564158D01*
X94246998Y-41607783D01*
X94177500Y-41614977D01*
X94115145Y-41583454D01*
X94098425Y-41564158D01*
X93968494Y-41378597D01*
X93801402Y-41211506D01*
X93801395Y-41211501D01*
X93607834Y-41075967D01*
X93607830Y-41075965D01*
X93607828Y-41075964D01*
X93393663Y-40976097D01*
X93393659Y-40976096D01*
X93393655Y-40976094D01*
X93165413Y-40914938D01*
X93165403Y-40914936D01*
X92930001Y-40894341D01*
X92929999Y-40894341D01*
X92694596Y-40914936D01*
X92694586Y-40914938D01*
X92466344Y-40976094D01*
X92466335Y-40976098D01*
X92252171Y-41075964D01*
X92252169Y-41075965D01*
X92058597Y-41211505D01*
X91891505Y-41378597D01*
X91761575Y-41564158D01*
X91706998Y-41607783D01*
X91637500Y-41614977D01*
X91575145Y-41583454D01*
X91558425Y-41564158D01*
X91428494Y-41378597D01*
X91261402Y-41211506D01*
X91261395Y-41211501D01*
X91067834Y-41075967D01*
X91067830Y-41075965D01*
X91067828Y-41075964D01*
X90853663Y-40976097D01*
X90853659Y-40976096D01*
X90853655Y-40976094D01*
X90625413Y-40914938D01*
X90625403Y-40914936D01*
X90390001Y-40894341D01*
X90389999Y-40894341D01*
X90154596Y-40914936D01*
X90154586Y-40914938D01*
X89926344Y-40976094D01*
X89926335Y-40976098D01*
X89712171Y-41075964D01*
X89712169Y-41075965D01*
X89518597Y-41211505D01*
X89351505Y-41378597D01*
X89221575Y-41564158D01*
X89166998Y-41607783D01*
X89097500Y-41614977D01*
X89035145Y-41583454D01*
X89018425Y-41564158D01*
X88888494Y-41378597D01*
X88721402Y-41211506D01*
X88721395Y-41211501D01*
X88527834Y-41075967D01*
X88527830Y-41075965D01*
X88527828Y-41075964D01*
X88313663Y-40976097D01*
X88313659Y-40976096D01*
X88313655Y-40976094D01*
X88085413Y-40914938D01*
X88085403Y-40914936D01*
X87850001Y-40894341D01*
X87849999Y-40894341D01*
X87614596Y-40914936D01*
X87614586Y-40914938D01*
X87386344Y-40976094D01*
X87386335Y-40976098D01*
X87172171Y-41075964D01*
X87172169Y-41075965D01*
X86978597Y-41211505D01*
X86811505Y-41378597D01*
X86681575Y-41564158D01*
X86626998Y-41607783D01*
X86557500Y-41614977D01*
X86495145Y-41583454D01*
X86478425Y-41564158D01*
X86348494Y-41378597D01*
X86181402Y-41211506D01*
X86181395Y-41211501D01*
X85987834Y-41075967D01*
X85987830Y-41075965D01*
X85987828Y-41075964D01*
X85773663Y-40976097D01*
X85773659Y-40976096D01*
X85773655Y-40976094D01*
X85545413Y-40914938D01*
X85545403Y-40914936D01*
X85310001Y-40894341D01*
X85309999Y-40894341D01*
X85074596Y-40914936D01*
X85074586Y-40914938D01*
X84846344Y-40976094D01*
X84846335Y-40976098D01*
X84632171Y-41075964D01*
X84632169Y-41075965D01*
X84438597Y-41211505D01*
X84271505Y-41378597D01*
X84141575Y-41564158D01*
X84086998Y-41607783D01*
X84017500Y-41614977D01*
X83955145Y-41583454D01*
X83938425Y-41564158D01*
X83808494Y-41378597D01*
X83641402Y-41211506D01*
X83641395Y-41211501D01*
X83447834Y-41075967D01*
X83447830Y-41075965D01*
X83447828Y-41075964D01*
X83233663Y-40976097D01*
X83233659Y-40976096D01*
X83233655Y-40976094D01*
X83005413Y-40914938D01*
X83005403Y-40914936D01*
X82770001Y-40894341D01*
X82769999Y-40894341D01*
X82534596Y-40914936D01*
X82534586Y-40914938D01*
X82306344Y-40976094D01*
X82306335Y-40976098D01*
X82092171Y-41075964D01*
X82092169Y-41075965D01*
X81898597Y-41211505D01*
X81731505Y-41378597D01*
X81601575Y-41564158D01*
X81546998Y-41607783D01*
X81477500Y-41614977D01*
X81415145Y-41583454D01*
X81398425Y-41564158D01*
X81268494Y-41378597D01*
X81101402Y-41211506D01*
X81101395Y-41211501D01*
X80907834Y-41075967D01*
X80907830Y-41075965D01*
X80907828Y-41075964D01*
X80693663Y-40976097D01*
X80693659Y-40976096D01*
X80693655Y-40976094D01*
X80465413Y-40914938D01*
X80465403Y-40914936D01*
X80230001Y-40894341D01*
X80229999Y-40894341D01*
X79994596Y-40914936D01*
X79994586Y-40914938D01*
X79766344Y-40976094D01*
X79766335Y-40976098D01*
X79552171Y-41075964D01*
X79552169Y-41075965D01*
X79358597Y-41211505D01*
X79191505Y-41378597D01*
X79061575Y-41564158D01*
X79006998Y-41607783D01*
X78937500Y-41614977D01*
X78875145Y-41583454D01*
X78858425Y-41564158D01*
X78728494Y-41378597D01*
X78561402Y-41211506D01*
X78561395Y-41211501D01*
X78367834Y-41075967D01*
X78367830Y-41075965D01*
X78367828Y-41075964D01*
X78153663Y-40976097D01*
X78153659Y-40976096D01*
X78153655Y-40976094D01*
X77925413Y-40914938D01*
X77925403Y-40914936D01*
X77690001Y-40894341D01*
X77689999Y-40894341D01*
X77454596Y-40914936D01*
X77454586Y-40914938D01*
X77226344Y-40976094D01*
X77226335Y-40976098D01*
X77012171Y-41075964D01*
X77012169Y-41075965D01*
X76818597Y-41211505D01*
X76651505Y-41378597D01*
X76521575Y-41564158D01*
X76466998Y-41607783D01*
X76397500Y-41614977D01*
X76335145Y-41583454D01*
X76318425Y-41564158D01*
X76188494Y-41378597D01*
X76021402Y-41211506D01*
X76021395Y-41211501D01*
X75827834Y-41075967D01*
X75827830Y-41075965D01*
X75827828Y-41075964D01*
X75613663Y-40976097D01*
X75613659Y-40976096D01*
X75613655Y-40976094D01*
X75385413Y-40914938D01*
X75385403Y-40914936D01*
X75150001Y-40894341D01*
X75149999Y-40894341D01*
X74914596Y-40914936D01*
X74914586Y-40914938D01*
X74686344Y-40976094D01*
X74686335Y-40976098D01*
X74472171Y-41075964D01*
X74472169Y-41075965D01*
X74278597Y-41211505D01*
X74111505Y-41378597D01*
X73981575Y-41564158D01*
X73926998Y-41607783D01*
X73857500Y-41614977D01*
X73795145Y-41583454D01*
X73778425Y-41564158D01*
X73648494Y-41378597D01*
X73481402Y-41211506D01*
X73481395Y-41211501D01*
X73287834Y-41075967D01*
X73287830Y-41075965D01*
X73287828Y-41075964D01*
X73073663Y-40976097D01*
X73073659Y-40976096D01*
X73073655Y-40976094D01*
X72845413Y-40914938D01*
X72845403Y-40914936D01*
X72610001Y-40894341D01*
X72609999Y-40894341D01*
X72374596Y-40914936D01*
X72374586Y-40914938D01*
X72146344Y-40976094D01*
X72146335Y-40976098D01*
X71932171Y-41075964D01*
X71932169Y-41075965D01*
X71738597Y-41211505D01*
X71571505Y-41378597D01*
X71441575Y-41564158D01*
X71386998Y-41607783D01*
X71317500Y-41614977D01*
X71255145Y-41583454D01*
X71238425Y-41564158D01*
X71108494Y-41378597D01*
X70941402Y-41211506D01*
X70941395Y-41211501D01*
X70747834Y-41075967D01*
X70747830Y-41075965D01*
X70747828Y-41075964D01*
X70533663Y-40976097D01*
X70533659Y-40976096D01*
X70533655Y-40976094D01*
X70305413Y-40914938D01*
X70305403Y-40914936D01*
X70070001Y-40894341D01*
X70069999Y-40894341D01*
X69834596Y-40914936D01*
X69834586Y-40914938D01*
X69606344Y-40976094D01*
X69606335Y-40976098D01*
X69392171Y-41075964D01*
X69392169Y-41075965D01*
X69198597Y-41211505D01*
X69031505Y-41378597D01*
X68901575Y-41564158D01*
X68846998Y-41607783D01*
X68777500Y-41614977D01*
X68715145Y-41583454D01*
X68698425Y-41564158D01*
X68568494Y-41378597D01*
X68401402Y-41211506D01*
X68401395Y-41211501D01*
X68207834Y-41075967D01*
X68207830Y-41075965D01*
X68207828Y-41075964D01*
X67993663Y-40976097D01*
X67993659Y-40976096D01*
X67993655Y-40976094D01*
X67765413Y-40914938D01*
X67765403Y-40914936D01*
X67530001Y-40894341D01*
X67529999Y-40894341D01*
X67294596Y-40914936D01*
X67294586Y-40914938D01*
X67066344Y-40976094D01*
X67066335Y-40976098D01*
X66852171Y-41075964D01*
X66852169Y-41075965D01*
X66658597Y-41211505D01*
X66491505Y-41378597D01*
X66361575Y-41564158D01*
X66306998Y-41607783D01*
X66237500Y-41614977D01*
X66175145Y-41583454D01*
X66158425Y-41564158D01*
X66028494Y-41378597D01*
X65861402Y-41211506D01*
X65861395Y-41211501D01*
X65667834Y-41075967D01*
X65667830Y-41075965D01*
X65667828Y-41075964D01*
X65453663Y-40976097D01*
X65453659Y-40976096D01*
X65453655Y-40976094D01*
X65225413Y-40914938D01*
X65225403Y-40914936D01*
X64990001Y-40894341D01*
X64989999Y-40894341D01*
X64754596Y-40914936D01*
X64754586Y-40914938D01*
X64526344Y-40976094D01*
X64526335Y-40976098D01*
X64312171Y-41075964D01*
X64312169Y-41075965D01*
X64118597Y-41211505D01*
X63951505Y-41378597D01*
X63821575Y-41564158D01*
X63766998Y-41607783D01*
X63697500Y-41614977D01*
X63635145Y-41583454D01*
X63618425Y-41564158D01*
X63488494Y-41378597D01*
X63321402Y-41211506D01*
X63321395Y-41211501D01*
X63127834Y-41075967D01*
X63127830Y-41075965D01*
X63127828Y-41075964D01*
X62913663Y-40976097D01*
X62913659Y-40976096D01*
X62913655Y-40976094D01*
X62685413Y-40914938D01*
X62685403Y-40914936D01*
X62450001Y-40894341D01*
X62449999Y-40894341D01*
X62214596Y-40914936D01*
X62214586Y-40914938D01*
X61986344Y-40976094D01*
X61986335Y-40976098D01*
X61772171Y-41075964D01*
X61772169Y-41075965D01*
X61578597Y-41211505D01*
X61411508Y-41378594D01*
X61281269Y-41564595D01*
X61226692Y-41608219D01*
X61157193Y-41615412D01*
X61094839Y-41583890D01*
X61078119Y-41564594D01*
X60948113Y-41378926D01*
X60948108Y-41378920D01*
X60781082Y-41211894D01*
X60587578Y-41076399D01*
X60373492Y-40976570D01*
X60373486Y-40976567D01*
X60160000Y-40919364D01*
X60160000Y-41816988D01*
X60102993Y-41784075D01*
X59975826Y-41750000D01*
X59844174Y-41750000D01*
X59717007Y-41784075D01*
X59660000Y-41816988D01*
X59660000Y-40919364D01*
X59659999Y-40919364D01*
X59446513Y-40976567D01*
X59446507Y-40976570D01*
X59232422Y-41076399D01*
X59232420Y-41076400D01*
X59038926Y-41211886D01*
X59038920Y-41211891D01*
X58871891Y-41378920D01*
X58871886Y-41378926D01*
X58736400Y-41572420D01*
X58736399Y-41572422D01*
X58636570Y-41786507D01*
X58636567Y-41786513D01*
X58579364Y-41999999D01*
X58579364Y-42000000D01*
X59476988Y-42000000D01*
X59444075Y-42057007D01*
X59410000Y-42184174D01*
X59410000Y-42315826D01*
X59444075Y-42442993D01*
X59476988Y-42500000D01*
X58579364Y-42500000D01*
X58636567Y-42713486D01*
X58636570Y-42713492D01*
X58736399Y-42927578D01*
X58871894Y-43121082D01*
X58994334Y-43243522D01*
X59027819Y-43304845D01*
X59022835Y-43374537D01*
X58980963Y-43430470D01*
X58949987Y-43447385D01*
X58817911Y-43496646D01*
X58817906Y-43496649D01*
X58702812Y-43582809D01*
X58702809Y-43582812D01*
X58616649Y-43697906D01*
X58616645Y-43697913D01*
X58566403Y-43832620D01*
X58566401Y-43832627D01*
X58560000Y-43892155D01*
X58560000Y-44540000D01*
X59476988Y-44540000D01*
X59444075Y-44597007D01*
X59410000Y-44724174D01*
X59410000Y-44855826D01*
X59444075Y-44982993D01*
X59476988Y-45040000D01*
X58560000Y-45040000D01*
X58560000Y-45687844D01*
X58566401Y-45747372D01*
X58566403Y-45747379D01*
X58616645Y-45882086D01*
X58616649Y-45882093D01*
X58702809Y-45997187D01*
X58702812Y-45997190D01*
X58817906Y-46083350D01*
X58817913Y-46083354D01*
X58959892Y-46136309D01*
X58958792Y-46139258D01*
X59006887Y-46166619D01*
X59039298Y-46228516D01*
X59033100Y-46298110D01*
X59005373Y-46340439D01*
X58877886Y-46467926D01*
X58742400Y-46661420D01*
X58742399Y-46661422D01*
X58642570Y-46875507D01*
X58642567Y-46875513D01*
X58585364Y-47088999D01*
X58585364Y-47089000D01*
X59482988Y-47089000D01*
X59450075Y-47146007D01*
X59416000Y-47273174D01*
X59416000Y-47404826D01*
X59450075Y-47531993D01*
X59482988Y-47589000D01*
X58585364Y-47589000D01*
X58642567Y-47802486D01*
X58642570Y-47802492D01*
X58742399Y-48016578D01*
X58877894Y-48210082D01*
X59000334Y-48332522D01*
X59033819Y-48393845D01*
X59028835Y-48463537D01*
X58986963Y-48519470D01*
X58955987Y-48536385D01*
X58823911Y-48585646D01*
X58823906Y-48585649D01*
X58708812Y-48671809D01*
X58708809Y-48671812D01*
X58622649Y-48786906D01*
X58622645Y-48786913D01*
X58572403Y-48921620D01*
X58572401Y-48921627D01*
X58566000Y-48981155D01*
X58566000Y-49629000D01*
X59482988Y-49629000D01*
X59450075Y-49686007D01*
X59416000Y-49813174D01*
X59416000Y-49944826D01*
X59450075Y-50071993D01*
X59482988Y-50129000D01*
X58566000Y-50129000D01*
X58566000Y-50776844D01*
X58572401Y-50836372D01*
X58572403Y-50836379D01*
X58622645Y-50971086D01*
X58622649Y-50971093D01*
X58708809Y-51086187D01*
X58708812Y-51086190D01*
X58823906Y-51172350D01*
X58823913Y-51172354D01*
X58958620Y-51222596D01*
X58958627Y-51222598D01*
X59018155Y-51228999D01*
X59018172Y-51229000D01*
X59666000Y-51229000D01*
X59666000Y-50312012D01*
X59723007Y-50344925D01*
X59850174Y-50379000D01*
X59981826Y-50379000D01*
X60108993Y-50344925D01*
X60166000Y-50312012D01*
X60166000Y-51229000D01*
X60813828Y-51229000D01*
X60813844Y-51228999D01*
X60873372Y-51222598D01*
X60873379Y-51222596D01*
X61008086Y-51172354D01*
X61008093Y-51172350D01*
X61123187Y-51086190D01*
X61123190Y-51086187D01*
X61209350Y-50971093D01*
X61209354Y-50971086D01*
X61258422Y-50839529D01*
X61300293Y-50783595D01*
X61365757Y-50759178D01*
X61434030Y-50774030D01*
X61462285Y-50795181D01*
X61584599Y-50917495D01*
X61661135Y-50971086D01*
X61778165Y-51053032D01*
X61778167Y-51053033D01*
X61778170Y-51053035D01*
X61992337Y-51152903D01*
X61992343Y-51152904D01*
X61992344Y-51152905D01*
X62019947Y-51160301D01*
X62220592Y-51214063D01*
X62391319Y-51229000D01*
X62455999Y-51234659D01*
X62456000Y-51234659D01*
X62456001Y-51234659D01*
X62520681Y-51229000D01*
X62691408Y-51214063D01*
X62919663Y-51152903D01*
X63133830Y-51053035D01*
X63327401Y-50917495D01*
X63494495Y-50750401D01*
X63624425Y-50564842D01*
X63679002Y-50521217D01*
X63748500Y-50514023D01*
X63810855Y-50545546D01*
X63827575Y-50564842D01*
X63957500Y-50750395D01*
X63957505Y-50750401D01*
X64124599Y-50917495D01*
X64201135Y-50971086D01*
X64318165Y-51053032D01*
X64318167Y-51053033D01*
X64318170Y-51053035D01*
X64532337Y-51152903D01*
X64532343Y-51152904D01*
X64532344Y-51152905D01*
X64559947Y-51160301D01*
X64760592Y-51214063D01*
X64996000Y-51234659D01*
X65017583Y-51232770D01*
X65086082Y-51246535D01*
X65136266Y-51295149D01*
X65152201Y-51363177D01*
X65128828Y-51429021D01*
X65116073Y-51443979D01*
X64019304Y-52540748D01*
X63963719Y-52572841D01*
X63904069Y-52588825D01*
X63705761Y-52681298D01*
X63705757Y-52681300D01*
X63526521Y-52806802D01*
X63371802Y-52961521D01*
X63246300Y-53140757D01*
X63246298Y-53140761D01*
X63153826Y-53339068D01*
X63153822Y-53339077D01*
X63097193Y-53550420D01*
X63097193Y-53550424D01*
X63082507Y-53718295D01*
X63078123Y-53768400D01*
X63093375Y-53942741D01*
X63097193Y-53986375D01*
X63097193Y-53986379D01*
X63153822Y-54197722D01*
X63153824Y-54197726D01*
X63153825Y-54197730D01*
X63165482Y-54222728D01*
X63246297Y-54396038D01*
X63271398Y-54431886D01*
X63371802Y-54575277D01*
X63526523Y-54729998D01*
X63705761Y-54855502D01*
X63904070Y-54947975D01*
X64115423Y-55004607D01*
X64298326Y-55020608D01*
X64333398Y-55023677D01*
X64333400Y-55023677D01*
X64333402Y-55023677D01*
X64361654Y-55021205D01*
X64551377Y-55004607D01*
X64762730Y-54947975D01*
X64961039Y-54855502D01*
X65140277Y-54729998D01*
X65206326Y-54663948D01*
X65267646Y-54630465D01*
X65337338Y-54635449D01*
X65365121Y-54650052D01*
X65437266Y-54700568D01*
X65643504Y-54796739D01*
X65863308Y-54855635D01*
X66025230Y-54869801D01*
X66089998Y-54875468D01*
X66090000Y-54875468D01*
X66090002Y-54875468D01*
X66152511Y-54869999D01*
X66316692Y-54855635D01*
X66536496Y-54796739D01*
X66742734Y-54700568D01*
X66929139Y-54570047D01*
X67090047Y-54409139D01*
X67220568Y-54222734D01*
X67247618Y-54164724D01*
X67293790Y-54112285D01*
X67360983Y-54093133D01*
X67427865Y-54113348D01*
X67472382Y-54164725D01*
X67499429Y-54222728D01*
X67499432Y-54222734D01*
X67629954Y-54409141D01*
X67790858Y-54570045D01*
X67790861Y-54570047D01*
X67977266Y-54700568D01*
X68183504Y-54796739D01*
X68403308Y-54855635D01*
X68565230Y-54869801D01*
X68629998Y-54875468D01*
X68630000Y-54875468D01*
X68630002Y-54875468D01*
X68692511Y-54869999D01*
X68856692Y-54855635D01*
X69076496Y-54796739D01*
X69282734Y-54700568D01*
X69469139Y-54570047D01*
X69630047Y-54409139D01*
X69760568Y-54222734D01*
X69787618Y-54164724D01*
X69833790Y-54112285D01*
X69900983Y-54093133D01*
X69967865Y-54113348D01*
X70012382Y-54164725D01*
X70039429Y-54222728D01*
X70039432Y-54222734D01*
X70169954Y-54409141D01*
X70330858Y-54570045D01*
X70330861Y-54570047D01*
X70517266Y-54700568D01*
X70723504Y-54796739D01*
X70943308Y-54855635D01*
X71105230Y-54869801D01*
X71169998Y-54875468D01*
X71170000Y-54875468D01*
X71170002Y-54875468D01*
X71232511Y-54869999D01*
X71396692Y-54855635D01*
X71616496Y-54796739D01*
X71822734Y-54700568D01*
X72009139Y-54570047D01*
X72170047Y-54409139D01*
X72300568Y-54222734D01*
X72327618Y-54164724D01*
X72373790Y-54112285D01*
X72440983Y-54093133D01*
X72507865Y-54113348D01*
X72552382Y-54164725D01*
X72579429Y-54222728D01*
X72579432Y-54222734D01*
X72709954Y-54409141D01*
X72870858Y-54570045D01*
X72870861Y-54570047D01*
X73057266Y-54700568D01*
X73263504Y-54796739D01*
X73483308Y-54855635D01*
X73645230Y-54869801D01*
X73709998Y-54875468D01*
X73710000Y-54875468D01*
X73710002Y-54875468D01*
X73772511Y-54869999D01*
X73936692Y-54855635D01*
X74156496Y-54796739D01*
X74362734Y-54700568D01*
X74549139Y-54570047D01*
X74710047Y-54409139D01*
X74840568Y-54222734D01*
X74867618Y-54164724D01*
X74913790Y-54112285D01*
X74980983Y-54093133D01*
X75047865Y-54113348D01*
X75092382Y-54164725D01*
X75119429Y-54222728D01*
X75119432Y-54222734D01*
X75249954Y-54409141D01*
X75410858Y-54570045D01*
X75410861Y-54570047D01*
X75597266Y-54700568D01*
X75803504Y-54796739D01*
X76023308Y-54855635D01*
X76185230Y-54869801D01*
X76249998Y-54875468D01*
X76250000Y-54875468D01*
X76250002Y-54875468D01*
X76312511Y-54869999D01*
X76476692Y-54855635D01*
X76696496Y-54796739D01*
X76902734Y-54700568D01*
X77089139Y-54570047D01*
X77250047Y-54409139D01*
X77380568Y-54222734D01*
X77407618Y-54164724D01*
X77453790Y-54112285D01*
X77520983Y-54093133D01*
X77587865Y-54113348D01*
X77632382Y-54164725D01*
X77659429Y-54222728D01*
X77659432Y-54222734D01*
X77789954Y-54409141D01*
X77950858Y-54570045D01*
X77950861Y-54570047D01*
X78137266Y-54700568D01*
X78343504Y-54796739D01*
X78563308Y-54855635D01*
X78725230Y-54869801D01*
X78789998Y-54875468D01*
X78790000Y-54875468D01*
X78790002Y-54875468D01*
X78852511Y-54869999D01*
X79016692Y-54855635D01*
X79236496Y-54796739D01*
X79442734Y-54700568D01*
X79629139Y-54570047D01*
X79790047Y-54409139D01*
X79920568Y-54222734D01*
X79947618Y-54164724D01*
X79993790Y-54112285D01*
X80060983Y-54093133D01*
X80127865Y-54113348D01*
X80172382Y-54164725D01*
X80199429Y-54222728D01*
X80199432Y-54222734D01*
X80329954Y-54409141D01*
X80490858Y-54570045D01*
X80490861Y-54570047D01*
X80677266Y-54700568D01*
X80883504Y-54796739D01*
X81103308Y-54855635D01*
X81265230Y-54869801D01*
X81329998Y-54875468D01*
X81330000Y-54875468D01*
X81330002Y-54875468D01*
X81392511Y-54869999D01*
X81556692Y-54855635D01*
X81776496Y-54796739D01*
X81982734Y-54700568D01*
X82169139Y-54570047D01*
X82330047Y-54409139D01*
X82460568Y-54222734D01*
X82487618Y-54164724D01*
X82533790Y-54112285D01*
X82600983Y-54093133D01*
X82667865Y-54113348D01*
X82712382Y-54164725D01*
X82739429Y-54222728D01*
X82739432Y-54222734D01*
X82869954Y-54409141D01*
X83030858Y-54570045D01*
X83030861Y-54570047D01*
X83217266Y-54700568D01*
X83423504Y-54796739D01*
X83643308Y-54855635D01*
X83805230Y-54869801D01*
X83869998Y-54875468D01*
X83870000Y-54875468D01*
X83870002Y-54875468D01*
X83932511Y-54869999D01*
X84096692Y-54855635D01*
X84316496Y-54796739D01*
X84522734Y-54700568D01*
X84709139Y-54570047D01*
X84870047Y-54409139D01*
X84887710Y-54383912D01*
X84942285Y-54340289D01*
X85011783Y-54333094D01*
X85074138Y-54364615D01*
X85109553Y-54424844D01*
X85112574Y-54441778D01*
X85116401Y-54477373D01*
X85116403Y-54477379D01*
X85166645Y-54612086D01*
X85166649Y-54612093D01*
X85252809Y-54727187D01*
X85252812Y-54727190D01*
X85367906Y-54813350D01*
X85367913Y-54813354D01*
X85502620Y-54863596D01*
X85502627Y-54863598D01*
X85562155Y-54869999D01*
X85562172Y-54870000D01*
X86160000Y-54870000D01*
X86160000Y-53885686D01*
X86164394Y-53890080D01*
X86255606Y-53942741D01*
X86357339Y-53970000D01*
X86462661Y-53970000D01*
X86564394Y-53942741D01*
X86655606Y-53890080D01*
X86660000Y-53885686D01*
X86660000Y-54870000D01*
X86895500Y-54870000D01*
X86962539Y-54889685D01*
X87008294Y-54942489D01*
X87019500Y-54994000D01*
X87019500Y-55689293D01*
X86999815Y-55756332D01*
X86947011Y-55802087D01*
X86877853Y-55812031D01*
X86851874Y-55804293D01*
X86851577Y-55805111D01*
X86846488Y-55803258D01*
X86626697Y-55744366D01*
X86626693Y-55744365D01*
X86626692Y-55744365D01*
X86626691Y-55744364D01*
X86626686Y-55744364D01*
X86400002Y-55724532D01*
X86399998Y-55724532D01*
X86173313Y-55744364D01*
X86173302Y-55744366D01*
X85953511Y-55803258D01*
X85953502Y-55803261D01*
X85747267Y-55899431D01*
X85747265Y-55899432D01*
X85560858Y-56029954D01*
X85399954Y-56190858D01*
X85269432Y-56377265D01*
X85269431Y-56377267D01*
X85242382Y-56435275D01*
X85196209Y-56487714D01*
X85129016Y-56506866D01*
X85062135Y-56486650D01*
X85017618Y-56435275D01*
X84990568Y-56377267D01*
X84990567Y-56377265D01*
X84986897Y-56372024D01*
X84860047Y-56190861D01*
X84860045Y-56190858D01*
X84699141Y-56029954D01*
X84512734Y-55899432D01*
X84512732Y-55899431D01*
X84306497Y-55803261D01*
X84306488Y-55803258D01*
X84086697Y-55744366D01*
X84086693Y-55744365D01*
X84086692Y-55744365D01*
X84086691Y-55744364D01*
X84086686Y-55744364D01*
X83860002Y-55724532D01*
X83859998Y-55724532D01*
X83633313Y-55744364D01*
X83633302Y-55744366D01*
X83413511Y-55803258D01*
X83413502Y-55803261D01*
X83207267Y-55899431D01*
X83207265Y-55899432D01*
X83020858Y-56029954D01*
X82859954Y-56190858D01*
X82729432Y-56377265D01*
X82729431Y-56377267D01*
X82702382Y-56435275D01*
X82656209Y-56487714D01*
X82589016Y-56506866D01*
X82522135Y-56486650D01*
X82477618Y-56435275D01*
X82450568Y-56377267D01*
X82450567Y-56377265D01*
X82446897Y-56372024D01*
X82320047Y-56190861D01*
X82320045Y-56190858D01*
X82159141Y-56029954D01*
X81972734Y-55899432D01*
X81972732Y-55899431D01*
X81766497Y-55803261D01*
X81766488Y-55803258D01*
X81546697Y-55744366D01*
X81546693Y-55744365D01*
X81546692Y-55744365D01*
X81546691Y-55744364D01*
X81546686Y-55744364D01*
X81320002Y-55724532D01*
X81319998Y-55724532D01*
X81093313Y-55744364D01*
X81093302Y-55744366D01*
X80873511Y-55803258D01*
X80873502Y-55803261D01*
X80667267Y-55899431D01*
X80667265Y-55899432D01*
X80480858Y-56029954D01*
X80319954Y-56190858D01*
X80189432Y-56377265D01*
X80189431Y-56377267D01*
X80162382Y-56435275D01*
X80116209Y-56487714D01*
X80049016Y-56506866D01*
X79982135Y-56486650D01*
X79937618Y-56435275D01*
X79910568Y-56377267D01*
X79910567Y-56377265D01*
X79906897Y-56372024D01*
X79780047Y-56190861D01*
X79780045Y-56190858D01*
X79619141Y-56029954D01*
X79432734Y-55899432D01*
X79432732Y-55899431D01*
X79226497Y-55803261D01*
X79226488Y-55803258D01*
X79006697Y-55744366D01*
X79006693Y-55744365D01*
X79006692Y-55744365D01*
X79006691Y-55744364D01*
X79006686Y-55744364D01*
X78780002Y-55724532D01*
X78779998Y-55724532D01*
X78553313Y-55744364D01*
X78553302Y-55744366D01*
X78333511Y-55803258D01*
X78333502Y-55803261D01*
X78127267Y-55899431D01*
X78127265Y-55899432D01*
X77940858Y-56029954D01*
X77779954Y-56190858D01*
X77649432Y-56377265D01*
X77649431Y-56377267D01*
X77622382Y-56435275D01*
X77576209Y-56487714D01*
X77509016Y-56506866D01*
X77442135Y-56486650D01*
X77397618Y-56435275D01*
X77370568Y-56377267D01*
X77370567Y-56377265D01*
X77366897Y-56372024D01*
X77240047Y-56190861D01*
X77240045Y-56190858D01*
X77079141Y-56029954D01*
X76892734Y-55899432D01*
X76892732Y-55899431D01*
X76686497Y-55803261D01*
X76686488Y-55803258D01*
X76466697Y-55744366D01*
X76466693Y-55744365D01*
X76466692Y-55744365D01*
X76466691Y-55744364D01*
X76466686Y-55744364D01*
X76240002Y-55724532D01*
X76239998Y-55724532D01*
X76013313Y-55744364D01*
X76013302Y-55744366D01*
X75793511Y-55803258D01*
X75793502Y-55803261D01*
X75587267Y-55899431D01*
X75587265Y-55899432D01*
X75400858Y-56029954D01*
X75239954Y-56190858D01*
X75109432Y-56377265D01*
X75109431Y-56377267D01*
X75082382Y-56435275D01*
X75036209Y-56487714D01*
X74969016Y-56506866D01*
X74902135Y-56486650D01*
X74857618Y-56435275D01*
X74830568Y-56377267D01*
X74830567Y-56377265D01*
X74826897Y-56372024D01*
X74700047Y-56190861D01*
X74700045Y-56190858D01*
X74539141Y-56029954D01*
X74352734Y-55899432D01*
X74352732Y-55899431D01*
X74146497Y-55803261D01*
X74146488Y-55803258D01*
X73926697Y-55744366D01*
X73926693Y-55744365D01*
X73926692Y-55744365D01*
X73926691Y-55744364D01*
X73926686Y-55744364D01*
X73700002Y-55724532D01*
X73699998Y-55724532D01*
X73473313Y-55744364D01*
X73473302Y-55744366D01*
X73253511Y-55803258D01*
X73253502Y-55803261D01*
X73047267Y-55899431D01*
X73047265Y-55899432D01*
X72860858Y-56029954D01*
X72699954Y-56190858D01*
X72569432Y-56377265D01*
X72569431Y-56377267D01*
X72542382Y-56435275D01*
X72496209Y-56487714D01*
X72429016Y-56506866D01*
X72362135Y-56486650D01*
X72317618Y-56435275D01*
X72290568Y-56377267D01*
X72290567Y-56377265D01*
X72286897Y-56372024D01*
X72160047Y-56190861D01*
X72160045Y-56190858D01*
X71999141Y-56029954D01*
X71812734Y-55899432D01*
X71812732Y-55899431D01*
X71606497Y-55803261D01*
X71606488Y-55803258D01*
X71386697Y-55744366D01*
X71386693Y-55744365D01*
X71386692Y-55744365D01*
X71386691Y-55744364D01*
X71386686Y-55744364D01*
X71160002Y-55724532D01*
X71159998Y-55724532D01*
X70933313Y-55744364D01*
X70933302Y-55744366D01*
X70713511Y-55803258D01*
X70713502Y-55803261D01*
X70507267Y-55899431D01*
X70507265Y-55899432D01*
X70320858Y-56029954D01*
X70159954Y-56190858D01*
X70029432Y-56377265D01*
X70029431Y-56377267D01*
X70002382Y-56435275D01*
X69956209Y-56487714D01*
X69889016Y-56506866D01*
X69822135Y-56486650D01*
X69777618Y-56435275D01*
X69750568Y-56377267D01*
X69750567Y-56377265D01*
X69746897Y-56372024D01*
X69620047Y-56190861D01*
X69620045Y-56190858D01*
X69459141Y-56029954D01*
X69272734Y-55899432D01*
X69272732Y-55899431D01*
X69066497Y-55803261D01*
X69066488Y-55803258D01*
X68846697Y-55744366D01*
X68846693Y-55744365D01*
X68846692Y-55744365D01*
X68846691Y-55744364D01*
X68846686Y-55744364D01*
X68620002Y-55724532D01*
X68619998Y-55724532D01*
X68393313Y-55744364D01*
X68393302Y-55744366D01*
X68173511Y-55803258D01*
X68173502Y-55803261D01*
X67967267Y-55899431D01*
X67967265Y-55899432D01*
X67780858Y-56029954D01*
X67619954Y-56190858D01*
X67489432Y-56377265D01*
X67489431Y-56377267D01*
X67393261Y-56583502D01*
X67393258Y-56583511D01*
X67334366Y-56803302D01*
X67334364Y-56803313D01*
X67314532Y-57029998D01*
X67314532Y-57030001D01*
X67334364Y-57256686D01*
X67334366Y-57256697D01*
X67393258Y-57476488D01*
X67393261Y-57476497D01*
X67489431Y-57682732D01*
X67489432Y-57682734D01*
X67619954Y-57869141D01*
X67780858Y-58030045D01*
X67780861Y-58030047D01*
X67967266Y-58160568D01*
X68173504Y-58256739D01*
X68173509Y-58256740D01*
X68173511Y-58256741D01*
X68219655Y-58269105D01*
X68393308Y-58315635D01*
X68555230Y-58329801D01*
X68619998Y-58335468D01*
X68620000Y-58335468D01*
X68620002Y-58335468D01*
X68652118Y-58332658D01*
X68846692Y-58315635D01*
X68879275Y-58306904D01*
X68949123Y-58308565D01*
X68999051Y-58338997D01*
X72942724Y-62282671D01*
X72942731Y-62282677D01*
X73045259Y-62351184D01*
X73045263Y-62351185D01*
X73049273Y-62353865D01*
X73167656Y-62402901D01*
X73167660Y-62402901D01*
X73167661Y-62402902D01*
X73293328Y-62427900D01*
X73293331Y-62427900D01*
X80516671Y-62427900D01*
X80617605Y-62407822D01*
X80642344Y-62402901D01*
X80760727Y-62353865D01*
X80764730Y-62351189D01*
X80764740Y-62351186D01*
X80764739Y-62351184D01*
X80801086Y-62326898D01*
X80867269Y-62282677D01*
X81253061Y-61896883D01*
X81314384Y-61863399D01*
X81372834Y-61864789D01*
X81413308Y-61875635D01*
X81575230Y-61889801D01*
X81639998Y-61895468D01*
X81640000Y-61895468D01*
X81640002Y-61895468D01*
X81702911Y-61889964D01*
X81866692Y-61875635D01*
X82086496Y-61816739D01*
X82292734Y-61720568D01*
X82479139Y-61590047D01*
X82640047Y-61429139D01*
X82770568Y-61242734D01*
X82797618Y-61184724D01*
X82843790Y-61132285D01*
X82910983Y-61113133D01*
X82977865Y-61133348D01*
X83022381Y-61184724D01*
X83036517Y-61215038D01*
X83049429Y-61242728D01*
X83049432Y-61242734D01*
X83179954Y-61429141D01*
X83340858Y-61590045D01*
X83340861Y-61590047D01*
X83527266Y-61720568D01*
X83541294Y-61727109D01*
X83543414Y-61728098D01*
X83595854Y-61774270D01*
X83615006Y-61841463D01*
X83594791Y-61908344D01*
X83578691Y-61928161D01*
X80390373Y-65116481D01*
X80329050Y-65149966D01*
X80302692Y-65152800D01*
X63499329Y-65152800D01*
X63373661Y-65177797D01*
X63373655Y-65177799D01*
X63272255Y-65219801D01*
X63255277Y-65226833D01*
X63255269Y-65226837D01*
X63148726Y-65298026D01*
X62617951Y-65828801D01*
X62556628Y-65862286D01*
X62486936Y-65857302D01*
X62431004Y-65815431D01*
X62417547Y-65797455D01*
X62417544Y-65797452D01*
X62302335Y-65711206D01*
X62302328Y-65711202D01*
X62167482Y-65660908D01*
X62167483Y-65660908D01*
X62107883Y-65654501D01*
X62107881Y-65654500D01*
X62107873Y-65654500D01*
X62107864Y-65654500D01*
X60412129Y-65654500D01*
X60412120Y-65654501D01*
X60378252Y-65658142D01*
X60309493Y-65645735D01*
X60258357Y-65598123D01*
X60241000Y-65534852D01*
X60241000Y-64915107D01*
X60260685Y-64848068D01*
X60277319Y-64827426D01*
X64179773Y-60924972D01*
X64179776Y-60924969D01*
X64250965Y-60818427D01*
X64300001Y-60700044D01*
X64316305Y-60618079D01*
X64325000Y-60574371D01*
X64325000Y-57731176D01*
X64344685Y-57664137D01*
X64377877Y-57629601D01*
X64393678Y-57618537D01*
X64489277Y-57551598D01*
X64643998Y-57396877D01*
X64769502Y-57217639D01*
X64861975Y-57019330D01*
X64918607Y-56807977D01*
X64937677Y-56590000D01*
X64937109Y-56583511D01*
X64928635Y-56486650D01*
X64918607Y-56372023D01*
X64880240Y-56228834D01*
X64861977Y-56160677D01*
X64861976Y-56160676D01*
X64861975Y-56160670D01*
X64769502Y-55962362D01*
X64769500Y-55962359D01*
X64769499Y-55962357D01*
X64643999Y-55783124D01*
X64571472Y-55710597D01*
X64489277Y-55628402D01*
X64310039Y-55502898D01*
X64310040Y-55502898D01*
X64310038Y-55502897D01*
X64210884Y-55456661D01*
X64111730Y-55410425D01*
X64111726Y-55410424D01*
X64111722Y-55410422D01*
X63900377Y-55353793D01*
X63682402Y-55334723D01*
X63682398Y-55334723D01*
X63537082Y-55347436D01*
X63464423Y-55353793D01*
X63464420Y-55353793D01*
X63253077Y-55410422D01*
X63253068Y-55410426D01*
X63054761Y-55502898D01*
X63054757Y-55502900D01*
X62875521Y-55628402D01*
X62720802Y-55783121D01*
X62595300Y-55962357D01*
X62595298Y-55962361D01*
X62502826Y-56160668D01*
X62502822Y-56160677D01*
X62446193Y-56372020D01*
X62446193Y-56372024D01*
X62427123Y-56589997D01*
X62427123Y-56590002D01*
X62446193Y-56807975D01*
X62446193Y-56807979D01*
X62502822Y-57019322D01*
X62502824Y-57019326D01*
X62502825Y-57019330D01*
X62507800Y-57029998D01*
X62595297Y-57217638D01*
X62595298Y-57217639D01*
X62720802Y-57396877D01*
X62875523Y-57551598D01*
X62971123Y-57618537D01*
X63014748Y-57673113D01*
X63024000Y-57720112D01*
X63024000Y-60189492D01*
X63004315Y-60256531D01*
X62987681Y-60277173D01*
X62449031Y-60815822D01*
X62387708Y-60849307D01*
X62318016Y-60844323D01*
X62262083Y-60802451D01*
X62237666Y-60736987D01*
X62243418Y-60689827D01*
X62266731Y-60618079D01*
X62325688Y-60309015D01*
X62325689Y-60309004D01*
X62345444Y-59995005D01*
X62345444Y-59994994D01*
X62325689Y-59680995D01*
X62325688Y-59680988D01*
X62325688Y-59680985D01*
X62266731Y-59371921D01*
X62169503Y-59072685D01*
X62146420Y-59023632D01*
X62094298Y-58912866D01*
X62035537Y-58787993D01*
X61974005Y-58691034D01*
X61866948Y-58522338D01*
X61866945Y-58522334D01*
X61666393Y-58279909D01*
X61666391Y-58279907D01*
X61659884Y-58273796D01*
X61437030Y-58064522D01*
X61437027Y-58064520D01*
X61437021Y-58064515D01*
X61182495Y-57879591D01*
X61182488Y-57879586D01*
X61182484Y-57879584D01*
X60906766Y-57728006D01*
X60906763Y-57728004D01*
X60906758Y-57728002D01*
X60906757Y-57728001D01*
X60614228Y-57612181D01*
X60614225Y-57612180D01*
X60309476Y-57533934D01*
X60309463Y-57533932D01*
X59997329Y-57494500D01*
X59997318Y-57494500D01*
X59682682Y-57494500D01*
X59682670Y-57494500D01*
X59370536Y-57533932D01*
X59370523Y-57533934D01*
X59065774Y-57612180D01*
X59065771Y-57612181D01*
X58773242Y-57728001D01*
X58773241Y-57728002D01*
X58497516Y-57879584D01*
X58497504Y-57879591D01*
X58242978Y-58064515D01*
X58242968Y-58064523D01*
X58013608Y-58279907D01*
X58013606Y-58279909D01*
X57813054Y-58522334D01*
X57813051Y-58522338D01*
X57644464Y-58787990D01*
X57644461Y-58787996D01*
X57510499Y-59072678D01*
X57510497Y-59072683D01*
X57413270Y-59371916D01*
X57354311Y-59680988D01*
X57354310Y-59680995D01*
X57334556Y-59994994D01*
X57334556Y-59995005D01*
X57354310Y-60309004D01*
X57354311Y-60309011D01*
X57413270Y-60618083D01*
X57510497Y-60917316D01*
X57510499Y-60917321D01*
X57644461Y-61202003D01*
X57644464Y-61202009D01*
X57813051Y-61467661D01*
X57813054Y-61467665D01*
X58013606Y-61710090D01*
X58013608Y-61710092D01*
X58013610Y-61710094D01*
X58153504Y-61841463D01*
X58242968Y-61925476D01*
X58242978Y-61925484D01*
X58497504Y-62110408D01*
X58497509Y-62110410D01*
X58497516Y-62110416D01*
X58773234Y-62261994D01*
X58773239Y-62261996D01*
X58773241Y-62261997D01*
X58773242Y-62261998D01*
X59065771Y-62377818D01*
X59065774Y-62377819D01*
X59367442Y-62455274D01*
X59370527Y-62456066D01*
X59398423Y-62459590D01*
X59682670Y-62495499D01*
X59682679Y-62495499D01*
X59682682Y-62495500D01*
X59682684Y-62495500D01*
X59997316Y-62495500D01*
X59997318Y-62495500D01*
X59997321Y-62495499D01*
X59997329Y-62495499D01*
X60183593Y-62471968D01*
X60309473Y-62456066D01*
X60542253Y-62396298D01*
X60612080Y-62398692D01*
X60669529Y-62438458D01*
X60696359Y-62502971D01*
X60684052Y-62571748D01*
X60660770Y-62604083D01*
X59085222Y-64179631D01*
X59085218Y-64179636D01*
X59057664Y-64220876D01*
X59057664Y-64220877D01*
X59014034Y-64286174D01*
X58964999Y-64404555D01*
X58964997Y-64404561D01*
X58940000Y-64530228D01*
X58940000Y-66971356D01*
X58920315Y-67038395D01*
X58867511Y-67084150D01*
X58798353Y-67094094D01*
X58783907Y-67091131D01*
X58646697Y-67054366D01*
X58646693Y-67054365D01*
X58646692Y-67054365D01*
X58646691Y-67054364D01*
X58646686Y-67054364D01*
X58420002Y-67034532D01*
X58419998Y-67034532D01*
X58193313Y-67054364D01*
X58193302Y-67054366D01*
X57973511Y-67113258D01*
X57973502Y-67113261D01*
X57767267Y-67209431D01*
X57767265Y-67209432D01*
X57580858Y-67339954D01*
X57419954Y-67500858D01*
X57289432Y-67687265D01*
X57289431Y-67687267D01*
X57193261Y-67893502D01*
X57193258Y-67893511D01*
X57134366Y-68113302D01*
X57134364Y-68113313D01*
X57114532Y-68339998D01*
X57114532Y-68340001D01*
X57134364Y-68566686D01*
X57134366Y-68566697D01*
X57193258Y-68786488D01*
X57193261Y-68786497D01*
X57289431Y-68992732D01*
X57289432Y-68992734D01*
X57419954Y-69179141D01*
X57580858Y-69340045D01*
X57580861Y-69340047D01*
X57767266Y-69470568D01*
X57973504Y-69566739D01*
X58118102Y-69605483D01*
X58177761Y-69641848D01*
X58208291Y-69704694D01*
X58199997Y-69774070D01*
X58155512Y-69827948D01*
X58118102Y-69845033D01*
X57973680Y-69883731D01*
X57973673Y-69883734D01*
X57767516Y-69979866D01*
X57767512Y-69979868D01*
X57694526Y-70030973D01*
X57694526Y-70030974D01*
X58290589Y-70627037D01*
X58227007Y-70644075D01*
X58112993Y-70709901D01*
X58019901Y-70802993D01*
X57954075Y-70917007D01*
X57937037Y-70980589D01*
X57340974Y-70384526D01*
X57340973Y-70384526D01*
X57289868Y-70457512D01*
X57289866Y-70457516D01*
X57193734Y-70663673D01*
X57193730Y-70663682D01*
X57134860Y-70883389D01*
X57134858Y-70883400D01*
X57115034Y-71109997D01*
X57115034Y-71110002D01*
X57134858Y-71336599D01*
X57134860Y-71336610D01*
X57193730Y-71556317D01*
X57193734Y-71556326D01*
X57260203Y-71698870D01*
X57270695Y-71767948D01*
X57242175Y-71831732D01*
X57190278Y-71865707D01*
X57190884Y-71867168D01*
X57185256Y-71869498D01*
X57185256Y-71869499D01*
X57159163Y-71880306D01*
X57066874Y-71918534D01*
X56960326Y-71989726D01*
X56284726Y-72665326D01*
X56284723Y-72665331D01*
X56219551Y-72762869D01*
X56215540Y-72768871D01*
X56213536Y-72771871D01*
X56213534Y-72771873D01*
X56164499Y-72890255D01*
X56164497Y-72890261D01*
X56139500Y-73015928D01*
X56139500Y-90490362D01*
X56119815Y-90557401D01*
X56067011Y-90603156D01*
X55997853Y-90613100D01*
X55934297Y-90584075D01*
X55900939Y-90537815D01*
X55843704Y-90399639D01*
X55750626Y-90260337D01*
X55632162Y-90141873D01*
X55492860Y-90048795D01*
X55338082Y-89984684D01*
X55338074Y-89984682D01*
X55173771Y-89952000D01*
X55173767Y-89952000D01*
X55006233Y-89952000D01*
X55006228Y-89952000D01*
X54841925Y-89984682D01*
X54841917Y-89984684D01*
X54687139Y-90048795D01*
X54547837Y-90141873D01*
X54429373Y-90260337D01*
X54336295Y-90399639D01*
X54272184Y-90554417D01*
X54272182Y-90554425D01*
X54239500Y-90718728D01*
X54239500Y-90886271D01*
X54272182Y-91050574D01*
X54272184Y-91050582D01*
X54336295Y-91205360D01*
X54429373Y-91344662D01*
X54547837Y-91463126D01*
X54640494Y-91525037D01*
X54687137Y-91556203D01*
X54841918Y-91620316D01*
X55006228Y-91652999D01*
X55006232Y-91653000D01*
X55006233Y-91653000D01*
X55173768Y-91653000D01*
X55173769Y-91652999D01*
X55338082Y-91620316D01*
X55492863Y-91556203D01*
X55632162Y-91463126D01*
X55750626Y-91344662D01*
X55843703Y-91205363D01*
X55900939Y-91067183D01*
X55944780Y-91012781D01*
X56011074Y-90990716D01*
X56078774Y-91007995D01*
X56126384Y-91059133D01*
X56139500Y-91114637D01*
X56139500Y-94265929D01*
X56119815Y-94332968D01*
X56067011Y-94378723D01*
X55997853Y-94388667D01*
X55934297Y-94359642D01*
X55927819Y-94353610D01*
X55842108Y-94267899D01*
X55842106Y-94267897D01*
X55695090Y-94161083D01*
X55533174Y-94078583D01*
X55533171Y-94078581D01*
X55360348Y-94022428D01*
X55240689Y-94003476D01*
X55180861Y-93994000D01*
X54999139Y-93994000D01*
X54939310Y-94003476D01*
X54819652Y-94022428D01*
X54819649Y-94022428D01*
X54646828Y-94078581D01*
X54646825Y-94078583D01*
X54484909Y-94161083D01*
X54431281Y-94200047D01*
X54337894Y-94267897D01*
X54337892Y-94267899D01*
X54337891Y-94267899D01*
X54209399Y-94396391D01*
X54209399Y-94396392D01*
X54209397Y-94396394D01*
X54186019Y-94428571D01*
X54102583Y-94543409D01*
X54020083Y-94705325D01*
X54020081Y-94705328D01*
X53963928Y-94878149D01*
X53963928Y-94878152D01*
X53955124Y-94933738D01*
X53935500Y-95057639D01*
X53935500Y-96547361D01*
X50270500Y-96547361D01*
X50270500Y-90886271D01*
X51739500Y-90886271D01*
X51772182Y-91050574D01*
X51772184Y-91050582D01*
X51836295Y-91205360D01*
X51929373Y-91344662D01*
X52047837Y-91463126D01*
X52140494Y-91525037D01*
X52187137Y-91556203D01*
X52341918Y-91620316D01*
X52506228Y-91652999D01*
X52506232Y-91653000D01*
X52506233Y-91653000D01*
X52673768Y-91653000D01*
X52673769Y-91652999D01*
X52838082Y-91620316D01*
X52992863Y-91556203D01*
X53132162Y-91463126D01*
X53250626Y-91344662D01*
X53343703Y-91205363D01*
X53407816Y-91050582D01*
X53440500Y-90886267D01*
X53440500Y-90718733D01*
X53407816Y-90554418D01*
X53343703Y-90399637D01*
X53307266Y-90345106D01*
X53250626Y-90260337D01*
X53132162Y-90141873D01*
X52992860Y-90048795D01*
X52838082Y-89984684D01*
X52838074Y-89984682D01*
X52673771Y-89952000D01*
X52673767Y-89952000D01*
X52506233Y-89952000D01*
X52506228Y-89952000D01*
X52341925Y-89984682D01*
X52341917Y-89984684D01*
X52187139Y-90048795D01*
X52047837Y-90141873D01*
X51929373Y-90260337D01*
X51836295Y-90399639D01*
X51772184Y-90554417D01*
X51772182Y-90554425D01*
X51739500Y-90718728D01*
X51739500Y-90886271D01*
X50270500Y-90886271D01*
X50270500Y-37974500D01*
X50290185Y-37907461D01*
X50342989Y-37861706D01*
X50394500Y-37850500D01*
X124040500Y-37850500D01*
X124107539Y-37870185D01*
G37*
%TD.AperFunction*%
%TD*%
M02*
