%TF.GenerationSoftware,KiCad,Pcbnew,8.0.1*%
%TF.CreationDate,2024-04-12T12:19:04+01:00*%
%TF.ProjectId,TIM-011B,54494d2d-3031-4314-922e-6b696361645f,rev?*%
%TF.SameCoordinates,Original*%
%TF.FileFunction,Soldermask,Bot*%
%TF.FilePolarity,Negative*%
%FSLAX46Y46*%
G04 Gerber Fmt 4.6, Leading zero omitted, Abs format (unit mm)*
G04 Created by KiCad (PCBNEW 8.0.1) date 2024-04-12 12:19:04*
%MOMM*%
%LPD*%
G01*
G04 APERTURE LIST*
%ADD10C,1.449000*%
%ADD11R,1.600000X1.600000*%
%ADD12O,1.600000X1.600000*%
%ADD13C,1.600000*%
%ADD14C,2.700000*%
%ADD15C,1.700000*%
%ADD16O,1.700000X1.700000*%
%ADD17R,1.700000X1.700000*%
%ADD18R,2.400000X2.400000*%
%ADD19O,2.400000X2.400000*%
%ADD20R,3.000000X3.000000*%
%ADD21C,3.000000*%
%ADD22C,2.100000*%
%ADD23C,1.750000*%
%ADD24R,2.000000X2.000000*%
%ADD25C,2.000000*%
%ADD26C,1.500000*%
%ADD27R,1.400000X1.400000*%
%ADD28C,1.400000*%
%ADD29R,1.800000X1.800000*%
%ADD30C,1.800000*%
%ADD31C,2.390000*%
%ADD32R,2.100000X2.100000*%
G04 APERTURE END LIST*
D10*
%TO.C,J3*%
X301804500Y-40695000D02*
G75*
G02*
X300355500Y-40695000I-724500J0D01*
G01*
X300355500Y-40695000D02*
G75*
G02*
X301804500Y-40695000I724500J0D01*
G01*
X316814500Y-40695000D02*
G75*
G02*
X315365500Y-40695000I-724500J0D01*
G01*
X315365500Y-40695000D02*
G75*
G02*
X316814500Y-40695000I724500J0D01*
G01*
%TD*%
D11*
%TO.C,U38*%
X263770000Y-193785000D03*
D12*
X266310000Y-193785000D03*
X268850000Y-193785000D03*
X271390000Y-193785000D03*
X273930000Y-193785000D03*
X276470000Y-193785000D03*
X279010000Y-193785000D03*
X281550000Y-193785000D03*
X281550000Y-186165000D03*
X279010000Y-186165000D03*
X276470000Y-186165000D03*
X273930000Y-186165000D03*
X271390000Y-186165000D03*
X268850000Y-186165000D03*
X266310000Y-186165000D03*
X263770000Y-186165000D03*
%TD*%
D11*
%TO.C,U34*%
X225740000Y-172280000D03*
D12*
X225740000Y-174820000D03*
X225740000Y-177360000D03*
X225740000Y-179900000D03*
X225740000Y-182440000D03*
X225740000Y-184980000D03*
X225740000Y-187520000D03*
X233360000Y-187520000D03*
X233360000Y-184980000D03*
X233360000Y-182440000D03*
X233360000Y-179900000D03*
X233360000Y-177360000D03*
X233360000Y-174820000D03*
X233360000Y-172280000D03*
%TD*%
D13*
%TO.C,R15*%
X236890000Y-214170000D03*
D12*
X236890000Y-201470000D03*
%TD*%
D14*
%TO.C,H6*%
X257302000Y-214122000D03*
%TD*%
D11*
%TO.C,U7*%
X262640000Y-64520000D03*
D12*
X262640000Y-67060000D03*
X262640000Y-69600000D03*
X262640000Y-72140000D03*
X262640000Y-74680000D03*
X262640000Y-77220000D03*
X262640000Y-79760000D03*
X270260000Y-79760000D03*
X270260000Y-77220000D03*
X270260000Y-74680000D03*
X270260000Y-72140000D03*
X270260000Y-69600000D03*
X270260000Y-67060000D03*
X270260000Y-64520000D03*
%TD*%
D15*
%TO.C,JMP1*%
X281720000Y-84930000D03*
D16*
X284260000Y-84930000D03*
X286800000Y-84930000D03*
%TD*%
D11*
%TO.C,U11*%
X118210000Y-97230000D03*
D12*
X118210000Y-99770000D03*
X118210000Y-102310000D03*
X118210000Y-104850000D03*
X118210000Y-107390000D03*
X118210000Y-109930000D03*
X118210000Y-112470000D03*
X118210000Y-115010000D03*
X125830000Y-115010000D03*
X125830000Y-112470000D03*
X125830000Y-109930000D03*
X125830000Y-107390000D03*
X125830000Y-104850000D03*
X125830000Y-102310000D03*
X125830000Y-99770000D03*
X125830000Y-97230000D03*
%TD*%
D13*
%TO.C,C30*%
X215640000Y-167180000D03*
X208140000Y-167180000D03*
%TD*%
%TO.C,C7*%
X216850000Y-218990000D03*
X224350000Y-218990000D03*
%TD*%
D11*
%TO.C,U20*%
X134580000Y-137750000D03*
D12*
X134580000Y-140290000D03*
X134580000Y-142830000D03*
X134580000Y-145370000D03*
X134580000Y-147910000D03*
X134580000Y-150450000D03*
X134580000Y-152990000D03*
X134580000Y-155530000D03*
X142200000Y-155530000D03*
X142200000Y-152990000D03*
X142200000Y-150450000D03*
X142200000Y-147910000D03*
X142200000Y-145370000D03*
X142200000Y-142830000D03*
X142200000Y-140290000D03*
X142200000Y-137750000D03*
%TD*%
D11*
%TO.C,U37*%
X289130000Y-179910000D03*
D12*
X291670000Y-179910000D03*
X294210000Y-179910000D03*
X296750000Y-179910000D03*
X299290000Y-179910000D03*
X301830000Y-179910000D03*
X304370000Y-179910000D03*
X306910000Y-179910000D03*
X306910000Y-172290000D03*
X304370000Y-172290000D03*
X301830000Y-172290000D03*
X299290000Y-172290000D03*
X296750000Y-172290000D03*
X294210000Y-172290000D03*
X291670000Y-172290000D03*
X289130000Y-172290000D03*
%TD*%
D11*
%TO.C,U23*%
X188020000Y-137990000D03*
D12*
X188020000Y-140530000D03*
X188020000Y-143070000D03*
X188020000Y-145610000D03*
X188020000Y-148150000D03*
X188020000Y-150690000D03*
X188020000Y-153230000D03*
X195640000Y-153230000D03*
X195640000Y-150690000D03*
X195640000Y-148150000D03*
X195640000Y-145610000D03*
X195640000Y-143070000D03*
X195640000Y-140530000D03*
X195640000Y-137990000D03*
%TD*%
D11*
%TO.C,U47*%
X263770000Y-221705000D03*
D12*
X266310000Y-221705000D03*
X268850000Y-221705000D03*
X271390000Y-221705000D03*
X273930000Y-221705000D03*
X276470000Y-221705000D03*
X279010000Y-221705000D03*
X281550000Y-221705000D03*
X281550000Y-214085000D03*
X279010000Y-214085000D03*
X276470000Y-214085000D03*
X273930000Y-214085000D03*
X271390000Y-214085000D03*
X268850000Y-214085000D03*
X266310000Y-214085000D03*
X263770000Y-214085000D03*
%TD*%
D13*
%TO.C,C9*%
X305910000Y-59610000D03*
X298410000Y-59610000D03*
%TD*%
D11*
%TO.C,U48*%
X288910000Y-221680000D03*
D12*
X291450000Y-221680000D03*
X293990000Y-221680000D03*
X296530000Y-221680000D03*
X299070000Y-221680000D03*
X301610000Y-221680000D03*
X304150000Y-221680000D03*
X306690000Y-221680000D03*
X306690000Y-214060000D03*
X304150000Y-214060000D03*
X301610000Y-214060000D03*
X299070000Y-214060000D03*
X296530000Y-214060000D03*
X293990000Y-214060000D03*
X291450000Y-214060000D03*
X288910000Y-214060000D03*
%TD*%
D13*
%TO.C,C40*%
X175300000Y-59270000D03*
X167800000Y-59270000D03*
%TD*%
%TO.C,C29*%
X125940000Y-59310000D03*
X118440000Y-59310000D03*
%TD*%
D17*
%TO.C,P3*%
X207000000Y-66970000D03*
D16*
X207000000Y-64430000D03*
X209540000Y-66970000D03*
X209540000Y-64430000D03*
X212080000Y-66970000D03*
X212080000Y-64430000D03*
X214620000Y-66970000D03*
X214620000Y-64430000D03*
X217160000Y-66970000D03*
X217160000Y-64430000D03*
X219700000Y-66970000D03*
X219700000Y-64430000D03*
X222240000Y-66970000D03*
X222240000Y-64430000D03*
X224780000Y-66970000D03*
X224780000Y-64430000D03*
X227320000Y-66970000D03*
X227320000Y-64430000D03*
X229860000Y-66970000D03*
X229860000Y-64430000D03*
X232400000Y-66970000D03*
X232400000Y-64430000D03*
X234940000Y-66970000D03*
X234940000Y-64430000D03*
X237480000Y-66970000D03*
X237480000Y-64430000D03*
X240020000Y-66970000D03*
X240020000Y-64430000D03*
X242560000Y-66970000D03*
X242560000Y-64430000D03*
X245100000Y-66970000D03*
X245100000Y-64430000D03*
X247640000Y-66970000D03*
X247640000Y-64430000D03*
X250180000Y-66970000D03*
X250180000Y-64430000D03*
X252720000Y-66970000D03*
X252720000Y-64430000D03*
X255260000Y-66970000D03*
X255260000Y-64430000D03*
%TD*%
D14*
%TO.C,H2*%
X174250000Y-46228000D03*
%TD*%
D13*
%TO.C,C51*%
X287980000Y-133120000D03*
X280480000Y-133120000D03*
%TD*%
%TO.C,CX1*%
X109414000Y-86487000D03*
X101914000Y-86487000D03*
%TD*%
D18*
%TO.C,C1*%
X146380000Y-42610000D03*
X174160000Y-38030000D03*
D19*
X174160000Y-42610000D03*
%TD*%
D13*
%TO.C,R6*%
X204490000Y-110220000D03*
D12*
X204490000Y-97520000D03*
%TD*%
D16*
%TO.C,*%
X301990000Y-88780000D03*
%TD*%
D20*
%TO.C,P2*%
X151450000Y-51620000D03*
D21*
X159070000Y-51620000D03*
X164160000Y-51630000D03*
X169240000Y-51630000D03*
%TD*%
D17*
%TO.C,J5*%
X315500000Y-69945000D03*
D16*
X315500000Y-72485000D03*
X315500000Y-75025000D03*
X315500000Y-77565000D03*
%TD*%
D13*
%TO.C,C46*%
X285050000Y-207810000D03*
X285050000Y-200310000D03*
%TD*%
D22*
%TO.C,T2*%
X105990000Y-43000000D03*
X113000000Y-43000000D03*
D23*
X107240000Y-40510000D03*
X111740000Y-40510000D03*
%TD*%
D11*
%TO.C,U1*%
X101920000Y-64240000D03*
D12*
X101920000Y-66780000D03*
X101920000Y-69320000D03*
X101920000Y-71860000D03*
X101920000Y-74400000D03*
X101920000Y-76940000D03*
X101920000Y-79480000D03*
X109540000Y-79480000D03*
X109540000Y-76940000D03*
X109540000Y-74400000D03*
X109540000Y-71860000D03*
X109540000Y-69320000D03*
X109540000Y-66780000D03*
X109540000Y-64240000D03*
%TD*%
D17*
%TO.C,J4*%
X309500000Y-69945000D03*
D16*
X309500000Y-72485000D03*
X309500000Y-75025000D03*
X309500000Y-77565000D03*
%TD*%
D15*
%TO.C,JMP2*%
X293060000Y-69640000D03*
D16*
X293060000Y-72180000D03*
X293060000Y-74720000D03*
X293060000Y-77260000D03*
X293060000Y-79800000D03*
%TD*%
D11*
%TO.C,U28*%
X298250000Y-138090000D03*
D12*
X298250000Y-140630000D03*
X298250000Y-143170000D03*
X298250000Y-145710000D03*
X298250000Y-148250000D03*
X298250000Y-150790000D03*
X298250000Y-153330000D03*
X298250000Y-155870000D03*
X305870000Y-155870000D03*
X305870000Y-153330000D03*
X305870000Y-150790000D03*
X305870000Y-148250000D03*
X305870000Y-145710000D03*
X305870000Y-143170000D03*
X305870000Y-140630000D03*
X305870000Y-138090000D03*
%TD*%
D13*
%TO.C,C6*%
X215670000Y-158110000D03*
X208170000Y-158110000D03*
%TD*%
D11*
%TO.C,U29*%
X101480000Y-171970000D03*
D12*
X101480000Y-174510000D03*
X101480000Y-177050000D03*
X101480000Y-179590000D03*
X101480000Y-182130000D03*
X101480000Y-184670000D03*
X101480000Y-187210000D03*
X101480000Y-189750000D03*
X109100000Y-189750000D03*
X109100000Y-187210000D03*
X109100000Y-184670000D03*
X109100000Y-182130000D03*
X109100000Y-179590000D03*
X109100000Y-177050000D03*
X109100000Y-174510000D03*
X109100000Y-171970000D03*
%TD*%
D13*
%TO.C,R3*%
X274380000Y-64780000D03*
D12*
X274380000Y-77480000D03*
%TD*%
D11*
%TO.C,U2*%
X118310000Y-64220000D03*
D12*
X118310000Y-66760000D03*
X118310000Y-69300000D03*
X118310000Y-71840000D03*
X118310000Y-74380000D03*
X118310000Y-76920000D03*
X118310000Y-79460000D03*
X125930000Y-79460000D03*
X125930000Y-76920000D03*
X125930000Y-74380000D03*
X125930000Y-71840000D03*
X125930000Y-69300000D03*
X125930000Y-66760000D03*
X125930000Y-64220000D03*
%TD*%
D11*
%TO.C,U5*%
X167690000Y-64230000D03*
D12*
X167690000Y-66770000D03*
X167690000Y-69310000D03*
X167690000Y-71850000D03*
X167690000Y-74390000D03*
X167690000Y-76930000D03*
X167690000Y-79470000D03*
X167690000Y-82010000D03*
X167690000Y-84550000D03*
X167690000Y-87090000D03*
X175310000Y-87090000D03*
X175310000Y-84550000D03*
X175310000Y-82010000D03*
X175310000Y-79470000D03*
X175310000Y-76930000D03*
X175310000Y-74390000D03*
X175310000Y-71850000D03*
X175310000Y-69310000D03*
X175310000Y-66770000D03*
X175310000Y-64230000D03*
%TD*%
D16*
%TO.C,*%
X125730000Y-125095000D03*
%TD*%
D11*
%TO.C,U32*%
X187770000Y-172160000D03*
D12*
X187770000Y-174700000D03*
X187770000Y-177240000D03*
X187770000Y-179780000D03*
X187770000Y-182320000D03*
X187770000Y-184860000D03*
X187770000Y-187400000D03*
X187770000Y-189940000D03*
X195390000Y-189940000D03*
X195390000Y-187400000D03*
X195390000Y-184860000D03*
X195390000Y-182320000D03*
X195390000Y-179780000D03*
X195390000Y-177240000D03*
X195390000Y-174700000D03*
X195390000Y-172160000D03*
%TD*%
D11*
%TO.C,U15*%
X188050000Y-97402500D03*
D12*
X188050000Y-99942500D03*
X188050000Y-102482500D03*
X188050000Y-105022500D03*
X188050000Y-107562500D03*
X188050000Y-110102500D03*
X188050000Y-112642500D03*
X195670000Y-112642500D03*
X195670000Y-110102500D03*
X195670000Y-107562500D03*
X195670000Y-105022500D03*
X195670000Y-102482500D03*
X195670000Y-99942500D03*
X195670000Y-97402500D03*
%TD*%
D15*
%TO.C,JMP3*%
X178308000Y-155575000D03*
D16*
X178308000Y-153035000D03*
X178308000Y-150495000D03*
%TD*%
D11*
%TO.C,U43*%
X159640000Y-217750000D03*
D12*
X162180000Y-217750000D03*
X164720000Y-217750000D03*
X167260000Y-217750000D03*
X169800000Y-217750000D03*
X172340000Y-217750000D03*
X174880000Y-217750000D03*
X177420000Y-217750000D03*
X179960000Y-217750000D03*
X182500000Y-217750000D03*
X185040000Y-217750000D03*
X187580000Y-217750000D03*
X190120000Y-217750000D03*
X192660000Y-217750000D03*
X195200000Y-217750000D03*
X197740000Y-217750000D03*
X200280000Y-217750000D03*
X202820000Y-217750000D03*
X205360000Y-217750000D03*
X207900000Y-217750000D03*
X207900000Y-202510000D03*
X205360000Y-202510000D03*
X202820000Y-202510000D03*
X200280000Y-202510000D03*
X197740000Y-202510000D03*
X195200000Y-202510000D03*
X192660000Y-202510000D03*
X190120000Y-202510000D03*
X187580000Y-202510000D03*
X185040000Y-202510000D03*
X182500000Y-202510000D03*
X179960000Y-202510000D03*
X177420000Y-202510000D03*
X174880000Y-202510000D03*
X172340000Y-202510000D03*
X169800000Y-202510000D03*
X167260000Y-202510000D03*
X164720000Y-202510000D03*
X162180000Y-202510000D03*
X159640000Y-202510000D03*
%TD*%
D14*
%TO.C,H1*%
X100584000Y-51943000D03*
%TD*%
D24*
%TO.C,J1*%
X189985000Y-45720000D03*
D25*
X192755000Y-45720000D03*
X195525000Y-45720000D03*
X198295000Y-45720000D03*
X201065000Y-45720000D03*
X203835000Y-45720000D03*
X206605000Y-45720000D03*
X209375000Y-45720000D03*
X212145000Y-45720000D03*
X214915000Y-45720000D03*
X217685000Y-45720000D03*
X220455000Y-45720000D03*
X223225000Y-45720000D03*
X191350000Y-42900000D03*
X194120000Y-42900000D03*
X196890000Y-42900000D03*
X199660000Y-42900000D03*
X202430000Y-42900000D03*
X205200000Y-42900000D03*
X207970000Y-42900000D03*
X210740000Y-42900000D03*
X213510000Y-42900000D03*
X216280000Y-42900000D03*
X219050000Y-42900000D03*
X221820000Y-42900000D03*
%TD*%
D11*
%TO.C,D1*%
X162800000Y-97390000D03*
D12*
X162800000Y-107550000D03*
%TD*%
D11*
%TO.C,U46*%
X289080000Y-207775000D03*
D12*
X291620000Y-207775000D03*
X294160000Y-207775000D03*
X296700000Y-207775000D03*
X299240000Y-207775000D03*
X301780000Y-207775000D03*
X304320000Y-207775000D03*
X306860000Y-207775000D03*
X306860000Y-200155000D03*
X304320000Y-200155000D03*
X301780000Y-200155000D03*
X299240000Y-200155000D03*
X296700000Y-200155000D03*
X294160000Y-200155000D03*
X291620000Y-200155000D03*
X289080000Y-200155000D03*
%TD*%
D13*
%TO.C,C26*%
X312050000Y-208000000D03*
X312050000Y-200500000D03*
%TD*%
D14*
%TO.C,H4*%
X121031000Y-127254000D03*
%TD*%
D13*
%TO.C,C19*%
X142210000Y-132790000D03*
X134710000Y-132790000D03*
%TD*%
D26*
%TO.C,Y1*%
X208200000Y-154550000D03*
X213100000Y-154550000D03*
%TD*%
D20*
%TO.C,P5*%
X126319000Y-43307000D03*
D21*
X130279000Y-43307000D03*
X134239000Y-43307000D03*
X138199000Y-43307000D03*
%TD*%
D13*
%TO.C,C25*%
X312030000Y-193780000D03*
X312030000Y-186280000D03*
%TD*%
D24*
%TO.C,J2*%
X284040000Y-45720000D03*
D25*
X281270000Y-45720000D03*
X278500000Y-45720000D03*
X275730000Y-45720000D03*
X272960000Y-45720000D03*
X270190000Y-45720000D03*
X267420000Y-45720000D03*
X264650000Y-45720000D03*
X261880000Y-45720000D03*
X259110000Y-45720000D03*
X256340000Y-45720000D03*
X253570000Y-45720000D03*
X250800000Y-45720000D03*
X282635000Y-42900000D03*
X279865000Y-42900000D03*
X277095000Y-42900000D03*
X274325000Y-42900000D03*
X271555000Y-42900000D03*
X268785000Y-42900000D03*
X266015000Y-42900000D03*
X263245000Y-42900000D03*
X260475000Y-42900000D03*
X257705000Y-42900000D03*
X254935000Y-42900000D03*
X252165000Y-42900000D03*
%TD*%
D17*
%TO.C,P4*%
X233370000Y-165800000D03*
D16*
X233370000Y-163260000D03*
X235910000Y-165800000D03*
X235910000Y-163260000D03*
X238450000Y-165800000D03*
X238450000Y-163260000D03*
X240990000Y-165800000D03*
X240990000Y-163260000D03*
X243530000Y-165800000D03*
X243530000Y-163260000D03*
X246070000Y-165800000D03*
X246070000Y-163260000D03*
X248610000Y-165800000D03*
X248610000Y-163260000D03*
X251150000Y-165800000D03*
X251150000Y-163260000D03*
X253690000Y-165800000D03*
X253690000Y-163260000D03*
X256230000Y-165800000D03*
X256230000Y-163260000D03*
X258770000Y-165800000D03*
X258770000Y-163260000D03*
X261310000Y-165800000D03*
X261310000Y-163260000D03*
X263850000Y-165800000D03*
X263850000Y-163260000D03*
X266390000Y-165800000D03*
X266390000Y-163260000D03*
X268930000Y-165800000D03*
X268930000Y-163260000D03*
X271470000Y-165800000D03*
X271470000Y-163260000D03*
X274010000Y-165800000D03*
X274010000Y-163260000D03*
%TD*%
D13*
%TO.C,C24*%
X312040000Y-179930000D03*
X312040000Y-172430000D03*
%TD*%
D11*
%TO.C,U35*%
X244760000Y-172370000D03*
D12*
X244760000Y-174910000D03*
X244760000Y-177450000D03*
X244760000Y-179990000D03*
X244760000Y-182530000D03*
X244760000Y-185070000D03*
X244760000Y-187610000D03*
X244760000Y-190150000D03*
X252380000Y-190150000D03*
X252380000Y-187610000D03*
X252380000Y-185070000D03*
X252380000Y-182530000D03*
X252380000Y-179990000D03*
X252380000Y-177450000D03*
X252380000Y-174910000D03*
X252380000Y-172370000D03*
%TD*%
D11*
%TO.C,U30*%
X121680000Y-187260000D03*
D12*
X124220000Y-187260000D03*
X126760000Y-187260000D03*
X129300000Y-187260000D03*
X131840000Y-187260000D03*
X134380000Y-187260000D03*
X136920000Y-187260000D03*
X139460000Y-187260000D03*
X142000000Y-187260000D03*
X144540000Y-187260000D03*
X147080000Y-187260000D03*
X149620000Y-187260000D03*
X152160000Y-187260000D03*
X154700000Y-187260000D03*
X154700000Y-172020000D03*
X152160000Y-172020000D03*
X149620000Y-172020000D03*
X147080000Y-172020000D03*
X144540000Y-172020000D03*
X142000000Y-172020000D03*
X139460000Y-172020000D03*
X136920000Y-172020000D03*
X134380000Y-172020000D03*
X131840000Y-172020000D03*
X129300000Y-172020000D03*
X126760000Y-172020000D03*
X124220000Y-172020000D03*
X121680000Y-172020000D03*
%TD*%
D13*
%TO.C,R9*%
X203190000Y-153250000D03*
D12*
X203190000Y-140550000D03*
%TD*%
D13*
%TO.C,C16*%
X226030000Y-92340000D03*
X218530000Y-92340000D03*
%TD*%
%TO.C,R1*%
X146120000Y-87320000D03*
D12*
X146120000Y-74620000D03*
%TD*%
D11*
%TO.C,U13*%
X151200000Y-97230000D03*
D12*
X151200000Y-99770000D03*
X151200000Y-102310000D03*
X151200000Y-104850000D03*
X151200000Y-107390000D03*
X151200000Y-109930000D03*
X151200000Y-112470000D03*
X151200000Y-115010000D03*
X158820000Y-115010000D03*
X158820000Y-112470000D03*
X158820000Y-109930000D03*
X158820000Y-107390000D03*
X158820000Y-104850000D03*
X158820000Y-102310000D03*
X158820000Y-99770000D03*
X158820000Y-97230000D03*
%TD*%
D13*
%TO.C,C31*%
X195330000Y-167280000D03*
X187830000Y-167280000D03*
%TD*%
D11*
%TO.C,U45*%
X263770000Y-207775000D03*
D12*
X266310000Y-207775000D03*
X268850000Y-207775000D03*
X271390000Y-207775000D03*
X273930000Y-207775000D03*
X276470000Y-207775000D03*
X279010000Y-207775000D03*
X281550000Y-207775000D03*
X281550000Y-200155000D03*
X279010000Y-200155000D03*
X276470000Y-200155000D03*
X273930000Y-200155000D03*
X271390000Y-200155000D03*
X268850000Y-200155000D03*
X266310000Y-200155000D03*
X263770000Y-200155000D03*
%TD*%
D13*
%TO.C,C12*%
X142280000Y-92130000D03*
X134780000Y-92130000D03*
%TD*%
D11*
%TO.C,U41*%
X117810000Y-199850000D03*
D12*
X117810000Y-202390000D03*
X117810000Y-204930000D03*
X117810000Y-207470000D03*
X117810000Y-210010000D03*
X117810000Y-212550000D03*
X117810000Y-215090000D03*
X117810000Y-217630000D03*
X117810000Y-220170000D03*
X117810000Y-222710000D03*
X125430000Y-222710000D03*
X125430000Y-220170000D03*
X125430000Y-217630000D03*
X125430000Y-215090000D03*
X125430000Y-212550000D03*
X125430000Y-210010000D03*
X125430000Y-207470000D03*
X125430000Y-204930000D03*
X125430000Y-202390000D03*
X125430000Y-199850000D03*
%TD*%
D11*
%TO.C,U12*%
X134670000Y-97230000D03*
D12*
X134670000Y-99770000D03*
X134670000Y-102310000D03*
X134670000Y-104850000D03*
X134670000Y-107390000D03*
X134670000Y-109930000D03*
X134670000Y-112470000D03*
X134670000Y-115010000D03*
X142290000Y-115010000D03*
X142290000Y-112470000D03*
X142290000Y-109930000D03*
X142290000Y-107390000D03*
X142290000Y-104850000D03*
X142290000Y-102310000D03*
X142290000Y-99770000D03*
X142290000Y-97230000D03*
%TD*%
D13*
%TO.C,C20*%
X158690000Y-132890000D03*
X151190000Y-132890000D03*
%TD*%
D21*
%TO.C,T1*%
X106995000Y-50180000D03*
X112075000Y-50180000D03*
%TD*%
D11*
%TO.C,U39*%
X289110000Y-193760000D03*
D12*
X291650000Y-193760000D03*
X294190000Y-193760000D03*
X296730000Y-193760000D03*
X299270000Y-193760000D03*
X301810000Y-193760000D03*
X304350000Y-193760000D03*
X306890000Y-193760000D03*
X306890000Y-186140000D03*
X304350000Y-186140000D03*
X301810000Y-186140000D03*
X299270000Y-186140000D03*
X296730000Y-186140000D03*
X294190000Y-186140000D03*
X291650000Y-186140000D03*
X289110000Y-186140000D03*
%TD*%
D11*
%TO.C,U14*%
X167720000Y-97220000D03*
D12*
X167720000Y-99760000D03*
X167720000Y-102300000D03*
X167720000Y-104840000D03*
X167720000Y-107380000D03*
X167720000Y-109920000D03*
X167720000Y-112460000D03*
X167720000Y-115000000D03*
X167720000Y-117540000D03*
X167720000Y-120080000D03*
X175340000Y-120080000D03*
X175340000Y-117540000D03*
X175340000Y-115000000D03*
X175340000Y-112460000D03*
X175340000Y-109920000D03*
X175340000Y-107380000D03*
X175340000Y-104840000D03*
X175340000Y-102300000D03*
X175340000Y-99760000D03*
X175340000Y-97220000D03*
%TD*%
D13*
%TO.C,C52*%
X270210000Y-133120000D03*
X262710000Y-133120000D03*
%TD*%
D11*
%TO.C,U8*%
X280620000Y-64580000D03*
D12*
X280620000Y-67120000D03*
X280620000Y-69660000D03*
X280620000Y-72200000D03*
X280620000Y-74740000D03*
X280620000Y-77280000D03*
X280620000Y-79820000D03*
X288240000Y-79820000D03*
X288240000Y-77280000D03*
X288240000Y-74740000D03*
X288240000Y-72200000D03*
X288240000Y-69660000D03*
X288240000Y-67120000D03*
X288240000Y-64580000D03*
%TD*%
D13*
%TO.C,C41*%
X195670000Y-59420000D03*
X188170000Y-59420000D03*
%TD*%
D11*
%TO.C,U21*%
X151080000Y-137750000D03*
D12*
X151080000Y-140290000D03*
X151080000Y-142830000D03*
X151080000Y-145370000D03*
X151080000Y-147910000D03*
X151080000Y-150450000D03*
X151080000Y-152990000D03*
X151080000Y-155530000D03*
X158700000Y-155530000D03*
X158700000Y-152990000D03*
X158700000Y-150450000D03*
X158700000Y-147910000D03*
X158700000Y-145370000D03*
X158700000Y-142830000D03*
X158700000Y-140290000D03*
X158700000Y-137750000D03*
%TD*%
D13*
%TO.C,R7*%
X182245000Y-153220000D03*
D12*
X182245000Y-140520000D03*
%TD*%
D13*
%TO.C,C13*%
X158780000Y-92290000D03*
X151280000Y-92290000D03*
%TD*%
%TO.C,C43*%
X153280000Y-202610000D03*
X153280000Y-210110000D03*
%TD*%
%TO.C,R8*%
X199150000Y-153250000D03*
D12*
X199150000Y-140550000D03*
%TD*%
D13*
%TO.C,C10*%
X109400000Y-92020000D03*
X101900000Y-92020000D03*
%TD*%
%TO.C,C32*%
X175020000Y-167180000D03*
X167520000Y-167180000D03*
%TD*%
%TO.C,R13*%
X229480000Y-201480000D03*
D12*
X229480000Y-214180000D03*
%TD*%
D14*
%TO.C,H7*%
X320040000Y-226822000D03*
%TD*%
D13*
%TO.C,C22*%
X195630000Y-133000000D03*
X188130000Y-133000000D03*
%TD*%
%TO.C,C14*%
X175340000Y-92260000D03*
X167840000Y-92260000D03*
%TD*%
%TO.C,C23*%
X109080000Y-166800000D03*
X101580000Y-166800000D03*
%TD*%
%TO.C,C49*%
X288150000Y-59550000D03*
X280650000Y-59550000D03*
%TD*%
D14*
%TO.C,H8*%
X305689000Y-159639000D03*
%TD*%
D13*
%TO.C,C53*%
X252430000Y-133070000D03*
X244930000Y-133070000D03*
%TD*%
%TO.C,C48*%
X270300000Y-59460000D03*
X262800000Y-59460000D03*
%TD*%
%TO.C,C42*%
X116670000Y-172030000D03*
X116670000Y-179530000D03*
%TD*%
D11*
%TO.C,U16*%
X210790000Y-97450000D03*
D12*
X210790000Y-99990000D03*
X210790000Y-102530000D03*
X210790000Y-105070000D03*
X210790000Y-107610000D03*
X210790000Y-110150000D03*
X210790000Y-112690000D03*
X210790000Y-115230000D03*
X210790000Y-117770000D03*
X210790000Y-120310000D03*
X210790000Y-122850000D03*
X210790000Y-125390000D03*
X210790000Y-127930000D03*
X210790000Y-130470000D03*
X226030000Y-130470000D03*
X226030000Y-127930000D03*
X226030000Y-125390000D03*
X226030000Y-122850000D03*
X226030000Y-120310000D03*
X226030000Y-117770000D03*
X226030000Y-115230000D03*
X226030000Y-112690000D03*
X226030000Y-110150000D03*
X226030000Y-107610000D03*
X226030000Y-105070000D03*
X226030000Y-102530000D03*
X226030000Y-99990000D03*
X226030000Y-97450000D03*
%TD*%
D14*
%TO.C,H3*%
X318897000Y-53086000D03*
%TD*%
D11*
%TO.C,U26*%
X262610000Y-138090000D03*
D12*
X262610000Y-140630000D03*
X262610000Y-143170000D03*
X262610000Y-145710000D03*
X262610000Y-148250000D03*
X262610000Y-150790000D03*
X262610000Y-153330000D03*
X262610000Y-155870000D03*
X270230000Y-155870000D03*
X270230000Y-153330000D03*
X270230000Y-150790000D03*
X270230000Y-148250000D03*
X270230000Y-145710000D03*
X270230000Y-143170000D03*
X270230000Y-140630000D03*
X270230000Y-138090000D03*
%TD*%
D13*
%TO.C,R20*%
X181250000Y-99850000D03*
D12*
X181250000Y-87150000D03*
%TD*%
D27*
%TO.C,U17*%
X251230000Y-119050000D03*
D28*
X253010000Y-119050000D03*
X254790000Y-119050000D03*
X256570000Y-119050000D03*
X258350000Y-119050000D03*
X260130000Y-119050000D03*
X261910000Y-119050000D03*
X263690000Y-119050000D03*
X265470000Y-119050000D03*
X267250000Y-119050000D03*
X269030000Y-119050000D03*
X270810000Y-119050000D03*
X272590000Y-119050000D03*
X274370000Y-119050000D03*
X276150000Y-119050000D03*
X277930000Y-119050000D03*
X279710000Y-119050000D03*
X281490000Y-119050000D03*
X283270000Y-119050000D03*
X285050000Y-119050000D03*
X286830000Y-119050000D03*
X288610000Y-119050000D03*
X290390000Y-119050000D03*
X292170000Y-119050000D03*
X293950000Y-119050000D03*
X295730000Y-119050000D03*
X297510000Y-119050000D03*
X299290000Y-119050000D03*
X301070000Y-119050000D03*
X302850000Y-119050000D03*
X304630000Y-119050000D03*
X306410000Y-119050000D03*
X306410000Y-99980000D03*
X304630000Y-99980000D03*
X302850000Y-99980000D03*
X301070000Y-99980000D03*
X299290000Y-99980000D03*
X297510000Y-99980000D03*
X295730000Y-99980000D03*
X293950000Y-99980000D03*
X292170000Y-99980000D03*
X290390000Y-99980000D03*
X288610000Y-99980000D03*
X286830000Y-99980000D03*
X285050000Y-99980000D03*
X283270000Y-99980000D03*
X281490000Y-99980000D03*
X279710000Y-99980000D03*
X277930000Y-99980000D03*
X276150000Y-99980000D03*
X274370000Y-99980000D03*
X272590000Y-99980000D03*
X270810000Y-99980000D03*
X269030000Y-99980000D03*
X267250000Y-99980000D03*
X265470000Y-99980000D03*
X263690000Y-99980000D03*
X261910000Y-99980000D03*
X260130000Y-99980000D03*
X258350000Y-99980000D03*
X256570000Y-99980000D03*
X254790000Y-99980000D03*
X253010000Y-99980000D03*
X251230000Y-99980000D03*
%TD*%
D14*
%TO.C,H5*%
X113284000Y-223012000D03*
%TD*%
D11*
%TO.C,U42*%
X134270000Y-199840000D03*
D12*
X134270000Y-202380000D03*
X134270000Y-204920000D03*
X134270000Y-207460000D03*
X134270000Y-210000000D03*
X134270000Y-212540000D03*
X134270000Y-215080000D03*
X134270000Y-217620000D03*
X134270000Y-220160000D03*
X134270000Y-222700000D03*
X141890000Y-222700000D03*
X141890000Y-220160000D03*
X141890000Y-217620000D03*
X141890000Y-215080000D03*
X141890000Y-212540000D03*
X141890000Y-210000000D03*
X141890000Y-207460000D03*
X141890000Y-204920000D03*
X141890000Y-202380000D03*
X141890000Y-199840000D03*
%TD*%
D11*
%TO.C,U44*%
X244660000Y-198920000D03*
D12*
X244660000Y-201460000D03*
X244660000Y-204000000D03*
X244660000Y-206540000D03*
X244660000Y-209080000D03*
X244660000Y-211620000D03*
X244660000Y-214160000D03*
X244660000Y-216700000D03*
X244660000Y-219240000D03*
X244660000Y-221780000D03*
X252280000Y-221780000D03*
X252280000Y-219240000D03*
X252280000Y-216700000D03*
X252280000Y-214160000D03*
X252280000Y-211620000D03*
X252280000Y-209080000D03*
X252280000Y-206540000D03*
X252280000Y-204000000D03*
X252280000Y-201460000D03*
X252280000Y-198920000D03*
%TD*%
D13*
%TO.C,R2*%
X183120000Y-64370000D03*
D12*
X183120000Y-77070000D03*
%TD*%
D29*
%TO.C,D2*%
X179725000Y-53750000D03*
D30*
X182265000Y-53750000D03*
%TD*%
D13*
%TO.C,C17*%
X109230000Y-132710000D03*
X101730000Y-132710000D03*
%TD*%
D11*
%TO.C,RP2*%
X251200000Y-126670000D03*
D12*
X253740000Y-126670000D03*
X256280000Y-126670000D03*
X258820000Y-126670000D03*
X261360000Y-126670000D03*
X263900000Y-126670000D03*
X266440000Y-126670000D03*
X268980000Y-126670000D03*
X271520000Y-126670000D03*
X274060000Y-126670000D03*
%TD*%
D13*
%TO.C,C8*%
X305870000Y-55820000D03*
X298370000Y-55820000D03*
%TD*%
D11*
%TO.C,RP3*%
X257390000Y-172250000D03*
D12*
X257390000Y-174790000D03*
X257390000Y-177330000D03*
X257390000Y-179870000D03*
X257390000Y-182410000D03*
X257390000Y-184950000D03*
X257390000Y-187490000D03*
X257390000Y-190030000D03*
X257390000Y-192570000D03*
X257390000Y-195110000D03*
%TD*%
D13*
%TO.C,C45*%
X285220000Y-193740000D03*
X285220000Y-186240000D03*
%TD*%
D15*
%TO.C,JMP4*%
X292960000Y-160500000D03*
D16*
X295500000Y-160500000D03*
%TD*%
D11*
%TO.C,U25*%
X244780000Y-138090000D03*
D12*
X244780000Y-140630000D03*
X244780000Y-143170000D03*
X244780000Y-145710000D03*
X244780000Y-148250000D03*
X244780000Y-150790000D03*
X244780000Y-153330000D03*
X252400000Y-153330000D03*
X252400000Y-150790000D03*
X252400000Y-148250000D03*
X252400000Y-145710000D03*
X252400000Y-143170000D03*
X252400000Y-140630000D03*
X252400000Y-138090000D03*
%TD*%
D13*
%TO.C,C5*%
X195550000Y-116550000D03*
X188050000Y-116550000D03*
%TD*%
D11*
%TO.C,U3*%
X134810000Y-64220000D03*
D12*
X134810000Y-66760000D03*
X134810000Y-69300000D03*
X134810000Y-71840000D03*
X134810000Y-74380000D03*
X134810000Y-76920000D03*
X134810000Y-79460000D03*
X134810000Y-82000000D03*
X142430000Y-82000000D03*
X142430000Y-79460000D03*
X142430000Y-76920000D03*
X142430000Y-74380000D03*
X142430000Y-71840000D03*
X142430000Y-69300000D03*
X142430000Y-66760000D03*
X142430000Y-64220000D03*
%TD*%
D13*
%TO.C,C21*%
X175130000Y-132780000D03*
X167630000Y-132780000D03*
%TD*%
%TO.C,R10*%
X218300000Y-153250000D03*
D12*
X218300000Y-140550000D03*
%TD*%
D11*
%TO.C,U9*%
X298300000Y-64580000D03*
D12*
X298300000Y-67120000D03*
X298300000Y-69660000D03*
X298300000Y-72200000D03*
X298300000Y-74740000D03*
X298300000Y-77280000D03*
X298300000Y-79820000D03*
X305920000Y-79820000D03*
X305920000Y-77280000D03*
X305920000Y-74740000D03*
X305920000Y-72200000D03*
X305920000Y-69660000D03*
X305920000Y-67120000D03*
X305920000Y-64580000D03*
%TD*%
D11*
%TO.C,U40*%
X101380000Y-199850000D03*
D12*
X101380000Y-202390000D03*
X101380000Y-204930000D03*
X101380000Y-207470000D03*
X101380000Y-210010000D03*
X101380000Y-212550000D03*
X101380000Y-215090000D03*
X101380000Y-217630000D03*
X101380000Y-220170000D03*
X101380000Y-222710000D03*
X109000000Y-222710000D03*
X109000000Y-220170000D03*
X109000000Y-217630000D03*
X109000000Y-215090000D03*
X109000000Y-212550000D03*
X109000000Y-210010000D03*
X109000000Y-207470000D03*
X109000000Y-204930000D03*
X109000000Y-202390000D03*
X109000000Y-199850000D03*
%TD*%
D11*
%TO.C,U36*%
X263770000Y-179910000D03*
D12*
X266310000Y-179910000D03*
X268850000Y-179910000D03*
X271390000Y-179910000D03*
X273930000Y-179910000D03*
X276470000Y-179910000D03*
X279010000Y-179910000D03*
X281550000Y-179910000D03*
X281550000Y-172290000D03*
X279010000Y-172290000D03*
X276470000Y-172290000D03*
X273930000Y-172290000D03*
X271390000Y-172290000D03*
X268850000Y-172290000D03*
X266310000Y-172290000D03*
X263770000Y-172290000D03*
%TD*%
D13*
%TO.C,C27*%
X312040000Y-221700000D03*
X312040000Y-214200000D03*
%TD*%
D17*
%TO.C,P1*%
X125970000Y-51540000D03*
D16*
X128510000Y-51540000D03*
X131050000Y-51540000D03*
X133590000Y-51540000D03*
X136130000Y-51540000D03*
%TD*%
D13*
%TO.C,C28*%
X109530000Y-59090000D03*
X102030000Y-59090000D03*
%TD*%
D11*
%TO.C,U19*%
X118100000Y-137750000D03*
D12*
X118100000Y-140290000D03*
X118100000Y-142830000D03*
X118100000Y-145370000D03*
X118100000Y-147910000D03*
X118100000Y-150450000D03*
X118100000Y-152990000D03*
X118100000Y-155530000D03*
X125720000Y-155530000D03*
X125720000Y-152990000D03*
X125720000Y-150450000D03*
X125720000Y-147910000D03*
X125720000Y-145370000D03*
X125720000Y-142830000D03*
X125720000Y-140290000D03*
X125720000Y-137750000D03*
%TD*%
D11*
%TO.C,U33*%
X208010000Y-172290000D03*
D12*
X208010000Y-174830000D03*
X208010000Y-177370000D03*
X208010000Y-179910000D03*
X208010000Y-182450000D03*
X208010000Y-184990000D03*
X208010000Y-187530000D03*
X215630000Y-187530000D03*
X215630000Y-184990000D03*
X215630000Y-182450000D03*
X215630000Y-179910000D03*
X215630000Y-177370000D03*
X215630000Y-174830000D03*
X215630000Y-172290000D03*
%TD*%
D11*
%TO.C,U10*%
X101870000Y-97240000D03*
D12*
X101870000Y-99780000D03*
X101870000Y-102320000D03*
X101870000Y-104860000D03*
X101870000Y-107400000D03*
X101870000Y-109940000D03*
X101870000Y-112480000D03*
X109490000Y-112480000D03*
X109490000Y-109940000D03*
X109490000Y-107400000D03*
X109490000Y-104860000D03*
X109490000Y-102320000D03*
X109490000Y-99780000D03*
X109490000Y-97240000D03*
%TD*%
D13*
%TO.C,C36*%
X252310000Y-195070000D03*
X244810000Y-195070000D03*
%TD*%
D11*
%TO.C,U4*%
X151260000Y-64230000D03*
D12*
X151260000Y-66770000D03*
X151260000Y-69310000D03*
X151260000Y-71850000D03*
X151260000Y-74390000D03*
X151260000Y-76930000D03*
X151260000Y-79470000D03*
X151260000Y-82010000D03*
X151260000Y-84550000D03*
X151260000Y-87090000D03*
X158880000Y-87090000D03*
X158880000Y-84550000D03*
X158880000Y-82010000D03*
X158880000Y-79470000D03*
X158880000Y-76930000D03*
X158880000Y-74390000D03*
X158880000Y-71850000D03*
X158880000Y-69310000D03*
X158880000Y-66770000D03*
X158880000Y-64230000D03*
%TD*%
D13*
%TO.C,R11*%
X222020000Y-140550000D03*
D12*
X222020000Y-153250000D03*
%TD*%
D13*
%TO.C,C50*%
X305780000Y-133100000D03*
X298280000Y-133100000D03*
%TD*%
%TO.C,C18*%
X125720000Y-132790000D03*
X118220000Y-132790000D03*
%TD*%
%TO.C,C2*%
X146050000Y-71790000D03*
X146050000Y-64290000D03*
%TD*%
%TO.C,C34*%
X125310000Y-194780000D03*
X117810000Y-194780000D03*
%TD*%
%TO.C,C11*%
X125860000Y-92230000D03*
X118360000Y-92230000D03*
%TD*%
%TO.C,C3*%
X162800000Y-65610000D03*
X162800000Y-59260000D03*
%TD*%
%TO.C,R4*%
X278160000Y-64770000D03*
D12*
X278160000Y-77470000D03*
%TD*%
D14*
%TO.C,H11*%
X143500000Y-51750000D03*
%TD*%
D11*
%TO.C,RP1*%
X191890000Y-52930000D03*
D12*
X194430000Y-52930000D03*
X196970000Y-52930000D03*
X199510000Y-52930000D03*
X202050000Y-52930000D03*
X204590000Y-52930000D03*
X207130000Y-52930000D03*
X209670000Y-52930000D03*
X212210000Y-52930000D03*
X214750000Y-52930000D03*
%TD*%
D13*
%TO.C,R12*%
X257450000Y-140670000D03*
D12*
X257450000Y-153370000D03*
%TD*%
D31*
%TO.C,J3*%
X301080000Y-40695000D03*
X316090000Y-40695000D03*
D32*
X301080000Y-45705000D03*
D22*
X308585000Y-45705000D03*
X316090000Y-45705000D03*
X303580000Y-48195000D03*
X313590000Y-48195000D03*
X303580000Y-35698200D03*
X306085000Y-35698200D03*
X308635800Y-35698200D03*
X311085000Y-35698200D03*
X313590000Y-35698200D03*
%TD*%
D11*
%TO.C,U24*%
X225770000Y-138090000D03*
D12*
X225770000Y-140630000D03*
X225770000Y-143170000D03*
X225770000Y-145710000D03*
X225770000Y-148250000D03*
X225770000Y-150790000D03*
X225770000Y-153330000D03*
X233390000Y-153330000D03*
X233390000Y-150790000D03*
X233390000Y-148250000D03*
X233390000Y-145710000D03*
X233390000Y-143170000D03*
X233390000Y-140630000D03*
X233390000Y-138090000D03*
%TD*%
D13*
%TO.C,C33*%
X141930000Y-195110000D03*
X134430000Y-195110000D03*
%TD*%
D11*
%TO.C,U31*%
X167390000Y-172240000D03*
D12*
X167390000Y-174780000D03*
X167390000Y-177320000D03*
X167390000Y-179860000D03*
X167390000Y-182400000D03*
X167390000Y-184940000D03*
X167390000Y-187480000D03*
X175010000Y-187480000D03*
X175010000Y-184940000D03*
X175010000Y-182400000D03*
X175010000Y-179860000D03*
X175010000Y-177320000D03*
X175010000Y-174780000D03*
X175010000Y-172240000D03*
%TD*%
D13*
%TO.C,C44*%
X238500000Y-172330000D03*
X238500000Y-179830000D03*
%TD*%
D11*
%TO.C,U27*%
X280480000Y-138090000D03*
D12*
X280480000Y-140630000D03*
X280480000Y-143170000D03*
X280480000Y-145710000D03*
X280480000Y-148250000D03*
X280480000Y-150790000D03*
X280480000Y-153330000D03*
X280480000Y-155870000D03*
X288100000Y-155870000D03*
X288100000Y-153330000D03*
X288100000Y-150790000D03*
X288100000Y-148250000D03*
X288100000Y-145710000D03*
X288100000Y-143170000D03*
X288100000Y-140630000D03*
X288100000Y-138090000D03*
%TD*%
D13*
%TO.C,C37*%
X285390000Y-180000000D03*
X285390000Y-172500000D03*
%TD*%
D11*
%TO.C,U22*%
X167640000Y-137750000D03*
D12*
X167640000Y-140290000D03*
X167640000Y-142830000D03*
X167640000Y-145370000D03*
X167640000Y-147910000D03*
X167640000Y-150450000D03*
X167640000Y-152990000D03*
X167640000Y-155530000D03*
X175260000Y-155530000D03*
X175260000Y-152990000D03*
X175260000Y-150450000D03*
X175260000Y-147910000D03*
X175260000Y-145370000D03*
X175260000Y-142830000D03*
X175260000Y-140290000D03*
X175260000Y-137750000D03*
%TD*%
D11*
%TO.C,U6*%
X188040000Y-64230000D03*
D12*
X188040000Y-66770000D03*
X188040000Y-69310000D03*
X188040000Y-71850000D03*
X188040000Y-74390000D03*
X188040000Y-76930000D03*
X188040000Y-79470000D03*
X188040000Y-82010000D03*
X188040000Y-84550000D03*
X188040000Y-87090000D03*
X195660000Y-87090000D03*
X195660000Y-84550000D03*
X195660000Y-82010000D03*
X195660000Y-79470000D03*
X195660000Y-76930000D03*
X195660000Y-74390000D03*
X195660000Y-71850000D03*
X195660000Y-69310000D03*
X195660000Y-66770000D03*
X195660000Y-64230000D03*
%TD*%
D13*
%TO.C,C15*%
X195610000Y-92460000D03*
X188110000Y-92460000D03*
%TD*%
%TO.C,C38*%
X142450000Y-59110000D03*
X134950000Y-59110000D03*
%TD*%
D26*
%TO.C,Y2*%
X218120000Y-215382500D03*
X223020000Y-215382500D03*
%TD*%
D13*
%TO.C,C35*%
X108940000Y-194690000D03*
X101440000Y-194690000D03*
%TD*%
%TO.C,R5*%
X200590000Y-97520000D03*
D12*
X200590000Y-110220000D03*
%TD*%
D13*
%TO.C,R14*%
X233190000Y-201470000D03*
D12*
X233190000Y-214170000D03*
%TD*%
D13*
%TO.C,R16*%
X240600000Y-214170000D03*
D12*
X240600000Y-201470000D03*
%TD*%
D13*
%TO.C,C47*%
X285070000Y-221710000D03*
X285070000Y-214210000D03*
%TD*%
D14*
%TO.C,H10*%
X235331000Y-120904000D03*
%TD*%
D11*
%TO.C,U18*%
X101850000Y-137760000D03*
D12*
X101850000Y-140300000D03*
X101850000Y-142840000D03*
X101850000Y-145380000D03*
X101850000Y-147920000D03*
X101850000Y-150460000D03*
X101850000Y-153000000D03*
X109470000Y-153000000D03*
X109470000Y-150460000D03*
X109470000Y-147920000D03*
X109470000Y-145380000D03*
X109470000Y-142840000D03*
X109470000Y-140300000D03*
X109470000Y-137760000D03*
%TD*%
D24*
%TO.C,C4*%
X162940000Y-70560000D03*
D25*
X162940000Y-75310000D03*
X162940000Y-85550000D03*
%TD*%
D13*
%TO.C,C39*%
X158880000Y-59210000D03*
X151380000Y-59210000D03*
%TD*%
M02*
