%TF.GenerationSoftware,KiCad,Pcbnew,8.0.1*%
%TF.CreationDate,2024-04-12T12:19:04+01:00*%
%TF.ProjectId,TIM-011B,54494d2d-3031-4314-922e-6b696361645f,rev?*%
%TF.SameCoordinates,Original*%
%TF.FileFunction,Legend,Bot*%
%TF.FilePolarity,Positive*%
%FSLAX46Y46*%
G04 Gerber Fmt 4.6, Leading zero omitted, Abs format (unit mm)*
G04 Created by KiCad (PCBNEW 8.0.1) date 2024-04-12 12:19:04*
%MOMM*%
%LPD*%
G01*
G04 APERTURE LIST*
%ADD10C,0.300000*%
G04 APERTURE END LIST*
D10*
X321766917Y-234300828D02*
X321766917Y-235372257D01*
X321766917Y-235372257D02*
X321838346Y-235586542D01*
X321838346Y-235586542D02*
X321981203Y-235729400D01*
X321981203Y-235729400D02*
X322195489Y-235800828D01*
X322195489Y-235800828D02*
X322338346Y-235800828D01*
X320338346Y-235800828D02*
X321052632Y-235800828D01*
X321052632Y-235800828D02*
X321052632Y-234300828D01*
X318981203Y-235657971D02*
X319052631Y-235729400D01*
X319052631Y-235729400D02*
X319266917Y-235800828D01*
X319266917Y-235800828D02*
X319409774Y-235800828D01*
X319409774Y-235800828D02*
X319624060Y-235729400D01*
X319624060Y-235729400D02*
X319766917Y-235586542D01*
X319766917Y-235586542D02*
X319838346Y-235443685D01*
X319838346Y-235443685D02*
X319909774Y-235157971D01*
X319909774Y-235157971D02*
X319909774Y-234943685D01*
X319909774Y-234943685D02*
X319838346Y-234657971D01*
X319838346Y-234657971D02*
X319766917Y-234515114D01*
X319766917Y-234515114D02*
X319624060Y-234372257D01*
X319624060Y-234372257D02*
X319409774Y-234300828D01*
X319409774Y-234300828D02*
X319266917Y-234300828D01*
X319266917Y-234300828D02*
X319052631Y-234372257D01*
X319052631Y-234372257D02*
X318981203Y-234443685D01*
X317909774Y-234300828D02*
X317909774Y-235372257D01*
X317909774Y-235372257D02*
X317981203Y-235586542D01*
X317981203Y-235586542D02*
X318124060Y-235729400D01*
X318124060Y-235729400D02*
X318338346Y-235800828D01*
X318338346Y-235800828D02*
X318481203Y-235800828D01*
X316481203Y-235800828D02*
X317195489Y-235800828D01*
X317195489Y-235800828D02*
X317195489Y-234300828D01*
X315124060Y-235657971D02*
X315195488Y-235729400D01*
X315195488Y-235729400D02*
X315409774Y-235800828D01*
X315409774Y-235800828D02*
X315552631Y-235800828D01*
X315552631Y-235800828D02*
X315766917Y-235729400D01*
X315766917Y-235729400D02*
X315909774Y-235586542D01*
X315909774Y-235586542D02*
X315981203Y-235443685D01*
X315981203Y-235443685D02*
X316052631Y-235157971D01*
X316052631Y-235157971D02*
X316052631Y-234943685D01*
X316052631Y-234943685D02*
X315981203Y-234657971D01*
X315981203Y-234657971D02*
X315909774Y-234515114D01*
X315909774Y-234515114D02*
X315766917Y-234372257D01*
X315766917Y-234372257D02*
X315552631Y-234300828D01*
X315552631Y-234300828D02*
X315409774Y-234300828D01*
X315409774Y-234300828D02*
X315195488Y-234372257D01*
X315195488Y-234372257D02*
X315124060Y-234443685D01*
X314052631Y-234300828D02*
X314052631Y-235372257D01*
X314052631Y-235372257D02*
X314124060Y-235586542D01*
X314124060Y-235586542D02*
X314266917Y-235729400D01*
X314266917Y-235729400D02*
X314481203Y-235800828D01*
X314481203Y-235800828D02*
X314624060Y-235800828D01*
X312624060Y-235800828D02*
X313338346Y-235800828D01*
X313338346Y-235800828D02*
X313338346Y-234300828D01*
X311266917Y-235657971D02*
X311338345Y-235729400D01*
X311338345Y-235729400D02*
X311552631Y-235800828D01*
X311552631Y-235800828D02*
X311695488Y-235800828D01*
X311695488Y-235800828D02*
X311909774Y-235729400D01*
X311909774Y-235729400D02*
X312052631Y-235586542D01*
X312052631Y-235586542D02*
X312124060Y-235443685D01*
X312124060Y-235443685D02*
X312195488Y-235157971D01*
X312195488Y-235157971D02*
X312195488Y-234943685D01*
X312195488Y-234943685D02*
X312124060Y-234657971D01*
X312124060Y-234657971D02*
X312052631Y-234515114D01*
X312052631Y-234515114D02*
X311909774Y-234372257D01*
X311909774Y-234372257D02*
X311695488Y-234300828D01*
X311695488Y-234300828D02*
X311552631Y-234300828D01*
X311552631Y-234300828D02*
X311338345Y-234372257D01*
X311338345Y-234372257D02*
X311266917Y-234443685D01*
X310195488Y-234300828D02*
X310195488Y-235372257D01*
X310195488Y-235372257D02*
X310266917Y-235586542D01*
X310266917Y-235586542D02*
X310409774Y-235729400D01*
X310409774Y-235729400D02*
X310624060Y-235800828D01*
X310624060Y-235800828D02*
X310766917Y-235800828D01*
X308766917Y-235800828D02*
X309481203Y-235800828D01*
X309481203Y-235800828D02*
X309481203Y-234300828D01*
X307409774Y-235657971D02*
X307481202Y-235729400D01*
X307481202Y-235729400D02*
X307695488Y-235800828D01*
X307695488Y-235800828D02*
X307838345Y-235800828D01*
X307838345Y-235800828D02*
X308052631Y-235729400D01*
X308052631Y-235729400D02*
X308195488Y-235586542D01*
X308195488Y-235586542D02*
X308266917Y-235443685D01*
X308266917Y-235443685D02*
X308338345Y-235157971D01*
X308338345Y-235157971D02*
X308338345Y-234943685D01*
X308338345Y-234943685D02*
X308266917Y-234657971D01*
X308266917Y-234657971D02*
X308195488Y-234515114D01*
X308195488Y-234515114D02*
X308052631Y-234372257D01*
X308052631Y-234372257D02*
X307838345Y-234300828D01*
X307838345Y-234300828D02*
X307695488Y-234300828D01*
X307695488Y-234300828D02*
X307481202Y-234372257D01*
X307481202Y-234372257D02*
X307409774Y-234443685D01*
M02*
